<svg width="1148" height="576" viewBox="0 0 1148 576" version="1.1" xmlns="http://www.w3.org/2000/svg" xmlns:xlink="http://www.w3.org/1999/xlink">
<title>12-gutter</title>
<desc>Created using Figma</desc>
<g id="Canvas" transform="translate(-4963 11118)">
<g id="12-gutter">
<path d="M 4963 -11118L 6111 -11118L 6111 -10542L 4963 -10542L 4963 -11118Z" fill="#F4F4F4"/>
<g id="These articles help">
<use xlink:href="#path0_fill" transform="translate(5004 -10625)" fill="#243A5E"/>
</g>
<g id="These articles help">
<use xlink:href="#path1_fill" transform="translate(5584 -10625)" fill="#243A5E"/>
</g>
<g id="Rectangle">
<use xlink:href="#path2_fill" transform="translate(5026 -11053)" fill="#FFFFFF"/>
</g>
<g id="Rectangle">
<use xlink:href="#path3_fill" transform="translate(5418 -11053)" fill="#FFFFFF"/>
</g>
<g id="Rectangle 2.4">
<use xlink:href="#path4_fill" transform="translate(5350 -11053)" fill="#A7F3FF"/>
</g>
<g id="Rectangle 2.5">
<use xlink:href="#path4_fill" transform="translate(5025 -11053)" fill="url(#paint5_linear)"/>
</g>
<g id="Rectangle 2.2">
<use xlink:href="#path5_fill" transform="translate(5418 -11053)" fill="#A7F3FF"/>
</g>
<g id="Rectangle 2.3">
<use xlink:href="#path5_fill" transform="translate(6025 -11053)" fill="#A7F3FF"/>
</g>
<g id="These articles help">
<use xlink:href="#path6_fill" transform="translate(4991 -11115)" fill="#243A5E"/>
</g>
<g id="These articles help">
<use xlink:href="#path6_fill" transform="translate(5315 -11115)" fill="#243A5E"/>
</g>
<g id="These articles help">
<use xlink:href="#path7_fill" transform="translate(5388 -11115)" fill="#243A5E"/>
</g>
<g id="These articles help">
<use xlink:href="#path7_fill" transform="translate(5997 -11115)" fill="#243A5E"/>
</g>
<g id="Line 4.1">
<use xlink:href="#path8_stroke" transform="matrix(6.12323e-17 -1 1 6.12323e-17 5038 -10661)" fill="#137AD4"/>
</g>
<g id="Line 4.8">
<use xlink:href="#path8_stroke" transform="matrix(6.12323e-17 -1 1 6.12323e-17 5026 -10661)" fill="#137AD4"/>
</g>
<g id="Line 4.2">
<use xlink:href="#path8_stroke" transform="matrix(6.12323e-17 -1 1 6.12323e-17 5350 -10661)" fill="#137AD4"/>
</g>
<g id="Line 4.5">
<use xlink:href="#path8_stroke" transform="matrix(6.12323e-17 -1 1 6.12323e-17 5442 -10661)" fill="#3D8DFF"/>
</g>
<g id="Line 4.6">
<use xlink:href="#path8_stroke" transform="matrix(6.12323e-17 -1 1 6.12323e-17 6026 -10661)" fill="#137AD4"/>
</g>
<g id="Line 4.7">
<use xlink:href="#path8_stroke" transform="matrix(6.12323e-17 -1 1 6.12323e-17 6049 -10661)" fill="#137AD4"/>
</g>
<g id="Line 4.3">
<use xlink:href="#path8_stroke" transform="matrix(6.12323e-17 -1 1 6.12323e-17 5362 -10661)" fill="#137AD4"/>
</g>
<g id="Line 4.4">
<use xlink:href="#path8_stroke" transform="matrix(6.12323e-17 -1 1 6.12323e-17 5418 -10661)" fill="#3D8DFF"/>
</g>
<g id="These articles help">
<use xlink:href="#path9_fill" transform="translate(5695 -10869)" fill="#243A5E"/>
</g>
<g id="These articles help">
<use xlink:href="#path9_fill" transform="translate(5155 -10869)" fill="#243A5E"/>
</g>
</g>
</g>
<defs>
<linearGradient id="paint5_linear" x1="0" y1="0" x2="1" y2="0" gradientUnits="userSpaceOnUse" gradientTransform="matrix(3.43786e-13 728 -22.2857 -1.13594e-12 17.1429 -209)">
<stop offset="0.0165746" stop-color="#A7F3FF" stop-opacity="0.22"/>
<stop offset="0.60221" stop-color="#A7F3FF"/>
<stop offset="1" stop-color="#A7F3FF" stop-opacity="0"/>
</linearGradient>
<path id="path0_fill" d="M 54.999 18.499L 54.999 16.3457C 55.1924 16.5215 55.4209 16.6797 55.6846 16.8203C 55.9541 16.9609 56.2383 17.0811 56.5371 17.1807C 56.8359 17.2744 57.1348 17.3477 57.4336 17.4004C 57.7324 17.4531 58.0078 17.4795 58.2598 17.4795C 59.1387 17.4795 59.792 17.333 60.2197 17.04C 60.6533 16.7471 60.8701 16.3223 60.8701 15.7656C 60.8701 15.4668 60.7969 15.209 60.6504 14.9922C 60.5098 14.7695 60.3105 14.5674 60.0527 14.3857C 59.7949 14.2041 59.4902 14.0312 59.1387 13.8672C 58.793 13.6973 58.4209 13.5215 58.0225 13.3398C 57.5947 13.1113 57.1963 12.8799 56.8271 12.6455C 56.458 12.4111 56.1357 12.1533 55.8604 11.8721C 55.5908 11.585 55.377 11.2627 55.2188 10.9053C 55.0664 10.5479 54.9902 10.1289 54.9902 9.64844C 54.9902 9.05664 55.1221 8.54395 55.3857 8.11035C 55.6553 7.6709 56.0068 7.31055 56.4404 7.0293C 56.8799 6.74219 57.3779 6.53125 57.9346 6.39648C 58.4912 6.25586 59.0596 6.18555 59.6396 6.18555C 60.958 6.18555 61.9189 6.33496 62.5225 6.63379L 62.5225 8.69922C 61.8076 8.18359 60.8877 7.92578 59.7627 7.92578C 59.4521 7.92578 59.1416 7.95508 58.8311 8.01367C 58.5264 8.07227 58.251 8.16895 58.0049 8.30371C 57.7646 8.43848 57.5684 8.61133 57.416 8.82227C 57.2637 9.0332 57.1875 9.28809 57.1875 9.58691C 57.1875 9.86816 57.2461 10.1113 57.3633 10.3164C 57.4805 10.5215 57.6504 10.709 57.873 10.8789C 58.1016 11.0488 58.377 11.2158 58.6992 11.3799C 59.0273 11.5381 59.4053 11.7109 59.833 11.8984C 60.2725 12.127 60.6855 12.3672 61.0723 12.6191C 61.4648 12.8711 61.8076 13.1494 62.1006 13.4541C 62.3994 13.7588 62.6338 14.0986 62.8037 14.4736C 62.9795 14.8428 63.0674 15.2646 63.0674 15.7393C 63.0674 16.3779 62.9385 16.917 62.6807 17.3564C 62.4229 17.7959 62.0742 18.1533 61.6348 18.4287C 61.2012 18.7041 60.7002 18.9033 60.1318 19.0264C 59.5635 19.1494 58.9629 19.2109 58.3301 19.2109C 58.1191 19.2109 57.8584 19.1934 57.5479 19.1582C 57.2432 19.1289 56.9297 19.082 56.6074 19.0176C 56.2852 18.959 55.9805 18.8857 55.6934 18.7979C 55.4062 18.71 55.1748 18.6104 54.999 18.499ZM 78.6152 19L 76.5762 19L 76.5762 14.0957C 76.5762 13.1523 76.4414 12.4697 76.1719 12.0479C 75.9082 11.626 75.46 11.415 74.8271 11.415C 74.2939 11.415 73.8398 11.6816 73.4648 12.2148C 73.0957 12.748 72.9111 13.3867 72.9111 14.1309L 72.9111 19L 70.8633 19L 70.8633 13.9287C 70.8633 12.2529 70.2715 11.415 69.0879 11.415C 68.5371 11.415 68.083 11.667 67.7256 12.1709C 67.374 12.6748 67.1982 13.3281 67.1982 14.1309L 67.1982 19L 65.1592 19L 65.1592 10L 67.1982 10L 67.1982 11.4238L 67.2334 11.4238C 67.8838 10.334 68.8301 9.78906 70.0723 9.78906C 70.6934 9.78906 71.2354 9.96191 71.6982 10.3076C 72.167 10.6475 72.4863 11.0957 72.6562 11.6523C 73.3242 10.4102 74.3203 9.78906 75.6445 9.78906C 77.625 9.78906 78.6152 11.0107 78.6152 13.4541L 78.6152 19ZM 88.0107 19L 86.0332 19L 86.0332 17.5938L 85.998 17.5938C 85.377 18.6719 84.4658 19.2109 83.2646 19.2109C 82.3799 19.2109 81.6855 18.9707 81.1816 18.4902C 80.6836 18.0098 80.4346 17.374 80.4346 16.583C 80.4346 14.8838 81.4131 13.8936 83.3701 13.6123L 86.042 13.2344C 86.042 11.9512 85.4326 11.3096 84.2139 11.3096C 83.1416 11.3096 82.1748 11.6787 81.3135 12.417L 81.3135 10.6328C 82.2627 10.0703 83.3584 9.78906 84.6006 9.78906C 86.874 9.78906 88.0107 10.9082 88.0107 13.1465L 88.0107 19ZM 86.042 14.5791L 84.1523 14.8428C 83.5664 14.9189 83.124 15.0625 82.8252 15.2734C 82.5322 15.4785 82.3857 15.8418 82.3857 16.3633C 82.3857 16.7441 82.5205 17.0576 82.79 17.3037C 83.0654 17.5439 83.4316 17.6641 83.8887 17.6641C 84.5098 17.6641 85.0225 17.4473 85.4268 17.0137C 85.8369 16.5742 86.042 16.0234 86.042 15.3613L 86.042 14.5791ZM 92.5547 19L 90.5068 19L 90.5068 5.67578L 92.5547 5.67578L 92.5547 19ZM 97.2656 19L 95.2178 19L 95.2178 5.67578L 97.2656 5.67578L 97.2656 19ZM 116.988 10L 114.334 19L 112.198 19L 110.563 12.9004C 110.499 12.666 110.458 12.4023 110.44 12.1094L 110.405 12.1094C 110.394 12.3086 110.341 12.5664 110.247 12.8828L 108.472 19L 106.38 19L 103.734 10L 105.844 10L 107.479 16.4863C 107.531 16.6797 107.566 16.9375 107.584 17.2598L 107.646 17.2598C 107.663 17.0137 107.71 16.75 107.786 16.4688L 109.605 10L 111.521 10L 113.139 16.5127C 113.191 16.7178 113.229 16.9756 113.253 17.2861L 113.314 17.2861C 113.326 17.0693 113.37 16.8115 113.446 16.5127L 115.046 10L 116.988 10ZM 119.537 8.11035C 119.203 8.11035 118.916 8.00195 118.676 7.78516C 118.441 7.56836 118.324 7.29297 118.324 6.95898C 118.324 6.625 118.441 6.34668 118.676 6.12402C 118.916 5.90137 119.203 5.79004 119.537 5.79004C 119.883 5.79004 120.176 5.90137 120.416 6.12402C 120.656 6.34668 120.776 6.625 120.776 6.95898C 120.776 7.27539 120.656 7.54785 120.416 7.77637C 120.176 7.99902 119.883 8.11035 119.537 8.11035ZM 120.548 19L 118.509 19L 118.509 10L 120.548 10L 120.548 19ZM 131.235 19L 129.196 19L 129.196 13.9287C 129.196 12.2471 128.602 11.4062 127.412 11.4062C 126.791 11.4062 126.278 11.6406 125.874 12.1094C 125.47 12.5723 125.268 13.1582 125.268 13.8672L 125.268 19L 123.22 19L 123.22 10L 125.268 10L 125.268 11.4941L 125.303 11.4941C 125.977 10.3574 126.949 9.78906 128.221 9.78906C 129.199 9.78906 129.946 10.1084 130.462 10.7471C 130.978 11.3799 131.235 12.2969 131.235 13.498L 131.235 19ZM 141.914 19L 139.875 19L 139.875 17.4707L 139.84 17.4707C 139.184 18.6309 138.173 19.2109 136.808 19.2109C 135.7 19.2109 134.812 18.8096 134.145 18.0068C 133.482 17.1982 133.151 16.0996 133.151 14.7109C 133.151 13.2227 133.518 12.0303 134.25 11.1338C 134.988 10.2373 135.97 9.78906 137.194 9.78906C 138.407 9.78906 139.289 10.2754 139.84 11.248L 139.875 11.248L 139.875 5.67578L 141.914 5.67578L 141.914 19ZM 139.901 14.8867L 139.901 13.709C 139.901 13.0703 139.693 12.5283 139.277 12.083C 138.861 11.6377 138.331 11.415 137.687 11.415C 136.925 11.415 136.324 11.6992 135.885 12.2676C 135.451 12.8359 135.234 13.624 135.234 14.6318C 135.234 15.5459 135.442 16.2695 135.858 16.8027C 136.28 17.3301 136.846 17.5938 137.555 17.5938C 138.252 17.5938 138.817 17.3389 139.251 16.8291C 139.685 16.3135 139.901 15.666 139.901 14.8867ZM 148.567 19.2109C 147.179 19.2109 146.068 18.792 145.236 17.9541C 144.41 17.1104 143.997 15.9941 143.997 14.6055C 143.997 13.0938 144.428 11.9131 145.289 11.0635C 146.156 10.2139 147.322 9.78906 148.787 9.78906C 150.193 9.78906 151.289 10.2021 152.074 11.0283C 152.859 11.8545 153.252 13 153.252 14.4648C 153.252 15.9004 152.827 17.0518 151.978 17.9189C 151.134 18.7803 149.997 19.2109 148.567 19.2109ZM 148.664 11.415C 147.867 11.415 147.237 11.6934 146.774 12.25C 146.312 12.8066 146.08 13.5742 146.08 14.5527C 146.08 15.4961 146.314 16.2402 146.783 16.7852C 147.252 17.3242 147.879 17.5938 148.664 17.5938C 149.467 17.5938 150.082 17.3271 150.51 16.7939C 150.943 16.2607 151.16 15.502 151.16 14.5176C 151.16 13.5273 150.943 12.7627 150.51 12.2236C 150.082 11.6846 149.467 11.415 148.664 11.415ZM 167.438 10L 164.783 19L 162.647 19L 161.013 12.9004C 160.948 12.666 160.907 12.4023 160.89 12.1094L 160.854 12.1094C 160.843 12.3086 160.79 12.5664 160.696 12.8828L 158.921 19L 156.829 19L 154.184 10L 156.293 10L 157.928 16.4863C 157.98 16.6797 158.016 16.9375 158.033 17.2598L 158.095 17.2598C 158.112 17.0137 158.159 16.75 158.235 16.4688L 160.055 10L 161.971 10L 163.588 16.5127C 163.641 16.7178 163.679 16.9756 163.702 17.2861L 163.764 17.2861C 163.775 17.0693 163.819 16.8115 163.896 16.5127L 165.495 10L 167.438 10ZM 186.018 10L 183.363 19L 181.228 19L 179.593 12.9004C 179.528 12.666 179.487 12.4023 179.47 12.1094L 179.435 12.1094C 179.423 12.3086 179.37 12.5664 179.276 12.8828L 177.501 19L 175.409 19L 172.764 10L 174.873 10L 176.508 16.4863C 176.561 16.6797 176.596 16.9375 176.613 17.2598L 176.675 17.2598C 176.692 17.0137 176.739 16.75 176.815 16.4688L 178.635 10L 180.551 10L 182.168 16.5127C 182.221 16.7178 182.259 16.9756 182.282 17.2861L 182.344 17.2861C 182.355 17.0693 182.399 16.8115 182.476 16.5127L 184.075 10L 186.018 10ZM 188.566 8.11035C 188.232 8.11035 187.945 8.00195 187.705 7.78516C 187.471 7.56836 187.354 7.29297 187.354 6.95898C 187.354 6.625 187.471 6.34668 187.705 6.12402C 187.945 5.90137 188.232 5.79004 188.566 5.79004C 188.912 5.79004 189.205 5.90137 189.445 6.12402C 189.686 6.34668 189.806 6.625 189.806 6.95898C 189.806 7.27539 189.686 7.54785 189.445 7.77637C 189.205 7.99902 188.912 8.11035 188.566 8.11035ZM 189.577 19L 187.538 19L 187.538 10L 189.577 10L 189.577 19ZM 200.432 19L 198.393 19L 198.393 17.4707L 198.357 17.4707C 197.701 18.6309 196.69 19.2109 195.325 19.2109C 194.218 19.2109 193.33 18.8096 192.662 18.0068C 192 17.1982 191.669 16.0996 191.669 14.7109C 191.669 13.2227 192.035 12.0303 192.768 11.1338C 193.506 10.2373 194.487 9.78906 195.712 9.78906C 196.925 9.78906 197.807 10.2754 198.357 11.248L 198.393 11.248L 198.393 5.67578L 200.432 5.67578L 200.432 19ZM 198.419 14.8867L 198.419 13.709C 198.419 13.0703 198.211 12.5283 197.795 12.083C 197.379 11.6377 196.849 11.415 196.204 11.415C 195.442 11.415 194.842 11.6992 194.402 12.2676C 193.969 12.8359 193.752 13.624 193.752 14.6318C 193.752 15.5459 193.96 16.2695 194.376 16.8027C 194.798 17.3301 195.363 17.5938 196.072 17.5938C 196.77 17.5938 197.335 17.3389 197.769 16.8291C 198.202 16.3135 198.419 15.666 198.419 14.8867ZM 207.841 18.9033C 207.442 19.1025 206.918 19.2021 206.268 19.2021C 204.521 19.2021 203.648 18.3643 203.648 16.6885L 203.648 11.5996L 202.146 11.5996L 202.146 10L 203.648 10L 203.648 7.91699L 205.688 7.33691L 205.688 10L 207.841 10L 207.841 11.5996L 205.688 11.5996L 205.688 16.0996C 205.688 16.6328 205.784 17.0137 205.978 17.2422C 206.171 17.4707 206.493 17.585 206.944 17.585C 207.29 17.585 207.589 17.4854 207.841 17.2861L 207.841 18.9033ZM 217.597 19L 215.558 19L 215.558 14.0781C 215.558 12.2969 214.963 11.4062 213.773 11.4062C 213.176 11.4062 212.672 11.6641 212.262 12.1797C 211.852 12.6953 211.646 13.3545 211.646 14.1572L 211.646 19L 209.599 19L 209.599 5.67578L 211.646 5.67578L 211.646 11.4941L 211.682 11.4941C 212.361 10.3574 213.334 9.78906 214.6 9.78906C 216.598 9.78906 217.597 11.0107 217.597 13.4541L 217.597 19ZM 233.892 18.1387L 226.043 14.3682L 226.043 13.4365L 233.892 9.34082L 233.892 11.0107L 228.152 13.8584L 228.152 13.8936L 233.892 16.4775L 233.892 18.1387ZM 245.563 14.9482C 245.563 15.5811 245.458 16.1582 245.247 16.6797C 245.042 17.2012 244.755 17.6523 244.386 18.0332C 244.017 18.4082 243.577 18.7012 243.067 18.9121C 242.563 19.1172 242.016 19.2197 241.424 19.2197C 240.791 19.2197 240.208 19.0967 239.675 18.8506C 239.147 18.6045 238.69 18.2383 238.304 17.752C 237.923 17.2656 237.627 16.6621 237.416 15.9414C 237.205 15.2148 237.1 14.374 237.1 13.4189C 237.1 12.2529 237.237 11.2188 237.513 10.3164C 237.794 9.41406 238.178 8.6582 238.664 8.04883C 239.15 7.43945 239.722 6.97656 240.378 6.66016C 241.034 6.34375 241.743 6.18555 242.505 6.18555C 242.979 6.18555 243.41 6.21777 243.797 6.28223C 244.189 6.34668 244.503 6.43457 244.737 6.5459L 244.737 8.38281C 244.438 8.23047 244.119 8.10156 243.779 7.99609C 243.439 7.89062 243.05 7.83789 242.61 7.83789C 242.118 7.83789 241.664 7.9375 241.248 8.13672C 240.832 8.33594 240.472 8.62891 240.167 9.01562C 239.868 9.39648 239.631 9.87109 239.455 10.4395C 239.285 11.002 239.197 11.6523 239.191 12.3906L 239.244 12.3906C 239.514 11.9746 239.877 11.6465 240.334 11.4062C 240.797 11.166 241.339 11.0459 241.96 11.0459C 242.511 11.0459 243.006 11.1367 243.445 11.3184C 243.891 11.4941 244.269 11.752 244.579 12.0918C 244.896 12.4258 245.139 12.8359 245.309 13.3223C 245.479 13.8027 245.563 14.3447 245.563 14.9482ZM 243.507 15.1152C 243.507 14.752 243.463 14.4209 243.375 14.1221C 243.293 13.8232 243.164 13.5684 242.988 13.3574C 242.818 13.1406 242.602 12.9736 242.338 12.8564C 242.08 12.7393 241.775 12.6807 241.424 12.6807C 241.072 12.6807 240.762 12.7451 240.492 12.874C 240.229 12.9971 240.006 13.1611 239.824 13.3662C 239.643 13.5713 239.505 13.8057 239.411 14.0693C 239.323 14.333 239.279 14.6025 239.279 14.8779C 239.279 15.1768 239.32 15.4844 239.402 15.8008C 239.49 16.1113 239.622 16.3955 239.798 16.6533C 239.974 16.9111 240.196 17.125 240.466 17.2949C 240.741 17.459 241.066 17.541 241.441 17.541C 241.775 17.541 242.071 17.4795 242.329 17.3564C 242.587 17.2334 242.801 17.0635 242.971 16.8467C 243.146 16.6299 243.278 16.375 243.366 16.082C 243.46 15.7832 243.507 15.4609 243.507 15.1152ZM 254.396 6.39648L 254.396 14.5352L 256.269 14.5352L 256.269 16.2314L 254.396 16.2314L 254.396 19L 252.419 19L 252.419 16.2314L 246.715 16.2314L 246.715 14.5176C 247.23 13.9375 247.758 13.3105 248.297 12.6367C 248.842 11.957 249.363 11.2656 249.861 10.5625C 250.365 9.85352 250.831 9.14453 251.259 8.43555C 251.687 7.72656 252.047 7.04688 252.34 6.39648L 254.396 6.39648ZM 252.419 14.5352L 252.419 9.24414C 251.78 10.3926 251.147 11.3945 250.521 12.25C 249.899 13.1055 249.316 13.8672 248.771 14.5352L 252.419 14.5352ZM 261.489 19.2109C 260.177 19.2109 259.151 18.6748 258.413 17.6025C 257.681 16.5303 257.314 14.9805 257.314 12.9531C 257.314 10.7266 257.698 9.04199 258.466 7.89941C 259.233 6.75684 260.341 6.18555 261.788 6.18555C 264.56 6.18555 265.945 8.33887 265.945 12.6455C 265.945 14.7783 265.553 16.4072 264.768 17.5322C 263.988 18.6514 262.896 19.2109 261.489 19.2109ZM 261.691 7.81152C 260.162 7.81152 259.397 9.49609 259.397 12.8652C 259.397 16.0176 260.147 17.5938 261.647 17.5938C 263.124 17.5938 263.862 15.9912 263.862 12.7861C 263.862 9.46973 263.139 7.81152 261.691 7.81152ZM 274.989 17.6729L 274.954 17.6729L 274.954 23.1396L 272.915 23.1396L 272.915 10L 274.954 10L 274.954 11.582L 274.989 11.582C 275.687 10.3867 276.706 9.78906 278.048 9.78906C 279.19 9.78906 280.081 10.1904 280.72 10.9932C 281.358 11.7959 281.678 12.874 281.678 14.2275C 281.678 15.7275 281.317 16.9287 280.597 17.8311C 279.876 18.7334 278.892 19.1846 277.644 19.1846C 276.495 19.1846 275.61 18.6807 274.989 17.6729ZM 274.937 14.1221L 274.937 15.2383C 274.937 15.8945 275.145 16.4512 275.561 16.9082C 275.982 17.3652 276.516 17.5938 277.16 17.5938C 277.916 17.5938 278.508 17.3008 278.936 16.7148C 279.369 16.123 279.586 15.2998 279.586 14.2451C 279.586 13.3604 279.384 12.6689 278.979 12.1709C 278.581 11.667 278.039 11.415 277.354 11.415C 276.627 11.415 276.041 11.6729 275.596 12.1885C 275.156 12.7041 274.937 13.3486 274.937 14.1221ZM 284.789 8.11035C 284.455 8.11035 284.168 8.00195 283.928 7.78516C 283.693 7.56836 283.576 7.29297 283.576 6.95898C 283.576 6.625 283.693 6.34668 283.928 6.12402C 284.168 5.90137 284.455 5.79004 284.789 5.79004C 285.135 5.79004 285.428 5.90137 285.668 6.12402C 285.908 6.34668 286.028 6.625 286.028 6.95898C 286.028 7.27539 285.908 7.54785 285.668 7.77637C 285.428 7.99902 285.135 8.11035 284.789 8.11035ZM 285.8 19L 283.761 19L 283.761 10L 285.8 10L 285.8 19ZM 295.995 10L 292.998 14.5527L 295.96 19L 293.596 19L 292.014 16.2139C 291.914 16.0439 291.797 15.8271 291.662 15.5635L 291.627 15.5635C 291.604 15.6162 291.48 15.833 291.258 16.2139L 289.649 19L 287.294 19L 290.353 14.5879L 287.452 10L 289.825 10L 291.381 12.9268C 291.498 13.1436 291.612 13.3662 291.724 13.5947L 291.75 13.5947L 293.763 10L 295.995 10ZM 304.881 15.0537L 298.746 15.0537C 298.77 15.8857 299.024 16.5273 299.511 16.9785C 300.003 17.4297 300.677 17.6553 301.532 17.6553C 302.493 17.6553 303.375 17.3682 304.178 16.7939L 304.178 18.4375C 303.357 18.9531 302.273 19.2109 300.926 19.2109C 299.602 19.2109 298.562 18.8037 297.806 17.9893C 297.056 17.1689 296.681 16.0176 296.681 14.5352C 296.681 13.1348 297.094 11.9951 297.92 11.1162C 298.752 10.2314 299.783 9.78906 301.014 9.78906C 302.244 9.78906 303.196 10.1846 303.87 10.9756C 304.544 11.7666 304.881 12.8652 304.881 14.2715L 304.881 15.0537ZM 302.912 13.6123C 302.906 12.8799 302.733 12.3115 302.394 11.9072C 302.054 11.4971 301.585 11.292 300.987 11.292C 300.401 11.292 299.903 11.5059 299.493 11.9336C 299.089 12.3613 298.84 12.9209 298.746 13.6123L 302.912 13.6123ZM 308.871 19L 306.823 19L 306.823 5.67578L 308.871 5.67578L 308.871 19ZM 310.972 18.7188L 310.972 16.8291C 311.733 17.4092 312.574 17.6992 313.494 17.6992C 314.725 17.6992 315.34 17.3359 315.34 16.6094C 315.34 16.4043 315.287 16.2314 315.182 16.0908C 315.076 15.9443 314.933 15.8154 314.751 15.7041C 314.575 15.5928 314.364 15.4932 314.118 15.4053C 313.878 15.3174 313.608 15.2178 313.31 15.1064C 312.94 14.96 312.606 14.8047 312.308 14.6406C 312.015 14.4766 311.769 14.292 311.569 14.0869C 311.376 13.876 311.229 13.6387 311.13 13.375C 311.03 13.1113 310.98 12.8037 310.98 12.4521C 310.98 12.0186 311.083 11.6377 311.288 11.3096C 311.493 10.9756 311.769 10.6973 312.114 10.4746C 312.46 10.2461 312.853 10.0762 313.292 9.96484C 313.731 9.84766 314.186 9.78906 314.654 9.78906C 315.486 9.78906 316.23 9.91504 316.887 10.167L 316.887 11.9512C 316.254 11.5176 315.527 11.3008 314.707 11.3008C 314.449 11.3008 314.215 11.3271 314.004 11.3799C 313.799 11.4326 313.623 11.5059 313.477 11.5996C 313.33 11.6934 313.216 11.8076 313.134 11.9424C 313.052 12.0713 313.011 12.2148 313.011 12.373C 313.011 12.5664 313.052 12.7305 313.134 12.8652C 313.216 13 313.336 13.1201 313.494 13.2256C 313.658 13.3252 313.852 13.4189 314.074 13.5068C 314.303 13.5889 314.563 13.6797 314.856 13.7793C 315.243 13.9375 315.589 14.0986 315.894 14.2627C 316.204 14.4268 316.468 14.6143 316.685 14.8252C 316.901 15.0303 317.068 15.2705 317.186 15.5459C 317.303 15.8154 317.361 16.1377 317.361 16.5127C 317.361 16.9697 317.256 17.3682 317.045 17.708C 316.834 18.0479 316.553 18.3291 316.201 18.5518C 315.85 18.7744 315.442 18.9385 314.979 19.0439C 314.522 19.1553 314.039 19.2109 313.529 19.2109C 312.545 19.2109 311.692 19.0469 310.972 18.7188Z"/>
<path id="path1_fill" d="M 26.2852 19L 19.3066 19L 19.3066 6.39648L 21.3984 6.39648L 21.3984 17.2334L 26.2852 17.2334L 26.2852 19ZM 34.793 19L 32.8154 19L 32.8154 17.5938L 32.7803 17.5938C 32.1592 18.6719 31.248 19.2109 30.0469 19.2109C 29.1621 19.2109 28.4678 18.9707 27.9639 18.4902C 27.4658 18.0098 27.2168 17.374 27.2168 16.583C 27.2168 14.8838 28.1953 13.8936 30.1523 13.6123L 32.8242 13.2344C 32.8242 11.9512 32.2148 11.3096 30.9961 11.3096C 29.9238 11.3096 28.957 11.6787 28.0957 12.417L 28.0957 10.6328C 29.0449 10.0703 30.1406 9.78906 31.3828 9.78906C 33.6562 9.78906 34.793 10.9082 34.793 13.1465L 34.793 19ZM 32.8242 14.5791L 30.9346 14.8428C 30.3486 14.9189 29.9062 15.0625 29.6074 15.2734C 29.3145 15.4785 29.168 15.8418 29.168 16.3633C 29.168 16.7441 29.3027 17.0576 29.5723 17.3037C 29.8477 17.5439 30.2139 17.6641 30.6709 17.6641C 31.292 17.6641 31.8047 17.4473 32.209 17.0137C 32.6191 16.5742 32.8242 16.0234 32.8242 15.3613L 32.8242 14.5791ZM 42.5098 11.9424C 42.2637 11.749 41.9092 11.6523 41.4463 11.6523C 40.8428 11.6523 40.3389 11.9248 39.9346 12.4697C 39.5303 13.0146 39.3281 13.7559 39.3281 14.6934L 39.3281 19L 37.2891 19L 37.2891 10L 39.3281 10L 39.3281 11.8545L 39.3633 11.8545C 39.5625 11.2217 39.8672 10.7295 40.2773 10.3779C 40.6934 10.0205 41.1562 9.8418 41.666 9.8418C 42.0352 9.8418 42.3164 9.89746 42.5098 10.0088L 42.5098 11.9424ZM 51.9844 18.2793C 51.9844 21.584 50.3232 23.2363 47.001 23.2363C 45.8291 23.2363 44.8066 23.04 43.9336 22.6475L 43.9336 20.7842C 44.918 21.3467 45.8525 21.6279 46.7373 21.6279C 48.876 21.6279 49.9453 20.5762 49.9453 18.4727L 49.9453 17.4883L 49.9102 17.4883C 49.2363 18.6367 48.2227 19.2109 46.8691 19.2109C 45.7734 19.2109 44.8887 18.8125 44.2148 18.0156C 43.5469 17.2129 43.2129 16.1377 43.2129 14.79C 43.2129 13.2607 43.5732 12.0449 44.2939 11.1426C 45.0146 10.2402 46.0049 9.78906 47.2646 9.78906C 48.4541 9.78906 49.3359 10.2754 49.9102 11.248L 49.9453 11.248L 49.9453 10L 51.9844 10L 51.9844 18.2793ZM 49.9629 14.8779L 49.9629 13.709C 49.9629 13.0762 49.752 12.5371 49.3301 12.0918C 48.9141 11.6406 48.3926 11.415 47.7656 11.415C 46.9922 11.415 46.3857 11.7021 45.9463 12.2764C 45.5127 12.8447 45.2959 13.6416 45.2959 14.667C 45.2959 15.5518 45.5039 16.2607 45.9199 16.7939C 46.3418 17.3213 46.8984 17.585 47.5898 17.585C 48.293 17.585 48.8643 17.333 49.3037 16.8291C 49.7432 16.3193 49.9629 15.6689 49.9629 14.8779ZM 62.2588 15.0537L 56.124 15.0537C 56.1475 15.8857 56.4023 16.5273 56.8887 16.9785C 57.3809 17.4297 58.0547 17.6553 58.9102 17.6553C 59.8711 17.6553 60.7529 17.3682 61.5557 16.7939L 61.5557 18.4375C 60.7354 18.9531 59.6514 19.2109 58.3037 19.2109C 56.9795 19.2109 55.9395 18.8037 55.1836 17.9893C 54.4336 17.1689 54.0586 16.0176 54.0586 14.5352C 54.0586 13.1348 54.4717 11.9951 55.2979 11.1162C 56.1299 10.2314 57.1611 9.78906 58.3916 9.78906C 59.6221 9.78906 60.5742 10.1846 61.248 10.9756C 61.9219 11.7666 62.2588 12.8652 62.2588 14.2715L 62.2588 15.0537ZM 60.29 13.6123C 60.2842 12.8799 60.1113 12.3115 59.7715 11.9072C 59.4316 11.4971 58.9629 11.292 58.3652 11.292C 57.7793 11.292 57.2812 11.5059 56.8711 11.9336C 56.4668 12.3613 56.2178 12.9209 56.124 13.6123L 60.29 13.6123ZM 81.2607 10L 78.6064 19L 76.4707 19L 74.8359 12.9004C 74.7715 12.666 74.7305 12.4023 74.7129 12.1094L 74.6777 12.1094C 74.666 12.3086 74.6133 12.5664 74.5195 12.8828L 72.7441 19L 70.6523 19L 68.0068 10L 70.1162 10L 71.751 16.4863C 71.8037 16.6797 71.8389 16.9375 71.8564 17.2598L 71.918 17.2598C 71.9355 17.0137 71.9824 16.75 72.0586 16.4688L 73.8779 10L 75.7939 10L 77.4111 16.5127C 77.4639 16.7178 77.502 16.9756 77.5254 17.2861L 77.5869 17.2861C 77.5986 17.0693 77.6426 16.8115 77.7188 16.5127L 79.3184 10L 81.2607 10ZM 83.8096 8.11035C 83.4756 8.11035 83.1885 8.00195 82.9482 7.78516C 82.7139 7.56836 82.5967 7.29297 82.5967 6.95898C 82.5967 6.625 82.7139 6.34668 82.9482 6.12402C 83.1885 5.90137 83.4756 5.79004 83.8096 5.79004C 84.1553 5.79004 84.4482 5.90137 84.6885 6.12402C 84.9287 6.34668 85.0488 6.625 85.0488 6.95898C 85.0488 7.27539 84.9287 7.54785 84.6885 7.77637C 84.4482 7.99902 84.1553 8.11035 83.8096 8.11035ZM 84.8203 19L 82.7812 19L 82.7812 10L 84.8203 10L 84.8203 19ZM 95.5078 19L 93.4688 19L 93.4688 13.9287C 93.4688 12.2471 92.874 11.4062 91.6846 11.4062C 91.0635 11.4062 90.5508 11.6406 90.1465 12.1094C 89.7422 12.5723 89.54 13.1582 89.54 13.8672L 89.54 19L 87.4922 19L 87.4922 10L 89.54 10L 89.54 11.4941L 89.5752 11.4941C 90.249 10.3574 91.2217 9.78906 92.4932 9.78906C 93.4717 9.78906 94.2188 10.1084 94.7344 10.7471C 95.25 11.3799 95.5078 12.2969 95.5078 13.498L 95.5078 19ZM 106.187 19L 104.147 19L 104.147 17.4707L 104.112 17.4707C 103.456 18.6309 102.445 19.2109 101.08 19.2109C 99.9727 19.2109 99.085 18.8096 98.417 18.0068C 97.7549 17.1982 97.4238 16.0996 97.4238 14.7109C 97.4238 13.2227 97.79 12.0303 98.5225 11.1338C 99.2607 10.2373 100.242 9.78906 101.467 9.78906C 102.68 9.78906 103.562 10.2754 104.112 11.248L 104.147 11.248L 104.147 5.67578L 106.187 5.67578L 106.187 19ZM 104.174 14.8867L 104.174 13.709C 104.174 13.0703 103.966 12.5283 103.55 12.083C 103.134 11.6377 102.604 11.415 101.959 11.415C 101.197 11.415 100.597 11.6992 100.157 12.2676C 99.7236 12.8359 99.5068 13.624 99.5068 14.6318C 99.5068 15.5459 99.7148 16.2695 100.131 16.8027C 100.553 17.3301 101.118 17.5938 101.827 17.5938C 102.524 17.5938 103.09 17.3389 103.523 16.8291C 103.957 16.3135 104.174 15.666 104.174 14.8867ZM 112.84 19.2109C 111.451 19.2109 110.341 18.792 109.509 17.9541C 108.683 17.1104 108.27 15.9941 108.27 14.6055C 108.27 13.0938 108.7 11.9131 109.562 11.0635C 110.429 10.2139 111.595 9.78906 113.06 9.78906C 114.466 9.78906 115.562 10.2021 116.347 11.0283C 117.132 11.8545 117.524 13 117.524 14.4648C 117.524 15.9004 117.1 17.0518 116.25 17.9189C 115.406 18.7803 114.27 19.2109 112.84 19.2109ZM 112.937 11.415C 112.14 11.415 111.51 11.6934 111.047 12.25C 110.584 12.8066 110.353 13.5742 110.353 14.5527C 110.353 15.4961 110.587 16.2402 111.056 16.7852C 111.524 17.3242 112.151 17.5938 112.937 17.5938C 113.739 17.5938 114.354 17.3271 114.782 16.7939C 115.216 16.2607 115.433 15.502 115.433 14.5176C 115.433 13.5273 115.216 12.7627 114.782 12.2236C 114.354 11.6846 113.739 11.415 112.937 11.415ZM 131.71 10L 129.056 19L 126.92 19L 125.285 12.9004C 125.221 12.666 125.18 12.4023 125.162 12.1094L 125.127 12.1094C 125.115 12.3086 125.062 12.5664 124.969 12.8828L 123.193 19L 121.102 19L 118.456 10L 120.565 10L 122.2 16.4863C 122.253 16.6797 122.288 16.9375 122.306 17.2598L 122.367 17.2598C 122.385 17.0137 122.432 16.75 122.508 16.4688L 124.327 10L 126.243 10L 127.86 16.5127C 127.913 16.7178 127.951 16.9756 127.975 17.2861L 128.036 17.2861C 128.048 17.0693 128.092 16.8115 128.168 16.5127L 129.768 10L 131.71 10ZM 150.29 10L 147.636 19L 145.5 19L 143.865 12.9004C 143.801 12.666 143.76 12.4023 143.742 12.1094L 143.707 12.1094C 143.695 12.3086 143.643 12.5664 143.549 12.8828L 141.773 19L 139.682 19L 137.036 10L 139.146 10L 140.78 16.4863C 140.833 16.6797 140.868 16.9375 140.886 17.2598L 140.947 17.2598C 140.965 17.0137 141.012 16.75 141.088 16.4688L 142.907 10L 144.823 10L 146.44 16.5127C 146.493 16.7178 146.531 16.9756 146.555 17.2861L 146.616 17.2861C 146.628 17.0693 146.672 16.8115 146.748 16.5127L 148.348 10L 150.29 10ZM 152.839 8.11035C 152.505 8.11035 152.218 8.00195 151.978 7.78516C 151.743 7.56836 151.626 7.29297 151.626 6.95898C 151.626 6.625 151.743 6.34668 151.978 6.12402C 152.218 5.90137 152.505 5.79004 152.839 5.79004C 153.185 5.79004 153.478 5.90137 153.718 6.12402C 153.958 6.34668 154.078 6.625 154.078 6.95898C 154.078 7.27539 153.958 7.54785 153.718 7.77637C 153.478 7.99902 153.185 8.11035 152.839 8.11035ZM 153.85 19L 151.811 19L 151.811 10L 153.85 10L 153.85 19ZM 164.704 19L 162.665 19L 162.665 17.4707L 162.63 17.4707C 161.974 18.6309 160.963 19.2109 159.598 19.2109C 158.49 19.2109 157.603 18.8096 156.935 18.0068C 156.272 17.1982 155.941 16.0996 155.941 14.7109C 155.941 13.2227 156.308 12.0303 157.04 11.1338C 157.778 10.2373 158.76 9.78906 159.984 9.78906C 161.197 9.78906 162.079 10.2754 162.63 11.248L 162.665 11.248L 162.665 5.67578L 164.704 5.67578L 164.704 19ZM 162.691 14.8867L 162.691 13.709C 162.691 13.0703 162.483 12.5283 162.067 12.083C 161.651 11.6377 161.121 11.415 160.477 11.415C 159.715 11.415 159.114 11.6992 158.675 12.2676C 158.241 12.8359 158.024 13.624 158.024 14.6318C 158.024 15.5459 158.232 16.2695 158.648 16.8027C 159.07 17.3301 159.636 17.5938 160.345 17.5938C 161.042 17.5938 161.607 17.3389 162.041 16.8291C 162.475 16.3135 162.691 15.666 162.691 14.8867ZM 172.113 18.9033C 171.715 19.1025 171.19 19.2021 170.54 19.2021C 168.794 19.2021 167.921 18.3643 167.921 16.6885L 167.921 11.5996L 166.418 11.5996L 166.418 10L 167.921 10L 167.921 7.91699L 169.96 7.33691L 169.96 10L 172.113 10L 172.113 11.5996L 169.96 11.5996L 169.96 16.0996C 169.96 16.6328 170.057 17.0137 170.25 17.2422C 170.443 17.4707 170.766 17.585 171.217 17.585C 171.562 17.585 171.861 17.4854 172.113 17.2861L 172.113 18.9033ZM 181.869 19L 179.83 19L 179.83 14.0781C 179.83 12.2969 179.235 11.4062 178.046 11.4062C 177.448 11.4062 176.944 11.6641 176.534 12.1797C 176.124 12.6953 175.919 13.3545 175.919 14.1572L 175.919 19L 173.871 19L 173.871 5.67578L 175.919 5.67578L 175.919 11.4941L 175.954 11.4941C 176.634 10.3574 177.606 9.78906 178.872 9.78906C 180.87 9.78906 181.869 11.0107 181.869 13.4541L 181.869 19ZM 198.164 14.3154L 190.315 18.0859L 190.315 16.4248L 196.063 13.8672L 196.063 13.8145L 190.315 10.9668L 190.315 9.29688L 198.164 13.3838L 198.164 14.3154ZM 209.836 14.9482C 209.836 15.5811 209.73 16.1582 209.52 16.6797C 209.314 17.2012 209.027 17.6523 208.658 18.0332C 208.289 18.4082 207.85 18.7012 207.34 18.9121C 206.836 19.1172 206.288 19.2197 205.696 19.2197C 205.063 19.2197 204.48 19.0967 203.947 18.8506C 203.42 18.6045 202.963 18.2383 202.576 17.752C 202.195 17.2656 201.899 16.6621 201.688 15.9414C 201.478 15.2148 201.372 14.374 201.372 13.4189C 201.372 12.2529 201.51 11.2188 201.785 10.3164C 202.066 9.41406 202.45 8.6582 202.937 8.04883C 203.423 7.43945 203.994 6.97656 204.65 6.66016C 205.307 6.34375 206.016 6.18555 206.777 6.18555C 207.252 6.18555 207.683 6.21777 208.069 6.28223C 208.462 6.34668 208.775 6.43457 209.01 6.5459L 209.01 8.38281C 208.711 8.23047 208.392 8.10156 208.052 7.99609C 207.712 7.89062 207.322 7.83789 206.883 7.83789C 206.391 7.83789 205.937 7.9375 205.521 8.13672C 205.104 8.33594 204.744 8.62891 204.439 9.01562C 204.141 9.39648 203.903 9.87109 203.728 10.4395C 203.558 11.002 203.47 11.6523 203.464 12.3906L 203.517 12.3906C 203.786 11.9746 204.149 11.6465 204.606 11.4062C 205.069 11.166 205.611 11.0459 206.232 11.0459C 206.783 11.0459 207.278 11.1367 207.718 11.3184C 208.163 11.4941 208.541 11.752 208.852 12.0918C 209.168 12.4258 209.411 12.8359 209.581 13.3223C 209.751 13.8027 209.836 14.3447 209.836 14.9482ZM 207.779 15.1152C 207.779 14.752 207.735 14.4209 207.647 14.1221C 207.565 13.8232 207.437 13.5684 207.261 13.3574C 207.091 13.1406 206.874 12.9736 206.61 12.8564C 206.353 12.7393 206.048 12.6807 205.696 12.6807C 205.345 12.6807 205.034 12.7451 204.765 12.874C 204.501 12.9971 204.278 13.1611 204.097 13.3662C 203.915 13.5713 203.777 13.8057 203.684 14.0693C 203.596 14.333 203.552 14.6025 203.552 14.8779C 203.552 15.1768 203.593 15.4844 203.675 15.8008C 203.763 16.1113 203.895 16.3955 204.07 16.6533C 204.246 16.9111 204.469 17.125 204.738 17.2949C 205.014 17.459 205.339 17.541 205.714 17.541C 206.048 17.541 206.344 17.4795 206.602 17.3564C 206.859 17.2334 207.073 17.0635 207.243 16.8467C 207.419 16.6299 207.551 16.375 207.639 16.082C 207.732 15.7832 207.779 15.4609 207.779 15.1152ZM 218.669 6.39648L 218.669 14.5352L 220.541 14.5352L 220.541 16.2314L 218.669 16.2314L 218.669 19L 216.691 19L 216.691 16.2314L 210.987 16.2314L 210.987 14.5176C 211.503 13.9375 212.03 13.3105 212.569 12.6367C 213.114 11.957 213.636 11.2656 214.134 10.5625C 214.638 9.85352 215.104 9.14453 215.531 8.43555C 215.959 7.72656 216.319 7.04688 216.612 6.39648L 218.669 6.39648ZM 216.691 14.5352L 216.691 9.24414C 216.053 10.3926 215.42 11.3945 214.793 12.25C 214.172 13.1055 213.589 13.8672 213.044 14.5352L 216.691 14.5352ZM 225.762 19.2109C 224.449 19.2109 223.424 18.6748 222.686 17.6025C 221.953 16.5303 221.587 14.9805 221.587 12.9531C 221.587 10.7266 221.971 9.04199 222.738 7.89941C 223.506 6.75684 224.613 6.18555 226.061 6.18555C 228.832 6.18555 230.218 8.33887 230.218 12.6455C 230.218 14.7783 229.825 16.4072 229.04 17.5322C 228.261 18.6514 227.168 19.2109 225.762 19.2109ZM 225.964 7.81152C 224.435 7.81152 223.67 9.49609 223.67 12.8652C 223.67 16.0176 224.42 17.5938 225.92 17.5938C 227.396 17.5938 228.135 15.9912 228.135 12.7861C 228.135 9.46973 227.411 7.81152 225.964 7.81152ZM 239.262 17.6729L 239.227 17.6729L 239.227 23.1396L 237.188 23.1396L 237.188 10L 239.227 10L 239.227 11.582L 239.262 11.582C 239.959 10.3867 240.979 9.78906 242.32 9.78906C 243.463 9.78906 244.354 10.1904 244.992 10.9932C 245.631 11.7959 245.95 12.874 245.95 14.2275C 245.95 15.7275 245.59 16.9287 244.869 17.8311C 244.148 18.7334 243.164 19.1846 241.916 19.1846C 240.768 19.1846 239.883 18.6807 239.262 17.6729ZM 239.209 14.1221L 239.209 15.2383C 239.209 15.8945 239.417 16.4512 239.833 16.9082C 240.255 17.3652 240.788 17.5938 241.433 17.5938C 242.188 17.5938 242.78 17.3008 243.208 16.7148C 243.642 16.123 243.858 15.2998 243.858 14.2451C 243.858 13.3604 243.656 12.6689 243.252 12.1709C 242.854 11.667 242.312 11.415 241.626 11.415C 240.899 11.415 240.313 11.6729 239.868 12.1885C 239.429 12.7041 239.209 13.3486 239.209 14.1221ZM 249.062 8.11035C 248.728 8.11035 248.44 8.00195 248.2 7.78516C 247.966 7.56836 247.849 7.29297 247.849 6.95898C 247.849 6.625 247.966 6.34668 248.2 6.12402C 248.44 5.90137 248.728 5.79004 249.062 5.79004C 249.407 5.79004 249.7 5.90137 249.94 6.12402C 250.181 6.34668 250.301 6.625 250.301 6.95898C 250.301 7.27539 250.181 7.54785 249.94 7.77637C 249.7 7.99902 249.407 8.11035 249.062 8.11035ZM 250.072 19L 248.033 19L 248.033 10L 250.072 10L 250.072 19ZM 260.268 10L 257.271 14.5527L 260.232 19L 257.868 19L 256.286 16.2139C 256.187 16.0439 256.069 15.8271 255.935 15.5635L 255.899 15.5635C 255.876 15.6162 255.753 15.833 255.53 16.2139L 253.922 19L 251.566 19L 254.625 14.5879L 251.725 10L 254.098 10L 255.653 12.9268C 255.771 13.1436 255.885 13.3662 255.996 13.5947L 256.022 13.5947L 258.035 10L 260.268 10ZM 269.153 15.0537L 263.019 15.0537C 263.042 15.8857 263.297 16.5273 263.783 16.9785C 264.275 17.4297 264.949 17.6553 265.805 17.6553C 266.766 17.6553 267.647 17.3682 268.45 16.7939L 268.45 18.4375C 267.63 18.9531 266.546 19.2109 265.198 19.2109C 263.874 19.2109 262.834 18.8037 262.078 17.9893C 261.328 17.1689 260.953 16.0176 260.953 14.5352C 260.953 13.1348 261.366 11.9951 262.192 11.1162C 263.024 10.2314 264.056 9.78906 265.286 9.78906C 266.517 9.78906 267.469 10.1846 268.143 10.9756C 268.816 11.7666 269.153 12.8652 269.153 14.2715L 269.153 15.0537ZM 267.185 13.6123C 267.179 12.8799 267.006 12.3115 266.666 11.9072C 266.326 11.4971 265.857 11.292 265.26 11.292C 264.674 11.292 264.176 11.5059 263.766 11.9336C 263.361 12.3613 263.112 12.9209 263.019 13.6123L 267.185 13.6123ZM 273.144 19L 271.096 19L 271.096 5.67578L 273.144 5.67578L 273.144 19ZM 275.244 18.7188L 275.244 16.8291C 276.006 17.4092 276.847 17.6992 277.767 17.6992C 278.997 17.6992 279.612 17.3359 279.612 16.6094C 279.612 16.4043 279.56 16.2314 279.454 16.0908C 279.349 15.9443 279.205 15.8154 279.023 15.7041C 278.848 15.5928 278.637 15.4932 278.391 15.4053C 278.15 15.3174 277.881 15.2178 277.582 15.1064C 277.213 14.96 276.879 14.8047 276.58 14.6406C 276.287 14.4766 276.041 14.292 275.842 14.0869C 275.648 13.876 275.502 13.6387 275.402 13.375C 275.303 13.1113 275.253 12.8037 275.253 12.4521C 275.253 12.0186 275.355 11.6377 275.561 11.3096C 275.766 10.9756 276.041 10.6973 276.387 10.4746C 276.732 10.2461 277.125 10.0762 277.564 9.96484C 278.004 9.84766 278.458 9.78906 278.927 9.78906C 279.759 9.78906 280.503 9.91504 281.159 10.167L 281.159 11.9512C 280.526 11.5176 279.8 11.3008 278.979 11.3008C 278.722 11.3008 278.487 11.3271 278.276 11.3799C 278.071 11.4326 277.896 11.5059 277.749 11.5996C 277.603 11.6934 277.488 11.8076 277.406 11.9424C 277.324 12.0713 277.283 12.2148 277.283 12.373C 277.283 12.5664 277.324 12.7305 277.406 12.8652C 277.488 13 277.608 13.1201 277.767 13.2256C 277.931 13.3252 278.124 13.4189 278.347 13.5068C 278.575 13.5889 278.836 13.6797 279.129 13.7793C 279.516 13.9375 279.861 14.0986 280.166 14.2627C 280.477 14.4268 280.74 14.6143 280.957 14.8252C 281.174 15.0303 281.341 15.2705 281.458 15.5459C 281.575 15.8154 281.634 16.1377 281.634 16.5127C 281.634 16.9697 281.528 17.3682 281.317 17.708C 281.106 18.0479 280.825 18.3291 280.474 18.5518C 280.122 18.7744 279.715 18.9385 279.252 19.0439C 278.795 19.1553 278.312 19.2109 277.802 19.2109C 276.817 19.2109 275.965 19.0469 275.244 18.7188Z"/>
<path id="path2_fill" d="M 0 0L 336 0L 336 392L 0 392L 0 0Z"/>
<path id="path3_fill" d="M 0 0L 631 0L 631 392L 0 392L 0 0Z"/>
<path id="path4_fill" d="M 0 0L 12 0L 12 392L 0 392L 0 0Z"/>
<path id="path5_fill" d="M 0 0L 24 0L 24 392L 0 392L 0 0Z"/>
<path id="path6_fill" d="M 37.1406 31.5469L 37.1406 43L 35.3281 43L 35.3281 33.7656C 35 34 34.6458 34.2005 34.2656 34.3672C 33.8906 34.5286 33.4609 34.6719 32.9766 34.7969L 32.9766 33.25C 33.2786 33.151 33.5703 33.0469 33.8516 32.9375C 34.1328 32.8281 34.4089 32.7057 34.6797 32.5703C 34.9557 32.4349 35.2318 32.2839 35.5078 32.1172C 35.7891 31.9505 36.0781 31.7604 36.375 31.5469L 37.1406 31.5469ZM 46.5703 43L 39.5391 43L 39.5391 42.1328C 39.5391 41.7786 39.5885 41.4479 39.6875 41.1406C 39.7865 40.8281 39.9193 40.5365 40.0859 40.2656C 40.2526 39.9896 40.4479 39.7318 40.6719 39.4922C 40.8958 39.2474 41.1354 39.013 41.3906 38.7891C 41.6458 38.5599 41.9062 38.3411 42.1719 38.1328C 42.4375 37.9193 42.6979 37.7057 42.9531 37.4922C 43.1927 37.2891 43.4115 37.0911 43.6094 36.8984C 43.8073 36.7005 43.9766 36.4974 44.1172 36.2891C 44.2578 36.0807 44.3672 35.862 44.4453 35.6328C 44.5234 35.3984 44.5625 35.1458 44.5625 34.875C 44.5625 34.5781 44.5156 34.3203 44.4219 34.1016C 44.3333 33.8776 44.2057 33.6927 44.0391 33.5469C 43.8776 33.3958 43.6849 33.2839 43.4609 33.2109C 43.237 33.1328 42.9922 33.0938 42.7266 33.0938C 42.2682 33.0938 41.8021 33.2005 41.3281 33.4141C 40.8542 33.6276 40.3984 33.9479 39.9609 34.375L 39.9609 32.6328C 40.1901 32.4609 40.4219 32.3125 40.6562 32.1875C 40.8906 32.0573 41.1328 31.9505 41.3828 31.8672C 41.6328 31.7786 41.8958 31.7135 42.1719 31.6719C 42.4479 31.6302 42.7422 31.6094 43.0547 31.6094C 43.5599 31.6094 44.0182 31.6771 44.4297 31.8125C 44.8411 31.9427 45.1927 32.138 45.4844 32.3984C 45.776 32.6536 46 32.974 46.1562 33.3594C 46.3177 33.7448 46.3984 34.1875 46.3984 34.6875C 46.3984 35.1406 46.3411 35.5495 46.2266 35.9141C 46.1172 36.2734 45.9583 36.6094 45.75 36.9219C 45.5469 37.2344 45.2995 37.5312 45.0078 37.8125C 44.7161 38.0938 44.3906 38.3828 44.0312 38.6797C 43.7292 38.9245 43.4271 39.1641 43.125 39.3984C 42.8281 39.6276 42.5599 39.8542 42.3203 40.0781C 42.0807 40.2969 41.8854 40.5182 41.7344 40.7422C 41.5885 40.9609 41.5156 41.1823 41.5156 41.4062L 41.5156 41.4453L 46.5703 41.4453L 46.5703 43Z"/>
<path id="path7_fill" d="M 38.7422 43L 31.7109 43L 31.7109 42.1328C 31.7109 41.7786 31.7604 41.4479 31.8594 41.1406C 31.9583 40.8281 32.0911 40.5365 32.2578 40.2656C 32.4245 39.9896 32.6198 39.7318 32.8438 39.4922C 33.0677 39.2474 33.3073 39.013 33.5625 38.7891C 33.8177 38.5599 34.0781 38.3411 34.3438 38.1328C 34.6094 37.9193 34.8698 37.7057 35.125 37.4922C 35.3646 37.2891 35.5833 37.0911 35.7812 36.8984C 35.9792 36.7005 36.1484 36.4974 36.2891 36.2891C 36.4297 36.0807 36.5391 35.862 36.6172 35.6328C 36.6953 35.3984 36.7344 35.1458 36.7344 34.875C 36.7344 34.5781 36.6875 34.3203 36.5938 34.1016C 36.5052 33.8776 36.3776 33.6927 36.2109 33.5469C 36.0495 33.3958 35.8568 33.2839 35.6328 33.2109C 35.4089 33.1328 35.1641 33.0938 34.8984 33.0938C 34.4401 33.0938 33.974 33.2005 33.5 33.4141C 33.026 33.6276 32.5703 33.9479 32.1328 34.375L 32.1328 32.6328C 32.362 32.4609 32.5938 32.3125 32.8281 32.1875C 33.0625 32.0573 33.3047 31.9505 33.5547 31.8672C 33.8047 31.7786 34.0677 31.7135 34.3438 31.6719C 34.6198 31.6302 34.9141 31.6094 35.2266 31.6094C 35.7318 31.6094 36.1901 31.6771 36.6016 31.8125C 37.013 31.9427 37.3646 32.138 37.6562 32.3984C 37.9479 32.6536 38.1719 32.974 38.3281 33.3594C 38.4896 33.7448 38.5703 34.1875 38.5703 34.6875C 38.5703 35.1406 38.513 35.5495 38.3984 35.9141C 38.2891 36.2734 38.1302 36.6094 37.9219 36.9219C 37.7188 37.2344 37.4714 37.5312 37.1797 37.8125C 36.888 38.0938 36.5625 38.3828 36.2031 38.6797C 35.901 38.9245 35.599 39.1641 35.2969 39.3984C 35 39.6276 34.7318 39.8542 34.4922 40.0781C 34.2526 40.2969 34.0573 40.5182 33.9062 40.7422C 33.7604 40.9609 33.6875 41.1823 33.6875 41.4062L 33.6875 41.4453L 38.7422 41.4453L 38.7422 43ZM 47.0703 31.7969L 47.0703 39.0312L 48.7344 39.0312L 48.7344 40.5391L 47.0703 40.5391L 47.0703 43L 45.3125 43L 45.3125 40.5391L 40.2422 40.5391L 40.2422 39.0156C 40.7005 38.5 41.1693 37.9427 41.6484 37.3438C 42.1328 36.7396 42.5964 36.125 43.0391 35.5C 43.487 34.8698 43.901 34.2396 44.2812 33.6094C 44.6615 32.9792 44.9818 32.375 45.2422 31.7969L 47.0703 31.7969ZM 45.3125 39.0312L 45.3125 34.3281C 44.7448 35.349 44.1823 36.2396 43.625 37C 43.0729 37.7604 42.5547 38.4375 42.0703 39.0312L 45.3125 39.0312Z"/>
<path id="path8_stroke" d="M 0 0L 402 0L 402 -2L 0 -2L 0 0Z"/>
<path id="path9_fill" d="M 16.3546 18.4727C 15.4054 18.9648 14.2247 19.2109 12.8126 19.2109C 10.9845 19.2109 9.51964 18.6338 8.41808 17.4795C 7.31651 16.3252 6.76573 14.8105 6.76573 12.9355C 6.76573 10.9199 7.3839 9.29102 8.62022 8.04883C 9.86241 6.80664 11.4298 6.18555 13.3224 6.18555C 14.5411 6.18555 15.5519 6.3584 16.3546 6.7041L 16.3546 8.77832C 15.505 8.27441 14.5675 8.02246 13.5421 8.02246C 12.1769 8.02246 11.0694 8.45898 10.2198 9.33203C 9.37608 10.2051 8.95421 11.3711 8.95421 12.8301C 8.95421 14.2188 9.34972 15.3262 10.1407 16.1523C 10.9317 16.9727 11.9718 17.3828 13.2608 17.3828C 14.4503 17.3828 15.4816 17.1016 16.3546 16.5391L 16.3546 18.4727ZM 22.5069 19.2109C 21.1183 19.2109 20.0079 18.792 19.1759 17.9541C 18.3497 17.1104 17.9366 15.9941 17.9366 14.6055C 17.9366 13.0938 18.3673 11.9131 19.2286 11.0635C 20.0958 10.2139 21.2618 9.78906 22.7267 9.78906C 24.1329 9.78906 25.2286 10.2021 26.0138 11.0283C 26.7989 11.8545 27.1915 13 27.1915 14.4648C 27.1915 15.9004 26.7667 17.0518 25.9171 17.9189C 25.0733 18.7803 23.9366 19.2109 22.5069 19.2109ZM 22.6036 11.415C 21.8067 11.415 21.1769 11.6934 20.714 12.25C 20.2511 12.8066 20.0196 13.5742 20.0196 14.5527C 20.0196 15.4961 20.254 16.2402 20.7228 16.7852C 21.1915 17.3242 21.8185 17.5938 22.6036 17.5938C 23.4064 17.5938 24.0216 17.3271 24.4493 16.7939C 24.8829 16.2607 25.0997 15.502 25.0997 14.5176C 25.0997 13.5273 24.8829 12.7627 24.4493 12.2236C 24.0216 11.6846 23.4064 11.415 22.6036 11.415ZM 37.2901 19L 35.2511 19L 35.2511 13.9287C 35.2511 12.2471 34.6564 11.4062 33.4669 11.4062C 32.8458 11.4062 32.3331 11.6406 31.9288 12.1094C 31.5245 12.5723 31.3224 13.1582 31.3224 13.8672L 31.3224 19L 29.2745 19L 29.2745 10L 31.3224 10L 31.3224 11.4941L 31.3575 11.4941C 32.0314 10.3574 33.004 9.78906 34.2755 9.78906C 35.254 9.78906 36.0011 10.1084 36.5167 10.7471C 37.0323 11.3799 37.2901 12.2969 37.2901 13.498L 37.2901 19ZM 44.5323 18.9033C 44.1339 19.1025 43.6095 19.2021 42.9591 19.2021C 41.213 19.2021 40.34 18.3643 40.34 16.6885L 40.34 11.5996L 38.837 11.5996L 38.837 10L 40.34 10L 40.34 7.91699L 42.379 7.33691L 42.379 10L 44.5323 10L 44.5323 11.5996L 42.379 11.5996L 42.379 16.0996C 42.379 16.6328 42.4757 17.0137 42.6691 17.2422C 42.8624 17.4707 43.1847 17.585 43.6358 17.585C 43.9816 17.585 44.2804 17.4854 44.5323 17.2861L 44.5323 18.9033ZM 53.8048 15.0537L 47.67 15.0537C 47.6935 15.8857 47.9483 16.5273 48.4347 16.9785C 48.9269 17.4297 49.6007 17.6553 50.4562 17.6553C 51.4171 17.6553 52.2989 17.3682 53.1017 16.7939L 53.1017 18.4375C 52.2814 18.9531 51.1974 19.2109 49.8497 19.2109C 48.5255 19.2109 47.4855 18.8037 46.7296 17.9893C 45.9796 17.1689 45.6046 16.0176 45.6046 14.5352C 45.6046 13.1348 46.0177 11.9951 46.8439 11.1162C 47.6759 10.2314 48.7071 9.78906 49.9376 9.78906C 51.1681 9.78906 52.1202 10.1846 52.7941 10.9756C 53.4679 11.7666 53.8048 12.8652 53.8048 14.2715L 53.8048 15.0537ZM 51.836 13.6123C 51.8302 12.8799 51.6573 12.3115 51.3175 11.9072C 50.9776 11.4971 50.5089 11.292 49.9112 11.292C 49.3253 11.292 48.8273 11.5059 48.4171 11.9336C 48.0128 12.3613 47.7638 12.9209 47.67 13.6123L 51.836 13.6123ZM 63.7628 19L 61.7237 19L 61.7237 13.9287C 61.7237 12.2471 61.129 11.4062 59.9396 11.4062C 59.3185 11.4062 58.8058 11.6406 58.4015 12.1094C 57.9972 12.5723 57.795 13.1582 57.795 13.8672L 57.795 19L 55.7472 19L 55.7472 10L 57.795 10L 57.795 11.4941L 57.8302 11.4941C 58.504 10.3574 59.4767 9.78906 60.7482 9.78906C 61.7267 9.78906 62.4737 10.1084 62.9894 10.7471C 63.505 11.3799 63.7628 12.2969 63.7628 13.498L 63.7628 19ZM 71.005 18.9033C 70.6066 19.1025 70.0821 19.2021 69.4317 19.2021C 67.6857 19.2021 66.8126 18.3643 66.8126 16.6885L 66.8126 11.5996L 65.3097 11.5996L 65.3097 10L 66.8126 10L 66.8126 7.91699L 68.8517 7.33691L 68.8517 10L 71.005 10L 71.005 11.5996L 68.8517 11.5996L 68.8517 16.0996C 68.8517 16.6328 68.9483 17.0137 69.1417 17.2422C 69.3351 17.4707 69.6573 17.585 70.1085 17.585C 70.4542 17.585 70.753 17.4854 71.005 17.2861L 71.005 18.9033Z"/>
</defs>
</svg>
