<svg width="941" height="529" viewBox="0 0 941 529" version="1.1" xmlns="http://www.w3.org/2000/svg" xmlns:xlink="http://www.w3.org/1999/xlink">
<g id="Canvas" fill="none">
<g id="4epx" clip-path="url(#clip0)">
<rect width="941" height="529" fill="#243A5E"/>
<g id="Group">
<g id="Line">
<line y1="-0.5" x2="529" y2="-0.5" transform="matrix(0 1 -1 0 10 0)" stroke="#50E6FF" stroke-opacity="0.3"/>
</g>
<g id="Line_2">
<line y1="-0.5" x2="529" y2="-0.5" transform="matrix(0 1 -1 0 20 0)" stroke="#50E6FF" stroke-opacity="0.3"/>
</g>
<g id="Line_3">
<line y1="-0.5" x2="529" y2="-0.5" transform="matrix(0 1 -1 0 30 0)" stroke="#50E6FF" stroke-opacity="0.3"/>
</g>
<g id="Line_4">
<line y1="-0.5" x2="529" y2="-0.5" transform="matrix(0 1 -1 0 40 0)" stroke="#50E6FF" stroke-opacity="0.3"/>
</g>
<g id="Line_5">
<line y1="-0.5" x2="529" y2="-0.5" transform="matrix(0 1 -1 0 50 0)" stroke="#50E6FF" stroke-opacity="0.3"/>
</g>
<g id="Line_6">
<line y1="-0.5" x2="529" y2="-0.5" transform="matrix(0 1 -1 0 60 0)" stroke="#50E6FF" stroke-opacity="0.3"/>
</g>
<g id="Line_7">
<line y1="-0.5" x2="529" y2="-0.5" transform="matrix(0 1 -1 0 70 0)" stroke="#50E6FF" stroke-opacity="0.3"/>
</g>
<g id="Line_8">
<line y1="-0.5" x2="529" y2="-0.5" transform="matrix(0 1 -1 0 80 0)" stroke="#50E6FF" stroke-opacity="0.3"/>
</g>
<g id="Line_9">
<line y1="-0.5" x2="529" y2="-0.5" transform="matrix(0 1 -1 0 90 0)" stroke="#50E6FF" stroke-opacity="0.3"/>
</g>
<g id="Line_10">
<line y1="-0.5" x2="529" y2="-0.5" transform="matrix(0 1 -1 0 100 0)" stroke="#50E6FF" stroke-opacity="0.3"/>
</g>
<g id="Line_11">
<line y1="-0.5" x2="529" y2="-0.5" transform="matrix(0 1 -1 0 110 0)" stroke="#50E6FF" stroke-opacity="0.3"/>
</g>
<g id="Line_12">
<line y1="-0.5" x2="529" y2="-0.5" transform="matrix(0 1 -1 0 120 0)" stroke="#50E6FF" stroke-opacity="0.3"/>
</g>
<g id="Line_13">
<line y1="-0.5" x2="529" y2="-0.5" transform="matrix(0 1 -1 0 130 0)" stroke="#50E6FF" stroke-opacity="0.3"/>
</g>
<g id="Line_14">
<line y1="-0.5" x2="529" y2="-0.5" transform="matrix(0 1 -1 0 140 0)" stroke="#50E6FF" stroke-opacity="0.3"/>
</g>
<g id="Line_15">
<line y1="-0.5" x2="529" y2="-0.5" transform="matrix(0 1 -1 0 150 0)" stroke="#50E6FF" stroke-opacity="0.3"/>
</g>
<g id="Line_16">
<line y1="-0.5" x2="529" y2="-0.5" transform="matrix(0 1 -1 0 160 0)" stroke="#50E6FF" stroke-opacity="0.3"/>
</g>
<g id="Line_17">
<line y1="-0.5" x2="529" y2="-0.5" transform="matrix(0 1 -1 0 170 0)" stroke="#50E6FF" stroke-opacity="0.3"/>
</g>
<g id="Line_18">
<line y1="-0.5" x2="529" y2="-0.5" transform="matrix(0 1 -1 0 180 0)" stroke="#50E6FF" stroke-opacity="0.3"/>
</g>
<g id="Line_19">
<line y1="-0.5" x2="529" y2="-0.5" transform="matrix(0 1 -1 0 190 0)" stroke="#50E6FF" stroke-opacity="0.3"/>
</g>
<g id="Line_20">
<line y1="-0.5" x2="529" y2="-0.5" transform="matrix(0 1 -1 0 200 0)" stroke="#50E6FF" stroke-opacity="0.3"/>
</g>
<g id="Line_21">
<line y1="-0.5" x2="529" y2="-0.5" transform="matrix(0 1 -1 0 210 0)" stroke="#50E6FF" stroke-opacity="0.3"/>
</g>
<g id="Line_22">
<line y1="-0.5" x2="529" y2="-0.5" transform="matrix(0 1 -1 0 220 0)" stroke="#50E6FF" stroke-opacity="0.3"/>
</g>
<g id="Line_23">
<line y1="-0.5" x2="529" y2="-0.5" transform="matrix(0 1 -1 0 230 0)" stroke="#50E6FF" stroke-opacity="0.3"/>
</g>
<g id="Line_24">
<line y1="-0.5" x2="529" y2="-0.5" transform="matrix(0 1 -1 0 240 0)" stroke="#50E6FF" stroke-opacity="0.3"/>
</g>
<g id="Line_25">
<line y1="-0.5" x2="529" y2="-0.5" transform="matrix(0 1 -1 0 250 0)" stroke="#50E6FF" stroke-opacity="0.3"/>
</g>
<g id="Line_26">
<line y1="-0.5" x2="529" y2="-0.5" transform="matrix(0 1 -1 0 260 0)" stroke="#50E6FF" stroke-opacity="0.3"/>
</g>
<g id="Line_27">
<line y1="-0.5" x2="529" y2="-0.5" transform="matrix(0 1 -1 0 270 0)" stroke="#50E6FF" stroke-opacity="0.3"/>
</g>
<g id="Line_28">
<line y1="-0.5" x2="529" y2="-0.5" transform="matrix(0 1 -1 0 280 0)" stroke="#50E6FF" stroke-opacity="0.3"/>
</g>
<g id="Line_29">
<line y1="-0.5" x2="529" y2="-0.5" transform="matrix(0 1 -1 0 290 0)" stroke="#50E6FF" stroke-opacity="0.3"/>
</g>
<g id="Line_30">
<line y1="-0.5" x2="529" y2="-0.5" transform="matrix(0 1 -1 0 300 0)" stroke="#50E6FF" stroke-opacity="0.3"/>
</g>
<g id="Line_31">
<line y1="-0.5" x2="529" y2="-0.5" transform="matrix(0 1 -1 0 310 0)" stroke="#50E6FF" stroke-opacity="0.3"/>
</g>
<g id="Line_32">
<line y1="-0.5" x2="529" y2="-0.5" transform="matrix(0 1 -1 0 320 0)" stroke="#50E6FF" stroke-opacity="0.3"/>
</g>
<g id="Line_33">
<line y1="-0.5" x2="529" y2="-0.5" transform="matrix(0 1 -1 0 330 0)" stroke="#50E6FF" stroke-opacity="0.3"/>
</g>
<g id="Line_34">
<line y1="-0.5" x2="529" y2="-0.5" transform="matrix(0 1 -1 0 340 0)" stroke="#50E6FF" stroke-opacity="0.3"/>
</g>
<g id="Line_35">
<line y1="-0.5" x2="529" y2="-0.5" transform="matrix(0 1 -1 0 350 0)" stroke="#50E6FF" stroke-opacity="0.3"/>
</g>
<g id="Line_36">
<line y1="-0.5" x2="529" y2="-0.5" transform="matrix(0 1 -1 0 360 0)" stroke="#50E6FF" stroke-opacity="0.3"/>
</g>
<g id="Line_37">
<line y1="-0.5" x2="529" y2="-0.5" transform="matrix(0 1 -1 0 370 0)" stroke="#50E6FF" stroke-opacity="0.3"/>
</g>
<g id="Line_38">
<line y1="-0.5" x2="529" y2="-0.5" transform="matrix(0 1 -1 0 380 0)" stroke="#50E6FF" stroke-opacity="0.3"/>
</g>
<g id="Line_39">
<line y1="-0.5" x2="529" y2="-0.5" transform="matrix(0 1 -1 0 390 0)" stroke="#50E6FF" stroke-opacity="0.3"/>
</g>
<g id="Line_40">
<line y1="-0.5" x2="529" y2="-0.5" transform="matrix(0 1 -1 0 400 0)" stroke="#50E6FF" stroke-opacity="0.3"/>
</g>
<g id="Line_41">
<line y1="-0.5" x2="529" y2="-0.5" transform="matrix(0 1 -1 0 410 0)" stroke="#50E6FF" stroke-opacity="0.3"/>
</g>
<g id="Line_42">
<line y1="-0.5" x2="529" y2="-0.5" transform="matrix(0 1 -1 0 420 0)" stroke="#50E6FF" stroke-opacity="0.3"/>
</g>
<g id="Line_43">
<line y1="-0.5" x2="529" y2="-0.5" transform="matrix(0 1 -1 0 430 0)" stroke="#50E6FF" stroke-opacity="0.3"/>
</g>
<g id="Line_44">
<line y1="-0.5" x2="529" y2="-0.5" transform="matrix(0 1 -1 0 440 0)" stroke="#50E6FF" stroke-opacity="0.3"/>
</g>
<g id="Line_45">
<line y1="-0.5" x2="529" y2="-0.5" transform="matrix(0 1 -1 0 450 0)" stroke="#50E6FF" stroke-opacity="0.3"/>
</g>
<g id="Line_46">
<line y1="-0.5" x2="529" y2="-0.5" transform="matrix(0 1 -1 0 460 0)" stroke="#50E6FF" stroke-opacity="0.3"/>
</g>
<g id="Line_47">
<line y1="-0.5" x2="529" y2="-0.5" transform="matrix(0 1 -1 0 470 0)" stroke="#50E6FF" stroke-opacity="0.3"/>
</g>
<g id="Line_48">
<line y1="-0.5" x2="529" y2="-0.5" transform="matrix(0 1 -1 0 480 0)" stroke="#50E6FF" stroke-opacity="0.3"/>
</g>
<g id="Line_49">
<line y1="-0.5" x2="529" y2="-0.5" transform="matrix(0 1 -1 0 490 0)" stroke="#50E6FF" stroke-opacity="0.3"/>
</g>
<g id="Line_50">
<line y1="-0.5" x2="529" y2="-0.5" transform="matrix(0 1 -1 0 500 0)" stroke="#50E6FF" stroke-opacity="0.3"/>
</g>
<g id="Line_51">
<line y1="-0.5" x2="529" y2="-0.5" transform="matrix(0 1 -1 0 510 0)" stroke="#50E6FF" stroke-opacity="0.3"/>
</g>
<g id="Line_52">
<line y1="-0.5" x2="529" y2="-0.5" transform="matrix(0 1 -1 0 520 0)" stroke="#50E6FF" stroke-opacity="0.3"/>
</g>
<g id="Line_53">
<line y1="-0.5" x2="529" y2="-0.5" transform="matrix(0 1 -1 0 530 0)" stroke="#50E6FF" stroke-opacity="0.3"/>
</g>
<g id="Line_54">
<line y1="-0.5" x2="529" y2="-0.5" transform="matrix(0 1 -1 0 540 0)" stroke="#50E6FF" stroke-opacity="0.3"/>
</g>
<g id="Line_55">
<line y1="-0.5" x2="529" y2="-0.5" transform="matrix(0 1 -1 0 550 0)" stroke="#50E6FF" stroke-opacity="0.3"/>
</g>
<g id="Line_56">
<line y1="-0.5" x2="529" y2="-0.5" transform="matrix(0 1 -1 0 560 0)" stroke="#50E6FF" stroke-opacity="0.3"/>
</g>
<g id="Line_57">
<line y1="-0.5" x2="529" y2="-0.5" transform="matrix(0 1 -1 0 570 0)" stroke="#50E6FF" stroke-opacity="0.3"/>
</g>
<g id="Line_58">
<line y1="-0.5" x2="529" y2="-0.5" transform="matrix(0 1 -1 0 580 0)" stroke="#50E6FF" stroke-opacity="0.3"/>
</g>
<g id="Line_59">
<line y1="-0.5" x2="529" y2="-0.5" transform="matrix(0 1 -1 0 590 0)" stroke="#50E6FF" stroke-opacity="0.3"/>
</g>
<g id="Line_60">
<line y1="-0.5" x2="529" y2="-0.5" transform="matrix(0 1 -1 0 600 0)" stroke="#50E6FF" stroke-opacity="0.3"/>
</g>
<g id="Line_61">
<line y1="-0.5" x2="529" y2="-0.5" transform="matrix(0 1 -1 0 610 0)" stroke="#50E6FF" stroke-opacity="0.3"/>
</g>
<g id="Line_62">
<line y1="-0.5" x2="529" y2="-0.5" transform="matrix(0 1 -1 0 620 0)" stroke="#50E6FF" stroke-opacity="0.3"/>
</g>
<g id="Line_63">
<line y1="-0.5" x2="529" y2="-0.5" transform="matrix(0 1 -1 0 630 0)" stroke="#50E6FF" stroke-opacity="0.3"/>
</g>
<g id="Line_64">
<line y1="-0.5" x2="529" y2="-0.5" transform="matrix(0 1 -1 0 640 0)" stroke="#50E6FF" stroke-opacity="0.3"/>
</g>
<g id="Line_65">
<line y1="-0.5" x2="529" y2="-0.5" transform="matrix(0 1 -1 0 650 0)" stroke="#50E6FF" stroke-opacity="0.3"/>
</g>
<g id="Line_66">
<line y1="-0.5" x2="529" y2="-0.5" transform="matrix(0 1 -1 0 660 0)" stroke="#50E6FF" stroke-opacity="0.3"/>
</g>
<g id="Line_67">
<line y1="-0.5" x2="529" y2="-0.5" transform="matrix(0 1 -1 0 670 0)" stroke="#50E6FF" stroke-opacity="0.3"/>
</g>
<g id="Line_68">
<line y1="-0.5" x2="529" y2="-0.5" transform="matrix(0 1 -1 0 680 0)" stroke="#50E6FF" stroke-opacity="0.3"/>
</g>
<g id="Line_69">
<line y1="-0.5" x2="529" y2="-0.5" transform="matrix(0 1 -1 0 690 0)" stroke="#50E6FF" stroke-opacity="0.3"/>
</g>
<g id="Line_70">
<line y1="-0.5" x2="529" y2="-0.5" transform="matrix(0 1 -1 0 700 0)" stroke="#50E6FF" stroke-opacity="0.3"/>
</g>
<g id="Line_71">
<line y1="-0.5" x2="529" y2="-0.5" transform="matrix(0 1 -1 0 710 0)" stroke="#50E6FF" stroke-opacity="0.3"/>
</g>
<g id="Line_72">
<line y1="-0.5" x2="529" y2="-0.5" transform="matrix(0 1 -1 0 720 0)" stroke="#50E6FF" stroke-opacity="0.3"/>
</g>
<g id="Line_73">
<line y1="-0.5" x2="529" y2="-0.5" transform="matrix(0 1 -1 0 730 0)" stroke="#50E6FF" stroke-opacity="0.3"/>
</g>
<g id="Line_74">
<line y1="-0.5" x2="529" y2="-0.5" transform="matrix(0 1 -1 0 740 0)" stroke="#50E6FF" stroke-opacity="0.3"/>
</g>
<g id="Line_75">
<line y1="-0.5" x2="529" y2="-0.5" transform="matrix(0 1 -1 0 750 0)" stroke="#50E6FF" stroke-opacity="0.3"/>
</g>
<g id="Line_76">
<line y1="-0.5" x2="529" y2="-0.5" transform="matrix(0 1 -1 0 760 0)" stroke="#50E6FF" stroke-opacity="0.3"/>
</g>
<g id="Line_77">
<line y1="-0.5" x2="529" y2="-0.5" transform="matrix(0 1 -1 0 770 0)" stroke="#50E6FF" stroke-opacity="0.3"/>
</g>
<g id="Line_78">
<line y1="-0.5" x2="529" y2="-0.5" transform="matrix(0 1 -1 0 780 0)" stroke="#50E6FF" stroke-opacity="0.3"/>
</g>
<g id="Line_79">
<line y1="-0.5" x2="529" y2="-0.5" transform="matrix(0 1 -1 0 790 0)" stroke="#50E6FF" stroke-opacity="0.3"/>
</g>
<g id="Line_80">
<line y1="-0.5" x2="529" y2="-0.5" transform="matrix(0 1 -1 0 800 0)" stroke="#50E6FF" stroke-opacity="0.3"/>
</g>
<g id="Line_81">
<line y1="-0.5" x2="529" y2="-0.5" transform="matrix(0 1 -1 0 810 0)" stroke="#50E6FF" stroke-opacity="0.3"/>
</g>
<g id="Line_82">
<line y1="-0.5" x2="529" y2="-0.5" transform="matrix(0 1 -1 0 820 0)" stroke="#50E6FF" stroke-opacity="0.3"/>
</g>
<g id="Line_83">
<line y1="-0.5" x2="529" y2="-0.5" transform="matrix(0 1 -1 0 830 0)" stroke="#50E6FF" stroke-opacity="0.3"/>
</g>
<g id="Line_84">
<line y1="-0.5" x2="529" y2="-0.5" transform="matrix(0 1 -1 0 840 0)" stroke="#50E6FF" stroke-opacity="0.3"/>
</g>
<g id="Line_85">
<line y1="-0.5" x2="529" y2="-0.5" transform="matrix(0 1 -1 0 850 0)" stroke="#50E6FF" stroke-opacity="0.3"/>
</g>
<g id="Line_86">
<line y1="-0.5" x2="529" y2="-0.5" transform="matrix(0 1 -1 0 860 0)" stroke="#50E6FF" stroke-opacity="0.3"/>
</g>
<g id="Line_87">
<line y1="-0.5" x2="529" y2="-0.5" transform="matrix(0 1 -1 0 870 0)" stroke="#50E6FF" stroke-opacity="0.3"/>
</g>
<g id="Line_88">
<line y1="-0.5" x2="529" y2="-0.5" transform="matrix(0 1 -1 0 880 0)" stroke="#50E6FF" stroke-opacity="0.3"/>
</g>
<g id="Line_89">
<line y1="-0.5" x2="529" y2="-0.5" transform="matrix(0 1 -1 0 890 0)" stroke="#50E6FF" stroke-opacity="0.3"/>
</g>
<g id="Line_90">
<line y1="-0.5" x2="529" y2="-0.5" transform="matrix(0 1 -1 0 900 0)" stroke="#50E6FF" stroke-opacity="0.3"/>
</g>
<g id="Line_91">
<line y1="-0.5" x2="529" y2="-0.5" transform="matrix(0 1 -1 0 910 0)" stroke="#50E6FF" stroke-opacity="0.3"/>
</g>
<g id="Line_92">
<line y1="-0.5" x2="529" y2="-0.5" transform="matrix(0 1 -1 0 920 0)" stroke="#50E6FF" stroke-opacity="0.3"/>
</g>
<g id="Line_93">
<line y1="-0.5" x2="529" y2="-0.5" transform="matrix(0 1 -1 0 930 0)" stroke="#50E6FF" stroke-opacity="0.3"/>
</g>
<g id="Line_94">
<line y1="-0.5" x2="941" y2="-0.5" transform="translate(0 10)" stroke="#50E6FF" stroke-opacity="0.3"/>
</g>
<g id="Line_95">
<line y1="-0.5" x2="941" y2="-0.5" transform="translate(0 20)" stroke="#50E6FF" stroke-opacity="0.3"/>
</g>
<g id="Line_96">
<line y1="-0.5" x2="941" y2="-0.5" transform="translate(0 30)" stroke="#50E6FF" stroke-opacity="0.3"/>
</g>
<g id="Line_97">
<line y1="-0.5" x2="941" y2="-0.5" transform="translate(0 40)" stroke="#50E6FF" stroke-opacity="0.3"/>
</g>
<g id="Line_98">
<line y1="-0.5" x2="941" y2="-0.5" transform="translate(0 50)" stroke="#50E6FF" stroke-opacity="0.3"/>
</g>
<g id="Line_99">
<line y1="-0.5" x2="941" y2="-0.5" transform="translate(0 60)" stroke="#50E6FF" stroke-opacity="0.3"/>
</g>
<g id="Line_100">
<line y1="-0.5" x2="941" y2="-0.5" transform="translate(0 70)" stroke="#50E6FF" stroke-opacity="0.3"/>
</g>
<g id="Line_101">
<line y1="-0.5" x2="941" y2="-0.5" transform="translate(0 80)" stroke="#50E6FF" stroke-opacity="0.3"/>
</g>
<g id="Line_102">
<line y1="-0.5" x2="941" y2="-0.5" transform="translate(0 90)" stroke="#50E6FF" stroke-opacity="0.3"/>
</g>
<g id="Line_103">
<line y1="-0.5" x2="941" y2="-0.5" transform="translate(0 100)" stroke="#50E6FF" stroke-opacity="0.3"/>
</g>
<g id="Line_104">
<line y1="-0.5" x2="941" y2="-0.5" transform="translate(0 110)" stroke="#50E6FF" stroke-opacity="0.3"/>
</g>
<g id="Line_105">
<line y1="-0.5" x2="941" y2="-0.5" transform="translate(0 120)" stroke="#50E6FF" stroke-opacity="0.3"/>
</g>
<g id="Line_106">
<line y1="-0.5" x2="941" y2="-0.5" transform="translate(0 130)" stroke="#50E6FF" stroke-opacity="0.3"/>
</g>
<g id="Line_107">
<line y1="-0.5" x2="941" y2="-0.5" transform="translate(0 140)" stroke="#50E6FF" stroke-opacity="0.3"/>
</g>
<g id="Line_108">
<line y1="-0.5" x2="941" y2="-0.5" transform="translate(0 150)" stroke="#50E6FF" stroke-opacity="0.3"/>
</g>
<g id="Line_109">
<line y1="-0.5" x2="941" y2="-0.5" transform="translate(0 160)" stroke="#50E6FF" stroke-opacity="0.3"/>
</g>
<g id="Line_110">
<line y1="-0.5" x2="941" y2="-0.5" transform="translate(0 170)" stroke="#50E6FF" stroke-opacity="0.3"/>
</g>
<g id="Line_111">
<line y1="-0.5" x2="941" y2="-0.5" transform="translate(0 180)" stroke="#50E6FF" stroke-opacity="0.3"/>
</g>
<g id="Line_112">
<line y1="-0.5" x2="941" y2="-0.5" transform="translate(0 190)" stroke="#50E6FF" stroke-opacity="0.3"/>
</g>
<g id="Line_113">
<line y1="-0.5" x2="941" y2="-0.5" transform="translate(0 200)" stroke="#50E6FF" stroke-opacity="0.3"/>
</g>
<g id="Line_114">
<line y1="-0.5" x2="941" y2="-0.5" transform="translate(0 210)" stroke="#50E6FF" stroke-opacity="0.3"/>
</g>
<g id="Line_115">
<line y1="-0.5" x2="941" y2="-0.5" transform="translate(0 220)" stroke="#50E6FF" stroke-opacity="0.3"/>
</g>
<g id="Line_116">
<line y1="-0.5" x2="941" y2="-0.5" transform="translate(0 230)" stroke="#50E6FF" stroke-opacity="0.3"/>
</g>
<g id="Line_117">
<line y1="-0.5" x2="941" y2="-0.5" transform="translate(0 240)" stroke="#50E6FF" stroke-opacity="0.3"/>
</g>
<g id="Line_118">
<line y1="-0.5" x2="941" y2="-0.5" transform="translate(0 250)" stroke="#50E6FF" stroke-opacity="0.3"/>
</g>
<g id="Line_119">
<line y1="-0.5" x2="941" y2="-0.5" transform="translate(0 260)" stroke="#50E6FF" stroke-opacity="0.3"/>
</g>
<g id="Line_120">
<line y1="-0.5" x2="941" y2="-0.5" transform="translate(0 270)" stroke="#50E6FF" stroke-opacity="0.3"/>
</g>
<g id="Line_121">
<line y1="-0.5" x2="941" y2="-0.5" transform="translate(0 280)" stroke="#50E6FF" stroke-opacity="0.3"/>
</g>
<g id="Line_122">
<line y1="-0.5" x2="941" y2="-0.5" transform="translate(0 290)" stroke="#50E6FF" stroke-opacity="0.3"/>
</g>
<g id="Line_123">
<line y1="-0.5" x2="941" y2="-0.5" transform="translate(0 300)" stroke="#50E6FF" stroke-opacity="0.3"/>
</g>
<g id="Line_124">
<line y1="-0.5" x2="941" y2="-0.5" transform="translate(0 310)" stroke="#50E6FF" stroke-opacity="0.3"/>
</g>
<g id="Line_125">
<line y1="-0.5" x2="941" y2="-0.5" transform="translate(0 320)" stroke="#50E6FF" stroke-opacity="0.3"/>
</g>
<g id="Line_126">
<line y1="-0.5" x2="941" y2="-0.5" transform="translate(0 330)" stroke="#50E6FF" stroke-opacity="0.3"/>
</g>
<g id="Line_127">
<line y1="-0.5" x2="941" y2="-0.5" transform="translate(0 340)" stroke="#50E6FF" stroke-opacity="0.3"/>
</g>
<g id="Line_128">
<line y1="-0.5" x2="941" y2="-0.5" transform="translate(0 350)" stroke="#50E6FF" stroke-opacity="0.3"/>
</g>
<g id="Line_129">
<line y1="-0.5" x2="941" y2="-0.5" transform="translate(0 360)" stroke="#50E6FF" stroke-opacity="0.3"/>
</g>
<g id="Line_130">
<line y1="-0.5" x2="941" y2="-0.5" transform="translate(0 370)" stroke="#50E6FF" stroke-opacity="0.3"/>
</g>
<g id="Line_131">
<line y1="-0.5" x2="941" y2="-0.5" transform="translate(0 380)" stroke="#50E6FF" stroke-opacity="0.3"/>
</g>
<g id="Line_132">
<line y1="-0.5" x2="941" y2="-0.5" transform="translate(0 390)" stroke="#50E6FF" stroke-opacity="0.3"/>
</g>
<g id="Line_133">
<line y1="-0.5" x2="941" y2="-0.5" transform="translate(0 400)" stroke="#50E6FF" stroke-opacity="0.3"/>
</g>
<g id="Line_134">
<line y1="-0.5" x2="941" y2="-0.5" transform="translate(0 410)" stroke="#50E6FF" stroke-opacity="0.3"/>
</g>
<g id="Line_135">
<line y1="-0.5" x2="941" y2="-0.5" transform="translate(0 420)" stroke="#50E6FF" stroke-opacity="0.3"/>
</g>
<g id="Line_136">
<line y1="-0.5" x2="941" y2="-0.5" transform="translate(0 430)" stroke="#50E6FF" stroke-opacity="0.3"/>
</g>
<g id="Line_137">
<line y1="-0.5" x2="941" y2="-0.5" transform="translate(0 440)" stroke="#50E6FF" stroke-opacity="0.3"/>
</g>
<g id="Line_138">
<line y1="-0.5" x2="941" y2="-0.5" transform="translate(0 450)" stroke="#50E6FF" stroke-opacity="0.3"/>
</g>
<g id="Line_139">
<line y1="-0.5" x2="941" y2="-0.5" transform="translate(0 460)" stroke="#50E6FF" stroke-opacity="0.3"/>
</g>
<g id="Line_140">
<line y1="-0.5" x2="941" y2="-0.5" transform="translate(0 470)" stroke="#50E6FF" stroke-opacity="0.3"/>
</g>
<g id="Line_141">
<line y1="-0.5" x2="941" y2="-0.5" transform="translate(0 480)" stroke="#50E6FF" stroke-opacity="0.3"/>
</g>
<g id="Line_142">
<line y1="-0.5" x2="941" y2="-0.5" transform="translate(0 490)" stroke="#50E6FF" stroke-opacity="0.3"/>
</g>
<g id="Line_143">
<line y1="-0.5" x2="941" y2="-0.5" transform="translate(0 500)" stroke="#50E6FF" stroke-opacity="0.3"/>
</g>
<g id="Line_144">
<line y1="-0.5" x2="941" y2="-0.5" transform="translate(0 510)" stroke="#50E6FF" stroke-opacity="0.3"/>
</g>
<g id="Line_145">
<line y1="-0.5" x2="941" y2="-0.5" transform="translate(0 520)" stroke="#50E6FF" stroke-opacity="0.3"/>
</g>
</g>
<g id="Rectangle">
<rect width="41" height="41" transform="translate(60 60)" fill="#50E6FF" style="mix-blend-mode:screen"/>
</g>
<g id="Rectangle_2">
<rect width="200" height="200" transform="translate(140 60)" fill="#50E6FF" style="mix-blend-mode:screen"/>
</g>
<g id="40x40 epx">
<path d="M 9.45117 7.99609L 9.45117 17.0391L 11.5312 17.0391L 11.5312 18.9238L 9.45117 18.9238L 9.45117 22L 7.25391 22L 7.25391 18.9238L 0.916016 18.9238L 0.916016 17.0195C 1.48893 16.375 2.07487 15.6784 2.67383 14.9297C 3.2793 14.1745 3.85872 13.4062 4.41211 12.625C 4.97201 11.8372 5.48958 11.0495 5.96484 10.2617C 6.4401 9.47396 6.84049 8.71875 7.16602 7.99609L 9.45117 7.99609ZM 7.25391 17.0391L 7.25391 11.1602C 6.54427 12.4362 5.84115 13.5495 5.14453 14.5C 4.45443 15.4505 3.80664 16.2969 3.20117 17.0391L 7.25391 17.0391ZM 17.332 22.2344C 15.8737 22.2344 14.7344 21.6387 13.9141 20.4473C 13.1003 19.2559 12.6934 17.5339 12.6934 15.2812C 12.6934 12.8073 13.1198 10.9355 13.9727 9.66602C 14.8255 8.39648 16.056 7.76172 17.6641 7.76172C 20.7435 7.76172 22.2832 10.1543 22.2832 14.9395C 22.2832 17.3092 21.847 19.1191 20.9746 20.3691C 20.1087 21.6126 18.8945 22.2344 17.332 22.2344ZM 17.5566 9.56836C 15.8574 9.56836 15.0078 11.4401 15.0078 15.1836C 15.0078 18.6862 15.8411 20.4375 17.5078 20.4375C 19.1484 20.4375 19.9688 18.6569 19.9688 15.0957C 19.9688 11.4108 19.1647 9.56836 17.5566 9.56836ZM 32.8789 12L 29.5488 17.0586L 32.8398 22L 30.2129 22L 28.4551 18.9043C 28.3444 18.7155 28.2142 18.4746 28.0645 18.1816L 28.0254 18.1816C 27.9993 18.2402 27.8626 18.4811 27.6152 18.9043L 25.8281 22L 23.2109 22L 26.6094 17.0977L 23.3867 12L 26.0234 12L 27.752 15.252C 27.8822 15.4928 28.0091 15.7402 28.1328 15.9941L 28.1621 15.9941L 30.3984 12L 32.8789 12ZM 42.1074 7.99609L 42.1074 17.0391L 44.1875 17.0391L 44.1875 18.9238L 42.1074 18.9238L 42.1074 22L 39.9102 22L 39.9102 18.9238L 33.5723 18.9238L 33.5723 17.0195C 34.1452 16.375 34.7311 15.6784 35.3301 14.9297C 35.9355 14.1745 36.515 13.4062 37.0684 12.625C 37.6283 11.8372 38.1458 11.0495 38.6211 10.2617C 39.0964 9.47396 39.4967 8.71875 39.8223 7.99609L 42.1074 7.99609ZM 39.9102 17.0391L 39.9102 11.1602C 39.2005 12.4362 38.4974 13.5495 37.8008 14.5C 37.1107 15.4505 36.4629 16.2969 35.8574 17.0391L 39.9102 17.0391ZM 49.9883 22.2344C 48.5299 22.2344 47.3906 21.6387 46.5703 20.4473C 45.7565 19.2559 45.3496 17.5339 45.3496 15.2812C 45.3496 12.8073 45.776 10.9355 46.6289 9.66602C 47.4818 8.39648 48.7122 7.76172 50.3203 7.76172C 53.3997 7.76172 54.9395 10.1543 54.9395 14.9395C 54.9395 17.3092 54.5033 19.1191 53.6309 20.3691C 52.765 21.6126 51.5508 22.2344 49.9883 22.2344ZM 50.2129 9.56836C 48.5137 9.56836 47.6641 11.4401 47.6641 15.1836C 47.6641 18.6862 48.4974 20.4375 50.1641 20.4375C 51.8047 20.4375 52.625 18.6569 52.625 15.0957C 52.625 11.4108 51.821 9.56836 50.2129 9.56836ZM 71.1504 17.6152L 64.334 17.6152C 64.36 18.5397 64.6432 19.2526 65.1836 19.7539C 65.7305 20.2552 66.4792 20.5059 67.4297 20.5059C 68.4974 20.5059 69.4772 20.1868 70.3691 19.5488L 70.3691 21.375C 69.4577 21.9479 68.2533 22.2344 66.7559 22.2344C 65.2845 22.2344 64.1289 21.7819 63.2891 20.877C 62.4557 19.9655 62.0391 18.6862 62.0391 17.0391C 62.0391 15.4831 62.498 14.2168 63.416 13.2402C 64.3405 12.2572 65.4863 11.7656 66.8535 11.7656C 68.2207 11.7656 69.2786 12.2051 70.0273 13.084C 70.776 13.9629 71.1504 15.1836 71.1504 16.7461L 71.1504 17.6152ZM 68.9629 16.0137C 68.9564 15.1999 68.7643 14.5684 68.3867 14.1191C 68.0091 13.6634 67.4883 13.4355 66.8242 13.4355C 66.1732 13.4355 65.6198 13.6732 65.1641 14.1484C 64.7148 14.6237 64.4382 15.2454 64.334 16.0137L 68.9629 16.0137ZM 75.6133 20.5254L 75.5742 20.5254L 75.5742 26.5996L 73.3086 26.5996L 73.3086 12L 75.5742 12L 75.5742 13.7578L 75.6133 13.7578C 76.388 12.4297 77.5208 11.7656 79.0117 11.7656C 80.2812 11.7656 81.2708 12.2116 81.9805 13.1035C 82.6901 13.9954 83.0449 15.1934 83.0449 16.6973C 83.0449 18.3639 82.6445 19.6986 81.8438 20.7012C 81.043 21.7038 79.9492 22.2051 78.5625 22.2051C 77.2865 22.2051 76.3034 21.6452 75.6133 20.5254ZM 75.5547 16.5801L 75.5547 17.8203C 75.5547 18.5495 75.7858 19.168 76.248 19.6758C 76.7168 20.1836 77.3092 20.4375 78.0254 20.4375C 78.8652 20.4375 79.5228 20.112 79.998 19.4609C 80.4798 18.8034 80.7207 17.8887 80.7207 16.7168C 80.7207 15.7337 80.4961 14.9655 80.0469 14.4121C 79.6042 13.8522 79.002 13.5723 78.2402 13.5723C 77.4329 13.5723 76.7819 13.8587 76.2871 14.4316C 75.7988 15.0046 75.5547 15.7207 75.5547 16.5801ZM 93.4062 12L 90.0762 17.0586L 93.3672 22L 90.7402 22L 88.9824 18.9043C 88.8717 18.7155 88.7415 18.4746 88.5918 18.1816L 88.5527 18.1816C 88.5267 18.2402 88.39 18.4811 88.1426 18.9043L 86.3555 22L 83.7383 22L 87.1367 17.0977L 83.9141 12L 86.5508 12L 88.2793 15.252C 88.4095 15.4928 88.5365 15.7402 88.6602 15.9941L 88.6895 15.9941L 90.9258 12L 93.4062 12Z" transform="translate(193 142)" fill="#243A5E"/>
</g>
<g id="Rectangle_3">
<rect width="240" height="360" transform="translate(380 60)" fill="#50E6FF" style="mix-blend-mode:screen"/>
</g>
<g id="240x360 epx">
<path d="M 10.2168 22L 1.42773 22L 1.42773 20.916C 1.42773 20.4733 1.48958 20.0599 1.61328 19.6758C 1.73698 19.2852 1.90299 18.9206 2.11133 18.582C 2.31966 18.237 2.5638 17.9147 2.84375 17.6152C 3.1237 17.3092 3.42318 17.0163 3.74219 16.7363C 4.0612 16.4499 4.38672 16.1764 4.71875 15.916C 5.05078 15.6491 5.3763 15.3822 5.69531 15.1152C 5.99479 14.8613 6.26823 14.6139 6.51562 14.373C 6.76302 14.1257 6.97461 13.8717 7.15039 13.6113C 7.32617 13.3509 7.46289 13.0775 7.56055 12.791C 7.6582 12.498 7.70703 12.1823 7.70703 11.8438C 7.70703 11.4727 7.64844 11.1504 7.53125 10.877C 7.42057 10.597 7.26107 10.3659 7.05273 10.1836C 6.85091 9.99479 6.61003 9.85482 6.33008 9.76367C 6.05013 9.66602 5.74414 9.61719 5.41211 9.61719C 4.83919 9.61719 4.25651 9.75065 3.66406 10.0176C 3.07161 10.2845 2.50195 10.6849 1.95508 11.2188L 1.95508 9.04102C 2.24154 8.82617 2.53125 8.64062 2.82422 8.48438C 3.11719 8.32161 3.41992 8.18815 3.73242 8.08398C 4.04492 7.97331 4.3737 7.89193 4.71875 7.83984C 5.0638 7.78776 5.43164 7.76172 5.82227 7.76172C 6.45378 7.76172 7.02669 7.84635 7.54102 8.01562C 8.05534 8.17839 8.49479 8.42253 8.85938 8.74805C 9.22396 9.06706 9.50391 9.46745 9.69922 9.94922C 9.90104 10.431 10.002 10.9844 10.002 11.6094C 10.002 12.1758 9.93034 12.6868 9.78711 13.1426C 9.65039 13.5918 9.45182 14.0117 9.19141 14.4023C 8.9375 14.793 8.62826 15.1641 8.26367 15.5156C 7.89909 15.8672 7.49219 16.2285 7.04297 16.5996C 6.66536 16.9056 6.28776 17.2051 5.91016 17.498C 5.53906 17.7845 5.20378 18.0677 4.9043 18.3477C 4.60482 18.6211 4.36068 18.8978 4.17188 19.1777C 3.98958 19.4512 3.89844 19.7279 3.89844 20.0078L 3.89844 20.0566L 10.2168 20.0566L 10.2168 22ZM 20.627 7.99609L 20.627 17.0391L 22.707 17.0391L 22.707 18.9238L 20.627 18.9238L 20.627 22L 18.4297 22L 18.4297 18.9238L 12.0918 18.9238L 12.0918 17.0195C 12.6647 16.375 13.2507 15.6784 13.8496 14.9297C 14.4551 14.1745 15.0345 13.4062 15.5879 12.625C 16.1478 11.8372 16.6654 11.0495 17.1406 10.2617C 17.6159 9.47396 18.0163 8.71875 18.3418 7.99609L 20.627 7.99609ZM 18.4297 17.0391L 18.4297 11.1602C 17.7201 12.4362 17.0169 13.5495 16.3203 14.5C 15.6302 15.4505 14.9824 16.2969 14.377 17.0391L 18.4297 17.0391ZM 28.5078 22.2344C 27.0495 22.2344 25.9102 21.6387 25.0898 20.4473C 24.276 19.2559 23.8691 17.5339 23.8691 15.2812C 23.8691 12.8073 24.2956 10.9355 25.1484 9.66602C 26.0013 8.39648 27.2318 7.76172 28.8398 7.76172C 31.9193 7.76172 33.459 10.1543 33.459 14.9395C 33.459 17.3092 33.0228 19.1191 32.1504 20.3691C 31.2845 21.6126 30.0703 22.2344 28.5078 22.2344ZM 28.7324 9.56836C 27.0332 9.56836 26.1836 11.4401 26.1836 15.1836C 26.1836 18.6862 27.0169 20.4375 28.6836 20.4375C 30.3242 20.4375 31.1445 18.6569 31.1445 15.0957C 31.1445 11.4108 30.3405 9.56836 28.7324 9.56836ZM 44.0547 12L 40.7246 17.0586L 44.0156 22L 41.3887 22L 39.6309 18.9043C 39.5202 18.7155 39.39 18.4746 39.2402 18.1816L 39.2012 18.1816C 39.1751 18.2402 39.0384 18.4811 38.791 18.9043L 37.0039 22L 34.3867 22L 37.7852 17.0977L 34.5625 12L 37.1992 12L 38.9277 15.252C 39.0579 15.4928 39.1849 15.7402 39.3086 15.9941L 39.3379 15.9941L 41.5742 12L 44.0547 12ZM 45.4414 21.4824L 45.4414 19.3535C 46.3529 20.0762 47.3815 20.4375 48.5273 20.4375C 49.4583 20.4375 50.2005 20.2259 50.7539 19.8027C 51.3138 19.3796 51.5938 18.8066 51.5938 18.084C 51.5938 16.4954 50.3796 15.7012 47.9512 15.7012L 46.8672 15.7012L 46.8672 13.8848L 47.9023 13.8848C 50.0573 13.8848 51.1348 13.1361 51.1348 11.6387C 51.1348 10.2585 50.2949 9.56836 48.6152 9.56836C 47.6777 9.56836 46.7956 9.90365 45.9688 10.5742L 45.9688 8.5625C 46.9193 8.02865 48.0423 7.76172 49.3379 7.76172C 50.5814 7.76172 51.5775 8.07422 52.3262 8.69922C 53.0749 9.32422 53.4492 10.125 53.4492 11.1016C 53.4492 12.944 52.5117 14.1289 50.6367 14.6562L 50.6367 14.6953C 51.6458 14.793 52.4434 15.1478 53.0293 15.7598C 53.6152 16.3652 53.9082 17.1237 53.9082 18.0352C 53.9082 19.2917 53.4362 20.3073 52.4922 21.082C 51.5482 21.8503 50.3047 22.2344 48.7617 22.2344C 47.375 22.2344 46.2682 21.9837 45.4414 21.4824ZM 65.7539 17.498C 65.7539 18.2012 65.6367 18.8424 65.4023 19.4219C 65.1745 20.0013 64.8555 20.5026 64.4453 20.9258C 64.0352 21.3424 63.5469 21.668 62.9805 21.9023C 62.4206 22.1302 61.8118 22.2441 61.1543 22.2441C 60.4512 22.2441 59.8034 22.1074 59.2109 21.834C 58.625 21.5605 58.1172 21.1536 57.6875 20.6133C 57.2643 20.0729 56.9355 19.4023 56.7012 18.6016C 56.4668 17.7943 56.3496 16.86 56.3496 15.7988C 56.3496 14.5033 56.5026 13.3542 56.8086 12.3516C 57.1211 11.349 57.5475 10.5091 58.0879 9.83203C 58.6283 9.15495 59.263 8.64062 59.9922 8.28906C 60.7214 7.9375 61.5091 7.76172 62.3555 7.76172C 62.8828 7.76172 63.3613 7.79753 63.791 7.86914C 64.2272 7.94076 64.5755 8.03841 64.8359 8.16211L 64.8359 10.2031C 64.5039 10.0339 64.1491 9.89062 63.7715 9.77344C 63.3939 9.65625 62.9609 9.59766 62.4727 9.59766C 61.9258 9.59766 61.4212 9.70833 60.959 9.92969C 60.4967 10.151 60.0964 10.4766 59.7578 10.9062C 59.4258 11.3294 59.1621 11.8568 58.9668 12.4883C 58.778 13.1133 58.6803 13.8359 58.6738 14.6562L 58.7324 14.6562C 59.0319 14.194 59.4355 13.8294 59.9434 13.5625C 60.4577 13.2956 61.0599 13.1621 61.75 13.1621C 62.362 13.1621 62.9121 13.263 63.4004 13.4648C 63.8952 13.6602 64.3151 13.9466 64.6602 14.3242C 65.0117 14.6953 65.2819 15.151 65.4707 15.6914C 65.6595 16.2253 65.7539 16.8275 65.7539 17.498ZM 63.4688 17.6836C 63.4688 17.2799 63.4199 16.9121 63.3223 16.5801C 63.2311 16.248 63.0879 15.9648 62.8926 15.7305C 62.7038 15.4896 62.4629 15.304 62.1699 15.1738C 61.8835 15.0436 61.5449 14.9785 61.1543 14.9785C 60.7637 14.9785 60.4186 15.0501 60.1191 15.1934C 59.8262 15.3301 59.5788 15.5124 59.377 15.7402C 59.1751 15.9681 59.0221 16.2285 58.918 16.5215C 58.8203 16.8145 58.7715 17.1139 58.7715 17.4199C 58.7715 17.752 58.8171 18.0938 58.9082 18.4453C 59.0059 18.7904 59.1523 19.1061 59.3477 19.3926C 59.543 19.679 59.7904 19.9167 60.0898 20.1055C 60.3958 20.2878 60.7572 20.3789 61.1738 20.3789C 61.5449 20.3789 61.8737 20.3105 62.1602 20.1738C 62.4466 20.0371 62.6842 19.8483 62.873 19.6074C 63.0684 19.3665 63.2148 19.0833 63.3125 18.7578C 63.4167 18.4258 63.4688 18.0677 63.4688 17.6836ZM 71.9258 22.2344C 70.4674 22.2344 69.3281 21.6387 68.5078 20.4473C 67.694 19.2559 67.2871 17.5339 67.2871 15.2812C 67.2871 12.8073 67.7135 10.9355 68.5664 9.66602C 69.4193 8.39648 70.6497 7.76172 72.2578 7.76172C 75.3372 7.76172 76.877 10.1543 76.877 14.9395C 76.877 17.3092 76.4408 19.1191 75.5684 20.3691C 74.7025 21.6126 73.4883 22.2344 71.9258 22.2344ZM 72.1504 9.56836C 70.4512 9.56836 69.6016 11.4401 69.6016 15.1836C 69.6016 18.6862 70.4349 20.4375 72.1016 20.4375C 73.7422 20.4375 74.5625 18.6569 74.5625 15.0957C 74.5625 11.4108 73.7585 9.56836 72.1504 9.56836ZM 93.0879 17.6152L 86.2715 17.6152C 86.2975 18.5397 86.5807 19.2526 87.1211 19.7539C 87.668 20.2552 88.4167 20.5059 89.3672 20.5059C 90.4349 20.5059 91.4147 20.1868 92.3066 19.5488L 92.3066 21.375C 91.3952 21.9479 90.1908 22.2344 88.6934 22.2344C 87.222 22.2344 86.0664 21.7819 85.2266 20.877C 84.3932 19.9655 83.9766 18.6862 83.9766 17.0391C 83.9766 15.4831 84.4355 14.2168 85.3535 13.2402C 86.278 12.2572 87.4238 11.7656 88.791 11.7656C 90.1582 11.7656 91.2161 12.2051 91.9648 13.084C 92.7135 13.9629 93.0879 15.1836 93.0879 16.7461L 93.0879 17.6152ZM 90.9004 16.0137C 90.8939 15.1999 90.7018 14.5684 90.3242 14.1191C 89.9466 13.6634 89.4258 13.4355 88.7617 13.4355C 88.1107 13.4355 87.5573 13.6732 87.1016 14.1484C 86.6523 14.6237 86.3757 15.2454 86.2715 16.0137L 90.9004 16.0137ZM 97.5508 20.5254L 97.5117 20.5254L 97.5117 26.5996L 95.2461 26.5996L 95.2461 12L 97.5117 12L 97.5117 13.7578L 97.5508 13.7578C 98.3255 12.4297 99.4583 11.7656 100.949 11.7656C 102.219 11.7656 103.208 12.2116 103.918 13.1035C 104.628 13.9954 104.982 15.1934 104.982 16.6973C 104.982 18.3639 104.582 19.6986 103.781 20.7012C 102.98 21.7038 101.887 22.2051 100.5 22.2051C 99.224 22.2051 98.2409 21.6452 97.5508 20.5254ZM 97.4922 16.5801L 97.4922 17.8203C 97.4922 18.5495 97.7233 19.168 98.1855 19.6758C 98.6543 20.1836 99.2467 20.4375 99.9629 20.4375C 100.803 20.4375 101.46 20.112 101.936 19.4609C 102.417 18.8034 102.658 17.8887 102.658 16.7168C 102.658 15.7337 102.434 14.9655 101.984 14.4121C 101.542 13.8522 100.939 13.5723 100.178 13.5723C 99.3704 13.5723 98.7194 13.8587 98.2246 14.4316C 97.7363 15.0046 97.4922 15.7207 97.4922 16.5801ZM 115.344 12L 112.014 17.0586L 115.305 22L 112.678 22L 110.92 18.9043C 110.809 18.7155 110.679 18.4746 110.529 18.1816L 110.49 18.1816C 110.464 18.2402 110.327 18.4811 110.08 18.9043L 108.293 22L 105.676 22L 109.074 17.0977L 105.852 12L 108.488 12L 110.217 15.252C 110.347 15.4928 110.474 15.7402 110.598 15.9941L 110.627 15.9941L 112.863 12L 115.344 12Z" transform="translate(442 220)" fill="#243A5E"/>
</g>
<g id="4x4">
<path d="M 7.50781 5.79688L 7.50781 13.0312L 9.17188 13.0312L 9.17188 14.5391L 7.50781 14.5391L 7.50781 17L 5.75 17L 5.75 14.5391L 0.679688 14.5391L 0.679688 13.0156C 1.13802 12.5 1.60677 11.9427 2.08594 11.3438C 2.57031 10.7396 3.03385 10.125 3.47656 9.5C 3.92448 8.86979 4.33854 8.23958 4.71875 7.60938C 5.09896 6.97917 5.41927 6.375 5.67969 5.79688L 7.50781 5.79688ZM 5.75 13.0312L 5.75 8.32812C 5.18229 9.34896 4.61979 10.2396 4.0625 11C 3.51042 11.7604 2.99219 12.4375 2.50781 13.0312L 5.75 13.0312ZM 17.3594 9L 14.6953 13.0469L 17.3281 17L 15.2266 17L 13.8203 14.5234C 13.7318 14.3724 13.6276 14.1797 13.5078 13.9453L 13.4766 13.9453C 13.4557 13.9922 13.3464 14.1849 13.1484 14.5234L 11.7188 17L 9.625 17L 12.3438 13.0781L 9.76562 9L 11.875 9L 13.2578 11.6016C 13.362 11.7943 13.4635 11.9922 13.5625 12.1953L 13.5859 12.1953L 15.375 9L 17.3594 9ZM 24.7422 5.79688L 24.7422 13.0312L 26.4062 13.0312L 26.4062 14.5391L 24.7422 14.5391L 24.7422 17L 22.9844 17L 22.9844 14.5391L 17.9141 14.5391L 17.9141 13.0156C 18.3724 12.5 18.8411 11.9427 19.3203 11.3438C 19.8047 10.7396 20.2682 10.125 20.7109 9.5C 21.1589 8.86979 21.5729 8.23958 21.9531 7.60938C 22.3333 6.97917 22.6536 6.375 22.9141 5.79688L 24.7422 5.79688ZM 22.9844 13.0312L 22.9844 8.32812C 22.4167 9.34896 21.8542 10.2396 21.2969 11C 20.7448 11.7604 20.2266 12.4375 19.7422 13.0312L 22.9844 13.0312Z" transform="translate(66 69)" fill="#243A5E"/>
</g>
<g id="Ellipse">
<circle cx="100" cy="100" r="100" transform="translate(670 60)" fill="#69ECFF"/>
</g>
<g id="200x200 epx">
<path d="M 9.95117 22L 1.16211 22L 1.16211 20.916C 1.16211 20.4733 1.22396 20.0599 1.34766 19.6758C 1.47135 19.2852 1.63737 18.9206 1.8457 18.582C 2.05404 18.237 2.29818 17.9147 2.57812 17.6152C 2.85807 17.3092 3.15755 17.0163 3.47656 16.7363C 3.79557 16.4499 4.12109 16.1764 4.45312 15.916C 4.78516 15.6491 5.11068 15.3822 5.42969 15.1152C 5.72917 14.8613 6.0026 14.6139 6.25 14.373C 6.4974 14.1257 6.70898 13.8717 6.88477 13.6113C 7.06055 13.3509 7.19727 13.0775 7.29492 12.791C 7.39258 12.498 7.44141 12.1823 7.44141 11.8438C 7.44141 11.4727 7.38281 11.1504 7.26562 10.877C 7.15495 10.597 6.99544 10.3659 6.78711 10.1836C 6.58529 9.99479 6.3444 9.85482 6.06445 9.76367C 5.78451 9.66602 5.47852 9.61719 5.14648 9.61719C 4.57357 9.61719 3.99089 9.75065 3.39844 10.0176C 2.80599 10.2845 2.23633 10.6849 1.68945 11.2188L 1.68945 9.04102C 1.97591 8.82617 2.26562 8.64062 2.55859 8.48438C 2.85156 8.32161 3.1543 8.18815 3.4668 8.08398C 3.7793 7.97331 4.10807 7.89193 4.45312 7.83984C 4.79818 7.78776 5.16602 7.76172 5.55664 7.76172C 6.18815 7.76172 6.76107 7.84635 7.27539 8.01562C 7.78971 8.17839 8.22917 8.42253 8.59375 8.74805C 8.95833 9.06706 9.23828 9.46745 9.43359 9.94922C 9.63542 10.431 9.73633 10.9844 9.73633 11.6094C 9.73633 12.1758 9.66471 12.6868 9.52148 13.1426C 9.38477 13.5918 9.1862 14.0117 8.92578 14.4023C 8.67188 14.793 8.36263 15.1641 7.99805 15.5156C 7.63346 15.8672 7.22656 16.2285 6.77734 16.5996C 6.39974 16.9056 6.02214 17.2051 5.64453 17.498C 5.27344 17.7845 4.93815 18.0677 4.63867 18.3477C 4.33919 18.6211 4.09505 18.8978 3.90625 19.1777C 3.72396 19.4512 3.63281 19.7279 3.63281 20.0078L 3.63281 20.0566L 9.95117 20.0566L 9.95117 22ZM 16.7188 22.2344C 15.2604 22.2344 14.1211 21.6387 13.3008 20.4473C 12.487 19.2559 12.0801 17.5339 12.0801 15.2812C 12.0801 12.8073 12.5065 10.9355 13.3594 9.66602C 14.2122 8.39648 15.4427 7.76172 17.0508 7.76172C 20.1302 7.76172 21.6699 10.1543 21.6699 14.9395C 21.6699 17.3092 21.2337 19.1191 20.3613 20.3691C 19.4954 21.6126 18.2812 22.2344 16.7188 22.2344ZM 16.9434 9.56836C 15.2441 9.56836 14.3945 11.4401 14.3945 15.1836C 14.3945 18.6862 15.2279 20.4375 16.8945 20.4375C 18.5352 20.4375 19.3555 18.6569 19.3555 15.0957C 19.3555 11.4108 18.5514 9.56836 16.9434 9.56836ZM 27.832 22.2344C 26.3737 22.2344 25.2344 21.6387 24.4141 20.4473C 23.6003 19.2559 23.1934 17.5339 23.1934 15.2812C 23.1934 12.8073 23.6198 10.9355 24.4727 9.66602C 25.3255 8.39648 26.556 7.76172 28.1641 7.76172C 31.2435 7.76172 32.7832 10.1543 32.7832 14.9395C 32.7832 17.3092 32.347 19.1191 31.4746 20.3691C 30.6087 21.6126 29.3945 22.2344 27.832 22.2344ZM 28.0566 9.56836C 26.3574 9.56836 25.5078 11.4401 25.5078 15.1836C 25.5078 18.6862 26.3411 20.4375 28.0078 20.4375C 29.6484 20.4375 30.4688 18.6569 30.4688 15.0957C 30.4688 11.4108 29.6647 9.56836 28.0566 9.56836ZM 43.3789 12L 40.0488 17.0586L 43.3398 22L 40.7129 22L 38.9551 18.9043C 38.8444 18.7155 38.7142 18.4746 38.5645 18.1816L 38.5254 18.1816C 38.4993 18.2402 38.3626 18.4811 38.1152 18.9043L 36.3281 22L 33.7109 22L 37.1094 17.0977L 33.8867 12L 36.5234 12L 38.252 15.252C 38.3822 15.4928 38.5091 15.7402 38.6328 15.9941L 38.6621 15.9941L 40.8984 12L 43.3789 12ZM 53.3105 22L 44.5215 22L 44.5215 20.916C 44.5215 20.4733 44.5833 20.0599 44.707 19.6758C 44.8307 19.2852 44.9967 18.9206 45.2051 18.582C 45.4134 18.237 45.6576 17.9147 45.9375 17.6152C 46.2174 17.3092 46.5169 17.0163 46.8359 16.7363C 47.1549 16.4499 47.4805 16.1764 47.8125 15.916C 48.1445 15.6491 48.4701 15.3822 48.7891 15.1152C 49.0885 14.8613 49.362 14.6139 49.6094 14.373C 49.8568 14.1257 50.0684 13.8717 50.2441 13.6113C 50.4199 13.3509 50.5566 13.0775 50.6543 12.791C 50.752 12.498 50.8008 12.1823 50.8008 11.8438C 50.8008 11.4727 50.7422 11.1504 50.625 10.877C 50.5143 10.597 50.3548 10.3659 50.1465 10.1836C 49.9447 9.99479 49.7038 9.85482 49.4238 9.76367C 49.1439 9.66602 48.8379 9.61719 48.5059 9.61719C 47.9329 9.61719 47.3503 9.75065 46.7578 10.0176C 46.1654 10.2845 45.5957 10.6849 45.0488 11.2188L 45.0488 9.04102C 45.3353 8.82617 45.625 8.64062 45.918 8.48438C 46.2109 8.32161 46.5137 8.18815 46.8262 8.08398C 47.1387 7.97331 47.4674 7.89193 47.8125 7.83984C 48.1576 7.78776 48.5254 7.76172 48.916 7.76172C 49.5475 7.76172 50.1204 7.84635 50.6348 8.01562C 51.1491 8.17839 51.5885 8.42253 51.9531 8.74805C 52.3177 9.06706 52.5977 9.46745 52.793 9.94922C 52.9948 10.431 53.0957 10.9844 53.0957 11.6094C 53.0957 12.1758 53.0241 12.6868 52.8809 13.1426C 52.7441 13.5918 52.5456 14.0117 52.2852 14.4023C 52.0312 14.793 51.722 15.1641 51.3574 15.5156C 50.9928 15.8672 50.5859 16.2285 50.1367 16.5996C 49.7591 16.9056 49.3815 17.2051 49.0039 17.498C 48.6328 17.7845 48.2975 18.0677 47.998 18.3477C 47.6986 18.6211 47.4544 18.8978 47.2656 19.1777C 47.0833 19.4512 46.9922 19.7279 46.9922 20.0078L 46.9922 20.0566L 53.3105 20.0566L 53.3105 22ZM 60.0781 22.2344C 58.6198 22.2344 57.4805 21.6387 56.6602 20.4473C 55.8464 19.2559 55.4395 17.5339 55.4395 15.2812C 55.4395 12.8073 55.8659 10.9355 56.7188 9.66602C 57.5716 8.39648 58.8021 7.76172 60.4102 7.76172C 63.4896 7.76172 65.0293 10.1543 65.0293 14.9395C 65.0293 17.3092 64.5931 19.1191 63.7207 20.3691C 62.8548 21.6126 61.6406 22.2344 60.0781 22.2344ZM 60.3027 9.56836C 58.6035 9.56836 57.7539 11.4401 57.7539 15.1836C 57.7539 18.6862 58.5872 20.4375 60.2539 20.4375C 61.8945 20.4375 62.7148 18.6569 62.7148 15.0957C 62.7148 11.4108 61.9108 9.56836 60.3027 9.56836ZM 71.1914 22.2344C 69.7331 22.2344 68.5938 21.6387 67.7734 20.4473C 66.9596 19.2559 66.5527 17.5339 66.5527 15.2812C 66.5527 12.8073 66.9792 10.9355 67.832 9.66602C 68.6849 8.39648 69.9154 7.76172 71.5234 7.76172C 74.6029 7.76172 76.1426 10.1543 76.1426 14.9395C 76.1426 17.3092 75.7064 19.1191 74.834 20.3691C 73.9681 21.6126 72.7539 22.2344 71.1914 22.2344ZM 71.416 9.56836C 69.7168 9.56836 68.8672 11.4401 68.8672 15.1836C 68.8672 18.6862 69.7005 20.4375 71.3672 20.4375C 73.0078 20.4375 73.8281 18.6569 73.8281 15.0957C 73.8281 11.4108 73.0241 9.56836 71.416 9.56836ZM 92.3535 17.6152L 85.5371 17.6152C 85.5632 18.5397 85.8464 19.2526 86.3867 19.7539C 86.9336 20.2552 87.6823 20.5059 88.6328 20.5059C 89.7005 20.5059 90.6803 20.1868 91.5723 19.5488L 91.5723 21.375C 90.6608 21.9479 89.4564 22.2344 87.959 22.2344C 86.4876 22.2344 85.332 21.7819 84.4922 20.877C 83.6589 19.9655 83.2422 18.6862 83.2422 17.0391C 83.2422 15.4831 83.7012 14.2168 84.6191 13.2402C 85.5436 12.2572 86.6895 11.7656 88.0566 11.7656C 89.4238 11.7656 90.4818 12.2051 91.2305 13.084C 91.9792 13.9629 92.3535 15.1836 92.3535 16.7461L 92.3535 17.6152ZM 90.166 16.0137C 90.1595 15.1999 89.9674 14.5684 89.5898 14.1191C 89.2122 13.6634 88.6914 13.4355 88.0273 13.4355C 87.3763 13.4355 86.8229 13.6732 86.3672 14.1484C 85.918 14.6237 85.6413 15.2454 85.5371 16.0137L 90.166 16.0137ZM 96.8164 20.5254L 96.7773 20.5254L 96.7773 26.5996L 94.5117 26.5996L 94.5117 12L 96.7773 12L 96.7773 13.7578L 96.8164 13.7578C 97.5911 12.4297 98.724 11.7656 100.215 11.7656C 101.484 11.7656 102.474 12.2116 103.184 13.1035C 103.893 13.9954 104.248 15.1934 104.248 16.6973C 104.248 18.3639 103.848 19.6986 103.047 20.7012C 102.246 21.7038 101.152 22.2051 99.7656 22.2051C 98.4896 22.2051 97.5065 21.6452 96.8164 20.5254ZM 96.7578 16.5801L 96.7578 17.8203C 96.7578 18.5495 96.9889 19.168 97.4512 19.6758C 97.9199 20.1836 98.5124 20.4375 99.2285 20.4375C 100.068 20.4375 100.726 20.112 101.201 19.4609C 101.683 18.8034 101.924 17.8887 101.924 16.7168C 101.924 15.7337 101.699 14.9655 101.25 14.4121C 100.807 13.8522 100.205 13.5723 99.4434 13.5723C 98.6361 13.5723 97.985 13.8587 97.4902 14.4316C 97.002 15.0046 96.7578 15.7207 96.7578 16.5801ZM 114.609 12L 111.279 17.0586L 114.57 22L 111.943 22L 110.186 18.9043C 110.075 18.7155 109.945 18.4746 109.795 18.1816L 109.756 18.1816C 109.73 18.2402 109.593 18.4811 109.346 18.9043L 107.559 22L 104.941 22L 108.34 17.0977L 105.117 12L 107.754 12L 109.482 15.252C 109.613 15.4928 109.74 15.7402 109.863 15.9941L 109.893 15.9941L 112.129 12L 114.609 12Z" transform="translate(712 143)" fill="#243A5E"/>
</g>
</g>
</g>
<defs>

<clipPath id="clip0">
<rect width="941" height="529" fill="white"/>
</clipPath>

</defs>
</svg>

