<svg width="1920" height="1147" viewBox="0 0 1920 1147" version="1.1" xmlns="http://www.w3.org/2000/svg" xmlns:xlink="http://www.w3.org/1999/xlink">
<g fill="none">
<g clip-path="url(#clip0)">
<rect width="1920" height="1147" fill="#243A5E"/>
<path fill-rule="evenodd" clip-rule="evenodd" d="M 0 0L 811.667 0L 811.667 893.593L 0 893.593L 0 0Z" transform="translate(1001.67 160.047)" fill="white"/>
<path fill-rule="evenodd" clip-rule="evenodd" d="M 0 0L 811.667 0L 811.667 893.593L 0 893.593L 0 0Z" transform="translate(1001.67 160.047)" fill="white"/>
<mask id="mask0" mask-type="alpha" maskUnits="userSpaceOnUse" x="1001" y="160" width="868" height="894">
<path fill-rule="evenodd" clip-rule="evenodd" d="M 0 3C 0 1.34314 1.34315 0 3 0L 863.667 0C 865.324 0 866.667 1.34315 866.667 3L 866.667 890.593C 866.667 892.25 865.324 893.593 863.667 893.593L 3 893.593C 1.34315 893.593 0 892.25 0 890.593L 0 3Z" transform="translate(1001.67 160.047)" fill="white"/>
<path fill-rule="evenodd" clip-rule="evenodd" d="M 0 3C 0 1.34314 1.34315 0 3 0L 863.667 0C 865.324 0 866.667 1.34315 866.667 3L 866.667 890.593C 866.667 892.25 865.324 893.593 863.667 893.593L 3 893.593C 1.34315 893.593 0 892.25 0 890.593L 0 3Z" transform="translate(1001.67 160.047)" fill="white"/>
</mask>
<g mask="url(#mask0)">
<g style="mix-blend-mode:multiply">
<rect width="345" height="893.593" transform="translate(1001.67 160.047)" fill="#D9D9D9"/>
</g>
</g>
<rect width="26.6667" height="26.6744" transform="translate(1028.33 306.756)" fill="#B3B3B3"/>
<rect width="240" height="26.6744" transform="translate(1068.33 306.756)" fill="#B3B3B3"/>
<rect width="26.6667" height="26.6744" transform="translate(1028.33 360.105)" fill="#B3B3B3"/>
<rect width="240" height="26.6744" transform="translate(1068.33 360.105)" fill="#B3B3B3"/>
<rect width="26.6667" height="26.6744" transform="translate(1028.33 413.453)" fill="#B3B3B3"/>
<rect width="240" height="26.6744" transform="translate(1068.33 413.453)" fill="#B3B3B3"/>
<rect width="26.6667" height="26.6744" transform="translate(1028.33 466.803)" fill="#B3B3B3"/>
<rect width="240" height="26.6744" transform="translate(1068.33 466.803)" fill="#B3B3B3"/>
<rect width="26.6667" height="26.6744" transform="translate(1028.33 520.15)" fill="#B3B3B3"/>
<rect width="240" height="26.6744" transform="translate(1068.33 520.15)" fill="#B3B3B3"/>
<rect width="26.6667" height="26.6744" transform="translate(1028.33 573.5)" fill="#B3B3B3"/>
<rect width="240" height="26.6744" transform="translate(1068.33 573.5)" fill="#B3B3B3"/>
<g opacity="0.75">
<path fill-rule="evenodd" clip-rule="evenodd" d="M 26.6667 2.3343C 26.6667 2.88659 26.219 3.3343 25.6667 3.3343L 1 3.3343C 0.447715 3.3343 0 2.88659 0 2.3343L 0 1C 0 0.447715 0.447715 0 0.999999 0L 25.6667 0C 26.219 0 26.6667 0.447715 26.6667 1L 26.6667 2.3343Z" transform="translate(1028.33 245.07)" fill="black"/>
<path fill-rule="evenodd" clip-rule="evenodd" d="M 26.6667 2.3343C 26.6667 2.88659 26.219 3.3343 25.6667 3.3343L 1 3.3343C 0.447715 3.3343 0 2.88659 0 2.3343L 0 1C 0 0.447715 0.447715 0 0.999999 0L 25.6667 0C 26.219 0 26.6667 0.447715 26.6667 1L 26.6667 2.3343Z" transform="translate(1028.33 251.738)" fill="black"/>
<path fill-rule="evenodd" clip-rule="evenodd" d="M 26.6667 2.3343C 26.6667 2.88659 26.219 3.3343 25.6667 3.3343L 1 3.3343C 0.447715 3.3343 0 2.88659 0 2.3343L 0 1C 0 0.447715 0.447715 0 0.999999 0L 25.6667 0C 26.219 0 26.6667 0.447715 26.6667 1L 26.6667 2.3343Z" transform="translate(1028.33 258.408)" fill="black"/>
</g>
<path fill-rule="evenodd" clip-rule="evenodd" d="M 0 0L 9.99998 0L 9.99998 40.0116L 0 40.0116L 0 0Z" transform="translate(1001.67 461.801)" fill="#007AD0"/>
<rect width="108.333" height="13.3372" transform="translate(1028.33 185.055)" fill="#B3B3B3"/>
<rect width="440" height="733.547" transform="translate(1346.67 293.418)" fill="#F4F4F4"/>
<path fill-rule="evenodd" clip-rule="evenodd" d="M 0 0L 813.333 0L 813.333 893.593L 0 893.593L 0 0Z" transform="translate(106.666 160.047)" fill="white"/>
<path fill-rule="evenodd" clip-rule="evenodd" d="M 0 0L 813.333 0L 813.333 893.593L 0 893.593L 0 0Z" transform="translate(106.666 160.047)" fill="white"/>
<mask id="mask1" mask-type="alpha" maskUnits="userSpaceOnUse" x="106" y="160" width="868" height="894">
<path fill-rule="evenodd" clip-rule="evenodd" d="M 0 3C 0 1.34314 1.34315 0 3 0L 863.667 0C 865.323 0 866.667 1.34315 866.667 3L 866.667 890.593C 866.667 892.25 865.323 893.593 863.667 893.593L 3 893.593C 1.34315 893.593 0 892.25 0 890.593L 0 3Z" transform="translate(106.666 160.047)" fill="white"/>
<path fill-rule="evenodd" clip-rule="evenodd" d="M 0 3C 0 1.34314 1.34315 0 3 0L 863.667 0C 865.323 0 866.667 1.34315 866.667 3L 866.667 890.593C 866.667 892.25 865.323 893.593 863.667 893.593L 3 893.593C 1.34315 893.593 0 892.25 0 890.593L 0 3Z" transform="translate(106.666 160.047)" fill="white"/>
</mask>
<g mask="url(#mask1)">
<g style="mix-blend-mode:multiply">
<rect width="81.6667" height="893.593" transform="translate(106.666 160.047)" fill="#D9D9D9"/>
</g>
</g>
<rect width="26.6667" height="26.6744" transform="translate(133.334 306.756)" fill="#B3B3B3"/>
<rect width="26.6667" height="26.6744" transform="translate(133.334 360.105)" fill="#B3B3B3"/>
<rect width="26.6667" height="26.6744" transform="translate(133.334 413.453)" fill="#B3B3B3"/>
<rect width="26.6667" height="26.6744" transform="translate(133.334 466.803)" fill="#B3B3B3"/>
<rect width="26.6667" height="26.6744" transform="translate(133.334 520.15)" fill="#B3B3B3"/>
<rect width="26.6667" height="26.6744" transform="translate(133.334 573.5)" fill="#B3B3B3"/>
<path fill-rule="evenodd" clip-rule="evenodd" d="M 0 0L 10 0L 10 40.0116L 0 40.0116L 0 0Z" transform="translate(106.666 461.801)" fill="#007AD0"/>
<rect width="680" height="733.547" transform="translate(213.334 293.418)" fill="#F4F4F4"/>
<rect width="201.667" height="26.6744" transform="translate(213.334 241.736)" fill="#F4F4F4"/>
<path d="M 79.1813 32L 75.3727 32L 65.3385 16.5605C 65.0846 16.1699 64.8747 15.7646 64.7086 15.3447L 64.6208 15.3447C 64.6989 15.7939 64.7379 16.7559 64.7379 18.2305L 64.7379 32L 61.3688 32L 61.3688 10.9941L 65.4264 10.9941L 75.1237 26.0674C 75.5338 26.6924 75.7975 27.1221 75.9147 27.3564L 75.9733 27.3564C 75.8756 26.7998 75.8268 25.8574 75.8268 24.5293L 75.8268 10.9941L 79.1813 10.9941L 79.1813 32ZM 95.529 32L 92.2331 32L 92.2331 29.6562L 92.1745 29.6562C 91.1393 31.4531 89.6208 32.3516 87.6188 32.3516C 86.1442 32.3516 84.987 31.9512 84.1471 31.1504C 83.317 30.3496 82.902 29.29 82.902 27.9717C 82.902 25.1396 84.5329 23.4893 87.7946 23.0205L 92.2477 22.3906C 92.2477 20.252 91.2321 19.1826 89.2008 19.1826C 87.4137 19.1826 85.8024 19.7979 84.3669 21.0283L 84.3669 18.0547C 85.9489 17.1172 87.7751 16.6484 89.8454 16.6484C 93.6344 16.6484 95.529 18.5137 95.529 22.2441L 95.529 32ZM 92.2477 24.6318L 89.0983 25.0713C 88.1217 25.1982 87.3844 25.4375 86.8864 25.7891C 86.3981 26.1309 86.154 26.7363 86.154 27.6055C 86.154 28.2402 86.3786 28.7627 86.8278 29.1729C 87.2868 29.5732 87.8971 29.7734 88.6588 29.7734C 89.694 29.7734 90.5485 29.4121 91.2223 28.6895C 91.9059 27.957 92.2477 27.0391 92.2477 25.9355L 92.2477 24.6318ZM 112.609 17L 106.808 32L 103.132 32L 97.609 17L 101.3 17L 104.626 27.4883C 104.88 28.2598 105.036 28.9336 105.094 29.5098L 105.138 29.5098C 105.226 28.7871 105.363 28.1328 105.548 27.5469L 109.035 17L 112.609 17ZM 126.642 29.7881L 126.584 29.7881L 126.584 38.8994L 123.185 38.8994L 123.185 17L 126.584 17L 126.584 19.6367L 126.642 19.6367C 127.804 17.6445 129.504 16.6484 131.74 16.6484C 133.644 16.6484 135.129 17.3174 136.193 18.6553C 137.257 19.9932 137.79 21.79 137.79 24.0459C 137.79 26.5459 137.189 28.5479 135.988 30.0518C 134.787 31.5557 133.146 32.3076 131.066 32.3076C 129.152 32.3076 127.677 31.4678 126.642 29.7881ZM 126.554 23.8701L 126.554 25.7305C 126.554 26.8242 126.901 27.752 127.594 28.5137C 128.298 29.2754 129.186 29.6562 130.26 29.6562C 131.52 29.6562 132.507 29.168 133.219 28.1914C 133.942 27.2051 134.303 25.833 134.303 24.0752C 134.303 22.6006 133.966 21.4482 133.293 20.6182C 132.629 19.7783 131.725 19.3584 130.583 19.3584C 129.372 19.3584 128.395 19.7881 127.653 20.6475C 126.921 21.5068 126.554 22.5811 126.554 23.8701ZM 152.423 32L 149.128 32L 149.128 29.6562L 149.069 29.6562C 148.034 31.4531 146.515 32.3516 144.513 32.3516C 143.039 32.3516 141.882 31.9512 141.042 31.1504C 140.212 30.3496 139.797 29.29 139.797 27.9717C 139.797 25.1396 141.427 23.4893 144.689 23.0205L 149.142 22.3906C 149.142 20.252 148.127 19.1826 146.095 19.1826C 144.308 19.1826 142.697 19.7979 141.261 21.0283L 141.261 18.0547C 142.843 17.1172 144.67 16.6484 146.74 16.6484C 150.529 16.6484 152.423 18.5137 152.423 22.2441L 152.423 32ZM 149.142 24.6318L 145.993 25.0713C 145.016 25.1982 144.279 25.4375 143.781 25.7891C 143.293 26.1309 143.048 26.7363 143.048 27.6055C 143.048 28.2402 143.273 28.7627 143.722 29.1729C 144.181 29.5732 144.792 29.7734 145.553 29.7734C 146.589 29.7734 147.443 29.4121 148.117 28.6895C 148.8 27.957 149.142 27.0391 149.142 25.9355L 149.142 24.6318ZM 169.943 32L 166.545 32L 166.545 23.5479C 166.545 20.7451 165.553 19.3438 163.571 19.3438C 162.536 19.3438 161.681 19.7344 161.007 20.5156C 160.334 21.2871 159.997 22.2637 159.997 23.4453L 159.997 32L 156.584 32L 156.584 17L 159.997 17L 159.997 19.4902L 160.055 19.4902C 161.178 17.5957 162.799 16.6484 164.919 16.6484C 166.549 16.6484 167.795 17.1807 168.654 18.2451C 169.513 19.2998 169.943 20.8281 169.943 22.8301L 169.943 32ZM 186.803 25.4229L 176.579 25.4229C 176.618 26.8096 177.043 27.8789 177.853 28.6309C 178.673 29.3828 179.797 29.7588 181.222 29.7588C 182.824 29.7588 184.294 29.2803 185.632 28.3232L 185.632 31.0625C 184.264 31.9219 182.458 32.3516 180.212 32.3516C 178.005 32.3516 176.271 31.6729 175.011 30.3154C 173.761 28.9482 173.136 27.0293 173.136 24.5586C 173.136 22.2246 173.825 20.3252 175.202 18.8604C 176.589 17.3857 178.307 16.6484 180.358 16.6484C 182.409 16.6484 183.996 17.3076 185.119 18.626C 186.242 19.9443 186.803 21.7754 186.803 24.1191L 186.803 25.4229ZM 183.522 23.0205C 183.512 21.7998 183.224 20.8525 182.658 20.1787C 182.091 19.4951 181.31 19.1533 180.314 19.1533C 179.338 19.1533 178.507 19.5098 177.824 20.2227C 177.15 20.9355 176.735 21.8682 176.579 23.0205L 183.522 23.0205ZM 209.04 31.3115C 207.839 32.0049 206.418 32.3516 204.777 32.3516C 202.55 32.3516 200.754 31.6582 199.386 30.2715C 198.019 28.875 197.336 27.0684 197.336 24.8516C 197.336 22.3809 198.068 20.3984 199.533 18.9043C 201.007 17.4004 202.975 16.6484 205.436 16.6484C 206.803 16.6484 208.009 16.8877 209.054 17.3662L 209.054 20.5303C 208.009 19.749 206.896 19.3584 205.715 19.3584C 204.279 19.3584 203.102 19.8467 202.184 20.8232C 201.266 21.79 200.807 23.0596 200.807 24.6318C 200.807 26.1846 201.237 27.4102 202.096 28.3086C 202.965 29.207 204.128 29.6562 205.583 29.6562C 206.803 29.6562 207.956 29.2217 209.04 28.3525L 209.04 31.3115ZM 219.074 32.3516C 216.759 32.3516 214.909 31.6533 213.522 30.2568C 212.145 28.8506 211.457 26.9902 211.457 24.6758C 211.457 22.1562 212.174 20.1885 213.61 18.7725C 215.055 17.3564 216.999 16.6484 219.44 16.6484C 221.784 16.6484 223.61 17.3369 224.919 18.7139C 226.227 20.0908 226.882 22 226.882 24.4414C 226.882 26.834 226.173 28.7529 224.757 30.1982C 223.351 31.6338 221.457 32.3516 219.074 32.3516ZM 219.235 19.3584C 217.907 19.3584 216.857 19.8223 216.086 20.75C 215.314 21.6777 214.928 22.957 214.928 24.5879C 214.928 26.1602 215.319 27.4004 216.1 28.3086C 216.882 29.207 217.926 29.6562 219.235 29.6562C 220.573 29.6562 221.598 29.2119 222.311 28.3232C 223.034 27.4346 223.395 26.1699 223.395 24.5293C 223.395 22.8789 223.034 21.6045 222.311 20.7061C 221.598 19.8076 220.573 19.3584 219.235 19.3584ZM 233.766 32L 230.353 32L 230.353 9.79297L 233.766 9.79297L 233.766 32ZM 241.618 32L 238.205 32L 238.205 9.79297L 241.618 9.79297L 241.618 32ZM 257.57 32L 254.274 32L 254.274 29.6562L 254.215 29.6562C 253.18 31.4531 251.662 32.3516 249.66 32.3516C 248.185 32.3516 247.028 31.9512 246.188 31.1504C 245.358 30.3496 244.943 29.29 244.943 27.9717C 244.943 25.1396 246.574 23.4893 249.836 23.0205L 254.289 22.3906C 254.289 20.252 253.273 19.1826 251.242 19.1826C 249.455 19.1826 247.843 19.7979 246.408 21.0283L 246.408 18.0547C 247.99 17.1172 249.816 16.6484 251.886 16.6484C 255.675 16.6484 257.57 18.5137 257.57 22.2441L 257.57 32ZM 254.289 24.6318L 251.139 25.0713C 250.163 25.1982 249.425 25.4375 248.927 25.7891C 248.439 26.1309 248.195 26.7363 248.195 27.6055C 248.195 28.2402 248.42 28.7627 248.869 29.1729C 249.328 29.5732 249.938 29.7734 250.7 29.7734C 251.735 29.7734 252.59 29.4121 253.263 28.6895C 253.947 27.957 254.289 27.0391 254.289 25.9355L 254.289 24.6318ZM 265.187 29.7881L 265.129 29.7881L 265.129 38.8994L 261.73 38.8994L 261.73 17L 265.129 17L 265.129 19.6367L 265.187 19.6367C 266.349 17.6445 268.048 16.6484 270.285 16.6484C 272.189 16.6484 273.673 17.3174 274.738 18.6553C 275.802 19.9932 276.335 21.79 276.335 24.0459C 276.335 26.5459 275.734 28.5479 274.533 30.0518C 273.332 31.5557 271.691 32.3076 269.611 32.3076C 267.697 32.3076 266.222 31.4678 265.187 29.7881ZM 265.099 23.8701L 265.099 25.7305C 265.099 26.8242 265.446 27.752 266.139 28.5137C 266.842 29.2754 267.731 29.6562 268.805 29.6562C 270.065 29.6562 271.051 29.168 271.764 28.1914C 272.487 27.2051 272.848 25.833 272.848 24.0752C 272.848 22.6006 272.511 21.4482 271.838 20.6182C 271.173 19.7783 270.27 19.3584 269.128 19.3584C 267.917 19.3584 266.94 19.7881 266.198 20.6475C 265.465 21.5068 265.099 22.5811 265.099 23.8701ZM 278.869 31.5312L 278.869 28.3818C 280.138 29.3486 281.54 29.832 283.073 29.832C 285.124 29.832 286.149 29.2266 286.149 28.0156C 286.149 27.6738 286.061 27.3857 285.885 27.1514C 285.71 26.9072 285.47 26.6924 285.168 26.5068C 284.875 26.3213 284.523 26.1553 284.113 26.0088C 283.713 25.8623 283.263 25.6963 282.765 25.5107C 282.15 25.2666 281.593 25.0078 281.095 24.7344C 280.607 24.4609 280.197 24.1533 279.865 23.8115C 279.543 23.46 279.298 23.0645 279.132 22.625C 278.966 22.1855 278.883 21.6729 278.883 21.0869C 278.883 20.3643 279.054 19.7295 279.396 19.1826C 279.738 18.626 280.197 18.1621 280.773 17.791C 281.349 17.4102 282.004 17.127 282.736 16.9414C 283.468 16.7461 284.225 16.6484 285.007 16.6484C 286.393 16.6484 287.633 16.8584 288.727 17.2783L 288.727 20.252C 287.673 19.5293 286.462 19.168 285.094 19.168C 284.665 19.168 284.274 19.2119 283.923 19.2998C 283.581 19.3877 283.288 19.5098 283.044 19.666C 282.799 19.8223 282.609 20.0127 282.472 20.2373C 282.336 20.4521 282.267 20.6914 282.267 20.9551C 282.267 21.2773 282.336 21.5508 282.472 21.7754C 282.609 22 282.809 22.2002 283.073 22.376C 283.346 22.542 283.669 22.6982 284.04 22.8447C 284.421 22.9814 284.855 23.1328 285.343 23.2988C 285.988 23.5625 286.564 23.8311 287.072 24.1045C 287.59 24.3779 288.029 24.6904 288.39 25.042C 288.752 25.3838 289.03 25.7842 289.225 26.2432C 289.421 26.6924 289.518 27.2295 289.518 27.8545C 289.518 28.6162 289.342 29.2803 288.991 29.8467C 288.639 30.4131 288.171 30.8818 287.585 31.2529C 286.999 31.624 286.32 31.8975 285.548 32.0732C 284.787 32.2588 283.981 32.3516 283.132 32.3516C 281.491 32.3516 280.07 32.0781 278.869 31.5312ZM 305.456 25.4229L 295.231 25.4229C 295.27 26.8096 295.695 27.8789 296.506 28.6309C 297.326 29.3828 298.449 29.7588 299.875 29.7588C 301.476 29.7588 302.946 29.2803 304.284 28.3232L 304.284 31.0625C 302.917 31.9219 301.11 32.3516 298.864 32.3516C 296.657 32.3516 294.923 31.6729 293.664 30.3154C 292.414 28.9482 291.789 27.0293 291.789 24.5586C 291.789 22.2246 292.477 20.3252 293.854 18.8604C 295.241 17.3857 296.96 16.6484 299.01 16.6484C 301.061 16.6484 302.648 17.3076 303.771 18.626C 304.894 19.9443 305.456 21.7754 305.456 24.1191L 305.456 25.4229ZM 302.174 23.0205C 302.165 21.7998 301.877 20.8525 301.31 20.1787C 300.744 19.4951 299.963 19.1533 298.966 19.1533C 297.99 19.1533 297.16 19.5098 296.476 20.2227C 295.802 20.9355 295.387 21.8682 295.231 23.0205L 302.174 23.0205ZM 322.331 32L 318.932 32L 318.932 29.4512L 318.874 29.4512C 317.78 31.3848 316.095 32.3516 313.82 32.3516C 311.974 32.3516 310.495 31.6826 309.382 30.3447C 308.278 28.9971 307.726 27.166 307.726 24.8516C 307.726 22.3711 308.337 20.3838 309.557 18.8896C 310.788 17.3955 312.423 16.6484 314.465 16.6484C 316.486 16.6484 317.956 17.459 318.874 19.0801L 318.932 19.0801L 318.932 9.79297L 322.331 9.79297L 322.331 32ZM 318.976 25.1445L 318.976 23.1816C 318.976 22.1172 318.63 21.2139 317.936 20.4717C 317.243 19.7295 316.359 19.3584 315.285 19.3584C 314.015 19.3584 313.014 19.832 312.282 20.7793C 311.559 21.7266 311.198 23.04 311.198 24.7197C 311.198 26.2432 311.545 27.4492 312.238 28.3379C 312.941 29.2168 313.883 29.6562 315.065 29.6562C 316.227 29.6562 317.17 29.2314 317.892 28.3818C 318.615 27.5225 318.976 26.4434 318.976 25.1445Z" transform="translate(328.334 68.3535)" fill="#37E8FD"/>
<path d="M 64.7607 32L 60.9521 32L 50.918 16.5605C 50.6641 16.1699 50.4541 15.7646 50.2881 15.3447L 50.2002 15.3447C 50.2783 15.7939 50.3174 16.7559 50.3174 18.2305L 50.3174 32L 46.9482 32L 46.9482 10.9941L 51.0059 10.9941L 60.7031 26.0674C 61.1133 26.6924 61.377 27.1221 61.4941 27.3564L 61.5527 27.3564C 61.4551 26.7998 61.4062 25.8574 61.4062 24.5293L 61.4062 10.9941L 64.7607 10.9941L 64.7607 32ZM 81.1084 32L 77.8125 32L 77.8125 29.6562L 77.7539 29.6562C 76.7188 31.4531 75.2002 32.3516 73.1982 32.3516C 71.7236 32.3516 70.5664 31.9512 69.7266 31.1504C 68.8965 30.3496 68.4814 29.29 68.4814 27.9717C 68.4814 25.1396 70.1123 23.4893 73.374 23.0205L 77.8271 22.3906C 77.8271 20.252 76.8115 19.1826 74.7803 19.1826C 72.9932 19.1826 71.3818 19.7979 69.9463 21.0283L 69.9463 18.0547C 71.5283 17.1172 73.3545 16.6484 75.4248 16.6484C 79.2139 16.6484 81.1084 18.5137 81.1084 22.2441L 81.1084 32ZM 77.8271 24.6318L 74.6777 25.0713C 73.7012 25.1982 72.9639 25.4375 72.4658 25.7891C 71.9775 26.1309 71.7334 26.7363 71.7334 27.6055C 71.7334 28.2402 71.958 28.7627 72.4072 29.1729C 72.8662 29.5732 73.4766 29.7734 74.2383 29.7734C 75.2734 29.7734 76.1279 29.4121 76.8018 28.6895C 77.4854 27.957 77.8271 27.0391 77.8271 25.9355L 77.8271 24.6318ZM 98.1885 17L 92.3877 32L 88.7109 32L 83.1885 17L 86.8799 17L 90.2051 27.4883C 90.459 28.2598 90.6152 28.9336 90.6738 29.5098L 90.7178 29.5098C 90.8057 28.7871 90.9424 28.1328 91.1279 27.5469L 94.6143 17L 98.1885 17ZM 112.222 29.7881L 112.163 29.7881L 112.163 38.8994L 108.765 38.8994L 108.765 17L 112.163 17L 112.163 19.6367L 112.222 19.6367C 113.384 17.6445 115.083 16.6484 117.319 16.6484C 119.224 16.6484 120.708 17.3174 121.772 18.6553C 122.837 19.9932 123.369 21.79 123.369 24.0459C 123.369 26.5459 122.769 28.5479 121.567 30.0518C 120.366 31.5557 118.726 32.3076 116.646 32.3076C 114.731 32.3076 113.257 31.4678 112.222 29.7881ZM 112.134 23.8701L 112.134 25.7305C 112.134 26.8242 112.48 27.752 113.174 28.5137C 113.877 29.2754 114.766 29.6562 115.84 29.6562C 117.1 29.6562 118.086 29.168 118.799 28.1914C 119.521 27.2051 119.883 25.833 119.883 24.0752C 119.883 22.6006 119.546 21.4482 118.872 20.6182C 118.208 19.7783 117.305 19.3584 116.162 19.3584C 114.951 19.3584 113.975 19.7881 113.232 20.6475C 112.5 21.5068 112.134 22.5811 112.134 23.8701ZM 138.003 32L 134.707 32L 134.707 29.6562L 134.648 29.6562C 133.613 31.4531 132.095 32.3516 130.093 32.3516C 128.618 32.3516 127.461 31.9512 126.621 31.1504C 125.791 30.3496 125.376 29.29 125.376 27.9717C 125.376 25.1396 127.007 23.4893 130.269 23.0205L 134.722 22.3906C 134.722 20.252 133.706 19.1826 131.675 19.1826C 129.888 19.1826 128.276 19.7979 126.841 21.0283L 126.841 18.0547C 128.423 17.1172 130.249 16.6484 132.319 16.6484C 136.108 16.6484 138.003 18.5137 138.003 22.2441L 138.003 32ZM 134.722 24.6318L 131.572 25.0713C 130.596 25.1982 129.858 25.4375 129.36 25.7891C 128.872 26.1309 128.628 26.7363 128.628 27.6055C 128.628 28.2402 128.853 28.7627 129.302 29.1729C 129.761 29.5732 130.371 29.7734 131.133 29.7734C 132.168 29.7734 133.022 29.4121 133.696 28.6895C 134.38 27.957 134.722 27.0391 134.722 25.9355L 134.722 24.6318ZM 155.522 32L 152.124 32L 152.124 23.5479C 152.124 20.7451 151.133 19.3438 149.15 19.3438C 148.115 19.3438 147.261 19.7344 146.587 20.5156C 145.913 21.2871 145.576 22.2637 145.576 23.4453L 145.576 32L 142.163 32L 142.163 17L 145.576 17L 145.576 19.4902L 145.635 19.4902C 146.758 17.5957 148.379 16.6484 150.498 16.6484C 152.129 16.6484 153.374 17.1807 154.233 18.2451C 155.093 19.2998 155.522 20.8281 155.522 22.8301L 155.522 32ZM 172.383 25.4229L 162.158 25.4229C 162.197 26.8096 162.622 27.8789 163.433 28.6309C 164.253 29.3828 165.376 29.7588 166.802 29.7588C 168.403 29.7588 169.873 29.2803 171.211 28.3232L 171.211 31.0625C 169.844 31.9219 168.037 32.3516 165.791 32.3516C 163.584 32.3516 161.851 31.6729 160.591 30.3154C 159.341 28.9482 158.716 27.0293 158.716 24.5586C 158.716 22.2246 159.404 20.3252 160.781 18.8604C 162.168 17.3857 163.887 16.6484 165.938 16.6484C 167.988 16.6484 169.575 17.3076 170.698 18.626C 171.821 19.9443 172.383 21.7754 172.383 24.1191L 172.383 25.4229ZM 169.102 23.0205C 169.092 21.7998 168.804 20.8525 168.237 20.1787C 167.671 19.4951 166.89 19.1533 165.894 19.1533C 164.917 19.1533 164.087 19.5098 163.403 20.2227C 162.729 20.9355 162.314 21.8682 162.158 23.0205L 169.102 23.0205ZM 196.582 25.4229L 186.357 25.4229C 186.396 26.8096 186.821 27.8789 187.632 28.6309C 188.452 29.3828 189.575 29.7588 191.001 29.7588C 192.603 29.7588 194.072 29.2803 195.41 28.3232L 195.41 31.0625C 194.043 31.9219 192.236 32.3516 189.99 32.3516C 187.783 32.3516 186.05 31.6729 184.79 30.3154C 183.54 28.9482 182.915 27.0293 182.915 24.5586C 182.915 22.2246 183.604 20.3252 184.98 18.8604C 186.367 17.3857 188.086 16.6484 190.137 16.6484C 192.188 16.6484 193.774 17.3076 194.897 18.626C 196.021 19.9443 196.582 21.7754 196.582 24.1191L 196.582 25.4229ZM 193.301 23.0205C 193.291 21.7998 193.003 20.8525 192.437 20.1787C 191.87 19.4951 191.089 19.1533 190.093 19.1533C 189.116 19.1533 188.286 19.5098 187.603 20.2227C 186.929 20.9355 186.514 21.8682 186.357 23.0205L 193.301 23.0205ZM 212.358 17L 207.363 24.5879L 212.3 32L 208.359 32L 205.723 27.3564C 205.557 27.0732 205.361 26.7119 205.137 26.2725L 205.078 26.2725C 205.039 26.3604 204.834 26.7217 204.463 27.3564L 201.782 32L 197.856 32L 202.954 24.6465L 198.12 17L 202.075 17L 204.668 21.8779C 204.863 22.2393 205.054 22.6104 205.239 22.9912L 205.283 22.9912L 208.638 17L 212.358 17ZM 218.306 29.7881L 218.247 29.7881L 218.247 38.8994L 214.849 38.8994L 214.849 17L 218.247 17L 218.247 19.6367L 218.306 19.6367C 219.468 17.6445 221.167 16.6484 223.403 16.6484C 225.308 16.6484 226.792 17.3174 227.856 18.6553C 228.921 19.9932 229.453 21.79 229.453 24.0459C 229.453 26.5459 228.853 28.5479 227.651 30.0518C 226.45 31.5557 224.81 32.3076 222.729 32.3076C 220.815 32.3076 219.341 31.4678 218.306 29.7881ZM 218.218 23.8701L 218.218 25.7305C 218.218 26.8242 218.564 27.752 219.258 28.5137C 219.961 29.2754 220.85 29.6562 221.924 29.6562C 223.184 29.6562 224.17 29.168 224.883 28.1914C 225.605 27.2051 225.967 25.833 225.967 24.0752C 225.967 22.6006 225.63 21.4482 224.956 20.6182C 224.292 19.7783 223.389 19.3584 222.246 19.3584C 221.035 19.3584 220.059 19.7881 219.316 20.6475C 218.584 21.5068 218.218 22.5811 218.218 23.8701ZM 244.087 32L 240.791 32L 240.791 29.6562L 240.732 29.6562C 239.697 31.4531 238.179 32.3516 236.177 32.3516C 234.702 32.3516 233.545 31.9512 232.705 31.1504C 231.875 30.3496 231.46 29.29 231.46 27.9717C 231.46 25.1396 233.091 23.4893 236.353 23.0205L 240.806 22.3906C 240.806 20.252 239.79 19.1826 237.759 19.1826C 235.972 19.1826 234.36 19.7979 232.925 21.0283L 232.925 18.0547C 234.507 17.1172 236.333 16.6484 238.403 16.6484C 242.192 16.6484 244.087 18.5137 244.087 22.2441L 244.087 32ZM 240.806 24.6318L 237.656 25.0713C 236.68 25.1982 235.942 25.4375 235.444 25.7891C 234.956 26.1309 234.712 26.7363 234.712 27.6055C 234.712 28.2402 234.937 28.7627 235.386 29.1729C 235.845 29.5732 236.455 29.7734 237.217 29.7734C 238.252 29.7734 239.106 29.4121 239.78 28.6895C 240.464 27.957 240.806 27.0391 240.806 25.9355L 240.806 24.6318ZM 261.606 32L 258.208 32L 258.208 23.5479C 258.208 20.7451 257.217 19.3438 255.234 19.3438C 254.199 19.3438 253.345 19.7344 252.671 20.5156C 251.997 21.2871 251.66 22.2637 251.66 23.4453L 251.66 32L 248.247 32L 248.247 17L 251.66 17L 251.66 19.4902L 251.719 19.4902C 252.842 17.5957 254.463 16.6484 256.582 16.6484C 258.213 16.6484 259.458 17.1807 260.317 18.2451C 261.177 19.2998 261.606 20.8281 261.606 22.8301L 261.606 32ZM 279.404 32L 276.006 32L 276.006 29.4512L 275.947 29.4512C 274.854 31.3848 273.169 32.3516 270.894 32.3516C 269.048 32.3516 267.568 31.6826 266.455 30.3447C 265.352 28.9971 264.8 27.166 264.8 24.8516C 264.8 22.3711 265.41 20.3838 266.631 18.8896C 267.861 17.3955 269.497 16.6484 271.538 16.6484C 273.56 16.6484 275.029 17.459 275.947 19.0801L 276.006 19.0801L 276.006 9.79297L 279.404 9.79297L 279.404 32ZM 276.05 25.1445L 276.05 23.1816C 276.05 22.1172 275.703 21.2139 275.01 20.4717C 274.316 19.7295 273.433 19.3584 272.358 19.3584C 271.089 19.3584 270.088 19.832 269.355 20.7793C 268.633 21.7266 268.271 23.04 268.271 24.7197C 268.271 26.2432 268.618 27.4492 269.312 28.3379C 270.015 29.2168 270.957 29.6562 272.139 29.6562C 273.301 29.6562 274.243 29.2314 274.966 28.3818C 275.688 27.5225 276.05 26.4434 276.05 25.1445ZM 296.543 25.4229L 286.318 25.4229C 286.357 26.8096 286.782 27.8789 287.593 28.6309C 288.413 29.3828 289.536 29.7588 290.962 29.7588C 292.563 29.7588 294.033 29.2803 295.371 28.3232L 295.371 31.0625C 294.004 31.9219 292.197 32.3516 289.951 32.3516C 287.744 32.3516 286.011 31.6729 284.751 30.3154C 283.501 28.9482 282.876 27.0293 282.876 24.5586C 282.876 22.2246 283.564 20.3252 284.941 18.8604C 286.328 17.3857 288.047 16.6484 290.098 16.6484C 292.148 16.6484 293.735 17.3076 294.858 18.626C 295.981 19.9443 296.543 21.7754 296.543 24.1191L 296.543 25.4229ZM 293.262 23.0205C 293.252 21.7998 292.964 20.8525 292.397 20.1787C 291.831 19.4951 291.05 19.1533 290.054 19.1533C 289.077 19.1533 288.247 19.5098 287.563 20.2227C 286.89 20.9355 286.475 21.8682 286.318 23.0205L 293.262 23.0205ZM 313.418 32L 310.02 32L 310.02 29.4512L 309.961 29.4512C 308.867 31.3848 307.183 32.3516 304.907 32.3516C 303.062 32.3516 301.582 31.6826 300.469 30.3447C 299.365 28.9971 298.813 27.166 298.813 24.8516C 298.813 22.3711 299.424 20.3838 300.645 18.8896C 301.875 17.3955 303.511 16.6484 305.552 16.6484C 307.573 16.6484 309.043 17.459 309.961 19.0801L 310.02 19.0801L 310.02 9.79297L 313.418 9.79297L 313.418 32ZM 310.063 25.1445L 310.063 23.1816C 310.063 22.1172 309.717 21.2139 309.023 20.4717C 308.33 19.7295 307.446 19.3584 306.372 19.3584C 305.103 19.3584 304.102 19.832 303.369 20.7793C 302.646 21.7266 302.285 23.04 302.285 24.7197C 302.285 26.2432 302.632 27.4492 303.325 28.3379C 304.028 29.2168 304.971 29.6562 306.152 29.6562C 307.314 29.6562 308.257 29.2314 308.979 28.3818C 309.702 27.5225 310.063 26.4434 310.063 25.1445Z" transform="translate(1221.67 68.3535)" fill="#37E8FD"/>
<g opacity="0.75">
<path fill-rule="evenodd" clip-rule="evenodd" d="M 20 3.3343L 0 3.3343L 0 0L 20 0L 20 3.3343Z" transform="translate(1670 185.055)" fill="black"/>
<rect x="1.5" y="1.5" width="17" height="17.0058" stroke-width="3" transform="translate(1723.33 176.719)" stroke="black"/>
<path fill-rule="evenodd" clip-rule="evenodd" d="M 12.9629 10.6094L 21.2129 2.35742L 18.8555 0L 10.6055 8.25195L 2.35547 0L 0 2.35742L 8.25 10.6094L 0 18.8613L 2.35742 21.2188L 10.6074 12.9668L 18.8555 21.2188L 21.2129 18.8613L 12.9629 10.6094Z" transform="translate(1776.06 176.113)" fill="black"/>
</g>
<g opacity="0.75">
<path fill-rule="evenodd" clip-rule="evenodd" d="M 20 3.3343L 0 3.3343L 0 0L 20 0L 20 3.3343Z" transform="translate(776.666 185.055)" fill="black"/>
<rect x="1.5" y="1.5" width="17" height="17.0058" stroke-width="3" transform="translate(830 176.719)" stroke="black"/>
<path fill-rule="evenodd" clip-rule="evenodd" d="M 12.9629 10.6094L 21.2129 2.35742L 18.8555 0L 10.6055 8.25195L 2.35547 0L 0 2.35742L 8.25 10.6094L 0 18.8613L 2.35742 21.2188L 10.6055 12.9668L 18.8555 21.2188L 21.2129 18.8613L 12.9629 10.6094Z" transform="translate(882.727 176.113)" fill="black"/>
</g>
<g opacity="0.75">
<path fill-rule="evenodd" clip-rule="evenodd" d="M 26.6667 2.3343C 26.6667 2.88659 26.219 3.3343 25.6667 3.3343L 1 3.3343C 0.447715 3.3343 0 2.88659 0 2.3343L 0 1C 0 0.447715 0.447715 0 1 0L 25.6667 0C 26.219 0 26.6667 0.447715 26.6667 1L 26.6667 2.3343Z" transform="translate(133.334 245.07)" fill="black"/>
<path fill-rule="evenodd" clip-rule="evenodd" d="M 26.6667 2.3343C 26.6667 2.88659 26.219 3.3343 25.6667 3.3343L 1 3.3343C 0.447715 3.3343 0 2.88659 0 2.3343L 0 1C 0 0.447715 0.447715 0 1 0L 25.6667 0C 26.219 0 26.6667 0.447715 26.6667 1L 26.6667 2.3343Z" transform="translate(133.334 251.738)" fill="black"/>
<path fill-rule="evenodd" clip-rule="evenodd" d="M 26.6667 2.3343C 26.6667 2.88659 26.219 3.3343 25.6667 3.3343L 1 3.3343C 0.447715 3.3343 0 2.88659 0 2.3343L 0 1C 0 0.447715 0.447715 0 1 0L 25.6667 0C 26.219 0 26.6667 0.447715 26.6667 1L 26.6667 2.3343Z" transform="translate(133.334 258.408)" fill="black"/>
</g>
</g>
</g>
<defs>

<clipPath id="clip0">
<rect width="1920" height="1147" fill="white"/>
</clipPath>

</defs>
</svg>

