<svg width="1920" height="960" viewBox="0 0 1920 960" version="1.1" xmlns="http://www.w3.org/2000/svg" xmlns:xlink="http://www.w3.org/1999/xlink">
<g id="Canvas" fill="none">
<g id="xaml-layout-textbox-no-margins-padding">
<rect width="1920" height="960" fill="#F2F2F2"/>
<g id="Group">
<g id="pattern-form" clip-path="url(#clip0)">
<rect width="671" height="135" fill="#007AD0" transform="translate(625 345)"/>
<g id="Rectangle">
<rect width="644.16" height="106.312" transform="translate(638.42 360.188)" fill="white"/>
<rect x="2" y="2" width="640.16" height="102.312" stroke-width="4" transform="translate(638.42 360.188)" stroke="#243A5E"/>
</g>
<g id="This is text in a TextBox.">
<path d="M 25.7109 16.125L 16.0547 16.125L 16.0547 45L 10.4766 45L 10.4766 16.125L 0.84375 16.125L 0.84375 11.3906L 25.7109 11.3906L 25.7109 16.125ZM 51.3516 45L 45.9141 45L 45.9141 31.875C 45.9141 27.125 44.3281 24.75 41.1562 24.75C 39.5625 24.75 38.2188 25.4375 37.125 26.8125C 36.0312 28.1875 35.4844 29.9453 35.4844 32.0859L 35.4844 45L 30.0234 45L 30.0234 9.46875L 35.4844 9.46875L 35.4844 24.9844L 35.5781 24.9844C 37.3906 21.9531 39.9844 20.4375 43.3594 20.4375C 48.6875 20.4375 51.3516 23.6953 51.3516 30.2109L 51.3516 45ZM 60.7031 15.9609C 59.8125 15.9609 59.0469 15.6719 58.4062 15.0938C 57.7812 14.5156 57.4688 13.7812 57.4688 12.8906C 57.4688 12 57.7812 11.2578 58.4062 10.6641C 59.0469 10.0703 59.8125 9.77344 60.7031 9.77344C 61.625 9.77344 62.4062 10.0703 63.0469 10.6641C 63.6875 11.2578 64.0078 12 64.0078 12.8906C 64.0078 13.7344 63.6875 14.4609 63.0469 15.0703C 62.4062 15.6641 61.625 15.9609 60.7031 15.9609ZM 63.3984 45L 57.9609 45L 57.9609 21L 63.3984 21L 63.3984 45ZM 69.0234 44.25L 69.0234 39.2109C 71.0547 40.7578 73.2969 41.5312 75.75 41.5312C 79.0312 41.5312 80.6719 40.5625 80.6719 38.625C 80.6719 38.0781 80.5312 37.6172 80.25 37.2422C 79.9688 36.8516 79.5859 36.5078 79.1016 36.2109C 78.6328 35.9141 78.0703 35.6484 77.4141 35.4141C 76.7734 35.1797 76.0547 34.9141 75.2578 34.6172C 74.2734 34.2266 73.3828 33.8125 72.5859 33.375C 71.8047 32.9375 71.1484 32.4453 70.6172 31.8984C 70.1016 31.3359 69.7109 30.7031 69.4453 30C 69.1797 29.2969 69.0469 28.4766 69.0469 27.5391C 69.0469 26.3828 69.3203 25.3672 69.8672 24.4922C 70.4141 23.6016 71.1484 22.8594 72.0703 22.2656C 72.9922 21.6562 74.0391 21.2031 75.2109 20.9062C 76.3828 20.5938 77.5938 20.4375 78.8438 20.4375C 81.0625 20.4375 83.0469 20.7734 84.7969 21.4453L 84.7969 26.2031C 83.1094 25.0469 81.1719 24.4688 78.9844 24.4688C 78.2969 24.4688 77.6719 24.5391 77.1094 24.6797C 76.5625 24.8203 76.0938 25.0156 75.7031 25.2656C 75.3125 25.5156 75.0078 25.8203 74.7891 26.1797C 74.5703 26.5234 74.4609 26.9062 74.4609 27.3281C 74.4609 27.8438 74.5703 28.2812 74.7891 28.6406C 75.0078 29 75.3281 29.3203 75.75 29.6016C 76.1875 29.8672 76.7031 30.1172 77.2969 30.3516C 77.9062 30.5703 78.6016 30.8125 79.3828 31.0781C 80.4141 31.5 81.3359 31.9297 82.1484 32.3672C 82.9766 32.8047 83.6797 33.3047 84.2578 33.8672C 84.8359 34.4141 85.2812 35.0547 85.5938 35.7891C 85.9062 36.5078 86.0625 37.3672 86.0625 38.3672C 86.0625 39.5859 85.7812 40.6484 85.2188 41.5547C 84.6562 42.4609 83.9062 43.2109 82.9688 43.8047C 82.0312 44.3984 80.9453 44.8359 79.7109 45.1172C 78.4922 45.4141 77.2031 45.5625 75.8438 45.5625C 73.2188 45.5625 70.9453 45.125 69.0234 44.25ZM 107.203 15.9609C 106.312 15.9609 105.547 15.6719 104.906 15.0938C 104.281 14.5156 103.969 13.7812 103.969 12.8906C 103.969 12 104.281 11.2578 104.906 10.6641C 105.547 10.0703 106.312 9.77344 107.203 9.77344C 108.125 9.77344 108.906 10.0703 109.547 10.6641C 110.188 11.2578 110.508 12 110.508 12.8906C 110.508 13.7344 110.188 14.4609 109.547 15.0703C 108.906 15.6641 108.125 15.9609 107.203 15.9609ZM 109.898 45L 104.461 45L 104.461 21L 109.898 21L 109.898 45ZM 115.523 44.25L 115.523 39.2109C 117.555 40.7578 119.797 41.5312 122.25 41.5312C 125.531 41.5312 127.172 40.5625 127.172 38.625C 127.172 38.0781 127.031 37.6172 126.75 37.2422C 126.469 36.8516 126.086 36.5078 125.602 36.2109C 125.133 35.9141 124.57 35.6484 123.914 35.4141C 123.273 35.1797 122.555 34.9141 121.758 34.6172C 120.773 34.2266 119.883 33.8125 119.086 33.375C 118.305 32.9375 117.648 32.4453 117.117 31.8984C 116.602 31.3359 116.211 30.7031 115.945 30C 115.68 29.2969 115.547 28.4766 115.547 27.5391C 115.547 26.3828 115.82 25.3672 116.367 24.4922C 116.914 23.6016 117.648 22.8594 118.57 22.2656C 119.492 21.6562 120.539 21.2031 121.711 20.9062C 122.883 20.5938 124.094 20.4375 125.344 20.4375C 127.562 20.4375 129.547 20.7734 131.297 21.4453L 131.297 26.2031C 129.609 25.0469 127.672 24.4688 125.484 24.4688C 124.797 24.4688 124.172 24.5391 123.609 24.6797C 123.062 24.8203 122.594 25.0156 122.203 25.2656C 121.812 25.5156 121.508 25.8203 121.289 26.1797C 121.07 26.5234 120.961 26.9062 120.961 27.3281C 120.961 27.8438 121.07 28.2812 121.289 28.6406C 121.508 29 121.828 29.3203 122.25 29.6016C 122.688 29.8672 123.203 30.1172 123.797 30.3516C 124.406 30.5703 125.102 30.8125 125.883 31.0781C 126.914 31.5 127.836 31.9297 128.648 32.3672C 129.477 32.8047 130.18 33.3047 130.758 33.8672C 131.336 34.4141 131.781 35.0547 132.094 35.7891C 132.406 36.5078 132.562 37.3672 132.562 38.3672C 132.562 39.5859 132.281 40.6484 131.719 41.5547C 131.156 42.4609 130.406 43.2109 129.469 43.8047C 128.531 44.3984 127.445 44.8359 126.211 45.1172C 124.992 45.4141 123.703 45.5625 122.344 45.5625C 119.719 45.5625 117.445 45.125 115.523 44.25ZM 163.617 44.7422C 162.555 45.2734 161.156 45.5391 159.422 45.5391C 154.766 45.5391 152.438 43.3047 152.438 38.8359L 152.438 25.2656L 148.43 25.2656L 148.43 21L 152.438 21L 152.438 15.4453L 157.875 13.8984L 157.875 21L 163.617 21L 163.617 25.2656L 157.875 25.2656L 157.875 37.2656C 157.875 38.6875 158.133 39.7031 158.648 40.3125C 159.164 40.9219 160.023 41.2266 161.227 41.2266C 162.148 41.2266 162.945 40.9609 163.617 40.4297L 163.617 44.7422ZM 188.344 34.4766L 171.984 34.4766C 172.047 36.6953 172.727 38.4062 174.023 39.6094C 175.336 40.8125 177.133 41.4141 179.414 41.4141C 181.977 41.4141 184.328 40.6484 186.469 39.1172L 186.469 43.5C 184.281 44.875 181.391 45.5625 177.797 45.5625C 174.266 45.5625 171.492 44.4766 169.477 42.3047C 167.477 40.1172 166.477 37.0469 166.477 33.0938C 166.477 29.3594 167.578 26.3203 169.781 23.9766C 172 21.6172 174.75 20.4375 178.031 20.4375C 181.312 20.4375 183.852 21.4922 185.648 23.6016C 187.445 25.7109 188.344 28.6406 188.344 32.3906L 188.344 34.4766ZM 183.094 30.6328C 183.078 28.6797 182.617 27.1641 181.711 26.0859C 180.805 24.9922 179.555 24.4453 177.961 24.4453C 176.398 24.4453 175.07 25.0156 173.977 26.1562C 172.898 27.2969 172.234 28.7891 171.984 30.6328L 183.094 30.6328ZM 213.586 21L 205.594 33.1406L 213.492 45L 207.188 45L 202.969 37.5703C 202.703 37.1172 202.391 36.5391 202.031 35.8359L 201.938 35.8359C 201.875 35.9766 201.547 36.5547 200.953 37.5703L 196.664 45L 190.383 45L 198.539 33.2344L 190.805 21L 197.133 21L 201.281 28.8047C 201.594 29.3828 201.898 29.9766 202.195 30.5859L 202.266 30.5859L 207.633 21L 213.586 21ZM 230.227 44.7422C 229.164 45.2734 227.766 45.5391 226.031 45.5391C 221.375 45.5391 219.047 43.3047 219.047 38.8359L 219.047 25.2656L 215.039 25.2656L 215.039 21L 219.047 21L 219.047 15.4453L 224.484 13.8984L 224.484 21L 230.227 21L 230.227 25.2656L 224.484 25.2656L 224.484 37.2656C 224.484 38.6875 224.742 39.7031 225.258 40.3125C 225.773 40.9219 226.633 41.2266 227.836 41.2266C 228.758 41.2266 229.555 40.9609 230.227 40.4297L 230.227 44.7422ZM 250.875 15.9609C 249.984 15.9609 249.219 15.6719 248.578 15.0938C 247.953 14.5156 247.641 13.7812 247.641 12.8906C 247.641 12 247.953 11.2578 248.578 10.6641C 249.219 10.0703 249.984 9.77344 250.875 9.77344C 251.797 9.77344 252.578 10.0703 253.219 10.6641C 253.859 11.2578 254.18 12 254.18 12.8906C 254.18 13.7344 253.859 14.4609 253.219 15.0703C 252.578 15.6641 251.797 15.9609 250.875 15.9609ZM 253.57 45L 248.133 45L 248.133 21L 253.57 21L 253.57 45ZM 282.07 45L 276.633 45L 276.633 31.4766C 276.633 26.9922 275.047 24.75 271.875 24.75C 270.219 24.75 268.852 25.375 267.773 26.625C 266.695 27.8594 266.156 29.4219 266.156 31.3125L 266.156 45L 260.695 45L 260.695 21L 266.156 21L 266.156 24.9844L 266.25 24.9844C 268.047 21.9531 270.641 20.4375 274.031 20.4375C 276.641 20.4375 278.633 21.2891 280.008 22.9922C 281.383 24.6797 282.07 27.125 282.07 30.3281L 282.07 45ZM 320.367 45L 315.094 45L 315.094 41.25L 315 41.25C 313.344 44.125 310.914 45.5625 307.711 45.5625C 305.352 45.5625 303.5 44.9219 302.156 43.6406C 300.828 42.3594 300.164 40.6641 300.164 38.5547C 300.164 34.0234 302.773 31.3828 307.992 30.6328L 315.117 29.625C 315.117 26.2031 313.492 24.4922 310.242 24.4922C 307.383 24.4922 304.805 25.4766 302.508 27.4453L 302.508 22.6875C 305.039 21.1875 307.961 20.4375 311.273 20.4375C 317.336 20.4375 320.367 23.4219 320.367 29.3906L 320.367 45ZM 315.117 33.2109L 310.078 33.9141C 308.516 34.1172 307.336 34.5 306.539 35.0625C 305.758 35.6094 305.367 36.5781 305.367 37.9688C 305.367 38.9844 305.727 39.8203 306.445 40.4766C 307.18 41.1172 308.156 41.4375 309.375 41.4375C 311.031 41.4375 312.398 40.8594 313.477 39.7031C 314.57 38.5312 315.117 37.0625 315.117 35.2969L 315.117 33.2109ZM 362.414 16.125L 352.758 16.125L 352.758 45L 347.18 45L 347.18 16.125L 337.547 16.125L 337.547 11.3906L 362.414 11.3906L 362.414 16.125ZM 382.359 34.4766L 366 34.4766C 366.062 36.6953 366.742 38.4062 368.039 39.6094C 369.352 40.8125 371.148 41.4141 373.43 41.4141C 375.992 41.4141 378.344 40.6484 380.484 39.1172L 380.484 43.5C 378.297 44.875 375.406 45.5625 371.812 45.5625C 368.281 45.5625 365.508 44.4766 363.492 42.3047C 361.492 40.1172 360.492 37.0469 360.492 33.0938C 360.492 29.3594 361.594 26.3203 363.797 23.9766C 366.016 21.6172 368.766 20.4375 372.047 20.4375C 375.328 20.4375 377.867 21.4922 379.664 23.6016C 381.461 25.7109 382.359 28.6406 382.359 32.3906L 382.359 34.4766ZM 377.109 30.6328C 377.094 28.6797 376.633 27.1641 375.727 26.0859C 374.82 24.9922 373.57 24.4453 371.977 24.4453C 370.414 24.4453 369.086 25.0156 367.992 26.1562C 366.914 27.2969 366.25 28.7891 366 30.6328L 377.109 30.6328ZM 407.602 21L 399.609 33.1406L 407.508 45L 401.203 45L 396.984 37.5703C 396.719 37.1172 396.406 36.5391 396.047 35.8359L 395.953 35.8359C 395.891 35.9766 395.562 36.5547 394.969 37.5703L 390.68 45L 384.398 45L 392.555 33.2344L 384.82 21L 391.148 21L 395.297 28.8047C 395.609 29.3828 395.914 29.9766 396.211 30.5859L 396.281 30.5859L 401.648 21L 407.602 21ZM 424.242 44.7422C 423.18 45.2734 421.781 45.5391 420.047 45.5391C 415.391 45.5391 413.062 43.3047 413.062 38.8359L 413.062 25.2656L 409.055 25.2656L 409.055 21L 413.062 21L 413.062 15.4453L 418.5 13.8984L 418.5 21L 424.242 21L 424.242 25.2656L 418.5 25.2656L 418.5 37.2656C 418.5 38.6875 418.758 39.7031 419.273 40.3125C 419.789 40.9219 420.648 41.2266 421.852 41.2266C 422.773 41.2266 423.57 40.9609 424.242 40.4297L 424.242 44.7422ZM 429.539 45L 429.539 11.3906L 440.203 11.3906C 443.453 11.3906 446.023 12.1016 447.914 13.5234C 449.82 14.9453 450.773 16.7969 450.773 19.0781C 450.773 20.9844 450.234 22.6406 449.156 24.0469C 448.078 25.4531 446.586 26.4531 444.68 27.0469L 444.68 27.1406C 446.992 27.4062 448.836 28.2656 450.211 29.7188C 451.602 31.1562 452.297 33.0312 452.297 35.3438C 452.297 38.2188 451.164 40.5469 448.898 42.3281C 446.633 44.1094 443.773 45 440.32 45L 429.539 45ZM 435.094 15.8672L 435.094 25.4297L 438.703 25.4297C 440.641 25.4297 442.156 24.9766 443.25 24.0703C 444.359 23.1484 444.914 21.8516 444.914 20.1797C 444.914 17.3047 442.992 15.8672 439.148 15.8672L 435.094 15.8672ZM 435.094 29.9062L 435.094 40.5469L 439.852 40.5469C 441.93 40.5469 443.531 40.0703 444.656 39.1172C 445.797 38.1484 446.367 36.8203 446.367 35.1328C 446.367 31.6484 443.953 29.9062 439.125 29.9062L 435.094 29.9062ZM 468.586 45.5625C 464.883 45.5625 461.922 44.4453 459.703 42.2109C 457.5 39.9609 456.398 36.9844 456.398 33.2812C 456.398 29.25 457.547 26.1016 459.844 23.8359C 462.156 21.5703 465.266 20.4375 469.172 20.4375C 472.922 20.4375 475.844 21.5391 477.938 23.7422C 480.031 25.9453 481.078 29 481.078 32.9062C 481.078 36.7344 479.945 39.8047 477.68 42.1172C 475.43 44.4141 472.398 45.5625 468.586 45.5625ZM 468.844 24.7734C 466.719 24.7734 465.039 25.5156 463.805 27C 462.57 28.4844 461.953 30.5312 461.953 33.1406C 461.953 35.6562 462.578 37.6406 463.828 39.0938C 465.078 40.5312 466.75 41.25 468.844 41.25C 470.984 41.25 472.625 40.5391 473.766 39.1172C 474.922 37.6953 475.5 35.6719 475.5 33.0469C 475.5 30.4062 474.922 28.3672 473.766 26.9297C 472.625 25.4922 470.984 24.7734 468.844 24.7734ZM 505.945 21L 497.953 33.1406L 505.852 45L 499.547 45L 495.328 37.5703C 495.062 37.1172 494.75 36.5391 494.391 35.8359L 494.297 35.8359C 494.234 35.9766 493.906 36.5547 493.312 37.5703L 489.023 45L 482.742 45L 490.898 33.2344L 483.164 21L 489.492 21L 493.641 28.8047C 493.953 29.3828 494.258 29.9766 494.555 30.5859L 494.625 30.5859L 499.992 21L 505.945 21ZM 512.18 45.5156C 511.242 45.5156 510.445 45.2109 509.789 44.6016C 509.133 43.9766 508.805 43.2344 508.805 42.375C 508.805 41.5 509.133 40.75 509.789 40.125C 510.445 39.5 511.242 39.1875 512.18 39.1875C 513.133 39.1875 513.938 39.5 514.594 40.125C 515.266 40.75 515.602 41.5 515.602 42.375C 515.602 43.2344 515.266 43.9766 514.594 44.6016C 513.938 45.2109 513.133 45.5156 512.18 45.5156Z" transform="translate(666.938 381.449)" fill="black"/>
</g>
</g>
</g>
<g id="These articles help">
<path d="M 359.969 32L 356.512 32L 356.512 18.4062C 356.512 17.293 356.58 15.9307 356.717 14.3193L 356.659 14.3193C 356.444 15.2373 356.253 15.8965 356.087 16.2969L 349.818 32L 347.415 32L 341.131 16.4141C 340.955 15.9551 340.77 15.2568 340.575 14.3193L 340.516 14.3193C 340.594 15.1592 340.633 16.5312 340.633 18.4355L 340.633 32L 337.41 32L 337.41 10.9941L 342.318 10.9941L 347.84 24.9834C 348.26 26.0576 348.534 26.8584 348.66 27.3857L 348.734 27.3857C 349.095 26.2822 349.388 25.4619 349.613 24.9248L 355.238 10.9941L 359.969 10.9941L 359.969 32ZM 376.287 32L 372.992 32L 372.992 29.6562L 372.933 29.6562C 371.898 31.4531 370.379 32.3516 368.377 32.3516C 366.903 32.3516 365.745 31.9512 364.906 31.1504C 364.076 30.3496 363.66 29.29 363.66 27.9717C 363.66 25.1396 365.291 23.4893 368.553 23.0205L 373.006 22.3906C 373.006 20.252 371.991 19.1826 369.959 19.1826C 368.172 19.1826 366.561 19.7979 365.125 21.0283L 365.125 18.0547C 366.707 17.1172 368.534 16.6484 370.604 16.6484C 374.393 16.6484 376.287 18.5137 376.287 22.2441L 376.287 32ZM 373.006 24.6318L 369.857 25.0713C 368.88 25.1982 368.143 25.4375 367.645 25.7891C 367.157 26.1309 366.912 26.7363 366.912 27.6055C 366.912 28.2402 367.137 28.7627 367.586 29.1729C 368.045 29.5732 368.656 29.7734 369.417 29.7734C 370.452 29.7734 371.307 29.4121 371.981 28.6895C 372.664 27.957 373.006 27.0391 373.006 25.9355L 373.006 24.6318ZM 389.149 20.2373C 388.739 19.915 388.148 19.7539 387.376 19.7539C 386.37 19.7539 385.531 20.208 384.857 21.1162C 384.183 22.0244 383.846 23.2598 383.846 24.8223L 383.846 32L 380.448 32L 380.448 17L 383.846 17L 383.846 20.0908L 383.905 20.0908C 384.237 19.0361 384.744 18.2158 385.428 17.6299C 386.121 17.0342 386.893 16.7363 387.742 16.7363C 388.358 16.7363 388.826 16.8291 389.149 17.0146L 389.149 20.2373ZM 404.94 30.7988C 404.94 36.3066 402.171 39.0605 396.634 39.0605C 394.681 39.0605 392.977 38.7334 391.522 38.0791L 391.522 34.9736C 393.162 35.9111 394.72 36.3799 396.195 36.3799C 399.759 36.3799 401.541 34.627 401.541 31.1211L 401.541 29.4805L 401.483 29.4805C 400.36 31.3945 398.67 32.3516 396.414 32.3516C 394.588 32.3516 393.114 31.6875 391.991 30.3594C 390.877 29.0215 390.321 27.2295 390.321 24.9834C 390.321 22.4346 390.921 20.4082 392.122 18.9043C 393.324 17.4004 394.974 16.6484 397.074 16.6484C 399.056 16.6484 400.526 17.459 401.483 19.0801L 401.541 19.0801L 401.541 17L 404.94 17L 404.94 30.7988ZM 401.571 25.1299L 401.571 23.1816C 401.571 22.127 401.219 21.2285 400.516 20.4863C 399.823 19.7344 398.953 19.3584 397.909 19.3584C 396.619 19.3584 395.609 19.8369 394.876 20.7939C 394.154 21.7412 393.792 23.0693 393.792 24.7783C 393.792 26.2529 394.139 27.4346 394.832 28.3232C 395.535 29.2021 396.463 29.6416 397.616 29.6416C 398.787 29.6416 399.74 29.2217 400.472 28.3818C 401.204 27.5322 401.571 26.4482 401.571 25.1299ZM 411.077 13.8506C 410.521 13.8506 410.042 13.6699 409.642 13.3086C 409.251 12.9473 409.056 12.4883 409.056 11.9316C 409.056 11.375 409.251 10.9111 409.642 10.54C 410.042 10.1689 410.521 9.9834 411.077 9.9834C 411.654 9.9834 412.142 10.1689 412.542 10.54C 412.943 10.9111 413.143 11.375 413.143 11.9316C 413.143 12.459 412.943 12.9131 412.542 13.2939C 412.142 13.665 411.654 13.8506 411.077 13.8506ZM 412.762 32L 409.364 32L 409.364 17L 412.762 17L 412.762 32ZM 430.575 32L 427.176 32L 427.176 23.5479C 427.176 20.7451 426.185 19.3438 424.202 19.3438C 423.167 19.3438 422.313 19.7344 421.639 20.5156C 420.965 21.2871 420.628 22.2637 420.628 23.4453L 420.628 32L 417.215 32L 417.215 17L 420.628 17L 420.628 19.4902L 420.687 19.4902C 421.81 17.5957 423.431 16.6484 425.55 16.6484C 427.181 16.6484 428.426 17.1807 429.285 18.2451C 430.145 19.2998 430.575 20.8281 430.575 22.8301L 430.575 32ZM 436.141 32.3223C 435.555 32.3223 435.057 32.1318 434.647 31.751C 434.237 31.3604 434.032 30.8965 434.032 30.3594C 434.032 29.8125 434.237 29.3438 434.647 28.9531C 435.057 28.5625 435.555 28.3672 436.141 28.3672C 436.737 28.3672 437.24 28.5625 437.65 28.9531C 438.07 29.3438 438.28 29.8125 438.28 30.3594C 438.28 30.8965 438.07 31.3604 437.65 31.751C 437.24 32.1318 436.737 32.3223 436.141 32.3223ZM 436.141 20.7354C 435.555 20.7354 435.057 20.5449 434.647 20.1641C 434.237 19.7734 434.032 19.3096 434.032 18.7725C 434.032 18.2256 434.237 17.7568 434.647 17.3662C 435.057 16.9756 435.555 16.7803 436.141 16.7803C 436.737 16.7803 437.24 16.9756 437.65 17.3662C 438.07 17.7568 438.28 18.2256 438.28 18.7725C 438.28 19.3096 438.07 19.7734 437.65 20.1641C 437.24 20.5449 436.737 20.7354 436.141 20.7354ZM 456.121 32.3516C 453.934 32.3516 452.225 31.458 450.994 29.6709C 449.774 27.8838 449.163 25.3008 449.163 21.9219C 449.163 18.2109 449.803 15.4033 451.082 13.499C 452.362 11.5947 454.207 10.6426 456.619 10.6426C 461.239 10.6426 463.548 14.2314 463.548 21.4092C 463.548 24.9639 462.894 27.6787 461.585 29.5537C 460.286 31.4189 458.465 32.3516 456.121 32.3516ZM 456.458 13.3525C 453.909 13.3525 452.635 16.1602 452.635 21.7754C 452.635 27.0293 453.885 29.6562 456.385 29.6562C 458.846 29.6562 460.076 26.9854 460.076 21.6436C 460.076 16.1162 458.87 13.3525 456.458 13.3525ZM 503.802 24.3828L 503.802 32L 500.33 32L 500.33 10.9941L 506.702 10.9941C 509.115 10.9941 510.985 11.5557 512.313 12.6787C 513.641 13.8018 514.305 15.3838 514.305 17.4248C 514.305 19.4658 513.612 21.1357 512.225 22.4346C 510.838 23.7334 508.963 24.3828 506.6 24.3828L 503.802 24.3828ZM 503.802 13.8652L 503.802 21.541L 506.058 21.541C 507.552 21.541 508.69 21.1943 509.471 20.501C 510.252 19.8076 510.643 18.8311 510.643 17.5713C 510.643 15.1006 509.207 13.8652 506.336 13.8652L 503.802 13.8652ZM 528.133 32L 524.837 32L 524.837 29.6562L 524.779 29.6562C 523.743 31.4531 522.225 32.3516 520.223 32.3516C 518.748 32.3516 517.591 31.9512 516.751 31.1504C 515.921 30.3496 515.506 29.29 515.506 27.9717C 515.506 25.1396 517.137 23.4893 520.399 23.0205L 524.852 22.3906C 524.852 20.252 523.836 19.1826 521.805 19.1826C 520.018 19.1826 518.407 19.7979 516.971 21.0283L 516.971 18.0547C 518.553 17.1172 520.379 16.6484 522.45 16.6484C 526.239 16.6484 528.133 18.5137 528.133 22.2441L 528.133 32ZM 524.852 24.6318L 521.702 25.0713C 520.726 25.1982 519.989 25.4375 519.491 25.7891C 519.002 26.1309 518.758 26.7363 518.758 27.6055C 518.758 28.2402 518.983 28.7627 519.432 29.1729C 519.891 29.5732 520.501 29.7734 521.263 29.7734C 522.298 29.7734 523.153 29.4121 523.826 28.6895C 524.51 27.957 524.852 27.0391 524.852 25.9355L 524.852 24.6318ZM 545.931 32L 542.533 32L 542.533 29.4512L 542.474 29.4512C 541.38 31.3848 539.696 32.3516 537.42 32.3516C 535.575 32.3516 534.095 31.6826 532.982 30.3447C 531.878 28.9971 531.326 27.166 531.326 24.8516C 531.326 22.3711 531.937 20.3838 533.158 18.8896C 534.388 17.3955 536.024 16.6484 538.065 16.6484C 540.086 16.6484 541.556 17.459 542.474 19.0801L 542.533 19.0801L 542.533 9.79297L 545.931 9.79297L 545.931 32ZM 542.576 25.1445L 542.576 23.1816C 542.576 22.1172 542.23 21.2139 541.536 20.4717C 540.843 19.7295 539.959 19.3584 538.885 19.3584C 537.616 19.3584 536.615 19.832 535.882 20.7793C 535.159 21.7266 534.798 23.04 534.798 24.7197C 534.798 26.2432 535.145 27.4492 535.838 28.3379C 536.541 29.2168 537.484 29.6562 538.665 29.6562C 539.827 29.6562 540.77 29.2314 541.492 28.3818C 542.215 27.5225 542.576 26.4434 542.576 25.1445ZM 564.007 32L 560.609 32L 560.609 29.4512L 560.55 29.4512C 559.456 31.3848 557.772 32.3516 555.496 32.3516C 553.651 32.3516 552.171 31.6826 551.058 30.3447C 549.954 28.9971 549.403 27.166 549.403 24.8516C 549.403 22.3711 550.013 20.3838 551.234 18.8896C 552.464 17.3955 554.1 16.6484 556.141 16.6484C 558.162 16.6484 559.632 17.459 560.55 19.0801L 560.609 19.0801L 560.609 9.79297L 564.007 9.79297L 564.007 32ZM 560.653 25.1445L 560.653 23.1816C 560.653 22.1172 560.306 21.2139 559.613 20.4717C 558.919 19.7295 558.035 19.3584 556.961 19.3584C 555.692 19.3584 554.691 19.832 553.958 20.7793C 553.236 21.7266 552.874 23.04 552.874 24.7197C 552.874 26.2432 553.221 27.4492 553.914 28.3379C 554.617 29.2168 555.56 29.6562 556.742 29.6562C 557.904 29.6562 558.846 29.2314 559.569 28.3818C 560.291 27.5225 560.653 26.4434 560.653 25.1445ZM 570.159 13.8506C 569.603 13.8506 569.124 13.6699 568.724 13.3086C 568.333 12.9473 568.138 12.4883 568.138 11.9316C 568.138 11.375 568.333 10.9111 568.724 10.54C 569.124 10.1689 569.603 9.9834 570.159 9.9834C 570.736 9.9834 571.224 10.1689 571.624 10.54C 572.025 10.9111 572.225 11.375 572.225 11.9316C 572.225 12.459 572.025 12.9131 571.624 13.2939C 571.224 13.665 570.736 13.8506 570.159 13.8506ZM 571.844 32L 568.446 32L 568.446 17L 571.844 17L 571.844 32ZM 589.657 32L 586.258 32L 586.258 23.5479C 586.258 20.7451 585.267 19.3438 583.284 19.3438C 582.249 19.3438 581.395 19.7344 580.721 20.5156C 580.047 21.2871 579.71 22.2637 579.71 23.4453L 579.71 32L 576.297 32L 576.297 17L 579.71 17L 579.71 19.4902L 579.769 19.4902C 580.892 17.5957 582.513 16.6484 584.632 16.6484C 586.263 16.6484 587.508 17.1807 588.367 18.2451C 589.227 19.2998 589.657 20.8281 589.657 22.8301L 589.657 32ZM 607.469 30.7988C 607.469 36.3066 604.701 39.0605 599.163 39.0605C 597.21 39.0605 595.506 38.7334 594.051 38.0791L 594.051 34.9736C 595.692 35.9111 597.249 36.3799 598.724 36.3799C 602.288 36.3799 604.071 34.627 604.071 31.1211L 604.071 29.4805L 604.012 29.4805C 602.889 31.3945 601.2 32.3516 598.944 32.3516C 597.117 32.3516 595.643 31.6875 594.52 30.3594C 593.407 29.0215 592.85 27.2295 592.85 24.9834C 592.85 22.4346 593.451 20.4082 594.652 18.9043C 595.853 17.4004 597.503 16.6484 599.603 16.6484C 601.585 16.6484 603.055 17.459 604.012 19.0801L 604.071 19.0801L 604.071 17L 607.469 17L 607.469 30.7988ZM 604.1 25.1299L 604.1 23.1816C 604.1 22.127 603.748 21.2285 603.045 20.4863C 602.352 19.7344 601.483 19.3584 600.438 19.3584C 599.149 19.3584 598.138 19.8369 597.406 20.7939C 596.683 21.7412 596.322 23.0693 596.322 24.7783C 596.322 26.2529 596.668 27.4346 597.362 28.3232C 598.065 29.2021 598.992 29.6416 600.145 29.6416C 601.317 29.6416 602.269 29.2217 603.001 28.3818C 603.734 27.5322 604.1 26.4482 604.1 25.1299ZM 613.299 32.3223C 612.713 32.3223 612.215 32.1318 611.805 31.751C 611.395 31.3604 611.19 30.8965 611.19 30.3594C 611.19 29.8125 611.395 29.3438 611.805 28.9531C 612.215 28.5625 612.713 28.3672 613.299 28.3672C 613.895 28.3672 614.398 28.5625 614.808 28.9531C 615.228 29.3438 615.438 29.8125 615.438 30.3594C 615.438 30.8965 615.228 31.3604 614.808 31.751C 614.398 32.1318 613.895 32.3223 613.299 32.3223ZM 613.299 20.7354C 612.713 20.7354 612.215 20.5449 611.805 20.1641C 611.395 19.7734 611.19 19.3096 611.19 18.7725C 611.19 18.2256 611.395 17.7568 611.805 17.3662C 612.215 16.9756 612.713 16.7803 613.299 16.7803C 613.895 16.7803 614.398 16.9756 614.808 17.3662C 615.228 17.7568 615.438 18.2256 615.438 18.7725C 615.438 19.3096 615.228 19.7734 614.808 20.1641C 614.398 20.5449 613.895 20.7354 613.299 20.7354ZM 633.28 32.3516C 631.092 32.3516 629.383 31.458 628.153 29.6709C 626.932 27.8838 626.322 25.3008 626.322 21.9219C 626.322 18.2109 626.961 15.4033 628.241 13.499C 629.52 11.5947 631.366 10.6426 633.778 10.6426C 638.397 10.6426 640.706 14.2314 640.706 21.4092C 640.706 24.9639 640.052 27.6787 638.743 29.5537C 637.445 31.4189 635.623 32.3516 633.28 32.3516ZM 633.617 13.3525C 631.068 13.3525 629.793 16.1602 629.793 21.7754C 629.793 27.0293 631.043 29.6562 633.543 29.6562C 636.004 29.6562 637.235 26.9854 637.235 21.6436C 637.235 16.1162 636.029 13.3525 633.617 13.3525Z" transform="translate(470 698.334)" fill="#243A5E"/>
</g>
</g>
</g>
<defs>

<clipPath id="clip0">
<rect width="671" height="135" fill="white" transform="translate(625 345)"/>
</clipPath>

</defs>
</svg>

