<svg width="940" height="640" viewBox="0 0 940 640" fill="none" xmlns="http://www.w3.org/2000/svg">
<rect width="940" height="640" rx="8" fill="#C5D1EF"/>
<rect width="940" height="640" rx="8" fill="url(#paint0_linear)"/>
<rect x="96" y="96" width="748" height="448" rx="7" fill="#F3F3F3"/>
<g style="mix-blend-mode:multiply" filter="url(#filter0_dd)">
<rect x="96" y="96" width="748" height="448" rx="7" fill="white"/>
</g>
<rect x="95.5" y="95.5" width="749" height="449" rx="7.5" stroke="black" stroke-opacity="0.0578"/>
<g clip-path="url(#clip0)">
<path d="M337 136C337 132.134 340.134 129 344 129H844V544H337V136Z" fill="white" fill-opacity="0.5"/>
<path d="M844.5 129V128.5H844H344C339.858 128.5 336.5 131.858 336.5 136V544V544.5H337H844H844.5V544V129Z" stroke="black" stroke-opacity="0.0578"/>
</g>
<defs>
<filter id="filter0_dd" x="32" y="64" width="876" height="576" filterUnits="userSpaceOnUse" color-interpolation-filters="sRGB">
<feFlood flood-opacity="0" result="BackgroundImageFix"/>
<feColorMatrix in="SourceAlpha" type="matrix" values="0 0 0 0 0 0 0 0 0 0 0 0 0 0 0 0 0 0 127 0"/>
<feOffset/>
<feGaussianBlur stdDeviation="4"/>
<feColorMatrix type="matrix" values="0 0 0 0 0 0 0 0 0 0 0 0 0 0 0 0 0 0 0.2 0"/>
<feBlend mode="normal" in2="BackgroundImageFix" result="effect1_dropShadow"/>
<feColorMatrix in="SourceAlpha" type="matrix" values="0 0 0 0 0 0 0 0 0 0 0 0 0 0 0 0 0 0 127 0"/>
<feOffset dy="32"/>
<feGaussianBlur stdDeviation="32"/>
<feColorMatrix type="matrix" values="0 0 0 0 0 0 0 0 0 0 0 0 0 0 0 0 0 0 0.24 0"/>
<feBlend mode="normal" in2="effect1_dropShadow" result="effect2_dropShadow"/>
<feBlend mode="normal" in="SourceGraphic" in2="effect2_dropShadow" result="shape"/>
</filter>
<linearGradient id="paint0_linear" x1="300" y1="64" x2="684.158" y2="579.176" gradientUnits="userSpaceOnUse">
<stop stop-color="#8AB2CF"/>
<stop offset="1" stop-color="#B1CCE1"/>
</linearGradient>
<clipPath id="clip0">
<path d="M336 128H844V537C844 540.866 840.866 544 837 544H336V128Z" fill="white"/>
</clipPath>
</defs>
</svg>
