<svg width="940" height="640" viewBox="0 0 940 640" fill="none" xmlns="http://www.w3.org/2000/svg">
<rect width="940" height="640" rx="8" fill="#F9F9F9"/>
<path d="M148.002 188.844H128.422V249H116.801V188.844H97.2695V178.98H148.002V188.844ZM200.518 249H189.189V219.703C189.189 215.504 188.359 212.346 186.699 210.23C185.072 208.115 182.63 207.057 179.375 207.057C175.827 207.057 172.946 208.326 170.732 210.865C168.551 213.404 167.461 216.627 167.461 220.533V249H156.084V174.977H167.461V205.738H167.656C169.414 203.232 171.693 201.295 174.492 199.928C177.292 198.528 180.319 197.828 183.574 197.828C188.978 197.828 193.145 199.553 196.074 203.004C199.036 206.422 200.518 211.484 200.518 218.189V249ZM256.084 226.783H221.562C221.66 231.601 222.962 235.23 225.469 237.672C228.008 240.081 231.117 241.285 234.795 241.285C237.399 241.285 239.71 240.683 241.729 239.479C243.747 238.242 245.456 236.419 246.855 234.01L255.596 238.746C253.317 242.392 250.404 245.208 246.855 247.193C243.34 249.179 239.189 250.172 234.404 250.172C227.048 250.172 221.156 247.958 216.729 243.531C212.301 239.104 210.088 232.74 210.088 224.439C210.088 216.529 212.35 210.117 216.875 205.201C221.432 200.286 227.129 197.828 233.965 197.828C240.996 197.828 246.432 199.928 250.273 204.127C254.147 208.326 256.084 214.413 256.084 222.389V226.783ZM245.098 218.678C245.098 214.771 244.121 211.744 242.168 209.596C240.215 207.447 237.546 206.373 234.16 206.373C230.612 206.373 227.731 207.561 225.518 209.938C223.304 212.281 221.969 215.195 221.514 218.678H245.098ZM336.162 271.998H324.785V242.213H324.59C322.799 244.85 320.505 246.835 317.705 248.17C314.906 249.505 311.764 250.172 308.281 250.172C301.641 250.172 296.367 247.958 292.461 243.531C288.587 239.104 286.65 232.984 286.65 225.172C286.65 216.806 288.815 210.165 293.145 205.25C297.474 200.302 303.219 197.828 310.381 197.828C313.506 197.828 316.322 198.463 318.828 199.732C321.367 201.002 323.288 202.613 324.59 204.566H324.785V198.951L336.162 199V271.998ZM324.932 225.709V219.947C324.932 216.334 323.711 213.29 321.27 210.816C318.828 208.31 315.752 207.057 312.041 207.057C307.777 207.057 304.408 208.587 301.934 211.646C299.46 214.706 298.223 219.068 298.223 224.732C298.223 229.778 299.362 233.749 301.641 236.646C303.952 239.511 307.158 240.943 311.26 240.943C315.426 240.943 318.747 239.527 321.221 236.695C323.695 233.831 324.932 230.169 324.932 225.709ZM391.584 249H380.207V242.213H380.012C378.384 244.654 376.187 246.591 373.42 248.023C370.686 249.456 367.805 250.172 364.777 250.172C358.918 250.172 354.491 248.43 351.496 244.947C348.501 241.464 347.004 236.402 347.004 229.762V199H358.283V228.248C358.283 232.447 359.097 235.621 360.725 237.77C362.352 239.885 364.891 240.943 368.342 240.943C371.825 240.943 374.673 239.674 376.887 237.135C379.1 234.596 380.207 231.389 380.207 227.516V199H391.584V249ZM411.066 189.869C408.918 189.869 407.16 189.186 405.793 187.818C404.458 186.419 403.791 184.742 403.791 182.789C403.791 180.803 404.458 179.127 405.793 177.76C407.16 176.393 408.918 175.709 411.066 175.709C413.247 175.709 415.005 176.393 416.34 177.76C417.707 179.127 418.391 180.803 418.391 182.789C418.391 184.807 417.707 186.5 416.34 187.867C415.005 189.202 413.247 189.869 411.066 189.869ZM416.73 249H405.354V199H416.73V249ZM473.127 239.674C470.913 243.189 468.049 245.826 464.533 247.584C461.05 249.309 457.193 250.172 452.961 250.172C444.888 250.172 438.589 247.861 434.064 243.238C429.572 238.583 427.326 232.464 427.326 224.879C427.326 216.513 429.719 209.921 434.504 205.104C439.322 200.253 445.572 197.828 453.254 197.828C457.583 197.828 461.49 198.74 464.973 200.562C468.456 202.385 471.092 205.104 472.883 208.717L463.996 213.209C462.434 210.963 460.757 209.384 458.967 208.473C457.209 207.529 455.158 207.057 452.814 207.057C448.778 207.057 445.441 208.554 442.805 211.549C440.201 214.544 438.898 218.727 438.898 224.098C438.898 229.404 440.184 233.505 442.756 236.402C445.36 239.299 448.843 240.748 453.205 240.748C455.419 240.748 457.453 240.292 459.309 239.381C461.197 238.437 462.889 236.858 464.387 234.645L473.127 239.674ZM528.4 249H514.143L494.953 225.074H494.758V249H483.381V174.977H494.758V221.559H494.953L513.703 199H527.033L506.574 222.828L528.4 249ZM571.125 243.58H570.93V249H559.553V174.977H570.93V205.885H571.125C573.013 203.281 575.373 201.295 578.205 199.928C581.037 198.528 584.292 197.828 587.971 197.828C594.644 197.828 599.82 200.058 603.498 204.518C607.209 208.945 609.064 215.032 609.064 222.779C609.064 231.08 607.03 237.721 602.961 242.701C598.892 247.682 593.326 250.172 586.262 250.172C582.909 250.172 579.947 249.618 577.375 248.512C574.836 247.372 572.753 245.729 571.125 243.58ZM570.783 221.852V227.955C570.783 231.633 571.988 234.726 574.396 237.232C576.805 239.706 579.93 240.943 583.771 240.943C588.133 240.943 591.486 239.365 593.83 236.207C596.206 233.049 597.395 228.671 597.395 223.072C597.395 217.962 596.288 214.023 594.074 211.256C591.861 208.456 588.785 207.057 584.846 207.057C580.712 207.057 577.326 208.456 574.689 211.256C572.085 214.023 570.783 217.555 570.783 221.852ZM648.127 209.205C647.215 208.847 646.271 208.57 645.295 208.375C644.351 208.147 643.342 208.033 642.268 208.033C638.915 208.033 636.197 209.531 634.113 212.525C632.03 215.52 630.988 219.426 630.988 224.244V249H619.611V199H630.988V208.033H631.184C632.355 204.843 634.081 202.402 636.359 200.709C638.638 198.984 641.275 198.121 644.27 198.121C645.539 198.121 646.711 198.219 647.785 198.414C648.859 198.609 650.015 198.984 651.252 199.537L648.127 209.205ZM678.621 250.172C670.711 250.172 664.428 247.844 659.773 243.189C655.118 238.535 652.791 232.268 652.791 224.391C652.824 216.415 655.298 210.003 660.213 205.152C665.128 200.27 671.508 197.828 679.354 197.828C687.231 197.828 693.449 200.221 698.006 205.006C702.563 209.791 704.842 215.976 704.842 223.561C704.842 231.308 702.433 237.688 697.615 242.701C692.83 247.682 686.499 250.172 678.621 250.172ZM679.061 240.943C683.553 240.943 687.036 239.413 689.51 236.354C691.984 233.261 693.221 229.094 693.221 223.854C693.221 218.808 691.967 214.755 689.461 211.695C686.987 208.603 683.52 207.057 679.061 207.057C674.601 207.057 671.036 208.652 668.367 211.842C665.698 214.999 664.363 219.101 664.363 224.146C664.363 229.387 665.682 233.505 668.318 236.5C670.955 239.462 674.536 240.943 679.061 240.943ZM782.016 199L767.27 249H755.404L746.42 216.48C746.192 215.634 746.029 214.967 745.932 214.479C745.834 213.99 745.72 213.355 745.59 212.574H745.346C745.215 213.355 745.085 214.007 744.955 214.527C744.825 215.016 744.646 215.618 744.418 216.334L734.701 249H722.982L708.285 199H719.809L728.744 233.229C728.907 233.814 729.037 234.433 729.135 235.084C729.232 235.702 729.346 236.419 729.477 237.232H729.77C729.932 236.386 730.079 235.654 730.209 235.035C730.372 234.384 730.551 233.733 730.746 233.082L740.902 199H751.693L760.775 233.277C760.873 233.668 760.987 234.205 761.117 234.889C761.28 235.54 761.443 236.337 761.605 237.281H761.947C762.11 236.37 762.24 235.67 762.338 235.182C762.436 234.693 762.582 234.059 762.777 233.277L771.42 199H782.016ZM834.262 249H822.934V219.752C822.934 215.618 822.104 212.477 820.443 210.328C818.816 208.147 816.358 207.057 813.07 207.057C809.522 207.057 806.625 208.326 804.379 210.865C802.165 213.404 801.059 216.611 801.059 220.484V249H789.682V199H801.059V205.787H801.254C803.012 203.248 805.29 201.295 808.09 199.928C810.922 198.528 813.982 197.828 817.27 197.828C822.803 197.828 827.019 199.586 829.916 203.102C832.813 206.617 834.262 211.646 834.262 218.189V249ZM129.887 290.742C129.04 290.189 128.161 289.766 127.25 289.473C126.371 289.147 125.395 288.984 124.32 288.984C122.172 288.984 120.528 289.652 119.389 290.986C118.282 292.288 117.729 294.258 117.729 296.895V305H129.301V313.887H117.729V355H106.4V313.887H97.9043V305H106.4V296.797C106.4 291.589 107.93 287.471 110.99 284.443C114.083 281.383 118.38 279.854 123.881 279.854C125.736 279.854 127.543 280.081 129.301 280.537C131.091 280.96 132.833 281.628 134.525 282.539L129.887 290.742ZM158.77 356.172C150.859 356.172 144.577 353.844 139.922 349.189C135.267 344.535 132.939 338.268 132.939 330.391C132.972 322.415 135.446 316.003 140.361 311.152C145.277 306.27 151.657 303.828 159.502 303.828C167.38 303.828 173.597 306.221 178.154 311.006C182.712 315.791 184.99 321.976 184.99 329.561C184.99 337.308 182.581 343.688 177.764 348.701C172.979 353.682 166.647 356.172 158.77 356.172ZM159.209 346.943C163.701 346.943 167.184 345.413 169.658 342.354C172.132 339.261 173.369 335.094 173.369 329.854C173.369 324.808 172.116 320.755 169.609 317.695C167.135 314.603 163.669 313.057 159.209 313.057C154.749 313.057 151.185 314.652 148.516 317.842C145.846 320.999 144.512 325.101 144.512 330.146C144.512 335.387 145.83 339.505 148.467 342.5C151.104 345.462 154.684 346.943 159.209 346.943ZM234.355 305L218.145 330.195L234.307 355H221.904L213.066 340.693C212.773 340.173 212.448 339.603 212.09 338.984C211.764 338.366 211.374 337.617 210.918 336.738H210.723C210.527 337.129 210.267 337.65 209.941 338.301C209.616 338.919 209.144 339.701 208.525 340.645L199.59 355H187.48L203.936 330.293L188.018 305H200.322L209.014 319.844C209.437 320.56 209.811 321.26 210.137 321.943C210.462 322.627 210.788 323.294 211.113 323.945H211.309C211.634 323.229 211.976 322.546 212.334 321.895C212.692 321.211 213.083 320.511 213.506 319.795L222.588 305H234.355ZM271.025 295.869C268.877 295.869 267.119 295.186 265.752 293.818C264.417 292.419 263.75 290.742 263.75 288.789C263.75 286.803 264.417 285.127 265.752 283.76C267.119 282.393 268.877 281.709 271.025 281.709C273.206 281.709 274.964 282.393 276.299 283.76C277.633 285.127 278.301 286.803 278.301 288.789C278.301 290.807 277.633 292.5 276.299 293.867C274.964 295.202 273.206 295.869 271.025 295.869ZM276.641 358.564C276.641 364.977 274.997 369.909 271.709 373.359C268.454 376.81 264.173 378.535 258.867 378.535C256.296 378.535 253.936 378.177 251.787 377.461C249.639 376.745 247.865 375.817 246.465 374.678L251.836 367.158C252.845 367.907 253.854 368.46 254.863 368.818C255.872 369.176 256.947 369.355 258.086 369.355C260.43 369.355 262.22 368.574 263.457 367.012C264.694 365.482 265.312 362.878 265.312 359.199V305H276.641V358.564ZM333.404 355H322.027V348.213H321.832C320.204 350.654 318.007 352.591 315.24 354.023C312.506 355.456 309.625 356.172 306.598 356.172C300.738 356.172 296.311 354.43 293.316 350.947C290.322 347.464 288.824 342.402 288.824 335.762V305H300.104V334.248C300.104 338.447 300.917 341.621 302.545 343.77C304.173 345.885 306.712 346.943 310.162 346.943C313.645 346.943 316.493 345.674 318.707 343.135C320.921 340.596 322.027 337.389 322.027 333.516V305H333.404V355ZM420.979 355H409.65V326.191C409.65 321.667 408.869 318.346 407.307 316.23C405.777 314.115 403.303 313.057 399.885 313.057C396.857 313.057 394.318 314.391 392.268 317.061C390.249 319.697 389.24 322.92 389.24 326.729V355H377.912V325.703C377.912 321.504 377.098 318.346 375.471 316.23C373.843 314.115 371.385 313.057 368.098 313.057C364.973 313.057 362.434 314.326 360.48 316.865C358.527 319.372 357.551 322.692 357.551 326.826V355H346.174V305H357.551V311.738H357.746C359.439 309.232 361.636 307.295 364.338 305.928C367.072 304.528 370.067 303.828 373.322 303.828C376.773 303.828 379.735 304.642 382.209 306.27C384.683 307.865 386.441 309.98 387.482 312.617C389.501 309.655 391.926 307.458 394.758 306.025C397.622 304.561 400.894 303.828 404.572 303.828C409.781 303.828 413.817 305.521 416.682 308.906C419.546 312.292 420.979 317.337 420.979 324.043V355ZM443.441 349.775H443.246V377.998H431.869V305H443.246V312.129H443.441C445.427 309.362 447.836 307.295 450.668 305.928C453.533 304.528 456.739 303.828 460.287 303.828C466.928 303.828 472.104 306.025 475.814 310.42C479.525 314.814 481.381 320.934 481.381 328.779C481.381 336.982 479.298 343.607 475.131 348.652C470.997 353.665 465.463 356.172 458.529 356.172C455.307 356.172 452.426 355.635 449.887 354.561C447.38 353.486 445.232 351.891 443.441 349.775ZM443.1 327.852V334.004C443.1 337.682 444.32 340.758 446.762 343.232C449.236 345.706 452.344 346.943 456.088 346.943C460.32 346.943 463.64 345.332 466.049 342.109C468.49 338.887 469.711 334.541 469.711 329.072C469.711 323.766 468.588 319.779 466.342 317.109C464.128 314.408 461.068 313.057 457.162 313.057C453.028 313.057 449.643 314.44 447.006 317.207C444.402 319.974 443.1 323.522 443.1 327.852ZM533.701 332.783H499.18C499.277 337.601 500.579 341.23 503.086 343.672C505.625 346.081 508.734 347.285 512.412 347.285C515.016 347.285 517.327 346.683 519.346 345.479C521.364 344.242 523.073 342.419 524.473 340.01L533.213 344.746C530.934 348.392 528.021 351.208 524.473 353.193C520.957 355.179 516.807 356.172 512.021 356.172C504.665 356.172 498.773 353.958 494.346 349.531C489.919 345.104 487.705 338.74 487.705 330.439C487.705 322.529 489.967 316.117 494.492 311.201C499.049 306.286 504.746 303.828 511.582 303.828C518.613 303.828 524.049 305.928 527.891 310.127C531.764 314.326 533.701 320.413 533.701 328.389V332.783ZM522.715 324.678C522.715 320.771 521.738 317.744 519.785 315.596C517.832 313.447 515.163 312.373 511.777 312.373C508.229 312.373 505.348 313.561 503.135 315.938C500.921 318.281 499.587 321.195 499.131 324.678H522.715ZM578.77 348.066C576.947 350.736 574.652 352.754 571.885 354.121C569.118 355.488 565.977 356.172 562.461 356.172C555.755 356.172 550.465 353.958 546.592 349.531C542.751 345.072 540.83 338.952 540.83 331.172C540.83 322.773 542.979 316.117 547.275 311.201C551.605 306.286 557.367 303.828 564.561 303.828C567.686 303.828 570.501 304.447 573.008 305.684C575.547 306.921 577.467 308.483 578.77 310.371H578.965V280.977H590.342V355H578.965V348.066H578.77ZM552.402 330.732C552.402 335.811 553.558 339.782 555.869 342.646C558.18 345.511 561.37 346.943 565.439 346.943C569.606 346.943 572.926 345.511 575.4 342.646C577.874 339.782 579.111 336.104 579.111 331.611V325.898C579.111 322.253 577.907 319.209 575.498 316.768C573.122 314.294 570.029 313.057 566.221 313.057C561.956 313.057 558.587 314.587 556.113 317.646C553.639 320.706 552.402 325.068 552.402 330.732ZM650.156 356.172C642.246 356.172 635.964 353.844 631.309 349.189C626.654 344.535 624.326 338.268 624.326 330.391C624.359 322.415 626.833 316.003 631.748 311.152C636.663 306.27 643.044 303.828 650.889 303.828C658.766 303.828 664.984 306.221 669.541 311.006C674.098 315.791 676.377 321.976 676.377 329.561C676.377 337.308 673.968 343.688 669.15 348.701C664.365 353.682 658.034 356.172 650.156 356.172ZM650.596 346.943C655.088 346.943 658.571 345.413 661.045 342.354C663.519 339.261 664.756 335.094 664.756 329.854C664.756 324.808 663.503 320.755 660.996 317.695C658.522 314.603 655.055 313.057 650.596 313.057C646.136 313.057 642.572 314.652 639.902 317.842C637.233 320.999 635.898 325.101 635.898 330.146C635.898 335.387 637.217 339.505 639.854 342.5C642.49 345.462 646.071 346.943 650.596 346.943ZM728.771 305L709.484 355H697.229L678.82 305H690.93L701.867 337.666C702.258 338.87 702.567 339.912 702.795 340.791C703.055 341.637 703.348 342.679 703.674 343.916H703.869C704.195 342.679 704.488 341.637 704.748 340.791C705.008 339.912 705.318 338.952 705.676 337.91L717.053 305H728.771ZM777.088 332.783H742.566C742.664 337.601 743.966 341.23 746.473 343.672C749.012 346.081 752.12 347.285 755.799 347.285C758.403 347.285 760.714 346.683 762.732 345.479C764.751 344.242 766.46 342.419 767.859 340.01L776.6 344.746C774.321 348.392 771.408 351.208 767.859 353.193C764.344 355.179 760.193 356.172 755.408 356.172C748.051 356.172 742.16 353.958 737.732 349.531C733.305 345.104 731.092 338.74 731.092 330.439C731.092 322.529 733.354 316.117 737.879 311.201C742.436 306.286 748.133 303.828 754.969 303.828C762 303.828 767.436 305.928 771.277 310.127C775.151 314.326 777.088 320.413 777.088 328.389V332.783ZM766.102 324.678C766.102 320.771 765.125 317.744 763.172 315.596C761.219 313.447 758.549 312.373 755.164 312.373C751.616 312.373 748.735 313.561 746.521 315.938C744.308 318.281 742.973 321.195 742.518 324.678H766.102ZM814.955 315.205C814.044 314.847 813.1 314.57 812.123 314.375C811.179 314.147 810.17 314.033 809.096 314.033C805.743 314.033 803.025 315.531 800.941 318.525C798.858 321.52 797.816 325.426 797.816 330.244V355H786.439V305H797.816V314.033H798.012C799.184 310.843 800.909 308.402 803.188 306.709C805.466 304.984 808.103 304.121 811.098 304.121C812.367 304.121 813.539 304.219 814.613 304.414C815.688 304.609 816.843 304.984 818.08 305.537L814.955 315.205ZM132.279 457.631C130.782 459.063 129.04 460.17 127.055 460.951C125.069 461.732 122.839 462.123 120.365 462.123C115.613 462.123 112.016 460.935 109.574 458.559C107.165 456.15 105.961 452.634 105.961 448.012V419.887H97.5625V411H105.961V398.744L117.289 396.742V411H130.033V419.887H117.289V447.621C117.289 449.607 117.68 451.072 118.461 452.016C119.275 452.96 120.495 453.432 122.123 453.432C122.969 453.432 123.799 453.269 124.613 452.943C125.427 452.618 126.29 451.983 127.201 451.039L132.279 457.631ZM185.502 461H174.174V431.703C174.174 427.504 173.344 424.346 171.684 422.23C170.056 420.115 167.615 419.057 164.359 419.057C160.811 419.057 157.93 420.326 155.717 422.865C153.536 425.404 152.445 428.627 152.445 432.533V461H141.068V386.977H152.445V417.738H152.641C154.398 415.232 156.677 413.295 159.477 411.928C162.276 410.528 165.303 409.828 168.559 409.828C173.962 409.828 178.129 411.553 181.059 415.004C184.021 418.422 185.502 423.484 185.502 430.189V461ZM240.068 438.783H205.547C205.645 443.601 206.947 447.23 209.453 449.672C211.992 452.081 215.101 453.285 218.779 453.285C221.383 453.285 223.695 452.683 225.713 451.479C227.731 450.242 229.44 448.419 230.84 446.01L239.58 450.746C237.301 454.392 234.388 457.208 230.84 459.193C227.324 461.179 223.174 462.172 218.389 462.172C211.032 462.172 205.14 459.958 200.713 455.531C196.286 451.104 194.072 444.74 194.072 436.439C194.072 428.529 196.335 422.117 200.859 417.201C205.417 412.286 211.113 409.828 217.949 409.828C224.98 409.828 230.417 411.928 234.258 416.127C238.132 420.326 240.068 426.413 240.068 434.389V438.783ZM229.082 430.678C229.082 426.771 228.105 423.744 226.152 421.596C224.199 419.447 221.53 418.373 218.145 418.373C214.596 418.373 211.715 419.561 209.502 421.938C207.288 424.281 205.954 427.195 205.498 430.678H229.082ZM273.857 461V386.977H285.234V461H273.857ZM337.236 461H326.25V454.799H326.055C324.297 457.208 322.148 459.047 319.609 460.316C317.07 461.553 314.238 462.172 311.113 462.172C306.491 462.172 302.699 460.854 299.736 458.217C296.807 455.58 295.342 452.13 295.342 447.865C295.342 443.275 296.807 439.597 299.736 436.83C302.699 434.031 306.93 432.322 312.432 431.703L326.299 430.141V427.748C326.299 424.656 325.436 422.344 323.711 420.814C321.986 419.252 319.723 418.471 316.924 418.471C314.157 418.471 311.829 419.089 309.941 420.326C308.053 421.563 306.491 423.337 305.254 425.648L296.758 421.303C298.451 417.95 301.12 415.199 304.766 413.051C308.411 410.902 312.741 409.828 317.754 409.828C324.069 409.828 328.887 411.488 332.207 414.809C335.56 418.096 337.236 422.882 337.236 429.164V461ZM326.299 440.688V437.953L314.238 439.271C311.471 439.564 309.453 440.329 308.184 441.566C306.914 442.803 306.279 444.464 306.279 446.547C306.279 448.663 306.995 450.388 308.428 451.723C309.893 453.025 311.781 453.676 314.092 453.676C317.738 453.676 320.684 452.455 322.93 450.014C325.176 447.54 326.299 444.431 326.299 440.688ZM385.6 417.494L359.428 451.918H386.43V461H345.219V454.311L371.293 420.082H347.025V411H385.6V417.494ZM440.336 411L417.094 470.961C415.368 475.421 413.041 478.79 410.111 481.068C407.214 483.38 403.682 484.535 399.516 484.535C397.497 484.535 395.593 484.307 393.803 483.852C392.045 483.428 390.368 482.745 388.773 481.801L393.705 473.793C394.714 474.379 395.626 474.786 396.439 475.014C397.253 475.274 398.1 475.404 398.979 475.404C400.508 475.404 401.811 475.014 402.885 474.232C403.992 473.484 404.984 472.1 405.863 470.082L409.525 461.586L389.896 411H402.299L413.773 444.154C414.132 445.163 414.408 446.059 414.604 446.84C414.799 447.621 415.027 448.581 415.287 449.721H415.531C415.759 448.581 415.987 447.637 416.215 446.889C416.475 446.14 416.768 445.261 417.094 444.252L428.666 411H440.336ZM506.156 454.066C504.333 456.736 502.038 458.754 499.271 460.121C496.505 461.488 493.363 462.172 489.848 462.172C483.142 462.172 477.852 459.958 473.979 455.531C470.137 451.072 468.217 444.952 468.217 437.172C468.217 428.773 470.365 422.117 474.662 417.201C478.992 412.286 484.753 409.828 491.947 409.828C495.072 409.828 497.888 410.447 500.395 411.684C502.934 412.921 504.854 414.483 506.156 416.371H506.352V386.977H517.729V461H506.352V454.066H506.156ZM479.789 436.732C479.789 441.811 480.945 445.782 483.256 448.646C485.567 451.511 488.757 452.943 492.826 452.943C496.993 452.943 500.313 451.511 502.787 448.646C505.261 445.782 506.498 442.104 506.498 437.611V431.898C506.498 428.253 505.294 425.209 502.885 422.768C500.508 420.294 497.416 419.057 493.607 419.057C489.343 419.057 485.974 420.587 483.5 423.646C481.026 426.706 479.789 431.068 479.789 436.732ZM552.105 462.172C544.195 462.172 537.913 459.844 533.258 455.189C528.603 450.535 526.275 444.268 526.275 436.391C526.308 428.415 528.782 422.003 533.697 417.152C538.613 412.27 544.993 409.828 552.838 409.828C560.715 409.828 566.933 412.221 571.49 417.006C576.048 421.791 578.326 427.976 578.326 435.561C578.326 443.308 575.917 449.688 571.1 454.701C566.314 459.682 559.983 462.172 552.105 462.172ZM552.545 452.943C557.037 452.943 560.52 451.413 562.994 448.354C565.468 445.261 566.705 441.094 566.705 435.854C566.705 430.808 565.452 426.755 562.945 423.695C560.471 420.603 557.005 419.057 552.545 419.057C548.085 419.057 544.521 420.652 541.852 423.842C539.182 426.999 537.848 431.101 537.848 436.146C537.848 441.387 539.166 445.505 541.803 448.5C544.439 451.462 548.02 452.943 552.545 452.943ZM635.211 458.119C635.211 466.55 632.916 473.061 628.326 477.65C623.769 482.24 617.438 484.535 609.332 484.535C604.156 484.535 599.648 483.607 595.807 481.752C591.965 479.929 588.743 477.309 586.139 473.891L594.391 467.738C596.279 470.375 598.411 472.344 600.787 473.646C603.196 474.949 606.093 475.6 609.479 475.6C614.003 475.6 617.519 474.298 620.025 471.693C622.564 469.089 623.834 465.215 623.834 460.072V454.311H623.639C621.816 456.882 619.586 458.835 616.949 460.17C614.345 461.505 611.106 462.172 607.232 462.172C600.722 462.172 595.497 459.991 591.559 455.629C587.62 451.234 585.65 445.115 585.65 437.27C585.65 428.676 587.896 421.954 592.389 417.104C596.913 412.253 602.577 409.828 609.381 409.828C612.343 409.828 615.077 410.382 617.584 411.488C620.09 412.595 622.109 414.19 623.639 416.273H623.834V411H635.211V458.119ZM623.932 437.758V431.947C623.932 428.367 622.727 425.323 620.318 422.816C617.91 420.31 614.801 419.057 610.992 419.057C606.76 419.057 603.408 420.587 600.934 423.646C598.46 426.706 597.223 431.068 597.223 436.732C597.223 441.778 598.362 445.749 600.641 448.646C602.952 451.511 606.142 452.943 610.211 452.943C614.28 452.943 617.584 451.544 620.123 448.744C622.662 445.945 623.932 442.283 623.932 437.758ZM653.668 462.123C651.715 462.123 650.038 461.423 648.639 460.023C647.271 458.624 646.588 456.931 646.588 454.945C646.588 452.895 647.288 451.186 648.688 449.818C650.087 448.419 651.78 447.719 653.766 447.719C655.816 447.719 657.525 448.419 658.893 449.818C660.26 451.186 660.943 452.895 660.943 454.945C660.943 456.996 660.243 458.705 658.844 460.072C657.477 461.439 655.751 462.123 653.668 462.123Z" fill="black"/>
</svg>
