<svg width="301" height="68" viewBox="0 0 301 68" fill="none" xmlns="http://www.w3.org/2000/svg">
<rect x="0.5" width="300" height="68" rx="8" fill="#F9F9F9"/>
<path d="M25.7852 39V29.1973H28.5811C29.4287 29.1973 30.0986 29.4001 30.5908 29.8057C31.0876 30.2067 31.3359 30.7513 31.3359 31.4395C31.3359 31.9954 31.1855 32.4785 30.8848 32.8887C30.584 33.2988 30.1693 33.5905 29.6406 33.7637V33.791C30.3014 33.8685 30.8301 34.1191 31.2266 34.543C31.623 34.9622 31.8213 35.5091 31.8213 36.1836C31.8213 37.0221 31.5205 37.7012 30.9189 38.2207C30.3174 38.7402 29.5586 39 28.6426 39H25.7852ZM26.9336 30.2363V33.4014H28.1094C28.7383 33.4014 29.2327 33.251 29.5928 32.9502C29.9528 32.6449 30.1328 32.2165 30.1328 31.665C30.1328 31.1865 29.9756 30.8288 29.6611 30.5918C29.3467 30.3548 28.8796 30.2363 28.2598 30.2363H26.9336ZM26.9336 34.4336V37.9609H28.4922C29.1667 37.9609 29.6885 37.8014 30.0576 37.4824C30.4313 37.1634 30.6182 36.7259 30.6182 36.1699C30.6182 35.5911 30.4199 35.1582 30.0234 34.8711C29.6315 34.5794 29.0413 34.4336 28.2529 34.4336H26.9336ZM36.5859 39.1641C35.5514 39.1641 34.7243 38.8382 34.1045 38.1865C33.4893 37.5303 33.1816 36.6621 33.1816 35.582C33.1816 34.4108 33.5007 33.4948 34.1387 32.834C34.7767 32.1732 35.6471 31.8405 36.75 31.8359C37.7936 31.8314 38.6071 32.1527 39.1904 32.7998C39.7783 33.4469 40.0723 34.3379 40.0723 35.4727C40.0723 36.5938 39.7555 37.4893 39.1221 38.1592C38.4932 38.8291 37.6478 39.1641 36.5859 39.1641ZM36.668 38.2207C37.3926 38.2207 37.9486 37.986 38.3359 37.5166C38.7279 37.0426 38.9238 36.375 38.9238 35.5137C38.9238 34.6341 38.7279 33.9596 38.3359 33.4902C37.944 33.0163 37.388 32.7793 36.668 32.7793C35.9479 32.7793 35.3783 33.0254 34.959 33.5176C34.5397 34.0098 34.3301 34.6842 34.3301 35.541C34.3301 36.3704 34.542 37.0244 34.9658 37.5029C35.3896 37.9814 35.957 38.2207 36.668 38.2207ZM46.6895 37.8105C46.4297 38.2617 46.0993 38.6012 45.6982 38.8291C45.3018 39.0524 44.8301 39.1641 44.2832 39.1641C43.4036 39.1641 42.6995 38.8519 42.1709 38.2275C41.6468 37.5986 41.3848 36.7441 41.3848 35.6641C41.3848 34.5065 41.6764 33.5791 42.2598 32.8818C42.8431 32.1846 43.6201 31.8359 44.5908 31.8359C45.0739 31.8359 45.4886 31.9316 45.835 32.123C46.1859 32.3099 46.4707 32.5924 46.6895 32.9707H46.7168V28.6367H47.8379V39H46.7168V37.8105H46.6895ZM42.5332 35.6094C42.5332 36.416 42.7201 37.054 43.0938 37.5234C43.472 37.9883 43.9779 38.2207 44.6113 38.2207C45.2402 38.2207 45.7484 37.9951 46.1357 37.5439C46.5231 37.0928 46.7168 36.5231 46.7168 35.835V34.8027C46.7168 34.2376 46.5277 33.7591 46.1494 33.3672C45.7757 32.9753 45.304 32.7793 44.7344 32.7793C44.0508 32.7793 43.513 33.0299 43.1211 33.5312C42.7292 34.0326 42.5332 34.7253 42.5332 35.6094ZM55.6787 32L52.377 40.333C52.1172 40.9893 51.7913 41.4792 51.3994 41.8027C51.0075 42.1309 50.5472 42.2949 50.0186 42.2949C49.8818 42.2949 49.7565 42.2858 49.6426 42.2676C49.5286 42.2539 49.4193 42.2334 49.3145 42.2061L49.5332 41.249C49.6152 41.2764 49.6904 41.2946 49.7588 41.3037C49.8317 41.3174 49.9023 41.3242 49.9707 41.3242C50.2715 41.3242 50.5199 41.2467 50.7158 41.0918C50.9163 40.9368 51.0758 40.7181 51.1943 40.4355L51.8027 38.9863L49.0684 32H50.3125L52.2061 37.3867C52.2152 37.4186 52.2311 37.4801 52.2539 37.5713C52.2812 37.6624 52.3132 37.7786 52.3496 37.9199H52.3906C52.4043 37.8652 52.4202 37.7946 52.4385 37.708C52.4613 37.6214 52.4909 37.5189 52.5273 37.4004L54.5166 32H55.6787Z" fill="black" fill-opacity="0.8956"/>
</svg>
