<svg width="1152" height="297" viewBox="0 0 1152 297" version="1.1" xmlns="http://www.w3.org/2000/svg" xmlns:xlink="http://www.w3.org/1999/xlink">
<title>accent-color-palette</title>
<desc>Created using Figma</desc>
<g id="Canvas" transform="translate(19456 -5873)">
<clipPath id="clip-0" clip-rule="evenodd">
<path d="M -19456 5873L -18304 5873L -18304 6170L -19456 6170L -19456 5873Z" fill="#FFFFFF"/>
</clipPath>
<g id="accent-color-palette" clip-path="url(#clip-0)">
<path d="M -19456 5873L -18304 5873L -18304 6170L -19456 6170L -19456 5873Z" fill="#EBEBEB"/>
<g id="Group">
<g id="Rectangle 34" filter="url(#filter0_d)">
<use xlink:href="#path0_fill" transform="translate(-18968 5945)" fill="#2D78D6"/>
</g>
<g id="Rectangle 34.1">
<use xlink:href="#path1_fill" transform="translate(-18811.6 5963.65)" fill="#3091E2"/>
</g>
<g id="Rectangle 34.4">
<use xlink:href="#path1_fill" transform="translate(-19085.8 5963.65)" fill="#1F5AA2"/>
</g>
<g id="Rectangle 34.5">
<use xlink:href="#path1_fill" transform="translate(-19204.8 5963.65)" fill="#123D70"/>
</g>
<g id="Rectangle 34.6">
<use xlink:href="#path1_fill" transform="translate(-19324 5963.65)" fill="#0B2F56"/>
</g>
<g id="Rectangle 34.2">
<use xlink:href="#path1_fill" transform="translate(-18692.4 5963.65)" fill="#5FAFEF"/>
</g>
<g id="Rectangle 34.3">
<use xlink:href="#path1_fill" transform="translate(-18573.2 5963.65)" fill="#91C5F0"/>
</g>
<g id="A">
<use xlink:href="#path2_fill" transform="translate(-18908.9 6001.98)" fill="#FFFFFF"/>
</g>
<g id="+1">
<use xlink:href="#path3_fill" transform="translate(-18767.3 6015.17)" fill="#FFFFFF"/>
<use xlink:href="#path4_fill" transform="translate(-18767.3 6015.17)" fill="#FFFFFF"/>
</g>
<g id="+2">
<use xlink:href="#path5_fill" transform="translate(-18652 6015.26)" fill="#FFFFFF"/>
<use xlink:href="#path6_fill" transform="translate(-18652 6015.26)" fill="#FFFFFF"/>
</g>
<g id="+3">
<use xlink:href="#path7_fill" transform="translate(-18529.5 6015.26)" fill="#FFFFFF"/>
<use xlink:href="#path8_fill" transform="translate(-18529.5 6015.26)" fill="#FFFFFF"/>
</g>
<g id="-3">
<use xlink:href="#path9_fill" transform="translate(-19276 6015.26)" fill="#FFFFFF"/>
<use xlink:href="#path10_fill" transform="translate(-19276 6015.26)" fill="#FFFFFF"/>
</g>
<g id="-2">
<use xlink:href="#path11_fill" transform="translate(-19156.9 6015.26)" fill="#FFFFFF"/>
<use xlink:href="#path12_fill" transform="translate(-19156.9 6015.26)" fill="#FFFFFF"/>
</g>
<g id="-1">
<use xlink:href="#path13_fill" transform="translate(-19033.9 6015.17)" fill="#FFFFFF"/>
<use xlink:href="#path14_fill" transform="translate(-19033.9 6015.17)" fill="#FFFFFF"/>
</g>
</g>
</g>
</g>
<defs>
<filter id="filter0_d" filterUnits="userSpaceOnUse" x="-18983" y="5933" width="187" height="187" color-interpolation-filters="sRGB">
<feFlood flood-opacity="0" result="BackgroundImageFix"/>
<feColorMatrix in="SourceAlpha" type="matrix" values="0 0 0 0 0 0 0 0 0 0 0 0 0 0 0 0 0 0 255 0"/>
<feOffset dx="0" dy="3"/>
<feGaussianBlur stdDeviation="7.5"/>
<feColorMatrix type="matrix" values="0 0 0 0 0 0 0 0 0 0 0 0 0 0 0 0 0 0 0.3 0"/>
<feBlend mode="normal" in2="BackgroundImageFix" result="effect1_dropShadow"/>
<feBlend mode="normal" in="SourceGraphic" in2="effect1_dropShadow" result="shape"/>
</filter>
<path id="path0_fill" d="M 0 0L 156.352 0L 156.352 157L 0 157L 0 0Z"/>
<path id="path1_fill" d="M 0 0L 119.199 0L 119.199 119.693L 0 119.693L 0 0Z"/>
<path id="path2_fill" d="M 39.7136 40.2911L 29.8343 40.2911L 26.9715 31.3282L 12.6578 31.3282L 9.82314 40.2911L 0 40.2911L 14.6505 0L 25.3998 0L 39.7136 40.2911ZM 24.8947 24.3601L 20.5725 10.8174C 20.2544 9.80586 20.0299 8.59769 19.8989 7.19284L 19.6744 7.19284C 19.5808 8.37292 19.3469 9.54362 18.9727 10.705L 14.5944 24.3601L 24.8947 24.3601Z"/>
<path id="path3_fill" d="M 10.8888 10.9122L 6.38505 10.9122L 6.38505 15.4209L 4.50374 15.4209L 4.50374 10.9122L 0 10.9122L 0 9.0288L 4.50374 9.0288L 4.50374 4.5087L 6.38505 4.5087L 6.38505 9.0288L 10.8888 9.0288L 10.8888 10.9122Z"/>
<path id="path4_fill" d="M 20.5462 0L 20.5462 16.7335L 17.9009 16.7335L 17.9009 3.24169C 17.4221 3.58413 16.9052 3.8771 16.3503 4.1206C 15.803 4.3565 15.1759 4.56577 14.469 4.7484L 14.469 2.48834C 14.9098 2.34376 15.3355 2.19157 15.746 2.03177C 16.1564 1.87196 16.5593 1.69314 16.9546 1.49529C 17.3574 1.29744 17.7603 1.07676 18.1632 0.833253C 18.5736 0.589745 18.9955 0.311995 19.4288 0L 20.5462 0Z"/>
<path id="path5_fill" d="M 10.8888 10.8209L 6.38504 10.8209L 6.38504 15.3296L 4.50374 15.3296L 4.50374 10.8209L 0 10.8209L 0 8.93749L 4.50374 8.93749L 4.50374 4.41738L 6.38504 4.41738L 6.38504 8.93749L 10.8888 8.93749L 10.8888 10.8209Z"/>
<path id="path6_fill" d="M 24.9131 16.6422L 14.6514 16.6422L 14.6514 15.3752C 14.6514 14.8578 14.7236 14.3746 14.868 13.9256C 15.0125 13.469 15.2063 13.0429 15.4495 12.6472C 15.6928 12.2439 15.9778 11.8672 16.3047 11.5171C 16.6315 11.1595 16.9812 10.8171 17.3536 10.4899C 17.7261 10.155 18.1062 9.83542 18.4938 9.53104C 18.8815 9.21905 19.2616 8.90705 19.634 8.59506C 19.9837 8.29828 20.3029 8.00912 20.5918 7.72756C 20.8806 7.4384 21.1277 7.14162 21.3329 6.83724C 21.5381 6.53285 21.6978 6.21325 21.8118 5.87843C 21.9258 5.53599 21.9828 5.16693 21.9828 4.77123C 21.9828 4.33748 21.9144 3.9608 21.7776 3.6412C 21.6483 3.31399 21.4621 3.04384 21.2189 2.83078C 20.9832 2.6101 20.702 2.44649 20.3751 2.33996C 20.0483 2.22581 19.691 2.16874 19.3034 2.16874C 18.6344 2.16874 17.9541 2.32474 17.2624 2.63673C 16.5707 2.94873 15.9056 3.41672 15.2671 4.0407L 15.2671 1.49529C 15.6016 1.24417 15.9398 1.0273 16.2819 0.844667C 16.6239 0.654427 16.9774 0.498429 17.3422 0.376676C 17.7071 0.247312 18.091 0.152193 18.4938 0.0913154C 18.8967 0.030438 19.3262 0 19.7822 0C 20.5196 0 21.1885 0.0989245 21.789 0.296775C 22.3895 0.487015 22.9025 0.772375 23.3282 1.15286C 23.7539 1.52573 24.0807 1.99372 24.3088 2.55683C 24.5444 3.11994 24.6622 3.76676 24.6622 4.49728C 24.6622 5.15932 24.5786 5.75667 24.4114 6.28935C 24.2518 6.81441 24.0199 7.30523 23.7159 7.76181C 23.4194 8.21838 23.0584 8.65213 22.6327 9.06305C 22.207 9.47397 21.732 9.8963 21.2075 10.33C 20.7666 10.6877 20.3257 11.0377 19.8849 11.3802C 19.4516 11.715 19.0601 12.046 18.7105 12.3732C 18.3608 12.6928 18.0758 13.0162 17.8553 13.3435C 17.6425 13.6631 17.5361 13.9865 17.5361 14.3137L 17.5361 14.3708L 24.9131 14.3708L 24.9131 16.6422Z"/>
<path id="path7_fill" d="M 10.8888 10.8209L 6.38504 10.8209L 6.38504 15.3296L 4.50374 15.3296L 4.50374 10.8209L 0 10.8209L 0 8.93749L 4.50374 8.93749L 4.50374 4.41738L 6.38504 4.41738L 6.38504 8.93749L 10.8888 8.93749L 10.8888 10.8209Z"/>
<path id="path8_fill" d="M 14.9364 16.0373L 14.9364 13.5489C 16.0006 14.3936 17.2016 14.8159 18.5394 14.8159C 19.6264 14.8159 20.493 14.5686 21.1391 14.074C 21.7928 13.5794 22.1196 12.9097 22.1196 12.065C 22.1196 10.2083 20.702 9.27992 17.8667 9.27992L 16.6011 9.27992L 16.6011 7.15684L 17.8097 7.15684C 20.3257 7.15684 21.5837 6.28174 21.5837 4.53152C 21.5837 2.91829 20.6032 2.11167 18.642 2.11167C 17.5475 2.11167 16.5175 2.50356 15.5521 3.28735L 15.5521 0.935982C 16.6619 0.311995 17.9731 0 19.4858 0C 20.9376 0 22.1006 0.365261 22.9748 1.09578C 23.8489 1.82631 24.286 2.76229 24.286 3.90373C 24.286 6.05725 23.1914 7.4422 21.0022 8.05858L 21.0022 8.10424C 22.1804 8.21838 23.1116 8.63311 23.7957 9.34841C 24.4798 10.0561 24.8219 10.9426 24.8219 12.008C 24.8219 13.4766 24.2708 14.6637 23.1686 15.5693C 22.0664 16.4672 20.6146 16.9162 18.8131 16.9162C 17.194 16.9162 15.9018 16.6232 14.9364 16.0373Z"/>
<path id="path9_fill" d="M 6.22542 11.2318L 0 11.2318L 0 9.27992L 6.22542 9.27992L 6.22542 11.2318Z"/>
<path id="path10_fill" d="M 9.1557 16.0373L 9.1557 13.5489C 10.2199 14.3936 11.4209 14.8159 12.7587 14.8159C 13.8457 14.8159 14.7122 14.5686 15.3583 14.074C 16.012 13.5794 16.3389 12.9097 16.3389 12.065C 16.3389 10.2083 14.9212 9.27992 12.086 9.27992L 10.8204 9.27992L 10.8204 7.15684L 12.029 7.15684C 14.545 7.15684 15.803 6.28174 15.803 4.53152C 15.803 2.91829 14.8224 2.11167 12.8613 2.11167C 11.7667 2.11167 10.7368 2.50356 9.7714 3.28735L 9.7714 0.935982C 10.8812 0.311995 12.1924 0 13.705 0C 15.1569 0 16.3199 0.365261 17.194 1.09578C 18.0682 1.82631 18.5052 2.76229 18.5052 3.90373C 18.5052 6.05725 17.4107 7.4422 15.2215 8.05858L 15.2215 8.10424C 16.3997 8.21838 17.3308 8.63311 18.0149 9.34841C 18.6991 10.0561 19.0411 10.9426 19.0411 12.008C 19.0411 13.4766 18.49 14.6637 17.3878 15.5693C 16.2857 16.4672 14.8338 16.9162 13.0323 16.9162C 11.4133 16.9162 10.1211 16.6232 9.1557 16.0373Z"/>
<path id="path11_fill" d="M 6.22542 11.2318L 0 11.2318L 0 9.27992L 6.22542 9.27992L 6.22542 11.2318Z"/>
<path id="path12_fill" d="M 19.1323 16.6422L 8.87065 16.6422L 8.87065 15.3752C 8.87065 14.8578 8.94286 14.3746 9.08729 13.9256C 9.23171 13.469 9.42554 13.0429 9.66878 12.6472C 9.91202 12.2439 10.1971 11.8672 10.5239 11.5171C 10.8508 11.1595 11.2004 10.8171 11.5729 10.4899C 11.9454 10.155 12.3254 9.83542 12.7131 9.53104C 13.1007 9.21905 13.4808 8.90705 13.8533 8.59506C 14.2029 8.29828 14.5222 8.00912 14.811 7.72756C 15.0999 7.4384 15.3469 7.14162 15.5521 6.83724C 15.7574 6.53285 15.917 6.21325 16.031 5.87843C 16.145 5.53599 16.2021 5.16693 16.2021 4.77123C 16.2021 4.33748 16.1336 3.9608 15.9968 3.6412C 15.8676 3.31399 15.6814 3.04384 15.4381 2.83078C 15.2025 2.6101 14.9212 2.44649 14.5944 2.33996C 14.2675 2.22581 13.9103 2.16874 13.5226 2.16874C 12.8537 2.16874 12.1734 2.32474 11.4817 2.63673C 10.79 2.94873 10.1249 3.41672 9.48635 4.0407L 9.48635 1.49529C 9.82081 1.24417 10.1591 1.0273 10.5011 0.844667C 10.8432 0.654427 11.1966 0.498429 11.5615 0.376676C 11.9264 0.247312 12.3102 0.152193 12.7131 0.0913154C 13.1159 0.030438 13.5454 0 14.0015 0C 14.7388 0 15.4077 0.0989245 16.0082 0.296775C 16.6087 0.487015 17.1218 0.772375 17.5475 1.15286C 17.9731 1.52573 18.3 1.99372 18.528 2.55683C 18.7637 3.11994 18.8815 3.76676 18.8815 4.49728C 18.8815 5.15932 18.7979 5.75667 18.6306 6.28935C 18.471 6.81441 18.2392 7.30523 17.9351 7.76181C 17.6387 8.21838 17.2776 8.65213 16.852 9.06305C 16.4263 9.47397 15.9512 9.8963 15.4267 10.33C 14.9859 10.6877 14.545 11.0377 14.1041 11.3802C 13.6708 11.715 13.2794 12.046 12.9297 12.3732C 12.5801 12.6928 12.295 13.0162 12.0746 13.3435C 11.8617 13.6631 11.7553 13.9865 11.7553 14.3137L 11.7553 14.3708L 19.1323 14.3708L 19.1323 16.6422Z"/>
<path id="path13_fill" d="M 6.22542 11.3231L 0 11.3231L 0 9.37124L 6.22542 9.37124L 6.22542 11.3231Z"/>
<path id="path14_fill" d="M 14.7654 0L 14.7654 16.7335L 12.1202 16.7335L 12.1202 3.24169C 11.6413 3.58413 11.1244 3.8771 10.5695 4.1206C 10.0222 4.3565 9.39514 4.56577 8.68822 4.7484L 8.68822 2.48834C 9.12909 2.34376 9.55476 2.19157 9.96523 2.03177C 10.3757 1.87196 10.7786 1.69314 11.1738 1.49529C 11.5767 1.29744 11.9796 1.07676 12.3824 0.833253C 12.7929 0.589745 13.2148 0.311995 13.648 0L 14.7654 0Z"/>
</defs>
</svg>
