<svg width="560" height="40" viewBox="0 0 560 40" version="1.1" xmlns="http://www.w3.org/2000/svg" xmlns:xlink="http://www.w3.org/1999/xlink">
<title>custom-accent</title>
<desc>Created using Figma</desc>
<g id="Canvas" transform="translate(-1080 724)">
<g id="custom-accent">
<path d="M 1080 -724L 1640 -724L 1640 -684L 1080 -684L 1080 -724Z" fill="#FFFFFF"/>
<g id="Rectangle 2">
<use xlink:href="#path0_fill" transform="translate(1080 -724)" fill="#CF90FF"/>
</g>
<g id="A">
<use xlink:href="#path1_fill" transform="translate(1091 -722)" fill="#FFFFFF"/>
</g>
<g id="Custom accent color">
<use xlink:href="#path2_fill" transform="translate(1132 -716)"/>
</g>
</g>
</g>
<defs>
<path id="path0_fill" d="M 0 0L 40 0L 40 40L 0 40L 0 0Z"/>
<path id="path1_fill" d="M 13.9688 25.4023C 12.7422 25.9961 11.1406 26.293 9.16406 26.293C 6.58594 26.293 4.55859 25.5352 3.08203 24.0195C 1.60547 22.5039 0.867188 20.4844 0.867188 17.9609C 0.867188 15.2734 1.69531 13.0938 3.35156 11.4219C 5.01562 9.75 7.17188 8.91406 9.82031 8.91406C 11.4609 8.91406 12.8438 9.12109 13.9688 9.53516L 13.9688 13.1797C 12.8438 12.5078 11.5625 12.1719 10.125 12.1719C 8.54688 12.1719 7.27344 12.668 6.30469 13.6602C 5.33594 14.6523 4.85156 15.9961 4.85156 17.6914C 4.85156 19.3164 5.30859 20.6133 6.22266 21.582C 7.13672 22.543 8.36719 23.0234 9.91406 23.0234C 11.3906 23.0234 12.7422 22.6641 13.9688 21.9453L 13.9688 25.4023Z"/>
<path id="path2_fill" d="M 9.3125 16.6016C 8.49479 16.9974 7.42708 17.1953 6.10938 17.1953C 4.39062 17.1953 3.03906 16.6901 2.05469 15.6797C 1.07031 14.6693 0.578125 13.3229 0.578125 11.6406C 0.578125 9.84896 1.13021 8.39583 2.23438 7.28125C 3.34375 6.16667 4.78125 5.60938 6.54688 5.60938C 7.64062 5.60938 8.5625 5.7474 9.3125 6.02344L 9.3125 8.45312C 8.5625 8.00521 7.70833 7.78125 6.75 7.78125C 5.69792 7.78125 4.84896 8.11198 4.20312 8.77344C 3.55729 9.4349 3.23438 10.3307 3.23438 11.4609C 3.23438 12.5443 3.53906 13.4089 4.14844 14.0547C 4.75781 14.6953 5.57812 15.0156 6.60938 15.0156C 7.59375 15.0156 8.49479 14.776 9.3125 14.2969L 9.3125 16.6016ZM 18.625 17L 16.1641 17L 16.1641 15.7812L 16.125 15.7812C 15.5156 16.724 14.7005 17.1953 13.6797 17.1953C 11.8255 17.1953 10.8984 16.0729 10.8984 13.8281L 10.8984 9L 13.3594 9L 13.3594 13.6094C 13.3594 14.7396 13.8073 15.3047 14.7031 15.3047C 15.1458 15.3047 15.5 15.151 15.7656 14.8438C 16.0312 14.5312 16.1641 14.1094 16.1641 13.5781L 16.1641 9L 18.625 9L 18.625 17ZM 20.1875 16.7891L 20.1875 14.7891C 20.5938 15.0339 20.9974 15.2161 21.3984 15.3359C 21.8047 15.4557 22.1875 15.5156 22.5469 15.5156C 22.9844 15.5156 23.3281 15.4557 23.5781 15.3359C 23.8333 15.2161 23.9609 15.0339 23.9609 14.7891C 23.9609 14.6328 23.9036 14.5026 23.7891 14.3984C 23.6745 14.2943 23.526 14.2031 23.3438 14.125C 23.1667 14.0469 22.9714 13.9766 22.7578 13.9141C 22.5443 13.8516 22.3385 13.7812 22.1406 13.7031C 21.8229 13.5833 21.5417 13.4557 21.2969 13.3203C 21.0573 13.1797 20.8542 13.0182 20.6875 12.8359C 20.526 12.6536 20.401 12.4427 20.3125 12.2031C 20.2292 11.9635 20.1875 11.6797 20.1875 11.3516C 20.1875 10.9036 20.2839 10.5182 20.4766 10.1953C 20.6745 9.8724 20.9349 9.60938 21.2578 9.40625C 21.5859 9.19792 21.9583 9.04688 22.375 8.95312C 22.7969 8.85417 23.2344 8.80469 23.6875 8.80469C 24.0417 8.80469 24.401 8.83333 24.7656 8.89062C 25.1302 8.94271 25.4896 9.02083 25.8438 9.125L 25.8438 11.0312C 25.5312 10.849 25.1953 10.7135 24.8359 10.625C 24.4818 10.5312 24.1328 10.4844 23.7891 10.4844C 23.6276 10.4844 23.474 10.5 23.3281 10.5312C 23.1875 10.5573 23.0625 10.599 22.9531 10.6562C 22.8438 10.7083 22.7578 10.7786 22.6953 10.8672C 22.6328 10.9505 22.6016 11.0469 22.6016 11.1562C 22.6016 11.3021 22.6484 11.4271 22.7422 11.5312C 22.8359 11.6354 22.9583 11.7266 23.1094 11.8047C 23.2604 11.8776 23.4271 11.9453 23.6094 12.0078C 23.7969 12.0651 23.9818 12.125 24.1641 12.1875C 24.4922 12.3021 24.7891 12.4271 25.0547 12.5625C 25.3203 12.6979 25.5469 12.8568 25.7344 13.0391C 25.9271 13.2214 26.0729 13.4349 26.1719 13.6797C 26.276 13.9245 26.3281 14.2161 26.3281 14.5547C 26.3281 15.0286 26.224 15.4349 26.0156 15.7734C 25.8125 16.1068 25.5391 16.3802 25.1953 16.5938C 24.8568 16.8021 24.4635 16.9531 24.0156 17.0469C 23.5729 17.1458 23.112 17.1953 22.6328 17.1953C 21.7526 17.1953 20.9375 17.0599 20.1875 16.7891ZM 32.5938 16.9062C 32.2292 17.099 31.6797 17.1953 30.9453 17.1953C 29.2057 17.1953 28.3359 16.2917 28.3359 14.4844L 28.3359 10.8203L 27.0391 10.8203L 27.0391 9L 28.3359 9L 28.3359 7.27344L 30.7969 6.57031L 30.7969 9L 32.5938 9L 32.5938 10.8203L 30.7969 10.8203L 30.7969 14.0547C 30.7969 14.888 31.1276 15.3047 31.7891 15.3047C 32.0495 15.3047 32.3177 15.2292 32.5938 15.0781L 32.5938 16.9062ZM 37.7422 17.1953C 36.4089 17.1953 35.3594 16.8229 34.5938 16.0781C 33.8333 15.3281 33.4531 14.3125 33.4531 13.0312C 33.4531 11.7083 33.849 10.6745 34.6406 9.92969C 35.4323 9.17969 36.5026 8.80469 37.8516 8.80469C 39.1797 8.80469 40.2214 9.17969 40.9766 9.92969C 41.7318 10.6745 42.1094 11.6615 42.1094 12.8906C 42.1094 14.2188 41.7188 15.2682 40.9375 16.0391C 40.1615 16.8099 39.0964 17.1953 37.7422 17.1953ZM 37.8047 10.6953C 37.2214 10.6953 36.7682 10.8958 36.4453 11.2969C 36.1224 11.6979 35.9609 12.2656 35.9609 13C 35.9609 14.5365 36.5807 15.3047 37.8203 15.3047C 39.0026 15.3047 39.5938 14.5156 39.5938 12.9375C 39.5938 11.4427 38.9974 10.6953 37.8047 10.6953ZM 56.4141 17L 53.9531 17L 53.9531 12.4375C 53.9531 11.276 53.526 10.6953 52.6719 10.6953C 52.2656 10.6953 51.9349 10.8698 51.6797 11.2188C 51.4245 11.5677 51.2969 12.0026 51.2969 12.5234L 51.2969 17L 48.8281 17L 48.8281 12.3906C 48.8281 11.2604 48.4089 10.6953 47.5703 10.6953C 47.1484 10.6953 46.8099 10.862 46.5547 11.1953C 46.3047 11.5286 46.1797 11.9818 46.1797 12.5547L 46.1797 17L 43.7109 17L 43.7109 9L 46.1797 9L 46.1797 10.25L 46.2109 10.25C 46.4661 9.82292 46.8229 9.47656 47.2812 9.21094C 47.7448 8.9401 48.25 8.80469 48.7969 8.80469C 49.9271 8.80469 50.7005 9.30208 51.1172 10.2969C 51.7266 9.30208 52.6224 8.80469 53.8047 8.80469C 55.5443 8.80469 56.4141 9.8776 56.4141 12.0234L 56.4141 17ZM 69.4453 17L 67.1094 17L 67.1094 15.8516L 67.0781 15.8516C 66.5417 16.7474 65.7474 17.1953 64.6953 17.1953C 63.9193 17.1953 63.3073 16.9766 62.8594 16.5391C 62.4167 16.0964 62.1953 15.5078 62.1953 14.7734C 62.1953 13.2214 63.1146 12.3255 64.9531 12.0859L 67.125 11.7969C 67.125 10.9219 66.651 10.4844 65.7031 10.4844C 64.75 10.4844 63.8438 10.7682 62.9844 11.3359L 62.9844 9.47656C 63.3281 9.29948 63.7969 9.14323 64.3906 9.00781C 64.9896 8.8724 65.5339 8.80469 66.0234 8.80469C 68.3047 8.80469 69.4453 9.94271 69.4453 12.2188L 69.4453 17ZM 67.125 13.75L 67.125 13.2109L 65.6719 13.3984C 64.8698 13.5026 64.4688 13.8646 64.4688 14.4844C 64.4688 14.7656 64.5651 14.9974 64.7578 15.1797C 64.9557 15.3568 65.2214 15.4453 65.5547 15.4453C 66.0182 15.4453 66.3958 15.2865 66.6875 14.9688C 66.9792 14.6458 67.125 14.2396 67.125 13.75ZM 77.4609 16.7109C 76.9036 17.0339 76.099 17.1953 75.0469 17.1953C 73.8177 17.1953 72.8229 16.8229 72.0625 16.0781C 71.3021 15.3333 70.9219 14.3724 70.9219 13.1953C 70.9219 11.8359 71.3281 10.7656 72.1406 9.98438C 72.9583 9.19792 74.0495 8.80469 75.4141 8.80469C 76.3568 8.80469 77.0391 8.92969 77.4609 9.17969L 77.4609 11.2734C 76.9453 10.888 76.3698 10.6953 75.7344 10.6953C 75.026 10.6953 74.4635 10.9036 74.0469 11.3203C 73.6354 11.7318 73.4297 12.3021 73.4297 13.0312C 73.4297 13.7396 73.6276 14.2969 74.0234 14.7031C 74.4193 15.1042 74.9635 15.3047 75.6562 15.3047C 76.2708 15.3047 76.8724 15.112 77.4609 14.7266L 77.4609 16.7109ZM 85.1484 16.7109C 84.5911 17.0339 83.7865 17.1953 82.7344 17.1953C 81.5052 17.1953 80.5104 16.8229 79.75 16.0781C 78.9896 15.3333 78.6094 14.3724 78.6094 13.1953C 78.6094 11.8359 79.0156 10.7656 79.8281 9.98438C 80.6458 9.19792 81.737 8.80469 83.1016 8.80469C 84.0443 8.80469 84.7266 8.92969 85.1484 9.17969L 85.1484 11.2734C 84.6328 10.888 84.0573 10.6953 83.4219 10.6953C 82.7135 10.6953 82.151 10.9036 81.7344 11.3203C 81.3229 11.7318 81.1172 12.3021 81.1172 13.0312C 81.1172 13.7396 81.3151 14.2969 81.7109 14.7031C 82.1068 15.1042 82.651 15.3047 83.3438 15.3047C 83.9583 15.3047 84.5599 15.112 85.1484 14.7266L 85.1484 16.7109ZM 93.9609 13.7031L 88.7422 13.7031C 88.8255 14.8646 89.5573 15.4453 90.9375 15.4453C 91.8177 15.4453 92.5911 15.237 93.2578 14.8203L 93.2578 16.6016C 92.5182 16.9974 91.5573 17.1953 90.375 17.1953C 89.0833 17.1953 88.0807 16.8385 87.3672 16.125C 86.6536 15.4062 86.2969 14.4062 86.2969 13.125C 86.2969 11.7969 86.6823 10.7448 87.4531 9.96875C 88.224 9.19271 89.1719 8.80469 90.2969 8.80469C 91.4635 8.80469 92.3646 9.15104 93 9.84375C 93.6406 10.5365 93.9609 11.4766 93.9609 12.6641L 93.9609 13.7031ZM 91.6719 12.1875C 91.6719 11.0417 91.2083 10.4688 90.2812 10.4688C 89.8854 10.4688 89.5417 10.6328 89.25 10.9609C 88.9635 11.2891 88.7891 11.6979 88.7266 12.1875L 91.6719 12.1875ZM 103.156 17L 100.695 17L 100.695 12.5547C 100.695 11.3151 100.253 10.6953 99.3672 10.6953C 98.9401 10.6953 98.5885 10.8594 98.3125 11.1875C 98.0365 11.5156 97.8984 11.9323 97.8984 12.4375L 97.8984 17L 95.4297 17L 95.4297 9L 97.8984 9L 97.8984 10.2656L 97.9297 10.2656C 98.5182 9.29167 99.375 8.80469 100.5 8.80469C 102.271 8.80469 103.156 9.90365 103.156 12.1016L 103.156 17ZM 109.953 16.9062C 109.589 17.099 109.039 17.1953 108.305 17.1953C 106.565 17.1953 105.695 16.2917 105.695 14.4844L 105.695 10.8203L 104.398 10.8203L 104.398 9L 105.695 9L 105.695 7.27344L 108.156 6.57031L 108.156 9L 109.953 9L 109.953 10.8203L 108.156 10.8203L 108.156 14.0547C 108.156 14.888 108.487 15.3047 109.148 15.3047C 109.409 15.3047 109.677 15.2292 109.953 15.0781L 109.953 16.9062ZM 121.836 16.7109C 121.279 17.0339 120.474 17.1953 119.422 17.1953C 118.193 17.1953 117.198 16.8229 116.438 16.0781C 115.677 15.3333 115.297 14.3724 115.297 13.1953C 115.297 11.8359 115.703 10.7656 116.516 9.98438C 117.333 9.19792 118.424 8.80469 119.789 8.80469C 120.732 8.80469 121.414 8.92969 121.836 9.17969L 121.836 11.2734C 121.32 10.888 120.745 10.6953 120.109 10.6953C 119.401 10.6953 118.839 10.9036 118.422 11.3203C 118.01 11.7318 117.805 12.3021 117.805 13.0312C 117.805 13.7396 118.003 14.2969 118.398 14.7031C 118.794 15.1042 119.339 15.3047 120.031 15.3047C 120.646 15.3047 121.247 15.112 121.836 14.7266L 121.836 16.7109ZM 127.273 17.1953C 125.94 17.1953 124.891 16.8229 124.125 16.0781C 123.365 15.3281 122.984 14.3125 122.984 13.0312C 122.984 11.7083 123.38 10.6745 124.172 9.92969C 124.964 9.17969 126.034 8.80469 127.383 8.80469C 128.711 8.80469 129.753 9.17969 130.508 9.92969C 131.263 10.6745 131.641 11.6615 131.641 12.8906C 131.641 14.2188 131.25 15.2682 130.469 16.0391C 129.693 16.8099 128.628 17.1953 127.273 17.1953ZM 127.336 10.6953C 126.753 10.6953 126.299 10.8958 125.977 11.2969C 125.654 11.6979 125.492 12.2656 125.492 13C 125.492 14.5365 126.112 15.3047 127.352 15.3047C 128.534 15.3047 129.125 14.5156 129.125 12.9375C 129.125 11.4427 128.529 10.6953 127.336 10.6953ZM 135.711 17L 133.242 17L 133.242 5.15625L 135.711 5.15625L 135.711 17ZM 141.602 17.1953C 140.268 17.1953 139.219 16.8229 138.453 16.0781C 137.693 15.3281 137.312 14.3125 137.312 13.0312C 137.312 11.7083 137.708 10.6745 138.5 9.92969C 139.292 9.17969 140.362 8.80469 141.711 8.80469C 143.039 8.80469 144.081 9.17969 144.836 9.92969C 145.591 10.6745 145.969 11.6615 145.969 12.8906C 145.969 14.2188 145.578 15.2682 144.797 16.0391C 144.021 16.8099 142.956 17.1953 141.602 17.1953ZM 141.664 10.6953C 141.081 10.6953 140.628 10.8958 140.305 11.2969C 139.982 11.6979 139.82 12.2656 139.82 13C 139.82 14.5365 140.44 15.3047 141.68 15.3047C 142.862 15.3047 143.453 14.5156 143.453 12.9375C 143.453 11.4427 142.857 10.6953 141.664 10.6953ZM 152.789 11.2266C 152.492 11.0651 152.146 10.9844 151.75 10.9844C 151.214 10.9844 150.794 11.1823 150.492 11.5781C 150.19 11.9688 150.039 12.5026 150.039 13.1797L 150.039 17L 147.57 17L 147.57 9L 150.039 9L 150.039 10.4844L 150.07 10.4844C 150.461 9.40104 151.164 8.85938 152.18 8.85938C 152.44 8.85938 152.643 8.89062 152.789 8.95312L 152.789 11.2266Z"/>
</defs>
</svg>
