<svg width="1920" height="846" viewBox="0 0 1920 846" version="1.1" xmlns="http://www.w3.org/2000/svg" xmlns:xlink="http://www.w3.org/1999/xlink">
<title>list-view</title>
<desc>Created using Figma</desc>
<g id="Canvas" transform="translate(21568 -3739)">
<clipPath id="clip-0" clip-rule="evenodd">
<path d="M -21568 3739L -19648 3739L -19648 4585L -21568 4585L -21568 3739Z" fill="#FFFFFF"/>
</clipPath>
<g id="list-view" clip-path="url(#clip-0)">
<path d="M -21568 3739L -19648 3739L -19648 4585L -21568 4585L -21568 3739Z" fill="#FFFFFF"/>
<g id="Rectangle 2">
<use xlink:href="#path0_fill" transform="translate(-21568 3739)" fill="#FFFFFF"/>
<mask id="mask0_outline_ins">
<use xlink:href="#path0_fill" fill="white" transform="translate(-21568 3739)"/>
</mask>
<g mask="url(#mask0_outline_ins)">
<use xlink:href="#path1_stroke_2x" transform="translate(-21568 3739)" fill="#B8B8B8"/>
</g>
</g>
<g id="Rectangle">
<use xlink:href="#path2_fill" transform="translate(-20608 3739)"/>
</g>
<g id="Group 3">
<g id="Group 2.1">
<g id="Ellipse">
<use xlink:href="#path3_fill" transform="translate(-21415 3894)" fill="#C4C4C4"/>
</g>
<g id="Johann Sebastian Bach">
<use xlink:href="#path4_fill" transform="translate(-21231 3965)" fill="#9B9B9B"/>
</g>
<g id="Third Symphony">
<use xlink:href="#path5_fill" transform="translate(-21231 4103)"/>
</g>
<g id="Ludwig van Beethoven">
<use xlink:href="#path6_fill" transform="translate(-21231 4163)" fill="#9B9B9B"/>
</g>
<g id="Serse">
<use xlink:href="#path7_fill" transform="translate(-21231 4299)"/>
</g>
<g id="George Frideric Handel">
<use xlink:href="#path8_fill" transform="translate(-21231 4361)" fill="#9B9B9B"/>
</g>
</g>
<g id="Ellipse">
<use xlink:href="#path3_fill" transform="translate(-21415 3894)" fill="#C4C4C4"/>
</g>
<g id="Ellipse">
<use xlink:href="#path3_fill" transform="translate(-21415 4092)" fill="#C4C4C4"/>
</g>
<g id="Ellipse">
<use xlink:href="#path3_fill" transform="translate(-21415 4288)" fill="#C4C4C4"/>
</g>
<g id="Mass in B minor">
<use xlink:href="#path9_fill" transform="translate(-21231 3903)"/>
</g>
</g>
<g id="Group 2">
<g id="Ellipse">
<use xlink:href="#path3_fill" transform="translate(-20430 3892)" fill="#C4C4C4"/>
</g>
<g id="Ellipse">
<use xlink:href="#path3_fill" transform="translate(-20430 4090)" fill="#C4C4C4"/>
</g>
<g id="Ellipse">
<use xlink:href="#path3_fill" transform="translate(-20430 4286)" fill="#C4C4C4"/>
</g>
<g id="Second line of text">
<use xlink:href="#path10_fill" transform="translate(-20246 3963)" fill="#9B9B9B"/>
</g>
<g id="Double line list item">
<use xlink:href="#path11_fill" transform="translate(-20246 4101)" fill="#F2F2F2"/>
</g>
<g id="Second line of text">
<use xlink:href="#path10_fill" transform="translate(-20246 4161)" fill="#9B9B9B"/>
</g>
<g id="Double line list item">
<use xlink:href="#path11_fill" transform="translate(-20246 4297)" fill="#F2F2F2"/>
</g>
<g id="Second line of text">
<use xlink:href="#path10_fill" transform="translate(-20246 4359)" fill="#9B9B9B"/>
</g>
<g id="Double line list item">
<use xlink:href="#path11_fill" transform="translate(-20247 3902)" fill="#F2F2F2"/>
</g>
</g>
</g>
</g>
<defs>
<path id="path0_fill" d="M 0 0L 1920 0L 1920 846L 0 846L 0 0Z"/>
<path id="path1_stroke_2x" d="M 0 0L 0 -1L -1 -1L -1 0L 0 0ZM 1920 0L 1921 0L 1921 -1L 1920 -1L 1920 0ZM 1920 846L 1920 847L 1921 847L 1921 846L 1920 846ZM 0 846L -1 846L -1 847L 0 847L 0 846ZM 0 1L 1920 1L 1920 -1L 0 -1L 0 1ZM 1919 0L 1919 846L 1921 846L 1921 0L 1919 0ZM 1920 845L 0 845L 0 847L 1920 847L 1920 845ZM 1 846L 1 0L -1 0L -1 846L 1 846Z"/>
<path id="path2_fill" d="M 0 0L 960 0L 960 1080L 0 1080L 0 0Z"/>
<path id="path3_fill" d="M 144 72C 144 111.765 111.765 144 72 144C 32.2355 144 0 111.765 0 72C 0 32.2355 32.2355 0 72 0C 111.765 0 144 32.2355 144 72Z"/>
<path id="path4_fill" d="M 12.4658 38.4551C 12.4658 42.2734 11.6572 45.2458 10.04 47.3721C 8.42285 49.4834 6.25911 50.5391 3.54883 50.5391C 2.29102 50.5391 1.25781 50.3594 0.449219 50L 0.449219 46.2715C 1.25781 46.8555 2.30599 47.1475 3.59375 47.1475C 6.99284 47.1475 8.69238 44.265 8.69238 38.5L 8.69238 17.791L 12.4658 17.791L 12.4658 38.4551ZM 29.7832 50.5391C 26.3841 50.5391 23.6663 49.4684 21.6299 47.3271C 19.6084 45.1709 18.5977 42.3184 18.5977 38.7695C 18.5977 34.9062 19.6533 31.889 21.7646 29.7178C 23.876 27.5465 26.7285 26.4609 30.3223 26.4609C 33.7513 26.4609 36.4242 27.5166 38.3408 29.6279C 40.2725 31.7393 41.2383 34.6667 41.2383 38.4102C 41.2383 42.0788 40.1976 45.0212 38.1162 47.2373C 36.0498 49.4385 33.2721 50.5391 29.7832 50.5391ZM 30.0527 29.5605C 27.6868 29.5605 25.8151 30.3691 24.4375 31.9863C 23.0599 33.5885 22.3711 35.8047 22.3711 38.6348C 22.3711 41.36 23.0674 43.5088 24.46 45.0811C 25.8525 46.6533 27.7168 47.4395 30.0527 47.4395C 32.4336 47.4395 34.2604 46.6683 35.5332 45.126C 36.821 43.5837 37.4648 41.39 37.4648 38.5449C 37.4648 35.6699 36.821 33.4538 35.5332 31.8965C 34.2604 30.3392 32.4336 29.5605 30.0527 29.5605ZM 66.2148 50L 62.5312 50L 62.5312 36.748C 62.5312 31.9564 60.7493 29.5605 57.1855 29.5605C 55.3887 29.5605 53.8763 30.2568 52.6484 31.6494C 51.4206 33.027 50.8066 34.8014 50.8066 36.9727L 50.8066 50L 47.123 50L 47.123 15.9492L 50.8066 15.9492L 50.8066 30.8184L 50.8965 30.8184C 52.6634 27.9134 55.179 26.4609 58.4434 26.4609C 63.6243 26.4609 66.2148 29.583 66.2148 35.8271L 66.2148 50ZM 89.6416 50L 85.958 50L 85.958 46.4062L 85.8682 46.4062C 84.266 49.1615 81.9076 50.5391 78.793 50.5391C 76.502 50.5391 74.7051 49.9326 73.4023 48.7197C 72.1146 47.5068 71.4707 45.8971 71.4707 43.8906C 71.4707 39.5931 74.0013 37.0924 79.0625 36.3887L 85.958 35.4229C 85.958 31.5146 84.3783 29.5605 81.2188 29.5605C 78.4486 29.5605 75.9479 30.5039 73.7168 32.3906L 73.7168 28.6172C 75.9779 27.1797 78.5833 26.4609 81.5332 26.4609C 86.9388 26.4609 89.6416 29.321 89.6416 35.041L 89.6416 50ZM 85.958 38.3652L 80.4102 39.1289C 78.7031 39.3685 77.4154 39.7952 76.5469 40.4092C 75.6784 41.0081 75.2441 42.0788 75.2441 43.6211C 75.2441 44.7441 75.641 45.665 76.4346 46.3838C 77.2432 47.0876 78.3138 47.4395 79.6465 47.4395C 81.4733 47.4395 82.9782 46.8031 84.1611 45.5303C 85.359 44.2425 85.958 42.6178 85.958 40.6562L 85.958 38.3652ZM 115.674 50L 111.99 50L 111.99 36.8828C 111.99 32.0013 110.208 29.5605 106.645 29.5605C 104.803 29.5605 103.275 30.2568 102.062 31.6494C 100.865 33.027 100.266 34.7715 100.266 36.8828L 100.266 50L 96.582 50L 96.582 27L 100.266 27L 100.266 30.8184L 100.355 30.8184C 102.092 27.9134 104.608 26.4609 107.902 26.4609C 110.418 26.4609 112.342 27.277 113.675 28.9092C 115.007 30.5264 115.674 32.8698 115.674 35.9395L 115.674 50ZM 141.729 50L 138.045 50L 138.045 36.8828C 138.045 32.0013 136.263 29.5605 132.699 29.5605C 130.857 29.5605 129.33 30.2568 128.117 31.6494C 126.919 33.027 126.32 34.7715 126.32 36.8828L 126.32 50L 122.637 50L 122.637 27L 126.32 27L 126.32 30.8184L 126.41 30.8184C 128.147 27.9134 130.663 26.4609 133.957 26.4609C 136.473 26.4609 138.397 27.277 139.729 28.9092C 141.062 30.5264 141.729 32.8698 141.729 35.9395L 141.729 50ZM 160.304 48.6973L 160.304 44.25C 160.813 44.6992 161.419 45.1035 162.123 45.4629C 162.842 45.8223 163.59 46.1292 164.369 46.3838C 165.163 46.6234 165.956 46.8105 166.75 46.9453C 167.544 47.0801 168.277 47.1475 168.951 47.1475C 171.272 47.1475 173.002 46.7207 174.14 45.8672C 175.293 44.9987 175.869 43.7559 175.869 42.1387C 175.869 41.2702 175.674 40.514 175.285 39.8701C 174.911 39.2262 174.387 38.6423 173.713 38.1182C 173.039 37.5791 172.238 37.07 171.31 36.5908C 170.396 36.0967 169.408 35.5801 168.345 35.041C 167.222 34.472 166.174 33.8955 165.2 33.3115C 164.227 32.7275 163.381 32.0837 162.662 31.3799C 161.943 30.6761 161.374 29.8825 160.955 28.999C 160.551 28.1006 160.349 27.0524 160.349 25.8545C 160.349 24.387 160.671 23.1143 161.314 22.0361C 161.958 20.943 162.804 20.0446 163.853 19.3408C 164.901 18.637 166.091 18.113 167.424 17.7686C 168.771 17.4242 170.142 17.252 171.534 17.252C 174.709 17.252 177.022 17.6338 178.475 18.3975L 178.475 22.6426C 176.573 21.3249 174.132 20.666 171.152 20.666C 170.329 20.666 169.505 20.7559 168.682 20.9355C 167.858 21.1003 167.124 21.3773 166.48 21.7666C 165.837 22.1559 165.312 22.6576 164.908 23.2715C 164.504 23.8854 164.302 24.6341 164.302 25.5176C 164.302 26.3411 164.451 27.0524 164.751 27.6514C 165.065 28.2503 165.522 28.7969 166.121 29.291C 166.72 29.7852 167.446 30.2643 168.3 30.7285C 169.168 31.1927 170.164 31.7018 171.287 32.2559C 172.44 32.8249 173.533 33.4238 174.566 34.0527C 175.6 34.6816 176.506 35.3779 177.284 36.1416C 178.063 36.9053 178.677 37.7513 179.126 38.6797C 179.59 39.6081 179.822 40.6712 179.822 41.8691C 179.822 43.4564 179.508 44.804 178.879 45.9121C 178.265 47.0052 177.426 47.8962 176.363 48.585C 175.315 49.2738 174.102 49.7679 172.725 50.0674C 171.347 50.3818 169.895 50.5391 168.367 50.5391C 167.858 50.5391 167.229 50.4941 166.48 50.4043C 165.732 50.3294 164.968 50.2096 164.189 50.0449C 163.411 49.8952 162.67 49.708 161.966 49.4834C 161.277 49.2438 160.723 48.9818 160.304 48.6973ZM 204.237 39.4209L 187.998 39.4209C 188.058 41.9814 188.747 43.958 190.064 45.3506C 191.382 46.7432 193.194 47.4395 195.5 47.4395C 198.09 47.4395 200.471 46.5859 202.643 44.8789L 202.643 48.3379C 200.621 49.8053 197.948 50.5391 194.624 50.5391C 191.375 50.5391 188.822 49.4984 186.965 47.417C 185.108 45.3206 184.18 42.3783 184.18 38.5898C 184.18 35.0111 185.19 32.0986 187.212 29.8525C 189.248 27.5915 191.771 26.4609 194.781 26.4609C 197.791 26.4609 200.119 27.4342 201.767 29.3809C 203.414 31.3275 204.237 34.0303 204.237 37.4893L 204.237 39.4209ZM 200.464 36.2988C 200.449 34.1725 199.932 32.5179 198.914 31.335C 197.911 30.152 196.511 29.5605 194.714 29.5605C 192.977 29.5605 191.502 30.182 190.289 31.4248C 189.076 32.6676 188.327 34.2923 188.043 36.2988L 200.464 36.2988ZM 213.604 46.6758L 213.514 46.6758L 213.514 50L 209.83 50L 209.83 15.9492L 213.514 15.9492L 213.514 31.043L 213.604 31.043C 215.415 27.9883 218.066 26.4609 221.555 26.4609C 224.505 26.4609 226.811 27.4941 228.473 29.5605C 230.15 31.612 230.988 34.3672 230.988 37.8262C 230.988 41.6745 230.052 44.7591 228.181 47.0801C 226.309 49.3861 223.748 50.5391 220.499 50.5391C 217.459 50.5391 215.161 49.2513 213.604 46.6758ZM 213.514 37.3994L 213.514 40.6113C 213.514 42.513 214.128 44.1302 215.355 45.4629C 216.598 46.7806 218.171 47.4395 220.072 47.4395C 222.303 47.4395 224.048 46.5859 225.306 44.8789C 226.578 43.1719 227.215 40.7985 227.215 37.7588C 227.215 35.1982 226.623 33.1917 225.44 31.7393C 224.257 30.2868 222.655 29.5605 220.634 29.5605C 218.493 29.5605 216.771 30.3092 215.468 31.8066C 214.165 33.2891 213.514 35.1533 213.514 37.3994ZM 253.337 50L 249.653 50L 249.653 46.4062L 249.563 46.4062C 247.961 49.1615 245.603 50.5391 242.488 50.5391C 240.197 50.5391 238.4 49.9326 237.098 48.7197C 235.81 47.5068 235.166 45.8971 235.166 43.8906C 235.166 39.5931 237.697 37.0924 242.758 36.3887L 249.653 35.4229C 249.653 31.5146 248.074 29.5605 244.914 29.5605C 242.144 29.5605 239.643 30.5039 237.412 32.3906L 237.412 28.6172C 239.673 27.1797 242.279 26.4609 245.229 26.4609C 250.634 26.4609 253.337 29.321 253.337 35.041L 253.337 50ZM 249.653 38.3652L 244.105 39.1289C 242.398 39.3685 241.111 39.7952 240.242 40.4092C 239.374 41.0081 238.939 42.0788 238.939 43.6211C 238.939 44.7441 239.336 45.665 240.13 46.3838C 240.938 47.0876 242.009 47.4395 243.342 47.4395C 245.169 47.4395 246.674 46.8031 247.856 45.5303C 249.054 44.2425 249.653 42.6178 249.653 40.6562L 249.653 38.3652ZM 258.885 49.1689L 258.885 45.2158C 260.891 46.6982 263.1 47.4395 265.511 47.4395C 268.745 47.4395 270.362 46.3613 270.362 44.2051C 270.362 43.5911 270.22 43.0745 269.936 42.6553C 269.666 42.221 269.292 41.8392 268.812 41.5098C 268.348 41.1803 267.794 40.8883 267.15 40.6338C 266.521 40.3643 265.84 40.0872 265.106 39.8027C 264.088 39.3984 263.19 38.9941 262.411 38.5898C 261.647 38.1706 261.004 37.7064 260.479 37.1973C 259.97 36.6732 259.581 36.0817 259.312 35.4229C 259.057 34.764 258.93 33.9928 258.93 33.1094C 258.93 32.0312 259.177 31.0804 259.671 30.2568C 260.165 29.4183 260.824 28.722 261.647 28.168C 262.471 27.599 263.407 27.1722 264.455 26.8877C 265.518 26.6032 266.611 26.4609 267.734 26.4609C 269.726 26.4609 271.508 26.8053 273.08 27.4941L 273.08 31.2227C 271.388 30.1146 269.441 29.5605 267.24 29.5605C 266.551 29.5605 265.93 29.6429 265.376 29.8076C 264.822 29.9574 264.343 30.1745 263.938 30.459C 263.549 30.7435 263.242 31.0879 263.018 31.4922C 262.808 31.8815 262.703 32.3158 262.703 32.7949C 262.703 33.3939 262.808 33.8955 263.018 34.2998C 263.242 34.7041 263.564 35.0635 263.983 35.3779C 264.403 35.6924 264.912 35.9769 265.511 36.2314C 266.11 36.486 266.791 36.763 267.555 37.0625C 268.573 37.4518 269.486 37.8561 270.295 38.2754C 271.104 38.6797 271.792 39.1439 272.361 39.668C 272.93 40.1771 273.365 40.7686 273.664 41.4424C 273.979 42.1162 274.136 42.9173 274.136 43.8457C 274.136 44.9837 273.881 45.972 273.372 46.8105C 272.878 47.6491 272.212 48.3454 271.373 48.8994C 270.535 49.4535 269.569 49.8652 268.476 50.1348C 267.382 50.4043 266.237 50.5391 265.039 50.5391C 262.673 50.5391 260.622 50.0824 258.885 49.1689ZM 290.487 49.7754C 289.619 50.2546 288.473 50.4941 287.051 50.4941C 283.023 50.4941 281.009 48.248 281.009 43.7559L 281.009 30.1445L 277.056 30.1445L 277.056 27L 281.009 27L 281.009 21.3848L 284.692 20.1943L 284.692 27L 290.487 27L 290.487 30.1445L 284.692 30.1445L 284.692 43.1045C 284.692 44.6468 284.954 45.7474 285.479 46.4062C 286.003 47.0651 286.871 47.3945 288.084 47.3945C 289.012 47.3945 289.813 47.14 290.487 46.6309L 290.487 49.7754ZM 297.293 21.1602C 296.634 21.1602 296.073 20.9355 295.608 20.4863C 295.144 20.0371 294.912 19.4681 294.912 18.7793C 294.912 18.0905 295.144 17.5215 295.608 17.0723C 296.073 16.6081 296.634 16.376 297.293 16.376C 297.967 16.376 298.536 16.6081 299 17.0723C 299.479 17.5215 299.719 18.0905 299.719 18.7793C 299.719 19.4382 299.479 19.9997 299 20.4639C 298.536 20.9281 297.967 21.1602 297.293 21.1602ZM 299.09 50L 295.406 50L 295.406 27L 299.09 27L 299.09 50ZM 323.011 50L 319.327 50L 319.327 46.4062L 319.237 46.4062C 317.635 49.1615 315.277 50.5391 312.162 50.5391C 309.871 50.5391 308.074 49.9326 306.771 48.7197C 305.484 47.5068 304.84 45.8971 304.84 43.8906C 304.84 39.5931 307.37 37.0924 312.432 36.3887L 319.327 35.4229C 319.327 31.5146 317.747 29.5605 314.588 29.5605C 311.818 29.5605 309.317 30.5039 307.086 32.3906L 307.086 28.6172C 309.347 27.1797 311.952 26.4609 314.902 26.4609C 320.308 26.4609 323.011 29.321 323.011 35.041L 323.011 50ZM 319.327 38.3652L 313.779 39.1289C 312.072 39.3685 310.785 39.7952 309.916 40.4092C 309.048 41.0081 308.613 42.0788 308.613 43.6211C 308.613 44.7441 309.01 45.665 309.804 46.3838C 310.612 47.0876 311.683 47.4395 313.016 47.4395C 314.842 47.4395 316.347 46.8031 317.53 45.5303C 318.728 44.2425 319.327 42.6178 319.327 40.6562L 319.327 38.3652ZM 349.043 50L 345.359 50L 345.359 36.8828C 345.359 32.0013 343.577 29.5605 340.014 29.5605C 338.172 29.5605 336.645 30.2568 335.432 31.6494C 334.234 33.027 333.635 34.7715 333.635 36.8828L 333.635 50L 329.951 50L 329.951 27L 333.635 27L 333.635 30.8184L 333.725 30.8184C 335.462 27.9134 337.977 26.4609 341.271 26.4609C 343.787 26.4609 345.711 27.277 347.044 28.9092C 348.377 30.5264 349.043 32.8698 349.043 35.9395L 349.043 50ZM 369.123 50L 369.123 17.791L 378.287 17.791C 381.072 17.791 383.281 18.4723 384.913 19.835C 386.545 21.1976 387.361 22.972 387.361 25.1582C 387.361 26.985 386.867 28.5723 385.879 29.9199C 384.891 31.2676 383.528 32.2259 381.791 32.7949L 381.791 32.8848C 383.962 33.1393 385.699 33.9629 387.002 35.3555C 388.305 36.7331 388.956 38.5299 388.956 40.7461C 388.956 43.5013 387.968 45.7324 385.991 47.4395C 384.015 49.1465 381.521 50 378.512 50L 369.123 50ZM 372.896 21.2051L 372.896 31.6045L 376.76 31.6045C 378.826 31.6045 380.451 31.1104 381.634 30.1221C 382.817 29.1188 383.408 27.7113 383.408 25.8994C 383.408 22.7699 381.349 21.2051 377.231 21.2051L 372.896 21.2051ZM 372.896 34.9961L 372.896 46.5859L 378.018 46.5859C 380.234 46.5859 381.948 46.0618 383.161 45.0137C 384.389 43.9655 385.003 42.528 385.003 40.7012C 385.003 36.8978 382.412 34.9961 377.231 34.9961L 372.896 34.9961ZM 411.462 50L 407.778 50L 407.778 46.4062L 407.688 46.4062C 406.086 49.1615 403.728 50.5391 400.613 50.5391C 398.322 50.5391 396.525 49.9326 395.223 48.7197C 393.935 47.5068 393.291 45.8971 393.291 43.8906C 393.291 39.5931 395.822 37.0924 400.883 36.3887L 407.778 35.4229C 407.778 31.5146 406.199 29.5605 403.039 29.5605C 400.269 29.5605 397.768 30.5039 395.537 32.3906L 395.537 28.6172C 397.798 27.1797 400.404 26.4609 403.354 26.4609C 408.759 26.4609 411.462 29.321 411.462 35.041L 411.462 50ZM 407.778 38.3652L 402.23 39.1289C 400.523 39.3685 399.236 39.7952 398.367 40.4092C 397.499 41.0081 397.064 42.0788 397.064 43.6211C 397.064 44.7441 397.461 45.665 398.255 46.3838C 399.063 47.0876 400.134 47.4395 401.467 47.4395C 403.294 47.4395 404.799 46.8031 405.981 45.5303C 407.179 44.2425 407.778 42.6178 407.778 40.6562L 407.778 38.3652ZM 434.08 48.9443C 432.313 50.0075 430.217 50.5391 427.791 50.5391C 424.512 50.5391 421.861 49.4759 419.84 47.3496C 417.833 45.2083 416.83 42.4382 416.83 39.0391C 416.83 35.2507 417.916 32.2109 420.087 29.9199C 422.258 27.6139 425.156 26.4609 428.779 26.4609C 430.801 26.4609 432.583 26.8353 434.125 27.584L 434.125 31.3574C 432.418 30.1595 430.591 29.5605 428.645 29.5605C 426.294 29.5605 424.362 30.4066 422.85 32.0986C 421.352 33.7757 420.604 35.9844 420.604 38.7246C 420.604 41.4199 421.307 43.5462 422.715 45.1035C 424.137 46.6608 426.039 47.4395 428.42 47.4395C 430.426 47.4395 432.313 46.7731 434.08 45.4404L 434.08 48.9443ZM 458.742 50L 455.059 50L 455.059 36.748C 455.059 31.9564 453.277 29.5605 449.713 29.5605C 447.916 29.5605 446.404 30.2568 445.176 31.6494C 443.948 33.027 443.334 34.8014 443.334 36.9727L 443.334 50L 439.65 50L 439.65 15.9492L 443.334 15.9492L 443.334 30.8184L 443.424 30.8184C 445.191 27.9134 447.706 26.4609 450.971 26.4609C 456.152 26.4609 458.742 29.583 458.742 35.8271L 458.742 50Z"/>
<path id="path5_fill" d="M 24.6396 22.3281L 15.3857 22.3281L 15.3857 50L 10.04 50L 10.04 22.3281L 0.808594 22.3281L 0.808594 17.791L 24.6396 17.791L 24.6396 22.3281ZM 49.2119 50L 44.001 50L 44.001 37.4219C 44.001 32.8698 42.4811 30.5938 39.4414 30.5938C 37.9141 30.5938 36.6263 31.2526 35.5781 32.5703C 34.5299 33.888 34.0059 35.5726 34.0059 37.624L 34.0059 50L 28.7725 50L 28.7725 15.9492L 34.0059 15.9492L 34.0059 30.8184L 34.0957 30.8184C 35.8327 27.9134 38.3184 26.4609 41.5527 26.4609C 46.6589 26.4609 49.2119 29.583 49.2119 35.8271L 49.2119 50ZM 58.1738 22.1709C 57.3203 22.1709 56.5866 21.8939 55.9727 21.3398C 55.3737 20.7858 55.0742 20.082 55.0742 19.2285C 55.0742 18.375 55.3737 17.6637 55.9727 17.0947C 56.5866 16.5257 57.3203 16.2412 58.1738 16.2412C 59.0573 16.2412 59.806 16.5257 60.4199 17.0947C 61.0339 17.6637 61.3408 18.375 61.3408 19.2285C 61.3408 20.0371 61.0339 20.7334 60.4199 21.3174C 59.806 21.8864 59.0573 22.1709 58.1738 22.1709ZM 60.7568 50L 55.5459 50L 55.5459 27L 60.7568 27L 60.7568 50ZM 80.9268 31.9639C 80.2979 31.4697 79.3919 31.2227 78.209 31.2227C 76.6667 31.2227 75.3789 31.9189 74.3457 33.3115C 73.3125 34.7041 72.7959 36.5983 72.7959 38.9941L 72.7959 50L 67.585 50L 67.585 27L 72.7959 27L 72.7959 31.7393L 72.8857 31.7393C 73.3949 30.1221 74.1735 28.8643 75.2217 27.9658C 76.2848 27.0524 77.4678 26.5957 78.7705 26.5957C 79.7139 26.5957 80.4326 26.738 80.9268 27.0225L 80.9268 31.9639ZM 105.117 50L 99.9062 50L 99.9062 46.0918L 99.8164 46.0918C 98.1393 49.0566 95.5563 50.5391 92.0674 50.5391C 89.2373 50.5391 86.9688 49.5133 85.2617 47.4619C 83.5697 45.3955 82.7236 42.5879 82.7236 39.0391C 82.7236 35.2357 83.6595 32.1885 85.5312 29.8975C 87.418 27.6064 89.9261 26.4609 93.0557 26.4609C 96.1553 26.4609 98.4089 27.7038 99.8164 30.1895L 99.9062 30.1895L 99.9062 15.9492L 105.117 15.9492L 105.117 50ZM 99.9736 39.4883L 99.9736 36.4785C 99.9736 34.8464 99.4421 33.4613 98.3789 32.3232C 97.3158 31.1852 95.9606 30.6162 94.3135 30.6162C 92.3669 30.6162 90.832 31.3424 89.709 32.7949C 88.6009 34.2474 88.0469 36.2614 88.0469 38.8369C 88.0469 41.1729 88.5785 43.0221 89.6416 44.3848C 90.7197 45.7324 92.1647 46.4062 93.9766 46.4062C 95.7585 46.4062 97.2035 45.7549 98.3115 44.4521C 99.4196 43.1344 99.9736 41.4798 99.9736 39.4883ZM 123.692 48.7197L 123.692 43.2168C 124.187 43.666 124.771 44.0703 125.444 44.4297C 126.133 44.7891 126.859 45.096 127.623 45.3506C 128.387 45.5902 129.15 45.7773 129.914 45.9121C 130.678 46.0469 131.382 46.1143 132.025 46.1143C 134.271 46.1143 135.941 45.7399 137.034 44.9912C 138.142 44.2425 138.696 43.1569 138.696 41.7344C 138.696 40.9707 138.509 40.3118 138.135 39.7578C 137.775 39.1888 137.266 38.6722 136.607 38.208C 135.949 37.7438 135.17 37.3021 134.271 36.8828C 133.388 36.4486 132.437 35.9993 131.419 35.5352C 130.326 34.9512 129.308 34.3597 128.364 33.7607C 127.421 33.1618 126.597 32.5029 125.894 31.7842C 125.205 31.0505 124.658 30.2269 124.254 29.3135C 123.865 28.4001 123.67 27.3294 123.67 26.1016C 123.67 24.5892 124.007 23.279 124.681 22.1709C 125.369 21.0479 126.268 20.127 127.376 19.4082C 128.499 18.6745 129.772 18.1354 131.194 17.791C 132.617 17.4316 134.069 17.252 135.552 17.252C 138.921 17.252 141.377 17.6338 142.919 18.3975L 142.919 23.6758C 141.092 22.3581 138.741 21.6992 135.866 21.6992C 135.073 21.6992 134.279 21.7741 133.485 21.9238C 132.707 22.0736 132.003 22.3206 131.374 22.665C 130.76 23.0094 130.258 23.4512 129.869 23.9902C 129.48 24.5293 129.285 25.1807 129.285 25.9443C 129.285 26.6631 129.435 27.2845 129.734 27.8086C 130.034 28.3327 130.468 28.8118 131.037 29.2461C 131.621 29.6803 132.325 30.1071 133.148 30.5264C 133.987 30.9307 134.953 31.3724 136.046 31.8516C 137.169 32.4355 138.225 33.0495 139.213 33.6934C 140.216 34.3372 141.092 35.0485 141.841 35.8271C 142.604 36.6058 143.203 37.4743 143.638 38.4326C 144.087 39.376 144.312 40.4541 144.312 41.667C 144.312 43.2992 143.982 44.6768 143.323 45.7998C 142.664 46.9229 141.773 47.8363 140.65 48.54C 139.542 49.2438 138.262 49.7529 136.81 50.0674C 135.357 50.3818 133.822 50.5391 132.205 50.5391C 131.666 50.5391 131 50.4941 130.206 50.4043C 129.427 50.3294 128.626 50.2096 127.803 50.0449C 126.979 49.8952 126.201 49.708 125.467 49.4834C 124.733 49.2588 124.142 49.0042 123.692 48.7197ZM 168.457 27L 158.08 53.6836C 155.924 58.4453 152.899 60.8262 149.006 60.8262C 147.913 60.8262 146.999 60.7288 146.266 60.5342L 146.266 56.1992C 147.089 56.4688 147.838 56.6035 148.512 56.6035C 150.458 56.6035 151.911 55.6452 152.869 53.7285L 154.419 49.9551L 145.277 27L 151.05 27L 156.53 43.7109C 156.59 43.9206 156.725 44.4746 156.935 45.373L 157.047 45.373C 157.122 45.0286 157.257 44.4896 157.451 43.7559L 163.201 27L 168.457 27ZM 206.326 50L 201.115 50L 201.115 37.4668C 201.115 35.056 200.771 33.3115 200.082 32.2334C 199.408 31.1553 198.263 30.6162 196.646 30.6162C 195.283 30.6162 194.122 31.2975 193.164 32.6602C 192.221 34.0228 191.749 35.6549 191.749 37.5566L 191.749 50L 186.516 50L 186.516 37.04C 186.516 32.7575 185.003 30.6162 181.979 30.6162C 180.571 30.6162 179.41 31.2601 178.497 32.5479C 177.599 33.8356 177.149 35.5052 177.149 37.5566L 177.149 50L 171.938 50L 171.938 27L 177.149 27L 177.149 30.6387L 177.239 30.6387C 178.901 27.8535 181.32 26.4609 184.494 26.4609C 186.081 26.4609 187.466 26.9027 188.649 27.7861C 189.847 28.6546 190.663 29.8001 191.098 31.2227C 192.805 28.0482 195.35 26.4609 198.734 26.4609C 203.796 26.4609 206.326 29.583 206.326 35.8271L 206.326 50ZM 217.983 46.6084L 217.894 46.6084L 217.894 60.5791L 212.683 60.5791L 212.683 27L 217.894 27L 217.894 31.043L 217.983 31.043C 219.765 27.9883 222.371 26.4609 225.8 26.4609C 228.72 26.4609 230.996 27.4867 232.628 29.5381C 234.26 31.5895 235.076 34.3447 235.076 37.8037C 235.076 41.637 234.155 44.7067 232.313 47.0127C 230.472 49.3187 227.956 50.4717 224.767 50.4717C 221.832 50.4717 219.571 49.1839 217.983 46.6084ZM 217.849 37.5342L 217.849 40.3867C 217.849 42.0638 218.38 43.4863 219.443 44.6543C 220.521 45.8223 221.884 46.4062 223.531 46.4062C 225.463 46.4062 226.975 45.6576 228.068 44.1602C 229.176 42.6478 229.73 40.5439 229.73 37.8486C 229.73 35.5876 229.214 33.8206 228.181 32.5479C 227.162 31.2601 225.777 30.6162 224.025 30.6162C 222.169 30.6162 220.671 31.2751 219.533 32.5928C 218.41 33.9105 217.849 35.5576 217.849 37.5342ZM 260.839 50L 255.628 50L 255.628 37.4219C 255.628 32.8698 254.108 30.5938 251.068 30.5938C 249.541 30.5938 248.253 31.2526 247.205 32.5703C 246.157 33.888 245.633 35.5726 245.633 37.624L 245.633 50L 240.399 50L 240.399 15.9492L 245.633 15.9492L 245.633 30.8184L 245.723 30.8184C 247.46 27.9134 249.945 26.4609 253.18 26.4609C 258.286 26.4609 260.839 29.583 260.839 35.8271L 260.839 50ZM 277.37 50.5391C 273.821 50.5391 270.984 49.4684 268.857 47.3271C 266.746 45.1709 265.69 42.3184 265.69 38.7695C 265.69 34.9062 266.791 31.889 268.992 29.7178C 271.208 27.5465 274.188 26.4609 277.932 26.4609C 281.525 26.4609 284.326 27.5166 286.332 29.6279C 288.339 31.7393 289.342 34.6667 289.342 38.4102C 289.342 42.0788 288.256 45.0212 286.085 47.2373C 283.929 49.4385 281.024 50.5391 277.37 50.5391ZM 277.617 30.6162C 275.581 30.6162 273.971 31.3275 272.788 32.75C 271.605 34.1725 271.014 36.1341 271.014 38.6348C 271.014 41.0456 271.613 42.9473 272.811 44.3398C 274.008 45.7174 275.611 46.4062 277.617 46.4062C 279.669 46.4062 281.241 45.7249 282.334 44.3623C 283.442 42.9997 283.996 41.0605 283.996 38.5449C 283.996 36.0143 283.442 34.0602 282.334 32.6826C 281.241 31.305 279.669 30.6162 277.617 30.6162ZM 315.149 50L 309.938 50L 309.938 37.04C 309.938 32.7425 308.419 30.5938 305.379 30.5938C 303.792 30.5938 302.481 31.1927 301.448 32.3906C 300.415 33.5736 299.898 35.071 299.898 36.8828L 299.898 50L 294.665 50L 294.665 27L 299.898 27L 299.898 30.8184L 299.988 30.8184C 301.71 27.9134 304.196 26.4609 307.445 26.4609C 309.946 26.4609 311.855 27.277 313.173 28.9092C 314.491 30.5264 315.149 32.8698 315.149 35.9395L 315.149 50ZM 341.451 27L 331.074 53.6836C 328.918 58.4453 325.893 60.8262 322 60.8262C 320.907 60.8262 319.993 60.7288 319.26 60.5342L 319.26 56.1992C 320.083 56.4688 320.832 56.6035 321.506 56.6035C 323.452 56.6035 324.905 55.6452 325.863 53.7285L 327.413 49.9551L 318.271 27L 324.044 27L 329.524 43.7109C 329.584 43.9206 329.719 44.4746 329.929 45.373L 330.041 45.373C 330.116 45.0286 330.251 44.4896 330.445 43.7559L 336.195 27L 341.451 27Z"/>
<path id="path6_fill" d="M 20.9336 50L 4.22266 50L 4.22266 17.791L 7.99609 17.791L 7.99609 46.5859L 20.9336 46.5859L 20.9336 50ZM 43.9785 50L 40.2949 50L 40.2949 46.3613L 40.2051 46.3613C 38.6777 49.1465 36.3118 50.5391 33.1074 50.5391C 27.627 50.5391 24.8867 47.2747 24.8867 40.7461L 24.8867 27L 28.5479 27L 28.5479 40.1621C 28.5479 45.0137 30.4046 47.4395 34.1182 47.4395C 35.915 47.4395 37.39 46.7806 38.543 45.4629C 39.7109 44.1302 40.2949 42.3932 40.2949 40.252L 40.2949 27L 43.9785 27L 43.9785 50ZM 71.0664 50L 67.3828 50L 67.3828 46.0918L 67.293 46.0918C 65.5859 49.0566 62.9505 50.5391 59.3867 50.5391C 56.4967 50.5391 54.1833 49.5133 52.4463 47.4619C 50.7243 45.3955 49.8633 42.5879 49.8633 39.0391C 49.8633 35.2357 50.8216 32.1885 52.7383 29.8975C 54.6549 27.6064 57.208 26.4609 60.3975 26.4609C 63.557 26.4609 65.8555 27.7038 67.293 30.1895L 67.3828 30.1895L 67.3828 15.9492L 71.0664 15.9492L 71.0664 50ZM 67.3828 39.6006L 67.3828 36.209C 67.3828 34.3522 66.7689 32.7799 65.541 31.4922C 64.3132 30.2044 62.7559 29.5605 60.8691 29.5605C 58.623 29.5605 56.8561 30.3841 55.5684 32.0312C 54.2806 33.6784 53.6367 35.9544 53.6367 38.8594C 53.6367 41.5098 54.2507 43.6061 55.4785 45.1484C 56.7214 46.6758 58.3835 47.4395 60.4648 47.4395C 62.5163 47.4395 64.1784 46.6982 65.4512 45.2158C 66.7389 43.7334 67.3828 41.8617 67.3828 39.6006ZM 107.498 27L 100.603 50L 96.7842 50L 92.0449 33.5361C 91.8652 32.9072 91.7454 32.196 91.6855 31.4023L 91.5957 31.4023C 91.5508 31.9414 91.3936 32.6377 91.124 33.4912L 85.9805 50L 82.2969 50L 75.334 27L 79.1973 27L 83.959 44.2949C 84.1087 44.819 84.2135 45.5078 84.2734 46.3613L 84.4531 46.3613C 84.498 45.7025 84.6328 44.9987 84.8574 44.25L 90.1582 27L 93.5273 27L 98.2891 44.3398C 98.4388 44.8939 98.5511 45.5827 98.626 46.4062L 98.8057 46.4062C 98.8356 45.8223 98.9629 45.1335 99.1875 44.3398L 103.859 27L 107.498 27ZM 113.652 21.1602C 112.993 21.1602 112.432 20.9355 111.968 20.4863C 111.504 20.0371 111.271 19.4681 111.271 18.7793C 111.271 18.0905 111.504 17.5215 111.968 17.0723C 112.432 16.6081 112.993 16.376 113.652 16.376C 114.326 16.376 114.895 16.6081 115.359 17.0723C 115.839 17.5215 116.078 18.0905 116.078 18.7793C 116.078 19.4382 115.839 19.9997 115.359 20.4639C 114.895 20.9281 114.326 21.1602 113.652 21.1602ZM 115.449 50L 111.766 50L 111.766 27L 115.449 27L 115.449 50ZM 142.537 48.1582C 142.537 56.6035 138.494 60.8262 130.408 60.8262C 127.563 60.8262 125.077 60.2871 122.951 59.209L 122.951 55.5254C 125.542 56.9629 128.012 57.6816 130.363 57.6816C 136.023 57.6816 138.854 54.6719 138.854 48.6523L 138.854 46.1367L 138.764 46.1367C 137.012 49.0716 134.376 50.5391 130.857 50.5391C 127.997 50.5391 125.691 49.5208 123.939 47.4844C 122.202 45.4329 121.334 42.6852 121.334 39.2412C 121.334 35.333 122.27 32.2259 124.142 29.9199C 126.028 27.6139 128.604 26.4609 131.868 26.4609C 134.968 26.4609 137.266 27.7038 138.764 30.1895L 138.854 30.1895L 138.854 27L 142.537 27L 142.537 48.1582ZM 138.854 39.6006L 138.854 36.209C 138.854 34.3822 138.232 32.8174 136.989 31.5146C 135.761 30.2119 134.227 29.5605 132.385 29.5605C 130.109 29.5605 128.327 30.3916 127.039 32.0537C 125.751 33.7008 125.107 36.0143 125.107 38.9941C 125.107 41.5547 125.721 43.6061 126.949 45.1484C 128.192 46.6758 129.832 47.4395 131.868 47.4395C 133.935 47.4395 135.612 46.7057 136.899 45.2383C 138.202 43.7708 138.854 41.8916 138.854 39.6006ZM 180.698 27L 171.534 50L 167.918 50L 159.203 27L 163.246 27L 169.086 43.7109C 169.52 44.9388 169.79 46.0094 169.895 46.9229L 169.984 46.9229C 170.134 45.7699 170.374 44.7292 170.703 43.8008L 176.812 27L 180.698 27ZM 201.138 50L 197.454 50L 197.454 46.4062L 197.364 46.4062C 195.762 49.1615 193.404 50.5391 190.289 50.5391C 187.998 50.5391 186.201 49.9326 184.898 48.7197C 183.611 47.5068 182.967 45.8971 182.967 43.8906C 182.967 39.5931 185.497 37.0924 190.559 36.3887L 197.454 35.4229C 197.454 31.5146 195.874 29.5605 192.715 29.5605C 189.945 29.5605 187.444 30.5039 185.213 32.3906L 185.213 28.6172C 187.474 27.1797 190.079 26.4609 193.029 26.4609C 198.435 26.4609 201.138 29.321 201.138 35.041L 201.138 50ZM 197.454 38.3652L 191.906 39.1289C 190.199 39.3685 188.911 39.7952 188.043 40.4092C 187.174 41.0081 186.74 42.0788 186.74 43.6211C 186.74 44.7441 187.137 45.665 187.931 46.3838C 188.739 47.0876 189.81 47.4395 191.143 47.4395C 192.969 47.4395 194.474 46.8031 195.657 45.5303C 196.855 44.2425 197.454 42.6178 197.454 40.6562L 197.454 38.3652ZM 227.17 50L 223.486 50L 223.486 36.8828C 223.486 32.0013 221.704 29.5605 218.141 29.5605C 216.299 29.5605 214.771 30.2568 213.559 31.6494C 212.361 33.027 211.762 34.7715 211.762 36.8828L 211.762 50L 208.078 50L 208.078 27L 211.762 27L 211.762 30.8184L 211.852 30.8184C 213.589 27.9134 216.104 26.4609 219.398 26.4609C 221.914 26.4609 223.838 27.277 225.171 28.9092C 226.504 30.5264 227.17 32.8698 227.17 35.9395L 227.17 50ZM 247.25 50L 247.25 17.791L 256.414 17.791C 259.199 17.791 261.408 18.4723 263.04 19.835C 264.672 21.1976 265.488 22.972 265.488 25.1582C 265.488 26.985 264.994 28.5723 264.006 29.9199C 263.018 31.2676 261.655 32.2259 259.918 32.7949L 259.918 32.8848C 262.089 33.1393 263.826 33.9629 265.129 35.3555C 266.432 36.7331 267.083 38.5299 267.083 40.7461C 267.083 43.5013 266.095 45.7324 264.118 47.4395C 262.142 49.1465 259.648 50 256.639 50L 247.25 50ZM 251.023 21.2051L 251.023 31.6045L 254.887 31.6045C 256.953 31.6045 258.578 31.1104 259.761 30.1221C 260.944 29.1188 261.535 27.7113 261.535 25.8994C 261.535 22.7699 259.476 21.2051 255.358 21.2051L 251.023 21.2051ZM 251.023 34.9961L 251.023 46.5859L 256.145 46.5859C 258.361 46.5859 260.075 46.0618 261.288 45.0137C 262.516 43.9655 263.13 42.528 263.13 40.7012C 263.13 36.8978 260.539 34.9961 255.358 34.9961L 251.023 34.9961ZM 291.61 39.4209L 275.371 39.4209C 275.431 41.9814 276.12 43.958 277.438 45.3506C 278.755 46.7432 280.567 47.4395 282.873 47.4395C 285.464 47.4395 287.844 46.5859 290.016 44.8789L 290.016 48.3379C 287.994 49.8053 285.321 50.5391 281.997 50.5391C 278.748 50.5391 276.195 49.4984 274.338 47.417C 272.481 45.3206 271.553 42.3783 271.553 38.5898C 271.553 35.0111 272.563 32.0986 274.585 29.8525C 276.621 27.5915 279.145 26.4609 282.154 26.4609C 285.164 26.4609 287.493 27.4342 289.14 29.3809C 290.787 31.3275 291.61 34.0303 291.61 37.4893L 291.61 39.4209ZM 287.837 36.2988C 287.822 34.1725 287.305 32.5179 286.287 31.335C 285.284 30.152 283.884 29.5605 282.087 29.5605C 280.35 29.5605 278.875 30.182 277.662 31.4248C 276.449 32.6676 275.701 34.2923 275.416 36.2988L 287.837 36.2988ZM 315.688 39.4209L 299.449 39.4209C 299.509 41.9814 300.198 43.958 301.516 45.3506C 302.833 46.7432 304.645 47.4395 306.951 47.4395C 309.542 47.4395 311.923 46.5859 314.094 44.8789L 314.094 48.3379C 312.072 49.8053 309.399 50.5391 306.075 50.5391C 302.826 50.5391 300.273 49.4984 298.416 47.417C 296.559 45.3206 295.631 42.3783 295.631 38.5898C 295.631 35.0111 296.642 32.0986 298.663 29.8525C 300.7 27.5915 303.223 26.4609 306.232 26.4609C 309.242 26.4609 311.571 27.4342 313.218 29.3809C 314.865 31.3275 315.688 34.0303 315.688 37.4893L 315.688 39.4209ZM 311.915 36.2988C 311.9 34.1725 311.383 32.5179 310.365 31.335C 309.362 30.152 307.962 29.5605 306.165 29.5605C 304.428 29.5605 302.953 30.182 301.74 31.4248C 300.527 32.6676 299.779 34.2923 299.494 36.2988L 311.915 36.2988ZM 331.95 49.7754C 331.082 50.2546 329.936 50.4941 328.514 50.4941C 324.486 50.4941 322.472 48.248 322.472 43.7559L 322.472 30.1445L 318.519 30.1445L 318.519 27L 322.472 27L 322.472 21.3848L 326.155 20.1943L 326.155 27L 331.95 27L 331.95 30.1445L 326.155 30.1445L 326.155 43.1045C 326.155 44.6468 326.417 45.7474 326.941 46.4062C 327.465 47.0651 328.334 47.3945 329.547 47.3945C 330.475 47.3945 331.276 47.14 331.95 46.6309L 331.95 49.7754ZM 355.961 50L 352.277 50L 352.277 36.748C 352.277 31.9564 350.495 29.5605 346.932 29.5605C 345.135 29.5605 343.622 30.2568 342.395 31.6494C 341.167 33.027 340.553 34.8014 340.553 36.9727L 340.553 50L 336.869 50L 336.869 15.9492L 340.553 15.9492L 340.553 30.8184L 340.643 30.8184C 342.41 27.9134 344.925 26.4609 348.189 26.4609C 353.37 26.4609 355.961 29.583 355.961 35.8271L 355.961 50ZM 372.537 50.5391C 369.138 50.5391 366.42 49.4684 364.384 47.3271C 362.362 45.1709 361.352 42.3184 361.352 38.7695C 361.352 34.9062 362.407 31.889 364.519 29.7178C 366.63 27.5465 369.482 26.4609 373.076 26.4609C 376.505 26.4609 379.178 27.5166 381.095 29.6279C 383.026 31.7393 383.992 34.6667 383.992 38.4102C 383.992 42.0788 382.951 45.0212 380.87 47.2373C 378.804 49.4385 376.026 50.5391 372.537 50.5391ZM 372.807 29.5605C 370.441 29.5605 368.569 30.3691 367.191 31.9863C 365.814 33.5885 365.125 35.8047 365.125 38.6348C 365.125 41.36 365.821 43.5088 367.214 45.0811C 368.606 46.6533 370.471 47.4395 372.807 47.4395C 375.188 47.4395 377.014 46.6683 378.287 45.126C 379.575 43.5837 380.219 41.39 380.219 38.5449C 380.219 35.6699 379.575 33.4538 378.287 31.8965C 377.014 30.3392 375.188 29.5605 372.807 29.5605ZM 407.958 27L 398.794 50L 395.178 50L 386.463 27L 390.506 27L 396.346 43.7109C 396.78 44.9388 397.049 46.0094 397.154 46.9229L 397.244 46.9229C 397.394 45.7699 397.633 44.7292 397.963 43.8008L 404.072 27L 407.958 27ZM 430.419 39.4209L 414.18 39.4209C 414.24 41.9814 414.928 43.958 416.246 45.3506C 417.564 46.7432 419.376 47.4395 421.682 47.4395C 424.272 47.4395 426.653 46.5859 428.824 44.8789L 428.824 48.3379C 426.803 49.8053 424.13 50.5391 420.806 50.5391C 417.556 50.5391 415.003 49.4984 413.146 47.417C 411.29 45.3206 410.361 42.3783 410.361 38.5898C 410.361 35.0111 411.372 32.0986 413.394 29.8525C 415.43 27.5915 417.953 26.4609 420.963 26.4609C 423.973 26.4609 426.301 27.4342 427.948 29.3809C 429.595 31.3275 430.419 34.0303 430.419 37.4893L 430.419 39.4209ZM 426.646 36.2988C 426.631 34.1725 426.114 32.5179 425.096 31.335C 424.092 30.152 422.692 29.5605 420.896 29.5605C 419.159 29.5605 417.684 30.182 416.471 31.4248C 415.258 32.6676 414.509 34.2923 414.225 36.2988L 426.646 36.2988ZM 455.104 50L 451.42 50L 451.42 36.8828C 451.42 32.0013 449.638 29.5605 446.074 29.5605C 444.232 29.5605 442.705 30.2568 441.492 31.6494C 440.294 33.027 439.695 34.7715 439.695 36.8828L 439.695 50L 436.012 50L 436.012 27L 439.695 27L 439.695 30.8184L 439.785 30.8184C 441.522 27.9134 444.038 26.4609 447.332 26.4609C 449.848 26.4609 451.772 27.277 453.104 28.9092C 454.437 30.5264 455.104 32.8698 455.104 35.9395L 455.104 50Z"/>
<path id="path7_fill" d="M 2.49316 48.7197L 2.49316 43.2168C 2.9873 43.666 3.57129 44.0703 4.24512 44.4297C 4.93392 44.7891 5.66016 45.096 6.42383 45.3506C 7.1875 45.5902 7.95117 45.7773 8.71484 45.9121C 9.47852 46.0469 10.1823 46.1143 10.8262 46.1143C 13.0723 46.1143 14.7419 45.7399 15.835 44.9912C 16.943 44.2425 17.4971 43.1569 17.4971 41.7344C 17.4971 40.9707 17.3099 40.3118 16.9355 39.7578C 16.5762 39.1888 16.0671 38.6722 15.4082 38.208C 14.7493 37.7438 13.9707 37.3021 13.0723 36.8828C 12.1888 36.4486 11.238 35.9993 10.2197 35.5352C 9.12663 34.9512 8.1084 34.3597 7.16504 33.7607C 6.22168 33.1618 5.39811 32.5029 4.69434 31.7842C 4.00553 31.0505 3.45898 30.2269 3.05469 29.3135C 2.66536 28.4001 2.4707 27.3294 2.4707 26.1016C 2.4707 24.5892 2.80762 23.279 3.48145 22.1709C 4.17025 21.0479 5.06868 20.127 6.17676 19.4082C 7.2998 18.6745 8.57259 18.1354 9.99512 17.791C 11.4176 17.4316 12.8701 17.252 14.3525 17.252C 17.7217 17.252 20.1774 17.6338 21.7197 18.3975L 21.7197 23.6758C 19.8929 22.3581 17.542 21.6992 14.667 21.6992C 13.8734 21.6992 13.0798 21.7741 12.2861 21.9238C 11.5075 22.0736 10.8037 22.3206 10.1748 22.665C 9.56087 23.0094 9.05924 23.4512 8.66992 23.9902C 8.2806 24.5293 8.08594 25.1807 8.08594 25.9443C 8.08594 26.6631 8.23568 27.2845 8.53516 27.8086C 8.83464 28.3327 9.26888 28.8118 9.83789 29.2461C 10.4219 29.6803 11.1257 30.1071 11.9492 30.5264C 12.7878 30.9307 13.7536 31.3724 14.8467 31.8516C 15.9697 32.4355 17.0254 33.0495 18.0137 33.6934C 19.0169 34.3372 19.8929 35.0485 20.6416 35.8271C 21.4053 36.6058 22.0042 37.4743 22.4385 38.4326C 22.8877 39.376 23.1123 40.4541 23.1123 41.667C 23.1123 43.2992 22.7829 44.6768 22.124 45.7998C 21.4652 46.9229 20.5742 47.8363 19.4512 48.54C 18.3431 49.2438 17.0628 49.7529 15.6104 50.0674C 14.1579 50.3818 12.623 50.5391 11.0059 50.5391C 10.4668 50.5391 9.80046 50.4941 9.00684 50.4043C 8.22819 50.3294 7.42708 50.2096 6.60352 50.0449C 5.77995 49.8952 5.0013 49.708 4.26758 49.4834C 3.53385 49.2588 2.94238 49.0042 2.49316 48.7197ZM 47.9316 39.915L 32.2539 39.915C 32.3138 42.0413 32.9652 43.681 34.208 44.834C 35.4658 45.987 37.1878 46.5635 39.374 46.5635C 41.8298 46.5635 44.0833 45.8298 46.1348 44.3623L 46.1348 48.5625C 44.0384 49.8802 41.2682 50.5391 37.8242 50.5391C 34.4401 50.5391 31.7822 49.4984 29.8506 47.417C 27.9339 45.3206 26.9756 42.3783 26.9756 38.5898C 26.9756 35.0111 28.0312 32.0986 30.1426 29.8525C 32.2689 27.5915 34.9043 26.4609 38.0488 26.4609C 41.1934 26.4609 43.6266 27.4717 45.3486 29.4932C 47.0706 31.5146 47.9316 34.3223 47.9316 37.916L 47.9316 39.915ZM 42.9004 36.2314C 42.8854 34.3597 42.4437 32.9072 41.5752 31.874C 40.7067 30.8258 39.5088 30.3018 37.9814 30.3018C 36.484 30.3018 35.2113 30.8483 34.1631 31.9414C 33.1299 33.0345 32.4935 34.4645 32.2539 36.2314L 42.9004 36.2314ZM 66.2373 31.9639C 65.6084 31.4697 64.7025 31.2227 63.5195 31.2227C 61.9772 31.2227 60.6895 31.9189 59.6562 33.3115C 58.623 34.7041 58.1064 36.5983 58.1064 38.9941L 58.1064 50L 52.8955 50L 52.8955 27L 58.1064 27L 58.1064 31.7393L 58.1963 31.7393C 58.7054 30.1221 59.484 28.8643 60.5322 27.9658C 61.5954 27.0524 62.7783 26.5957 64.0811 26.5957C 65.0244 26.5957 65.7432 26.738 66.2373 27.0225L 66.2373 31.9639ZM 68.7979 49.2812L 68.7979 44.4521C 70.7445 45.9346 72.8932 46.6758 75.2441 46.6758C 78.3887 46.6758 79.9609 45.7474 79.9609 43.8906C 79.9609 43.3665 79.8262 42.9248 79.5566 42.5654C 79.2871 42.1911 78.9202 41.8617 78.4561 41.5771C 78.0068 41.2926 77.4678 41.0381 76.8389 40.8135C 76.2249 40.5889 75.5361 40.3343 74.7725 40.0498C 73.8291 39.6755 72.9756 39.2786 72.2119 38.8594C 71.4632 38.4401 70.8343 37.9684 70.3252 37.4443C 69.8311 36.9053 69.4567 36.2988 69.2021 35.625C 68.9476 34.9512 68.8203 34.165 68.8203 33.2666C 68.8203 32.1585 69.0824 31.1852 69.6064 30.3467C 70.1305 29.4932 70.8343 28.7819 71.7178 28.2129C 72.6012 27.6289 73.6045 27.1947 74.7275 26.9102C 75.8506 26.6107 77.0111 26.4609 78.209 26.4609C 80.3353 26.4609 82.237 26.7829 83.9141 27.4268L 83.9141 31.9863C 82.2969 30.8783 80.4401 30.3242 78.3438 30.3242C 77.6849 30.3242 77.0859 30.3916 76.5469 30.5264C 76.0228 30.6611 75.5736 30.8483 75.1992 31.0879C 74.8249 31.3275 74.5329 31.6195 74.3232 31.9639C 74.1136 32.2933 74.0088 32.6602 74.0088 33.0645C 74.0088 33.5586 74.1136 33.9779 74.3232 34.3223C 74.5329 34.6667 74.8398 34.9736 75.2441 35.2432C 75.6634 35.4977 76.1576 35.7373 76.7266 35.9619C 77.3105 36.1715 77.9769 36.4036 78.7256 36.6582C 79.7139 37.0625 80.5973 37.4743 81.376 37.8936C 82.1696 38.3128 82.8434 38.792 83.3975 39.3311C 83.9515 39.8551 84.3783 40.4691 84.6777 41.1729C 84.9772 41.8617 85.127 42.6852 85.127 43.6436C 85.127 44.8115 84.8574 45.8298 84.3184 46.6982C 83.7793 47.5667 83.0605 48.2855 82.1621 48.8545C 81.2637 49.4235 80.223 49.8428 79.04 50.1123C 77.8721 50.3968 76.6367 50.5391 75.334 50.5391C 72.8184 50.5391 70.6396 50.1198 68.7979 49.2812ZM 109.564 39.915L 93.8867 39.915C 93.9466 42.0413 94.598 43.681 95.8408 44.834C 97.0986 45.987 98.8206 46.5635 101.007 46.5635C 103.463 46.5635 105.716 45.8298 107.768 44.3623L 107.768 48.5625C 105.671 49.8802 102.901 50.5391 99.457 50.5391C 96.0729 50.5391 93.415 49.4984 91.4834 47.417C 89.5667 45.3206 88.6084 42.3783 88.6084 38.5898C 88.6084 35.0111 89.6641 32.0986 91.7754 29.8525C 93.9017 27.5915 96.5371 26.4609 99.6816 26.4609C 102.826 26.4609 105.259 27.4717 106.981 29.4932C 108.703 31.5146 109.564 34.3223 109.564 37.916L 109.564 39.915ZM 104.533 36.2314C 104.518 34.3597 104.076 32.9072 103.208 31.874C 102.34 30.8258 101.142 30.3018 99.6143 30.3018C 98.1169 30.3018 96.8441 30.8483 95.7959 31.9414C 94.7627 33.0345 94.1263 34.4645 93.8867 36.2314L 104.533 36.2314Z"/>
<path id="path8_fill" d="M 28.3008 47.7988C 25.0664 49.6257 21.4727 50.5391 17.5195 50.5391C 12.9225 50.5391 9.2015 49.0566 6.35645 46.0918C 3.52637 43.127 2.11133 39.2038 2.11133 34.3223C 2.11133 29.3359 3.68359 25.248 6.82812 22.0586C 9.98763 18.8542 13.9857 17.252 18.8223 17.252C 22.3262 17.252 25.2686 17.821 27.6494 18.959L 27.6494 23.1367C 25.0439 21.4896 21.9593 20.666 18.3955 20.666C 14.7868 20.666 11.8294 21.9089 9.52344 24.3945C 7.21745 26.8802 6.06445 30.0996 6.06445 34.0527C 6.06445 38.1257 7.13509 41.3301 9.27637 43.666C 11.4176 45.987 14.3226 47.1475 17.9912 47.1475C 20.5068 47.1475 22.6855 46.6458 24.5273 45.6426L 24.5273 36.6133L 17.4746 36.6133L 17.4746 33.1992L 28.3008 33.1992L 28.3008 47.7988ZM 53.7939 39.4209L 37.5547 39.4209C 37.6146 41.9814 38.3034 43.958 39.6211 45.3506C 40.9388 46.7432 42.7507 47.4395 45.0566 47.4395C 47.6471 47.4395 50.028 46.5859 52.1992 44.8789L 52.1992 48.3379C 50.1777 49.8053 47.5049 50.5391 44.1807 50.5391C 40.9313 50.5391 38.3783 49.4984 36.5215 47.417C 34.6647 45.3206 33.7363 42.3783 33.7363 38.5898C 33.7363 35.0111 34.7471 32.0986 36.7686 29.8525C 38.805 27.5915 41.3281 26.4609 44.3379 26.4609C 47.3477 26.4609 49.6761 27.4342 51.3232 29.3809C 52.9704 31.3275 53.7939 34.0303 53.7939 37.4893L 53.7939 39.4209ZM 50.0205 36.2988C 50.0055 34.1725 49.4889 32.5179 48.4707 31.335C 47.4674 30.152 46.0674 29.5605 44.2705 29.5605C 42.5335 29.5605 41.0586 30.182 39.8457 31.4248C 38.6328 32.6676 37.8841 34.2923 37.5996 36.2988L 50.0205 36.2988ZM 69 50.5391C 65.6009 50.5391 62.8831 49.4684 60.8467 47.3271C 58.8252 45.1709 57.8145 42.3184 57.8145 38.7695C 57.8145 34.9062 58.8701 31.889 60.9814 29.7178C 63.0928 27.5465 65.9453 26.4609 69.5391 26.4609C 72.9681 26.4609 75.641 27.5166 77.5576 29.6279C 79.4893 31.7393 80.4551 34.6667 80.4551 38.4102C 80.4551 42.0788 79.4144 45.0212 77.333 47.2373C 75.2666 49.4385 72.4889 50.5391 69 50.5391ZM 69.2695 29.5605C 66.9036 29.5605 65.0319 30.3691 63.6543 31.9863C 62.2767 33.5885 61.5879 35.8047 61.5879 38.6348C 61.5879 41.36 62.2842 43.5088 63.6768 45.0811C 65.0693 46.6533 66.9336 47.4395 69.2695 47.4395C 71.6504 47.4395 73.4772 46.6683 74.75 45.126C 76.0378 43.5837 76.6816 41.39 76.6816 38.5449C 76.6816 35.6699 76.0378 33.4538 74.75 31.8965C 73.4772 30.3392 71.6504 29.5605 69.2695 29.5605ZM 98.334 30.7285C 97.6901 30.2344 96.7617 29.9873 95.5488 29.9873C 93.9766 29.9873 92.6589 30.7285 91.5957 32.2109C 90.5475 33.6934 90.0234 35.7148 90.0234 38.2754L 90.0234 50L 86.3398 50L 86.3398 27L 90.0234 27L 90.0234 31.7393L 90.1133 31.7393C 90.6374 30.1221 91.4385 28.8643 92.5166 27.9658C 93.5947 27.0524 94.8001 26.5957 96.1328 26.5957C 97.0911 26.5957 97.8249 26.7005 98.334 26.9102L 98.334 30.7285ZM 121.963 48.1582C 121.963 56.6035 117.92 60.8262 109.834 60.8262C 106.989 60.8262 104.503 60.2871 102.377 59.209L 102.377 55.5254C 104.967 56.9629 107.438 57.6816 109.789 57.6816C 115.449 57.6816 118.279 54.6719 118.279 48.6523L 118.279 46.1367L 118.189 46.1367C 116.438 49.0716 113.802 50.5391 110.283 50.5391C 107.423 50.5391 105.117 49.5208 103.365 47.4844C 101.628 45.4329 100.76 42.6852 100.76 39.2412C 100.76 35.333 101.696 32.2259 103.567 29.9199C 105.454 27.6139 108.03 26.4609 111.294 26.4609C 114.394 26.4609 116.692 27.7038 118.189 30.1895L 118.279 30.1895L 118.279 27L 121.963 27L 121.963 48.1582ZM 118.279 39.6006L 118.279 36.209C 118.279 34.3822 117.658 32.8174 116.415 31.5146C 115.187 30.2119 113.652 29.5605 111.811 29.5605C 109.535 29.5605 107.753 30.3916 106.465 32.0537C 105.177 33.7008 104.533 36.0143 104.533 38.9941C 104.533 41.5547 105.147 43.6061 106.375 45.1484C 107.618 46.6758 109.257 47.4395 111.294 47.4395C 113.36 47.4395 115.037 46.7057 116.325 45.2383C 117.628 43.7708 118.279 41.8916 118.279 39.6006ZM 147.905 39.4209L 131.666 39.4209C 131.726 41.9814 132.415 43.958 133.732 45.3506C 135.05 46.7432 136.862 47.4395 139.168 47.4395C 141.758 47.4395 144.139 46.5859 146.311 44.8789L 146.311 48.3379C 144.289 49.8053 141.616 50.5391 138.292 50.5391C 135.043 50.5391 132.49 49.4984 130.633 47.417C 128.776 45.3206 127.848 42.3783 127.848 38.5898C 127.848 35.0111 128.858 32.0986 130.88 29.8525C 132.916 27.5915 135.439 26.4609 138.449 26.4609C 141.459 26.4609 143.787 27.4342 145.435 29.3809C 147.082 31.3275 147.905 34.0303 147.905 37.4893L 147.905 39.4209ZM 144.132 36.2988C 144.117 34.1725 143.6 32.5179 142.582 31.335C 141.579 30.152 140.179 29.5605 138.382 29.5605C 136.645 29.5605 135.17 30.182 133.957 31.4248C 132.744 32.6676 131.995 34.2923 131.711 36.2988L 144.132 36.2988ZM 182.967 21.2051L 170.389 21.2051L 170.389 32.3457L 182.023 32.3457L 182.023 35.7373L 170.389 35.7373L 170.389 50L 166.615 50L 166.615 17.791L 182.967 17.791L 182.967 21.2051ZM 200.576 30.7285C 199.932 30.2344 199.004 29.9873 197.791 29.9873C 196.219 29.9873 194.901 30.7285 193.838 32.2109C 192.79 33.6934 192.266 35.7148 192.266 38.2754L 192.266 50L 188.582 50L 188.582 27L 192.266 27L 192.266 31.7393L 192.355 31.7393C 192.88 30.1221 193.681 28.8643 194.759 27.9658C 195.837 27.0524 197.042 26.5957 198.375 26.5957C 199.333 26.5957 200.067 26.7005 200.576 26.9102L 200.576 30.7285ZM 206.461 21.1602C 205.802 21.1602 205.241 20.9355 204.776 20.4863C 204.312 20.0371 204.08 19.4681 204.08 18.7793C 204.08 18.0905 204.312 17.5215 204.776 17.0723C 205.241 16.6081 205.802 16.376 206.461 16.376C 207.135 16.376 207.704 16.6081 208.168 17.0723C 208.647 17.5215 208.887 18.0905 208.887 18.7793C 208.887 19.4382 208.647 19.9997 208.168 20.4639C 207.704 20.9281 207.135 21.1602 206.461 21.1602ZM 208.258 50L 204.574 50L 204.574 27L 208.258 27L 208.258 50ZM 235.346 50L 231.662 50L 231.662 46.0918L 231.572 46.0918C 229.865 49.0566 227.23 50.5391 223.666 50.5391C 220.776 50.5391 218.463 49.5133 216.726 47.4619C 215.004 45.3955 214.143 42.5879 214.143 39.0391C 214.143 35.2357 215.101 32.1885 217.018 29.8975C 218.934 27.6064 221.487 26.4609 224.677 26.4609C 227.836 26.4609 230.135 27.7038 231.572 30.1895L 231.662 30.1895L 231.662 15.9492L 235.346 15.9492L 235.346 50ZM 231.662 39.6006L 231.662 36.209C 231.662 34.3522 231.048 32.7799 229.82 31.4922C 228.592 30.2044 227.035 29.5605 225.148 29.5605C 222.902 29.5605 221.135 30.3841 219.848 32.0312C 218.56 33.6784 217.916 35.9544 217.916 38.8594C 217.916 41.5098 218.53 43.6061 219.758 45.1484C 221.001 46.6758 222.663 47.4395 224.744 47.4395C 226.796 47.4395 228.458 46.6982 229.73 45.2158C 231.018 43.7334 231.662 41.8617 231.662 39.6006ZM 261.288 39.4209L 245.049 39.4209C 245.109 41.9814 245.798 43.958 247.115 45.3506C 248.433 46.7432 250.245 47.4395 252.551 47.4395C 255.141 47.4395 257.522 46.5859 259.693 44.8789L 259.693 48.3379C 257.672 49.8053 254.999 50.5391 251.675 50.5391C 248.425 50.5391 245.872 49.4984 244.016 47.417C 242.159 45.3206 241.23 42.3783 241.23 38.5898C 241.23 35.0111 242.241 32.0986 244.263 29.8525C 246.299 27.5915 248.822 26.4609 251.832 26.4609C 254.842 26.4609 257.17 27.4342 258.817 29.3809C 260.465 31.3275 261.288 34.0303 261.288 37.4893L 261.288 39.4209ZM 257.515 36.2988C 257.5 34.1725 256.983 32.5179 255.965 31.335C 254.962 30.152 253.562 29.5605 251.765 29.5605C 250.028 29.5605 248.553 30.182 247.34 31.4248C 246.127 32.6676 245.378 34.2923 245.094 36.2988L 257.515 36.2988ZM 278.875 30.7285C 278.231 30.2344 277.303 29.9873 276.09 29.9873C 274.518 29.9873 273.2 30.7285 272.137 32.2109C 271.089 33.6934 270.564 35.7148 270.564 38.2754L 270.564 50L 266.881 50L 266.881 27L 270.564 27L 270.564 31.7393L 270.654 31.7393C 271.178 30.1221 271.979 28.8643 273.058 27.9658C 274.136 27.0524 275.341 26.5957 276.674 26.5957C 277.632 26.5957 278.366 26.7005 278.875 26.9102L 278.875 30.7285ZM 284.76 21.1602C 284.101 21.1602 283.539 20.9355 283.075 20.4863C 282.611 20.0371 282.379 19.4681 282.379 18.7793C 282.379 18.0905 282.611 17.5215 283.075 17.0723C 283.539 16.6081 284.101 16.376 284.76 16.376C 285.434 16.376 286.003 16.6081 286.467 17.0723C 286.946 17.5215 287.186 18.0905 287.186 18.7793C 287.186 19.4382 286.946 19.9997 286.467 20.4639C 286.003 20.9281 285.434 21.1602 284.76 21.1602ZM 286.557 50L 282.873 50L 282.873 27L 286.557 27L 286.557 50ZM 309.691 48.9443C 307.924 50.0075 305.828 50.5391 303.402 50.5391C 300.123 50.5391 297.473 49.4759 295.451 47.3496C 293.445 45.2083 292.441 42.4382 292.441 39.0391C 292.441 35.2507 293.527 32.2109 295.698 29.9199C 297.869 27.6139 300.767 26.4609 304.391 26.4609C 306.412 26.4609 308.194 26.8353 309.736 27.584L 309.736 31.3574C 308.029 30.1595 306.202 29.5605 304.256 29.5605C 301.905 29.5605 299.973 30.4066 298.461 32.0986C 296.964 33.7757 296.215 35.9844 296.215 38.7246C 296.215 41.4199 296.919 43.5462 298.326 45.1035C 299.749 46.6608 301.65 47.4395 304.031 47.4395C 306.038 47.4395 307.924 46.7731 309.691 45.4404L 309.691 48.9443ZM 352.592 50L 348.818 50L 348.818 35.3105L 332.152 35.3105L 332.152 50L 328.379 50L 328.379 17.791L 332.152 17.791L 332.152 31.9189L 348.818 31.9189L 348.818 17.791L 352.592 17.791L 352.592 50ZM 377.007 50L 373.323 50L 373.323 46.4062L 373.233 46.4062C 371.631 49.1615 369.273 50.5391 366.158 50.5391C 363.867 50.5391 362.07 49.9326 360.768 48.7197C 359.48 47.5068 358.836 45.8971 358.836 43.8906C 358.836 39.5931 361.367 37.0924 366.428 36.3887L 373.323 35.4229C 373.323 31.5146 371.743 29.5605 368.584 29.5605C 365.814 29.5605 363.313 30.5039 361.082 32.3906L 361.082 28.6172C 363.343 27.1797 365.949 26.4609 368.898 26.4609C 374.304 26.4609 377.007 29.321 377.007 35.041L 377.007 50ZM 373.323 38.3652L 367.775 39.1289C 366.068 39.3685 364.781 39.7952 363.912 40.4092C 363.044 41.0081 362.609 42.0788 362.609 43.6211C 362.609 44.7441 363.006 45.665 363.8 46.3838C 364.608 47.0876 365.679 47.4395 367.012 47.4395C 368.839 47.4395 370.343 46.8031 371.526 45.5303C 372.724 44.2425 373.323 42.6178 373.323 40.6562L 373.323 38.3652ZM 403.039 50L 399.355 50L 399.355 36.8828C 399.355 32.0013 397.574 29.5605 394.01 29.5605C 392.168 29.5605 390.641 30.2568 389.428 31.6494C 388.23 33.027 387.631 34.7715 387.631 36.8828L 387.631 50L 383.947 50L 383.947 27L 387.631 27L 387.631 30.8184L 387.721 30.8184C 389.458 27.9134 391.973 26.4609 395.268 26.4609C 397.783 26.4609 399.707 27.277 401.04 28.9092C 402.373 30.5264 403.039 32.8698 403.039 35.9395L 403.039 50ZM 429.633 50L 425.949 50L 425.949 46.0918L 425.859 46.0918C 424.152 49.0566 421.517 50.5391 417.953 50.5391C 415.063 50.5391 412.75 49.5133 411.013 47.4619C 409.291 45.3955 408.43 42.5879 408.43 39.0391C 408.43 35.2357 409.388 32.1885 411.305 29.8975C 413.221 27.6064 415.774 26.4609 418.964 26.4609C 422.123 26.4609 424.422 27.7038 425.859 30.1895L 425.949 30.1895L 425.949 15.9492L 429.633 15.9492L 429.633 50ZM 425.949 39.6006L 425.949 36.209C 425.949 34.3522 425.335 32.7799 424.107 31.4922C 422.88 30.2044 421.322 29.5605 419.436 29.5605C 417.189 29.5605 415.423 30.3841 414.135 32.0312C 412.847 33.6784 412.203 35.9544 412.203 38.8594C 412.203 41.5098 412.817 43.6061 414.045 45.1484C 415.288 46.6758 416.95 47.4395 419.031 47.4395C 421.083 47.4395 422.745 46.6982 424.018 45.2158C 425.305 43.7334 425.949 41.8617 425.949 39.6006ZM 455.575 39.4209L 439.336 39.4209C 439.396 41.9814 440.085 43.958 441.402 45.3506C 442.72 46.7432 444.532 47.4395 446.838 47.4395C 449.428 47.4395 451.809 46.5859 453.98 44.8789L 453.98 48.3379C 451.959 49.8053 449.286 50.5391 445.962 50.5391C 442.713 50.5391 440.16 49.4984 438.303 47.417C 436.446 45.3206 435.518 42.3783 435.518 38.5898C 435.518 35.0111 436.528 32.0986 438.55 29.8525C 440.586 27.5915 443.109 26.4609 446.119 26.4609C 449.129 26.4609 451.457 27.4342 453.104 29.3809C 454.752 31.3275 455.575 34.0303 455.575 37.4893L 455.575 39.4209ZM 451.802 36.2988C 451.787 34.1725 451.27 32.5179 450.252 31.335C 449.249 30.152 447.849 29.5605 446.052 29.5605C 444.315 29.5605 442.84 30.182 441.627 31.4248C 440.414 32.6676 439.665 34.2923 439.381 36.2988L 451.802 36.2988ZM 464.852 50L 461.168 50L 461.168 15.9492L 464.852 15.9492L 464.852 50Z"/>
<path id="path9_fill" d="M 38.5654 50L 33.2646 50L 33.2646 29.1562C 33.2646 27.4492 33.3695 25.3604 33.5791 22.8896L 33.4893 22.8896C 33.1598 24.2972 32.8678 25.3079 32.6133 25.9219L 23 50L 19.3164 50L 9.68066 26.1016C 9.41113 25.3978 9.12663 24.3271 8.82715 22.8896L 8.7373 22.8896C 8.8571 24.1774 8.91699 26.2812 8.91699 29.2012L 8.91699 50L 3.97559 50L 3.97559 17.791L 11.5 17.791L 19.9678 39.2412C 20.6117 40.8883 21.0309 42.1162 21.2256 42.9248L 21.3379 42.9248C 21.8919 41.2327 22.3411 39.9749 22.6855 39.1514L 31.3105 17.791L 38.5654 17.791L 38.5654 50ZM 63.5869 50L 58.5332 50L 58.5332 46.4062L 58.4434 46.4062C 56.8561 49.1615 54.5277 50.5391 51.458 50.5391C 49.1969 50.5391 47.4225 49.9251 46.1348 48.6973C 44.862 47.4694 44.2256 45.8447 44.2256 43.8232C 44.2256 39.4808 46.7262 36.9502 51.7275 36.2314L 58.5557 35.2656C 58.5557 31.9863 56.9984 30.3467 53.8838 30.3467C 51.1436 30.3467 48.6729 31.29 46.4717 33.1768L 46.4717 28.6172C 48.8975 27.1797 51.6976 26.4609 54.8721 26.4609C 60.682 26.4609 63.5869 29.321 63.5869 35.041L 63.5869 50ZM 58.5557 38.7021L 53.7266 39.376C 52.2292 39.5706 51.0986 39.9375 50.335 40.4766C 49.5863 41.0007 49.2119 41.929 49.2119 43.2617C 49.2119 44.235 49.5563 45.0361 50.2451 45.665C 50.9489 46.279 51.8848 46.5859 53.0527 46.5859C 54.64 46.5859 55.9502 46.0319 56.9834 44.9238C 58.0316 43.8008 58.5557 42.3932 58.5557 40.7012L 58.5557 38.7021ZM 68.5283 49.2812L 68.5283 44.4521C 70.4749 45.9346 72.6237 46.6758 74.9746 46.6758C 78.1191 46.6758 79.6914 45.7474 79.6914 43.8906C 79.6914 43.3665 79.5566 42.9248 79.2871 42.5654C 79.0176 42.1911 78.6507 41.8617 78.1865 41.5771C 77.7373 41.2926 77.1982 41.0381 76.5693 40.8135C 75.9554 40.5889 75.2666 40.3343 74.5029 40.0498C 73.5596 39.6755 72.7061 39.2786 71.9424 38.8594C 71.1937 38.4401 70.5648 37.9684 70.0557 37.4443C 69.5615 36.9053 69.1872 36.2988 68.9326 35.625C 68.6781 34.9512 68.5508 34.165 68.5508 33.2666C 68.5508 32.1585 68.8128 31.1852 69.3369 30.3467C 69.861 29.4932 70.5648 28.7819 71.4482 28.2129C 72.3317 27.6289 73.335 27.1947 74.458 26.9102C 75.5811 26.6107 76.7415 26.4609 77.9395 26.4609C 80.0658 26.4609 81.9674 26.7829 83.6445 27.4268L 83.6445 31.9863C 82.0273 30.8783 80.1706 30.3242 78.0742 30.3242C 77.4154 30.3242 76.8164 30.3916 76.2773 30.5264C 75.7533 30.6611 75.304 30.8483 74.9297 31.0879C 74.5553 31.3275 74.2633 31.6195 74.0537 31.9639C 73.8441 32.2933 73.7393 32.6602 73.7393 33.0645C 73.7393 33.5586 73.8441 33.9779 74.0537 34.3223C 74.2633 34.6667 74.5703 34.9736 74.9746 35.2432C 75.3939 35.4977 75.888 35.7373 76.457 35.9619C 77.041 36.1715 77.7074 36.4036 78.4561 36.6582C 79.4443 37.0625 80.3278 37.4743 81.1064 37.8936C 81.9001 38.3128 82.5739 38.792 83.1279 39.3311C 83.682 39.8551 84.1087 40.4691 84.4082 41.1729C 84.7077 41.8617 84.8574 42.6852 84.8574 43.6436C 84.8574 44.8115 84.5879 45.8298 84.0488 46.6982C 83.5098 47.5667 82.791 48.2855 81.8926 48.8545C 80.9941 49.4235 79.9535 49.8428 78.7705 50.1123C 77.6025 50.3968 76.3672 50.5391 75.0645 50.5391C 72.5488 50.5391 70.3701 50.1198 68.5283 49.2812ZM 88.3838 49.2812L 88.3838 44.4521C 90.3304 45.9346 92.4792 46.6758 94.8301 46.6758C 97.9746 46.6758 99.5469 45.7474 99.5469 43.8906C 99.5469 43.3665 99.4121 42.9248 99.1426 42.5654C 98.873 42.1911 98.5062 41.8617 98.042 41.5771C 97.5928 41.2926 97.0537 41.0381 96.4248 40.8135C 95.8109 40.5889 95.1221 40.3343 94.3584 40.0498C 93.415 39.6755 92.5615 39.2786 91.7979 38.8594C 91.0492 38.4401 90.4202 37.9684 89.9111 37.4443C 89.417 36.9053 89.0426 36.2988 88.7881 35.625C 88.5335 34.9512 88.4062 34.165 88.4062 33.2666C 88.4062 32.1585 88.6683 31.1852 89.1924 30.3467C 89.7165 29.4932 90.4202 28.7819 91.3037 28.2129C 92.1872 27.6289 93.1904 27.1947 94.3135 26.9102C 95.4365 26.6107 96.597 26.4609 97.7949 26.4609C 99.9212 26.4609 101.823 26.7829 103.5 27.4268L 103.5 31.9863C 101.883 30.8783 100.026 30.3242 97.9297 30.3242C 97.2708 30.3242 96.6719 30.3916 96.1328 30.5264C 95.6087 30.6611 95.1595 30.8483 94.7852 31.0879C 94.4108 31.3275 94.1188 31.6195 93.9092 31.9639C 93.6995 32.2933 93.5947 32.6602 93.5947 33.0645C 93.5947 33.5586 93.6995 33.9779 93.9092 34.3223C 94.1188 34.6667 94.4258 34.9736 94.8301 35.2432C 95.2493 35.4977 95.7435 35.7373 96.3125 35.9619C 96.8965 36.1715 97.5628 36.4036 98.3115 36.6582C 99.2998 37.0625 100.183 37.4743 100.962 37.8936C 101.756 38.3128 102.429 38.792 102.983 39.3311C 103.537 39.8551 103.964 40.4691 104.264 41.1729C 104.563 41.8617 104.713 42.6852 104.713 43.6436C 104.713 44.8115 104.443 45.8298 103.904 46.6982C 103.365 47.5667 102.646 48.2855 101.748 48.8545C 100.85 49.4235 99.8089 49.8428 98.626 50.1123C 97.458 50.3968 96.2227 50.5391 94.9199 50.5391C 92.4043 50.5391 90.2256 50.1198 88.3838 49.2812ZM 124.973 22.1709C 124.119 22.1709 123.385 21.8939 122.771 21.3398C 122.173 20.7858 121.873 20.082 121.873 19.2285C 121.873 18.375 122.173 17.6637 122.771 17.0947C 123.385 16.5257 124.119 16.2412 124.973 16.2412C 125.856 16.2412 126.605 16.5257 127.219 17.0947C 127.833 17.6637 128.14 18.375 128.14 19.2285C 128.14 20.0371 127.833 20.7334 127.219 21.3174C 126.605 21.8864 125.856 22.1709 124.973 22.1709ZM 127.556 50L 122.345 50L 122.345 27L 127.556 27L 127.556 50ZM 154.868 50L 149.657 50L 149.657 37.04C 149.657 32.7425 148.137 30.5938 145.098 30.5938C 143.51 30.5938 142.2 31.1927 141.167 32.3906C 140.134 33.5736 139.617 35.071 139.617 36.8828L 139.617 50L 134.384 50L 134.384 27L 139.617 27L 139.617 30.8184L 139.707 30.8184C 141.429 27.9134 143.915 26.4609 147.164 26.4609C 149.665 26.4609 151.574 27.277 152.892 28.9092C 154.209 30.5264 154.868 32.8698 154.868 35.9395L 154.868 50ZM 174.499 50L 174.499 17.791L 184.719 17.791C 187.833 17.791 190.297 18.4723 192.108 19.835C 193.935 21.1976 194.849 22.972 194.849 25.1582C 194.849 26.985 194.332 28.5723 193.299 29.9199C 192.266 31.2676 190.836 32.2259 189.009 32.7949L 189.009 32.8848C 191.225 33.1393 192.992 33.9629 194.31 35.3555C 195.642 36.7331 196.309 38.5299 196.309 40.7461C 196.309 43.5013 195.223 45.7324 193.052 47.4395C 190.881 49.1465 188.14 50 184.831 50L 174.499 50ZM 179.822 22.0811L 179.822 31.2451L 183.281 31.2451C 185.138 31.2451 186.59 30.8109 187.639 29.9424C 188.702 29.0589 189.233 27.8161 189.233 26.2139C 189.233 23.4587 187.392 22.0811 183.708 22.0811L 179.822 22.0811ZM 179.822 35.5352L 179.822 45.7324L 184.382 45.7324C 186.373 45.7324 187.908 45.2757 188.986 44.3623C 190.079 43.4339 190.626 42.1611 190.626 40.5439C 190.626 37.2048 188.312 35.5352 183.686 35.5352L 179.822 35.5352ZM 248.777 50L 243.566 50L 243.566 37.4668C 243.566 35.056 243.222 33.3115 242.533 32.2334C 241.859 31.1553 240.714 30.6162 239.097 30.6162C 237.734 30.6162 236.574 31.2975 235.615 32.6602C 234.672 34.0228 234.2 35.6549 234.2 37.5566L 234.2 50L 228.967 50L 228.967 37.04C 228.967 32.7575 227.454 30.6162 224.43 30.6162C 223.022 30.6162 221.862 31.2601 220.948 32.5479C 220.05 33.8356 219.601 35.5052 219.601 37.5566L 219.601 50L 214.39 50L 214.39 27L 219.601 27L 219.601 30.6387L 219.69 30.6387C 221.353 27.8535 223.771 26.4609 226.945 26.4609C 228.533 26.4609 229.918 26.9027 231.101 27.7861C 232.299 28.6546 233.115 29.8001 233.549 31.2227C 235.256 28.0482 237.801 26.4609 241.186 26.4609C 246.247 26.4609 248.777 29.583 248.777 35.8271L 248.777 50ZM 257.762 22.1709C 256.908 22.1709 256.174 21.8939 255.561 21.3398C 254.962 20.7858 254.662 20.082 254.662 19.2285C 254.662 18.375 254.962 17.6637 255.561 17.0947C 256.174 16.5257 256.908 16.2412 257.762 16.2412C 258.645 16.2412 259.394 16.5257 260.008 17.0947C 260.622 17.6637 260.929 18.375 260.929 19.2285C 260.929 20.0371 260.622 20.7334 260.008 21.3174C 259.394 21.8864 258.645 22.1709 257.762 22.1709ZM 260.345 50L 255.134 50L 255.134 27L 260.345 27L 260.345 50ZM 287.657 50L 282.446 50L 282.446 37.04C 282.446 32.7425 280.926 30.5938 277.887 30.5938C 276.299 30.5938 274.989 31.1927 273.956 32.3906C 272.923 33.5736 272.406 35.071 272.406 36.8828L 272.406 50L 267.173 50L 267.173 27L 272.406 27L 272.406 30.8184L 272.496 30.8184C 274.218 27.9134 276.704 26.4609 279.953 26.4609C 282.454 26.4609 284.363 27.277 285.681 28.9092C 286.998 30.5264 287.657 32.8698 287.657 35.9395L 287.657 50ZM 304.233 50.5391C 300.685 50.5391 297.847 49.4684 295.721 47.3271C 293.609 45.1709 292.554 42.3184 292.554 38.7695C 292.554 34.9062 293.654 31.889 295.855 29.7178C 298.072 27.5465 301.051 26.4609 304.795 26.4609C 308.389 26.4609 311.189 27.5166 313.195 29.6279C 315.202 31.7393 316.205 34.6667 316.205 38.4102C 316.205 42.0788 315.119 45.0212 312.948 47.2373C 310.792 49.4385 307.887 50.5391 304.233 50.5391ZM 304.48 30.6162C 302.444 30.6162 300.834 31.3275 299.651 32.75C 298.468 34.1725 297.877 36.1341 297.877 38.6348C 297.877 41.0456 298.476 42.9473 299.674 44.3398C 300.872 45.7174 302.474 46.4062 304.48 46.4062C 306.532 46.4062 308.104 45.7249 309.197 44.3623C 310.305 42.9997 310.859 41.0605 310.859 38.5449C 310.859 36.0143 310.305 34.0602 309.197 32.6826C 308.104 31.305 306.532 30.6162 304.48 30.6162ZM 334.87 31.9639C 334.241 31.4697 333.335 31.2227 332.152 31.2227C 330.61 31.2227 329.322 31.9189 328.289 33.3115C 327.256 34.7041 326.739 36.5983 326.739 38.9941L 326.739 50L 321.528 50L 321.528 27L 326.739 27L 326.739 31.7393L 326.829 31.7393C 327.338 30.1221 328.117 28.8643 329.165 27.9658C 330.228 27.0524 331.411 26.5957 332.714 26.5957C 333.657 26.5957 334.376 26.738 334.87 27.0225L 334.87 31.9639Z"/>
<path id="path10_fill" d="M 2.71777 48.6973L 2.71777 44.25C 3.22689 44.6992 3.83333 45.1035 4.53711 45.4629C 5.25586 45.8223 6.00456 46.1292 6.7832 46.3838C 7.57682 46.6234 8.37044 46.8105 9.16406 46.9453C 9.95768 47.0801 10.6914 47.1475 11.3652 47.1475C 13.6862 47.1475 15.4157 46.7207 16.5537 45.8672C 17.7067 44.9987 18.2832 43.7559 18.2832 42.1387C 18.2832 41.2702 18.0885 40.514 17.6992 39.8701C 17.3249 39.2262 16.8008 38.6423 16.127 38.1182C 15.4531 37.5791 14.652 37.07 13.7236 36.5908C 12.8102 36.0967 11.8219 35.5801 10.7588 35.041C 9.63574 34.472 8.58757 33.8955 7.61426 33.3115C 6.64095 32.7275 5.79492 32.0837 5.07617 31.3799C 4.35742 30.6761 3.78841 29.8825 3.36914 28.999C 2.96484 28.1006 2.7627 27.0524 2.7627 25.8545C 2.7627 24.387 3.08464 23.1143 3.72852 22.0361C 4.3724 20.943 5.21842 20.0446 6.2666 19.3408C 7.31478 18.637 8.50521 18.113 9.83789 17.7686C 11.1855 17.4242 12.5557 17.252 13.9482 17.252C 17.1227 17.252 19.4362 17.6338 20.8887 18.3975L 20.8887 22.6426C 18.987 21.3249 16.5462 20.666 13.5664 20.666C 12.7428 20.666 11.9193 20.7559 11.0957 20.9355C 10.2721 21.1003 9.53841 21.3773 8.89453 21.7666C 8.25065 22.1559 7.72656 22.6576 7.32227 23.2715C 6.91797 23.8854 6.71582 24.6341 6.71582 25.5176C 6.71582 26.3411 6.86556 27.0524 7.16504 27.6514C 7.47949 28.2503 7.9362 28.7969 8.53516 29.291C 9.13411 29.7852 9.86035 30.2643 10.7139 30.7285C 11.5824 31.1927 12.5781 31.7018 13.7012 32.2559C 14.8542 32.8249 15.9473 33.4238 16.9805 34.0527C 18.0137 34.6816 18.9196 35.3779 19.6982 36.1416C 20.4769 36.9053 21.0908 37.7513 21.54 38.6797C 22.0042 39.6081 22.2363 40.6712 22.2363 41.8691C 22.2363 43.4564 21.9219 44.804 21.293 45.9121C 20.679 47.0052 19.8405 47.8962 18.7773 48.585C 17.7292 49.2738 16.5163 49.7679 15.1387 50.0674C 13.7611 50.3818 12.3086 50.5391 10.7812 50.5391C 10.2721 50.5391 9.64323 50.4941 8.89453 50.4043C 8.14583 50.3294 7.38216 50.2096 6.60352 50.0449C 5.82487 49.8952 5.08366 49.708 4.37988 49.4834C 3.69108 49.2438 3.13704 48.9818 2.71777 48.6973ZM 46.6514 39.4209L 30.4121 39.4209C 30.472 41.9814 31.1608 43.958 32.4785 45.3506C 33.7962 46.7432 35.6081 47.4395 37.9141 47.4395C 40.5046 47.4395 42.8854 46.5859 45.0566 44.8789L 45.0566 48.3379C 43.0352 49.8053 40.3623 50.5391 37.0381 50.5391C 33.7887 50.5391 31.2357 49.4984 29.3789 47.417C 27.5221 45.3206 26.5938 42.3783 26.5938 38.5898C 26.5938 35.0111 27.6045 32.0986 29.626 29.8525C 31.6624 27.5915 34.1855 26.4609 37.1953 26.4609C 40.2051 26.4609 42.5335 27.4342 44.1807 29.3809C 45.8278 31.3275 46.6514 34.0303 46.6514 37.4893L 46.6514 39.4209ZM 42.8779 36.2988C 42.863 34.1725 42.3464 32.5179 41.3281 31.335C 40.3249 30.152 38.9248 29.5605 37.1279 29.5605C 35.391 29.5605 33.916 30.182 32.7031 31.4248C 31.4902 32.6676 30.7415 34.2923 30.457 36.2988L 42.8779 36.2988ZM 67.9219 48.9443C 66.1549 50.0075 64.0586 50.5391 61.6328 50.5391C 58.3535 50.5391 55.7031 49.4759 53.6816 47.3496C 51.6751 45.2083 50.6719 42.4382 50.6719 39.0391C 50.6719 35.2507 51.7575 32.2109 53.9287 29.9199C 56.0999 27.6139 58.9974 26.4609 62.6211 26.4609C 64.6426 26.4609 66.4245 26.8353 67.9668 27.584L 67.9668 31.3574C 66.2598 30.1595 64.4329 29.5605 62.4863 29.5605C 60.1354 29.5605 58.2038 30.4066 56.6914 32.0986C 55.194 33.7757 54.4453 35.9844 54.4453 38.7246C 54.4453 41.4199 55.1491 43.5462 56.5566 45.1035C 57.9792 46.6608 59.8809 47.4395 62.2617 47.4395C 64.2682 47.4395 66.1549 46.7731 67.9219 45.4404L 67.9219 48.9443ZM 83.1055 50.5391C 79.7064 50.5391 76.9886 49.4684 74.9521 47.3271C 72.9307 45.1709 71.9199 42.3184 71.9199 38.7695C 71.9199 34.9062 72.9756 31.889 75.0869 29.7178C 77.1982 27.5465 80.0508 26.4609 83.6445 26.4609C 87.0736 26.4609 89.7464 27.5166 91.6631 29.6279C 93.5947 31.7393 94.5605 34.6667 94.5605 38.4102C 94.5605 42.0788 93.5199 45.0212 91.4385 47.2373C 89.3721 49.4385 86.5944 50.5391 83.1055 50.5391ZM 83.375 29.5605C 81.0091 29.5605 79.1374 30.3691 77.7598 31.9863C 76.3822 33.5885 75.6934 35.8047 75.6934 38.6348C 75.6934 41.36 76.3896 43.5088 77.7822 45.0811C 79.1748 46.6533 81.0391 47.4395 83.375 47.4395C 85.7559 47.4395 87.5827 46.6683 88.8555 45.126C 90.1432 43.5837 90.7871 41.39 90.7871 38.5449C 90.7871 35.6699 90.1432 33.4538 88.8555 31.8965C 87.5827 30.3392 85.7559 29.5605 83.375 29.5605ZM 119.537 50L 115.854 50L 115.854 36.8828C 115.854 32.0013 114.072 29.5605 110.508 29.5605C 108.666 29.5605 107.139 30.2568 105.926 31.6494C 104.728 33.027 104.129 34.7715 104.129 36.8828L 104.129 50L 100.445 50L 100.445 27L 104.129 27L 104.129 30.8184L 104.219 30.8184C 105.956 27.9134 108.471 26.4609 111.766 26.4609C 114.281 26.4609 116.205 27.277 117.538 28.9092C 118.871 30.5264 119.537 32.8698 119.537 35.9395L 119.537 50ZM 146.131 50L 142.447 50L 142.447 46.0918L 142.357 46.0918C 140.65 49.0566 138.015 50.5391 134.451 50.5391C 131.561 50.5391 129.248 49.5133 127.511 47.4619C 125.789 45.3955 124.928 42.5879 124.928 39.0391C 124.928 35.2357 125.886 32.1885 127.803 29.8975C 129.719 27.6064 132.272 26.4609 135.462 26.4609C 138.621 26.4609 140.92 27.7038 142.357 30.1895L 142.447 30.1895L 142.447 15.9492L 146.131 15.9492L 146.131 50ZM 142.447 39.6006L 142.447 36.209C 142.447 34.3522 141.833 32.7799 140.605 31.4922C 139.378 30.2044 137.82 29.5605 135.934 29.5605C 133.688 29.5605 131.921 30.3841 130.633 32.0312C 129.345 33.6784 128.701 35.9544 128.701 38.8594C 128.701 41.5098 129.315 43.6061 130.543 45.1484C 131.786 46.6758 133.448 47.4395 135.529 47.4395C 137.581 47.4395 139.243 46.6982 140.516 45.2158C 141.803 43.7334 142.447 41.8617 142.447 39.6006ZM 169.895 50L 166.211 50L 166.211 15.9492L 169.895 15.9492L 169.895 50ZM 179.238 21.1602C 178.579 21.1602 178.018 20.9355 177.554 20.4863C 177.09 20.0371 176.857 19.4681 176.857 18.7793C 176.857 18.0905 177.09 17.5215 177.554 17.0723C 178.018 16.6081 178.579 16.376 179.238 16.376C 179.912 16.376 180.481 16.6081 180.945 17.0723C 181.424 17.5215 181.664 18.0905 181.664 18.7793C 181.664 19.4382 181.424 19.9997 180.945 20.4639C 180.481 20.9281 179.912 21.1602 179.238 21.1602ZM 181.035 50L 177.352 50L 177.352 27L 181.035 27L 181.035 50ZM 207.584 50L 203.9 50L 203.9 36.8828C 203.9 32.0013 202.118 29.5605 198.555 29.5605C 196.713 29.5605 195.186 30.2568 193.973 31.6494C 192.775 33.027 192.176 34.7715 192.176 36.8828L 192.176 50L 188.492 50L 188.492 27L 192.176 27L 192.176 30.8184L 192.266 30.8184C 194.003 27.9134 196.518 26.4609 199.812 26.4609C 202.328 26.4609 204.252 27.277 205.585 28.9092C 206.918 30.5264 207.584 32.8698 207.584 35.9395L 207.584 50ZM 233.032 39.4209L 216.793 39.4209C 216.853 41.9814 217.542 43.958 218.859 45.3506C 220.177 46.7432 221.989 47.4395 224.295 47.4395C 226.885 47.4395 229.266 46.5859 231.438 44.8789L 231.438 48.3379C 229.416 49.8053 226.743 50.5391 223.419 50.5391C 220.17 50.5391 217.617 49.4984 215.76 47.417C 213.903 45.3206 212.975 42.3783 212.975 38.5898C 212.975 35.0111 213.985 32.0986 216.007 29.8525C 218.043 27.5915 220.566 26.4609 223.576 26.4609C 226.586 26.4609 228.914 27.4342 230.562 29.3809C 232.209 31.3275 233.032 34.0303 233.032 37.4893L 233.032 39.4209ZM 229.259 36.2988C 229.244 34.1725 228.727 32.5179 227.709 31.335C 226.706 30.152 225.306 29.5605 223.509 29.5605C 221.772 29.5605 220.297 30.182 219.084 31.4248C 217.871 32.6676 217.122 34.2923 216.838 36.2988L 229.259 36.2988ZM 260.861 50.5391C 257.462 50.5391 254.744 49.4684 252.708 47.3271C 250.687 45.1709 249.676 42.3184 249.676 38.7695C 249.676 34.9062 250.731 31.889 252.843 29.7178C 254.954 27.5465 257.807 26.4609 261.4 26.4609C 264.829 26.4609 267.502 27.5166 269.419 29.6279C 271.351 31.7393 272.316 34.6667 272.316 38.4102C 272.316 42.0788 271.276 45.0212 269.194 47.2373C 267.128 49.4385 264.35 50.5391 260.861 50.5391ZM 261.131 29.5605C 258.765 29.5605 256.893 30.3691 255.516 31.9863C 254.138 33.5885 253.449 35.8047 253.449 38.6348C 253.449 41.36 254.146 43.5088 255.538 45.0811C 256.931 46.6533 258.795 47.4395 261.131 47.4395C 263.512 47.4395 265.339 46.6683 266.611 45.126C 267.899 43.5837 268.543 41.39 268.543 38.5449C 268.543 35.6699 267.899 33.4538 266.611 31.8965C 265.339 30.3392 263.512 29.5605 261.131 29.5605ZM 289.566 19.1836C 288.848 18.7793 288.032 18.5771 287.118 18.5771C 284.543 18.5771 283.255 20.2018 283.255 23.4512L 283.255 27L 288.646 27L 288.646 30.1445L 283.255 30.1445L 283.255 50L 279.594 50L 279.594 30.1445L 275.663 30.1445L 275.663 27L 279.594 27L 279.594 23.2715C 279.594 20.8607 280.29 18.959 281.683 17.5664C 283.075 16.1589 284.812 15.4551 286.894 15.4551C 288.017 15.4551 288.908 15.5898 289.566 15.8594L 289.566 19.1836ZM 315.913 49.7754C 315.045 50.2546 313.899 50.4941 312.477 50.4941C 308.449 50.4941 306.435 48.248 306.435 43.7559L 306.435 30.1445L 302.481 30.1445L 302.481 27L 306.435 27L 306.435 21.3848L 310.118 20.1943L 310.118 27L 315.913 27L 315.913 30.1445L 310.118 30.1445L 310.118 43.1045C 310.118 44.6468 310.38 45.7474 310.904 46.4062C 311.428 47.0651 312.297 47.3945 313.51 47.3945C 314.438 47.3945 315.239 47.14 315.913 46.6309L 315.913 49.7754ZM 339.317 39.4209L 323.078 39.4209C 323.138 41.9814 323.827 43.958 325.145 45.3506C 326.462 46.7432 328.274 47.4395 330.58 47.4395C 333.171 47.4395 335.551 46.5859 337.723 44.8789L 337.723 48.3379C 335.701 49.8053 333.028 50.5391 329.704 50.5391C 326.455 50.5391 323.902 49.4984 322.045 47.417C 320.188 45.3206 319.26 42.3783 319.26 38.5898C 319.26 35.0111 320.271 32.0986 322.292 29.8525C 324.328 27.5915 326.852 26.4609 329.861 26.4609C 332.871 26.4609 335.2 27.4342 336.847 29.3809C 338.494 31.3275 339.317 34.0303 339.317 37.4893L 339.317 39.4209ZM 335.544 36.2988C 335.529 34.1725 335.012 32.5179 333.994 31.335C 332.991 30.152 331.591 29.5605 329.794 29.5605C 328.057 29.5605 326.582 30.182 325.369 31.4248C 324.156 32.6676 323.408 34.2923 323.123 36.2988L 335.544 36.2988ZM 361.711 27L 353.984 38.6348L 361.576 50L 357.286 50L 352.771 42.543C 352.487 42.0788 352.15 41.4948 351.761 40.791L 351.671 40.791C 351.596 40.9258 351.244 41.5098 350.615 42.543L 346.011 50L 341.766 50L 349.604 38.7246L 342.103 27L 346.393 27L 350.84 34.8613C 351.169 35.4453 351.491 36.0443 351.806 36.6582L 351.896 36.6582L 357.646 27L 361.711 27ZM 376.692 49.7754C 375.824 50.2546 374.678 50.4941 373.256 50.4941C 369.228 50.4941 367.214 48.248 367.214 43.7559L 367.214 30.1445L 363.261 30.1445L 363.261 27L 367.214 27L 367.214 21.3848L 370.897 20.1943L 370.897 27L 376.692 27L 376.692 30.1445L 370.897 30.1445L 370.897 43.1045C 370.897 44.6468 371.16 45.7474 371.684 46.4062C 372.208 47.0651 373.076 47.3945 374.289 47.3945C 375.217 47.3945 376.019 47.14 376.692 46.6309L 376.692 49.7754Z"/>
<path id="path11_fill" d="M 3.97559 50L 3.97559 17.791L 13.2744 17.791C 25.1488 17.791 31.0859 23.0244 31.0859 33.4912C 31.0859 38.4626 29.4388 42.4606 26.1445 45.4854C 22.8503 48.4951 18.4329 50 12.8926 50L 3.97559 50ZM 9.29883 22.3281L 9.29883 45.4854L 13.5664 45.4854C 17.3249 45.4854 20.2448 44.4521 22.3262 42.3857C 24.4225 40.3193 25.4707 37.3994 25.4707 33.626C 25.4707 26.0941 21.57 22.3281 13.7686 22.3281L 9.29883 22.3281ZM 46.6064 50.5391C 43.0576 50.5391 40.2201 49.4684 38.0938 47.3271C 35.9824 45.1709 34.9268 42.3184 34.9268 38.7695C 34.9268 34.9062 36.0273 31.889 38.2285 29.7178C 40.4447 27.5465 43.4245 26.4609 47.168 26.4609C 50.7617 26.4609 53.5618 27.5166 55.5684 29.6279C 57.5749 31.7393 58.5781 34.6667 58.5781 38.4102C 58.5781 42.0788 57.4925 45.0212 55.3213 47.2373C 53.165 49.4385 50.2601 50.5391 46.6064 50.5391ZM 46.8535 30.6162C 44.8171 30.6162 43.2074 31.3275 42.0244 32.75C 40.8415 34.1725 40.25 36.1341 40.25 38.6348C 40.25 41.0456 40.849 42.9473 42.0469 44.3398C 43.2448 45.7174 44.847 46.4062 46.8535 46.4062C 48.9049 46.4062 50.4772 45.7249 51.5703 44.3623C 52.6784 42.9997 53.2324 41.0605 53.2324 38.5449C 53.2324 36.0143 52.6784 34.0602 51.5703 32.6826C 50.4772 31.305 48.9049 30.6162 46.8535 30.6162ZM 83.959 50L 78.748 50L 78.748 46.3613L 78.6582 46.3613C 77.1458 49.1465 74.7949 50.5391 71.6055 50.5391C 66.1699 50.5391 63.4521 47.2747 63.4521 40.7461L 63.4521 27L 68.6631 27L 68.6631 40.207C 68.6631 44.3398 70.2578 46.4062 73.4473 46.4062C 74.9896 46.4062 76.2549 45.8372 77.2432 44.6992C 78.2464 43.5612 78.748 42.0713 78.748 40.2295L 78.748 27L 83.959 27L 83.959 50ZM 96.0654 46.6758L 95.9756 46.6758L 95.9756 50L 90.7646 50L 90.7646 15.9492L 95.9756 15.9492L 95.9756 31.043L 96.0654 31.043C 97.8473 27.9883 100.453 26.4609 103.882 26.4609C 106.787 26.4609 109.055 27.4941 110.688 29.5605C 112.335 31.612 113.158 34.3672 113.158 37.8262C 113.158 41.6745 112.237 44.7591 110.396 47.0801C 108.554 49.3861 106.038 50.5391 102.849 50.5391C 99.8538 50.5391 97.5928 49.2513 96.0654 46.6758ZM 95.9307 37.5342L 95.9307 40.3867C 95.9307 42.0638 96.4622 43.4863 97.5254 44.6543C 98.6035 45.8223 99.9661 46.4062 101.613 46.4062C 103.545 46.4062 105.057 45.6576 106.15 44.1602C 107.258 42.6478 107.812 40.5439 107.812 37.8486C 107.812 35.5876 107.296 33.8206 106.263 32.5479C 105.244 31.2601 103.859 30.6162 102.107 30.6162C 100.251 30.6162 98.7533 31.2751 97.6152 32.5928C 96.4922 33.9105 95.9307 35.5576 95.9307 37.5342ZM 123.715 50L 118.481 50L 118.481 15.9492L 123.715 15.9492L 123.715 50ZM 149.994 39.915L 134.316 39.915C 134.376 42.0413 135.028 43.681 136.271 44.834C 137.528 45.987 139.25 46.5635 141.437 46.5635C 143.892 46.5635 146.146 45.8298 148.197 44.3623L 148.197 48.5625C 146.101 49.8802 143.331 50.5391 139.887 50.5391C 136.503 50.5391 133.845 49.4984 131.913 47.417C 129.996 45.3206 129.038 42.3783 129.038 38.5898C 129.038 35.0111 130.094 32.0986 132.205 29.8525C 134.331 27.5915 136.967 26.4609 140.111 26.4609C 143.256 26.4609 145.689 27.4717 147.411 29.4932C 149.133 31.5146 149.994 34.3223 149.994 37.916L 149.994 39.915ZM 144.963 36.2314C 144.948 34.3597 144.506 32.9072 143.638 31.874C 142.769 30.8258 141.571 30.3018 140.044 30.3018C 138.547 30.3018 137.274 30.8483 136.226 31.9414C 135.192 33.0345 134.556 34.4645 134.316 36.2314L 144.963 36.2314ZM 172.859 50L 167.626 50L 167.626 15.9492L 172.859 15.9492L 172.859 50ZM 182.293 22.1709C 181.439 22.1709 180.706 21.8939 180.092 21.3398C 179.493 20.7858 179.193 20.082 179.193 19.2285C 179.193 18.375 179.493 17.6637 180.092 17.0947C 180.706 16.5257 181.439 16.2412 182.293 16.2412C 183.176 16.2412 183.925 16.5257 184.539 17.0947C 185.153 17.6637 185.46 18.375 185.46 19.2285C 185.46 20.0371 185.153 20.7334 184.539 21.3174C 183.925 21.8864 183.176 22.1709 182.293 22.1709ZM 184.876 50L 179.665 50L 179.665 27L 184.876 27L 184.876 50ZM 212.188 50L 206.978 50L 206.978 37.04C 206.978 32.7425 205.458 30.5938 202.418 30.5938C 200.831 30.5938 199.521 31.1927 198.487 32.3906C 197.454 33.5736 196.938 35.071 196.938 36.8828L 196.938 50L 191.704 50L 191.704 27L 196.938 27L 196.938 30.8184L 197.027 30.8184C 198.749 27.9134 201.235 26.4609 204.484 26.4609C 206.985 26.4609 208.894 27.277 210.212 28.9092C 211.53 30.5264 212.188 32.8698 212.188 35.9395L 212.188 50ZM 238.041 39.915L 222.363 39.915C 222.423 42.0413 223.075 43.681 224.317 44.834C 225.575 45.987 227.297 46.5635 229.483 46.5635C 231.939 46.5635 234.193 45.8298 236.244 44.3623L 236.244 48.5625C 234.148 49.8802 231.378 50.5391 227.934 50.5391C 224.549 50.5391 221.892 49.4984 219.96 47.417C 218.043 45.3206 217.085 42.3783 217.085 38.5898C 217.085 35.0111 218.141 32.0986 220.252 29.8525C 222.378 27.5915 225.014 26.4609 228.158 26.4609C 231.303 26.4609 233.736 27.4717 235.458 29.4932C 237.18 31.5146 238.041 34.3223 238.041 37.916L 238.041 39.915ZM 233.01 36.2314C 232.995 34.3597 232.553 32.9072 231.685 31.874C 230.816 30.8258 229.618 30.3018 228.091 30.3018C 226.593 30.3018 225.321 30.8483 224.272 31.9414C 223.239 33.0345 222.603 34.4645 222.363 36.2314L 233.01 36.2314ZM 260.906 50L 255.673 50L 255.673 15.9492L 260.906 15.9492L 260.906 50ZM 270.34 22.1709C 269.486 22.1709 268.753 21.8939 268.139 21.3398C 267.54 20.7858 267.24 20.082 267.24 19.2285C 267.24 18.375 267.54 17.6637 268.139 17.0947C 268.753 16.5257 269.486 16.2412 270.34 16.2412C 271.223 16.2412 271.972 16.5257 272.586 17.0947C 273.2 17.6637 273.507 18.375 273.507 19.2285C 273.507 20.0371 273.2 20.7334 272.586 21.3174C 271.972 21.8864 271.223 22.1709 270.34 22.1709ZM 272.923 50L 267.712 50L 267.712 27L 272.923 27L 272.923 50ZM 278.313 49.2812L 278.313 44.4521C 280.26 45.9346 282.409 46.6758 284.76 46.6758C 287.904 46.6758 289.477 45.7474 289.477 43.8906C 289.477 43.3665 289.342 42.9248 289.072 42.5654C 288.803 42.1911 288.436 41.8617 287.972 41.5771C 287.522 41.2926 286.983 41.0381 286.354 40.8135C 285.741 40.5889 285.052 40.3343 284.288 40.0498C 283.345 39.6755 282.491 39.2786 281.728 38.8594C 280.979 38.4401 280.35 37.9684 279.841 37.4443C 279.347 36.9053 278.972 36.2988 278.718 35.625C 278.463 34.9512 278.336 34.165 278.336 33.2666C 278.336 32.1585 278.598 31.1852 279.122 30.3467C 279.646 29.4932 280.35 28.7819 281.233 28.2129C 282.117 27.6289 283.12 27.1947 284.243 26.9102C 285.366 26.6107 286.527 26.4609 287.725 26.4609C 289.851 26.4609 291.753 26.7829 293.43 27.4268L 293.43 31.9863C 291.812 30.8783 289.956 30.3242 287.859 30.3242C 287.201 30.3242 286.602 30.3916 286.062 30.5264C 285.538 30.6611 285.089 30.8483 284.715 31.0879C 284.34 31.3275 284.049 31.6195 283.839 31.9639C 283.629 32.2933 283.524 32.6602 283.524 33.0645C 283.524 33.5586 283.629 33.9779 283.839 34.3223C 284.049 34.6667 284.355 34.9736 284.76 35.2432C 285.179 35.4977 285.673 35.7373 286.242 35.9619C 286.826 36.1715 287.493 36.4036 288.241 36.6582C 289.229 37.0625 290.113 37.4743 290.892 37.8936C 291.685 38.3128 292.359 38.792 292.913 39.3311C 293.467 39.8551 293.894 40.4691 294.193 41.1729C 294.493 41.8617 294.643 42.6852 294.643 43.6436C 294.643 44.8115 294.373 45.8298 293.834 46.6982C 293.295 47.5667 292.576 48.2855 291.678 48.8545C 290.779 49.4235 289.739 49.8428 288.556 50.1123C 287.388 50.3968 286.152 50.5391 284.85 50.5391C 282.334 50.5391 280.155 50.1198 278.313 49.2812ZM 311.735 49.7529C 310.717 50.262 309.377 50.5166 307.715 50.5166C 303.253 50.5166 301.021 48.3753 301.021 44.0928L 301.021 31.0879L 297.181 31.0879L 297.181 27L 301.021 27L 301.021 21.6768L 306.232 20.1943L 306.232 27L 311.735 27L 311.735 31.0879L 306.232 31.0879L 306.232 42.5879C 306.232 43.9505 306.479 44.9238 306.974 45.5078C 307.468 46.0918 308.291 46.3838 309.444 46.3838C 310.328 46.3838 311.091 46.1292 311.735 45.6201L 311.735 49.7529ZM 331.523 22.1709C 330.67 22.1709 329.936 21.8939 329.322 21.3398C 328.723 20.7858 328.424 20.082 328.424 19.2285C 328.424 18.375 328.723 17.6637 329.322 17.0947C 329.936 16.5257 330.67 16.2412 331.523 16.2412C 332.407 16.2412 333.156 16.5257 333.77 17.0947C 334.383 17.6637 334.69 18.375 334.69 19.2285C 334.69 20.0371 334.383 20.7334 333.77 21.3174C 333.156 21.8864 332.407 22.1709 331.523 22.1709ZM 334.106 50L 328.896 50L 328.896 27L 334.106 27L 334.106 50ZM 353.063 49.7529C 352.045 50.262 350.705 50.5166 349.043 50.5166C 344.581 50.5166 342.35 48.3753 342.35 44.0928L 342.35 31.0879L 338.509 31.0879L 338.509 27L 342.35 27L 342.35 21.6768L 347.561 20.1943L 347.561 27L 353.063 27L 353.063 31.0879L 347.561 31.0879L 347.561 42.5879C 347.561 43.9505 347.808 44.9238 348.302 45.5078C 348.796 46.0918 349.619 46.3838 350.772 46.3838C 351.656 46.3838 352.42 46.1292 353.063 45.6201L 353.063 49.7529ZM 376.76 39.915L 361.082 39.915C 361.142 42.0413 361.793 43.681 363.036 44.834C 364.294 45.987 366.016 46.5635 368.202 46.5635C 370.658 46.5635 372.911 45.8298 374.963 44.3623L 374.963 48.5625C 372.867 49.8802 370.096 50.5391 366.652 50.5391C 363.268 50.5391 360.61 49.4984 358.679 47.417C 356.762 45.3206 355.804 42.3783 355.804 38.5898C 355.804 35.0111 356.859 32.0986 358.971 29.8525C 361.097 27.5915 363.732 26.4609 366.877 26.4609C 370.021 26.4609 372.455 27.4717 374.177 29.4932C 375.899 31.5146 376.76 34.3223 376.76 37.916L 376.76 39.915ZM 371.729 36.2314C 371.714 34.3597 371.272 32.9072 370.403 31.874C 369.535 30.8258 368.337 30.3018 366.81 30.3018C 365.312 30.3018 364.039 30.8483 362.991 31.9414C 361.958 33.0345 361.322 34.4645 361.082 36.2314L 371.729 36.2314ZM 416.111 50L 410.9 50L 410.9 37.4668C 410.9 35.056 410.556 33.3115 409.867 32.2334C 409.193 31.1553 408.048 30.6162 406.431 30.6162C 405.068 30.6162 403.908 31.2975 402.949 32.6602C 402.006 34.0228 401.534 35.6549 401.534 37.5566L 401.534 50L 396.301 50L 396.301 37.04C 396.301 32.7575 394.788 30.6162 391.764 30.6162C 390.356 30.6162 389.196 31.2601 388.282 32.5479C 387.384 33.8356 386.935 35.5052 386.935 37.5566L 386.935 50L 381.724 50L 381.724 27L 386.935 27L 386.935 30.6387L 387.024 30.6387C 388.687 27.8535 391.105 26.4609 394.279 26.4609C 395.867 26.4609 397.252 26.9027 398.435 27.7861C 399.632 28.6546 400.449 29.8001 400.883 31.2227C 402.59 28.0482 405.135 26.4609 408.52 26.4609C 413.581 26.4609 416.111 29.583 416.111 35.8271L 416.111 50Z"/>
</defs>
</svg>
