<svg width="560" height="40" viewBox="0 0 560 40" version="1.1" xmlns="http://www.w3.org/2000/svg" xmlns:xlink="http://www.w3.org/1999/xlink">
<title>user-accent</title>
<desc>Created using Figma</desc>
<g id="Canvas" transform="translate(-504 724)">
<g id="user-accent">
<path d="M 504 -724L 1064 -724L 1064 -684L 504 -684L 504 -724Z" fill="#FFFFFF"/>
<g id="Rectangle 2">
<use xlink:href="#path0_fill" transform="translate(504 -724)" fill="#0078D4"/>
</g>
<g id="A">
<use xlink:href="#path1_fill" transform="translate(515 -722)" fill="#FFFFFF"/>
</g>
<g id="User-selected system accent color">
<use xlink:href="#path2_fill" transform="translate(556 -716)"/>
</g>
</g>
</g>
<defs>
<path id="path0_fill" d="M 0 0L 40 0L 40 40L 0 40L 0 0Z"/>
<path id="path1_fill" d="M 16.6992 26L 12.5742 26L 11.3789 22.2617L 5.40234 22.2617L 4.21875 26L 0.117188 26L 6.23438 9.19531L 10.7227 9.19531L 16.6992 26ZM 10.5117 19.3555L 8.70703 13.707C 8.57422 13.2852 8.48047 12.7812 8.42578 12.1953L 8.33203 12.1953C 8.29297 12.6875 8.19531 13.1758 8.03906 13.6602L 6.21094 19.3555L 10.5117 19.3555Z"/>
<path id="path2_fill" d="M 10.4141 12.1484C 10.4141 15.513 8.84635 17.1953 5.71094 17.1953C 2.66927 17.1953 1.14844 15.5521 1.14844 12.2656L 1.14844 5.79688L 3.67969 5.79688L 3.67969 12.2969C 3.67969 14.1094 4.38802 15.0156 5.80469 15.0156C 7.19531 15.0156 7.89062 14.1406 7.89062 12.3906L 7.89062 5.79688L 10.4141 5.79688L 10.4141 12.1484ZM 12.0938 16.7891L 12.0938 14.7891C 12.5 15.0339 12.9036 15.2161 13.3047 15.3359C 13.7109 15.4557 14.0938 15.5156 14.4531 15.5156C 14.8906 15.5156 15.2344 15.4557 15.4844 15.3359C 15.7396 15.2161 15.8672 15.0339 15.8672 14.7891C 15.8672 14.6328 15.8099 14.5026 15.6953 14.3984C 15.5807 14.2943 15.4323 14.2031 15.25 14.125C 15.0729 14.0469 14.8776 13.9766 14.6641 13.9141C 14.4505 13.8516 14.2448 13.7812 14.0469 13.7031C 13.7292 13.5833 13.4479 13.4557 13.2031 13.3203C 12.9635 13.1797 12.7604 13.0182 12.5938 12.8359C 12.4323 12.6536 12.3073 12.4427 12.2188 12.2031C 12.1354 11.9635 12.0938 11.6797 12.0938 11.3516C 12.0938 10.9036 12.1901 10.5182 12.3828 10.1953C 12.5807 9.8724 12.8411 9.60938 13.1641 9.40625C 13.4922 9.19792 13.8646 9.04688 14.2812 8.95312C 14.7031 8.85417 15.1406 8.80469 15.5938 8.80469C 15.9479 8.80469 16.3073 8.83333 16.6719 8.89062C 17.0365 8.94271 17.3958 9.02083 17.75 9.125L 17.75 11.0312C 17.4375 10.849 17.1016 10.7135 16.7422 10.625C 16.388 10.5312 16.0391 10.4844 15.6953 10.4844C 15.5339 10.4844 15.3802 10.5 15.2344 10.5312C 15.0938 10.5573 14.9688 10.599 14.8594 10.6562C 14.75 10.7083 14.6641 10.7786 14.6016 10.8672C 14.5391 10.9505 14.5078 11.0469 14.5078 11.1562C 14.5078 11.3021 14.5547 11.4271 14.6484 11.5312C 14.7422 11.6354 14.8646 11.7266 15.0156 11.8047C 15.1667 11.8776 15.3333 11.9453 15.5156 12.0078C 15.7031 12.0651 15.888 12.125 16.0703 12.1875C 16.3984 12.3021 16.6953 12.4271 16.9609 12.5625C 17.2266 12.6979 17.4531 12.8568 17.6406 13.0391C 17.8333 13.2214 17.9792 13.4349 18.0781 13.6797C 18.1823 13.9245 18.2344 14.2161 18.2344 14.5547C 18.2344 15.0286 18.1302 15.4349 17.9219 15.7734C 17.7188 16.1068 17.4453 16.3802 17.1016 16.5938C 16.763 16.8021 16.3698 16.9531 15.9219 17.0469C 15.4792 17.1458 15.0182 17.1953 14.5391 17.1953C 13.6589 17.1953 12.8438 17.0599 12.0938 16.7891ZM 26.8516 13.7031L 21.6328 13.7031C 21.7161 14.8646 22.4479 15.4453 23.8281 15.4453C 24.7083 15.4453 25.4818 15.237 26.1484 14.8203L 26.1484 16.6016C 25.4089 16.9974 24.4479 17.1953 23.2656 17.1953C 21.974 17.1953 20.9714 16.8385 20.2578 16.125C 19.5443 15.4062 19.1875 14.4062 19.1875 13.125C 19.1875 11.7969 19.5729 10.7448 20.3438 9.96875C 21.1146 9.19271 22.0625 8.80469 23.1875 8.80469C 24.3542 8.80469 25.2552 9.15104 25.8906 9.84375C 26.5312 10.5365 26.8516 11.4766 26.8516 12.6641L 26.8516 13.7031ZM 24.5625 12.1875C 24.5625 11.0417 24.099 10.4688 23.1719 10.4688C 22.776 10.4688 22.4323 10.6328 22.1406 10.9609C 21.8542 11.2891 21.6797 11.6979 21.6172 12.1875L 24.5625 12.1875ZM 33.5391 11.2266C 33.2422 11.0651 32.8958 10.9844 32.5 10.9844C 31.9635 10.9844 31.5443 11.1823 31.2422 11.5781C 30.9401 11.9688 30.7891 12.5026 30.7891 13.1797L 30.7891 17L 28.3203 17L 28.3203 9L 30.7891 9L 30.7891 10.4844L 30.8203 10.4844C 31.2109 9.40104 31.9141 8.85938 32.9297 8.85938C 33.1901 8.85938 33.3932 8.89062 33.5391 8.95312L 33.5391 11.2266ZM 38.25 13.5938L 33.9766 13.5938L 33.9766 11.8672L 38.25 11.8672L 38.25 13.5938ZM 39.8438 16.7891L 39.8438 14.7891C 40.25 15.0339 40.6536 15.2161 41.0547 15.3359C 41.4609 15.4557 41.8438 15.5156 42.2031 15.5156C 42.6406 15.5156 42.9844 15.4557 43.2344 15.3359C 43.4896 15.2161 43.6172 15.0339 43.6172 14.7891C 43.6172 14.6328 43.5599 14.5026 43.4453 14.3984C 43.3307 14.2943 43.1823 14.2031 43 14.125C 42.8229 14.0469 42.6276 13.9766 42.4141 13.9141C 42.2005 13.8516 41.9948 13.7812 41.7969 13.7031C 41.4792 13.5833 41.1979 13.4557 40.9531 13.3203C 40.7135 13.1797 40.5104 13.0182 40.3438 12.8359C 40.1823 12.6536 40.0573 12.4427 39.9688 12.2031C 39.8854 11.9635 39.8438 11.6797 39.8438 11.3516C 39.8438 10.9036 39.9401 10.5182 40.1328 10.1953C 40.3307 9.8724 40.5911 9.60938 40.9141 9.40625C 41.2422 9.19792 41.6146 9.04688 42.0312 8.95312C 42.4531 8.85417 42.8906 8.80469 43.3438 8.80469C 43.6979 8.80469 44.0573 8.83333 44.4219 8.89062C 44.7865 8.94271 45.1458 9.02083 45.5 9.125L 45.5 11.0312C 45.1875 10.849 44.8516 10.7135 44.4922 10.625C 44.138 10.5312 43.7891 10.4844 43.4453 10.4844C 43.2839 10.4844 43.1302 10.5 42.9844 10.5312C 42.8438 10.5573 42.7188 10.599 42.6094 10.6562C 42.5 10.7083 42.4141 10.7786 42.3516 10.8672C 42.2891 10.9505 42.2578 11.0469 42.2578 11.1562C 42.2578 11.3021 42.3047 11.4271 42.3984 11.5312C 42.4922 11.6354 42.6146 11.7266 42.7656 11.8047C 42.9167 11.8776 43.0833 11.9453 43.2656 12.0078C 43.4531 12.0651 43.638 12.125 43.8203 12.1875C 44.1484 12.3021 44.4453 12.4271 44.7109 12.5625C 44.9766 12.6979 45.2031 12.8568 45.3906 13.0391C 45.5833 13.2214 45.7292 13.4349 45.8281 13.6797C 45.9323 13.9245 45.9844 14.2161 45.9844 14.5547C 45.9844 15.0286 45.8802 15.4349 45.6719 15.7734C 45.4688 16.1068 45.1953 16.3802 44.8516 16.5938C 44.513 16.8021 44.1198 16.9531 43.6719 17.0469C 43.2292 17.1458 42.7682 17.1953 42.2891 17.1953C 41.4089 17.1953 40.5938 17.0599 39.8438 16.7891ZM 54.6016 13.7031L 49.3828 13.7031C 49.4661 14.8646 50.1979 15.4453 51.5781 15.4453C 52.4583 15.4453 53.2318 15.237 53.8984 14.8203L 53.8984 16.6016C 53.1589 16.9974 52.1979 17.1953 51.0156 17.1953C 49.724 17.1953 48.7214 16.8385 48.0078 16.125C 47.2943 15.4062 46.9375 14.4062 46.9375 13.125C 46.9375 11.7969 47.3229 10.7448 48.0938 9.96875C 48.8646 9.19271 49.8125 8.80469 50.9375 8.80469C 52.1042 8.80469 53.0052 9.15104 53.6406 9.84375C 54.2812 10.5365 54.6016 11.4766 54.6016 12.6641L 54.6016 13.7031ZM 52.3125 12.1875C 52.3125 11.0417 51.849 10.4688 50.9219 10.4688C 50.526 10.4688 50.1823 10.6328 49.8906 10.9609C 49.6042 11.2891 49.4297 11.6979 49.3672 12.1875L 52.3125 12.1875ZM 58.5391 17L 56.0703 17L 56.0703 5.15625L 58.5391 5.15625L 58.5391 17ZM 67.8047 13.7031L 62.5859 13.7031C 62.6693 14.8646 63.401 15.4453 64.7812 15.4453C 65.6615 15.4453 66.4349 15.237 67.1016 14.8203L 67.1016 16.6016C 66.362 16.9974 65.401 17.1953 64.2188 17.1953C 62.9271 17.1953 61.9245 16.8385 61.2109 16.125C 60.4974 15.4062 60.1406 14.4062 60.1406 13.125C 60.1406 11.7969 60.526 10.7448 61.2969 9.96875C 62.0677 9.19271 63.0156 8.80469 64.1406 8.80469C 65.3073 8.80469 66.2083 9.15104 66.8438 9.84375C 67.4844 10.5365 67.8047 11.4766 67.8047 12.6641L 67.8047 13.7031ZM 65.5156 12.1875C 65.5156 11.0417 65.0521 10.4688 64.125 10.4688C 63.7292 10.4688 63.3854 10.6328 63.0938 10.9609C 62.8073 11.2891 62.6328 11.6979 62.5703 12.1875L 65.5156 12.1875ZM 75.3359 16.7109C 74.7786 17.0339 73.974 17.1953 72.9219 17.1953C 71.6927 17.1953 70.6979 16.8229 69.9375 16.0781C 69.1771 15.3333 68.7969 14.3724 68.7969 13.1953C 68.7969 11.8359 69.2031 10.7656 70.0156 9.98438C 70.8333 9.19792 71.9245 8.80469 73.2891 8.80469C 74.2318 8.80469 74.9141 8.92969 75.3359 9.17969L 75.3359 11.2734C 74.8203 10.888 74.2448 10.6953 73.6094 10.6953C 72.901 10.6953 72.3385 10.9036 71.9219 11.3203C 71.5104 11.7318 71.3047 12.3021 71.3047 13.0312C 71.3047 13.7396 71.5026 14.2969 71.8984 14.7031C 72.2943 15.1042 72.8385 15.3047 73.5312 15.3047C 74.1458 15.3047 74.7474 15.112 75.3359 14.7266L 75.3359 16.7109ZM 81.7969 16.9062C 81.4323 17.099 80.8828 17.1953 80.1484 17.1953C 78.4089 17.1953 77.5391 16.2917 77.5391 14.4844L 77.5391 10.8203L 76.2422 10.8203L 76.2422 9L 77.5391 9L 77.5391 7.27344L 80 6.57031L 80 9L 81.7969 9L 81.7969 10.8203L 80 10.8203L 80 14.0547C 80 14.888 80.3307 15.3047 80.9922 15.3047C 81.2526 15.3047 81.5208 15.2292 81.7969 15.0781L 81.7969 16.9062ZM 90.3203 13.7031L 85.1016 13.7031C 85.1849 14.8646 85.9167 15.4453 87.2969 15.4453C 88.1771 15.4453 88.9505 15.237 89.6172 14.8203L 89.6172 16.6016C 88.8776 16.9974 87.9167 17.1953 86.7344 17.1953C 85.4427 17.1953 84.4401 16.8385 83.7266 16.125C 83.013 15.4062 82.6562 14.4062 82.6562 13.125C 82.6562 11.7969 83.0417 10.7448 83.8125 9.96875C 84.5833 9.19271 85.5312 8.80469 86.6562 8.80469C 87.8229 8.80469 88.724 9.15104 89.3594 9.84375C 90 10.5365 90.3203 11.4766 90.3203 12.6641L 90.3203 13.7031ZM 88.0312 12.1875C 88.0312 11.0417 87.5677 10.4688 86.6406 10.4688C 86.2448 10.4688 85.901 10.6328 85.6094 10.9609C 85.3229 11.2891 85.1484 11.6979 85.0859 12.1875L 88.0312 12.1875ZM 99.6172 17L 97.1484 17L 97.1484 15.8984L 97.1172 15.8984C 96.5547 16.763 95.7292 17.1953 94.6406 17.1953C 93.6406 17.1953 92.8359 16.8438 92.2266 16.1406C 91.6172 15.4323 91.3125 14.4453 91.3125 13.1797C 91.3125 11.8568 91.6484 10.7969 92.3203 10C 92.9922 9.20312 93.8724 8.80469 94.9609 8.80469C 95.9922 8.80469 96.7109 9.17448 97.1172 9.91406L 97.1484 9.91406L 97.1484 5.15625L 99.6172 5.15625L 99.6172 17ZM 97.1953 13.1094L 97.1953 12.5078C 97.1953 11.987 97.0443 11.5547 96.7422 11.2109C 96.4401 10.8672 96.0469 10.6953 95.5625 10.6953C 95.0156 10.6953 94.5885 10.9115 94.2812 11.3438C 93.974 11.7708 93.8203 12.3594 93.8203 13.1094C 93.8203 13.8125 93.9688 14.3542 94.2656 14.7344C 94.5625 15.1146 94.974 15.3047 95.5 15.3047C 96 15.3047 96.4062 15.1042 96.7188 14.7031C 97.0365 14.3021 97.1953 13.7708 97.1953 13.1094ZM 105.594 16.7891L 105.594 14.7891C 106 15.0339 106.404 15.2161 106.805 15.3359C 107.211 15.4557 107.594 15.5156 107.953 15.5156C 108.391 15.5156 108.734 15.4557 108.984 15.3359C 109.24 15.2161 109.367 15.0339 109.367 14.7891C 109.367 14.6328 109.31 14.5026 109.195 14.3984C 109.081 14.2943 108.932 14.2031 108.75 14.125C 108.573 14.0469 108.378 13.9766 108.164 13.9141C 107.951 13.8516 107.745 13.7812 107.547 13.7031C 107.229 13.5833 106.948 13.4557 106.703 13.3203C 106.464 13.1797 106.26 13.0182 106.094 12.8359C 105.932 12.6536 105.807 12.4427 105.719 12.2031C 105.635 11.9635 105.594 11.6797 105.594 11.3516C 105.594 10.9036 105.69 10.5182 105.883 10.1953C 106.081 9.8724 106.341 9.60938 106.664 9.40625C 106.992 9.19792 107.365 9.04688 107.781 8.95312C 108.203 8.85417 108.641 8.80469 109.094 8.80469C 109.448 8.80469 109.807 8.83333 110.172 8.89062C 110.536 8.94271 110.896 9.02083 111.25 9.125L 111.25 11.0312C 110.938 10.849 110.602 10.7135 110.242 10.625C 109.888 10.5312 109.539 10.4844 109.195 10.4844C 109.034 10.4844 108.88 10.5 108.734 10.5312C 108.594 10.5573 108.469 10.599 108.359 10.6562C 108.25 10.7083 108.164 10.7786 108.102 10.8672C 108.039 10.9505 108.008 11.0469 108.008 11.1562C 108.008 11.3021 108.055 11.4271 108.148 11.5312C 108.242 11.6354 108.365 11.7266 108.516 11.8047C 108.667 11.8776 108.833 11.9453 109.016 12.0078C 109.203 12.0651 109.388 12.125 109.57 12.1875C 109.898 12.3021 110.195 12.4271 110.461 12.5625C 110.727 12.6979 110.953 12.8568 111.141 13.0391C 111.333 13.2214 111.479 13.4349 111.578 13.6797C 111.682 13.9245 111.734 14.2161 111.734 14.5547C 111.734 15.0286 111.63 15.4349 111.422 15.7734C 111.219 16.1068 110.945 16.3802 110.602 16.5938C 110.263 16.8021 109.87 16.9531 109.422 17.0469C 108.979 17.1458 108.518 17.1953 108.039 17.1953C 107.159 17.1953 106.344 17.0599 105.594 16.7891ZM 120.781 9L 117.531 17.6406C 116.75 19.7188 115.573 20.7578 114 20.7578C 113.401 20.7578 112.909 20.6901 112.523 20.5547L 112.523 18.5859C 112.852 18.7786 113.208 18.875 113.594 18.875C 114.229 18.875 114.672 18.5755 114.922 17.9766L 115.344 16.9844L 112.094 9L 114.828 9L 116.32 13.8672C 116.414 14.1693 116.487 14.526 116.539 14.9375L 116.57 14.9375C 116.617 14.6354 116.703 14.2839 116.828 13.8828L 118.336 9L 120.781 9ZM 121.25 16.7891L 121.25 14.7891C 121.656 15.0339 122.06 15.2161 122.461 15.3359C 122.867 15.4557 123.25 15.5156 123.609 15.5156C 124.047 15.5156 124.391 15.4557 124.641 15.3359C 124.896 15.2161 125.023 15.0339 125.023 14.7891C 125.023 14.6328 124.966 14.5026 124.852 14.3984C 124.737 14.2943 124.589 14.2031 124.406 14.125C 124.229 14.0469 124.034 13.9766 123.82 13.9141C 123.607 13.8516 123.401 13.7812 123.203 13.7031C 122.885 13.5833 122.604 13.4557 122.359 13.3203C 122.12 13.1797 121.917 13.0182 121.75 12.8359C 121.589 12.6536 121.464 12.4427 121.375 12.2031C 121.292 11.9635 121.25 11.6797 121.25 11.3516C 121.25 10.9036 121.346 10.5182 121.539 10.1953C 121.737 9.8724 121.997 9.60938 122.32 9.40625C 122.648 9.19792 123.021 9.04688 123.438 8.95312C 123.859 8.85417 124.297 8.80469 124.75 8.80469C 125.104 8.80469 125.464 8.83333 125.828 8.89062C 126.193 8.94271 126.552 9.02083 126.906 9.125L 126.906 11.0312C 126.594 10.849 126.258 10.7135 125.898 10.625C 125.544 10.5312 125.195 10.4844 124.852 10.4844C 124.69 10.4844 124.536 10.5 124.391 10.5312C 124.25 10.5573 124.125 10.599 124.016 10.6562C 123.906 10.7083 123.82 10.7786 123.758 10.8672C 123.695 10.9505 123.664 11.0469 123.664 11.1562C 123.664 11.3021 123.711 11.4271 123.805 11.5312C 123.898 11.6354 124.021 11.7266 124.172 11.8047C 124.323 11.8776 124.49 11.9453 124.672 12.0078C 124.859 12.0651 125.044 12.125 125.227 12.1875C 125.555 12.3021 125.852 12.4271 126.117 12.5625C 126.383 12.6979 126.609 12.8568 126.797 13.0391C 126.99 13.2214 127.135 13.4349 127.234 13.6797C 127.339 13.9245 127.391 14.2161 127.391 14.5547C 127.391 15.0286 127.286 15.4349 127.078 15.7734C 126.875 16.1068 126.602 16.3802 126.258 16.5938C 125.919 16.8021 125.526 16.9531 125.078 17.0469C 124.635 17.1458 124.174 17.1953 123.695 17.1953C 122.815 17.1953 122 17.0599 121.25 16.7891ZM 133.656 16.9062C 133.292 17.099 132.742 17.1953 132.008 17.1953C 130.268 17.1953 129.398 16.2917 129.398 14.4844L 129.398 10.8203L 128.102 10.8203L 128.102 9L 129.398 9L 129.398 7.27344L 131.859 6.57031L 131.859 9L 133.656 9L 133.656 10.8203L 131.859 10.8203L 131.859 14.0547C 131.859 14.888 132.19 15.3047 132.852 15.3047C 133.112 15.3047 133.38 15.2292 133.656 15.0781L 133.656 16.9062ZM 142.18 13.7031L 136.961 13.7031C 137.044 14.8646 137.776 15.4453 139.156 15.4453C 140.036 15.4453 140.81 15.237 141.477 14.8203L 141.477 16.6016C 140.737 16.9974 139.776 17.1953 138.594 17.1953C 137.302 17.1953 136.299 16.8385 135.586 16.125C 134.872 15.4062 134.516 14.4062 134.516 13.125C 134.516 11.7969 134.901 10.7448 135.672 9.96875C 136.443 9.19271 137.391 8.80469 138.516 8.80469C 139.682 8.80469 140.583 9.15104 141.219 9.84375C 141.859 10.5365 142.18 11.4766 142.18 12.6641L 142.18 13.7031ZM 139.891 12.1875C 139.891 11.0417 139.427 10.4688 138.5 10.4688C 138.104 10.4688 137.76 10.6328 137.469 10.9609C 137.182 11.2891 137.008 11.6979 136.945 12.1875L 139.891 12.1875ZM 156.352 17L 153.891 17L 153.891 12.4375C 153.891 11.276 153.464 10.6953 152.609 10.6953C 152.203 10.6953 151.872 10.8698 151.617 11.2188C 151.362 11.5677 151.234 12.0026 151.234 12.5234L 151.234 17L 148.766 17L 148.766 12.3906C 148.766 11.2604 148.346 10.6953 147.508 10.6953C 147.086 10.6953 146.747 10.862 146.492 11.1953C 146.242 11.5286 146.117 11.9818 146.117 12.5547L 146.117 17L 143.648 17L 143.648 9L 146.117 9L 146.117 10.25L 146.148 10.25C 146.404 9.82292 146.76 9.47656 147.219 9.21094C 147.682 8.9401 148.188 8.80469 148.734 8.80469C 149.865 8.80469 150.638 9.30208 151.055 10.2969C 151.664 9.30208 152.56 8.80469 153.742 8.80469C 155.482 8.80469 156.352 9.8776 156.352 12.0234L 156.352 17ZM 169.383 17L 167.047 17L 167.047 15.8516L 167.016 15.8516C 166.479 16.7474 165.685 17.1953 164.633 17.1953C 163.857 17.1953 163.245 16.9766 162.797 16.5391C 162.354 16.0964 162.133 15.5078 162.133 14.7734C 162.133 13.2214 163.052 12.3255 164.891 12.0859L 167.062 11.7969C 167.062 10.9219 166.589 10.4844 165.641 10.4844C 164.688 10.4844 163.781 10.7682 162.922 11.3359L 162.922 9.47656C 163.266 9.29948 163.734 9.14323 164.328 9.00781C 164.927 8.8724 165.471 8.80469 165.961 8.80469C 168.242 8.80469 169.383 9.94271 169.383 12.2188L 169.383 17ZM 167.062 13.75L 167.062 13.2109L 165.609 13.3984C 164.807 13.5026 164.406 13.8646 164.406 14.4844C 164.406 14.7656 164.503 14.9974 164.695 15.1797C 164.893 15.3568 165.159 15.4453 165.492 15.4453C 165.956 15.4453 166.333 15.2865 166.625 14.9688C 166.917 14.6458 167.062 14.2396 167.062 13.75ZM 177.398 16.7109C 176.841 17.0339 176.036 17.1953 174.984 17.1953C 173.755 17.1953 172.76 16.8229 172 16.0781C 171.24 15.3333 170.859 14.3724 170.859 13.1953C 170.859 11.8359 171.266 10.7656 172.078 9.98438C 172.896 9.19792 173.987 8.80469 175.352 8.80469C 176.294 8.80469 176.977 8.92969 177.398 9.17969L 177.398 11.2734C 176.883 10.888 176.307 10.6953 175.672 10.6953C 174.964 10.6953 174.401 10.9036 173.984 11.3203C 173.573 11.7318 173.367 12.3021 173.367 13.0312C 173.367 13.7396 173.565 14.2969 173.961 14.7031C 174.357 15.1042 174.901 15.3047 175.594 15.3047C 176.208 15.3047 176.81 15.112 177.398 14.7266L 177.398 16.7109ZM 185.086 16.7109C 184.529 17.0339 183.724 17.1953 182.672 17.1953C 181.443 17.1953 180.448 16.8229 179.688 16.0781C 178.927 15.3333 178.547 14.3724 178.547 13.1953C 178.547 11.8359 178.953 10.7656 179.766 9.98438C 180.583 9.19792 181.674 8.80469 183.039 8.80469C 183.982 8.80469 184.664 8.92969 185.086 9.17969L 185.086 11.2734C 184.57 10.888 183.995 10.6953 183.359 10.6953C 182.651 10.6953 182.089 10.9036 181.672 11.3203C 181.26 11.7318 181.055 12.3021 181.055 13.0312C 181.055 13.7396 181.253 14.2969 181.648 14.7031C 182.044 15.1042 182.589 15.3047 183.281 15.3047C 183.896 15.3047 184.497 15.112 185.086 14.7266L 185.086 16.7109ZM 193.898 13.7031L 188.68 13.7031C 188.763 14.8646 189.495 15.4453 190.875 15.4453C 191.755 15.4453 192.529 15.237 193.195 14.8203L 193.195 16.6016C 192.456 16.9974 191.495 17.1953 190.312 17.1953C 189.021 17.1953 188.018 16.8385 187.305 16.125C 186.591 15.4062 186.234 14.4062 186.234 13.125C 186.234 11.7969 186.62 10.7448 187.391 9.96875C 188.161 9.19271 189.109 8.80469 190.234 8.80469C 191.401 8.80469 192.302 9.15104 192.938 9.84375C 193.578 10.5365 193.898 11.4766 193.898 12.6641L 193.898 13.7031ZM 191.609 12.1875C 191.609 11.0417 191.146 10.4688 190.219 10.4688C 189.823 10.4688 189.479 10.6328 189.188 10.9609C 188.901 11.2891 188.727 11.6979 188.664 12.1875L 191.609 12.1875ZM 203.094 17L 200.633 17L 200.633 12.5547C 200.633 11.3151 200.19 10.6953 199.305 10.6953C 198.878 10.6953 198.526 10.8594 198.25 11.1875C 197.974 11.5156 197.836 11.9323 197.836 12.4375L 197.836 17L 195.367 17L 195.367 9L 197.836 9L 197.836 10.2656L 197.867 10.2656C 198.456 9.29167 199.312 8.80469 200.438 8.80469C 202.208 8.80469 203.094 9.90365 203.094 12.1016L 203.094 17ZM 209.891 16.9062C 209.526 17.099 208.977 17.1953 208.242 17.1953C 206.503 17.1953 205.633 16.2917 205.633 14.4844L 205.633 10.8203L 204.336 10.8203L 204.336 9L 205.633 9L 205.633 7.27344L 208.094 6.57031L 208.094 9L 209.891 9L 209.891 10.8203L 208.094 10.8203L 208.094 14.0547C 208.094 14.888 208.424 15.3047 209.086 15.3047C 209.346 15.3047 209.615 15.2292 209.891 15.0781L 209.891 16.9062ZM 221.773 16.7109C 221.216 17.0339 220.411 17.1953 219.359 17.1953C 218.13 17.1953 217.135 16.8229 216.375 16.0781C 215.615 15.3333 215.234 14.3724 215.234 13.1953C 215.234 11.8359 215.641 10.7656 216.453 9.98438C 217.271 9.19792 218.362 8.80469 219.727 8.80469C 220.669 8.80469 221.352 8.92969 221.773 9.17969L 221.773 11.2734C 221.258 10.888 220.682 10.6953 220.047 10.6953C 219.339 10.6953 218.776 10.9036 218.359 11.3203C 217.948 11.7318 217.742 12.3021 217.742 13.0312C 217.742 13.7396 217.94 14.2969 218.336 14.7031C 218.732 15.1042 219.276 15.3047 219.969 15.3047C 220.583 15.3047 221.185 15.112 221.773 14.7266L 221.773 16.7109ZM 227.211 17.1953C 225.878 17.1953 224.828 16.8229 224.062 16.0781C 223.302 15.3281 222.922 14.3125 222.922 13.0312C 222.922 11.7083 223.318 10.6745 224.109 9.92969C 224.901 9.17969 225.971 8.80469 227.32 8.80469C 228.648 8.80469 229.69 9.17969 230.445 9.92969C 231.201 10.6745 231.578 11.6615 231.578 12.8906C 231.578 14.2188 231.188 15.2682 230.406 16.0391C 229.63 16.8099 228.565 17.1953 227.211 17.1953ZM 227.273 10.6953C 226.69 10.6953 226.237 10.8958 225.914 11.2969C 225.591 11.6979 225.43 12.2656 225.43 13C 225.43 14.5365 226.049 15.3047 227.289 15.3047C 228.471 15.3047 229.062 14.5156 229.062 12.9375C 229.062 11.4427 228.466 10.6953 227.273 10.6953ZM 235.648 17L 233.18 17L 233.18 5.15625L 235.648 5.15625L 235.648 17ZM 241.539 17.1953C 240.206 17.1953 239.156 16.8229 238.391 16.0781C 237.63 15.3281 237.25 14.3125 237.25 13.0312C 237.25 11.7083 237.646 10.6745 238.438 9.92969C 239.229 9.17969 240.299 8.80469 241.648 8.80469C 242.977 8.80469 244.018 9.17969 244.773 9.92969C 245.529 10.6745 245.906 11.6615 245.906 12.8906C 245.906 14.2188 245.516 15.2682 244.734 16.0391C 243.958 16.8099 242.893 17.1953 241.539 17.1953ZM 241.602 10.6953C 241.018 10.6953 240.565 10.8958 240.242 11.2969C 239.919 11.6979 239.758 12.2656 239.758 13C 239.758 14.5365 240.378 15.3047 241.617 15.3047C 242.799 15.3047 243.391 14.5156 243.391 12.9375C 243.391 11.4427 242.794 10.6953 241.602 10.6953ZM 252.727 11.2266C 252.43 11.0651 252.083 10.9844 251.688 10.9844C 251.151 10.9844 250.732 11.1823 250.43 11.5781C 250.128 11.9688 249.977 12.5026 249.977 13.1797L 249.977 17L 247.508 17L 247.508 9L 249.977 9L 249.977 10.4844L 250.008 10.4844C 250.398 9.40104 251.102 8.85938 252.117 8.85938C 252.378 8.85938 252.581 8.89062 252.727 8.95312L 252.727 11.2266Z"/>
</defs>
</svg>
