<svg width="1152" height="649" viewBox="0 0 1152 649" version="1.1" xmlns="http://www.w3.org/2000/svg" xmlns:xlink="http://www.w3.org/1999/xlink">
<title>alignment</title>
<desc>Created using Figma</desc>
<g id="Canvas" transform="translate(-91 11118)">
<g id="alignment">
<path d="M 91 -11118L 1243 -11118L 1243 -10470L 91 -10470L 91 -11118Z" fill="#243A5E"/>
<g id="Rectangle" filter="url(#filter0_d)">
<use xlink:href="#path0_fill" transform="translate(252 -11061)" fill="#FFFFFF"/>
<use xlink:href="#path0_fill" transform="translate(252 -11061)" fill="#FFFFFF"/>
<use xlink:href="#path0_fill" transform="translate(252 -11061)" fill="#FFFFFF"/>
<use xlink:href="#path0_fill" transform="translate(252 -11061)" fill="#FFFFFF"/>
<use xlink:href="#path0_fill" transform="translate(252 -11061)" fill="#FFFFFF"/>
</g>
<g id="Navigation">
<g id="Acrylic / Overlay">
<g id="Color overlay 80">
<use xlink:href="#path1_fill" transform="translate(252 -11061)" fill="#DFE9F0"/>
</g>
<g id="Navigation / Navigation view / Hamburger and title">
</g>
<g id="Navigation / Pivot / Without title">
<g id="Navigation">
<g id="Pivot">
<g id="Pivot 3">
<use xlink:href="#path2_fill" transform="translate(450 -10974)" fill="#000000" fill-opacity="0.6"/>
</g>
</g>
<g id="Pivot">
<g id="Pivot 2">
<use xlink:href="#path3_fill" transform="translate(386 -10974)" fill="#000000" fill-opacity="0.6"/>
</g>
</g>
<g id="Pivot">
<g id="Pivot 1">
<use xlink:href="#path4_fill" transform="translate(322 -10974)"/>
</g>
<g id="Pivot 1">
<use xlink:href="#path5_fill" transform="translate(324 -10938)" fill="#0075D0"/>
</g>
</g>
</g>
</g>
</g>
<g id="Items">
<g id="Bottom">
<g id="Item">
<g id="Icon">
<use xlink:href="#path6_fill" transform="translate(269 -10596)"/>
</g>
</g>
<g id="Item">
<g id="Icon">
<use xlink:href="#path7_fill" transform="translate(268.047 -10556)"/>
</g>
</g>
</g>
<g id="Top">
<g id="Item">
<g id="Icon">
<use xlink:href="#path8_fill" transform="translate(269 -10795.5)"/>
</g>
</g>
<g id="Item">
<g id="Icon">
<use xlink:href="#path8_fill" transform="translate(269 -10835.5)"/>
</g>
</g>
<g id="Item">
<g id="Icon">
<use xlink:href="#path9_fill" transform="translate(270 -10875.8)"/>
</g>
</g>
<g id="Item">
<g id="Icon">
<use xlink:href="#path9_fill" transform="translate(270 -10915.8)"/>
</g>
</g>
<g id="Item">
<g id="Icon">
<use xlink:href="#path10_fill" transform="translate(269 -10955.5)"/>
</g>
</g>
<g id="Item">
<g id="Icon">
<use xlink:href="#path8_fill" transform="translate(269 -10995.5)"/>
</g>
</g>
</g>
<g id="Selection indicator">
<use xlink:href="#path11_fill" transform="translate(252 -10881)" fill="#0078D7"/>
</g>
</g>
<g id="Navigation - Hamburger">
<g id="Hamburger">
<use xlink:href="#path12_fill" transform="translate(269 -11045)" fill="#171717"/>
</g>
</g>
</g>
<g id="Rectangle">
<use xlink:href="#path13_fill" transform="translate(324 -10917)" fill="#F0F7FC"/>
</g>
<g id="Pivot 1">
<use xlink:href="#path14_fill" transform="translate(324 -10626)" fill="#0075D0"/>
</g>
<g id="Rectangle">
<use xlink:href="#path15_fill" transform="translate(324 -10606)" fill="#F0F7FC"/>
</g>
<g id="Page title">
<use xlink:href="#path16_fill" transform="translate(322 -11021)"/>
</g>
<g id="Navigation">
<g id="Item">
<g id="Icon">
<use xlink:href="#path17_fill" transform="translate(1039.25 -11004.2)"/>
</g>
</g>
<g id="Item">
<g id="Icon">
<use xlink:href="#path18_fill" transform="translate(1007.55 -11010.2)"/>
</g>
</g>
<g id="Item">
<g id="Icon">
<use xlink:href="#path19_fill" transform="translate(970.074 -11010.2)"/>
</g>
</g>
<g id="Item">
<g id="Icon">
<use xlink:href="#path20_fill" transform="translate(925.801 -11010.2)"/>
</g>
</g>
</g>
<g id="titlebar-controls">
<g id="minimize">
<use xlink:href="#path21_fill" transform="matrix(1 -2.44929e-16 2.44929e-16 1 989 -11046.9)"/>
</g>
<g id="expand">
<mask id="mask0_outline_ins">
<use xlink:href="#path22_fill" fill="white" transform="translate(1021 -11051.9)"/>
</mask>
<g mask="url(#mask0_outline_ins)">
<use xlink:href="#path23_stroke_2x" transform="translate(1021 -11051.9)"/>
</g>
</g>
<g id="close">
<g id="Line 3 (Stroke)">
<use xlink:href="#path24_fill" transform="matrix(0.707107 -0.707107 0.707107 0.707107 1052.64 -11041)"/>
</g>
<g id="Line 3.1 (Stroke)">
<use xlink:href="#path24_fill" transform="matrix(-0.707107 -0.707107 0.707107 -0.707107 1063.95 -11039.6)"/>
</g>
</g>
</g>
<g id="Line">
<use xlink:href="#path25_stroke" transform="matrix(6.12323e-17 1 -1 6.12323e-17 323 -11118)" fill="#50E6FF"/>
</g>
<g id="Line">
<use xlink:href="#path25_stroke" transform="matrix(6.12323e-17 1 -1 6.12323e-17 277 -11118)" fill="#50E6FF"/>
</g>
<g id="Line">
<use xlink:href="#path26_stroke" transform="translate(92 -10956)" fill="#50E6FF"/>
</g>
<g id="Line">
<use xlink:href="#path26_stroke" transform="translate(92 -10994)" fill="#50E6FF"/>
</g>
</g>
</g>
<defs>
<filter id="filter0_d" filterUnits="userSpaceOnUse" x="250" y="-11063" width="833" height="546" color-interpolation-filters="sRGB">
<feFlood flood-opacity="0" result="BackgroundImageFix"/>
<feColorMatrix in="SourceAlpha" type="matrix" values="0 0 0 0 0 0 0 0 0 0 0 0 0 0 0 0 0 0 255 0"/>
<feOffset dx="3" dy="3"/>
<feGaussianBlur stdDeviation="2.5"/>
<feColorMatrix type="matrix" values="0 0 0 0 0.54 0 0 0 0 0.54 0 0 0 0 0.54 0 0 0 0.4 0"/>
<feBlend mode="normal" in2="BackgroundImageFix" result="effect1_dropShadow"/>
<feBlend mode="normal" in="SourceGraphic" in2="effect1_dropShadow" result="shape"/>
</filter>
<path id="path0_fill" d="M 0 0L 823 0L 823 536L 0 536L 0 0Z"/>
<path id="path1_fill" fill-rule="evenodd" d="M 0 0L 48 0L 48 536L 0 536L 0 0Z"/>
<path id="path2_fill" d="M 2.49219 12.6406L 2.49219 17L 1.45312 17L 1.45312 5.79688L 4.34375 5.79688C 4.93229 5.79688 5.45312 5.86979 5.90625 6.01562C 6.35938 6.16146 6.74219 6.3724 7.05469 6.64844C 7.36719 6.92448 7.60417 7.26302 7.76562 7.66406C 7.92708 8.0651 8.00781 8.52344 8.00781 9.03906C 8.00781 9.5599 7.91667 10.0417 7.73438 10.4844C 7.55208 10.9219 7.28906 11.3021 6.94531 11.625C 6.60677 11.9427 6.19271 12.1927 5.70312 12.375C 5.21354 12.5521 4.65885 12.6406 4.03906 12.6406L 2.49219 12.6406ZM 2.49219 6.75L 2.49219 11.6875L 3.97656 11.6875C 4.9401 11.6875 5.67188 11.4635 6.17188 11.0156C 6.67188 10.5677 6.92188 9.9349 6.92188 9.11719C 6.92188 7.53906 6 6.75 4.15625 6.75L 2.49219 6.75ZM 10.6094 6.97656C 10.4167 6.97656 10.25 6.90885 10.1094 6.77344C 9.96875 6.63802 9.89844 6.46615 9.89844 6.25781C 9.89844 6.05469 9.96875 5.88802 10.1094 5.75781C 10.25 5.6224 10.4167 5.55469 10.6094 5.55469C 10.7083 5.55469 10.8021 5.57292 10.8906 5.60938C 10.9792 5.64062 11.0547 5.6875 11.1172 5.75C 11.1849 5.8125 11.237 5.88802 11.2734 5.97656C 11.3151 6.0599 11.3359 6.15365 11.3359 6.25781C 11.3359 6.35677 11.3177 6.45052 11.2812 6.53906C 11.2448 6.6276 11.1927 6.70573 11.125 6.77344C 11.0573 6.83594 10.9792 6.88542 10.8906 6.92188C 10.8073 6.95833 10.7135 6.97656 10.6094 6.97656ZM 10.1172 17L 10.1172 9L 11.1172 9L 11.1172 17L 10.1172 17ZM 16.5469 17L 15.5938 17L 12.5312 9L 13.6328 9L 15.8438 15.0938C 15.9792 15.4635 16.0651 15.7891 16.1016 16.0703L 16.1328 16.0703C 16.1953 15.6953 16.276 15.3802 16.375 15.125L 18.6641 9L 19.7344 9L 16.5469 17ZM 24.3281 17.1875C 23.7344 17.1875 23.2005 17.0885 22.7266 16.8906C 22.2578 16.6927 21.8568 16.4141 21.5234 16.0547C 21.1901 15.6901 20.9349 15.2552 20.7578 14.75C 20.5807 14.2448 20.4922 13.6849 20.4922 13.0703C 20.4922 12.4036 20.5859 11.8073 20.7734 11.2812C 20.9609 10.7552 21.2266 10.3099 21.5703 9.94531C 21.9193 9.57552 22.3385 9.29427 22.8281 9.10156C 23.3177 8.90885 23.8646 8.8125 24.4688 8.8125C 25.0469 8.8125 25.5677 8.90885 26.0312 9.10156C 26.4948 9.28906 26.888 9.5625 27.2109 9.92188C 27.5339 10.2812 27.7812 10.7188 27.9531 11.2344C 28.125 11.75 28.2109 12.3359 28.2109 12.9922C 28.2109 13.6172 28.1198 14.1875 27.9375 14.7031C 27.7604 15.2135 27.5052 15.6536 27.1719 16.0234C 26.8385 16.3932 26.4323 16.6797 25.9531 16.8828C 25.474 17.0859 24.9323 17.1875 24.3281 17.1875ZM 24.4062 9.67969C 23.9688 9.67969 23.5729 9.75521 23.2188 9.90625C 22.8646 10.0573 22.5599 10.2786 22.3047 10.5703C 22.0547 10.8568 21.862 11.2109 21.7266 11.6328C 21.5911 12.0495 21.5234 12.5234 21.5234 13.0547C 21.5234 13.5547 21.5911 14.0052 21.7266 14.4062C 21.862 14.8073 22.0521 15.151 22.2969 15.4375C 22.5469 15.724 22.849 15.9453 23.2031 16.1016C 23.5573 16.2526 23.9531 16.3281 24.3906 16.3281C 24.8385 16.3281 25.2344 16.2552 25.5781 16.1094C 25.9219 15.9583 26.2135 15.7422 26.4531 15.4609C 26.6927 15.1745 26.8724 14.8255 26.9922 14.4141C 27.1172 14.0026 27.1797 13.5339 27.1797 13.0078C 27.1797 11.9297 26.9401 11.1068 26.4609 10.5391C 25.9818 9.96615 25.2969 9.67969 24.4062 9.67969ZM 33.6641 16.9062C 33.3203 17.0781 32.9453 17.1641 32.5391 17.1641C 31.2474 17.1641 30.6016 16.4193 30.6016 14.9297L 30.6016 9.875L 29.1953 9.875L 29.1953 9L 30.6016 9L 30.6016 6.98438L 31.6016 6.65625L 31.6016 9L 33.6641 9L 33.6641 9.875L 31.6016 9.875L 31.6016 14.7734C 31.6016 15.3151 31.6901 15.7057 31.8672 15.9453C 32.0443 16.1849 32.3438 16.3047 32.7656 16.3047C 33.0781 16.3047 33.3776 16.2109 33.6641 16.0234L 33.6641 16.9062ZM 39.3828 15.4922C 40.1901 16.0495 41.0234 16.3281 41.8828 16.3281C 42.237 16.3281 42.5781 16.2839 42.9062 16.1953C 43.2344 16.1068 43.5234 15.9688 43.7734 15.7812C 44.0286 15.5885 44.2318 15.3464 44.3828 15.0547C 44.5339 14.7578 44.6094 14.4036 44.6094 13.9922C 44.6094 13.2109 44.3333 12.6224 43.7812 12.2266C 43.2344 11.8307 42.4271 11.6328 41.3594 11.6328L 40.4688 11.6328L 40.4688 10.7656L 41.2891 10.7656C 42.2578 10.7656 42.987 10.5755 43.4766 10.1953C 43.9661 9.8099 44.2109 9.25 44.2109 8.51562C 44.2109 7.85417 44.0286 7.35156 43.6641 7.00781C 43.3047 6.65885 42.763 6.48438 42.0391 6.48438C 41.2891 6.48438 40.5495 6.73958 39.8203 7.25L 39.8203 6.24219C 40.6016 5.82031 41.4115 5.60938 42.25 5.60938C 42.6458 5.60938 43.026 5.66406 43.3906 5.77344C 43.7552 5.88281 44.0729 6.04948 44.3438 6.27344C 44.6198 6.49219 44.8385 6.76823 45 7.10156C 45.1667 7.42969 45.25 7.8151 45.25 8.25781C 45.25 9.7526 44.5104 10.7083 43.0312 11.125L 43.0312 11.1562C 43.3958 11.1979 43.737 11.2891 44.0547 11.4297C 44.3724 11.5651 44.6484 11.75 44.8828 11.9844C 45.1172 12.2135 45.3021 12.4896 45.4375 12.8125C 45.5729 13.1302 45.6406 13.487 45.6406 13.8828C 45.6406 14.4141 45.5417 14.8854 45.3438 15.2969C 45.1458 15.7083 44.875 16.0547 44.5312 16.3359C 44.1875 16.6172 43.7839 16.8307 43.3203 16.9766C 42.862 17.1224 42.3724 17.1953 41.8516 17.1953C 40.9036 17.1953 40.0807 16.9948 39.3828 16.5938L 39.3828 15.4922Z"/>
<path id="path3_fill" d="M 2.49219 12.6406L 2.49219 17L 1.45312 17L 1.45312 5.79688L 4.34375 5.79688C 4.93229 5.79688 5.45312 5.86979 5.90625 6.01562C 6.35938 6.16146 6.74219 6.3724 7.05469 6.64844C 7.36719 6.92448 7.60417 7.26302 7.76562 7.66406C 7.92708 8.0651 8.00781 8.52344 8.00781 9.03906C 8.00781 9.5599 7.91667 10.0417 7.73438 10.4844C 7.55208 10.9219 7.28906 11.3021 6.94531 11.625C 6.60677 11.9427 6.19271 12.1927 5.70312 12.375C 5.21354 12.5521 4.65885 12.6406 4.03906 12.6406L 2.49219 12.6406ZM 2.49219 6.75L 2.49219 11.6875L 3.97656 11.6875C 4.9401 11.6875 5.67188 11.4635 6.17188 11.0156C 6.67188 10.5677 6.92188 9.9349 6.92188 9.11719C 6.92188 7.53906 6 6.75 4.15625 6.75L 2.49219 6.75ZM 10.6094 6.97656C 10.4167 6.97656 10.25 6.90885 10.1094 6.77344C 9.96875 6.63802 9.89844 6.46615 9.89844 6.25781C 9.89844 6.05469 9.96875 5.88802 10.1094 5.75781C 10.25 5.6224 10.4167 5.55469 10.6094 5.55469C 10.7083 5.55469 10.8021 5.57292 10.8906 5.60938C 10.9792 5.64062 11.0547 5.6875 11.1172 5.75C 11.1849 5.8125 11.237 5.88802 11.2734 5.97656C 11.3151 6.0599 11.3359 6.15365 11.3359 6.25781C 11.3359 6.35677 11.3177 6.45052 11.2812 6.53906C 11.2448 6.6276 11.1927 6.70573 11.125 6.77344C 11.0573 6.83594 10.9792 6.88542 10.8906 6.92188C 10.8073 6.95833 10.7135 6.97656 10.6094 6.97656ZM 10.1172 17L 10.1172 9L 11.1172 9L 11.1172 17L 10.1172 17ZM 16.5469 17L 15.5938 17L 12.5312 9L 13.6328 9L 15.8438 15.0938C 15.9792 15.4635 16.0651 15.7891 16.1016 16.0703L 16.1328 16.0703C 16.1953 15.6953 16.276 15.3802 16.375 15.125L 18.6641 9L 19.7344 9L 16.5469 17ZM 24.3281 17.1875C 23.7344 17.1875 23.2005 17.0885 22.7266 16.8906C 22.2578 16.6927 21.8568 16.4141 21.5234 16.0547C 21.1901 15.6901 20.9349 15.2552 20.7578 14.75C 20.5807 14.2448 20.4922 13.6849 20.4922 13.0703C 20.4922 12.4036 20.5859 11.8073 20.7734 11.2812C 20.9609 10.7552 21.2266 10.3099 21.5703 9.94531C 21.9193 9.57552 22.3385 9.29427 22.8281 9.10156C 23.3177 8.90885 23.8646 8.8125 24.4688 8.8125C 25.0469 8.8125 25.5677 8.90885 26.0312 9.10156C 26.4948 9.28906 26.888 9.5625 27.2109 9.92188C 27.5339 10.2812 27.7812 10.7188 27.9531 11.2344C 28.125 11.75 28.2109 12.3359 28.2109 12.9922C 28.2109 13.6172 28.1198 14.1875 27.9375 14.7031C 27.7604 15.2135 27.5052 15.6536 27.1719 16.0234C 26.8385 16.3932 26.4323 16.6797 25.9531 16.8828C 25.474 17.0859 24.9323 17.1875 24.3281 17.1875ZM 24.4062 9.67969C 23.9688 9.67969 23.5729 9.75521 23.2188 9.90625C 22.8646 10.0573 22.5599 10.2786 22.3047 10.5703C 22.0547 10.8568 21.862 11.2109 21.7266 11.6328C 21.5911 12.0495 21.5234 12.5234 21.5234 13.0547C 21.5234 13.5547 21.5911 14.0052 21.7266 14.4062C 21.862 14.8073 22.0521 15.151 22.2969 15.4375C 22.5469 15.724 22.849 15.9453 23.2031 16.1016C 23.5573 16.2526 23.9531 16.3281 24.3906 16.3281C 24.8385 16.3281 25.2344 16.2552 25.5781 16.1094C 25.9219 15.9583 26.2135 15.7422 26.4531 15.4609C 26.6927 15.1745 26.8724 14.8255 26.9922 14.4141C 27.1172 14.0026 27.1797 13.5339 27.1797 13.0078C 27.1797 11.9297 26.9401 11.1068 26.4609 10.5391C 25.9818 9.96615 25.2969 9.67969 24.4062 9.67969ZM 33.6641 16.9062C 33.3203 17.0781 32.9453 17.1641 32.5391 17.1641C 31.2474 17.1641 30.6016 16.4193 30.6016 14.9297L 30.6016 9.875L 29.1953 9.875L 29.1953 9L 30.6016 9L 30.6016 6.98438L 31.6016 6.65625L 31.6016 9L 33.6641 9L 33.6641 9.875L 31.6016 9.875L 31.6016 14.7734C 31.6016 15.3151 31.6901 15.7057 31.8672 15.9453C 32.0443 16.1849 32.3438 16.3047 32.7656 16.3047C 33.0781 16.3047 33.3776 16.2109 33.6641 16.0234L 33.6641 16.9062ZM 44.6016 8.67188C 44.6016 8.31771 44.5469 8.00521 44.4375 7.73438C 44.3333 7.45833 44.1849 7.22917 43.9922 7.04688C 43.7995 6.85938 43.5677 6.71875 43.2969 6.625C 43.026 6.53125 42.7266 6.48438 42.3984 6.48438C 41.8984 6.48438 41.4167 6.60417 40.9531 6.84375C 40.4948 7.07812 40.0625 7.39323 39.6562 7.78906L 39.6562 6.67969C 40.0521 6.34115 40.4844 6.07812 40.9531 5.89062C 41.4219 5.70312 41.9505 5.60938 42.5391 5.60938C 42.6328 5.60938 42.7214 5.61458 42.8047 5.625C 42.8932 5.63542 42.9792 5.65104 43.0625 5.67188C 43.4479 5.71354 43.7969 5.8125 44.1094 5.96875C 44.4271 6.11979 44.6979 6.31771 44.9219 6.5625C 45.1458 6.80729 45.3177 7.09896 45.4375 7.4375C 45.5625 7.77083 45.625 8.14323 45.625 8.55469C 45.625 9.03385 45.5625 9.46354 45.4375 9.84375C 45.3125 10.224 45.1328 10.5755 44.8984 10.8984C 44.6693 11.2161 44.3906 11.5182 44.0625 11.8047C 43.7396 12.0859 43.3776 12.3698 42.9766 12.6562C 42.5286 12.9792 42.1432 13.2656 41.8203 13.5156C 41.5026 13.7604 41.237 13.9948 41.0234 14.2188C 40.8151 14.4427 40.6562 14.6667 40.5469 14.8906C 40.4375 15.1146 40.3672 15.3646 40.3359 15.6406C 40.3099 15.7135 40.2917 15.7865 40.2812 15.8594C 40.276 15.9323 40.2734 16.013 40.2734 16.1016L 45.8516 16.1016L 45.8516 17L 39.2188 17L 39.2188 16.4609C 39.2188 15.9609 39.276 15.5286 39.3906 15.1641C 39.5104 14.7943 39.6953 14.4505 39.9453 14.1328C 40.1953 13.8099 40.5156 13.4896 40.9062 13.1719C 41.2969 12.8542 41.7656 12.4974 42.3125 12.1016C 42.6823 11.8307 43.0104 11.5703 43.2969 11.3203C 43.5833 11.0651 43.8229 10.8047 44.0156 10.5391C 44.2083 10.2682 44.3542 9.98177 44.4531 9.67969C 44.5521 9.3776 44.6016 9.04167 44.6016 8.67188Z"/>
<path id="path4_fill" d="M 2.49219 12.6406L 2.49219 17L 1.45312 17L 1.45312 5.79688L 4.34375 5.79688C 4.93229 5.79688 5.45312 5.86979 5.90625 6.01562C 6.35938 6.16146 6.74219 6.3724 7.05469 6.64844C 7.36719 6.92448 7.60417 7.26302 7.76562 7.66406C 7.92708 8.0651 8.00781 8.52344 8.00781 9.03906C 8.00781 9.5599 7.91667 10.0417 7.73438 10.4844C 7.55208 10.9219 7.28906 11.3021 6.94531 11.625C 6.60677 11.9427 6.19271 12.1927 5.70312 12.375C 5.21354 12.5521 4.65885 12.6406 4.03906 12.6406L 2.49219 12.6406ZM 2.49219 6.75L 2.49219 11.6875L 3.97656 11.6875C 4.9401 11.6875 5.67188 11.4635 6.17188 11.0156C 6.67188 10.5677 6.92188 9.9349 6.92188 9.11719C 6.92188 7.53906 6 6.75 4.15625 6.75L 2.49219 6.75ZM 10.6094 6.97656C 10.4167 6.97656 10.25 6.90885 10.1094 6.77344C 9.96875 6.63802 9.89844 6.46615 9.89844 6.25781C 9.89844 6.05469 9.96875 5.88802 10.1094 5.75781C 10.25 5.6224 10.4167 5.55469 10.6094 5.55469C 10.7083 5.55469 10.8021 5.57292 10.8906 5.60938C 10.9792 5.64062 11.0547 5.6875 11.1172 5.75C 11.1849 5.8125 11.237 5.88802 11.2734 5.97656C 11.3151 6.0599 11.3359 6.15365 11.3359 6.25781C 11.3359 6.35677 11.3177 6.45052 11.2812 6.53906C 11.2448 6.6276 11.1927 6.70573 11.125 6.77344C 11.0573 6.83594 10.9792 6.88542 10.8906 6.92188C 10.8073 6.95833 10.7135 6.97656 10.6094 6.97656ZM 10.1172 17L 10.1172 9L 11.1172 9L 11.1172 17L 10.1172 17ZM 16.5469 17L 15.5938 17L 12.5312 9L 13.6328 9L 15.8438 15.0938C 15.9792 15.4635 16.0651 15.7891 16.1016 16.0703L 16.1328 16.0703C 16.1953 15.6953 16.276 15.3802 16.375 15.125L 18.6641 9L 19.7344 9L 16.5469 17ZM 24.3281 17.1875C 23.7344 17.1875 23.2005 17.0885 22.7266 16.8906C 22.2578 16.6927 21.8568 16.4141 21.5234 16.0547C 21.1901 15.6901 20.9349 15.2552 20.7578 14.75C 20.5807 14.2448 20.4922 13.6849 20.4922 13.0703C 20.4922 12.4036 20.5859 11.8073 20.7734 11.2812C 20.9609 10.7552 21.2266 10.3099 21.5703 9.94531C 21.9193 9.57552 22.3385 9.29427 22.8281 9.10156C 23.3177 8.90885 23.8646 8.8125 24.4688 8.8125C 25.0469 8.8125 25.5677 8.90885 26.0312 9.10156C 26.4948 9.28906 26.888 9.5625 27.2109 9.92188C 27.5339 10.2812 27.7812 10.7188 27.9531 11.2344C 28.125 11.75 28.2109 12.3359 28.2109 12.9922C 28.2109 13.6172 28.1198 14.1875 27.9375 14.7031C 27.7604 15.2135 27.5052 15.6536 27.1719 16.0234C 26.8385 16.3932 26.4323 16.6797 25.9531 16.8828C 25.474 17.0859 24.9323 17.1875 24.3281 17.1875ZM 24.4062 9.67969C 23.9688 9.67969 23.5729 9.75521 23.2188 9.90625C 22.8646 10.0573 22.5599 10.2786 22.3047 10.5703C 22.0547 10.8568 21.862 11.2109 21.7266 11.6328C 21.5911 12.0495 21.5234 12.5234 21.5234 13.0547C 21.5234 13.5547 21.5911 14.0052 21.7266 14.4062C 21.862 14.8073 22.0521 15.151 22.2969 15.4375C 22.5469 15.724 22.849 15.9453 23.2031 16.1016C 23.5573 16.2526 23.9531 16.3281 24.3906 16.3281C 24.8385 16.3281 25.2344 16.2552 25.5781 16.1094C 25.9219 15.9583 26.2135 15.7422 26.4531 15.4609C 26.6927 15.1745 26.8724 14.8255 26.9922 14.4141C 27.1172 14.0026 27.1797 13.5339 27.1797 13.0078C 27.1797 11.9297 26.9401 11.1068 26.4609 10.5391C 25.9818 9.96615 25.2969 9.67969 24.4062 9.67969ZM 33.6641 16.9062C 33.3203 17.0781 32.9453 17.1641 32.5391 17.1641C 31.2474 17.1641 30.6016 16.4193 30.6016 14.9297L 30.6016 9.875L 29.1953 9.875L 29.1953 9L 30.6016 9L 30.6016 6.98438L 31.6016 6.65625L 31.6016 9L 33.6641 9L 33.6641 9.875L 31.6016 9.875L 31.6016 14.7734C 31.6016 15.3151 31.6901 15.7057 31.8672 15.9453C 32.0443 16.1849 32.3438 16.3047 32.7656 16.3047C 33.0781 16.3047 33.3776 16.2109 33.6641 16.0234L 33.6641 16.9062ZM 41.75 17L 41.75 6.98438C 41.5677 7.14062 41.362 7.29167 41.1328 7.4375C 40.9089 7.58333 40.6771 7.72135 40.4375 7.85156C 40.2031 7.97656 39.9661 8.09115 39.7266 8.19531C 39.4922 8.29427 39.2734 8.3776 39.0703 8.44531L 39.0703 7.5625C 39.6849 7.36458 40.2708 7.09375 40.8281 6.75C 41.3906 6.40104 41.9349 6 42.4609 5.54688L 42.75 5.54688L 42.75 17L 41.75 17Z"/>
<path id="path5_fill" d="M 7.93945 13L 6.41016 13L 5.6543 10.8613L 2.34961 10.8613L 1.62305 13L 0.0996094 13L 3.24609 4.59766L 4.81641 4.59766L 7.93945 13ZM 5.28516 9.72461L 4.11914 6.37305C 4.08398 6.26367 4.04688 6.08789 4.00781 5.8457L 3.98438 5.8457C 3.94922 6.06836 3.91016 6.24414 3.86719 6.37305L 2.71289 9.72461L 5.28516 9.72461Z"/>
<path id="path6_fill" fill-rule="evenodd" d="M 9.39062 9.39844C 10.099 9.64323 10.7383 9.98567 11.3086 10.4258C 11.8789 10.8659 12.3633 11.375 12.7617 11.9531C 13.1602 12.5313 13.4661 13.1641 13.6797 13.8516C 13.8932 14.5391 14 15.2552 14 16L 13 16C 13 15.1458 12.8477 14.3529 12.543 13.6211C 12.2383 12.8893 11.8177 12.2552 11.2812 11.7188C 10.7448 11.1823 10.1107 10.7617 9.37891 10.457C 8.64713 10.1523 7.85417 10 7 10C 6.44271 10 5.90625 10.0703 5.39062 10.2109C 4.875 10.3516 4.39453 10.5508 3.94922 10.8086C 3.5039 11.0664 3.10026 11.3763 2.73828 11.7383C 2.3763 12.1003 2.06641 12.5039 1.80859 12.9492C 1.55078 13.3945 1.35156 13.875 1.21094 14.3906C 1.07031 14.9063 1 15.4427 1 16L 0 16C 0 15.25 0.109374 14.5326 0.328125 13.8477C 0.546876 13.1628 0.856769 12.5339 1.25781 11.9609C 1.65886 11.388 2.14453 10.8828 2.71484 10.4453C 3.28516 10.0078 3.92187 9.66146 4.625 9.40625C 4.21875 9.1875 3.85417 8.92188 3.53125 8.60938C 3.20833 8.29687 2.93359 7.94922 2.70703 7.56641C 2.48047 7.18359 2.30599 6.77474 2.18359 6.33984C 2.0612 5.90495 2 5.45834 2 5C 2 4.30729 2.13021 3.65756 2.39062 3.05078C 2.65104 2.44401 3.00781 1.91406 3.46094 1.46094C 3.91406 1.00781 4.44401 0.651043 5.05078 0.390625C 5.65756 0.130207 6.30729 0 7 0C 7.69271 0 8.34245 0.130207 8.94922 0.390625C 9.55599 0.651043 10.0859 1.00781 10.5391 1.46094C 10.9922 1.91406 11.349 2.44401 11.6094 3.05078C 11.8698 3.65756 12 4.30729 12 5C 12 5.45834 11.9388 5.90364 11.8164 6.33594C 11.694 6.76823 11.5195 7.17448 11.293 7.55469C 11.0664 7.9349 10.793 8.28255 10.4727 8.59766C 10.1523 8.91276 9.79167 9.17969 9.39062 9.39844ZM 3 5C 3 5.55209 3.10547 6.07031 3.31641 6.55469C 3.52734 7.03906 3.8138 7.46224 4.17578 7.82422C 4.53776 8.1862 4.96094 8.47266 5.44531 8.68359C 5.92969 8.89453 6.44791 9 7 9C 7.55209 9 8.07031 8.89453 8.55469 8.68359C 9.03906 8.47266 9.46224 8.1862 9.82422 7.82422C 10.1862 7.46224 10.4727 7.03906 10.6836 6.55469C 10.8945 6.07031 11 5.55209 11 5C 11 4.44791 10.8945 3.92969 10.6836 3.44531C 10.4727 2.96094 10.1862 2.53776 9.82422 2.17578C 9.46224 1.8138 9.03906 1.52734 8.55469 1.31641C 8.07031 1.10547 7.55209 1 7 1C 6.44791 1 5.92969 1.10547 5.44531 1.31641C 4.96094 1.52734 4.53776 1.8138 4.17578 2.17578C 3.8138 2.53776 3.52734 2.96094 3.31641 3.44531C 3.10547 3.92969 3 4.44791 3 5Z"/>
<path id="path7_fill" fill-rule="evenodd" d="M 13.8828 7.67188C 13.8828 7.71875 13.8841 7.76562 13.8867 7.8125C 13.8893 7.85938 13.8906 7.90625 13.8906 7.95312C 13.8906 8 13.8893 8.04688 13.8867 8.09375C 13.8841 8.14062 13.8828 8.1875 13.8828 8.23438L 15.9062 9.49219L 14.6641 12.4844L 12.3438 11.9531C 12.2187 12.0885 12.0885 12.2187 11.9531 12.3438L 12.4844 14.6641L 9.49219 15.9062L 8.23438 13.8828C 8.1875 13.8828 8.14062 13.8841 8.09375 13.8867C 8.04688 13.8893 8 13.8906 7.95312 13.8906C 7.90625 13.8906 7.85938 13.8893 7.8125 13.8867C 7.76562 13.8841 7.71875 13.8828 7.67188 13.8828L 6.41406 15.9062L 3.42188 14.6641L 3.95312 12.3438C 3.81771 12.2187 3.6875 12.0885 3.5625 11.9531L 1.24219 12.4844L 0 9.49219L 2.02344 8.23438C 2.02344 8.1875 2.02214 8.14062 2.01953 8.09375C 2.01693 8.04688 2.01562 8 2.01562 7.95312C 2.01562 7.90625 2.01693 7.85938 2.01953 7.8125C 2.02214 7.76562 2.02344 7.71875 2.02344 7.67188L 0 6.41406L 1.24219 3.42188L 3.5625 3.95312C 3.6875 3.81771 3.81771 3.6875 3.95312 3.5625L 3.42188 1.24219L 6.41406 0L 7.67188 2.02344C 7.71875 2.02344 7.76562 2.02214 7.8125 2.01953C 7.85938 2.01693 7.90625 2.01562 7.95312 2.01562C 8 2.01562 8.04688 2.01693 8.09375 2.01953C 8.14062 2.02214 8.1875 2.02344 8.23438 2.02344L 9.49219 0L 12.4844 1.24219L 11.9531 3.5625C 12.0885 3.6875 12.2187 3.81771 12.3438 3.95312L 14.6641 3.42188L 15.9062 6.41406L 13.8828 7.67188ZM 12.9688 8.6875C 12.9792 8.5625 12.9896 8.4388 13 8.31641C 13.0104 8.19401 13.0156 8.07031 13.0156 7.94531C 13.0156 7.82552 13.0104 7.70313 13 7.57812C 12.9896 7.45312 12.9792 7.33073 12.9688 7.21094L 14.8125 6.0625L 14.1406 4.4375L 12.0234 4.92969C 11.862 4.73177 11.6966 4.54948 11.5273 4.38281C 11.3581 4.21615 11.1745 4.04948 10.9766 3.88281L 11.4688 1.76562L 9.84375 1.09375L 8.6875 2.9375C 8.56771 2.92708 8.44531 2.91667 8.32031 2.90625C 8.19531 2.89583 8.07292 2.89062 7.95312 2.89062C 7.82812 2.89062 7.70443 2.89583 7.58203 2.90625C 7.45963 2.91667 7.33594 2.92708 7.21094 2.9375L 6.0625 1.09375L 4.4375 1.76562L 4.92969 3.88281C 4.73177 4.04427 4.54948 4.20963 4.38281 4.37891C 4.21615 4.54818 4.04948 4.73177 3.88281 4.92969L 1.76562 4.4375L 1.09375 6.0625L 2.9375 7.21875C 2.92708 7.34375 2.91667 7.46745 2.90625 7.58984C 2.89583 7.71224 2.89062 7.83594 2.89062 7.96094C 2.89062 8.08073 2.89583 8.20312 2.90625 8.32812C 2.91667 8.45312 2.92708 8.57552 2.9375 8.69531L 1.09375 9.84375L 1.76562 11.4688L 3.88281 10.9766C 4.04427 11.1745 4.20963 11.3568 4.37891 11.5234C 4.54818 11.6901 4.73177 11.8568 4.92969 12.0234L 4.4375 14.1406L 6.0625 14.8125L 7.21875 12.9688C 7.33854 12.9792 7.46094 12.9896 7.58594 13C 7.71094 13.0104 7.83333 13.0156 7.95312 13.0156C 8.07812 13.0156 8.20182 13.0104 8.32422 13C 8.44662 12.9896 8.57031 12.9792 8.69531 12.9688L 9.84375 14.8125L 11.4688 14.1406L 10.9766 12.0234C 11.1745 11.862 11.3568 11.6966 11.5234 11.5273C 11.6901 11.3581 11.8568 11.1745 12.0234 10.9766L 14.1406 11.4688L 14.8125 9.84375L 12.9688 8.6875ZM 7.95312 5.01562C 8.35938 5.01562 8.74088 5.09245 9.09766 5.24609C 9.45443 5.39974 9.76562 5.60937 10.0312 5.875C 10.2969 6.14063 10.5065 6.45182 10.6602 6.80859C 10.8138 7.16537 10.8906 7.54687 10.8906 7.95312C 10.8906 8.35938 10.8138 8.74088 10.6602 9.09766C 10.5065 9.45443 10.2969 9.76562 10.0312 10.0312C 9.76562 10.2969 9.45443 10.5065 9.09766 10.6602C 8.74088 10.8138 8.35938 10.8906 7.95312 10.8906C 7.54687 10.8906 7.16537 10.8138 6.80859 10.6602C 6.45182 10.5065 6.14063 10.2969 5.875 10.0312C 5.60937 9.76562 5.39974 9.45443 5.24609 9.09766C 5.09245 8.74088 5.01562 8.35938 5.01562 7.95312C 5.01562 7.54687 5.09245 7.16537 5.24609 6.80859C 5.39974 6.45182 5.60937 6.14063 5.875 5.875C 6.14063 5.60937 6.45182 5.39974 6.80859 5.24609C 7.16537 5.09245 7.54687 5.01562 7.95312 5.01562ZM 7.95312 10.0156C 8.23958 10.0156 8.50781 9.96224 8.75781 9.85547C 9.00781 9.7487 9.22656 9.60156 9.41406 9.41406C 9.60156 9.22656 9.7487 9.00781 9.85547 8.75781C 9.96224 8.50781 10.0156 8.23958 10.0156 7.95312C 10.0156 7.66667 9.96224 7.39844 9.85547 7.14844C 9.7487 6.89844 9.60156 6.67969 9.41406 6.49219C 9.22656 6.30469 9.00781 6.15755 8.75781 6.05078C 8.50781 5.94401 8.23958 5.89062 7.95312 5.89062C 7.66667 5.89062 7.39844 5.94401 7.14844 6.05078C 6.89844 6.15755 6.67969 6.30469 6.49219 6.49219C 6.30469 6.67969 6.15755 6.89844 6.05078 7.14844C 5.94401 7.39844 5.89062 7.66667 5.89062 7.95312C 5.89062 8.23958 5.94401 8.50781 6.05078 8.75781C 6.15755 9.00781 6.30469 9.22656 6.49219 9.41406C 6.67969 9.60156 6.89844 9.7487 7.14844 9.85547C 7.39844 9.96224 7.66667 10.0156 7.95312 10.0156Z"/>
<path id="path8_fill" fill-rule="evenodd" d="M 15 10.5L 7.5 13L 0 10.5L 7.5 0L 15 10.5ZM 8 11.7812L 13.3984 9.97656L 8 2.42188L 8 11.7812ZM 1.60156 9.97656L 7 11.7812L 7 2.42188L 1.60156 9.97656Z"/>
<path id="path9_fill" fill-rule="evenodd" d="M 13 3.25781L 13 11.3672L 6.5 14.625L 0 11.3672L 0 3.25781L 6.5 0L 13 3.25781ZM 6.5 1.125L 1.61719 3.5625L 6.5 6L 11.3828 3.5625L 6.5 1.125ZM 1 10.75L 6 13.2578L 6 6.875L 1 4.36719L 1 10.75ZM 12 10.75L 12 4.36719L 7 6.875L 7 13.2578L 12 10.75Z"/>
<path id="path10_fill" fill-rule="evenodd" d="M 16 7L 12.9375 8.53125L 16 10.0625L 8 14.0625L 0 10.0625L 3.0625 8.53125L 0 7L 3 5.5L 0 4L 8 0L 16 4L 13 5.5L 16 7ZM 2.23438 4C 3.20313 4.48438 4.16536 4.96354 5.12109 5.4375C 6.07683 5.91146 7.03645 6.39323 8 6.88281C 8.96355 6.39323 9.92317 5.91146 10.8789 5.4375C 11.8346 4.96354 12.7969 4.48438 13.7656 4L 8 1.11719L 2.23438 4ZM 11.8203 9.08594L 8 11L 4.17969 9.08594L 2.23438 10.0625L 8 12.9453L 13.7656 10.0625L 11.8203 9.08594ZM 8 9.88281C 8.96875 9.39844 9.92968 8.91667 10.8828 8.4375C 11.8359 7.95833 12.7969 7.47917 13.7656 7L 11.8828 6.05469C 11.2318 6.38281 10.5846 6.70703 9.94141 7.02734C 9.29817 7.34766 8.65104 7.67187 8 8C 7.34896 7.67187 6.70183 7.34766 6.05859 7.02734C 5.41536 6.70703 4.76823 6.38281 4.11719 6.05469L 2.23438 7C 3.20313 7.47917 4.16406 7.95833 5.11719 8.4375C 6.07032 8.91667 7.03125 9.39844 8 9.88281Z"/>
<path id="path11_fill" fill-rule="evenodd" d="M 0 0L 6 0L 6 24L 0 24L 0 0Z"/>
<path id="path12_fill" fill-rule="evenodd" d="M 16 1L 0 1L 0 0L 16 0L 16 1ZM 16 11L 0 11L 0 10L 16 10L 16 11ZM 16 5.99219L 0 5.99219L 0 5L 16 5L 16 5.99219Z"/>
<path id="path13_fill" d="M 0 0L 727 0L 727 271L 0 271L 0 0Z"/>
<path id="path14_fill" d="M 1.03711 13L 1.03711 4.59766L 3.70312 4.59766C 4.51563 4.59766 5.1582 4.77539 5.63086 5.13086C 6.10742 5.48633 6.3457 5.94922 6.3457 6.51953C 6.3457 6.99609 6.21094 7.41016 5.94141 7.76172C 5.67188 8.11328 5.29883 8.36328 4.82227 8.51172L 4.82227 8.53516C 5.40039 8.60156 5.86133 8.81641 6.20508 9.17969C 6.55273 9.53906 6.72656 10.0078 6.72656 10.5859C 6.72656 11.3047 6.44336 11.8867 5.87695 12.332C 5.31055 12.7773 4.5957 13 3.73242 13L 1.03711 13ZM 2.42578 5.7168L 2.42578 8.10742L 3.32812 8.10742C 3.8125 8.10742 4.19141 7.99414 4.46484 7.76758C 4.74219 7.53711 4.88086 7.21289 4.88086 6.79492C 4.88086 6.07617 4.40039 5.7168 3.43945 5.7168L 2.42578 5.7168ZM 2.42578 9.22656L 2.42578 11.8867L 3.61523 11.8867C 4.13477 11.8867 4.53516 11.7676 4.81641 11.5293C 5.10156 11.2871 5.24414 10.9551 5.24414 10.5332C 5.24414 9.66211 4.64062 9.22656 3.43359 9.22656L 2.42578 9.22656Z"/>
<path id="path15_fill" d="M 0 0L 727 0L 727 81L 0 81L 0 0Z"/>
<path id="path16_fill" d="M 3.73828 19.4609L 3.73828 26L 2.17969 26L 2.17969 9.19531L 6.51562 9.19531C 7.39844 9.19531 8.17969 9.30469 8.85938 9.52344C 9.53906 9.74219 10.1133 10.0586 10.582 10.4727C 11.0508 10.8867 11.4062 11.3945 11.6484 11.9961C 11.8906 12.5977 12.0117 13.2852 12.0117 14.0586C 12.0117 14.8398 11.875 15.5625 11.6016 16.2266C 11.3281 16.8828 10.9336 17.4531 10.418 17.9375C 9.91016 18.4141 9.28906 18.7891 8.55469 19.0625C 7.82031 19.3281 6.98828 19.4609 6.05859 19.4609L 3.73828 19.4609ZM 3.73828 10.625L 3.73828 18.0312L 5.96484 18.0312C 7.41016 18.0312 8.50781 17.6953 9.25781 17.0234C 10.0078 16.3516 10.3828 15.4023 10.3828 14.1758C 10.3828 11.8086 9 10.625 6.23438 10.625L 3.73828 10.625ZM 21.3164 26L 21.3164 23.8672L 21.2695 23.8672C 20.8789 24.6328 20.3438 25.2266 19.6641 25.6484C 18.9922 26.0703 18.2305 26.2812 17.3789 26.2812C 16.8008 26.2812 16.2773 26.1992 15.8086 26.0352C 15.3477 25.8711 14.9531 25.6406 14.625 25.3438C 14.3047 25.0391 14.0547 24.6758 13.875 24.2539C 13.7031 23.832 13.6172 23.3672 13.6172 22.8594C 13.6172 21.7734 13.9531 20.9102 14.625 20.2695C 15.2969 19.6211 16.3125 19.1992 17.6719 19.0039L 21.3164 18.4766C 21.3164 16.1719 20.4219 15.0195 18.6328 15.0195C 17.2344 15.0195 15.9375 15.5313 14.7422 16.5547L 14.7422 14.9141C 14.9922 14.7344 15.2734 14.5742 15.5859 14.4336C 15.9063 14.2852 16.2422 14.1602 16.5938 14.0586C 16.9453 13.9492 17.3047 13.8672 17.6719 13.8125C 18.0469 13.75 18.4102 13.7188 18.7617 13.7188C 20.0977 13.7188 21.1055 14.0938 21.7852 14.8438C 22.4727 15.5938 22.8164 16.7109 22.8164 18.1953L 22.8164 26L 21.3164 26ZM 18.2227 20.1758C 17.6836 20.2539 17.2227 20.3516 16.8398 20.4688C 16.457 20.5859 16.1406 20.7461 15.8906 20.9492C 15.6406 21.1445 15.457 21.3906 15.3398 21.6875C 15.2227 21.9766 15.1641 22.3359 15.1641 22.7656C 15.1641 23.0859 15.2188 23.3828 15.3281 23.6562C 15.4453 23.9297 15.6094 24.168 15.8203 24.3711C 16.0391 24.5664 16.3008 24.7187 16.6055 24.8281C 16.918 24.9375 17.2695 24.9922 17.6602 24.9922C 18.1914 24.9922 18.6797 24.8906 19.125 24.6875C 19.5703 24.4844 19.9531 24.2031 20.2734 23.8438C 20.6016 23.4844 20.8555 23.0547 21.0352 22.5547C 21.2227 22.0547 21.3164 21.5117 21.3164 20.9258L 21.3164 19.7422L 18.2227 20.1758ZM 36.3398 25.0742C 36.3398 27.3008 35.832 28.9492 34.8164 30.0195C 33.8086 31.0977 32.25 31.6367 30.1406 31.6367C 28.8281 31.6367 27.5859 31.3438 26.4141 30.7578L 26.4141 29.2344C 27.7188 29.9609 28.9609 30.3242 30.1406 30.3242C 33.2734 30.3242 34.8398 28.668 34.8398 25.3555L 34.8398 23.9141L 34.793 23.9141C 33.8711 25.4922 32.4648 26.2812 30.5742 26.2812C 29.832 26.2812 29.1523 26.1445 28.5352 25.8711C 27.9258 25.5977 27.4023 25.2031 26.9648 24.6875C 26.5273 24.1719 26.1875 23.5469 25.9453 22.8125C 25.7031 22.0703 25.582 21.2344 25.582 20.3047C 25.582 19.3203 25.7109 18.4258 25.9688 17.6211C 26.2266 16.8086 26.5937 16.1133 27.0703 15.5352C 27.5469 14.957 28.1211 14.5117 28.793 14.1992C 29.4727 13.8789 30.2344 13.7188 31.0781 13.7188C 32.7734 13.7188 34.0117 14.4063 34.793 15.7812L 34.8398 15.7812L 34.8398 14L 36.3398 14L 36.3398 25.0742ZM 34.8398 18.7109C 34.8398 18.2109 34.75 17.7383 34.5703 17.293C 34.3906 16.8477 34.1406 16.457 33.8203 16.1211C 33.5 15.7852 33.1172 15.5195 32.6719 15.3242C 32.2344 15.1211 31.75 15.0195 31.2188 15.0195C 30.5938 15.0195 30.0273 15.1406 29.5195 15.3828C 29.0195 15.625 28.5898 15.9688 28.2305 16.4141C 27.8789 16.8594 27.6055 17.4023 27.4102 18.043C 27.2227 18.6758 27.1289 19.3906 27.1289 20.1875C 27.1289 20.9219 27.2188 21.5859 27.3984 22.1797C 27.5781 22.7734 27.832 23.2773 28.1602 23.6914C 28.4883 24.1055 28.8828 24.4258 29.3438 24.6523C 29.8125 24.8789 30.332 24.9922 30.9023 24.9922C 31.4961 24.9922 32.0352 24.8867 32.5195 24.6758C 33.0039 24.457 33.418 24.1602 33.7617 23.7852C 34.1055 23.4023 34.3711 22.957 34.5586 22.4492C 34.7461 21.9336 34.8398 21.3789 34.8398 20.7852L 34.8398 18.7109ZM 40.9219 20.2695C 40.9297 21.0039 41.0273 21.6641 41.2148 22.25C 41.4023 22.8359 41.6719 23.332 42.0234 23.7383C 42.375 24.1445 42.8008 24.457 43.3008 24.6758C 43.8086 24.8867 44.3789 24.9922 45.0117 24.9922C 46.3633 24.9922 47.6406 24.5195 48.8438 23.5742L 48.8438 25.0508C 47.6953 25.8711 46.3047 26.2812 44.6719 26.2812C 43.8672 26.2812 43.1367 26.1406 42.4805 25.8594C 41.8242 25.5781 41.2656 25.1719 40.8047 24.6406C 40.3438 24.1016 39.9883 23.4414 39.7383 22.6602C 39.4883 21.8789 39.3633 20.9883 39.3633 19.9883C 39.3633 19.0898 39.5 18.2578 39.7734 17.4922C 40.0469 16.7266 40.4258 16.0664 40.9102 15.5117C 41.3945 14.9492 41.9688 14.5117 42.6328 14.1992C 43.2969 13.8789 44.0234 13.7188 44.8125 13.7188C 45.5859 13.7188 46.2695 13.8555 46.8633 14.1289C 47.457 14.3945 47.9531 14.7773 48.3516 15.2773C 48.7578 15.7773 49.0664 16.3867 49.2773 17.1055C 49.4883 17.8242 49.5938 18.6289 49.5938 19.5195L 49.5938 20.2695L 40.9219 20.2695ZM 48.0469 18.957C 48.0234 17.707 47.7266 16.7383 47.1562 16.0508C 46.5859 15.3633 45.793 15.0195 44.7773 15.0195C 44.2695 15.0195 43.7969 15.1094 43.3594 15.2891C 42.9297 15.4687 42.5508 15.7305 42.2227 16.0742C 41.8945 16.4102 41.6211 16.8242 41.4023 17.3164C 41.1914 17.8008 41.043 18.3477 40.957 18.957L 48.0469 18.957ZM 64.2773 25.8594C 63.7617 26.1172 63.1992 26.2461 62.5898 26.2461C 60.6523 26.2461 59.6836 25.1289 59.6836 22.8945L 59.6836 15.3125L 57.5742 15.3125L 57.5742 14L 59.6836 14L 59.6836 10.9766L 61.1836 10.4844L 61.1836 14L 64.2773 14L 64.2773 15.3125L 61.1836 15.3125L 61.1836 22.6602C 61.1836 23.4727 61.3164 24.0586 61.582 24.418C 61.8477 24.7773 62.2969 24.957 62.9297 24.957C 63.3984 24.957 63.8477 24.8164 64.2773 24.5352L 64.2773 25.8594ZM 67.5 10.9648C 67.2109 10.9648 66.9609 10.8633 66.75 10.6602C 66.5391 10.457 66.4336 10.1992 66.4336 9.88672C 66.4336 9.58203 66.5391 9.33203 66.75 9.13672C 66.9609 8.93359 67.2109 8.83203 67.5 8.83203C 67.6484 8.83203 67.7891 8.85938 67.9219 8.91406C 68.0547 8.96094 68.168 9.03125 68.2617 9.125C 68.3633 9.21875 68.4414 9.33203 68.4961 9.46484C 68.5586 9.58984 68.5898 9.73047 68.5898 9.88672C 68.5898 10.0352 68.5625 10.1758 68.5078 10.3086C 68.4531 10.4414 68.375 10.5586 68.2734 10.6602C 68.1719 10.7539 68.0547 10.8281 67.9219 10.8828C 67.7969 10.9375 67.6562 10.9648 67.5 10.9648ZM 66.7617 26L 66.7617 14L 68.2617 14L 68.2617 26L 66.7617 26ZM 77.2852 25.8594C 76.7695 26.1172 76.207 26.2461 75.5977 26.2461C 73.6602 26.2461 72.6914 25.1289 72.6914 22.8945L 72.6914 15.3125L 70.582 15.3125L 70.582 14L 72.6914 14L 72.6914 10.9766L 74.1914 10.4844L 74.1914 14L 77.2852 14L 77.2852 15.3125L 74.1914 15.3125L 74.1914 22.6602C 74.1914 23.4727 74.3242 24.0586 74.5898 24.418C 74.8555 24.7773 75.3047 24.957 75.9375 24.957C 76.4062 24.957 76.8555 24.8164 77.2852 24.5352L 77.2852 25.8594ZM 79.7695 26L 79.7695 8.23438L 81.2695 8.23438L 81.2695 26L 79.7695 26ZM 85.8516 20.2695C 85.8594 21.0039 85.957 21.6641 86.1445 22.25C 86.332 22.8359 86.6016 23.332 86.9531 23.7383C 87.3047 24.1445 87.7305 24.457 88.2305 24.6758C 88.7383 24.8867 89.3086 24.9922 89.9414 24.9922C 91.293 24.9922 92.5703 24.5195 93.7734 23.5742L 93.7734 25.0508C 92.625 25.8711 91.2344 26.2812 89.6016 26.2812C 88.7969 26.2812 88.0664 26.1406 87.4102 25.8594C 86.7539 25.5781 86.1953 25.1719 85.7344 24.6406C 85.2734 24.1016 84.918 23.4414 84.668 22.6602C 84.418 21.8789 84.293 20.9883 84.293 19.9883C 84.293 19.0898 84.4297 18.2578 84.7031 17.4922C 84.9766 16.7266 85.3555 16.0664 85.8398 15.5117C 86.3242 14.9492 86.8984 14.5117 87.5625 14.1992C 88.2266 13.8789 88.9531 13.7188 89.7422 13.7188C 90.5156 13.7188 91.1992 13.8555 91.793 14.1289C 92.3867 14.3945 92.8828 14.7773 93.2812 15.2773C 93.6875 15.7773 93.9961 16.3867 94.207 17.1055C 94.418 17.8242 94.5234 18.6289 94.5234 19.5195L 94.5234 20.2695L 85.8516 20.2695ZM 92.9766 18.957C 92.9531 17.707 92.6563 16.7383 92.0859 16.0508C 91.5156 15.3633 90.7227 15.0195 89.707 15.0195C 89.1992 15.0195 88.7266 15.1094 88.2891 15.2891C 87.8594 15.4687 87.4805 15.7305 87.1523 16.0742C 86.8242 16.4102 86.5508 16.8242 86.332 17.3164C 86.1211 17.8008 85.9727 18.3477 85.8867 18.957L 92.9766 18.957Z"/>
<path id="path17_fill" fill-rule="evenodd" d="M 1.25 0C 1.42578 0 1.58854 0.0325518 1.73828 0.0976562C 1.88802 0.162761 2.01986 0.252278 2.13379 0.366211C 2.24772 0.480144 2.33724 0.611978 2.40234 0.761719C 2.46745 0.911459 2.5 1.07422 2.5 1.25C 2.5 1.42578 2.46745 1.58854 2.40234 1.73828C 2.33724 1.88802 2.24772 2.01986 2.13379 2.13379C 2.01986 2.24772 1.88802 2.33724 1.73828 2.40234C 1.58854 2.46745 1.42578 2.5 1.25 2.5C 1.07422 2.5 0.911459 2.46745 0.761719 2.40234C 0.611978 2.33724 0.480144 2.24772 0.366211 2.13379C 0.252278 2.01986 0.162761 1.88802 0.0976562 1.73828C 0.0325518 1.58854 0 1.42578 0 1.25C 0 1.07422 0.0325518 0.911459 0.0976562 0.761719C 0.162761 0.611978 0.252278 0.480144 0.366211 0.366211C 0.480144 0.252278 0.611978 0.162761 0.761719 0.0976562C 0.911459 0.0325518 1.07422 0 1.25 0ZM 8.75 0C 8.92578 0 9.08854 0.0325518 9.23828 0.0976562C 9.38802 0.162761 9.51986 0.252278 9.63379 0.366211C 9.74772 0.480144 9.83724 0.611978 9.90234 0.761719C 9.96745 0.911459 10 1.07422 10 1.25C 10 1.42578 9.96745 1.58854 9.90234 1.73828C 9.83724 1.88802 9.74772 2.01986 9.63379 2.13379C 9.51986 2.24772 9.38802 2.33724 9.23828 2.40234C 9.08854 2.46745 8.92578 2.5 8.75 2.5C 8.57422 2.5 8.41146 2.46745 8.26172 2.40234C 8.11198 2.33724 7.98014 2.24772 7.86621 2.13379C 7.75228 2.01986 7.66276 1.88802 7.59766 1.73828C 7.53255 1.58854 7.5 1.42578 7.5 1.25C 7.5 1.07422 7.53255 0.911459 7.59766 0.761719C 7.66276 0.611978 7.75228 0.480144 7.86621 0.366211C 7.98014 0.252278 8.11198 0.162761 8.26172 0.0976562C 8.41146 0.0325518 8.57422 0 8.75 0ZM 16.25 0C 16.4258 0 16.5885 0.0325518 16.7383 0.0976562C 16.888 0.162761 17.0199 0.252278 17.1338 0.366211C 17.2477 0.480144 17.3372 0.611978 17.4023 0.761719C 17.4674 0.911459 17.5 1.07422 17.5 1.25C 17.5 1.42578 17.4674 1.58854 17.4023 1.73828C 17.3372 1.88802 17.2477 2.01986 17.1338 2.13379C 17.0199 2.24772 16.888 2.33724 16.7383 2.40234C 16.5885 2.46745 16.4258 2.5 16.25 2.5C 16.0742 2.5 15.9115 2.46745 15.7617 2.40234C 15.612 2.33724 15.4801 2.24772 15.3662 2.13379C 15.2523 2.01986 15.1628 1.88802 15.0977 1.73828C 15.0326 1.58854 15 1.42578 15 1.25C 15 1.07422 15.0326 0.911459 15.0977 0.761719C 15.1628 0.611978 15.2523 0.480144 15.3662 0.366211C 15.4801 0.252278 15.612 0.162761 15.7617 0.0976562C 15.9115 0.0325518 16.0742 0 16.25 0Z"/>
<path id="path18_fill" fill-rule="evenodd" d="M 12.6221 2.89062L 11.6512 2.89062L 11.6512 13.9714C 11.6512 14.1721 11.6133 14.3603 11.5374 14.5359C 11.4616 14.7116 11.3579 14.8646 11.2264 14.9951C 11.0949 15.1256 10.9407 15.2285 10.7637 15.3038C 10.5867 15.379 10.3971 15.4167 10.1948 15.4167L 2.42733 15.4167C 2.22505 15.4167 2.03542 15.379 1.85843 15.3038C 1.68143 15.2285 1.5272 15.1256 1.39572 14.9951C 1.26423 14.8646 1.16057 14.7116 1.08471 14.5359C 1.00886 14.3603 0.970932 14.1721 0.970932 13.9714L 0.970932 2.89062L 0 2.89062L 0 1.92708L 3.88373 1.92708L 3.88373 0.963542C 3.88373 0.828043 3.90901 0.702583 3.95958 0.587158C 4.01015 0.471733 4.07969 0.370111 4.16818 0.282288C 4.25668 0.194464 4.35908 0.125461 4.47539 0.0752767C 4.5917 0.025092 4.71812 0 4.85466 0L 7.76746 0C 7.904 0 8.03042 0.025092 8.14673 0.0752767C 8.26304 0.125461 8.36544 0.194464 8.45394 0.282288C 8.54244 0.370111 8.61197 0.471733 8.66254 0.587158C 8.71311 0.702583 8.73839 0.828043 8.73839 0.963542L 8.73839 1.92708L 12.6221 1.92708L 12.6221 2.89062ZM 4.85474 1.92741L 7.76753 1.92741L 7.76753 0.963867L 4.85474 0.963867L 4.85474 1.92741ZM 10.68 2.89062L 1.94165 2.89062L 1.94165 13.9714C 1.94165 14.1018 1.98969 14.2147 2.08577 14.3101C 2.18186 14.4054 2.29564 14.4531 2.42712 14.4531L 10.1946 14.4531C 10.3261 14.4531 10.4398 14.4054 10.5359 14.3101C 10.632 14.2147 10.68 14.1018 10.68 13.9714L 10.68 2.89062ZM 4.85436 12.5267L 3.88342 12.5267L 3.88342 4.81836L 4.85436 4.81836L 4.85436 12.5267ZM 6.79607 12.5267L 5.82513 12.5267L 5.82513 4.81836L 6.79607 4.81836L 6.79607 12.5267ZM 8.73869 12.5267L 7.76776 12.5267L 7.76776 4.81836L 8.73869 4.81836L 8.73869 12.5267Z"/>
<path id="path19_fill" fill-rule="evenodd" d="M 15.5349 2.52177C 15.5349 2.85299 15.4717 3.17417 15.3453 3.48531C 15.2189 3.79646 15.0343 4.07247 14.7915 4.31335L 4.80156 14.2273L 0 15.4167L 1.19849 10.6517L 11.1885 0.737712C 11.4312 0.496825 11.7093 0.313653 12.0229 0.188192C 12.3364 0.0627299 12.66 0 12.9938 0C 13.3427 0 13.6714 0.0664937 13.9799 0.199483C 14.2884 0.332473 14.5577 0.513135 14.7878 0.741475C 15.0178 0.969816 15.1999 1.23705 15.3339 1.54317C 15.4679 1.8493 15.5349 2.17549 15.5349 2.52177ZM 2.47345 10.7497C 3.00949 10.9254 3.47093 11.2051 3.85779 11.5891C 4.24464 11.973 4.52657 12.4309 4.70356 12.9628L 12.9034 4.81791L 10.6809 2.6123L 2.47345 10.7497ZM 1.33545 14.0918L 3.83105 13.4746C 3.78048 13.2437 3.6983 13.0254 3.58452 12.8197C 3.47074 12.6139 3.33294 12.4307 3.17112 12.2701C 3.0093 12.1096 2.82472 11.9728 2.61738 11.8599C 2.41005 11.747 2.19007 11.6654 1.95745 11.6152L 1.33545 14.0918ZM 13.5936 4.13302C 13.72 4.00755 13.8414 3.88962 13.9577 3.77922C 14.074 3.66881 14.1777 3.55213 14.2687 3.42918C 14.3597 3.30623 14.4318 3.17324 14.4849 3.03021C 14.538 2.88719 14.5646 2.72032 14.5646 2.52962C 14.5646 2.31383 14.5228 2.11184 14.4394 1.92365C 14.356 1.73545 14.2422 1.56985 14.098 1.42682C 13.9539 1.28379 13.787 1.17088 13.5974 1.08807C 13.4078 1.00527 13.2042 0.963867 12.9868 0.963867C 12.7946 0.963867 12.6265 0.990214 12.4824 1.04291C 12.3382 1.0956 12.2042 1.16711 12.0803 1.25745C 11.9564 1.34778 11.8389 1.45066 11.7276 1.56608C 11.6164 1.68151 11.4975 1.80195 11.3711 1.92741L 13.5936 4.13302Z"/>
<path id="path20_fill" fill-rule="evenodd" d="M 14.4199 10.0193C 14.5918 10.1297 14.7473 10.259 14.8864 10.407C 15.0254 10.555 15.143 10.7169 15.2391 10.8925C 15.3352 11.0682 15.4085 11.2539 15.4591 11.4496C 15.5096 11.6453 15.5349 11.8435 15.5349 12.0443C 15.5349 12.3755 15.4704 12.6866 15.3415 12.9777C 15.2125 13.2688 15.0381 13.5235 14.8181 13.7418C 14.5981 13.9601 14.3415 14.1332 14.0482 14.2612C 13.7549 14.3891 13.4413 14.4531 13.1076 14.4531C 12.6423 14.4531 12.2125 14.3302 11.8181 14.0843C 11.2365 14.5209 10.5981 14.8521 9.90275 15.0779C 9.20742 15.3038 8.49566 15.4167 7.76746 15.4167C 7.03926 15.4167 6.3275 15.3038 5.63217 15.0779C 4.93683 14.8521 4.2984 14.5209 3.71685 14.0843C 3.32241 14.3302 2.89257 14.4531 2.42733 14.4531C 2.09357 14.4531 1.78004 14.3891 1.48674 14.2612C 1.19344 14.1332 0.936799 13.9601 0.716821 13.7418C 0.496843 13.5235 0.322381 13.2688 0.193428 12.9777C 0.0644753 12.6866 0 12.3755 0 12.0443C 0 11.8435 0.0252844 11.6453 0.0758541 11.4496C 0.126424 11.2539 0.199749 11.0682 0.295831 10.8925C 0.391913 10.7169 0.509486 10.555 0.648552 10.407C 0.787619 10.259 0.943118 10.1297 1.11506 10.0193C 1.06449 9.7935 1.02782 9.56892 1.00507 9.3456C 0.98231 9.12228 0.970932 8.89771 0.970932 8.67188C 0.970932 7.97933 1.07586 7.30812 1.28573 6.65822C 1.49559 6.00833 1.79142 5.40612 2.17322 4.85158C 2.55502 4.29704 3.01393 3.80649 3.54997 3.37992C 4.08601 2.95335 4.68272 2.61712 5.34013 2.37122C 5.34518 2.04502 5.41219 1.73764 5.54114 1.44908C 5.67009 1.16051 5.84456 0.909594 6.06453 0.696309C 6.28451 0.483024 6.54115 0.313653 6.83445 0.188192C 7.12776 0.0627299 7.43876 0 7.76746 0C 8.09616 0 8.40716 0.0627299 8.70046 0.188192C 8.99377 0.313653 9.25041 0.483024 9.47038 0.696309C 9.69036 0.909594 9.86482 1.16051 9.99378 1.44908C 10.1227 1.73764 10.1897 2.04502 10.1948 2.37122C 10.8522 2.61712 11.4489 2.95335 11.9849 3.37992C 12.521 3.80649 12.9799 4.29704 13.3617 4.85158C 13.7435 5.40612 14.0393 6.00833 14.2492 6.65822C 14.4591 7.30812 14.564 7.97933 14.564 8.67188C 14.564 8.89771 14.5526 9.12228 14.5299 9.3456C 14.5071 9.56892 14.4704 9.7935 14.4199 10.0193ZM 7.76695 0.963867C 7.56467 0.963867 7.37503 1.00151 7.19804 1.07678C 7.02105 1.15206 6.86681 1.25494 6.73533 1.38542C 6.60385 1.5159 6.50018 1.66896 6.42433 1.8446C 6.34847 2.02025 6.31055 2.20844 6.31055 2.40918C 6.31055 2.60992 6.34847 2.79811 6.42433 2.97375C 6.50018 3.1494 6.60385 3.30246 6.73533 3.43294C 6.86681 3.56342 7.02105 3.6663 7.19804 3.74158C 7.37503 3.81685 7.56467 3.85449 7.76695 3.85449C 7.96922 3.85449 8.15886 3.81685 8.33585 3.74158C 8.51285 3.6663 8.66708 3.56342 8.79856 3.43294C 8.93004 3.30246 9.03371 3.1494 9.10956 2.97375C 9.18542 2.79811 9.22334 2.60992 9.22334 2.40918C 9.22334 2.20844 9.18542 2.02025 9.10956 1.8446C 9.03371 1.66896 8.93004 1.5159 8.79856 1.38542C 8.66708 1.25494 8.51285 1.15206 8.33585 1.07678C 8.15886 1.00151 7.96922 0.963867 7.76695 0.963867ZM 0.970093 12.0449C 0.970093 12.2457 1.00802 12.4339 1.08387 12.6095C 1.15973 12.7851 1.26339 12.9382 1.39488 13.0687C 1.52636 13.1992 1.68059 13.302 1.85759 13.3773C 2.03458 13.4526 2.22421 13.4902 2.42649 13.4902C 2.62877 13.4902 2.8184 13.4526 2.9954 13.3773C 3.17239 13.302 3.32663 13.1992 3.45811 13.0687C 3.58959 12.9382 3.69325 12.7851 3.76911 12.6095C 3.84496 12.4339 3.88289 12.2457 3.88289 12.0449C 3.88289 11.8442 3.84496 11.656 3.76911 11.4803C 3.69325 11.3047 3.58959 11.1516 3.45811 11.0212C 3.32663 10.8907 3.17239 10.7878 2.9954 10.7125C 2.8184 10.6372 2.62877 10.5996 2.42649 10.5996C 2.22421 10.5996 2.03458 10.6372 1.85759 10.7125C 1.68059 10.7878 1.52636 10.8907 1.39488 11.0212C 1.26339 11.1516 1.15973 11.3047 1.08387 11.4803C 1.00802 11.656 0.970093 11.8442 0.970093 12.0449ZM 7.767 14.4533C 8.36372 14.4533 8.94653 14.3643 9.51544 14.1861C 10.0843 14.0079 10.6141 13.7482 11.1046 13.407C 10.968 13.2062 10.8631 12.9892 10.7898 12.7558C 10.7165 12.5225 10.6798 12.2854 10.6798 12.0445C 10.6798 11.7133 10.7443 11.4021 10.8732 11.111C 11.0022 10.82 11.1766 10.5653 11.3966 10.347C 11.6166 10.1287 11.8732 9.95555 12.1665 9.82758C 12.4598 9.6996 12.7734 9.63562 13.1071 9.63562C 13.1729 9.63562 13.2386 9.63813 13.3043 9.64315C 13.3701 9.64817 13.4358 9.65569 13.5016 9.66573C 13.5623 9.33451 13.5926 9.0033 13.5926 8.67208C 13.5926 8.08492 13.5079 7.51909 13.3385 6.97459C 13.1691 6.43008 12.9289 5.92574 12.6179 5.46153C 12.3069 4.99732 11.9301 4.5833 11.4876 4.21946C 11.0452 3.85562 10.5508 3.56079 10.0047 3.33496C 9.91367 3.55577 9.79104 3.75776 9.6368 3.94094C 9.48257 4.12411 9.30684 4.28094 9.10962 4.41142C 8.9124 4.5419 8.70001 4.64227 8.47244 4.71252C 8.24488 4.78278 8.00974 4.81791 7.767 4.81791C 7.52427 4.81791 7.28912 4.78278 7.06156 4.71252C 6.83399 4.64227 6.6216 4.5419 6.42438 4.41142C 6.22716 4.28094 6.05143 4.12411 5.8972 3.94094C 5.74296 3.75776 5.62033 3.55577 5.5293 3.33496C 4.98315 3.56079 4.48884 3.85562 4.04636 4.21946C 3.60387 4.5833 3.22713 4.99732 2.91613 5.46153C 2.60513 5.92574 2.36493 6.43008 2.19552 6.97459C 2.02611 7.51909 1.94141 8.08492 1.94141 8.67208C 1.94141 9.0033 1.97175 9.33451 2.03243 9.66573C 2.39653 9.60551 2.74925 9.62558 3.0906 9.72595C 3.43194 9.82632 3.73283 9.98816 3.99326 10.2115C 4.25369 10.4348 4.46229 10.7045 4.61906 11.0207C 4.77582 11.3369 4.8542 11.6781 4.8542 12.0445C 4.8542 12.2854 4.81754 12.5225 4.74422 12.7558C 4.67089 12.9892 4.56596 13.2062 4.42942 13.407C 4.91995 13.7482 5.44966 14.0079 6.01856 14.1861C 6.58747 14.3643 7.17028 14.4533 7.767 14.4533ZM 13.1073 13.4902C 13.3096 13.4902 13.4992 13.4526 13.6762 13.3773C 13.8532 13.302 14.0074 13.1992 14.1389 13.0687C 14.2704 12.9382 14.374 12.7851 14.4499 12.6095C 14.5257 12.4339 14.5637 12.2457 14.5637 12.0449C 14.5637 11.8442 14.5257 11.656 14.4499 11.4803C 14.374 11.3047 14.2704 11.1516 14.1389 11.0212C 14.0074 10.8907 13.8532 10.7878 13.6762 10.7125C 13.4992 10.6372 13.3096 10.5996 13.1073 10.5996C 12.905 10.5996 12.7154 10.6372 12.5384 10.7125C 12.3614 10.7878 12.2071 10.8907 12.0757 11.0212C 11.9442 11.1516 11.8405 11.3047 11.7647 11.4803C 11.6888 11.656 11.6509 11.8442 11.6509 12.0449C 11.6509 12.2457 11.6888 12.4339 11.7647 12.6095C 11.8405 12.7851 11.9442 12.9382 12.0757 13.0687C 12.2071 13.1992 12.3614 13.302 12.5384 13.3773C 12.7154 13.4526 12.905 13.4902 13.1073 13.4902Z"/>
<path id="path21_fill" fill-rule="evenodd" d="M 12 0.5C 12 0.776142 11.7761 1 11.5 1L 0.5 1C 0.223858 1 0 0.776142 0 0.5C 0 0.223858 0.223858 0 0.5 0L 11.5 0C 11.7761 0 12 0.223858 12 0.5Z"/>
<path id="path22_fill" d="M 0 1C 0 0.447715 0.447715 0 1 0L 11 0C 11.5523 0 12 0.447715 12 1L 12 11C 12 11.5523 11.5523 12 11 12L 1 12C 0.447715 12 0 11.5523 0 11L 0 1Z"/>
<path id="path23_stroke_2x" d="M 1 1L 11 1L 11 -1L 1 -1L 1 1ZM 11 1L 11 11L 13 11L 13 1L 11 1ZM 11 11L 1 11L 1 13L 11 13L 11 11ZM 1 11L 1 1L -1 1L -1 11L 1 11ZM 1 11L -1 11C -1 12.1046 -0.104569 13 1 13L 1 11ZM 11 11L 11 13C 12.1046 13 13 12.1046 13 11L 11 11ZM 11 1L 13 1C 13 -0.104569 12.1046 -1 11 -1L 11 1ZM 1 -1C -0.104569 -1 -1 -0.104569 -1 1L 1 1L 1 -1Z"/>
<path id="path24_fill" fill-rule="evenodd" d="M 16 0.5C 16 0.776142 15.7761 1 15.5 1L 0.5 1C 0.223858 1 0 0.776142 0 0.5C 0 0.223858 0.223858 0 0.5 0L 15.5 0C 15.7761 0 16 0.223858 16 0.5Z"/>
<path id="path25_stroke" d="M 0 0L 648 0L 648 -2L 0 -2L 0 0Z"/>
<path id="path26_stroke" d="M 0 0L 1150 0L 1150 -2L 0 -2L 0 0Z"/>
</defs>
</svg>
