<svg width="1920" height="1082" viewBox="0 0 1920 1082" version="1.1" xmlns="http://www.w3.org/2000/svg" xmlns:xlink="http://www.w3.org/1999/xlink">
<g id="Canvas" fill="none">
<g id="alignment">
<rect width="1920" height="1080" fill="#243A5E"/>
<g id="Window">
<g id="Rectangle" filter="url(#filter0_d)">
<rect width="1371.67" height="893.333" transform="translate(268.332 95)" fill="white"/>
<rect width="1371.67" height="893.333" transform="translate(268.332 95)" fill="white"/>
<rect width="1371.67" height="893.333" transform="translate(268.332 95)" fill="white"/>
<rect width="1371.67" height="893.333" transform="translate(268.332 95)" fill="white"/>
<rect width="1371.67" height="893.333" transform="translate(268.332 95)" fill="white"/>
</g>
<g id="Navigation">
<g id="Acrylic / Overlay">
<g id="Color overlay 80">
<path fill-rule="evenodd" clip-rule="evenodd" d="M 0 0L 80 0L 80 893.333L 0 893.333L 0 0Z" transform="translate(268.332 95)" fill="#D9D9D9"/>
</g>
<g id="Navigation / Pivot / Without title">
<g id="Navigation_2">
<g id="Pivot">
<g id="Pivot 3">
<path d="M 4.0498 20.916L 4.0498 28L 2.36133 28L 2.36133 9.79492L 7.05859 9.79492C 8.01497 9.79492 8.86133 9.91341 9.59766 10.1504C 10.334 10.3874 10.9561 10.7301 11.4639 11.1787C 11.9717 11.6273 12.3568 12.1774 12.6191 12.8291C 12.8815 13.4808 13.0127 14.2256 13.0127 15.0635C 13.0127 15.9098 12.8646 16.6927 12.5684 17.4121C 12.2721 18.123 11.8447 18.7409 11.2861 19.2656C 10.736 19.7819 10.0632 20.1882 9.26758 20.4844C 8.47201 20.7721 7.57064 20.916 6.56348 20.916L 4.0498 20.916ZM 4.0498 11.3438L 4.0498 19.3672L 6.46191 19.3672C 8.02767 19.3672 9.2168 19.0033 10.0293 18.2754C 10.8418 17.5475 11.248 16.5192 11.248 15.1904C 11.248 12.626 9.75 11.3438 6.75391 11.3438L 4.0498 11.3438ZM 17.2402 11.7119C 16.9271 11.7119 16.6562 11.6019 16.4277 11.3818C 16.1992 11.1618 16.085 10.8825 16.085 10.5439C 16.085 10.2139 16.1992 9.94303 16.4277 9.73145C 16.6562 9.51139 16.9271 9.40137 17.2402 9.40137C 17.401 9.40137 17.5534 9.43099 17.6973 9.49023C 17.8411 9.54102 17.9639 9.61719 18.0654 9.71875C 18.1755 9.82031 18.2601 9.94303 18.3193 10.0869C 18.387 10.2223 18.4209 10.3747 18.4209 10.5439C 18.4209 10.7048 18.3913 10.8571 18.332 11.001C 18.2728 11.1449 18.1882 11.2718 18.0781 11.3818C 17.9681 11.4834 17.8411 11.5638 17.6973 11.623C 17.5618 11.6823 17.4095 11.7119 17.2402 11.7119ZM 16.4404 28L 16.4404 15L 18.0654 15L 18.0654 28L 16.4404 28ZM 26.8887 28L 25.3398 28L 20.3633 15L 22.1533 15L 25.7461 24.9023C 25.9661 25.5033 26.1058 26.0322 26.165 26.4893L 26.2158 26.4893C 26.3174 25.8799 26.4486 25.3678 26.6094 24.9531L 30.3291 15L 32.0684 15L 26.8887 28ZM 39.5332 28.3047C 38.5684 28.3047 37.7008 28.1439 36.9307 27.8223C 36.1689 27.5007 35.5173 27.0479 34.9756 26.4639C 34.4339 25.8714 34.0192 25.1647 33.7314 24.3438C 33.4437 23.5228 33.2998 22.613 33.2998 21.6143C 33.2998 20.5309 33.4521 19.5618 33.7568 18.707C 34.0615 17.8522 34.4932 17.1286 35.0518 16.5361C 35.6188 15.9352 36.3001 15.4782 37.0957 15.165C 37.8913 14.8519 38.7799 14.6953 39.7617 14.6953C 40.7012 14.6953 41.5475 14.8519 42.3008 15.165C 43.054 15.4697 43.693 15.9141 44.2178 16.498C 44.7425 17.082 45.1445 17.793 45.4238 18.6309C 45.7031 19.4688 45.8428 20.4209 45.8428 21.4873C 45.8428 22.5029 45.6947 23.4297 45.3984 24.2676C 45.1107 25.097 44.696 25.8122 44.1543 26.4131C 43.6126 27.014 42.9525 27.4795 42.1738 27.8096C 41.3952 28.1396 40.515 28.3047 39.5332 28.3047ZM 39.6602 16.1045C 38.9492 16.1045 38.306 16.2272 37.7305 16.4727C 37.1549 16.7181 36.6598 17.0778 36.2451 17.5518C 35.8389 18.0173 35.5257 18.5928 35.3057 19.2783C 35.0856 19.9554 34.9756 20.7256 34.9756 21.5889C 34.9756 22.4014 35.0856 23.1335 35.3057 23.7852C 35.5257 24.4368 35.8346 24.9954 36.2324 25.4609C 36.6387 25.9264 37.1296 26.2861 37.7051 26.54C 38.2806 26.7855 38.9238 26.9082 39.6348 26.9082C 40.3626 26.9082 41.0059 26.7897 41.5645 26.5527C 42.123 26.3073 42.597 25.9561 42.9863 25.499C 43.3757 25.0335 43.6676 24.4665 43.8623 23.7979C 44.0654 23.1292 44.167 22.3675 44.167 21.5127C 44.167 19.7607 43.7777 18.4235 42.999 17.501C 42.2204 16.57 41.1074 16.1045 39.6602 16.1045ZM 54.7041 27.8477C 54.1455 28.127 53.5361 28.2666 52.876 28.2666C 50.777 28.2666 49.7275 27.0563 49.7275 24.6357L 49.7275 16.4219L 47.4424 16.4219L 47.4424 15L 49.7275 15L 49.7275 11.7246L 51.3525 11.1914L 51.3525 15L 54.7041 15L 54.7041 16.4219L 51.3525 16.4219L 51.3525 24.3818C 51.3525 25.262 51.4964 25.8968 51.7842 26.2861C 52.0719 26.6755 52.5586 26.8701 53.2441 26.8701C 53.752 26.8701 54.2386 26.7178 54.7041 26.4131L 54.7041 27.8477ZM 63.9971 25.5498C 65.3089 26.4554 66.6631 26.9082 68.0596 26.9082C 68.6351 26.9082 69.1895 26.8363 69.7227 26.6924C 70.2559 26.5485 70.7256 26.3242 71.1318 26.0195C 71.5465 25.7064 71.8766 25.3128 72.1221 24.8389C 72.3675 24.3564 72.4902 23.7809 72.4902 23.1123C 72.4902 21.8428 72.0417 20.8864 71.1445 20.2432C 70.2559 19.5999 68.944 19.2783 67.209 19.2783L 65.7617 19.2783L 65.7617 17.8691L 67.0947 17.8691C 68.6689 17.8691 69.8538 17.5602 70.6494 16.9424C 71.445 16.3161 71.8428 15.4062 71.8428 14.2129C 71.8428 13.138 71.5465 12.3213 70.9541 11.7627C 70.3701 11.1956 69.4899 10.9121 68.3135 10.9121C 67.0947 10.9121 65.8929 11.3268 64.708 12.1562L 64.708 10.5186C 65.9775 9.83301 67.2936 9.49023 68.6562 9.49023C 69.2995 9.49023 69.9173 9.5791 70.5098 9.75684C 71.1022 9.93457 71.6185 10.2054 72.0586 10.5693C 72.5072 10.9248 72.8626 11.3734 73.125 11.915C 73.3958 12.4482 73.5312 13.0745 73.5312 13.7939C 73.5312 16.223 72.3294 17.776 69.9258 18.4531L 69.9258 18.5039C 70.5182 18.5716 71.0726 18.7197 71.5889 18.9482C 72.1051 19.1683 72.5537 19.4688 72.9346 19.8496C 73.3154 20.222 73.6159 20.6706 73.8359 21.1953C 74.056 21.7116 74.166 22.2913 74.166 22.9346C 74.166 23.7979 74.0052 24.5638 73.6836 25.2324C 73.362 25.901 72.9219 26.4639 72.3633 26.9209C 71.8047 27.3779 71.1488 27.7249 70.3955 27.9619C 69.6507 28.1989 68.8551 28.3174 68.0088 28.3174C 66.4684 28.3174 65.1312 27.9915 63.9971 27.3398L 63.9971 25.5498Z" transform="translate(598.332 240)" fill="black" fill-opacity="0.6"/>
</g>
</g>
<g id="Pivot_2">
<g id="Pivot 2">
<path d="M 4.0498 20.916L 4.0498 28L 2.36133 28L 2.36133 9.79492L 7.05859 9.79492C 8.01497 9.79492 8.86133 9.91341 9.59766 10.1504C 10.334 10.3874 10.9561 10.7301 11.4639 11.1787C 11.9717 11.6273 12.3568 12.1774 12.6191 12.8291C 12.8815 13.4808 13.0127 14.2256 13.0127 15.0635C 13.0127 15.9098 12.8646 16.6927 12.5684 17.4121C 12.2721 18.123 11.8447 18.7409 11.2861 19.2656C 10.736 19.7819 10.0632 20.1882 9.26758 20.4844C 8.47201 20.7721 7.57064 20.916 6.56348 20.916L 4.0498 20.916ZM 4.0498 11.3438L 4.0498 19.3672L 6.46191 19.3672C 8.02767 19.3672 9.2168 19.0033 10.0293 18.2754C 10.8418 17.5475 11.248 16.5192 11.248 15.1904C 11.248 12.626 9.75 11.3438 6.75391 11.3438L 4.0498 11.3438ZM 17.2402 11.7119C 16.9271 11.7119 16.6562 11.6019 16.4277 11.3818C 16.1992 11.1618 16.085 10.8825 16.085 10.5439C 16.085 10.2139 16.1992 9.94303 16.4277 9.73145C 16.6562 9.51139 16.9271 9.40137 17.2402 9.40137C 17.401 9.40137 17.5534 9.43099 17.6973 9.49023C 17.8411 9.54102 17.9639 9.61719 18.0654 9.71875C 18.1755 9.82031 18.2601 9.94303 18.3193 10.0869C 18.387 10.2223 18.4209 10.3747 18.4209 10.5439C 18.4209 10.7048 18.3913 10.8571 18.332 11.001C 18.2728 11.1449 18.1882 11.2718 18.0781 11.3818C 17.9681 11.4834 17.8411 11.5638 17.6973 11.623C 17.5618 11.6823 17.4095 11.7119 17.2402 11.7119ZM 16.4404 28L 16.4404 15L 18.0654 15L 18.0654 28L 16.4404 28ZM 26.8887 28L 25.3398 28L 20.3633 15L 22.1533 15L 25.7461 24.9023C 25.9661 25.5033 26.1058 26.0322 26.165 26.4893L 26.2158 26.4893C 26.3174 25.8799 26.4486 25.3678 26.6094 24.9531L 30.3291 15L 32.0684 15L 26.8887 28ZM 39.5332 28.3047C 38.5684 28.3047 37.7008 28.1439 36.9307 27.8223C 36.1689 27.5007 35.5173 27.0479 34.9756 26.4639C 34.4339 25.8714 34.0192 25.1647 33.7314 24.3438C 33.4437 23.5228 33.2998 22.613 33.2998 21.6143C 33.2998 20.5309 33.4521 19.5618 33.7568 18.707C 34.0615 17.8522 34.4932 17.1286 35.0518 16.5361C 35.6188 15.9352 36.3001 15.4782 37.0957 15.165C 37.8913 14.8519 38.7799 14.6953 39.7617 14.6953C 40.7012 14.6953 41.5475 14.8519 42.3008 15.165C 43.054 15.4697 43.693 15.9141 44.2178 16.498C 44.7425 17.082 45.1445 17.793 45.4238 18.6309C 45.7031 19.4688 45.8428 20.4209 45.8428 21.4873C 45.8428 22.5029 45.6947 23.4297 45.3984 24.2676C 45.1107 25.097 44.696 25.8122 44.1543 26.4131C 43.6126 27.014 42.9525 27.4795 42.1738 27.8096C 41.3952 28.1396 40.515 28.3047 39.5332 28.3047ZM 39.6602 16.1045C 38.9492 16.1045 38.306 16.2272 37.7305 16.4727C 37.1549 16.7181 36.6598 17.0778 36.2451 17.5518C 35.8389 18.0173 35.5257 18.5928 35.3057 19.2783C 35.0856 19.9554 34.9756 20.7256 34.9756 21.5889C 34.9756 22.4014 35.0856 23.1335 35.3057 23.7852C 35.5257 24.4368 35.8346 24.9954 36.2324 25.4609C 36.6387 25.9264 37.1296 26.2861 37.7051 26.54C 38.2806 26.7855 38.9238 26.9082 39.6348 26.9082C 40.3626 26.9082 41.0059 26.7897 41.5645 26.5527C 42.123 26.3073 42.597 25.9561 42.9863 25.499C 43.3757 25.0335 43.6676 24.4665 43.8623 23.7979C 44.0654 23.1292 44.167 22.3675 44.167 21.5127C 44.167 19.7607 43.7777 18.4235 42.999 17.501C 42.2204 16.57 41.1074 16.1045 39.6602 16.1045ZM 54.7041 27.8477C 54.1455 28.127 53.5361 28.2666 52.876 28.2666C 50.777 28.2666 49.7275 27.0563 49.7275 24.6357L 49.7275 16.4219L 47.4424 16.4219L 47.4424 15L 49.7275 15L 49.7275 11.7246L 51.3525 11.1914L 51.3525 15L 54.7041 15L 54.7041 16.4219L 51.3525 16.4219L 51.3525 24.3818C 51.3525 25.262 51.4964 25.8968 51.7842 26.2861C 52.0719 26.6755 52.5586 26.8701 53.2441 26.8701C 53.752 26.8701 54.2386 26.7178 54.7041 26.4131L 54.7041 27.8477ZM 72.4775 14.4668C 72.4775 13.8913 72.3887 13.3835 72.2109 12.9434C 72.0417 12.4948 71.8005 12.1224 71.4873 11.8262C 71.1742 11.5215 70.7975 11.293 70.3574 11.1406C 69.9173 10.9883 69.4307 10.9121 68.8975 10.9121C 68.085 10.9121 67.3021 11.1068 66.5488 11.4961C 65.804 11.877 65.1016 12.389 64.4414 13.0322L 64.4414 11.2295C 65.0846 10.6794 65.7871 10.252 66.5488 9.94727C 67.3105 9.64258 68.1696 9.49023 69.126 9.49023C 69.2783 9.49023 69.4222 9.4987 69.5576 9.51562C 69.7015 9.53255 69.8411 9.55794 69.9766 9.5918C 70.6029 9.65951 71.1699 9.82031 71.6777 10.0742C 72.194 10.3197 72.6341 10.6413 72.998 11.0391C 73.362 11.4368 73.6413 11.9108 73.8359 12.4609C 74.0391 13.0026 74.1406 13.6077 74.1406 14.2764C 74.1406 15.055 74.0391 15.7533 73.8359 16.3711C 73.6328 16.9889 73.3408 17.5602 72.96 18.085C 72.5876 18.6012 72.1348 19.0921 71.6016 19.5576C 71.0768 20.0146 70.4886 20.4759 69.8369 20.9414C 69.109 21.4661 68.4827 21.9316 67.958 22.3379C 67.4417 22.7357 67.0101 23.1165 66.6631 23.4805C 66.3245 23.8444 66.0664 24.2083 65.8887 24.5723C 65.7109 24.9362 65.5967 25.3424 65.5459 25.791C 65.5036 25.9095 65.474 26.028 65.457 26.1465C 65.4486 26.265 65.4443 26.3962 65.4443 26.54L 74.5088 26.54L 74.5088 28L 63.7305 28L 63.7305 27.124C 63.7305 26.3115 63.8236 25.609 64.0098 25.0166C 64.2044 24.4157 64.5049 23.8571 64.9111 23.3408C 65.3174 22.8161 65.8379 22.2956 66.4727 21.7793C 67.1074 21.263 67.8691 20.6833 68.7578 20.04C 69.3587 19.5999 69.8919 19.1768 70.3574 18.7705C 70.8229 18.3558 71.2122 17.9326 71.5254 17.501C 71.8385 17.0609 72.0755 16.5954 72.2363 16.1045C 72.3971 15.6136 72.4775 15.0677 72.4775 14.4668Z" transform="translate(491.664 240)" fill="black" fill-opacity="0.6"/>
</g>
</g>
<g id="Pivot_3">
<g id="Pivot 1">
<path d="M 4.0498 20.916L 4.0498 28L 2.36133 28L 2.36133 9.79492L 7.05859 9.79492C 8.01497 9.79492 8.86133 9.91341 9.59766 10.1504C 10.334 10.3874 10.9561 10.7301 11.4639 11.1787C 11.9717 11.6273 12.3568 12.1774 12.6191 12.8291C 12.8815 13.4808 13.0127 14.2256 13.0127 15.0635C 13.0127 15.9098 12.8646 16.6927 12.5684 17.4121C 12.2721 18.123 11.8447 18.7409 11.2861 19.2656C 10.736 19.7819 10.0632 20.1882 9.26758 20.4844C 8.47201 20.7721 7.57064 20.916 6.56348 20.916L 4.0498 20.916ZM 4.0498 11.3438L 4.0498 19.3672L 6.46191 19.3672C 8.02767 19.3672 9.2168 19.0033 10.0293 18.2754C 10.8418 17.5475 11.248 16.5192 11.248 15.1904C 11.248 12.626 9.75 11.3438 6.75391 11.3438L 4.0498 11.3438ZM 17.2402 11.7119C 16.9271 11.7119 16.6562 11.6019 16.4277 11.3818C 16.1992 11.1618 16.085 10.8825 16.085 10.5439C 16.085 10.2139 16.1992 9.94303 16.4277 9.73145C 16.6562 9.51139 16.9271 9.40137 17.2402 9.40137C 17.401 9.40137 17.5534 9.43099 17.6973 9.49023C 17.8411 9.54102 17.9639 9.61719 18.0654 9.71875C 18.1755 9.82031 18.2601 9.94303 18.3193 10.0869C 18.387 10.2223 18.4209 10.3747 18.4209 10.5439C 18.4209 10.7048 18.3913 10.8571 18.332 11.001C 18.2728 11.1449 18.1882 11.2718 18.0781 11.3818C 17.9681 11.4834 17.8411 11.5638 17.6973 11.623C 17.5618 11.6823 17.4095 11.7119 17.2402 11.7119ZM 16.4404 28L 16.4404 15L 18.0654 15L 18.0654 28L 16.4404 28ZM 26.8887 28L 25.3398 28L 20.3633 15L 22.1533 15L 25.7461 24.9023C 25.9661 25.5033 26.1058 26.0322 26.165 26.4893L 26.2158 26.4893C 26.3174 25.8799 26.4486 25.3678 26.6094 24.9531L 30.3291 15L 32.0684 15L 26.8887 28ZM 39.5332 28.3047C 38.5684 28.3047 37.7008 28.1439 36.9307 27.8223C 36.1689 27.5007 35.5173 27.0479 34.9756 26.4639C 34.4339 25.8714 34.0192 25.1647 33.7314 24.3438C 33.4437 23.5228 33.2998 22.613 33.2998 21.6143C 33.2998 20.5309 33.4521 19.5618 33.7568 18.707C 34.0615 17.8522 34.4932 17.1286 35.0518 16.5361C 35.6188 15.9352 36.3001 15.4782 37.0957 15.165C 37.8913 14.8519 38.7799 14.6953 39.7617 14.6953C 40.7012 14.6953 41.5475 14.8519 42.3008 15.165C 43.054 15.4697 43.693 15.9141 44.2178 16.498C 44.7425 17.082 45.1445 17.793 45.4238 18.6309C 45.7031 19.4688 45.8428 20.4209 45.8428 21.4873C 45.8428 22.5029 45.6947 23.4297 45.3984 24.2676C 45.1107 25.097 44.696 25.8122 44.1543 26.4131C 43.6126 27.014 42.9525 27.4795 42.1738 27.8096C 41.3952 28.1396 40.515 28.3047 39.5332 28.3047ZM 39.6602 16.1045C 38.9492 16.1045 38.306 16.2272 37.7305 16.4727C 37.1549 16.7181 36.6598 17.0778 36.2451 17.5518C 35.8389 18.0173 35.5257 18.5928 35.3057 19.2783C 35.0856 19.9554 34.9756 20.7256 34.9756 21.5889C 34.9756 22.4014 35.0856 23.1335 35.3057 23.7852C 35.5257 24.4368 35.8346 24.9954 36.2324 25.4609C 36.6387 25.9264 37.1296 26.2861 37.7051 26.54C 38.2806 26.7855 38.9238 26.9082 39.6348 26.9082C 40.3626 26.9082 41.0059 26.7897 41.5645 26.5527C 42.123 26.3073 42.597 25.9561 42.9863 25.499C 43.3757 25.0335 43.6676 24.4665 43.8623 23.7979C 44.0654 23.1292 44.167 22.3675 44.167 21.5127C 44.167 19.7607 43.7777 18.4235 42.999 17.501C 42.2204 16.57 41.1074 16.1045 39.6602 16.1045ZM 54.7041 27.8477C 54.1455 28.127 53.5361 28.2666 52.876 28.2666C 50.777 28.2666 49.7275 27.0563 49.7275 24.6357L 49.7275 16.4219L 47.4424 16.4219L 47.4424 15L 49.7275 15L 49.7275 11.7246L 51.3525 11.1914L 51.3525 15L 54.7041 15L 54.7041 16.4219L 51.3525 16.4219L 51.3525 24.3818C 51.3525 25.262 51.4964 25.8968 51.7842 26.2861C 52.0719 26.6755 52.5586 26.8701 53.2441 26.8701C 53.752 26.8701 54.2386 26.7178 54.7041 26.4131L 54.7041 27.8477ZM 67.8438 28L 67.8438 11.7246C 67.5475 11.9785 67.2132 12.224 66.8408 12.4609C 66.4769 12.6979 66.1003 12.9222 65.7109 13.1338C 65.3301 13.3369 64.945 13.5231 64.5557 13.6924C 64.1748 13.8532 63.8193 13.9886 63.4893 14.0986L 63.4893 12.6641C 64.488 12.3424 65.4401 11.9023 66.3457 11.3438C 67.2598 10.7767 68.1442 10.125 68.999 9.38867L 69.4688 9.38867L 69.4688 28L 67.8438 28Z" transform="translate(384.998 240)" fill="black"/>
</g>
<g id="Pivot 1_2">
<path d="M 13.2324 22L 10.6836 22L 9.42383 18.4355L 3.91602 18.4355L 2.70508 22L 0.166016 22L 5.41016 7.99609L 8.02734 7.99609L 13.2324 22ZM 8.80859 16.541L 6.86523 10.9551C 6.80664 10.7728 6.74479 10.4798 6.67969 10.0762L 6.64062 10.0762C 6.58203 10.4473 6.51693 10.7402 6.44531 10.9551L 4.52148 16.541L 8.80859 16.541Z" transform="translate(388.332 300)" fill="#0075D0"/>
</g>
</g>
</g>
</g>
</g>
<g id="Items">
<g id="Bottom">
<g id="Item">
<g id="Icon">
<path fill-rule="evenodd" clip-rule="evenodd" d="M 15.651 15.6641C 16.8316 16.072 17.8971 16.6428 18.8477 17.3763C 19.7982 18.1098 20.6055 18.9583 21.2695 19.9219C 21.9336 20.8854 22.4436 21.9401 22.7995 23.0859C 23.1554 24.2318 23.3333 25.4253 23.3333 26.6667L 21.6667 26.6667C 21.6667 25.243 21.4128 23.9214 20.9049 22.7018C 20.3971 21.4822 19.6962 20.4253 18.8021 19.5312C 17.908 18.6371 16.8511 17.9362 15.6315 17.4284C 14.4119 16.9206 13.0903 16.6667 11.6667 16.6667C 10.7378 16.6667 9.84375 16.7838 8.98437 17.0182C 8.125 17.2526 7.32422 17.5846 6.58203 18.0143C 5.83984 18.444 5.1671 18.9605 4.5638 19.5638C 3.9605 20.1671 3.44401 20.8398 3.01432 21.582C 2.58463 22.3242 2.25261 23.125 2.01823 23.9844C 1.78385 24.8437 1.66667 25.7378 1.66667 26.6667L 0 26.6667C 0 25.4167 0.18229 24.2209 0.546875 23.0794C 0.91146 21.9379 1.42795 20.8898 2.09635 19.9349C 2.76476 18.98 3.57421 18.138 4.52474 17.4088C 5.47527 16.6797 6.53645 16.1024 7.70833 15.6771C 7.03125 15.3125 6.42361 14.8698 5.88542 14.349C 5.34722 13.8281 4.88932 13.2487 4.51172 12.6107C 4.13411 11.9727 3.84332 11.2912 3.63932 10.5664C 3.43533 9.84157 3.33333 9.09722 3.33333 8.33333C 3.33333 7.17881 3.55034 6.09592 3.98437 5.08463C 4.4184 4.07334 5.01302 3.19011 5.76823 2.4349C 6.52344 1.67968 7.40668 1.08507 8.41797 0.651042C 9.42926 0.217012 10.5121 0 11.6667 0C 12.8212 0 13.9041 0.217012 14.9154 0.651042C 15.9267 1.08507 16.8099 1.67968 17.5651 2.4349C 18.3203 3.19011 18.9149 4.07334 19.349 5.08463C 19.783 6.09592 20 7.17881 20 8.33333C 20 9.09722 19.898 9.8394 19.694 10.5599C 19.49 11.2804 19.1992 11.9575 18.8216 12.5911C 18.444 13.2248 17.9883 13.8042 17.4544 14.3294C 16.9206 14.8546 16.3194 15.2995 15.651 15.6641ZM 5 8.33268C 5 9.25282 5.17578 10.1165 5.52734 10.9238C 5.87891 11.7311 6.35633 12.4364 6.95964 13.0397C 7.56294 13.643 8.26823 14.1204 9.07552 14.472C 9.88282 14.8236 10.7465 14.9993 11.6667 14.9993C 12.5868 14.9993 13.4505 14.8236 14.2578 14.472C 15.0651 14.1204 15.7704 13.643 16.3737 13.0397C 16.977 12.4364 17.4544 11.7311 17.806 10.9238C 18.1576 10.1165 18.3333 9.25282 18.3333 8.33268C 18.3333 7.41254 18.1576 6.54883 17.806 5.74154C 17.4544 4.93424 16.977 4.22895 16.3737 3.62565C 15.7704 3.02235 15.0651 2.54492 14.2578 2.19336C 13.4505 1.8418 12.5868 1.66602 11.6667 1.66602C 10.7465 1.66602 9.88282 1.8418 9.07552 2.19336C 8.26823 2.54492 7.56294 3.02235 6.95964 3.62565C 6.35633 4.22895 5.87891 4.93424 5.52734 5.74154C 5.17578 6.54883 5 7.41254 5 8.33268Z" transform="translate(296.666 870.002)" fill="black"/>
</g>
</g>
<g id="Item_2">
<g id="Icon_2">
<path fill-rule="evenodd" clip-rule="evenodd" d="M 23.138 12.7865C 23.138 12.8646 23.1402 12.9427 23.1445 13.0208C 23.1489 13.099 23.151 13.1771 23.151 13.2552C 23.151 13.3333 23.1489 13.4115 23.1445 13.4896C 23.1402 13.5677 23.138 13.6458 23.138 13.724L 26.5104 15.8203L 24.4401 20.8073L 20.5729 19.9219C 20.3646 20.1476 20.1476 20.3646 19.9219 20.5729L 20.8073 24.4401L 15.8203 26.5104L 13.724 23.138C 13.6458 23.138 13.5677 23.1402 13.4896 23.1445C 13.4115 23.1489 13.3333 23.151 13.2552 23.151C 13.1771 23.151 13.099 23.1489 13.0208 23.1445C 12.9427 23.1402 12.8646 23.138 12.7865 23.138L 10.6901 26.5104L 5.70312 24.4401L 6.58854 20.5729C 6.36285 20.3646 6.14583 20.1476 5.9375 19.9219L 2.07031 20.8073L 0 15.8203L 3.3724 13.724C 3.3724 13.6458 3.37023 13.5677 3.36589 13.4896C 3.36154 13.4115 3.35937 13.3333 3.35937 13.2552C 3.35937 13.1771 3.36154 13.099 3.36589 13.0208C 3.37023 12.9427 3.3724 12.8646 3.3724 12.7865L 0 10.6901L 2.07031 5.70313L 5.9375 6.58854C 6.14583 6.36285 6.36285 6.14583 6.58854 5.9375L 5.70312 2.07031L 10.6901 0L 12.7865 3.3724C 12.8646 3.3724 12.9427 3.37023 13.0208 3.36589C 13.099 3.36155 13.1771 3.35938 13.2552 3.35938C 13.3333 3.35938 13.4115 3.36155 13.4896 3.36589C 13.5677 3.37023 13.6458 3.3724 13.724 3.3724L 15.8203 0L 20.8073 2.07031L 19.9219 5.9375C 20.1476 6.14583 20.3646 6.36285 20.5729 6.58854L 24.4401 5.70313L 26.5104 10.6901L 23.138 12.7865ZM 21.6139 14.4785C 21.6313 14.2702 21.6487 14.064 21.666 13.86C 21.6834 13.656 21.6921 13.4499 21.6921 13.2415C 21.6921 13.0419 21.6834 12.8379 21.666 12.6296C 21.6487 12.4212 21.6313 12.2172 21.6139 12.0176L 24.6868 10.1035L 23.5671 7.39518L 20.0384 8.2155C 19.7693 7.88563 19.4937 7.58182 19.2116 7.30404C 18.9295 7.02626 18.6235 6.74848 18.2936 6.4707L 19.1139 2.94206L 16.4056 1.82227L 14.4785 4.89518C 14.2789 4.87782 14.0749 4.86046 13.8665 4.8431C 13.6582 4.82574 13.4542 4.81706 13.2546 4.81706C 13.0462 4.81706 12.8401 4.82574 12.6361 4.8431C 12.4321 4.86046 12.2259 4.87782 12.0176 4.89518L 10.1035 1.82227L 7.39518 2.94206L 8.21549 6.4707C 7.88563 6.7398 7.58182 7.01541 7.30404 7.29753C 7.02626 7.57965 6.74848 7.88563 6.4707 8.2155L 2.94206 7.39518L 1.82227 10.1035L 4.89518 12.0306C 4.87782 12.2389 4.86046 12.4451 4.8431 12.6491C 4.82574 12.8531 4.81706 13.0592 4.81706 13.2676C 4.81706 13.4672 4.82574 13.6712 4.8431 13.8796C 4.86046 14.0879 4.87782 14.2919 4.89518 14.4915L 1.82227 16.4056L 2.94206 19.1139L 6.4707 18.2936C 6.7398 18.6235 7.01541 18.9273 7.29753 19.2051C 7.57965 19.4829 7.88563 19.7606 8.21549 20.0384L 7.39518 23.5671L 10.1035 24.6869L 12.0306 21.6139C 12.2303 21.6313 12.4342 21.6487 12.6426 21.666C 12.8509 21.6834 13.0549 21.6921 13.2546 21.6921C 13.4629 21.6921 13.6691 21.6834 13.873 21.666C 14.077 21.6487 14.2832 21.6313 14.4915 21.6139L 16.4056 24.6869L 19.1139 23.5671L 18.2936 20.0384C 18.6235 19.7693 18.9273 19.4937 19.2051 19.2116C 19.4829 18.9295 19.7606 18.6235 20.0384 18.2936L 23.5671 19.1139L 24.6868 16.4056L 21.6139 14.4785ZM 13.2552 8.35938C 13.9323 8.35938 14.5681 8.48741 15.1628 8.74349C 15.7574 8.99957 16.276 9.34896 16.7188 9.79167C 17.1615 10.2344 17.5109 10.753 17.7669 11.3477C 18.023 11.9423 18.151 12.5781 18.151 13.2552C 18.151 13.9323 18.023 14.5681 17.7669 15.1628C 17.5109 15.7574 17.1615 16.276 16.7188 16.7187C 16.276 17.1615 15.7574 17.5108 15.1628 17.7669C 14.5681 18.023 13.9323 18.151 13.2552 18.151C 12.5781 18.151 11.9423 18.023 11.3477 17.7669C 10.753 17.5108 10.2344 17.1615 9.79167 16.7187C 9.34896 16.276 8.99957 15.7574 8.74349 15.1628C 8.48741 14.5681 8.35938 13.9323 8.35938 13.2552C 8.35938 12.5781 8.48741 11.9423 8.74349 11.3477C 8.99957 10.753 9.34896 10.2344 9.79167 9.79167C 10.2344 9.34896 10.753 8.99957 11.3477 8.74349C 11.9423 8.48741 12.5781 8.35938 13.2552 8.35938ZM 13.2559 16.6933C 13.7333 16.6933 14.1803 16.6044 14.597 16.4264C 15.0137 16.2485 15.3782 16.0032 15.6907 15.6907C 16.0033 15.3782 16.2485 15.0137 16.4264 14.597C 16.6044 14.1803 16.6934 13.7333 16.6934 13.2559C 16.6934 12.7784 16.6044 12.3314 16.4264 11.9147C 16.2485 11.498 16.0033 11.1335 15.6907 10.821C 15.3782 10.5085 15.0137 10.2632 14.597 10.0853C 14.1803 9.90733 13.7333 9.81836 13.2559 9.81836C 12.7784 9.81836 12.3314 9.90733 11.9147 10.0853C 11.498 10.2632 11.1335 10.5085 10.821 10.821C 10.5085 11.1335 10.2632 11.498 10.0853 11.9147C 9.90733 12.3314 9.81836 12.7784 9.81836 13.2559C 9.81836 13.7333 9.90733 14.1803 10.0853 14.597C 10.2632 15.0137 10.5085 15.3782 10.821 15.6907C 11.1335 16.0032 11.498 16.2485 11.9147 16.4264C 12.3314 16.6044 12.7784 16.6933 13.2559 16.6933Z" transform="translate(295.076 936.746)" fill="black"/>
</g>
</g>
</g>
<g id="Top">
<g id="Item_3">
<g id="Icon_3">
<path fill-rule="evenodd" clip-rule="evenodd" d="M 25 17.5L 12.5 21.6667L 0 17.5L 12.5 0L 25 17.5ZM 13.334 19.6361L 22.3314 16.6282L 13.334 4.03711L 13.334 19.6361ZM 2.66992 16.6282L 11.6673 19.6361L 11.6673 4.03711L 2.66992 16.6282Z" transform="translate(296.664 537.502)" fill="black"/>
</g>
</g>
<g id="Item_4">
<g id="Icon_4">
<path fill-rule="evenodd" clip-rule="evenodd" d="M 25 17.5L 12.5 21.6667L 0 17.5L 12.5 0L 25 17.5ZM 13.334 19.6361L 22.3314 16.6283L 13.334 4.03711L 13.334 19.6361ZM 2.66992 16.6283L 11.6673 19.6361L 11.6673 4.03711L 2.66992 16.6283Z" transform="translate(296.664 470.834)" fill="black"/>
</g>
</g>
<g id="Item_5">
<g id="Icon_5">
<path fill-rule="evenodd" clip-rule="evenodd" d="M 21.6667 5.42969L 21.6667 18.9453L 10.8333 24.375L 0 18.9453L 0 5.42969L 10.8333 0L 21.6667 5.42969ZM 10.8333 1.875L 2.69531 5.9375L 10.8333 10L 18.9714 5.9375L 10.8333 1.875ZM 1.66602 17.9173L 9.99935 22.097L 9.99935 11.459L 1.66602 7.2793L 1.66602 17.9173ZM 19.9993 17.9173L 19.9993 7.2793L 11.666 11.459L 11.666 22.097L 19.9993 17.9173Z" transform="translate(298.332 403.646)" fill="black"/>
</g>
</g>
<g id="Item_6">
<g id="Icon_6">
<path fill-rule="evenodd" clip-rule="evenodd" d="M 21.6667 5.42969L 21.6667 18.9453L 10.8333 24.375L 0 18.9453L 0 5.42969L 10.8333 0L 21.6667 5.42969ZM 10.8333 1.875L 2.69531 5.9375L 10.8333 10L 18.9714 5.9375L 10.8333 1.875ZM 1.66602 17.9173L 9.99935 22.097L 9.99935 11.459L 1.66602 7.2793L 1.66602 17.9173ZM 19.9993 17.9173L 19.9993 7.2793L 11.666 11.459L 11.666 22.097L 19.9993 17.9173Z" transform="translate(298.332 336.98)" fill="black"/>
</g>
</g>
<g id="Item_7">
<g id="Icon_7">
<path fill-rule="evenodd" clip-rule="evenodd" d="M 26.6667 11.6667L 21.5625 14.2188L 26.6667 16.7708L 13.3333 23.4375L 0 16.7708L 5.10417 14.2188L 0 11.6667L 5 9.16667L 0 6.66667L 13.3333 0L 26.6667 6.66667L 21.6667 9.16667L 26.6667 11.6667ZM 3.72461 6.66602C 5.3392 7.47331 6.94292 8.27192 8.53581 9.06185C 10.1287 9.85178 11.7281 10.6547 13.334 11.4707C 14.9399 10.6547 16.5393 9.85178 18.1322 9.06185C 19.7251 8.27192 21.3288 7.47331 22.9434 6.66602L 13.334 1.86133L 3.72461 6.66602ZM 19.7012 15.1426L 13.334 18.3327L 6.9668 15.1426L 3.72461 16.7702L 13.334 21.5749L 22.9434 16.7702L 19.7012 15.1426ZM 13.334 16.472C 14.9486 15.6647 16.5501 14.8618 18.1387 14.0631C 19.7272 13.2645 21.3288 12.4659 22.9434 11.6673L 19.8053 10.0918C 18.7203 10.6387 17.6417 11.179 16.5697 11.7129C 15.4976 12.2467 14.4191 12.7871 13.334 13.334C 12.2489 12.7871 11.1704 12.2467 10.0983 11.7129C 9.02625 11.179 7.94771 10.6387 6.86263 10.0918L 3.72461 11.6673C 5.3392 12.4659 6.94075 13.2645 8.5293 14.0631C 10.1178 14.8618 11.7194 15.6647 13.334 16.472Z" transform="translate(296.664 270.834)" fill="black"/>
</g>
</g>
<g id="Item_8">
<g id="Icon_8">
<path fill-rule="evenodd" clip-rule="evenodd" d="M 25 17.5L 12.5 21.6667L 0 17.5L 12.5 0L 25 17.5ZM 13.334 19.6361L 22.3314 16.6283L 13.334 4.03711L 13.334 19.6361ZM 2.66992 16.6283L 11.6673 19.6361L 11.6673 4.03711L 2.66992 16.6283Z" transform="translate(296.664 204.168)" fill="black"/>
</g>
</g>
</g>
<g id="Selection indicator">
<path fill-rule="evenodd" clip-rule="evenodd" d="M 0 0L 10 0L 10 40L 0 40L 0 0Z" transform="translate(268.332 395.002)" fill="#0078D7"/>
</g>
</g>
<g id="Navigation - Hamburger">
<g id="Hamburger">
<path fill-rule="evenodd" clip-rule="evenodd" d="M 26.6667 1.66667L 0 1.66667L 0 0L 26.6667 0L 26.6667 1.66667ZM 26.6667 18.3327L 0 18.3327L 0 16.666L 26.6667 16.666L 26.6667 18.3327ZM 26.6667 9.98763L 0 9.98763L 0 8.33398L 26.6667 8.33398L 26.6667 9.98763Z" transform="translate(296.664 121.668)" fill="#171717"/>
</g>
</g>
</g>
<g id="Rectangle_2">
<rect width="1211.67" height="451.667" transform="translate(388.332 335)" fill="#F4F4F4"/>
</g>
<g id="Pivot 1_3">
<path d="M 1.72852 22L 1.72852 7.99609L 6.17188 7.99609C 7.52604 7.99609 8.59701 8.29232 9.38477 8.88477C 10.179 9.47721 10.5762 10.2487 10.5762 11.1992C 10.5762 11.9935 10.3516 12.6836 9.90234 13.2695C 9.45312 13.8555 8.83138 14.2721 8.03711 14.5195L 8.03711 14.5586C 9.00065 14.6693 9.76888 15.0273 10.3418 15.6328C 10.9212 16.2318 11.2109 17.013 11.2109 17.9766C 11.2109 19.1745 10.7389 20.1445 9.79492 20.8867C 8.85091 21.6289 7.65951 22 6.2207 22L 1.72852 22ZM 4.04297 9.86133L 4.04297 13.8457L 5.54688 13.8457C 6.35417 13.8457 6.98568 13.6569 7.44141 13.2793C 7.90365 12.8952 8.13477 12.3548 8.13477 11.6582C 8.13477 10.4603 7.33398 9.86133 5.73242 9.86133L 4.04297 9.86133ZM 4.04297 15.7109L 4.04297 20.1445L 6.02539 20.1445C 6.89128 20.1445 7.55859 19.946 8.02734 19.5488C 8.5026 19.1452 8.74023 18.5918 8.74023 17.8887C 8.74023 16.4368 7.73438 15.7109 5.72266 15.7109L 4.04297 15.7109Z" transform="translate(387.332 820)" fill="#0075D0"/>
</g>
<g id="Rectangle_3">
<rect width="1211.67" height="135" transform="translate(388.332 853.334)" fill="#F4F4F4"/>
</g>
<g id="Page title">
<path d="M 6.23047 32.1016L 6.23047 43L 3.63281 43L 3.63281 14.9922L 10.8594 14.9922C 12.3307 14.9922 13.6328 15.1745 14.7656 15.5391C 15.8984 15.9036 16.8555 16.431 17.6367 17.1211C 18.418 17.8112 19.0104 18.6576 19.4141 19.6602C 19.8177 20.6628 20.0195 21.8086 20.0195 23.0977C 20.0195 24.3997 19.7917 25.6042 19.3359 26.7109C 18.8802 27.8047 18.2227 28.7552 17.3633 29.5625C 16.5169 30.3568 15.4818 30.9818 14.2578 31.4375C 13.0339 31.8802 11.6471 32.1016 10.0977 32.1016L 6.23047 32.1016ZM 6.23047 17.375L 6.23047 29.7188L 9.94141 29.7188C 12.3503 29.7188 14.1797 29.1589 15.4297 28.0391C 16.6797 26.9193 17.3047 25.3372 17.3047 23.293C 17.3047 19.3477 15 17.375 10.3906 17.375L 6.23047 17.375ZM 35.5273 43L 35.5273 39.4453L 35.4492 39.4453C 34.7982 40.7214 33.9062 41.7109 32.7734 42.4141C 31.6536 43.1172 30.3841 43.4688 28.9648 43.4688C 28.0013 43.4688 27.1289 43.332 26.3477 43.0586C 25.5794 42.7852 24.9219 42.401 24.375 41.9062C 23.8411 41.3984 23.4245 40.793 23.125 40.0898C 22.8385 39.3867 22.6953 38.612 22.6953 37.7656C 22.6953 35.9557 23.2552 34.5169 24.375 33.4492C 25.4948 32.3685 27.1875 31.6654 29.4531 31.3398L 35.5273 30.4609C 35.5273 26.6198 34.0365 24.6992 31.0547 24.6992C 28.724 24.6992 26.5625 25.5521 24.5703 27.2578L 24.5703 24.5234C 24.987 24.224 25.4557 23.957 25.9766 23.7227C 26.5104 23.4753 27.0703 23.2669 27.6562 23.0977C 28.2422 22.9154 28.8411 22.7786 29.4531 22.6875C 30.0781 22.5833 30.6836 22.5312 31.2695 22.5312C 33.4961 22.5312 35.1758 23.1562 36.3086 24.4062C 37.4544 25.6562 38.0273 27.5182 38.0273 29.9922L 38.0273 43L 35.5273 43ZM 30.3711 33.293C 29.4727 33.4232 28.7044 33.5859 28.0664 33.7812C 27.4284 33.9766 26.901 34.2435 26.4844 34.582C 26.0677 34.9076 25.7617 35.3177 25.5664 35.8125C 25.3711 36.2943 25.2734 36.8932 25.2734 37.6094C 25.2734 38.1432 25.3646 38.638 25.5469 39.0938C 25.7422 39.5495 26.0156 39.9466 26.3672 40.2852C 26.7318 40.6107 27.168 40.8646 27.6758 41.0469C 28.1966 41.2292 28.7826 41.3203 29.4336 41.3203C 30.319 41.3203 31.1328 41.151 31.875 40.8125C 32.6172 40.474 33.2552 40.0052 33.7891 39.4062C 34.3359 38.8073 34.7591 38.0911 35.0586 37.2578C 35.3711 36.4245 35.5273 35.5195 35.5273 34.543L 35.5273 32.5703L 30.3711 33.293ZM 60.5664 41.457C 60.5664 45.168 59.7201 47.9154 58.0273 49.6992C 56.3477 51.4961 53.75 52.3945 50.2344 52.3945C 48.0469 52.3945 45.9766 51.9062 44.0234 50.9297L 44.0234 48.3906C 46.1979 49.6016 48.2682 50.207 50.2344 50.207C 55.4557 50.207 58.0664 47.4466 58.0664 41.9258L 58.0664 39.5234L 57.9883 39.5234C 56.4518 42.1536 54.1081 43.4688 50.957 43.4688C 49.7201 43.4688 48.5872 43.2409 47.5586 42.7852C 46.543 42.3294 45.6706 41.6719 44.9414 40.8125C 44.2122 39.9531 43.6458 38.9115 43.2422 37.6875C 42.8385 36.4505 42.6367 35.0573 42.6367 33.5078C 42.6367 31.8672 42.8516 30.3763 43.2812 29.0352C 43.7109 27.681 44.3229 26.5221 45.1172 25.5586C 45.9115 24.5951 46.8685 23.8529 47.9883 23.332C 49.1211 22.7982 50.3906 22.5312 51.7969 22.5312C 54.6224 22.5312 56.6862 23.6771 57.9883 25.9688L 58.0664 25.9688L 58.0664 23L 60.5664 23L 60.5664 41.457ZM 58.0664 30.8516C 58.0664 30.0182 57.9167 29.2305 57.6172 28.4883C 57.3177 27.7461 56.901 27.0951 56.3672 26.5352C 55.8333 25.9753 55.1953 25.5326 54.4531 25.207C 53.724 24.8685 52.9167 24.6992 52.0312 24.6992C 50.9896 24.6992 50.0456 24.901 49.1992 25.3047C 48.3659 25.7083 47.6497 26.2812 47.0508 27.0234C 46.4648 27.7656 46.0091 28.6706 45.6836 29.7383C 45.3711 30.793 45.2148 31.9844 45.2148 33.3125C 45.2148 34.5365 45.3646 35.6432 45.6641 36.6328C 45.9635 37.6224 46.3867 38.4622 46.9336 39.1523C 47.4805 39.8424 48.138 40.3763 48.9062 40.7539C 49.6875 41.1315 50.5534 41.3203 51.5039 41.3203C 52.4935 41.3203 53.3919 41.1445 54.1992 40.793C 55.0065 40.4284 55.6966 39.9336 56.2695 39.3086C 56.8424 38.6706 57.2852 37.9284 57.5977 37.082C 57.9102 36.2227 58.0664 35.2982 58.0664 34.3086L 58.0664 30.8516ZM 68.2031 33.4492C 68.2161 34.6732 68.3789 35.7734 68.6914 36.75C 69.0039 37.7266 69.4531 38.5534 70.0391 39.2305C 70.625 39.9076 71.3346 40.4284 72.168 40.793C 73.0143 41.1445 73.9648 41.3203 75.0195 41.3203C 77.2721 41.3203 79.401 40.5326 81.4062 38.957L 81.4062 41.418C 79.4922 42.7852 77.1745 43.4688 74.4531 43.4688C 73.112 43.4688 71.8945 43.2344 70.8008 42.7656C 69.707 42.2969 68.776 41.6198 68.0078 40.7344C 67.2396 39.8359 66.6471 38.7357 66.2305 37.4336C 65.8138 36.1315 65.6055 34.6471 65.6055 32.9805C 65.6055 31.4831 65.8333 30.0964 66.2891 28.8203C 66.7448 27.5443 67.3763 26.444 68.1836 25.5195C 68.9909 24.582 69.9479 23.8529 71.0547 23.332C 72.1615 22.7982 73.3724 22.5312 74.6875 22.5312C 75.9766 22.5312 77.1159 22.7591 78.1055 23.2148C 79.0951 23.6576 79.9219 24.2956 80.5859 25.1289C 81.263 25.9622 81.7773 26.9779 82.1289 28.1758C 82.4805 29.3737 82.6562 30.7148 82.6562 32.1992L 82.6562 33.4492L 68.2031 33.4492ZM 80.0781 31.2617C 80.0391 29.1784 79.5443 27.5638 78.5938 26.418C 77.6432 25.2721 76.3216 24.6992 74.6289 24.6992C 73.7826 24.6992 72.9948 24.849 72.2656 25.1484C 71.5495 25.4479 70.918 25.8841 70.3711 26.457C 69.8242 27.0169 69.3685 27.707 69.0039 28.5273C 68.6523 29.3346 68.4049 30.2461 68.2617 31.2617L 80.0781 31.2617ZM 107.129 42.7656C 106.27 43.1953 105.332 43.4102 104.316 43.4102C 101.087 43.4102 99.4727 41.5482 99.4727 37.8242L 99.4727 25.1875L 95.957 25.1875L 95.957 23L 99.4727 23L 99.4727 17.9609L 101.973 17.1406L 101.973 23L 107.129 23L 107.129 25.1875L 101.973 25.1875L 101.973 37.4336C 101.973 38.7878 102.194 39.7643 102.637 40.3633C 103.079 40.9622 103.828 41.2617 104.883 41.2617C 105.664 41.2617 106.413 41.0273 107.129 40.5586L 107.129 42.7656ZM 112.5 17.9414C 112.018 17.9414 111.602 17.7721 111.25 17.4336C 110.898 17.0951 110.723 16.6654 110.723 16.1445C 110.723 15.6367 110.898 15.2201 111.25 14.8945C 111.602 14.556 112.018 14.3867 112.5 14.3867C 112.747 14.3867 112.982 14.4323 113.203 14.5234C 113.424 14.6016 113.613 14.7188 113.77 14.875C 113.939 15.0312 114.069 15.2201 114.16 15.4414C 114.264 15.6497 114.316 15.8841 114.316 16.1445C 114.316 16.3919 114.271 16.6263 114.18 16.8477C 114.089 17.069 113.958 17.2643 113.789 17.4336C 113.62 17.5898 113.424 17.7135 113.203 17.8047C 112.995 17.8958 112.76 17.9414 112.5 17.9414ZM 111.27 43L 111.27 23L 113.77 23L 113.77 43L 111.27 43ZM 128.809 42.7656C 127.949 43.1953 127.012 43.4102 125.996 43.4102C 122.767 43.4102 121.152 41.5482 121.152 37.8242L 121.152 25.1875L 117.637 25.1875L 117.637 23L 121.152 23L 121.152 17.9609L 123.652 17.1406L 123.652 23L 128.809 23L 128.809 25.1875L 123.652 25.1875L 123.652 37.4336C 123.652 38.7878 123.874 39.7643 124.316 40.3633C 124.759 40.9622 125.508 41.2617 126.562 41.2617C 127.344 41.2617 128.092 41.0273 128.809 40.5586L 128.809 42.7656ZM 132.949 43L 132.949 13.3906L 135.449 13.3906L 135.449 43L 132.949 43ZM 143.086 33.4492C 143.099 34.6732 143.262 35.7734 143.574 36.75C 143.887 37.7266 144.336 38.5534 144.922 39.2305C 145.508 39.9076 146.217 40.4284 147.051 40.793C 147.897 41.1445 148.848 41.3203 149.902 41.3203C 152.155 41.3203 154.284 40.5326 156.289 38.957L 156.289 41.418C 154.375 42.7852 152.057 43.4688 149.336 43.4688C 147.995 43.4688 146.777 43.2344 145.684 42.7656C 144.59 42.2969 143.659 41.6198 142.891 40.7344C 142.122 39.8359 141.53 38.7357 141.113 37.4336C 140.697 36.1315 140.488 34.6471 140.488 32.9805C 140.488 31.4831 140.716 30.0964 141.172 28.8203C 141.628 27.5443 142.259 26.444 143.066 25.5195C 143.874 24.582 144.831 23.8529 145.938 23.332C 147.044 22.7982 148.255 22.5312 149.57 22.5312C 150.859 22.5312 151.999 22.7591 152.988 23.2148C 153.978 23.6576 154.805 24.2956 155.469 25.1289C 156.146 25.9622 156.66 26.9779 157.012 28.1758C 157.363 29.3737 157.539 30.7148 157.539 32.1992L 157.539 33.4492L 143.086 33.4492ZM 154.961 31.2617C 154.922 29.1784 154.427 27.5638 153.477 26.418C 152.526 25.2721 151.204 24.6992 149.512 24.6992C 148.665 24.6992 147.878 24.849 147.148 25.1484C 146.432 25.4479 145.801 25.8841 145.254 26.457C 144.707 27.0169 144.251 27.707 143.887 28.5273C 143.535 29.3346 143.288 30.2461 143.145 31.2617L 154.961 31.2617Z" transform="translate(385 161.666)" fill="black"/>
</g>
<g id="Navigation_3">
<g id="Item_9">
<g id="Icon_9">
<path fill-rule="evenodd" clip-rule="evenodd" d="M 2.08331 0C 2.37628 0 2.64754 0.054253 2.89711 0.16276C 3.14667 0.271268 3.36639 0.420464 3.55628 0.610352C 3.74617 0.80024 3.89536 1.01996 4.00387 1.26953C 4.11237 1.5191 4.16663 1.79036 4.16663 2.08333C 4.16663 2.3763 4.11237 2.64757 4.00387 2.89714C 3.89536 3.1467 3.74617 3.36643 3.55628 3.55632C 3.36639 3.74621 3.14667 3.8954 2.89711 4.00391C 2.64754 4.11242 2.37628 4.16667 2.08331 4.16667C 1.79035 4.16667 1.51908 4.11242 1.26952 4.00391C 1.01995 3.8954 0.800232 3.74621 0.610346 3.55632C 0.420459 3.36643 0.271265 3.1467 0.162759 2.89714C 0.0542524 2.64757 0 2.3763 0 2.08333C 0 1.79036 0.0542524 1.5191 0.162759 1.26953C 0.271265 1.01996 0.420459 0.80024 0.610346 0.610352C 0.800232 0.420464 1.01995 0.271268 1.26952 0.16276C 1.51908 0.054253 1.79035 0 2.08331 0ZM 14.5833 0C 14.8763 0 15.1476 0.054253 15.3971 0.16276C 15.6467 0.271268 15.8664 0.420464 16.0563 0.610352C 16.2462 0.80024 16.3954 1.01996 16.5039 1.26953C 16.6124 1.5191 16.6667 1.79036 16.6667 2.08333C 16.6667 2.3763 16.6124 2.64757 16.5039 2.89714C 16.3954 3.1467 16.2462 3.36643 16.0563 3.55632C 15.8664 3.74621 15.6467 3.8954 15.3971 4.00391C 15.1476 4.11242 14.8763 4.16667 14.5833 4.16667C 14.2904 4.16667 14.0191 4.11242 13.7695 4.00391C 13.52 3.8954 13.3002 3.74621 13.1104 3.55632C 12.9205 3.36643 12.7713 3.1467 12.6628 2.89714C 12.5543 2.64757 12.5 2.3763 12.5 2.08333C 12.5 1.79036 12.5543 1.5191 12.6628 1.26953C 12.7713 1.01996 12.9205 0.80024 13.1104 0.610352C 13.3002 0.420464 13.52 0.271268 13.7695 0.16276C 14.0191 0.054253 14.2904 0 14.5833 0ZM 27.0833 0C 27.3763 0 27.6476 0.054253 27.8971 0.16276C 28.1467 0.271268 28.3664 0.420464 28.5563 0.610352C 28.7462 0.80024 28.8954 1.01996 29.0039 1.26953C 29.1124 1.5191 29.1667 1.79036 29.1667 2.08333C 29.1667 2.3763 29.1124 2.64757 29.0039 2.89714C 28.8954 3.1467 28.7462 3.36643 28.5563 3.55632C 28.3664 3.74621 28.1467 3.8954 27.8971 4.00391C 27.6476 4.11242 27.3763 4.16667 27.0833 4.16667C 26.7904 4.16667 26.5191 4.11242 26.2695 4.00391C 26.02 3.8954 25.8002 3.74621 25.6104 3.55632C 25.4205 3.36643 25.2713 3.1467 25.1628 2.89714C 25.0543 2.64757 25 2.3763 25 2.08333C 25 1.79036 25.0543 1.5191 25.1628 1.26953C 25.2713 1.01996 25.4205 0.80024 25.6104 0.610352C 25.8002 0.420464 26.02 0.271268 26.2695 0.16276C 26.5191 0.054253 26.7904 0 27.0833 0Z" transform="translate(1580.42 189.582)" fill="black"/>
</g>
</g>
<g id="Item_10">
<g id="Icon_10">
<path fill-rule="evenodd" clip-rule="evenodd" d="M 21.0369 4.81771L 19.4186 4.81771L 19.4186 23.2856C 19.4186 23.6202 19.3554 23.9338 19.229 24.2265C 19.1026 24.5193 18.9298 24.7744 18.7107 24.9919C 18.4915 25.2093 18.2345 25.3808 17.9395 25.5063C 17.6445 25.6317 17.3284 25.6944 16.9913 25.6944L 4.04555 25.6944C 3.70842 25.6944 3.39237 25.6317 3.09738 25.5063C 2.80239 25.3808 2.54533 25.2093 2.32619 24.9919C 2.10706 24.7744 1.93428 24.5193 1.80786 24.2265C 1.68143 23.9338 1.61822 23.6202 1.61822 23.2856L 1.61822 4.81771L 0 4.81771L 0 3.21181L 6.47288 3.21181L 6.47288 1.6059C 6.47288 1.38007 6.51502 1.17097 6.59931 0.978597C 6.68359 0.786222 6.79948 0.616851 6.94697 0.470479C 7.09447 0.324107 7.26514 0.209102 7.45899 0.125461C 7.65284 0.04182 7.86354 0 8.0911 0L 12.9458 0C 13.1733 0 13.384 0.04182 13.5779 0.125461C 13.7717 0.209102 13.9424 0.324107 14.0899 0.470479C 14.2374 0.616851 14.3533 0.786222 14.4376 0.978597C 14.5218 1.17097 14.564 1.38007 14.564 1.6059L 14.564 3.21181L 21.0369 3.21181L 21.0369 4.81771ZM 8.0918 3.21137L 12.9465 3.21137L 12.9465 1.60547L 8.0918 1.60547L 8.0918 3.21137ZM 17.8003 4.81836L 3.23633 4.81836L 3.23633 23.2862C 3.23633 23.5037 3.3164 23.6919 3.47653 23.8508C 3.63667 24.0097 3.8263 24.0892 4.04544 24.0892L 16.9912 24.0892C 17.2103 24.0892 17.4 24.0097 17.5601 23.8508C 17.7202 23.6919 17.8003 23.5037 17.8003 23.2862L 17.8003 4.81836ZM 8.09091 20.8765L 6.47266 20.8765L 6.47266 8.0293L 8.09091 8.0293L 8.09091 20.8765ZM 11.3272 20.8765L 9.70898 20.8765L 9.70898 8.0293L 11.3272 8.0293L 11.3272 20.8765ZM 14.5635 20.8765L 12.9453 20.8765L 12.9453 8.0293L 14.5635 8.0293L 14.5635 20.8765Z" transform="translate(1527.59 179.652)" fill="black"/>
</g>
</g>
<g id="Item_11">
<g id="Icon_11">
<path fill-rule="evenodd" clip-rule="evenodd" d="M 25.8915 4.20295C 25.8915 4.75498 25.7862 5.29028 25.5755 5.80885C 25.3648 6.32743 25.0572 6.78745 24.6526 7.18892L 8.00261 23.7122L 0 25.6944L 1.99749 17.7528L 18.6475 1.22952C 19.052 0.828042 19.5156 0.522756 20.0381 0.313653C 20.5607 0.10455 21.1001 0 21.6564 0C 22.2379 0 22.7857 0.110823 23.2999 0.332472C 23.814 0.554121 24.2628 0.855225 24.6463 1.23579C 25.0298 1.61636 25.3332 2.06174 25.5565 2.57195C 25.7799 3.08216 25.8915 3.62582 25.8915 4.20295ZM 4.12305 17.9178C 5.01644 18.2106 5.78551 18.6769 6.43028 19.3167C 7.07504 19.9566 7.54491 20.7198 7.8399 21.6064L 21.5063 8.03148L 17.8021 4.35547L 4.12305 17.9178ZM 2.22461 23.487L 6.38395 22.4583C 6.29967 22.0735 6.16271 21.7097 5.97307 21.3668C 5.78344 21.0238 5.55377 20.7185 5.28406 20.4509C 5.01436 20.1832 4.70673 19.9553 4.36117 19.7671C 4.01561 19.5789 3.64899 19.443 3.26128 19.3594L 2.22461 23.487ZM 22.6554 6.88738C 22.8661 6.67828 23.0684 6.48172 23.2622 6.29771C 23.4561 6.1137 23.6288 5.91924 23.7805 5.71432C 23.9323 5.5094 24.0524 5.28775 24.1409 5.04937C 24.2293 4.811 24.2736 4.53289 24.2736 4.21506C 24.2736 3.8554 24.2041 3.51875 24.065 3.2051C 23.9259 2.89144 23.7363 2.61543 23.4961 2.37705C 23.2559 2.13868 22.9778 1.95049 22.6617 1.81248C 22.3456 1.67447 22.0064 1.60547 21.644 1.60547C 21.3237 1.60547 21.0435 1.64938 20.8033 1.7372C 20.5631 1.82503 20.3397 1.94421 20.1332 2.09477C 19.9267 2.24532 19.7308 2.41678 19.5454 2.60916C 19.3599 2.80153 19.1619 3.00227 18.9512 3.21137L 22.6554 6.88738Z" transform="translate(1465.12 179.652)" fill="black"/>
</g>
</g>
<g id="Item_12">
<g id="Icon_12">
<path fill-rule="evenodd" clip-rule="evenodd" d="M 24.0331 16.6989C 24.3196 16.8829 24.5788 17.0983 24.8106 17.345C 25.0424 17.5917 25.2383 17.8615 25.3984 18.1542C 25.5586 18.447 25.6808 18.7564 25.7651 19.0826C 25.8494 19.4088 25.8915 19.7392 25.8915 20.0738C 25.8915 20.6258 25.784 21.1444 25.5691 21.6295C 25.3542 22.1146 25.0634 22.5391 24.6968 22.9029C 24.3302 23.2668 23.9024 23.5553 23.4136 23.7686C 22.9248 23.9819 22.4022 24.0885 21.846 24.0885C 21.0706 24.0885 20.3542 23.8836 19.6968 23.4738C 18.7275 24.2015 17.6635 24.7535 16.5046 25.1299C 15.3457 25.5063 14.1594 25.6944 12.9458 25.6944C 11.7321 25.6944 10.5458 25.5063 9.38693 25.1299C 8.22805 24.7535 7.16399 24.2015 6.19474 23.4738C 5.53734 23.8836 4.82095 24.0885 4.04555 24.0885C 3.48928 24.0885 2.96674 23.9819 2.4779 23.7686C 1.98906 23.5553 1.56133 23.2668 1.1947 22.9029C 0.828071 22.5391 0.5373 22.1146 0.32238 21.6295C 0.107459 21.1444 0 20.6258 0 20.0738C 0 19.7392 0.0421407 19.4088 0.126423 19.0826C 0.210706 18.7564 0.332914 18.447 0.493051 18.1542C 0.653188 17.8615 0.849142 17.5917 1.08092 17.345C 1.3127 17.0983 1.57186 16.8829 1.85842 16.6989C 1.77414 16.3225 1.71304 15.9482 1.67511 15.576C 1.63718 15.2038 1.61822 14.8295 1.61822 14.4531C 1.61822 13.2989 1.7931 12.1802 2.14288 11.097C 2.49265 10.0139 2.98569 9.01021 3.62203 8.08597C 4.25836 7.16174 5.02322 6.34416 5.91661 5.63321C 6.81001 4.92226 7.80453 4.36187 8.9002 3.95203C 8.90863 3.40836 9.0203 2.89606 9.23522 2.41513C 9.45015 1.93419 9.74092 1.51599 10.1075 1.16052C 10.4742 0.805041 10.9019 0.522756 11.3907 0.313653C 11.8796 0.10455 12.3979 0 12.9458 0C 13.4936 0 14.0119 0.10455 14.5008 0.313653C 14.9896 0.522756 15.4173 0.805041 15.784 1.16052C 16.1506 1.51599 16.4414 1.93419 16.6563 2.41513C 16.8712 2.89606 16.9829 3.40836 16.9913 3.95203C 18.087 4.36187 19.0815 4.92226 19.9749 5.63321C 20.8683 6.34416 21.6331 7.16174 22.2695 8.08597C 22.9058 9.01021 23.3989 10.0139 23.7486 11.097C 24.0984 12.1802 24.2733 13.2989 24.2733 14.4531C 24.2733 14.8295 24.2543 15.2038 24.2164 15.576C 24.1785 15.9482 24.1174 16.3225 24.0331 16.6989ZM 12.9449 1.60547C 12.6078 1.60547 12.2917 1.6682 11.9967 1.79366C 11.7017 1.91912 11.4447 2.09058 11.2255 2.30805C 11.0064 2.52552 10.8336 2.78062 10.7072 3.07336C 10.5808 3.36611 10.5176 3.67976 10.5176 4.01432C 10.5176 4.34888 10.5808 4.66253 10.7072 4.95528C 10.8336 5.24802 11.0064 5.50312 11.2255 5.72059C 11.4447 5.93806 11.7017 6.10952 11.9967 6.23498C 12.2917 6.36044 12.6078 6.42317 12.9449 6.42317C 13.282 6.42317 13.5981 6.36044 13.8931 6.23498C 14.1881 6.10952 14.4451 5.93806 14.6642 5.72059C 14.8834 5.50312 15.0562 5.24802 15.1826 4.95528C 15.309 4.66253 15.3722 4.34888 15.3722 4.01432C 15.3722 3.67976 15.309 3.36611 15.1826 3.07336C 15.0562 2.78062 14.8834 2.52552 14.6642 2.30805C 14.4451 2.09058 14.1881 1.91912 13.8931 1.79366C 13.5981 1.6682 13.282 1.60547 12.9449 1.60547ZM 1.61719 20.0749C 1.61719 20.4094 1.6804 20.7231 1.80682 21.0158C 1.93325 21.3086 2.10603 21.5637 2.32516 21.7811C 2.5443 21.9986 2.80136 22.1701 3.09635 22.2955C 3.39134 22.421 3.70739 22.4837 4.04453 22.4837C 4.38166 22.4837 4.69771 22.421 4.9927 22.2955C 5.28769 22.1701 5.54475 21.9986 5.76389 21.7811C 5.98303 21.5637 6.1558 21.3086 6.28223 21.0158C 6.40865 20.7231 6.47186 20.4094 6.47186 20.0749C 6.47186 19.7403 6.40865 19.4267 6.28223 19.1339C 6.1558 18.8412 5.98303 18.5861 5.76389 18.3686C 5.54475 18.1511 5.28769 17.9797 4.9927 17.8542C 4.69771 17.7287 4.38166 17.666 4.04453 17.666C 3.70739 17.666 3.39134 17.7287 3.09635 17.8542C 2.80136 17.9797 2.5443 18.1511 2.32516 18.3686C 2.10603 18.5861 1.93325 18.8412 1.80682 19.1339C 1.6804 19.4267 1.61719 19.7403 1.61719 20.0749ZM 12.9457 24.0892C 13.9402 24.0892 14.9115 23.9407 15.8597 23.6438C 16.8079 23.3469 17.6908 22.9141 18.5083 22.3453C 18.2807 22.0107 18.1058 21.649 17.9836 21.2601C 17.8614 20.8711 17.8003 20.4759 17.8003 20.0744C 17.8003 19.5224 17.9078 19.0038 18.1227 18.5187C 18.3376 18.0336 18.6284 17.6091 18.995 17.2453C 19.3617 16.8815 19.7894 16.5929 20.2782 16.3796C 20.7671 16.1663 21.2896 16.0597 21.8459 16.0597C 21.9554 16.0597 22.065 16.0639 22.1746 16.0722C 22.2841 16.0806 22.3937 16.0931 22.5033 16.1099C 22.6044 15.5578 22.655 15.0058 22.655 14.4538C 22.655 13.4752 22.5138 12.5321 22.2315 11.6246C 21.9491 10.7171 21.5488 9.87655 21.0304 9.10287C 20.5121 8.32919 19.8842 7.63916 19.1467 7.03276C 18.4093 6.42636 17.5854 5.93498 16.6752 5.55859C 16.5234 5.92661 16.3191 6.26327 16.062 6.56856C 15.8049 6.87385 15.5121 7.13522 15.1834 7.35269C 14.8547 7.57016 14.5007 7.73743 14.1214 7.85453C 13.7421 7.97163 13.3502 8.03018 12.9457 8.03018C 12.5411 8.03018 12.1492 7.97163 11.7699 7.85453C 11.3906 7.73743 11.0367 7.57016 10.708 7.35269C 10.3793 7.13522 10.0864 6.87385 9.82932 6.56856C 9.57225 6.26327 9.36787 5.92661 9.21616 5.55859C 8.30591 5.93498 7.48206 6.42636 6.74458 7.03276C 6.00711 7.63916 5.37921 8.32919 4.86087 9.10287C 4.34253 9.87655 3.94219 10.7171 3.65985 11.6246C 3.3775 12.5321 3.23633 13.4752 3.23633 14.4538C 3.23633 15.0058 3.2869 15.5578 3.38804 16.1099C 3.99487 16.0095 4.58274 16.043 5.15165 16.2102C 5.72055 16.3775 6.22203 16.6473 6.65609 17.0195C 7.09014 17.3917 7.4378 17.8412 7.69908 18.3682C 7.96036 18.8951 8.09099 19.4639 8.09099 20.0744C 8.09099 20.4759 8.02989 20.8711 7.90768 21.2601C 7.78547 21.649 7.61058 22.0107 7.38302 22.3453C 8.20056 22.9141 9.08341 23.3469 10.0316 23.6438C 10.9798 23.9407 11.9511 24.0892 12.9457 24.0892ZM 21.8453 22.4837C 22.1824 22.4837 22.4985 22.421 22.7935 22.2955C 23.0885 22.1701 23.3455 21.9986 23.5647 21.7811C 23.7838 21.5637 23.9566 21.3086 24.083 21.0158C 24.2094 20.7231 24.2726 20.4094 24.2726 20.0749C 24.2726 19.7403 24.2094 19.4267 24.083 19.1339C 23.9566 18.8412 23.7838 18.5861 23.5647 18.3686C 23.3455 18.1511 23.0885 17.9797 22.7935 17.8542C 22.4985 17.7287 22.1824 17.666 21.8453 17.666C 21.5082 17.666 21.1921 17.7287 20.8971 17.8542C 20.6021 17.9797 20.3451 18.1511 20.1259 18.3686C 19.9068 18.5861 19.734 18.8412 19.6076 19.1339C 19.4812 19.4267 19.418 19.7403 19.418 20.0749C 19.418 20.4094 19.4812 20.7231 19.6076 21.0158C 19.734 21.3086 19.9068 21.5637 20.1259 21.7811C 20.3451 21.9986 20.6021 22.1701 20.8971 22.2955C 21.1921 22.421 21.5082 22.4837 21.8453 22.4837Z" transform="translate(1391.33 179.652)" fill="black"/>
</g>
</g>
</g>
<g id="Line">
<line y1="-1" x2="1080" y2="-1" stroke-width="2" transform="matrix(0 1 -1 0 386.666 0)" stroke="#50E6FF"/>
</g>
<g id="Line_2">
<line y1="-1" x2="1080" y2="-1" stroke-width="2" transform="matrix(0 1 -1 0 296 0)" stroke="#50E6FF"/>
</g>
<g id="Line_3">
<line y1="-1" x2="1080" y2="-1" stroke-width="2" transform="matrix(0 1 -1 0 322 0)" stroke="#50E6FF"/>
</g>
<g id="Line_4">
<line y1="-1" x2="1916.67" y2="-1" stroke-width="2" transform="translate(1.66602 270)" stroke="#50E6FF"/>
</g>
<g id="Line_5">
<line y1="-1" x2="1916.67" y2="-1" stroke-width="2" transform="translate(1.66602 206.666)" stroke="#50E6FF"/>
</g>
</g>
<g id="titlebar-controls" opacity="0.75">
<g id="minimize">
<g id="minimize_2">
<path fill-rule="evenodd" clip-rule="evenodd" d="M 20 3.33333L 0 3.33333L 0 0L 20 0L 20 3.33333Z" transform="translate(1492 119.334)" fill="black"/>
</g>
</g>
<g id="expand">
<g id="expand_2">
<rect x="1.5" y="1.5" width="17" height="17" stroke-width="3" transform="translate(1545.33 111)" stroke="black"/>
</g>
</g>
<g id="close">
<g id="Union">
<path fill-rule="evenodd" clip-rule="evenodd" d="M 12.9629 10.6055L 21.2129 2.35547L 18.8555 0L 10.6055 8.25L 2.35547 0L 0 2.35742L 8.24805 10.6055L 0 18.8555L 2.35742 21.2129L 10.6055 12.9629L 18.8555 21.2129L 21.2129 18.8555L 12.9629 10.6055Z" transform="translate(1598.06 110.395)" fill="black"/>
</g>
</g>
</g>
</g>
</g>
<defs>
<filter id="filter0_d" x="266.332" y="93" width="1381.67" height="903.333" filterUnits="userSpaceOnUse" color-interpolation-filters="sRGB">
<feFlood flood-opacity="0" result="BackgroundImageFix"/>
<feColorMatrix in="SourceAlpha" type="matrix" values="0 0 0 0 0 0 0 0 0 0 0 0 0 0 0 0 0 0 255 0"/>
<feOffset dx="3" dy="3"/>
<feGaussianBlur stdDeviation="2.5"/>
<feColorMatrix type="matrix" values="0 0 0 0 0.54 0 0 0 0 0.54 0 0 0 0 0.54 0 0 0 0.4 0"/>
<feBlend mode="normal" in2="BackgroundImageFix" result="effect1_dropShadow"/>
<feBlend mode="normal" in="SourceGraphic" in2="effect1_dropShadow" result="shape"/>
</filter>

</defs>
</svg>

