<svg width="1152" height="520" viewBox="0 0 1152 520" version="1.1" xmlns="http://www.w3.org/2000/svg" xmlns:xlink="http://www.w3.org/1999/xlink">
<title>app-bar-mobile</title>
<desc>Created using Figma</desc>
<g id="Canvas" transform="translate(-7399 12918)">
<clipPath id="clip-0" clip-rule="evenodd">
<path d="M 7399 -12918L 8551 -12918L 8551 -12398L 7399 -12398L 7399 -12918Z" fill="#FFFFFF"/>
</clipPath>
<g id="app-bar-mobile" clip-path="url(#clip-0)">
<path d="M 7399 -12918L 8551 -12918L 8551 -12398L 7399 -12398L 7399 -12918Z" fill="#243A5E"/>
<g id="titlebar-controls">
<g id="app-bg" filter="url(#filter0_d)">
<use xlink:href="#path0_fill" transform="translate(7783 -13030)" fill="#FFFFFF"/>
</g>
</g>
<g id="Rectangle">
<use xlink:href="#path1_fill" transform="translate(7799 -12990)" fill="#F2F8FC"/>
</g>
<g id="Item">
<g id="Icon">
<use xlink:href="#path2_fill" transform="translate(8127.1 -12540.8)"/>
</g>
</g>
<g id="Navigation">
<g id="Item">
<g id="Icon">
<use xlink:href="#path3_fill" transform="translate(8028.92 -12537.3)"/>
</g>
</g>
<g id="Item">
<g id="Icon">
<use xlink:href="#path4_fill" transform="translate(7966.36 -12537.3)"/>
</g>
</g>
<g id="Item">
<g id="Icon">
<use xlink:href="#path5_fill" transform="translate(7903.34 -12537.3)"/>
</g>
</g>
</g>
</g>
</g>
<defs>
<filter id="filter0_d" filterUnits="userSpaceOnUse" x="7763" y="-13050" width="424" height="576" color-interpolation-filters="sRGB">
<feFlood flood-opacity="0" result="BackgroundImageFix"/>
<feColorMatrix in="SourceAlpha" type="matrix" values="0 0 0 0 0 0 0 0 0 0 0 0 0 0 0 0 0 0 255 0"/>
<feOffset dx="0" dy="0"/>
<feGaussianBlur stdDeviation="10"/>
<feColorMatrix type="matrix" values="0 0 0 0 0.095 0 0 0 0 0.153793 0 0 0 0 0.25 0 0 0 1 0"/>
<feBlend mode="normal" in2="BackgroundImageFix" result="effect1_dropShadow"/>
<feBlend mode="normal" in="SourceGraphic" in2="effect1_dropShadow" result="shape"/>
</filter>
<path id="path0_fill" fill-rule="evenodd" d="M 0 0L 384 0L 384 536L 0 536L 0 0Z"/>
<path id="path1_fill" d="M 0 0L 352 0L 352 432L 0 432L 0 0Z"/>
<path id="path2_fill" fill-rule="evenodd" d="M 1.49414 0C 1.70426 0 1.8988 0.0389095 2.07779 0.11673C 2.25678 0.19455 2.41436 0.301551 2.55054 0.437737C 2.68673 0.573922 2.79373 0.731505 2.87155 0.910492C 2.94937 1.08948 2.98828 1.28403 2.98828 1.49414C 2.98828 1.70426 2.94937 1.8988 2.87155 2.07779C 2.79373 2.25678 2.68673 2.41436 2.55054 2.55054C 2.41436 2.68673 2.25678 2.79373 2.07779 2.87155C 1.8988 2.94937 1.70426 2.98828 1.49414 2.98828C 1.28403 2.98828 1.08948 2.94937 0.910492 2.87155C 0.731505 2.79373 0.573922 2.68673 0.437737 2.55054C 0.301551 2.41436 0.19455 2.25678 0.11673 2.07779C 0.0389095 1.8988 0 1.70426 0 1.49414C 0 1.28403 0.0389095 1.08948 0.11673 0.910492C 0.19455 0.731505 0.301551 0.573922 0.437737 0.437737C 0.573922 0.301551 0.731505 0.19455 0.910492 0.11673C 1.08948 0.0389095 1.28403 0 1.49414 0ZM 10.459 0C 10.6691 0 10.8636 0.0389095 11.0426 0.11673C 11.2216 0.19455 11.3792 0.301551 11.5154 0.437737C 11.6516 0.573922 11.7586 0.731505 11.8364 0.910492C 11.9142 1.08948 11.9531 1.28403 11.9531 1.49414C 11.9531 1.70426 11.9142 1.8988 11.8364 2.07779C 11.7586 2.25678 11.6516 2.41436 11.5154 2.55054C 11.3792 2.68673 11.2216 2.79373 11.0426 2.87155C 10.8636 2.94937 10.6691 2.98828 10.459 2.98828C 10.2489 2.98828 10.0543 2.94937 9.87534 2.87155C 9.69635 2.79373 9.53877 2.68673 9.40258 2.55054C 9.26639 2.41436 9.15939 2.25678 9.08157 2.07779C 9.00375 1.8988 8.96484 1.70426 8.96484 1.49414C 8.96484 1.28403 9.00375 1.08948 9.08157 0.910492C 9.15939 0.731505 9.26639 0.573922 9.40258 0.437737C 9.53877 0.301551 9.69635 0.19455 9.87534 0.11673C 10.0543 0.0389095 10.2489 0 10.459 0ZM 19.4238 0C 19.6339 0 19.8285 0.0389095 20.0075 0.11673C 20.1865 0.19455 20.344 0.301551 20.4802 0.437737C 20.6164 0.573922 20.7234 0.731505 20.8012 0.910492C 20.8791 1.08948 20.918 1.28403 20.918 1.49414C 20.918 1.70426 20.8791 1.8988 20.8012 2.07779C 20.7234 2.25678 20.6164 2.41436 20.4802 2.55054C 20.344 2.68673 20.1865 2.79373 20.0075 2.87155C 19.8285 2.94937 19.6339 2.98828 19.4238 2.98828C 19.2137 2.98828 19.0192 2.94937 18.8402 2.87155C 18.6612 2.79373 18.5036 2.68673 18.3674 2.55054C 18.2312 2.41436 18.1242 2.25678 18.0464 2.07779C 17.9686 1.8988 17.9297 1.70426 17.9297 1.49414C 17.9297 1.28403 17.9686 1.08948 18.0464 0.910492C 18.1242 0.731505 18.2312 0.573922 18.3674 0.437737C 18.5036 0.301551 18.6612 0.19455 18.8402 0.11673C 19.0192 0.0389095 19.2137 0 19.4238 0Z"/>
<path id="path3_fill" fill-rule="evenodd" d="M 19.4238 4.48242L 17.9297 4.48242L 17.9297 21.665C 17.9297 21.9763 17.8713 22.2681 17.7546 22.5405C 17.6379 22.8129 17.4783 23.0502 17.276 23.2526C 17.0737 23.4549 16.8363 23.6144 16.5639 23.7312C 16.2916 23.8479 15.9998 23.9062 15.6885 23.9062L 3.73535 23.9062C 3.42407 23.9062 3.13225 23.8479 2.85988 23.7312C 2.58751 23.6144 2.35016 23.4549 2.14783 23.2526C 1.94549 23.0502 1.78597 22.8129 1.66924 22.5405C 1.5525 22.2681 1.49414 21.9763 1.49414 21.665L 1.49414 4.48242L 0 4.48242L 0 2.98828L 5.97656 2.98828L 5.97656 1.49414C 5.97656 1.28403 6.01547 1.08948 6.09329 0.910492C 6.17111 0.731505 6.27811 0.573922 6.4143 0.437737C 6.55048 0.301551 6.70807 0.19455 6.88705 0.11673C 7.06604 0.0389095 7.26059 0 7.4707 0L 11.9531 0C 12.1632 0 12.3578 0.0389095 12.5368 0.11673C 12.7158 0.19455 12.8733 0.301551 13.0095 0.437737C 13.1457 0.573922 13.2527 0.731505 13.3305 0.910492C 13.4084 1.08948 13.4473 1.28403 13.4473 1.49414L 13.4473 2.98828L 19.4238 2.98828L 19.4238 4.48242ZM 7.4707 2.98828L 11.9531 2.98828L 11.9531 1.49414L 7.4707 1.49414L 7.4707 2.98828ZM 16.4355 4.48242L 2.98828 4.48242L 2.98828 21.665C 2.98828 21.8674 3.06221 22.0425 3.21007 22.1903C 3.35793 22.3382 3.53302 22.4121 3.73535 22.4121L 15.6885 22.4121C 15.8908 22.4121 16.0659 22.3382 16.2138 22.1903C 16.3616 22.0425 16.4355 21.8674 16.4355 21.665L 16.4355 4.48242ZM 7.4707 19.4238L 5.97656 19.4238L 5.97656 7.4707L 7.4707 7.4707L 7.4707 19.4238ZM 10.459 19.4238L 8.96484 19.4238L 8.96484 7.4707L 10.459 7.4707L 10.459 19.4238ZM 13.4473 19.4238L 11.9531 19.4238L 11.9531 7.4707L 13.4473 7.4707L 13.4473 19.4238Z"/>
<path id="path4_fill" fill-rule="evenodd" d="M 23.9062 3.91045C 23.9062 4.42406 23.809 4.9221 23.6144 5.40459C 23.4199 5.88707 23.1358 6.31508 22.7623 6.68861L 7.38899 22.0619L 0 23.9062L 1.84433 16.5173L 17.2176 1.14395C 17.5912 0.770414 18.0192 0.486375 18.5017 0.291824C 18.9841 0.0972738 19.4822 0 19.9958 0C 20.5328 0 21.0386 0.10311 21.5133 0.309334C 21.988 0.515557 22.4024 0.795706 22.7565 1.14979C 23.1105 1.50387 23.3907 1.91826 23.5969 2.39296C 23.8031 2.86766 23.9062 3.37349 23.9062 3.91045ZM 3.80542 16.6688C 4.63031 16.9411 5.34041 17.375 5.93574 17.9703C 6.53106 18.5656 6.9649 19.2757 7.23727 20.1006L 19.8558 7.47047L 16.4356 4.05029L 3.80542 16.6688ZM 2.05444 21.8516L 5.89485 20.8945C 5.81703 20.5365 5.69058 20.198 5.51548 19.8789C 5.34038 19.5598 5.12833 19.2758 4.8793 19.0268C 4.63028 18.7778 4.34624 18.5657 4.02718 18.3906C 3.70811 18.2155 3.3696 18.0891 3.01163 18.0112L 2.05444 21.8516ZM 20.918 6.40846C 21.1125 6.21391 21.2993 6.03104 21.4783 5.85983C 21.6573 5.68863 21.8168 5.5077 21.9569 5.31704C 22.097 5.12638 22.2078 4.92016 22.2896 4.69837C 22.3713 4.47658 22.4121 4.21784 22.4121 3.92212C 22.4121 3.58749 22.3479 3.27427 22.2195 2.98244C 22.0911 2.69062 21.916 2.43382 21.6942 2.21203C 21.4724 1.99024 21.2156 1.81515 20.9238 1.68674C 20.632 1.55834 20.3188 1.49414 19.9841 1.49414C 19.6884 1.49414 19.4297 1.535 19.2079 1.61671C 18.9861 1.69842 18.7799 1.80931 18.5892 1.94939C 18.3986 2.08946 18.2176 2.24899 18.0464 2.42798C 17.8752 2.60697 17.6924 2.79373 17.4978 2.98828L 20.918 6.40846Z"/>
<path id="path5_fill" fill-rule="evenodd" d="M 22.1903 15.5367C 22.4549 15.7079 22.6942 15.9083 22.9082 16.1379C 23.1222 16.3675 23.3031 16.6184 23.451 16.8908C 23.5989 17.1632 23.7117 17.4511 23.7895 17.7546C 23.8673 18.0581 23.9062 18.3655 23.9062 18.6768C 23.9062 19.1904 23.807 19.6728 23.6086 20.1242C 23.4101 20.5756 23.1417 20.9705 22.8032 21.309C 22.4646 21.6475 22.0697 21.916 21.6183 22.1144C 21.167 22.3129 20.6845 22.4121 20.1709 22.4121C 19.455 22.4121 18.7935 22.2215 18.1865 21.8401C 17.2916 22.5172 16.3091 23.0308 15.2391 23.381C 14.169 23.7312 13.0737 23.9062 11.9531 23.9062C 10.8325 23.9062 9.73721 23.7312 8.66718 23.381C 7.59716 23.0308 6.61469 22.5172 5.71976 21.8401C 5.11276 22.2215 4.4513 22.4121 3.73535 22.4121C 3.22174 22.4121 2.73926 22.3129 2.2879 22.1144C 1.83655 21.916 1.44161 21.6475 1.1031 21.309C 0.764578 20.9705 0.496102 20.5756 0.297661 20.1242C 0.0992193 19.6728 0 19.1904 0 18.6768C 0 18.3655 0.0389095 18.0581 0.11673 17.7546C 0.19455 17.4511 0.307388 17.1632 0.455246 16.8908C 0.603104 16.6184 0.784034 16.3675 0.998039 16.1379C 1.21204 15.9083 1.45134 15.7079 1.71593 15.5367C 1.63811 15.1865 1.58169 14.8383 1.54667 14.492C 1.51165 14.1457 1.49414 13.7975 1.49414 13.4473C 1.49414 12.3733 1.65562 11.3325 1.97857 10.3247C 2.30152 9.31697 2.75676 8.38315 3.34431 7.52323C 3.93185 6.66332 4.63806 5.90264 5.46295 5.24117C 6.28785 4.57969 7.20611 4.05831 8.21777 3.67699C 8.22556 3.17116 8.32867 2.69451 8.52711 2.24705C 8.72555 1.79958 8.99402 1.41049 9.33254 1.07975C 9.67106 0.749014 10.066 0.486375 10.5173 0.291824C 10.9687 0.0972738 11.4473 0 11.9531 0C 12.459 0 12.9375 0.0972738 13.3889 0.291824C 13.8403 0.486375 14.2352 0.749014 14.5737 1.07975C 14.9122 1.41049 15.1807 1.79958 15.3791 2.24705C 15.5776 2.69451 15.6807 3.17116 15.6885 3.67699C 16.7001 4.05831 17.6184 4.57969 18.4433 5.24117C 19.2682 5.90264 19.9744 6.66332 20.5619 7.52323C 21.1495 8.38315 21.6047 9.31697 21.9277 10.3247C 22.2506 11.3325 22.4121 12.3733 22.4121 13.4473C 22.4121 13.7975 22.3946 14.1457 22.3596 14.492C 22.3246 14.8383 22.2681 15.1865 22.1903 15.5367ZM 11.9531 1.49414C 11.6418 1.49414 11.35 1.5525 11.0777 1.66924C 10.8053 1.78597 10.5679 1.94549 10.3656 2.14783C 10.1633 2.35016 10.0037 2.58751 9.88701 2.85988C 9.77028 3.13225 9.71191 3.42407 9.71191 3.73535C 9.71191 4.04663 9.77028 4.33845 9.88701 4.61082C 10.0037 4.8832 10.1633 5.12054 10.3656 5.32288C 10.5679 5.52521 10.8053 5.68474 11.0777 5.80147C 11.35 5.9182 11.6418 5.97656 11.9531 5.97656C 12.2644 5.97656 12.5562 5.9182 12.8286 5.80147C 13.101 5.68474 13.3383 5.52521 13.5406 5.32288C 13.743 5.12054 13.9025 4.8832 14.0192 4.61082C 14.136 4.33845 14.1943 4.04663 14.1943 3.73535C 14.1943 3.42407 14.136 3.13225 14.0192 2.85988C 13.9025 2.58751 13.743 2.35016 13.5406 2.14783C 13.3383 1.94549 13.101 1.78597 12.8286 1.66924C 12.5562 1.5525 12.2644 1.49414 11.9531 1.49414ZM 1.49414 18.6768C 1.49414 18.988 1.5525 19.2799 1.66924 19.5522C 1.78597 19.8246 1.94549 20.0619 2.14783 20.2643C 2.35016 20.4666 2.58751 20.6261 2.85988 20.7429C 3.13225 20.8596 3.42407 20.918 3.73535 20.918C 4.04663 20.918 4.33845 20.8596 4.61082 20.7429C 4.8832 20.6261 5.12054 20.4666 5.32288 20.2643C 5.52521 20.0619 5.68474 19.8246 5.80147 19.5522C 5.9182 19.2799 5.97656 18.988 5.97656 18.6768C 5.97656 18.3655 5.9182 18.0737 5.80147 17.8013C 5.68474 17.5289 5.52521 17.2916 5.32288 17.0892C 5.12054 16.8869 4.8832 16.7274 4.61082 16.6106C 4.33845 16.4939 4.04663 16.4355 3.73535 16.4355C 3.42407 16.4355 3.13225 16.4939 2.85988 16.6106C 2.58751 16.7274 2.35016 16.8869 2.14783 17.0892C 1.94549 17.2916 1.78597 17.5289 1.66924 17.8013C 1.5525 18.0737 1.49414 18.3655 1.49414 18.6768ZM 11.9532 22.4119C 12.8715 22.4119 13.7684 22.2738 14.6439 21.9975C 15.5193 21.7212 16.3345 21.3185 17.0894 20.7893C 16.8792 20.4781 16.7178 20.1415 16.6049 19.7796C 16.4921 19.4178 16.4357 19.0501 16.4357 18.6765C 16.4357 18.1629 16.5349 17.6804 16.7333 17.2291C 16.9318 16.7777 17.2002 16.3828 17.5388 16.0443C 17.8773 15.7058 18.2722 15.4373 18.7236 15.2388C 19.1749 15.0404 19.6574 14.9412 20.171 14.9412C 20.2722 14.9412 20.3734 14.9451 20.4745 14.9529C 20.5757 14.9606 20.6768 14.9723 20.778 14.9879C 20.8714 14.4743 20.9181 13.9607 20.9181 13.447C 20.9181 12.5365 20.7877 11.6591 20.527 10.8148C 20.2663 9.97043 19.8967 9.18835 19.4181 8.46851C 18.9395 7.74868 18.3598 7.10667 17.6788 6.54247C 16.9979 5.97828 16.2372 5.52109 15.3968 5.1709C 15.2567 5.51331 15.068 5.82653 14.8306 6.11057C 14.5933 6.39462 14.3229 6.6378 14.0194 6.84013C 13.7159 7.04247 13.389 7.1981 13.0388 7.30705C 12.6886 7.416 12.3268 7.47047 11.9532 7.47047C 11.5797 7.47047 11.2179 7.416 10.8677 7.30705C 10.5175 7.1981 10.1906 7.04247 9.88713 6.84013C 9.58363 6.6378 9.31321 6.39462 9.07586 6.11057C 8.83851 5.82653 8.6498 5.51331 8.50972 5.1709C 7.66926 5.52109 6.90858 5.97828 6.22765 6.54247C 5.54673 7.10667 4.96697 7.74868 4.48838 8.46851C 4.00979 9.18835 3.64015 9.97043 3.37945 10.8148C 3.11875 11.6591 2.9884 12.5365 2.9884 13.447C 2.9884 13.9607 3.03509 14.4743 3.12848 14.9879C 3.68878 14.8945 4.23157 14.9256 4.75686 15.0813C 5.28215 15.2369 5.74517 15.4879 6.14594 15.8342C 6.54672 16.1805 6.86772 16.5987 7.10896 17.089C 7.35021 17.5793 7.47083 18.1084 7.47083 18.6765C 7.47083 19.0501 7.41441 19.4178 7.30157 19.7796C 7.18873 20.1415 7.02725 20.4781 6.81714 20.7893C 7.57199 21.3185 8.38715 21.7212 9.26263 21.9975C 10.1381 22.2738 11.035 22.4119 11.9532 22.4119ZM 20.1709 20.918C 20.4822 20.918 20.774 20.8596 21.0464 20.7429C 21.3187 20.6261 21.5561 20.4666 21.7584 20.2643C 21.9608 20.0619 22.1203 19.8246 22.237 19.5522C 22.3537 19.2799 22.4121 18.988 22.4121 18.6768C 22.4121 18.3655 22.3537 18.0737 22.237 17.8013C 22.1203 17.5289 21.9608 17.2916 21.7584 17.0892C 21.5561 16.8869 21.3187 16.7274 21.0464 16.6106C 20.774 16.4939 20.4822 16.4355 20.1709 16.4355C 19.8596 16.4355 19.5678 16.4939 19.2954 16.6106C 19.0231 16.7274 18.7857 16.8869 18.5834 17.0892C 18.381 17.2916 18.2215 17.5289 18.1048 17.8013C 17.9881 18.0737 17.9297 18.3655 17.9297 18.6768C 17.9297 18.988 17.9881 19.2799 18.1048 19.5522C 18.2215 19.8246 18.381 20.0619 18.5834 20.2643C 18.7857 20.4666 19.0231 20.6261 19.2954 20.7429C 19.5678 20.8596 19.8596 20.918 20.1709 20.918Z"/>
</defs>
</svg>
