<svg width="1152" height="520" viewBox="0 0 1152 520" version="1.1" xmlns="http://www.w3.org/2000/svg" xmlns:xlink="http://www.w3.org/1999/xlink">
<title>app-bar-desktop</title>
<desc>Created using Figma</desc>
<g id="Canvas" transform="translate(-6181 12918)">
<clipPath id="clip-0" clip-rule="evenodd">
<path d="M 6181 -12918L 7333 -12918L 7333 -12398L 6181 -12398L 6181 -12918Z" fill="#FFFFFF"/>
</clipPath>
<g id="app-bar-desktop" clip-path="url(#clip-0)">
<path d="M 6181 -12918L 7333 -12918L 7333 -12398L 6181 -12398L 6181 -12918Z" fill="#243A5E"/>
<g id="Group 2">
<g id="Group">
<g id="BG">
<g id="app-bg" filter="url(#filter0_dd)">
<use xlink:href="#path0_fill" transform="translate(5853 -12813)" fill="#FFFFFF"/>
</g>
</g>
<g id="titlebar-controls" opacity="0.75">
<g id="minimize">
<use xlink:href="#path1_fill" transform="matrix(1 -2.44929e-16 2.44929e-16 1 6974.2 -12795)"/>
</g>
<g id="expand">
<mask id="mask0_outline_ins">
<use xlink:href="#path2_fill" fill="white" transform="translate(7012.45 -12801)"/>
</mask>
<g mask="url(#mask0_outline_ins)">
<use xlink:href="#path3_stroke_2x" transform="translate(7012.45 -12801)"/>
</g>
</g>
<g id="close">
<g id="Line 3 (Stroke)">
<use xlink:href="#path4_fill" transform="matrix(0.707107 -0.707107 0.707107 0.707107 7050.27 -12787.9)"/>
</g>
<g id="Line 3.1 (Stroke)">
<use xlink:href="#path4_fill" transform="matrix(-0.707107 -0.707107 0.707107 -0.707107 7063.79 -12786.2)"/>
</g>
</g>
</g>
<g id="Rectangle">
<use xlink:href="#path5_fill" transform="translate(5872.12 -12679.1)" fill="#F2F8FC"/>
</g>
</g>
<g id="Navigation / Command bar / Label on right">
<g id="Navigation">
<g id="Item">
<g id="Icon">
<use xlink:href="#path6_fill" transform="translate(7027.29 -12738)"/>
</g>
</g>
<g id="Item">
<g id="Delete">
<use xlink:href="#path7_fill" transform="translate(6955.08 -12746.1)" fill="#000100"/>
</g>
<g id="Icon">
<use xlink:href="#path8_fill" transform="translate(6923.1 -12748.5)"/>
</g>
</g>
<g id="Item">
<g id="Edit">
<use xlink:href="#path9_fill" transform="translate(6869.02 -12746.1)" fill="#000100"/>
</g>
<g id="Icon">
<use xlink:href="#path10_fill" transform="translate(6835.55 -12748.5)"/>
</g>
</g>
<g id="Item">
<g id="Share">
<use xlink:href="#path11_fill" transform="translate(6771 -12746.1)" fill="#000100"/>
</g>
<g id="Icon">
<use xlink:href="#path12_fill" transform="translate(6737.53 -12748.5)"/>
</g>
</g>
</g>
<g id="Rectangle">
<mask id="mask1_outline_ins">
<use xlink:href="#path13_fill" fill="white" transform="translate(6717 -12765)"/>
</mask>
<g mask="url(#mask1_outline_ins)">
<use xlink:href="#path14_stroke_2x" transform="translate(6717 -12765)" fill="#50E6FF"/>
</g>
</g>
<g id="Rectangle">
<mask id="mask2_outline_ins">
<use xlink:href="#path15_fill" fill="white" transform="translate(7012 -12765)"/>
</mask>
<g mask="url(#mask2_outline_ins)">
<use xlink:href="#path16_stroke_2x" transform="translate(7012 -12765)" fill="#50E6FF"/>
</g>
</g>
</g>
</g>
<g id="Navigation pane">
<use xlink:href="#path17_fill" transform="translate(6766 -12877)" fill="#50E6FF"/>
</g>
<g id="Navigation pane">
<use xlink:href="#path18_fill" transform="translate(7133 -12753)" fill="#50E6FF"/>
</g>
<g id="Line">
<use xlink:href="#path19_stroke" transform="matrix(6.12323e-17 1 -1 6.12323e-17 6862 -12845)" fill="#50E6FF"/>
</g>
<g id="Line">
<use xlink:href="#path20_stroke" transform="matrix(1 -2.67189e-24 2.67189e-24 1 7061.5 -12737.5)" fill="#50E6FF"/>
</g>
</g>
</g>
<defs>
<filter id="filter0_dd" filterUnits="userSpaceOnUse" x="5833" y="-12833" width="1264" height="681" color-interpolation-filters="sRGB">
<feFlood flood-opacity="0" result="BackgroundImageFix"/>
<feColorMatrix in="SourceAlpha" type="matrix" values="0 0 0 0 0 0 0 0 0 0 0 0 0 0 0 0 0 0 255 0"/>
<feOffset dx="5" dy="5"/>
<feGaussianBlur stdDeviation="7.5"/>
<feColorMatrix type="matrix" values="0 0 0 0 0 0 0 0 0 0.350796 0 0 0 0 0.63 0 0 0 1 0"/>
<feBlend mode="normal" in2="BackgroundImageFix" result="effect1_dropShadow"/>
<feColorMatrix in="SourceAlpha" type="matrix" values="0 0 0 0 0 0 0 0 0 0 0 0 0 0 0 0 0 0 255 0"/>
<feOffset dx="0" dy="0"/>
<feGaussianBlur stdDeviation="10"/>
<feColorMatrix type="matrix" values="0 0 0 0 0.095 0 0 0 0 0.153793 0 0 0 0 0.25 0 0 0 1 0"/>
<feBlend mode="normal" in2="effect1_dropShadow" result="effect2_dropShadow"/>
<feBlend mode="normal" in="SourceGraphic" in2="effect2_dropShadow" result="shape"/>
</filter>
<path id="path0_fill" fill-rule="evenodd" d="M 0 0L 1224 0L 1224 640.688L 0 640.688L 0 0Z"/>
<path id="path1_fill" fill-rule="evenodd" d="M 14.3438 1.39062C 14.3438 1.94291 13.896 2.39062 13.3438 2.39062L 1 2.39062C 0.447715 2.39062 0 1.94291 0 1.39062L 0 1C 0 0.447715 0.447715 0 1 0L 13.3438 0C 13.896 0 14.3438 0.447715 14.3438 1L 14.3438 1.39062Z"/>
<path id="path2_fill" d="M 0 1C 0 0.447715 0.447715 0 1 0L 13.3438 0C 13.896 0 14.3438 0.447715 14.3438 1L 14.3438 13.3438C 14.3438 13.896 13.896 14.3438 13.3438 14.3438L 1 14.3438C 0.447715 14.3438 0 13.896 0 13.3438L 0 1Z"/>
<path id="path3_stroke_2x" d="M 1 2L 13.3438 2L 13.3438 -2L 1 -2L 1 2ZM 12.3438 1L 12.3438 13.3438L 16.3438 13.3438L 16.3438 1L 12.3438 1ZM 13.3438 12.3438L 1 12.3438L 1 16.3438L 13.3438 16.3438L 13.3438 12.3438ZM 2 13.3438L 2 1L -2 1L -2 13.3438L 2 13.3438ZM 1 12.3438C 1.55228 12.3438 2 12.7915 2 13.3438L -2 13.3438C -2 15.0006 -0.656854 16.3438 1 16.3438L 1 12.3438ZM 12.3438 13.3438C 12.3438 12.7915 12.7915 12.3438 13.3438 12.3438L 13.3438 16.3438C 15.0006 16.3438 16.3438 15.0006 16.3438 13.3438L 12.3438 13.3438ZM 13.3438 2C 12.7915 2 12.3438 1.55228 12.3438 1L 16.3438 1C 16.3438 -0.656854 15.0006 -2 13.3438 -2L 13.3438 2ZM 1 -2C -0.656854 -2 -2 -0.656854 -2 1L 2 1C 2 1.55228 1.55228 2 1 2L 1 -2Z"/>
<path id="path4_fill" fill-rule="evenodd" d="M 19.125 1.39062C 19.125 1.94291 18.6773 2.39062 18.125 2.39062L 1 2.39062C 0.447715 2.39062 0 1.94291 0 1.39062L 0 1C 0 0.447715 0.447715 0 1 0L 18.125 0C 18.6773 0 19.125 0.447715 19.125 1L 19.125 1.39062Z"/>
<path id="path5_fill" d="M 0 0L 1185.75 0L 1185.75 487.688L 0 487.688L 0 0Z"/>
<path id="path6_fill" fill-rule="evenodd" d="M 1.49414 0C 1.70426 0 1.8988 0.0389095 2.07779 0.11673C 2.25678 0.19455 2.41436 0.301551 2.55054 0.437737C 2.68673 0.573922 2.79373 0.731505 2.87155 0.910492C 2.94937 1.08948 2.98828 1.28403 2.98828 1.49414C 2.98828 1.70426 2.94937 1.8988 2.87155 2.07779C 2.79373 2.25678 2.68673 2.41436 2.55054 2.55054C 2.41436 2.68673 2.25678 2.79373 2.07779 2.87155C 1.8988 2.94937 1.70426 2.98828 1.49414 2.98828C 1.28403 2.98828 1.08948 2.94937 0.910492 2.87155C 0.731505 2.79373 0.573922 2.68673 0.437737 2.55054C 0.301551 2.41436 0.19455 2.25678 0.11673 2.07779C 0.0389095 1.8988 0 1.70426 0 1.49414C 0 1.28403 0.0389095 1.08948 0.11673 0.910492C 0.19455 0.731505 0.301551 0.573922 0.437737 0.437737C 0.573922 0.301551 0.731505 0.19455 0.910492 0.11673C 1.08948 0.0389095 1.28403 0 1.49414 0ZM 10.459 0C 10.6691 0 10.8636 0.0389095 11.0426 0.11673C 11.2216 0.19455 11.3792 0.301551 11.5154 0.437737C 11.6516 0.573922 11.7586 0.731505 11.8364 0.910492C 11.9142 1.08948 11.9531 1.28403 11.9531 1.49414C 11.9531 1.70426 11.9142 1.8988 11.8364 2.07779C 11.7586 2.25678 11.6516 2.41436 11.5154 2.55054C 11.3792 2.68673 11.2216 2.79373 11.0426 2.87155C 10.8636 2.94937 10.6691 2.98828 10.459 2.98828C 10.2489 2.98828 10.0543 2.94937 9.87534 2.87155C 9.69635 2.79373 9.53877 2.68673 9.40258 2.55054C 9.26639 2.41436 9.15939 2.25678 9.08157 2.07779C 9.00375 1.8988 8.96484 1.70426 8.96484 1.49414C 8.96484 1.28403 9.00375 1.08948 9.08157 0.910492C 9.15939 0.731505 9.26639 0.573922 9.40258 0.437737C 9.53877 0.301551 9.69635 0.19455 9.87534 0.11673C 10.0543 0.0389095 10.2489 0 10.459 0ZM 19.4238 0C 19.6339 0 19.8285 0.0389095 20.0075 0.11673C 20.1865 0.19455 20.344 0.301551 20.4802 0.437737C 20.6164 0.573922 20.7234 0.731505 20.8012 0.910492C 20.8791 1.08948 20.918 1.28403 20.918 1.49414C 20.918 1.70426 20.8791 1.8988 20.8012 2.07779C 20.7234 2.25678 20.6164 2.41436 20.4802 2.55054C 20.344 2.68673 20.1865 2.79373 20.0075 2.87155C 19.8285 2.94937 19.6339 2.98828 19.4238 2.98828C 19.2137 2.98828 19.0192 2.94937 18.8402 2.87155C 18.6612 2.79373 18.5036 2.68673 18.3674 2.55054C 18.2312 2.41436 18.1242 2.25678 18.0464 2.07779C 17.9686 1.8988 17.9297 1.70426 17.9297 1.49414C 17.9297 1.28403 17.9686 1.08948 18.0464 0.910492C 18.1242 0.731505 18.2312 0.573922 18.3674 0.437737C 18.5036 0.301551 18.6612 0.19455 18.8402 0.11673C 19.0192 0.0389095 19.2137 0 19.4238 0Z"/>
<path id="path7_fill" d="M 1.10156 13L 1.10156 4.59766L 3.42188 4.59766C 6.38281 4.59766 7.86328 5.96289 7.86328 8.69336C 7.86328 9.99023 7.45117 11.0332 6.62695 11.8223C 5.80664 12.6074 4.70703 13 3.32812 13L 1.10156 13ZM 2.08594 5.48828L 2.08594 12.1094L 3.33984 12.1094C 4.44141 12.1094 5.29883 11.8145 5.91211 11.2246C 6.52539 10.6348 6.83203 9.79883 6.83203 8.7168C 6.83203 6.56445 5.6875 5.48828 3.39844 5.48828L 2.08594 5.48828ZM 14.209 10.2402L 9.97266 10.2402C 9.98828 10.9082 10.168 11.4238 10.5117 11.7871C 10.8555 12.1504 11.3281 12.332 11.9297 12.332C 12.6055 12.332 13.2266 12.1094 13.793 11.6641L 13.793 12.5664C 13.2656 12.9492 12.5684 13.1406 11.7012 13.1406C 10.8535 13.1406 10.1875 12.8691 9.70312 12.3262C 9.21875 11.7793 8.97656 11.0117 8.97656 10.0234C 8.97656 9.08984 9.24023 8.33008 9.76758 7.74414C 10.2988 7.1543 10.957 6.85938 11.7422 6.85938C 12.5273 6.85938 13.1348 7.11328 13.5645 7.62109C 13.9941 8.12891 14.209 8.83398 14.209 9.73633L 14.209 10.2402ZM 13.2246 9.42578C 13.2207 8.87109 13.0859 8.43945 12.8203 8.13086C 12.5586 7.82227 12.1934 7.66797 11.7246 7.66797C 11.2715 7.66797 10.8867 7.83008 10.5703 8.1543C 10.2539 8.47852 10.0586 8.90234 9.98438 9.42578L 13.2246 9.42578ZM 16.6289 13L 15.668 13L 15.668 4.11719L 16.6289 4.11719L 16.6289 13ZM 23.3965 10.2402L 19.1602 10.2402C 19.1758 10.9082 19.3555 11.4238 19.6992 11.7871C 20.043 12.1504 20.5156 12.332 21.1172 12.332C 21.793 12.332 22.4141 12.1094 22.9805 11.6641L 22.9805 12.5664C 22.4531 12.9492 21.7559 13.1406 20.8887 13.1406C 20.041 13.1406 19.375 12.8691 18.8906 12.3262C 18.4062 11.7793 18.1641 11.0117 18.1641 10.0234C 18.1641 9.08984 18.4277 8.33008 18.9551 7.74414C 19.4863 7.1543 20.1445 6.85938 20.9297 6.85938C 21.7148 6.85938 22.3223 7.11328 22.752 7.62109C 23.1816 8.12891 23.3965 8.83398 23.3965 9.73633L 23.3965 10.2402ZM 22.4121 9.42578C 22.4082 8.87109 22.2734 8.43945 22.0078 8.13086C 21.7461 7.82227 21.3809 7.66797 20.9121 7.66797C 20.459 7.66797 20.0742 7.83008 19.7578 8.1543C 19.4414 8.47852 19.2461 8.90234 19.1719 9.42578L 22.4121 9.42578ZM 27.6387 12.9414C 27.4121 13.0664 27.1133 13.1289 26.7422 13.1289C 25.6914 13.1289 25.166 12.543 25.166 11.3711L 25.166 7.82031L 24.1348 7.82031L 24.1348 7L 25.166 7L 25.166 5.53516L 26.127 5.22461L 26.127 7L 27.6387 7L 27.6387 7.82031L 26.127 7.82031L 26.127 11.2012C 26.127 11.6035 26.1953 11.8906 26.332 12.0625C 26.4688 12.2344 26.6953 12.3203 27.0117 12.3203C 27.2539 12.3203 27.4629 12.2539 27.6387 12.1211L 27.6387 12.9414ZM 33.7441 10.2402L 29.5078 10.2402C 29.5234 10.9082 29.7031 11.4238 30.0469 11.7871C 30.3906 12.1504 30.8633 12.332 31.4648 12.332C 32.1406 12.332 32.7617 12.1094 33.3281 11.6641L 33.3281 12.5664C 32.8008 12.9492 32.1035 13.1406 31.2363 13.1406C 30.3887 13.1406 29.7227 12.8691 29.2383 12.3262C 28.7539 11.7793 28.5117 11.0117 28.5117 10.0234C 28.5117 9.08984 28.7754 8.33008 29.3027 7.74414C 29.834 7.1543 30.4922 6.85938 31.2773 6.85938C 32.0625 6.85938 32.6699 7.11328 33.0996 7.62109C 33.5293 8.12891 33.7441 8.83398 33.7441 9.73633L 33.7441 10.2402ZM 32.7598 9.42578C 32.7559 8.87109 32.6211 8.43945 32.3555 8.13086C 32.0937 7.82227 31.7285 7.66797 31.2598 7.66797C 30.8066 7.66797 30.4219 7.83008 30.1055 8.1543C 29.7891 8.47852 29.5937 8.90234 29.5195 9.42578L 32.7598 9.42578Z"/>
<path id="path8_fill" fill-rule="evenodd" d="M 19.4238 4.48242L 17.9297 4.48242L 17.9297 21.665C 17.9297 21.9763 17.8713 22.2681 17.7546 22.5405C 17.6379 22.8129 17.4783 23.0502 17.276 23.2526C 17.0737 23.4549 16.8363 23.6144 16.5639 23.7312C 16.2916 23.8479 15.9998 23.9062 15.6885 23.9062L 3.73535 23.9062C 3.42407 23.9062 3.13225 23.8479 2.85988 23.7312C 2.58751 23.6144 2.35016 23.4549 2.14783 23.2526C 1.94549 23.0502 1.78597 22.8129 1.66924 22.5405C 1.5525 22.2681 1.49414 21.9763 1.49414 21.665L 1.49414 4.48242L 0 4.48242L 0 2.98828L 5.97656 2.98828L 5.97656 1.49414C 5.97656 1.28403 6.01547 1.08948 6.09329 0.910492C 6.17111 0.731505 6.27811 0.573922 6.4143 0.437737C 6.55048 0.301551 6.70807 0.19455 6.88705 0.11673C 7.06604 0.0389095 7.26059 0 7.4707 0L 11.9531 0C 12.1632 0 12.3578 0.0389095 12.5368 0.11673C 12.7158 0.19455 12.8733 0.301551 13.0095 0.437737C 13.1457 0.573922 13.2527 0.731505 13.3305 0.910492C 13.4084 1.08948 13.4473 1.28403 13.4473 1.49414L 13.4473 2.98828L 19.4238 2.98828L 19.4238 4.48242ZM 7.4707 2.98828L 11.9531 2.98828L 11.9531 1.49414L 7.4707 1.49414L 7.4707 2.98828ZM 16.4355 4.48242L 2.98828 4.48242L 2.98828 21.665C 2.98828 21.8674 3.06221 22.0425 3.21007 22.1903C 3.35793 22.3382 3.53302 22.4121 3.73535 22.4121L 15.6885 22.4121C 15.8908 22.4121 16.0659 22.3382 16.2138 22.1903C 16.3616 22.0425 16.4355 21.8674 16.4355 21.665L 16.4355 4.48242ZM 7.4707 19.4238L 5.97656 19.4238L 5.97656 7.4707L 7.4707 7.4707L 7.4707 19.4238ZM 10.459 19.4238L 8.96484 19.4238L 8.96484 7.4707L 10.459 7.4707L 10.459 19.4238ZM 13.4473 19.4238L 11.9531 19.4238L 11.9531 7.4707L 13.4473 7.4707L 13.4473 19.4238Z"/>
<path id="path9_fill" d="M 5.55469 13L 1.10156 13L 1.10156 4.59766L 5.36719 4.59766L 5.36719 5.48828L 2.08594 5.48828L 2.08594 8.2832L 5.12109 8.2832L 5.12109 9.16797L 2.08594 9.16797L 2.08594 12.1094L 5.55469 12.1094L 5.55469 13ZM 12.1641 13L 11.2031 13L 11.2031 11.9805L 11.1797 11.9805C 10.7344 12.7539 10.0469 13.1406 9.11719 13.1406C 8.36328 13.1406 7.75977 12.873 7.30664 12.3379C 6.85742 11.7988 6.63281 11.0664 6.63281 10.1406C 6.63281 9.14844 6.88281 8.35352 7.38281 7.75586C 7.88281 7.1582 8.54883 6.85938 9.38086 6.85938C 10.2051 6.85938 10.8047 7.18359 11.1797 7.83203L 11.2031 7.83203L 11.2031 4.11719L 12.1641 4.11719L 12.1641 13ZM 11.2031 10.2871L 11.2031 9.40234C 11.2031 8.91797 11.043 8.50781 10.7227 8.17188C 10.4023 7.83594 9.99609 7.66797 9.50391 7.66797C 8.91797 7.66797 8.45703 7.88281 8.12109 8.3125C 7.78516 8.74219 7.61719 9.33594 7.61719 10.0938C 7.61719 10.7852 7.77734 11.332 8.09766 11.7344C 8.42188 12.1328 8.85547 12.332 9.39844 12.332C 9.93359 12.332 10.3672 12.1387 10.6992 11.752C 11.0352 11.3652 11.2031 10.877 11.2031 10.2871ZM 14.6016 5.47656C 14.4297 5.47656 14.2832 5.41797 14.1621 5.30078C 14.041 5.18359 13.9805 5.03516 13.9805 4.85547C 13.9805 4.67578 14.041 4.52734 14.1621 4.41016C 14.2832 4.28906 14.4297 4.22852 14.6016 4.22852C 14.7773 4.22852 14.9258 4.28906 15.0469 4.41016C 15.1719 4.52734 15.2344 4.67578 15.2344 4.85547C 15.2344 5.02734 15.1719 5.17383 15.0469 5.29492C 14.9258 5.41602 14.7773 5.47656 14.6016 5.47656ZM 15.0703 13L 14.1094 13L 14.1094 7L 15.0703 7L 15.0703 13ZM 19.7988 12.9414C 19.5723 13.0664 19.2734 13.1289 18.9023 13.1289C 17.8516 13.1289 17.3262 12.543 17.3262 11.3711L 17.3262 7.82031L 16.2949 7.82031L 16.2949 7L 17.3262 7L 17.3262 5.53516L 18.2871 5.22461L 18.2871 7L 19.7988 7L 19.7988 7.82031L 18.2871 7.82031L 18.2871 11.2012C 18.2871 11.6035 18.3555 11.8906 18.4922 12.0625C 18.6289 12.2344 18.8555 12.3203 19.1719 12.3203C 19.4141 12.3203 19.623 12.2539 19.7988 12.1211L 19.7988 12.9414Z"/>
<path id="path10_fill" fill-rule="evenodd" d="M 23.9062 3.91045C 23.9062 4.42406 23.809 4.9221 23.6144 5.40459C 23.4199 5.88707 23.1358 6.31508 22.7623 6.68861L 7.38899 22.0619L 0 23.9062L 1.84433 16.5173L 17.2176 1.14395C 17.5912 0.770414 18.0192 0.486375 18.5017 0.291824C 18.9841 0.0972738 19.4822 0 19.9958 0C 20.5328 0 21.0386 0.10311 21.5133 0.309334C 21.988 0.515557 22.4024 0.795706 22.7565 1.14979C 23.1105 1.50387 23.3907 1.91826 23.5969 2.39296C 23.8031 2.86766 23.9062 3.37349 23.9062 3.91045ZM 3.80542 16.6688C 4.63031 16.9411 5.34041 17.375 5.93574 17.9703C 6.53106 18.5656 6.9649 19.2757 7.23727 20.1006L 19.8558 7.47047L 16.4356 4.05029L 3.80542 16.6688ZM 2.05444 21.8516L 5.89485 20.8945C 5.81703 20.5365 5.69058 20.198 5.51548 19.8789C 5.34038 19.5598 5.12833 19.2758 4.8793 19.0268C 4.63028 18.7778 4.34624 18.5657 4.02718 18.3906C 3.70811 18.2155 3.3696 18.0891 3.01163 18.0112L 2.05444 21.8516ZM 20.918 6.40846C 21.1125 6.21391 21.2993 6.03104 21.4783 5.85983C 21.6573 5.68863 21.8168 5.5077 21.9569 5.31704C 22.097 5.12638 22.2078 4.92016 22.2896 4.69837C 22.3713 4.47658 22.4121 4.21784 22.4121 3.92212C 22.4121 3.58749 22.3479 3.27427 22.2195 2.98244C 22.0911 2.69062 21.916 2.43382 21.6942 2.21203C 21.4724 1.99024 21.2156 1.81515 20.9238 1.68674C 20.632 1.55834 20.3188 1.49414 19.9841 1.49414C 19.6884 1.49414 19.4297 1.535 19.2079 1.61671C 18.9861 1.69842 18.7799 1.80931 18.5892 1.94939C 18.3986 2.08946 18.2176 2.24899 18.0464 2.42798C 17.8752 2.60697 17.6924 2.79373 17.4978 2.98828L 20.918 6.40846Z"/>
<path id="path11_fill" d="M 0.708984 12.6602L 0.708984 11.5C 0.841797 11.6172 1 11.7227 1.18359 11.8164C 1.37109 11.9102 1.56641 11.9902 1.76953 12.0566C 1.97656 12.1191 2.18359 12.168 2.39062 12.2031C 2.59766 12.2383 2.78906 12.2559 2.96484 12.2559C 3.57031 12.2559 4.02148 12.1445 4.31836 11.9219C 4.61914 11.6953 4.76953 11.3711 4.76953 10.9492C 4.76953 10.7227 4.71875 10.5254 4.61719 10.3574C 4.51953 10.1895 4.38281 10.0371 4.20703 9.90039C 4.03125 9.75977 3.82227 9.62695 3.58008 9.50195C 3.3418 9.37305 3.08398 9.23828 2.80664 9.09766C 2.51367 8.94922 2.24023 8.79883 1.98633 8.64648C 1.73242 8.49414 1.51172 8.32617 1.32422 8.14258C 1.13672 7.95898 0.988281 7.75195 0.878906 7.52148C 0.773438 7.28711 0.720703 7.01367 0.720703 6.70117C 0.720703 6.31836 0.804687 5.98633 0.972656 5.70508C 1.14063 5.41992 1.36133 5.18555 1.63477 5.00195C 1.9082 4.81836 2.21875 4.68164 2.56641 4.5918C 2.91797 4.50195 3.27539 4.45703 3.63867 4.45703C 4.4668 4.45703 5.07031 4.55664 5.44922 4.75586L 5.44922 5.86328C 4.95312 5.51953 4.31641 5.34766 3.53906 5.34766C 3.32422 5.34766 3.10938 5.37109 2.89453 5.41797C 2.67969 5.46094 2.48828 5.5332 2.32031 5.63477C 2.15234 5.73633 2.01562 5.86719 1.91016 6.02734C 1.80469 6.1875 1.75195 6.38281 1.75195 6.61328C 1.75195 6.82812 1.79102 7.01367 1.86914 7.16992C 1.95117 7.32617 2.07031 7.46875 2.22656 7.59766C 2.38281 7.72656 2.57227 7.85156 2.79492 7.97266C 3.02148 8.09375 3.28125 8.22656 3.57422 8.37109C 3.875 8.51953 4.16016 8.67578 4.42969 8.83984C 4.69922 9.00391 4.93555 9.18555 5.13867 9.38477C 5.3418 9.58398 5.50195 9.80469 5.61914 10.0469C 5.74023 10.2891 5.80078 10.5664 5.80078 10.8789C 5.80078 11.293 5.71875 11.6445 5.55469 11.9336C 5.39453 12.2188 5.17578 12.4512 4.89844 12.6309C 4.625 12.8105 4.30859 12.9395 3.94922 13.0176C 3.58984 13.0996 3.21094 13.1406 2.8125 13.1406C 2.67969 13.1406 2.51563 13.1289 2.32031 13.1055C 2.125 13.0859 1.92578 13.0547 1.72266 13.0117C 1.51953 12.9727 1.32617 12.9238 1.14258 12.8652C 0.962891 12.8027 0.818359 12.7344 0.708984 12.6602ZM 12.3281 13L 11.3672 13L 11.3672 9.54297C 11.3672 8.29297 10.9023 7.66797 9.97266 7.66797C 9.50391 7.66797 9.10937 7.84961 8.78906 8.21289C 8.46875 8.57227 8.30859 9.03516 8.30859 9.60156L 8.30859 13L 7.34766 13L 7.34766 4.11719L 8.30859 4.11719L 8.30859 7.99609L 8.33203 7.99609C 8.79297 7.23828 9.44922 6.85938 10.3008 6.85938C 11.6523 6.85938 12.3281 7.67383 12.3281 9.30273L 12.3281 13ZM 18.4395 13L 17.4785 13L 17.4785 12.0625L 17.4551 12.0625C 17.0371 12.7813 16.4219 13.1406 15.6094 13.1406C 15.0117 13.1406 14.543 12.9824 14.2031 12.666C 13.8672 12.3496 13.6992 11.9297 13.6992 11.4062C 13.6992 10.2852 14.3594 9.63281 15.6797 9.44922L 17.4785 9.19727C 17.4785 8.17773 17.0664 7.66797 16.2422 7.66797C 15.5195 7.66797 14.8672 7.91406 14.2852 8.40625L 14.2852 7.42188C 14.875 7.04688 15.5547 6.85938 16.3242 6.85938C 17.7344 6.85938 18.4395 7.60547 18.4395 9.09766L 18.4395 13ZM 17.4785 9.96484L 16.0312 10.1641C 15.5859 10.2266 15.25 10.3379 15.0234 10.498C 14.7969 10.6543 14.6836 10.9336 14.6836 11.3359C 14.6836 11.6289 14.7871 11.8691 14.9941 12.0566C 15.2051 12.2402 15.4844 12.332 15.832 12.332C 16.3086 12.332 16.7012 12.166 17.0098 11.834C 17.3223 11.498 17.4785 11.0742 17.4785 10.5625L 17.4785 9.96484ZM 23.3789 7.97266C 23.2109 7.84375 22.9688 7.7793 22.6523 7.7793C 22.2422 7.7793 21.8984 7.97266 21.6211 8.35938C 21.3477 8.74609 21.2109 9.27344 21.2109 9.94141L 21.2109 13L 20.25 13L 20.25 7L 21.2109 7L 21.2109 8.23633L 21.2344 8.23633C 21.3711 7.81445 21.5801 7.48633 21.8613 7.25195C 22.1426 7.01367 22.457 6.89453 22.8047 6.89453C 23.0547 6.89453 23.2461 6.92187 23.3789 6.97656L 23.3789 7.97266ZM 29.2441 10.2402L 25.0078 10.2402C 25.0234 10.9082 25.2031 11.4238 25.5469 11.7871C 25.8906 12.1504 26.3633 12.332 26.9648 12.332C 27.6406 12.332 28.2617 12.1094 28.8281 11.6641L 28.8281 12.5664C 28.3008 12.9492 27.6035 13.1406 26.7363 13.1406C 25.8887 13.1406 25.2227 12.8691 24.7383 12.3262C 24.2539 11.7793 24.0117 11.0117 24.0117 10.0234C 24.0117 9.08984 24.2754 8.33008 24.8027 7.74414C 25.334 7.1543 25.9922 6.85938 26.7773 6.85938C 27.5625 6.85938 28.1699 7.11328 28.5996 7.62109C 29.0293 8.12891 29.2441 8.83398 29.2441 9.73633L 29.2441 10.2402ZM 28.2598 9.42578C 28.2559 8.87109 28.1211 8.43945 27.8555 8.13086C 27.5937 7.82227 27.2285 7.66797 26.7598 7.66797C 26.3066 7.66797 25.9219 7.83008 25.6055 8.1543C 25.2891 8.47852 25.0937 8.90234 25.0195 9.42578L 28.2598 9.42578Z"/>
<path id="path12_fill" fill-rule="evenodd" d="M 22.1903 15.5367C 22.4549 15.7079 22.6942 15.9083 22.9082 16.1379C 23.1222 16.3675 23.3031 16.6184 23.451 16.8908C 23.5989 17.1632 23.7117 17.4511 23.7895 17.7546C 23.8673 18.0581 23.9062 18.3655 23.9062 18.6768C 23.9062 19.1904 23.807 19.6728 23.6086 20.1242C 23.4101 20.5756 23.1417 20.9705 22.8032 21.309C 22.4646 21.6475 22.0697 21.916 21.6183 22.1144C 21.167 22.3129 20.6845 22.4121 20.1709 22.4121C 19.455 22.4121 18.7935 22.2215 18.1865 21.8401C 17.2916 22.5172 16.3091 23.0308 15.2391 23.381C 14.169 23.7312 13.0737 23.9062 11.9531 23.9062C 10.8325 23.9062 9.73721 23.7312 8.66718 23.381C 7.59716 23.0308 6.61469 22.5172 5.71976 21.8401C 5.11276 22.2215 4.4513 22.4121 3.73535 22.4121C 3.22174 22.4121 2.73926 22.3129 2.2879 22.1144C 1.83655 21.916 1.44161 21.6475 1.1031 21.309C 0.764578 20.9705 0.496102 20.5756 0.297661 20.1242C 0.0992193 19.6728 0 19.1904 0 18.6768C 0 18.3655 0.0389095 18.0581 0.11673 17.7546C 0.19455 17.4511 0.307388 17.1632 0.455246 16.8908C 0.603104 16.6184 0.784034 16.3675 0.998039 16.1379C 1.21204 15.9083 1.45134 15.7079 1.71593 15.5367C 1.63811 15.1865 1.58169 14.8383 1.54667 14.492C 1.51165 14.1457 1.49414 13.7975 1.49414 13.4473C 1.49414 12.3733 1.65562 11.3325 1.97857 10.3247C 2.30152 9.31697 2.75676 8.38315 3.34431 7.52323C 3.93185 6.66332 4.63806 5.90264 5.46295 5.24117C 6.28785 4.57969 7.20611 4.05831 8.21777 3.67699C 8.22556 3.17116 8.32867 2.69451 8.52711 2.24705C 8.72555 1.79958 8.99402 1.41049 9.33254 1.07975C 9.67106 0.749014 10.066 0.486375 10.5173 0.291824C 10.9687 0.0972738 11.4473 0 11.9531 0C 12.459 0 12.9375 0.0972738 13.3889 0.291824C 13.8403 0.486375 14.2352 0.749014 14.5737 1.07975C 14.9122 1.41049 15.1807 1.79958 15.3791 2.24705C 15.5776 2.69451 15.6807 3.17116 15.6885 3.67699C 16.7001 4.05831 17.6184 4.57969 18.4433 5.24117C 19.2682 5.90264 19.9744 6.66332 20.5619 7.52323C 21.1495 8.38315 21.6047 9.31697 21.9277 10.3247C 22.2506 11.3325 22.4121 12.3733 22.4121 13.4473C 22.4121 13.7975 22.3946 14.1457 22.3596 14.492C 22.3246 14.8383 22.2681 15.1865 22.1903 15.5367ZM 11.9531 1.49414C 11.6418 1.49414 11.35 1.5525 11.0777 1.66924C 10.8053 1.78597 10.5679 1.94549 10.3656 2.14783C 10.1633 2.35016 10.0037 2.58751 9.88701 2.85988C 9.77028 3.13225 9.71191 3.42407 9.71191 3.73535C 9.71191 4.04663 9.77028 4.33845 9.88701 4.61082C 10.0037 4.8832 10.1633 5.12054 10.3656 5.32288C 10.5679 5.52521 10.8053 5.68474 11.0777 5.80147C 11.35 5.9182 11.6418 5.97656 11.9531 5.97656C 12.2644 5.97656 12.5562 5.9182 12.8286 5.80147C 13.101 5.68474 13.3383 5.52521 13.5406 5.32288C 13.743 5.12054 13.9025 4.8832 14.0192 4.61082C 14.136 4.33845 14.1943 4.04663 14.1943 3.73535C 14.1943 3.42407 14.136 3.13225 14.0192 2.85988C 13.9025 2.58751 13.743 2.35016 13.5406 2.14783C 13.3383 1.94549 13.101 1.78597 12.8286 1.66924C 12.5562 1.5525 12.2644 1.49414 11.9531 1.49414ZM 1.49414 18.6768C 1.49414 18.988 1.5525 19.2799 1.66924 19.5522C 1.78597 19.8246 1.94549 20.0619 2.14783 20.2643C 2.35016 20.4666 2.58751 20.6261 2.85988 20.7429C 3.13225 20.8596 3.42407 20.918 3.73535 20.918C 4.04663 20.918 4.33845 20.8596 4.61082 20.7429C 4.8832 20.6261 5.12054 20.4666 5.32288 20.2643C 5.52521 20.0619 5.68474 19.8246 5.80147 19.5522C 5.9182 19.2799 5.97656 18.988 5.97656 18.6768C 5.97656 18.3655 5.9182 18.0737 5.80147 17.8013C 5.68474 17.5289 5.52521 17.2916 5.32288 17.0892C 5.12054 16.8869 4.8832 16.7274 4.61082 16.6106C 4.33845 16.4939 4.04663 16.4355 3.73535 16.4355C 3.42407 16.4355 3.13225 16.4939 2.85988 16.6106C 2.58751 16.7274 2.35016 16.8869 2.14783 17.0892C 1.94549 17.2916 1.78597 17.5289 1.66924 17.8013C 1.5525 18.0737 1.49414 18.3655 1.49414 18.6768ZM 11.9531 22.4119C 12.8714 22.4119 13.7683 22.2738 14.6437 21.9975C 15.5192 21.7212 16.3344 21.3185 17.0892 20.7893C 16.8791 20.4781 16.7176 20.1415 16.6048 19.7796C 16.492 19.4178 16.4355 19.0501 16.4355 18.6765C 16.4355 18.1629 16.5348 17.6804 16.7332 17.2291C 16.9317 16.7777 17.2001 16.3828 17.5386 16.0443C 17.8772 15.7058 18.2721 15.4373 18.7234 15.2388C 19.1748 15.0404 19.6573 14.9412 20.1709 14.9412C 20.2721 14.9412 20.3732 14.9451 20.4744 14.9529C 20.5756 14.9606 20.6767 14.9723 20.7779 14.9879C 20.8713 14.4743 20.918 13.9607 20.918 13.447C 20.918 12.5365 20.7876 11.6591 20.5269 10.8148C 20.2662 9.97043 19.8966 9.18835 19.418 8.46851C 18.9394 7.74868 18.3596 7.10667 17.6787 6.54247C 16.9978 5.97828 16.2371 5.52109 15.3967 5.1709C 15.2566 5.51331 15.0679 5.82653 14.8305 6.11057C 14.5932 6.39462 14.3227 6.6378 14.0192 6.84013C 13.7157 7.04247 13.3889 7.1981 13.0387 7.30705C 12.6885 7.416 12.3267 7.47047 11.9531 7.47047C 11.5796 7.47047 11.2177 7.416 10.8675 7.30705C 10.5173 7.1981 10.1905 7.04247 9.88701 6.84013C 9.58351 6.6378 9.31309 6.39462 9.07574 6.11057C 8.83839 5.82653 8.64967 5.51331 8.5096 5.1709C 7.66914 5.52109 6.90846 5.97828 6.22753 6.54247C 5.5466 7.10667 4.96685 7.74868 4.48826 8.46851C 4.00966 9.18835 3.64002 9.97043 3.37933 10.8148C 3.11863 11.6591 2.98828 12.5365 2.98828 13.447C 2.98828 13.9607 3.03497 14.4743 3.12836 14.9879C 3.68866 14.8945 4.23145 14.9256 4.75674 15.0813C 5.28202 15.2369 5.74505 15.4879 6.14582 15.8342C 6.54659 16.1805 6.8676 16.5987 7.10884 17.089C 7.35008 17.5793 7.4707 18.1084 7.4707 18.6765C 7.4707 19.0501 7.41428 19.4178 7.30145 19.7796C 7.18861 20.1415 7.02713 20.4781 6.81702 20.7893C 7.57187 21.3185 8.38703 21.7212 9.2625 21.9975C 10.138 22.2738 11.0348 22.4119 11.9531 22.4119ZM 20.1709 20.918C 20.4822 20.918 20.774 20.8596 21.0464 20.7429C 21.3187 20.6261 21.5561 20.4666 21.7584 20.2643C 21.9608 20.0619 22.1203 19.8246 22.237 19.5522C 22.3537 19.2799 22.4121 18.988 22.4121 18.6768C 22.4121 18.3655 22.3537 18.0737 22.237 17.8013C 22.1203 17.5289 21.9608 17.2916 21.7584 17.0892C 21.5561 16.8869 21.3187 16.7274 21.0464 16.6106C 20.774 16.4939 20.4822 16.4355 20.1709 16.4355C 19.8596 16.4355 19.5678 16.4939 19.2954 16.6106C 19.0231 16.7274 18.7857 16.8869 18.5834 17.0892C 18.381 17.2916 18.2215 17.5289 18.1048 17.8013C 17.9881 18.0737 17.9297 18.3655 17.9297 18.6768C 17.9297 18.988 17.9881 19.2799 18.1048 19.5522C 18.2215 19.8246 18.381 20.0619 18.5834 20.2643C 18.7857 20.4666 19.0231 20.6261 19.2954 20.7429C 19.5678 20.8596 19.8596 20.918 20.1709 20.918Z"/>
<path id="path13_fill" d="M 0 0L 288 0L 288 57L 0 57L 0 0Z"/>
<path id="path14_stroke_2x" d="M 0 0L 0 -2L -2 -2L -2 0L 0 0ZM 288 0L 290 0L 290 -2L 288 -2L 288 0ZM 288 57L 288 59L 290 59L 290 57L 288 57ZM 0 57L -2 57L -2 59L 0 59L 0 57ZM 0 2L 288 2L 288 -2L 0 -2L 0 2ZM 286 0L 286 57L 290 57L 290 0L 286 0ZM 288 55L 0 55L 0 59L 288 59L 288 55ZM 2 57L 2 0L -2 0L -2 57L 2 57Z"/>
<path id="path15_fill" d="M 0 0L 51 0L 51 57L 0 57L 0 0Z"/>
<path id="path16_stroke_2x" d="M 0 0L 0 -2L -2 -2L -2 0L 0 0ZM 51 0L 53 0L 53 -2L 51 -2L 51 0ZM 51 57L 51 59L 53 59L 53 57L 51 57ZM 0 57L -2 57L -2 59L 0 59L 0 57ZM 0 2L 51 2L 51 -2L 0 -2L 0 2ZM 49 0L 49 57L 53 57L 53 0L 49 0ZM 51 55L 0 55L 0 59L 51 59L 51 55ZM 2 57L 2 0L -2 0L -2 57L 2 57Z"/>
<path id="path17_fill" d="M 23.0449 16.9219L 23.0449 22L 20.7305 22L 20.7305 7.99609L 24.9785 7.99609C 26.5866 7.99609 27.8333 8.37044 28.7188 9.11914C 29.6042 9.86784 30.0469 10.9225 30.0469 12.2832C 30.0469 13.6439 29.5846 14.7572 28.6602 15.623C 27.7357 16.4889 26.4857 16.9219 24.9102 16.9219L 23.0449 16.9219ZM 23.0449 9.91016L 23.0449 15.0273L 24.5488 15.0273C 25.5449 15.0273 26.3034 14.7962 26.8242 14.334C 27.3451 13.8717 27.6055 13.2207 27.6055 12.3809C 27.6055 10.7337 26.6484 9.91016 24.7344 9.91016L 23.0449 9.91016ZM 37.9766 14.1582C 37.7031 13.9434 37.3092 13.8359 36.7949 13.8359C 36.1243 13.8359 35.5645 14.1387 35.1152 14.7441C 34.666 15.3496 34.4414 16.1732 34.4414 17.2148L 34.4414 22L 32.1758 22L 32.1758 12L 34.4414 12L 34.4414 14.0605L 34.4805 14.0605C 34.7018 13.3574 35.0404 12.8105 35.4961 12.4199C 35.9583 12.0228 36.4727 11.8242 37.0391 11.8242C 37.4492 11.8242 37.7617 11.8861 37.9766 12.0098L 37.9766 14.1582ZM 40.7207 9.90039C 40.3496 9.90039 40.0306 9.77995 39.7637 9.53906C 39.5033 9.29818 39.373 8.99219 39.373 8.62109C 39.373 8.25 39.5033 7.94076 39.7637 7.69336C 40.0306 7.44596 40.3496 7.32227 40.7207 7.32227C 41.1048 7.32227 41.4303 7.44596 41.6973 7.69336C 41.9642 7.94076 42.0977 8.25 42.0977 8.62109C 42.0977 8.97266 41.9642 9.27539 41.6973 9.5293C 41.4303 9.77669 41.1048 9.90039 40.7207 9.90039ZM 41.8438 22L 39.5781 22L 39.5781 12L 41.8438 12L 41.8438 22ZM 59.7637 22L 57.498 22L 57.498 16.5508C 57.498 15.5026 57.3483 14.7441 57.0488 14.2754C 56.7559 13.8066 56.2578 13.5723 55.5547 13.5723C 54.9622 13.5723 54.4577 13.8685 54.041 14.4609C 53.6309 15.0534 53.4258 15.763 53.4258 16.5898L 53.4258 22L 51.1504 22L 51.1504 16.3652C 51.1504 14.5033 50.4928 13.5723 49.1777 13.5723C 48.5658 13.5723 48.0612 13.8522 47.6641 14.4121C 47.2734 14.972 47.0781 15.6979 47.0781 16.5898L 47.0781 22L 44.8125 22L 44.8125 12L 47.0781 12L 47.0781 13.582L 47.1172 13.582C 47.8398 12.3711 48.8913 11.7656 50.2715 11.7656C 50.9616 11.7656 51.5638 11.9577 52.0781 12.3418C 52.599 12.7194 52.9538 13.2174 53.1426 13.8359C 53.8848 12.4557 54.9915 11.7656 56.4629 11.7656C 58.6634 11.7656 59.7637 13.123 59.7637 15.8379L 59.7637 22ZM 70.2031 22L 68.0059 22L 68.0059 20.4375L 67.9668 20.4375C 67.2767 21.6354 66.2643 22.2344 64.9297 22.2344C 63.9466 22.2344 63.1751 21.9674 62.6152 21.4336C 62.0618 20.8997 61.7852 20.1934 61.7852 19.3145C 61.7852 17.4264 62.8724 16.3262 65.0469 16.0137L 68.0156 15.5938C 68.0156 14.168 67.3385 13.4551 65.9844 13.4551C 64.793 13.4551 63.7188 13.8652 62.7617 14.6855L 62.7617 12.7031C 63.8164 12.0781 65.0339 11.7656 66.4141 11.7656C 68.9401 11.7656 70.2031 13.0091 70.2031 15.4961L 70.2031 22ZM 68.0156 17.0879L 65.916 17.3809C 65.265 17.4655 64.7734 17.625 64.4414 17.8594C 64.1159 18.0872 63.9531 18.4909 63.9531 19.0703C 63.9531 19.4935 64.1029 19.8418 64.4023 20.1152C 64.7083 20.3822 65.1152 20.5156 65.623 20.5156C 66.3132 20.5156 66.8828 20.2747 67.332 19.793C 67.7878 19.3047 68.0156 18.6927 68.0156 17.957L 68.0156 17.0879ZM 78.7773 14.1582C 78.5039 13.9434 78.11 13.8359 77.5957 13.8359C 76.9251 13.8359 76.3652 14.1387 75.916 14.7441C 75.4668 15.3496 75.2422 16.1732 75.2422 17.2148L 75.2422 22L 72.9766 22L 72.9766 12L 75.2422 12L 75.2422 14.0605L 75.2812 14.0605C 75.5026 13.3574 75.8411 12.8105 76.2969 12.4199C 76.7591 12.0228 77.2734 11.8242 77.8398 11.8242C 78.25 11.8242 78.5625 11.8861 78.7773 12.0098L 78.7773 14.1582ZM 89.8418 12L 85.3301 23.6016C 84.3926 25.6719 83.0775 26.707 81.3848 26.707C 80.9095 26.707 80.5124 26.6647 80.1934 26.5801L 80.1934 24.6953C 80.5514 24.8125 80.877 24.8711 81.1699 24.8711C 82.0163 24.8711 82.6478 24.4544 83.0645 23.6211L 83.7383 21.9805L 79.7637 12L 82.2734 12L 84.6562 19.2656C 84.6823 19.3568 84.7409 19.5977 84.832 19.9883L 84.8809 19.9883C 84.9134 19.8385 84.972 19.6042 85.0566 19.2852L 87.5566 12L 89.8418 12ZM 104.021 21.541C 103.221 22.0033 102.273 22.2344 101.18 22.2344C 99.6953 22.2344 98.4974 21.7721 97.5859 20.8477C 96.6745 19.9167 96.2188 18.7122 96.2188 17.2344C 96.2188 15.5872 96.707 14.2656 97.6836 13.2695C 98.6667 12.2669 99.9785 11.7656 101.619 11.7656C 102.531 11.7656 103.335 11.9251 104.031 12.2441L 104.031 14.3535C 103.335 13.8327 102.592 13.5723 101.805 13.5723C 100.848 13.5723 100.063 13.8978 99.4512 14.5488C 98.8392 15.1934 98.5332 16.0397 98.5332 17.0879C 98.5332 18.123 98.8197 18.9401 99.3926 19.5391C 99.972 20.138 100.747 20.4375 101.717 20.4375C 102.531 20.4375 103.299 20.1478 104.021 19.5684L 104.021 21.541ZM 110.711 22.2344C 109.168 22.2344 107.934 21.7689 107.01 20.8379C 106.092 19.9004 105.633 18.6602 105.633 17.1172C 105.633 15.4375 106.111 14.1257 107.068 13.1816C 108.032 12.2376 109.327 11.7656 110.955 11.7656C 112.518 11.7656 113.735 12.2246 114.607 13.1426C 115.48 14.0605 115.916 15.3333 115.916 16.9609C 115.916 18.556 115.444 19.8353 114.5 20.7988C 113.562 21.7559 112.299 22.2344 110.711 22.2344ZM 110.818 13.5723C 109.933 13.5723 109.233 13.8815 108.719 14.5C 108.204 15.1185 107.947 15.9714 107.947 17.0586C 107.947 18.1068 108.208 18.9336 108.729 19.5391C 109.249 20.138 109.946 20.4375 110.818 20.4375C 111.71 20.4375 112.394 20.1413 112.869 19.5488C 113.351 18.9564 113.592 18.1133 113.592 17.0195C 113.592 15.9193 113.351 15.0697 112.869 14.4707C 112.394 13.8717 111.71 13.5723 110.818 13.5723ZM 133.182 22L 130.916 22L 130.916 16.5508C 130.916 15.5026 130.766 14.7441 130.467 14.2754C 130.174 13.8066 129.676 13.5723 128.973 13.5723C 128.38 13.5723 127.876 13.8685 127.459 14.4609C 127.049 15.0534 126.844 15.763 126.844 16.5898L 126.844 22L 124.568 22L 124.568 16.3652C 124.568 14.5033 123.911 13.5723 122.596 13.5723C 121.984 13.5723 121.479 13.8522 121.082 14.4121C 120.691 14.972 120.496 15.6979 120.496 16.5898L 120.496 22L 118.23 22L 118.23 12L 120.496 12L 120.496 13.582L 120.535 13.582C 121.258 12.3711 122.309 11.7656 123.689 11.7656C 124.38 11.7656 124.982 11.9577 125.496 12.3418C 126.017 12.7194 126.372 13.2174 126.561 13.8359C 127.303 12.4557 128.41 11.7656 129.881 11.7656C 132.081 11.7656 133.182 13.123 133.182 15.8379L 133.182 22ZM 150.896 22L 148.631 22L 148.631 16.5508C 148.631 15.5026 148.481 14.7441 148.182 14.2754C 147.889 13.8066 147.391 13.5723 146.688 13.5723C 146.095 13.5723 145.59 13.8685 145.174 14.4609C 144.764 15.0534 144.559 15.763 144.559 16.5898L 144.559 22L 142.283 22L 142.283 16.3652C 142.283 14.5033 141.626 13.5723 140.311 13.5723C 139.699 13.5723 139.194 13.8522 138.797 14.4121C 138.406 14.972 138.211 15.6979 138.211 16.5898L 138.211 22L 135.945 22L 135.945 12L 138.211 12L 138.211 13.582L 138.25 13.582C 138.973 12.3711 140.024 11.7656 141.404 11.7656C 142.094 11.7656 142.697 11.9577 143.211 12.3418C 143.732 12.7194 144.087 13.2174 144.275 13.8359C 145.018 12.4557 146.124 11.7656 147.596 11.7656C 149.796 11.7656 150.896 13.123 150.896 15.8379L 150.896 22ZM 161.336 22L 159.139 22L 159.139 20.4375L 159.1 20.4375C 158.41 21.6354 157.397 22.2344 156.062 22.2344C 155.079 22.2344 154.308 21.9674 153.748 21.4336C 153.195 20.8997 152.918 20.1934 152.918 19.3145C 152.918 17.4264 154.005 16.3262 156.18 16.0137L 159.148 15.5938C 159.148 14.168 158.471 13.4551 157.117 13.4551C 155.926 13.4551 154.852 13.8652 153.895 14.6855L 153.895 12.7031C 154.949 12.0781 156.167 11.7656 157.547 11.7656C 160.073 11.7656 161.336 13.0091 161.336 15.4961L 161.336 22ZM 159.148 17.0879L 157.049 17.3809C 156.398 17.4655 155.906 17.625 155.574 17.8594C 155.249 18.0872 155.086 18.4909 155.086 19.0703C 155.086 19.4935 155.236 19.8418 155.535 20.1152C 155.841 20.3822 156.248 20.5156 156.756 20.5156C 157.446 20.5156 158.016 20.2747 158.465 19.793C 158.921 19.3047 159.148 18.6927 159.148 17.957L 159.148 17.0879ZM 173.016 22L 170.75 22L 170.75 16.3652C 170.75 14.4967 170.089 13.5625 168.768 13.5625C 168.077 13.5625 167.508 13.8229 167.059 14.3438C 166.609 14.8581 166.385 15.5091 166.385 16.2969L 166.385 22L 164.109 22L 164.109 12L 166.385 12L 166.385 13.6602L 166.424 13.6602C 167.173 12.3971 168.253 11.7656 169.666 11.7656C 170.753 11.7656 171.583 12.1204 172.156 12.8301C 172.729 13.5332 173.016 14.5521 173.016 15.8867L 173.016 22ZM 184.881 22L 182.615 22L 182.615 20.3008L 182.576 20.3008C 181.847 21.5898 180.724 22.2344 179.207 22.2344C 177.977 22.2344 176.99 21.7884 176.248 20.8965C 175.512 19.998 175.145 18.7773 175.145 17.2344C 175.145 15.5807 175.551 14.2559 176.365 13.2598C 177.186 12.2637 178.276 11.7656 179.637 11.7656C 180.984 11.7656 181.964 12.306 182.576 13.3867L 182.615 13.3867L 182.615 7.19531L 184.881 7.19531L 184.881 22ZM 182.645 17.4297L 182.645 16.1211C 182.645 15.4115 182.413 14.8092 181.951 14.3145C 181.489 13.8197 180.9 13.5723 180.184 13.5723C 179.337 13.5723 178.67 13.888 178.182 14.5195C 177.7 15.151 177.459 16.0267 177.459 17.1465C 177.459 18.1621 177.69 18.9661 178.152 19.5586C 178.621 20.1445 179.249 20.4375 180.037 20.4375C 180.812 20.4375 181.44 20.1543 181.922 19.5879C 182.404 19.015 182.645 18.2956 182.645 17.4297ZM 187.215 21.6875L 187.215 19.5879C 188.061 20.2324 188.995 20.5547 190.018 20.5547C 191.385 20.5547 192.068 20.151 192.068 19.3438C 192.068 19.1159 192.01 18.9238 191.893 18.7676C 191.775 18.6048 191.616 18.4616 191.414 18.3379C 191.219 18.2142 190.984 18.1035 190.711 18.0059C 190.444 17.9082 190.145 17.7975 189.812 17.6738C 189.402 17.5111 189.031 17.3385 188.699 17.1562C 188.374 16.974 188.1 16.7689 187.879 16.541C 187.664 16.3066 187.501 16.043 187.391 15.75C 187.28 15.457 187.225 15.1152 187.225 14.7246C 187.225 14.2428 187.339 13.8197 187.566 13.4551C 187.794 13.084 188.1 12.7747 188.484 12.5273C 188.868 12.2734 189.305 12.0846 189.793 11.9609C 190.281 11.8307 190.786 11.7656 191.307 11.7656C 192.231 11.7656 193.058 11.9056 193.787 12.1855L 193.787 14.168C 193.084 13.6862 192.277 13.4453 191.365 13.4453C 191.079 13.4453 190.818 13.4746 190.584 13.5332C 190.356 13.5918 190.161 13.6732 189.998 13.7773C 189.835 13.8815 189.708 14.0085 189.617 14.1582C 189.526 14.3014 189.48 14.4609 189.48 14.6367C 189.48 14.8516 189.526 15.0339 189.617 15.1836C 189.708 15.3333 189.842 15.4668 190.018 15.584C 190.2 15.6947 190.415 15.7988 190.662 15.8965C 190.916 15.9876 191.206 16.0885 191.531 16.1992C 191.961 16.375 192.345 16.554 192.684 16.7363C 193.029 16.9186 193.322 17.127 193.562 17.3613C 193.803 17.5892 193.989 17.8561 194.119 18.1621C 194.249 18.4616 194.314 18.8197 194.314 19.2363C 194.314 19.7441 194.197 20.1868 193.963 20.5645C 193.729 20.9421 193.416 21.2546 193.025 21.502C 192.635 21.7493 192.182 21.9316 191.668 22.0488C 191.16 22.1725 190.623 22.2344 190.057 22.2344C 188.963 22.2344 188.016 22.0521 187.215 21.6875Z"/>
<path id="path18_fill" d="M 7.5 22.2344C 5.48177 22.2344 3.86393 21.5801 2.64648 20.2715C 1.43555 18.9629 0.830078 17.2604 0.830078 15.1641C 0.830078 12.9115 1.44857 11.1146 2.68555 9.77344C 3.92253 8.43229 5.60221 7.76172 7.72461 7.76172C 9.69076 7.76172 11.2728 8.41276 12.4707 9.71484C 13.6751 11.0169 14.2773 12.7194 14.2773 14.8223C 14.2773 17.1074 13.6621 18.9141 12.4316 20.2422C 11.2012 21.5703 9.55729 22.2344 7.5 22.2344ZM 7.60742 9.80273C 6.32487 9.80273 5.27995 10.2812 4.47266 11.2383C 3.67188 12.1953 3.27148 13.4551 3.27148 15.0176C 3.27148 16.5736 3.66211 17.8268 4.44336 18.7773C 5.22461 19.7279 6.24674 20.2031 7.50977 20.2031C 8.85091 20.2031 9.90885 19.7507 10.6836 18.8457C 11.4583 17.9408 11.8457 16.6745 11.8457 15.0469C 11.8457 13.3737 11.4681 12.0814 10.7129 11.1699C 9.96419 10.2585 8.92904 9.80273 7.60742 9.80273ZM 25.2051 12L 21.3379 22L 18.8867 22L 15.2051 12L 17.666 12L 19.8828 18.9922C 20.0521 19.5065 20.1562 19.9557 20.1953 20.3398L 20.2246 20.3398C 20.2832 19.8581 20.3743 19.4219 20.498 19.0312L 22.8223 12L 25.2051 12ZM 35.0586 17.6152L 28.2422 17.6152C 28.2682 18.5397 28.5514 19.2526 29.0918 19.7539C 29.6387 20.2552 30.3874 20.5059 31.3379 20.5059C 32.4056 20.5059 33.3854 20.1868 34.2773 19.5488L 34.2773 21.375C 33.3659 21.9479 32.1615 22.2344 30.6641 22.2344C 29.1927 22.2344 28.0371 21.7819 27.1973 20.877C 26.3639 19.9655 25.9473 18.6862 25.9473 17.0391C 25.9473 15.4831 26.4062 14.2168 27.3242 13.2402C 28.2487 12.2572 29.3945 11.7656 30.7617 11.7656C 32.1289 11.7656 33.1868 12.2051 33.9355 13.084C 34.6842 13.9629 35.0586 15.1836 35.0586 16.7461L 35.0586 17.6152ZM 32.8711 16.0137C 32.8646 15.1999 32.6725 14.5684 32.2949 14.1191C 31.9173 13.6634 31.3965 13.4355 30.7324 13.4355C 30.0814 13.4355 29.528 13.6732 29.0723 14.1484C 28.623 14.6237 28.3464 15.2454 28.2422 16.0137L 32.8711 16.0137ZM 43.0176 14.1582C 42.7441 13.9434 42.3503 13.8359 41.8359 13.8359C 41.1654 13.8359 40.6055 14.1387 40.1562 14.7441C 39.707 15.3496 39.4824 16.1732 39.4824 17.2148L 39.4824 22L 37.2168 22L 37.2168 12L 39.4824 12L 39.4824 14.0605L 39.5215 14.0605C 39.7428 13.3574 40.0814 12.8105 40.5371 12.4199C 40.9993 12.0228 41.5137 11.8242 42.0801 11.8242C 42.4902 11.8242 42.8027 11.8861 43.0176 12.0098L 43.0176 14.1582ZM 50.7031 9.04102C 50.3971 8.86523 50.0488 8.77734 49.6582 8.77734C 48.5579 8.77734 48.0078 9.39909 48.0078 10.6426L 48.0078 12L 50.332 12L 50.332 13.7773L 48.0176 13.7773L 48.0176 22L 45.752 22L 45.752 13.7773L 44.043 13.7773L 44.043 12L 45.752 12L 45.752 10.3789C 45.752 9.32422 46.097 8.49414 46.7871 7.88867C 47.4772 7.27669 48.3398 6.9707 49.375 6.9707C 49.9349 6.9707 50.3776 7.03255 50.7031 7.15625L 50.7031 9.04102ZM 54.2188 22L 51.9434 22L 51.9434 7.19531L 54.2188 7.19531L 54.2188 22ZM 61.6113 22.2344C 60.0684 22.2344 58.8346 21.7689 57.9102 20.8379C 56.9922 19.9004 56.5332 18.6602 56.5332 17.1172C 56.5332 15.4375 57.0117 14.1257 57.9688 13.1816C 58.9323 12.2376 60.2279 11.7656 61.8555 11.7656C 63.418 11.7656 64.6354 12.2246 65.5078 13.1426C 66.3802 14.0605 66.8164 15.3333 66.8164 16.9609C 66.8164 18.556 66.3444 19.8353 65.4004 20.7988C 64.4629 21.7559 63.1999 22.2344 61.6113 22.2344ZM 61.7188 13.5723C 60.8333 13.5723 60.1335 13.8815 59.6191 14.5C 59.1048 15.1185 58.8477 15.9714 58.8477 17.0586C 58.8477 18.1068 59.1081 18.9336 59.6289 19.5391C 60.1497 20.138 60.8464 20.4375 61.7188 20.4375C 62.6107 20.4375 63.2943 20.1413 63.7695 19.5488C 64.2513 18.9564 64.4922 18.1133 64.4922 17.0195C 64.4922 15.9193 64.2513 15.0697 63.7695 14.4707C 63.2943 13.8717 62.6107 13.5723 61.7188 13.5723ZM 82.5781 12L 79.6289 22L 77.2559 22L 75.4395 15.2227C 75.3678 14.9622 75.3223 14.6693 75.3027 14.3438L 75.2637 14.3438C 75.2507 14.5651 75.1921 14.8516 75.0879 15.2031L 73.1152 22L 70.791 22L 67.8516 12L 70.1953 12L 72.0117 19.207C 72.0703 19.4219 72.1094 19.7083 72.1289 20.0664L 72.1973 20.0664C 72.2168 19.793 72.2689 19.5 72.3535 19.1875L 74.375 12L 76.5039 12L 78.3008 19.2363C 78.3594 19.4642 78.4017 19.7507 78.4277 20.0957L 78.4961 20.0957C 78.5091 19.8548 78.5579 19.5684 78.6426 19.2363L 80.4199 12L 82.5781 12ZM 104.727 22L 102.461 22L 102.461 16.5508C 102.461 15.5026 102.311 14.7441 102.012 14.2754C 101.719 13.8066 101.221 13.5723 100.518 13.5723C 99.9251 13.5723 99.4206 13.8685 99.0039 14.4609C 98.5938 15.0534 98.3887 15.763 98.3887 16.5898L 98.3887 22L 96.1133 22L 96.1133 16.3652C 96.1133 14.5033 95.4557 13.5723 94.1406 13.5723C 93.5286 13.5723 93.0241 13.8522 92.627 14.4121C 92.2363 14.972 92.041 15.6979 92.041 16.5898L 92.041 22L 89.7754 22L 89.7754 12L 92.041 12L 92.041 13.582L 92.0801 13.582C 92.8027 12.3711 93.8542 11.7656 95.2344 11.7656C 95.9245 11.7656 96.5267 11.9577 97.041 12.3418C 97.5618 12.7194 97.9167 13.2174 98.1055 13.8359C 98.8477 12.4557 99.9544 11.7656 101.426 11.7656C 103.626 11.7656 104.727 13.123 104.727 15.8379L 104.727 22ZM 115.957 17.6152L 109.141 17.6152C 109.167 18.5397 109.45 19.2526 109.99 19.7539C 110.537 20.2552 111.286 20.5059 112.236 20.5059C 113.304 20.5059 114.284 20.1868 115.176 19.5488L 115.176 21.375C 114.264 21.9479 113.06 22.2344 111.562 22.2344C 110.091 22.2344 108.936 21.7819 108.096 20.877C 107.262 19.9655 106.846 18.6862 106.846 17.0391C 106.846 15.4831 107.305 14.2168 108.223 13.2402C 109.147 12.2572 110.293 11.7656 111.66 11.7656C 113.027 11.7656 114.085 12.2051 114.834 13.084C 115.583 13.9629 115.957 15.1836 115.957 16.7461L 115.957 17.6152ZM 113.77 16.0137C 113.763 15.1999 113.571 14.5684 113.193 14.1191C 112.816 13.6634 112.295 13.4355 111.631 13.4355C 110.98 13.4355 110.426 13.6732 109.971 14.1484C 109.521 14.6237 109.245 15.2454 109.141 16.0137L 113.77 16.0137ZM 127.021 22L 124.756 22L 124.756 16.3652C 124.756 14.4967 124.095 13.5625 122.773 13.5625C 122.083 13.5625 121.514 13.8229 121.064 14.3438C 120.615 14.8581 120.391 15.5091 120.391 16.2969L 120.391 22L 118.115 22L 118.115 12L 120.391 12L 120.391 13.6602L 120.43 13.6602C 121.178 12.3971 122.259 11.7656 123.672 11.7656C 124.759 11.7656 125.589 12.1204 126.162 12.8301C 126.735 13.5332 127.021 14.5521 127.021 15.8867L 127.021 22ZM 138.516 22L 136.25 22L 136.25 20.418L 136.211 20.418C 135.553 21.6289 134.531 22.2344 133.145 22.2344C 130.781 22.2344 129.6 20.8151 129.6 17.9766L 129.6 12L 131.865 12L 131.865 17.7422C 131.865 19.5391 132.559 20.4375 133.945 20.4375C 134.616 20.4375 135.166 20.1901 135.596 19.6953C 136.032 19.2005 136.25 18.5527 136.25 17.752L 136.25 12L 138.516 12L 138.516 22Z"/>
<path id="path19_stroke" d="M 0 0L 82 0L 82 -2L 0 -2L 0 0Z"/>
<path id="path20_stroke" d="M 0 0L 64 0L 64 -2L 0 -2L 0 0Z"/>
</defs>
</svg>
