<svg width="1920" height="867" viewBox="0 0 1920 867" version="1.1" xmlns="http://www.w3.org/2000/svg" xmlns:xlink="http://www.w3.org/1999/xlink">
<g fill="none">
<g clip-path="url(#clip0)">
<rect width="1920" height="866.667" fill="#243A5E"/>
<g filter="url(#filter0_d)">
<path fill-rule="evenodd" clip-rule="evenodd" d="M 0 0L 640 0L 640 893.333L 0 893.333L 0 0Z" transform="translate(640 -186.666)" fill="white"/>
</g>
<rect width="586.667" height="720" transform="translate(666.666 -120)" fill="#F4F4F4"/>
<path fill-rule="evenodd" clip-rule="evenodd" d="M 2.49023 0C 2.84043 0 3.16467 0.0648493 3.46298 0.19455C 3.76129 0.324251 4.02393 0.502586 4.25091 0.729562C 4.47788 0.956538 4.65622 1.21918 4.78592 1.51749C 4.91562 1.8158 4.98047 2.14005 4.98047 2.49024C 4.98047 2.84043 4.91562 3.16468 4.78592 3.46299C 4.65622 3.7613 4.47788 4.02394 4.25091 4.25092C 4.02393 4.47789 3.76129 4.65623 3.46298 4.78593C 3.16467 4.91563 2.84043 4.98048 2.49023 4.98048C 2.14004 4.98048 1.8158 4.91563 1.51749 4.78593C 1.21918 4.65623 0.956536 4.47789 0.729561 4.25092C 0.502585 4.02394 0.32425 3.7613 0.19455 3.46299C 0.0648492 3.16468 0 2.84043 0 2.49024C 0 2.14005 0.0648492 1.8158 0.19455 1.51749C 0.32425 1.21918 0.502585 0.956538 0.729561 0.729562C 0.956536 0.502586 1.21918 0.324251 1.51749 0.19455C 1.8158 0.0648493 2.14004 0 2.49023 0ZM 17.4316 0C 17.7818 0 18.1061 0.0648493 18.4044 0.19455C 18.7027 0.324251 18.9653 0.502586 19.1923 0.729562C 19.4193 0.956538 19.5976 1.21918 19.7273 1.51749C 19.857 1.8158 19.9219 2.14005 19.9219 2.49024C 19.9219 2.84043 19.857 3.16468 19.7273 3.46299C 19.5976 3.7613 19.4193 4.02394 19.1923 4.25092C 18.9653 4.47789 18.7027 4.65623 18.4044 4.78593C 18.1061 4.91563 17.7818 4.98048 17.4316 4.98048C 17.0814 4.98048 16.7572 4.91563 16.4589 4.78593C 16.1606 4.65623 15.8979 4.47789 15.671 4.25092C 15.444 4.02394 15.2657 3.7613 15.136 3.46299C 15.0063 3.16468 14.9414 2.84043 14.9414 2.49024C 14.9414 2.14005 15.0063 1.8158 15.136 1.51749C 15.2657 1.21918 15.444 0.956538 15.671 0.729562C 15.8979 0.502586 16.1606 0.324251 16.4589 0.19455C 16.7572 0.0648493 17.0814 0 17.4316 0ZM 32.373 0C 32.7232 0 33.0475 0.0648493 33.3458 0.19455C 33.6441 0.324251 33.9067 0.502586 34.1337 0.729562C 34.3607 0.956538 34.539 1.21918 34.6687 1.51749C 34.7984 1.8158 34.8633 2.14005 34.8633 2.49024C 34.8633 2.84043 34.7984 3.16468 34.6687 3.46299C 34.539 3.7613 34.3607 4.02394 34.1337 4.25092C 33.9067 4.47789 33.6441 4.65623 33.3458 4.78593C 33.0475 4.91563 32.7232 4.98048 32.373 4.98048C 32.0229 4.98048 31.6986 4.91563 31.4003 4.78593C 31.102 4.65623 30.8393 4.47789 30.6124 4.25092C 30.3854 4.02394 30.2071 3.7613 30.0774 3.46299C 29.9477 3.16468 29.8828 2.84043 29.8828 2.49024C 29.8828 2.14005 29.9477 1.8158 30.0774 1.51749C 30.2071 1.21918 30.3854 0.956538 30.6124 0.729562C 30.8393 0.502586 31.102 0.324251 31.4003 0.19455C 31.6986 0.0648493 32.0229 0 32.373 0Z" transform="translate(1213.51 628.656)" fill="#243A5E"/>
<path fill-rule="evenodd" clip-rule="evenodd" d="M 32.373 7.4707L 29.8828 7.4707L 29.8828 36.1084C 29.8828 36.6272 29.7855 37.1136 29.591 37.5675C 29.3964 38.0215 29.1306 38.417 28.7933 38.7543C 28.4561 39.0915 28.0605 39.3574 27.6066 39.5519C 27.1526 39.7465 26.6663 39.8437 26.1475 39.8437L 6.22559 39.8437C 5.70678 39.8437 5.22042 39.7465 4.76646 39.5519C 4.31251 39.3574 3.91693 39.0915 3.57971 38.7543C 3.24249 38.417 2.97661 38.0215 2.78206 37.5675C 2.58751 37.1136 2.49023 36.6272 2.49023 36.1084L 2.49023 7.4707L 0 7.4707L 0 4.98047L 9.96094 4.98047L 9.96094 2.49023C 9.96094 2.14004 10.0258 1.8158 10.1555 1.51749C 10.2852 1.21918 10.4635 0.956536 10.6905 0.729561C 10.9175 0.502585 11.1801 0.32425 11.4784 0.19455C 11.7767 0.0648492 12.101 0 12.4512 0L 19.9219 0C 20.2721 0 20.5963 0.0648492 20.8946 0.19455C 21.1929 0.32425 21.4556 0.502585 21.6825 0.729561C 21.9095 0.956536 22.0879 1.21918 22.2176 1.51749C 22.3473 1.8158 22.4121 2.14004 22.4121 2.49023L 22.4121 4.98047L 32.373 4.98047L 32.373 7.4707ZM 12.4512 4.98047L 19.9219 4.98047L 19.9219 2.49023L 12.4512 2.49023L 12.4512 4.98047ZM 27.3926 7.4707L 4.98047 7.4707L 4.98047 36.1084C 4.98047 36.4456 5.10368 36.7375 5.35011 36.9839C 5.59654 37.2303 5.88836 37.3535 6.22559 37.3535L 26.1475 37.3535C 26.4847 37.3535 26.7765 37.2303 27.0229 36.9839C 27.2694 36.7375 27.3926 36.4456 27.3926 36.1084L 27.3926 7.4707ZM 12.4512 32.373L 9.96094 32.373L 9.96094 12.4512L 12.4512 12.4512L 12.4512 32.373ZM 17.4316 32.373L 14.9414 32.373L 14.9414 12.4512L 17.4316 12.4512L 17.4316 32.373ZM 22.4121 32.373L 19.9219 32.373L 19.9219 12.4512L 22.4121 12.4512L 22.4121 32.373Z" transform="translate(1049.86 634.557)" fill="#243A5E"/>
<path fill-rule="evenodd" clip-rule="evenodd" d="M 39.8438 6.51741C 39.8438 7.37343 39.6816 8.2035 39.3574 9.00764C 39.0331 9.81179 38.5597 10.5251 37.9372 11.1477L 12.315 36.7699L 0 39.8437L 3.07388 27.5288L 28.6961 1.90659C 29.3186 1.28402 30.032 0.810625 30.8361 0.486374C 31.6402 0.162123 32.4703 0 33.3263 0C 34.2213 0 35.0643 0.17185 35.8555 0.515556C 36.6467 0.859262 37.3373 1.32618 37.9274 1.91631C 38.5176 2.50645 38.9845 3.19709 39.3282 3.98827C 39.6719 4.77944 39.8438 5.62248 39.8438 6.51741ZM 6.3418 27.7808C 7.71662 28.2348 8.90012 28.9578 9.89233 29.95C 10.8845 30.9422 11.6076 32.1257 12.0616 33.5006L 33.0924 12.4503L 27.3921 6.75L 6.3418 27.7808ZM 3.42383 36.4202L 9.82451 34.8249C 9.69481 34.2283 9.48405 33.6641 9.19222 33.1323C 8.9004 32.6005 8.54697 32.1272 8.13193 31.7121C 7.71689 31.2971 7.24349 30.9436 6.71172 30.6518C 6.17994 30.36 5.61576 30.1492 5.01913 30.0195L 3.42383 36.4202ZM 34.8644 10.6808C 35.1886 10.3565 35.4999 10.0517 35.7982 9.76639C 36.0965 9.48105 36.3624 9.1795 36.5959 8.86173C 36.8293 8.54397 37.0141 8.20026 37.1503 7.83062C 37.2865 7.46097 37.3546 7.02973 37.3546 6.53686C 37.3546 5.97915 37.2476 5.45712 37.0336 4.97074C 36.8196 4.48436 36.5278 4.05636 36.1581 3.68671C 35.7885 3.31707 35.3605 3.02525 34.8741 2.81124C 34.3877 2.59724 33.8657 2.49023 33.308 2.49023C 32.8151 2.49023 32.3839 2.55833 32.0142 2.69451C 31.6446 2.8307 31.3009 3.01552 30.9831 3.24898C 30.6653 3.48244 30.3638 3.74832 30.0784 4.04663C 29.7931 4.34494 29.4883 4.65622 29.1641 4.98047L 34.8644 10.6808Z" transform="translate(945.6 634.557)" fill="#243A5E"/>
<path fill-rule="evenodd" clip-rule="evenodd" d="M 36.9839 25.8945C 37.4249 26.1799 37.8237 26.5139 38.1804 26.8965C 38.537 27.2791 38.8386 27.6974 39.085 28.1513C 39.3314 28.6053 39.5195 29.0852 39.6492 29.591C 39.7789 30.0968 39.8438 30.6091 39.8438 31.1279C 39.8438 31.9839 39.6784 32.7881 39.3476 33.5403C 39.0169 34.2926 38.5695 34.9508 38.0053 35.515C 37.4411 36.0792 36.7828 36.5267 36.0306 36.8574C 35.2783 37.1881 34.4742 37.3535 33.6182 37.3535C 32.4249 37.3535 31.3225 37.0358 30.3108 36.4002C 28.8193 37.5286 27.1818 38.3846 25.3984 38.9683C 23.6151 39.5519 21.7896 39.8437 19.9219 39.8437C 18.0542 39.8437 16.2287 39.5519 14.4453 38.9683C 12.6619 38.3846 11.0245 37.5286 9.53293 36.4002C 8.52127 37.0358 7.41883 37.3535 6.22559 37.3535C 5.36956 37.3535 4.56543 37.1881 3.81317 36.8574C 3.06091 36.5267 2.40269 36.0792 1.83849 35.515C 1.2743 34.9508 0.826837 34.2926 0.496101 33.5403C 0.165365 32.7881 0 31.9839 0 31.1279C 0 30.6091 0.0648492 30.0968 0.19455 29.591C 0.32425 29.0852 0.512313 28.6053 0.758743 28.1513C 1.00517 27.6974 1.30672 27.2791 1.6634 26.8965C 2.02007 26.5139 2.4189 26.1799 2.85988 25.8945C 2.73018 25.3109 2.63615 24.7305 2.57778 24.1533C 2.51942 23.5762 2.49023 22.9958 2.49023 22.4121C 2.49023 20.6222 2.75936 18.8875 3.29762 17.2079C 3.83587 15.5283 4.59461 13.9719 5.57384 12.5387C 6.55308 11.1055 7.7301 9.83773 9.10492 8.73527C 10.4797 7.63282 12.0102 6.76384 13.6963 6.12831C 13.7093 5.28526 13.8811 4.49086 14.2118 3.74508C 14.5426 2.9993 14.99 2.35081 15.5542 1.79958C 16.1184 1.24836 16.7767 0.810625 17.5289 0.486374C 18.2812 0.162123 19.0788 0 19.9219 0C 20.7649 0 21.5626 0.162123 22.3148 0.486374C 23.0671 0.810625 23.7253 1.24836 24.2895 1.79958C 24.8537 2.35081 25.3012 2.9993 25.6319 3.74508C 25.9626 4.49086 26.1345 5.28526 26.1475 6.12831C 27.8336 6.76384 29.364 7.63282 30.7388 8.73527C 32.1137 9.83773 33.2907 11.1055 34.2699 12.5387C 35.2491 13.9719 36.0079 15.5283 36.5461 17.2079C 37.0844 18.8875 37.3535 20.6222 37.3535 22.4121C 37.3535 22.9958 37.3243 23.5762 37.266 24.1533C 37.2076 24.7305 37.1136 25.3109 36.9839 25.8945ZM 19.9229 2.49023C 19.4041 2.49023 18.9177 2.58751 18.4637 2.78206C 18.0098 2.97661 17.6142 3.24249 17.277 3.57971C 16.9398 3.91693 16.6739 4.31251 16.4793 4.76646C 16.2848 5.22041 16.1875 5.70678 16.1875 6.22558C 16.1875 6.74438 16.2848 7.23075 16.4793 7.6847C 16.6739 8.13865 16.9398 8.53423 17.277 8.87145C 17.6142 9.20868 18.0098 9.47456 18.4637 9.66911C 18.9177 9.86366 19.4041 9.96093 19.9229 9.96093C 20.4417 9.96093 20.928 9.86366 21.382 9.66911C 21.8359 9.47456 22.2315 9.20868 22.5687 8.87145C 22.9059 8.53423 23.1718 8.13865 23.3664 7.6847C 23.5609 7.23075 23.6582 6.74438 23.6582 6.22558C 23.6582 5.70678 23.5609 5.22041 23.3664 4.76646C 23.1718 4.31251 22.9059 3.91693 22.5687 3.57971C 22.2315 3.24249 21.8359 2.97661 21.382 2.78206C 20.928 2.58751 20.4417 2.49023 19.9229 2.49023ZM 2.49023 31.1279C 2.49023 31.6467 2.58751 32.1331 2.78206 32.5871C 2.97661 33.041 3.24249 33.4366 3.57971 33.7738C 3.91693 34.111 4.31251 34.3769 4.76646 34.5715C 5.22042 34.766 5.70678 34.8633 6.22559 34.8633C 6.74439 34.8633 7.23076 34.766 7.68471 34.5715C 8.13866 34.3769 8.53424 34.111 8.87146 33.7738C 9.20868 33.4366 9.47456 33.041 9.66911 32.5871C 9.86366 32.1331 9.96094 31.6467 9.96094 31.1279C 9.96094 30.6091 9.86366 30.1228 9.66911 29.6688C 9.47456 29.2149 9.20868 28.8193 8.87146 28.4821C 8.53424 28.1448 8.13866 27.879 7.68471 27.6844C 7.23076 27.4899 6.74439 27.3926 6.22559 27.3926C 5.70678 27.3926 5.22042 27.4899 4.76646 27.6844C 4.31251 27.879 3.91693 28.1448 3.57971 28.4821C 3.24249 28.8193 2.97661 29.2149 2.78206 29.6688C 2.58751 30.1228 2.49023 30.6091 2.49023 31.1279ZM 19.9219 37.3541C 21.4523 37.3541 22.9471 37.1239 24.4062 36.6635C 25.8654 36.203 27.224 35.5318 28.4821 34.6499C 28.1319 34.1311 27.8627 33.5701 27.6747 32.967C 27.4866 32.3639 27.3926 31.7511 27.3926 31.1285C 27.3926 30.2725 27.5579 29.4684 27.8887 28.7161C 28.2194 27.9639 28.6669 27.3056 29.2311 26.7414C 29.7953 26.1772 30.4535 25.7298 31.2057 25.399C 31.958 25.0683 32.7621 24.9029 33.6182 24.9029C 33.7868 24.9029 33.9554 24.9094 34.124 24.9224C 34.2926 24.9354 34.4612 24.9548 34.6298 24.9808C 34.7855 24.1247 34.8633 23.2687 34.8633 22.4127C 34.8633 20.8952 34.646 19.4329 34.2115 18.0256C 33.777 16.6184 33.161 15.3149 32.3633 14.1152C 31.5657 12.9154 30.5994 11.8454 29.4645 10.9051C 28.3297 9.96477 27.0619 9.20279 25.6611 8.61914C 25.4276 9.18982 25.1131 9.71186 24.7175 10.1853C 24.3219 10.6587 23.8712 11.064 23.3654 11.4012C 22.8596 11.7384 22.3148 11.9978 21.7312 12.1794C 21.1475 12.361 20.5444 12.4518 19.9219 12.4518C 19.2993 12.4518 18.6962 12.361 18.1126 12.1794C 17.5289 11.9978 16.9842 11.7384 16.4783 11.4012C 15.9725 11.064 15.5218 10.6587 15.1262 10.1853C 14.7306 9.71186 14.4161 9.18982 14.1827 8.61914C 12.7819 9.20279 11.5141 9.96477 10.3792 10.9051C 9.24434 11.8454 8.27809 12.9154 7.48043 14.1152C 6.68277 15.3149 6.06671 16.6184 5.63221 18.0256C 5.19771 19.4329 4.98047 20.8952 4.98047 22.4127C 4.98047 23.2687 5.05829 24.1247 5.21393 24.9808C 6.14777 24.8251 7.05242 24.877 7.92789 25.1364C 8.80337 25.3958 9.57508 25.8141 10.243 26.3912C 10.911 26.9684 11.446 27.6655 11.8481 28.4827C 12.2501 29.2998 12.4512 30.1817 12.4512 31.1285C 12.4512 31.7511 12.3571 32.3639 12.1691 32.967C 11.981 33.5701 11.7119 34.1311 11.3617 34.6499C 12.6198 35.5318 13.9784 36.203 15.4375 36.6635C 16.8966 37.1239 18.3914 37.3541 19.9219 37.3541ZM 33.6182 34.8633C 34.137 34.8633 34.6233 34.766 35.0773 34.5715C 35.5312 34.3769 35.9268 34.111 36.264 33.7738C 36.6013 33.4366 36.8671 33.041 37.0617 32.5871C 37.2562 32.1331 37.3535 31.6467 37.3535 31.1279C 37.3535 30.6091 37.2562 30.1228 37.0617 29.6688C 36.8671 29.2149 36.6013 28.8193 36.264 28.4821C 35.9268 28.1448 35.5312 27.879 35.0773 27.6844C 34.6233 27.4899 34.137 27.3926 33.6182 27.3926C 33.0994 27.3926 32.613 27.4899 32.159 27.6844C 31.7051 27.879 31.3095 28.1448 30.9723 28.4821C 30.6351 28.8193 30.3692 29.2149 30.1746 29.6688C 29.9801 30.1228 29.8828 30.6091 29.8828 31.1279C 29.8828 31.6467 29.9801 32.1331 30.1746 32.5871C 30.3692 33.041 30.6351 33.4366 30.9723 33.7738C 31.3095 34.111 31.7051 34.3769 32.159 34.5715C 32.613 34.766 33.0994 34.8633 33.6182 34.8633Z" transform="translate(840.574 634.557)" fill="#243A5E"/>
</g>
</g>
<defs>
<filter id="filter0_d" x="620" y="-206.666" width="680" height="933.333" filterUnits="userSpaceOnUse" color-interpolation-filters="sRGB">
<feFlood flood-opacity="0" result="BackgroundImageFix"/>
<feColorMatrix in="SourceAlpha" type="matrix" values="0 0 0 0 0 0 0 0 0 0 0 0 0 0 0 0 0 0 255 0"/>
<feOffset/>
<feGaussianBlur stdDeviation="10"/>
<feColorMatrix type="matrix" values="0 0 0 0 0.095 0 0 0 0 0.153793 0 0 0 0 0.25 0 0 0 1 0"/>
<feBlend mode="normal" in2="BackgroundImageFix" result="effect1_dropShadow"/>
<feBlend mode="normal" in="SourceGraphic" in2="effect1_dropShadow" result="shape"/>
</filter>

<clipPath id="clip0">
<rect width="1920" height="866.667" fill="white"/>
</clipPath>

</defs>
</svg>

