<svg width="1152" height="648" viewBox="0 0 1152 648" version="1.1" xmlns="http://www.w3.org/2000/svg" xmlns:xlink="http://www.w3.org/1999/xlink">
<title>master-detail</title>
<desc>Created using Figma</desc>
<g id="Canvas" transform="translate(14836 7433)">
<clipPath id="clip-0" clip-rule="evenodd">
<path d="M -14836 -7433L -13684 -7433L -13684 -6785L -14836 -6785L -14836 -7433Z" fill="#FFFFFF"/>
</clipPath>
<g id="master-detail" clip-path="url(#clip-0)">
<path d="M -14836 -7433L -13684 -7433L -13684 -6785L -14836 -6785L -14836 -7433Z" fill="#243A5E"/>
<g id="app-bg" filter="url(#filter0_d)">
<use xlink:href="#path0_fill" transform="translate(-14772 -7377)" fill="#FFFFFF"/>
<use xlink:href="#path0_fill" transform="translate(-14772 -7377)" fill="#FFFFFF"/>
</g>
<g id="App">
<g id="master-pane">
<use xlink:href="#path1_fill" transform="translate(-14772 -7377)" fill="#FFFFFF"/>
</g>
</g>
<g id="master-pane">
<g id="rules">
<g id="Line">
<use xlink:href="#path2_stroke" transform="matrix(-1 1.22465e-16 -1.22465e-16 -1 -14499 -7301)" fill="#E8E8E8"/>
</g>
<g id="Line">
<use xlink:href="#path2_stroke" transform="matrix(-1 1.22465e-16 -1.22465e-16 -1 -14499 -7071)" fill="#E8F3FA"/>
</g>
<g id="Line">
<use xlink:href="#path2_stroke" transform="matrix(-1 1.22465e-16 -1.22465e-16 -1 -14499 -6995)" fill="#E8E8E8"/>
</g>
<g id="Line">
<use xlink:href="#path2_stroke" transform="matrix(-1 1.22465e-16 -1.22465e-16 -1 -14499 -6918)" fill="#E8E8E8"/>
</g>
<g id="Line">
<use xlink:href="#path3_stroke" transform="matrix(6.12323e-17 1 -1 6.12323e-17 -14500 -7377)" fill="#E8E8E8"/>
</g>
</g>
<g id="selected">
<use xlink:href="#path4_fill" transform="translate(-14772 -7224)" fill="#E8F3FA"/>
</g>
<g id="Group">
<g id="Ellipse 2.7">
<use xlink:href="#path5_fill" transform="translate(-14756 -7362)" fill="#EBF3F7"/>
</g>
<g id="Rectangle 2.2">
<use xlink:href="#path6_fill" transform="translate(-14700 -7347)" fill="#EBF3F7"/>
</g>
<g id="Ellipse 2.8">
<use xlink:href="#path5_fill" transform="translate(-14756 -7286)" fill="#EBF3F7"/>
</g>
<g id="Rectangle 2.2">
<use xlink:href="#path6_fill" transform="translate(-14700 -7271)" fill="#EBF3F7"/>
</g>
<g id="Rectangle 2.2">
<use xlink:href="#path6_fill" transform="translate(-14700 -7195)" fill="#DAE4EB"/>
</g>
<g id="Ellipse 2.10">
<use xlink:href="#path5_fill" transform="translate(-14756 -7134)" fill="#EBF3F7"/>
</g>
<g id="Rectangle 2.2">
<use xlink:href="#path6_fill" transform="translate(-14700 -7119)" fill="#EBF3F7"/>
</g>
<g id="Ellipse 2.11">
<use xlink:href="#path5_fill" transform="translate(-14756 -7056)" fill="#EBF3F7"/>
</g>
<g id="Rectangle 2.2">
<use xlink:href="#path6_fill" transform="translate(-14700 -7041)" fill="#EBF3F7"/>
</g>
<g id="Ellipse 2.12">
<use xlink:href="#path5_fill" transform="translate(-14756 -6980)" fill="#EBF3F7"/>
</g>
<g id="Rectangle 2.2">
<use xlink:href="#path6_fill" transform="translate(-14700 -6965)" fill="#EBF3F7"/>
</g>
<g id="Ellipse 2.13">
<use xlink:href="#path5_fill" transform="translate(-14756 -6903)" fill="#EBF3F7"/>
</g>
<g id="Rectangle 2.2">
<use xlink:href="#path6_fill" transform="translate(-14700 -6888)" fill="#EBF3F7"/>
</g>
</g>
</g>
<g id="Rectangle 2.2">
<use xlink:href="#path6_fill" transform="translate(-14403 -7295)" fill="#DAE4EB"/>
</g>
<g id="profile-pic">
<g id="Ellipse 2.5">
<use xlink:href="#path7_fill" transform="translate(-14476 -7321)" fill="url(#paint23_linear)"/>
</g>
<g id="Mask Group">
<mask id="mask0_alpha" mask-type="alpha">
<g id="Ellipse 2.6">
<use xlink:href="#path7_fill" transform="translate(-14476 -7321)" fill="#78B3ED"/>
</g>
</mask>
<g id="Group" mask="url(#mask0_alpha)">
<g id="Vector">
<use xlink:href="#path8_fill" transform="translate(-14463 -7307)" fill="#398DB6"/>
</g>
<g id="Vector">
<use xlink:href="#path9_fill" transform="translate(-14469 -7265)" fill="#398DB6"/>
</g>
</g>
</g>
</g>
<g id="profile-pic">
<g id="Ellipse 2.5">
<use xlink:href="#path5_fill" transform="translate(-14756 -7210)" fill="#50E6FF"/>
</g>
<g id="Mask Group">
<mask id="mask1_alpha" mask-type="alpha">
<g id="Ellipse 2.6">
<use xlink:href="#path5_fill" transform="translate(-14756 -7210)" fill="#78B3ED"/>
</g>
</mask>
<g id="Group" mask="url(#mask1_alpha)">
<g id="Vector">
<use xlink:href="#path10_fill" transform="translate(-14746.2 -7199.5)" fill="#398DB6"/>
</g>
<g id="Vector">
<use xlink:href="#path11_fill" transform="translate(-14750.8 -7168)" fill="#398DB6"/>
</g>
</g>
</g>
</g>
<g id="Titlebar-controls" opacity="0.75">
<g id="minimize">
<use xlink:href="#path12_fill" transform="matrix(1 -2.44929e-16 2.44929e-16 1 -13834 -7361.94)" fill="#243A5E"/>
</g>
<g id="expand">
<mask id="mask2_outline_ins">
<use xlink:href="#path13_fill" fill="white" transform="translate(-13802 -7366.94)"/>
</mask>
<g mask="url(#mask2_outline_ins)">
<use xlink:href="#path14_stroke_2x" transform="translate(-13802 -7366.94)" fill="#243A5E"/>
</g>
</g>
<g id="close">
<g id="Line 3 (Stroke)">
<use xlink:href="#path15_fill" transform="matrix(0.707107 -0.707107 0.707107 0.707107 -13770.4 -7355.99)" fill="#243A5E"/>
</g>
<g id="Line 3.1 (Stroke)">
<use xlink:href="#path15_fill" transform="matrix(-0.707107 -0.707107 0.707107 -0.707107 -13759.1 -7354.57)" fill="#243A5E"/>
</g>
</g>
</g>
<g id="Rectangle 2.233">
<use xlink:href="#path16_fill" transform="translate(-14476 -7233)" fill="#EFEFEF"/>
<use xlink:href="#path16_fill" transform="translate(-14476 -7233)" fill="#FFFFFF"/>
<use xlink:href="#path16_fill" transform="translate(-14476 -7233)" fill="#FFFFFF"/>
<use xlink:href="#path16_fill" transform="translate(-14476 -7233)" fill="#DAE4EB"/>
</g>
<g id="Rectangle 2.234">
<use xlink:href="#path16_fill" transform="translate(-14476 -7213)" fill="#EFEFEF"/>
<use xlink:href="#path16_fill" transform="translate(-14476 -7213)" fill="#FFFFFF"/>
<use xlink:href="#path16_fill" transform="translate(-14476 -7213)" fill="#FFFFFF"/>
<use xlink:href="#path16_fill" transform="translate(-14476 -7213)" fill="#DAE4EB"/>
</g>
<g id="Rectangle 2.235">
<use xlink:href="#path16_fill" transform="translate(-14476 -7194)" fill="#EFEFEF"/>
<use xlink:href="#path16_fill" transform="translate(-14476 -7194)" fill="#FFFFFF"/>
<use xlink:href="#path16_fill" transform="translate(-14476 -7194)" fill="#FFFFFF"/>
<use xlink:href="#path16_fill" transform="translate(-14476 -7194)" fill="#DAE4EB"/>
</g>
<g id="Rectangle 2.236">
<use xlink:href="#path16_fill" transform="translate(-14476 -7175)" fill="#EFEFEF"/>
<use xlink:href="#path16_fill" transform="translate(-14476 -7175)" fill="#FFFFFF"/>
<use xlink:href="#path16_fill" transform="translate(-14476 -7175)" fill="#FFFFFF"/>
<use xlink:href="#path16_fill" transform="translate(-14476 -7175)" fill="#DAE4EB"/>
</g>
<g id="Rectangle 2.237">
<use xlink:href="#path16_fill" transform="translate(-14476 -7155)" fill="#EFEFEF"/>
<use xlink:href="#path16_fill" transform="translate(-14476 -7155)" fill="#FFFFFF"/>
<use xlink:href="#path16_fill" transform="translate(-14476 -7155)" fill="#FFFFFF"/>
<use xlink:href="#path16_fill" transform="translate(-14476 -7155)" fill="#DAE4EB"/>
</g>
<g id="Rectangle 2.238">
<use xlink:href="#path16_fill" transform="translate(-14476 -7136)" fill="#EFEFEF"/>
<use xlink:href="#path16_fill" transform="translate(-14476 -7136)" fill="#FFFFFF"/>
<use xlink:href="#path16_fill" transform="translate(-14476 -7136)" fill="#FFFFFF"/>
<use xlink:href="#path16_fill" transform="translate(-14476 -7136)" fill="#DAE4EB"/>
</g>
<g id="Rectangle 2.239">
<use xlink:href="#path16_fill" transform="translate(-14474.3 -7117)" fill="#EFEFEF"/>
<use xlink:href="#path16_fill" transform="translate(-14474.3 -7117)" fill="#FFFFFF"/>
<use xlink:href="#path16_fill" transform="translate(-14474.3 -7117)" fill="#FFFFFF"/>
<use xlink:href="#path16_fill" transform="translate(-14474.3 -7117)" fill="#DAE4EB"/>
</g>
<g id="Rectangle 2.242">
<use xlink:href="#path16_fill" transform="translate(-14476 -7097)" fill="#EFEFEF"/>
<use xlink:href="#path16_fill" transform="translate(-14476 -7097)" fill="#FFFFFF"/>
<use xlink:href="#path16_fill" transform="translate(-14476 -7097)" fill="#FFFFFF"/>
<use xlink:href="#path16_fill" transform="translate(-14476 -7097)" fill="#DAE4EB"/>
</g>
<g id="Rectangle 2.243">
<use xlink:href="#path16_fill" transform="translate(-14476 -7077)" fill="#EFEFEF"/>
<use xlink:href="#path16_fill" transform="translate(-14476 -7077)" fill="#FFFFFF"/>
<use xlink:href="#path16_fill" transform="translate(-14476 -7077)" fill="#FFFFFF"/>
<use xlink:href="#path16_fill" transform="translate(-14476 -7077)" fill="#DAE4EB"/>
</g>
<g id="Rectangle 2.244">
<use xlink:href="#path16_fill" transform="translate(-14476 -7058)" fill="#EFEFEF"/>
<use xlink:href="#path16_fill" transform="translate(-14476 -7058)" fill="#FFFFFF"/>
<use xlink:href="#path16_fill" transform="translate(-14476 -7058)" fill="#FFFFFF"/>
<use xlink:href="#path16_fill" transform="translate(-14476 -7058)" fill="#DAE4EB"/>
</g>
<g id="Rectangle 2.245">
<use xlink:href="#path16_fill" transform="translate(-14476 -7039)" fill="#EFEFEF"/>
<use xlink:href="#path16_fill" transform="translate(-14476 -7039)" fill="#FFFFFF"/>
<use xlink:href="#path16_fill" transform="translate(-14476 -7039)" fill="#FFFFFF"/>
<use xlink:href="#path16_fill" transform="translate(-14476 -7039)" fill="#DAE4EB"/>
</g>
<g id="Rectangle 2.246">
<use xlink:href="#path16_fill" transform="translate(-14476 -7019)" fill="#EFEFEF"/>
<use xlink:href="#path16_fill" transform="translate(-14476 -7019)" fill="#FFFFFF"/>
<use xlink:href="#path16_fill" transform="translate(-14476 -7019)" fill="#FFFFFF"/>
<use xlink:href="#path16_fill" transform="translate(-14476 -7019)" fill="#DAE4EB"/>
</g>
<g id="Rectangle 2.247">
<use xlink:href="#path16_fill" transform="translate(-14476 -7000)" fill="#EFEFEF"/>
<use xlink:href="#path16_fill" transform="translate(-14476 -7000)" fill="#FFFFFF"/>
<use xlink:href="#path16_fill" transform="translate(-14476 -7000)" fill="#FFFFFF"/>
<use xlink:href="#path16_fill" transform="translate(-14476 -7000)" fill="#DAE4EB"/>
</g>
<g id="Rectangle 2.248">
<use xlink:href="#path16_fill" transform="translate(-14474.3 -6981)" fill="#EFEFEF"/>
<use xlink:href="#path16_fill" transform="translate(-14474.3 -6981)" fill="#FFFFFF"/>
<use xlink:href="#path16_fill" transform="translate(-14474.3 -6981)" fill="#FFFFFF"/>
<use xlink:href="#path16_fill" transform="translate(-14474.3 -6981)" fill="#DAE4EB"/>
</g>
<g id="Rectangle 2.249">
<use xlink:href="#path16_fill" transform="translate(-14476 -6961)" fill="#EFEFEF"/>
<use xlink:href="#path16_fill" transform="translate(-14476 -6961)" fill="#FFFFFF"/>
<use xlink:href="#path16_fill" transform="translate(-14476 -6961)" fill="#FFFFFF"/>
<use xlink:href="#path16_fill" transform="translate(-14476 -6961)" fill="#DAE4EB"/>
</g>
<g id="Rectangle 2.250">
<use xlink:href="#path16_fill" transform="translate(-14476 -6941)" fill="#EFEFEF"/>
<use xlink:href="#path16_fill" transform="translate(-14476 -6941)" fill="#FFFFFF"/>
<use xlink:href="#path16_fill" transform="translate(-14476 -6941)" fill="#FFFFFF"/>
<use xlink:href="#path16_fill" transform="translate(-14476 -6941)" fill="#DAE4EB"/>
</g>
<g id="Rectangle 2.251">
<use xlink:href="#path16_fill" transform="translate(-14476 -6922)" fill="#EFEFEF"/>
<use xlink:href="#path16_fill" transform="translate(-14476 -6922)" fill="#FFFFFF"/>
<use xlink:href="#path16_fill" transform="translate(-14476 -6922)" fill="#FFFFFF"/>
<use xlink:href="#path16_fill" transform="translate(-14476 -6922)" fill="#DAE4EB"/>
</g>
<g id="Rectangle 2.252">
<use xlink:href="#path17_fill" transform="translate(-14474 -6903)" fill="#EFEFEF"/>
<use xlink:href="#path17_fill" transform="translate(-14474 -6903)" fill="#FFFFFF"/>
<use xlink:href="#path17_fill" transform="translate(-14474 -6903)" fill="#FFFFFF"/>
<use xlink:href="#path17_fill" transform="translate(-14474 -6903)" fill="#DAE4EB"/>
</g>
</g>
</g>
<defs>
<filter id="filter0_d" filterUnits="userSpaceOnUse" x="-14792" y="-7397" width="1064" height="576" color-interpolation-filters="sRGB">
<feFlood flood-opacity="0" result="BackgroundImageFix"/>
<feColorMatrix in="SourceAlpha" type="matrix" values="0 0 0 0 0 0 0 0 0 0 0 0 0 0 0 0 0 0 255 0"/>
<feOffset dx="0" dy="0"/>
<feGaussianBlur stdDeviation="10"/>
<feColorMatrix type="matrix" values="0 0 0 0 0.095 0 0 0 0 0.153793 0 0 0 0 0.25 0 0 0 1 0"/>
<feBlend mode="normal" in2="BackgroundImageFix" result="effect1_dropShadow"/>
<feBlend mode="normal" in="SourceGraphic" in2="effect1_dropShadow" result="shape"/>
</filter>
<linearGradient id="paint23_linear" x1="0" y1="0" x2="1" y2="0" gradientUnits="userSpaceOnUse" gradientTransform="matrix(3.91887e-15 64 -64 3.91887e-15 64 -3.91887e-15)">
<stop offset="0" stop-color="#59E7FE"/>
</linearGradient>
<path id="path0_fill" fill-rule="evenodd" d="M 0 0L 1024 0L 1024 536L 0 536L 0 0Z"/>
<path id="path1_fill" fill-rule="evenodd" d="M 0 0L 272 0L 272 535L 0 535L 0 0Z"/>
<path id="path2_stroke" d="M 0 0L 273 0L 273 -1L 0 -1L 0 0Z"/>
<path id="path3_stroke" d="M 0 0L 536 0L 536 -1L 0 -1L 0 0Z"/>
<path id="path4_fill" d="M 0 0L 272 0L 272 76L 0 76L 0 0Z"/>
<path id="path5_fill" d="M 48 24C 48 37.2548 37.2548 48 24 48C 10.7452 48 0 37.2548 0 24C 0 10.7452 10.7452 0 24 0C 37.2548 0 48 10.7452 48 24Z"/>
<path id="path6_fill" d="M 0 0L 120 0L 120 16L 0 16L 0 0Z"/>
<path id="path7_fill" d="M 64 32C 64 49.6731 49.6731 64 32 64C 14.3269 64 0 49.6731 0 32C 0 14.3269 14.3269 0 32 0C 49.6731 0 64 14.3269 64 32Z"/>
<path id="path8_fill" d="M 11.6 1.93629C 9.5 3.03629 7.5 4.43629 6.2 6.33629C 4.3 9.23629 4.4 12.9363 5 16.1363C 5 16.2363 5 16.4363 5.1 16.6363C 4.7 17.8363 4.9 19.4363 5.1 20.3363C 5.3 21.0363 5.8 22.1363 6.3 22.6363C 6.7 22.9363 7.3 23.6363 7.8 23.8363C 8.8 26.9363 10.2 30.0363 12.1 32.7363C 13.9 35.3363 16.5 37.3363 19.8 37.0363C 22.9 36.7363 24.8 33.8363 26.2 31.4363C 27.1 29.9363 28 28.3363 28.7 26.6363C 29 25.7363 29.3 24.7363 29.5 23.8363C 29.6 23.2363 29.6 23.2363 30.1 23.0363C 31.1 22.6363 31.9 21.6363 32.3 20.6363C 32.8 19.3363 33.4 16.0363 32.1 14.9363C 32.1 14.8363 32.2 14.7363 32.2 14.6363C 32.4 14.2363 33 14.1363 33.2 13.7363C 34.2 12.2363 25.2 -5.56371 11.6 1.93629ZM 15.3 17.0363C 15.1 17.0363 15 17.0363 14.8 17.0363C 14 17.0363 13.2 16.9363 12.4 16.9363C 11.1 16.9363 9.9 17.3363 8.9 18.1363L 8.6 18.4363L 6.3 17.7363C 6.3 17.7363 8.4 18.4363 8.6 18.4363C 8.3 18.9363 8.9 19.9363 8.9 19.9363C 9.6 21.3363 12 21.4363 13.3 20.9363C 13.8 20.7363 14.2 20.5363 14.6 20.1363C 15.1 19.6363 15.3 18.7363 15.4 18.0363C 15.4 17.6363 15.4 17.2363 15.3 16.8363C 15.3 16.7363 15.1 15.9363 15 15.8363C 12.5 15.4363 8 16.1363 8 16.1363L 15.3 17.0363ZM 7.8 15.2363C 8.2 12.9363 7.5 9.73629 7.6 9.63628C 8 9.53628 8.6 10.9363 9 10.9363C 9.4 10.9363 9.6 10.1363 9.7 9.83628C 9.9 9.13628 9.8 8.33628 10.2 7.63628C 10.4 7.33628 10.7 7.03628 11 6.83629C 11.5 6.43629 12.3 6.33629 12.9 6.33629C 13.6 6.43629 14.2 6.73629 14.6 7.33629C 14.9 7.73629 14.9 8.23629 15 8.73629C 15.2 9.63628 15.8 10.4363 16.6 11.0363C 17.3 11.5363 19.4 12.0363 19.8 10.7363C 19.9 10.2363 19.9 9.63628 20 9.13628C 20.6 11.0363 21.7 12.4363 23.4 13.4363C 24.6 14.1363 25.9 14.3363 27.2 14.1363C 27.5 14.0363 29.5 13.5363 29.5 13.0363C 29.5 14.1363 29.4 15.2363 29.6 16.3363C 29.7 17.3363 30 18.2363 30.3 19.1363C 30.7 20.5363 31.3 20.2363 31.6 19.1363C 31.8 18.2363 32 17.4363 32.1 16.5363C 32.2 15.9363 32 15.1363 32.3 14.5363C 32.5 14.1363 33.1 14.0363 33.3 13.6363C 34.3 12.1363 25.3 -5.66371 11.7 1.83629C 9.5 3.03629 7.5 4.43629 6.2 6.33629C 4.3 9.23629 4.4 12.9363 5 16.1363C 5 16.3363 5.2 17.7363 5.4 17.7363C 7.1 18.1363 7.5 16.6363 7.8 15.2363ZM 37 44.9363C 36.4 44.5363 34.5 44.1363 34.3 44.0363C 33 43.7363 31.7 43.4363 30.4 43.1363C 29.3 42.9363 28 43.0363 27.1 42.3363C 26.5 41.8363 26.2 41.0363 26.1 40.3363C 25.6 37.6363 25.4 34.8363 25.7 32.1363C 25.7 32.1363 23.2 37.3363 18.9 37.0363C 14.6 36.7363 12 32.8363 11.7 32.1363C 11.9 34.8363 11.8 37.6363 11.3 40.3363C 11.2 41.0363 10.9 41.8363 10.3 42.3363C 9.4 43.0363 7.8 43.1363 6.6 43.3363C 5.1 43.6363 3.6 43.8363 2.1 44.2363C 1.7 44.3363 1.3 44.4363 0.9 44.6363C 0.7 44.6363 0.1 45.0363 2.98023e-09 44.9363C 0.9 45.1363 1.8 45.3363 2.7 45.5363C 5 45.9363 7.4 46.2363 9.7 46.5363C 13 46.8363 16.3 47.0363 19.7 47.0363C 23.6 47.0363 27.5 46.7363 31.4 46.2363C 32.6 46.0363 33.8 45.9363 34.9 45.6363C 35.2 45.6363 36.7 45.5363 37 44.9363C 37 45.0363 37 44.9363 37 44.9363ZM 27.9 16.3363C 27.9 16.3363 23.4 15.6363 20.9 16.0363C 20.8 16.0363 20.6 16.8363 20.6 17.0363C 20.5 17.4363 20.5 17.8363 20.5 18.2363C 20.6 18.9363 20.7 19.7363 21.3 20.3363C 21.6 20.6363 22.1 20.9363 22.6 21.1363C 23.9 21.6363 26.3 21.5363 27 20.1363C 27 20.1363 27.6 19.0363 27.4 18.6363C 27.6 18.5363 29.7 17.9363 29.7 17.9363L 27.4 18.6363C 27.4 18.6363 27.1 18.4363 27.1 18.3363C 26.1 17.5363 24.8 17.1363 23.6 17.1363C 22.8 17.1363 22 17.1363 21.1 17.2363C 20.9 17.2363 20.8 17.2363 20.6 17.2363"/>
<path id="path9_fill" d="M 22 0L 8 5L 0 24L 43 24L 55 5L 22 0Z"/>
<path id="path10_fill" d="M 8.7 1.45221C 7.125 2.27721 5.625 3.32721 4.65 4.75221C 3.225 6.92721 3.3 9.70221 3.75 12.1022C 3.75 12.1772 3.75 12.3272 3.825 12.4772C 3.525 13.3772 3.675 14.5772 3.825 15.2522C 3.975 15.7772 4.35 16.6022 4.725 16.9772C 5.025 17.2022 5.475 17.7272 5.85 17.8772C 6.6 20.2022 7.65 22.5272 9.075 24.5522C 10.425 26.5022 12.375 28.0022 14.85 27.7772C 17.175 27.5522 18.6 25.3772 19.65 23.5772C 20.325 22.4522 21 21.2522 21.525 19.9772C 21.75 19.3022 21.975 18.5522 22.125 17.8772C 22.2 17.4272 22.2 17.4272 22.575 17.2772C 23.325 16.9772 23.925 16.2272 24.225 15.4772C 24.6 14.5022 25.05 12.0272 24.075 11.2022C 24.075 11.1272 24.15 11.0522 24.15 10.9772C 24.3 10.6772 24.75 10.6022 24.9 10.3022C 25.65 9.17721 18.9 -4.17279 8.7 1.45221ZM 11.475 12.7772C 11.325 12.7772 11.25 12.7772 11.1 12.7772C 10.5 12.7772 9.9 12.7022 9.3 12.7022C 8.325 12.7022 7.425 13.0022 6.675 13.6022L 6.45 13.8272L 4.725 13.3022C 4.725 13.3022 6.3 13.8272 6.45 13.8272C 6.225 14.2022 6.675 14.9522 6.675 14.9522C 7.2 16.0022 9 16.0772 9.975 15.7022C 10.35 15.5522 10.65 15.4022 10.95 15.1022C 11.325 14.7272 11.475 14.0522 11.55 13.5272C 11.55 13.2272 11.55 12.9272 11.475 12.6272C 11.475 12.5522 11.325 11.9522 11.25 11.8772C 9.375 11.5772 6 12.1022 6 12.1022L 11.475 12.7772ZM 5.85 11.4272C 6.15 9.70221 5.625 7.30221 5.7 7.22721C 6 7.15221 6.45 8.20221 6.75 8.20221C 7.05 8.20221 7.2 7.60221 7.275 7.37721C 7.425 6.85221 7.35 6.25221 7.65 5.72721C 7.8 5.50221 8.025 5.27721 8.25 5.12721C 8.625 4.82721 9.225 4.75221 9.675 4.75221C 10.2 4.82721 10.65 5.05221 10.95 5.50221C 11.175 5.80221 11.175 6.17721 11.25 6.55221C 11.4 7.22721 11.85 7.82721 12.45 8.27721C 12.975 8.65221 14.55 9.02721 14.85 8.05221C 14.925 7.67721 14.925 7.22721 15 6.85221C 15.45 8.27721 16.275 9.32721 17.55 10.0772C 18.45 10.6022 19.425 10.7522 20.4 10.6022C 20.625 10.5272 22.125 10.1522 22.125 9.77721C 22.125 10.6022 22.05 11.4272 22.2 12.2522C 22.275 13.0022 22.5 13.6772 22.725 14.3522C 23.025 15.4022 23.475 15.1772 23.7 14.3522C 23.85 13.6772 24 13.0772 24.075 12.4022C 24.15 11.9522 24 11.3522 24.225 10.9022C 24.375 10.6022 24.825 10.5272 24.975 10.2272C 25.725 9.10221 18.975 -4.24779 8.775 1.37721C 7.125 2.27721 5.625 3.32721 4.65 4.75221C 3.225 6.92721 3.3 9.70221 3.75 12.1022C 3.75 12.2522 3.9 13.3022 4.05 13.3022C 5.325 13.6022 5.625 12.4772 5.85 11.4272ZM 27.75 33.7022C 27.3 33.4022 25.875 33.1022 25.725 33.0272C 24.75 32.8022 23.775 32.5772 22.8 32.3522C 21.975 32.2022 21 32.2772 20.325 31.7522C 19.875 31.3772 19.65 30.7772 19.575 30.2522C 19.2 28.2272 19.05 26.1272 19.275 24.1022C 19.275 24.1022 17.4 28.0022 14.175 27.7772C 10.95 27.5522 9 24.6272 8.775 24.1022C 8.925 26.1272 8.85 28.2272 8.475 30.2522C 8.4 30.7772 8.175 31.3772 7.725 31.7522C 7.05 32.2772 5.85 32.3522 4.95 32.5022C 3.825 32.7272 2.7 32.8772 1.575 33.1772C 1.275 33.2522 0.975 33.3272 0.675 33.4772C 0.525 33.4772 0.075 33.7772 2.23517e-09 33.7022C 0.675 33.8522 1.35 34.0022 2.025 34.1522C 3.75 34.4522 5.55 34.6772 7.275 34.9022C 9.75 35.1272 12.225 35.2772 14.775 35.2772C 17.7 35.2772 20.625 35.0522 23.55 34.6772C 24.45 34.5272 25.35 34.4522 26.175 34.2272C 26.4 34.2272 27.525 34.1522 27.75 33.7022C 27.75 33.7772 27.75 33.7022 27.75 33.7022ZM 20.925 12.2522C 20.925 12.2522 17.55 11.7272 15.675 12.0272C 15.6 12.0272 15.45 12.6272 15.45 12.7772C 15.375 13.0772 15.375 13.3772 15.375 13.6772C 15.45 14.2022 15.525 14.8022 15.975 15.2522C 16.2 15.4772 16.575 15.7022 16.95 15.8522C 17.925 16.2272 19.725 16.1522 20.25 15.1022C 20.25 15.1022 20.7 14.2772 20.55 13.9772C 20.7 13.9022 22.275 13.4522 22.275 13.4522L 20.55 13.9772C 20.55 13.9772 20.325 13.8272 20.325 13.7522C 19.575 13.1522 18.6 12.8522 17.7 12.8522C 17.1 12.8522 16.5 12.8522 15.825 12.9272C 15.675 12.9272 15.6 12.9272 15.45 12.9272"/>
<path id="path11_fill" d="M 16.5 0L 6 3.75L 0 18L 32.25 18L 41.25 3.75L 16.5 0Z"/>
<path id="path12_fill" fill-rule="evenodd" d="M 12 1C 12 1.55228 11.5523 2 11 2L 1 2C 0.447715 2 0 1.55228 0 1C 0 0.447715 0.447715 0 1 0L 11 0C 11.5523 0 12 0.447715 12 1Z"/>
<path id="path13_fill" d="M 0 1C 0 0.447715 0.447715 0 1 0L 11 0C 11.5523 0 12 0.447715 12 1L 12 11C 12 11.5523 11.5523 12 11 12L 1 12C 0.447715 12 0 11.5523 0 11L 0 1Z"/>
<path id="path14_stroke_2x" d="M 1 2L 11 2L 11 -2L 1 -2L 1 2ZM 10 1L 10 11L 14 11L 14 1L 10 1ZM 11 10L 1 10L 1 14L 11 14L 11 10ZM 2 11L 2 1L -2 1L -2 11L 2 11ZM 1 10C 1.55228 10 2 10.4477 2 11L -2 11C -2 12.6569 -0.656854 14 1 14L 1 10ZM 10 11C 10 10.4477 10.4477 10 11 10L 11 14C 12.6569 14 14 12.6569 14 11L 10 11ZM 11 2C 10.4477 2 10 1.55228 10 1L 14 1C 14 -0.656854 12.6569 -2 11 -2L 11 2ZM 1 -2C -0.656854 -2 -2 -0.656854 -2 1L 2 1C 2 1.55228 1.55228 2 1 2L 1 -2Z"/>
<path id="path15_fill" fill-rule="evenodd" d="M 16 1C 16 1.55228 15.5523 2 15 2L 1 2C 0.447715 2 0 1.55228 0 1C 0 0.447715 0.447715 0 1 0L 15 0C 15.5523 0 16 0.447715 16 1Z"/>
<path id="path16_fill" d="M 0 0L 704.274 0L 704.274 8L 0 8L 0 0Z"/>
<path id="path17_fill" d="M 0 0L 349 0L 349 8L 0 8L 0 0Z"/>
</defs>
</svg>
