<svg width="1152" height="688" viewBox="0 0 1152 688" version="1.1" xmlns="http://www.w3.org/2000/svg" xmlns:xlink="http://www.w3.org/1999/xlink">
<title>navview-compact</title>
<desc>Created using Figma</desc>
<g id="Canvas" transform="translate(-2527 12927)">
<clipPath id="clip-0" clip-rule="evenodd">
<path d="M 2527 -12927L 3679 -12927L 3679 -12239L 2527 -12239L 2527 -12927Z" fill="#FFFFFF"/>
</clipPath>
<g id="navview-compact" clip-path="url(#clip-0)">
<path d="M 2527 -12927L 3679 -12927L 3679 -12239L 2527 -12239L 2527 -12927Z" fill="#243A5E"/>
<g id="BG">
<g id="app-bg">
<use xlink:href="#path0_fill" transform="translate(3128 -12831)" fill="#FFFFFF"/>
<use xlink:href="#path0_fill" transform="translate(3128 -12831)" fill="#FFFFFF"/>
</g>
<g id="Mask Group">
<mask id="mask0_alpha" mask-type="alpha">
<g id="app-bg">
<use xlink:href="#path1_fill" transform="translate(3128 -12831)" fill="#FFFFFF"/>
<use xlink:href="#path1_fill" transform="translate(3128 -12831)" fill="#FFFFFF"/>
</g>
</mask>
<g id="Rectangle 47" style="mix-blend-mode:multiply" mask="url(#mask0_alpha)">
<use xlink:href="#path2_fill" transform="translate(3128 -12831)" fill="#DFE9F0"/>
</g>
</g>
</g>
<g id="titlebar-controls" opacity="0.75">
<g id="minimize">
<use xlink:href="#path3_fill" transform="matrix(1 -2.44929e-16 2.44929e-16 1 3522 -12815.9)"/>
</g>
<g id="expand">
<mask id="mask1_outline_ins">
<use xlink:href="#path4_fill" fill="white" transform="translate(3554 -12820.9)"/>
</mask>
<g mask="url(#mask1_outline_ins)">
<use xlink:href="#path5_stroke_2x" transform="translate(3554 -12820.9)"/>
</g>
</g>
<g id="close">
<g id="Line 3 (Stroke)">
<use xlink:href="#path6_fill" transform="matrix(0.707107 -0.707107 0.707107 0.707107 3585.64 -12810)"/>
</g>
<g id="Line 3.1 (Stroke)">
<use xlink:href="#path6_fill" transform="matrix(-0.707107 -0.707107 0.707107 -0.707107 3596.95 -12808.6)"/>
</g>
</g>
</g>
<g id="nav-items">
<g id="Rectangle 2">
<use xlink:href="#path7_fill" transform="translate(3144 -12743)" fill="#A7B7C2"/>
</g>
<g id="Rectangle 2.1">
<use xlink:href="#path8_fill" transform="translate(3168 -12743)" fill="#A7B7C2"/>
</g>
<g id="Rectangle 2.2">
<use xlink:href="#path7_fill" transform="translate(3144 -12711)" fill="#A7B7C2"/>
</g>
<g id="Rectangle 2.3">
<use xlink:href="#path8_fill" transform="translate(3168 -12711)" fill="#A7B7C2"/>
</g>
<g id="Rectangle 2.4">
<use xlink:href="#path7_fill" transform="translate(3144 -12679)" fill="#A7B7C2"/>
</g>
<g id="Rectangle 2.5">
<use xlink:href="#path8_fill" transform="translate(3168 -12679)" fill="#A7B7C2"/>
</g>
<g id="Rectangle 2.6">
<use xlink:href="#path7_fill" transform="translate(3144 -12647)" fill="#A7B7C2"/>
</g>
<g id="Rectangle 2.7">
<use xlink:href="#path8_fill" transform="translate(3168 -12647)" fill="#A7B7C2"/>
</g>
<g id="Rectangle 2.8">
<use xlink:href="#path7_fill" transform="translate(3144 -12615)" fill="#A7B7C2"/>
</g>
<g id="Rectangle 2.9">
<use xlink:href="#path8_fill" transform="translate(3168 -12615)" fill="#A7B7C2"/>
</g>
<g id="Rectangle 2.10">
<use xlink:href="#path7_fill" transform="translate(3144 -12583)" fill="#A7B7C2"/>
</g>
<g id="Rectangle 2.11">
<use xlink:href="#path8_fill" transform="translate(3168 -12583)" fill="#A7B7C2"/>
</g>
</g>
<g id="hamburger-menu" opacity="0.75">
<g id="Line 2 (Stroke)">
<use xlink:href="#path6_fill" transform="translate(3144 -12780)"/>
</g>
<g id="Line 2.1 (Stroke)">
<use xlink:href="#path6_fill" transform="translate(3144 -12776)"/>
</g>
<g id="Line 2.2 (Stroke)">
<use xlink:href="#path6_fill" transform="translate(3144 -12772)"/>
</g>
</g>
<g id="Selection indicator">
<use xlink:href="#path9_fill" transform="translate(3128 -12650)" fill="#007AD0"/>
</g>
<g id="app-title">
<use xlink:href="#path10_fill" transform="translate(3144 -12816)" fill="#A7B7C2"/>
</g>
<g id="Rectangle">
<use xlink:href="#path11_fill" transform="translate(3335 -12751)" fill="#F2F8FC"/>
</g>
<g id="BG">
<g id="app-bg">
<use xlink:href="#path12_fill" transform="translate(2591 -12831)" fill="#FFFFFF"/>
<use xlink:href="#path12_fill" transform="translate(2591 -12831)" fill="#FFFFFF"/>
</g>
<g id="Mask Group">
<mask id="mask2_alpha" mask-type="alpha">
<g id="app-bg">
<use xlink:href="#path1_fill" transform="translate(2591 -12831)" fill="#FFFFFF"/>
<use xlink:href="#path1_fill" transform="translate(2591 -12831)" fill="#FFFFFF"/>
</g>
</mask>
<g id="Rectangle 47" style="mix-blend-mode:multiply" mask="url(#mask2_alpha)">
<use xlink:href="#path13_fill" transform="translate(2591 -12831)" fill="#DFE9F0"/>
</g>
</g>
</g>
<g id="titlebar-controls" opacity="0.75">
<g id="minimize">
<use xlink:href="#path3_fill" transform="matrix(1 -2.44929e-16 2.44929e-16 1 2986 -12815.9)"/>
</g>
<g id="expand">
<mask id="mask3_outline_ins">
<use xlink:href="#path4_fill" fill="white" transform="translate(3018 -12820.9)"/>
</mask>
<g mask="url(#mask3_outline_ins)">
<use xlink:href="#path5_stroke_2x" transform="translate(3018 -12820.9)"/>
</g>
</g>
<g id="close">
<g id="Line 3 (Stroke)">
<use xlink:href="#path6_fill" transform="matrix(0.707107 -0.707107 0.707107 0.707107 3049.64 -12810)"/>
</g>
<g id="Line 3.1 (Stroke)">
<use xlink:href="#path6_fill" transform="matrix(-0.707107 -0.707107 0.707107 -0.707107 3060.95 -12808.6)"/>
</g>
</g>
</g>
<g id="nav-items">
<g id="Rectangle 2">
<use xlink:href="#path7_fill" transform="translate(2607 -12743)" fill="#A7B7C2"/>
</g>
<g id="Rectangle 2.2">
<use xlink:href="#path7_fill" transform="translate(2607 -12711)" fill="#A7B7C2"/>
</g>
<g id="Rectangle 2.4">
<use xlink:href="#path7_fill" transform="translate(2607 -12679)" fill="#A7B7C2"/>
</g>
<g id="Rectangle 2.6">
<use xlink:href="#path7_fill" transform="translate(2607 -12647)" fill="#A7B7C2"/>
</g>
<g id="Rectangle 2.8">
<use xlink:href="#path7_fill" transform="translate(2607 -12615)" fill="#A7B7C2"/>
</g>
<g id="Rectangle 2.10">
<use xlink:href="#path7_fill" transform="translate(2607 -12583)" fill="#A7B7C2"/>
</g>
</g>
<g id="hamburger-menu" opacity="0.75">
<g id="Line 2 (Stroke)">
<use xlink:href="#path6_fill" transform="translate(2607 -12780)"/>
</g>
<g id="Line 2.1 (Stroke)">
<use xlink:href="#path6_fill" transform="translate(2607 -12776)"/>
</g>
<g id="Line 2.2 (Stroke)">
<use xlink:href="#path6_fill" transform="translate(2607 -12772)"/>
</g>
</g>
<g id="Selection indicator">
<use xlink:href="#path9_fill" transform="translate(2591 -12650)" fill="#007AD0"/>
</g>
<g id="Rectangle">
<use xlink:href="#path14_fill" transform="translate(2655 -12751)" fill="#F2F8FC"/>
</g>
<g id="Rectangle">
<use xlink:href="#path15_fill" transform="translate(2655 -12782)" fill="#F2F8FC"/>
</g>
<g id="Navigation pane">
<use xlink:href="#path16_fill" transform="translate(2724 -12886)" fill="#37E8FD"/>
</g>
<g id="Navigation pane">
<use xlink:href="#path17_fill" transform="translate(3260 -12886)" fill="#37E8FD"/>
</g>
</g>
</g>
<defs>
<path id="path0_fill" fill-rule="evenodd" d="M 0 0L 487 0L 487 536L 0 536L 0 0Z"/>
<path id="path1_fill" fill-rule="evenodd" d="M 0 3C 0 1.34315 1.34315 0 3 0L 517 0C 518.657 0 520 1.34315 520 3L 520 533C 520 534.657 518.657 536 517 536L 3 536C 1.34315 536 0 534.657 0 533L 0 3Z"/>
<path id="path2_fill" d="M 0 0L 207 0L 207 536L 0 536L 0 0Z"/>
<path id="path3_fill" fill-rule="evenodd" d="M 12 1C 12 1.55228 11.5523 2 11 2L 1 2C 0.447715 2 0 1.55228 0 1C 0 0.447715 0.447715 0 1 0L 11 0C 11.5523 0 12 0.447715 12 1Z"/>
<path id="path4_fill" d="M 0 1C 0 0.447715 0.447715 0 1 0L 11 0C 11.5523 0 12 0.447715 12 1L 12 11C 12 11.5523 11.5523 12 11 12L 1 12C 0.447715 12 0 11.5523 0 11L 0 1Z"/>
<path id="path5_stroke_2x" d="M 1 2L 11 2L 11 -2L 1 -2L 1 2ZM 10 1L 10 11L 14 11L 14 1L 10 1ZM 11 10L 1 10L 1 14L 11 14L 11 10ZM 2 11L 2 1L -2 1L -2 11L 2 11ZM 1 10C 1.55228 10 2 10.4477 2 11L -2 11C -2 12.6569 -0.656854 14 1 14L 1 10ZM 10 11C 10 10.4477 10.4477 10 11 10L 11 14C 12.6569 14 14 12.6569 14 11L 10 11ZM 11 2C 10.4477 2 10 1.55228 10 1L 14 1C 14 -0.656854 12.6569 -2 11 -2L 11 2ZM 1 -2C -0.656854 -2 -2 -0.656854 -2 1L 2 1C 2 1.55228 1.55228 2 1 2L 1 -2Z"/>
<path id="path6_fill" fill-rule="evenodd" d="M 16 1C 16 1.55228 15.5523 2 15 2L 1 2C 0.447715 2 0 1.55228 0 1C 0 0.447715 0.447715 0 1 0L 15 0C 15.5523 0 16 0.447715 16 1Z"/>
<path id="path7_fill" d="M 0 0L 16 0L 16 16L 0 16L 0 0Z"/>
<path id="path8_fill" d="M 0 0L 144 0L 144 16L 0 16L 0 0Z"/>
<path id="path9_fill" fill-rule="evenodd" d="M 0 0L 6 0L 6 24L 0 24L 0 0Z"/>
<path id="path10_fill" d="M 0 0L 65 0L 65 8L 0 8L 0 0Z"/>
<path id="path11_fill" d="M 0 0L 264 0L 264 440L 0 440L 0 0Z"/>
<path id="path12_fill" fill-rule="evenodd" d="M 0 0L 488 0L 488 536L 0 536L 0 0Z"/>
<path id="path13_fill" d="M 0 0L 49 0L 49 536L 0 536L 0 0Z"/>
<path id="path14_fill" d="M 0 0L 408 0L 408 440L 0 440L 0 0Z"/>
<path id="path15_fill" d="M 0 0L 121 0L 121 16L 0 16L 0 0Z"/>
<path id="path16_fill" d="M 47.5088 19L 45.2236 19L 39.2031 9.73633C 39.0508 9.50195 38.9248 9.25879 38.8252 9.00684L 38.7725 9.00684C 38.8193 9.27637 38.8428 9.85352 38.8428 10.7383L 38.8428 19L 36.8213 19L 36.8213 6.39648L 39.2559 6.39648L 45.0742 15.4404C 45.3203 15.8154 45.4785 16.0732 45.5488 16.2139L 45.584 16.2139C 45.5254 15.8799 45.4961 15.3145 45.4961 14.5176L 45.4961 6.39648L 47.5088 6.39648L 47.5088 19ZM 57.3174 19L 55.3398 19L 55.3398 17.5938L 55.3047 17.5938C 54.6836 18.6719 53.7725 19.2109 52.5713 19.2109C 51.6865 19.2109 50.9922 18.9707 50.4883 18.4902C 49.9902 18.0098 49.7412 17.374 49.7412 16.583C 49.7412 14.8838 50.7197 13.8936 52.6768 13.6123L 55.3486 13.2344C 55.3486 11.9512 54.7393 11.3096 53.5205 11.3096C 52.4482 11.3096 51.4814 11.6787 50.6201 12.417L 50.6201 10.6328C 51.5693 10.0703 52.665 9.78906 53.9072 9.78906C 56.1807 9.78906 57.3174 10.9082 57.3174 13.1465L 57.3174 19ZM 55.3486 14.5791L 53.459 14.8428C 52.873 14.9189 52.4307 15.0625 52.1318 15.2734C 51.8389 15.4785 51.6924 15.8418 51.6924 16.3633C 51.6924 16.7441 51.8271 17.0576 52.0967 17.3037C 52.3721 17.5439 52.7383 17.6641 53.1953 17.6641C 53.8164 17.6641 54.3291 17.4473 54.7334 17.0137C 55.1436 16.5742 55.3486 16.0234 55.3486 15.3613L 55.3486 14.5791ZM 67.5654 10L 64.085 19L 61.8789 19L 58.5654 10L 60.7803 10L 62.7754 16.293C 62.9277 16.7559 63.0215 17.1602 63.0566 17.5059L 63.083 17.5059C 63.1357 17.0723 63.2178 16.6797 63.3291 16.3281L 65.4209 10L 67.5654 10ZM 75.9854 17.6729L 75.9502 17.6729L 75.9502 23.1396L 73.9111 23.1396L 73.9111 10L 75.9502 10L 75.9502 11.582L 75.9854 11.582C 76.6826 10.3867 77.7021 9.78906 79.0439 9.78906C 80.1865 9.78906 81.0771 10.1904 81.7158 10.9932C 82.3545 11.7959 82.6738 12.874 82.6738 14.2275C 82.6738 15.7275 82.3135 16.9287 81.5928 17.8311C 80.8721 18.7334 79.8877 19.1846 78.6396 19.1846C 77.4912 19.1846 76.6064 18.6807 75.9854 17.6729ZM 75.9326 14.1221L 75.9326 15.2383C 75.9326 15.8945 76.1406 16.4512 76.5566 16.9082C 76.9785 17.3652 77.5117 17.5938 78.1562 17.5938C 78.9121 17.5938 79.5039 17.3008 79.9316 16.7148C 80.3652 16.123 80.582 15.2998 80.582 14.2451C 80.582 13.3604 80.3799 12.6689 79.9756 12.1709C 79.5771 11.667 79.0352 11.415 78.3496 11.415C 77.623 11.415 77.0371 11.6729 76.5918 12.1885C 76.1523 12.7041 75.9326 13.3486 75.9326 14.1221ZM 91.4541 19L 89.4766 19L 89.4766 17.5938L 89.4414 17.5938C 88.8203 18.6719 87.9092 19.2109 86.708 19.2109C 85.8232 19.2109 85.1289 18.9707 84.625 18.4902C 84.127 18.0098 83.8779 17.374 83.8779 16.583C 83.8779 14.8838 84.8564 13.8936 86.8135 13.6123L 89.4854 13.2344C 89.4854 11.9512 88.876 11.3096 87.6572 11.3096C 86.585 11.3096 85.6182 11.6787 84.7568 12.417L 84.7568 10.6328C 85.7061 10.0703 86.8018 9.78906 88.0439 9.78906C 90.3174 9.78906 91.4541 10.9082 91.4541 13.1465L 91.4541 19ZM 89.4854 14.5791L 87.5957 14.8428C 87.0098 14.9189 86.5674 15.0625 86.2686 15.2734C 85.9756 15.4785 85.8291 15.8418 85.8291 16.3633C 85.8291 16.7441 85.9639 17.0576 86.2334 17.3037C 86.5088 17.5439 86.875 17.6641 87.332 17.6641C 87.9531 17.6641 88.4658 17.4473 88.8701 17.0137C 89.2803 16.5742 89.4854 16.0234 89.4854 15.3613L 89.4854 14.5791ZM 101.966 19L 99.9268 19L 99.9268 13.9287C 99.9268 12.2471 99.332 11.4062 98.1426 11.4062C 97.5215 11.4062 97.0088 11.6406 96.6045 12.1094C 96.2002 12.5723 95.998 13.1582 95.998 13.8672L 95.998 19L 93.9502 19L 93.9502 10L 95.998 10L 95.998 11.4941L 96.0332 11.4941C 96.707 10.3574 97.6797 9.78906 98.9512 9.78906C 99.9297 9.78906 100.677 10.1084 101.192 10.7471C 101.708 11.3799 101.966 12.2969 101.966 13.498L 101.966 19ZM 112.082 15.0537L 105.947 15.0537C 105.971 15.8857 106.226 16.5273 106.712 16.9785C 107.204 17.4297 107.878 17.6553 108.733 17.6553C 109.694 17.6553 110.576 17.3682 111.379 16.7939L 111.379 18.4375C 110.559 18.9531 109.475 19.2109 108.127 19.2109C 106.803 19.2109 105.763 18.8037 105.007 17.9893C 104.257 17.1689 103.882 16.0176 103.882 14.5352C 103.882 13.1348 104.295 11.9951 105.121 11.1162C 105.953 10.2314 106.984 9.78906 108.215 9.78906C 109.445 9.78906 110.397 10.1846 111.071 10.9756C 111.745 11.7666 112.082 12.8652 112.082 14.2715L 112.082 15.0537ZM 110.113 13.6123C 110.107 12.8799 109.935 12.3115 109.595 11.9072C 109.255 11.4971 108.786 11.292 108.188 11.292C 107.603 11.292 107.104 11.5059 106.694 11.9336C 106.29 12.3613 106.041 12.9209 105.947 13.6123L 110.113 13.6123ZM 125.424 18.5869C 124.703 19.0029 123.851 19.2109 122.866 19.2109C 121.53 19.2109 120.452 18.7949 119.632 17.9629C 118.812 17.125 118.401 16.041 118.401 14.7109C 118.401 13.2285 118.841 12.0391 119.72 11.1426C 120.604 10.2402 121.785 9.78906 123.262 9.78906C 124.082 9.78906 124.806 9.93262 125.433 10.2197L 125.433 12.1182C 124.806 11.6494 124.138 11.415 123.429 11.415C 122.567 11.415 121.861 11.708 121.311 12.2939C 120.76 12.874 120.484 13.6357 120.484 14.5791C 120.484 15.5107 120.742 16.2461 121.258 16.7852C 121.779 17.3242 122.477 17.5938 123.35 17.5938C 124.082 17.5938 124.773 17.333 125.424 16.8115L 125.424 18.5869ZM 131.444 19.2109C 130.056 19.2109 128.945 18.792 128.113 17.9541C 127.287 17.1104 126.874 15.9941 126.874 14.6055C 126.874 13.0938 127.305 11.9131 128.166 11.0635C 129.033 10.2139 130.199 9.78906 131.664 9.78906C 133.07 9.78906 134.166 10.2021 134.951 11.0283C 135.736 11.8545 136.129 13 136.129 14.4648C 136.129 15.9004 135.704 17.0518 134.854 17.9189C 134.011 18.7803 132.874 19.2109 131.444 19.2109ZM 131.541 11.415C 130.744 11.415 130.114 11.6934 129.651 12.25C 129.188 12.8066 128.957 13.5742 128.957 14.5527C 128.957 15.4961 129.191 16.2402 129.66 16.7852C 130.129 17.3242 130.756 17.5938 131.541 17.5938C 132.344 17.5938 132.959 17.3271 133.387 16.7939C 133.82 16.2607 134.037 15.502 134.037 14.5176C 134.037 13.5273 133.82 12.7627 133.387 12.2236C 132.959 11.6846 132.344 11.415 131.541 11.415ZM 140.26 19L 138.212 19L 138.212 5.67578L 140.26 5.67578L 140.26 19ZM 144.971 19L 142.923 19L 142.923 5.67578L 144.971 5.67578L 144.971 19ZM 154.542 19L 152.564 19L 152.564 17.5938L 152.529 17.5938C 151.908 18.6719 150.997 19.2109 149.796 19.2109C 148.911 19.2109 148.217 18.9707 147.713 18.4902C 147.215 18.0098 146.966 17.374 146.966 16.583C 146.966 14.8838 147.944 13.8936 149.901 13.6123L 152.573 13.2344C 152.573 11.9512 151.964 11.3096 150.745 11.3096C 149.673 11.3096 148.706 11.6787 147.845 12.417L 147.845 10.6328C 148.794 10.0703 149.89 9.78906 151.132 9.78906C 153.405 9.78906 154.542 10.9082 154.542 13.1465L 154.542 19ZM 152.573 14.5791L 150.684 14.8428C 150.098 14.9189 149.655 15.0625 149.356 15.2734C 149.063 15.4785 148.917 15.8418 148.917 16.3633C 148.917 16.7441 149.052 17.0576 149.321 17.3037C 149.597 17.5439 149.963 17.6641 150.42 17.6641C 151.041 17.6641 151.554 17.4473 151.958 17.0137C 152.368 16.5742 152.573 16.0234 152.573 15.3613L 152.573 14.5791ZM 159.112 17.6729L 159.077 17.6729L 159.077 23.1396L 157.038 23.1396L 157.038 10L 159.077 10L 159.077 11.582L 159.112 11.582C 159.81 10.3867 160.829 9.78906 162.171 9.78906C 163.313 9.78906 164.204 10.1904 164.843 10.9932C 165.481 11.7959 165.801 12.874 165.801 14.2275C 165.801 15.7275 165.44 16.9287 164.72 17.8311C 163.999 18.7334 163.015 19.1846 161.767 19.1846C 160.618 19.1846 159.733 18.6807 159.112 17.6729ZM 159.06 14.1221L 159.06 15.2383C 159.06 15.8945 159.268 16.4512 159.684 16.9082C 160.105 17.3652 160.639 17.5938 161.283 17.5938C 162.039 17.5938 162.631 17.3008 163.059 16.7148C 163.492 16.123 163.709 15.2998 163.709 14.2451C 163.709 13.3604 163.507 12.6689 163.103 12.1709C 162.704 11.667 162.162 11.415 161.477 11.415C 160.75 11.415 160.164 11.6729 159.719 12.1885C 159.279 12.7041 159.06 13.3486 159.06 14.1221ZM 167.321 18.7188L 167.321 16.8291C 168.083 17.4092 168.924 17.6992 169.844 17.6992C 171.074 17.6992 171.689 17.3359 171.689 16.6094C 171.689 16.4043 171.637 16.2314 171.531 16.0908C 171.426 15.9443 171.282 15.8154 171.101 15.7041C 170.925 15.5928 170.714 15.4932 170.468 15.4053C 170.228 15.3174 169.958 15.2178 169.659 15.1064C 169.29 14.96 168.956 14.8047 168.657 14.6406C 168.364 14.4766 168.118 14.292 167.919 14.0869C 167.726 13.876 167.579 13.6387 167.479 13.375C 167.38 13.1113 167.33 12.8037 167.33 12.4521C 167.33 12.0186 167.433 11.6377 167.638 11.3096C 167.843 10.9756 168.118 10.6973 168.464 10.4746C 168.81 10.2461 169.202 10.0762 169.642 9.96484C 170.081 9.84766 170.535 9.78906 171.004 9.78906C 171.836 9.78906 172.58 9.91504 173.236 10.167L 173.236 11.9512C 172.604 11.5176 171.877 11.3008 171.057 11.3008C 170.799 11.3008 170.564 11.3271 170.354 11.3799C 170.148 11.4326 169.973 11.5059 169.826 11.5996C 169.68 11.6934 169.565 11.8076 169.483 11.9424C 169.401 12.0713 169.36 12.2148 169.36 12.373C 169.36 12.5664 169.401 12.7305 169.483 12.8652C 169.565 13 169.686 13.1201 169.844 13.2256C 170.008 13.3252 170.201 13.4189 170.424 13.5068C 170.652 13.5889 170.913 13.6797 171.206 13.7793C 171.593 13.9375 171.938 14.0986 172.243 14.2627C 172.554 14.4268 172.817 14.6143 173.034 14.8252C 173.251 15.0303 173.418 15.2705 173.535 15.5459C 173.652 15.8154 173.711 16.1377 173.711 16.5127C 173.711 16.9697 173.605 17.3682 173.395 17.708C 173.184 18.0479 172.902 18.3291 172.551 18.5518C 172.199 18.7744 171.792 18.9385 171.329 19.0439C 170.872 19.1553 170.389 19.2109 169.879 19.2109C 168.895 19.2109 168.042 19.0469 167.321 18.7188ZM 183.273 15.0537L 177.139 15.0537C 177.162 15.8857 177.417 16.5273 177.903 16.9785C 178.396 17.4297 179.069 17.6553 179.925 17.6553C 180.886 17.6553 181.768 17.3682 182.57 16.7939L 182.57 18.4375C 181.75 18.9531 180.666 19.2109 179.318 19.2109C 177.994 19.2109 176.954 18.8037 176.198 17.9893C 175.448 17.1689 175.073 16.0176 175.073 14.5352C 175.073 13.1348 175.486 11.9951 176.312 11.1162C 177.145 10.2314 178.176 9.78906 179.406 9.78906C 180.637 9.78906 181.589 10.1846 182.263 10.9756C 182.937 11.7666 183.273 12.8652 183.273 14.2715L 183.273 15.0537ZM 181.305 13.6123C 181.299 12.8799 181.126 12.3115 180.786 11.9072C 180.446 11.4971 179.978 11.292 179.38 11.292C 178.794 11.292 178.296 11.5059 177.886 11.9336C 177.481 12.3613 177.232 12.9209 177.139 13.6123L 181.305 13.6123ZM 193.398 19L 191.359 19L 191.359 17.4707L 191.324 17.4707C 190.668 18.6309 189.657 19.2109 188.292 19.2109C 187.185 19.2109 186.297 18.8096 185.629 18.0068C 184.967 17.1982 184.636 16.0996 184.636 14.7109C 184.636 13.2227 185.002 12.0303 185.734 11.1338C 186.473 10.2373 187.454 9.78906 188.679 9.78906C 189.892 9.78906 190.773 10.2754 191.324 11.248L 191.359 11.248L 191.359 5.67578L 193.398 5.67578L 193.398 19ZM 191.386 14.8867L 191.386 13.709C 191.386 13.0703 191.178 12.5283 190.762 12.083C 190.346 11.6377 189.815 11.415 189.171 11.415C 188.409 11.415 187.809 11.6992 187.369 12.2676C 186.936 12.8359 186.719 13.624 186.719 14.6318C 186.719 15.5459 186.927 16.2695 187.343 16.8027C 187.765 17.3301 188.33 17.5938 189.039 17.5938C 189.736 17.5938 190.302 17.3389 190.735 16.8291C 191.169 16.3135 191.386 15.666 191.386 14.8867Z"/>
<path id="path17_fill" d="M 38.8564 19L 36.5713 19L 30.5508 9.73633C 30.3984 9.50195 30.2725 9.25879 30.1729 9.00684L 30.1201 9.00684C 30.167 9.27637 30.1904 9.85352 30.1904 10.7383L 30.1904 19L 28.1689 19L 28.1689 6.39648L 30.6035 6.39648L 36.4219 15.4404C 36.668 15.8154 36.8262 16.0732 36.8965 16.2139L 36.9316 16.2139C 36.873 15.8799 36.8438 15.3145 36.8438 14.5176L 36.8438 6.39648L 38.8564 6.39648L 38.8564 19ZM 48.665 19L 46.6875 19L 46.6875 17.5938L 46.6523 17.5938C 46.0312 18.6719 45.1201 19.2109 43.9189 19.2109C 43.0342 19.2109 42.3398 18.9707 41.8359 18.4902C 41.3379 18.0098 41.0889 17.374 41.0889 16.583C 41.0889 14.8838 42.0674 13.8936 44.0244 13.6123L 46.6963 13.2344C 46.6963 11.9512 46.0869 11.3096 44.8682 11.3096C 43.7959 11.3096 42.8291 11.6787 41.9678 12.417L 41.9678 10.6328C 42.917 10.0703 44.0127 9.78906 45.2549 9.78906C 47.5283 9.78906 48.665 10.9082 48.665 13.1465L 48.665 19ZM 46.6963 14.5791L 44.8066 14.8428C 44.2207 14.9189 43.7783 15.0625 43.4795 15.2734C 43.1865 15.4785 43.04 15.8418 43.04 16.3633C 43.04 16.7441 43.1748 17.0576 43.4443 17.3037C 43.7197 17.5439 44.0859 17.6641 44.543 17.6641C 45.1641 17.6641 45.6768 17.4473 46.0811 17.0137C 46.4912 16.5742 46.6963 16.0234 46.6963 15.3613L 46.6963 14.5791ZM 58.9131 10L 55.4326 19L 53.2266 19L 49.9131 10L 52.1279 10L 54.123 16.293C 54.2754 16.7559 54.3691 17.1602 54.4043 17.5059L 54.4307 17.5059C 54.4834 17.0723 54.5654 16.6797 54.6768 16.3281L 56.7686 10L 58.9131 10ZM 67.333 17.6729L 67.2979 17.6729L 67.2979 23.1396L 65.2588 23.1396L 65.2588 10L 67.2979 10L 67.2979 11.582L 67.333 11.582C 68.0303 10.3867 69.0498 9.78906 70.3916 9.78906C 71.5342 9.78906 72.4248 10.1904 73.0635 10.9932C 73.7021 11.7959 74.0215 12.874 74.0215 14.2275C 74.0215 15.7275 73.6611 16.9287 72.9404 17.8311C 72.2197 18.7334 71.2354 19.1846 69.9873 19.1846C 68.8389 19.1846 67.9541 18.6807 67.333 17.6729ZM 67.2803 14.1221L 67.2803 15.2383C 67.2803 15.8945 67.4883 16.4512 67.9043 16.9082C 68.3262 17.3652 68.8594 17.5938 69.5039 17.5938C 70.2598 17.5938 70.8516 17.3008 71.2793 16.7148C 71.7129 16.123 71.9297 15.2998 71.9297 14.2451C 71.9297 13.3604 71.7275 12.6689 71.3232 12.1709C 70.9248 11.667 70.3828 11.415 69.6973 11.415C 68.9707 11.415 68.3848 11.6729 67.9395 12.1885C 67.5 12.7041 67.2803 13.3486 67.2803 14.1221ZM 82.8018 19L 80.8242 19L 80.8242 17.5938L 80.7891 17.5938C 80.168 18.6719 79.2568 19.2109 78.0557 19.2109C 77.1709 19.2109 76.4766 18.9707 75.9727 18.4902C 75.4746 18.0098 75.2256 17.374 75.2256 16.583C 75.2256 14.8838 76.2041 13.8936 78.1611 13.6123L 80.833 13.2344C 80.833 11.9512 80.2236 11.3096 79.0049 11.3096C 77.9326 11.3096 76.9658 11.6787 76.1045 12.417L 76.1045 10.6328C 77.0537 10.0703 78.1494 9.78906 79.3916 9.78906C 81.665 9.78906 82.8018 10.9082 82.8018 13.1465L 82.8018 19ZM 80.833 14.5791L 78.9434 14.8428C 78.3574 14.9189 77.915 15.0625 77.6162 15.2734C 77.3232 15.4785 77.1768 15.8418 77.1768 16.3633C 77.1768 16.7441 77.3115 17.0576 77.5811 17.3037C 77.8564 17.5439 78.2227 17.6641 78.6797 17.6641C 79.3008 17.6641 79.8135 17.4473 80.2178 17.0137C 80.6279 16.5742 80.833 16.0234 80.833 15.3613L 80.833 14.5791ZM 93.3135 19L 91.2744 19L 91.2744 13.9287C 91.2744 12.2471 90.6797 11.4062 89.4902 11.4062C 88.8691 11.4062 88.3564 11.6406 87.9521 12.1094C 87.5479 12.5723 87.3457 13.1582 87.3457 13.8672L 87.3457 19L 85.2979 19L 85.2979 10L 87.3457 10L 87.3457 11.4941L 87.3809 11.4941C 88.0547 10.3574 89.0273 9.78906 90.2988 9.78906C 91.2773 9.78906 92.0244 10.1084 92.54 10.7471C 93.0557 11.3799 93.3135 12.2969 93.3135 13.498L 93.3135 19ZM 103.43 15.0537L 97.2949 15.0537C 97.3184 15.8857 97.5732 16.5273 98.0596 16.9785C 98.5518 17.4297 99.2256 17.6553 100.081 17.6553C 101.042 17.6553 101.924 17.3682 102.727 16.7939L 102.727 18.4375C 101.906 18.9531 100.822 19.2109 99.4746 19.2109C 98.1504 19.2109 97.1104 18.8037 96.3545 17.9893C 95.6045 17.1689 95.2295 16.0176 95.2295 14.5352C 95.2295 13.1348 95.6426 11.9951 96.4688 11.1162C 97.3008 10.2314 98.332 9.78906 99.5625 9.78906C 100.793 9.78906 101.745 10.1846 102.419 10.9756C 103.093 11.7666 103.43 12.8652 103.43 14.2715L 103.43 15.0537ZM 101.461 13.6123C 101.455 12.8799 101.282 12.3115 100.942 11.9072C 100.603 11.4971 100.134 11.292 99.5361 11.292C 98.9502 11.292 98.4521 11.5059 98.042 11.9336C 97.6377 12.3613 97.3887 12.9209 97.2949 13.6123L 101.461 13.6123ZM 117.949 15.0537L 111.814 15.0537C 111.838 15.8857 112.093 16.5273 112.579 16.9785C 113.071 17.4297 113.745 17.6553 114.601 17.6553C 115.562 17.6553 116.443 17.3682 117.246 16.7939L 117.246 18.4375C 116.426 18.9531 115.342 19.2109 113.994 19.2109C 112.67 19.2109 111.63 18.8037 110.874 17.9893C 110.124 17.1689 109.749 16.0176 109.749 14.5352C 109.749 13.1348 110.162 11.9951 110.988 11.1162C 111.82 10.2314 112.852 9.78906 114.082 9.78906C 115.312 9.78906 116.265 10.1846 116.938 10.9756C 117.612 11.7666 117.949 12.8652 117.949 14.2715L 117.949 15.0537ZM 115.98 13.6123C 115.975 12.8799 115.802 12.3115 115.462 11.9072C 115.122 11.4971 114.653 11.292 114.056 11.292C 113.47 11.292 112.972 11.5059 112.562 11.9336C 112.157 12.3613 111.908 12.9209 111.814 13.6123L 115.98 13.6123ZM 127.415 10L 124.418 14.5527L 127.38 19L 125.016 19L 123.434 16.2139C 123.334 16.0439 123.217 15.8271 123.082 15.5635L 123.047 15.5635C 123.023 15.6162 122.9 15.833 122.678 16.2139L 121.069 19L 118.714 19L 121.772 14.5879L 118.872 10L 121.245 10L 122.801 12.9268C 122.918 13.1436 123.032 13.3662 123.144 13.5947L 123.17 13.5947L 125.183 10L 127.415 10ZM 130.983 17.6729L 130.948 17.6729L 130.948 23.1396L 128.909 23.1396L 128.909 10L 130.948 10L 130.948 11.582L 130.983 11.582C 131.681 10.3867 132.7 9.78906 134.042 9.78906C 135.185 9.78906 136.075 10.1904 136.714 10.9932C 137.353 11.7959 137.672 12.874 137.672 14.2275C 137.672 15.7275 137.312 16.9287 136.591 17.8311C 135.87 18.7334 134.886 19.1846 133.638 19.1846C 132.489 19.1846 131.604 18.6807 130.983 17.6729ZM 130.931 14.1221L 130.931 15.2383C 130.931 15.8945 131.139 16.4512 131.555 16.9082C 131.977 17.3652 132.51 17.5938 133.154 17.5938C 133.91 17.5938 134.502 17.3008 134.93 16.7148C 135.363 16.123 135.58 15.2998 135.58 14.2451C 135.58 13.3604 135.378 12.6689 134.974 12.1709C 134.575 11.667 134.033 11.415 133.348 11.415C 132.621 11.415 132.035 11.6729 131.59 12.1885C 131.15 12.7041 130.931 13.3486 130.931 14.1221ZM 146.452 19L 144.475 19L 144.475 17.5938L 144.439 17.5938C 143.818 18.6719 142.907 19.2109 141.706 19.2109C 140.821 19.2109 140.127 18.9707 139.623 18.4902C 139.125 18.0098 138.876 17.374 138.876 16.583C 138.876 14.8838 139.854 13.8936 141.812 13.6123L 144.483 13.2344C 144.483 11.9512 143.874 11.3096 142.655 11.3096C 141.583 11.3096 140.616 11.6787 139.755 12.417L 139.755 10.6328C 140.704 10.0703 141.8 9.78906 143.042 9.78906C 145.315 9.78906 146.452 10.9082 146.452 13.1465L 146.452 19ZM 144.483 14.5791L 142.594 14.8428C 142.008 14.9189 141.565 15.0625 141.267 15.2734C 140.974 15.4785 140.827 15.8418 140.827 16.3633C 140.827 16.7441 140.962 17.0576 141.231 17.3037C 141.507 17.5439 141.873 17.6641 142.33 17.6641C 142.951 17.6641 143.464 17.4473 143.868 17.0137C 144.278 16.5742 144.483 16.0234 144.483 15.3613L 144.483 14.5791ZM 156.964 19L 154.925 19L 154.925 13.9287C 154.925 12.2471 154.33 11.4062 153.141 11.4062C 152.52 11.4062 152.007 11.6406 151.603 12.1094C 151.198 12.5723 150.996 13.1582 150.996 13.8672L 150.996 19L 148.948 19L 148.948 10L 150.996 10L 150.996 11.4941L 151.031 11.4941C 151.705 10.3574 152.678 9.78906 153.949 9.78906C 154.928 9.78906 155.675 10.1084 156.19 10.7471C 156.706 11.3799 156.964 12.2969 156.964 13.498L 156.964 19ZM 167.643 19L 165.604 19L 165.604 17.4707L 165.568 17.4707C 164.912 18.6309 163.901 19.2109 162.536 19.2109C 161.429 19.2109 160.541 18.8096 159.873 18.0068C 159.211 17.1982 158.88 16.0996 158.88 14.7109C 158.88 13.2227 159.246 12.0303 159.979 11.1338C 160.717 10.2373 161.698 9.78906 162.923 9.78906C 164.136 9.78906 165.018 10.2754 165.568 11.248L 165.604 11.248L 165.604 5.67578L 167.643 5.67578L 167.643 19ZM 165.63 14.8867L 165.63 13.709C 165.63 13.0703 165.422 12.5283 165.006 12.083C 164.59 11.6377 164.06 11.415 163.415 11.415C 162.653 11.415 162.053 11.6992 161.613 12.2676C 161.18 12.8359 160.963 13.624 160.963 14.6318C 160.963 15.5459 161.171 16.2695 161.587 16.8027C 162.009 17.3301 162.574 17.5938 163.283 17.5938C 163.98 17.5938 164.546 17.3389 164.979 16.8291C 165.413 16.3135 165.63 15.666 165.63 14.8867ZM 177.926 15.0537L 171.791 15.0537C 171.814 15.8857 172.069 16.5273 172.556 16.9785C 173.048 17.4297 173.722 17.6553 174.577 17.6553C 175.538 17.6553 176.42 17.3682 177.223 16.7939L 177.223 18.4375C 176.402 18.9531 175.318 19.2109 173.971 19.2109C 172.646 19.2109 171.606 18.8037 170.851 17.9893C 170.101 17.1689 169.726 16.0176 169.726 14.5352C 169.726 13.1348 170.139 11.9951 170.965 11.1162C 171.797 10.2314 172.828 9.78906 174.059 9.78906C 175.289 9.78906 176.241 10.1846 176.915 10.9756C 177.589 11.7666 177.926 12.8652 177.926 14.2715L 177.926 15.0537ZM 175.957 13.6123C 175.951 12.8799 175.778 12.3115 175.438 11.9072C 175.099 11.4971 174.63 11.292 174.032 11.292C 173.446 11.292 172.948 11.5059 172.538 11.9336C 172.134 12.3613 171.885 12.9209 171.791 13.6123L 175.957 13.6123ZM 188.051 19L 186.012 19L 186.012 17.4707L 185.977 17.4707C 185.32 18.6309 184.31 19.2109 182.944 19.2109C 181.837 19.2109 180.949 18.8096 180.281 18.0068C 179.619 17.1982 179.288 16.0996 179.288 14.7109C 179.288 13.2227 179.654 12.0303 180.387 11.1338C 181.125 10.2373 182.106 9.78906 183.331 9.78906C 184.544 9.78906 185.426 10.2754 185.977 11.248L 186.012 11.248L 186.012 5.67578L 188.051 5.67578L 188.051 19ZM 186.038 14.8867L 186.038 13.709C 186.038 13.0703 185.83 12.5283 185.414 12.083C 184.998 11.6377 184.468 11.415 183.823 11.415C 183.062 11.415 182.461 11.6992 182.021 12.2676C 181.588 12.8359 181.371 13.624 181.371 14.6318C 181.371 15.5459 181.579 16.2695 181.995 16.8027C 182.417 17.3301 182.982 17.5938 183.691 17.5938C 184.389 17.5938 184.954 17.3389 185.388 16.8291C 185.821 16.3135 186.038 15.666 186.038 14.8867Z"/>
</defs>
</svg>
