<svg width="1145" height="705" viewBox="0 0 1145 705" version="1.1" xmlns="http://www.w3.org/2000/svg" xmlns:xlink="http://www.w3.org/1999/xlink">
<title>original</title>
<desc>Created using Figma</desc>
<g id="Canvas" transform="translate(2338 12927)">
<clipPath id="clip-0" clip-rule="evenodd">
<path d="M -2338 -12927L -1193 -12927L -1193 -12222L -2338 -12222L -2338 -12927Z" fill="#FFFFFF"/>
</clipPath>
<g id="original" clip-path="url(#clip-0)">
<path d="M -2338 -12927L -1193 -12927L -1193 -12222L -2338 -12222L -2338 -12927Z" fill="#0E65AF"/>
<g id="Rectangle">
<use xlink:href="#path0_fill" transform="translate(-2274 -12871)" fill="#F2F2F2"/>
</g>
<g id="Navigation / Navigation view / Expanded">
<g id="Navigation">
<g id="Acrylic / Overlay">
<g id="Color burn" style="mix-blend-mode:exclusion">
<use xlink:href="#path1_fill" transform="translate(-2274 -12871)" fill="#FFFFFF" fill-opacity="0.1"/>
</g>
<g id="Color overlay 80">
<use xlink:href="#path1_fill" transform="translate(-2274 -12871)" fill="#FFFFFF" fill-opacity="0.8"/>
</g>
<g id="Navigation / Navigation view / Hamburger and title">
</g>
</g>
<g id="Items">
<g id="Bottom">
<g id="Item">
<g id="John Username">
<use xlink:href="#path2_fill" transform="translate(-2226 -12358)" fill="#000100"/>
</g>
<g id="Icon">
<use xlink:href="#path3_fill" transform="translate(-2257 -12355)"/>
</g>
</g>
<g id="Item">
<g id="Setting">
<use xlink:href="#path4_fill" transform="translate(-2226 -12318)" fill="#000100"/>
</g>
<g id="Icon">
<use xlink:href="#path5_fill" transform="translate(-2257.95 -12315)"/>
</g>
</g>
</g>
<g id="Top">
<g id="Item">
<g id="Navigation item">
<use xlink:href="#path6_fill" transform="translate(-2225 -12574)" fill="#000100"/>
</g>
<g id="Icon">
<use xlink:href="#path7_fill" transform="translate(-2257 -12569.5)"/>
</g>
</g>
<g id="Item">
<g id="Navigation item">
<use xlink:href="#path6_fill" transform="translate(-2225 -12614)" fill="#000100"/>
</g>
<g id="Icon">
<use xlink:href="#path7_fill" transform="translate(-2257 -12609.5)"/>
</g>
</g>
<g id="Item">
<g id="Navigation item">
<use xlink:href="#path6_fill" transform="translate(-2225 -12654)" fill="#000100"/>
</g>
<g id="Icon">
<use xlink:href="#path8_fill" transform="translate(-2256 -12649.8)"/>
</g>
</g>
<g id="Item">
<g id="Navigation item">
<use xlink:href="#path6_fill" transform="translate(-2225 -12694)" fill="#000100"/>
</g>
<g id="Icon">
<use xlink:href="#path8_fill" transform="translate(-2256 -12689.8)"/>
</g>
</g>
<g id="Item">
<g id="Navigation item">
<use xlink:href="#path6_fill" transform="translate(-2225 -12734)" fill="#000100"/>
</g>
<g id="Icon">
<use xlink:href="#path9_fill" transform="translate(-2257 -12729.5)"/>
</g>
</g>
<g id="Item">
<g id="Navigation item">
<use xlink:href="#path6_fill" transform="translate(-2225 -12774)" fill="#000100"/>
</g>
<g id="Icon">
<use xlink:href="#path7_fill" transform="translate(-2257 -12769.5)"/>
</g>
</g>
</g>
<g id="Selection indicator">
<use xlink:href="#path10_fill" transform="translate(-2274 -12655)" fill="#0078D7"/>
</g>
</g>
<g id="Navigation - Hamburger">
<g id="Hamburger">
<use xlink:href="#path11_fill" transform="translate(-2257 -12819)" fill="#171717"/>
</g>
</g>
</g>
</g>
<g id="Rectangle">
<use xlink:href="#path12_fill" transform="translate(-1970 -12759)" fill="#C4C4C4"/>
</g>
<g id="Rectangle">
<use xlink:href="#path12_fill" transform="translate(-1793.92 -12759)" fill="#C4C4C4"/>
</g>
<g id="Rectangle">
<use xlink:href="#path12_fill" transform="translate(-1617.84 -12759)" fill="#C4C4C4"/>
</g>
<g id="Rectangle">
<use xlink:href="#path12_fill" transform="translate(-1441.77 -12759)" fill="#C4C4C4"/>
</g>
<g id="Rectangle">
<use xlink:href="#path12_fill" transform="translate(-1970 -12623)" fill="#C4C4C4"/>
</g>
<g id="Rectangle">
<use xlink:href="#path12_fill" transform="translate(-1793.92 -12623)" fill="#C4C4C4"/>
</g>
<g id="Rectangle">
<use xlink:href="#path12_fill" transform="translate(-1617.84 -12623)" fill="#C4C4C4"/>
</g>
<g id="Rectangle">
<use xlink:href="#path12_fill" transform="translate(-1441.77 -12623)" fill="#C4C4C4"/>
</g>
<g id="Rectangle">
<use xlink:href="#path12_fill" transform="translate(-1970 -12487)" fill="#C4C4C4"/>
</g>
<g id="Rectangle">
<use xlink:href="#path12_fill" transform="translate(-1793.92 -12487)" fill="#C4C4C4"/>
</g>
<g id="Rectangle">
<use xlink:href="#path12_fill" transform="translate(-1617.84 -12487)" fill="#C4C4C4"/>
</g>
<g id="Rectangle">
<use xlink:href="#path12_fill" transform="translate(-1441.77 -12487)" fill="#C4C4C4"/>
</g>
<g id="App title bar / Without back button transparent">
<g id="Page title">
<use xlink:href="#path13_fill" transform="translate(-1971 -12831)"/>
</g>
<g id="Right Controls">
<g id="Close">
<use xlink:href="#path14_fill" transform="translate(-1281 -12862)" fill="#000100"/>
</g>
<g id="Full">
<mask id="mask0_outline_ins">
<use xlink:href="#path15_fill" fill="white" transform="translate(-1327 -12861)"/>
</mask>
<g mask="url(#mask0_outline_ins)">
<use xlink:href="#path16_stroke_2x" transform="translate(-1327 -12861)"/>
</g>
</g>
<g id="Minimize">
<mask id="mask1_outline_ins">
<use xlink:href="#path17_fill" fill="white" transform="translate(-1375 -12856)"/>
</mask>
<g mask="url(#mask1_outline_ins)">
<use xlink:href="#path18_stroke_2x" transform="translate(-1375 -12856)"/>
</g>
</g>
</g>
<g id="App Name">
<use xlink:href="#path19_fill" transform="translate(-2257 -12864)" fill="#000100"/>
</g>
</g>
<g id="Navigation / Command bar / Label on right">
<g id="Navigation">
<g id="Item">
<g id="Icon">
<use xlink:href="#path20_fill" transform="translate(-1298.75 -12816.2)"/>
</g>
</g>
<g id="Item">
<g id="Delete">
<use xlink:href="#path21_fill" transform="translate(-1360 -12823)" fill="#000100"/>
</g>
<g id="Icon">
<use xlink:href="#path22_fill" transform="translate(-1386.75 -12825)"/>
</g>
</g>
<g id="Item">
<g id="Edit">
<use xlink:href="#path23_fill" transform="translate(-1432 -12823)" fill="#000100"/>
</g>
<g id="Icon">
<use xlink:href="#path24_fill" transform="translate(-1460 -12825)"/>
</g>
</g>
<g id="Item">
<g id="Share">
<use xlink:href="#path25_fill" transform="translate(-1514 -12823)" fill="#000100"/>
</g>
<g id="Icon">
<use xlink:href="#path26_fill" transform="translate(-1542 -12825)"/>
</g>
</g>
</g>
</g>
</g>
</g>
<defs>
<path id="path0_fill" d="M 0 0L 1024 0L 1024 592L 0 592L 0 0Z"/>
<path id="path1_fill" fill-rule="evenodd" d="M 0 0L 273 0L 273 592L 0 592L 0 0Z"/>
<path id="path2_fill" d="M 4.06494 12.2354C 4.06494 13.4805 3.80127 14.4497 3.27393 15.1431C 2.74658 15.8315 2.04102 16.1758 1.15723 16.1758C 0.74707 16.1758 0.410156 16.1172 0.146484 16L 0.146484 14.7842C 0.410156 14.9746 0.751953 15.0698 1.17188 15.0698C 2.28027 15.0698 2.83447 14.1299 2.83447 12.25L 2.83447 5.49707L 4.06494 5.49707L 4.06494 12.2354ZM 9.71191 16.1758C 8.60352 16.1758 7.71729 15.8267 7.05322 15.1284C 6.39404 14.4253 6.06445 13.4951 6.06445 12.3379C 6.06445 11.0781 6.40869 10.0942 7.09717 9.38623C 7.78564 8.67822 8.71582 8.32422 9.8877 8.32422C 11.0059 8.32422 11.8774 8.66846 12.5024 9.35693C 13.1323 10.0454 13.4473 11 13.4473 12.2207C 13.4473 13.417 13.1079 14.3765 12.4292 15.0991C 11.7554 15.8169 10.8496 16.1758 9.71191 16.1758ZM 9.7998 9.33496C 9.02832 9.33496 8.41797 9.59863 7.96875 10.126C 7.51953 10.6484 7.29492 11.3711 7.29492 12.2939C 7.29492 13.1826 7.52197 13.8833 7.97607 14.396C 8.43018 14.9087 9.03809 15.165 9.7998 15.165C 10.5762 15.165 11.1719 14.9136 11.5869 14.4106C 12.0068 13.9077 12.2168 13.1924 12.2168 12.2646C 12.2168 11.3271 12.0068 10.6045 11.5869 10.0967C 11.1719 9.58887 10.5762 9.33496 9.7998 9.33496ZM 21.5918 16L 20.3906 16L 20.3906 11.6787C 20.3906 10.1162 19.8096 9.33496 18.6475 9.33496C 18.0615 9.33496 17.5684 9.56201 17.168 10.0161C 16.7676 10.4653 16.5674 11.0439 16.5674 11.752L 16.5674 16L 15.3662 16L 15.3662 4.89648L 16.5674 4.89648L 16.5674 9.74512L 16.5967 9.74512C 17.1729 8.79785 17.9932 8.32422 19.0576 8.32422C 20.7471 8.32422 21.5918 9.34229 21.5918 11.3784L 21.5918 16ZM 30.0879 16L 28.8867 16L 28.8867 11.7227C 28.8867 10.1309 28.3057 9.33496 27.1436 9.33496C 26.543 9.33496 26.0449 9.56201 25.6494 10.0161C 25.2588 10.4653 25.0635 11.0342 25.0635 11.7227L 25.0635 16L 23.8623 16L 23.8623 8.5L 25.0635 8.5L 25.0635 9.74512L 25.0928 9.74512C 25.6592 8.79785 26.4795 8.32422 27.5537 8.32422C 28.374 8.32422 29.0015 8.59033 29.436 9.12256C 29.8706 9.6499 30.0879 10.4141 30.0879 11.415L 30.0879 16ZM 44.3188 11.752C 44.3188 14.7012 42.9883 16.1758 40.3271 16.1758C 37.7783 16.1758 36.5039 14.7573 36.5039 11.9204L 36.5039 5.49707L 37.7344 5.49707L 37.7344 11.8398C 37.7344 13.9932 38.6426 15.0698 40.459 15.0698C 42.2119 15.0698 43.0884 14.0298 43.0884 11.9497L 43.0884 5.49707L 44.3188 5.49707L 44.3188 11.752ZM 46.333 15.729L 46.333 14.4399C 46.9873 14.9233 47.7075 15.165 48.4937 15.165C 49.5483 15.165 50.0757 14.8135 50.0757 14.1104C 50.0757 13.9102 50.0293 13.7417 49.9365 13.605C 49.8486 13.4634 49.7266 13.3389 49.5703 13.2314C 49.4189 13.124 49.2383 13.0288 49.0283 12.9458C 48.8232 12.8579 48.6011 12.7676 48.3618 12.6748C 48.0298 12.543 47.7368 12.4111 47.4829 12.2793C 47.2339 12.1426 47.0239 11.9912 46.853 11.8252C 46.687 11.6543 46.5601 11.4614 46.4722 11.2466C 46.3892 11.0317 46.3477 10.7803 46.3477 10.4922C 46.3477 10.1406 46.4282 9.83057 46.5894 9.56201C 46.7505 9.28857 46.9653 9.06152 47.2339 8.88086C 47.5024 8.69531 47.8076 8.55615 48.1494 8.46338C 48.4961 8.37061 48.8525 8.32422 49.2188 8.32422C 49.8682 8.32422 50.4492 8.43652 50.9619 8.66113L 50.9619 9.87695C 50.4102 9.51563 49.7754 9.33496 49.0576 9.33496C 48.833 9.33496 48.6304 9.36182 48.4497 9.41553C 48.269 9.46436 48.1128 9.53516 47.981 9.62793C 47.854 9.7207 47.7539 9.83301 47.6807 9.96484C 47.6123 10.0918 47.5781 10.2334 47.5781 10.3896C 47.5781 10.585 47.6123 10.7485 47.6807 10.8804C 47.7539 11.0122 47.8589 11.1294 47.9956 11.2319C 48.1323 11.3345 48.2983 11.4272 48.4937 11.5103C 48.689 11.5933 48.9111 11.6836 49.1602 11.7812C 49.4922 11.9082 49.79 12.04 50.0537 12.1768C 50.3174 12.3086 50.542 12.46 50.7275 12.6309C 50.9131 12.7969 51.0547 12.9897 51.1523 13.2095C 51.2549 13.4292 51.3062 13.6904 51.3062 13.9932C 51.3062 14.3643 51.2231 14.6865 51.0571 14.96C 50.896 15.2334 50.6787 15.4604 50.4053 15.6411C 50.1318 15.8218 49.8169 15.9561 49.4604 16.0439C 49.104 16.1318 48.7305 16.1758 48.3398 16.1758C 47.5684 16.1758 46.8994 16.0269 46.333 15.729ZM 59.187 12.5503L 53.8916 12.5503C 53.9111 13.3853 54.1357 14.0298 54.5654 14.4839C 54.9951 14.938 55.5859 15.165 56.3379 15.165C 57.1826 15.165 57.959 14.8867 58.667 14.3301L 58.667 15.458C 58.0078 15.9365 57.1362 16.1758 56.0522 16.1758C 54.9927 16.1758 54.1602 15.8364 53.5547 15.1577C 52.9492 14.4741 52.6465 13.5146 52.6465 12.2793C 52.6465 11.1123 52.9761 10.1626 53.6353 9.43018C 54.2993 8.69287 55.1221 8.32422 56.1035 8.32422C 57.085 8.32422 57.8442 8.6416 58.3813 9.27637C 58.9185 9.91113 59.187 10.7925 59.187 11.9204L 59.187 12.5503ZM 57.9565 11.5322C 57.9517 10.8389 57.7832 10.2993 57.4512 9.91357C 57.124 9.52783 56.6675 9.33496 56.0815 9.33496C 55.5151 9.33496 55.0342 9.5376 54.6387 9.94287C 54.2432 10.3481 53.999 10.8779 53.9062 11.5322L 57.9565 11.5322ZM 64.9219 9.71582C 64.7119 9.55469 64.4092 9.47412 64.0137 9.47412C 63.501 9.47412 63.0713 9.71582 62.7246 10.1992C 62.3828 10.6826 62.2119 11.3418 62.2119 12.1768L 62.2119 16L 61.0107 16L 61.0107 8.5L 62.2119 8.5L 62.2119 10.0454L 62.2412 10.0454C 62.4121 9.51807 62.6733 9.10791 63.0249 8.81494C 63.3765 8.51709 63.7695 8.36816 64.2041 8.36816C 64.5166 8.36816 64.7559 8.40234 64.9219 8.4707L 64.9219 9.71582ZM 72.4512 16L 71.25 16L 71.25 11.7227C 71.25 10.1309 70.6689 9.33496 69.5068 9.33496C 68.9062 9.33496 68.4082 9.56201 68.0127 10.0161C 67.6221 10.4653 67.4268 11.0342 67.4268 11.7227L 67.4268 16L 66.2256 16L 66.2256 8.5L 67.4268 8.5L 67.4268 9.74512L 67.4561 9.74512C 68.0225 8.79785 68.8428 8.32422 69.917 8.32422C 70.7373 8.32422 71.3647 8.59033 71.7993 9.12256C 72.2339 9.6499 72.4512 10.4141 72.4512 11.415L 72.4512 16ZM 80.0903 16L 78.8892 16L 78.8892 14.8281L 78.8599 14.8281C 78.3374 15.7266 77.5684 16.1758 76.5527 16.1758C 75.8057 16.1758 75.2197 15.978 74.7949 15.5825C 74.375 15.187 74.165 14.6621 74.165 14.0078C 74.165 12.6064 74.9902 11.791 76.6406 11.5615L 78.8892 11.2466C 78.8892 9.97217 78.374 9.33496 77.3438 9.33496C 76.4404 9.33496 75.625 9.64258 74.8975 10.2578L 74.8975 9.02734C 75.6348 8.55859 76.4844 8.32422 77.4463 8.32422C 79.209 8.32422 80.0903 9.25684 80.0903 11.1221L 80.0903 16ZM 78.8892 12.2061L 77.0801 12.4551C 76.5234 12.5332 76.1035 12.6724 75.8203 12.8726C 75.5371 13.0679 75.3955 13.417 75.3955 13.9199C 75.3955 14.2861 75.5249 14.5864 75.7837 14.8208C 76.0474 15.0503 76.3965 15.165 76.8311 15.165C 77.4268 15.165 77.9175 14.9575 78.3032 14.5425C 78.6938 14.1226 78.8892 13.5928 78.8892 12.9531L 78.8892 12.2061ZM 93.0029 16L 91.8018 16L 91.8018 11.6934C 91.8018 10.8633 91.6724 10.2627 91.4136 9.8916C 91.1597 9.52051 90.73 9.33496 90.1245 9.33496C 89.6118 9.33496 89.1748 9.56934 88.8135 10.0381C 88.457 10.5068 88.2788 11.0684 88.2788 11.7227L 88.2788 16L 87.0776 16L 87.0776 11.5469C 87.0776 10.0723 86.5088 9.33496 85.3711 9.33496C 84.8438 9.33496 84.4092 9.55713 84.0674 10.0015C 83.7256 10.4409 83.5547 11.0146 83.5547 11.7227L 83.5547 16L 82.3535 16L 82.3535 8.5L 83.5547 8.5L 83.5547 9.68652L 83.584 9.68652C 84.1162 8.77832 84.8926 8.32422 85.9131 8.32422C 86.4258 8.32422 86.8726 8.46826 87.2534 8.75635C 87.6343 9.03955 87.8955 9.41309 88.0371 9.87695C 88.5938 8.8418 89.4238 8.32422 90.5273 8.32422C 92.1777 8.32422 93.0029 9.34229 93.0029 11.3784L 93.0029 16ZM 101.301 12.5503L 96.0059 12.5503C 96.0254 13.3853 96.25 14.0298 96.6797 14.4839C 97.1094 14.938 97.7002 15.165 98.4521 15.165C 99.2969 15.165 100.073 14.8867 100.781 14.3301L 100.781 15.458C 100.122 15.9365 99.2505 16.1758 98.1665 16.1758C 97.1069 16.1758 96.2744 15.8364 95.6689 15.1577C 95.0635 14.4741 94.7607 13.5146 94.7607 12.2793C 94.7607 11.1123 95.0903 10.1626 95.7495 9.43018C 96.4136 8.69287 97.2363 8.32422 98.2178 8.32422C 99.1992 8.32422 99.9585 8.6416 100.496 9.27637C 101.033 9.91113 101.301 10.7925 101.301 11.9204L 101.301 12.5503ZM 100.071 11.5322C 100.066 10.8389 99.8975 10.2993 99.5654 9.91357C 99.2383 9.52783 98.7817 9.33496 98.1958 9.33496C 97.6294 9.33496 97.1484 9.5376 96.7529 9.94287C 96.3574 10.3481 96.1133 10.8779 96.0205 11.5322L 100.071 11.5322Z"/>
<path id="path3_fill" fill-rule="evenodd" d="M 9.39062 9.39844C 10.099 9.64323 10.7383 9.98567 11.3086 10.4258C 11.8789 10.8659 12.3633 11.375 12.7617 11.9531C 13.1602 12.5313 13.4661 13.1641 13.6797 13.8516C 13.8932 14.5391 14 15.2552 14 16L 13 16C 13 15.1458 12.8477 14.3529 12.543 13.6211C 12.2383 12.8893 11.8177 12.2552 11.2812 11.7188C 10.7448 11.1823 10.1107 10.7617 9.37891 10.457C 8.64713 10.1523 7.85417 10 7 10C 6.44271 10 5.90625 10.0703 5.39062 10.2109C 4.875 10.3516 4.39453 10.5508 3.94922 10.8086C 3.5039 11.0664 3.10026 11.3763 2.73828 11.7383C 2.3763 12.1003 2.06641 12.5039 1.80859 12.9492C 1.55078 13.3945 1.35156 13.875 1.21094 14.3906C 1.07031 14.9063 1 15.4427 1 16L 0 16C 0 15.25 0.109374 14.5326 0.328125 13.8477C 0.546876 13.1628 0.856769 12.5339 1.25781 11.9609C 1.65886 11.388 2.14453 10.8828 2.71484 10.4453C 3.28516 10.0078 3.92187 9.66146 4.625 9.40625C 4.21875 9.1875 3.85417 8.92188 3.53125 8.60938C 3.20833 8.29687 2.93359 7.94922 2.70703 7.56641C 2.48047 7.18359 2.30599 6.77474 2.18359 6.33984C 2.0612 5.90495 2 5.45834 2 5C 2 4.30729 2.13021 3.65756 2.39062 3.05078C 2.65104 2.44401 3.00781 1.91406 3.46094 1.46094C 3.91406 1.00781 4.44401 0.651043 5.05078 0.390625C 5.65756 0.130207 6.30729 0 7 0C 7.69271 0 8.34245 0.130207 8.94922 0.390625C 9.55599 0.651043 10.0859 1.00781 10.5391 1.46094C 10.9922 1.91406 11.349 2.44401 11.6094 3.05078C 11.8698 3.65756 12 4.30729 12 5C 12 5.45834 11.9388 5.90364 11.8164 6.33594C 11.694 6.76823 11.5195 7.17448 11.293 7.55469C 11.0664 7.9349 10.793 8.28255 10.4727 8.59766C 10.1523 8.91276 9.79167 9.17969 9.39062 9.39844ZM 3 5C 3 5.55209 3.10547 6.07031 3.31641 6.55469C 3.52734 7.03906 3.8138 7.46224 4.17578 7.82422C 4.53776 8.1862 4.96094 8.47266 5.44531 8.68359C 5.92969 8.89453 6.44791 9 7 9C 7.55209 9 8.07031 8.89453 8.55469 8.68359C 9.03907 8.47266 9.46224 8.1862 9.82422 7.82422C 10.1862 7.46224 10.4727 7.03906 10.6836 6.55469C 10.8945 6.07031 11 5.55209 11 5C 11 4.44791 10.8945 3.92969 10.6836 3.44531C 10.4727 2.96094 10.1862 2.53776 9.82422 2.17578C 9.46224 1.8138 9.03907 1.52734 8.55469 1.31641C 8.07031 1.10547 7.55209 1 7 1C 6.44791 1 5.92969 1.10547 5.44531 1.31641C 4.96094 1.52734 4.53776 1.8138 4.17578 2.17578C 3.8138 2.53776 3.52734 2.96094 3.31641 3.44531C 3.10547 3.92969 3 4.44791 3 5Z"/>
<path id="path4_fill" d="M 0.88623 15.5752L 0.88623 14.125C 1.05225 14.2715 1.25 14.4033 1.47949 14.5205C 1.71387 14.6377 1.95801 14.7378 2.21191 14.8208C 2.4707 14.8989 2.72949 14.96 2.98828 15.0039C 3.24707 15.0479 3.48633 15.0698 3.70605 15.0698C 4.46289 15.0698 5.02686 14.9307 5.39795 14.6523C 5.77393 14.3691 5.96191 13.9639 5.96191 13.4365C 5.96191 13.1533 5.89844 12.9067 5.77148 12.6968C 5.64941 12.4868 5.47852 12.2964 5.25879 12.1255C 5.03906 11.9497 4.77783 11.7837 4.4751 11.6274C 4.17725 11.4663 3.85498 11.2979 3.5083 11.1221C 3.14209 10.9365 2.80029 10.7485 2.48291 10.5581C 2.16553 10.3677 1.88965 10.1577 1.65527 9.92822C 1.4209 9.69873 1.23535 9.43994 1.09863 9.15186C 0.966797 8.85889 0.900879 8.51709 0.900879 8.12646C 0.900879 7.64795 1.00586 7.23291 1.21582 6.88135C 1.42578 6.5249 1.70166 6.23193 2.04346 6.00244C 2.38525 5.77295 2.77344 5.60205 3.20801 5.48975C 3.64746 5.37744 4.09424 5.32129 4.54834 5.32129C 5.5835 5.32129 6.33789 5.4458 6.81152 5.69482L 6.81152 7.0791C 6.19141 6.64941 5.39551 6.43457 4.42383 6.43457C 4.15527 6.43457 3.88672 6.46387 3.61816 6.52246C 3.34961 6.57617 3.11035 6.6665 2.90039 6.79346C 2.69043 6.92041 2.51953 7.08398 2.3877 7.28418C 2.25586 7.48438 2.18994 7.72852 2.18994 8.0166C 2.18994 8.28516 2.23877 8.51709 2.33643 8.7124C 2.43896 8.90771 2.58789 9.08594 2.7832 9.24707C 2.97852 9.4082 3.21533 9.56445 3.49365 9.71582C 3.77686 9.86719 4.10156 10.0332 4.46777 10.2139C 4.84375 10.3994 5.2002 10.5947 5.53711 10.7998C 5.87402 11.0049 6.16943 11.2319 6.42334 11.481C 6.67725 11.73 6.87744 12.0059 7.02393 12.3086C 7.17529 12.6113 7.25098 12.958 7.25098 13.3486C 7.25098 13.8662 7.14844 14.3057 6.94336 14.667C 6.74316 15.0234 6.46973 15.314 6.12305 15.5386C 5.78125 15.7632 5.38574 15.9243 4.93652 16.022C 4.4873 16.1245 4.01367 16.1758 3.51562 16.1758C 3.34961 16.1758 3.14453 16.1611 2.90039 16.1318C 2.65625 16.1074 2.40723 16.0684 2.15332 16.0146C 1.89941 15.9658 1.65771 15.9048 1.42822 15.8315C 1.20361 15.7534 1.02295 15.668 0.88623 15.5752ZM 15.2124 12.5503L 9.91699 12.5503C 9.93652 13.3853 10.1611 14.0298 10.5908 14.4839C 11.0205 14.938 11.6113 15.165 12.3633 15.165C 13.208 15.165 13.9844 14.8867 14.6924 14.3301L 14.6924 15.458C 14.0332 15.9365 13.1616 16.1758 12.0776 16.1758C 11.0181 16.1758 10.1855 15.8364 9.58008 15.1577C 8.97461 14.4741 8.67188 13.5146 8.67188 12.2793C 8.67188 11.1123 9.00146 10.1626 9.66064 9.43018C 10.3247 8.69287 11.1475 8.32422 12.1289 8.32422C 13.1104 8.32422 13.8696 8.6416 14.4067 9.27637C 14.9438 9.91113 15.2124 10.7925 15.2124 11.9204L 15.2124 12.5503ZM 13.9819 11.5322C 13.9771 10.8389 13.8086 10.2993 13.4766 9.91357C 13.1494 9.52783 12.6929 9.33496 12.1069 9.33496C 11.5405 9.33496 11.0596 9.5376 10.6641 9.94287C 10.2686 10.3481 10.0244 10.8779 9.93164 11.5322L 13.9819 11.5322ZM 20.5151 15.9268C 20.2319 16.083 19.8584 16.1611 19.3945 16.1611C 18.0811 16.1611 17.4243 15.4287 17.4243 13.9639L 17.4243 9.52539L 16.1353 9.52539L 16.1353 8.5L 17.4243 8.5L 17.4243 6.66895L 18.6255 6.28076L 18.6255 8.5L 20.5151 8.5L 20.5151 9.52539L 18.6255 9.52539L 18.6255 13.7515C 18.6255 14.2544 18.7109 14.6133 18.8818 14.8281C 19.0527 15.043 19.3359 15.1504 19.7314 15.1504C 20.0342 15.1504 20.2954 15.0674 20.5151 14.9014L 20.5151 15.9268ZM 25.5981 15.9268C 25.3149 16.083 24.9414 16.1611 24.4775 16.1611C 23.1641 16.1611 22.5073 15.4287 22.5073 13.9639L 22.5073 9.52539L 21.2183 9.52539L 21.2183 8.5L 22.5073 8.5L 22.5073 6.66895L 23.7085 6.28076L 23.7085 8.5L 25.5981 8.5L 25.5981 9.52539L 23.7085 9.52539L 23.7085 13.7515C 23.7085 14.2544 23.7939 14.6133 23.9648 14.8281C 24.1357 15.043 24.4189 15.1504 24.8145 15.1504C 25.1172 15.1504 25.3784 15.0674 25.5981 14.9014L 25.5981 15.9268ZM 27.8174 6.5957C 27.6025 6.5957 27.4194 6.52246 27.2681 6.37598C 27.1167 6.22949 27.041 6.04395 27.041 5.81934C 27.041 5.59473 27.1167 5.40918 27.2681 5.2627C 27.4194 5.11133 27.6025 5.03564 27.8174 5.03564C 28.0371 5.03564 28.2227 5.11133 28.374 5.2627C 28.5303 5.40918 28.6084 5.59473 28.6084 5.81934C 28.6084 6.03418 28.5303 6.21729 28.374 6.36865C 28.2227 6.52002 28.0371 6.5957 27.8174 6.5957ZM 28.4033 16L 27.2021 16L 27.2021 8.5L 28.4033 8.5L 28.4033 16ZM 37.0605 16L 35.8594 16L 35.8594 11.7227C 35.8594 10.1309 35.2783 9.33496 34.1162 9.33496C 33.5156 9.33496 33.0176 9.56201 32.6221 10.0161C 32.2314 10.4653 32.0361 11.0342 32.0361 11.7227L 32.0361 16L 30.835 16L 30.835 8.5L 32.0361 8.5L 32.0361 9.74512L 32.0654 9.74512C 32.6318 8.79785 33.4521 8.32422 34.5264 8.32422C 35.3467 8.32422 35.9741 8.59033 36.4087 9.12256C 36.8433 9.6499 37.0605 10.4141 37.0605 11.415L 37.0605 16ZM 45.7324 15.3994C 45.7324 18.1533 44.4141 19.5303 41.7773 19.5303C 40.8496 19.5303 40.0391 19.3545 39.3457 19.0029L 39.3457 17.8018C 40.1904 18.2705 40.9961 18.5049 41.7627 18.5049C 43.6084 18.5049 44.5312 17.5234 44.5312 15.5605L 44.5312 14.7402L 44.502 14.7402C 43.9307 15.6973 43.0713 16.1758 41.9238 16.1758C 40.9912 16.1758 40.2393 15.8437 39.668 15.1797C 39.1016 14.5107 38.8184 13.6147 38.8184 12.4917C 38.8184 11.2173 39.1235 10.2041 39.7339 9.45215C 40.3491 8.7002 41.189 8.32422 42.2534 8.32422C 43.2642 8.32422 44.0137 8.72949 44.502 9.54004L 44.5312 9.54004L 44.5312 8.5L 45.7324 8.5L 45.7324 15.3994ZM 44.5312 12.6089L 44.5312 11.5029C 44.5312 10.9072 44.3286 10.397 43.9233 9.97217C 43.5229 9.54736 43.0225 9.33496 42.4219 9.33496C 41.6797 9.33496 41.0986 9.60596 40.6787 10.1479C 40.2588 10.6851 40.0488 11.4395 40.0488 12.4111C 40.0488 13.2461 40.249 13.915 40.6494 14.418C 41.0547 14.916 41.5894 15.165 42.2534 15.165C 42.9272 15.165 43.4741 14.9258 43.894 14.4473C 44.3188 13.9687 44.5312 13.356 44.5312 12.6089Z"/>
<path id="path5_fill" fill-rule="evenodd" d="M 13.8828 7.67188C 13.8828 7.71875 13.8841 7.76562 13.8867 7.8125C 13.8893 7.85938 13.8906 7.90625 13.8906 7.95312C 13.8906 8 13.8893 8.04688 13.8867 8.09375C 13.8841 8.14062 13.8828 8.1875 13.8828 8.23438L 15.9062 9.49219L 14.6641 12.4844L 12.3438 11.9531C 12.2187 12.0885 12.0885 12.2187 11.9531 12.3438L 12.4844 14.6641L 9.49219 15.9062L 8.23438 13.8828C 8.1875 13.8828 8.14062 13.8841 8.09375 13.8867C 8.04688 13.8893 8 13.8906 7.95312 13.8906C 7.90625 13.8906 7.85938 13.8893 7.8125 13.8867C 7.76562 13.8841 7.71875 13.8828 7.67188 13.8828L 6.41406 15.9062L 3.42188 14.6641L 3.95312 12.3438C 3.81771 12.2187 3.6875 12.0885 3.5625 11.9531L 1.24219 12.4844L 0 9.49219L 2.02344 8.23438C 2.02344 8.1875 2.02214 8.14062 2.01953 8.09375C 2.01693 8.04688 2.01562 8 2.01562 7.95312C 2.01562 7.90625 2.01693 7.85938 2.01953 7.8125C 2.02214 7.76562 2.02344 7.71875 2.02344 7.67188L 0 6.41406L 1.24219 3.42188L 3.5625 3.95312C 3.6875 3.81771 3.81771 3.6875 3.95312 3.5625L 3.42188 1.24219L 6.41406 0L 7.67188 2.02344C 7.71875 2.02344 7.76562 2.02214 7.8125 2.01953C 7.85938 2.01693 7.90625 2.01562 7.95312 2.01562C 8 2.01562 8.04688 2.01693 8.09375 2.01953C 8.14062 2.02214 8.1875 2.02344 8.23438 2.02344L 9.49219 0L 12.4844 1.24219L 11.9531 3.5625C 12.0885 3.6875 12.2187 3.81771 12.3438 3.95312L 14.6641 3.42188L 15.9062 6.41406L 13.8828 7.67188ZM 12.9688 8.6875C 12.9792 8.5625 12.9896 8.4388 13 8.31641C 13.0104 8.19401 13.0156 8.07031 13.0156 7.94531C 13.0156 7.82552 13.0104 7.70313 13 7.57812C 12.9896 7.45312 12.9792 7.33073 12.9688 7.21094L 14.8125 6.0625L 14.1406 4.4375L 12.0234 4.92969C 11.862 4.73177 11.6966 4.54948 11.5273 4.38281C 11.3581 4.21615 11.1745 4.04948 10.9766 3.88281L 11.4688 1.76562L 9.84375 1.09375L 8.6875 2.9375C 8.56771 2.92708 8.44531 2.91667 8.32031 2.90625C 8.19531 2.89583 8.07292 2.89062 7.95312 2.89062C 7.82812 2.89062 7.70443 2.89583 7.58203 2.90625C 7.45963 2.91667 7.33594 2.92708 7.21094 2.9375L 6.0625 1.09375L 4.4375 1.76562L 4.92969 3.88281C 4.73177 4.04427 4.54948 4.20963 4.38281 4.37891C 4.21615 4.54818 4.04948 4.73177 3.88281 4.92969L 1.76562 4.4375L 1.09375 6.0625L 2.9375 7.21875C 2.92708 7.34375 2.91667 7.46745 2.90625 7.58984C 2.89583 7.71224 2.89062 7.83594 2.89062 7.96094C 2.89062 8.08073 2.89583 8.20312 2.90625 8.32812C 2.91667 8.45313 2.92708 8.57552 2.9375 8.69531L 1.09375 9.84375L 1.76562 11.4688L 3.88281 10.9766C 4.04427 11.1745 4.20963 11.3568 4.37891 11.5234C 4.54818 11.6901 4.73177 11.8568 4.92969 12.0234L 4.4375 14.1406L 6.0625 14.8125L 7.21875 12.9688C 7.33854 12.9792 7.46094 12.9896 7.58594 13C 7.71094 13.0104 7.83333 13.0156 7.95312 13.0156C 8.07813 13.0156 8.20182 13.0104 8.32422 13C 8.44662 12.9896 8.57031 12.9792 8.69531 12.9688L 9.84375 14.8125L 11.4688 14.1406L 10.9766 12.0234C 11.1745 11.862 11.3568 11.6966 11.5234 11.5273C 11.6901 11.3581 11.8568 11.1745 12.0234 10.9766L 14.1406 11.4688L 14.8125 9.84375L 12.9688 8.6875ZM 7.95312 5.01562C 8.35938 5.01562 8.74088 5.09245 9.09766 5.24609C 9.45443 5.39974 9.76562 5.60937 10.0312 5.875C 10.2969 6.14063 10.5065 6.45182 10.6602 6.80859C 10.8138 7.16537 10.8906 7.54687 10.8906 7.95312C 10.8906 8.35938 10.8138 8.74088 10.6602 9.09766C 10.5065 9.45443 10.2969 9.76562 10.0312 10.0312C 9.76562 10.2969 9.45443 10.5065 9.09766 10.6602C 8.74088 10.8138 8.35938 10.8906 7.95312 10.8906C 7.54687 10.8906 7.16537 10.8138 6.80859 10.6602C 6.45182 10.5065 6.14063 10.2969 5.875 10.0312C 5.60937 9.76562 5.39974 9.45443 5.24609 9.09766C 5.09245 8.74088 5.01562 8.35938 5.01562 7.95312C 5.01562 7.54687 5.09245 7.16537 5.24609 6.80859C 5.39974 6.45182 5.60937 6.14063 5.875 5.875C 6.14063 5.60937 6.45182 5.39974 6.80859 5.24609C 7.16537 5.09245 7.54687 5.01562 7.95312 5.01562ZM 7.95312 10.0156C 8.23958 10.0156 8.50781 9.96224 8.75781 9.85547C 9.00781 9.7487 9.22656 9.60156 9.41406 9.41406C 9.60156 9.22656 9.7487 9.00781 9.85547 8.75781C 9.96224 8.50781 10.0156 8.23958 10.0156 7.95312C 10.0156 7.66667 9.96224 7.39844 9.85547 7.14844C 9.7487 6.89844 9.60156 6.67969 9.41406 6.49219C 9.22656 6.30469 9.00781 6.15755 8.75781 6.05078C 8.50781 5.94401 8.23958 5.89062 7.95312 5.89062C 7.66667 5.89062 7.39844 5.94401 7.14844 6.05078C 6.89844 6.15755 6.67969 6.30469 6.49219 6.49219C 6.30469 6.67969 6.15755 6.89844 6.05078 7.14844C 5.94401 7.39844 5.89062 7.66667 5.89062 7.95312C 5.89062 8.23958 5.94401 8.50781 6.05078 8.75781C 6.15755 9.00781 6.30469 9.22656 6.49219 9.41406C 6.67969 9.60156 6.89844 9.7487 7.14844 9.85547C 7.39844 9.96224 7.66667 10.0156 7.95312 10.0156Z"/>
<path id="path6_fill" d="M 9.84375 16L 8.33496 16L 2.92969 7.62842C 2.79297 7.41846 2.68066 7.19873 2.59277 6.96924L 2.54883 6.96924C 2.58789 7.19385 2.60742 7.6748 2.60742 8.41211L 2.60742 16L 1.37695 16L 1.37695 5.49707L 2.97363 5.49707L 8.23242 13.7368C 8.45215 14.0786 8.59375 14.313 8.65723 14.4399L 8.68652 14.4399C 8.6377 14.1372 8.61328 13.6221 8.61328 12.8945L 8.61328 5.49707L 9.84375 5.49707L 9.84375 16ZM 17.8052 16L 16.604 16L 16.604 14.8281L 16.5747 14.8281C 16.0522 15.7266 15.2832 16.1758 14.2676 16.1758C 13.5205 16.1758 12.9346 15.978 12.5098 15.5825C 12.0898 15.187 11.8799 14.6621 11.8799 14.0078C 11.8799 12.6064 12.7051 11.791 14.3555 11.5615L 16.604 11.2466C 16.604 9.97217 16.0889 9.33496 15.0586 9.33496C 14.1553 9.33496 13.3398 9.64258 12.6123 10.2578L 12.6123 9.02734C 13.3496 8.55859 14.1992 8.32422 15.1611 8.32422C 16.9238 8.32422 17.8052 9.25684 17.8052 11.1221L 17.8052 16ZM 16.604 12.2061L 14.7949 12.4551C 14.2383 12.5332 13.8184 12.6724 13.5352 12.8726C 13.252 13.0679 13.1104 13.417 13.1104 13.9199C 13.1104 14.2861 13.2397 14.5864 13.4985 14.8208C 13.7622 15.0503 14.1113 15.165 14.5459 15.165C 15.1416 15.165 15.6323 14.9575 16.0181 14.5425C 16.4087 14.1226 16.604 13.5928 16.604 12.9531L 16.604 12.2061ZM 25.9644 8.5L 22.9761 16L 21.7969 16L 18.9551 8.5L 20.2734 8.5L 22.1777 13.9492C 22.3193 14.3496 22.4072 14.6987 22.4414 14.9966L 22.4707 14.9966C 22.5195 14.6206 22.5977 14.2812 22.7051 13.9785L 24.6973 8.5L 25.9644 8.5ZM 27.876 6.5957C 27.6611 6.5957 27.478 6.52246 27.3267 6.37598C 27.1753 6.22949 27.0996 6.04395 27.0996 5.81934C 27.0996 5.59473 27.1753 5.40918 27.3267 5.2627C 27.478 5.11133 27.6611 5.03564 27.876 5.03564C 28.0957 5.03564 28.2813 5.11133 28.4326 5.2627C 28.5889 5.40918 28.667 5.59473 28.667 5.81934C 28.667 6.03418 28.5889 6.21729 28.4326 6.36865C 28.2813 6.52002 28.0957 6.5957 27.876 6.5957ZM 28.4619 16L 27.2607 16L 27.2607 8.5L 28.4619 8.5L 28.4619 16ZM 37.2949 15.3994C 37.2949 18.1533 35.9766 19.5303 33.3398 19.5303C 32.4121 19.5303 31.6016 19.3545 30.9082 19.0029L 30.9082 17.8018C 31.7529 18.2705 32.5586 18.5049 33.3252 18.5049C 35.1709 18.5049 36.0938 17.5234 36.0938 15.5605L 36.0938 14.7402L 36.0645 14.7402C 35.4932 15.6973 34.6338 16.1758 33.4863 16.1758C 32.5537 16.1758 31.8018 15.8437 31.2305 15.1797C 30.6641 14.5107 30.3809 13.6147 30.3809 12.4917C 30.3809 11.2173 30.686 10.2041 31.2964 9.45215C 31.9116 8.7002 32.7515 8.32422 33.8159 8.32422C 34.8267 8.32422 35.5762 8.72949 36.0645 9.54004L 36.0938 9.54004L 36.0938 8.5L 37.2949 8.5L 37.2949 15.3994ZM 36.0938 12.6089L 36.0938 11.5029C 36.0938 10.9072 35.8911 10.397 35.4858 9.97217C 35.0854 9.54736 34.585 9.33496 33.9844 9.33496C 33.2422 9.33496 32.6611 9.60596 32.2412 10.1479C 31.8213 10.6851 31.6113 11.4395 31.6113 12.4111C 31.6113 13.2461 31.8115 13.915 32.2119 14.418C 32.6172 14.916 33.1519 15.165 33.8159 15.165C 34.4897 15.165 35.0366 14.9258 35.4565 14.4473C 35.8813 13.9687 36.0938 13.356 36.0938 12.6089ZM 45.0952 16L 43.894 16L 43.894 14.8281L 43.8647 14.8281C 43.3423 15.7266 42.5732 16.1758 41.5576 16.1758C 40.8105 16.1758 40.2246 15.978 39.7998 15.5825C 39.3799 15.187 39.1699 14.6621 39.1699 14.0078C 39.1699 12.6064 39.9951 11.791 41.6455 11.5615L 43.894 11.2466C 43.894 9.97217 43.3789 9.33496 42.3486 9.33496C 41.4453 9.33496 40.6299 9.64258 39.9023 10.2578L 39.9023 9.02734C 40.6396 8.55859 41.4893 8.32422 42.4512 8.32422C 44.2139 8.32422 45.0952 9.25684 45.0952 11.1221L 45.0952 16ZM 43.894 12.2061L 42.085 12.4551C 41.5283 12.5332 41.1084 12.6724 40.8252 12.8726C 40.542 13.0679 40.4004 13.417 40.4004 13.9199C 40.4004 14.2861 40.5298 14.5864 40.7886 14.8208C 41.0522 15.0503 41.4014 15.165 41.8359 15.165C 42.4316 15.165 42.9224 14.9575 43.3081 14.5425C 43.6987 14.1226 43.894 13.5928 43.894 12.9531L 43.894 12.2061ZM 50.8374 15.9268C 50.5542 16.083 50.1807 16.1611 49.7168 16.1611C 48.4033 16.1611 47.7466 15.4287 47.7466 13.9639L 47.7466 9.52539L 46.4575 9.52539L 46.4575 8.5L 47.7466 8.5L 47.7466 6.66895L 48.9478 6.28076L 48.9478 8.5L 50.8374 8.5L 50.8374 9.52539L 48.9478 9.52539L 48.9478 13.7515C 48.9478 14.2544 49.0332 14.6133 49.2041 14.8281C 49.375 15.043 49.6582 15.1504 50.0537 15.1504C 50.3564 15.1504 50.6177 15.0674 50.8374 14.9014L 50.8374 15.9268ZM 53.0566 6.5957C 52.8418 6.5957 52.6587 6.52246 52.5073 6.37598C 52.356 6.22949 52.2803 6.04395 52.2803 5.81934C 52.2803 5.59473 52.356 5.40918 52.5073 5.2627C 52.6587 5.11133 52.8418 5.03564 53.0566 5.03564C 53.2764 5.03564 53.4619 5.11133 53.6133 5.2627C 53.7695 5.40918 53.8477 5.59473 53.8477 5.81934C 53.8477 6.03418 53.7695 6.21729 53.6133 6.36865C 53.4619 6.52002 53.2764 6.5957 53.0566 6.5957ZM 53.6426 16L 52.4414 16L 52.4414 8.5L 53.6426 8.5L 53.6426 16ZM 59.209 16.1758C 58.1006 16.1758 57.2144 15.8267 56.5503 15.1284C 55.8911 14.4253 55.5615 13.4951 55.5615 12.3379C 55.5615 11.0781 55.9058 10.0942 56.5942 9.38623C 57.2827 8.67822 58.2129 8.32422 59.3848 8.32422C 60.5029 8.32422 61.3745 8.66846 61.9995 9.35693C 62.6294 10.0454 62.9443 11 62.9443 12.2207C 62.9443 13.417 62.605 14.3765 61.9263 15.0991C 61.2524 15.8169 60.3467 16.1758 59.209 16.1758ZM 59.2969 9.33496C 58.5254 9.33496 57.915 9.59863 57.4658 10.126C 57.0166 10.6484 56.792 11.3711 56.792 12.2939C 56.792 13.1826 57.019 13.8833 57.4731 14.396C 57.9272 14.9087 58.5352 15.165 59.2969 15.165C 60.0732 15.165 60.6689 14.9136 61.084 14.4106C 61.5039 13.9077 61.7139 13.1924 61.7139 12.2646C 61.7139 11.3271 61.5039 10.6045 61.084 10.0967C 60.6689 9.58887 60.0732 9.33496 59.2969 9.33496ZM 71.0889 16L 69.8877 16L 69.8877 11.7227C 69.8877 10.1309 69.3066 9.33496 68.1445 9.33496C 67.5439 9.33496 67.0459 9.56201 66.6504 10.0161C 66.2598 10.4653 66.0645 11.0342 66.0645 11.7227L 66.0645 16L 64.8633 16L 64.8633 8.5L 66.0645 8.5L 66.0645 9.74512L 66.0938 9.74512C 66.6602 8.79785 67.4805 8.32422 68.5547 8.32422C 69.375 8.32422 70.0024 8.59033 70.437 9.12256C 70.8716 9.6499 71.0889 10.4141 71.0889 11.415L 71.0889 16ZM 78.0908 6.5957C 77.876 6.5957 77.6929 6.52246 77.5415 6.37598C 77.3901 6.22949 77.3145 6.04395 77.3145 5.81934C 77.3145 5.59473 77.3901 5.40918 77.5415 5.2627C 77.6929 5.11133 77.876 5.03564 78.0908 5.03564C 78.3105 5.03564 78.4961 5.11133 78.6475 5.2627C 78.8037 5.40918 78.8818 5.59473 78.8818 5.81934C 78.8818 6.03418 78.8037 6.21729 78.6475 6.36865C 78.4961 6.52002 78.3105 6.5957 78.0908 6.5957ZM 78.6768 16L 77.4756 16L 77.4756 8.5L 78.6768 8.5L 78.6768 16ZM 84.5874 15.9268C 84.3042 16.083 83.9307 16.1611 83.4668 16.1611C 82.1533 16.1611 81.4966 15.4287 81.4966 13.9639L 81.4966 9.52539L 80.2075 9.52539L 80.2075 8.5L 81.4966 8.5L 81.4966 6.66895L 82.6978 6.28076L 82.6978 8.5L 84.5874 8.5L 84.5874 9.52539L 82.6978 9.52539L 82.6978 13.7515C 82.6978 14.2544 82.7832 14.6133 82.9541 14.8281C 83.125 15.043 83.4082 15.1504 83.8037 15.1504C 84.1064 15.1504 84.3677 15.0674 84.5874 14.9014L 84.5874 15.9268ZM 92.2192 12.5503L 86.9238 12.5503C 86.9434 13.3853 87.168 14.0298 87.5977 14.4839C 88.0273 14.938 88.6182 15.165 89.3701 15.165C 90.2148 15.165 90.9912 14.8867 91.6992 14.3301L 91.6992 15.458C 91.04 15.9365 90.1685 16.1758 89.0845 16.1758C 88.0249 16.1758 87.1924 15.8364 86.5869 15.1577C 85.9814 14.4741 85.6787 13.5146 85.6787 12.2793C 85.6787 11.1123 86.0083 10.1626 86.6675 9.43018C 87.3315 8.69287 88.1543 8.32422 89.1357 8.32422C 90.1172 8.32422 90.8765 8.6416 91.4136 9.27637C 91.9507 9.91113 92.2192 10.7925 92.2192 11.9204L 92.2192 12.5503ZM 90.9888 11.5322C 90.9839 10.8389 90.8154 10.2993 90.4834 9.91357C 90.1562 9.52783 89.6997 9.33496 89.1138 9.33496C 88.5474 9.33496 88.0664 9.5376 87.6709 9.94287C 87.2754 10.3481 87.0312 10.8779 86.9385 11.5322L 90.9888 11.5322ZM 104.692 16L 103.491 16L 103.491 11.6934C 103.491 10.8633 103.362 10.2627 103.103 9.8916C 102.849 9.52051 102.419 9.33496 101.814 9.33496C 101.301 9.33496 100.864 9.56934 100.503 10.0381C 100.146 10.5068 99.9683 11.0684 99.9683 11.7227L 99.9683 16L 98.7671 16L 98.7671 11.5469C 98.7671 10.0723 98.1982 9.33496 97.0605 9.33496C 96.5332 9.33496 96.0986 9.55713 95.7568 10.0015C 95.415 10.4409 95.2441 11.0146 95.2441 11.7227L 95.2441 16L 94.043 16L 94.043 8.5L 95.2441 8.5L 95.2441 9.68652L 95.2734 9.68652C 95.8057 8.77832 96.582 8.32422 97.6025 8.32422C 98.1152 8.32422 98.562 8.46826 98.9429 8.75635C 99.3237 9.03955 99.585 9.41309 99.7266 9.87695C 100.283 8.8418 101.113 8.32422 102.217 8.32422C 103.867 8.32422 104.692 9.34229 104.692 11.3784L 104.692 16Z"/>
<path id="path7_fill" fill-rule="evenodd" d="M 15 10.5L 7.5 13L 0 10.5L 7.5 0L 15 10.5ZM 8 11.7812L 13.3984 9.97656L 8 2.42188L 8 11.7812ZM 1.60156 9.97656L 7 11.7812L 7 2.42188L 1.60156 9.97656Z"/>
<path id="path8_fill" fill-rule="evenodd" d="M 13 3.25781L 13 11.3672L 6.5 14.625L 0 11.3672L 0 3.25781L 6.5 0L 13 3.25781ZM 6.5 1.125L 1.61719 3.5625L 6.5 6L 11.3828 3.5625L 6.5 1.125ZM 1 10.75L 6 13.2578L 6 6.875L 1 4.36719L 1 10.75ZM 12 10.75L 12 4.36719L 7 6.875L 7 13.2578L 12 10.75Z"/>
<path id="path9_fill" fill-rule="evenodd" d="M 16 7L 12.9375 8.53125L 16 10.0625L 8 14.0625L 0 10.0625L 3.0625 8.53125L 0 7L 3 5.5L 0 4L 8 0L 16 4L 13 5.5L 16 7ZM 2.23438 4C 3.20313 4.48438 4.16536 4.96354 5.12109 5.4375C 6.07683 5.91146 7.03645 6.39323 8 6.88281C 8.96355 6.39323 9.92317 5.91146 10.8789 5.4375C 11.8346 4.96354 12.7969 4.48438 13.7656 4L 8 1.11719L 2.23438 4ZM 11.8203 9.08594L 8 11L 4.17969 9.08594L 2.23438 10.0625L 8 12.9453L 13.7656 10.0625L 11.8203 9.08594ZM 8 9.88281C 8.96875 9.39843 9.92968 8.91667 10.8828 8.4375C 11.8359 7.95833 12.7969 7.47917 13.7656 7L 11.8828 6.05469C 11.2318 6.38281 10.5846 6.70703 9.94141 7.02734C 9.29817 7.34766 8.65104 7.67187 8 8C 7.34896 7.67187 6.70183 7.34766 6.05859 7.02734C 5.41536 6.70703 4.76823 6.38281 4.11719 6.05469L 2.23438 7C 3.20313 7.47917 4.16406 7.95833 5.11719 8.4375C 6.07032 8.91667 7.03125 9.39843 8 9.88281Z"/>
<path id="path10_fill" fill-rule="evenodd" d="M 0 0L 6 0L 6 24L 0 24L 0 0Z"/>
<path id="path11_fill" fill-rule="evenodd" d="M 16 1L 0 1L 0 0L 16 0L 16 1ZM 16 9L 0 9L 0 8L 16 8L 16 9ZM 16 4.99219L 0 4.99219L 0 4L 16 4L 16 4.99219Z"/>
<path id="path12_fill" d="M 0 0L 160.767 0L 160.767 120L 0 120L 0 0Z"/>
<path id="path13_fill" d="M 3.73828 19.4609L 3.73828 26L 2.17969 26L 2.17969 9.19531L 6.51562 9.19531C 7.39844 9.19531 8.17969 9.30469 8.85938 9.52344C 9.53906 9.74219 10.1133 10.0586 10.582 10.4727C 11.0508 10.8867 11.4062 11.3945 11.6484 11.9961C 11.8906 12.5977 12.0117 13.2852 12.0117 14.0586C 12.0117 14.8398 11.875 15.5625 11.6016 16.2266C 11.3281 16.8828 10.9336 17.4531 10.418 17.9375C 9.91016 18.4141 9.28906 18.7891 8.55469 19.0625C 7.82031 19.3281 6.98828 19.4609 6.05859 19.4609L 3.73828 19.4609ZM 3.73828 10.625L 3.73828 18.0312L 5.96484 18.0312C 7.41016 18.0312 8.50781 17.6953 9.25781 17.0234C 10.0078 16.3516 10.3828 15.4023 10.3828 14.1758C 10.3828 11.8086 9 10.625 6.23438 10.625L 3.73828 10.625ZM 21.3164 26L 21.3164 23.8672L 21.2695 23.8672C 20.8789 24.6328 20.3438 25.2266 19.6641 25.6484C 18.9922 26.0703 18.2305 26.2812 17.3789 26.2812C 16.8008 26.2812 16.2773 26.1992 15.8086 26.0352C 15.3477 25.8711 14.9531 25.6406 14.625 25.3438C 14.3047 25.0391 14.0547 24.6758 13.875 24.2539C 13.7031 23.832 13.6172 23.3672 13.6172 22.8594C 13.6172 21.7734 13.9531 20.9102 14.625 20.2695C 15.2969 19.6211 16.3125 19.1992 17.6719 19.0039L 21.3164 18.4766C 21.3164 16.1719 20.4219 15.0195 18.6328 15.0195C 17.2344 15.0195 15.9375 15.5313 14.7422 16.5547L 14.7422 14.9141C 14.9922 14.7344 15.2734 14.5742 15.5859 14.4336C 15.9063 14.2852 16.2422 14.1602 16.5938 14.0586C 16.9453 13.9492 17.3047 13.8672 17.6719 13.8125C 18.0469 13.75 18.4102 13.7188 18.7617 13.7188C 20.0977 13.7188 21.1055 14.0938 21.7852 14.8438C 22.4727 15.5938 22.8164 16.7109 22.8164 18.1953L 22.8164 26L 21.3164 26ZM 18.2227 20.1758C 17.6836 20.2539 17.2227 20.3516 16.8398 20.4688C 16.457 20.5859 16.1406 20.7461 15.8906 20.9492C 15.6406 21.1445 15.457 21.3906 15.3398 21.6875C 15.2227 21.9766 15.1641 22.3359 15.1641 22.7656C 15.1641 23.0859 15.2188 23.3828 15.3281 23.6562C 15.4453 23.9297 15.6094 24.168 15.8203 24.3711C 16.0391 24.5664 16.3008 24.7187 16.6055 24.8281C 16.918 24.9375 17.2695 24.9922 17.6602 24.9922C 18.1914 24.9922 18.6797 24.8906 19.125 24.6875C 19.5703 24.4844 19.9531 24.2031 20.2734 23.8438C 20.6016 23.4844 20.8555 23.0547 21.0352 22.5547C 21.2227 22.0547 21.3164 21.5117 21.3164 20.9258L 21.3164 19.7422L 18.2227 20.1758ZM 36.3398 25.0742C 36.3398 27.3008 35.832 28.9492 34.8164 30.0195C 33.8086 31.0977 32.25 31.6367 30.1406 31.6367C 28.8281 31.6367 27.5859 31.3438 26.4141 30.7578L 26.4141 29.2344C 27.7188 29.9609 28.9609 30.3242 30.1406 30.3242C 33.2734 30.3242 34.8398 28.668 34.8398 25.3555L 34.8398 23.9141L 34.793 23.9141C 33.8711 25.4922 32.4648 26.2812 30.5742 26.2812C 29.832 26.2812 29.1523 26.1445 28.5352 25.8711C 27.9258 25.5977 27.4023 25.2031 26.9648 24.6875C 26.5273 24.1719 26.1875 23.5469 25.9453 22.8125C 25.7031 22.0703 25.582 21.2344 25.582 20.3047C 25.582 19.3203 25.7109 18.4258 25.9688 17.6211C 26.2266 16.8086 26.5937 16.1133 27.0703 15.5352C 27.5469 14.957 28.1211 14.5117 28.793 14.1992C 29.4727 13.8789 30.2344 13.7188 31.0781 13.7188C 32.7734 13.7188 34.0117 14.4063 34.793 15.7812L 34.8398 15.7812L 34.8398 14L 36.3398 14L 36.3398 25.0742ZM 34.8398 18.7109C 34.8398 18.2109 34.75 17.7383 34.5703 17.293C 34.3906 16.8477 34.1406 16.457 33.8203 16.1211C 33.5 15.7852 33.1172 15.5195 32.6719 15.3242C 32.2344 15.1211 31.75 15.0195 31.2188 15.0195C 30.5938 15.0195 30.0273 15.1406 29.5195 15.3828C 29.0195 15.625 28.5898 15.9688 28.2305 16.4141C 27.8789 16.8594 27.6055 17.4023 27.4102 18.043C 27.2227 18.6758 27.1289 19.3906 27.1289 20.1875C 27.1289 20.9219 27.2188 21.5859 27.3984 22.1797C 27.5781 22.7734 27.832 23.2773 28.1602 23.6914C 28.4883 24.1055 28.8828 24.4258 29.3438 24.6523C 29.8125 24.8789 30.332 24.9922 30.9023 24.9922C 31.4961 24.9922 32.0352 24.8867 32.5195 24.6758C 33.0039 24.457 33.418 24.1602 33.7617 23.7852C 34.1055 23.4023 34.3711 22.957 34.5586 22.4492C 34.7461 21.9336 34.8398 21.3789 34.8398 20.7852L 34.8398 18.7109ZM 40.9219 20.2695C 40.9297 21.0039 41.0273 21.6641 41.2148 22.25C 41.4023 22.8359 41.6719 23.332 42.0234 23.7383C 42.375 24.1445 42.8008 24.457 43.3008 24.6758C 43.8086 24.8867 44.3789 24.9922 45.0117 24.9922C 46.3633 24.9922 47.6406 24.5195 48.8438 23.5742L 48.8438 25.0508C 47.6953 25.8711 46.3047 26.2812 44.6719 26.2812C 43.8672 26.2812 43.1367 26.1406 42.4805 25.8594C 41.8242 25.5781 41.2656 25.1719 40.8047 24.6406C 40.3438 24.1016 39.9883 23.4414 39.7383 22.6602C 39.4883 21.8789 39.3633 20.9883 39.3633 19.9883C 39.3633 19.0898 39.5 18.2578 39.7734 17.4922C 40.0469 16.7266 40.4258 16.0664 40.9102 15.5117C 41.3945 14.9492 41.9688 14.5117 42.6328 14.1992C 43.2969 13.8789 44.0234 13.7188 44.8125 13.7188C 45.5859 13.7188 46.2695 13.8555 46.8633 14.1289C 47.457 14.3945 47.9531 14.7773 48.3516 15.2773C 48.7578 15.7773 49.0664 16.3867 49.2773 17.1055C 49.4883 17.8242 49.5938 18.6289 49.5938 19.5195L 49.5938 20.2695L 40.9219 20.2695ZM 48.0469 18.957C 48.0234 17.707 47.7266 16.7383 47.1562 16.0508C 46.5859 15.3633 45.793 15.0195 44.7773 15.0195C 44.2695 15.0195 43.7969 15.1094 43.3594 15.2891C 42.9297 15.4687 42.5508 15.7305 42.2227 16.0742C 41.8945 16.4102 41.6211 16.8242 41.4023 17.3164C 41.1914 17.8008 41.043 18.3477 40.957 18.957L 48.0469 18.957ZM 64.2773 25.8594C 63.7617 26.1172 63.1992 26.2461 62.5898 26.2461C 60.6523 26.2461 59.6836 25.1289 59.6836 22.8945L 59.6836 15.3125L 57.5742 15.3125L 57.5742 14L 59.6836 14L 59.6836 10.9766L 61.1836 10.4844L 61.1836 14L 64.2773 14L 64.2773 15.3125L 61.1836 15.3125L 61.1836 22.6602C 61.1836 23.4727 61.3164 24.0586 61.582 24.418C 61.8477 24.7773 62.2969 24.957 62.9297 24.957C 63.3984 24.957 63.8477 24.8164 64.2773 24.5352L 64.2773 25.8594ZM 67.5 10.9648C 67.2109 10.9648 66.9609 10.8633 66.75 10.6602C 66.5391 10.457 66.4336 10.1992 66.4336 9.88672C 66.4336 9.58203 66.5391 9.33203 66.75 9.13672C 66.9609 8.93359 67.2109 8.83203 67.5 8.83203C 67.6484 8.83203 67.7891 8.85938 67.9219 8.91406C 68.0547 8.96094 68.168 9.03125 68.2617 9.125C 68.3633 9.21875 68.4414 9.33203 68.4961 9.46484C 68.5586 9.58984 68.5898 9.73047 68.5898 9.88672C 68.5898 10.0352 68.5625 10.1758 68.5078 10.3086C 68.4531 10.4414 68.375 10.5586 68.2734 10.6602C 68.1719 10.7539 68.0547 10.8281 67.9219 10.8828C 67.7969 10.9375 67.6562 10.9648 67.5 10.9648ZM 66.7617 26L 66.7617 14L 68.2617 14L 68.2617 26L 66.7617 26ZM 77.2852 25.8594C 76.7695 26.1172 76.207 26.2461 75.5977 26.2461C 73.6602 26.2461 72.6914 25.1289 72.6914 22.8945L 72.6914 15.3125L 70.582 15.3125L 70.582 14L 72.6914 14L 72.6914 10.9766L 74.1914 10.4844L 74.1914 14L 77.2852 14L 77.2852 15.3125L 74.1914 15.3125L 74.1914 22.6602C 74.1914 23.4727 74.3242 24.0586 74.5898 24.418C 74.8555 24.7773 75.3047 24.957 75.9375 24.957C 76.4062 24.957 76.8555 24.8164 77.2852 24.5352L 77.2852 25.8594ZM 79.7695 26L 79.7695 8.23438L 81.2695 8.23438L 81.2695 26L 79.7695 26ZM 85.8516 20.2695C 85.8594 21.0039 85.957 21.6641 86.1445 22.25C 86.332 22.8359 86.6016 23.332 86.9531 23.7383C 87.3047 24.1445 87.7305 24.457 88.2305 24.6758C 88.7383 24.8867 89.3086 24.9922 89.9414 24.9922C 91.293 24.9922 92.5703 24.5195 93.7734 23.5742L 93.7734 25.0508C 92.625 25.8711 91.2344 26.2812 89.6016 26.2812C 88.7969 26.2812 88.0664 26.1406 87.4102 25.8594C 86.7539 25.5781 86.1953 25.1719 85.7344 24.6406C 85.2734 24.1016 84.918 23.4414 84.668 22.6602C 84.418 21.8789 84.293 20.9883 84.293 19.9883C 84.293 19.0898 84.4297 18.2578 84.7031 17.4922C 84.9766 16.7266 85.3555 16.0664 85.8398 15.5117C 86.3242 14.9492 86.8984 14.5117 87.5625 14.1992C 88.2266 13.8789 88.9531 13.7188 89.7422 13.7188C 90.5156 13.7188 91.1992 13.8555 91.793 14.1289C 92.3867 14.3945 92.8828 14.7773 93.2812 15.2773C 93.6875 15.7773 93.9961 16.3867 94.207 17.1055C 94.418 17.8242 94.5234 18.6289 94.5234 19.5195L 94.5234 20.2695L 85.8516 20.2695ZM 92.9766 18.957C 92.9531 17.707 92.6563 16.7383 92.0859 16.0508C 91.5156 15.3633 90.7227 15.0195 89.707 15.0195C 89.1992 15.0195 88.7266 15.1094 88.2891 15.2891C 87.8594 15.4687 87.4805 15.7305 87.1523 16.0742C 86.8242 16.4102 86.5508 16.8242 86.332 17.3164C 86.1211 17.8008 85.9727 18.3477 85.8867 18.957L 92.9766 18.957Z"/>
<path id="path14_fill" d="M 11.4575 2.11377L 7.07764 6.5L 11.4575 10.8862L 10.8862 11.4575L 6.5 7.07764L 2.11377 11.4575L 1.54248 10.8862L 5.92236 6.5L 1.54248 2.11377L 2.11377 1.54248L 6.5 5.92236L 10.8862 1.54248L 11.4575 2.11377Z"/>
<path id="path15_fill" fill-rule="evenodd" d="M 0 0L 10 0L 10 10L 0 10L 0 0Z"/>
<path id="path16_stroke_2x" d="M 0 0L 0 -1L -1 -1L -1 0L 0 0ZM 10 0L 11 0L 11 -1L 10 -1L 10 0ZM 10 10L 10 11L 11 11L 11 10L 10 10ZM 0 10L -1 10L -1 11L 0 11L 0 10ZM 0 1L 10 1L 10 -1L 0 -1L 0 1ZM 9 0L 9 10L 11 10L 11 0L 9 0ZM 10 9L 0 9L 0 11L 10 11L 10 9ZM 1 10L 1 0L -1 0L -1 10L 1 10Z"/>
<path id="path17_fill" fill-rule="evenodd" d="M 0 0L 10 0L 10 1L 0 1L 0 0Z"/>
<path id="path18_stroke_2x" d="M 0 0L 0 -1L -1 -1L -1 0L 0 0ZM 10 0L 11 0L 11 -1L 10 -1L 10 0ZM 10 1L 10 2L 11 2L 11 1L 10 1ZM 0 1L -1 1L -1 2L 0 2L 0 1ZM 0 1L 10 1L 10 -1L 0 -1L 0 1ZM 9 0L 9 1L 11 1L 11 0L 9 0ZM 10 0L 0 0L 0 2L 10 2L 10 0ZM 1 1L 1 0L -1 0L -1 1L 1 1Z"/>
<path id="path19_fill" d="M 7.60547 12L 6.51562 12L 5.625 9.64453L 2.0625 9.64453L 1.22461 12L 0.128906 12L 3.35156 3.59766L 4.37109 3.59766L 7.60547 12ZM 5.30273 8.75977L 3.98438 5.17969C 3.94141 5.0625 3.89844 4.875 3.85547 4.61719L 3.83203 4.61719C 3.79297 4.85547 3.74805 5.04297 3.69727 5.17969L 2.39062 8.75977L 5.30273 8.75977ZM 9.70312 11.1328L 9.67969 11.1328L 9.67969 14.7598L 8.71875 14.7598L 8.71875 6L 9.67969 6L 9.67969 7.05469L 9.70312 7.05469C 10.1758 6.25781 10.8672 5.85938 11.7773 5.85938C 12.5508 5.85938 13.1543 6.12891 13.5879 6.66797C 14.0215 7.20312 14.2383 7.92188 14.2383 8.82422C 14.2383 9.82813 13.9941 10.6328 13.5059 11.2383C 13.0176 11.8398 12.3496 12.1406 11.502 12.1406C 10.7246 12.1406 10.125 11.8047 9.70312 11.1328ZM 9.67969 8.71289L 9.67969 9.55078C 9.67969 10.0469 9.83984 10.4687 10.1602 10.8164C 10.4844 11.1602 10.8945 11.332 11.3906 11.332C 11.9727 11.332 12.4277 11.1094 12.7559 10.6641C 13.0879 10.2188 13.2539 9.59961 13.2539 8.80664C 13.2539 8.13867 13.0996 7.61523 12.791 7.23633C 12.4824 6.85742 12.0645 6.66797 11.5371 6.66797C 10.9785 6.66797 10.5293 6.86328 10.1895 7.25391C 9.84961 7.64062 9.67969 8.12695 9.67969 8.71289ZM 16.7578 11.1328L 16.7344 11.1328L 16.7344 14.7598L 15.7734 14.7598L 15.7734 6L 16.7344 6L 16.7344 7.05469L 16.7578 7.05469C 17.2305 6.25781 17.9219 5.85938 18.832 5.85938C 19.6055 5.85938 20.209 6.12891 20.6426 6.66797C 21.0762 7.20312 21.293 7.92188 21.293 8.82422C 21.293 9.82813 21.0488 10.6328 20.5605 11.2383C 20.0723 11.8398 19.4043 12.1406 18.5566 12.1406C 17.7793 12.1406 17.1797 11.8047 16.7578 11.1328ZM 16.7344 8.71289L 16.7344 9.55078C 16.7344 10.0469 16.8945 10.4687 17.2148 10.8164C 17.5391 11.1602 17.9492 11.332 18.4453 11.332C 19.0273 11.332 19.4824 11.1094 19.8105 10.6641C 20.1426 10.2188 20.3086 9.59961 20.3086 8.80664C 20.3086 8.13867 20.1543 7.61523 19.8457 7.23633C 19.5371 6.85742 19.1191 6.66797 18.5918 6.66797C 18.0332 6.66797 17.584 6.86328 17.2441 7.25391C 16.9043 7.64062 16.7344 8.12695 16.7344 8.71289ZM 33.0234 12L 31.8164 12L 27.4922 5.30273C 27.3828 5.13477 27.293 4.95898 27.2227 4.77539L 27.1875 4.77539C 27.2188 4.95508 27.2344 5.33984 27.2344 5.92969L 27.2344 12L 26.25 12L 26.25 3.59766L 27.5273 3.59766L 31.7344 10.1895C 31.9102 10.4629 32.0234 10.6504 32.0742 10.752L 32.0977 10.752C 32.0586 10.5098 32.0391 10.0977 32.0391 9.51562L 32.0391 3.59766L 33.0234 3.59766L 33.0234 12ZM 39.3926 12L 38.4316 12L 38.4316 11.0625L 38.4082 11.0625C 37.9902 11.7813 37.375 12.1406 36.5625 12.1406C 35.9648 12.1406 35.4961 11.9824 35.1562 11.666C 34.8203 11.3496 34.6523 10.9297 34.6523 10.4062C 34.6523 9.28516 35.3125 8.63281 36.6328 8.44922L 38.4316 8.19727C 38.4316 7.17773 38.0195 6.66797 37.1953 6.66797C 36.4727 6.66797 35.8203 6.91406 35.2383 7.40625L 35.2383 6.42188C 35.8281 6.04688 36.5078 5.85938 37.2773 5.85938C 38.6875 5.85938 39.3926 6.60547 39.3926 8.09766L 39.3926 12ZM 38.4316 8.96484L 36.9844 9.16406C 36.5391 9.22656 36.2031 9.33789 35.9766 9.49805C 35.75 9.6543 35.6367 9.93359 35.6367 10.3359C 35.6367 10.6289 35.7402 10.8691 35.9473 11.0566C 36.1582 11.2402 36.4375 11.332 36.7852 11.332C 37.2617 11.332 37.6543 11.166 37.9629 10.834C 38.2754 10.498 38.4316 10.0742 38.4316 9.5625L 38.4316 8.96484ZM 49.7227 12L 48.7617 12L 48.7617 8.55469C 48.7617 7.89063 48.6582 7.41016 48.4512 7.11328C 48.248 6.81641 47.9043 6.66797 47.4199 6.66797C 47.0098 6.66797 46.6602 6.85547 46.3711 7.23047C 46.0859 7.60547 45.9434 8.05469 45.9434 8.57812L 45.9434 12L 44.9824 12L 44.9824 8.4375C 44.9824 7.25781 44.5273 6.66797 43.6172 6.66797C 43.1953 6.66797 42.8477 6.8457 42.5742 7.20117C 42.3008 7.55273 42.1641 8.01172 42.1641 8.57812L 42.1641 12L 41.2031 12L 41.2031 6L 42.1641 6L 42.1641 6.94922L 42.1875 6.94922C 42.6133 6.22266 43.2344 5.85938 44.0508 5.85938C 44.4609 5.85938 44.8184 5.97461 45.123 6.20508C 45.4277 6.43164 45.6367 6.73047 45.75 7.10156C 46.1953 6.27344 46.8594 5.85938 47.7422 5.85938C 49.0625 5.85938 49.7227 6.67383 49.7227 8.30273L 49.7227 12ZM 56.3613 9.24023L 52.125 9.24023C 52.1406 9.9082 52.3203 10.4238 52.6641 10.7871C 53.0078 11.1504 53.4805 11.332 54.082 11.332C 54.7578 11.332 55.3789 11.1094 55.9453 10.6641L 55.9453 11.5664C 55.418 11.9492 54.7207 12.1406 53.8535 12.1406C 53.0059 12.1406 52.3398 11.8691 51.8555 11.3262C 51.3711 10.7793 51.1289 10.0117 51.1289 9.02344C 51.1289 8.08984 51.3926 7.33008 51.9199 6.74414C 52.4512 6.1543 53.1094 5.85938 53.8945 5.85938C 54.6797 5.85938 55.2871 6.11328 55.7168 6.62109C 56.1465 7.12891 56.3613 7.83398 56.3613 8.73633L 56.3613 9.24023ZM 55.377 8.42578C 55.373 7.87109 55.2383 7.43945 54.9727 7.13086C 54.7109 6.82227 54.3457 6.66797 53.877 6.66797C 53.4238 6.66797 53.0391 6.83008 52.7227 7.1543C 52.4062 7.47852 52.2109 7.90234 52.1367 8.42578L 55.377 8.42578Z"/>
<path id="path20_fill" fill-rule="evenodd" d="M 1.25 0C 1.42578 0 1.58854 0.0325518 1.73828 0.0976562C 1.88802 0.162761 2.01986 0.252278 2.13379 0.366211C 2.24772 0.480144 2.33724 0.611978 2.40234 0.761719C 2.46745 0.911459 2.5 1.07422 2.5 1.25C 2.5 1.42578 2.46745 1.58854 2.40234 1.73828C 2.33724 1.88802 2.24772 2.01986 2.13379 2.13379C 2.01986 2.24772 1.88802 2.33724 1.73828 2.40234C 1.58854 2.46745 1.42578 2.5 1.25 2.5C 1.07422 2.5 0.911459 2.46745 0.761719 2.40234C 0.611978 2.33724 0.480144 2.24772 0.366211 2.13379C 0.252278 2.01986 0.162761 1.88802 0.0976562 1.73828C 0.0325518 1.58854 0 1.42578 0 1.25C 0 1.07422 0.0325518 0.911459 0.0976562 0.761719C 0.162761 0.611978 0.252278 0.480144 0.366211 0.366211C 0.480144 0.252278 0.611978 0.162761 0.761719 0.0976562C 0.911459 0.0325518 1.07422 0 1.25 0ZM 8.75 0C 8.92578 0 9.08854 0.0325518 9.23828 0.0976562C 9.38802 0.162761 9.51986 0.252278 9.63379 0.366211C 9.74772 0.480144 9.83724 0.611978 9.90234 0.761719C 9.96745 0.911459 10 1.07422 10 1.25C 10 1.42578 9.96745 1.58854 9.90234 1.73828C 9.83724 1.88802 9.74772 2.01986 9.63379 2.13379C 9.51986 2.24772 9.38802 2.33724 9.23828 2.40234C 9.08854 2.46745 8.92578 2.5 8.75 2.5C 8.57422 2.5 8.41146 2.46745 8.26172 2.40234C 8.11198 2.33724 7.98014 2.24772 7.86621 2.13379C 7.75228 2.01986 7.66276 1.88802 7.59766 1.73828C 7.53255 1.58854 7.5 1.42578 7.5 1.25C 7.5 1.07422 7.53255 0.911459 7.59766 0.761719C 7.66276 0.611978 7.75228 0.480144 7.86621 0.366211C 7.98014 0.252278 8.11198 0.162761 8.26172 0.0976562C 8.41146 0.0325518 8.57422 0 8.75 0ZM 16.25 0C 16.4258 0 16.5885 0.0325518 16.7383 0.0976562C 16.888 0.162761 17.0199 0.252278 17.1338 0.366211C 17.2477 0.480144 17.3372 0.611978 17.4023 0.761719C 17.4674 0.911459 17.5 1.07422 17.5 1.25C 17.5 1.42578 17.4674 1.58854 17.4023 1.73828C 17.3372 1.88802 17.2477 2.01986 17.1338 2.13379C 17.0199 2.24772 16.888 2.33724 16.7383 2.40234C 16.5885 2.46745 16.4258 2.5 16.25 2.5C 16.0742 2.5 15.9115 2.46745 15.7617 2.40234C 15.612 2.33724 15.4801 2.24772 15.3662 2.13379C 15.2523 2.01986 15.1628 1.88802 15.0977 1.73828C 15.0326 1.58854 15 1.42578 15 1.25C 15 1.07422 15.0326 0.911459 15.0977 0.761719C 15.1628 0.611978 15.2523 0.480144 15.3662 0.366211C 15.4801 0.252278 15.612 0.162761 15.7617 0.0976562C 15.9115 0.0325518 16.0742 0 16.25 0Z"/>
<path id="path21_fill" d="M 1.10156 12L 1.10156 3.59766L 3.42188 3.59766C 6.38281 3.59766 7.86328 4.96289 7.86328 7.69336C 7.86328 8.99023 7.45117 10.0332 6.62695 10.8223C 5.80664 11.6074 4.70703 12 3.32812 12L 1.10156 12ZM 2.08594 4.48828L 2.08594 11.1094L 3.33984 11.1094C 4.44141 11.1094 5.29883 10.8145 5.91211 10.2246C 6.52539 9.63477 6.83203 8.79883 6.83203 7.7168C 6.83203 5.56445 5.6875 4.48828 3.39844 4.48828L 2.08594 4.48828ZM 14.209 9.24023L 9.97266 9.24023C 9.98828 9.9082 10.168 10.4238 10.5117 10.7871C 10.8555 11.1504 11.3281 11.332 11.9297 11.332C 12.6055 11.332 13.2266 11.1094 13.793 10.6641L 13.793 11.5664C 13.2656 11.9492 12.5684 12.1406 11.7012 12.1406C 10.8535 12.1406 10.1875 11.8691 9.70312 11.3262C 9.21875 10.7793 8.97656 10.0117 8.97656 9.02344C 8.97656 8.08984 9.24023 7.33008 9.76758 6.74414C 10.2988 6.1543 10.957 5.85938 11.7422 5.85938C 12.5273 5.85938 13.1348 6.11328 13.5645 6.62109C 13.9941 7.12891 14.209 7.83398 14.209 8.73633L 14.209 9.24023ZM 13.2246 8.42578C 13.2207 7.87109 13.0859 7.43945 12.8203 7.13086C 12.5586 6.82227 12.1934 6.66797 11.7246 6.66797C 11.2715 6.66797 10.8867 6.83008 10.5703 7.1543C 10.2539 7.47852 10.0586 7.90234 9.98438 8.42578L 13.2246 8.42578ZM 16.6289 12L 15.668 12L 15.668 3.11719L 16.6289 3.11719L 16.6289 12ZM 23.3965 9.24023L 19.1602 9.24023C 19.1758 9.9082 19.3555 10.4238 19.6992 10.7871C 20.043 11.1504 20.5156 11.332 21.1172 11.332C 21.793 11.332 22.4141 11.1094 22.9805 10.6641L 22.9805 11.5664C 22.4531 11.9492 21.7559 12.1406 20.8887 12.1406C 20.041 12.1406 19.375 11.8691 18.8906 11.3262C 18.4062 10.7793 18.1641 10.0117 18.1641 9.02344C 18.1641 8.08984 18.4277 7.33008 18.9551 6.74414C 19.4863 6.1543 20.1445 5.85938 20.9297 5.85938C 21.7148 5.85938 22.3223 6.11328 22.752 6.62109C 23.1816 7.12891 23.3965 7.83398 23.3965 8.73633L 23.3965 9.24023ZM 22.4121 8.42578C 22.4082 7.87109 22.2734 7.43945 22.0078 7.13086C 21.7461 6.82227 21.3809 6.66797 20.9121 6.66797C 20.459 6.66797 20.0742 6.83008 19.7578 7.1543C 19.4414 7.47852 19.2461 7.90234 19.1719 8.42578L 22.4121 8.42578ZM 27.6387 11.9414C 27.4121 12.0664 27.1133 12.1289 26.7422 12.1289C 25.6914 12.1289 25.166 11.543 25.166 10.3711L 25.166 6.82031L 24.1348 6.82031L 24.1348 6L 25.166 6L 25.166 4.53516L 26.127 4.22461L 26.127 6L 27.6387 6L 27.6387 6.82031L 26.127 6.82031L 26.127 10.2012C 26.127 10.6035 26.1953 10.8906 26.332 11.0625C 26.4688 11.2344 26.6953 11.3203 27.0117 11.3203C 27.2539 11.3203 27.4629 11.2539 27.6387 11.1211L 27.6387 11.9414ZM 33.7441 9.24023L 29.5078 9.24023C 29.5234 9.9082 29.7031 10.4238 30.0469 10.7871C 30.3906 11.1504 30.8633 11.332 31.4648 11.332C 32.1406 11.332 32.7617 11.1094 33.3281 10.6641L 33.3281 11.5664C 32.8008 11.9492 32.1035 12.1406 31.2363 12.1406C 30.3887 12.1406 29.7227 11.8691 29.2383 11.3262C 28.7539 10.7793 28.5117 10.0117 28.5117 9.02344C 28.5117 8.08984 28.7754 7.33008 29.3027 6.74414C 29.834 6.1543 30.4922 5.85938 31.2773 5.85938C 32.0625 5.85938 32.6699 6.11328 33.0996 6.62109C 33.5293 7.12891 33.7441 7.83398 33.7441 8.73633L 33.7441 9.24023ZM 32.7598 8.42578C 32.7559 7.87109 32.6211 7.43945 32.3555 7.13086C 32.0937 6.82227 31.7285 6.66797 31.2598 6.66797C 30.8066 6.66797 30.4219 6.83008 30.1055 7.1543C 29.7891 7.47852 29.5937 7.90234 29.5195 8.42578L 32.7598 8.42578Z"/>
<path id="path22_fill" fill-rule="evenodd" d="M 16.25 3.75L 15 3.75L 15 18.125C 15 18.3854 14.9512 18.6296 14.8535 18.8574C 14.7559 19.0853 14.6224 19.2839 14.4531 19.4531C 14.2839 19.6224 14.0853 19.7559 13.8574 19.8535C 13.6296 19.9512 13.3854 20 13.125 20L 3.125 20C 2.86458 20 2.62044 19.9512 2.39258 19.8535C 2.16471 19.7559 1.96615 19.6224 1.79688 19.4531C 1.6276 19.2839 1.49414 19.0853 1.39648 18.8574C 1.29883 18.6296 1.25 18.3854 1.25 18.125L 1.25 3.75L 0 3.75L 0 2.5L 5 2.5L 5 1.25C 5 1.07422 5.03255 0.911459 5.09766 0.761719C 5.16276 0.611978 5.25228 0.480144 5.36621 0.366211C 5.48014 0.252278 5.61198 0.162761 5.76172 0.0976562C 5.91146 0.0325518 6.07422 0 6.25 0L 10 0C 10.1758 0 10.3385 0.0325518 10.4883 0.0976562C 10.638 0.162761 10.7699 0.252278 10.8838 0.366211C 10.9977 0.480144 11.0872 0.611978 11.1523 0.761719C 11.2174 0.911459 11.25 1.07422 11.25 1.25L 11.25 2.5L 16.25 2.5L 16.25 3.75ZM 6.25 2.5L 10 2.5L 10 1.25L 6.25 1.25L 6.25 2.5ZM 13.75 3.75L 2.5 3.75L 2.5 18.125C 2.5 18.2943 2.56185 18.4408 2.68555 18.5645C 2.80925 18.6882 2.95573 18.75 3.125 18.75L 13.125 18.75C 13.2943 18.75 13.4408 18.6882 13.5645 18.5645C 13.6882 18.4408 13.75 18.2943 13.75 18.125L 13.75 3.75ZM 6.25 16.25L 5 16.25L 5 6.25L 6.25 6.25L 6.25 16.25ZM 8.75 16.25L 7.5 16.25L 7.5 6.25L 8.75 6.25L 8.75 16.25ZM 11.25 16.25L 10 16.25L 10 6.25L 11.25 6.25L 11.25 16.25Z"/>
<path id="path23_fill" d="M 5.55469 12L 1.10156 12L 1.10156 3.59766L 5.36719 3.59766L 5.36719 4.48828L 2.08594 4.48828L 2.08594 7.2832L 5.12109 7.2832L 5.12109 8.16797L 2.08594 8.16797L 2.08594 11.1094L 5.55469 11.1094L 5.55469 12ZM 12.1641 12L 11.2031 12L 11.2031 10.9805L 11.1797 10.9805C 10.7344 11.7539 10.0469 12.1406 9.11719 12.1406C 8.36328 12.1406 7.75977 11.873 7.30664 11.3379C 6.85742 10.7988 6.63281 10.0664 6.63281 9.14062C 6.63281 8.14844 6.88281 7.35352 7.38281 6.75586C 7.88281 6.1582 8.54883 5.85938 9.38086 5.85938C 10.2051 5.85938 10.8047 6.18359 11.1797 6.83203L 11.2031 6.83203L 11.2031 3.11719L 12.1641 3.11719L 12.1641 12ZM 11.2031 9.28711L 11.2031 8.40234C 11.2031 7.91797 11.043 7.50781 10.7227 7.17188C 10.4023 6.83594 9.99609 6.66797 9.50391 6.66797C 8.91797 6.66797 8.45703 6.88281 8.12109 7.3125C 7.78516 7.74219 7.61719 8.33594 7.61719 9.09375C 7.61719 9.78516 7.77734 10.332 8.09766 10.7344C 8.42188 11.1328 8.85547 11.332 9.39844 11.332C 9.93359 11.332 10.3672 11.1387 10.6992 10.752C 11.0352 10.3652 11.2031 9.87695 11.2031 9.28711ZM 14.6016 4.47656C 14.4297 4.47656 14.2832 4.41797 14.1621 4.30078C 14.041 4.18359 13.9805 4.03516 13.9805 3.85547C 13.9805 3.67578 14.041 3.52734 14.1621 3.41016C 14.2832 3.28906 14.4297 3.22852 14.6016 3.22852C 14.7773 3.22852 14.9258 3.28906 15.0469 3.41016C 15.1719 3.52734 15.2344 3.67578 15.2344 3.85547C 15.2344 4.02734 15.1719 4.17383 15.0469 4.29492C 14.9258 4.41602 14.7773 4.47656 14.6016 4.47656ZM 15.0703 12L 14.1094 12L 14.1094 6L 15.0703 6L 15.0703 12ZM 19.7988 11.9414C 19.5723 12.0664 19.2734 12.1289 18.9023 12.1289C 17.8516 12.1289 17.3262 11.543 17.3262 10.3711L 17.3262 6.82031L 16.2949 6.82031L 16.2949 6L 17.3262 6L 17.3262 4.53516L 18.2871 4.22461L 18.2871 6L 19.7988 6L 19.7988 6.82031L 18.2871 6.82031L 18.2871 10.2012C 18.2871 10.6035 18.3555 10.8906 18.4922 11.0625C 18.6289 11.2344 18.8555 11.3203 19.1719 11.3203C 19.4141 11.3203 19.623 11.2539 19.7988 11.1211L 19.7988 11.9414Z"/>
<path id="path24_fill" fill-rule="evenodd" d="M 20 3.27148C 20 3.70117 19.9186 4.11784 19.7559 4.52148C 19.5931 4.92513 19.3555 5.2832 19.043 5.5957L 6.18164 18.457L 0 20L 1.54297 13.8184L 14.4043 0.957031C 14.7168 0.64453 15.0749 0.406902 15.4785 0.244141C 15.8822 0.0813794 16.2988 0 16.7285 0C 17.1777 0 17.6009 0.0862622 17.998 0.258789C 18.3952 0.431316 18.7419 0.665689 19.0381 0.961914C 19.3343 1.25814 19.5687 1.60482 19.7412 2.00195C 19.9137 2.39909 20 2.82226 20 3.27148ZM 3.18359 13.9453C 3.8737 14.1732 4.46777 14.5361 4.96582 15.0342C 5.46387 15.5322 5.82682 16.1263 6.05469 16.8164L 16.6113 6.25L 13.75 3.38867L 3.18359 13.9453ZM 1.71875 18.2812L 4.93164 17.4805C 4.86654 17.181 4.76074 16.8978 4.61426 16.6309C 4.46777 16.3639 4.29037 16.1263 4.08203 15.918C 3.8737 15.7096 3.63607 15.5322 3.36914 15.3857C 3.10221 15.2393 2.81901 15.1335 2.51953 15.0684L 1.71875 18.2812ZM 17.5 5.36133C 17.6628 5.19857 17.819 5.04557 17.9688 4.90234C 18.1185 4.75911 18.252 4.60775 18.3691 4.44824C 18.4863 4.28874 18.5791 4.11621 18.6475 3.93066C 18.7158 3.74512 18.75 3.52865 18.75 3.28125C 18.75 3.0013 18.6963 2.73926 18.5889 2.49512C 18.4814 2.25098 18.335 2.03613 18.1494 1.85059C 17.9639 1.66504 17.749 1.51856 17.5049 1.41113C 17.2607 1.30371 16.9987 1.25 16.7188 1.25C 16.4714 1.25 16.2549 1.28418 16.0693 1.35254C 15.8838 1.4209 15.7113 1.51367 15.5518 1.63086C 15.3923 1.74805 15.2409 1.88151 15.0977 2.03125C 14.9544 2.18099 14.8014 2.33724 14.6387 2.5L 17.5 5.36133Z"/>
<path id="path25_fill" d="M 0.708984 11.6602L 0.708984 10.5C 0.841797 10.6172 1 10.7227 1.18359 10.8164C 1.37109 10.9102 1.56641 10.9902 1.76953 11.0566C 1.97656 11.1191 2.18359 11.168 2.39062 11.2031C 2.59766 11.2383 2.78906 11.2559 2.96484 11.2559C 3.57031 11.2559 4.02148 11.1445 4.31836 10.9219C 4.61914 10.6953 4.76953 10.3711 4.76953 9.94922C 4.76953 9.72266 4.71875 9.52539 4.61719 9.35742C 4.51953 9.18945 4.38281 9.03711 4.20703 8.90039C 4.03125 8.75977 3.82227 8.62695 3.58008 8.50195C 3.3418 8.37305 3.08398 8.23828 2.80664 8.09766C 2.51367 7.94922 2.24023 7.79883 1.98633 7.64648C 1.73242 7.49414 1.51172 7.32617 1.32422 7.14258C 1.13672 6.95898 0.988281 6.75195 0.878906 6.52148C 0.773438 6.28711 0.720703 6.01367 0.720703 5.70117C 0.720703 5.31836 0.804687 4.98633 0.972656 4.70508C 1.14063 4.41992 1.36133 4.18555 1.63477 4.00195C 1.9082 3.81836 2.21875 3.68164 2.56641 3.5918C 2.91797 3.50195 3.27539 3.45703 3.63867 3.45703C 4.4668 3.45703 5.07031 3.55664 5.44922 3.75586L 5.44922 4.86328C 4.95312 4.51953 4.31641 4.34766 3.53906 4.34766C 3.32422 4.34766 3.10938 4.37109 2.89453 4.41797C 2.67969 4.46094 2.48828 4.5332 2.32031 4.63477C 2.15234 4.73633 2.01562 4.86719 1.91016 5.02734C 1.80469 5.1875 1.75195 5.38281 1.75195 5.61328C 1.75195 5.82812 1.79102 6.01367 1.86914 6.16992C 1.95117 6.32617 2.07031 6.46875 2.22656 6.59766C 2.38281 6.72656 2.57227 6.85156 2.79492 6.97266C 3.02148 7.09375 3.28125 7.22656 3.57422 7.37109C 3.875 7.51953 4.16016 7.67578 4.42969 7.83984C 4.69922 8.00391 4.93555 8.18555 5.13867 8.38477C 5.3418 8.58398 5.50195 8.80469 5.61914 9.04688C 5.74023 9.28906 5.80078 9.56641 5.80078 9.87891C 5.80078 10.293 5.71875 10.6445 5.55469 10.9336C 5.39453 11.2188 5.17578 11.4512 4.89844 11.6309C 4.625 11.8105 4.30859 11.9395 3.94922 12.0176C 3.58984 12.0996 3.21094 12.1406 2.8125 12.1406C 2.67969 12.1406 2.51563 12.1289 2.32031 12.1055C 2.125 12.0859 1.92578 12.0547 1.72266 12.0117C 1.51953 11.9727 1.32617 11.9238 1.14258 11.8652C 0.962891 11.8027 0.818359 11.7344 0.708984 11.6602ZM 12.3281 12L 11.3672 12L 11.3672 8.54297C 11.3672 7.29297 10.9023 6.66797 9.97266 6.66797C 9.50391 6.66797 9.10937 6.84961 8.78906 7.21289C 8.46875 7.57227 8.30859 8.03516 8.30859 8.60156L 8.30859 12L 7.34766 12L 7.34766 3.11719L 8.30859 3.11719L 8.30859 6.99609L 8.33203 6.99609C 8.79297 6.23828 9.44922 5.85938 10.3008 5.85938C 11.6523 5.85938 12.3281 6.67383 12.3281 8.30273L 12.3281 12ZM 18.4395 12L 17.4785 12L 17.4785 11.0625L 17.4551 11.0625C 17.0371 11.7813 16.4219 12.1406 15.6094 12.1406C 15.0117 12.1406 14.543 11.9824 14.2031 11.666C 13.8672 11.3496 13.6992 10.9297 13.6992 10.4062C 13.6992 9.28516 14.3594 8.63281 15.6797 8.44922L 17.4785 8.19727C 17.4785 7.17773 17.0664 6.66797 16.2422 6.66797C 15.5195 6.66797 14.8672 6.91406 14.2852 7.40625L 14.2852 6.42188C 14.875 6.04688 15.5547 5.85938 16.3242 5.85938C 17.7344 5.85938 18.4395 6.60547 18.4395 8.09766L 18.4395 12ZM 17.4785 8.96484L 16.0312 9.16406C 15.5859 9.22656 15.25 9.33789 15.0234 9.49805C 14.7969 9.6543 14.6836 9.93359 14.6836 10.3359C 14.6836 10.6289 14.7871 10.8691 14.9941 11.0566C 15.2051 11.2402 15.4844 11.332 15.832 11.332C 16.3086 11.332 16.7012 11.166 17.0098 10.834C 17.3223 10.498 17.4785 10.0742 17.4785 9.5625L 17.4785 8.96484ZM 23.3789 6.97266C 23.2109 6.84375 22.9688 6.7793 22.6523 6.7793C 22.2422 6.7793 21.8984 6.97266 21.6211 7.35938C 21.3477 7.74609 21.2109 8.27344 21.2109 8.94141L 21.2109 12L 20.25 12L 20.25 6L 21.2109 6L 21.2109 7.23633L 21.2344 7.23633C 21.3711 6.81445 21.5801 6.48633 21.8613 6.25195C 22.1426 6.01367 22.457 5.89453 22.8047 5.89453C 23.0547 5.89453 23.2461 5.92187 23.3789 5.97656L 23.3789 6.97266ZM 29.2441 9.24023L 25.0078 9.24023C 25.0234 9.9082 25.2031 10.4238 25.5469 10.7871C 25.8906 11.1504 26.3633 11.332 26.9648 11.332C 27.6406 11.332 28.2617 11.1094 28.8281 10.6641L 28.8281 11.5664C 28.3008 11.9492 27.6035 12.1406 26.7363 12.1406C 25.8887 12.1406 25.2227 11.8691 24.7383 11.3262C 24.2539 10.7793 24.0117 10.0117 24.0117 9.02344C 24.0117 8.08984 24.2754 7.33008 24.8027 6.74414C 25.334 6.1543 25.9922 5.85938 26.7773 5.85938C 27.5625 5.85938 28.1699 6.11328 28.5996 6.62109C 29.0293 7.12891 29.2441 7.83398 29.2441 8.73633L 29.2441 9.24023ZM 28.2598 8.42578C 28.2559 7.87109 28.1211 7.43945 27.8555 7.13086C 27.5937 6.82227 27.2285 6.66797 26.7598 6.66797C 26.3066 6.66797 25.9219 6.83008 25.6055 7.1543C 25.2891 7.47852 25.0937 7.90234 25.0195 8.42578L 28.2598 8.42578Z"/>
<path id="path26_fill" fill-rule="evenodd" d="M 18.5645 12.998C 18.7858 13.1413 18.986 13.3089 19.165 13.501C 19.3441 13.693 19.4954 13.903 19.6191 14.1309C 19.7428 14.3587 19.8372 14.5996 19.9023 14.8535C 19.9674 15.1074 20 15.3646 20 15.625C 20 16.0547 19.917 16.4583 19.751 16.8359C 19.585 17.2135 19.3604 17.5439 19.0771 17.8271C 18.7939 18.1104 18.4635 18.335 18.0859 18.501C 17.7083 18.667 17.3047 18.75 16.875 18.75C 16.276 18.75 15.7227 18.5905 15.2148 18.2715C 14.4661 18.8379 13.6442 19.2676 12.749 19.5605C 11.8538 19.8535 10.9375 20 10 20C 9.0625 20 8.14616 19.8535 7.25098 19.5605C 6.35579 19.2676 5.53386 18.8379 4.78516 18.2715C 4.27734 18.5905 3.72396 18.75 3.125 18.75C 2.69531 18.75 2.29167 18.667 1.91406 18.501C 1.53646 18.335 1.20606 18.1104 0.922852 17.8271C 0.639647 17.5439 0.41504 17.2135 0.249023 16.8359C 0.083007 16.4583 0 16.0547 0 15.625C 0 15.3646 0.0325518 15.1074 0.0976562 14.8535C 0.162761 14.5996 0.257161 14.3587 0.380859 14.1309C 0.504558 13.903 0.655924 13.693 0.834961 13.501C 1.014 13.3089 1.21419 13.1413 1.43555 12.998C 1.37044 12.7051 1.32324 12.4137 1.29395 12.124C 1.26465 11.8343 1.25 11.543 1.25 11.25C 1.25 10.3516 1.38509 9.4808 1.65527 8.6377C 1.92546 7.79459 2.30631 7.01335 2.79785 6.29395C 3.28939 5.57454 3.8802 4.93815 4.57031 4.38477C 5.26042 3.83138 6.02864 3.39518 6.875 3.07617C 6.88151 2.65299 6.96777 2.25423 7.13379 1.87988C 7.29981 1.50553 7.52441 1.18001 7.80762 0.90332C 8.09082 0.626626 8.42122 0.406902 8.79883 0.244141C 9.17643 0.0813794 9.57682 0 10 0C 10.4232 0 10.8236 0.0813794 11.2012 0.244141C 11.5788 0.406902 11.9092 0.626626 12.1924 0.90332C 12.4756 1.18001 12.7002 1.50553 12.8662 1.87988C 13.0322 2.25423 13.1185 2.65299 13.125 3.07617C 13.9714 3.39518 14.7396 3.83138 15.4297 4.38477C 16.1198 4.93815 16.7106 5.57454 17.2021 6.29395C 17.6937 7.01335 18.0745 7.79459 18.3447 8.6377C 18.6149 9.4808 18.75 10.3516 18.75 11.25C 18.75 11.543 18.7354 11.8343 18.7061 12.124C 18.6768 12.4137 18.6296 12.7051 18.5645 12.998ZM 10 1.25C 9.73958 1.25 9.49544 1.29883 9.26758 1.39648C 9.03971 1.49414 8.84115 1.6276 8.67188 1.79688C 8.5026 1.96615 8.36914 2.16471 8.27148 2.39258C 8.17383 2.62044 8.125 2.86458 8.125 3.125C 8.125 3.38542 8.17383 3.62956 8.27148 3.85742C 8.36914 4.08529 8.5026 4.28385 8.67188 4.45312C 8.84115 4.6224 9.03971 4.75586 9.26758 4.85352C 9.49544 4.95117 9.73958 5 10 5C 10.2604 5 10.5046 4.95117 10.7324 4.85352C 10.9603 4.75586 11.1589 4.6224 11.3281 4.45312C 11.4974 4.28385 11.6309 4.08529 11.7285 3.85742C 11.8262 3.62956 11.875 3.38542 11.875 3.125C 11.875 2.86458 11.8262 2.62044 11.7285 2.39258C 11.6309 2.16471 11.4974 1.96615 11.3281 1.79688C 11.1589 1.6276 10.9603 1.49414 10.7324 1.39648C 10.5046 1.29883 10.2604 1.25 10 1.25ZM 1.25 15.625C 1.25 15.8854 1.29883 16.1296 1.39648 16.3574C 1.49414 16.5853 1.6276 16.7839 1.79688 16.9531C 1.96615 17.1224 2.16471 17.2559 2.39258 17.3535C 2.62044 17.4512 2.86458 17.5 3.125 17.5C 3.38542 17.5 3.62956 17.4512 3.85742 17.3535C 4.08529 17.2559 4.28385 17.1224 4.45312 16.9531C 4.6224 16.7839 4.75586 16.5853 4.85352 16.3574C 4.95117 16.1296 5 15.8854 5 15.625C 5 15.3646 4.95117 15.1204 4.85352 14.8926C 4.75586 14.6647 4.6224 14.4661 4.45312 14.2969C 4.28385 14.1276 4.08529 13.9941 3.85742 13.8965C 3.62956 13.7988 3.38542 13.75 3.125 13.75C 2.86458 13.75 2.62044 13.7988 2.39258 13.8965C 2.16471 13.9941 1.96615 14.1276 1.79688 14.2969C 1.6276 14.4661 1.49414 14.6647 1.39648 14.8926C 1.29883 15.1204 1.25 15.3646 1.25 15.625ZM 10 18.75C 10.7682 18.75 11.5186 18.6344 12.251 18.4033C 12.9834 18.1722 13.6654 17.8353 14.2969 17.3926C 14.1211 17.1322 13.986 16.8506 13.8916 16.5479C 13.7972 16.2451 13.75 15.9375 13.75 15.625C 13.75 15.1953 13.833 14.7917 13.999 14.4141C 14.165 14.0365 14.3896 13.7061 14.6729 13.4229C 14.9561 13.1396 15.2865 12.915 15.6641 12.749C 16.0417 12.583 16.4453 12.5 16.875 12.5C 16.9596 12.5 17.0443 12.5033 17.1289 12.5098C 17.2135 12.5163 17.2982 12.526 17.3828 12.5391C 17.4609 12.1094 17.5 11.6797 17.5 11.25C 17.5 10.4883 17.391 9.75424 17.1729 9.04785C 16.9548 8.34147 16.6455 7.68718 16.2451 7.08496C 15.8447 6.48274 15.3597 5.94564 14.79 5.47363C 14.2204 5.00163 13.584 4.61914 12.8809 4.32617C 12.7637 4.61263 12.6058 4.87467 12.4072 5.1123C 12.2087 5.34994 11.9824 5.55338 11.7285 5.72266C 11.4746 5.89193 11.2012 6.02213 10.9082 6.11328C 10.6152 6.20443 10.3125 6.25 10 6.25C 9.6875 6.25 9.38477 6.20443 9.0918 6.11328C 8.79883 6.02213 8.52539 5.89193 8.27148 5.72266C 8.01758 5.55338 7.79134 5.34994 7.59277 5.1123C 7.3942 4.87467 7.23633 4.61263 7.11914 4.32617C 6.41601 4.61914 5.77963 5.00163 5.20996 5.47363C 4.6403 5.94564 4.15528 6.48274 3.75488 7.08496C 3.35449 7.68718 3.04525 8.34147 2.82715 9.04785C 2.60905 9.75424 2.5 10.4883 2.5 11.25C 2.5 11.6797 2.53906 12.1094 2.61719 12.5391C 3.08594 12.4609 3.54004 12.487 3.97949 12.6172C 4.41895 12.7474 4.80631 12.9574 5.1416 13.2471C 5.47689 13.5368 5.74544 13.8867 5.94727 14.2969C 6.14909 14.707 6.25 15.1497 6.25 15.625C 6.25 15.9375 6.2028 16.2451 6.1084 16.5479C 6.014 16.8506 5.87891 17.1322 5.70312 17.3926C 6.33464 17.8353 7.0166 18.1722 7.74902 18.4033C 8.48145 18.6344 9.23177 18.75 10 18.75ZM 16.875 17.5C 17.1354 17.5 17.3796 17.4512 17.6074 17.3535C 17.8353 17.2559 18.0339 17.1224 18.2031 16.9531C 18.3724 16.7839 18.5059 16.5853 18.6035 16.3574C 18.7012 16.1296 18.75 15.8854 18.75 15.625C 18.75 15.3646 18.7012 15.1204 18.6035 14.8926C 18.5059 14.6647 18.3724 14.4661 18.2031 14.2969C 18.0339 14.1276 17.8353 13.9941 17.6074 13.8965C 17.3796 13.7988 17.1354 13.75 16.875 13.75C 16.6146 13.75 16.3704 13.7988 16.1426 13.8965C 15.9147 13.9941 15.7161 14.1276 15.5469 14.2969C 15.3776 14.4661 15.2441 14.6647 15.1465 14.8926C 15.0488 15.1204 15 15.3646 15 15.625C 15 15.8854 15.0488 16.1296 15.1465 16.3574C 15.2441 16.5853 15.3776 16.7839 15.5469 16.9531C 15.7161 17.1224 15.9147 17.2559 16.1426 17.3535C 16.3704 17.4512 16.6146 17.5 16.875 17.5Z"/>
</defs>
</svg>
