<svg width="1152" height="705" viewBox="0 0 1152 705" version="1.1" xmlns="http://www.w3.org/2000/svg" xmlns:xlink="http://www.w3.org/1999/xlink">
<title>page-components</title>
<desc>Created using Figma</desc>
<g id="Canvas" transform="translate(14836 15539)">
<clipPath id="clip-0" clip-rule="evenodd">
<path d="M -14836 -15539L -13684 -15539L -13684 -14834L -14836 -14834L -14836 -15539Z" fill="#FFFFFF"/>
</clipPath>
<g id="page-components" clip-path="url(#clip-0)">
<path d="M -14836 -15539L -13684 -15539L -13684 -14834L -14836 -14834L -14836 -15539Z" fill="#243A5E"/>
<g id="Group 2">
<g id="Group 2">
<g id="Rectangle" filter="url(#filter0_d)">
<use xlink:href="#path0_fill" transform="translate(-14772 -15427)" fill="#FFFFFF"/>
</g>
<mask id="mask0_alpha" mask-type="alpha">
<g id="Rectangle">
<use xlink:href="#path1_fill" transform="translate(-14772 -15427)" fill="#FFFFFF"/>
</g>
</mask>
<g id="Color overlay 80" mask="url(#mask0_alpha)">
<use xlink:href="#path2_fill" transform="translate(-14772 -15427)" fill="#FFFFFF"/>
</g>
<g id="nav" mask="url(#mask0_alpha)">
<use xlink:href="#path3_fill" transform="translate(-14772 -15427)" fill="#DFE9F0"/>
</g>
</g>
<g id="Navigation">
<g id="nav-items">
<g id="Rectangle 2">
<use xlink:href="#path4_fill" transform="translate(-14756 -15339)" fill="#A7B7C2"/>
</g>
<g id="Rectangle 2.1">
<use xlink:href="#path5_fill" transform="translate(-14732 -15339)" fill="#A7B7C2"/>
</g>
<g id="Rectangle 2.2">
<use xlink:href="#path4_fill" transform="translate(-14756 -15307)" fill="#A7B7C2"/>
</g>
<g id="Rectangle 2.3">
<use xlink:href="#path5_fill" transform="translate(-14732 -15307)" fill="#A7B7C2"/>
</g>
<g id="Rectangle 2.4">
<use xlink:href="#path4_fill" transform="translate(-14756 -15275)" fill="#A7B7C2"/>
</g>
<g id="Rectangle 2.5">
<use xlink:href="#path5_fill" transform="translate(-14732 -15275)" fill="#A7B7C2"/>
</g>
<g id="Rectangle 2.6">
<use xlink:href="#path4_fill" transform="translate(-14756 -15243)" fill="#A7B7C2"/>
</g>
<g id="Rectangle 2.7">
<use xlink:href="#path5_fill" transform="translate(-14732 -15243)" fill="#A7B7C2"/>
</g>
<g id="Rectangle 2.8">
<use xlink:href="#path4_fill" transform="translate(-14756 -15211)" fill="#A7B7C2"/>
</g>
<g id="Rectangle 2.9">
<use xlink:href="#path5_fill" transform="translate(-14732 -15211)" fill="#A7B7C2"/>
</g>
<g id="Rectangle 2.10">
<use xlink:href="#path4_fill" transform="translate(-14756 -15179)" fill="#A7B7C2"/>
</g>
<g id="Rectangle 2.11">
<use xlink:href="#path5_fill" transform="translate(-14732 -15179)" fill="#A7B7C2"/>
</g>
</g>
<g id="hamburger-menu" opacity="0.75">
<g id="Line 2 (Stroke)">
<use xlink:href="#path6_fill" transform="translate(-14756 -15376)"/>
</g>
<g id="Line 2.1 (Stroke)">
<use xlink:href="#path6_fill" transform="translate(-14756 -15372)"/>
</g>
<g id="Line 2.2 (Stroke)">
<use xlink:href="#path6_fill" transform="translate(-14756 -15368)"/>
</g>
</g>
<g id="Selection indicator">
<use xlink:href="#path7_fill" transform="translate(-14772 -15246)" fill="#50E6FF"/>
</g>
<g id="app-title">
<use xlink:href="#path8_fill" transform="translate(-14756 -15410)" fill="#A7B7C2"/>
</g>
</g>
<g id="content">
<g id="Rectangle">
<use xlink:href="#path9_fill" transform="translate(-14468 -15323)" fill="#E1E8EF"/>
</g>
<g id="Rectangle">
<use xlink:href="#path9_fill" transform="translate(-14291.9 -15323)" fill="#E1E8EF"/>
</g>
<g id="Rectangle">
<use xlink:href="#path9_fill" transform="translate(-14115.8 -15323)" fill="#E1E8EF"/>
</g>
<g id="Rectangle">
<use xlink:href="#path9_fill" transform="translate(-13939.8 -15323)" fill="#E1E8EF"/>
</g>
<g id="Rectangle">
<use xlink:href="#path9_fill" transform="translate(-14468 -15187)" fill="#E1E8EF"/>
</g>
<g id="Rectangle">
<use xlink:href="#path9_fill" transform="translate(-14291.9 -15187)" fill="#E1E8EF"/>
</g>
<g id="Rectangle">
<use xlink:href="#path9_fill" transform="translate(-14115.8 -15187)" fill="#E1E8EF"/>
</g>
<g id="Rectangle">
<use xlink:href="#path9_fill" transform="translate(-13939.8 -15187)" fill="#E1E8EF"/>
</g>
<g id="Rectangle">
<use xlink:href="#path9_fill" transform="translate(-14468 -15051)" fill="#E1E8EF"/>
</g>
<g id="Rectangle">
<use xlink:href="#path9_fill" transform="translate(-14291.9 -15051)" fill="#E1E8EF"/>
</g>
<g id="Rectangle">
<use xlink:href="#path9_fill" transform="translate(-14115.8 -15051)" fill="#E1E8EF"/>
</g>
<g id="Rectangle">
<use xlink:href="#path9_fill" transform="translate(-13939.8 -15051)" fill="#E1E8EF"/>
</g>
<g id="page-title">
<use xlink:href="#path10_fill" transform="translate(-14468 -15379)" fill="#E1E8EF"/>
</g>
</g>
<g id="command-bar">
<g id="Rectangle">
<use xlink:href="#path11_fill" transform="translate(-13820 -15379)" fill="#C7D2DA"/>
</g>
<g id="Rectangle">
<use xlink:href="#path11_fill" transform="translate(-13859 -15379)" fill="#C7D2DA"/>
</g>
<g id="Rectangle">
<use xlink:href="#path11_fill" transform="translate(-13899 -15379)" fill="#C7D2DA"/>
</g>
<g id="overflow-icon">
<g id="Group" opacity="0.75">
<g id="Path">
<use xlink:href="#path12_fill" transform="translate(-13780.4 -15368.5)"/>
</g>
<g id="Path">
<use xlink:href="#path12_fill" transform="translate(-13773.4 -15368.5)"/>
</g>
<g id="Path">
<use xlink:href="#path12_fill" transform="translate(-13766.4 -15368.5)"/>
</g>
</g>
</g>
</g>
<g id="labels">
<g id="Line">
<use xlink:href="#path13_stroke" transform="matrix(6.12323e-17 1 -1 6.12323e-17 -14677 -15452)" fill="#50E6FF"/>
</g>
<g id="Line">
<use xlink:href="#path14_stroke" transform="matrix(6.12323e-17 1 -1 6.12323e-17 -14162 -15452)" fill="#50E6FF"/>
</g>
<g id="Ellipse">
<use xlink:href="#path15_fill" transform="translate(-14682 -15344)" fill="#50E6FF"/>
</g>
<g id="Line">
<use xlink:href="#path16_stroke" transform="matrix(6.12323e-17 1 -1 6.12323e-17 -13847 -15452)" fill="#50E6FF"/>
</g>
<g id="Ellipse">
<use xlink:href="#path15_fill" transform="translate(-13851 -15383)" fill="#50E6FF"/>
</g>
<g id="Ellipse">
<use xlink:href="#path15_fill" transform="translate(-14167 -15299)" fill="#50E6FF"/>
</g>
<g id="Navigation pane">
<use xlink:href="#path17_fill" transform="translate(-14742 -15487)" fill="#37E8FD"/>
</g>
<g id="Navigation pane">
<use xlink:href="#path18_fill" transform="translate(-14228 -15485)" fill="#37E8FD"/>
</g>
<g id="Navigation pane">
<use xlink:href="#path19_fill" transform="translate(-13914 -15487)" fill="#37E8FD"/>
</g>
</g>
<g id="titlebar-controls" opacity="0.75">
<g id="minimize">
<use xlink:href="#path20_fill" transform="matrix(1 -2.44929e-16 2.44929e-16 1 -13834 -15411.9)"/>
</g>
<g id="expand">
<mask id="mask1_outline_ins">
<use xlink:href="#path21_fill" fill="white" transform="translate(-13802 -15416.9)"/>
</mask>
<g mask="url(#mask1_outline_ins)">
<use xlink:href="#path22_stroke_2x" transform="translate(-13802 -15416.9)"/>
</g>
</g>
<g id="close">
<g id="Line 3 (Stroke)">
<use xlink:href="#path6_fill" transform="matrix(0.707107 -0.707107 0.707107 0.707107 -13770.4 -15406)"/>
</g>
<g id="Line 3.1 (Stroke)">
<use xlink:href="#path6_fill" transform="matrix(-0.707107 -0.707107 0.707107 -0.707107 -13759.1 -15404.6)"/>
</g>
</g>
</g>
</g>
</g>
</g>
<defs>
<filter id="filter0_d" filterUnits="userSpaceOnUse" x="-14792" y="-15447" width="1064" height="560" color-interpolation-filters="sRGB">
<feFlood flood-opacity="0" result="BackgroundImageFix"/>
<feColorMatrix in="SourceAlpha" type="matrix" values="0 0 0 0 0 0 0 0 0 0 0 0 0 0 0 0 0 0 255 0"/>
<feOffset dx="0" dy="0"/>
<feGaussianBlur stdDeviation="10"/>
<feColorMatrix type="matrix" values="0 0 0 0 0.095 0 0 0 0 0.153793 0 0 0 0 0.25 0 0 0 1 0"/>
<feBlend mode="normal" in2="BackgroundImageFix" result="effect1_dropShadow"/>
<feBlend mode="normal" in="SourceGraphic" in2="effect1_dropShadow" result="shape"/>
</filter>
<path id="path0_fill" d="M 0 3C 0 1.34315 1.34315 0 3 0L 1021 0C 1022.66 0 1024 1.34315 1024 3L 1024 517C 1024 518.657 1022.66 520 1021 520L 3 520C 1.34315 520 0 518.657 0 517L 0 3Z"/>
<path id="path1_fill" d="M 0 0L 1024 0L 1024 520L 0 520L 0 0Z"/>
<path id="path2_fill" fill-rule="evenodd" d="M 0 0L 1036 0L 1036 520L 0 520L 0 0Z"/>
<path id="path3_fill" fill-rule="evenodd" d="M 0 0L 272 0L 272 520L 0 520L 0 0Z"/>
<path id="path4_fill" d="M 0 0L 16 0L 16 16L 0 16L 0 0Z"/>
<path id="path5_fill" d="M 0 0L 144 0L 144 16L 0 16L 0 0Z"/>
<path id="path6_fill" fill-rule="evenodd" d="M 16 1C 16 1.55228 15.5523 2 15 2L 1 2C 0.447715 2 0 1.55228 0 1C 0 0.447715 0.447715 0 1 0L 15 0C 15.5523 0 16 0.447715 16 1Z"/>
<path id="path7_fill" fill-rule="evenodd" d="M 0 0L 6 0L 6 24L 0 24L 0 0Z"/>
<path id="path8_fill" d="M 0 0L 65 0L 65 8L 0 8L 0 0Z"/>
<path id="path9_fill" d="M 0 0L 160.767 0L 160.767 120L 0 120L 0 0Z"/>
<path id="path10_fill" d="M 0 0L 121 0L 121 24L 0 24L 0 0Z"/>
<path id="path11_fill" d="M 0 0L 24 0L 24 24L 0 24L 0 0Z"/>
<path id="path12_fill" fill-rule="evenodd" d="M 1.5 0C 1.71094 0 1.90625 0.0390621 2.08594 0.117188C 2.26563 0.195313 2.42383 0.302734 2.56055 0.439453C 2.69727 0.576173 2.80469 0.734374 2.88281 0.914062C 2.96094 1.09375 3 1.28906 3 1.5C 3 1.71094 2.96094 1.90625 2.88281 2.08594C 2.80469 2.26563 2.69727 2.42383 2.56055 2.56055C 2.42383 2.69727 2.26563 2.80469 2.08594 2.88281C 1.90625 2.96094 1.71094 3 1.5 3C 1.28906 3 1.09375 2.96094 0.914063 2.88281C 0.734374 2.80469 0.576173 2.69727 0.439453 2.56055C 0.302734 2.42383 0.195313 2.26563 0.117188 2.08594C 0.0390621 1.90625 0 1.71094 0 1.5C 0 1.28906 0.0390621 1.09375 0.117188 0.914062C 0.195313 0.734374 0.302734 0.576173 0.439453 0.439453C 0.576173 0.302734 0.734374 0.195313 0.914063 0.117188C 1.09375 0.0390621 1.28906 0 1.5 0Z"/>
<path id="path13_stroke" d="M 0 0L 113 0L 113 -2L 0 -2L 0 0Z"/>
<path id="path14_stroke" d="M 0 0L 162 0L 162 -2L 0 -2L 0 0Z"/>
<path id="path15_fill" d="M 11 5.5C 11 8.53757 8.53757 11 5.5 11C 2.46243 11 0 8.53757 0 5.5C 0 2.46243 2.46243 0 5.5 0C 8.53757 0 11 2.46243 11 5.5Z"/>
<path id="path16_stroke" d="M 0 0L 74 0L 74 -2L 0 -2L 0 0Z"/>
<path id="path17_fill" d="M 34.3398 19L 32.0547 19L 26.0342 9.73633C 25.8818 9.50195 25.7559 9.25879 25.6562 9.00684L 25.6035 9.00684C 25.6504 9.27637 25.6738 9.85352 25.6738 10.7383L 25.6738 19L 23.6523 19L 23.6523 6.39648L 26.0869 6.39648L 31.9053 15.4404C 32.1514 15.8154 32.3096 16.0732 32.3799 16.2139L 32.415 16.2139C 32.3564 15.8799 32.3271 15.3145 32.3271 14.5176L 32.3271 6.39648L 34.3398 6.39648L 34.3398 19ZM 44.1484 19L 42.1709 19L 42.1709 17.5938L 42.1357 17.5938C 41.5146 18.6719 40.6035 19.2109 39.4023 19.2109C 38.5176 19.2109 37.8232 18.9707 37.3193 18.4902C 36.8213 18.0098 36.5723 17.374 36.5723 16.583C 36.5723 14.8838 37.5508 13.8936 39.5078 13.6123L 42.1797 13.2344C 42.1797 11.9512 41.5703 11.3096 40.3516 11.3096C 39.2793 11.3096 38.3125 11.6787 37.4512 12.417L 37.4512 10.6328C 38.4004 10.0703 39.4961 9.78906 40.7383 9.78906C 43.0117 9.78906 44.1484 10.9082 44.1484 13.1465L 44.1484 19ZM 42.1797 14.5791L 40.29 14.8428C 39.7041 14.9189 39.2617 15.0625 38.9629 15.2734C 38.6699 15.4785 38.5234 15.8418 38.5234 16.3633C 38.5234 16.7441 38.6582 17.0576 38.9277 17.3037C 39.2031 17.5439 39.5693 17.6641 40.0264 17.6641C 40.6475 17.6641 41.1602 17.4473 41.5645 17.0137C 41.9746 16.5742 42.1797 16.0234 42.1797 15.3613L 42.1797 14.5791ZM 54.3965 10L 50.916 19L 48.71 19L 45.3965 10L 47.6113 10L 49.6064 16.293C 49.7588 16.7559 49.8525 17.1602 49.8877 17.5059L 49.9141 17.5059C 49.9668 17.0723 50.0488 16.6797 50.1602 16.3281L 52.252 10L 54.3965 10ZM 56.8135 8.11035C 56.4795 8.11035 56.1924 8.00195 55.9521 7.78516C 55.7178 7.56836 55.6006 7.29297 55.6006 6.95898C 55.6006 6.625 55.7178 6.34668 55.9521 6.12402C 56.1924 5.90137 56.4795 5.79004 56.8135 5.79004C 57.1592 5.79004 57.4521 5.90137 57.6924 6.12402C 57.9326 6.34668 58.0527 6.625 58.0527 6.95898C 58.0527 7.27539 57.9326 7.54785 57.6924 7.77637C 57.4521 7.99902 57.1592 8.11035 56.8135 8.11035ZM 57.8242 19L 55.7852 19L 55.7852 10L 57.8242 10L 57.8242 19ZM 68.6875 18.2793C 68.6875 21.584 67.0264 23.2363 63.7041 23.2363C 62.5322 23.2363 61.5098 23.04 60.6367 22.6475L 60.6367 20.7842C 61.6211 21.3467 62.5557 21.6279 63.4404 21.6279C 65.5791 21.6279 66.6484 20.5762 66.6484 18.4727L 66.6484 17.4883L 66.6133 17.4883C 65.9395 18.6367 64.9258 19.2109 63.5723 19.2109C 62.4766 19.2109 61.5918 18.8125 60.918 18.0156C 60.25 17.2129 59.916 16.1377 59.916 14.79C 59.916 13.2607 60.2764 12.0449 60.9971 11.1426C 61.7178 10.2402 62.708 9.78906 63.9678 9.78906C 65.1572 9.78906 66.0391 10.2754 66.6133 11.248L 66.6484 11.248L 66.6484 10L 68.6875 10L 68.6875 18.2793ZM 66.666 14.8779L 66.666 13.709C 66.666 13.0762 66.4551 12.5371 66.0332 12.0918C 65.6172 11.6406 65.0957 11.415 64.4688 11.415C 63.6953 11.415 63.0889 11.7021 62.6494 12.2764C 62.2158 12.8447 61.999 13.6416 61.999 14.667C 61.999 15.5518 62.207 16.2607 62.623 16.7939C 63.0449 17.3213 63.6016 17.585 64.293 17.585C 64.9961 17.585 65.5674 17.333 66.0068 16.8291C 66.4463 16.3193 66.666 15.6689 66.666 14.8779ZM 78.25 19L 76.2725 19L 76.2725 17.5938L 76.2373 17.5938C 75.6162 18.6719 74.7051 19.2109 73.5039 19.2109C 72.6191 19.2109 71.9248 18.9707 71.4209 18.4902C 70.9229 18.0098 70.6738 17.374 70.6738 16.583C 70.6738 14.8838 71.6523 13.8936 73.6094 13.6123L 76.2812 13.2344C 76.2812 11.9512 75.6719 11.3096 74.4531 11.3096C 73.3809 11.3096 72.4141 11.6787 71.5527 12.417L 71.5527 10.6328C 72.502 10.0703 73.5977 9.78906 74.8398 9.78906C 77.1133 9.78906 78.25 10.9082 78.25 13.1465L 78.25 19ZM 76.2812 14.5791L 74.3916 14.8428C 73.8057 14.9189 73.3633 15.0625 73.0645 15.2734C 72.7715 15.4785 72.625 15.8418 72.625 16.3633C 72.625 16.7441 72.7598 17.0576 73.0293 17.3037C 73.3047 17.5439 73.6709 17.6641 74.1279 17.6641C 74.749 17.6641 75.2617 17.4473 75.666 17.0137C 76.0762 16.5742 76.2812 16.0234 76.2812 15.3613L 76.2812 14.5791ZM 85.4922 18.9033C 85.0938 19.1025 84.5693 19.2021 83.9189 19.2021C 82.1729 19.2021 81.2998 18.3643 81.2998 16.6885L 81.2998 11.5996L 79.7969 11.5996L 79.7969 10L 81.2998 10L 81.2998 7.91699L 83.3389 7.33691L 83.3389 10L 85.4922 10L 85.4922 11.5996L 83.3389 11.5996L 83.3389 16.0996C 83.3389 16.6328 83.4355 17.0137 83.6289 17.2422C 83.8223 17.4707 84.1445 17.585 84.5957 17.585C 84.9414 17.585 85.2402 17.4854 85.4922 17.2861L 85.4922 18.9033ZM 88.2783 8.11035C 87.9443 8.11035 87.6572 8.00195 87.417 7.78516C 87.1826 7.56836 87.0654 7.29297 87.0654 6.95898C 87.0654 6.625 87.1826 6.34668 87.417 6.12402C 87.6572 5.90137 87.9443 5.79004 88.2783 5.79004C 88.624 5.79004 88.917 5.90137 89.1572 6.12402C 89.3975 6.34668 89.5176 6.625 89.5176 6.95898C 89.5176 7.27539 89.3975 7.54785 89.1572 7.77637C 88.917 7.99902 88.624 8.11035 88.2783 8.11035ZM 89.2891 19L 87.25 19L 87.25 10L 89.2891 10L 89.2891 19ZM 95.9512 19.2109C 94.5625 19.2109 93.4521 18.792 92.6201 17.9541C 91.7939 17.1104 91.3809 15.9941 91.3809 14.6055C 91.3809 13.0938 91.8115 11.9131 92.6729 11.0635C 93.54 10.2139 94.7061 9.78906 96.1709 9.78906C 97.5771 9.78906 98.6729 10.2021 99.458 11.0283C 100.243 11.8545 100.636 13 100.636 14.4648C 100.636 15.9004 100.211 17.0518 99.3613 17.9189C 98.5176 18.7803 97.3809 19.2109 95.9512 19.2109ZM 96.0479 11.415C 95.251 11.415 94.6211 11.6934 94.1582 12.25C 93.6953 12.8066 93.4639 13.5742 93.4639 14.5527C 93.4639 15.4961 93.6982 16.2402 94.167 16.7852C 94.6357 17.3242 95.2627 17.5938 96.0479 17.5938C 96.8506 17.5938 97.4658 17.3271 97.8936 16.7939C 98.3271 16.2607 98.5439 15.502 98.5439 14.5176C 98.5439 13.5273 98.3271 12.7627 97.8936 12.2236C 97.4658 11.6846 96.8506 11.415 96.0479 11.415ZM 110.734 19L 108.695 19L 108.695 13.9287C 108.695 12.2471 108.101 11.4062 106.911 11.4062C 106.29 11.4062 105.777 11.6406 105.373 12.1094C 104.969 12.5723 104.767 13.1582 104.767 13.8672L 104.767 19L 102.719 19L 102.719 10L 104.767 10L 104.767 11.4941L 104.802 11.4941C 105.476 10.3574 106.448 9.78906 107.72 9.78906C 108.698 9.78906 109.445 10.1084 109.961 10.7471C 110.477 11.3799 110.734 12.2969 110.734 13.498L 110.734 19Z"/>
<path id="path18_fill" d="M 44.6318 18.4727C 43.6826 18.9648 42.502 19.2109 41.0898 19.2109C 39.2617 19.2109 37.7969 18.6338 36.6953 17.4795C 35.5938 16.3252 35.043 14.8105 35.043 12.9355C 35.043 10.9199 35.6611 9.29102 36.8975 8.04883C 38.1396 6.80664 39.707 6.18555 41.5996 6.18555C 42.8184 6.18555 43.8291 6.3584 44.6318 6.7041L 44.6318 8.77832C 43.7822 8.27441 42.8447 8.02246 41.8193 8.02246C 40.4541 8.02246 39.3467 8.45898 38.4971 9.33203C 37.6533 10.2051 37.2314 11.3711 37.2314 12.8301C 37.2314 14.2188 37.627 15.3262 38.418 16.1523C 39.209 16.9727 40.249 17.3828 41.5381 17.3828C 42.7275 17.3828 43.7588 17.1016 44.6318 16.5391L 44.6318 18.4727ZM 50.7842 19.2109C 49.3955 19.2109 48.2852 18.792 47.4531 17.9541C 46.627 17.1104 46.2139 15.9941 46.2139 14.6055C 46.2139 13.0938 46.6445 11.9131 47.5059 11.0635C 48.373 10.2139 49.5391 9.78906 51.0039 9.78906C 52.4102 9.78906 53.5059 10.2021 54.291 11.0283C 55.0762 11.8545 55.4688 13 55.4688 14.4648C 55.4688 15.9004 55.0439 17.0518 54.1943 17.9189C 53.3506 18.7803 52.2139 19.2109 50.7842 19.2109ZM 50.8809 11.415C 50.084 11.415 49.4541 11.6934 48.9912 12.25C 48.5283 12.8066 48.2969 13.5742 48.2969 14.5527C 48.2969 15.4961 48.5312 16.2402 49 16.7852C 49.4688 17.3242 50.0957 17.5938 50.8809 17.5938C 51.6836 17.5938 52.2988 17.3271 52.7266 16.7939C 53.1602 16.2607 53.377 15.502 53.377 14.5176C 53.377 13.5273 53.1602 12.7627 52.7266 12.2236C 52.2988 11.6846 51.6836 11.415 50.8809 11.415ZM 65.5674 19L 63.5283 19L 63.5283 13.9287C 63.5283 12.2471 62.9336 11.4062 61.7441 11.4062C 61.123 11.4062 60.6104 11.6406 60.2061 12.1094C 59.8018 12.5723 59.5996 13.1582 59.5996 13.8672L 59.5996 19L 57.5518 19L 57.5518 10L 59.5996 10L 59.5996 11.4941L 59.6348 11.4941C 60.3086 10.3574 61.2812 9.78906 62.5527 9.78906C 63.5312 9.78906 64.2783 10.1084 64.7939 10.7471C 65.3096 11.3799 65.5674 12.2969 65.5674 13.498L 65.5674 19ZM 72.8096 18.9033C 72.4111 19.1025 71.8867 19.2021 71.2363 19.2021C 69.4902 19.2021 68.6172 18.3643 68.6172 16.6885L 68.6172 11.5996L 67.1143 11.5996L 67.1143 10L 68.6172 10L 68.6172 7.91699L 70.6562 7.33691L 70.6562 10L 72.8096 10L 72.8096 11.5996L 70.6562 11.5996L 70.6562 16.0996C 70.6562 16.6328 70.7529 17.0137 70.9463 17.2422C 71.1396 17.4707 71.4619 17.585 71.9131 17.585C 72.2588 17.585 72.5576 17.4854 72.8096 17.2861L 72.8096 18.9033ZM 82.082 15.0537L 75.9473 15.0537C 75.9707 15.8857 76.2256 16.5273 76.7119 16.9785C 77.2041 17.4297 77.8779 17.6553 78.7334 17.6553C 79.6943 17.6553 80.5762 17.3682 81.3789 16.7939L 81.3789 18.4375C 80.5586 18.9531 79.4746 19.2109 78.127 19.2109C 76.8027 19.2109 75.7627 18.8037 75.0068 17.9893C 74.2568 17.1689 73.8818 16.0176 73.8818 14.5352C 73.8818 13.1348 74.2949 11.9951 75.1211 11.1162C 75.9531 10.2314 76.9844 9.78906 78.2148 9.78906C 79.4453 9.78906 80.3975 10.1846 81.0713 10.9756C 81.7451 11.7666 82.082 12.8652 82.082 14.2715L 82.082 15.0537ZM 80.1133 13.6123C 80.1074 12.8799 79.9346 12.3115 79.5947 11.9072C 79.2549 11.4971 78.7861 11.292 78.1885 11.292C 77.6025 11.292 77.1045 11.5059 76.6943 11.9336C 76.29 12.3613 76.041 12.9209 75.9473 13.6123L 80.1133 13.6123ZM 92.04 19L 90.001 19L 90.001 13.9287C 90.001 12.2471 89.4062 11.4062 88.2168 11.4062C 87.5957 11.4062 87.083 11.6406 86.6787 12.1094C 86.2744 12.5723 86.0723 13.1582 86.0723 13.8672L 86.0723 19L 84.0244 19L 84.0244 10L 86.0723 10L 86.0723 11.4941L 86.1074 11.4941C 86.7812 10.3574 87.7539 9.78906 89.0254 9.78906C 90.0039 9.78906 90.751 10.1084 91.2666 10.7471C 91.7822 11.3799 92.04 12.2969 92.04 13.498L 92.04 19ZM 99.2822 18.9033C 98.8838 19.1025 98.3594 19.2021 97.709 19.2021C 95.9629 19.2021 95.0898 18.3643 95.0898 16.6885L 95.0898 11.5996L 93.5869 11.5996L 93.5869 10L 95.0898 10L 95.0898 7.91699L 97.1289 7.33691L 97.1289 10L 99.2822 10L 99.2822 11.5996L 97.1289 11.5996L 97.1289 16.0996C 97.1289 16.6328 97.2256 17.0137 97.4189 17.2422C 97.6123 17.4707 97.9346 17.585 98.3857 17.585C 98.7314 17.585 99.0303 17.4854 99.2822 17.2861L 99.2822 18.9033Z"/>
<path id="path19_fill" d="M 35.0518 18.4727C 34.1025 18.9648 32.9219 19.2109 31.5098 19.2109C 29.6816 19.2109 28.2168 18.6338 27.1152 17.4795C 26.0137 16.3252 25.4629 14.8105 25.4629 12.9355C 25.4629 10.9199 26.0811 9.29102 27.3174 8.04883C 28.5596 6.80664 30.127 6.18555 32.0195 6.18555C 33.2383 6.18555 34.249 6.3584 35.0518 6.7041L 35.0518 8.77832C 34.2021 8.27441 33.2646 8.02246 32.2393 8.02246C 30.874 8.02246 29.7666 8.45898 28.917 9.33203C 28.0732 10.2051 27.6514 11.3711 27.6514 12.8301C 27.6514 14.2188 28.0469 15.3262 28.8379 16.1523C 29.6289 16.9727 30.6689 17.3828 31.958 17.3828C 33.1475 17.3828 34.1787 17.1016 35.0518 16.5391L 35.0518 18.4727ZM 41.2041 19.2109C 39.8154 19.2109 38.7051 18.792 37.873 17.9541C 37.0469 17.1104 36.6338 15.9941 36.6338 14.6055C 36.6338 13.0938 37.0645 11.9131 37.9258 11.0635C 38.793 10.2139 39.959 9.78906 41.4238 9.78906C 42.8301 9.78906 43.9258 10.2021 44.7109 11.0283C 45.4961 11.8545 45.8887 13 45.8887 14.4648C 45.8887 15.9004 45.4639 17.0518 44.6143 17.9189C 43.7705 18.7803 42.6338 19.2109 41.2041 19.2109ZM 41.3008 11.415C 40.5039 11.415 39.874 11.6934 39.4111 12.25C 38.9482 12.8066 38.7168 13.5742 38.7168 14.5527C 38.7168 15.4961 38.9512 16.2402 39.4199 16.7852C 39.8887 17.3242 40.5156 17.5938 41.3008 17.5938C 42.1035 17.5938 42.7187 17.3271 43.1465 16.7939C 43.5801 16.2607 43.7969 15.502 43.7969 14.5176C 43.7969 13.5273 43.5801 12.7627 43.1465 12.2236C 42.7187 11.6846 42.1035 11.415 41.3008 11.415ZM 61.4277 19L 59.3887 19L 59.3887 14.0957C 59.3887 13.1523 59.2539 12.4697 58.9844 12.0479C 58.7207 11.626 58.2725 11.415 57.6396 11.415C 57.1064 11.415 56.6523 11.6816 56.2773 12.2148C 55.9082 12.748 55.7236 13.3867 55.7236 14.1309L 55.7236 19L 53.6758 19L 53.6758 13.9287C 53.6758 12.2529 53.084 11.415 51.9004 11.415C 51.3496 11.415 50.8955 11.667 50.5381 12.1709C 50.1865 12.6748 50.0107 13.3281 50.0107 14.1309L 50.0107 19L 47.9717 19L 47.9717 10L 50.0107 10L 50.0107 11.4238L 50.0459 11.4238C 50.6963 10.334 51.6426 9.78906 52.8848 9.78906C 53.5059 9.78906 54.0479 9.96191 54.5107 10.3076C 54.9795 10.6475 55.2988 11.0957 55.4688 11.6523C 56.1367 10.4102 57.1328 9.78906 58.457 9.78906C 60.4375 9.78906 61.4277 11.0107 61.4277 13.4541L 61.4277 19ZM 77.3711 19L 75.332 19L 75.332 14.0957C 75.332 13.1523 75.1973 12.4697 74.9277 12.0479C 74.6641 11.626 74.2158 11.415 73.583 11.415C 73.0498 11.415 72.5957 11.6816 72.2207 12.2148C 71.8516 12.748 71.667 13.3867 71.667 14.1309L 71.667 19L 69.6191 19L 69.6191 13.9287C 69.6191 12.2529 69.0273 11.415 67.8438 11.415C 67.293 11.415 66.8389 11.667 66.4814 12.1709C 66.1299 12.6748 65.9541 13.3281 65.9541 14.1309L 65.9541 19L 63.915 19L 63.915 10L 65.9541 10L 65.9541 11.4238L 65.9893 11.4238C 66.6396 10.334 67.5859 9.78906 68.8281 9.78906C 69.4492 9.78906 69.9912 9.96191 70.4541 10.3076C 70.9229 10.6475 71.2422 11.0957 71.4121 11.6523C 72.0801 10.4102 73.0762 9.78906 74.4004 9.78906C 76.3809 9.78906 77.3711 11.0107 77.3711 13.4541L 77.3711 19ZM 86.7666 19L 84.7891 19L 84.7891 17.5938L 84.7539 17.5938C 84.1328 18.6719 83.2217 19.2109 82.0205 19.2109C 81.1357 19.2109 80.4414 18.9707 79.9375 18.4902C 79.4395 18.0098 79.1904 17.374 79.1904 16.583C 79.1904 14.8838 80.1689 13.8936 82.126 13.6123L 84.7979 13.2344C 84.7979 11.9512 84.1885 11.3096 82.9697 11.3096C 81.8975 11.3096 80.9307 11.6787 80.0693 12.417L 80.0693 10.6328C 81.0186 10.0703 82.1143 9.78906 83.3564 9.78906C 85.6299 9.78906 86.7666 10.9082 86.7666 13.1465L 86.7666 19ZM 84.7979 14.5791L 82.9082 14.8428C 82.3223 14.9189 81.8799 15.0625 81.5811 15.2734C 81.2881 15.4785 81.1416 15.8418 81.1416 16.3633C 81.1416 16.7441 81.2764 17.0576 81.5459 17.3037C 81.8213 17.5439 82.1875 17.6641 82.6445 17.6641C 83.2656 17.6641 83.7783 17.4473 84.1826 17.0137C 84.5928 16.5742 84.7979 16.0234 84.7979 15.3613L 84.7979 14.5791ZM 97.2783 19L 95.2393 19L 95.2393 13.9287C 95.2393 12.2471 94.6445 11.4062 93.4551 11.4062C 92.834 11.4062 92.3213 11.6406 91.917 12.1094C 91.5127 12.5723 91.3105 13.1582 91.3105 13.8672L 91.3105 19L 89.2627 19L 89.2627 10L 91.3105 10L 91.3105 11.4941L 91.3457 11.4941C 92.0195 10.3574 92.9922 9.78906 94.2637 9.78906C 95.2422 9.78906 95.9893 10.1084 96.5049 10.7471C 97.0205 11.3799 97.2783 12.2969 97.2783 13.498L 97.2783 19ZM 107.957 19L 105.918 19L 105.918 17.4707L 105.883 17.4707C 105.227 18.6309 104.216 19.2109 102.851 19.2109C 101.743 19.2109 100.855 18.8096 100.188 18.0068C 99.5254 17.1982 99.1943 16.0996 99.1943 14.7109C 99.1943 13.2227 99.5605 12.0303 100.293 11.1338C 101.031 10.2373 102.013 9.78906 103.237 9.78906C 104.45 9.78906 105.332 10.2754 105.883 11.248L 105.918 11.248L 105.918 5.67578L 107.957 5.67578L 107.957 19ZM 105.944 14.8867L 105.944 13.709C 105.944 13.0703 105.736 12.5283 105.32 12.083C 104.904 11.6377 104.374 11.415 103.729 11.415C 102.968 11.415 102.367 11.6992 101.928 12.2676C 101.494 12.8359 101.277 13.624 101.277 14.6318C 101.277 15.5459 101.485 16.2695 101.901 16.8027C 102.323 17.3301 102.889 17.5938 103.598 17.5938C 104.295 17.5938 104.86 17.3389 105.294 16.8291C 105.728 16.3135 105.944 15.666 105.944 14.8867Z"/>
<path id="path20_fill" fill-rule="evenodd" d="M 12 1C 12 1.55228 11.5523 2 11 2L 1 2C 0.447715 2 0 1.55228 0 1C 0 0.447715 0.447715 0 1 0L 11 0C 11.5523 0 12 0.447715 12 1Z"/>
<path id="path21_fill" d="M 0 1C 0 0.447715 0.447715 0 1 0L 11 0C 11.5523 0 12 0.447715 12 1L 12 11C 12 11.5523 11.5523 12 11 12L 1 12C 0.447715 12 0 11.5523 0 11L 0 1Z"/>
<path id="path22_stroke_2x" d="M 1 2L 11 2L 11 -2L 1 -2L 1 2ZM 10 1L 10 11L 14 11L 14 1L 10 1ZM 11 10L 1 10L 1 14L 11 14L 11 10ZM 2 11L 2 1L -2 1L -2 11L 2 11ZM 1 10C 1.55228 10 2 10.4477 2 11L -2 11C -2 12.6569 -0.656854 14 1 14L 1 10ZM 10 11C 10 10.4477 10.4477 10 11 10L 11 14C 12.6569 14 14 12.6569 14 11L 10 11ZM 11 2C 10.4477 2 10 1.55228 10 1L 14 1C 14 -0.656854 12.6569 -2 11 -2L 11 2ZM 1 -2C -0.656854 -2 -2 -0.656854 -2 1L 2 1C 2 1.55228 1.55228 2 1 2L 1 -2Z"/>
</defs>
</svg>
