<svg width="1152" height="529" viewBox="0 0 1152 529" version="1.1" xmlns="http://www.w3.org/2000/svg" xmlns:xlink="http://www.w3.org/1999/xlink">
<title>pivot-large</title>
<desc>Created using Figma</desc>
<g id="Canvas" transform="translate(-4963 12927)">
<clipPath id="clip-0" clip-rule="evenodd">
<path d="M 4963 -12927L 6115 -12927L 6115 -12398L 4963 -12398L 4963 -12927Z" fill="#FFFFFF"/>
</clipPath>
<g id="pivot-large" clip-path="url(#clip-0)">
<path d="M 4963 -12927L 6115 -12927L 6115 -12398L 4963 -12398L 4963 -12927Z" fill="#243A5E"/>
<g id="BG">
<g id="app-bg" filter="url(#filter0_d)">
<use xlink:href="#path0_fill" transform="translate(5027 -12871)" fill="#FFFFFF"/>
</g>
<g id="Mask Group">
<mask id="mask0_alpha" mask-type="alpha">
<g id="app-bg">
<use xlink:href="#path1_fill" transform="translate(5027 -12871)" fill="#FFFFFF"/>
<use xlink:href="#path1_fill" transform="translate(5027 -12871)" fill="#FFFFFF"/>
</g>
</mask>
<g id="Rectangle 47" style="mix-blend-mode:multiply" mask="url(#mask0_alpha)">
<use xlink:href="#path2_fill" transform="translate(5027 -12871)" fill="#DFE9F0"/>
</g>
</g>
</g>
<g id="titlebar-controls" opacity="0.75">
<g id="minimize">
<use xlink:href="#path3_fill" transform="matrix(1 -2.44929e-16 2.44929e-16 1 5965 -12855.9)"/>
</g>
<g id="expand">
<mask id="mask1_outline_ins">
<use xlink:href="#path4_fill" fill="white" transform="translate(5997 -12860.9)"/>
</mask>
<g mask="url(#mask1_outline_ins)">
<use xlink:href="#path5_stroke_2x" transform="translate(5997 -12860.9)"/>
</g>
</g>
<g id="close">
<g id="Line 3 (Stroke)">
<use xlink:href="#path6_fill" transform="matrix(0.707107 -0.707107 0.707107 0.707107 6028.64 -12850)"/>
</g>
<g id="Line 3.1 (Stroke)">
<use xlink:href="#path6_fill" transform="matrix(-0.707107 -0.707107 0.707107 -0.707107 6039.95 -12848.6)"/>
</g>
</g>
</g>
<g id="Rectangle">
<use xlink:href="#path7_fill" transform="translate(5043 -12759)" fill="#F2F8FC"/>
</g>
<g id="Navigation / Pivot / Without title">
<g id="Navigation">
<g id="Pivot">
<g id="Pivot 3">
<use xlink:href="#path8_fill" transform="translate(5244 -12815)" fill="#000000" fill-opacity="0.6"/>
</g>
<g id="Pivot 3">
<use xlink:href="#path9_fill" transform="translate(5338 -12815)" fill="#000000" fill-opacity="0.6"/>
</g>
</g>
<g id="Pivot">
<g id="Pivot 2">
<use xlink:href="#path10_fill" transform="translate(5150 -12816)" fill="#000000" fill-opacity="0.6"/>
</g>
</g>
<g id="Pivot">
<g id="Pivot 1">
<use xlink:href="#path11_fill" transform="translate(5059 -12816)" fill="#0078D4"/>
</g>
</g>
</g>
</g>
<g id="Rectangle 2">
<use xlink:href="#path12_fill" transform="translate(5060 -12779)" fill="#0078D4"/>
</g>
</g>
</g>
<defs>
<filter id="filter0_d" filterUnits="userSpaceOnUse" x="5007" y="-12891" width="1064" height="576" color-interpolation-filters="sRGB">
<feFlood flood-opacity="0" result="BackgroundImageFix"/>
<feColorMatrix in="SourceAlpha" type="matrix" values="0 0 0 0 0 0 0 0 0 0 0 0 0 0 0 0 0 0 255 0"/>
<feOffset dx="0" dy="0"/>
<feGaussianBlur stdDeviation="10"/>
<feColorMatrix type="matrix" values="0 0 0 0 0.095 0 0 0 0 0.153793 0 0 0 0 0.25 0 0 0 1 0"/>
<feBlend mode="normal" in2="BackgroundImageFix" result="effect1_dropShadow"/>
<feBlend mode="normal" in="SourceGraphic" in2="effect1_dropShadow" result="shape"/>
</filter>
<path id="path0_fill" fill-rule="evenodd" d="M 0 0L 1024 0L 1024 536L 0 536L 0 0Z"/>
<path id="path1_fill" fill-rule="evenodd" d="M 0 3C 0 1.34315 1.34315 0 3 0L 1021 0C 1022.66 0 1024 1.34315 1024 3L 1024 533C 1024 534.657 1022.66 536 1021 536L 3 536C 1.34315 536 0 534.657 0 533L 0 3Z"/>
<path id="path2_fill" d="M 0 0L 1036 0L 1036 96L 0 96L 0 0Z"/>
<path id="path3_fill" fill-rule="evenodd" d="M 12 1C 12 1.55228 11.5523 2 11 2L 1 2C 0.447715 2 0 1.55228 0 1C 0 0.447715 0.447715 0 1 0L 11 0C 11.5523 0 12 0.447715 12 1Z"/>
<path id="path4_fill" d="M 0 1C 0 0.447715 0.447715 0 1 0L 11 0C 11.5523 0 12 0.447715 12 1L 12 11C 12 11.5523 11.5523 12 11 12L 1 12C 0.447715 12 0 11.5523 0 11L 0 1Z"/>
<path id="path5_stroke_2x" d="M 1 2L 11 2L 11 -2L 1 -2L 1 2ZM 10 1L 10 11L 14 11L 14 1L 10 1ZM 11 10L 1 10L 1 14L 11 14L 11 10ZM 2 11L 2 1L -2 1L -2 11L 2 11ZM 1 10C 1.55228 10 2 10.4477 2 11L -2 11C -2 12.6569 -0.656854 14 1 14L 1 10ZM 10 11C 10 10.4477 10.4477 10 11 10L 11 14C 12.6569 14 14 12.6569 14 11L 10 11ZM 11 2C 10.4477 2 10 1.55228 10 1L 14 1C 14 -0.656854 12.6569 -2 11 -2L 11 2ZM 1 -2C -0.656854 -2 -2 -0.656854 -2 1L 2 1C 2 1.55228 1.55228 2 1 2L 1 -2Z"/>
<path id="path6_fill" fill-rule="evenodd" d="M 16 1C 16 1.55228 15.5523 2 15 2L 1 2C 0.447715 2 0 1.55228 0 1C 0 0.447715 0.447715 0 1 0L 15 0C 15.5523 0 16 0.447715 16 1Z"/>
<path id="path7_fill" d="M 0 0L 992 0L 992 408L 0 408L 0 0Z"/>
<path id="path8_fill" d="M 4.17188 19.6484L 4.17188 26L 2.20312 26L 2.20312 9.19531L 6.82031 9.19531C 8.61719 9.19531 10.0078 9.63281 10.9922 10.5078C 11.9844 11.3828 12.4805 12.6172 12.4805 14.2109C 12.4805 15.8047 11.9297 17.1094 10.8281 18.125C 9.73438 19.1406 8.25391 19.6484 6.38672 19.6484L 4.17188 19.6484ZM 4.17188 10.9766L 4.17188 17.8672L 6.23438 17.8672C 7.59375 17.8672 8.62891 17.5586 9.33984 16.9414C 10.0586 16.3164 10.418 15.4375 10.418 14.3047C 10.418 12.0859 9.10547 10.9766 6.48047 10.9766L 4.17188 10.9766ZM 16.3828 10.9531C 16.0391 10.9531 15.7461 10.8359 15.5039 10.6016C 15.2617 10.3672 15.1406 10.0703 15.1406 9.71094C 15.1406 9.35156 15.2617 9.05469 15.5039 8.82031C 15.7461 8.57813 16.0391 8.45703 16.3828 8.45703C 16.7344 8.45703 17.0313 8.57813 17.2734 8.82031C 17.5234 9.05469 17.6484 9.35156 17.6484 9.71094C 17.6484 10.0547 17.5234 10.3477 17.2734 10.5898C 17.0313 10.832 16.7344 10.9531 16.3828 10.9531ZM 17.3203 26L 15.3984 26L 15.3984 14L 17.3203 14L 17.3203 26ZM 30.6445 14L 25.8633 26L 23.9766 26L 19.4297 14L 21.5391 14L 24.5859 22.7188C 24.8125 23.3594 24.9531 23.918 25.0078 24.3945L 25.0547 24.3945C 25.1328 23.793 25.2578 23.25 25.4297 22.7656L 28.6172 14L 30.6445 14ZM 37.7344 26.2812C 35.9609 26.2812 34.543 25.7227 33.4805 24.6055C 32.4258 23.4805 31.8984 21.9922 31.8984 20.1406C 31.8984 18.125 32.4492 16.5508 33.5508 15.418C 34.6523 14.2852 36.1406 13.7188 38.0156 13.7188C 39.8047 13.7188 41.1992 14.2695 42.1992 15.3711C 43.207 16.4727 43.7109 18 43.7109 19.9531C 43.7109 21.8672 43.168 23.4023 42.082 24.5586C 41.0039 25.707 39.5547 26.2812 37.7344 26.2812ZM 37.875 15.3359C 36.6406 15.3359 35.6641 15.7578 34.9453 16.6016C 34.2266 17.4375 33.8672 18.5938 33.8672 20.0703C 33.8672 21.4922 34.2305 22.6133 34.957 23.4336C 35.6836 24.2539 36.6562 24.6641 37.875 24.6641C 39.1172 24.6641 40.0703 24.2617 40.7344 23.457C 41.4062 22.6523 41.7422 21.5078 41.7422 20.0234C 41.7422 18.5234 41.4062 17.3672 40.7344 16.5547C 40.0703 15.7422 39.1172 15.3359 37.875 15.3359ZM 52.3477 25.8828C 51.8945 26.1328 51.2969 26.2578 50.5547 26.2578C 48.4531 26.2578 47.4023 25.0859 47.4023 22.7422L 47.4023 15.6406L 45.3398 15.6406L 45.3398 14L 47.4023 14L 47.4023 11.0703L 49.3242 10.4492L 49.3242 14L 52.3477 14L 52.3477 15.6406L 49.3242 15.6406L 49.3242 22.4023C 49.3242 23.207 49.4609 23.7813 49.7344 24.125C 50.0078 24.4687 50.4609 24.6406 51.0938 24.6406C 51.5781 24.6406 51.9961 24.5078 52.3477 24.2422L 52.3477 25.8828ZM 70.7227 21.2422C 70.7227 22 70.5781 22.6914 70.2891 23.3164C 70.0078 23.9336 69.6055 24.4648 69.082 24.9102C 68.5664 25.3477 67.9453 25.6875 67.2188 25.9297C 66.4922 26.1719 65.6914 26.293 64.8164 26.293C 63.2148 26.293 61.9414 25.9883 60.9961 25.3789L 60.9961 23.3164C 62.1289 24.207 63.4258 24.6523 64.8867 24.6523C 65.4727 24.6523 66 24.5781 66.4688 24.4297C 66.9453 24.2812 67.3516 24.0664 67.6875 23.7852C 68.0312 23.5039 68.293 23.1641 68.4727 22.7656C 68.6602 22.3672 68.7539 21.918 68.7539 21.418C 68.7539 19.2227 67.1914 18.125 64.0664 18.125L 62.6719 18.125L 62.6719 16.4961L 63.9961 16.4961C 66.7617 16.4961 68.1445 15.4648 68.1445 13.4023C 68.1445 11.4961 67.0898 10.543 64.9805 10.543C 63.793 10.543 62.6797 10.9414 61.6406 11.7383L 61.6406 9.875C 62.7109 9.23438 63.9844 8.91406 65.4609 8.91406C 66.1641 8.91406 66.8008 9.01172 67.3711 9.20703C 67.9414 9.40234 68.4297 9.67578 68.8359 10.0273C 69.2422 10.3789 69.5547 10.8008 69.7734 11.293C 70 11.7852 70.1133 12.3281 70.1133 12.9219C 70.1133 15.1328 68.9961 16.5547 66.7617 17.1875L 66.7617 17.2344C 67.332 17.2969 67.8594 17.4375 68.3438 17.6562C 68.8281 17.8672 69.2461 18.1445 69.5977 18.4883C 69.9492 18.832 70.2227 19.2383 70.418 19.707C 70.6211 20.168 70.7227 20.6797 70.7227 21.2422Z"/>
<path id="path9_fill" d="M 4.17188 19.6484L 4.17188 26L 2.20312 26L 2.20312 9.19531L 6.82031 9.19531C 8.61719 9.19531 10.0078 9.63281 10.9922 10.5078C 11.9844 11.3828 12.4805 12.6172 12.4805 14.2109C 12.4805 15.8047 11.9297 17.1094 10.8281 18.125C 9.73438 19.1406 8.25391 19.6484 6.38672 19.6484L 4.17188 19.6484ZM 4.17188 10.9766L 4.17188 17.8672L 6.23438 17.8672C 7.59375 17.8672 8.62891 17.5586 9.33984 16.9414C 10.0586 16.3164 10.418 15.4375 10.418 14.3047C 10.418 12.0859 9.10547 10.9766 6.48047 10.9766L 4.17188 10.9766ZM 16.3828 10.9531C 16.0391 10.9531 15.7461 10.8359 15.5039 10.6016C 15.2617 10.3672 15.1406 10.0703 15.1406 9.71094C 15.1406 9.35156 15.2617 9.05469 15.5039 8.82031C 15.7461 8.57813 16.0391 8.45703 16.3828 8.45703C 16.7344 8.45703 17.0313 8.57813 17.2734 8.82031C 17.5234 9.05469 17.6484 9.35156 17.6484 9.71094C 17.6484 10.0547 17.5234 10.3477 17.2734 10.5898C 17.0313 10.832 16.7344 10.9531 16.3828 10.9531ZM 17.3203 26L 15.3984 26L 15.3984 14L 17.3203 14L 17.3203 26ZM 30.6445 14L 25.8633 26L 23.9766 26L 19.4297 14L 21.5391 14L 24.5859 22.7188C 24.8125 23.3594 24.9531 23.918 25.0078 24.3945L 25.0547 24.3945C 25.1328 23.793 25.2578 23.25 25.4297 22.7656L 28.6172 14L 30.6445 14ZM 37.7344 26.2812C 35.9609 26.2812 34.543 25.7227 33.4805 24.6055C 32.4258 23.4805 31.8984 21.9922 31.8984 20.1406C 31.8984 18.125 32.4492 16.5508 33.5508 15.418C 34.6523 14.2852 36.1406 13.7188 38.0156 13.7188C 39.8047 13.7188 41.1992 14.2695 42.1992 15.3711C 43.207 16.4727 43.7109 18 43.7109 19.9531C 43.7109 21.8672 43.168 23.4023 42.082 24.5586C 41.0039 25.707 39.5547 26.2812 37.7344 26.2812ZM 37.875 15.3359C 36.6406 15.3359 35.6641 15.7578 34.9453 16.6016C 34.2266 17.4375 33.8672 18.5938 33.8672 20.0703C 33.8672 21.4922 34.2305 22.6133 34.957 23.4336C 35.6836 24.2539 36.6562 24.6641 37.875 24.6641C 39.1172 24.6641 40.0703 24.2617 40.7344 23.457C 41.4062 22.6523 41.7422 21.5078 41.7422 20.0234C 41.7422 18.5234 41.4062 17.3672 40.7344 16.5547C 40.0703 15.7422 39.1172 15.3359 37.875 15.3359ZM 52.3477 25.8828C 51.8945 26.1328 51.2969 26.2578 50.5547 26.2578C 48.4531 26.2578 47.4023 25.0859 47.4023 22.7422L 47.4023 15.6406L 45.3398 15.6406L 45.3398 14L 47.4023 14L 47.4023 11.0703L 49.3242 10.4492L 49.3242 14L 52.3477 14L 52.3477 15.6406L 49.3242 15.6406L 49.3242 22.4023C 49.3242 23.207 49.4609 23.7813 49.7344 24.125C 50.0078 24.4687 50.4609 24.6406 51.0938 24.6406C 51.5781 24.6406 51.9961 24.5078 52.3477 24.2422L 52.3477 25.8828ZM 69.5156 9.19531L 69.5156 20.293L 71.6719 20.293L 71.6719 22.0508L 69.5156 22.0508L 69.5156 26L 67.6172 26L 67.6172 22.0508L 59.7188 22.0508L 59.7188 20.3867C 60.4531 19.5586 61.1953 18.6758 61.9453 17.7383C 62.6953 16.793 63.4102 15.8359 64.0898 14.8672C 64.7773 13.8984 65.4102 12.9336 65.9883 11.9727C 66.5742 11.0039 67.0664 10.0781 67.4648 9.19531L 69.5156 9.19531ZM 61.8867 20.293L 67.6172 20.293L 67.6172 12.0664C 67.0312 13.0898 66.4766 14.0039 65.9531 14.8086C 65.4297 15.6133 64.9297 16.3438 64.4531 17C 63.9844 17.6562 63.5352 18.25 63.1055 18.7812C 62.6758 19.3125 62.2695 19.8164 61.8867 20.293Z"/>
<path id="path10_fill" d="M 4.17188 19.6484L 4.17188 26L 2.20312 26L 2.20312 9.19531L 6.82031 9.19531C 8.61719 9.19531 10.0078 9.63281 10.9922 10.5078C 11.9844 11.3828 12.4805 12.6172 12.4805 14.2109C 12.4805 15.8047 11.9297 17.1094 10.8281 18.125C 9.73438 19.1406 8.25391 19.6484 6.38672 19.6484L 4.17188 19.6484ZM 4.17188 10.9766L 4.17188 17.8672L 6.23438 17.8672C 7.59375 17.8672 8.62891 17.5586 9.33984 16.9414C 10.0586 16.3164 10.418 15.4375 10.418 14.3047C 10.418 12.0859 9.10547 10.9766 6.48047 10.9766L 4.17188 10.9766ZM 16.3828 10.9531C 16.0391 10.9531 15.7461 10.8359 15.5039 10.6016C 15.2617 10.3672 15.1406 10.0703 15.1406 9.71094C 15.1406 9.35156 15.2617 9.05469 15.5039 8.82031C 15.7461 8.57813 16.0391 8.45703 16.3828 8.45703C 16.7344 8.45703 17.0313 8.57813 17.2734 8.82031C 17.5234 9.05469 17.6484 9.35156 17.6484 9.71094C 17.6484 10.0547 17.5234 10.3477 17.2734 10.5898C 17.0313 10.832 16.7344 10.9531 16.3828 10.9531ZM 17.3203 26L 15.3984 26L 15.3984 14L 17.3203 14L 17.3203 26ZM 30.6445 14L 25.8633 26L 23.9766 26L 19.4297 14L 21.5391 14L 24.5859 22.7188C 24.8125 23.3594 24.9531 23.918 25.0078 24.3945L 25.0547 24.3945C 25.1328 23.793 25.2578 23.25 25.4297 22.7656L 28.6172 14L 30.6445 14ZM 37.7344 26.2812C 35.9609 26.2812 34.543 25.7227 33.4805 24.6055C 32.4258 23.4805 31.8984 21.9922 31.8984 20.1406C 31.8984 18.125 32.4492 16.5508 33.5508 15.418C 34.6523 14.2852 36.1406 13.7188 38.0156 13.7188C 39.8047 13.7188 41.1992 14.2695 42.1992 15.3711C 43.207 16.4727 43.7109 18 43.7109 19.9531C 43.7109 21.8672 43.168 23.4023 42.082 24.5586C 41.0039 25.707 39.5547 26.2812 37.7344 26.2812ZM 37.875 15.3359C 36.6406 15.3359 35.6641 15.7578 34.9453 16.6016C 34.2266 17.4375 33.8672 18.5938 33.8672 20.0703C 33.8672 21.4922 34.2305 22.6133 34.957 23.4336C 35.6836 24.2539 36.6562 24.6641 37.875 24.6641C 39.1172 24.6641 40.0703 24.2617 40.7344 23.457C 41.4062 22.6523 41.7422 21.5078 41.7422 20.0234C 41.7422 18.5234 41.4062 17.3672 40.7344 16.5547C 40.0703 15.7422 39.1172 15.3359 37.875 15.3359ZM 52.3477 25.8828C 51.8945 26.1328 51.2969 26.2578 50.5547 26.2578C 48.4531 26.2578 47.4023 25.0859 47.4023 22.7422L 47.4023 15.6406L 45.3398 15.6406L 45.3398 14L 47.4023 14L 47.4023 11.0703L 49.3242 10.4492L 49.3242 14L 52.3477 14L 52.3477 15.6406L 49.3242 15.6406L 49.3242 22.4023C 49.3242 23.207 49.4609 23.7813 49.7344 24.125C 50.0078 24.4687 50.4609 24.6406 51.0938 24.6406C 51.5781 24.6406 51.9961 24.5078 52.3477 24.2422L 52.3477 25.8828ZM 68.6016 13.6016C 68.6016 13.0859 68.5195 12.6367 68.3555 12.2539C 68.1992 11.8711 67.9805 11.5547 67.6992 11.3047C 67.4258 11.0469 67.1016 10.8555 66.7266 10.7305C 66.3516 10.6055 65.9453 10.543 65.5078 10.543C 65.1328 10.543 64.7656 10.5938 64.4062 10.6953C 64.0469 10.7969 63.6953 10.9375 63.3516 11.1172C 63.0156 11.2969 62.6875 11.5117 62.3672 11.7617C 62.0547 12.0117 61.7617 12.2891 61.4883 12.5938L 61.4883 10.5312C 62.0273 10.0078 62.6289 9.60938 63.293 9.33594C 63.9648 9.05469 64.7812 8.91406 65.7422 8.91406C 66.4297 8.91406 67.0664 9.01562 67.6523 9.21875C 68.2383 9.41406 68.7461 9.70313 69.1758 10.0859C 69.6055 10.4687 69.9414 10.9414 70.1836 11.5039C 70.4336 12.0664 70.5586 12.7109 70.5586 13.4375C 70.5586 14.1016 70.4805 14.7031 70.3242 15.2422C 70.1758 15.7812 69.9453 16.2891 69.6328 16.7656C 69.3281 17.2422 68.9414 17.6992 68.4727 18.1367C 68.0039 18.5742 67.4531 19.0195 66.8203 19.4727C 66.0313 20.0352 65.3789 20.5156 64.8633 20.9141C 64.3555 21.3125 63.9492 21.6875 63.6445 22.0391C 63.3477 22.3828 63.1367 22.7305 63.0117 23.082C 62.8945 23.4258 62.8359 23.8242 62.8359 24.2773L 71.2031 24.2773L 71.2031 26L 60.832 26L 60.832 25.168C 60.832 24.4492 60.9102 23.8164 61.0664 23.2695C 61.2227 22.7227 61.4805 22.2031 61.8398 21.7109C 62.1992 21.2188 62.668 20.7266 63.2461 20.2344C 63.832 19.7422 64.5469 19.1875 65.3906 18.5703C 66 18.1328 66.5078 17.7148 66.9141 17.3164C 67.3281 16.918 67.6602 16.5195 67.9102 16.1211C 68.1602 15.7227 68.3359 15.3203 68.4375 14.9141C 68.5469 14.5 68.6016 14.0625 68.6016 13.6016Z"/>
<path id="path11_fill" d="M 4.17188 19.6484L 4.17188 26L 2.20312 26L 2.20312 9.19531L 6.82031 9.19531C 8.61719 9.19531 10.0078 9.63281 10.9922 10.5078C 11.9844 11.3828 12.4805 12.6172 12.4805 14.2109C 12.4805 15.8047 11.9297 17.1094 10.8281 18.125C 9.73438 19.1406 8.25391 19.6484 6.38672 19.6484L 4.17188 19.6484ZM 4.17188 10.9766L 4.17188 17.8672L 6.23438 17.8672C 7.59375 17.8672 8.62891 17.5586 9.33984 16.9414C 10.0586 16.3164 10.418 15.4375 10.418 14.3047C 10.418 12.0859 9.10547 10.9766 6.48047 10.9766L 4.17188 10.9766ZM 16.3828 10.9531C 16.0391 10.9531 15.7461 10.8359 15.5039 10.6016C 15.2617 10.3672 15.1406 10.0703 15.1406 9.71094C 15.1406 9.35156 15.2617 9.05469 15.5039 8.82031C 15.7461 8.57812 16.0391 8.45703 16.3828 8.45703C 16.7344 8.45703 17.0312 8.57812 17.2734 8.82031C 17.5234 9.05469 17.6484 9.35156 17.6484 9.71094C 17.6484 10.0547 17.5234 10.3477 17.2734 10.5898C 17.0312 10.832 16.7344 10.9531 16.3828 10.9531ZM 17.3203 26L 15.3984 26L 15.3984 14L 17.3203 14L 17.3203 26ZM 30.6445 14L 25.8633 26L 23.9766 26L 19.4297 14L 21.5391 14L 24.5859 22.7188C 24.8125 23.3594 24.9531 23.918 25.0078 24.3945L 25.0547 24.3945C 25.1328 23.793 25.2578 23.25 25.4297 22.7656L 28.6172 14L 30.6445 14ZM 37.7344 26.2812C 35.9609 26.2812 34.543 25.7227 33.4805 24.6055C 32.4258 23.4805 31.8984 21.9922 31.8984 20.1406C 31.8984 18.125 32.4492 16.5508 33.5508 15.418C 34.6523 14.2852 36.1406 13.7188 38.0156 13.7188C 39.8047 13.7188 41.1992 14.2695 42.1992 15.3711C 43.207 16.4727 43.7109 18 43.7109 19.9531C 43.7109 21.8672 43.168 23.4023 42.082 24.5586C 41.0039 25.707 39.5547 26.2812 37.7344 26.2812ZM 37.875 15.3359C 36.6406 15.3359 35.6641 15.7578 34.9453 16.6016C 34.2266 17.4375 33.8672 18.5938 33.8672 20.0703C 33.8672 21.4922 34.2305 22.6133 34.957 23.4336C 35.6836 24.2539 36.6562 24.6641 37.875 24.6641C 39.1172 24.6641 40.0703 24.2617 40.7344 23.457C 41.4062 22.6523 41.7422 21.5078 41.7422 20.0234C 41.7422 18.5234 41.4062 17.3672 40.7344 16.5547C 40.0703 15.7422 39.1172 15.3359 37.875 15.3359ZM 52.3477 25.8828C 51.8945 26.1328 51.2969 26.2578 50.5547 26.2578C 48.4531 26.2578 47.4023 25.0859 47.4023 22.7422L 47.4023 15.6406L 45.3398 15.6406L 45.3398 14L 47.4023 14L 47.4023 11.0703L 49.3242 10.4492L 49.3242 14L 52.3477 14L 52.3477 15.6406L 49.3242 15.6406L 49.3242 22.4023C 49.3242 23.207 49.4609 23.7812 49.7344 24.125C 50.0078 24.4688 50.4609 24.6406 51.0938 24.6406C 51.5781 24.6406 51.9961 24.5078 52.3477 24.2422L 52.3477 25.8828ZM 68.0391 26L 66.1172 26L 66.1172 11.4805C 65.9688 11.6289 65.75 11.8008 65.4609 11.9961C 65.1797 12.1836 64.8594 12.3711 64.5 12.5586C 64.1484 12.7461 63.7734 12.9219 63.375 13.0859C 62.9844 13.25 62.6016 13.3789 62.2266 13.4727L 62.2266 11.5273C 62.6484 11.4102 63.0938 11.2539 63.5625 11.0586C 64.0391 10.8555 64.5039 10.6328 64.957 10.3906C 65.418 10.1406 65.8516 9.88281 66.2578 9.61719C 66.6641 9.34375 67.0156 9.07812 67.3125 8.82031L 68.0391 8.82031L 68.0391 26Z"/>
<path id="path12_fill" d="M 0 0L 68 0L 68 4L 0 4L 0 0Z"/>
</defs>
</svg>
