<svg width="1920" height="882" viewBox="0 0 1920 882" version="1.1" xmlns="http://www.w3.org/2000/svg" xmlns:xlink="http://www.w3.org/1999/xlink">
<g fill="none">
<g clip-path="url(#clip0)">
<rect width="1920" height="882" fill="#243A5E"/>
<g filter="url(#filter0_d)">
<path fill-rule="evenodd" clip-rule="evenodd" d="M 0 0L 1706.67 0L 1706.67 893.671L 0 893.671L 0 0Z" transform="translate(106.666 93.3691)" fill="white"/>
</g>
<mask id="mask0" mask-type="alpha" maskUnits="userSpaceOnUse" x="106" y="93" width="1708" height="895">
<path fill-rule="evenodd" clip-rule="evenodd" d="M 0 3C 0 1.34314 1.34315 0 3 0L 1703.67 0C 1705.32 0 1706.67 1.34315 1706.67 3L 1706.67 890.671C 1706.67 892.328 1705.32 893.671 1703.67 893.671L 3 893.671C 1.34314 893.671 0 892.328 0 890.671L 0 3Z" transform="translate(106.666 93.3691)" fill="white"/>
<path fill-rule="evenodd" clip-rule="evenodd" d="M 0 3C 0 1.34314 1.34315 0 3 0L 1703.67 0C 1705.32 0 1706.67 1.34315 1706.67 3L 1706.67 890.671C 1706.67 892.328 1705.32 893.671 1703.67 893.671L 3 893.671C 1.34314 893.671 0 892.328 0 890.671L 0 3Z" transform="translate(106.666 93.3691)" fill="white"/>
</mask>
<g mask="url(#mask0)">
<g style="mix-blend-mode:multiply">
<rect width="1726.67" height="160.06" transform="translate(106.666 93.3691)" fill="#D9D9D9"/>
</g>
</g>
<rect width="1653.33" height="680.257" transform="translate(133.334 280.105)" fill="#F4F4F4"/>
<path d="M 6.95312 32.4141L 6.95312 43L 3.67188 43L 3.67188 14.9922L 11.3672 14.9922C 14.362 14.9922 16.6797 15.7214 18.3203 17.1797C 19.974 18.638 20.8008 20.6953 20.8008 23.3516C 20.8008 26.0078 19.8828 28.1823 18.0469 29.875C 16.224 31.5677 13.7565 32.4141 10.6445 32.4141L 6.95312 32.4141ZM 6.95312 17.9609L 6.95312 29.4453L 10.3906 29.4453C 12.6562 29.4453 14.3815 28.931 15.5664 27.9023C 16.7643 26.8607 17.3633 25.3958 17.3633 23.5078C 17.3633 19.8099 15.1758 17.9609 10.8008 17.9609L 6.95312 17.9609ZM 27.3047 17.9219C 26.7318 17.9219 26.2435 17.7266 25.8398 17.3359C 25.4362 16.9453 25.2344 16.4505 25.2344 15.8516C 25.2344 15.2526 25.4362 14.7578 25.8398 14.3672C 26.2435 13.9635 26.7318 13.7617 27.3047 13.7617C 27.8906 13.7617 28.3854 13.9635 28.7891 14.3672C 29.2057 14.7578 29.4141 15.2526 29.4141 15.8516C 29.4141 16.4245 29.2057 16.9128 28.7891 17.3164C 28.3854 17.7201 27.8906 17.9219 27.3047 17.9219ZM 28.8672 43L 25.6641 43L 25.6641 23L 28.8672 23L 28.8672 43ZM 51.0742 23L 43.1055 43L 39.9609 43L 32.3828 23L 35.8984 23L 40.9766 37.5312C 41.3542 38.599 41.5885 39.5299 41.6797 40.3242L 41.7578 40.3242C 41.888 39.3216 42.0964 38.4167 42.3828 37.6094L 47.6953 23L 51.0742 23ZM 62.8906 43.4688C 59.9349 43.4688 57.5716 42.5378 55.8008 40.6758C 54.043 38.8008 53.1641 36.3203 53.1641 33.2344C 53.1641 29.875 54.082 27.2513 55.918 25.3633C 57.7539 23.4753 60.2344 22.5312 63.3594 22.5312C 66.3411 22.5312 68.6654 23.4492 70.332 25.2852C 72.0117 27.1211 72.8516 29.6667 72.8516 32.9219C 72.8516 36.112 71.9466 38.6706 70.1367 40.5977C 68.3398 42.5117 65.9245 43.4688 62.8906 43.4688ZM 63.125 25.2266C 61.0677 25.2266 59.4401 25.9297 58.2422 27.3359C 57.0443 28.7292 56.4453 30.6562 56.4453 33.1172C 56.4453 35.487 57.0508 37.3555 58.2617 38.7227C 59.4727 40.0898 61.0938 40.7734 63.125 40.7734C 65.1953 40.7734 66.7839 40.1029 67.8906 38.7617C 69.0104 37.4206 69.5703 35.513 69.5703 33.0391C 69.5703 30.5391 69.0104 28.612 67.8906 27.2578C 66.7839 25.9036 65.1953 25.2266 63.125 25.2266ZM 87.2461 42.8047C 86.4909 43.2214 85.4948 43.4297 84.2578 43.4297C 80.7552 43.4297 79.0039 41.4766 79.0039 37.5703L 79.0039 25.7344L 75.5664 25.7344L 75.5664 23L 79.0039 23L 79.0039 18.1172L 82.207 17.082L 82.207 23L 87.2461 23L 87.2461 25.7344L 82.207 25.7344L 82.207 37.0039C 82.207 38.3451 82.4349 39.3021 82.8906 39.875C 83.3464 40.4479 84.1016 40.7344 85.1562 40.7344C 85.9635 40.7344 86.6602 40.513 87.2461 40.0703L 87.2461 42.8047ZM 117.871 35.0703C 117.871 36.3333 117.63 37.4857 117.148 38.5273C 116.68 39.556 116.009 40.4414 115.137 41.1836C 114.277 41.9128 113.242 42.4792 112.031 42.8828C 110.82 43.2865 109.486 43.4883 108.027 43.4883C 105.358 43.4883 103.236 42.9805 101.66 41.9648L 101.66 38.5273C 103.548 40.0117 105.71 40.7539 108.145 40.7539C 109.121 40.7539 110 40.6302 110.781 40.3828C 111.576 40.1354 112.253 39.7773 112.812 39.3086C 113.385 38.8398 113.822 38.2734 114.121 37.6094C 114.434 36.9453 114.59 36.1966 114.59 35.3633C 114.59 31.7044 111.986 29.875 106.777 29.875L 104.453 29.875L 104.453 27.1602L 106.66 27.1602C 111.27 27.1602 113.574 25.4414 113.574 22.0039C 113.574 18.8268 111.816 17.2383 108.301 17.2383C 106.322 17.2383 104.466 17.9023 102.734 19.2305L 102.734 16.125C 104.518 15.0573 106.641 14.5234 109.102 14.5234C 110.273 14.5234 111.335 14.6862 112.285 15.0117C 113.236 15.3372 114.049 15.793 114.727 16.3789C 115.404 16.9648 115.924 17.668 116.289 18.4883C 116.667 19.3086 116.855 20.2135 116.855 21.2031C 116.855 24.888 114.993 27.2578 111.27 28.3125L 111.27 28.3906C 112.22 28.4948 113.099 28.7292 113.906 29.0938C 114.714 29.4453 115.41 29.9076 115.996 30.4805C 116.582 31.0534 117.038 31.7305 117.363 32.5117C 117.702 33.2799 117.871 34.1328 117.871 35.0703Z" transform="translate(468.334 186.736)" fill="black"/>
<path d="M 6.95312 32.4141L 6.95312 43L 3.67188 43L 3.67188 14.9922L 11.3672 14.9922C 14.362 14.9922 16.6797 15.7214 18.3203 17.1797C 19.974 18.638 20.8008 20.6953 20.8008 23.3516C 20.8008 26.0078 19.8828 28.1823 18.0469 29.875C 16.224 31.5677 13.7565 32.4141 10.6445 32.4141L 6.95312 32.4141ZM 6.95312 17.9609L 6.95312 29.4453L 10.3906 29.4453C 12.6562 29.4453 14.3815 28.931 15.5664 27.9023C 16.7643 26.8607 17.3633 25.3958 17.3633 23.5078C 17.3633 19.8099 15.1758 17.9609 10.8008 17.9609L 6.95312 17.9609ZM 27.3047 17.9219C 26.7318 17.9219 26.2435 17.7266 25.8398 17.3359C 25.4362 16.9453 25.2344 16.4505 25.2344 15.8516C 25.2344 15.2526 25.4362 14.7578 25.8398 14.3672C 26.2435 13.9635 26.7318 13.7617 27.3047 13.7617C 27.8906 13.7617 28.3854 13.9635 28.7891 14.3672C 29.2057 14.7578 29.4141 15.2526 29.4141 15.8516C 29.4141 16.4245 29.2057 16.9128 28.7891 17.3164C 28.3854 17.7201 27.8906 17.9219 27.3047 17.9219ZM 28.8672 43L 25.6641 43L 25.6641 23L 28.8672 23L 28.8672 43ZM 51.0742 23L 43.1055 43L 39.9609 43L 32.3828 23L 35.8984 23L 40.9766 37.5312C 41.3542 38.599 41.5885 39.5299 41.6797 40.3242L 41.7578 40.3242C 41.888 39.3216 42.0964 38.4167 42.3828 37.6094L 47.6953 23L 51.0742 23ZM 62.8906 43.4688C 59.9349 43.4688 57.5716 42.5378 55.8008 40.6758C 54.043 38.8008 53.1641 36.3203 53.1641 33.2344C 53.1641 29.875 54.082 27.2513 55.918 25.3633C 57.7539 23.4753 60.2344 22.5312 63.3594 22.5312C 66.3411 22.5312 68.6654 23.4492 70.332 25.2852C 72.0117 27.1211 72.8516 29.6667 72.8516 32.9219C 72.8516 36.112 71.9466 38.6706 70.1367 40.5977C 68.3398 42.5117 65.9245 43.4688 62.8906 43.4688ZM 63.125 25.2266C 61.0677 25.2266 59.4401 25.9297 58.2422 27.3359C 57.0443 28.7292 56.4453 30.6562 56.4453 33.1172C 56.4453 35.487 57.0508 37.3555 58.2617 38.7227C 59.4727 40.0898 61.0938 40.7734 63.125 40.7734C 65.1953 40.7734 66.7839 40.1029 67.8906 38.7617C 69.0104 37.4206 69.5703 35.513 69.5703 33.0391C 69.5703 30.5391 69.0104 28.612 67.8906 27.2578C 66.7839 25.9036 65.1953 25.2266 63.125 25.2266ZM 87.2461 42.8047C 86.4909 43.2214 85.4948 43.4297 84.2578 43.4297C 80.7552 43.4297 79.0039 41.4766 79.0039 37.5703L 79.0039 25.7344L 75.5664 25.7344L 75.5664 23L 79.0039 23L 79.0039 18.1172L 82.207 17.082L 82.207 23L 87.2461 23L 87.2461 25.7344L 82.207 25.7344L 82.207 37.0039C 82.207 38.3451 82.4349 39.3021 82.8906 39.875C 83.3464 40.4479 84.1016 40.7344 85.1562 40.7344C 85.9635 40.7344 86.6602 40.513 87.2461 40.0703L 87.2461 42.8047ZM 115.859 14.9922L 115.859 33.4883L 119.453 33.4883L 119.453 36.418L 115.859 36.418L 115.859 43L 112.695 43L 112.695 36.418L 99.5312 36.418L 99.5312 33.6445C 100.755 32.2643 101.992 30.793 103.242 29.2305C 104.492 27.6549 105.684 26.0599 106.816 24.4453C 107.962 22.8307 109.017 21.2227 109.98 19.6211C 110.957 18.0065 111.777 16.4635 112.441 14.9922L 115.859 14.9922ZM 103.145 33.4883L 112.695 33.4883L 112.695 19.7773C 111.719 21.4831 110.794 23.0065 109.922 24.3477C 109.049 25.6888 108.216 26.9062 107.422 28C 106.641 29.0938 105.892 30.0833 105.176 30.9688C 104.46 31.8542 103.783 32.694 103.145 33.4883Z" transform="translate(625.002 186.736)" fill="black"/>
<path d="M 6.95312 32.4141L 6.95312 43L 3.67188 43L 3.67188 14.9922L 11.3672 14.9922C 14.362 14.9922 16.6797 15.7214 18.3203 17.1797C 19.974 18.638 20.8008 20.6953 20.8008 23.3516C 20.8008 26.0078 19.8828 28.1823 18.0469 29.875C 16.224 31.5677 13.7565 32.4141 10.6445 32.4141L 6.95312 32.4141ZM 6.95312 17.9609L 6.95312 29.4453L 10.3906 29.4453C 12.6562 29.4453 14.3815 28.931 15.5664 27.9023C 16.7643 26.8607 17.3633 25.3958 17.3633 23.5078C 17.3633 19.8099 15.1758 17.9609 10.8008 17.9609L 6.95312 17.9609ZM 27.3047 17.9219C 26.7318 17.9219 26.2435 17.7266 25.8398 17.3359C 25.4362 16.9453 25.2344 16.4505 25.2344 15.8516C 25.2344 15.2526 25.4362 14.7578 25.8398 14.3672C 26.2435 13.9635 26.7318 13.7617 27.3047 13.7617C 27.8906 13.7617 28.3854 13.9635 28.7891 14.3672C 29.2057 14.7578 29.4141 15.2526 29.4141 15.8516C 29.4141 16.4245 29.2057 16.9128 28.7891 17.3164C 28.3854 17.7201 27.8906 17.9219 27.3047 17.9219ZM 28.8672 43L 25.6641 43L 25.6641 23L 28.8672 23L 28.8672 43ZM 51.0742 23L 43.1055 43L 39.9609 43L 32.3828 23L 35.8984 23L 40.9766 37.5312C 41.3542 38.599 41.5885 39.5299 41.6797 40.3242L 41.7578 40.3242C 41.888 39.3216 42.0964 38.4167 42.3828 37.6094L 47.6953 23L 51.0742 23ZM 62.8906 43.4688C 59.9349 43.4688 57.5716 42.5378 55.8008 40.6758C 54.043 38.8008 53.1641 36.3203 53.1641 33.2344C 53.1641 29.875 54.082 27.2513 55.918 25.3633C 57.7539 23.4753 60.2344 22.5312 63.3594 22.5312C 66.3411 22.5312 68.6654 23.4492 70.332 25.2852C 72.0117 27.1211 72.8516 29.6667 72.8516 32.9219C 72.8516 36.112 71.9466 38.6706 70.1367 40.5977C 68.3398 42.5117 65.9245 43.4688 62.8906 43.4688ZM 63.125 25.2266C 61.0677 25.2266 59.4401 25.9297 58.2422 27.3359C 57.0443 28.7292 56.4453 30.6562 56.4453 33.1172C 56.4453 35.487 57.0508 37.3555 58.2617 38.7227C 59.4727 40.0898 61.0938 40.7734 63.125 40.7734C 65.1953 40.7734 66.7839 40.1029 67.8906 38.7617C 69.0104 37.4206 69.5703 35.513 69.5703 33.0391C 69.5703 30.5391 69.0104 28.612 67.8906 27.2578C 66.7839 25.9036 65.1953 25.2266 63.125 25.2266ZM 87.2461 42.8047C 86.4909 43.2214 85.4948 43.4297 84.2578 43.4297C 80.7552 43.4297 79.0039 41.4766 79.0039 37.5703L 79.0039 25.7344L 75.5664 25.7344L 75.5664 23L 79.0039 23L 79.0039 18.1172L 82.207 17.082L 82.207 23L 87.2461 23L 87.2461 25.7344L 82.207 25.7344L 82.207 37.0039C 82.207 38.3451 82.4349 39.3021 82.8906 39.875C 83.3464 40.4479 84.1016 40.7344 85.1562 40.7344C 85.9635 40.7344 86.6602 40.513 87.2461 40.0703L 87.2461 42.8047ZM 114.336 22.3359C 114.336 21.4766 114.199 20.7279 113.926 20.0898C 113.665 19.4518 113.301 18.9245 112.832 18.5078C 112.376 18.0781 111.836 17.7591 111.211 17.5508C 110.586 17.3424 109.909 17.2383 109.18 17.2383C 108.555 17.2383 107.943 17.3229 107.344 17.4922C 106.745 17.6615 106.159 17.8958 105.586 18.1953C 105.026 18.4948 104.479 18.8529 103.945 19.2695C 103.424 19.6862 102.936 20.1484 102.48 20.6562L 102.48 17.2188C 103.379 16.3464 104.382 15.6823 105.488 15.2266C 106.608 14.7578 107.969 14.5234 109.57 14.5234C 110.716 14.5234 111.777 14.6927 112.754 15.0312C 113.73 15.3568 114.577 15.8385 115.293 16.4766C 116.009 17.1146 116.569 17.9023 116.973 18.8398C 117.389 19.7773 117.598 20.8516 117.598 22.0625C 117.598 23.1693 117.467 24.1719 117.207 25.0703C 116.96 25.9688 116.576 26.8151 116.055 27.6094C 115.547 28.4036 114.902 29.1654 114.121 29.8945C 113.34 30.6237 112.422 31.3659 111.367 32.1211C 110.052 33.0586 108.965 33.8594 108.105 34.5234C 107.259 35.1875 106.582 35.8125 106.074 36.3984C 105.579 36.9714 105.228 37.5508 105.02 38.1367C 104.824 38.7096 104.727 39.3737 104.727 40.1289L 118.672 40.1289L 118.672 43L 101.387 43L 101.387 41.6133C 101.387 40.4154 101.517 39.3607 101.777 38.4492C 102.038 37.5378 102.467 36.6719 103.066 35.8516C 103.665 35.0312 104.447 34.2109 105.41 33.3906C 106.387 32.5703 107.578 31.6458 108.984 30.6172C 110 29.888 110.846 29.1914 111.523 28.5273C 112.214 27.8633 112.767 27.1992 113.184 26.5352C 113.6 25.8711 113.893 25.2005 114.062 24.5234C 114.245 23.8333 114.336 23.1042 114.336 22.3359Z" transform="translate(311.666 185.07)" fill="black"/>
<path d="M 6.95312 32.4141L 6.95312 43L 3.67188 43L 3.67188 14.9922L 11.3672 14.9922C 14.362 14.9922 16.6797 15.7214 18.3203 17.1797C 19.974 18.638 20.8008 20.6953 20.8008 23.3516C 20.8008 26.0078 19.8828 28.1823 18.0469 29.875C 16.224 31.5677 13.7565 32.4141 10.6445 32.4141L 6.95312 32.4141ZM 6.95312 17.9609L 6.95312 29.4453L 10.3906 29.4453C 12.6562 29.4453 14.3815 28.931 15.5664 27.9023C 16.7643 26.8607 17.3633 25.3958 17.3633 23.5078C 17.3633 19.8099 15.1758 17.9609 10.8008 17.9609L 6.95312 17.9609ZM 27.3047 17.9219C 26.7318 17.9219 26.2435 17.7266 25.8398 17.3359C 25.4362 16.9453 25.2344 16.4505 25.2344 15.8516C 25.2344 15.2526 25.4362 14.7578 25.8398 14.3672C 26.2435 13.9635 26.7318 13.7617 27.3047 13.7617C 27.8906 13.7617 28.3854 13.9635 28.7891 14.3672C 29.2057 14.7578 29.4141 15.2526 29.4141 15.8516C 29.4141 16.4245 29.2057 16.9128 28.7891 17.3164C 28.3854 17.7201 27.8906 17.9219 27.3047 17.9219ZM 28.8672 43L 25.6641 43L 25.6641 23L 28.8672 23L 28.8672 43ZM 51.0742 23L 43.1055 43L 39.9609 43L 32.3828 23L 35.8984 23L 40.9766 37.5312C 41.3542 38.599 41.5885 39.5299 41.6797 40.3242L 41.7578 40.3242C 41.888 39.3216 42.0964 38.4167 42.3828 37.6094L 47.6953 23L 51.0742 23ZM 62.8906 43.4688C 59.9349 43.4688 57.5716 42.5378 55.8008 40.6758C 54.043 38.8008 53.1641 36.3203 53.1641 33.2344C 53.1641 29.875 54.082 27.2513 55.918 25.3633C 57.7539 23.4753 60.2344 22.5312 63.3594 22.5312C 66.3411 22.5312 68.6654 23.4492 70.332 25.2852C 72.0117 27.1211 72.8516 29.6667 72.8516 32.9219C 72.8516 36.112 71.9466 38.6706 70.1367 40.5977C 68.3398 42.5117 65.9245 43.4688 62.8906 43.4688ZM 63.125 25.2266C 61.0677 25.2266 59.4401 25.9297 58.2422 27.3359C 57.0443 28.7292 56.4453 30.6562 56.4453 33.1172C 56.4453 35.487 57.0508 37.3555 58.2617 38.7227C 59.4727 40.0898 61.0938 40.7734 63.125 40.7734C 65.1953 40.7734 66.7839 40.1029 67.8906 38.7617C 69.0104 37.4206 69.5703 35.513 69.5703 33.0391C 69.5703 30.5391 69.0104 28.612 67.8906 27.2578C 66.7839 25.9036 65.1953 25.2266 63.125 25.2266ZM 87.2461 42.8047C 86.4909 43.2214 85.4948 43.4297 84.2578 43.4297C 80.7552 43.4297 79.0039 41.4766 79.0039 37.5703L 79.0039 25.7344L 75.5664 25.7344L 75.5664 23L 79.0039 23L 79.0039 18.1172L 82.207 17.082L 82.207 23L 87.2461 23L 87.2461 25.7344L 82.207 25.7344L 82.207 37.0039C 82.207 38.3451 82.4349 39.3021 82.8906 39.875C 83.3464 40.4479 84.1016 40.7344 85.1562 40.7344C 85.9635 40.7344 86.6602 40.513 87.2461 40.0703L 87.2461 42.8047ZM 113.398 43L 110.195 43L 110.195 18.8008C 109.948 19.0482 109.583 19.3346 109.102 19.6602C 108.633 19.9727 108.099 20.2852 107.5 20.5977C 106.914 20.9102 106.289 21.2031 105.625 21.4766C 104.974 21.75 104.336 21.9648 103.711 22.1211L 103.711 18.8789C 104.414 18.6836 105.156 18.4232 105.938 18.0977C 106.732 17.7591 107.507 17.388 108.262 16.9844C 109.03 16.5677 109.753 16.138 110.43 15.6953C 111.107 15.2396 111.693 14.7969 112.188 14.3672L 113.398 14.3672L 113.398 43Z" transform="translate(160 185.07)" fill="#0078D4"/>
<rect width="113.333" height="6.66919" transform="translate(161.666 246.76)" fill="#0078D4"/>
<g opacity="0.75">
<path fill-rule="evenodd" clip-rule="evenodd" d="M 20 3.33459L 0 3.33459L 0 0L 20 0L 20 3.33459Z" transform="translate(1670 118.377)" fill="black"/>
<rect x="1.5" y="1.5" width="17" height="17.0076" stroke-width="3" transform="translate(1723.33 110.041)" stroke="black"/>
<path fill-rule="evenodd" clip-rule="evenodd" d="M 12.9629 10.6113L 21.2129 2.35742L 18.8555 0L 10.6055 8.25391L 2.35547 0L 0 2.35742L 8.25 10.6113L 0 18.8633L 2.35742 21.2207L 10.6074 12.9688L 18.8555 21.2207L 21.2129 18.8633L 12.9629 10.6113Z" transform="translate(1776.06 109.436)" fill="black"/>
</g>
</g>
</g>
<defs>
<filter id="filter0_d" x="86.666" y="73.3691" width="1746.67" height="933.671" filterUnits="userSpaceOnUse" color-interpolation-filters="sRGB">
<feFlood flood-opacity="0" result="BackgroundImageFix"/>
<feColorMatrix in="SourceAlpha" type="matrix" values="0 0 0 0 0 0 0 0 0 0 0 0 0 0 0 0 0 0 255 0"/>
<feOffset/>
<feGaussianBlur stdDeviation="10"/>
<feColorMatrix type="matrix" values="0 0 0 0 0.095 0 0 0 0 0.153793 0 0 0 0 0.25 0 0 0 1 0"/>
<feBlend mode="normal" in2="BackgroundImageFix" result="effect1_dropShadow"/>
<feBlend mode="normal" in="SourceGraphic" in2="effect1_dropShadow" result="shape"/>
</filter>

<clipPath id="clip0">
<rect width="1920" height="882" fill="white"/>
</clipPath>

</defs>
</svg>

