<svg width="1152" height="648" viewBox="0 0 1152 648" version="1.1" xmlns="http://www.w3.org/2000/svg" xmlns:xlink="http://www.w3.org/1999/xlink">
<title>rspd-reposition-desktop</title>
<desc>Created using Figma</desc>
<g id="Canvas" transform="translate(13230 15539)">
<clipPath id="clip-0" clip-rule="evenodd">
<path d="M -13230 -15539L -12078 -15539L -12078 -14891L -13230 -14891L -13230 -15539Z" fill="#FFFFFF"/>
</clipPath>
<g id="rspd-reposition-desktop" clip-path="url(#clip-0)">
<path d="M -13230 -15539L -12078 -15539L -12078 -14891L -13230 -14891L -13230 -15539Z" fill="#243A5E"/>
<g id="Group 2">
<g id="Rectangle" filter="url(#filter0_dd)">
<use xlink:href="#path0_fill" transform="translate(-13102 -15475)" fill="#FFFFFF"/>
<use xlink:href="#path0_fill" transform="translate(-13102 -15475)" fill="#FFFFFF"/>
<use xlink:href="#path0_fill" transform="translate(-13102 -15475)" fill="#FFFFFF"/>
</g>
<mask id="mask0_alpha" mask-type="alpha">
<g id="Rectangle">
<use xlink:href="#path1_fill" transform="translate(-13102 -15475)" fill="#FFFFFF"/>
</g>
</mask>
<g id="Rectangle" mask="url(#mask0_alpha)">
<use xlink:href="#path2_fill" transform="translate(-12502 -15484)" fill="#DFE9F0"/>
</g>
</g>
<g id="Top nav">
<use xlink:href="#path3_fill" transform="translate(-12837 -15227)" fill="#243A5E"/>
</g>
<g id="Top nav">
<use xlink:href="#path4_fill" transform="translate(-12389 -15227)" fill="#243A5E"/>
</g>
<g id="Elevation helps you">
<use xlink:href="#path5_fill" transform="translate(-13206 -15013)" fill="#EAEAEA"/>
</g>
</g>
</g>
<defs>
<filter id="filter0_dd" filterUnits="userSpaceOnUse" x="-13122" y="-15495" width="936" height="560" color-interpolation-filters="sRGB">
<feFlood flood-opacity="0" result="BackgroundImageFix"/>
<feColorMatrix in="SourceAlpha" type="matrix" values="0 0 0 0 0 0 0 0 0 0 0 0 0 0 0 0 0 0 255 0"/>
<feOffset dx="3" dy="3"/>
<feGaussianBlur stdDeviation="2.5"/>
<feColorMatrix type="matrix" values="0 0 0 0 0.054902 0 0 0 0 0.396078 0 0 0 0 0.686275 0 0 0 1 0"/>
<feBlend mode="normal" in2="BackgroundImageFix" result="effect1_dropShadow"/>
<feColorMatrix in="SourceAlpha" type="matrix" values="0 0 0 0 0 0 0 0 0 0 0 0 0 0 0 0 0 0 255 0"/>
<feOffset dx="0" dy="0"/>
<feGaussianBlur stdDeviation="10"/>
<feColorMatrix type="matrix" values="0 0 0 0 0.095 0 0 0 0 0.153793 0 0 0 0 0.25 0 0 0 1 0"/>
<feBlend mode="normal" in2="effect1_dropShadow" result="effect2_dropShadow"/>
<feBlend mode="normal" in="SourceGraphic" in2="effect2_dropShadow" result="shape"/>
</filter>
<path id="path0_fill" d="M 0 3C 0 1.34315 1.17525 0 2.625 0L 893.375 0C 894.825 0 896 1.34315 896 3L 896 517C 896 518.657 894.825 520 893.375 520L 2.625 520C 1.17525 520 0 518.657 0 517L 0 3Z"/>
<path id="path1_fill" d="M 0 0L 896 0L 896 520L 0 520L 0 0Z"/>
<path id="path2_fill" d="M 0 0L 362 0L 362 529L 0 529L 0 0Z"/>
<path id="path3_fill" d="M 44.6387 30L 39.8262 30L 38.4316 25.6387L 31.459 25.6387L 30.0781 30L 25.293 30L 32.4297 10.3945L 37.666 10.3945L 44.6387 30ZM 37.4199 22.248L 35.3145 15.6582C 35.1595 15.166 35.0501 14.5781 34.9863 13.8945L 34.877 13.8945C 34.8314 14.4688 34.7174 15.0384 34.5352 15.6035L 32.4023 22.248L 37.4199 22.248Z"/>
<path id="path4_fill" d="M 28.2598 30L 28.2598 10.3945L 35.3965 10.3945C 37.584 10.3945 39.2656 10.7956 40.4414 11.5977C 41.6172 12.3997 42.2051 13.5299 42.2051 14.9883C 42.2051 16.0456 41.8451 16.9707 41.125 17.7637C 40.4141 18.5566 39.5026 19.1081 38.3906 19.418L 38.3906 19.4727C 39.7852 19.6458 40.8971 20.1608 41.7266 21.0176C 42.5651 21.8743 42.9844 22.918 42.9844 24.1484C 42.9844 25.944 42.3418 27.3704 41.0566 28.4277C 39.7715 29.4759 38.0169 30 35.793 30L 28.2598 30ZM 32.6758 13.6484L 32.6758 18.2969L 34.6172 18.2969C 35.5286 18.2969 36.2441 18.0781 36.7637 17.6406C 37.2923 17.194 37.5566 16.5833 37.5566 15.8086C 37.5566 14.3685 36.4811 13.6484 34.3301 13.6484L 32.6758 13.6484ZM 32.6758 21.5781L 32.6758 26.7461L 35.0684 26.7461C 36.0892 26.7461 36.8867 26.5091 37.4609 26.0352C 38.0443 25.5612 38.3359 24.9141 38.3359 24.0938C 38.3359 23.3099 38.0488 22.6947 37.4746 22.248C 36.9095 21.8014 36.1165 21.5781 35.0957 21.5781L 32.6758 21.5781Z"/>
<path id="path5_fill" d="M 16.1016 70.4648L 6.25781 70.4648L 6.25781 79.1836L 15.3633 79.1836L 15.3633 81.8379L 6.25781 81.8379L 6.25781 93L 3.30469 93L 3.30469 67.793L 16.1016 67.793L 16.1016 70.4648ZM 23.8359 83.4727L 23.8359 93L 20.8828 93L 20.8828 67.793L 27.8086 67.793C 30.5039 67.793 32.5898 68.4492 34.0664 69.7617C 35.5547 71.0742 36.2988 72.9258 36.2988 75.3164C 36.2988 77.707 35.4727 79.6641 33.8203 81.1875C 32.1797 82.7109 29.959 83.4727 27.1582 83.4727L 23.8359 83.4727ZM 23.8359 70.4648L 23.8359 80.8008L 26.9297 80.8008C 28.9688 80.8008 30.5215 80.3379 31.5879 79.4121C 32.666 78.4746 33.2051 77.1563 33.2051 75.457C 33.2051 72.1289 31.2363 70.4648 27.2988 70.4648L 23.8359 70.4648ZM 51.2227 93.4219C 47.6484 93.4219 44.7832 92.2441 42.627 89.8887C 40.4824 87.5332 39.4102 84.4687 39.4102 80.6953C 39.4102 76.6406 40.5059 73.4063 42.6973 70.9922C 44.8887 68.5781 47.8711 67.3711 51.6445 67.3711C 55.125 67.3711 57.9258 68.543 60.0469 70.8867C 62.1797 73.2305 63.2461 76.2949 63.2461 80.0801C 63.2461 84.1934 62.1562 87.4453 59.9766 89.8359C 57.7969 92.2266 54.8789 93.4219 51.2227 93.4219ZM 51.4336 70.043C 48.7852 70.043 46.6348 70.998 44.9824 72.9082C 43.3301 74.8184 42.5039 77.3262 42.5039 80.4316C 42.5039 83.5371 43.3066 86.0391 44.9121 87.9375C 46.5293 89.8242 48.6328 90.7676 51.2227 90.7676C 53.9883 90.7676 56.168 89.8652 57.7617 88.0605C 59.3555 86.2559 60.1523 83.7305 60.1523 80.4844C 60.1523 77.1563 59.3789 74.584 57.832 72.7676C 56.2852 70.9512 54.1523 70.043 51.4336 70.043ZM 96.9258 91.2773C 94.3945 92.707 91.582 93.4219 88.4883 93.4219C 84.8906 93.4219 81.9785 92.2617 79.752 89.9414C 77.5371 87.6211 76.4297 84.5508 76.4297 80.7305C 76.4297 76.8281 77.6602 73.6289 80.1211 71.1328C 82.5937 68.625 85.7227 67.3711 89.5078 67.3711C 92.25 67.3711 94.5527 67.8164 96.416 68.707L 96.416 71.9766C 94.377 70.6875 91.9629 70.043 89.1738 70.043C 86.3496 70.043 84.0352 71.0156 82.2305 72.9609C 80.4258 74.9062 79.5234 77.4258 79.5234 80.5195C 79.5234 83.707 80.3613 86.2148 82.0371 88.043C 83.7129 89.8594 85.9863 90.7676 88.8574 90.7676C 90.8262 90.7676 92.5312 90.375 93.9727 89.5898L 93.9727 82.5234L 88.4531 82.5234L 88.4531 79.8516L 96.9258 79.8516L 96.9258 91.2773ZM 105.75 93L 102.797 93L 102.797 67.793L 105.75 67.793L 105.75 93ZM 125.191 70.4648L 115.348 70.4648L 115.348 79.1836L 124.453 79.1836L 124.453 81.8379L 115.348 81.8379L 115.348 93L 112.395 93L 112.395 67.793L 125.191 67.793L 125.191 70.4648Z"/>
</defs>
</svg>
