<svg width="1152" height="338" viewBox="0 0 1152 338" version="1.1" xmlns="http://www.w3.org/2000/svg" xmlns:xlink="http://www.w3.org/1999/xlink">
<title>screensizes-breakpoints</title>
<desc>Created using Figma</desc>
<g id="Canvas" transform="translate(-7616 6778)">
<clipPath id="clip-0" clip-rule="evenodd">
<path d="M 7616 -6778L 8768 -6778L 8768 -6440L 7616 -6440L 7616 -6778Z" fill="#FFFFFF"/>
</clipPath>
<g id="screensizes-breakpoints" clip-path="url(#clip-0)">
<path d="M 7616 -6778L 8768 -6778L 8768 -6440L 7616 -6440L 7616 -6778Z" fill="#FFFFFF"/>
<g id="Rectangle 5.32">
<mask id="mask0_outline_ins">
<use xlink:href="#path0_fill" fill="white" transform="translate(7680 -6609)"/>
</mask>
<g mask="url(#mask0_outline_ins)">
<use xlink:href="#path1_stroke_2x" transform="translate(7680 -6609)" fill="#243A5E"/>
</g>
</g>
<g id="Rectangle 5.33">
<use xlink:href="#path2_fill" transform="translate(7684 -6605)" fill="#50E6FF"/>
<mask id="mask1_outline_ins">
<use xlink:href="#path2_fill" fill="white" transform="translate(7684 -6605)"/>
</mask>
<g mask="url(#mask1_outline_ins)">
<use xlink:href="#path3_stroke_2x" transform="translate(7684 -6605)" fill="#243A5E"/>
</g>
</g>
<g id="Rectangle 5.34">
<mask id="mask2_outline_ins">
<use xlink:href="#path4_fill" fill="white" transform="translate(7728 -6625)"/>
</mask>
<g mask="url(#mask2_outline_ins)">
<use xlink:href="#path5_stroke_2x" transform="translate(7728 -6625)" fill="#243A5E"/>
</g>
</g>
<g id="Rectangle 5.35">
<use xlink:href="#path6_fill" transform="translate(7731.56 -6621)" fill="#50E6FF"/>
<mask id="mask3_outline_ins">
<use xlink:href="#path6_fill" fill="white" transform="translate(7731.56 -6621)"/>
</mask>
<g mask="url(#mask3_outline_ins)">
<use xlink:href="#path7_stroke_2x" transform="translate(7731.56 -6621)" fill="#243A5E"/>
</g>
</g>
<g id="Rectangle 5.36">
<mask id="mask4_outline_ins">
<use xlink:href="#path8_fill" fill="white" transform="translate(7912 -6649)"/>
</mask>
<g mask="url(#mask4_outline_ins)">
<use xlink:href="#path9_stroke_2x" transform="translate(7912 -6649)" fill="#243A5E"/>
</g>
</g>
<g id="Rectangle 5.37">
<use xlink:href="#path10_fill" transform="translate(7916.07 -6645)" fill="#50E6FF"/>
<mask id="mask5_outline_ins">
<use xlink:href="#path10_fill" fill="white" transform="translate(7916.07 -6645)"/>
</mask>
<g mask="url(#mask5_outline_ins)">
<use xlink:href="#path11_stroke_2x" transform="translate(7916.07 -6645)" fill="#243A5E"/>
</g>
</g>
<g id="Rectangle 5.38">
<use xlink:href="#path12_fill" transform="translate(7992 -6681)" fill="#FFFFFF"/>
<mask id="mask6_outline_ins">
<use xlink:href="#path12_fill" fill="white" transform="translate(7992 -6681)"/>
</mask>
<g mask="url(#mask6_outline_ins)">
<use xlink:href="#path13_stroke_2x" transform="translate(7992 -6681)" fill="#243A5E"/>
</g>
</g>
<g id="Rectangle 5.39">
<use xlink:href="#path14_fill" transform="translate(7997 -6676)" fill="#50E6FF"/>
<mask id="mask7_outline_ins">
<use xlink:href="#path14_fill" fill="white" transform="translate(7997 -6676)"/>
</mask>
<g mask="url(#mask7_outline_ins)">
<use xlink:href="#path15_stroke_2x" transform="translate(7997 -6676)" fill="#243A5E"/>
</g>
</g>
<g id="Rectangle 5.40">
<use xlink:href="#path16_fill" transform="translate(8176 -6721)" fill="#FFFFFF"/>
<mask id="mask8_outline_ins">
<use xlink:href="#path16_fill" fill="white" transform="translate(8176 -6721)"/>
</mask>
<g mask="url(#mask8_outline_ins)">
<use xlink:href="#path17_stroke_2x" transform="translate(8176 -6721)" fill="#243A5E"/>
</g>
</g>
<g id="Rectangle 5.41">
<use xlink:href="#path18_fill" transform="translate(8182 -6716)" fill="#50E6FF"/>
<mask id="mask9_outline_ins">
<use xlink:href="#path18_fill" fill="white" transform="translate(8182 -6716)"/>
</mask>
<g mask="url(#mask9_outline_ins)">
<use xlink:href="#path19_stroke_2x" transform="translate(8182 -6716)" fill="#243A5E"/>
</g>
</g>
<g id="Rectangle 5.42">
<use xlink:href="#path20_fill" transform="translate(8472 -6721)" fill="#FFFFFF"/>
<mask id="mask10_outline_ins">
<use xlink:href="#path20_fill" fill="white" transform="translate(8472 -6721)"/>
</mask>
<g mask="url(#mask10_outline_ins)">
<use xlink:href="#path21_stroke_2x" transform="translate(8472 -6721)" fill="#243A5E"/>
</g>
</g>
<g id="Rectangle 5.43">
<use xlink:href="#path22_fill" transform="translate(8480 -6713)" fill="#50E6FF"/>
<mask id="mask11_outline_ins">
<use xlink:href="#path22_fill" fill="white" transform="translate(8480 -6713)"/>
</mask>
<g mask="url(#mask11_outline_ins)">
<use xlink:href="#path23_stroke_2x" transform="translate(8480 -6713)" fill="#243A5E"/>
</g>
</g>
<g id="Rectangle 5.44">
<mask id="mask12_outline_ins">
<use xlink:href="#path24_fill" fill="white" transform="translate(7784 -6633)"/>
</mask>
<g mask="url(#mask12_outline_ins)">
<use xlink:href="#path25_stroke_2x" transform="translate(7784 -6633)" fill="#243A5E"/>
</g>
</g>
<g id="Rectangle 5.45">
<use xlink:href="#path26_fill" transform="translate(7788 -6629)" fill="#50E6FF"/>
<mask id="mask13_outline_ins">
<use xlink:href="#path26_fill" fill="white" transform="translate(7788 -6629)"/>
</mask>
<g mask="url(#mask13_outline_ins)">
<use xlink:href="#path27_stroke_2x" transform="translate(7788 -6629)" fill="#243A5E"/>
</g>
</g>
<g id="Rectangle 6.2">
<mask id="mask14_outline_ins">
<use xlink:href="#path28_fill" fill="white" transform="translate(8052 -6578)"/>
</mask>
<g mask="url(#mask14_outline_ins)">
<use xlink:href="#path29_stroke_2x" transform="translate(8052 -6578)" fill="#243A5E"/>
</g>
</g>
<g id="Rectangle 7.7">
<mask id="mask15_outline_ins">
<use xlink:href="#path30_fill" fill="white" transform="translate(8020 -6558)"/>
</mask>
<g mask="url(#mask15_outline_ins)">
<use xlink:href="#path31_stroke_2x" transform="translate(8020 -6558)" fill="#243A5E"/>
</g>
</g>
<g id="Rectangle 7.8">
<mask id="mask16_outline_ins">
<use xlink:href="#path32_fill" fill="white" transform="translate(8232 -6561)"/>
</mask>
<g mask="url(#mask16_outline_ins)">
<use xlink:href="#path33_stroke_2x" transform="translate(8232 -6561)" fill="#243A5E"/>
</g>
</g>
<g id="Rectangle 7.9">
<use xlink:href="#path34_fill" transform="translate(8356 -6561)" fill="#FFFFFF"/>
<mask id="mask17_outline_ins">
<use xlink:href="#path34_fill" fill="white" transform="translate(8356 -6561)"/>
</mask>
<g mask="url(#mask17_outline_ins)">
<use xlink:href="#path35_stroke_2x" transform="translate(8356 -6561)" fill="#243A5E"/>
</g>
</g>
<g id="Rectangle 8.2">
<mask id="mask18_outline_ins">
<use xlink:href="#path36_fill" fill="white" transform="translate(8272 -6570)"/>
</mask>
<g mask="url(#mask18_outline_ins)">
<use xlink:href="#path37_stroke_2x" transform="translate(8272 -6570)" fill="#243A5E"/>
</g>
</g>
<g id="Rectangle 9.2">
<use xlink:href="#path38_fill" transform="translate(8352 -6585)" fill="#FFFFFF"/>
<mask id="mask19_outline_ins">
<use xlink:href="#path38_fill" fill="white" transform="translate(8352 -6585)"/>
</mask>
<g mask="url(#mask19_outline_ins)">
<use xlink:href="#path39_stroke_2x" transform="translate(8352 -6585)" fill="#243A5E"/>
</g>
</g>
<g id="Page structure">
<use xlink:href="#path40_fill" transform="translate(7624 -6520)" fill="#243A5E"/>
</g>
<g id="Page structure">
<use xlink:href="#path41_fill" transform="translate(7910.56 -6520.8)" fill="#243A5E"/>
</g>
<g id="Page structure">
<use xlink:href="#path42_fill" transform="translate(8176 -6520.8)" fill="#243A5E"/>
</g>
<g id="Rectangle 10.3">
<use xlink:href="#path43_fill" transform="translate(7632 -6577)" fill="#FFFFFF"/>
<mask id="mask20_outline_ins">
<use xlink:href="#path43_fill" fill="white" transform="translate(7632 -6577)"/>
</mask>
<g mask="url(#mask20_outline_ins)">
<use xlink:href="#path44_stroke_2x" transform="translate(7632 -6577)" fill="#243A5E"/>
</g>
</g>
<g id="Rectangle 11.2">
<use xlink:href="#path45_fill" transform="translate(7636 -6573)" fill="#50E6FF"/>
<mask id="mask21_outline_ins">
<use xlink:href="#path45_fill" fill="white" transform="translate(7636 -6573)"/>
</mask>
<g mask="url(#mask21_outline_ins)">
<use xlink:href="#path46_stroke_2x" transform="translate(7636 -6573)" fill="#243A5E"/>
</g>
</g>
<g id="Rectangle 12.6">
<use xlink:href="#path47_fill" transform="translate(7624 -6571)" fill="#FFFFFF"/>
<mask id="mask22_outline_ins">
<use xlink:href="#path47_fill" fill="white" transform="translate(7624 -6571)"/>
</mask>
<g mask="url(#mask22_outline_ins)">
<use xlink:href="#path48_stroke_2x" transform="translate(7624 -6571)" fill="#243A5E"/>
</g>
</g>
<g id="Rectangle 12.7">
<use xlink:href="#path47_fill" transform="translate(7655 -6571)" fill="#FFFFFF"/>
<mask id="mask23_outline_ins">
<use xlink:href="#path47_fill" fill="white" transform="translate(7655 -6571)"/>
</mask>
<g mask="url(#mask23_outline_ins)">
<use xlink:href="#path48_stroke_2x" transform="translate(7655 -6571)" fill="#243A5E"/>
</g>
</g>
<g id="Line">
<use xlink:href="#path49_stroke" transform="matrix(1 -2.44929e-16 2.44929e-16 1 7684 -6510)" fill="#243A5E"/>
</g>
<g id="Rectangle 13">
<use xlink:href="#path50_stroke" transform="matrix(0.707107 0.707107 -0.707107 0.707107 7898.66 -6516)" fill="#243A5E"/>
</g>
<g id="Line">
<use xlink:href="#path51_stroke" transform="translate(7992 -6510)" fill="#243A5E"/>
</g>
<g id="Rectangle 13.1">
<use xlink:href="#path50_stroke" transform="matrix(0.707107 0.707107 -0.707107 0.707107 8162.66 -6516)" fill="#243A5E"/>
</g>
<g id="Line">
<use xlink:href="#path52_stroke" transform="translate(8224 -6510)" fill="#243A5E"/>
</g>
<g id="Rectangle 13.2">
<use xlink:href="#path50_stroke" transform="matrix(0.707107 0.707107 -0.707107 0.707107 8754.66 -6516)" fill="#243A5E"/>
</g>
</g>
</g>
<defs>
<path id="path0_fill" d="M 0 0L 32 0L 32 56L 0 56L 0 0Z"/>
<path id="path1_stroke_2x" d="M 0 0L 0 -1L -1 -1L -1 0L 0 0ZM 32 0L 33 0L 33 -1L 32 -1L 32 0ZM 32 56L 32 57L 33 57L 33 56L 32 56ZM 0 56L -1 56L -1 57L 0 57L 0 56ZM 0 1L 32 1L 32 -1L 0 -1L 0 1ZM 31 0L 31 56L 33 56L 33 0L 31 0ZM 32 55L 0 55L 0 57L 32 57L 32 55ZM 1 56L 1 0L -1 0L -1 56L 1 56Z"/>
<path id="path2_fill" d="M 0 0L 24 0L 24 48L 0 48L 0 0Z"/>
<path id="path3_stroke_2x" d="M 0 0L 0 -1L -1 -1L -1 0L 0 0ZM 24 0L 25 0L 25 -1L 24 -1L 24 0ZM 24 48L 24 49L 25 49L 25 48L 24 48ZM 0 48L -1 48L -1 49L 0 49L 0 48ZM 0 1L 24 1L 24 -1L 0 -1L 0 1ZM 23 0L 23 48L 25 48L 25 0L 23 0ZM 24 47L 0 47L 0 49L 24 49L 24 47ZM 1 48L 1 0L -1 0L -1 48L 1 48Z"/>
<path id="path4_fill" d="M 0 0L 40 0L 40 72L 0 72L 0 0Z"/>
<path id="path5_stroke_2x" d="M 0 0L 0 -1L -1 -1L -1 0L 0 0ZM 40 0L 41 0L 41 -1L 40 -1L 40 0ZM 40 72L 40 73L 41 73L 41 72L 40 72ZM 0 72L -1 72L -1 73L 0 73L 0 72ZM 0 1L 40 1L 40 -1L 0 -1L 0 1ZM 39 0L 39 72L 41 72L 41 0L 39 0ZM 40 71L 0 71L 0 73L 40 73L 40 71ZM 1 72L 1 0L -1 0L -1 72L 1 72Z"/>
<path id="path6_fill" d="M 0 0L 32.8889 0L 32.8889 64L 0 64L 0 0Z"/>
<path id="path7_stroke_2x" d="M 0 0L 0 -1L -1 -1L -1 0L 0 0ZM 32.8889 0L 33.8889 0L 33.8889 -1L 32.8889 -1L 32.8889 0ZM 32.8889 64L 32.8889 65L 33.8889 65L 33.8889 64L 32.8889 64ZM 0 64L -1 64L -1 65L 0 65L 0 64ZM 0 1L 32.8889 1L 32.8889 -1L 0 -1L 0 1ZM 31.8889 0L 31.8889 64L 33.8889 64L 33.8889 0L 31.8889 0ZM 32.8889 63L 0 63L 0 65L 32.8889 65L 32.8889 63ZM 1 64L 1 0L -1 0L -1 64L 1 64Z"/>
<path id="path8_fill" d="M 0 0L 56 0L 56 96L 0 96L 0 0Z"/>
<path id="path9_stroke_2x" d="M 0 0L 0 -1L -1 -1L -1 0L 0 0ZM 56 0L 57 0L 57 -1L 56 -1L 56 0ZM 56 96L 56 97L 57 97L 57 96L 56 96ZM 0 96L -1 96L -1 97L 0 97L 0 96ZM 0 1L 56 1L 56 -1L 0 -1L 0 1ZM 55 0L 55 96L 57 96L 57 0L 55 0ZM 56 95L 0 95L 0 97L 56 97L 56 95ZM 1 96L 1 0L -1 0L -1 96L 1 96Z"/>
<path id="path10_fill" d="M 0 0L 47.8545 0L 47.8545 88L 0 88L 0 0Z"/>
<path id="path11_stroke_2x" d="M 0 0L 0 -1L -1 -1L -1 0L 0 0ZM 47.8545 0L 48.8545 0L 48.8545 -1L 47.8545 -1L 47.8545 0ZM 47.8545 88L 47.8545 89L 48.8545 89L 48.8545 88L 47.8545 88ZM 0 88L -1 88L -1 89L 0 89L 0 88ZM 0 1L 47.8545 1L 47.8545 -1L 0 -1L 0 1ZM 46.8545 0L 46.8545 88L 48.8545 88L 48.8545 0L 46.8545 0ZM 47.8545 87L 0 87L 0 89L 47.8545 89L 47.8545 87ZM 1 88L 1 0L -1 0L -1 88L 1 88Z"/>
<path id="path12_fill" d="M 0 0L 160 0L 160 104L 0 104L 0 0Z"/>
<path id="path13_stroke_2x" d="M 0 0L 0 -1L -1 -1L -1 0L 0 0ZM 160 0L 161 0L 161 -1L 160 -1L 160 0ZM 160 104L 160 105L 161 105L 161 104L 160 104ZM 0 104L -1 104L -1 105L 0 105L 0 104ZM 0 1L 160 1L 160 -1L 0 -1L 0 1ZM 159 0L 159 104L 161 104L 161 0L 159 0ZM 160 103L 0 103L 0 105L 160 105L 160 103ZM 1 104L 1 0L -1 0L -1 104L 1 104Z"/>
<path id="path14_fill" d="M 0 0L 150 0L 150 94L 0 94L 0 0Z"/>
<path id="path15_stroke_2x" d="M 0 0L 0 -1L -1 -1L -1 0L 0 0ZM 150 0L 151 0L 151 -1L 150 -1L 150 0ZM 150 94L 150 95L 151 95L 151 94L 150 94ZM 0 94L -1 94L -1 95L 0 95L 0 94ZM 0 1L 150 1L 150 -1L 0 -1L 0 1ZM 149 0L 149 94L 151 94L 151 0L 149 0ZM 150 93L 0 93L 0 95L 150 95L 150 93ZM 1 94L 1 0L -1 0L -1 94L 1 94Z"/>
<path id="path16_fill" d="M 0 0L 224 0L 224 152L 0 152L 0 0Z"/>
<path id="path17_stroke_2x" d="M 0 0L 0 -1L -1 -1L -1 0L 0 0ZM 224 0L 225 0L 225 -1L 224 -1L 224 0ZM 224 152L 224 153L 225 153L 225 152L 224 152ZM 0 152L -1 152L -1 153L 0 153L 0 152ZM 0 1L 224 1L 224 -1L 0 -1L 0 1ZM 223 0L 223 152L 225 152L 225 0L 223 0ZM 224 151L 0 151L 0 153L 224 153L 224 151ZM 1 152L 1 0L -1 0L -1 152L 1 152Z"/>
<path id="path18_fill" d="M 0 0L 212 0L 212 141L 0 141L 0 0Z"/>
<path id="path19_stroke_2x" d="M 0 0L 0 -1L -1 -1L -1 0L 0 0ZM 212 0L 213 0L 213 -1L 212 -1L 212 0ZM 212 141L 212 142L 213 142L 213 141L 212 141ZM 0 141L -1 141L -1 142L 0 142L 0 141ZM 0 1L 212 1L 212 -1L 0 -1L 0 1ZM 211 0L 211 141L 213 141L 213 0L 211 0ZM 212 140L 0 140L 0 142L 212 142L 212 140ZM 1 141L 1 0L -1 0L -1 141L 1 141Z"/>
<path id="path20_fill" d="M 0 0L 288 0L 288 168L 0 168L 0 0Z"/>
<path id="path21_stroke_2x" d="M 0 0L 0 -1L -1 -1L -1 0L 0 0ZM 288 0L 289 0L 289 -1L 288 -1L 288 0ZM 288 168L 288 169L 289 169L 289 168L 288 168ZM 0 168L -1 168L -1 169L 0 169L 0 168ZM 0 1L 288 1L 288 -1L 0 -1L 0 1ZM 287 0L 287 168L 289 168L 289 0L 287 0ZM 288 167L 0 167L 0 169L 288 169L 288 167ZM 1 168L 1 0L -1 0L -1 168L 1 168Z"/>
<path id="path22_fill" d="M 0 0L 272 0L 272 152L 0 152L 0 0Z"/>
<path id="path23_stroke_2x" d="M 0 0L 0 -1L -1 -1L -1 0L 0 0ZM 272 0L 273 0L 273 -1L 272 -1L 272 0ZM 272 152L 272 153L 273 153L 273 152L 272 152ZM 0 152L -1 152L -1 153L 0 153L 0 152ZM 0 1L 272 1L 272 -1L 0 -1L 0 1ZM 271 0L 271 152L 273 152L 273 0L 271 0ZM 272 151L 0 151L 0 153L 272 153L 272 151ZM 1 152L 1 0L -1 0L -1 152L 1 152Z"/>
<path id="path24_fill" d="M 0 0L 104 0L 104 80L 0 80L 0 0Z"/>
<path id="path25_stroke_2x" d="M 0 0L 0 -1L -1 -1L -1 0L 0 0ZM 104 0L 105 0L 105 -1L 104 -1L 104 0ZM 104 80L 104 81L 105 81L 105 80L 104 80ZM 0 80L -1 80L -1 81L 0 81L 0 80ZM 0 1L 104 1L 104 -1L 0 -1L 0 1ZM 103 0L 103 80L 105 80L 105 0L 103 0ZM 104 79L 0 79L 0 81L 104 81L 104 79ZM 1 80L 1 0L -1 0L -1 80L 1 80Z"/>
<path id="path26_fill" d="M 0 0L 96 0L 96 72L 0 72L 0 0Z"/>
<path id="path27_stroke_2x" d="M 0 0L 0 -1L -1 -1L -1 0L 0 0ZM 96 0L 97 0L 97 -1L 96 -1L 96 0ZM 96 72L 96 73L 97 73L 97 72L 96 72ZM 0 72L -1 72L -1 73L 0 73L 0 72ZM 0 1L 96 1L 96 -1L 0 -1L 0 1ZM 95 0L 95 72L 97 72L 97 0L 95 0ZM 96 71L 0 71L 0 73L 96 73L 96 71ZM 1 72L 1 0L -1 0L -1 72L 1 72Z"/>
<path id="path28_fill" d="M 3.41667 0L 37.5833 0L 41 21L 0 21L 3.41667 0Z"/>
<path id="path29_stroke_2x" d="M 3.41667 0L 3.41667 -1L 2.56622 -1L 2.42964 -0.160587L 3.41667 0ZM 37.5833 0L 38.5704 -0.160587L 38.4338 -1L 37.5833 -1L 37.5833 0ZM 41 21L 41 22L 42.1758 22L 41.987 20.8394L 41 21ZM 0 21L -0.987022 20.8394L -1.17585 22L 0 22L 0 21ZM 3.41667 1L 37.5833 1L 37.5833 -1L 3.41667 -1L 3.41667 1ZM 36.5963 0.160587L 40.013 21.1606L 41.987 20.8394L 38.5704 -0.160587L 36.5963 0.160587ZM 41 20L 0 20L 0 22L 41 22L 41 20ZM 0.987022 21.1606L 4.40369 0.160587L 2.42964 -0.160587L -0.987022 20.8394L 0.987022 21.1606Z"/>
<path id="path30_fill" d="M 0 0L 105 0L 105 5L 0 5L 0 0Z"/>
<path id="path31_stroke_2x" d="M 0 0L 0 -1L -1 -1L -1 0L 0 0ZM 105 0L 106 0L 106 -1L 105 -1L 105 0ZM 105 5L 105 6L 106 6L 106 5L 105 5ZM 0 5L -1 5L -1 6L 0 6L 0 5ZM 0 1L 105 1L 105 -1L 0 -1L 0 1ZM 104 0L 104 5L 106 5L 106 0L 104 0ZM 105 4L 0 4L 0 6L 105 6L 105 4ZM 1 5L 1 0L -1 0L -1 5L 1 5Z"/>
<path id="path32_fill" d="M 0 0L 112 0L 112 8L 0 8L 0 0Z"/>
<path id="path33_stroke_2x" d="M 0 0L 0 -1L -1 -1L -1 0L 0 0ZM 112 0L 113 0L 113 -1L 112 -1L 112 0ZM 112 8L 112 9L 113 9L 113 8L 112 8ZM 0 8L -1 8L -1 9L 0 9L 0 8ZM 0 1L 112 1L 112 -1L 0 -1L 0 1ZM 111 0L 111 8L 113 8L 113 0L 111 0ZM 112 7L 0 7L 0 9L 112 9L 112 7ZM 1 8L 1 0L -1 0L -1 8L 1 8Z"/>
<path id="path34_fill" d="M 0 0L 88 0L 88 8L 0 8L 0 0Z"/>
<path id="path35_stroke_2x" d="M 0 0L 0 -1L -1 -1L -1 0L 0 0ZM 88 0L 89 0L 89 -1L 88 -1L 88 0ZM 88 8L 88 9L 89 9L 89 8L 88 8ZM 0 8L -1 8L -1 9L 0 9L 0 8ZM 0 1L 88 1L 88 -1L 0 -1L 0 1ZM 87 0L 87 8L 89 8L 89 0L 87 0ZM 88 7L 0 7L 0 9L 88 9L 88 7ZM 1 8L 1 0L -1 0L -1 8L 1 8Z"/>
<path id="path36_fill" d="M 0 0L 32 0L 32 10L 0 10L 0 0Z"/>
<path id="path37_stroke_2x" d="M 0 0L 0 -1L -1 -1L -1 0L 0 0ZM 32 0L 33 0L 33 -1L 32 -1L 32 0ZM 32 10L 32 11L 33 11L 33 10L 32 10ZM 0 10L -1 10L -1 11L 0 11L 0 10ZM 0 1L 32 1L 32 -1L 0 -1L 0 1ZM 31 0L 31 10L 33 10L 33 0L 31 0ZM 32 9L 0 9L 0 11L 32 11L 32 9ZM 1 10L 1 0L -1 0L -1 10L 1 10Z"/>
<path id="path38_fill" d="M 0 0L 96 0L 96 25L 0 25L 0 0Z"/>
<path id="path39_stroke_2x" d="M 0 0L 0 -1L -1 -1L -1 0L 0 0ZM 96 0L 97 0L 97 -1L 96 -1L 96 0ZM 96 25L 96 26L 97 26L 97 25L 96 25ZM 0 25L -1 25L -1 26L 0 26L 0 25ZM 0 1L 96 1L 96 -1L 0 -1L 0 1ZM 95 0L 95 25L 97 25L 97 0L 95 0ZM 96 24L 0 24L 0 26L 96 26L 96 24ZM 1 25L 1 0L -1 0L -1 25L 1 25Z"/>
<path id="path40_fill" d="M 3.97168 15.1709C 1.63835 15.1709 0.47168 13.5326 0.47168 10.2559C 0.47168 8.55599 0.786133 7.26172 1.41504 6.37305C 2.0485 5.47982 2.96452 5.0332 4.16309 5.0332C 6.44173 5.0332 7.58105 6.69889 7.58105 10.0303C 7.58105 11.6891 7.26888 12.9606 6.64453 13.8447C 6.02474 14.7288 5.13379 15.1709 3.97168 15.1709ZM 4.06738 6.68066C 3.13314 6.68066 2.66602 7.85417 2.66602 10.2012C 2.66602 12.4115 3.12402 13.5166 4.04004 13.5166C 4.93327 13.5166 5.37988 12.3773 5.37988 10.0986C 5.37988 7.81999 4.94238 6.68066 4.06738 6.68066ZM 17.0625 14.918C 16.7435 15.0866 16.2627 15.1709 15.6201 15.1709C 14.098 15.1709 13.3369 14.3802 13.3369 12.7988L 13.3369 9.59277L 12.2021 9.59277L 12.2021 8L 13.3369 8L 13.3369 6.48926L 15.4902 5.87402L 15.4902 8L 17.0625 8L 17.0625 9.59277L 15.4902 9.59277L 15.4902 12.4229C 15.4902 13.152 15.7796 13.5166 16.3584 13.5166C 16.5863 13.5166 16.821 13.4505 17.0625 13.3184L 17.0625 14.918ZM 21.5674 15.1709C 20.4007 15.1709 19.4824 14.8451 18.8125 14.1934C 18.1471 13.5371 17.8145 12.6484 17.8145 11.5273C 17.8145 10.3698 18.1608 9.46517 18.8535 8.81348C 19.5462 8.15723 20.4827 7.8291 21.6631 7.8291C 22.8252 7.8291 23.7367 8.15723 24.3975 8.81348C 25.0583 9.46517 25.3887 10.3288 25.3887 11.4043C 25.3887 12.5664 25.0469 13.4847 24.3633 14.1592C 23.6842 14.8337 22.7523 15.1709 21.5674 15.1709ZM 21.6221 9.4834C 21.1117 9.4834 20.7152 9.65885 20.4326 10.0098C 20.1501 10.3607 20.0088 10.8574 20.0088 11.5C 20.0088 12.8444 20.5511 13.5166 21.6357 13.5166C 22.6702 13.5166 23.1875 12.8262 23.1875 11.4453C 23.1875 10.1374 22.6657 9.4834 21.6221 9.4834ZM 37.3379 11.7393C 37.3379 12.2223 37.2536 12.6735 37.085 13.0928C 36.9163 13.512 36.6816 13.8766 36.3809 14.1865C 36.0801 14.4919 35.7223 14.7334 35.3076 14.9111C 34.8929 15.0843 34.4395 15.1709 33.9473 15.1709C 33.3958 15.1709 32.9014 15.0684 32.4639 14.8633C 32.0309 14.6582 31.6641 14.362 31.3633 13.9746C 31.0625 13.5827 30.8324 13.1042 30.6729 12.5391C 30.5133 11.974 30.4336 11.3337 30.4336 10.6182C 30.4336 9.77507 30.5361 9.01172 30.7412 8.32812C 30.9508 7.63997 31.2471 7.05208 31.6299 6.56445C 32.0173 6.07682 32.4844 5.70085 33.0312 5.43652C 33.5781 5.16764 34.1934 5.0332 34.877 5.0332C 35.6335 5.0332 36.2214 5.12207 36.6406 5.2998L 36.6406 7.10449C 36.1439 6.82194 35.6016 6.68066 35.0137 6.68066C 34.6491 6.68066 34.3187 6.7513 34.0225 6.89258C 33.7262 7.03385 33.471 7.23438 33.2568 7.49414C 33.0472 7.75391 32.8809 8.06836 32.7578 8.4375C 32.6393 8.80208 32.5755 9.20996 32.5664 9.66113L 32.6074 9.66113C 33.0723 9.01855 33.7581 8.69727 34.665 8.69727C 35.0706 8.69727 35.4375 8.77018 35.7656 8.91602C 36.0938 9.06185 36.374 9.26921 36.6064 9.53809C 36.8389 9.80241 37.0189 10.1214 37.1465 10.4951C 37.2741 10.8688 37.3379 11.2835 37.3379 11.7393ZM 35.2256 11.876C 35.2256 10.8232 34.7949 10.2969 33.9336 10.2969C 33.7376 10.2969 33.5599 10.3333 33.4004 10.4062C 33.2409 10.4792 33.1042 10.5817 32.9902 10.7139C 32.8763 10.846 32.7874 11.0033 32.7236 11.1855C 32.6644 11.3633 32.6348 11.5615 32.6348 11.7803C 32.6348 12.0218 32.6667 12.2474 32.7305 12.457C 32.7943 12.6667 32.8831 12.8512 32.9971 13.0107C 33.1156 13.1657 33.2546 13.2887 33.4141 13.3799C 33.5736 13.471 33.7513 13.5166 33.9473 13.5166C 34.1432 13.5166 34.3187 13.4779 34.4736 13.4004C 34.6331 13.3184 34.7676 13.2067 34.877 13.0654C 34.9909 12.9196 35.0775 12.7464 35.1367 12.5459C 35.196 12.3408 35.2256 12.1175 35.2256 11.876ZM 44.3105 5.19727L 44.3105 11.377L 45.4863 11.377L 45.4863 12.9902L 44.3105 12.9902L 44.3105 15L 42.3418 15L 42.3418 12.9902L 38.0693 12.9902L 38.0693 11.3018C 38.4476 10.8779 38.8395 10.4154 39.2451 9.91406C 39.6507 9.4082 40.0426 8.88867 40.4209 8.35547C 40.7992 7.82227 41.1501 7.28678 41.4736 6.74902C 41.8018 6.20671 42.0798 5.68945 42.3076 5.19727L 44.3105 5.19727ZM 40.0039 11.377L 42.3418 11.377L 42.3418 7.95215C 42.1823 8.24837 42.0091 8.54915 41.8223 8.85449C 41.6354 9.15527 41.4395 9.45378 41.2344 9.75C 41.0293 10.0417 40.8219 10.3265 40.6123 10.6045C 40.4027 10.8779 40.1999 11.1354 40.0039 11.377ZM 49.8271 15.1709C 47.4938 15.1709 46.3271 13.5326 46.3271 10.2559C 46.3271 8.55599 46.6416 7.26172 47.2705 6.37305C 47.904 5.47982 48.82 5.0332 50.0186 5.0332C 52.2972 5.0332 53.4365 6.69889 53.4365 10.0303C 53.4365 11.6891 53.1243 12.9606 52.5 13.8447C 51.8802 14.7288 50.9893 15.1709 49.8271 15.1709ZM 49.9229 6.68066C 48.9886 6.68066 48.5215 7.85417 48.5215 10.2012C 48.5215 12.4115 48.9795 13.5166 49.8955 13.5166C 50.7887 13.5166 51.2354 12.3773 51.2354 10.0986C 51.2354 7.81999 50.7979 6.68066 49.9229 6.68066Z"/>
<path id="path41_fill" d="M 7.58789 11.7393C 7.58789 12.2223 7.50358 12.6735 7.33496 13.0928C 7.16634 13.512 6.93164 13.8766 6.63086 14.1865C 6.33008 14.4919 5.97233 14.7334 5.55762 14.9111C 5.1429 15.0843 4.68945 15.1709 4.19727 15.1709C 3.64583 15.1709 3.15137 15.0684 2.71387 14.8633C 2.28092 14.6582 1.91406 14.362 1.61328 13.9746C 1.3125 13.5827 1.08236 13.1042 0.922852 12.5391C 0.763346 11.974 0.683594 11.3337 0.683594 10.6182C 0.683594 9.77507 0.786133 9.01172 0.991211 8.32812C 1.20085 7.63997 1.49707 7.05208 1.87988 6.56445C 2.26725 6.07682 2.73438 5.70085 3.28125 5.43652C 3.82812 5.16764 4.44336 5.0332 5.12695 5.0332C 5.88346 5.0332 6.47135 5.12207 6.89062 5.2998L 6.89062 7.10449C 6.39388 6.82194 5.85156 6.68066 5.26367 6.68066C 4.89909 6.68066 4.56868 6.7513 4.27246 6.89258C 3.97624 7.03385 3.72103 7.23438 3.50684 7.49414C 3.2972 7.75391 3.13086 8.06836 3.00781 8.4375C 2.88932 8.80208 2.82552 9.20996 2.81641 9.66113L 2.85742 9.66113C 3.32227 9.01855 4.00814 8.69727 4.91504 8.69727C 5.32064 8.69727 5.6875 8.77018 6.01562 8.91602C 6.34375 9.06185 6.62402 9.26921 6.85645 9.53809C 7.08887 9.80241 7.26888 10.1214 7.39648 10.4951C 7.52409 10.8688 7.58789 11.2835 7.58789 11.7393ZM 5.47559 11.876C 5.47559 10.8232 5.04492 10.2969 4.18359 10.2969C 3.98763 10.2969 3.8099 10.3333 3.65039 10.4062C 3.49089 10.4792 3.35417 10.5817 3.24023 10.7139C 3.1263 10.846 3.03743 11.0033 2.97363 11.1855C 2.91439 11.3633 2.88477 11.5615 2.88477 11.7803C 2.88477 12.0218 2.91667 12.2474 2.98047 12.457C 3.04427 12.6667 3.13314 12.8512 3.24707 13.0107C 3.36556 13.1657 3.50456 13.2887 3.66406 13.3799C 3.82357 13.471 4.0013 13.5166 4.19727 13.5166C 4.39323 13.5166 4.56868 13.4779 4.72363 13.4004C 4.88314 13.3184 5.01758 13.2067 5.12695 13.0654C 5.24089 12.9196 5.32747 12.7464 5.38672 12.5459C 5.44596 12.3408 5.47559 12.1175 5.47559 11.876ZM 14.5605 5.19727L 14.5605 11.377L 15.7363 11.377L 15.7363 12.9902L 14.5605 12.9902L 14.5605 15L 12.5918 15L 12.5918 12.9902L 8.31934 12.9902L 8.31934 11.3018C 8.69759 10.8779 9.08952 10.4154 9.49512 9.91406C 9.90072 9.4082 10.2926 8.88867 10.6709 8.35547C 11.0492 7.82227 11.4001 7.28678 11.7236 6.74902C 12.0518 6.20671 12.3298 5.68945 12.5576 5.19727L 14.5605 5.19727ZM 10.2539 11.377L 12.5918 11.377L 12.5918 7.95215C 12.4323 8.24837 12.2591 8.54915 12.0723 8.85449C 11.8854 9.15527 11.6895 9.45378 11.4844 9.75C 11.2793 10.0417 11.0719 10.3265 10.8623 10.6045C 10.6527 10.8779 10.4499 11.1354 10.2539 11.377ZM 21.793 4.97852L 21.793 15L 19.6396 15L 19.6396 7.41211C 19.5212 7.51693 19.3799 7.61719 19.2158 7.71289C 19.0563 7.80404 18.8854 7.88835 18.7031 7.96582C 18.5208 8.03874 18.3317 8.10254 18.1357 8.15723C 17.9398 8.20736 17.7461 8.24382 17.5547 8.2666L 17.5547 6.44824C 18.1152 6.28418 18.6439 6.07454 19.1406 5.81934C 19.6374 5.56413 20.0863 5.28385 20.4873 4.97852L 21.793 4.97852ZM 33.168 14.918C 32.849 15.0866 32.3682 15.1709 31.7256 15.1709C 30.2035 15.1709 29.4424 14.3802 29.4424 12.7988L 29.4424 9.59277L 28.3076 9.59277L 28.3076 8L 29.4424 8L 29.4424 6.48926L 31.5957 5.87402L 31.5957 8L 33.168 8L 33.168 9.59277L 31.5957 9.59277L 31.5957 12.4229C 31.5957 13.152 31.8851 13.5166 32.4639 13.5166C 32.6917 13.5166 32.9264 13.4505 33.168 13.3184L 33.168 14.918ZM 37.6729 15.1709C 36.5062 15.1709 35.5879 14.8451 34.918 14.1934C 34.2526 13.5371 33.9199 12.6484 33.9199 11.5273C 33.9199 10.3698 34.2663 9.46517 34.959 8.81348C 35.6517 8.15723 36.5882 7.8291 37.7686 7.8291C 38.9307 7.8291 39.8421 8.15723 40.5029 8.81348C 41.1637 9.46517 41.4941 10.3288 41.4941 11.4043C 41.4941 12.5664 41.1523 13.4847 40.4688 14.1592C 39.7897 14.8337 38.8577 15.1709 37.6729 15.1709ZM 37.7275 9.4834C 37.2171 9.4834 36.8206 9.65885 36.5381 10.0098C 36.2555 10.3607 36.1143 10.8574 36.1143 11.5C 36.1143 12.8444 36.6566 13.5166 37.7412 13.5166C 38.7757 13.5166 39.293 12.8262 39.293 11.4453C 39.293 10.1374 38.7712 9.4834 37.7275 9.4834ZM 51.543 4.97852L 51.543 15L 49.3896 15L 49.3896 7.41211C 49.2712 7.51693 49.1299 7.61719 48.9658 7.71289C 48.8063 7.80404 48.6354 7.88835 48.4531 7.96582C 48.2708 8.03874 48.0817 8.10254 47.8857 8.15723C 47.6898 8.20736 47.4961 8.24382 47.3047 8.2666L 47.3047 6.44824C 47.8652 6.28418 48.3939 6.07454 48.8906 5.81934C 49.3874 5.56413 49.8363 5.28385 50.2373 4.97852L 51.543 4.97852ZM 57.8799 15.1709C 55.5465 15.1709 54.3799 13.5326 54.3799 10.2559C 54.3799 8.55599 54.6943 7.26172 55.3232 6.37305C 55.9567 5.47982 56.8727 5.0332 58.0713 5.0332C 60.3499 5.0332 61.4893 6.69889 61.4893 10.0303C 61.4893 11.6891 61.1771 12.9606 60.5527 13.8447C 59.9329 14.7288 59.042 15.1709 57.8799 15.1709ZM 57.9756 6.68066C 57.0413 6.68066 56.5742 7.85417 56.5742 10.2012C 56.5742 12.4115 57.0322 13.5166 57.9482 13.5166C 58.8415 13.5166 59.2881 12.3773 59.2881 10.0986C 59.2881 7.81999 58.8506 6.68066 57.9756 6.68066ZM 65.9326 15.1709C 63.5993 15.1709 62.4326 13.5326 62.4326 10.2559C 62.4326 8.55599 62.7471 7.26172 63.376 6.37305C 64.0094 5.47982 64.9255 5.0332 66.124 5.0332C 68.4027 5.0332 69.542 6.69889 69.542 10.0303C 69.542 11.6891 69.2298 12.9606 68.6055 13.8447C 67.9857 14.7288 67.0947 15.1709 65.9326 15.1709ZM 66.0283 6.68066C 65.0941 6.68066 64.627 7.85417 64.627 10.2012C 64.627 12.4115 65.085 13.5166 66.001 13.5166C 66.8942 13.5166 67.3408 12.3773 67.3408 10.0986C 67.3408 7.81999 66.9033 6.68066 66.0283 6.68066ZM 77.4922 6.44141C 77.0547 7.22982 76.6628 7.97038 76.3164 8.66309C 75.9701 9.35124 75.6647 10.0326 75.4004 10.707C 75.1361 11.377 74.9105 12.0605 74.7236 12.7578C 74.5368 13.4505 74.3841 14.1979 74.2656 15L 72.0098 15C 72.1374 14.2389 72.306 13.5052 72.5156 12.7988C 72.7253 12.0924 72.9668 11.4089 73.2402 10.748C 73.5182 10.0827 73.8236 9.43555 74.1562 8.80664C 74.4935 8.17773 74.849 7.5625 75.2227 6.96094L 70.6699 6.96094L 70.6699 5.19727L 77.4922 5.19727L 77.4922 6.44141Z"/>
<path id="path42_fill" d="M 5.6875 4.97852L 5.6875 15L 3.53418 15L 3.53418 7.41211C 3.41569 7.51693 3.27441 7.61719 3.11035 7.71289C 2.95085 7.80404 2.77995 7.88835 2.59766 7.96582C 2.41536 8.03874 2.22624 8.10254 2.03027 8.15723C 1.83431 8.20736 1.64062 8.24382 1.44922 8.2666L 1.44922 6.44824C 2.00977 6.28418 2.53841 6.07454 3.03516 5.81934C 3.5319 5.56413 3.98079 5.28385 4.38184 4.97852L 5.6875 4.97852ZM 12.0244 15.1709C 9.69108 15.1709 8.52441 13.5326 8.52441 10.2559C 8.52441 8.55599 8.83887 7.26172 9.46777 6.37305C 10.1012 5.47982 11.0173 5.0332 12.2158 5.0332C 14.4945 5.0332 15.6338 6.69889 15.6338 10.0303C 15.6338 11.6891 15.3216 12.9606 14.6973 13.8447C 14.0775 14.7288 13.1865 15.1709 12.0244 15.1709ZM 12.1201 6.68066C 11.1859 6.68066 10.7188 7.85417 10.7188 10.2012C 10.7188 12.4115 11.1768 13.5166 12.0928 13.5166C 12.986 13.5166 13.4326 12.3773 13.4326 10.0986C 13.4326 7.81999 12.9951 6.68066 12.1201 6.68066ZM 20.0771 15.1709C 17.7438 15.1709 16.5771 13.5326 16.5771 10.2559C 16.5771 8.55599 16.8916 7.26172 17.5205 6.37305C 18.154 5.47982 19.07 5.0332 20.2686 5.0332C 22.5472 5.0332 23.6865 6.69889 23.6865 10.0303C 23.6865 11.6891 23.3743 12.9606 22.75 13.8447C 22.1302 14.7288 21.2393 15.1709 20.0771 15.1709ZM 20.1729 6.68066C 19.2386 6.68066 18.7715 7.85417 18.7715 10.2012C 18.7715 12.4115 19.2295 13.5166 20.1455 13.5166C 21.0387 13.5166 21.4854 12.3773 21.4854 10.0986C 21.4854 7.81999 21.0479 6.68066 20.1729 6.68066ZM 24.7051 12.3613C 24.7051 12.0879 24.7438 11.8258 24.8213 11.5752C 24.9033 11.32 25.0241 11.0853 25.1836 10.8711C 25.3431 10.6523 25.5413 10.4587 25.7783 10.29C 26.0199 10.1169 26.3024 9.97559 26.626 9.86621C 26.1292 9.62012 25.7441 9.30566 25.4707 8.92285C 25.1973 8.53548 25.0605 8.1071 25.0605 7.6377C 25.0605 7.264 25.138 6.91764 25.293 6.59863C 25.4525 6.27962 25.6712 6.00391 25.9492 5.77148C 26.2272 5.53906 26.5576 5.35905 26.9404 5.23145C 27.3278 5.09928 27.7493 5.0332 28.2051 5.0332C 28.6699 5.0332 29.096 5.09928 29.4834 5.23145C 29.8708 5.35905 30.2035 5.53906 30.4814 5.77148C 30.764 5.99935 30.9827 6.27051 31.1377 6.58496C 31.2926 6.89941 31.3701 7.24121 31.3701 7.61035C 31.3701 8.0752 31.2243 8.49902 30.9326 8.88184C 30.641 9.26009 30.2376 9.57227 29.7227 9.81836C 30.0417 9.92773 30.3219 10.069 30.5635 10.2422C 30.805 10.4108 31.0078 10.6045 31.1719 10.8232C 31.3359 11.042 31.459 11.2812 31.541 11.541C 31.623 11.7962 31.6641 12.0628 31.6641 12.3408C 31.6641 12.7601 31.5798 13.1429 31.4111 13.4893C 31.2425 13.8311 31.0033 14.1273 30.6934 14.3779C 30.388 14.624 30.0212 14.8154 29.5928 14.9521C 29.1689 15.0889 28.6995 15.1572 28.1846 15.1572C 27.6787 15.1572 27.2116 15.0911 26.7832 14.959C 26.3594 14.8223 25.9925 14.6309 25.6826 14.3848C 25.3773 14.1387 25.138 13.8447 24.9648 13.5029C 24.7917 13.1566 24.7051 12.776 24.7051 12.3613ZM 26.749 12.1768C 26.749 12.4001 26.7832 12.6006 26.8516 12.7783C 26.9199 12.9561 27.0179 13.1064 27.1455 13.2295C 27.2731 13.3525 27.4235 13.4482 27.5967 13.5166C 27.7744 13.5804 27.9727 13.6123 28.1914 13.6123C 28.401 13.6123 28.5924 13.5781 28.7656 13.5098C 28.9434 13.4414 29.096 13.3457 29.2236 13.2227C 29.3512 13.0996 29.4515 12.9492 29.5244 12.7715C 29.5973 12.5938 29.6338 12.3955 29.6338 12.1768C 29.6338 11.9808 29.5996 11.7939 29.5312 11.6162C 29.4629 11.4385 29.3649 11.2858 29.2373 11.1582C 29.1097 11.026 28.957 10.9212 28.7793 10.8438C 28.6061 10.7663 28.4102 10.7275 28.1914 10.7275C 27.9863 10.7275 27.7949 10.764 27.6172 10.8369C 27.4395 10.9053 27.2868 11.0055 27.1592 11.1377C 27.0316 11.2653 26.9313 11.418 26.8584 11.5957C 26.7855 11.7734 26.749 11.9671 26.749 12.1768ZM 27.0498 7.83594C 27.0498 8.00911 27.0794 8.17318 27.1387 8.32812C 27.2025 8.47852 27.2868 8.61068 27.3916 8.72461C 27.4964 8.83398 27.6195 8.92057 27.7607 8.98438C 27.9066 9.04818 28.0592 9.08008 28.2188 9.08008C 28.3828 9.08008 28.5355 9.04818 28.6768 8.98438C 28.818 8.92057 28.9411 8.83171 29.0459 8.71777C 29.1553 8.60384 29.2396 8.47168 29.2988 8.32129C 29.3626 8.1709 29.3945 8.00911 29.3945 7.83594C 29.3945 7.6582 29.3649 7.49414 29.3057 7.34375C 29.2464 7.1888 29.1621 7.05664 29.0527 6.94727C 28.9479 6.83333 28.8226 6.74447 28.6768 6.68066C 28.5355 6.61686 28.3828 6.58496 28.2188 6.58496C 28.0456 6.58496 27.8861 6.61914 27.7402 6.6875C 27.599 6.7513 27.4759 6.84017 27.3711 6.9541C 27.2708 7.06348 27.1911 7.19564 27.1318 7.35059C 27.0771 7.50098 27.0498 7.66276 27.0498 7.83594ZM 40.4961 11.6846L 37.8643 11.6846L 37.8643 14.3164L 36.4834 14.3164L 36.4834 11.6846L 33.8379 11.6846L 33.8379 10.2969L 36.4834 10.2969L 36.4834 7.65137L 37.8643 7.65137L 37.8643 10.2969L 40.4961 10.2969L 40.4961 11.6846Z"/>
<path id="path43_fill" d="M 0 0L 24 0L 24 24L 0 24L 0 0Z"/>
<path id="path44_stroke_2x" d="M 0 0L 0 -1L -1 -1L -1 0L 0 0ZM 24 0L 25 0L 25 -1L 24 -1L 24 0ZM 24 24L 24 25L 25 25L 25 24L 24 24ZM 0 24L -1 24L -1 25L 0 25L 0 24ZM 0 1L 24 1L 24 -1L 0 -1L 0 1ZM 23 0L 23 24L 25 24L 25 0L 23 0ZM 24 23L 0 23L 0 25L 24 25L 24 23ZM 1 24L 1 0L -1 0L -1 24L 1 24Z"/>
<path id="path45_fill" d="M 0 0L 16 0L 16 16L 0 16L 0 0Z"/>
<path id="path46_stroke_2x" d="M 0 0L 0 -1L -1 -1L -1 0L 0 0ZM 16 0L 17 0L 17 -1L 16 -1L 16 0ZM 16 16L 16 17L 17 17L 17 16L 16 16ZM 0 16L -1 16L -1 17L 0 17L 0 16ZM 0 1L 16 1L 16 -1L 0 -1L 0 1ZM 15 0L 15 16L 17 16L 17 0L 15 0ZM 16 15L 0 15L 0 17L 16 17L 16 15ZM 1 16L 1 0L -1 0L -1 16L 1 16Z"/>
<path id="path47_fill" d="M 0 0L 9 0L 9 14L 0 14L 0 0Z"/>
<path id="path48_stroke_2x" d="M 0 0L 0 -1L -1 -1L -1 0L 0 0ZM 9 0L 10 0L 10 -1L 9 -1L 9 0ZM 9 14L 9 15L 10 15L 10 14L 9 14ZM 0 14L -1 14L -1 15L 0 15L 0 14ZM 0 1L 9 1L 9 -1L 0 -1L 0 1ZM 8 0L 8 14L 10 14L 10 0L 8 0ZM 9 13L 0 13L 0 15L 9 15L 9 13ZM 1 14L 1 0L -1 0L -1 14L 1 14Z"/>
<path id="path49_stroke" d="M 0 0L 220 0L 220 -1L 0 -1L 0 0Z"/>
<path id="path50_stroke" d="M 8 0L 8.5 0L 8.5 -0.5L 8 -0.5L 8 0ZM 0 0.5L 8 0.5L 8 -0.5L 0 -0.5L 0 0.5ZM 7.5 0L 7.5 8L 8.5 8L 8.5 0L 7.5 0Z"/>
<path id="path51_stroke" d="M 0 0L 176 0L 176 -1L 0 -1L 0 0Z"/>
<path id="path52_stroke" d="M 0 0L 536 0L 536 -1L 0 -1L 0 0Z"/>
</defs>
</svg>
