<svg width="1920" height="772" viewBox="0 0 1920 772" version="1.1" xmlns="http://www.w3.org/2000/svg" xmlns:xlink="http://www.w3.org/1999/xlink">
<g fill="none">
<g clip-path="url(#clip0)">
<rect width="1920" height="772" fill="#243A5E"/>
<g filter="url(#filter0_d)">
<path fill-rule="evenodd" clip-rule="evenodd" d="M 0 0L 826.667 0L 826.667 518.557L 0 518.557L 0 0Z" transform="translate(106.666 160.068)" fill="white"/>
</g>
<mask id="mask0" mask-type="alpha" maskUnits="userSpaceOnUse" x="106" y="160" width="828" height="519">
<path fill-rule="evenodd" clip-rule="evenodd" d="M 0 0L 826.667 0L 826.667 518.557L 0 518.557L 0 0Z" transform="translate(106.666 160.068)" fill="white"/>
<path fill-rule="evenodd" clip-rule="evenodd" d="M 0 0L 826.667 0L 826.667 518.557L 0 518.557L 0 0Z" transform="translate(106.666 160.068)" fill="white"/>
</mask>
<g mask="url(#mask0)">
<rect width="213.333" height="546.903" transform="translate(106.666 145.062)" fill="#D9D9D9"/>
</g>
<g filter="url(#filter1_dd)">
<path fill-rule="evenodd" clip-rule="evenodd" d="M 0 0L 826.667 0L 826.667 518.557L 0 518.557L 0 0Z" transform="translate(988.334 160.068)" fill="white"/>
<path fill-rule="evenodd" clip-rule="evenodd" d="M 0 0L 826.667 0L 826.667 518.557L 0 518.557L 0 0Z" transform="translate(988.334 160.068)" fill="white"/>
<path fill-rule="evenodd" clip-rule="evenodd" d="M 0 0L 826.667 0L 826.667 518.557L 0 518.557L 0 0Z" transform="translate(988.334 160.068)" fill="white"/>
</g>
<mask id="mask1" mask-type="alpha" maskUnits="userSpaceOnUse" x="988" y="160" width="828" height="519">
<path fill-rule="evenodd" clip-rule="evenodd" d="M 0 0L 826.667 0L 826.667 518.557L 0 518.557L 0 0Z" transform="translate(988.334 160.068)" fill="white"/>
<path fill-rule="evenodd" clip-rule="evenodd" d="M 0 0L 826.667 0L 826.667 518.557L 0 518.557L 0 0Z" transform="translate(988.334 160.068)" fill="white"/>
<path fill-rule="evenodd" clip-rule="evenodd" d="M 0 0L 826.667 0L 826.667 518.557L 0 518.557L 0 0Z" transform="translate(988.334 160.068)" fill="white"/>
</mask>
<g mask="url(#mask1)">
<rect width="850" height="53.3564" transform="translate(976.668 160.068)" fill="#D9D9D9"/>
</g>
<path d="M 71.3688 32L 59.738 32L 59.738 10.9941L 63.2243 10.9941L 63.2243 29.0557L 71.3688 29.0557L 71.3688 32ZM 86.735 25.4229L 76.5104 25.4229C 76.5495 26.8096 76.9743 27.8789 77.7848 28.6309C 78.6051 29.3828 79.7282 29.7588 81.154 29.7588C 82.7555 29.7588 84.2253 29.2803 85.5632 28.3232L 85.5632 31.0625C 84.196 31.9219 82.3893 32.3516 80.1432 32.3516C 77.9362 32.3516 76.2028 31.6729 74.943 30.3154C 73.693 28.9482 73.068 27.0293 73.068 24.5586C 73.068 22.2246 73.7565 20.3252 75.1335 18.8604C 76.5202 17.3857 78.2389 16.6484 80.2897 16.6484C 82.3405 16.6484 83.9274 17.3076 85.0505 18.626C 86.1735 19.9443 86.735 21.7754 86.735 24.1191L 86.735 25.4229ZM 83.4538 23.0205C 83.444 21.7998 83.1559 20.8525 82.5895 20.1787C 82.0231 19.4951 81.2419 19.1533 80.2458 19.1533C 79.2692 19.1533 78.4391 19.5098 77.7555 20.2227C 77.0817 20.9355 76.6667 21.8682 76.5104 23.0205L 83.4538 23.0205ZM 98.4538 12.5615C 97.9948 12.2979 97.4723 12.166 96.8864 12.166C 95.236 12.166 94.4108 13.0986 94.4108 14.9639L 94.4108 17L 97.8971 17L 97.8971 19.666L 94.4255 19.666L 94.4255 32L 91.027 32L 91.027 19.666L 88.4635 19.666L 88.4635 17L 91.027 17L 91.027 14.5684C 91.027 12.9863 91.5446 11.7412 92.5798 10.833C 93.6149 9.91504 94.9089 9.45605 96.4616 9.45605C 97.3014 9.45605 97.9655 9.54883 98.4538 9.73438L 98.4538 12.5615ZM 108.781 31.8389C 108.117 32.1709 107.243 32.3369 106.159 32.3369C 103.249 32.3369 101.794 30.9404 101.794 28.1475L 101.794 19.666L 99.2887 19.666L 99.2887 17L 101.794 17L 101.794 13.5283L 105.192 12.5615L 105.192 17L 108.781 17L 108.781 19.666L 105.192 19.666L 105.192 27.166C 105.192 28.0547 105.353 28.6895 105.675 29.0703C 105.998 29.4512 106.535 29.6416 107.287 29.6416C 107.863 29.6416 108.361 29.4756 108.781 29.1436L 108.781 31.8389ZM 133.332 32L 129.933 32L 129.933 23.5479C 129.933 20.7451 128.942 19.3438 126.96 19.3438C 125.924 19.3438 125.07 19.7344 124.396 20.5156C 123.722 21.2871 123.385 22.2637 123.385 23.4453L 123.385 32L 119.972 32L 119.972 17L 123.385 17L 123.385 19.4902L 123.444 19.4902C 124.567 17.5957 126.188 16.6484 128.307 16.6484C 129.938 16.6484 131.183 17.1807 132.043 18.2451C 132.902 19.2998 133.332 20.8281 133.332 22.8301L 133.332 32ZM 149.006 32L 145.71 32L 145.71 29.6562L 145.651 29.6562C 144.616 31.4531 143.097 32.3516 141.095 32.3516C 139.621 32.3516 138.464 31.9512 137.624 31.1504C 136.794 30.3496 136.379 29.29 136.379 27.9717C 136.379 25.1396 138.009 23.4893 141.271 23.0205L 145.724 22.3906C 145.724 20.252 144.709 19.1826 142.677 19.1826C 140.89 19.1826 139.279 19.7979 137.843 21.0283L 137.843 18.0547C 139.425 17.1172 141.252 16.6484 143.322 16.6484C 147.111 16.6484 149.006 18.5137 149.006 22.2441L 149.006 32ZM 145.724 24.6318L 142.575 25.0713C 141.598 25.1982 140.861 25.4375 140.363 25.7891C 139.875 26.1309 139.631 26.7363 139.631 27.6055C 139.631 28.2402 139.855 28.7627 140.304 29.1729C 140.763 29.5732 141.374 29.7734 142.135 29.7734C 143.171 29.7734 144.025 29.4121 144.699 28.6895C 145.382 27.957 145.724 27.0391 145.724 25.9355L 145.724 24.6318ZM 166.086 17L 160.285 32L 156.608 32L 151.086 17L 154.777 17L 158.102 27.4883C 158.356 28.2598 158.512 28.9336 158.571 29.5098L 158.615 29.5098C 158.703 28.7871 158.84 28.1328 159.025 27.5469L 162.511 17L 166.086 17Z" transform="translate(408.334 68.3633)" fill="#37E8FD"/>
<path d="M 74.5768 13.9531L 68.5417 13.9531L 68.5417 32L 65.0553 32L 65.0553 13.9531L 59.0348 13.9531L 59.0348 10.9941L 74.5768 10.9941L 74.5768 13.9531ZM 80.9928 32.3516C 78.6784 32.3516 76.8278 31.6533 75.4411 30.2568C 74.0641 28.8506 73.3756 26.9902 73.3756 24.6758C 73.3756 22.1562 74.0934 20.1885 75.529 18.7725C 76.9743 17.3564 78.9176 16.6484 81.359 16.6484C 83.7028 16.6484 85.529 17.3369 86.8376 18.7139C 88.1461 20.0908 88.8004 22 88.8004 24.4414C 88.8004 26.834 88.0924 28.7529 86.6764 30.1982C 85.2702 31.6338 83.3756 32.3516 80.9928 32.3516ZM 81.154 19.3584C 79.8258 19.3584 78.776 19.8223 78.0045 20.75C 77.2331 21.6777 76.8473 22.957 76.8473 24.5879C 76.8473 26.1602 77.2379 27.4004 78.0192 28.3086C 78.8004 29.207 79.8454 29.6562 81.154 29.6562C 82.4919 29.6562 83.5172 29.2119 84.2301 28.3232C 84.9528 27.4346 85.3141 26.1699 85.3141 24.5293C 85.3141 22.8789 84.9528 21.6045 84.2301 20.7061C 83.5172 19.8076 82.4919 19.3584 81.154 19.3584ZM 95.7292 29.7881L 95.6706 29.7881L 95.6706 38.8994L 92.2721 38.8994L 92.2721 17L 95.6706 17L 95.6706 19.6367L 95.7292 19.6367C 96.8913 17.6445 98.5905 16.6484 100.827 16.6484C 102.731 16.6484 104.215 17.3174 105.28 18.6553C 106.344 19.9932 106.877 21.79 106.877 24.0459C 106.877 26.5459 106.276 28.5479 105.075 30.0518C 103.874 31.5557 102.233 32.3076 100.153 32.3076C 98.2389 32.3076 96.7643 31.4678 95.7292 29.7881ZM 95.6413 23.8701L 95.6413 25.7305C 95.6413 26.8242 95.9879 27.752 96.6813 28.5137C 97.3844 29.2754 98.2731 29.6562 99.3473 29.6562C 100.607 29.6562 101.593 29.168 102.306 28.1914C 103.029 27.2051 103.39 25.833 103.39 24.0752C 103.39 22.6006 103.053 21.4482 102.38 20.6182C 101.715 19.7783 100.812 19.3584 99.6696 19.3584C 98.4586 19.3584 97.4821 19.7881 96.7399 20.6475C 96.0075 21.5068 95.6413 22.5811 95.6413 23.8701ZM 131.969 32L 128.571 32L 128.571 23.5479C 128.571 20.7451 127.58 19.3438 125.597 19.3438C 124.562 19.3438 123.708 19.7344 123.034 20.5156C 122.36 21.2871 122.023 22.2637 122.023 23.4453L 122.023 32L 118.61 32L 118.61 17L 122.023 17L 122.023 19.4902L 122.082 19.4902C 123.205 17.5957 124.826 16.6484 126.945 16.6484C 128.576 16.6484 129.821 17.1807 130.68 18.2451C 131.54 19.2998 131.969 20.8281 131.969 22.8301L 131.969 32ZM 147.643 32L 144.347 32L 144.347 29.6562L 144.289 29.6562C 143.254 31.4531 141.735 32.3516 139.733 32.3516C 138.258 32.3516 137.101 31.9512 136.261 31.1504C 135.431 30.3496 135.016 29.29 135.016 27.9717C 135.016 25.1396 136.647 23.4893 139.909 23.0205L 144.362 22.3906C 144.362 20.252 143.346 19.1826 141.315 19.1826C 139.528 19.1826 137.917 19.7979 136.481 21.0283L 136.481 18.0547C 138.063 17.1172 139.889 16.6484 141.96 16.6484C 145.749 16.6484 147.643 18.5137 147.643 22.2441L 147.643 32ZM 144.362 24.6318L 141.213 25.0713C 140.236 25.1982 139.499 25.4375 139.001 25.7891C 138.512 26.1309 138.268 26.7363 138.268 27.6055C 138.268 28.2402 138.493 28.7627 138.942 29.1729C 139.401 29.5732 140.011 29.7734 140.773 29.7734C 141.808 29.7734 142.663 29.4121 143.337 28.6895C 144.02 27.957 144.362 27.0391 144.362 25.9355L 144.362 24.6318ZM 164.723 17L 158.923 32L 155.246 32L 149.723 17L 153.415 17L 156.74 27.4883C 156.994 28.2598 157.15 28.9336 157.209 29.5098L 157.253 29.5098C 157.34 28.7871 157.477 28.1328 157.663 27.5469L 161.149 17L 164.723 17Z" transform="translate(1290 68.3633)" fill="#37E8FD"/>
</g>
</g>
<defs>
<filter id="filter0_d" x="86.666" y="140.068" width="866.667" height="558.557" filterUnits="userSpaceOnUse" color-interpolation-filters="sRGB">
<feFlood flood-opacity="0" result="BackgroundImageFix"/>
<feColorMatrix in="SourceAlpha" type="matrix" values="0 0 0 0 0 0 0 0 0 0 0 0 0 0 0 0 0 0 255 0"/>
<feOffset/>
<feGaussianBlur stdDeviation="10"/>
<feColorMatrix type="matrix" values="0 0 0 0 0.095 0 0 0 0 0.153793 0 0 0 0 0.25 0 0 0 1 0"/>
<feBlend mode="normal" in2="BackgroundImageFix" result="effect1_dropShadow"/>
<feBlend mode="normal" in="SourceGraphic" in2="effect1_dropShadow" result="shape"/>
</filter>
<filter id="filter1_dd" x="968.334" y="140.068" width="866.667" height="558.557" filterUnits="userSpaceOnUse" color-interpolation-filters="sRGB">
<feFlood flood-opacity="0" result="BackgroundImageFix"/>
<feColorMatrix in="SourceAlpha" type="matrix" values="0 0 0 0 0 0 0 0 0 0 0 0 0 0 0 0 0 0 255 0"/>
<feOffset dx="5" dy="5"/>
<feGaussianBlur stdDeviation="7.5"/>
<feColorMatrix type="matrix" values="0 0 0 0 0.27 0 0 0 0 0.423529 0 0 0 0 0.54 0 0 0 0.5 0"/>
<feBlend mode="normal" in2="BackgroundImageFix" result="effect1_dropShadow"/>
<feColorMatrix in="SourceAlpha" type="matrix" values="0 0 0 0 0 0 0 0 0 0 0 0 0 0 0 0 0 0 255 0"/>
<feOffset/>
<feGaussianBlur stdDeviation="10"/>
<feColorMatrix type="matrix" values="0 0 0 0 0.095 0 0 0 0 0.153793 0 0 0 0 0.25 0 0 0 1 0"/>
<feBlend mode="normal" in2="effect1_dropShadow" result="effect2_dropShadow"/>
<feBlend mode="normal" in="SourceGraphic" in2="effect2_dropShadow" result="shape"/>
</filter>

<clipPath id="clip0">
<rect width="1920" height="772" fill="white"/>
</clipPath>

</defs>
</svg>

