<svg width="1152" height="503" viewBox="0 0 1152 503" version="1.1" xmlns="http://www.w3.org/2000/svg" xmlns:xlink="http://www.w3.org/1999/xlink">
<title>top-left-nav</title>
<desc>Created using Figma</desc>
<g id="Canvas" transform="translate(14836 14744)">
<clipPath id="clip-0" clip-rule="evenodd">
<path d="M -14836 -14744L -13684 -14744L -13684 -14241L -14836 -14241L -14836 -14744Z" fill="#FFFFFF"/>
</clipPath>
<g id="top-left-nav" clip-path="url(#clip-0)">
<path d="M -14836 -14744L -13684 -14744L -13684 -14241L -14836 -14241L -14836 -14744Z" fill="#243A5E"/>
<g id="BG">
<g id="app-bg" filter="url(#filter0_d)">
<use xlink:href="#path0_fill" transform="translate(-14772 -14648)" fill="#FFFFFF"/>
</g>
<g id="Mask Group">
<mask id="mask0_alpha" mask-type="alpha">
<g id="app-bg">
<use xlink:href="#path0_fill" transform="translate(-14772 -14648)" fill="#FFFFFF"/>
<use xlink:href="#path0_fill" transform="translate(-14772 -14648)" fill="#FFFFFF"/>
</g>
</mask>
<g id="Rectangle" mask="url(#mask0_alpha)">
<use xlink:href="#path1_fill" transform="translate(-14772 -14657)" fill="#DFE9F0"/>
</g>
</g>
</g>
<g id="BG">
<g id="app-bg" filter="url(#filter1_dd)">
<use xlink:href="#path0_fill" transform="translate(-14243 -14648)" fill="#FFFFFF"/>
<use xlink:href="#path0_fill" transform="translate(-14243 -14648)" fill="#FFFFFF"/>
<use xlink:href="#path0_fill" transform="translate(-14243 -14648)" fill="#FFFFFF"/>
</g>
</g>
<g id="BG">
<mask id="mask1_alpha" mask-type="alpha">
<g id="app-bg">
<use xlink:href="#path0_fill" transform="translate(-14243 -14648)" fill="#FFFFFF"/>
<use xlink:href="#path0_fill" transform="translate(-14243 -14648)" fill="#FFFFFF"/>
<use xlink:href="#path0_fill" transform="translate(-14243 -14648)" fill="#FFFFFF"/>
</g>
</mask>
<g id="Rectangle" mask="url(#mask1_alpha)">
<use xlink:href="#path2_fill" transform="translate(-14250 -14648)" fill="#DFE9F0"/>
</g>
</g>
<g id="Navigation pane">
<use xlink:href="#path3_fill" transform="translate(-14591 -14703)" fill="#37E8FD"/>
</g>
<g id="Navigation pane">
<use xlink:href="#path4_fill" transform="translate(-14062 -14703)" fill="#37E8FD"/>
</g>
</g>
</g>
<defs>
<filter id="filter0_d" filterUnits="userSpaceOnUse" x="-14792" y="-14668" width="536" height="351" color-interpolation-filters="sRGB">
<feFlood flood-opacity="0" result="BackgroundImageFix"/>
<feColorMatrix in="SourceAlpha" type="matrix" values="0 0 0 0 0 0 0 0 0 0 0 0 0 0 0 0 0 0 255 0"/>
<feOffset dx="0" dy="0"/>
<feGaussianBlur stdDeviation="10"/>
<feColorMatrix type="matrix" values="0 0 0 0 0.095 0 0 0 0 0.153793 0 0 0 0 0.25 0 0 0 1 0"/>
<feBlend mode="normal" in2="BackgroundImageFix" result="effect1_dropShadow"/>
<feBlend mode="normal" in="SourceGraphic" in2="effect1_dropShadow" result="shape"/>
</filter>
<filter id="filter1_dd" filterUnits="userSpaceOnUse" x="-14263" y="-14668" width="536" height="351" color-interpolation-filters="sRGB">
<feFlood flood-opacity="0" result="BackgroundImageFix"/>
<feColorMatrix in="SourceAlpha" type="matrix" values="0 0 0 0 0 0 0 0 0 0 0 0 0 0 0 0 0 0 255 0"/>
<feOffset dx="5" dy="5"/>
<feGaussianBlur stdDeviation="7.5"/>
<feColorMatrix type="matrix" values="0 0 0 0 0.27 0 0 0 0 0.423529 0 0 0 0 0.54 0 0 0 0.5 0"/>
<feBlend mode="normal" in2="BackgroundImageFix" result="effect1_dropShadow"/>
<feColorMatrix in="SourceAlpha" type="matrix" values="0 0 0 0 0 0 0 0 0 0 0 0 0 0 0 0 0 0 255 0"/>
<feOffset dx="0" dy="0"/>
<feGaussianBlur stdDeviation="10"/>
<feColorMatrix type="matrix" values="0 0 0 0 0.095 0 0 0 0 0.153793 0 0 0 0 0.25 0 0 0 1 0"/>
<feBlend mode="normal" in2="effect1_dropShadow" result="effect2_dropShadow"/>
<feBlend mode="normal" in="SourceGraphic" in2="effect2_dropShadow" result="shape"/>
</filter>
<path id="path0_fill" fill-rule="evenodd" d="M 0 0L 496 0L 496 311L 0 311L 0 0Z"/>
<path id="path1_fill" d="M 0 0L 128 0L 128 328L 0 328L 0 0Z"/>
<path id="path2_fill" d="M 0 0L 510 0L 510 32L 0 32L 0 0Z"/>
<path id="path3_fill" d="M 42.8213 19L 35.8428 19L 35.8428 6.39648L 37.9346 6.39648L 37.9346 17.2334L 42.8213 17.2334L 42.8213 19ZM 52.041 15.0537L 45.9062 15.0537C 45.9297 15.8857 46.1846 16.5273 46.6709 16.9785C 47.1631 17.4297 47.8369 17.6553 48.6924 17.6553C 49.6533 17.6553 50.5352 17.3682 51.3379 16.7939L 51.3379 18.4375C 50.5176 18.9531 49.4336 19.2109 48.0859 19.2109C 46.7617 19.2109 45.7217 18.8037 44.9658 17.9893C 44.2158 17.1689 43.8408 16.0176 43.8408 14.5352C 43.8408 13.1348 44.2539 11.9951 45.0801 11.1162C 45.9121 10.2314 46.9434 9.78906 48.1738 9.78906C 49.4043 9.78906 50.3564 10.1846 51.0303 10.9756C 51.7041 11.7666 52.041 12.8652 52.041 14.2715L 52.041 15.0537ZM 50.0723 13.6123C 50.0664 12.8799 49.8936 12.3115 49.5537 11.9072C 49.2139 11.4971 48.7451 11.292 48.1475 11.292C 47.5615 11.292 47.0635 11.5059 46.6533 11.9336C 46.249 12.3613 46 12.9209 45.9062 13.6123L 50.0723 13.6123ZM 59.0723 7.33691C 58.7969 7.17871 58.4834 7.09961 58.1318 7.09961C 57.1416 7.09961 56.6465 7.65918 56.6465 8.77832L 56.6465 10L 58.7383 10L 58.7383 11.5996L 56.6553 11.5996L 56.6553 19L 54.6162 19L 54.6162 11.5996L 53.0781 11.5996L 53.0781 10L 54.6162 10L 54.6162 8.54102C 54.6162 7.5918 54.9268 6.84473 55.5479 6.2998C 56.1689 5.74902 56.9453 5.47363 57.877 5.47363C 58.3809 5.47363 58.7793 5.5293 59.0723 5.64062L 59.0723 7.33691ZM 65.2686 18.9033C 64.8701 19.1025 64.3457 19.2021 63.6953 19.2021C 61.9492 19.2021 61.0762 18.3643 61.0762 16.6885L 61.0762 11.5996L 59.5732 11.5996L 59.5732 10L 61.0762 10L 61.0762 7.91699L 63.1152 7.33691L 63.1152 10L 65.2686 10L 65.2686 11.5996L 63.1152 11.5996L 63.1152 16.0996C 63.1152 16.6328 63.2119 17.0137 63.4053 17.2422C 63.5986 17.4707 63.9209 17.585 64.3721 17.585C 64.7178 17.585 65.0166 17.4854 65.2686 17.2861L 65.2686 18.9033ZM 79.999 19L 77.96 19L 77.96 13.9287C 77.96 12.2471 77.3652 11.4062 76.1758 11.4062C 75.5547 11.4062 75.042 11.6406 74.6377 12.1094C 74.2334 12.5723 74.0312 13.1582 74.0312 13.8672L 74.0312 19L 71.9834 19L 71.9834 10L 74.0312 10L 74.0312 11.4941L 74.0664 11.4941C 74.7402 10.3574 75.7129 9.78906 76.9844 9.78906C 77.9629 9.78906 78.71 10.1084 79.2256 10.7471C 79.7412 11.3799 79.999 12.2969 79.999 13.498L 79.999 19ZM 89.4033 19L 87.4258 19L 87.4258 17.5938L 87.3906 17.5938C 86.7695 18.6719 85.8584 19.2109 84.6572 19.2109C 83.7725 19.2109 83.0781 18.9707 82.5742 18.4902C 82.0762 18.0098 81.8271 17.374 81.8271 16.583C 81.8271 14.8838 82.8057 13.8936 84.7627 13.6123L 87.4346 13.2344C 87.4346 11.9512 86.8252 11.3096 85.6064 11.3096C 84.5342 11.3096 83.5674 11.6787 82.7061 12.417L 82.7061 10.6328C 83.6553 10.0703 84.751 9.78906 85.9932 9.78906C 88.2666 9.78906 89.4033 10.9082 89.4033 13.1465L 89.4033 19ZM 87.4346 14.5791L 85.5449 14.8428C 84.959 14.9189 84.5166 15.0625 84.2178 15.2734C 83.9248 15.4785 83.7783 15.8418 83.7783 16.3633C 83.7783 16.7441 83.9131 17.0576 84.1826 17.3037C 84.458 17.5439 84.8242 17.6641 85.2812 17.6641C 85.9023 17.6641 86.415 17.4473 86.8193 17.0137C 87.2295 16.5742 87.4346 16.0234 87.4346 15.3613L 87.4346 14.5791ZM 99.6514 10L 96.1709 19L 93.9648 19L 90.6514 10L 92.8662 10L 94.8613 16.293C 95.0137 16.7559 95.1074 17.1602 95.1426 17.5059L 95.1689 17.5059C 95.2217 17.0723 95.3037 16.6797 95.415 16.3281L 97.5068 10L 99.6514 10Z"/>
<path id="path4_fill" d="M 44.7461 8.17188L 41.125 8.17188L 41.125 19L 39.0332 19L 39.0332 8.17188L 35.4209 8.17188L 35.4209 6.39648L 44.7461 6.39648L 44.7461 8.17188ZM 48.5957 19.2109C 47.207 19.2109 46.0967 18.792 45.2646 17.9541C 44.4385 17.1104 44.0254 15.9941 44.0254 14.6055C 44.0254 13.0938 44.4561 11.9131 45.3174 11.0635C 46.1846 10.2139 47.3506 9.78906 48.8154 9.78906C 50.2217 9.78906 51.3174 10.2021 52.1025 11.0283C 52.8877 11.8545 53.2803 13 53.2803 14.4648C 53.2803 15.9004 52.8555 17.0518 52.0059 17.9189C 51.1621 18.7803 50.0254 19.2109 48.5957 19.2109ZM 48.6924 11.415C 47.8955 11.415 47.2656 11.6934 46.8027 12.25C 46.3398 12.8066 46.1084 13.5742 46.1084 14.5527C 46.1084 15.4961 46.3428 16.2402 46.8115 16.7852C 47.2803 17.3242 47.9072 17.5938 48.6924 17.5938C 49.4951 17.5938 50.1104 17.3271 50.5381 16.7939C 50.9717 16.2607 51.1885 15.502 51.1885 14.5176C 51.1885 13.5273 50.9717 12.7627 50.5381 12.2236C 50.1104 11.6846 49.4951 11.415 48.6924 11.415ZM 57.4375 17.6729L 57.4023 17.6729L 57.4023 23.1396L 55.3633 23.1396L 55.3633 10L 57.4023 10L 57.4023 11.582L 57.4375 11.582C 58.1348 10.3867 59.1543 9.78906 60.4961 9.78906C 61.6387 9.78906 62.5293 10.1904 63.168 10.9932C 63.8066 11.7959 64.126 12.874 64.126 14.2275C 64.126 15.7275 63.7656 16.9287 63.0449 17.8311C 62.3242 18.7334 61.3398 19.1846 60.0918 19.1846C 58.9434 19.1846 58.0586 18.6807 57.4375 17.6729ZM 57.3848 14.1221L 57.3848 15.2383C 57.3848 15.8945 57.5928 16.4512 58.0088 16.9082C 58.4307 17.3652 58.9639 17.5938 59.6084 17.5938C 60.3643 17.5938 60.9561 17.3008 61.3838 16.7148C 61.8174 16.123 62.0342 15.2998 62.0342 14.2451C 62.0342 13.3604 61.832 12.6689 61.4277 12.1709C 61.0293 11.667 60.4873 11.415 59.8018 11.415C 59.0752 11.415 58.4893 11.6729 58.0439 12.1885C 57.6045 12.7041 57.3848 13.3486 57.3848 14.1221ZM 79.1816 19L 77.1426 19L 77.1426 13.9287C 77.1426 12.2471 76.5479 11.4062 75.3584 11.4062C 74.7373 11.4062 74.2246 11.6406 73.8203 12.1094C 73.416 12.5723 73.2139 13.1582 73.2139 13.8672L 73.2139 19L 71.166 19L 71.166 10L 73.2139 10L 73.2139 11.4941L 73.249 11.4941C 73.9229 10.3574 74.8955 9.78906 76.167 9.78906C 77.1455 9.78906 77.8926 10.1084 78.4082 10.7471C 78.9238 11.3799 79.1816 12.2969 79.1816 13.498L 79.1816 19ZM 88.5859 19L 86.6084 19L 86.6084 17.5938L 86.5732 17.5938C 85.9521 18.6719 85.041 19.2109 83.8398 19.2109C 82.9551 19.2109 82.2607 18.9707 81.7568 18.4902C 81.2588 18.0098 81.0098 17.374 81.0098 16.583C 81.0098 14.8838 81.9883 13.8936 83.9453 13.6123L 86.6172 13.2344C 86.6172 11.9512 86.0078 11.3096 84.7891 11.3096C 83.7168 11.3096 82.75 11.6787 81.8887 12.417L 81.8887 10.6328C 82.8379 10.0703 83.9336 9.78906 85.1758 9.78906C 87.4492 9.78906 88.5859 10.9082 88.5859 13.1465L 88.5859 19ZM 86.6172 14.5791L 84.7275 14.8428C 84.1416 14.9189 83.6992 15.0625 83.4004 15.2734C 83.1074 15.4785 82.9609 15.8418 82.9609 16.3633C 82.9609 16.7441 83.0957 17.0576 83.3652 17.3037C 83.6406 17.5439 84.0068 17.6641 84.4639 17.6641C 85.085 17.6641 85.5977 17.4473 86.002 17.0137C 86.4121 16.5742 86.6172 16.0234 86.6172 15.3613L 86.6172 14.5791ZM 98.834 10L 95.3535 19L 93.1475 19L 89.834 10L 92.0488 10L 94.0439 16.293C 94.1963 16.7559 94.29 17.1602 94.3252 17.5059L 94.3516 17.5059C 94.4043 17.0723 94.4863 16.6797 94.5977 16.3281L 96.6895 10L 98.834 10Z"/>
</defs>
</svg>
