<svg width="1152" height="584" viewBox="0 0 1152 584" version="1.1" xmlns="http://www.w3.org/2000/svg" xmlns:xlink="http://www.w3.org/1999/xlink">
<title>xaml-layout-margins-padding</title>
<desc>Created using Figma</desc>
<g id="Canvas" transform="translate(-1309 11118)">
<g id="xaml-layout-margins-padding">
<path d="M 1309 -11118L 2461 -11118L 2461 -10534L 1309 -10534L 1309 -11118Z" fill="#FFFFFF"/>
<g id="Rectangle">
<use xlink:href="#path0_fill" transform="translate(1453 -11038)" fill="#243A5E"/>
</g>
<g id="Rectangle">
<use xlink:href="#path1_fill" transform="translate(1485 -11006)" fill="#F4F4F4"/>
</g>
<g id="Rectangle 2">
<use xlink:href="#path2_fill" transform="translate(1645 -11118)" fill="#A7F3FF"/>
</g>
<g id="Rectangle 2.2">
<use xlink:href="#path2_fill" transform="translate(1645 -11006)" fill="#DCFAFF"/>
</g>
<g id="Rectangle 2.1">
<use xlink:href="#path2_fill" transform="translate(1645 -10614)" fill="#A7F3FF"/>
</g>
<g id="Rectangle">
<use xlink:href="#path3_fill" transform="translate(1645 -10926)" fill="#FFFFFF"/>
</g>
<g id="These articles help">
<use xlink:href="#path4_fill" transform="translate(1768 -11092)" fill="#151937"/>
</g>
<g id="These articles help">
<use xlink:href="#path5_fill" transform="translate(1768 -10588)" fill="#151937"/>
</g>
<g id="These articles help">
<use xlink:href="#path6_fill" transform="translate(1837.95 -11037)" fill="#FFFFFF"/>
</g>
<g id="These articles help">
<use xlink:href="#path7_fill" transform="translate(1784 -10984)" fill="#151937"/>
</g>
<g id="Rectangle 2.3">
<use xlink:href="#path2_fill" transform="translate(1645 -10726)" fill="#DCFAFF"/>
</g>
<g id="These articles help">
<use xlink:href="#path8_fill" transform="translate(1736 -10700)" fill="#151937"/>
</g>
<g id="These articles help">
<use xlink:href="#path9_fill" transform="translate(1842 -10838)" fill="#161F46"/>
</g>
<g id="Rectangle 3">
<use xlink:href="#path10_fill" transform="translate(2117 -10926)" fill="#DCFAFF"/>
</g>
<g id="Rectangle 3.1">
<use xlink:href="#path10_fill" transform="translate(1485 -10926)" fill="#DCFAFF"/>
</g>
<g id="These articles help">
<use xlink:href="#path11_fill" transform="translate(1511 -10840)" fill="#151937"/>
</g>
<g id="These articles help">
<use xlink:href="#path12_fill" transform="translate(2146 -10840)" fill="#151937"/>
</g>
<g id="Rectangle 3.2">
<use xlink:href="#path13_fill" transform="translate(2309 -10926)" fill="#A7F3FF"/>
</g>
<g id="These articles help">
<use xlink:href="#path14_fill" transform="translate(2329 -10840)" fill="#151937"/>
</g>
<g id="Rectangle 3.3">
<use xlink:href="#path15_fill" transform="translate(1309 -10926)" fill="#A7F3FF"/>
</g>
<g id="These articles help">
<use xlink:href="#path16_fill" transform="translate(1319 -10840)" fill="#151937"/>
</g>
</g>
</g>
<defs>
<path id="path0_fill" d="M 0 0L 856 0L 856 424L 0 424L 0 0Z"/>
<path id="path1_fill" d="M 0 0L 792 0L 792 360L 0 360L 0 0Z"/>
<path id="path2_fill" d="M 0 0L 472 0L 472 80L 0 80L 0 0Z"/>
<path id="path3_fill" d="M 0 0L 472 0L 472 200L 0 200L 0 0Z"/>
<path id="path4_fill" d="M 84.4062 21L 82.5625 21L 82.5625 13.75C 82.5625 13.1562 82.599 12.4297 82.6719 11.5703L 82.6406 11.5703C 82.526 12.0599 82.4245 12.4115 82.3359 12.625L 78.9922 21L 77.7109 21L 74.3594 12.6875C 74.2656 12.4427 74.1667 12.0703 74.0625 11.5703L 74.0312 11.5703C 74.0729 12.0182 74.0938 12.75 74.0938 13.7656L 74.0938 21L 72.375 21L 72.375 9.79688L 74.9922 9.79688L 77.9375 17.2578C 78.1615 17.8307 78.3073 18.2578 78.375 18.5391L 78.4141 18.5391C 78.6068 17.9505 78.763 17.513 78.8828 17.2266L 81.8828 9.79688L 84.4062 9.79688L 84.4062 21ZM 93.1094 21L 91.3516 21L 91.3516 19.75L 91.3203 19.75C 90.7682 20.7083 89.9583 21.1875 88.8906 21.1875C 88.1042 21.1875 87.487 20.974 87.0391 20.5469C 86.5964 20.1198 86.375 19.5547 86.375 18.8516C 86.375 17.3411 87.2448 16.4609 88.9844 16.2109L 91.3594 15.875C 91.3594 14.7344 90.8177 14.1641 89.7344 14.1641C 88.7812 14.1641 87.9219 14.4922 87.1562 15.1484L 87.1562 13.5625C 88 13.0625 88.974 12.8125 90.0781 12.8125C 92.099 12.8125 93.1094 13.8073 93.1094 15.7969L 93.1094 21ZM 91.3594 17.0703L 89.6797 17.3047C 89.1589 17.3724 88.7656 17.5 88.5 17.6875C 88.2396 17.8698 88.1094 18.1927 88.1094 18.6562C 88.1094 18.9948 88.2292 19.2734 88.4688 19.4922C 88.7135 19.7057 89.0391 19.8125 89.4453 19.8125C 89.9974 19.8125 90.4531 19.6198 90.8125 19.2344C 91.1771 18.8438 91.3594 18.3542 91.3594 17.7656L 91.3594 17.0703ZM 99.9688 14.7266C 99.75 14.5547 99.4349 14.4688 99.0234 14.4688C 98.487 14.4688 98.0391 14.7109 97.6797 15.1953C 97.3203 15.6797 97.1406 16.3385 97.1406 17.1719L 97.1406 21L 95.3281 21L 95.3281 13L 97.1406 13L 97.1406 14.6484L 97.1719 14.6484C 97.349 14.0859 97.6198 13.6484 97.9844 13.3359C 98.3542 13.0182 98.7656 12.8594 99.2188 12.8594C 99.5469 12.8594 99.7969 12.9089 99.9688 13.0078L 99.9688 14.7266ZM 108.391 20.3594C 108.391 23.2969 106.914 24.7656 103.961 24.7656C 102.919 24.7656 102.01 24.5911 101.234 24.2422L 101.234 22.5859C 102.109 23.0859 102.94 23.3359 103.727 23.3359C 105.628 23.3359 106.578 22.401 106.578 20.5312L 106.578 19.6562L 106.547 19.6562C 105.948 20.6771 105.047 21.1875 103.844 21.1875C 102.87 21.1875 102.083 20.8333 101.484 20.125C 100.891 19.4115 100.594 18.4557 100.594 17.2578C 100.594 15.8984 100.914 14.8177 101.555 14.0156C 102.195 13.2135 103.076 12.8125 104.195 12.8125C 105.253 12.8125 106.036 13.2448 106.547 14.1094L 106.578 14.1094L 106.578 13L 108.391 13L 108.391 20.3594ZM 106.594 17.3359L 106.594 16.2969C 106.594 15.7344 106.406 15.2552 106.031 14.8594C 105.661 14.4583 105.198 14.2578 104.641 14.2578C 103.953 14.2578 103.414 14.513 103.023 15.0234C 102.638 15.5286 102.445 16.237 102.445 17.1484C 102.445 17.9349 102.63 18.5651 103 19.0391C 103.375 19.5078 103.87 19.7422 104.484 19.7422C 105.109 19.7422 105.617 19.5182 106.008 19.0703C 106.398 18.6172 106.594 18.0391 106.594 17.3359ZM 111.664 11.3203C 111.367 11.3203 111.112 11.224 110.898 11.0312C 110.69 10.8385 110.586 10.5938 110.586 10.2969C 110.586 10 110.69 9.7526 110.898 9.55469C 111.112 9.35677 111.367 9.25781 111.664 9.25781C 111.971 9.25781 112.232 9.35677 112.445 9.55469C 112.659 9.7526 112.766 10 112.766 10.2969C 112.766 10.5781 112.659 10.8203 112.445 11.0234C 112.232 11.2214 111.971 11.3203 111.664 11.3203ZM 112.562 21L 110.75 21L 110.75 13L 112.562 13L 112.562 21ZM 122.062 21L 120.25 21L 120.25 16.4922C 120.25 14.9974 119.721 14.25 118.664 14.25C 118.112 14.25 117.656 14.4583 117.297 14.875C 116.938 15.2865 116.758 15.8073 116.758 16.4375L 116.758 21L 114.938 21L 114.938 13L 116.758 13L 116.758 14.3281L 116.789 14.3281C 117.388 13.3177 118.253 12.8125 119.383 12.8125C 120.253 12.8125 120.917 13.0964 121.375 13.6641C 121.833 14.2266 122.062 15.0417 122.062 16.1094L 122.062 21ZM 128.492 17.2969L 124.227 17.2969L 124.227 15.9609L 128.492 15.9609L 128.492 17.2969ZM 138.109 11.375L 134.891 11.375L 134.891 21L 133.031 21L 133.031 11.375L 129.82 11.375L 129.82 9.79688L 138.109 9.79688L 138.109 11.375ZM 141.531 21.1875C 140.297 21.1875 139.31 20.8151 138.57 20.0703C 137.836 19.3203 137.469 18.3281 137.469 17.0938C 137.469 15.75 137.852 14.7005 138.617 13.9453C 139.388 13.1901 140.424 12.8125 141.727 12.8125C 142.977 12.8125 143.951 13.1797 144.648 13.9141C 145.346 14.6484 145.695 15.6667 145.695 16.9688C 145.695 18.2448 145.318 19.2682 144.562 20.0391C 143.812 20.8047 142.802 21.1875 141.531 21.1875ZM 141.617 14.2578C 140.909 14.2578 140.349 14.5052 139.938 15C 139.526 15.4948 139.32 16.1771 139.32 17.0469C 139.32 17.8854 139.529 18.5469 139.945 19.0312C 140.362 19.5104 140.919 19.75 141.617 19.75C 142.331 19.75 142.878 19.513 143.258 19.0391C 143.643 18.5651 143.836 17.8906 143.836 17.0156C 143.836 16.1354 143.643 15.4557 143.258 14.9766C 142.878 14.4974 142.331 14.2578 141.617 14.2578ZM 149.391 19.8203L 149.359 19.8203L 149.359 24.6797L 147.547 24.6797L 147.547 13L 149.359 13L 149.359 14.4062L 149.391 14.4062C 150.01 13.3438 150.917 12.8125 152.109 12.8125C 153.125 12.8125 153.917 13.1693 154.484 13.8828C 155.052 14.5964 155.336 15.5547 155.336 16.7578C 155.336 18.0911 155.016 19.1589 154.375 19.9609C 153.734 20.763 152.859 21.1641 151.75 21.1641C 150.729 21.1641 149.943 20.7161 149.391 19.8203ZM 149.344 16.6641L 149.344 17.6562C 149.344 18.2396 149.529 18.7344 149.898 19.1406C 150.273 19.5469 150.747 19.75 151.32 19.75C 151.992 19.75 152.518 19.4896 152.898 18.9688C 153.284 18.4427 153.477 17.7109 153.477 16.7734C 153.477 15.987 153.297 15.3724 152.938 14.9297C 152.583 14.4818 152.102 14.2578 151.492 14.2578C 150.846 14.2578 150.326 14.487 149.93 14.9453C 149.539 15.4036 149.344 15.9766 149.344 16.6641Z"/>
<path id="path5_fill" d="M 70.4219 21L 68.5781 21L 68.5781 13.75C 68.5781 13.1562 68.6146 12.4297 68.6875 11.5703L 68.6562 11.5703C 68.5417 12.0599 68.4401 12.4115 68.3516 12.625L 65.0078 21L 63.7266 21L 60.375 12.6875C 60.2812 12.4427 60.1823 12.0703 60.0781 11.5703L 60.0469 11.5703C 60.0885 12.0182 60.1094 12.75 60.1094 13.7656L 60.1094 21L 58.3906 21L 58.3906 9.79688L 61.0078 9.79688L 63.9531 17.2578C 64.1771 17.8307 64.3229 18.2578 64.3906 18.5391L 64.4297 18.5391C 64.6224 17.9505 64.7786 17.513 64.8984 17.2266L 67.8984 9.79688L 70.4219 9.79688L 70.4219 21ZM 79.125 21L 77.3672 21L 77.3672 19.75L 77.3359 19.75C 76.7839 20.7083 75.974 21.1875 74.9062 21.1875C 74.1198 21.1875 73.5026 20.974 73.0547 20.5469C 72.612 20.1198 72.3906 19.5547 72.3906 18.8516C 72.3906 17.3411 73.2604 16.4609 75 16.2109L 77.375 15.875C 77.375 14.7344 76.8333 14.1641 75.75 14.1641C 74.7969 14.1641 73.9375 14.4922 73.1719 15.1484L 73.1719 13.5625C 74.0156 13.0625 74.9896 12.8125 76.0938 12.8125C 78.1146 12.8125 79.125 13.8073 79.125 15.7969L 79.125 21ZM 77.375 17.0703L 75.6953 17.3047C 75.1745 17.3724 74.7812 17.5 74.5156 17.6875C 74.2552 17.8698 74.125 18.1927 74.125 18.6562C 74.125 18.9948 74.2448 19.2734 74.4844 19.4922C 74.7292 19.7057 75.0547 19.8125 75.4609 19.8125C 76.013 19.8125 76.4688 19.6198 76.8281 19.2344C 77.1927 18.8438 77.375 18.3542 77.375 17.7656L 77.375 17.0703ZM 85.9844 14.7266C 85.7656 14.5547 85.4505 14.4688 85.0391 14.4688C 84.5026 14.4688 84.0547 14.7109 83.6953 15.1953C 83.3359 15.6797 83.1562 16.3385 83.1562 17.1719L 83.1562 21L 81.3438 21L 81.3438 13L 83.1562 13L 83.1562 14.6484L 83.1875 14.6484C 83.3646 14.0859 83.6354 13.6484 84 13.3359C 84.3698 13.0182 84.7812 12.8594 85.2344 12.8594C 85.5625 12.8594 85.8125 12.9089 85.9844 13.0078L 85.9844 14.7266ZM 94.4062 20.3594C 94.4062 23.2969 92.9297 24.7656 89.9766 24.7656C 88.9349 24.7656 88.026 24.5911 87.25 24.2422L 87.25 22.5859C 88.125 23.0859 88.9557 23.3359 89.7422 23.3359C 91.6432 23.3359 92.5938 22.401 92.5938 20.5312L 92.5938 19.6562L 92.5625 19.6562C 91.9635 20.6771 91.0625 21.1875 89.8594 21.1875C 88.8854 21.1875 88.099 20.8333 87.5 20.125C 86.9062 19.4115 86.6094 18.4557 86.6094 17.2578C 86.6094 15.8984 86.9297 14.8177 87.5703 14.0156C 88.2109 13.2135 89.0911 12.8125 90.2109 12.8125C 91.2682 12.8125 92.0521 13.2448 92.5625 14.1094L 92.5938 14.1094L 92.5938 13L 94.4062 13L 94.4062 20.3594ZM 92.6094 17.3359L 92.6094 16.2969C 92.6094 15.7344 92.4219 15.2552 92.0469 14.8594C 91.6771 14.4583 91.2135 14.2578 90.6562 14.2578C 89.9688 14.2578 89.4297 14.513 89.0391 15.0234C 88.6536 15.5286 88.4609 16.237 88.4609 17.1484C 88.4609 17.9349 88.6458 18.5651 89.0156 19.0391C 89.3906 19.5078 89.8854 19.7422 90.5 19.7422C 91.125 19.7422 91.6328 19.5182 92.0234 19.0703C 92.4141 18.6172 92.6094 18.0391 92.6094 17.3359ZM 97.6797 11.3203C 97.3828 11.3203 97.1276 11.224 96.9141 11.0312C 96.7057 10.8385 96.6016 10.5938 96.6016 10.2969C 96.6016 10 96.7057 9.7526 96.9141 9.55469C 97.1276 9.35677 97.3828 9.25781 97.6797 9.25781C 97.987 9.25781 98.2474 9.35677 98.4609 9.55469C 98.6745 9.7526 98.7812 10 98.7812 10.2969C 98.7812 10.5781 98.6745 10.8203 98.4609 11.0234C 98.2474 11.2214 97.987 11.3203 97.6797 11.3203ZM 98.5781 21L 96.7656 21L 96.7656 13L 98.5781 13L 98.5781 21ZM 108.078 21L 106.266 21L 106.266 16.4922C 106.266 14.9974 105.737 14.25 104.68 14.25C 104.128 14.25 103.672 14.4583 103.312 14.875C 102.953 15.2865 102.773 15.8073 102.773 16.4375L 102.773 21L 100.953 21L 100.953 13L 102.773 13L 102.773 14.3281L 102.805 14.3281C 103.404 13.3177 104.268 12.8125 105.398 12.8125C 106.268 12.8125 106.932 13.0964 107.391 13.6641C 107.849 14.2266 108.078 15.0417 108.078 16.1094L 108.078 21ZM 114.508 17.2969L 110.242 17.2969L 110.242 15.9609L 114.508 15.9609L 114.508 17.2969ZM 116.938 21L 116.938 9.79688L 120.492 9.79688C 121.576 9.79688 122.432 10.0339 123.062 10.5078C 123.698 10.9818 124.016 11.599 124.016 12.3594C 124.016 12.9948 123.836 13.5469 123.477 14.0156C 123.117 14.4844 122.62 14.8177 121.984 15.0156L 121.984 15.0469C 122.755 15.1354 123.37 15.4219 123.828 15.9062C 124.292 16.3854 124.523 17.0104 124.523 17.7812C 124.523 18.7396 124.146 19.5156 123.391 20.1094C 122.635 20.7031 121.682 21 120.531 21L 116.938 21ZM 118.789 11.2891L 118.789 14.4766L 119.992 14.4766C 120.638 14.4766 121.143 14.3255 121.508 14.0234C 121.878 13.7161 122.062 13.2839 122.062 12.7266C 122.062 11.7682 121.422 11.2891 120.141 11.2891L 118.789 11.2891ZM 118.789 15.9688L 118.789 19.5156L 120.375 19.5156C 121.068 19.5156 121.602 19.3568 121.977 19.0391C 122.357 18.7161 122.547 18.2734 122.547 17.7109C 122.547 16.5495 121.742 15.9688 120.133 15.9688L 118.789 15.9688ZM 129.953 21.1875C 128.719 21.1875 127.732 20.8151 126.992 20.0703C 126.258 19.3203 125.891 18.3281 125.891 17.0938C 125.891 15.75 126.273 14.7005 127.039 13.9453C 127.81 13.1901 128.846 12.8125 130.148 12.8125C 131.398 12.8125 132.372 13.1797 133.07 13.9141C 133.768 14.6484 134.117 15.6667 134.117 16.9688C 134.117 18.2448 133.74 19.2682 132.984 20.0391C 132.234 20.8047 131.224 21.1875 129.953 21.1875ZM 130.039 14.2578C 129.331 14.2578 128.771 14.5052 128.359 15C 127.948 15.4948 127.742 16.1771 127.742 17.0469C 127.742 17.8854 127.951 18.5469 128.367 19.0312C 128.784 19.5104 129.341 19.75 130.039 19.75C 130.753 19.75 131.299 19.513 131.68 19.0391C 132.065 18.5651 132.258 17.8906 132.258 17.0156C 132.258 16.1354 132.065 15.4557 131.68 14.9766C 131.299 14.4974 130.753 14.2578 130.039 14.2578ZM 140.188 20.9141C 139.833 21.0911 139.367 21.1797 138.789 21.1797C 137.237 21.1797 136.461 20.4349 136.461 18.9453L 136.461 14.4219L 135.125 14.4219L 135.125 13L 136.461 13L 136.461 11.1484L 138.273 10.6328L 138.273 13L 140.188 13L 140.188 14.4219L 138.273 14.4219L 138.273 18.4219C 138.273 18.8958 138.359 19.2344 138.531 19.4375C 138.703 19.6406 138.99 19.7422 139.391 19.7422C 139.698 19.7422 139.964 19.6536 140.188 19.4766L 140.188 20.9141ZM 145.969 20.9141C 145.615 21.0911 145.148 21.1797 144.57 21.1797C 143.018 21.1797 142.242 20.4349 142.242 18.9453L 142.242 14.4219L 140.906 14.4219L 140.906 13L 142.242 13L 142.242 11.1484L 144.055 10.6328L 144.055 13L 145.969 13L 145.969 14.4219L 144.055 14.4219L 144.055 18.4219C 144.055 18.8958 144.141 19.2344 144.312 19.4375C 144.484 19.6406 144.771 19.7422 145.172 19.7422C 145.479 19.7422 145.745 19.6536 145.969 19.4766L 145.969 20.9141ZM 150.984 21.1875C 149.75 21.1875 148.763 20.8151 148.023 20.0703C 147.289 19.3203 146.922 18.3281 146.922 17.0938C 146.922 15.75 147.305 14.7005 148.07 13.9453C 148.841 13.1901 149.878 12.8125 151.18 12.8125C 152.43 12.8125 153.404 13.1797 154.102 13.9141C 154.799 14.6484 155.148 15.6667 155.148 16.9688C 155.148 18.2448 154.771 19.2682 154.016 20.0391C 153.266 20.8047 152.255 21.1875 150.984 21.1875ZM 151.07 14.2578C 150.362 14.2578 149.802 14.5052 149.391 15C 148.979 15.4948 148.773 16.1771 148.773 17.0469C 148.773 17.8854 148.982 18.5469 149.398 19.0312C 149.815 19.5104 150.372 19.75 151.07 19.75C 151.784 19.75 152.331 19.513 152.711 19.0391C 153.096 18.5651 153.289 17.8906 153.289 17.0156C 153.289 16.1354 153.096 15.4557 152.711 14.9766C 152.331 14.4974 151.784 14.2578 151.07 14.2578ZM 168.961 21L 167.148 21L 167.148 16.6406C 167.148 15.8021 167.029 15.1953 166.789 14.8203C 166.555 14.4453 166.156 14.2578 165.594 14.2578C 165.12 14.2578 164.716 14.4948 164.383 14.9688C 164.055 15.4427 163.891 16.0104 163.891 16.6719L 163.891 21L 162.07 21L 162.07 16.4922C 162.07 15.0026 161.544 14.2578 160.492 14.2578C 160.003 14.2578 159.599 14.4818 159.281 14.9297C 158.969 15.3776 158.812 15.9583 158.812 16.6719L 158.812 21L 157 21L 157 13L 158.812 13L 158.812 14.2656L 158.844 14.2656C 159.422 13.2969 160.263 12.8125 161.367 12.8125C 161.919 12.8125 162.401 12.9661 162.812 13.2734C 163.229 13.5755 163.513 13.974 163.664 14.4688C 164.258 13.3646 165.143 12.8125 166.32 12.8125C 168.081 12.8125 168.961 13.8984 168.961 16.0703L 168.961 21Z"/>
<path id="path6_fill" d="M 22.3224 20L 22.3224 8.79688L 25.8771 8.79688C 26.9604 8.79688 27.8172 9.03385 28.4474 9.50781C 29.0828 9.98177 29.4005 10.599 29.4005 11.3594C 29.4005 11.9948 29.2208 12.5469 28.8615 13.0156C 28.5021 13.4844 28.0047 13.8177 27.3693 14.0156L 27.3693 14.0469C 28.1401 14.1354 28.7547 14.4219 29.213 14.9062C 29.6766 15.3854 29.9083 16.0104 29.9083 16.7812C 29.9083 17.7396 29.5307 18.5156 28.7755 19.1094C 28.0203 19.7031 27.0672 20 25.9161 20L 22.3224 20ZM 24.174 10.2891L 24.174 13.4766L 25.3771 13.4766C 26.0229 13.4766 26.5281 13.3255 26.8927 13.0234C 27.2625 12.7161 27.4474 12.2839 27.4474 11.7266C 27.4474 10.7682 26.8068 10.2891 25.5255 10.2891L 24.174 10.2891ZM 24.174 14.9688L 24.174 18.5156L 25.7599 18.5156C 26.4526 18.5156 26.9865 18.3568 27.3615 18.0391C 27.7417 17.7161 27.9318 17.2734 27.9318 16.7109C 27.9318 15.5495 27.1271 14.9688 25.5177 14.9688L 24.174 14.9688ZM 35.338 20.1875C 34.1036 20.1875 33.1167 19.8151 32.3771 19.0703C 31.6427 18.3203 31.2755 17.3281 31.2755 16.0938C 31.2755 14.75 31.6583 13.7005 32.424 12.9453C 33.1948 12.1901 34.2312 11.8125 35.5333 11.8125C 36.7833 11.8125 37.7573 12.1797 38.4552 12.9141C 39.1531 13.6484 39.5021 14.6667 39.5021 15.9688C 39.5021 17.2448 39.1245 18.2682 38.3693 19.0391C 37.6193 19.8047 36.6089 20.1875 35.338 20.1875ZM 35.424 13.2578C 34.7156 13.2578 34.1557 13.5052 33.7443 14C 33.3328 14.4948 33.1271 15.1771 33.1271 16.0469C 33.1271 16.8854 33.3354 17.5469 33.7521 18.0312C 34.1687 18.5104 34.726 18.75 35.424 18.75C 36.1375 18.75 36.6844 18.513 37.0646 18.0391C 37.45 17.5651 37.6427 16.8906 37.6427 16.0156C 37.6427 15.1354 37.45 14.4557 37.0646 13.9766C 36.6844 13.4974 36.1375 13.2578 35.424 13.2578ZM 45.9943 13.7266C 45.7755 13.5547 45.4604 13.4688 45.049 13.4688C 44.5125 13.4688 44.0646 13.7109 43.7052 14.1953C 43.3458 14.6797 43.1661 15.3385 43.1661 16.1719L 43.1661 20L 41.3536 20L 41.3536 12L 43.1661 12L 43.1661 13.6484L 43.1974 13.6484C 43.3745 13.0859 43.6453 12.6484 44.0099 12.3359C 44.3797 12.0182 44.7911 11.8594 45.2443 11.8594C 45.5724 11.8594 45.8224 11.9089 45.9943 12.0078L 45.9943 13.7266ZM 54.4083 20L 52.5958 20L 52.5958 18.6406L 52.5646 18.6406C 51.9812 19.6719 51.0828 20.1875 49.8693 20.1875C 48.8849 20.1875 48.0958 19.8307 47.5021 19.1172C 46.9135 18.3984 46.6193 17.4219 46.6193 16.1875C 46.6193 14.8646 46.9448 13.8047 47.5958 13.0078C 48.2521 12.2109 49.1245 11.8125 50.213 11.8125C 51.2911 11.8125 52.075 12.2448 52.5646 13.1094L 52.5958 13.1094L 52.5958 8.15625L 54.4083 8.15625L 54.4083 20ZM 52.6193 16.3438L 52.6193 15.2969C 52.6193 14.7292 52.4344 14.2474 52.0646 13.8516C 51.6948 13.4557 51.2234 13.2578 50.6505 13.2578C 49.9734 13.2578 49.4396 13.5104 49.049 14.0156C 48.6635 14.5208 48.4708 15.2214 48.4708 16.1172C 48.4708 16.9297 48.6557 17.5729 49.0255 18.0469C 49.4005 18.5156 49.9031 18.75 50.5333 18.75C 51.1531 18.75 51.6557 18.5234 52.0411 18.0703C 52.4266 17.612 52.6193 17.0365 52.6193 16.3438ZM 63.549 16.4922L 58.0958 16.4922C 58.1167 17.2318 58.3432 17.8021 58.7755 18.2031C 59.213 18.6042 59.812 18.8047 60.5724 18.8047C 61.4266 18.8047 62.2104 18.5495 62.924 18.0391L 62.924 19.5C 62.1948 19.9583 61.2312 20.1875 60.0333 20.1875C 58.8562 20.1875 57.9318 19.8255 57.2599 19.1016C 56.5932 18.3724 56.2599 17.349 56.2599 16.0312C 56.2599 14.7865 56.6271 13.7734 57.3615 12.9922C 58.101 12.2057 59.0177 11.8125 60.1115 11.8125C 61.2052 11.8125 62.0516 12.1641 62.6505 12.8672C 63.2495 13.5703 63.549 14.5469 63.549 15.7969L 63.549 16.4922ZM 61.799 15.2109C 61.7937 14.5599 61.6401 14.0547 61.338 13.6953C 61.0359 13.3307 60.6193 13.1484 60.088 13.1484C 59.5672 13.1484 59.1245 13.3385 58.7599 13.7188C 58.4005 14.099 58.1792 14.5964 58.0958 15.2109L 61.799 15.2109ZM 69.9161 13.7266C 69.6974 13.5547 69.3823 13.4688 68.9708 13.4688C 68.4344 13.4688 67.9865 13.7109 67.6271 14.1953C 67.2677 14.6797 67.088 15.3385 67.088 16.1719L 67.088 20L 65.2755 20L 65.2755 12L 67.088 12L 67.088 13.6484L 67.1193 13.6484C 67.2964 13.0859 67.5672 12.6484 67.9318 12.3359C 68.3016 12.0182 68.713 11.8594 69.1661 11.8594C 69.4943 11.8594 69.7443 11.9089 69.9161 12.0078L 69.9161 13.7266Z"/>
<path id="path7_fill" d="M 54.4297 15.9375L 54.4297 20L 52.5781 20L 52.5781 8.79688L 55.9766 8.79688C 57.263 8.79688 58.2604 9.09635 58.9688 9.69531C 59.6771 10.2943 60.0312 11.138 60.0312 12.2266C 60.0312 13.3151 59.6615 14.2057 58.9219 14.8984C 58.1823 15.5911 57.1823 15.9375 55.9219 15.9375L 54.4297 15.9375ZM 54.4297 10.3281L 54.4297 14.4219L 55.6328 14.4219C 56.4297 14.4219 57.0365 14.237 57.4531 13.8672C 57.8698 13.4974 58.0781 12.9766 58.0781 12.3047C 58.0781 10.987 57.3125 10.3281 55.7812 10.3281L 54.4297 10.3281ZM 67.4062 20L 65.6484 20L 65.6484 18.75L 65.6172 18.75C 65.0651 19.7083 64.2552 20.1875 63.1875 20.1875C 62.401 20.1875 61.7839 19.974 61.3359 19.5469C 60.8932 19.1198 60.6719 18.5547 60.6719 17.8516C 60.6719 16.3411 61.5417 15.4609 63.2812 15.2109L 65.6562 14.875C 65.6562 13.7344 65.1146 13.1641 64.0312 13.1641C 63.0781 13.1641 62.2188 13.4922 61.4531 14.1484L 61.4531 12.5625C 62.2969 12.0625 63.2708 11.8125 64.375 11.8125C 66.3958 11.8125 67.4062 12.8073 67.4062 14.7969L 67.4062 20ZM 65.6562 16.0703L 63.9766 16.3047C 63.4557 16.3724 63.0625 16.5 62.7969 16.6875C 62.5365 16.8698 62.4062 17.1927 62.4062 17.6562C 62.4062 17.9948 62.526 18.2734 62.7656 18.4922C 63.0104 18.7057 63.3359 18.8125 63.7422 18.8125C 64.2943 18.8125 64.75 18.6198 65.1094 18.2344C 65.474 17.8438 65.6562 17.3542 65.6562 16.7656L 65.6562 16.0703ZM 76.8984 20L 75.0859 20L 75.0859 18.6406L 75.0547 18.6406C 74.4714 19.6719 73.5729 20.1875 72.3594 20.1875C 71.375 20.1875 70.5859 19.8307 69.9922 19.1172C 69.4036 18.3984 69.1094 17.4219 69.1094 16.1875C 69.1094 14.8646 69.4349 13.8047 70.0859 13.0078C 70.7422 12.2109 71.6146 11.8125 72.7031 11.8125C 73.7812 11.8125 74.5651 12.2448 75.0547 13.1094L 75.0859 13.1094L 75.0859 8.15625L 76.8984 8.15625L 76.8984 20ZM 75.1094 16.3438L 75.1094 15.2969C 75.1094 14.7292 74.9245 14.2474 74.5547 13.8516C 74.1849 13.4557 73.7135 13.2578 73.1406 13.2578C 72.4635 13.2578 71.9297 13.5104 71.5391 14.0156C 71.1536 14.5208 70.9609 15.2214 70.9609 16.1172C 70.9609 16.9297 71.1458 17.5729 71.5156 18.0469C 71.8906 18.5156 72.3932 18.75 73.0234 18.75C 73.6432 18.75 74.1458 18.5234 74.5312 18.0703C 74.9167 17.612 75.1094 17.0365 75.1094 16.3438ZM 86.5391 20L 84.7266 20L 84.7266 18.6406L 84.6953 18.6406C 84.112 19.6719 83.2135 20.1875 82 20.1875C 81.0156 20.1875 80.2266 19.8307 79.6328 19.1172C 79.0443 18.3984 78.75 17.4219 78.75 16.1875C 78.75 14.8646 79.0755 13.8047 79.7266 13.0078C 80.3828 12.2109 81.2552 11.8125 82.3438 11.8125C 83.4219 11.8125 84.2057 12.2448 84.6953 13.1094L 84.7266 13.1094L 84.7266 8.15625L 86.5391 8.15625L 86.5391 20ZM 84.75 16.3438L 84.75 15.2969C 84.75 14.7292 84.5651 14.2474 84.1953 13.8516C 83.8255 13.4557 83.3542 13.2578 82.7812 13.2578C 82.1042 13.2578 81.5703 13.5104 81.1797 14.0156C 80.7943 14.5208 80.6016 15.2214 80.6016 16.1172C 80.6016 16.9297 80.7865 17.5729 81.1562 18.0469C 81.5312 18.5156 82.0339 18.75 82.6641 18.75C 83.2839 18.75 83.7865 18.5234 84.1719 18.0703C 84.5573 17.612 84.75 17.0365 84.75 16.3438ZM 89.8203 10.3203C 89.5234 10.3203 89.2682 10.224 89.0547 10.0312C 88.8464 9.83854 88.7422 9.59375 88.7422 9.29688C 88.7422 9 88.8464 8.7526 89.0547 8.55469C 89.2682 8.35677 89.5234 8.25781 89.8203 8.25781C 90.1276 8.25781 90.388 8.35677 90.6016 8.55469C 90.8151 8.7526 90.9219 9 90.9219 9.29688C 90.9219 9.57812 90.8151 9.82031 90.6016 10.0234C 90.388 10.2214 90.1276 10.3203 89.8203 10.3203ZM 90.7188 20L 88.9062 20L 88.9062 12L 90.7188 12L 90.7188 20ZM 100.219 20L 98.4062 20L 98.4062 15.4922C 98.4062 13.9974 97.8776 13.25 96.8203 13.25C 96.2682 13.25 95.8125 13.4583 95.4531 13.875C 95.0938 14.2865 94.9141 14.8073 94.9141 15.4375L 94.9141 20L 93.0938 20L 93.0938 12L 94.9141 12L 94.9141 13.3281L 94.9453 13.3281C 95.5443 12.3177 96.4089 11.8125 97.5391 11.8125C 98.4089 11.8125 99.0729 12.0964 99.5312 12.6641C 99.9896 13.2266 100.219 14.0417 100.219 15.1094L 100.219 20ZM 109.719 19.3594C 109.719 22.2969 108.242 23.7656 105.289 23.7656C 104.247 23.7656 103.339 23.5911 102.562 23.2422L 102.562 21.5859C 103.438 22.0859 104.268 22.3359 105.055 22.3359C 106.956 22.3359 107.906 21.401 107.906 19.5312L 107.906 18.6562L 107.875 18.6562C 107.276 19.6771 106.375 20.1875 105.172 20.1875C 104.198 20.1875 103.411 19.8333 102.812 19.125C 102.219 18.4115 101.922 17.4557 101.922 16.2578C 101.922 14.8984 102.242 13.8177 102.883 13.0156C 103.523 12.2135 104.404 11.8125 105.523 11.8125C 106.581 11.8125 107.365 12.2448 107.875 13.1094L 107.906 13.1094L 107.906 12L 109.719 12L 109.719 19.3594ZM 107.922 16.3359L 107.922 15.2969C 107.922 14.7344 107.734 14.2552 107.359 13.8594C 106.99 13.4583 106.526 13.2578 105.969 13.2578C 105.281 13.2578 104.742 13.513 104.352 14.0234C 103.966 14.5286 103.773 15.237 103.773 16.1484C 103.773 16.9349 103.958 17.5651 104.328 18.0391C 104.703 18.5078 105.198 18.7422 105.812 18.7422C 106.438 18.7422 106.945 18.5182 107.336 18.0703C 107.727 17.6172 107.922 17.0391 107.922 16.3359ZM 116.289 16.2969L 112.023 16.2969L 112.023 14.9609L 116.289 14.9609L 116.289 16.2969ZM 125.906 10.375L 122.688 10.375L 122.688 20L 120.828 20L 120.828 10.375L 117.617 10.375L 117.617 8.79688L 125.906 8.79688L 125.906 10.375ZM 129.328 20.1875C 128.094 20.1875 127.107 19.8151 126.367 19.0703C 125.633 18.3203 125.266 17.3281 125.266 16.0938C 125.266 14.75 125.648 13.7005 126.414 12.9453C 127.185 12.1901 128.221 11.8125 129.523 11.8125C 130.773 11.8125 131.747 12.1797 132.445 12.9141C 133.143 13.6484 133.492 14.6667 133.492 15.9688C 133.492 17.2448 133.115 18.2682 132.359 19.0391C 131.609 19.8047 130.599 20.1875 129.328 20.1875ZM 129.414 13.2578C 128.706 13.2578 128.146 13.5052 127.734 14C 127.323 14.4948 127.117 15.1771 127.117 16.0469C 127.117 16.8854 127.326 17.5469 127.742 18.0312C 128.159 18.5104 128.716 18.75 129.414 18.75C 130.128 18.75 130.674 18.513 131.055 18.0391C 131.44 17.5651 131.633 16.8906 131.633 16.0156C 131.633 15.1354 131.44 14.4557 131.055 13.9766C 130.674 13.4974 130.128 13.2578 129.414 13.2578ZM 137.188 18.8203L 137.156 18.8203L 137.156 23.6797L 135.344 23.6797L 135.344 12L 137.156 12L 137.156 13.4062L 137.188 13.4062C 137.807 12.3438 138.714 11.8125 139.906 11.8125C 140.922 11.8125 141.714 12.1693 142.281 12.8828C 142.849 13.5964 143.133 14.5547 143.133 15.7578C 143.133 17.0911 142.812 18.1589 142.172 18.9609C 141.531 19.763 140.656 20.1641 139.547 20.1641C 138.526 20.1641 137.74 19.7161 137.188 18.8203ZM 137.141 15.6641L 137.141 16.6562C 137.141 17.2396 137.326 17.7344 137.695 18.1406C 138.07 18.5469 138.544 18.75 139.117 18.75C 139.789 18.75 140.315 18.4896 140.695 17.9688C 141.081 17.4427 141.273 16.7109 141.273 15.7734C 141.273 14.987 141.094 14.3724 140.734 13.9297C 140.38 13.4818 139.898 13.2578 139.289 13.2578C 138.643 13.2578 138.122 13.487 137.727 13.9453C 137.336 14.4036 137.141 14.9766 137.141 15.6641Z"/>
<path id="path8_fill" d="M 88.4453 15.9375L 88.4453 20L 86.5938 20L 86.5938 8.79688L 89.9922 8.79688C 91.2786 8.79688 92.276 9.09635 92.9844 9.69531C 93.6927 10.2943 94.0469 11.138 94.0469 12.2266C 94.0469 13.3151 93.6771 14.2057 92.9375 14.8984C 92.1979 15.5911 91.1979 15.9375 89.9375 15.9375L 88.4453 15.9375ZM 88.4453 10.3281L 88.4453 14.4219L 89.6484 14.4219C 90.4453 14.4219 91.0521 14.237 91.4688 13.8672C 91.8854 13.4974 92.0938 12.9766 92.0938 12.3047C 92.0938 10.987 91.3281 10.3281 89.7969 10.3281L 88.4453 10.3281ZM 101.422 20L 99.6641 20L 99.6641 18.75L 99.6328 18.75C 99.0807 19.7083 98.2708 20.1875 97.2031 20.1875C 96.4167 20.1875 95.7995 19.974 95.3516 19.5469C 94.9089 19.1198 94.6875 18.5547 94.6875 17.8516C 94.6875 16.3411 95.5573 15.4609 97.2969 15.2109L 99.6719 14.875C 99.6719 13.7344 99.1302 13.1641 98.0469 13.1641C 97.0938 13.1641 96.2344 13.4922 95.4688 14.1484L 95.4688 12.5625C 96.3125 12.0625 97.2865 11.8125 98.3906 11.8125C 100.411 11.8125 101.422 12.8073 101.422 14.7969L 101.422 20ZM 99.6719 16.0703L 97.9922 16.3047C 97.4714 16.3724 97.0781 16.5 96.8125 16.6875C 96.5521 16.8698 96.4219 17.1927 96.4219 17.6562C 96.4219 17.9948 96.5417 18.2734 96.7812 18.4922C 97.026 18.7057 97.3516 18.8125 97.7578 18.8125C 98.3099 18.8125 98.7656 18.6198 99.125 18.2344C 99.4896 17.8438 99.6719 17.3542 99.6719 16.7656L 99.6719 16.0703ZM 110.914 20L 109.102 20L 109.102 18.6406L 109.07 18.6406C 108.487 19.6719 107.589 20.1875 106.375 20.1875C 105.391 20.1875 104.602 19.8307 104.008 19.1172C 103.419 18.3984 103.125 17.4219 103.125 16.1875C 103.125 14.8646 103.451 13.8047 104.102 13.0078C 104.758 12.2109 105.63 11.8125 106.719 11.8125C 107.797 11.8125 108.581 12.2448 109.07 13.1094L 109.102 13.1094L 109.102 8.15625L 110.914 8.15625L 110.914 20ZM 109.125 16.3438L 109.125 15.2969C 109.125 14.7292 108.94 14.2474 108.57 13.8516C 108.201 13.4557 107.729 13.2578 107.156 13.2578C 106.479 13.2578 105.945 13.5104 105.555 14.0156C 105.169 14.5208 104.977 15.2214 104.977 16.1172C 104.977 16.9297 105.161 17.5729 105.531 18.0469C 105.906 18.5156 106.409 18.75 107.039 18.75C 107.659 18.75 108.161 18.5234 108.547 18.0703C 108.932 17.612 109.125 17.0365 109.125 16.3438ZM 120.555 20L 118.742 20L 118.742 18.6406L 118.711 18.6406C 118.128 19.6719 117.229 20.1875 116.016 20.1875C 115.031 20.1875 114.242 19.8307 113.648 19.1172C 113.06 18.3984 112.766 17.4219 112.766 16.1875C 112.766 14.8646 113.091 13.8047 113.742 13.0078C 114.398 12.2109 115.271 11.8125 116.359 11.8125C 117.438 11.8125 118.221 12.2448 118.711 13.1094L 118.742 13.1094L 118.742 8.15625L 120.555 8.15625L 120.555 20ZM 118.766 16.3438L 118.766 15.2969C 118.766 14.7292 118.581 14.2474 118.211 13.8516C 117.841 13.4557 117.37 13.2578 116.797 13.2578C 116.12 13.2578 115.586 13.5104 115.195 14.0156C 114.81 14.5208 114.617 15.2214 114.617 16.1172C 114.617 16.9297 114.802 17.5729 115.172 18.0469C 115.547 18.5156 116.049 18.75 116.68 18.75C 117.299 18.75 117.802 18.5234 118.188 18.0703C 118.573 17.612 118.766 17.0365 118.766 16.3438ZM 123.836 10.3203C 123.539 10.3203 123.284 10.224 123.07 10.0312C 122.862 9.83854 122.758 9.59375 122.758 9.29688C 122.758 9 122.862 8.7526 123.07 8.55469C 123.284 8.35677 123.539 8.25781 123.836 8.25781C 124.143 8.25781 124.404 8.35677 124.617 8.55469C 124.831 8.7526 124.938 9 124.938 9.29688C 124.938 9.57812 124.831 9.82031 124.617 10.0234C 124.404 10.2214 124.143 10.3203 123.836 10.3203ZM 124.734 20L 122.922 20L 122.922 12L 124.734 12L 124.734 20ZM 134.234 20L 132.422 20L 132.422 15.4922C 132.422 13.9974 131.893 13.25 130.836 13.25C 130.284 13.25 129.828 13.4583 129.469 13.875C 129.109 14.2865 128.93 14.8073 128.93 15.4375L 128.93 20L 127.109 20L 127.109 12L 128.93 12L 128.93 13.3281L 128.961 13.3281C 129.56 12.3177 130.424 11.8125 131.555 11.8125C 132.424 11.8125 133.089 12.0964 133.547 12.6641C 134.005 13.2266 134.234 14.0417 134.234 15.1094L 134.234 20ZM 143.734 19.3594C 143.734 22.2969 142.258 23.7656 139.305 23.7656C 138.263 23.7656 137.354 23.5911 136.578 23.2422L 136.578 21.5859C 137.453 22.0859 138.284 22.3359 139.07 22.3359C 140.971 22.3359 141.922 21.401 141.922 19.5312L 141.922 18.6562L 141.891 18.6562C 141.292 19.6771 140.391 20.1875 139.188 20.1875C 138.214 20.1875 137.427 19.8333 136.828 19.125C 136.234 18.4115 135.938 17.4557 135.938 16.2578C 135.938 14.8984 136.258 13.8177 136.898 13.0156C 137.539 12.2135 138.419 11.8125 139.539 11.8125C 140.596 11.8125 141.38 12.2448 141.891 13.1094L 141.922 13.1094L 141.922 12L 143.734 12L 143.734 19.3594ZM 141.938 16.3359L 141.938 15.2969C 141.938 14.7344 141.75 14.2552 141.375 13.8594C 141.005 13.4583 140.542 13.2578 139.984 13.2578C 139.297 13.2578 138.758 13.513 138.367 14.0234C 137.982 14.5286 137.789 15.237 137.789 16.1484C 137.789 16.9349 137.974 17.5651 138.344 18.0391C 138.719 18.5078 139.214 18.7422 139.828 18.7422C 140.453 18.7422 140.961 18.5182 141.352 18.0703C 141.742 17.6172 141.938 17.0391 141.938 16.3359ZM 150.305 16.2969L 146.039 16.2969L 146.039 14.9609L 150.305 14.9609L 150.305 16.2969ZM 152.734 20L 152.734 8.79688L 156.289 8.79688C 157.372 8.79688 158.229 9.03385 158.859 9.50781C 159.495 9.98177 159.812 10.599 159.812 11.3594C 159.812 11.9948 159.633 12.5469 159.273 13.0156C 158.914 13.4844 158.417 13.8177 157.781 14.0156L 157.781 14.0469C 158.552 14.1354 159.167 14.4219 159.625 14.9062C 160.089 15.3854 160.32 16.0104 160.32 16.7812C 160.32 17.7396 159.943 18.5156 159.188 19.1094C 158.432 19.7031 157.479 20 156.328 20L 152.734 20ZM 154.586 10.2891L 154.586 13.4766L 155.789 13.4766C 156.435 13.4766 156.94 13.3255 157.305 13.0234C 157.674 12.7161 157.859 12.2839 157.859 11.7266C 157.859 10.7682 157.219 10.2891 155.938 10.2891L 154.586 10.2891ZM 154.586 14.9688L 154.586 18.5156L 156.172 18.5156C 156.865 18.5156 157.398 18.3568 157.773 18.0391C 158.154 17.7161 158.344 17.2734 158.344 16.7109C 158.344 15.5495 157.539 14.9688 155.93 14.9688L 154.586 14.9688ZM 165.75 20.1875C 164.516 20.1875 163.529 19.8151 162.789 19.0703C 162.055 18.3203 161.688 17.3281 161.688 16.0938C 161.688 14.75 162.07 13.7005 162.836 12.9453C 163.607 12.1901 164.643 11.8125 165.945 11.8125C 167.195 11.8125 168.169 12.1797 168.867 12.9141C 169.565 13.6484 169.914 14.6667 169.914 15.9688C 169.914 17.2448 169.536 18.2682 168.781 19.0391C 168.031 19.8047 167.021 20.1875 165.75 20.1875ZM 165.836 13.2578C 165.128 13.2578 164.568 13.5052 164.156 14C 163.745 14.4948 163.539 15.1771 163.539 16.0469C 163.539 16.8854 163.747 17.5469 164.164 18.0312C 164.581 18.5104 165.138 18.75 165.836 18.75C 166.549 18.75 167.096 18.513 167.477 18.0391C 167.862 17.5651 168.055 16.8906 168.055 16.0156C 168.055 15.1354 167.862 14.4557 167.477 13.9766C 167.096 13.4974 166.549 13.2578 165.836 13.2578ZM 175.984 19.9141C 175.63 20.0911 175.164 20.1797 174.586 20.1797C 173.034 20.1797 172.258 19.4349 172.258 17.9453L 172.258 13.4219L 170.922 13.4219L 170.922 12L 172.258 12L 172.258 10.1484L 174.07 9.63281L 174.07 12L 175.984 12L 175.984 13.4219L 174.07 13.4219L 174.07 17.4219C 174.07 17.8958 174.156 18.2344 174.328 18.4375C 174.5 18.6406 174.786 18.7422 175.188 18.7422C 175.495 18.7422 175.76 18.6536 175.984 18.4766L 175.984 19.9141ZM 181.766 19.9141C 181.411 20.0911 180.945 20.1797 180.367 20.1797C 178.815 20.1797 178.039 19.4349 178.039 17.9453L 178.039 13.4219L 176.703 13.4219L 176.703 12L 178.039 12L 178.039 10.1484L 179.852 9.63281L 179.852 12L 181.766 12L 181.766 13.4219L 179.852 13.4219L 179.852 17.4219C 179.852 17.8958 179.938 18.2344 180.109 18.4375C 180.281 18.6406 180.568 18.7422 180.969 18.7422C 181.276 18.7422 181.542 18.6536 181.766 18.4766L 181.766 19.9141ZM 186.781 20.1875C 185.547 20.1875 184.56 19.8151 183.82 19.0703C 183.086 18.3203 182.719 17.3281 182.719 16.0938C 182.719 14.75 183.102 13.7005 183.867 12.9453C 184.638 12.1901 185.674 11.8125 186.977 11.8125C 188.227 11.8125 189.201 12.1797 189.898 12.9141C 190.596 13.6484 190.945 14.6667 190.945 15.9688C 190.945 17.2448 190.568 18.2682 189.812 19.0391C 189.062 19.8047 188.052 20.1875 186.781 20.1875ZM 186.867 13.2578C 186.159 13.2578 185.599 13.5052 185.188 14C 184.776 14.4948 184.57 15.1771 184.57 16.0469C 184.57 16.8854 184.779 17.5469 185.195 18.0312C 185.612 18.5104 186.169 18.75 186.867 18.75C 187.581 18.75 188.128 18.513 188.508 18.0391C 188.893 17.5651 189.086 16.8906 189.086 16.0156C 189.086 15.1354 188.893 14.4557 188.508 13.9766C 188.128 13.4974 187.581 13.2578 186.867 13.2578ZM 204.758 20L 202.945 20L 202.945 15.6406C 202.945 14.8021 202.826 14.1953 202.586 13.8203C 202.352 13.4453 201.953 13.2578 201.391 13.2578C 200.917 13.2578 200.513 13.4948 200.18 13.9688C 199.852 14.4427 199.688 15.0104 199.688 15.6719L 199.688 20L 197.867 20L 197.867 15.4922C 197.867 14.0026 197.341 13.2578 196.289 13.2578C 195.799 13.2578 195.396 13.4818 195.078 13.9297C 194.766 14.3776 194.609 14.9583 194.609 15.6719L 194.609 20L 192.797 20L 192.797 12L 194.609 12L 194.609 13.2656L 194.641 13.2656C 195.219 12.2969 196.06 11.8125 197.164 11.8125C 197.716 11.8125 198.198 11.9661 198.609 12.2734C 199.026 12.5755 199.31 12.974 199.461 13.4688C 200.055 12.3646 200.94 11.8125 202.117 11.8125C 203.878 11.8125 204.758 12.8984 204.758 15.0703L 204.758 20Z"/>
<path id="path9_fill" d="M 18.84 17.5312C 17.9962 17.9688 16.9467 18.1875 15.6915 18.1875C 14.0665 18.1875 12.7644 17.6745 11.7853 16.6484C 10.8061 15.6224 10.3165 14.276 10.3165 12.6094C 10.3165 10.8177 10.866 9.36979 11.965 8.26562C 13.0691 7.16146 14.4623 6.60938 16.1446 6.60938C 17.228 6.60938 18.1264 6.76302 18.84 7.07031L 18.84 8.91406C 18.0847 8.46615 17.2514 8.24219 16.34 8.24219C 15.1264 8.24219 14.142 8.63021 13.3868 9.40625C 12.6368 10.1823 12.2618 11.2188 12.2618 12.5156C 12.2618 13.75 12.6134 14.7344 13.3165 15.4688C 14.0196 16.1979 14.9441 16.5625 16.09 16.5625C 17.1472 16.5625 18.0639 16.3125 18.84 15.8125L 18.84 17.5312ZM 24.3087 18.1875C 23.0743 18.1875 22.0873 17.8151 21.3478 17.0703C 20.6134 16.3203 20.2462 15.3281 20.2462 14.0938C 20.2462 12.75 20.629 11.7005 21.3946 10.9453C 22.1655 10.1901 23.2019 9.8125 24.504 9.8125C 25.754 9.8125 26.728 10.1797 27.4259 10.9141C 28.1238 11.6484 28.4728 12.6667 28.4728 13.9688C 28.4728 15.2448 28.0952 16.2682 27.34 17.0391C 26.59 17.8047 25.5795 18.1875 24.3087 18.1875ZM 24.3946 11.2578C 23.6863 11.2578 23.1264 11.5052 22.715 12C 22.3035 12.4948 22.0978 13.1771 22.0978 14.0469C 22.0978 14.8854 22.3061 15.5469 22.7228 16.0312C 23.1394 16.5104 23.6967 16.75 24.3946 16.75C 25.1082 16.75 25.6551 16.513 26.0353 16.0391C 26.4207 15.5651 26.6134 14.8906 26.6134 14.0156C 26.6134 13.1354 26.4207 12.4557 26.0353 11.9766C 25.6551 11.4974 25.1082 11.2578 24.3946 11.2578ZM 37.4493 18L 35.6368 18L 35.6368 13.4922C 35.6368 11.9974 35.1082 11.25 34.0509 11.25C 33.4988 11.25 33.0431 11.4583 32.6837 11.875C 32.3243 12.2865 32.1446 12.8073 32.1446 13.4375L 32.1446 18L 30.3243 18L 30.3243 10L 32.1446 10L 32.1446 11.3281L 32.1759 11.3281C 32.7748 10.3177 33.6394 9.8125 34.7696 9.8125C 35.6394 9.8125 36.3035 10.0964 36.7618 10.6641C 37.2202 11.2266 37.4493 12.0417 37.4493 13.1094L 37.4493 18ZM 43.8868 17.9141C 43.5327 18.0911 43.0665 18.1797 42.4884 18.1797C 40.9363 18.1797 40.1603 17.4349 40.1603 15.9453L 40.1603 11.4219L 38.8243 11.4219L 38.8243 10L 40.1603 10L 40.1603 8.14844L 41.9728 7.63281L 41.9728 10L 43.8868 10L 43.8868 11.4219L 41.9728 11.4219L 41.9728 15.4219C 41.9728 15.8958 42.0587 16.2344 42.2306 16.4375C 42.4025 16.6406 42.6889 16.7422 43.09 16.7422C 43.3972 16.7422 43.6629 16.6536 43.8868 16.4766L 43.8868 17.9141ZM 52.129 14.4922L 46.6759 14.4922C 46.6967 15.2318 46.9233 15.8021 47.3556 16.2031C 47.7931 16.6042 48.392 16.8047 49.1525 16.8047C 50.0066 16.8047 50.7905 16.5495 51.504 16.0391L 51.504 17.5C 50.7748 17.9583 49.8113 18.1875 48.6134 18.1875C 47.4363 18.1875 46.5118 17.8255 45.84 17.1016C 45.1733 16.3724 44.84 15.349 44.84 14.0312C 44.84 12.7865 45.2071 11.7734 45.9415 10.9922C 46.6811 10.2057 47.5978 9.8125 48.6915 9.8125C 49.7853 9.8125 50.6316 10.1641 51.2306 10.8672C 51.8295 11.5703 52.129 12.5469 52.129 13.7969L 52.129 14.4922ZM 50.379 13.2109C 50.3738 12.5599 50.2202 12.0547 49.9181 11.6953C 49.616 11.3307 49.1993 11.1484 48.6681 11.1484C 48.1472 11.1484 47.7045 11.3385 47.34 11.7188C 46.9806 12.099 46.7592 12.5964 46.6759 13.2109L 50.379 13.2109ZM 60.9806 18L 59.1681 18L 59.1681 13.4922C 59.1681 11.9974 58.6394 11.25 57.5821 11.25C 57.0301 11.25 56.5743 11.4583 56.215 11.875C 55.8556 12.2865 55.6759 12.8073 55.6759 13.4375L 55.6759 18L 53.8556 18L 53.8556 10L 55.6759 10L 55.6759 11.3281L 55.7071 11.3281C 56.3061 10.3177 57.1707 9.8125 58.3009 9.8125C 59.1707 9.8125 59.8347 10.0964 60.2931 10.6641C 60.7514 11.2266 60.9806 12.0417 60.9806 13.1094L 60.9806 18ZM 67.4181 17.9141C 67.0639 18.0911 66.5978 18.1797 66.0196 18.1797C 64.4676 18.1797 63.6915 17.4349 63.6915 15.9453L 63.6915 11.4219L 62.3556 11.4219L 62.3556 10L 63.6915 10L 63.6915 8.14844L 65.504 7.63281L 65.504 10L 67.4181 10L 67.4181 11.4219L 65.504 11.4219L 65.504 15.4219C 65.504 15.8958 65.59 16.2344 65.7618 16.4375C 65.9337 16.6406 66.2202 16.7422 66.6212 16.7422C 66.9285 16.7422 67.1941 16.6536 67.4181 16.4766L 67.4181 17.9141Z"/>
<path id="path10_fill" d="M 0 0L 160 0L 160 200L 0 200L 0 0Z"/>
<path id="path11_fill" d="M 3.23438 15.9375L 3.23438 20L 1.38281 20L 1.38281 8.79688L 4.78125 8.79688C 6.06771 8.79688 7.0651 9.09635 7.77344 9.69531C 8.48177 10.2943 8.83594 11.138 8.83594 12.2266C 8.83594 13.3151 8.46615 14.2057 7.72656 14.8984C 6.98698 15.5911 5.98698 15.9375 4.72656 15.9375L 3.23438 15.9375ZM 3.23438 10.3281L 3.23438 14.4219L 4.4375 14.4219C 5.23438 14.4219 5.84115 14.237 6.25781 13.8672C 6.67448 13.4974 6.88281 12.9766 6.88281 12.3047C 6.88281 10.987 6.11719 10.3281 4.58594 10.3281L 3.23438 10.3281ZM 16.2109 20L 14.4531 20L 14.4531 18.75L 14.4219 18.75C 13.8698 19.7083 13.0599 20.1875 11.9922 20.1875C 11.2057 20.1875 10.5885 19.974 10.1406 19.5469C 9.69792 19.1198 9.47656 18.5547 9.47656 17.8516C 9.47656 16.3411 10.3464 15.4609 12.0859 15.2109L 14.4609 14.875C 14.4609 13.7344 13.9193 13.1641 12.8359 13.1641C 11.8828 13.1641 11.0234 13.4922 10.2578 14.1484L 10.2578 12.5625C 11.1016 12.0625 12.0755 11.8125 13.1797 11.8125C 15.2005 11.8125 16.2109 12.8073 16.2109 14.7969L 16.2109 20ZM 14.4609 16.0703L 12.7812 16.3047C 12.2604 16.3724 11.8672 16.5 11.6016 16.6875C 11.3411 16.8698 11.2109 17.1927 11.2109 17.6562C 11.2109 17.9948 11.3307 18.2734 11.5703 18.4922C 11.8151 18.7057 12.1406 18.8125 12.5469 18.8125C 13.099 18.8125 13.5547 18.6198 13.9141 18.2344C 14.2786 17.8438 14.4609 17.3542 14.4609 16.7656L 14.4609 16.0703ZM 25.7031 20L 23.8906 20L 23.8906 18.6406L 23.8594 18.6406C 23.276 19.6719 22.3776 20.1875 21.1641 20.1875C 20.1797 20.1875 19.3906 19.8307 18.7969 19.1172C 18.2083 18.3984 17.9141 17.4219 17.9141 16.1875C 17.9141 14.8646 18.2396 13.8047 18.8906 13.0078C 19.5469 12.2109 20.4193 11.8125 21.5078 11.8125C 22.5859 11.8125 23.3698 12.2448 23.8594 13.1094L 23.8906 13.1094L 23.8906 8.15625L 25.7031 8.15625L 25.7031 20ZM 23.9141 16.3438L 23.9141 15.2969C 23.9141 14.7292 23.7292 14.2474 23.3594 13.8516C 22.9896 13.4557 22.5182 13.2578 21.9453 13.2578C 21.2682 13.2578 20.7344 13.5104 20.3438 14.0156C 19.9583 14.5208 19.7656 15.2214 19.7656 16.1172C 19.7656 16.9297 19.9505 17.5729 20.3203 18.0469C 20.6953 18.5156 21.1979 18.75 21.8281 18.75C 22.4479 18.75 22.9505 18.5234 23.3359 18.0703C 23.7214 17.612 23.9141 17.0365 23.9141 16.3438ZM 35.3438 20L 33.5312 20L 33.5312 18.6406L 33.5 18.6406C 32.9167 19.6719 32.0182 20.1875 30.8047 20.1875C 29.8203 20.1875 29.0312 19.8307 28.4375 19.1172C 27.849 18.3984 27.5547 17.4219 27.5547 16.1875C 27.5547 14.8646 27.8802 13.8047 28.5312 13.0078C 29.1875 12.2109 30.0599 11.8125 31.1484 11.8125C 32.2266 11.8125 33.0104 12.2448 33.5 13.1094L 33.5312 13.1094L 33.5312 8.15625L 35.3438 8.15625L 35.3438 20ZM 33.5547 16.3438L 33.5547 15.2969C 33.5547 14.7292 33.3698 14.2474 33 13.8516C 32.6302 13.4557 32.1589 13.2578 31.5859 13.2578C 30.9089 13.2578 30.375 13.5104 29.9844 14.0156C 29.599 14.5208 29.4062 15.2214 29.4062 16.1172C 29.4062 16.9297 29.5911 17.5729 29.9609 18.0469C 30.3359 18.5156 30.8385 18.75 31.4688 18.75C 32.0885 18.75 32.5911 18.5234 32.9766 18.0703C 33.362 17.612 33.5547 17.0365 33.5547 16.3438ZM 38.625 10.3203C 38.3281 10.3203 38.0729 10.224 37.8594 10.0312C 37.651 9.83854 37.5469 9.59375 37.5469 9.29688C 37.5469 9 37.651 8.7526 37.8594 8.55469C 38.0729 8.35677 38.3281 8.25781 38.625 8.25781C 38.9323 8.25781 39.1927 8.35677 39.4062 8.55469C 39.6198 8.7526 39.7266 9 39.7266 9.29688C 39.7266 9.57812 39.6198 9.82031 39.4062 10.0234C 39.1927 10.2214 38.9323 10.3203 38.625 10.3203ZM 39.5234 20L 37.7109 20L 37.7109 12L 39.5234 12L 39.5234 20ZM 49.0234 20L 47.2109 20L 47.2109 15.4922C 47.2109 13.9974 46.6823 13.25 45.625 13.25C 45.0729 13.25 44.6172 13.4583 44.2578 13.875C 43.8984 14.2865 43.7188 14.8073 43.7188 15.4375L 43.7188 20L 41.8984 20L 41.8984 12L 43.7188 12L 43.7188 13.3281L 43.75 13.3281C 44.349 12.3177 45.2135 11.8125 46.3438 11.8125C 47.2135 11.8125 47.8776 12.0964 48.3359 12.6641C 48.7943 13.2266 49.0234 14.0417 49.0234 15.1094L 49.0234 20ZM 58.5234 19.3594C 58.5234 22.2969 57.0469 23.7656 54.0938 23.7656C 53.0521 23.7656 52.1432 23.5911 51.3672 23.2422L 51.3672 21.5859C 52.2422 22.0859 53.0729 22.3359 53.8594 22.3359C 55.7604 22.3359 56.7109 21.401 56.7109 19.5312L 56.7109 18.6562L 56.6797 18.6562C 56.0807 19.6771 55.1797 20.1875 53.9766 20.1875C 53.0026 20.1875 52.2161 19.8333 51.6172 19.125C 51.0234 18.4115 50.7266 17.4557 50.7266 16.2578C 50.7266 14.8984 51.0469 13.8177 51.6875 13.0156C 52.3281 12.2135 53.2083 11.8125 54.3281 11.8125C 55.3854 11.8125 56.1693 12.2448 56.6797 13.1094L 56.7109 13.1094L 56.7109 12L 58.5234 12L 58.5234 19.3594ZM 56.7266 16.3359L 56.7266 15.2969C 56.7266 14.7344 56.5391 14.2552 56.1641 13.8594C 55.7943 13.4583 55.3307 13.2578 54.7734 13.2578C 54.0859 13.2578 53.5469 13.513 53.1562 14.0234C 52.7708 14.5286 52.5781 15.237 52.5781 16.1484C 52.5781 16.9349 52.763 17.5651 53.1328 18.0391C 53.5078 18.5078 54.0026 18.7422 54.6172 18.7422C 55.2422 18.7422 55.75 18.5182 56.1406 18.0703C 56.5312 17.6172 56.7266 17.0391 56.7266 16.3359ZM 65.0938 16.2969L 60.8281 16.2969L 60.8281 14.9609L 65.0938 14.9609L 65.0938 16.2969ZM 73.7266 20L 67.5234 20L 67.5234 8.79688L 69.3828 8.79688L 69.3828 18.4297L 73.7266 18.4297L 73.7266 20ZM 81.9219 16.4922L 76.4688 16.4922C 76.4896 17.2318 76.7161 17.8021 77.1484 18.2031C 77.5859 18.6042 78.1849 18.8047 78.9453 18.8047C 79.7995 18.8047 80.5833 18.5495 81.2969 18.0391L 81.2969 19.5C 80.5677 19.9583 79.6042 20.1875 78.4062 20.1875C 77.2292 20.1875 76.3047 19.8255 75.6328 19.1016C 74.9661 18.3724 74.6328 17.349 74.6328 16.0312C 74.6328 14.7865 75 13.7734 75.7344 12.9922C 76.474 12.2057 77.3906 11.8125 78.4844 11.8125C 79.5781 11.8125 80.4245 12.1641 81.0234 12.8672C 81.6224 13.5703 81.9219 14.5469 81.9219 15.7969L 81.9219 16.4922ZM 80.1719 15.2109C 80.1667 14.5599 80.013 14.0547 79.7109 13.6953C 79.4089 13.3307 78.9922 13.1484 78.4609 13.1484C 77.9401 13.1484 77.4974 13.3385 77.1328 13.7188C 76.7734 14.099 76.5521 14.5964 76.4688 15.2109L 80.1719 15.2109ZM 88.1719 9.63281C 87.9271 9.49219 87.6484 9.42188 87.3359 9.42188C 86.4557 9.42188 86.0156 9.91927 86.0156 10.9141L 86.0156 12L 87.875 12L 87.875 13.4219L 86.0234 13.4219L 86.0234 20L 84.2109 20L 84.2109 13.4219L 82.8438 13.4219L 82.8438 12L 84.2109 12L 84.2109 10.7031C 84.2109 9.85938 84.487 9.19531 85.0391 8.71094C 85.5911 8.22135 86.2812 7.97656 87.1094 7.97656C 87.5573 7.97656 87.9115 8.02604 88.1719 8.125L 88.1719 9.63281ZM 93.6797 19.9141C 93.3255 20.0911 92.8594 20.1797 92.2812 20.1797C 90.7292 20.1797 89.9531 19.4349 89.9531 17.9453L 89.9531 13.4219L 88.6172 13.4219L 88.6172 12L 89.9531 12L 89.9531 10.1484L 91.7656 9.63281L 91.7656 12L 93.6797 12L 93.6797 13.4219L 91.7656 13.4219L 91.7656 17.4219C 91.7656 17.8958 91.8516 18.2344 92.0234 18.4375C 92.1953 18.6406 92.4818 18.7422 92.8828 18.7422C 93.1901 18.7422 93.4557 18.6536 93.6797 18.4766L 93.6797 19.9141Z"/>
<path id="path12_fill" d="M 3.23438 15.9375L 3.23438 20L 1.38281 20L 1.38281 8.79688L 4.78125 8.79688C 6.06771 8.79688 7.0651 9.09635 7.77344 9.69531C 8.48177 10.2943 8.83594 11.138 8.83594 12.2266C 8.83594 13.3151 8.46615 14.2057 7.72656 14.8984C 6.98698 15.5911 5.98698 15.9375 4.72656 15.9375L 3.23438 15.9375ZM 3.23438 10.3281L 3.23438 14.4219L 4.4375 14.4219C 5.23438 14.4219 5.84115 14.237 6.25781 13.8672C 6.67448 13.4974 6.88281 12.9766 6.88281 12.3047C 6.88281 10.987 6.11719 10.3281 4.58594 10.3281L 3.23438 10.3281ZM 16.2109 20L 14.4531 20L 14.4531 18.75L 14.4219 18.75C 13.8698 19.7083 13.0599 20.1875 11.9922 20.1875C 11.2057 20.1875 10.5885 19.974 10.1406 19.5469C 9.69792 19.1198 9.47656 18.5547 9.47656 17.8516C 9.47656 16.3411 10.3464 15.4609 12.0859 15.2109L 14.4609 14.875C 14.4609 13.7344 13.9193 13.1641 12.8359 13.1641C 11.8828 13.1641 11.0234 13.4922 10.2578 14.1484L 10.2578 12.5625C 11.1016 12.0625 12.0755 11.8125 13.1797 11.8125C 15.2005 11.8125 16.2109 12.8073 16.2109 14.7969L 16.2109 20ZM 14.4609 16.0703L 12.7812 16.3047C 12.2604 16.3724 11.8672 16.5 11.6016 16.6875C 11.3411 16.8698 11.2109 17.1927 11.2109 17.6562C 11.2109 17.9948 11.3307 18.2734 11.5703 18.4922C 11.8151 18.7057 12.1406 18.8125 12.5469 18.8125C 13.099 18.8125 13.5547 18.6198 13.9141 18.2344C 14.2786 17.8438 14.4609 17.3542 14.4609 16.7656L 14.4609 16.0703ZM 25.7031 20L 23.8906 20L 23.8906 18.6406L 23.8594 18.6406C 23.276 19.6719 22.3776 20.1875 21.1641 20.1875C 20.1797 20.1875 19.3906 19.8307 18.7969 19.1172C 18.2083 18.3984 17.9141 17.4219 17.9141 16.1875C 17.9141 14.8646 18.2396 13.8047 18.8906 13.0078C 19.5469 12.2109 20.4193 11.8125 21.5078 11.8125C 22.5859 11.8125 23.3698 12.2448 23.8594 13.1094L 23.8906 13.1094L 23.8906 8.15625L 25.7031 8.15625L 25.7031 20ZM 23.9141 16.3438L 23.9141 15.2969C 23.9141 14.7292 23.7292 14.2474 23.3594 13.8516C 22.9896 13.4557 22.5182 13.2578 21.9453 13.2578C 21.2682 13.2578 20.7344 13.5104 20.3438 14.0156C 19.9583 14.5208 19.7656 15.2214 19.7656 16.1172C 19.7656 16.9297 19.9505 17.5729 20.3203 18.0469C 20.6953 18.5156 21.1979 18.75 21.8281 18.75C 22.4479 18.75 22.9505 18.5234 23.3359 18.0703C 23.7214 17.612 23.9141 17.0365 23.9141 16.3438ZM 35.3438 20L 33.5312 20L 33.5312 18.6406L 33.5 18.6406C 32.9167 19.6719 32.0182 20.1875 30.8047 20.1875C 29.8203 20.1875 29.0312 19.8307 28.4375 19.1172C 27.849 18.3984 27.5547 17.4219 27.5547 16.1875C 27.5547 14.8646 27.8802 13.8047 28.5312 13.0078C 29.1875 12.2109 30.0599 11.8125 31.1484 11.8125C 32.2266 11.8125 33.0104 12.2448 33.5 13.1094L 33.5312 13.1094L 33.5312 8.15625L 35.3438 8.15625L 35.3438 20ZM 33.5547 16.3438L 33.5547 15.2969C 33.5547 14.7292 33.3698 14.2474 33 13.8516C 32.6302 13.4557 32.1589 13.2578 31.5859 13.2578C 30.9089 13.2578 30.375 13.5104 29.9844 14.0156C 29.599 14.5208 29.4062 15.2214 29.4062 16.1172C 29.4062 16.9297 29.5911 17.5729 29.9609 18.0469C 30.3359 18.5156 30.8385 18.75 31.4688 18.75C 32.0885 18.75 32.5911 18.5234 32.9766 18.0703C 33.362 17.612 33.5547 17.0365 33.5547 16.3438ZM 38.625 10.3203C 38.3281 10.3203 38.0729 10.224 37.8594 10.0312C 37.651 9.83854 37.5469 9.59375 37.5469 9.29688C 37.5469 9 37.651 8.7526 37.8594 8.55469C 38.0729 8.35677 38.3281 8.25781 38.625 8.25781C 38.9323 8.25781 39.1927 8.35677 39.4062 8.55469C 39.6198 8.7526 39.7266 9 39.7266 9.29688C 39.7266 9.57812 39.6198 9.82031 39.4062 10.0234C 39.1927 10.2214 38.9323 10.3203 38.625 10.3203ZM 39.5234 20L 37.7109 20L 37.7109 12L 39.5234 12L 39.5234 20ZM 49.0234 20L 47.2109 20L 47.2109 15.4922C 47.2109 13.9974 46.6823 13.25 45.625 13.25C 45.0729 13.25 44.6172 13.4583 44.2578 13.875C 43.8984 14.2865 43.7188 14.8073 43.7188 15.4375L 43.7188 20L 41.8984 20L 41.8984 12L 43.7188 12L 43.7188 13.3281L 43.75 13.3281C 44.349 12.3177 45.2135 11.8125 46.3438 11.8125C 47.2135 11.8125 47.8776 12.0964 48.3359 12.6641C 48.7943 13.2266 49.0234 14.0417 49.0234 15.1094L 49.0234 20ZM 58.5234 19.3594C 58.5234 22.2969 57.0469 23.7656 54.0938 23.7656C 53.0521 23.7656 52.1432 23.5911 51.3672 23.2422L 51.3672 21.5859C 52.2422 22.0859 53.0729 22.3359 53.8594 22.3359C 55.7604 22.3359 56.7109 21.401 56.7109 19.5312L 56.7109 18.6562L 56.6797 18.6562C 56.0807 19.6771 55.1797 20.1875 53.9766 20.1875C 53.0026 20.1875 52.2161 19.8333 51.6172 19.125C 51.0234 18.4115 50.7266 17.4557 50.7266 16.2578C 50.7266 14.8984 51.0469 13.8177 51.6875 13.0156C 52.3281 12.2135 53.2083 11.8125 54.3281 11.8125C 55.3854 11.8125 56.1693 12.2448 56.6797 13.1094L 56.7109 13.1094L 56.7109 12L 58.5234 12L 58.5234 19.3594ZM 56.7266 16.3359L 56.7266 15.2969C 56.7266 14.7344 56.5391 14.2552 56.1641 13.8594C 55.7943 13.4583 55.3307 13.2578 54.7734 13.2578C 54.0859 13.2578 53.5469 13.513 53.1562 14.0234C 52.7708 14.5286 52.5781 15.237 52.5781 16.1484C 52.5781 16.9349 52.763 17.5651 53.1328 18.0391C 53.5078 18.5078 54.0026 18.7422 54.6172 18.7422C 55.2422 18.7422 55.75 18.5182 56.1406 18.0703C 56.5312 17.6172 56.7266 17.0391 56.7266 16.3359ZM 65.0938 16.2969L 60.8281 16.2969L 60.8281 14.9609L 65.0938 14.9609L 65.0938 16.2969ZM 76.1797 20L 74.0078 20L 72.2188 17C 72.0573 16.724 71.8984 16.4896 71.7422 16.2969C 71.5911 16.099 71.4349 15.9375 71.2734 15.8125C 71.1172 15.6875 70.9453 15.5964 70.7578 15.5391C 70.5703 15.4818 70.3594 15.4531 70.125 15.4531L 69.375 15.4531L 69.375 20L 67.5234 20L 67.5234 8.79688L 71.2109 8.79688C 71.737 8.79688 72.2214 8.85938 72.6641 8.98438C 73.1068 9.10938 73.4922 9.29948 73.8203 9.55469C 74.1484 9.80469 74.4036 10.1198 74.5859 10.5C 74.7734 10.875 74.8672 11.3151 74.8672 11.8203C 74.8672 12.2161 74.8073 12.5807 74.6875 12.9141C 74.5729 13.2422 74.4062 13.5365 74.1875 13.7969C 73.974 14.0521 73.7135 14.2708 73.4062 14.4531C 73.1042 14.6354 72.763 14.776 72.3828 14.875L 72.3828 14.9062C 72.5859 15.0208 72.763 15.1484 72.9141 15.2891C 73.0651 15.4245 73.2083 15.5651 73.3438 15.7109C 73.4792 15.8568 73.612 16.0234 73.7422 16.2109C 73.8776 16.3932 74.026 16.6068 74.1875 16.8516L 76.1797 20ZM 69.375 10.3047L 69.375 13.9453L 70.9219 13.9453C 71.2083 13.9453 71.4714 13.901 71.7109 13.8125C 71.9557 13.724 72.1667 13.5964 72.3438 13.4297C 72.5208 13.263 72.6589 13.0599 72.7578 12.8203C 72.8568 12.5807 72.9062 12.3125 72.9062 12.0156C 72.9062 11.4792 72.737 11.0599 72.3984 10.7578C 72.0599 10.4557 71.5729 10.3047 70.9375 10.3047L 69.375 10.3047ZM 78.2031 10.3203C 77.9062 10.3203 77.651 10.224 77.4375 10.0312C 77.2292 9.83854 77.125 9.59375 77.125 9.29688C 77.125 9 77.2292 8.7526 77.4375 8.55469C 77.651 8.35677 77.9062 8.25781 78.2031 8.25781C 78.5104 8.25781 78.7708 8.35677 78.9844 8.55469C 79.1979 8.7526 79.3047 9 79.3047 9.29688C 79.3047 9.57812 79.1979 9.82031 78.9844 10.0234C 78.7708 10.2214 78.5104 10.3203 78.2031 10.3203ZM 79.1016 20L 77.2891 20L 77.2891 12L 79.1016 12L 79.1016 20ZM 88.7578 19.3594C 88.7578 22.2969 87.2812 23.7656 84.3281 23.7656C 83.2865 23.7656 82.3776 23.5911 81.6016 23.2422L 81.6016 21.5859C 82.4766 22.0859 83.3073 22.3359 84.0938 22.3359C 85.9948 22.3359 86.9453 21.401 86.9453 19.5312L 86.9453 18.6562L 86.9141 18.6562C 86.3151 19.6771 85.4141 20.1875 84.2109 20.1875C 83.237 20.1875 82.4505 19.8333 81.8516 19.125C 81.2578 18.4115 80.9609 17.4557 80.9609 16.2578C 80.9609 14.8984 81.2812 13.8177 81.9219 13.0156C 82.5625 12.2135 83.4427 11.8125 84.5625 11.8125C 85.6198 11.8125 86.4036 12.2448 86.9141 13.1094L 86.9453 13.1094L 86.9453 12L 88.7578 12L 88.7578 19.3594ZM 86.9609 16.3359L 86.9609 15.2969C 86.9609 14.7344 86.7734 14.2552 86.3984 13.8594C 86.0286 13.4583 85.5651 13.2578 85.0078 13.2578C 84.3203 13.2578 83.7812 13.513 83.3906 14.0234C 83.0052 14.5286 82.8125 15.237 82.8125 16.1484C 82.8125 16.9349 82.9974 17.5651 83.3672 18.0391C 83.7422 18.5078 84.237 18.7422 84.8516 18.7422C 85.4766 18.7422 85.9844 18.5182 86.375 18.0703C 86.7656 17.6172 86.9609 17.0391 86.9609 16.3359ZM 98.2266 20L 96.4141 20L 96.4141 15.625C 96.4141 14.0417 95.8854 13.25 94.8281 13.25C 94.2969 13.25 93.849 13.4792 93.4844 13.9375C 93.1198 14.3958 92.9375 14.9818 92.9375 15.6953L 92.9375 20L 91.1172 20L 91.1172 8.15625L 92.9375 8.15625L 92.9375 13.3281L 92.9688 13.3281C 93.5729 12.3177 94.4375 11.8125 95.5625 11.8125C 97.3385 11.8125 98.2266 12.8984 98.2266 15.0703L 98.2266 20ZM 104.648 19.9141C 104.294 20.0911 103.828 20.1797 103.25 20.1797C 101.698 20.1797 100.922 19.4349 100.922 17.9453L 100.922 13.4219L 99.5859 13.4219L 99.5859 12L 100.922 12L 100.922 10.1484L 102.734 9.63281L 102.734 12L 104.648 12L 104.648 13.4219L 102.734 13.4219L 102.734 17.4219C 102.734 17.8958 102.82 18.2344 102.992 18.4375C 103.164 18.6406 103.451 18.7422 103.852 18.7422C 104.159 18.7422 104.424 18.6536 104.648 18.4766L 104.648 19.9141Z"/>
<path id="path13_fill" d="M 0 0L 152 0L 152 200L 0 200L 0 0Z"/>
<path id="path14_fill" d="M 13.4141 20L 11.5703 20L 11.5703 12.75C 11.5703 12.1562 11.6068 11.4297 11.6797 10.5703L 11.6484 10.5703C 11.5339 11.0599 11.4323 11.4115 11.3438 11.625L 8 20L 6.71875 20L 3.36719 11.6875C 3.27344 11.4427 3.17448 11.0703 3.07031 10.5703L 3.03906 10.5703C 3.08073 11.0182 3.10156 11.75 3.10156 12.7656L 3.10156 20L 1.38281 20L 1.38281 8.79688L 4 8.79688L 6.94531 16.2578C 7.16927 16.8307 7.3151 17.2578 7.38281 17.5391L 7.42188 17.5391C 7.61458 16.9505 7.77083 16.513 7.89062 16.2266L 10.8906 8.79688L 13.4141 8.79688L 13.4141 20ZM 22.1172 20L 20.3594 20L 20.3594 18.75L 20.3281 18.75C 19.776 19.7083 18.9661 20.1875 17.8984 20.1875C 17.112 20.1875 16.4948 19.974 16.0469 19.5469C 15.6042 19.1198 15.3828 18.5547 15.3828 17.8516C 15.3828 16.3411 16.2526 15.4609 17.9922 15.2109L 20.3672 14.875C 20.3672 13.7344 19.8255 13.1641 18.7422 13.1641C 17.7891 13.1641 16.9297 13.4922 16.1641 14.1484L 16.1641 12.5625C 17.0078 12.0625 17.9818 11.8125 19.0859 11.8125C 21.1068 11.8125 22.1172 12.8073 22.1172 14.7969L 22.1172 20ZM 20.3672 16.0703L 18.6875 16.3047C 18.1667 16.3724 17.7734 16.5 17.5078 16.6875C 17.2474 16.8698 17.1172 17.1927 17.1172 17.6562C 17.1172 17.9948 17.237 18.2734 17.4766 18.4922C 17.7214 18.7057 18.0469 18.8125 18.4531 18.8125C 19.0052 18.8125 19.4609 18.6198 19.8203 18.2344C 20.1849 17.8438 20.3672 17.3542 20.3672 16.7656L 20.3672 16.0703ZM 28.9766 13.7266C 28.7578 13.5547 28.4427 13.4688 28.0312 13.4688C 27.4948 13.4688 27.0469 13.7109 26.6875 14.1953C 26.3281 14.6797 26.1484 15.3385 26.1484 16.1719L 26.1484 20L 24.3359 20L 24.3359 12L 26.1484 12L 26.1484 13.6484L 26.1797 13.6484C 26.3568 13.0859 26.6276 12.6484 26.9922 12.3359C 27.362 12.0182 27.7734 11.8594 28.2266 11.8594C 28.5547 11.8594 28.8047 11.9089 28.9766 12.0078L 28.9766 13.7266ZM 37.3984 19.3594C 37.3984 22.2969 35.9219 23.7656 32.9688 23.7656C 31.9271 23.7656 31.0182 23.5911 30.2422 23.2422L 30.2422 21.5859C 31.1172 22.0859 31.9479 22.3359 32.7344 22.3359C 34.6354 22.3359 35.5859 21.401 35.5859 19.5312L 35.5859 18.6562L 35.5547 18.6562C 34.9557 19.6771 34.0547 20.1875 32.8516 20.1875C 31.8776 20.1875 31.0911 19.8333 30.4922 19.125C 29.8984 18.4115 29.6016 17.4557 29.6016 16.2578C 29.6016 14.8984 29.9219 13.8177 30.5625 13.0156C 31.2031 12.2135 32.0833 11.8125 33.2031 11.8125C 34.2604 11.8125 35.0443 12.2448 35.5547 13.1094L 35.5859 13.1094L 35.5859 12L 37.3984 12L 37.3984 19.3594ZM 35.6016 16.3359L 35.6016 15.2969C 35.6016 14.7344 35.4141 14.2552 35.0391 13.8594C 34.6693 13.4583 34.2057 13.2578 33.6484 13.2578C 32.9609 13.2578 32.4219 13.513 32.0312 14.0234C 31.6458 14.5286 31.4531 15.237 31.4531 16.1484C 31.4531 16.9349 31.638 17.5651 32.0078 18.0391C 32.3828 18.5078 32.8776 18.7422 33.4922 18.7422C 34.1172 18.7422 34.625 18.5182 35.0156 18.0703C 35.4062 17.6172 35.6016 17.0391 35.6016 16.3359ZM 40.6719 10.3203C 40.375 10.3203 40.1198 10.224 39.9062 10.0312C 39.6979 9.83854 39.5938 9.59375 39.5938 9.29688C 39.5938 9 39.6979 8.7526 39.9062 8.55469C 40.1198 8.35677 40.375 8.25781 40.6719 8.25781C 40.9792 8.25781 41.2396 8.35677 41.4531 8.55469C 41.6667 8.7526 41.7734 9 41.7734 9.29688C 41.7734 9.57812 41.6667 9.82031 41.4531 10.0234C 41.2396 10.2214 40.9792 10.3203 40.6719 10.3203ZM 41.5703 20L 39.7578 20L 39.7578 12L 41.5703 12L 41.5703 20ZM 51.0703 20L 49.2578 20L 49.2578 15.4922C 49.2578 13.9974 48.7292 13.25 47.6719 13.25C 47.1198 13.25 46.6641 13.4583 46.3047 13.875C 45.9453 14.2865 45.7656 14.8073 45.7656 15.4375L 45.7656 20L 43.9453 20L 43.9453 12L 45.7656 12L 45.7656 13.3281L 45.7969 13.3281C 46.3958 12.3177 47.2604 11.8125 48.3906 11.8125C 49.2604 11.8125 49.9245 12.0964 50.3828 12.6641C 50.8411 13.2266 51.0703 14.0417 51.0703 15.1094L 51.0703 20ZM 57.5 16.2969L 53.2344 16.2969L 53.2344 14.9609L 57.5 14.9609L 57.5 16.2969ZM 68.5859 20L 66.4141 20L 64.625 17C 64.4635 16.724 64.3047 16.4896 64.1484 16.2969C 63.9974 16.099 63.8411 15.9375 63.6797 15.8125C 63.5234 15.6875 63.3516 15.5964 63.1641 15.5391C 62.9766 15.4818 62.7656 15.4531 62.5312 15.4531L 61.7812 15.4531L 61.7812 20L 59.9297 20L 59.9297 8.79688L 63.6172 8.79688C 64.1432 8.79688 64.6276 8.85938 65.0703 8.98438C 65.513 9.10938 65.8984 9.29948 66.2266 9.55469C 66.5547 9.80469 66.8099 10.1198 66.9922 10.5C 67.1797 10.875 67.2734 11.3151 67.2734 11.8203C 67.2734 12.2161 67.2135 12.5807 67.0938 12.9141C 66.9792 13.2422 66.8125 13.5365 66.5938 13.7969C 66.3802 14.0521 66.1198 14.2708 65.8125 14.4531C 65.5104 14.6354 65.1693 14.776 64.7891 14.875L 64.7891 14.9062C 64.9922 15.0208 65.1693 15.1484 65.3203 15.2891C 65.4714 15.4245 65.6146 15.5651 65.75 15.7109C 65.8854 15.8568 66.0182 16.0234 66.1484 16.2109C 66.2839 16.3932 66.4323 16.6068 66.5938 16.8516L 68.5859 20ZM 61.7812 10.3047L 61.7812 13.9453L 63.3281 13.9453C 63.6146 13.9453 63.8776 13.901 64.1172 13.8125C 64.362 13.724 64.5729 13.5964 64.75 13.4297C 64.9271 13.263 65.0651 13.0599 65.1641 12.8203C 65.263 12.5807 65.3125 12.3125 65.3125 12.0156C 65.3125 11.4792 65.1432 11.0599 64.8047 10.7578C 64.4661 10.4557 63.9792 10.3047 63.3438 10.3047L 61.7812 10.3047ZM 70.6094 10.3203C 70.3125 10.3203 70.0573 10.224 69.8438 10.0312C 69.6354 9.83854 69.5312 9.59375 69.5312 9.29688C 69.5312 9 69.6354 8.7526 69.8438 8.55469C 70.0573 8.35677 70.3125 8.25781 70.6094 8.25781C 70.9167 8.25781 71.1771 8.35677 71.3906 8.55469C 71.6042 8.7526 71.7109 9 71.7109 9.29688C 71.7109 9.57812 71.6042 9.82031 71.3906 10.0234C 71.1771 10.2214 70.9167 10.3203 70.6094 10.3203ZM 71.5078 20L 69.6953 20L 69.6953 12L 71.5078 12L 71.5078 20ZM 81.1641 19.3594C 81.1641 22.2969 79.6875 23.7656 76.7344 23.7656C 75.6927 23.7656 74.7839 23.5911 74.0078 23.2422L 74.0078 21.5859C 74.8828 22.0859 75.7135 22.3359 76.5 22.3359C 78.401 22.3359 79.3516 21.401 79.3516 19.5312L 79.3516 18.6562L 79.3203 18.6562C 78.7214 19.6771 77.8203 20.1875 76.6172 20.1875C 75.6432 20.1875 74.8568 19.8333 74.2578 19.125C 73.6641 18.4115 73.3672 17.4557 73.3672 16.2578C 73.3672 14.8984 73.6875 13.8177 74.3281 13.0156C 74.9688 12.2135 75.849 11.8125 76.9688 11.8125C 78.026 11.8125 78.8099 12.2448 79.3203 13.1094L 79.3516 13.1094L 79.3516 12L 81.1641 12L 81.1641 19.3594ZM 79.3672 16.3359L 79.3672 15.2969C 79.3672 14.7344 79.1797 14.2552 78.8047 13.8594C 78.4349 13.4583 77.9714 13.2578 77.4141 13.2578C 76.7266 13.2578 76.1875 13.513 75.7969 14.0234C 75.4115 14.5286 75.2188 15.237 75.2188 16.1484C 75.2188 16.9349 75.4036 17.5651 75.7734 18.0391C 76.1484 18.5078 76.6432 18.7422 77.2578 18.7422C 77.8828 18.7422 78.3906 18.5182 78.7812 18.0703C 79.1719 17.6172 79.3672 17.0391 79.3672 16.3359ZM 90.6328 20L 88.8203 20L 88.8203 15.625C 88.8203 14.0417 88.2917 13.25 87.2344 13.25C 86.7031 13.25 86.2552 13.4792 85.8906 13.9375C 85.526 14.3958 85.3438 14.9818 85.3438 15.6953L 85.3438 20L 83.5234 20L 83.5234 8.15625L 85.3438 8.15625L 85.3438 13.3281L 85.375 13.3281C 85.9792 12.3177 86.8438 11.8125 87.9688 11.8125C 89.7448 11.8125 90.6328 12.8984 90.6328 15.0703L 90.6328 20ZM 97.0547 19.9141C 96.7005 20.0911 96.2344 20.1797 95.6562 20.1797C 94.1042 20.1797 93.3281 19.4349 93.3281 17.9453L 93.3281 13.4219L 91.9922 13.4219L 91.9922 12L 93.3281 12L 93.3281 10.1484L 95.1406 9.63281L 95.1406 12L 97.0547 12L 97.0547 13.4219L 95.1406 13.4219L 95.1406 17.4219C 95.1406 17.8958 95.2266 18.2344 95.3984 18.4375C 95.5703 18.6406 95.8568 18.7422 96.2578 18.7422C 96.5651 18.7422 96.8307 18.6536 97.0547 18.4766L 97.0547 19.9141Z"/>
<path id="path15_fill" d="M 0 0L 144 0L 144 200L 0 200L 0 0Z"/>
<path id="path16_fill" d="M 36.9453 20L 35.1016 20L 35.1016 12.75C 35.1016 12.1562 35.138 11.4297 35.2109 10.5703L 35.1797 10.5703C 35.0651 11.0599 34.9635 11.4115 34.875 11.625L 31.5312 20L 30.25 20L 26.8984 11.6875C 26.8047 11.4427 26.7057 11.0703 26.6016 10.5703L 26.5703 10.5703C 26.612 11.0182 26.6328 11.75 26.6328 12.7656L 26.6328 20L 24.9141 20L 24.9141 8.79688L 27.5312 8.79688L 30.4766 16.2578C 30.7005 16.8307 30.8464 17.2578 30.9141 17.5391L 30.9531 17.5391C 31.1458 16.9505 31.3021 16.513 31.4219 16.2266L 34.4219 8.79688L 36.9453 8.79688L 36.9453 20ZM 45.6484 20L 43.8906 20L 43.8906 18.75L 43.8594 18.75C 43.3073 19.7083 42.4974 20.1875 41.4297 20.1875C 40.6432 20.1875 40.026 19.974 39.5781 19.5469C 39.1354 19.1198 38.9141 18.5547 38.9141 17.8516C 38.9141 16.3411 39.7839 15.4609 41.5234 15.2109L 43.8984 14.875C 43.8984 13.7344 43.3568 13.1641 42.2734 13.1641C 41.3203 13.1641 40.4609 13.4922 39.6953 14.1484L 39.6953 12.5625C 40.5391 12.0625 41.513 11.8125 42.6172 11.8125C 44.638 11.8125 45.6484 12.8073 45.6484 14.7969L 45.6484 20ZM 43.8984 16.0703L 42.2188 16.3047C 41.6979 16.3724 41.3047 16.5 41.0391 16.6875C 40.7786 16.8698 40.6484 17.1927 40.6484 17.6562C 40.6484 17.9948 40.7682 18.2734 41.0078 18.4922C 41.2526 18.7057 41.5781 18.8125 41.9844 18.8125C 42.5365 18.8125 42.9922 18.6198 43.3516 18.2344C 43.7161 17.8438 43.8984 17.3542 43.8984 16.7656L 43.8984 16.0703ZM 52.5078 13.7266C 52.2891 13.5547 51.974 13.4688 51.5625 13.4688C 51.026 13.4688 50.5781 13.7109 50.2188 14.1953C 49.8594 14.6797 49.6797 15.3385 49.6797 16.1719L 49.6797 20L 47.8672 20L 47.8672 12L 49.6797 12L 49.6797 13.6484L 49.7109 13.6484C 49.888 13.0859 50.1589 12.6484 50.5234 12.3359C 50.8932 12.0182 51.3047 11.8594 51.7578 11.8594C 52.0859 11.8594 52.3359 11.9089 52.5078 12.0078L 52.5078 13.7266ZM 60.9297 19.3594C 60.9297 22.2969 59.4531 23.7656 56.5 23.7656C 55.4583 23.7656 54.5495 23.5911 53.7734 23.2422L 53.7734 21.5859C 54.6484 22.0859 55.4792 22.3359 56.2656 22.3359C 58.1667 22.3359 59.1172 21.401 59.1172 19.5312L 59.1172 18.6562L 59.0859 18.6562C 58.487 19.6771 57.5859 20.1875 56.3828 20.1875C 55.4089 20.1875 54.6224 19.8333 54.0234 19.125C 53.4297 18.4115 53.1328 17.4557 53.1328 16.2578C 53.1328 14.8984 53.4531 13.8177 54.0938 13.0156C 54.7344 12.2135 55.6146 11.8125 56.7344 11.8125C 57.7917 11.8125 58.5755 12.2448 59.0859 13.1094L 59.1172 13.1094L 59.1172 12L 60.9297 12L 60.9297 19.3594ZM 59.1328 16.3359L 59.1328 15.2969C 59.1328 14.7344 58.9453 14.2552 58.5703 13.8594C 58.2005 13.4583 57.737 13.2578 57.1797 13.2578C 56.4922 13.2578 55.9531 13.513 55.5625 14.0234C 55.1771 14.5286 54.9844 15.237 54.9844 16.1484C 54.9844 16.9349 55.1693 17.5651 55.5391 18.0391C 55.9141 18.5078 56.4089 18.7422 57.0234 18.7422C 57.6484 18.7422 58.1562 18.5182 58.5469 18.0703C 58.9375 17.6172 59.1328 17.0391 59.1328 16.3359ZM 64.2031 10.3203C 63.9062 10.3203 63.651 10.224 63.4375 10.0312C 63.2292 9.83854 63.125 9.59375 63.125 9.29688C 63.125 9 63.2292 8.7526 63.4375 8.55469C 63.651 8.35677 63.9062 8.25781 64.2031 8.25781C 64.5104 8.25781 64.7708 8.35677 64.9844 8.55469C 65.1979 8.7526 65.3047 9 65.3047 9.29688C 65.3047 9.57812 65.1979 9.82031 64.9844 10.0234C 64.7708 10.2214 64.5104 10.3203 64.2031 10.3203ZM 65.1016 20L 63.2891 20L 63.2891 12L 65.1016 12L 65.1016 20ZM 74.6016 20L 72.7891 20L 72.7891 15.4922C 72.7891 13.9974 72.2604 13.25 71.2031 13.25C 70.651 13.25 70.1953 13.4583 69.8359 13.875C 69.4766 14.2865 69.2969 14.8073 69.2969 15.4375L 69.2969 20L 67.4766 20L 67.4766 12L 69.2969 12L 69.2969 13.3281L 69.3281 13.3281C 69.9271 12.3177 70.7917 11.8125 71.9219 11.8125C 72.7917 11.8125 73.4557 12.0964 73.9141 12.6641C 74.3724 13.2266 74.6016 14.0417 74.6016 15.1094L 74.6016 20ZM 81.0312 16.2969L 76.7656 16.2969L 76.7656 14.9609L 81.0312 14.9609L 81.0312 16.2969ZM 89.6641 20L 83.4609 20L 83.4609 8.79688L 85.3203 8.79688L 85.3203 18.4297L 89.6641 18.4297L 89.6641 20ZM 97.8594 16.4922L 92.4062 16.4922C 92.4271 17.2318 92.6536 17.8021 93.0859 18.2031C 93.5234 18.6042 94.1224 18.8047 94.8828 18.8047C 95.737 18.8047 96.5208 18.5495 97.2344 18.0391L 97.2344 19.5C 96.5052 19.9583 95.5417 20.1875 94.3438 20.1875C 93.1667 20.1875 92.2422 19.8255 91.5703 19.1016C 90.9036 18.3724 90.5703 17.349 90.5703 16.0312C 90.5703 14.7865 90.9375 13.7734 91.6719 12.9922C 92.4115 12.2057 93.3281 11.8125 94.4219 11.8125C 95.5156 11.8125 96.362 12.1641 96.9609 12.8672C 97.5599 13.5703 97.8594 14.5469 97.8594 15.7969L 97.8594 16.4922ZM 96.1094 15.2109C 96.1042 14.5599 95.9505 14.0547 95.6484 13.6953C 95.3464 13.3307 94.9297 13.1484 94.3984 13.1484C 93.8776 13.1484 93.4349 13.3385 93.0703 13.7188C 92.7109 14.099 92.4896 14.5964 92.4062 15.2109L 96.1094 15.2109ZM 104.109 9.63281C 103.865 9.49219 103.586 9.42188 103.273 9.42188C 102.393 9.42188 101.953 9.91927 101.953 10.9141L 101.953 12L 103.812 12L 103.812 13.4219L 101.961 13.4219L 101.961 20L 100.148 20L 100.148 13.4219L 98.7812 13.4219L 98.7812 12L 100.148 12L 100.148 10.7031C 100.148 9.85938 100.424 9.19531 100.977 8.71094C 101.529 8.22135 102.219 7.97656 103.047 7.97656C 103.495 7.97656 103.849 8.02604 104.109 8.125L 104.109 9.63281ZM 109.617 19.9141C 109.263 20.0911 108.797 20.1797 108.219 20.1797C 106.667 20.1797 105.891 19.4349 105.891 17.9453L 105.891 13.4219L 104.555 13.4219L 104.555 12L 105.891 12L 105.891 10.1484L 107.703 9.63281L 107.703 12L 109.617 12L 109.617 13.4219L 107.703 13.4219L 107.703 17.4219C 107.703 17.8958 107.789 18.2344 107.961 18.4375C 108.133 18.6406 108.419 18.7422 108.82 18.7422C 109.128 18.7422 109.393 18.6536 109.617 18.4766L 109.617 19.9141Z"/>
</defs>
</svg>
