<svg width="1152" height="576" viewBox="0 0 1152 576" version="1.1" xmlns="http://www.w3.org/2000/svg" xmlns:xlink="http://www.w3.org/1999/xlink">
<title>xaml-layout-textbox-with-margins-padding</title>
<desc>Created using Figma</desc>
<g id="Canvas" transform="translate(-7348 6486)">
<g id="xaml-layout-textbox-with-margins-padding">
<path d="M 7348 -6486L 8500 -6486L 8500 -5910L 7348 -5910L 7348 -6486Z" fill="#EBEBEB"/>
<clipPath id="clip-0" clip-rule="evenodd">
<path d="M 7466 -6328L 7866 -6328L 7866 -6128L 7466 -6128L 7466 -6328Z" fill="#FFFFFF"/>
</clipPath>
<g id="pattern-form" clip-path="url(#clip-0)">
<path d="M 7466 -6328L 7866 -6328L 7866 -6128L 7466 -6128L 7466 -6328Z" fill="#0000FF"/>
<g id="Rectangle 2">
<use xlink:href="#path0_fill" transform="translate(7466 -6328)" fill="#FFFFFF"/>
<mask id="mask0_outline_ins">
<use xlink:href="#path0_fill" fill="white" transform="translate(7466 -6328)"/>
</mask>
<g mask="url(#mask0_outline_ins)">
<use xlink:href="#path1_stroke_2x" transform="translate(7466 -6328)" fill="#0000FF"/>
</g>
</g>
<g id="Rectangle">
<use xlink:href="#path2_fill" transform="translate(7514 -6284)" fill="#FFFFFF"/>
<mask id="mask1_outline_ins">
<use xlink:href="#path2_fill" fill="white" transform="translate(7514 -6284)"/>
</mask>
<g mask="url(#mask1_outline_ins)">
<use xlink:href="#path3_stroke_2x" transform="translate(7514 -6284)" fill="#7A7A7A"/>
</g>
</g>
<g id="This is text in a">
<use xlink:href="#path4_fill" transform="translate(7548 -6243)"/>
</g>
<g id="Rectangle 2">
<use xlink:href="#path5_fill" transform="translate(7630 -6320)" fill="#FAE0F1"/>
</g>
<g id="Rectangle 2.4">
<use xlink:href="#path6_fill" transform="translate(7630 -6278)" fill="#D8E4FB"/>
</g>
<g id="Rectangle 2.6">
<use xlink:href="#path7_fill" transform="translate(7630 -6212)" fill="#D8E4FB"/>
</g>
<g id="Rectangle 2.5">
<use xlink:href="#path8_fill" transform="translate(7520 -6248)" fill="#D8E4FB"/>
</g>
<g id="Rectangle 2.7">
<use xlink:href="#path8_fill" transform="translate(7784 -6248)" fill="#D8E4FB"/>
</g>
<g id="Rectangle 2.1">
<use xlink:href="#path5_fill" transform="translate(7630 -6172)" fill="#FAE0F1"/>
</g>
<g id="Rectangle 2.2">
<use xlink:href="#path9_fill" transform="translate(7818 -6248)" fill="#FAE0F1"/>
</g>
<g id="Rectangle 2.3">
<use xlink:href="#path9_fill" transform="translate(7474 -6248)" fill="#FAE0F1"/>
</g>
<g id="Rectangle 3">
<use xlink:href="#path10_fill" transform="translate(7466 -6302)" fill="#F445A5"/>
</g>
<g id="These articles help">
<use xlink:href="#path11_fill" transform="translate(7626 -6316)" fill="#FC0D1B"/>
</g>
<g id="These articles help">
<use xlink:href="#path11_fill" transform="translate(7626 -6166)" fill="#FC0D1B"/>
</g>
<g id="These articles help">
<use xlink:href="#path11_fill" transform="translate(7454 -6242)" fill="#FB1220"/>
</g>
<g id="These articles help">
<use xlink:href="#path11_fill" transform="translate(7798 -6242)" fill="#FC0D1B"/>
</g>
<g id="These articles help">
<use xlink:href="#path12_fill" transform="translate(7626 -6272)" fill="#FC0D1B"/>
</g>
<g id="These articles help">
<use xlink:href="#path12_fill" transform="translate(7626 -6208)" fill="#FC0D1B"/>
</g>
<g id="These articles help">
<use xlink:href="#path13_fill" transform="translate(7493 -6241)" fill="#FC0D1B"/>
</g>
<g id="These articles help">
<use xlink:href="#path13_fill" transform="translate(7758 -6241)" fill="#FC0D1B"/>
</g>
</g>
<g id="These articles help">
<use xlink:href="#path14_fill" transform="translate(7626 -6108)" fill="#FB1220"/>
</g>
<g id="These articles help">
<use xlink:href="#path15_fill" transform="translate(7868 -6236)" fill="#FB1220"/>
</g>
<g id="These articles help">
<use xlink:href="#path16_fill" transform="translate(7369 -6310)" fill="#FB1220"/>
</g>
<g id="Line">
<use xlink:href="#path17_stroke" transform="matrix(1 -2.44929e-16 2.44929e-16 1 7467 -6111)" fill="#FB1220"/>
</g>
<g id="Line">
<use xlink:href="#path18_stroke" transform="matrix(6.12323e-17 -1 1 6.12323e-17 7884 -6120)" fill="#FB1220"/>
</g>
<g id="Line">
<use xlink:href="#path19_stroke" transform="matrix(-1 1.22465e-16 -1.22465e-16 -1 7474 -6297)" fill="#FB1220"/>
</g>
<g id="Line 2">
<use xlink:href="#path20_stroke" transform="matrix(6.12323e-17 1 -1 6.12323e-17 7466 -6120)" fill="#FB1220"/>
</g>
<g id="Line 2.1">
<use xlink:href="#path20_stroke" transform="matrix(6.12323e-17 1 -1 6.12323e-17 7864 -6120)" fill="#FB1220"/>
</g>
<g id="Line 2.2">
<use xlink:href="#path20_stroke" transform="matrix(1 -2.67189e-24 2.67189e-24 1 7875 -6120)" fill="#FB1220"/>
</g>
<g id="Line 2.3">
<use xlink:href="#path20_stroke" transform="matrix(1 -2.67189e-24 2.67189e-24 1 7875 -6326)" fill="#FB1220"/>
</g>
<clipPath id="clip-1" clip-rule="evenodd">
<path d="M 7978 -6328L 8378 -6328L 8378 -6128L 7978 -6128L 7978 -6328Z" fill="#FFFFFF"/>
</clipPath>
<g id="pattern-form" clip-path="url(#clip-1)">
<path d="M 7978 -6328L 8378 -6328L 8378 -6128L 7978 -6128L 7978 -6328Z" fill="#0000FF"/>
<g id="Rectangle 2">
<use xlink:href="#path0_fill" transform="translate(7978 -6328)" fill="#FFFFFF"/>
<mask id="mask2_outline_ins">
<use xlink:href="#path0_fill" fill="white" transform="translate(7978 -6328)"/>
</mask>
<g mask="url(#mask2_outline_ins)">
<use xlink:href="#path1_stroke_2x" transform="translate(7978 -6328)" fill="#0000FF"/>
</g>
</g>
<g id="Rectangle">
<use xlink:href="#path2_fill" transform="translate(8026 -6284)" fill="#FFFFFF"/>
<mask id="mask3_outline_ins">
<use xlink:href="#path2_fill" fill="white" transform="translate(8026 -6284)"/>
</mask>
<g mask="url(#mask3_outline_ins)">
<use xlink:href="#path3_stroke_2x" transform="translate(8026 -6284)" fill="#7A7A7A"/>
</g>
</g>
<g id="This is text in a">
<use xlink:href="#path4_fill" transform="translate(8060 -6243)"/>
</g>
</g>
<g id="These articles help">
<use xlink:href="#path21_fill" transform="translate(7628 -6018)" fill="#575757"/>
</g>
<g id="These articles help">
<use xlink:href="#path22_fill" transform="translate(8096 -6018)" fill="#575757"/>
</g>
</g>
</g>
<defs>
<path id="path0_fill" d="M 0 0L 400 0L 400 200L 0 200L 0 0Z"/>
<path id="path1_stroke_2x" d="M 0 0L 0 -8L -8 -8L -8 0L 0 0ZM 400 0L 408 0L 408 -8L 400 -8L 400 0ZM 400 200L 400 208L 408 208L 408 200L 400 200ZM 0 200L -8 200L -8 208L 0 208L 0 200ZM 0 8L 400 8L 400 -8L 0 -8L 0 8ZM 392 0L 392 200L 408 200L 408 0L 392 0ZM 400 192L 0 192L 0 208L 400 208L 400 192ZM 8 200L 8 0L -8 0L -8 200L 8 200Z"/>
<path id="path2_fill" d="M 0 0L 304 0L 304 112L 0 112L 0 0Z"/>
<path id="path3_stroke_2x" d="M 0 0L 0 -6L -6 -6L -6 0L 0 0ZM 304 0L 310 0L 310 -6L 304 -6L 304 0ZM 304 112L 304 118L 310 118L 310 112L 304 112ZM 0 112L -6 112L -6 118L 0 118L 0 112ZM 0 6L 304 6L 304 -6L 0 -6L 0 6ZM 298 0L 298 112L 310 112L 310 0L 298 0ZM 304 106L 0 106L 0 118L 304 118L 304 106ZM 6 112L 6 0L -6 0L -6 112L 6 112Z"/>
<path id="path4_fill" d="M 14.998 10.1562L 9.36523 10.1562L 9.36523 27L 6.11133 27L 6.11133 10.1562L 0.492188 10.1562L 0.492188 7.39453L 14.998 7.39453L 14.998 10.1562ZM 29.9551 27L 26.7832 27L 26.7832 19.3438C 26.7832 16.5729 25.8581 15.1875 24.0078 15.1875C 23.0781 15.1875 22.2943 15.5885 21.6562 16.3906C 21.0182 17.1927 20.6992 18.2181 20.6992 19.4668L 20.6992 27L 17.5137 27L 17.5137 6.27344L 20.6992 6.27344L 20.6992 15.3242L 20.7539 15.3242C 21.8112 13.556 23.3242 12.6719 25.293 12.6719C 28.401 12.6719 29.9551 14.5723 29.9551 18.373L 29.9551 27ZM 35.4102 10.0605C 34.8906 10.0605 34.444 9.89193 34.0703 9.55469C 33.7057 9.21745 33.5234 8.78906 33.5234 8.26953C 33.5234 7.75 33.7057 7.31706 34.0703 6.9707C 34.444 6.62435 34.8906 6.45117 35.4102 6.45117C 35.9479 6.45117 36.4036 6.62435 36.7773 6.9707C 37.151 7.31706 37.3379 7.75 37.3379 8.26953C 37.3379 8.76172 37.151 9.18555 36.7773 9.54102C 36.4036 9.88737 35.9479 10.0605 35.4102 10.0605ZM 36.9824 27L 33.8105 27L 33.8105 13L 36.9824 13L 36.9824 27ZM 40.2637 26.5625L 40.2637 23.623C 41.4486 24.5254 42.7565 24.9766 44.1875 24.9766C 46.1016 24.9766 47.0586 24.4115 47.0586 23.2812C 47.0586 22.9622 46.9766 22.6934 46.8125 22.4746C 46.6484 22.2467 46.4251 22.0462 46.1426 21.873C 45.8691 21.6999 45.541 21.5449 45.1582 21.4082C 44.7845 21.2715 44.3652 21.1165 43.9004 20.9434C 43.3262 20.7155 42.8066 20.474 42.3418 20.2188C 41.8861 19.9635 41.5033 19.6764 41.1934 19.3574C 40.8926 19.0293 40.6647 18.6602 40.5098 18.25C 40.3548 17.8398 40.2773 17.3613 40.2773 16.8145C 40.2773 16.14 40.4368 15.5475 40.7559 15.0371C 41.0749 14.5176 41.5033 14.0846 42.041 13.7383C 42.5788 13.3828 43.1895 13.1185 43.873 12.9453C 44.5566 12.763 45.263 12.6719 45.9922 12.6719C 47.2865 12.6719 48.444 12.8678 49.4648 13.2598L 49.4648 16.0352C 48.4805 15.3607 47.3503 15.0234 46.0742 15.0234C 45.6732 15.0234 45.3086 15.0645 44.9805 15.1465C 44.6615 15.2285 44.388 15.3424 44.1602 15.4883C 43.9323 15.6341 43.7546 15.8118 43.627 16.0215C 43.4993 16.222 43.4355 16.4453 43.4355 16.6914C 43.4355 16.9922 43.4993 17.2474 43.627 17.457C 43.7546 17.6667 43.9414 17.8535 44.1875 18.0176C 44.4427 18.1725 44.7435 18.3184 45.0898 18.4551C 45.4453 18.5827 45.8509 18.724 46.3066 18.8789C 46.9082 19.125 47.446 19.3757 47.9199 19.6309C 48.403 19.8861 48.8132 20.1777 49.1504 20.5059C 49.4876 20.8249 49.7474 21.1986 49.9297 21.627C 50.112 22.0462 50.2031 22.5475 50.2031 23.1309C 50.2031 23.8418 50.0391 24.4616 49.7109 24.9902C 49.3828 25.5189 48.9453 25.9564 48.3984 26.3027C 47.8516 26.6491 47.2181 26.9043 46.498 27.0684C 45.7871 27.2415 45.0352 27.3281 44.2422 27.3281C 42.7109 27.3281 41.3848 27.0729 40.2637 26.5625ZM 62.5352 10.0605C 62.0156 10.0605 61.569 9.89193 61.1953 9.55469C 60.8307 9.21745 60.6484 8.78906 60.6484 8.26953C 60.6484 7.75 60.8307 7.31706 61.1953 6.9707C 61.569 6.62435 62.0156 6.45117 62.5352 6.45117C 63.0729 6.45117 63.5286 6.62435 63.9023 6.9707C 64.276 7.31706 64.4629 7.75 64.4629 8.26953C 64.4629 8.76172 64.276 9.18555 63.9023 9.54102C 63.5286 9.88737 63.0729 10.0605 62.5352 10.0605ZM 64.1074 27L 60.9355 27L 60.9355 13L 64.1074 13L 64.1074 27ZM 67.3887 26.5625L 67.3887 23.623C 68.5736 24.5254 69.8815 24.9766 71.3125 24.9766C 73.2266 24.9766 74.1836 24.4115 74.1836 23.2812C 74.1836 22.9622 74.1016 22.6934 73.9375 22.4746C 73.7734 22.2467 73.5501 22.0462 73.2676 21.873C 72.9941 21.6999 72.666 21.5449 72.2832 21.4082C 71.9095 21.2715 71.4902 21.1165 71.0254 20.9434C 70.4512 20.7155 69.9316 20.474 69.4668 20.2188C 69.0111 19.9635 68.6283 19.6764 68.3184 19.3574C 68.0176 19.0293 67.7897 18.6602 67.6348 18.25C 67.4798 17.8398 67.4023 17.3613 67.4023 16.8145C 67.4023 16.14 67.5618 15.5475 67.8809 15.0371C 68.1999 14.5176 68.6283 14.0846 69.166 13.7383C 69.7038 13.3828 70.3145 13.1185 70.998 12.9453C 71.6816 12.763 72.388 12.6719 73.1172 12.6719C 74.4115 12.6719 75.569 12.8678 76.5898 13.2598L 76.5898 16.0352C 75.6055 15.3607 74.4753 15.0234 73.1992 15.0234C 72.7982 15.0234 72.4336 15.0645 72.1055 15.1465C 71.7865 15.2285 71.513 15.3424 71.2852 15.4883C 71.0573 15.6341 70.8796 15.8118 70.752 16.0215C 70.6243 16.222 70.5605 16.4453 70.5605 16.6914C 70.5605 16.9922 70.6243 17.2474 70.752 17.457C 70.8796 17.6667 71.0664 17.8535 71.3125 18.0176C 71.5677 18.1725 71.8685 18.3184 72.2148 18.4551C 72.5703 18.5827 72.9759 18.724 73.4316 18.8789C 74.0332 19.125 74.571 19.3757 75.0449 19.6309C 75.528 19.8861 75.9382 20.1777 76.2754 20.5059C 76.6126 20.8249 76.8724 21.1986 77.0547 21.627C 77.237 22.0462 77.3281 22.5475 77.3281 23.1309C 77.3281 23.8418 77.1641 24.4616 76.8359 24.9902C 76.5078 25.5189 76.0703 25.9564 75.5234 26.3027C 74.9766 26.6491 74.3431 26.9043 73.623 27.0684C 72.9121 27.2415 72.1602 27.3281 71.3672 27.3281C 69.8359 27.3281 68.5098 27.0729 67.3887 26.5625ZM 95.4434 26.8496C 94.8236 27.1595 94.0078 27.3145 92.9961 27.3145C 90.2799 27.3145 88.9219 26.0111 88.9219 23.4043L 88.9219 15.4883L 86.584 15.4883L 86.584 13L 88.9219 13L 88.9219 9.75977L 92.0938 8.85742L 92.0938 13L 95.4434 13L 95.4434 15.4883L 92.0938 15.4883L 92.0938 22.4883C 92.0938 23.3177 92.2441 23.9102 92.5449 24.2656C 92.8457 24.6211 93.347 24.7988 94.0488 24.7988C 94.5866 24.7988 95.0514 24.6439 95.4434 24.334L 95.4434 26.8496ZM 109.867 20.8613L 100.324 20.8613C 100.361 22.1556 100.757 23.1536 101.514 23.8555C 102.279 24.5573 103.327 24.9082 104.658 24.9082C 106.153 24.9082 107.525 24.4616 108.773 23.5684L 108.773 26.125C 107.497 26.9271 105.811 27.3281 103.715 27.3281C 101.655 27.3281 100.037 26.6947 98.8613 25.4277C 97.6947 24.1517 97.1113 22.3607 97.1113 20.0547C 97.1113 17.8763 97.7539 16.1035 99.0391 14.7363C 100.333 13.36 101.938 12.6719 103.852 12.6719C 105.766 12.6719 107.247 13.2871 108.295 14.5176C 109.343 15.748 109.867 17.457 109.867 19.6445L 109.867 20.8613ZM 106.805 18.6191C 106.796 17.4798 106.527 16.5957 105.998 15.9668C 105.469 15.3288 104.74 15.0098 103.811 15.0098C 102.899 15.0098 102.124 15.3424 101.486 16.0078C 100.857 16.6732 100.47 17.5436 100.324 18.6191L 106.805 18.6191ZM 124.592 13L 119.93 20.082L 124.537 27L 120.859 27L 118.398 22.666C 118.243 22.4017 118.061 22.0645 117.852 21.6543L 117.797 21.6543C 117.76 21.7363 117.569 22.0736 117.223 22.666L 114.721 27L 111.057 27L 115.814 20.1367L 111.303 13L 114.994 13L 117.414 17.5527C 117.596 17.89 117.774 18.2363 117.947 18.5918L 117.988 18.5918L 121.119 13L 124.592 13ZM 134.299 26.8496C 133.679 27.1595 132.863 27.3145 131.852 27.3145C 129.135 27.3145 127.777 26.0111 127.777 23.4043L 127.777 15.4883L 125.439 15.4883L 125.439 13L 127.777 13L 127.777 9.75977L 130.949 8.85742L 130.949 13L 134.299 13L 134.299 15.4883L 130.949 15.4883L 130.949 22.4883C 130.949 23.3177 131.1 23.9102 131.4 24.2656C 131.701 24.6211 132.202 24.7988 132.904 24.7988C 133.442 24.7988 133.907 24.6439 134.299 24.334L 134.299 26.8496ZM 146.344 10.0605C 145.824 10.0605 145.378 9.89193 145.004 9.55469C 144.639 9.21745 144.457 8.78906 144.457 8.26953C 144.457 7.75 144.639 7.31706 145.004 6.9707C 145.378 6.62435 145.824 6.45117 146.344 6.45117C 146.882 6.45117 147.337 6.62435 147.711 6.9707C 148.085 7.31706 148.271 7.75 148.271 8.26953C 148.271 8.76172 148.085 9.18555 147.711 9.54102C 147.337 9.88737 146.882 10.0605 146.344 10.0605ZM 147.916 27L 144.744 27L 144.744 13L 147.916 13L 147.916 27ZM 164.541 27L 161.369 27L 161.369 19.1113C 161.369 16.4954 160.444 15.1875 158.594 15.1875C 157.628 15.1875 156.83 15.5521 156.201 16.2812C 155.572 17.0013 155.258 17.9128 155.258 19.0156L 155.258 27L 152.072 27L 152.072 13L 155.258 13L 155.258 15.3242L 155.312 15.3242C 156.361 13.556 157.874 12.6719 159.852 12.6719C 161.374 12.6719 162.536 13.1686 163.338 14.1621C 164.14 15.1465 164.541 16.5729 164.541 18.4414L 164.541 27ZM 186.881 27L 183.805 27L 183.805 24.8125L 183.75 24.8125C 182.784 26.4896 181.367 27.3281 179.498 27.3281C 178.122 27.3281 177.042 26.9544 176.258 26.207C 175.483 25.4596 175.096 24.4707 175.096 23.2402C 175.096 20.597 176.618 19.0566 179.662 18.6191L 183.818 18.0312C 183.818 16.0352 182.87 15.0371 180.975 15.0371C 179.307 15.0371 177.803 15.6113 176.463 16.7598L 176.463 13.9844C 177.939 13.1094 179.644 12.6719 181.576 12.6719C 185.113 12.6719 186.881 14.4128 186.881 17.8945L 186.881 27ZM 183.818 20.123L 180.879 20.5332C 179.967 20.6517 179.279 20.875 178.814 21.2031C 178.359 21.5221 178.131 22.0872 178.131 22.8984C 178.131 23.4909 178.34 23.9785 178.76 24.3613C 179.188 24.735 179.758 24.9219 180.469 24.9219C 181.435 24.9219 182.232 24.5846 182.861 23.9102C 183.499 23.2266 183.818 22.3698 183.818 21.3398L 183.818 20.123Z"/>
<path id="path5_fill" d="M 0 0L 72 0L 72 36L 0 36L 0 0Z"/>
<path id="path6_fill" d="M 0 0L 72 0L 72 38L 0 38L 0 0Z"/>
<path id="path7_fill" d="M 0 0L 72 0L 72 34L 0 34L 0 0Z"/>
<path id="path8_fill" d="M 0 0L 28 0L 28 40L 0 40L 0 0Z"/>
<path id="path9_fill" d="M 0 0L 40 0L 40 40L 0 40L 0 0Z"/>
<path id="path10_fill" d="M 0 0L 8 0L 8 12L 0 12L 0 0Z"/>
<path id="path11_fill" d="M 38.9062 19L 31.875 19L 31.875 18.1328C 31.875 17.7786 31.9245 17.4479 32.0234 17.1406C 32.1224 16.8281 32.2552 16.5365 32.4219 16.2656C 32.5885 15.9896 32.7839 15.7318 33.0078 15.4922C 33.2318 15.2474 33.4714 15.013 33.7266 14.7891C 33.9818 14.5599 34.2422 14.3411 34.5078 14.1328C 34.7734 13.9193 35.0339 13.7057 35.2891 13.4922C 35.5286 13.2891 35.7474 13.0911 35.9453 12.8984C 36.1432 12.7005 36.3125 12.4974 36.4531 12.2891C 36.5938 12.0807 36.7031 11.862 36.7812 11.6328C 36.8594 11.3984 36.8984 11.1458 36.8984 10.875C 36.8984 10.5781 36.8516 10.3203 36.7578 10.1016C 36.6693 9.8776 36.5417 9.69271 36.375 9.54688C 36.2135 9.39583 36.0208 9.28385 35.7969 9.21094C 35.5729 9.13281 35.3281 9.09375 35.0625 9.09375C 34.6042 9.09375 34.138 9.20052 33.6641 9.41406C 33.1901 9.6276 32.7344 9.94792 32.2969 10.375L 32.2969 8.63281C 32.526 8.46094 32.7578 8.3125 32.9922 8.1875C 33.2266 8.05729 33.4688 7.95052 33.7188 7.86719C 33.9688 7.77865 34.2318 7.71354 34.5078 7.67188C 34.7839 7.63021 35.0781 7.60938 35.3906 7.60938C 35.8958 7.60938 36.3542 7.67708 36.7656 7.8125C 37.1771 7.94271 37.5286 8.13802 37.8203 8.39844C 38.112 8.65365 38.3359 8.97396 38.4922 9.35938C 38.6536 9.74479 38.7344 10.1875 38.7344 10.6875C 38.7344 11.1406 38.6771 11.5495 38.5625 11.9141C 38.4531 12.2734 38.2943 12.6094 38.0859 12.9219C 37.8828 13.2344 37.6354 13.5312 37.3438 13.8125C 37.0521 14.0938 36.7266 14.3828 36.3672 14.6797C 36.0651 14.9245 35.763 15.1641 35.4609 15.3984C 35.1641 15.6276 34.8958 15.8542 34.6562 16.0781C 34.4167 16.2969 34.2214 16.5182 34.0703 16.7422C 33.9245 16.9609 33.8516 17.1823 33.8516 17.4062L 33.8516 17.4453L 38.9062 17.4453L 38.9062 19ZM 44.3203 19.1875C 43.1536 19.1875 42.2422 18.7109 41.5859 17.7578C 40.9349 16.8047 40.6094 15.4271 40.6094 13.625C 40.6094 11.6458 40.9505 10.1484 41.6328 9.13281C 42.3151 8.11719 43.2995 7.60938 44.5859 7.60938C 47.0495 7.60938 48.2812 9.52344 48.2812 13.3516C 48.2812 15.2474 47.9323 16.6953 47.2344 17.6953C 46.5417 18.6901 45.5703 19.1875 44.3203 19.1875ZM 44.5 9.05469C 43.1406 9.05469 42.4609 10.5521 42.4609 13.5469C 42.4609 16.349 43.1276 17.75 44.4609 17.75C 45.7734 17.75 46.4297 16.3255 46.4297 13.4766C 46.4297 10.5286 45.7865 9.05469 44.5 9.05469Z"/>
<path id="path12_fill" d="M 38.7422 19L 31.7109 19L 31.7109 18.1328C 31.7109 17.7786 31.7604 17.4479 31.8594 17.1406C 31.9583 16.8281 32.0911 16.5365 32.2578 16.2656C 32.4245 15.9896 32.6198 15.7318 32.8438 15.4922C 33.0677 15.2474 33.3073 15.013 33.5625 14.7891C 33.8177 14.5599 34.0781 14.3411 34.3438 14.1328C 34.6094 13.9193 34.8698 13.7057 35.125 13.4922C 35.3646 13.2891 35.5833 13.0911 35.7812 12.8984C 35.9792 12.7005 36.1484 12.4974 36.2891 12.2891C 36.4297 12.0807 36.5391 11.862 36.6172 11.6328C 36.6953 11.3984 36.7344 11.1458 36.7344 10.875C 36.7344 10.5781 36.6875 10.3203 36.5938 10.1016C 36.5052 9.8776 36.3776 9.69271 36.2109 9.54688C 36.0495 9.39583 35.8568 9.28385 35.6328 9.21094C 35.4089 9.13281 35.1641 9.09375 34.8984 9.09375C 34.4401 9.09375 33.974 9.20052 33.5 9.41406C 33.026 9.6276 32.5703 9.94792 32.1328 10.375L 32.1328 8.63281C 32.362 8.46094 32.5938 8.3125 32.8281 8.1875C 33.0625 8.05729 33.3047 7.95052 33.5547 7.86719C 33.8047 7.77865 34.0677 7.71354 34.3438 7.67188C 34.6198 7.63021 34.9141 7.60938 35.2266 7.60938C 35.7318 7.60938 36.1901 7.67708 36.6016 7.8125C 37.013 7.94271 37.3646 8.13802 37.6562 8.39844C 37.9479 8.65365 38.1719 8.97396 38.3281 9.35938C 38.4896 9.74479 38.5703 10.1875 38.5703 10.6875C 38.5703 11.1406 38.513 11.5495 38.3984 11.9141C 38.2891 12.2734 38.1302 12.6094 37.9219 12.9219C 37.7188 13.2344 37.4714 13.5312 37.1797 13.8125C 36.888 14.0938 36.5625 14.3828 36.2031 14.6797C 35.901 14.9245 35.599 15.1641 35.2969 15.3984C 35 15.6276 34.7318 15.8542 34.4922 16.0781C 34.2526 16.2969 34.0573 16.5182 33.9062 16.7422C 33.7604 16.9609 33.6875 17.1823 33.6875 17.4062L 33.6875 17.4453L 38.7422 17.4453L 38.7422 19ZM 47.0703 7.79688L 47.0703 15.0312L 48.7344 15.0312L 48.7344 16.5391L 47.0703 16.5391L 47.0703 19L 45.3125 19L 45.3125 16.5391L 40.2422 16.5391L 40.2422 15.0156C 40.7005 14.5 41.1693 13.9427 41.6484 13.3438C 42.1328 12.7396 42.5964 12.125 43.0391 11.5C 43.487 10.8698 43.901 10.2396 44.2812 9.60938C 44.6615 8.97917 44.9818 8.375 45.2422 7.79688L 47.0703 7.79688ZM 45.3125 15.0312L 45.3125 10.3281C 44.7448 11.349 44.1823 12.2396 43.625 13C 43.0729 13.7604 42.5547 14.4375 42.0703 15.0312L 45.3125 15.0312Z"/>
<path id="path13_fill" d="M 37.1172 7.54688L 37.1172 19L 35.3047 19L 35.3047 9.76562C 34.9766 10 34.6224 10.2005 34.2422 10.3672C 33.8672 10.5286 33.4375 10.6719 32.9531 10.7969L 32.9531 9.25C 33.2552 9.15104 33.5469 9.04688 33.8281 8.9375C 34.1094 8.82812 34.3854 8.70573 34.6562 8.57031C 34.9323 8.4349 35.2083 8.28385 35.4844 8.11719C 35.7656 7.95052 36.0547 7.76042 36.3516 7.54688L 37.1172 7.54688ZM 47.0703 15.3984C 47.0703 15.9609 46.9766 16.474 46.7891 16.9375C 46.6068 17.401 46.3516 17.8021 46.0234 18.1406C 45.6953 18.474 45.3047 18.7344 44.8516 18.9219C 44.4036 19.1042 43.9167 19.1953 43.3906 19.1953C 42.8281 19.1953 42.3099 19.0859 41.8359 18.8672C 41.3672 18.6484 40.9609 18.3229 40.6172 17.8906C 40.2786 17.4583 40.0156 16.9219 39.8281 16.2812C 39.6406 15.6354 39.5469 14.888 39.5469 14.0391C 39.5469 13.0026 39.6693 12.0833 39.9141 11.2812C 40.1641 10.4792 40.5052 9.80729 40.9375 9.26562C 41.3698 8.72396 41.8776 8.3125 42.4609 8.03125C 43.0443 7.75 43.6745 7.60938 44.3516 7.60938C 44.7734 7.60938 45.1562 7.63802 45.5 7.69531C 45.849 7.7526 46.1276 7.83073 46.3359 7.92969L 46.3359 9.5625C 46.0703 9.42708 45.7865 9.3125 45.4844 9.21875C 45.1823 9.125 44.8359 9.07812 44.4453 9.07812C 44.0078 9.07812 43.6042 9.16667 43.2344 9.34375C 42.8646 9.52083 42.5443 9.78125 42.2734 10.125C 42.0078 10.4635 41.7969 10.8854 41.6406 11.3906C 41.4896 11.8906 41.4115 12.4688 41.4062 13.125L 41.4531 13.125C 41.6927 12.7552 42.0156 12.4635 42.4219 12.25C 42.8333 12.0365 43.3151 11.9297 43.8672 11.9297C 44.3568 11.9297 44.7969 12.0104 45.1875 12.1719C 45.5833 12.3281 45.9193 12.5573 46.1953 12.8594C 46.4766 13.1562 46.6927 13.5208 46.8438 13.9531C 46.9948 14.3802 47.0703 14.862 47.0703 15.3984ZM 45.2422 15.5469C 45.2422 15.224 45.2031 14.9297 45.125 14.6641C 45.0521 14.3984 44.9375 14.1719 44.7812 13.9844C 44.6302 13.7917 44.4375 13.6432 44.2031 13.5391C 43.974 13.4349 43.7031 13.3828 43.3906 13.3828C 43.0781 13.3828 42.8021 13.4401 42.5625 13.5547C 42.3281 13.6641 42.1302 13.8099 41.9688 13.9922C 41.8073 14.1745 41.6849 14.3828 41.6016 14.6172C 41.5234 14.8516 41.4844 15.0911 41.4844 15.3359C 41.4844 15.6016 41.5208 15.875 41.5938 16.1562C 41.6719 16.4323 41.7891 16.6849 41.9453 16.9141C 42.1016 17.1432 42.2995 17.3333 42.5391 17.4844C 42.7839 17.6302 43.0729 17.7031 43.4062 17.7031C 43.7031 17.7031 43.9661 17.6484 44.1953 17.5391C 44.4245 17.4297 44.6146 17.2786 44.7656 17.0859C 44.9219 16.8932 45.0391 16.6667 45.1172 16.4062C 45.2005 16.1406 45.2422 15.8542 45.2422 15.5469Z"/>
<path id="path14_fill" d="M 33.7344 7.79688L 33.7344 15.0312L 35.3984 15.0312L 35.3984 16.5391L 33.7344 16.5391L 33.7344 19L 31.9766 19L 31.9766 16.5391L 26.9062 16.5391L 26.9062 15.0156C 27.3646 14.5 27.8333 13.9427 28.3125 13.3438C 28.7969 12.7396 29.2604 12.125 29.7031 11.5C 30.151 10.8698 30.5651 10.2396 30.9453 9.60938C 31.3255 8.97917 31.6458 8.375 31.9062 7.79688L 33.7344 7.79688ZM 31.9766 15.0312L 31.9766 10.3281C 31.4089 11.349 30.8464 12.2396 30.2891 13C 29.737 13.7604 29.2188 14.4375 28.7344 15.0312L 31.9766 15.0312ZM 40.0391 19.1875C 38.8724 19.1875 37.9609 18.7109 37.3047 17.7578C 36.6536 16.8047 36.3281 15.4271 36.3281 13.625C 36.3281 11.6458 36.6693 10.1484 37.3516 9.13281C 38.0339 8.11719 39.0182 7.60938 40.3047 7.60938C 42.7682 7.60938 44 9.52344 44 13.3516C 44 15.2474 43.651 16.6953 42.9531 17.6953C 42.2604 18.6901 41.2891 19.1875 40.0391 19.1875ZM 40.2188 9.05469C 38.8594 9.05469 38.1797 10.5521 38.1797 13.5469C 38.1797 16.349 38.8464 17.75 40.1797 17.75C 41.4922 17.75 42.1484 16.3255 42.1484 13.4766C 42.1484 10.5286 41.5052 9.05469 40.2188 9.05469ZM 48.9297 19.1875C 47.763 19.1875 46.8516 18.7109 46.1953 17.7578C 45.5443 16.8047 45.2188 15.4271 45.2188 13.625C 45.2188 11.6458 45.5599 10.1484 46.2422 9.13281C 46.9245 8.11719 47.9089 7.60938 49.1953 7.60938C 51.6589 7.60938 52.8906 9.52344 52.8906 13.3516C 52.8906 15.2474 52.5417 16.6953 51.8438 17.6953C 51.151 18.6901 50.1797 19.1875 48.9297 19.1875ZM 49.1094 9.05469C 47.75 9.05469 47.0703 10.5521 47.0703 13.5469C 47.0703 16.349 47.737 17.75 49.0703 17.75C 50.3828 17.75 51.0391 16.3255 51.0391 13.4766C 51.0391 10.5286 50.3958 9.05469 49.1094 9.05469Z"/>
<path id="path15_fill" d="M 34.4609 19L 27.4297 19L 27.4297 18.1328C 27.4297 17.7786 27.4792 17.4479 27.5781 17.1406C 27.6771 16.8281 27.8099 16.5365 27.9766 16.2656C 28.1432 15.9896 28.3385 15.7318 28.5625 15.4922C 28.7865 15.2474 29.026 15.013 29.2812 14.7891C 29.5365 14.5599 29.7969 14.3411 30.0625 14.1328C 30.3281 13.9193 30.5885 13.7057 30.8438 13.4922C 31.0833 13.2891 31.3021 13.0911 31.5 12.8984C 31.6979 12.7005 31.8672 12.4974 32.0078 12.2891C 32.1484 12.0807 32.2578 11.862 32.3359 11.6328C 32.4141 11.3984 32.4531 11.1458 32.4531 10.875C 32.4531 10.5781 32.4062 10.3203 32.3125 10.1016C 32.224 9.8776 32.0964 9.69271 31.9297 9.54688C 31.7682 9.39583 31.5755 9.28385 31.3516 9.21094C 31.1276 9.13281 30.8828 9.09375 30.6172 9.09375C 30.1589 9.09375 29.6927 9.20052 29.2188 9.41406C 28.7448 9.6276 28.2891 9.94792 27.8516 10.375L 27.8516 8.63281C 28.0807 8.46094 28.3125 8.3125 28.5469 8.1875C 28.7812 8.05729 29.0234 7.95052 29.2734 7.86719C 29.5234 7.77865 29.7865 7.71354 30.0625 7.67188C 30.3385 7.63021 30.6328 7.60938 30.9453 7.60938C 31.4505 7.60938 31.9089 7.67708 32.3203 7.8125C 32.7318 7.94271 33.0833 8.13802 33.375 8.39844C 33.6667 8.65365 33.8906 8.97396 34.0469 9.35938C 34.2083 9.74479 34.2891 10.1875 34.2891 10.6875C 34.2891 11.1406 34.2318 11.5495 34.1172 11.9141C 34.0078 12.2734 33.849 12.6094 33.6406 12.9219C 33.4375 13.2344 33.1901 13.5312 32.8984 13.8125C 32.6068 14.0938 32.2812 14.3828 31.9219 14.6797C 31.6198 14.9245 31.3177 15.1641 31.0156 15.3984C 30.7188 15.6276 30.4505 15.8542 30.2109 16.0781C 29.9714 16.2969 29.776 16.5182 29.625 16.7422C 29.4792 16.9609 29.4062 17.1823 29.4062 17.4062L 29.4062 17.4453L 34.4609 17.4453L 34.4609 19ZM 39.875 19.1875C 38.7083 19.1875 37.7969 18.7109 37.1406 17.7578C 36.4896 16.8047 36.1641 15.4271 36.1641 13.625C 36.1641 11.6458 36.5052 10.1484 37.1875 9.13281C 37.8698 8.11719 38.8542 7.60938 40.1406 7.60938C 42.6042 7.60938 43.8359 9.52344 43.8359 13.3516C 43.8359 15.2474 43.487 16.6953 42.7891 17.6953C 42.0964 18.6901 41.125 19.1875 39.875 19.1875ZM 40.0547 9.05469C 38.6953 9.05469 38.0156 10.5521 38.0156 13.5469C 38.0156 16.349 38.6823 17.75 40.0156 17.75C 41.3281 17.75 41.9844 16.3255 41.9844 13.4766C 41.9844 10.5286 41.3411 9.05469 40.0547 9.05469ZM 48.7656 19.1875C 47.599 19.1875 46.6875 18.7109 46.0312 17.7578C 45.3802 16.8047 45.0547 15.4271 45.0547 13.625C 45.0547 11.6458 45.3958 10.1484 46.0781 9.13281C 46.7604 8.11719 47.7448 7.60938 49.0312 7.60938C 51.4948 7.60938 52.7266 9.52344 52.7266 13.3516C 52.7266 15.2474 52.3776 16.6953 51.6797 17.6953C 50.987 18.6901 50.0156 19.1875 48.7656 19.1875ZM 48.9453 9.05469C 47.5859 9.05469 46.9062 10.5521 46.9062 13.5469C 46.9062 16.349 47.5729 17.75 48.9062 17.75C 50.2188 17.75 50.875 16.3255 50.875 13.4766C 50.875 10.5286 50.2318 9.05469 48.9453 9.05469Z"/>
<path id="path16_fill" d="M 42.625 7.79688L 42.625 15.0312L 44.2891 15.0312L 44.2891 16.5391L 42.625 16.5391L 42.625 19L 40.8672 19L 40.8672 16.5391L 35.7969 16.5391L 35.7969 15.0156C 36.2552 14.5 36.724 13.9427 37.2031 13.3438C 37.6875 12.7396 38.151 12.125 38.5938 11.5C 39.0417 10.8698 39.4557 10.2396 39.8359 9.60938C 40.2161 8.97917 40.5365 8.375 40.7969 7.79688L 42.625 7.79688ZM 40.8672 15.0312L 40.8672 10.3281C 40.2995 11.349 39.737 12.2396 39.1797 13C 38.6276 13.7604 38.1094 14.4375 37.625 15.0312L 40.8672 15.0312Z"/>
<path id="path17_stroke" d="M 0 0L 398 0L 398 -2L 0 -2L 0 0Z"/>
<path id="path18_stroke" d="M 0 0L 208 0L 208 -2L 0 -2L 0 0Z"/>
<path id="path19_stroke" d="M 0 0L 55 0L 55 -2L 0 -2L 0 0Z"/>
<path id="path20_stroke" d="M 0 0L 16 0L 16 -2L 0 -2L 0 0Z"/>
<path id="path21_fill" d="M 14.541 20L 11.8262 20L 9.58984 16.25C 9.38802 15.9049 9.18945 15.612 8.99414 15.3711C 8.80534 15.1237 8.61003 14.9219 8.4082 14.7656C 8.21289 14.6094 7.99805 14.4954 7.76367 14.4238C 7.5293 14.3522 7.26562 14.3164 6.97266 14.3164L 6.03516 14.3164L 6.03516 20L 3.7207 20L 3.7207 5.99609L 8.33008 5.99609C 8.98763 5.99609 9.5931 6.07422 10.1465 6.23047C 10.6999 6.38672 11.1816 6.62435 11.5918 6.94336C 12.002 7.25586 12.321 7.64974 12.5488 8.125C 12.7832 8.59375 12.9004 9.14388 12.9004 9.77539C 12.9004 10.2702 12.8255 10.7259 12.6758 11.1426C 12.5326 11.5527 12.3242 11.9206 12.0508 12.2461C 11.7839 12.5651 11.4583 12.8385 11.0742 13.0664C 10.6966 13.2943 10.2702 13.4701 9.79492 13.5938L 9.79492 13.6328C 10.0488 13.776 10.2702 13.9355 10.459 14.1113C 10.6478 14.2806 10.8268 14.4564 10.9961 14.6387C 11.1654 14.821 11.3314 15.0293 11.4941 15.2637C 11.6634 15.4915 11.849 15.7585 12.0508 16.0645L 14.541 20ZM 6.03516 7.88086L 6.03516 12.4316L 7.96875 12.4316C 8.32682 12.4316 8.6556 12.3763 8.95508 12.2656C 9.26107 12.1549 9.52474 11.9954 9.74609 11.7871C 9.96745 11.5788 10.14 11.3249 10.2637 11.0254C 10.3874 10.7259 10.4492 10.3906 10.4492 10.0195C 10.4492 9.34896 10.2376 8.82487 9.81445 8.44727C 9.39128 8.06966 8.78255 7.88086 7.98828 7.88086L 6.03516 7.88086ZM 23.8672 15.6152L 17.0508 15.6152C 17.0768 16.5397 17.36 17.2526 17.9004 17.7539C 18.4473 18.2552 19.196 18.5059 20.1465 18.5059C 21.2142 18.5059 22.194 18.1868 23.0859 17.5488L 23.0859 19.375C 22.1745 19.9479 20.9701 20.2344 19.4727 20.2344C 18.0013 20.2344 16.8457 19.7819 16.0059 18.877C 15.1725 17.9655 14.7559 16.6862 14.7559 15.0391C 14.7559 13.4831 15.2148 12.2168 16.1328 11.2402C 17.0573 10.2572 18.2031 9.76562 19.5703 9.76562C 20.9375 9.76562 21.9954 10.2051 22.7441 11.084C 23.4928 11.9629 23.8672 13.1836 23.8672 14.7461L 23.8672 15.6152ZM 21.6797 14.0137C 21.6732 13.1999 21.4811 12.5684 21.1035 12.1191C 20.7259 11.6634 20.2051 11.4355 19.541 11.4355C 18.89 11.4355 18.3366 11.6732 17.8809 12.1484C 17.4316 12.6237 17.1549 13.2454 17.0508 14.0137L 21.6797 14.0137ZM 35.1172 20L 32.8516 20L 32.8516 18.3008L 32.8125 18.3008C 32.0833 19.5898 30.9603 20.2344 29.4434 20.2344C 28.2129 20.2344 27.2266 19.7884 26.4844 18.8965C 25.7487 17.998 25.3809 16.7773 25.3809 15.2344C 25.3809 13.5807 25.7878 12.2559 26.6016 11.2598C 27.4219 10.2637 28.5124 9.76562 29.873 9.76562C 31.2207 9.76562 32.2005 10.306 32.8125 11.3867L 32.8516 11.3867L 32.8516 5.19531L 35.1172 5.19531L 35.1172 20ZM 32.8809 15.4297L 32.8809 14.1211C 32.8809 13.4115 32.6497 12.8092 32.1875 12.3145C 31.7253 11.8197 31.1361 11.5723 30.4199 11.5723C 29.5736 11.5723 28.9062 11.888 28.418 12.5195C 27.9362 13.151 27.6953 14.0267 27.6953 15.1465C 27.6953 16.1621 27.9264 16.9661 28.3887 17.5586C 28.8574 18.1445 29.4857 18.4375 30.2734 18.4375C 31.0482 18.4375 31.6764 18.1543 32.1582 17.5879C 32.64 17.015 32.8809 16.2956 32.8809 15.4297ZM 40.3516 20L 38.0762 20L 38.0762 5.19531L 40.3516 5.19531L 40.3516 20ZM 44.4531 7.90039C 44.082 7.90039 43.763 7.77995 43.4961 7.53906C 43.2357 7.29818 43.1055 6.99219 43.1055 6.62109C 43.1055 6.25 43.2357 5.94076 43.4961 5.69336C 43.763 5.44596 44.082 5.32227 44.4531 5.32227C 44.8372 5.32227 45.1628 5.44596 45.4297 5.69336C 45.6966 5.94076 45.8301 6.25 45.8301 6.62109C 45.8301 6.97266 45.6966 7.27539 45.4297 7.5293C 45.1628 7.77669 44.8372 7.90039 44.4531 7.90039ZM 45.5762 20L 43.3105 20L 43.3105 10L 45.5762 10L 45.5762 20ZM 57.4512 20L 55.1855 20L 55.1855 14.3652C 55.1855 12.4967 54.5247 11.5625 53.2031 11.5625C 52.513 11.5625 51.9434 11.8229 51.4941 12.3438C 51.0449 12.8581 50.8203 13.5091 50.8203 14.2969L 50.8203 20L 48.5449 20L 48.5449 10L 50.8203 10L 50.8203 11.6602L 50.8594 11.6602C 51.6081 10.3971 52.6888 9.76562 54.1016 9.76562C 55.1888 9.76562 56.0189 10.1204 56.5918 10.8301C 57.1647 11.5332 57.4512 12.5521 57.4512 13.8867L 57.4512 20ZM 68.6914 15.6152L 61.875 15.6152C 61.901 16.5397 62.1842 17.2526 62.7246 17.7539C 63.2715 18.2552 64.0202 18.5059 64.9707 18.5059C 66.0384 18.5059 67.0182 18.1868 67.9102 17.5488L 67.9102 19.375C 66.9987 19.9479 65.7943 20.2344 64.2969 20.2344C 62.8255 20.2344 61.6699 19.7819 60.8301 18.877C 59.9967 17.9655 59.5801 16.6862 59.5801 15.0391C 59.5801 13.4831 60.0391 12.2168 60.957 11.2402C 61.8815 10.2572 63.0273 9.76562 64.3945 9.76562C 65.7617 9.76562 66.8197 10.2051 67.5684 11.084C 68.3171 11.9629 68.6914 13.1836 68.6914 14.7461L 68.6914 15.6152ZM 66.5039 14.0137C 66.4974 13.1999 66.3053 12.5684 65.9277 12.1191C 65.5501 11.6634 65.0293 11.4355 64.3652 11.4355C 63.7142 11.4355 63.1608 11.6732 62.7051 12.1484C 62.2559 12.6237 61.9792 13.2454 61.875 14.0137L 66.5039 14.0137ZM 70.2246 19.6875L 70.2246 17.5879C 71.071 18.2324 72.0052 18.5547 73.0273 18.5547C 74.3945 18.5547 75.0781 18.151 75.0781 17.3438C 75.0781 17.1159 75.0195 16.9238 74.9023 16.7676C 74.7852 16.6048 74.6257 16.4616 74.4238 16.3379C 74.2285 16.2142 73.9941 16.1035 73.7207 16.0059C 73.4538 15.9082 73.1543 15.7975 72.8223 15.6738C 72.4121 15.5111 72.041 15.3385 71.709 15.1562C 71.3835 14.974 71.11 14.7689 70.8887 14.541C 70.6738 14.3066 70.5111 14.043 70.4004 13.75C 70.2897 13.457 70.2344 13.1152 70.2344 12.7246C 70.2344 12.2428 70.3483 11.8197 70.5762 11.4551C 70.804 11.084 71.11 10.7747 71.4941 10.5273C 71.8783 10.2734 72.3145 10.0846 72.8027 9.96094C 73.291 9.83073 73.7956 9.76562 74.3164 9.76562C 75.2409 9.76562 76.0677 9.9056 76.7969 10.1855L 76.7969 12.168C 76.0938 11.6862 75.2865 11.4453 74.375 11.4453C 74.0885 11.4453 73.8281 11.4746 73.5938 11.5332C 73.3659 11.5918 73.1706 11.6732 73.0078 11.7773C 72.8451 11.8815 72.7181 12.0085 72.627 12.1582C 72.5358 12.3014 72.4902 12.4609 72.4902 12.6367C 72.4902 12.8516 72.5358 13.0339 72.627 13.1836C 72.7181 13.3333 72.8516 13.4668 73.0273 13.584C 73.2096 13.6947 73.4245 13.7988 73.6719 13.8965C 73.9258 13.9876 74.2155 14.0885 74.541 14.1992C 74.9707 14.375 75.3548 14.554 75.6934 14.7363C 76.0384 14.9186 76.3314 15.127 76.5723 15.3613C 76.8132 15.5892 76.9987 15.8561 77.1289 16.1621C 77.2591 16.4616 77.3242 16.8197 77.3242 17.2363C 77.3242 17.7441 77.207 18.1868 76.9727 18.5645C 76.7383 18.9421 76.4258 19.2546 76.0352 19.502C 75.6445 19.7493 75.1921 19.9316 74.6777 20.0488C 74.1699 20.1725 73.6328 20.2344 73.0664 20.2344C 71.9727 20.2344 71.0254 20.0521 70.2246 19.6875Z"/>
<path id="path22_fill" d="M 43.543 20L 41.0039 20L 34.3145 9.70703C 34.1452 9.44661 34.0052 9.17643 33.8945 8.89648L 33.8359 8.89648C 33.888 9.19596 33.9141 9.83724 33.9141 10.8203L 33.9141 20L 31.668 20L 31.668 5.99609L 34.373 5.99609L 40.8379 16.0449C 41.1113 16.4616 41.2871 16.748 41.3652 16.9043L 41.4043 16.9043C 41.3392 16.5332 41.3066 15.9049 41.3066 15.0195L 41.3066 5.99609L 43.543 5.99609L 43.543 20ZM 51.1992 20.2344C 49.6562 20.2344 48.4225 19.7689 47.498 18.8379C 46.5801 17.9004 46.1211 16.6602 46.1211 15.1172C 46.1211 13.4375 46.5996 12.1257 47.5566 11.1816C 48.5202 10.2376 49.8158 9.76562 51.4434 9.76562C 53.0059 9.76562 54.2233 10.2246 55.0957 11.1426C 55.9681 12.0605 56.4043 13.3333 56.4043 14.9609C 56.4043 16.556 55.9323 17.8353 54.9883 18.7988C 54.0508 19.7559 52.7878 20.2344 51.1992 20.2344ZM 51.3066 11.5723C 50.4212 11.5723 49.7214 11.8815 49.207 12.5C 48.6927 13.1185 48.4355 13.9714 48.4355 15.0586C 48.4355 16.1068 48.696 16.9336 49.2168 17.5391C 49.7376 18.138 50.4342 18.4375 51.3066 18.4375C 52.1986 18.4375 52.8822 18.1413 53.3574 17.5488C 53.8392 16.9564 54.0801 16.1133 54.0801 15.0195C 54.0801 13.9193 53.8392 13.0697 53.3574 12.4707C 52.8822 11.8717 52.1986 11.5723 51.3066 11.5723ZM 70.0273 12.1582C 69.7539 11.9434 69.36 11.8359 68.8457 11.8359C 68.1751 11.8359 67.6152 12.1387 67.166 12.7441C 66.7168 13.3496 66.4922 14.1732 66.4922 15.2148L 66.4922 20L 64.2266 20L 64.2266 10L 66.4922 10L 66.4922 12.0605L 66.5312 12.0605C 66.7526 11.3574 67.0911 10.8105 67.5469 10.4199C 68.0091 10.0228 68.5234 9.82422 69.0898 9.82422C 69.5 9.82422 69.8125 9.88607 70.0273 10.0098L 70.0273 12.1582ZM 79.9199 15.6152L 73.1035 15.6152C 73.1296 16.5397 73.4128 17.2526 73.9531 17.7539C 74.5 18.2552 75.2487 18.5059 76.1992 18.5059C 77.2669 18.5059 78.2467 18.1868 79.1387 17.5488L 79.1387 19.375C 78.2272 19.9479 77.0228 20.2344 75.5254 20.2344C 74.054 20.2344 72.8984 19.7819 72.0586 18.877C 71.2253 17.9655 70.8086 16.6862 70.8086 15.0391C 70.8086 13.4831 71.2676 12.2168 72.1855 11.2402C 73.11 10.2572 74.2559 9.76562 75.623 9.76562C 76.9902 9.76562 78.0482 10.2051 78.7969 11.084C 79.5456 11.9629 79.9199 13.1836 79.9199 14.7461L 79.9199 15.6152ZM 77.7324 14.0137C 77.7259 13.1999 77.5339 12.5684 77.1562 12.1191C 76.7786 11.6634 76.2578 11.4355 75.5938 11.4355C 74.9427 11.4355 74.3893 11.6732 73.9336 12.1484C 73.4844 12.6237 73.2077 13.2454 73.1035 14.0137L 77.7324 14.0137ZM 91.1699 20L 88.9043 20L 88.9043 18.3008L 88.8652 18.3008C 88.1361 19.5898 87.013 20.2344 85.4961 20.2344C 84.2656 20.2344 83.2793 19.7884 82.5371 18.8965C 81.8014 17.998 81.4336 16.7773 81.4336 15.2344C 81.4336 13.5807 81.8405 12.2559 82.6543 11.2598C 83.4746 10.2637 84.5651 9.76562 85.9258 9.76562C 87.2734 9.76562 88.2533 10.306 88.8652 11.3867L 88.9043 11.3867L 88.9043 5.19531L 91.1699 5.19531L 91.1699 20ZM 88.9336 15.4297L 88.9336 14.1211C 88.9336 13.4115 88.7025 12.8092 88.2402 12.3145C 87.778 11.8197 87.1888 11.5723 86.4727 11.5723C 85.6263 11.5723 84.959 11.888 84.4707 12.5195C 83.9889 13.151 83.748 14.0267 83.748 15.1465C 83.748 16.1621 83.9792 16.9661 84.4414 17.5586C 84.9102 18.1445 85.5384 18.4375 86.3262 18.4375C 87.1009 18.4375 87.7292 18.1543 88.2109 17.5879C 88.6927 17.015 88.9336 16.2956 88.9336 15.4297ZM 96.4043 20L 94.1289 20L 94.1289 5.19531L 96.4043 5.19531L 96.4043 20ZM 100.506 7.90039C 100.135 7.90039 99.8158 7.77995 99.5488 7.53906C 99.2884 7.29818 99.1582 6.99219 99.1582 6.62109C 99.1582 6.25 99.2884 5.94076 99.5488 5.69336C 99.8158 5.44596 100.135 5.32227 100.506 5.32227C 100.89 5.32227 101.215 5.44596 101.482 5.69336C 101.749 5.94076 101.883 6.25 101.883 6.62109C 101.883 6.97266 101.749 7.27539 101.482 7.5293C 101.215 7.77669 100.89 7.90039 100.506 7.90039ZM 101.629 20L 99.3633 20L 99.3633 10L 101.629 10L 101.629 20ZM 113.504 20L 111.238 20L 111.238 14.3652C 111.238 12.4967 110.577 11.5625 109.256 11.5625C 108.566 11.5625 107.996 11.8229 107.547 12.3438C 107.098 12.8581 106.873 13.5091 106.873 14.2969L 106.873 20L 104.598 20L 104.598 10L 106.873 10L 106.873 11.6602L 106.912 11.6602C 107.661 10.3971 108.742 9.76562 110.154 9.76562C 111.242 9.76562 112.072 10.1204 112.645 10.8301C 113.217 11.5332 113.504 12.5521 113.504 13.8867L 113.504 20ZM 124.744 15.6152L 117.928 15.6152C 117.954 16.5397 118.237 17.2526 118.777 17.7539C 119.324 18.2552 120.073 18.5059 121.023 18.5059C 122.091 18.5059 123.071 18.1868 123.963 17.5488L 123.963 19.375C 123.051 19.9479 121.847 20.2344 120.35 20.2344C 118.878 20.2344 117.723 19.7819 116.883 18.877C 116.049 17.9655 115.633 16.6862 115.633 15.0391C 115.633 13.4831 116.092 12.2168 117.01 11.2402C 117.934 10.2572 119.08 9.76562 120.447 9.76562C 121.814 9.76562 122.872 10.2051 123.621 11.084C 124.37 11.9629 124.744 13.1836 124.744 14.7461L 124.744 15.6152ZM 122.557 14.0137C 122.55 13.1999 122.358 12.5684 121.98 12.1191C 121.603 11.6634 121.082 11.4355 120.418 11.4355C 119.767 11.4355 119.214 11.6732 118.758 12.1484C 118.309 12.6237 118.032 13.2454 117.928 14.0137L 122.557 14.0137ZM 126.277 19.6875L 126.277 17.5879C 127.124 18.2324 128.058 18.5547 129.08 18.5547C 130.447 18.5547 131.131 18.151 131.131 17.3438C 131.131 17.1159 131.072 16.9238 130.955 16.7676C 130.838 16.6048 130.678 16.4616 130.477 16.3379C 130.281 16.2142 130.047 16.1035 129.773 16.0059C 129.507 15.9082 129.207 15.7975 128.875 15.6738C 128.465 15.5111 128.094 15.3385 127.762 15.1562C 127.436 14.974 127.163 14.7689 126.941 14.541C 126.727 14.3066 126.564 14.043 126.453 13.75C 126.342 13.457 126.287 13.1152 126.287 12.7246C 126.287 12.2428 126.401 11.8197 126.629 11.4551C 126.857 11.084 127.163 10.7747 127.547 10.5273C 127.931 10.2734 128.367 10.0846 128.855 9.96094C 129.344 9.83073 129.848 9.76562 130.369 9.76562C 131.294 9.76562 132.12 9.9056 132.85 10.1855L 132.85 12.168C 132.146 11.6862 131.339 11.4453 130.428 11.4453C 130.141 11.4453 129.881 11.4746 129.646 11.5332C 129.419 11.5918 129.223 11.6732 129.061 11.7773C 128.898 11.8815 128.771 12.0085 128.68 12.1582C 128.589 12.3014 128.543 12.4609 128.543 12.6367C 128.543 12.8516 128.589 13.0339 128.68 13.1836C 128.771 13.3333 128.904 13.4668 129.08 13.584C 129.262 13.6947 129.477 13.7988 129.725 13.8965C 129.979 13.9876 130.268 14.0885 130.594 14.1992C 131.023 14.375 131.408 14.554 131.746 14.7363C 132.091 14.9186 132.384 15.127 132.625 15.3613C 132.866 15.5892 133.051 15.8561 133.182 16.1621C 133.312 16.4616 133.377 16.8197 133.377 17.2363C 133.377 17.7441 133.26 18.1868 133.025 18.5645C 132.791 18.9421 132.479 19.2546 132.088 19.502C 131.697 19.7493 131.245 19.9316 130.73 20.0488C 130.223 20.1725 129.686 20.2344 129.119 20.2344C 128.025 20.2344 127.078 20.0521 126.277 19.6875Z"/>
</defs>
</svg>
