<svg width="1152" height="576" viewBox="0 0 1152 576" version="1.1" xmlns="http://www.w3.org/2000/svg" xmlns:xlink="http://www.w3.org/1999/xlink">
<title>xaml-layout-textbox-no-margins-padding</title>
<desc>Created using Figma</desc>
<g id="Canvas" transform="translate(-2491 11114)">
<g id="xaml-layout-textbox-no-margins-padding">
<path d="M 2491 -11114L 3643 -11114L 3643 -10538L 2491 -10538L 2491 -11114Z" fill="#F4F4F4"/>
<g id="Group">
<clipPath id="clip-0" clip-rule="evenodd">
<path d="M 2865 -10906L 3265 -10906L 3265 -10826L 2865 -10826L 2865 -10906Z" fill="#FFFFFF"/>
</clipPath>
<g id="pattern-form" clip-path="url(#clip-0)">
<path d="M 2865 -10906L 3265 -10906L 3265 -10826L 2865 -10826L 2865 -10906Z" fill="#007AD0"/>
<g id="Rectangle">
<use xlink:href="#path0_fill" transform="translate(2873 -10897)" fill="#FFFFFF"/>
<mask id="mask0_outline_ins">
<use xlink:href="#path0_fill" fill="white" transform="translate(2873 -10897)"/>
</mask>
<g mask="url(#mask0_outline_ins)">
<use xlink:href="#path1_stroke_2x" transform="translate(2873 -10897)" fill="#243A5E"/>
</g>
</g>
<g id="This is text in a TextBox.">
<use xlink:href="#path2_fill" transform="translate(2896 -10885)"/>
</g>
</g>
</g>
<g id="These articles help">
<use xlink:href="#path3_fill" transform="translate(2773 -10695)" fill="#243A5E"/>
</g>
</g>
</g>
<defs>
<path id="path0_fill" d="M 0 0L 384 0L 384 63L 0 63L 0 0Z"/>
<path id="path1_stroke_2x" d="M 0 0L 0 -4L -4 -4L -4 0L 0 0ZM 384 0L 388 0L 388 -4L 384 -4L 384 0ZM 384 63L 384 67L 388 67L 388 63L 384 63ZM 0 63L -4 63L -4 67L 0 67L 0 63ZM 0 4L 384 4L 384 -4L 0 -4L 0 4ZM 380 0L 380 63L 388 63L 388 0L 380 0ZM 384 59L 0 59L 0 67L 384 67L 384 59ZM 4 63L 4 0L -4 0L -4 63L 4 63Z"/>
<path id="path2_fill" d="M 14.998 10.1562L 9.36523 10.1562L 9.36523 27L 6.11133 27L 6.11133 10.1562L 0.492188 10.1562L 0.492188 7.39453L 14.998 7.39453L 14.998 10.1562ZM 29.9551 27L 26.7832 27L 26.7832 19.3438C 26.7832 16.5729 25.8581 15.1875 24.0078 15.1875C 23.0781 15.1875 22.2943 15.5885 21.6562 16.3906C 21.0182 17.1927 20.6992 18.2181 20.6992 19.4668L 20.6992 27L 17.5137 27L 17.5137 6.27344L 20.6992 6.27344L 20.6992 15.3242L 20.7539 15.3242C 21.8112 13.556 23.3242 12.6719 25.293 12.6719C 28.401 12.6719 29.9551 14.5723 29.9551 18.373L 29.9551 27ZM 35.4102 10.0605C 34.8906 10.0605 34.444 9.89193 34.0703 9.55469C 33.7057 9.21745 33.5234 8.78906 33.5234 8.26953C 33.5234 7.75 33.7057 7.31706 34.0703 6.9707C 34.444 6.62435 34.8906 6.45117 35.4102 6.45117C 35.9479 6.45117 36.4036 6.62435 36.7773 6.9707C 37.151 7.31706 37.3379 7.75 37.3379 8.26953C 37.3379 8.76172 37.151 9.18555 36.7773 9.54102C 36.4036 9.88737 35.9479 10.0605 35.4102 10.0605ZM 36.9824 27L 33.8105 27L 33.8105 13L 36.9824 13L 36.9824 27ZM 40.2637 26.5625L 40.2637 23.623C 41.4486 24.5254 42.7565 24.9766 44.1875 24.9766C 46.1016 24.9766 47.0586 24.4115 47.0586 23.2812C 47.0586 22.9622 46.9766 22.6934 46.8125 22.4746C 46.6484 22.2467 46.4251 22.0462 46.1426 21.873C 45.8691 21.6999 45.541 21.5449 45.1582 21.4082C 44.7845 21.2715 44.3652 21.1165 43.9004 20.9434C 43.3262 20.7155 42.8066 20.474 42.3418 20.2188C 41.8861 19.9635 41.5033 19.6764 41.1934 19.3574C 40.8926 19.0293 40.6647 18.6602 40.5098 18.25C 40.3548 17.8398 40.2773 17.3613 40.2773 16.8145C 40.2773 16.14 40.4368 15.5475 40.7559 15.0371C 41.0749 14.5176 41.5033 14.0846 42.041 13.7383C 42.5788 13.3828 43.1895 13.1185 43.873 12.9453C 44.5566 12.763 45.263 12.6719 45.9922 12.6719C 47.2865 12.6719 48.444 12.8678 49.4648 13.2598L 49.4648 16.0352C 48.4805 15.3607 47.3503 15.0234 46.0742 15.0234C 45.6732 15.0234 45.3086 15.0645 44.9805 15.1465C 44.6615 15.2285 44.388 15.3424 44.1602 15.4883C 43.9323 15.6341 43.7546 15.8118 43.627 16.0215C 43.4993 16.222 43.4355 16.4453 43.4355 16.6914C 43.4355 16.9922 43.4993 17.2474 43.627 17.457C 43.7546 17.6667 43.9414 17.8535 44.1875 18.0176C 44.4427 18.1725 44.7435 18.3184 45.0898 18.4551C 45.4453 18.5827 45.8509 18.724 46.3066 18.8789C 46.9082 19.125 47.446 19.3757 47.9199 19.6309C 48.403 19.8861 48.8132 20.1777 49.1504 20.5059C 49.4876 20.8249 49.7474 21.1986 49.9297 21.627C 50.112 22.0462 50.2031 22.5475 50.2031 23.1309C 50.2031 23.8418 50.0391 24.4616 49.7109 24.9902C 49.3828 25.5189 48.9453 25.9564 48.3984 26.3027C 47.8516 26.6491 47.2181 26.9043 46.498 27.0684C 45.7871 27.2415 45.0352 27.3281 44.2422 27.3281C 42.7109 27.3281 41.3848 27.0729 40.2637 26.5625ZM 62.5352 10.0605C 62.0156 10.0605 61.569 9.89193 61.1953 9.55469C 60.8307 9.21745 60.6484 8.78906 60.6484 8.26953C 60.6484 7.75 60.8307 7.31706 61.1953 6.9707C 61.569 6.62435 62.0156 6.45117 62.5352 6.45117C 63.0729 6.45117 63.5286 6.62435 63.9023 6.9707C 64.276 7.31706 64.4629 7.75 64.4629 8.26953C 64.4629 8.76172 64.276 9.18555 63.9023 9.54102C 63.5286 9.88737 63.0729 10.0605 62.5352 10.0605ZM 64.1074 27L 60.9355 27L 60.9355 13L 64.1074 13L 64.1074 27ZM 67.3887 26.5625L 67.3887 23.623C 68.5736 24.5254 69.8815 24.9766 71.3125 24.9766C 73.2266 24.9766 74.1836 24.4115 74.1836 23.2812C 74.1836 22.9622 74.1016 22.6934 73.9375 22.4746C 73.7734 22.2467 73.5501 22.0462 73.2676 21.873C 72.9941 21.6999 72.666 21.5449 72.2832 21.4082C 71.9095 21.2715 71.4902 21.1165 71.0254 20.9434C 70.4512 20.7155 69.9316 20.474 69.4668 20.2188C 69.0111 19.9635 68.6283 19.6764 68.3184 19.3574C 68.0176 19.0293 67.7897 18.6602 67.6348 18.25C 67.4798 17.8398 67.4023 17.3613 67.4023 16.8145C 67.4023 16.14 67.5618 15.5475 67.8809 15.0371C 68.1999 14.5176 68.6283 14.0846 69.166 13.7383C 69.7038 13.3828 70.3145 13.1185 70.998 12.9453C 71.6816 12.763 72.388 12.6719 73.1172 12.6719C 74.4115 12.6719 75.569 12.8678 76.5898 13.2598L 76.5898 16.0352C 75.6055 15.3607 74.4753 15.0234 73.1992 15.0234C 72.7982 15.0234 72.4336 15.0645 72.1055 15.1465C 71.7865 15.2285 71.513 15.3424 71.2852 15.4883C 71.0573 15.6341 70.8796 15.8118 70.752 16.0215C 70.6243 16.222 70.5605 16.4453 70.5605 16.6914C 70.5605 16.9922 70.6243 17.2474 70.752 17.457C 70.8796 17.6667 71.0664 17.8535 71.3125 18.0176C 71.5677 18.1725 71.8685 18.3184 72.2148 18.4551C 72.5703 18.5827 72.9759 18.724 73.4316 18.8789C 74.0332 19.125 74.571 19.3757 75.0449 19.6309C 75.528 19.8861 75.9382 20.1777 76.2754 20.5059C 76.6126 20.8249 76.8724 21.1986 77.0547 21.627C 77.237 22.0462 77.3281 22.5475 77.3281 23.1309C 77.3281 23.8418 77.1641 24.4616 76.8359 24.9902C 76.5078 25.5189 76.0703 25.9564 75.5234 26.3027C 74.9766 26.6491 74.3431 26.9043 73.623 27.0684C 72.9121 27.2415 72.1602 27.3281 71.3672 27.3281C 69.8359 27.3281 68.5098 27.0729 67.3887 26.5625ZM 95.4434 26.8496C 94.8236 27.1595 94.0078 27.3145 92.9961 27.3145C 90.2799 27.3145 88.9219 26.0111 88.9219 23.4043L 88.9219 15.4883L 86.584 15.4883L 86.584 13L 88.9219 13L 88.9219 9.75977L 92.0938 8.85742L 92.0938 13L 95.4434 13L 95.4434 15.4883L 92.0938 15.4883L 92.0938 22.4883C 92.0938 23.3177 92.2441 23.9102 92.5449 24.2656C 92.8457 24.6211 93.347 24.7988 94.0488 24.7988C 94.5866 24.7988 95.0514 24.6439 95.4434 24.334L 95.4434 26.8496ZM 109.867 20.8613L 100.324 20.8613C 100.361 22.1556 100.757 23.1536 101.514 23.8555C 102.279 24.5573 103.327 24.9082 104.658 24.9082C 106.153 24.9082 107.525 24.4616 108.773 23.5684L 108.773 26.125C 107.497 26.9271 105.811 27.3281 103.715 27.3281C 101.655 27.3281 100.037 26.6947 98.8613 25.4277C 97.6947 24.1517 97.1113 22.3607 97.1113 20.0547C 97.1113 17.8763 97.7539 16.1035 99.0391 14.7363C 100.333 13.36 101.938 12.6719 103.852 12.6719C 105.766 12.6719 107.247 13.2871 108.295 14.5176C 109.343 15.748 109.867 17.457 109.867 19.6445L 109.867 20.8613ZM 106.805 18.6191C 106.796 17.4798 106.527 16.5957 105.998 15.9668C 105.469 15.3288 104.74 15.0098 103.811 15.0098C 102.899 15.0098 102.124 15.3424 101.486 16.0078C 100.857 16.6732 100.47 17.5436 100.324 18.6191L 106.805 18.6191ZM 124.592 13L 119.93 20.082L 124.537 27L 120.859 27L 118.398 22.666C 118.243 22.4017 118.061 22.0645 117.852 21.6543L 117.797 21.6543C 117.76 21.7363 117.569 22.0736 117.223 22.666L 114.721 27L 111.057 27L 115.814 20.1367L 111.303 13L 114.994 13L 117.414 17.5527C 117.596 17.89 117.774 18.2363 117.947 18.5918L 117.988 18.5918L 121.119 13L 124.592 13ZM 134.299 26.8496C 133.679 27.1595 132.863 27.3145 131.852 27.3145C 129.135 27.3145 127.777 26.0111 127.777 23.4043L 127.777 15.4883L 125.439 15.4883L 125.439 13L 127.777 13L 127.777 9.75977L 130.949 8.85742L 130.949 13L 134.299 13L 134.299 15.4883L 130.949 15.4883L 130.949 22.4883C 130.949 23.3177 131.1 23.9102 131.4 24.2656C 131.701 24.6211 132.202 24.7988 132.904 24.7988C 133.442 24.7988 133.907 24.6439 134.299 24.334L 134.299 26.8496ZM 146.344 10.0605C 145.824 10.0605 145.378 9.89193 145.004 9.55469C 144.639 9.21745 144.457 8.78906 144.457 8.26953C 144.457 7.75 144.639 7.31706 145.004 6.9707C 145.378 6.62435 145.824 6.45117 146.344 6.45117C 146.882 6.45117 147.337 6.62435 147.711 6.9707C 148.085 7.31706 148.271 7.75 148.271 8.26953C 148.271 8.76172 148.085 9.18555 147.711 9.54102C 147.337 9.88737 146.882 10.0605 146.344 10.0605ZM 147.916 27L 144.744 27L 144.744 13L 147.916 13L 147.916 27ZM 164.541 27L 161.369 27L 161.369 19.1113C 161.369 16.4954 160.444 15.1875 158.594 15.1875C 157.628 15.1875 156.83 15.5521 156.201 16.2812C 155.572 17.0013 155.258 17.9128 155.258 19.0156L 155.258 27L 152.072 27L 152.072 13L 155.258 13L 155.258 15.3242L 155.312 15.3242C 156.361 13.556 157.874 12.6719 159.852 12.6719C 161.374 12.6719 162.536 13.1686 163.338 14.1621C 164.14 15.1465 164.541 16.5729 164.541 18.4414L 164.541 27ZM 186.881 27L 183.805 27L 183.805 24.8125L 183.75 24.8125C 182.784 26.4896 181.367 27.3281 179.498 27.3281C 178.122 27.3281 177.042 26.9544 176.258 26.207C 175.483 25.4596 175.096 24.4707 175.096 23.2402C 175.096 20.597 176.618 19.0566 179.662 18.6191L 183.818 18.0312C 183.818 16.0352 182.87 15.0371 180.975 15.0371C 179.307 15.0371 177.803 15.6113 176.463 16.7598L 176.463 13.9844C 177.939 13.1094 179.644 12.6719 181.576 12.6719C 185.113 12.6719 186.881 14.4128 186.881 17.8945L 186.881 27ZM 183.818 20.123L 180.879 20.5332C 179.967 20.6517 179.279 20.875 178.814 21.2031C 178.359 21.5221 178.131 22.0872 178.131 22.8984C 178.131 23.4909 178.34 23.9785 178.76 24.3613C 179.188 24.735 179.758 24.9219 180.469 24.9219C 181.435 24.9219 182.232 24.5846 182.861 23.9102C 183.499 23.2266 183.818 22.3698 183.818 21.3398L 183.818 20.123ZM 211.408 10.1562L 205.775 10.1562L 205.775 27L 202.521 27L 202.521 10.1562L 196.902 10.1562L 196.902 7.39453L 211.408 7.39453L 211.408 10.1562ZM 223.043 20.8613L 213.5 20.8613C 213.536 22.1556 213.933 23.1536 214.689 23.8555C 215.455 24.5573 216.503 24.9082 217.834 24.9082C 219.329 24.9082 220.701 24.4616 221.949 23.5684L 221.949 26.125C 220.673 26.9271 218.987 27.3281 216.891 27.3281C 214.831 27.3281 213.213 26.6947 212.037 25.4277C 210.87 24.1517 210.287 22.3607 210.287 20.0547C 210.287 17.8763 210.93 16.1035 212.215 14.7363C 213.509 13.36 215.113 12.6719 217.027 12.6719C 218.941 12.6719 220.423 13.2871 221.471 14.5176C 222.519 15.748 223.043 17.457 223.043 19.6445L 223.043 20.8613ZM 219.98 18.6191C 219.971 17.4798 219.702 16.5957 219.174 15.9668C 218.645 15.3288 217.916 15.0098 216.986 15.0098C 216.075 15.0098 215.3 15.3424 214.662 16.0078C 214.033 16.6732 213.646 17.5436 213.5 18.6191L 219.98 18.6191ZM 237.768 13L 233.105 20.082L 237.713 27L 234.035 27L 231.574 22.666C 231.419 22.4017 231.237 22.0645 231.027 21.6543L 230.973 21.6543C 230.936 21.7363 230.745 22.0736 230.398 22.666L 227.896 27L 224.232 27L 228.99 20.1367L 224.479 13L 228.17 13L 230.59 17.5527C 230.772 17.89 230.95 18.2363 231.123 18.5918L 231.164 18.5918L 234.295 13L 237.768 13ZM 247.475 26.8496C 246.855 27.1595 246.039 27.3145 245.027 27.3145C 242.311 27.3145 240.953 26.0111 240.953 23.4043L 240.953 15.4883L 238.615 15.4883L 238.615 13L 240.953 13L 240.953 9.75977L 244.125 8.85742L 244.125 13L 247.475 13L 247.475 15.4883L 244.125 15.4883L 244.125 22.4883C 244.125 23.3177 244.275 23.9102 244.576 24.2656C 244.877 24.6211 245.378 24.7988 246.08 24.7988C 246.618 24.7988 247.083 24.6439 247.475 24.334L 247.475 26.8496ZM 250.564 27L 250.564 7.39453L 256.785 7.39453C 258.681 7.39453 260.18 7.80925 261.283 8.63867C 262.395 9.4681 262.951 10.5482 262.951 11.8789C 262.951 12.9909 262.637 13.957 262.008 14.7773C 261.379 15.5977 260.508 16.181 259.396 16.5273L 259.396 16.582C 260.745 16.737 261.821 17.2383 262.623 18.0859C 263.434 18.9245 263.84 20.0182 263.84 21.3672C 263.84 23.0443 263.179 24.4023 261.857 25.4414C 260.536 26.4805 258.868 27 256.854 27L 250.564 27ZM 253.805 10.0059L 253.805 15.584L 255.91 15.584C 257.04 15.584 257.924 15.3197 258.562 14.791C 259.21 14.2533 259.533 13.4967 259.533 12.5215C 259.533 10.8444 258.412 10.0059 256.17 10.0059L 253.805 10.0059ZM 253.805 18.1953L 253.805 24.4023L 256.58 24.4023C 257.792 24.4023 258.727 24.1243 259.383 23.5684C 260.048 23.0033 260.381 22.2285 260.381 21.2441C 260.381 19.2116 258.973 18.1953 256.156 18.1953L 253.805 18.1953ZM 273.342 27.3281C 271.182 27.3281 269.454 26.6764 268.16 25.373C 266.875 24.0605 266.232 22.3242 266.232 20.1641C 266.232 17.8125 266.902 15.9759 268.242 14.6543C 269.591 13.3327 271.405 12.6719 273.684 12.6719C 275.871 12.6719 277.576 13.3145 278.797 14.5996C 280.018 15.8848 280.629 17.6667 280.629 19.9453C 280.629 22.1784 279.968 23.9694 278.646 25.3184C 277.334 26.6582 275.566 27.3281 273.342 27.3281ZM 273.492 15.2012C 272.253 15.2012 271.273 15.6341 270.553 16.5C 269.833 17.3659 269.473 18.5599 269.473 20.082C 269.473 21.5495 269.837 22.707 270.566 23.5547C 271.296 24.3932 272.271 24.8125 273.492 24.8125C 274.741 24.8125 275.698 24.3978 276.363 23.5684C 277.038 22.7389 277.375 21.5586 277.375 20.0273C 277.375 18.487 277.038 17.2975 276.363 16.459C 275.698 15.6204 274.741 15.2012 273.492 15.2012ZM 295.135 13L 290.473 20.082L 295.08 27L 291.402 27L 288.941 22.666C 288.786 22.4017 288.604 22.0645 288.395 21.6543L 288.34 21.6543C 288.303 21.7363 288.112 22.0736 287.766 22.666L 285.264 27L 281.6 27L 286.357 20.1367L 281.846 13L 285.537 13L 287.957 17.5527C 288.139 17.89 288.317 18.2363 288.49 18.5918L 288.531 18.5918L 291.662 13L 295.135 13ZM 298.771 27.3008C 298.225 27.3008 297.76 27.123 297.377 26.7676C 296.994 26.403 296.803 25.9701 296.803 25.4688C 296.803 24.9583 296.994 24.5208 297.377 24.1562C 297.76 23.7917 298.225 23.6094 298.771 23.6094C 299.327 23.6094 299.797 23.7917 300.18 24.1562C 300.572 24.5208 300.768 24.9583 300.768 25.4688C 300.768 25.9701 300.572 26.403 300.18 26.7676C 299.797 27.123 299.327 27.3008 298.771 27.3008Z"/>
<path id="path3_fill" d="M 207.424 20L 205.119 20L 205.119 10.9375C 205.119 10.1953 205.165 9.28711 205.256 8.21289L 205.217 8.21289C 205.074 8.82487 204.947 9.26432 204.836 9.53125L 200.656 20L 199.055 20L 194.865 9.60938C 194.748 9.30339 194.624 8.83789 194.494 8.21289L 194.455 8.21289C 194.507 8.77279 194.533 9.6875 194.533 10.957L 194.533 20L 192.385 20L 192.385 5.99609L 195.656 5.99609L 199.338 15.3223C 199.618 16.0384 199.8 16.5723 199.885 16.9238L 199.934 16.9238C 200.174 16.1882 200.37 15.6413 200.52 15.2832L 204.27 5.99609L 207.424 5.99609L 207.424 20ZM 218.303 20L 216.105 20L 216.105 18.4375L 216.066 18.4375C 215.376 19.6354 214.364 20.2344 213.029 20.2344C 212.046 20.2344 211.275 19.9674 210.715 19.4336C 210.161 18.8997 209.885 18.1934 209.885 17.3145C 209.885 15.4264 210.972 14.3262 213.146 14.0137L 216.115 13.5938C 216.115 12.168 215.438 11.4551 214.084 11.4551C 212.893 11.4551 211.818 11.8652 210.861 12.6855L 210.861 10.7031C 211.916 10.0781 213.133 9.76562 214.514 9.76562C 217.04 9.76562 218.303 11.0091 218.303 13.4961L 218.303 20ZM 216.115 15.0879L 214.016 15.3809C 213.365 15.4655 212.873 15.625 212.541 15.8594C 212.215 16.0872 212.053 16.4909 212.053 17.0703C 212.053 17.4935 212.202 17.8418 212.502 18.1152C 212.808 18.3822 213.215 18.5156 213.723 18.5156C 214.413 18.5156 214.982 18.2747 215.432 17.793C 215.887 17.3047 216.115 16.6927 216.115 15.957L 216.115 15.0879ZM 226.877 12.1582C 226.604 11.9434 226.21 11.8359 225.695 11.8359C 225.025 11.8359 224.465 12.1387 224.016 12.7441C 223.566 13.3496 223.342 14.1732 223.342 15.2148L 223.342 20L 221.076 20L 221.076 10L 223.342 10L 223.342 12.0605L 223.381 12.0605C 223.602 11.3574 223.941 10.8105 224.396 10.4199C 224.859 10.0228 225.373 9.82422 225.939 9.82422C 226.35 9.82422 226.662 9.88607 226.877 10.0098L 226.877 12.1582ZM 237.404 19.1992C 237.404 22.8711 235.559 24.707 231.867 24.707C 230.565 24.707 229.429 24.4889 228.459 24.0527L 228.459 21.9824C 229.553 22.6074 230.591 22.9199 231.574 22.9199C 233.951 22.9199 235.139 21.7513 235.139 19.4141L 235.139 18.3203L 235.1 18.3203C 234.351 19.5964 233.225 20.2344 231.721 20.2344C 230.503 20.2344 229.52 19.7917 228.771 18.9062C 228.029 18.0143 227.658 16.8197 227.658 15.3223C 227.658 13.623 228.059 12.2721 228.859 11.2695C 229.66 10.2669 230.76 9.76562 232.16 9.76562C 233.482 9.76562 234.462 10.306 235.1 11.3867L 235.139 11.3867L 235.139 10L 237.404 10L 237.404 19.1992ZM 235.158 15.4199L 235.158 14.1211C 235.158 13.418 234.924 12.819 234.455 12.3242C 233.993 11.8229 233.413 11.5723 232.717 11.5723C 231.857 11.5723 231.184 11.8913 230.695 12.5293C 230.214 13.1608 229.973 14.0462 229.973 15.1855C 229.973 16.1686 230.204 16.9564 230.666 17.5488C 231.135 18.1348 231.753 18.4277 232.521 18.4277C 233.303 18.4277 233.938 18.1478 234.426 17.5879C 234.914 17.0215 235.158 16.2988 235.158 15.4199ZM 241.496 7.90039C 241.125 7.90039 240.806 7.77995 240.539 7.53906C 240.279 7.29818 240.148 6.99219 240.148 6.62109C 240.148 6.25 240.279 5.94076 240.539 5.69336C 240.806 5.44596 241.125 5.32227 241.496 5.32227C 241.88 5.32227 242.206 5.44596 242.473 5.69336C 242.74 5.94076 242.873 6.25 242.873 6.62109C 242.873 6.97266 242.74 7.27539 242.473 7.5293C 242.206 7.77669 241.88 7.90039 241.496 7.90039ZM 242.619 20L 240.354 20L 240.354 10L 242.619 10L 242.619 20ZM 254.494 20L 252.229 20L 252.229 14.3652C 252.229 12.4967 251.568 11.5625 250.246 11.5625C 249.556 11.5625 248.986 11.8229 248.537 12.3438C 248.088 12.8581 247.863 13.5091 247.863 14.2969L 247.863 20L 245.588 20L 245.588 10L 247.863 10L 247.863 11.6602L 247.902 11.6602C 248.651 10.3971 249.732 9.76562 251.145 9.76562C 252.232 9.76562 253.062 10.1204 253.635 10.8301C 254.208 11.5332 254.494 12.5521 254.494 13.8867L 254.494 20ZM 258.205 20.2148C 257.814 20.2148 257.482 20.0879 257.209 19.834C 256.936 19.5736 256.799 19.2643 256.799 18.9062C 256.799 18.5417 256.936 18.2292 257.209 17.9688C 257.482 17.7083 257.814 17.5781 258.205 17.5781C 258.602 17.5781 258.938 17.7083 259.211 17.9688C 259.491 18.2292 259.631 18.5417 259.631 18.9062C 259.631 19.2643 259.491 19.5736 259.211 19.834C 258.938 20.0879 258.602 20.2148 258.205 20.2148ZM 258.205 12.4902C 257.814 12.4902 257.482 12.3633 257.209 12.1094C 256.936 11.849 256.799 11.5397 256.799 11.1816C 256.799 10.8171 256.936 10.5046 257.209 10.2441C 257.482 9.98372 257.814 9.85352 258.205 9.85352C 258.602 9.85352 258.938 9.98372 259.211 10.2441C 259.491 10.5046 259.631 10.8171 259.631 11.1816C 259.631 11.5397 259.491 11.849 259.211 12.1094C 258.938 12.3633 258.602 12.4902 258.205 12.4902ZM 271.525 20.2344C 270.067 20.2344 268.928 19.6387 268.107 18.4473C 267.294 17.2559 266.887 15.5339 266.887 13.2812C 266.887 10.8073 267.313 8.93555 268.166 7.66602C 269.019 6.39648 270.249 5.76172 271.857 5.76172C 274.937 5.76172 276.477 8.1543 276.477 12.9395C 276.477 15.3092 276.04 17.1191 275.168 18.3691C 274.302 19.6126 273.088 20.2344 271.525 20.2344ZM 271.75 7.56836C 270.051 7.56836 269.201 9.4401 269.201 13.1836C 269.201 16.6862 270.035 18.4375 271.701 18.4375C 273.342 18.4375 274.162 16.6569 274.162 13.0957C 274.162 9.41081 273.358 7.56836 271.75 7.56836ZM 303.312 14.9219L 303.312 20L 300.998 20L 300.998 5.99609L 305.246 5.99609C 306.854 5.99609 308.101 6.37044 308.986 7.11914C 309.872 7.86784 310.314 8.92253 310.314 10.2832C 310.314 11.6439 309.852 12.7572 308.928 13.623C 308.003 14.4889 306.753 14.9219 305.178 14.9219L 303.312 14.9219ZM 303.312 7.91016L 303.312 13.0273L 304.816 13.0273C 305.812 13.0273 306.571 12.7962 307.092 12.334C 307.613 11.8717 307.873 11.2207 307.873 10.3809C 307.873 8.73372 306.916 7.91016 305.002 7.91016L 303.312 7.91016ZM 319.533 20L 317.336 20L 317.336 18.4375L 317.297 18.4375C 316.607 19.6354 315.594 20.2344 314.26 20.2344C 313.277 20.2344 312.505 19.9674 311.945 19.4336C 311.392 18.8997 311.115 18.1934 311.115 17.3145C 311.115 15.4264 312.202 14.3262 314.377 14.0137L 317.346 13.5938C 317.346 12.168 316.669 11.4551 315.314 11.4551C 314.123 11.4551 313.049 11.8652 312.092 12.6855L 312.092 10.7031C 313.146 10.0781 314.364 9.76562 315.744 9.76562C 318.27 9.76562 319.533 11.0091 319.533 13.4961L 319.533 20ZM 317.346 15.0879L 315.246 15.3809C 314.595 15.4655 314.104 15.625 313.771 15.8594C 313.446 16.0872 313.283 16.4909 313.283 17.0703C 313.283 17.4935 313.433 17.8418 313.732 18.1152C 314.038 18.3822 314.445 18.5156 314.953 18.5156C 315.643 18.5156 316.213 18.2747 316.662 17.793C 317.118 17.3047 317.346 16.6927 317.346 15.957L 317.346 15.0879ZM 331.398 20L 329.133 20L 329.133 18.3008L 329.094 18.3008C 328.365 19.5898 327.242 20.2344 325.725 20.2344C 324.494 20.2344 323.508 19.7884 322.766 18.8965C 322.03 17.998 321.662 16.7773 321.662 15.2344C 321.662 13.5807 322.069 12.2559 322.883 11.2598C 323.703 10.2637 324.794 9.76562 326.154 9.76562C 327.502 9.76562 328.482 10.306 329.094 11.3867L 329.133 11.3867L 329.133 5.19531L 331.398 5.19531L 331.398 20ZM 329.162 15.4297L 329.162 14.1211C 329.162 13.4115 328.931 12.8092 328.469 12.3145C 328.007 11.8197 327.417 11.5723 326.701 11.5723C 325.855 11.5723 325.188 11.888 324.699 12.5195C 324.217 13.151 323.977 14.0267 323.977 15.1465C 323.977 16.1621 324.208 16.9661 324.67 17.5586C 325.139 18.1445 325.767 18.4375 326.555 18.4375C 327.329 18.4375 327.958 18.1543 328.439 17.5879C 328.921 17.015 329.162 16.2956 329.162 15.4297ZM 343.449 20L 341.184 20L 341.184 18.3008L 341.145 18.3008C 340.415 19.5898 339.292 20.2344 337.775 20.2344C 336.545 20.2344 335.559 19.7884 334.816 18.8965C 334.081 17.998 333.713 16.7773 333.713 15.2344C 333.713 13.5807 334.12 12.2559 334.934 11.2598C 335.754 10.2637 336.844 9.76562 338.205 9.76562C 339.553 9.76562 340.533 10.306 341.145 11.3867L 341.184 11.3867L 341.184 5.19531L 343.449 5.19531L 343.449 20ZM 341.213 15.4297L 341.213 14.1211C 341.213 13.4115 340.982 12.8092 340.52 12.3145C 340.057 11.8197 339.468 11.5723 338.752 11.5723C 337.906 11.5723 337.238 11.888 336.75 12.5195C 336.268 13.151 336.027 14.0267 336.027 15.1465C 336.027 16.1621 336.258 16.9661 336.721 17.5586C 337.189 18.1445 337.818 18.4375 338.605 18.4375C 339.38 18.4375 340.008 18.1543 340.49 17.5879C 340.972 17.015 341.213 16.2956 341.213 15.4297ZM 347.551 7.90039C 347.18 7.90039 346.861 7.77995 346.594 7.53906C 346.333 7.29818 346.203 6.99219 346.203 6.62109C 346.203 6.25 346.333 5.94076 346.594 5.69336C 346.861 5.44596 347.18 5.32227 347.551 5.32227C 347.935 5.32227 348.26 5.44596 348.527 5.69336C 348.794 5.94076 348.928 6.25 348.928 6.62109C 348.928 6.97266 348.794 7.27539 348.527 7.5293C 348.26 7.77669 347.935 7.90039 347.551 7.90039ZM 348.674 20L 346.408 20L 346.408 10L 348.674 10L 348.674 20ZM 360.549 20L 358.283 20L 358.283 14.3652C 358.283 12.4967 357.622 11.5625 356.301 11.5625C 355.611 11.5625 355.041 11.8229 354.592 12.3438C 354.143 12.8581 353.918 13.5091 353.918 14.2969L 353.918 20L 351.643 20L 351.643 10L 353.918 10L 353.918 11.6602L 353.957 11.6602C 354.706 10.3971 355.786 9.76562 357.199 9.76562C 358.286 9.76562 359.117 10.1204 359.689 10.8301C 360.262 11.5332 360.549 12.5521 360.549 13.8867L 360.549 20ZM 372.424 19.1992C 372.424 22.8711 370.578 24.707 366.887 24.707C 365.585 24.707 364.449 24.4889 363.479 24.0527L 363.479 21.9824C 364.572 22.6074 365.611 22.9199 366.594 22.9199C 368.97 22.9199 370.158 21.7513 370.158 19.4141L 370.158 18.3203L 370.119 18.3203C 369.37 19.5964 368.244 20.2344 366.74 20.2344C 365.523 20.2344 364.54 19.7917 363.791 18.9062C 363.049 18.0143 362.678 16.8197 362.678 15.3223C 362.678 13.623 363.078 12.2721 363.879 11.2695C 364.68 10.2669 365.78 9.76562 367.18 9.76562C 368.501 9.76562 369.481 10.306 370.119 11.3867L 370.158 11.3867L 370.158 10L 372.424 10L 372.424 19.1992ZM 370.178 15.4199L 370.178 14.1211C 370.178 13.418 369.943 12.819 369.475 12.3242C 369.012 11.8229 368.433 11.5723 367.736 11.5723C 366.877 11.5723 366.203 11.8913 365.715 12.5293C 365.233 13.1608 364.992 14.0462 364.992 15.1855C 364.992 16.1686 365.223 16.9564 365.686 17.5488C 366.154 18.1348 366.773 18.4277 367.541 18.4277C 368.322 18.4277 368.957 18.1478 369.445 17.5879C 369.934 17.0215 370.178 16.2988 370.178 15.4199ZM 376.311 20.2148C 375.92 20.2148 375.588 20.0879 375.314 19.834C 375.041 19.5736 374.904 19.2643 374.904 18.9062C 374.904 18.5417 375.041 18.2292 375.314 17.9688C 375.588 17.7083 375.92 17.5781 376.311 17.5781C 376.708 17.5781 377.043 17.7083 377.316 17.9688C 377.596 18.2292 377.736 18.5417 377.736 18.9062C 377.736 19.2643 377.596 19.5736 377.316 19.834C 377.043 20.0879 376.708 20.2148 376.311 20.2148ZM 376.311 12.4902C 375.92 12.4902 375.588 12.3633 375.314 12.1094C 375.041 11.849 374.904 11.5397 374.904 11.1816C 374.904 10.8171 375.041 10.5046 375.314 10.2441C 375.588 9.98372 375.92 9.85352 376.311 9.85352C 376.708 9.85352 377.043 9.98372 377.316 10.2441C 377.596 10.5046 377.736 10.8171 377.736 11.1816C 377.736 11.5397 377.596 11.849 377.316 12.1094C 377.043 12.3633 376.708 12.4902 376.311 12.4902ZM 389.631 20.2344C 388.173 20.2344 387.033 19.6387 386.213 18.4473C 385.399 17.2559 384.992 15.5339 384.992 13.2812C 384.992 10.8073 385.419 8.93555 386.271 7.66602C 387.124 6.39648 388.355 5.76172 389.963 5.76172C 393.042 5.76172 394.582 8.1543 394.582 12.9395C 394.582 15.3092 394.146 17.1191 393.273 18.3691C 392.408 19.6126 391.193 20.2344 389.631 20.2344ZM 389.855 7.56836C 388.156 7.56836 387.307 9.4401 387.307 13.1836C 387.307 16.6862 388.14 18.4375 389.807 18.4375C 391.447 18.4375 392.268 16.6569 392.268 13.0957C 392.268 9.41081 391.464 7.56836 389.855 7.56836Z"/>
</defs>
</svg>
