<svg width="1920" height="960" viewBox="0 0 1920 960" version="1.1" xmlns="http://www.w3.org/2000/svg" xmlns:xlink="http://www.w3.org/1999/xlink">
<g id="Canvas" fill="none">
<g id="xaml-layout-textbox-with-margins-padding">
<rect width="1920" height="960" fill="#F4F4F4"/>
<g id="pattern-form" clip-path="url(#clip0)">
<rect width="666.667" height="333.333" fill="#0000FF" transform="translate(196.666 230)"/>
<g id="Rectangle 2">
<rect width="666.667" height="333.333" transform="translate(196.666 230)" fill="white"/>
<rect x="6.5" y="6.5" width="653.667" height="320.333" stroke-width="13" transform="translate(196.666 230)" stroke="#007AD0"/>
</g>
<g id="Rectangle">
<rect width="506.667" height="186.667" transform="translate(276.666 303.334)" fill="white"/>
<rect x="3" y="3" width="500.667" height="180.667" stroke-width="6" transform="translate(276.666 303.334)" stroke="#243A5E"/>
</g>
<g id="This is text in a">
<path d="M 25.7109 16.125L 16.0547 16.125L 16.0547 45L 10.4766 45L 10.4766 16.125L 0.84375 16.125L 0.84375 11.3906L 25.7109 11.3906L 25.7109 16.125ZM 51.3516 45L 45.9141 45L 45.9141 31.875C 45.9141 27.125 44.3281 24.75 41.1562 24.75C 39.5625 24.75 38.2188 25.4375 37.125 26.8125C 36.0312 28.1875 35.4844 29.9453 35.4844 32.0859L 35.4844 45L 30.0234 45L 30.0234 9.46875L 35.4844 9.46875L 35.4844 24.9844L 35.5781 24.9844C 37.3906 21.9531 39.9844 20.4375 43.3594 20.4375C 48.6875 20.4375 51.3516 23.6953 51.3516 30.2109L 51.3516 45ZM 60.7031 15.9609C 59.8125 15.9609 59.0469 15.6719 58.4062 15.0938C 57.7812 14.5156 57.4688 13.7812 57.4688 12.8906C 57.4688 12 57.7812 11.2578 58.4062 10.6641C 59.0469 10.0703 59.8125 9.77344 60.7031 9.77344C 61.625 9.77344 62.4062 10.0703 63.0469 10.6641C 63.6875 11.2578 64.0078 12 64.0078 12.8906C 64.0078 13.7344 63.6875 14.4609 63.0469 15.0703C 62.4062 15.6641 61.625 15.9609 60.7031 15.9609ZM 63.3984 45L 57.9609 45L 57.9609 21L 63.3984 21L 63.3984 45ZM 69.0234 44.25L 69.0234 39.2109C 71.0547 40.7578 73.2969 41.5312 75.75 41.5312C 79.0312 41.5312 80.6719 40.5625 80.6719 38.625C 80.6719 38.0781 80.5312 37.6172 80.25 37.2422C 79.9688 36.8516 79.5859 36.5078 79.1016 36.2109C 78.6328 35.9141 78.0703 35.6484 77.4141 35.4141C 76.7734 35.1797 76.0547 34.9141 75.2578 34.6172C 74.2734 34.2266 73.3828 33.8125 72.5859 33.375C 71.8047 32.9375 71.1484 32.4453 70.6172 31.8984C 70.1016 31.3359 69.7109 30.7031 69.4453 30C 69.1797 29.2969 69.0469 28.4766 69.0469 27.5391C 69.0469 26.3828 69.3203 25.3672 69.8672 24.4922C 70.4141 23.6016 71.1484 22.8594 72.0703 22.2656C 72.9922 21.6562 74.0391 21.2031 75.2109 20.9062C 76.3828 20.5938 77.5938 20.4375 78.8438 20.4375C 81.0625 20.4375 83.0469 20.7734 84.7969 21.4453L 84.7969 26.2031C 83.1094 25.0469 81.1719 24.4688 78.9844 24.4688C 78.2969 24.4688 77.6719 24.5391 77.1094 24.6797C 76.5625 24.8203 76.0938 25.0156 75.7031 25.2656C 75.3125 25.5156 75.0078 25.8203 74.7891 26.1797C 74.5703 26.5234 74.4609 26.9062 74.4609 27.3281C 74.4609 27.8438 74.5703 28.2812 74.7891 28.6406C 75.0078 29 75.3281 29.3203 75.75 29.6016C 76.1875 29.8672 76.7031 30.1172 77.2969 30.3516C 77.9062 30.5703 78.6016 30.8125 79.3828 31.0781C 80.4141 31.5 81.3359 31.9297 82.1484 32.3672C 82.9766 32.8047 83.6797 33.3047 84.2578 33.8672C 84.8359 34.4141 85.2812 35.0547 85.5938 35.7891C 85.9062 36.5078 86.0625 37.3672 86.0625 38.3672C 86.0625 39.5859 85.7812 40.6484 85.2188 41.5547C 84.6562 42.4609 83.9062 43.2109 82.9688 43.8047C 82.0312 44.3984 80.9453 44.8359 79.7109 45.1172C 78.4922 45.4141 77.2031 45.5625 75.8438 45.5625C 73.2188 45.5625 70.9453 45.125 69.0234 44.25ZM 107.203 15.9609C 106.312 15.9609 105.547 15.6719 104.906 15.0938C 104.281 14.5156 103.969 13.7812 103.969 12.8906C 103.969 12 104.281 11.2578 104.906 10.6641C 105.547 10.0703 106.312 9.77344 107.203 9.77344C 108.125 9.77344 108.906 10.0703 109.547 10.6641C 110.188 11.2578 110.508 12 110.508 12.8906C 110.508 13.7344 110.188 14.4609 109.547 15.0703C 108.906 15.6641 108.125 15.9609 107.203 15.9609ZM 109.898 45L 104.461 45L 104.461 21L 109.898 21L 109.898 45ZM 115.523 44.25L 115.523 39.2109C 117.555 40.7578 119.797 41.5312 122.25 41.5312C 125.531 41.5312 127.172 40.5625 127.172 38.625C 127.172 38.0781 127.031 37.6172 126.75 37.2422C 126.469 36.8516 126.086 36.5078 125.602 36.2109C 125.133 35.9141 124.57 35.6484 123.914 35.4141C 123.273 35.1797 122.555 34.9141 121.758 34.6172C 120.773 34.2266 119.883 33.8125 119.086 33.375C 118.305 32.9375 117.648 32.4453 117.117 31.8984C 116.602 31.3359 116.211 30.7031 115.945 30C 115.68 29.2969 115.547 28.4766 115.547 27.5391C 115.547 26.3828 115.82 25.3672 116.367 24.4922C 116.914 23.6016 117.648 22.8594 118.57 22.2656C 119.492 21.6562 120.539 21.2031 121.711 20.9062C 122.883 20.5938 124.094 20.4375 125.344 20.4375C 127.562 20.4375 129.547 20.7734 131.297 21.4453L 131.297 26.2031C 129.609 25.0469 127.672 24.4688 125.484 24.4688C 124.797 24.4688 124.172 24.5391 123.609 24.6797C 123.062 24.8203 122.594 25.0156 122.203 25.2656C 121.812 25.5156 121.508 25.8203 121.289 26.1797C 121.07 26.5234 120.961 26.9062 120.961 27.3281C 120.961 27.8438 121.07 28.2812 121.289 28.6406C 121.508 29 121.828 29.3203 122.25 29.6016C 122.688 29.8672 123.203 30.1172 123.797 30.3516C 124.406 30.5703 125.102 30.8125 125.883 31.0781C 126.914 31.5 127.836 31.9297 128.648 32.3672C 129.477 32.8047 130.18 33.3047 130.758 33.8672C 131.336 34.4141 131.781 35.0547 132.094 35.7891C 132.406 36.5078 132.562 37.3672 132.562 38.3672C 132.562 39.5859 132.281 40.6484 131.719 41.5547C 131.156 42.4609 130.406 43.2109 129.469 43.8047C 128.531 44.3984 127.445 44.8359 126.211 45.1172C 124.992 45.4141 123.703 45.5625 122.344 45.5625C 119.719 45.5625 117.445 45.125 115.523 44.25ZM 163.617 44.7422C 162.555 45.2734 161.156 45.5391 159.422 45.5391C 154.766 45.5391 152.438 43.3047 152.438 38.8359L 152.438 25.2656L 148.43 25.2656L 148.43 21L 152.438 21L 152.438 15.4453L 157.875 13.8984L 157.875 21L 163.617 21L 163.617 25.2656L 157.875 25.2656L 157.875 37.2656C 157.875 38.6875 158.133 39.7031 158.648 40.3125C 159.164 40.9219 160.023 41.2266 161.227 41.2266C 162.148 41.2266 162.945 40.9609 163.617 40.4297L 163.617 44.7422ZM 188.344 34.4766L 171.984 34.4766C 172.047 36.6953 172.727 38.4062 174.023 39.6094C 175.336 40.8125 177.133 41.4141 179.414 41.4141C 181.977 41.4141 184.328 40.6484 186.469 39.1172L 186.469 43.5C 184.281 44.875 181.391 45.5625 177.797 45.5625C 174.266 45.5625 171.492 44.4766 169.477 42.3047C 167.477 40.1172 166.477 37.0469 166.477 33.0938C 166.477 29.3594 167.578 26.3203 169.781 23.9766C 172 21.6172 174.75 20.4375 178.031 20.4375C 181.312 20.4375 183.852 21.4922 185.648 23.6016C 187.445 25.7109 188.344 28.6406 188.344 32.3906L 188.344 34.4766ZM 183.094 30.6328C 183.078 28.6797 182.617 27.1641 181.711 26.0859C 180.805 24.9922 179.555 24.4453 177.961 24.4453C 176.398 24.4453 175.07 25.0156 173.977 26.1562C 172.898 27.2969 172.234 28.7891 171.984 30.6328L 183.094 30.6328ZM 213.586 21L 205.594 33.1406L 213.492 45L 207.188 45L 202.969 37.5703C 202.703 37.1172 202.391 36.5391 202.031 35.8359L 201.938 35.8359C 201.875 35.9766 201.547 36.5547 200.953 37.5703L 196.664 45L 190.383 45L 198.539 33.2344L 190.805 21L 197.133 21L 201.281 28.8047C 201.594 29.3828 201.898 29.9766 202.195 30.5859L 202.266 30.5859L 207.633 21L 213.586 21ZM 230.227 44.7422C 229.164 45.2734 227.766 45.5391 226.031 45.5391C 221.375 45.5391 219.047 43.3047 219.047 38.8359L 219.047 25.2656L 215.039 25.2656L 215.039 21L 219.047 21L 219.047 15.4453L 224.484 13.8984L 224.484 21L 230.227 21L 230.227 25.2656L 224.484 25.2656L 224.484 37.2656C 224.484 38.6875 224.742 39.7031 225.258 40.3125C 225.773 40.9219 226.633 41.2266 227.836 41.2266C 228.758 41.2266 229.555 40.9609 230.227 40.4297L 230.227 44.7422ZM 250.875 15.9609C 249.984 15.9609 249.219 15.6719 248.578 15.0938C 247.953 14.5156 247.641 13.7812 247.641 12.8906C 247.641 12 247.953 11.2578 248.578 10.6641C 249.219 10.0703 249.984 9.77344 250.875 9.77344C 251.797 9.77344 252.578 10.0703 253.219 10.6641C 253.859 11.2578 254.18 12 254.18 12.8906C 254.18 13.7344 253.859 14.4609 253.219 15.0703C 252.578 15.6641 251.797 15.9609 250.875 15.9609ZM 253.57 45L 248.133 45L 248.133 21L 253.57 21L 253.57 45ZM 282.07 45L 276.633 45L 276.633 31.4766C 276.633 26.9922 275.047 24.75 271.875 24.75C 270.219 24.75 268.852 25.375 267.773 26.625C 266.695 27.8594 266.156 29.4219 266.156 31.3125L 266.156 45L 260.695 45L 260.695 21L 266.156 21L 266.156 24.9844L 266.25 24.9844C 268.047 21.9531 270.641 20.4375 274.031 20.4375C 276.641 20.4375 278.633 21.2891 280.008 22.9922C 281.383 24.6797 282.07 27.125 282.07 30.3281L 282.07 45ZM 320.367 45L 315.094 45L 315.094 41.25L 315 41.25C 313.344 44.125 310.914 45.5625 307.711 45.5625C 305.352 45.5625 303.5 44.9219 302.156 43.6406C 300.828 42.3594 300.164 40.6641 300.164 38.5547C 300.164 34.0234 302.773 31.3828 307.992 30.6328L 315.117 29.625C 315.117 26.2031 313.492 24.4922 310.242 24.4922C 307.383 24.4922 304.805 25.4766 302.508 27.4453L 302.508 22.6875C 305.039 21.1875 307.961 20.4375 311.273 20.4375C 317.336 20.4375 320.367 23.4219 320.367 29.3906L 320.367 45ZM 315.117 33.2109L 310.078 33.9141C 308.516 34.1172 307.336 34.5 306.539 35.0625C 305.758 35.6094 305.367 36.5781 305.367 37.9688C 305.367 38.9844 305.727 39.8203 306.445 40.4766C 307.18 41.1172 308.156 41.4375 309.375 41.4375C 311.031 41.4375 312.398 40.8594 313.477 39.7031C 314.57 38.5312 315.117 37.0625 315.117 35.2969L 315.117 33.2109Z" transform="translate(333.332 371.666)" fill="black"/>
</g>
<g id="Rectangle 2_2">
<rect width="120" height="60" transform="translate(470 243.334)" fill="#50E6FF" fill-opacity="0.5"/>
</g>
<g id="Rectangle 2.4">
<rect width="120" height="67" transform="translate(470 310)" fill="#A7F3FF" fill-opacity="0.4"/>
</g>
<g id="Rectangle 2.6">
<rect width="120" height="61" transform="translate(470 423)" fill="#A7F3FF" fill-opacity="0.4"/>
</g>
<g id="Rectangle 2.5">
<rect width="50" height="67" transform="translate(283 363)" fill="#A7F3FF" fill-opacity="0.4"/>
</g>
<g id="Rectangle 2.7">
<rect width="50" height="67" transform="translate(727 363)" fill="#A7F3FF" fill-opacity="0.4"/>
</g>
<g id="Rectangle 2.1">
<rect width="120" height="60" transform="translate(470 490)" fill="#50E6FF" fill-opacity="0.5"/>
</g>
<g id="Rectangle 2.2">
<rect width="66.6667" height="66.6667" transform="translate(783.332 363.334)" fill="#50E6FF" fill-opacity="0.5"/>
</g>
<g id="Rectangle 2.3">
<rect width="66.6667" height="66.6667" transform="translate(210 363.334)" fill="#50E6FF" fill-opacity="0.5"/>
</g>
<g id="Rectangle 3">
<rect width="13.3333" height="20" transform="translate(196.666 273.334)" fill="#50E6FF"/>
</g>
<g id="These articles help">
<path d="M 65.026 30L 54.4792 30L 54.4792 28.6992C 54.4792 28.168 54.5534 27.6719 54.7018 27.2109C 54.8503 26.7422 55.0495 26.3047 55.2995 25.8984C 55.5495 25.4844 55.8425 25.0977 56.1784 24.7383C 56.5143 24.3711 56.8737 24.0195 57.2565 23.6836C 57.6393 23.3398 58.03 23.0117 58.4284 22.6992C 58.8268 22.3789 59.2175 22.0586 59.6003 21.7383C 59.9596 21.4336 60.2878 21.1367 60.5846 20.8477C 60.8815 20.5508 61.1354 20.2461 61.3464 19.9336C 61.5573 19.6211 61.7214 19.293 61.8385 18.9492C 61.9557 18.5977 62.0143 18.2188 62.0143 17.8125C 62.0143 17.3672 61.944 16.9805 61.8034 16.6523C 61.6706 16.3164 61.4792 16.0391 61.2292 15.8203C 60.987 15.5938 60.6979 15.4258 60.362 15.3164C 60.026 15.1992 59.6589 15.1406 59.2604 15.1406C 58.5729 15.1406 57.8737 15.3008 57.1628 15.6211C 56.4518 15.9414 55.7682 16.4219 55.112 17.0625L 55.112 14.4492C 55.4557 14.1914 55.8034 13.9688 56.155 13.7812C 56.5065 13.5859 56.8698 13.4258 57.2448 13.3008C 57.6198 13.168 58.0143 13.0703 58.4284 13.0078C 58.8425 12.9453 59.2839 12.9141 59.7526 12.9141C 60.5104 12.9141 61.1979 13.0156 61.8151 13.2188C 62.4323 13.4141 62.9596 13.707 63.3971 14.0977C 63.8346 14.4805 64.1706 14.9609 64.405 15.5391C 64.6471 16.1172 64.7682 16.7812 64.7682 17.5312C 64.7682 18.2109 64.6823 18.8242 64.5104 19.3711C 64.3464 19.9102 64.1081 20.4141 63.7956 20.8828C 63.4909 21.3516 63.1198 21.7969 62.6823 22.2188C 62.2448 22.6406 61.7565 23.0742 61.2175 23.5195C 60.7643 23.8867 60.3112 24.2461 59.8581 24.5977C 59.4128 24.9414 59.0104 25.2812 58.651 25.6172C 58.2917 25.9453 57.9987 26.2773 57.7721 26.6133C 57.5534 26.9414 57.444 27.2734 57.444 27.6094L 57.444 27.668L 65.026 27.668L 65.026 30ZM 73.1471 30.2812C 71.3971 30.2812 70.03 29.5664 69.0456 28.1367C 68.069 26.707 67.5807 24.6406 67.5807 21.9375C 67.5807 18.9688 68.0925 16.7227 69.1159 15.1992C 70.1393 13.6758 71.6159 12.9141 73.5456 12.9141C 77.2409 12.9141 79.0885 15.7852 79.0885 21.5273C 79.0885 24.3711 78.5651 26.543 77.5182 28.043C 76.4792 29.5352 75.0221 30.2812 73.1471 30.2812ZM 73.4167 15.082C 71.3776 15.082 70.3581 17.3281 70.3581 21.8203C 70.3581 26.0234 71.3581 28.125 73.3581 28.125C 75.3268 28.125 76.3112 25.9883 76.3112 21.7148C 76.3112 17.293 75.3464 15.082 73.4167 15.082Z" transform="translate(463.332 250)" fill="#0078D4"/>
</g>
<g id="These articles help_2">
<path d="M 65.026 30L 54.4792 30L 54.4792 28.6992C 54.4792 28.168 54.5534 27.6719 54.7018 27.2109C 54.8503 26.7422 55.0495 26.3047 55.2995 25.8984C 55.5495 25.4844 55.8425 25.0977 56.1784 24.7383C 56.5143 24.3711 56.8737 24.0195 57.2565 23.6836C 57.6393 23.3398 58.03 23.0117 58.4284 22.6992C 58.8268 22.3789 59.2175 22.0586 59.6003 21.7383C 59.9596 21.4336 60.2878 21.1367 60.5846 20.8477C 60.8815 20.5508 61.1354 20.2461 61.3464 19.9336C 61.5573 19.6211 61.7214 19.293 61.8385 18.9492C 61.9557 18.5977 62.0143 18.2188 62.0143 17.8125C 62.0143 17.3672 61.944 16.9805 61.8034 16.6523C 61.6706 16.3164 61.4792 16.0391 61.2292 15.8203C 60.987 15.5938 60.6979 15.4258 60.362 15.3164C 60.026 15.1992 59.6589 15.1406 59.2604 15.1406C 58.5729 15.1406 57.8737 15.3008 57.1628 15.6211C 56.4518 15.9414 55.7682 16.4219 55.112 17.0625L 55.112 14.4492C 55.4557 14.1914 55.8034 13.9688 56.155 13.7812C 56.5065 13.5859 56.8698 13.4258 57.2448 13.3008C 57.6198 13.168 58.0143 13.0703 58.4284 13.0078C 58.8425 12.9453 59.2839 12.9141 59.7526 12.9141C 60.5104 12.9141 61.1979 13.0156 61.8151 13.2188C 62.4323 13.4141 62.9596 13.707 63.3971 14.0977C 63.8346 14.4805 64.1706 14.9609 64.405 15.5391C 64.6471 16.1172 64.7682 16.7812 64.7682 17.5312C 64.7682 18.2109 64.6823 18.8242 64.5104 19.3711C 64.3464 19.9102 64.1081 20.4141 63.7956 20.8828C 63.4909 21.3516 63.1198 21.7969 62.6823 22.2188C 62.2448 22.6406 61.7565 23.0742 61.2175 23.5195C 60.7643 23.8867 60.3112 24.2461 59.8581 24.5977C 59.4128 24.9414 59.0104 25.2812 58.651 25.6172C 58.2917 25.9453 57.9987 26.2773 57.7721 26.6133C 57.5534 26.9414 57.444 27.2734 57.444 27.6094L 57.444 27.668L 65.026 27.668L 65.026 30ZM 73.1471 30.2812C 71.3971 30.2812 70.03 29.5664 69.0456 28.1367C 68.069 26.707 67.5807 24.6406 67.5807 21.9375C 67.5807 18.9688 68.0925 16.7227 69.1159 15.1992C 70.1393 13.6758 71.6159 12.9141 73.5456 12.9141C 77.2409 12.9141 79.0885 15.7852 79.0885 21.5273C 79.0885 24.3711 78.5651 26.543 77.5182 28.043C 76.4792 29.5352 75.0221 30.2812 73.1471 30.2812ZM 73.4167 15.082C 71.3776 15.082 70.3581 17.3281 70.3581 21.8203C 70.3581 26.0234 71.3581 28.125 73.3581 28.125C 75.3268 28.125 76.3112 25.9883 76.3112 21.7148C 76.3112 17.293 75.3464 15.082 73.4167 15.082Z" transform="translate(463.332 500)" fill="#0078D4"/>
</g>
<g id="These articles help_3">
<path d="M 65.026 30L 54.4792 30L 54.4792 28.6992C 54.4792 28.168 54.5534 27.6719 54.7018 27.2109C 54.8503 26.7422 55.0495 26.3047 55.2995 25.8984C 55.5495 25.4844 55.8425 25.0977 56.1784 24.7383C 56.5143 24.3711 56.8737 24.0195 57.2565 23.6836C 57.6393 23.3398 58.03 23.0117 58.4284 22.6992C 58.8268 22.3789 59.2175 22.0586 59.6003 21.7383C 59.9596 21.4336 60.2878 21.1367 60.5846 20.8477C 60.8815 20.5508 61.1354 20.2461 61.3464 19.9336C 61.5573 19.6211 61.7214 19.293 61.8385 18.9492C 61.9557 18.5977 62.0143 18.2188 62.0143 17.8125C 62.0143 17.3672 61.944 16.9805 61.8034 16.6523C 61.6706 16.3164 61.4792 16.0391 61.2292 15.8203C 60.987 15.5938 60.6979 15.4258 60.362 15.3164C 60.026 15.1992 59.6589 15.1406 59.2604 15.1406C 58.5729 15.1406 57.8737 15.3008 57.1628 15.6211C 56.4518 15.9414 55.7682 16.4219 55.112 17.0625L 55.112 14.4492C 55.4557 14.1914 55.8034 13.9688 56.155 13.7812C 56.5065 13.5859 56.8698 13.4258 57.2448 13.3008C 57.6198 13.168 58.0143 13.0703 58.4284 13.0078C 58.8425 12.9453 59.2839 12.9141 59.7526 12.9141C 60.5104 12.9141 61.1979 13.0156 61.8151 13.2188C 62.4323 13.4141 62.9596 13.707 63.3971 14.0977C 63.8346 14.4805 64.1706 14.9609 64.405 15.5391C 64.6471 16.1172 64.7682 16.7812 64.7682 17.5312C 64.7682 18.2109 64.6823 18.8242 64.5104 19.3711C 64.3464 19.9102 64.1081 20.4141 63.7956 20.8828C 63.4909 21.3516 63.1198 21.7969 62.6823 22.2188C 62.2448 22.6406 61.7565 23.0742 61.2175 23.5195C 60.7643 23.8867 60.3112 24.2461 59.8581 24.5977C 59.4128 24.9414 59.0104 25.2812 58.651 25.6172C 58.2917 25.9453 57.9987 26.2773 57.7721 26.6133C 57.5534 26.9414 57.444 27.2734 57.444 27.6094L 57.444 27.668L 65.026 27.668L 65.026 30ZM 73.1471 30.2812C 71.3971 30.2812 70.03 29.5664 69.0456 28.1367C 68.069 26.707 67.5807 24.6406 67.5807 21.9375C 67.5807 18.9688 68.0925 16.7227 69.1159 15.1992C 70.1393 13.6758 71.6159 12.9141 73.5456 12.9141C 77.2409 12.9141 79.0885 15.7852 79.0885 21.5273C 79.0885 24.3711 78.5651 26.543 77.5182 28.043C 76.4792 29.5352 75.0221 30.2812 73.1471 30.2812ZM 73.4167 15.082C 71.3776 15.082 70.3581 17.3281 70.3581 21.8203C 70.3581 26.0234 71.3581 28.125 73.3581 28.125C 75.3268 28.125 76.3112 25.9883 76.3112 21.7148C 76.3112 17.293 75.3464 15.082 73.4167 15.082Z" transform="translate(176.666 373.334)" fill="#0078D4"/>
</g>
<g id="These articles help_4">
<path d="M 65.026 30L 54.4792 30L 54.4792 28.6992C 54.4792 28.168 54.5534 27.6719 54.7018 27.2109C 54.8503 26.7422 55.0495 26.3047 55.2995 25.8984C 55.5495 25.4844 55.8424 25.0977 56.1784 24.7383C 56.5143 24.3711 56.8737 24.0195 57.2565 23.6836C 57.6393 23.3398 58.0299 23.0117 58.4284 22.6992C 58.8268 22.3789 59.2174 22.0586 59.6003 21.7383C 59.9596 21.4336 60.2878 21.1367 60.5846 20.8477C 60.8815 20.5508 61.1354 20.2461 61.3464 19.9336C 61.5573 19.6211 61.7214 19.293 61.8385 18.9492C 61.9557 18.5977 62.0143 18.2188 62.0143 17.8125C 62.0143 17.3672 61.944 16.9805 61.8034 16.6523C 61.6706 16.3164 61.4792 16.0391 61.2292 15.8203C 60.987 15.5938 60.6979 15.4258 60.362 15.3164C 60.026 15.1992 59.6589 15.1406 59.2604 15.1406C 58.5729 15.1406 57.8737 15.3008 57.1628 15.6211C 56.4518 15.9414 55.7682 16.4219 55.112 17.0625L 55.112 14.4492C 55.4557 14.1914 55.8034 13.9688 56.1549 13.7812C 56.5065 13.5859 56.8698 13.4258 57.2448 13.3008C 57.6198 13.168 58.0143 13.0703 58.4284 13.0078C 58.8424 12.9453 59.2839 12.9141 59.7526 12.9141C 60.5104 12.9141 61.1979 13.0156 61.8151 13.2188C 62.4323 13.4141 62.9596 13.707 63.3971 14.0977C 63.8346 14.4805 64.1706 14.9609 64.4049 15.5391C 64.6471 16.1172 64.7682 16.7812 64.7682 17.5312C 64.7682 18.2109 64.6823 18.8242 64.5104 19.3711C 64.3464 19.9102 64.1081 20.4141 63.7956 20.8828C 63.4909 21.3516 63.1198 21.7969 62.6823 22.2188C 62.2448 22.6406 61.7565 23.0742 61.2174 23.5195C 60.7643 23.8867 60.3112 24.2461 59.8581 24.5977C 59.4128 24.9414 59.0104 25.2812 58.651 25.6172C 58.2917 25.9453 57.9987 26.2773 57.7721 26.6133C 57.5534 26.9414 57.444 27.2734 57.444 27.6094L 57.444 27.668L 65.026 27.668L 65.026 30ZM 73.1471 30.2812C 71.3971 30.2812 70.0299 29.5664 69.0456 28.1367C 68.069 26.707 67.5807 24.6406 67.5807 21.9375C 67.5807 18.9688 68.0924 16.7227 69.1159 15.1992C 70.1393 13.6758 71.6159 12.9141 73.5456 12.9141C 77.2409 12.9141 79.0885 15.7852 79.0885 21.5273C 79.0885 24.3711 78.5651 26.543 77.5182 28.043C 76.4792 29.5352 75.0221 30.2812 73.1471 30.2812ZM 73.4167 15.082C 71.3776 15.082 70.3581 17.3281 70.3581 21.8203C 70.3581 26.0234 71.3581 28.125 73.3581 28.125C 75.3268 28.125 76.3112 25.9883 76.3112 21.7148C 76.3112 17.293 75.3464 15.082 73.4167 15.082Z" transform="translate(750 373.334)" fill="#0078D4"/>
</g>
<g id="These articles help_5">
<path d="M 64.78 30L 54.2331 30L 54.2331 28.6992C 54.2331 28.168 54.3073 27.6719 54.4557 27.2109C 54.6042 26.7422 54.8034 26.3047 55.0534 25.8984C 55.3034 25.4844 55.5964 25.0977 55.9323 24.7383C 56.2682 24.3711 56.6276 24.0195 57.0104 23.6836C 57.3932 23.3398 57.7839 23.0117 58.1823 22.6992C 58.5807 22.3789 58.9714 22.0586 59.3542 21.7383C 59.7135 21.4336 60.0417 21.1367 60.3385 20.8477C 60.6354 20.5508 60.8893 20.2461 61.1003 19.9336C 61.3112 19.6211 61.4753 19.293 61.5925 18.9492C 61.7096 18.5977 61.7682 18.2188 61.7682 17.8125C 61.7682 17.3672 61.6979 16.9805 61.5573 16.6523C 61.4245 16.3164 61.2331 16.0391 60.9831 15.8203C 60.7409 15.5938 60.4518 15.4258 60.1159 15.3164C 59.78 15.1992 59.4128 15.1406 59.0143 15.1406C 58.3268 15.1406 57.6276 15.3008 56.9167 15.6211C 56.2057 15.9414 55.5221 16.4219 54.8659 17.0625L 54.8659 14.4492C 55.2096 14.1914 55.5573 13.9688 55.9089 13.7812C 56.2604 13.5859 56.6237 13.4258 56.9987 13.3008C 57.3737 13.168 57.7682 13.0703 58.1823 13.0078C 58.5964 12.9453 59.0378 12.9141 59.5065 12.9141C 60.2643 12.9141 60.9518 13.0156 61.569 13.2188C 62.1862 13.4141 62.7135 13.707 63.151 14.0977C 63.5885 14.4805 63.9245 14.9609 64.1589 15.5391C 64.401 16.1172 64.5221 16.7812 64.5221 17.5312C 64.5221 18.2109 64.4362 18.8242 64.2643 19.3711C 64.1003 19.9102 63.862 20.4141 63.5495 20.8828C 63.2448 21.3516 62.8737 21.7969 62.4362 22.2188C 61.9987 22.6406 61.5104 23.0742 60.9714 23.5195C 60.5182 23.8867 60.0651 24.2461 59.612 24.5977C 59.1667 24.9414 58.7643 25.2812 58.405 25.6172C 58.0456 25.9453 57.7526 26.2773 57.526 26.6133C 57.3073 26.9414 57.1979 27.2734 57.1979 27.6094L 57.1979 27.668L 64.78 27.668L 64.78 30ZM 77.2721 13.1953L 77.2721 24.0469L 79.7682 24.0469L 79.7682 26.3086L 77.2721 26.3086L 77.2721 30L 74.6354 30L 74.6354 26.3086L 67.03 26.3086L 67.03 24.0234C 67.7175 23.25 68.4206 22.4141 69.1393 21.5156C 69.8659 20.6094 70.5612 19.6875 71.2253 18.75C 71.8971 17.8047 72.5182 16.8594 73.0885 15.9141C 73.6589 14.9688 74.1393 14.0625 74.53 13.1953L 77.2721 13.1953ZM 74.6354 24.0469L 74.6354 16.9922C 73.7839 18.5234 72.9401 19.8594 72.1042 21C 71.276 22.1406 70.4987 23.1562 69.7721 24.0469L 74.6354 24.0469Z" transform="translate(463.332 323.334)" fill="#0078D4"/>
</g>
<g id="These articles help_6">
<path d="M 64.78 30L 54.2331 30L 54.2331 28.6992C 54.2331 28.168 54.3073 27.6719 54.4557 27.2109C 54.6042 26.7422 54.8034 26.3047 55.0534 25.8984C 55.3034 25.4844 55.5964 25.0977 55.9323 24.7383C 56.2682 24.3711 56.6276 24.0195 57.0104 23.6836C 57.3932 23.3398 57.7839 23.0117 58.1823 22.6992C 58.5807 22.3789 58.9714 22.0586 59.3542 21.7383C 59.7135 21.4336 60.0417 21.1367 60.3385 20.8477C 60.6354 20.5508 60.8893 20.2461 61.1003 19.9336C 61.3112 19.6211 61.4753 19.293 61.5925 18.9492C 61.7096 18.5977 61.7682 18.2188 61.7682 17.8125C 61.7682 17.3672 61.6979 16.9805 61.5573 16.6523C 61.4245 16.3164 61.2331 16.0391 60.9831 15.8203C 60.7409 15.5938 60.4518 15.4258 60.1159 15.3164C 59.78 15.1992 59.4128 15.1406 59.0143 15.1406C 58.3268 15.1406 57.6276 15.3008 56.9167 15.6211C 56.2057 15.9414 55.5221 16.4219 54.8659 17.0625L 54.8659 14.4492C 55.2096 14.1914 55.5573 13.9688 55.9089 13.7812C 56.2604 13.5859 56.6237 13.4258 56.9987 13.3008C 57.3737 13.168 57.7682 13.0703 58.1823 13.0078C 58.5964 12.9453 59.0378 12.9141 59.5065 12.9141C 60.2643 12.9141 60.9518 13.0156 61.569 13.2188C 62.1862 13.4141 62.7135 13.707 63.151 14.0977C 63.5885 14.4805 63.9245 14.9609 64.1589 15.5391C 64.401 16.1172 64.5221 16.7812 64.5221 17.5312C 64.5221 18.2109 64.4362 18.8242 64.2643 19.3711C 64.1003 19.9102 63.862 20.4141 63.5495 20.8828C 63.2448 21.3516 62.8737 21.7969 62.4362 22.2188C 61.9987 22.6406 61.5104 23.0742 60.9714 23.5195C 60.5182 23.8867 60.0651 24.2461 59.612 24.5977C 59.1667 24.9414 58.7643 25.2812 58.405 25.6172C 58.0456 25.9453 57.7526 26.2773 57.526 26.6133C 57.3073 26.9414 57.1979 27.2734 57.1979 27.6094L 57.1979 27.668L 64.78 27.668L 64.78 30ZM 77.2721 13.1953L 77.2721 24.0469L 79.7682 24.0469L 79.7682 26.3086L 77.2721 26.3086L 77.2721 30L 74.6354 30L 74.6354 26.3086L 67.03 26.3086L 67.03 24.0234C 67.7175 23.25 68.4206 22.4141 69.1393 21.5156C 69.8659 20.6094 70.5612 19.6875 71.2253 18.75C 71.8971 17.8047 72.5182 16.8594 73.0885 15.9141C 73.6589 14.9688 74.1393 14.0625 74.53 13.1953L 77.2721 13.1953ZM 74.6354 24.0469L 74.6354 16.9922C 73.7839 18.5234 72.9401 19.8594 72.1042 21C 71.276 22.1406 70.4987 23.1562 69.7721 24.0469L 74.6354 24.0469Z" transform="translate(463.332 430)" fill="#0078D4"/>
</g>
<g id="These articles help_7">
<path d="M 62.3425 12.8203L 62.3425 30L 59.6237 30L 59.6237 16.1484C 59.1315 16.5 58.6003 16.8008 58.03 17.0508C 57.4675 17.293 56.8229 17.5078 56.0964 17.6953L 56.0964 15.375C 56.5495 15.2266 56.987 15.0703 57.4089 14.9062C 57.8307 14.7422 58.2448 14.5586 58.651 14.3555C 59.0651 14.1523 59.4792 13.9258 59.8932 13.6758C 60.3151 13.4258 60.7487 13.1406 61.194 12.8203L 62.3425 12.8203ZM 77.2721 24.5977C 77.2721 25.4414 77.1315 26.2109 76.8503 26.9062C 76.5768 27.6016 76.194 28.2031 75.7018 28.7109C 75.2096 29.2109 74.6237 29.6016 73.944 29.8828C 73.2721 30.1562 72.5417 30.293 71.7526 30.293C 70.9089 30.293 70.1315 30.1289 69.4206 29.8008C 68.7175 29.4727 68.1081 28.9844 67.5925 28.3359C 67.0846 27.6875 66.6901 26.8828 66.4089 25.9219C 66.1276 24.9531 65.987 23.832 65.987 22.5586C 65.987 21.0039 66.1706 19.625 66.5378 18.4219C 66.9128 17.2188 67.4245 16.2109 68.0729 15.3984C 68.7214 14.5859 69.4831 13.9688 70.3581 13.5469C 71.2331 13.125 72.1784 12.9141 73.194 12.9141C 73.8268 12.9141 74.401 12.957 74.9167 13.043C 75.4401 13.1289 75.8581 13.2461 76.1706 13.3945L 76.1706 15.8438C 75.7721 15.6406 75.3464 15.4688 74.8932 15.3281C 74.4401 15.1875 73.9206 15.1172 73.3346 15.1172C 72.6784 15.1172 72.0729 15.25 71.5182 15.5156C 70.9635 15.7812 70.4831 16.1719 70.0768 16.6875C 69.6784 17.1953 69.362 17.8281 69.1276 18.5859C 68.901 19.3359 68.7839 20.2031 68.776 21.1875L 68.8464 21.1875C 69.2057 20.6328 69.6901 20.1953 70.2995 19.875C 70.9167 19.5547 71.6393 19.3945 72.4675 19.3945C 73.2018 19.3945 73.862 19.5156 74.4479 19.7578C 75.0417 19.9922 75.5456 20.3359 75.9596 20.7891C 76.3815 21.2344 76.7057 21.7812 76.9323 22.4297C 77.1589 23.0703 77.2721 23.793 77.2721 24.5977ZM 74.53 24.8203C 74.53 24.3359 74.4714 23.8945 74.3542 23.4961C 74.2448 23.0977 74.0729 22.7578 73.8385 22.4766C 73.612 22.1875 73.3229 21.9648 72.9714 21.8086C 72.6276 21.6523 72.2214 21.5742 71.7526 21.5742C 71.2839 21.5742 70.8698 21.6602 70.5104 21.832C 70.1589 21.9961 69.862 22.2148 69.6198 22.4883C 69.3776 22.7617 69.194 23.0742 69.069 23.4258C 68.9518 23.7773 68.8932 24.1367 68.8932 24.5039C 68.8932 24.9023 68.9479 25.3125 69.0573 25.7344C 69.1745 26.1484 69.3503 26.5273 69.5846 26.8711C 69.819 27.2148 70.1159 27.5 70.4753 27.7266C 70.8425 27.9453 71.276 28.0547 71.776 28.0547C 72.2214 28.0547 72.6159 27.9727 72.9596 27.8086C 73.3034 27.6445 73.5885 27.418 73.8151 27.1289C 74.0495 26.8398 74.2253 26.5 74.3425 26.1094C 74.4675 25.7109 74.53 25.2812 74.53 24.8203Z" transform="translate(241.666 375)" fill="#0078D4"/>
</g>
<g id="These articles help_8">
<path d="M 62.3424 12.8203L 62.3424 30L 59.6237 30L 59.6237 16.1484C 59.1315 16.5 58.6003 16.8008 58.0299 17.0508C 57.4674 17.293 56.8229 17.5078 56.0964 17.6953L 56.0964 15.375C 56.5495 15.2266 56.987 15.0703 57.4089 14.9062C 57.8307 14.7422 58.2448 14.5586 58.651 14.3555C 59.0651 14.1523 59.4792 13.9258 59.8932 13.6758C 60.3151 13.4258 60.7487 13.1406 61.194 12.8203L 62.3424 12.8203ZM 77.2721 24.5977C 77.2721 25.4414 77.1315 26.2109 76.8503 26.9062C 76.5768 27.6016 76.194 28.2031 75.7018 28.7109C 75.2096 29.2109 74.6237 29.6016 73.944 29.8828C 73.2721 30.1562 72.5417 30.293 71.7526 30.293C 70.9089 30.293 70.1315 30.1289 69.4206 29.8008C 68.7174 29.4727 68.1081 28.9844 67.5924 28.3359C 67.0846 27.6875 66.6901 26.8828 66.4089 25.9219C 66.1276 24.9531 65.987 23.832 65.987 22.5586C 65.987 21.0039 66.1706 19.625 66.5378 18.4219C 66.9128 17.2188 67.4245 16.2109 68.0729 15.3984C 68.7214 14.5859 69.4831 13.9688 70.3581 13.5469C 71.2331 13.125 72.1784 12.9141 73.194 12.9141C 73.8268 12.9141 74.401 12.957 74.9167 13.043C 75.4401 13.1289 75.8581 13.2461 76.1706 13.3945L 76.1706 15.8438C 75.7721 15.6406 75.3464 15.4688 74.8932 15.3281C 74.4401 15.1875 73.9206 15.1172 73.3346 15.1172C 72.6784 15.1172 72.0729 15.25 71.5182 15.5156C 70.9635 15.7812 70.4831 16.1719 70.0768 16.6875C 69.6784 17.1953 69.362 17.8281 69.1276 18.5859C 68.901 19.3359 68.7839 20.2031 68.776 21.1875L 68.8464 21.1875C 69.2057 20.6328 69.6901 20.1953 70.2995 19.875C 70.9167 19.5547 71.6393 19.3945 72.4674 19.3945C 73.2018 19.3945 73.862 19.5156 74.4479 19.7578C 75.0417 19.9922 75.5456 20.3359 75.9596 20.7891C 76.3815 21.2344 76.7057 21.7812 76.9323 22.4297C 77.1589 23.0703 77.2721 23.793 77.2721 24.5977ZM 74.5299 24.8203C 74.5299 24.3359 74.4714 23.8945 74.3542 23.4961C 74.2448 23.0977 74.0729 22.7578 73.8385 22.4766C 73.612 22.1875 73.3229 21.9648 72.9714 21.8086C 72.6276 21.6523 72.2214 21.5742 71.7526 21.5742C 71.2839 21.5742 70.8698 21.6602 70.5104 21.832C 70.1589 21.9961 69.862 22.2148 69.6198 22.4883C 69.3776 22.7617 69.194 23.0742 69.069 23.4258C 68.9518 23.7773 68.8932 24.1367 68.8932 24.5039C 68.8932 24.9023 68.9479 25.3125 69.0573 25.7344C 69.1745 26.1484 69.3503 26.5273 69.5846 26.8711C 69.819 27.2148 70.1159 27.5 70.4753 27.7266C 70.8424 27.9453 71.276 28.0547 71.776 28.0547C 72.2214 28.0547 72.6159 27.9727 72.9596 27.8086C 73.3034 27.6445 73.5885 27.418 73.8151 27.1289C 74.0495 26.8398 74.2253 26.5 74.3424 26.1094C 74.4674 25.7109 74.5299 25.2812 74.5299 24.8203Z" transform="translate(683.332 375)" fill="#0078D4"/>
</g>
</g>
<g id="These articles help_9">
<path d="M 57.2682 13.1953L 57.2682 24.0469L 59.7643 24.0469L 59.7643 26.3086L 57.2682 26.3086L 57.2682 30L 54.6315 30L 54.6315 26.3086L 47.026 26.3086L 47.026 24.0234C 47.7135 23.25 48.4167 22.4141 49.1354 21.5156C 49.862 20.6094 50.5573 19.6875 51.2214 18.75C 51.8932 17.8047 52.5143 16.8594 53.0846 15.9141C 53.655 14.9688 54.1354 14.0625 54.526 13.1953L 57.2682 13.1953ZM 54.6315 24.0469L 54.6315 16.9922C 53.78 18.5234 52.9362 19.8594 52.1003 21C 51.2721 22.1406 50.4948 23.1562 49.7682 24.0469L 54.6315 24.0469ZM 66.7253 30.2812C 64.9753 30.2812 63.6081 29.5664 62.6237 28.1367C 61.6471 26.707 61.1589 24.6406 61.1589 21.9375C 61.1589 18.9688 61.6706 16.7227 62.694 15.1992C 63.7175 13.6758 65.194 12.9141 67.1237 12.9141C 70.819 12.9141 72.6667 15.7852 72.6667 21.5273C 72.6667 24.3711 72.1432 26.543 71.0964 28.043C 70.0573 29.5352 68.6003 30.2812 66.7253 30.2812ZM 66.9948 15.082C 64.9557 15.082 63.9362 17.3281 63.9362 21.8203C 63.9362 26.0234 64.9362 28.125 66.9362 28.125C 68.905 28.125 69.8893 25.9883 69.8893 21.7148C 69.8893 17.293 68.9245 15.082 66.9948 15.082ZM 80.0612 30.2812C 78.3112 30.2812 76.944 29.5664 75.9596 28.1367C 74.9831 26.707 74.4948 24.6406 74.4948 21.9375C 74.4948 18.9688 75.0065 16.7227 76.03 15.1992C 77.0534 13.6758 78.53 12.9141 80.4596 12.9141C 84.155 12.9141 86.0026 15.7852 86.0026 21.5273C 86.0026 24.3711 85.4792 26.543 84.4323 28.043C 83.3932 29.5352 81.9362 30.2812 80.0612 30.2812ZM 80.3307 15.082C 78.2917 15.082 77.2721 17.3281 77.2721 21.8203C 77.2721 26.0234 78.2721 28.125 80.2721 28.125C 82.2409 28.125 83.2253 25.9883 83.2253 21.7148C 83.2253 17.293 82.2604 15.082 80.3307 15.082Z" transform="translate(463.334 600.666)" fill="#0078D4"/>
</g>
<g id="These articles help_10">
<path d="M 58.3581 30L 47.8112 30L 47.8112 28.6992C 47.8112 28.168 47.8854 27.6719 48.0338 27.2109C 48.1823 26.7422 48.3815 26.3047 48.6315 25.8984C 48.8815 25.4844 49.1745 25.0977 49.5104 24.7383C 49.8463 24.3711 50.2057 24.0195 50.5885 23.6836C 50.9713 23.3398 51.362 23.0117 51.7604 22.6992C 52.1588 22.3789 52.5495 22.0586 52.9323 21.7383C 53.2917 21.4336 53.6198 21.1367 53.9167 20.8477C 54.2135 20.5508 54.4674 20.2461 54.6784 19.9336C 54.8893 19.6211 55.0534 19.293 55.1706 18.9492C 55.2878 18.5977 55.3463 18.2188 55.3463 17.8125C 55.3463 17.3672 55.276 16.9805 55.1354 16.6523C 55.0026 16.3164 54.8112 16.0391 54.5612 15.8203C 54.319 15.5938 54.0299 15.4258 53.694 15.3164C 53.3581 15.1992 52.9909 15.1406 52.5924 15.1406C 51.9049 15.1406 51.2057 15.3008 50.4948 15.6211C 49.7838 15.9414 49.1003 16.4219 48.444 17.0625L 48.444 14.4492C 48.7878 14.1914 49.1354 13.9688 49.487 13.7812C 49.8385 13.5859 50.2018 13.4258 50.5768 13.3008C 50.9518 13.168 51.3463 13.0703 51.7604 13.0078C 52.1745 12.9453 52.6159 12.9141 53.0846 12.9141C 53.8424 12.9141 54.5299 13.0156 55.1471 13.2188C 55.7643 13.4141 56.2917 13.707 56.7292 14.0977C 57.1667 14.4805 57.5026 14.9609 57.737 15.5391C 57.9792 16.1172 58.1003 16.7812 58.1003 17.5312C 58.1003 18.2109 58.0143 18.8242 57.8424 19.3711C 57.6784 19.9102 57.4401 20.4141 57.1276 20.8828C 56.8229 21.3516 56.4518 21.7969 56.0143 22.2188C 55.5768 22.6406 55.0885 23.0742 54.5495 23.5195C 54.0963 23.8867 53.6432 24.2461 53.1901 24.5977C 52.7448 24.9414 52.3424 25.2812 51.9831 25.6172C 51.6237 25.9453 51.3307 26.2773 51.1042 26.6133C 50.8854 26.9414 50.776 27.2734 50.776 27.6094L 50.776 27.668L 58.3581 27.668L 58.3581 30ZM 66.4792 30.2812C 64.7292 30.2812 63.362 29.5664 62.3776 28.1367C 61.401 26.707 60.9128 24.6406 60.9128 21.9375C 60.9128 18.9688 61.4245 16.7227 62.4479 15.1992C 63.4713 13.6758 64.9479 12.9141 66.8776 12.9141C 70.5729 12.9141 72.4206 15.7852 72.4206 21.5273C 72.4206 24.3711 71.8971 26.543 70.8503 28.043C 69.8112 29.5352 68.3542 30.2812 66.4792 30.2812ZM 66.7487 15.082C 64.7096 15.082 63.6901 17.3281 63.6901 21.8203C 63.6901 26.0234 64.6901 28.125 66.6901 28.125C 68.6588 28.125 69.6432 25.9883 69.6432 21.7148C 69.6432 17.293 68.6784 15.082 66.7487 15.082ZM 79.8151 30.2812C 78.0651 30.2812 76.6979 29.5664 75.7135 28.1367C 74.737 26.707 74.2487 24.6406 74.2487 21.9375C 74.2487 18.9688 74.7604 16.7227 75.7838 15.1992C 76.8073 13.6758 78.2838 12.9141 80.2135 12.9141C 83.9088 12.9141 85.7565 15.7852 85.7565 21.5273C 85.7565 24.3711 85.2331 26.543 84.1862 28.043C 83.1471 29.5352 81.6901 30.2812 79.8151 30.2812ZM 80.0846 15.082C 78.0456 15.082 77.026 17.3281 77.026 21.8203C 77.026 26.0234 78.026 28.125 80.026 28.125C 81.9948 28.125 82.9792 25.9883 82.9792 21.7148C 82.9792 17.293 82.0143 15.082 80.0846 15.082Z" transform="translate(863.666 383.334)" fill="#0078D4"/>
</g>
<g id="These articles help_11">
<path d="M 70.6042 13.1953L 70.6042 24.0469L 73.1003 24.0469L 73.1003 26.3086L 70.6042 26.3086L 70.6042 30L 67.9674 30L 67.9674 26.3086L 60.362 26.3086L 60.362 24.0234C 61.0495 23.25 61.7526 22.4141 62.4714 21.5156C 63.1979 20.6094 63.8932 19.6875 64.5573 18.75C 65.2292 17.8047 65.8503 16.8594 66.4206 15.9141C 66.9909 14.9688 67.4714 14.0625 67.862 13.1953L 70.6042 13.1953ZM 67.9674 24.0469L 67.9674 16.9922C 67.1159 18.5234 66.2721 19.8594 65.4362 21C 64.6081 22.1406 63.8307 23.1562 63.1042 24.0469L 67.9674 24.0469Z" transform="translate(35 260)" fill="#0078D4"/>
</g>
<g id="Line">
<line y1="-1" x2="663.333" y2="-1" stroke-width="2" transform="translate(198.334 591.666)" stroke="#137AD4"/>
</g>
<g id="Line_2">
<line y1="-1" x2="333" y2="-1" stroke-width="2" transform="matrix(0 -1 1 0 893 563)" stroke="#137AD4"/>
</g>
<g id="Line_3">
<line y1="-1" x2="78.3333" y2="-1" stroke-width="2" transform="translate(196.666 281.666) scale(-1)" stroke="#137AD4"/>
</g>
<g id="Line 2">
<line y1="-1" x2="26.6667" y2="-1" stroke-width="2" transform="matrix(0 1 -1 0 196.666 576.666)" stroke="#137AD4"/>
</g>
<g id="Line 2.1">
<line y1="-1" x2="26.6667" y2="-1" stroke-width="2" transform="matrix(0 1 -1 0 862 576.666)" stroke="#137AD4"/>
</g>
<g id="Line 2.2">
<line y1="-1" x2="26.6666" y2="-1" stroke-width="2" transform="translate(878.334 563)" stroke="#137AD4"/>
</g>
<g id="Line 2.3">
<line y1="-1" x2="26.6666" y2="-1" stroke-width="2" transform="translate(878.334 232)" stroke="#137AD4"/>
</g>
<g id="pattern-form_2" clip-path="url(#clip1)">
<rect width="666.667" height="333.333" fill="#0000FF" transform="translate(1050 230)"/>
<g id="Rectangle 2_3">
<rect width="666.667" height="333.333" transform="translate(1050 230)" fill="white"/>
<rect x="6.5" y="6.5" width="653.667" height="320.333" stroke-width="13" transform="translate(1050 230)" stroke="#137AD4"/>
</g>
<g id="Rectangle_2">
<rect width="506.667" height="186.667" transform="translate(1130 303.334)" fill="white"/>
<rect x="3" y="3" width="500.667" height="180.667" stroke-width="6" transform="translate(1130 303.334)" stroke="#243A5E"/>
</g>
<g id="This is text in a_2">
<path d="M 25.7109 16.125L 16.0547 16.125L 16.0547 45L 10.4766 45L 10.4766 16.125L 0.84375 16.125L 0.84375 11.3906L 25.7109 11.3906L 25.7109 16.125ZM 51.3516 45L 45.9141 45L 45.9141 31.875C 45.9141 27.125 44.3281 24.75 41.1562 24.75C 39.5625 24.75 38.2188 25.4375 37.125 26.8125C 36.0312 28.1875 35.4844 29.9453 35.4844 32.0859L 35.4844 45L 30.0234 45L 30.0234 9.46875L 35.4844 9.46875L 35.4844 24.9844L 35.5781 24.9844C 37.3906 21.9531 39.9844 20.4375 43.3594 20.4375C 48.6875 20.4375 51.3516 23.6953 51.3516 30.2109L 51.3516 45ZM 60.7031 15.9609C 59.8125 15.9609 59.0469 15.6719 58.4062 15.0938C 57.7812 14.5156 57.4688 13.7812 57.4688 12.8906C 57.4688 12 57.7812 11.2578 58.4062 10.6641C 59.0469 10.0703 59.8125 9.77344 60.7031 9.77344C 61.625 9.77344 62.4062 10.0703 63.0469 10.6641C 63.6875 11.2578 64.0078 12 64.0078 12.8906C 64.0078 13.7344 63.6875 14.4609 63.0469 15.0703C 62.4062 15.6641 61.625 15.9609 60.7031 15.9609ZM 63.3984 45L 57.9609 45L 57.9609 21L 63.3984 21L 63.3984 45ZM 69.0234 44.25L 69.0234 39.2109C 71.0547 40.7578 73.2969 41.5312 75.75 41.5312C 79.0312 41.5312 80.6719 40.5625 80.6719 38.625C 80.6719 38.0781 80.5312 37.6172 80.25 37.2422C 79.9688 36.8516 79.5859 36.5078 79.1016 36.2109C 78.6328 35.9141 78.0703 35.6484 77.4141 35.4141C 76.7734 35.1797 76.0547 34.9141 75.2578 34.6172C 74.2734 34.2266 73.3828 33.8125 72.5859 33.375C 71.8047 32.9375 71.1484 32.4453 70.6172 31.8984C 70.1016 31.3359 69.7109 30.7031 69.4453 30C 69.1797 29.2969 69.0469 28.4766 69.0469 27.5391C 69.0469 26.3828 69.3203 25.3672 69.8672 24.4922C 70.4141 23.6016 71.1484 22.8594 72.0703 22.2656C 72.9922 21.6562 74.0391 21.2031 75.2109 20.9062C 76.3828 20.5938 77.5938 20.4375 78.8438 20.4375C 81.0625 20.4375 83.0469 20.7734 84.7969 21.4453L 84.7969 26.2031C 83.1094 25.0469 81.1719 24.4688 78.9844 24.4688C 78.2969 24.4688 77.6719 24.5391 77.1094 24.6797C 76.5625 24.8203 76.0938 25.0156 75.7031 25.2656C 75.3125 25.5156 75.0078 25.8203 74.7891 26.1797C 74.5703 26.5234 74.4609 26.9062 74.4609 27.3281C 74.4609 27.8438 74.5703 28.2812 74.7891 28.6406C 75.0078 29 75.3281 29.3203 75.75 29.6016C 76.1875 29.8672 76.7031 30.1172 77.2969 30.3516C 77.9062 30.5703 78.6016 30.8125 79.3828 31.0781C 80.4141 31.5 81.3359 31.9297 82.1484 32.3672C 82.9766 32.8047 83.6797 33.3047 84.2578 33.8672C 84.8359 34.4141 85.2812 35.0547 85.5938 35.7891C 85.9062 36.5078 86.0625 37.3672 86.0625 38.3672C 86.0625 39.5859 85.7812 40.6484 85.2188 41.5547C 84.6562 42.4609 83.9062 43.2109 82.9688 43.8047C 82.0312 44.3984 80.9453 44.8359 79.7109 45.1172C 78.4922 45.4141 77.2031 45.5625 75.8438 45.5625C 73.2188 45.5625 70.9453 45.125 69.0234 44.25ZM 107.203 15.9609C 106.312 15.9609 105.547 15.6719 104.906 15.0938C 104.281 14.5156 103.969 13.7812 103.969 12.8906C 103.969 12 104.281 11.2578 104.906 10.6641C 105.547 10.0703 106.312 9.77344 107.203 9.77344C 108.125 9.77344 108.906 10.0703 109.547 10.6641C 110.188 11.2578 110.508 12 110.508 12.8906C 110.508 13.7344 110.188 14.4609 109.547 15.0703C 108.906 15.6641 108.125 15.9609 107.203 15.9609ZM 109.898 45L 104.461 45L 104.461 21L 109.898 21L 109.898 45ZM 115.523 44.25L 115.523 39.2109C 117.555 40.7578 119.797 41.5312 122.25 41.5312C 125.531 41.5312 127.172 40.5625 127.172 38.625C 127.172 38.0781 127.031 37.6172 126.75 37.2422C 126.469 36.8516 126.086 36.5078 125.602 36.2109C 125.133 35.9141 124.57 35.6484 123.914 35.4141C 123.273 35.1797 122.555 34.9141 121.758 34.6172C 120.773 34.2266 119.883 33.8125 119.086 33.375C 118.305 32.9375 117.648 32.4453 117.117 31.8984C 116.602 31.3359 116.211 30.7031 115.945 30C 115.68 29.2969 115.547 28.4766 115.547 27.5391C 115.547 26.3828 115.82 25.3672 116.367 24.4922C 116.914 23.6016 117.648 22.8594 118.57 22.2656C 119.492 21.6562 120.539 21.2031 121.711 20.9062C 122.883 20.5938 124.094 20.4375 125.344 20.4375C 127.562 20.4375 129.547 20.7734 131.297 21.4453L 131.297 26.2031C 129.609 25.0469 127.672 24.4688 125.484 24.4688C 124.797 24.4688 124.172 24.5391 123.609 24.6797C 123.062 24.8203 122.594 25.0156 122.203 25.2656C 121.812 25.5156 121.508 25.8203 121.289 26.1797C 121.07 26.5234 120.961 26.9062 120.961 27.3281C 120.961 27.8438 121.07 28.2812 121.289 28.6406C 121.508 29 121.828 29.3203 122.25 29.6016C 122.688 29.8672 123.203 30.1172 123.797 30.3516C 124.406 30.5703 125.102 30.8125 125.883 31.0781C 126.914 31.5 127.836 31.9297 128.648 32.3672C 129.477 32.8047 130.18 33.3047 130.758 33.8672C 131.336 34.4141 131.781 35.0547 132.094 35.7891C 132.406 36.5078 132.562 37.3672 132.562 38.3672C 132.562 39.5859 132.281 40.6484 131.719 41.5547C 131.156 42.4609 130.406 43.2109 129.469 43.8047C 128.531 44.3984 127.445 44.8359 126.211 45.1172C 124.992 45.4141 123.703 45.5625 122.344 45.5625C 119.719 45.5625 117.445 45.125 115.523 44.25ZM 163.617 44.7422C 162.555 45.2734 161.156 45.5391 159.422 45.5391C 154.766 45.5391 152.438 43.3047 152.438 38.8359L 152.438 25.2656L 148.43 25.2656L 148.43 21L 152.438 21L 152.438 15.4453L 157.875 13.8984L 157.875 21L 163.617 21L 163.617 25.2656L 157.875 25.2656L 157.875 37.2656C 157.875 38.6875 158.133 39.7031 158.648 40.3125C 159.164 40.9219 160.023 41.2266 161.227 41.2266C 162.148 41.2266 162.945 40.9609 163.617 40.4297L 163.617 44.7422ZM 188.344 34.4766L 171.984 34.4766C 172.047 36.6953 172.727 38.4062 174.023 39.6094C 175.336 40.8125 177.133 41.4141 179.414 41.4141C 181.977 41.4141 184.328 40.6484 186.469 39.1172L 186.469 43.5C 184.281 44.875 181.391 45.5625 177.797 45.5625C 174.266 45.5625 171.492 44.4766 169.477 42.3047C 167.477 40.1172 166.477 37.0469 166.477 33.0938C 166.477 29.3594 167.578 26.3203 169.781 23.9766C 172 21.6172 174.75 20.4375 178.031 20.4375C 181.312 20.4375 183.852 21.4922 185.648 23.6016C 187.445 25.7109 188.344 28.6406 188.344 32.3906L 188.344 34.4766ZM 183.094 30.6328C 183.078 28.6797 182.617 27.1641 181.711 26.0859C 180.805 24.9922 179.555 24.4453 177.961 24.4453C 176.398 24.4453 175.07 25.0156 173.977 26.1562C 172.898 27.2969 172.234 28.7891 171.984 30.6328L 183.094 30.6328ZM 213.586 21L 205.594 33.1406L 213.492 45L 207.188 45L 202.969 37.5703C 202.703 37.1172 202.391 36.5391 202.031 35.8359L 201.938 35.8359C 201.875 35.9766 201.547 36.5547 200.953 37.5703L 196.664 45L 190.383 45L 198.539 33.2344L 190.805 21L 197.133 21L 201.281 28.8047C 201.594 29.3828 201.898 29.9766 202.195 30.5859L 202.266 30.5859L 207.633 21L 213.586 21ZM 230.227 44.7422C 229.164 45.2734 227.766 45.5391 226.031 45.5391C 221.375 45.5391 219.047 43.3047 219.047 38.8359L 219.047 25.2656L 215.039 25.2656L 215.039 21L 219.047 21L 219.047 15.4453L 224.484 13.8984L 224.484 21L 230.227 21L 230.227 25.2656L 224.484 25.2656L 224.484 37.2656C 224.484 38.6875 224.742 39.7031 225.258 40.3125C 225.773 40.9219 226.633 41.2266 227.836 41.2266C 228.758 41.2266 229.555 40.9609 230.227 40.4297L 230.227 44.7422ZM 250.875 15.9609C 249.984 15.9609 249.219 15.6719 248.578 15.0938C 247.953 14.5156 247.641 13.7812 247.641 12.8906C 247.641 12 247.953 11.2578 248.578 10.6641C 249.219 10.0703 249.984 9.77344 250.875 9.77344C 251.797 9.77344 252.578 10.0703 253.219 10.6641C 253.859 11.2578 254.18 12 254.18 12.8906C 254.18 13.7344 253.859 14.4609 253.219 15.0703C 252.578 15.6641 251.797 15.9609 250.875 15.9609ZM 253.57 45L 248.133 45L 248.133 21L 253.57 21L 253.57 45ZM 282.07 45L 276.633 45L 276.633 31.4766C 276.633 26.9922 275.047 24.75 271.875 24.75C 270.219 24.75 268.852 25.375 267.773 26.625C 266.695 27.8594 266.156 29.4219 266.156 31.3125L 266.156 45L 260.695 45L 260.695 21L 266.156 21L 266.156 24.9844L 266.25 24.9844C 268.047 21.9531 270.641 20.4375 274.031 20.4375C 276.641 20.4375 278.633 21.2891 280.008 22.9922C 281.383 24.6797 282.07 27.125 282.07 30.3281L 282.07 45ZM 320.367 45L 315.094 45L 315.094 41.25L 315 41.25C 313.344 44.125 310.914 45.5625 307.711 45.5625C 305.352 45.5625 303.5 44.9219 302.156 43.6406C 300.828 42.3594 300.164 40.6641 300.164 38.5547C 300.164 34.0234 302.773 31.3828 307.992 30.6328L 315.117 29.625C 315.117 26.2031 313.492 24.4922 310.242 24.4922C 307.383 24.4922 304.805 25.4766 302.508 27.4453L 302.508 22.6875C 305.039 21.1875 307.961 20.4375 311.273 20.4375C 317.336 20.4375 320.367 23.4219 320.367 29.3906L 320.367 45ZM 315.117 33.2109L 310.078 33.9141C 308.516 34.1172 307.336 34.5 306.539 35.0625C 305.758 35.6094 305.367 36.5781 305.367 37.9688C 305.367 38.9844 305.727 39.8203 306.445 40.4766C 307.18 41.1172 308.156 41.4375 309.375 41.4375C 311.031 41.4375 312.398 40.8594 313.477 39.7031C 314.57 38.5312 315.117 37.0625 315.117 35.2969L 315.117 33.2109Z" transform="translate(1186.67 371.666)" fill="black"/>
</g>
</g>
<g id="These articles help_12">
<path d="M 28.4782 32L 24.4059 32L 21.0514 26.375C 20.7487 25.8574 20.4509 25.418 20.1579 25.0566C 19.8747 24.6855 19.5817 24.3828 19.279 24.1484C 18.986 23.9141 18.6637 23.7432 18.3122 23.6357C 17.9606 23.5283 17.5651 23.4746 17.1257 23.4746L 15.7194 23.4746L 15.7194 32L 12.2477 32L 12.2477 10.9941L 19.1618 10.9941C 20.1481 10.9941 21.0563 11.1113 21.8864 11.3457C 22.7165 11.5801 23.4391 11.9365 24.0544 12.415C 24.6696 12.8838 25.1481 13.4746 25.4899 14.1875C 25.8415 14.8906 26.0173 15.7158 26.0173 16.6631C 26.0173 17.4053 25.905 18.0889 25.6803 18.7139C 25.4655 19.3291 25.153 19.8809 24.7428 20.3691C 24.3425 20.8477 23.8542 21.2578 23.278 21.5996C 22.7116 21.9414 22.0719 22.2051 21.3591 22.3906L 21.3591 22.4492C 21.7399 22.6641 22.0719 22.9033 22.3551 23.167C 22.6384 23.4209 22.9069 23.6846 23.1608 23.958C 23.4147 24.2314 23.6637 24.5439 23.9079 24.8955C 24.1618 25.2373 24.4401 25.6377 24.7428 26.0967L 28.4782 32ZM 15.7194 13.8213L 15.7194 20.6475L 18.6198 20.6475C 19.1569 20.6475 19.6501 20.5645 20.0993 20.3984C 20.5583 20.2324 20.9538 19.9932 21.2858 19.6807C 21.6178 19.3682 21.8766 18.9873 22.0622 18.5381C 22.2477 18.0889 22.3405 17.5859 22.3405 17.0293C 22.3405 16.0234 22.0231 15.2373 21.3884 14.6709C 20.7536 14.1045 19.8405 13.8213 18.6491 13.8213L 15.7194 13.8213ZM 42.4675 25.4229L 32.2428 25.4229C 32.2819 26.8096 32.7067 27.8789 33.5173 28.6309C 34.3376 29.3828 35.4606 29.7588 36.8864 29.7588C 38.488 29.7588 39.9577 29.2803 41.2956 28.3232L 41.2956 31.0625C 39.9284 31.9219 38.1217 32.3516 35.8757 32.3516C 33.6686 32.3516 31.9352 31.6729 30.6755 30.3154C 29.4255 28.9482 28.8005 27.0293 28.8005 24.5586C 28.8005 22.2246 29.4889 20.3252 30.8659 18.8604C 32.2526 17.3857 33.9714 16.6484 36.0221 16.6484C 38.0729 16.6484 39.6598 17.3076 40.7829 18.626C 41.9059 19.9443 42.4675 21.7754 42.4675 24.1191L 42.4675 25.4229ZM 39.1862 23.0205C 39.1764 21.7998 38.8884 20.8525 38.3219 20.1787C 37.7555 19.4951 36.9743 19.1533 35.9782 19.1533C 35.0016 19.1533 34.1716 19.5098 33.488 20.2227C 32.8141 20.9355 32.3991 21.8682 32.2428 23.0205L 39.1862 23.0205ZM 59.3425 32L 55.944 32L 55.944 29.4512L 55.8854 29.4512C 54.7917 31.3848 53.1071 32.3516 50.8317 32.3516C 48.986 32.3516 47.5065 31.6826 46.3932 30.3447C 45.2897 28.9971 44.738 27.166 44.738 24.8516C 44.738 22.3711 45.3483 20.3838 46.569 18.8896C 47.7995 17.3955 49.4352 16.6484 51.4762 16.6484C 53.4977 16.6484 54.9675 17.459 55.8854 19.0801L 55.944 19.0801L 55.944 9.79297L 59.3425 9.79297L 59.3425 32ZM 55.988 25.1445L 55.988 23.1816C 55.988 22.1172 55.6413 21.2139 54.9479 20.4717C 54.2546 19.7295 53.3708 19.3584 52.2966 19.3584C 51.027 19.3584 50.026 19.832 49.2936 20.7793C 48.571 21.7266 48.2096 23.04 48.2096 24.7197C 48.2096 26.2432 48.5563 27.4492 49.2497 28.3379C 49.9528 29.2168 50.8952 29.6562 52.0768 29.6562C 53.2389 29.6562 54.1813 29.2314 54.904 28.3818C 55.6266 27.5225 55.988 26.4434 55.988 25.1445ZM 67.194 32L 63.7809 32L 63.7809 9.79297L 67.194 9.79297L 67.194 32ZM 73.3464 13.8506C 72.7897 13.8506 72.3112 13.6699 71.9108 13.3086C 71.5202 12.9473 71.3249 12.4883 71.3249 11.9316C 71.3249 11.375 71.5202 10.9111 71.9108 10.54C 72.3112 10.1689 72.7897 9.9834 73.3464 9.9834C 73.9225 9.9834 74.4108 10.1689 74.8112 10.54C 75.2116 10.9111 75.4118 11.375 75.4118 11.9316C 75.4118 12.459 75.2116 12.9131 74.8112 13.2939C 74.4108 13.665 73.9225 13.8506 73.3464 13.8506ZM 75.0309 32L 71.6325 32L 71.6325 17L 75.0309 17L 75.0309 32ZM 92.8434 32L 89.445 32L 89.445 23.5479C 89.445 20.7451 88.4538 19.3438 86.4714 19.3438C 85.4362 19.3438 84.5817 19.7344 83.9079 20.5156C 83.2341 21.2871 82.8971 22.2637 82.8971 23.4453L 82.8971 32L 79.4841 32L 79.4841 17L 82.8971 17L 82.8971 19.4902L 82.9557 19.4902C 84.0788 17.5957 85.6999 16.6484 87.819 16.6484C 89.4499 16.6484 90.695 17.1807 91.5544 18.2451C 92.4137 19.2998 92.8434 20.8281 92.8434 22.8301L 92.8434 32ZM 109.704 25.4229L 99.4792 25.4229C 99.5182 26.8096 99.943 27.8789 100.754 28.6309C 101.574 29.3828 102.697 29.7588 104.123 29.7588C 105.724 29.7588 107.194 29.2803 108.532 28.3232L 108.532 31.0625C 107.165 31.9219 105.358 32.3516 103.112 32.3516C 100.905 32.3516 99.1716 31.6729 97.9118 30.3154C 96.6618 28.9482 96.0368 27.0293 96.0368 24.5586C 96.0368 22.2246 96.7253 20.3252 98.1022 18.8604C 99.4889 17.3857 101.208 16.6484 103.258 16.6484C 105.309 16.6484 106.896 17.3076 108.019 18.626C 109.142 19.9443 109.704 21.7754 109.704 24.1191L 109.704 25.4229ZM 106.423 23.0205C 106.413 21.7998 106.125 20.8525 105.558 20.1787C 104.992 19.4951 104.211 19.1533 103.215 19.1533C 102.238 19.1533 101.408 19.5098 100.724 20.2227C 100.05 20.9355 99.6354 21.8682 99.4792 23.0205L 106.423 23.0205ZM 112.004 31.5312L 112.004 28.3818C 113.273 29.3486 114.674 29.832 116.208 29.832C 118.258 29.832 119.284 29.2266 119.284 28.0156C 119.284 27.6738 119.196 27.3857 119.02 27.1514C 118.844 26.9072 118.605 26.6924 118.302 26.5068C 118.009 26.3213 117.658 26.1553 117.248 26.0088C 116.847 25.8623 116.398 25.6963 115.9 25.5107C 115.285 25.2666 114.728 25.0078 114.23 24.7344C 113.742 24.4609 113.332 24.1533 113 23.8115C 112.677 23.46 112.433 23.0645 112.267 22.625C 112.101 22.1855 112.018 21.6729 112.018 21.0869C 112.018 20.3643 112.189 19.7295 112.531 19.1826C 112.873 18.626 113.332 18.1621 113.908 17.791C 114.484 17.4102 115.138 17.127 115.871 16.9414C 116.603 16.7461 117.36 16.6484 118.141 16.6484C 119.528 16.6484 120.768 16.8584 121.862 17.2783L 121.862 20.252C 120.807 19.5293 119.596 19.168 118.229 19.168C 117.799 19.168 117.409 19.2119 117.057 19.2998C 116.715 19.3877 116.423 19.5098 116.178 19.666C 115.934 19.8223 115.744 20.0127 115.607 20.2373C 115.47 20.4521 115.402 20.6914 115.402 20.9551C 115.402 21.2773 115.47 21.5508 115.607 21.7754C 115.744 22 115.944 22.2002 116.208 22.376C 116.481 22.542 116.803 22.6982 117.174 22.8447C 117.555 22.9814 117.99 23.1328 118.478 23.2988C 119.123 23.5625 119.699 23.8311 120.207 24.1045C 120.724 24.3779 121.164 24.6904 121.525 25.042C 121.886 25.3838 122.165 25.7842 122.36 26.2432C 122.555 26.6924 122.653 27.2295 122.653 27.8545C 122.653 28.6162 122.477 29.2803 122.126 29.8467C 121.774 30.4131 121.305 30.8818 120.719 31.2529C 120.133 31.624 119.455 31.8975 118.683 32.0732C 117.922 32.2588 117.116 32.3516 116.266 32.3516C 114.626 32.3516 113.205 32.0781 112.004 31.5312Z" transform="translate(466.666 780)" fill="#243A5E"/>
</g>
<g id="These articles help_13">
<path d="M 78.9811 32L 75.1725 32L 65.1383 16.5605C 64.8844 16.1699 64.6745 15.7646 64.5085 15.3447L 64.4206 15.3447C 64.4987 15.7939 64.5378 16.7559 64.5378 18.2305L 64.5378 32L 61.1686 32L 61.1686 10.9941L 65.2262 10.9941L 74.9235 26.0674C 75.3336 26.6924 75.5973 27.1221 75.7145 27.3564L 75.7731 27.3564C 75.6754 26.7998 75.6266 25.8574 75.6266 24.5293L 75.6266 10.9941L 78.9811 10.9941L 78.9811 32ZM 90.4655 32.3516C 88.151 32.3516 86.3004 31.6533 84.9137 30.2568C 83.5368 28.8506 82.8483 26.9902 82.8483 24.6758C 82.8483 22.1562 83.5661 20.1885 85.0016 18.7725C 86.4469 17.3564 88.3903 16.6484 90.8317 16.6484C 93.1754 16.6484 95.0016 17.3369 96.3102 18.7139C 97.6188 20.0908 98.2731 22 98.2731 24.4414C 98.2731 26.834 97.5651 28.7529 96.1491 30.1982C 94.7428 31.6338 92.8483 32.3516 90.4655 32.3516ZM 90.6266 19.3584C 89.2985 19.3584 88.2487 19.8223 87.4772 20.75C 86.7057 21.6777 86.32 22.957 86.32 24.5879C 86.32 26.1602 86.7106 27.4004 87.4919 28.3086C 88.2731 29.207 89.318 29.6562 90.6266 29.6562C 91.9645 29.6562 92.9899 29.2119 93.7028 28.3232C 94.4254 27.4346 94.7868 26.1699 94.7868 24.5293C 94.7868 22.8789 94.4254 21.6045 93.7028 20.7061C 92.9899 19.8076 91.9645 19.3584 90.6266 19.3584ZM 118.708 20.2373C 118.298 19.915 117.707 19.7539 116.935 19.7539C 115.929 19.7539 115.09 20.208 114.416 21.1162C 113.742 22.0244 113.405 23.2598 113.405 24.8223L 113.405 32L 110.007 32L 110.007 17L 113.405 17L 113.405 20.0908L 113.464 20.0908C 113.796 19.0361 114.303 18.2158 114.987 17.6299C 115.68 17.0342 116.452 16.7363 117.301 16.7363C 117.917 16.7363 118.385 16.8291 118.708 17.0146L 118.708 20.2373ZM 133.547 25.4229L 123.322 25.4229C 123.361 26.8096 123.786 27.8789 124.596 28.6309C 125.417 29.3828 126.54 29.7588 127.965 29.7588C 129.567 29.7588 131.037 29.2803 132.375 28.3232L 132.375 31.0625C 131.007 31.9219 129.201 32.3516 126.955 32.3516C 124.748 32.3516 123.014 31.6729 121.755 30.3154C 120.505 28.9482 119.88 27.0293 119.88 24.5586C 119.88 22.2246 120.568 20.3252 121.945 18.8604C 123.332 17.3857 125.05 16.6484 127.101 16.6484C 129.152 16.6484 130.739 17.3076 131.862 18.626C 132.985 19.9443 133.547 21.7754 133.547 24.1191L 133.547 25.4229ZM 130.265 23.0205C 130.256 21.7998 129.967 20.8525 129.401 20.1787C 128.835 19.4951 128.053 19.1533 127.057 19.1533C 126.081 19.1533 125.251 19.5098 124.567 20.2227C 123.893 20.9355 123.478 21.8682 123.322 23.0205L 130.265 23.0205ZM 150.422 32L 147.023 32L 147.023 29.4512L 146.965 29.4512C 145.871 31.3848 144.186 32.3516 141.911 32.3516C 140.065 32.3516 138.586 31.6826 137.472 30.3447C 136.369 28.9971 135.817 27.166 135.817 24.8516C 135.817 22.3711 136.427 20.3838 137.648 18.8896C 138.879 17.3955 140.514 16.6484 142.555 16.6484C 144.577 16.6484 146.047 17.459 146.965 19.0801L 147.023 19.0801L 147.023 9.79297L 150.422 9.79297L 150.422 32ZM 147.067 25.1445L 147.067 23.1816C 147.067 22.1172 146.72 21.2139 146.027 20.4717C 145.334 19.7295 144.45 19.3584 143.376 19.3584C 142.106 19.3584 141.105 19.832 140.373 20.7793C 139.65 21.7266 139.289 23.04 139.289 24.7197C 139.289 26.2432 139.635 27.4492 140.329 28.3379C 141.032 29.2168 141.974 29.6562 143.156 29.6562C 144.318 29.6562 145.26 29.2314 145.983 28.3818C 146.706 27.5225 147.067 26.4434 147.067 25.1445ZM 158.273 32L 154.86 32L 154.86 9.79297L 158.273 9.79297L 158.273 32ZM 164.425 13.8506C 163.869 13.8506 163.39 13.6699 162.99 13.3086C 162.599 12.9473 162.404 12.4883 162.404 11.9316C 162.404 11.375 162.599 10.9111 162.99 10.54C 163.39 10.1689 163.869 9.9834 164.425 9.9834C 165.002 9.9834 165.49 10.1689 165.89 10.54C 166.291 10.9111 166.491 11.375 166.491 11.9316C 166.491 12.459 166.291 12.9131 165.89 13.2939C 165.49 13.665 165.002 13.8506 164.425 13.8506ZM 166.11 32L 162.712 32L 162.712 17L 166.11 17L 166.11 32ZM 183.923 32L 180.524 32L 180.524 23.5479C 180.524 20.7451 179.533 19.3438 177.55 19.3438C 176.515 19.3438 175.661 19.7344 174.987 20.5156C 174.313 21.2871 173.976 22.2637 173.976 23.4453L 173.976 32L 170.563 32L 170.563 17L 173.976 17L 173.976 19.4902L 174.035 19.4902C 175.158 17.5957 176.779 16.6484 178.898 16.6484C 180.529 16.6484 181.774 17.1807 182.633 18.2451C 183.493 19.2998 183.923 20.8281 183.923 22.8301L 183.923 32ZM 200.783 25.4229L 190.558 25.4229C 190.597 26.8096 191.022 27.8789 191.833 28.6309C 192.653 29.3828 193.776 29.7588 195.202 29.7588C 196.803 29.7588 198.273 29.2803 199.611 28.3232L 199.611 31.0625C 198.244 31.9219 196.437 32.3516 194.191 32.3516C 191.984 32.3516 190.251 31.6729 188.991 30.3154C 187.741 28.9482 187.116 27.0293 187.116 24.5586C 187.116 22.2246 187.804 20.3252 189.181 18.8604C 190.568 17.3857 192.287 16.6484 194.338 16.6484C 196.388 16.6484 197.975 17.3076 199.098 18.626C 200.221 19.9443 200.783 21.7754 200.783 24.1191L 200.783 25.4229ZM 197.502 23.0205C 197.492 21.7998 197.204 20.8525 196.637 20.1787C 196.071 19.4951 195.29 19.1533 194.294 19.1533C 193.317 19.1533 192.487 19.5098 191.803 20.2227C 191.13 20.9355 190.715 21.8682 190.558 23.0205L 197.502 23.0205ZM 203.083 31.5312L 203.083 28.3818C 204.352 29.3486 205.754 29.832 207.287 29.832C 209.338 29.832 210.363 29.2266 210.363 28.0156C 210.363 27.6738 210.275 27.3857 210.099 27.1514C 209.923 26.9072 209.684 26.6924 209.382 26.5068C 209.089 26.3213 208.737 26.1553 208.327 26.0088C 207.926 25.8623 207.477 25.6963 206.979 25.5107C 206.364 25.2666 205.807 25.0078 205.309 24.7344C 204.821 24.4609 204.411 24.1533 204.079 23.8115C 203.757 23.46 203.512 23.0645 203.346 22.625C 203.18 22.1855 203.097 21.6729 203.097 21.0869C 203.097 20.3643 203.268 19.7295 203.61 19.1826C 203.952 18.626 204.411 18.1621 204.987 17.791C 205.563 17.4102 206.217 17.127 206.95 16.9414C 207.682 16.7461 208.439 16.6484 209.22 16.6484C 210.607 16.6484 211.847 16.8584 212.941 17.2783L 212.941 20.252C 211.886 19.5293 210.675 19.168 209.308 19.168C 208.879 19.168 208.488 19.2119 208.136 19.2998C 207.795 19.3877 207.502 19.5098 207.257 19.666C 207.013 19.8223 206.823 20.0127 206.686 20.2373C 206.549 20.4521 206.481 20.6914 206.481 20.9551C 206.481 21.2773 206.549 21.5508 206.686 21.7754C 206.823 22 207.023 22.2002 207.287 22.376C 207.56 22.542 207.882 22.6982 208.254 22.8447C 208.634 22.9814 209.069 23.1328 209.557 23.2988C 210.202 23.5625 210.778 23.8311 211.286 24.1045C 211.803 24.3779 212.243 24.6904 212.604 25.042C 212.965 25.3838 213.244 25.7842 213.439 26.2432C 213.634 26.6924 213.732 27.2295 213.732 27.8545C 213.732 28.6162 213.556 29.2803 213.205 29.8467C 212.853 30.4131 212.384 30.8818 211.798 31.2529C 211.213 31.624 210.534 31.8975 209.762 32.0732C 209.001 32.2588 208.195 32.3516 207.345 32.3516C 205.705 32.3516 204.284 32.0781 203.083 31.5312Z" transform="translate(1246.67 780)" fill="#243A5E"/>
</g>
</g>
</g>
<defs>

<clipPath id="clip0">
<rect width="666.667" height="333.333" fill="white" transform="translate(196.666 230)"/>
</clipPath>
<clipPath id="clip1">
<rect width="666.667" height="333.333" fill="white" transform="translate(1050 230)"/>
</clipPath>

</defs>
</svg>

