<svg width="440" height="208" viewBox="0 0 440 208" fill="none" xmlns="http://www.w3.org/2000/svg">
<rect width="440" height="208" rx="8" fill="#F9F9F9"/>
<path d="M103.047 125.641L105.812 124.094C107.531 127.562 109.719 130.125 112.375 131.781C115.062 133.406 118.219 134.219 121.844 134.219C126.406 134.219 130.188 132.859 133.188 130.141C136.188 127.422 137.688 123.766 137.688 119.172C137.688 114.984 136.578 111.609 134.359 109.047C132.141 106.484 128.406 104.344 123.156 102.625C117.156 100.625 112.797 98.2188 110.078 95.4062C107.359 92.5938 106 89.0156 106 84.6719C106 79.7969 107.641 75.75 110.922 72.5312C114.203 69.2812 118.484 67.6562 123.766 67.6562C127.797 67.6562 131.234 68.5938 134.078 70.4688C136.953 72.3438 139.141 74.7656 140.641 77.7344L137.875 79.2344C136.625 76.5781 134.766 74.4688 132.297 72.9062C129.859 71.3438 127 70.5625 123.719 70.5625C119.688 70.5625 116.234 71.8125 113.359 74.3125C110.516 76.7812 109.094 80.1406 109.094 84.3906C109.094 88.0469 110.25 91.0625 112.562 93.4375C114.906 95.8125 118.734 97.8906 124.047 99.6719C130.078 101.703 134.375 104.219 136.938 107.219C139.531 110.219 140.828 114.109 140.828 118.891C140.828 124.266 139.031 128.656 135.438 132.062C131.875 135.438 127.344 137.125 121.844 137.125C117.562 137.125 113.844 136.141 110.688 134.172C107.531 132.203 104.984 129.359 103.047 125.641ZM189.578 111.109H152.922C152.828 118.922 154.422 124.75 157.703 128.594C161.016 132.438 165.438 134.375 170.969 134.406C174.375 134.406 177.406 133.656 180.062 132.156C182.719 130.656 184.859 128.406 186.484 125.406L189.016 126.766C187.172 130.172 184.719 132.766 181.656 134.547C178.594 136.297 175.031 137.172 170.969 137.172C164.594 137.141 159.5 135 155.688 130.75C151.875 126.5 149.969 119.906 149.969 110.969C149.969 103.688 151.938 97.8438 155.875 93.4375C159.844 89.0312 164.875 86.8281 170.969 86.8281C176.875 86.8281 181.453 88.8438 184.703 92.875C187.953 96.9062 189.578 102.75 189.578 110.406V111.109ZM186.625 108.391C186.5 102.203 185.031 97.5312 182.219 94.375C179.438 91.1875 175.656 89.5938 170.875 89.5938C165.938 89.5938 161.859 91.2188 158.641 94.4688C155.422 97.7188 153.562 102.359 153.062 108.391H186.625ZM238.188 135.766C238.188 143.266 236.438 148.938 232.938 152.781C229.438 156.625 224.359 158.547 217.703 158.547C213.578 158.547 209.891 157.672 206.641 155.922C203.422 154.203 200.688 151.766 198.438 148.609L200.875 146.828C203 149.891 205.438 152.141 208.188 153.578C210.969 155.047 214.156 155.781 217.75 155.781C223.312 155.781 227.625 154.109 230.688 150.766C233.781 147.453 235.312 142.391 235.281 135.578V125.688H235.141C233.453 129.344 231.078 132.172 228.016 134.172C224.953 136.141 221.453 137.125 217.516 137.125C211.391 137.125 206.453 134.906 202.703 130.469C198.984 126 197.125 120.094 197.125 112.75C197.125 104.531 199.203 98.1562 203.359 93.625C207.516 89.0938 212.828 86.8281 219.297 86.8281C222.828 86.8281 225.984 87.5938 228.766 89.125C231.578 90.6562 233.703 92.8438 235.141 95.6875H235.281V88H238.141L238.188 135.766ZM235.281 115.047V104.734C235.281 100.484 233.75 96.9062 230.688 94C227.625 91.0625 223.828 89.5938 219.297 89.5938C213.516 89.5938 208.875 91.6094 205.375 95.6406C201.875 99.6406 200.125 105.266 200.125 112.516C200.125 119.422 201.75 124.797 205 128.641C208.281 132.453 212.484 134.359 217.609 134.359C222.828 134.359 227.078 132.531 230.359 128.875C233.641 125.219 235.281 120.609 235.281 115.047ZM268.964 137.125C262.182 137.125 256.698 134.812 252.511 130.188C248.354 125.562 246.276 119.531 246.276 112.094C246.276 104.625 248.432 98.5469 252.745 93.8594C257.057 89.1719 262.526 86.8281 269.151 86.8281C275.901 86.8281 281.339 89.1875 285.464 93.9062C289.589 98.5938 291.651 104.625 291.651 112C291.651 119.406 289.557 125.453 285.37 130.141C281.214 134.797 275.745 137.125 268.964 137.125ZM269.057 134.359C274.995 134.359 279.745 132.281 283.307 128.125C286.87 123.969 288.651 118.578 288.651 111.953C288.651 105.328 286.87 99.9531 283.307 95.8281C279.776 91.6719 275.057 89.5938 269.151 89.5938C263.245 89.5938 258.448 91.7031 254.761 95.9219C251.104 100.141 249.276 105.547 249.276 112.141C249.276 118.734 251.073 124.094 254.667 128.219C258.292 132.312 263.089 134.359 269.057 134.359ZM338.761 111.109H302.104C302.011 118.922 303.604 124.75 306.886 128.594C310.198 132.438 314.62 134.375 320.151 134.406C323.557 134.406 326.589 133.656 329.245 132.156C331.901 130.656 334.042 128.406 335.667 125.406L338.198 126.766C336.354 130.172 333.901 132.766 330.839 134.547C327.776 136.297 324.214 137.172 320.151 137.172C313.776 137.141 308.682 135 304.87 130.75C301.057 126.5 299.151 119.906 299.151 110.969C299.151 103.688 301.12 97.8438 305.057 93.4375C309.026 89.0312 314.057 86.8281 320.151 86.8281C326.057 86.8281 330.636 88.8438 333.886 92.875C337.136 96.9062 338.761 102.75 338.761 110.406V111.109ZM335.807 108.391C335.682 102.203 334.214 97.5312 331.401 94.375C328.62 91.1875 324.839 89.5938 320.057 89.5938C315.12 89.5938 311.042 91.2188 307.823 94.4688C304.604 97.7188 302.745 102.359 302.245 108.391H335.807Z" fill="black" fill-opacity="0.8956"/>
</svg>
