<svg width="301" height="140" viewBox="0 0 301 140" fill="none" xmlns="http://www.w3.org/2000/svg">
<rect x="0.5" width="300" height="140" rx="8" fill="#F9F9F9"/>
<path d="M30.0449 94V46.3867H44.8867C53.2318 46.3867 59.5182 48.3014 63.7461 52.1309C67.9961 55.9603 70.1211 61.7819 70.1211 69.5957C70.1211 77.1439 67.8079 83.0983 63.1816 87.459C58.5775 91.8197 52.3796 94 44.5879 94H30.0449ZM37.9473 53.1602V87.2266H44.2559C49.7676 87.2266 54.0729 85.7324 57.1719 82.7441C60.2708 79.7337 61.8203 75.3952 61.8203 69.7285C61.8203 64.1947 60.3483 60.0553 57.4043 57.3105C54.4603 54.5436 50.1217 53.1602 44.3887 53.1602H37.9473ZM81.2109 53.791C79.75 53.791 78.5547 53.3262 77.625 52.3965C76.7174 51.4447 76.2637 50.3047 76.2637 48.9766C76.2637 47.6263 76.7174 46.4863 77.625 45.5566C78.5547 44.627 79.75 44.1621 81.2109 44.1621C82.694 44.1621 83.8893 44.627 84.7969 45.5566C85.7266 46.4863 86.1914 47.6263 86.1914 48.9766C86.1914 50.349 85.7266 51.5 84.7969 52.4297C83.8893 53.3372 82.694 53.791 81.2109 53.791ZM85.0625 94H77.3262V60H85.0625V94ZM92.334 88.3887L97.1152 84.3711C98.3105 86.0312 99.6055 87.2044 101 87.8906C102.395 88.5768 103.966 88.9199 105.715 88.9199C107.419 88.9199 108.792 88.5436 109.832 87.791C110.872 87.0384 111.393 85.9538 111.393 84.5371C111.393 83.4746 110.917 82.556 109.965 81.7812C109.035 81.0065 107.552 80.431 105.516 80.0547C101.133 79.2357 98.0781 77.9629 96.3516 76.2363C94.6471 74.5098 93.7949 72.3626 93.7949 69.7949C93.7949 66.6074 94.9349 64.0508 97.2148 62.125C99.4948 60.1771 102.395 59.2031 105.914 59.2031C108.371 59.2031 110.629 59.6348 112.688 60.498C114.768 61.3613 116.417 62.6895 117.635 64.4824L112.92 68.3672C111.968 67.2383 110.928 66.4082 109.799 65.877C108.67 65.3236 107.342 65.0469 105.814 65.0469C104.221 65.0469 102.959 65.39 102.029 66.0762C101.122 66.7624 100.668 67.7253 100.668 68.9648C100.668 70.0716 101.1 70.946 101.963 71.5879C102.848 72.2298 104.531 72.7832 107.01 73.248C110.817 73.9121 113.661 75.1074 115.543 76.834C117.424 78.5605 118.365 80.9069 118.365 83.873C118.365 87.2819 117.137 89.9603 114.68 91.9082C112.245 93.834 109.234 94.7969 105.648 94.7969C102.594 94.7969 99.9375 94.2324 97.6797 93.1035C95.4219 91.9746 93.64 90.403 92.334 88.3887ZM133.473 90.4473H133.34V109.639H125.604V60H133.34V64.8477H133.473C134.823 62.9661 136.461 61.5605 138.387 60.6309C140.335 59.679 142.515 59.2031 144.928 59.2031C149.443 59.2031 152.963 60.6973 155.486 63.6855C158.01 66.6738 159.271 70.8353 159.271 76.1699C159.271 81.748 157.855 86.2526 155.021 89.6836C152.21 93.0924 148.447 94.7969 143.732 94.7969C141.541 94.7969 139.582 94.4316 137.855 93.7012C136.151 92.9707 134.69 91.8861 133.473 90.4473ZM133.24 75.5391V79.7227C133.24 82.224 134.07 84.3158 135.73 85.998C137.413 87.6803 139.527 88.5215 142.072 88.5215C144.95 88.5215 147.208 87.4258 148.846 85.2344C150.506 83.043 151.336 80.0879 151.336 76.3691C151.336 72.7611 150.572 70.0495 149.045 68.2344C147.54 66.3971 145.459 65.4785 142.803 65.4785C139.992 65.4785 137.689 66.4193 135.896 68.3008C134.126 70.1823 133.24 72.5951 133.24 75.5391ZM166.443 94V43.6641H174.18V94H166.443ZM209.541 94H202.07V89.7832H201.938C200.742 91.4212 199.281 92.6719 197.555 93.5352C195.828 94.3763 193.902 94.7969 191.777 94.7969C188.634 94.7969 186.055 93.9004 184.041 92.1074C182.049 90.3145 181.053 87.9681 181.053 85.0684C181.053 81.9473 182.049 79.446 184.041 77.5645C186.055 75.6608 188.933 74.4987 192.674 74.0781L202.104 73.0156V71.3887C202.104 69.2858 201.517 67.7142 200.344 66.6738C199.171 65.6113 197.632 65.0801 195.729 65.0801C193.847 65.0801 192.264 65.5007 190.98 66.3418C189.697 67.1829 188.634 68.3893 187.793 69.9609L182.016 67.0059C183.167 64.7259 184.982 62.8555 187.461 61.3945C189.94 59.9336 192.884 59.2031 196.293 59.2031C200.587 59.2031 203.863 60.332 206.121 62.5898C208.401 64.8255 209.541 68.0794 209.541 72.3516V94ZM202.104 80.1875V78.3281L193.902 79.2246C192.021 79.4238 190.648 79.944 189.785 80.7852C188.922 81.6263 188.49 82.7552 188.49 84.1719C188.49 85.6107 188.977 86.7839 189.951 87.6914C190.947 88.5768 192.231 89.0195 193.803 89.0195C196.282 89.0195 198.285 88.1895 199.812 86.5293C201.34 84.847 202.104 82.7331 202.104 80.1875ZM249.219 60L233.414 100.773C232.241 103.806 230.658 106.097 228.666 107.646C226.696 109.218 224.294 110.004 221.461 110.004C220.089 110.004 218.794 109.849 217.576 109.539C216.381 109.251 215.241 108.786 214.156 108.145L217.51 102.699C218.196 103.098 218.816 103.374 219.369 103.529C219.923 103.706 220.498 103.795 221.096 103.795C222.136 103.795 223.021 103.529 223.752 102.998C224.505 102.489 225.18 101.548 225.777 100.176L228.268 94.3984L214.92 60H223.354L231.156 82.5449C231.4 83.2311 231.588 83.8398 231.721 84.3711C231.854 84.9023 232.008 85.5553 232.186 86.3301H232.352C232.507 85.5553 232.661 84.9134 232.816 84.4043C232.993 83.8952 233.193 83.2975 233.414 82.6113L241.283 60H249.219Z" fill="black" fill-opacity="0.8956"/>
</svg>
