<svg width="480" height="582" viewBox="0 0 480 582" fill="none" xmlns="http://www.w3.org/2000/svg">
<g clip-path="url(#clip0_2417_14100)">
<path d="M480 0H0V582H480V0Z" fill="#F1F1F1"/>
<path d="M62.4434 73.5547L62.0215 72.7578C61.7676 72.9102 61.4824 73.0312 61.166 73.1211C60.8496 73.2109 60.5234 73.2559 60.1875 73.2559C59.1953 73.2559 58.4297 72.9531 57.8906 72.3477C57.3516 71.7422 57.082 70.9258 57.082 69.8984C57.082 68.8008 57.3711 67.9355 57.9492 67.3027C58.5312 66.666 59.3145 66.3477 60.2988 66.3477C60.6191 66.3477 60.9316 66.3789 61.2363 66.4414C61.5449 66.5039 61.8477 66.6094 62.1445 66.7578L62.5312 65.9375C62.2266 65.7773 61.8887 65.6582 61.5176 65.5801C61.1465 65.498 60.7441 65.457 60.3105 65.457C59.0449 65.457 58.0176 65.8652 57.2285 66.6816C56.4434 67.4941 56.0508 68.5859 56.0508 69.957C56.0508 71.207 56.4023 72.2168 57.1055 72.9863C57.8125 73.7559 58.8008 74.1406 60.0703 74.1406C60.5 74.1406 60.9102 74.0957 61.3008 74.0059C61.6953 73.916 62.0762 73.7656 62.4434 73.5547ZM68.1504 74V70.0977C68.1504 69.3516 67.9668 68.793 67.5996 68.4219C67.2324 68.0469 66.6855 67.8594 65.959 67.8594C65.541 67.8594 65.123 67.9453 64.7051 68.1172C64.291 68.2852 63.9336 68.502 63.6328 68.7676L64.1777 69.3945C64.4668 69.1445 64.7441 68.9609 65.0098 68.8438C65.2754 68.7266 65.5723 68.668 65.9004 68.668C66.291 68.668 66.6035 68.7754 66.8379 68.9902C67.0723 69.2012 67.1895 69.5586 67.1895 70.0625V70.1973L65.4785 70.4258C64.834 70.5195 64.3359 70.7344 63.9844 71.0703C63.6328 71.4062 63.457 71.8301 63.457 72.3418C63.457 72.8848 63.6309 73.3203 63.9785 73.6484C64.3262 73.9766 64.7812 74.1406 65.3438 74.1406C65.7461 74.1406 66.0977 74.0508 66.3984 73.8711C66.7031 73.6914 66.959 73.4219 67.166 73.0625H67.1895V74H68.1504ZM67.1895 71.5625C67.1895 72.082 67.0352 72.5117 66.7266 72.8516C66.4219 73.1914 66.0098 73.3613 65.4902 73.3613C65.1895 73.3613 64.9336 73.2676 64.7227 73.0801C64.5156 72.8887 64.4121 72.6133 64.4121 72.2539C64.4121 71.9102 64.5234 71.6582 64.7461 71.498C64.9688 71.3379 65.3008 71.2266 65.7422 71.1641L67.1895 70.9648V71.5625ZM70.9453 73.1328C71.1562 73.4688 71.4121 73.7207 71.7129 73.8887C72.0137 74.0566 72.3574 74.1406 72.7441 74.1406C73.5918 74.1406 74.2598 73.8398 74.748 73.2383C75.2363 72.6328 75.4805 71.8281 75.4805 70.8242C75.4805 69.9219 75.2637 69.2031 74.8301 68.668C74.3965 68.1289 73.793 67.8594 73.0195 67.8594C72.5664 67.8594 72.166 67.959 71.8184 68.1582C71.4746 68.3574 71.1836 68.6562 70.9453 69.0547H70.9219V68H69.9609V76.7598H70.9219V73.1328H70.9453ZM70.9219 70.7129C70.9219 70.127 71.0918 69.6406 71.4316 69.2539C71.7715 68.8633 72.2207 68.668 72.7793 68.668C73.3066 68.668 73.7246 68.8574 74.0332 69.2363C74.3418 69.6152 74.4961 70.1387 74.4961 70.8066C74.4961 71.5996 74.3301 72.2188 73.998 72.6641C73.6699 73.1094 73.2148 73.332 72.6328 73.332C72.1367 73.332 71.7266 73.1602 71.4023 72.8164C71.082 72.4688 70.9219 72.0469 70.9219 71.5508V70.7129ZM79.875 73.9297L79.6406 73.1973C79.5664 73.2324 79.4746 73.2637 79.3652 73.291C79.2559 73.3184 79.1426 73.332 79.0254 73.332C78.7793 73.332 78.5938 73.2559 78.4688 73.1035C78.3477 72.9512 78.2871 72.7031 78.2871 72.3594V68.8203H79.7988V68H78.2871V66.2246L77.3262 66.5352V68H76.2949V68.8203H77.3262V72.4707C77.3262 73.0176 77.4609 73.4316 77.7305 73.7129C78.0039 73.9902 78.3789 74.1289 78.8555 74.1289C79.0547 74.1289 79.2324 74.1113 79.3887 74.0762C79.5488 74.0449 79.7109 73.9961 79.875 73.9297ZM81.5742 66.5645C81.7695 66.5645 81.9336 66.5 82.0664 66.3711C82.1992 66.2383 82.2656 66.0762 82.2656 65.8848C82.2656 65.6934 82.1992 65.5332 82.0664 65.4043C81.9336 65.2715 81.7695 65.2051 81.5742 65.2051C81.3789 65.2051 81.2148 65.2715 81.082 65.4043C80.9492 65.5332 80.8828 65.6934 80.8828 65.8848C80.8828 66.0762 80.9492 66.2383 81.082 66.3711C81.2148 66.5 81.3789 66.5645 81.5742 66.5645ZM82.043 74V68H81.082V74H82.043ZM86.4961 74.1406C87.4062 74.1406 88.1309 73.8535 88.6699 73.2793C89.2129 72.7051 89.4844 71.9375 89.4844 70.9766C89.4844 70.0039 89.2324 69.2402 88.7285 68.6855C88.2285 68.1309 87.5312 67.8555 86.6367 67.8594C85.6914 67.8633 84.9453 68.1484 84.3984 68.7148C83.8516 69.2812 83.5781 70.0664 83.5781 71.0703C83.5781 71.9961 83.8418 72.7402 84.3691 73.3027C84.9004 73.8613 85.6094 74.1406 86.4961 74.1406ZM86.5664 68.668C87.1836 68.668 87.6602 68.8711 87.9961 69.2773C88.332 69.6797 88.5 70.2578 88.5 71.0117C88.5 71.75 88.332 72.3223 87.9961 72.7285C87.6641 73.1309 87.1875 73.332 86.5664 73.332C85.957 73.332 85.4707 73.127 85.1074 72.7168C84.7441 72.3066 84.5625 71.7461 84.5625 71.0352C84.5625 70.3008 84.7422 69.7227 85.1016 69.3008C85.4609 68.8789 85.9492 68.668 86.5664 68.668ZM96 74V70.332C96 69.5312 95.8262 68.9199 95.4785 68.498C95.1309 68.0723 94.6289 67.8594 93.9727 67.8594C93.543 67.8594 93.1641 67.9551 92.8359 68.1465C92.5078 68.334 92.2305 68.6172 92.0039 68.9961H91.9805V68H91.0195V74H91.9805V70.5781C91.9805 70.0273 92.1367 69.5723 92.4492 69.2129C92.7656 68.8496 93.1641 68.668 93.6445 68.668C94.1094 68.668 94.457 68.8281 94.6875 69.1484C94.9219 69.4648 95.0391 69.9414 95.0391 70.5781V74H96Z" fill="black" fill-opacity="0.8956"/>
<path d="M55.7852 118H58.6426C59.5586 118 60.3174 117.74 60.9189 117.221C61.5205 116.701 61.8213 116.022 61.8213 115.184C61.8213 114.509 61.623 113.962 61.2266 113.543C60.8301 113.119 60.3014 112.868 59.6406 112.791V112.764C60.1693 112.59 60.584 112.299 60.8848 111.889C61.1855 111.479 61.3359 110.995 61.3359 110.439C61.3359 109.751 61.0876 109.207 60.5908 108.806C60.0986 108.4 59.4287 108.197 58.5811 108.197H55.7852V118ZM56.9336 109.236H58.2598C58.8796 109.236 59.3467 109.355 59.6611 109.592C59.9756 109.829 60.1328 110.187 60.1328 110.665C60.1328 111.216 59.9528 111.645 59.5928 111.95C59.2327 112.251 58.7383 112.401 58.1094 112.401H56.9336V109.236ZM56.9336 113.434H58.2529C59.0413 113.434 59.6315 113.579 60.0234 113.871C60.4199 114.158 60.6182 114.591 60.6182 115.17C60.6182 115.726 60.4313 116.163 60.0576 116.482C59.6885 116.801 59.1667 116.961 58.4922 116.961H56.9336V113.434ZM66.5312 118.164C67.5931 118.164 68.4385 117.829 69.0674 117.159C69.7008 116.489 70.0176 115.594 70.0176 114.473C70.0176 113.338 69.7236 112.447 69.1357 111.8C68.5524 111.153 67.7389 110.831 66.6953 110.836C65.5924 110.84 64.722 111.173 64.084 111.834C63.446 112.495 63.127 113.411 63.127 114.582C63.127 115.662 63.4346 116.53 64.0498 117.187C64.6696 117.838 65.4967 118.164 66.5312 118.164ZM66.6133 111.779C67.3333 111.779 67.8893 112.016 68.2812 112.49C68.6732 112.96 68.8691 113.634 68.8691 114.514C68.8691 115.375 68.6732 116.043 68.2812 116.517C67.8939 116.986 67.3379 117.221 66.6133 117.221C65.9023 117.221 65.335 116.981 64.9111 116.503C64.4873 116.024 64.2754 115.37 64.2754 114.541C64.2754 113.684 64.485 113.01 64.9043 112.518C65.3236 112.025 65.8932 111.779 66.6133 111.779ZM77.7832 118V107.637H76.6621V111.971H76.6348C76.416 111.592 76.1312 111.31 75.7803 111.123C75.4339 110.932 75.0192 110.836 74.5361 110.836C73.5654 110.836 72.7884 111.185 72.2051 111.882C71.6217 112.579 71.3301 113.507 71.3301 114.664C71.3301 115.744 71.5921 116.599 72.1162 117.228C72.6449 117.852 73.349 118.164 74.2285 118.164C74.7754 118.164 75.2471 118.052 75.6436 117.829C76.0446 117.601 76.375 117.262 76.6348 116.811H76.6621V118H77.7832ZM76.6621 114.835C76.6621 115.523 76.4684 116.093 76.0811 116.544C75.6937 116.995 75.1855 117.221 74.5566 117.221C73.9232 117.221 73.4173 116.988 73.0391 116.523C72.6654 116.054 72.4785 115.416 72.4785 114.609C72.4785 113.725 72.6745 113.033 73.0664 112.531C73.4583 112.03 73.9961 111.779 74.6797 111.779C75.2493 111.779 75.721 111.975 76.0947 112.367C76.473 112.759 76.6621 113.238 76.6621 113.803V114.835ZM85.624 111H84.4619L82.4727 116.4C82.4362 116.519 82.4066 116.621 82.3838 116.708C82.3656 116.795 82.3496 116.865 82.3359 116.92H82.2949C82.2585 116.779 82.2266 116.662 82.1992 116.571C82.1764 116.48 82.1605 116.419 82.1514 116.387L80.2578 111H79.0137L81.748 117.986L81.1396 119.436C81.0212 119.718 80.8617 119.937 80.6611 120.092C80.4652 120.247 80.2168 120.324 79.916 120.324C79.8477 120.324 79.777 120.317 79.7041 120.304C79.6357 120.295 79.5605 120.276 79.4785 120.249L79.2598 121.206C79.3646 121.233 79.474 121.254 79.5879 121.268C79.7018 121.286 79.8271 121.295 79.9639 121.295C80.4925 121.295 80.9505 121.135 81.3379 120.816C81.7298 120.497 82.0579 120.003 82.3223 119.333L85.624 111Z" fill="black" fill-opacity="0.8956"/>
<path d="M56.1523 212H59.8262C61.0039 212 61.9795 211.666 62.7529 210.998C63.5264 210.33 63.9131 209.457 63.9131 208.379C63.9131 207.512 63.6582 206.809 63.1484 206.27C62.6387 205.725 61.959 205.402 61.1094 205.303V205.268C61.7891 205.045 62.3223 204.67 62.709 204.143C63.0957 203.615 63.2891 202.994 63.2891 202.279C63.2891 201.395 62.9697 200.694 62.3311 200.179C61.6982 199.657 60.8369 199.396 59.7471 199.396H56.1523V212ZM57.6289 200.732H59.334C60.1309 200.732 60.7314 200.885 61.1357 201.189C61.54 201.494 61.7422 201.954 61.7422 202.569C61.7422 203.278 61.5107 203.829 61.0479 204.222C60.585 204.608 59.9492 204.802 59.1406 204.802H57.6289V200.732ZM57.6289 206.129H59.3252C60.3389 206.129 61.0977 206.316 61.6016 206.691C62.1113 207.061 62.3662 207.617 62.3662 208.361C62.3662 209.076 62.126 209.639 61.6455 210.049C61.1709 210.459 60.5 210.664 59.6328 210.664H57.6289V206.129ZM69.9688 212.211C71.334 212.211 72.4209 211.78 73.2295 210.919C74.0439 210.058 74.4512 208.906 74.4512 207.465C74.4512 206.006 74.0732 204.86 73.3174 204.028C72.5674 203.196 71.5215 202.783 70.1797 202.789C68.7617 202.795 67.6426 203.223 66.8223 204.072C66.002 204.922 65.5918 206.1 65.5918 207.605C65.5918 208.994 65.9873 210.11 66.7783 210.954C67.5752 211.792 68.6387 212.211 69.9688 212.211ZM70.0742 204.002C71 204.002 71.7148 204.307 72.2188 204.916C72.7227 205.52 72.9746 206.387 72.9746 207.518C72.9746 208.625 72.7227 209.483 72.2188 210.093C71.7207 210.696 71.0059 210.998 70.0742 210.998C69.1602 210.998 68.4307 210.69 67.8857 210.075C67.3408 209.46 67.0684 208.619 67.0684 207.553C67.0684 206.451 67.3379 205.584 67.877 204.951C68.416 204.318 69.1484 204.002 70.0742 204.002ZM84.4355 212V198.676H82.9941V204.248H82.959C82.6777 203.762 82.3115 203.398 81.8604 203.158C81.415 202.912 80.8818 202.789 80.2607 202.789C79.0127 202.789 78.0137 203.237 77.2637 204.134C76.5137 205.03 76.1387 206.223 76.1387 207.711C76.1387 209.1 76.4756 210.198 77.1494 211.007C77.8291 211.81 78.7344 212.211 79.8652 212.211C80.5684 212.211 81.1748 212.067 81.6846 211.78C82.2002 211.487 82.625 211.051 82.959 210.471H82.9941V212H84.4355ZM82.9941 207.931C82.9941 208.815 82.7451 209.548 82.2471 210.128C81.749 210.708 81.0957 210.998 80.2871 210.998C79.4727 210.998 78.8223 210.699 78.3359 210.102C77.8555 209.498 77.6152 208.678 77.6152 207.641C77.6152 206.504 77.8672 205.613 78.3711 204.969C78.875 204.324 79.5664 204.002 80.4453 204.002C81.1777 204.002 81.7842 204.254 82.2646 204.758C82.751 205.262 82.9941 205.877 82.9941 206.604V207.931ZM94.5166 203H93.0225L90.4648 209.943C90.418 210.096 90.3799 210.228 90.3506 210.339C90.3271 210.45 90.3066 210.541 90.2891 210.611H90.2363C90.1895 210.43 90.1484 210.28 90.1133 210.163C90.084 210.046 90.0635 209.967 90.0518 209.926L87.6172 203H86.0176L89.5332 211.982L88.751 213.846C88.5986 214.209 88.3936 214.49 88.1357 214.689C87.8838 214.889 87.5645 214.988 87.1777 214.988C87.0898 214.988 86.999 214.979 86.9053 214.962C86.8174 214.95 86.7207 214.927 86.6152 214.892L86.334 216.122C86.4688 216.157 86.6094 216.184 86.7559 216.201C86.9023 216.225 87.0635 216.236 87.2393 216.236C87.9189 216.236 88.5078 216.031 89.0059 215.621C89.5098 215.211 89.9316 214.575 90.2715 213.714L94.5166 203ZM107.779 212V210.664H102.717V199.396H101.24V212H107.779ZM115.979 212V206.146C115.979 205.027 115.704 204.189 115.153 203.633C114.603 203.07 113.782 202.789 112.692 202.789C112.065 202.789 111.438 202.918 110.812 203.176C110.19 203.428 109.654 203.753 109.203 204.151L110.021 205.092C110.454 204.717 110.87 204.441 111.269 204.266C111.667 204.09 112.112 204.002 112.604 204.002C113.19 204.002 113.659 204.163 114.011 204.485C114.362 204.802 114.538 205.338 114.538 206.094V206.296L111.972 206.639C111.005 206.779 110.258 207.102 109.73 207.605C109.203 208.109 108.939 208.745 108.939 209.513C108.939 210.327 109.2 210.98 109.722 211.473C110.243 211.965 110.926 212.211 111.77 212.211C112.373 212.211 112.9 212.076 113.352 211.807C113.809 211.537 114.192 211.133 114.503 210.594H114.538V212H115.979ZM114.538 208.344C114.538 209.123 114.307 209.768 113.844 210.277C113.387 210.787 112.769 211.042 111.989 211.042C111.538 211.042 111.154 210.901 110.838 210.62C110.527 210.333 110.372 209.92 110.372 209.381C110.372 208.865 110.539 208.487 110.873 208.247C111.207 208.007 111.705 207.84 112.367 207.746L114.538 207.447V208.344ZM123.239 204.257L123.371 202.947C123.271 202.912 123.157 202.886 123.028 202.868C122.905 202.851 122.753 202.842 122.571 202.842C122.021 202.842 121.534 203.009 121.112 203.343C120.69 203.671 120.377 204.151 120.172 204.784H120.137V203H118.695V212H120.137V207.412C120.137 206.475 120.348 205.695 120.77 205.074C121.191 204.447 121.769 204.134 122.501 204.134C122.636 204.134 122.759 204.146 122.87 204.169C122.987 204.187 123.11 204.216 123.239 204.257ZM132.6 211.517V203H131.158V204.248H131.123C130.83 203.762 130.458 203.398 130.007 203.158C129.562 202.912 129.034 202.789 128.425 202.789C127.188 202.789 126.192 203.255 125.437 204.187C124.681 205.112 124.303 206.313 124.303 207.79C124.303 209.138 124.643 210.213 125.322 211.016C126.008 211.812 126.91 212.211 128.029 212.211C128.721 212.211 129.324 212.067 129.84 211.78C130.355 211.493 130.783 211.062 131.123 210.488H131.158V211.71C131.158 212.817 130.883 213.644 130.332 214.188C129.781 214.733 129.025 215.006 128.064 215.006C127.596 215.006 127.15 214.953 126.729 214.848C126.312 214.748 125.858 214.569 125.366 214.312L124.848 215.472C125.27 215.694 125.759 215.876 126.315 216.017C126.878 216.163 127.467 216.236 128.082 216.236C129.482 216.236 130.584 215.844 131.387 215.059C132.195 214.273 132.6 213.093 132.6 211.517ZM131.158 207.931C131.158 208.827 130.903 209.562 130.394 210.137C129.89 210.711 129.233 210.998 128.425 210.998C127.599 210.998 126.951 210.714 126.482 210.146C126.014 209.577 125.779 208.76 125.779 207.693C125.779 206.451 126.031 205.525 126.535 204.916C127.045 204.307 127.742 204.002 128.627 204.002C129.348 204.002 129.948 204.257 130.429 204.767C130.915 205.276 131.158 205.889 131.158 206.604V207.931ZM142.751 207.825V207.113C142.751 205.76 142.426 204.702 141.775 203.94C141.131 203.173 140.223 202.789 139.051 202.789C137.82 202.789 136.818 203.231 136.045 204.116C135.277 205.001 134.896 206.167 134.902 207.614C134.908 209.062 135.292 210.189 136.054 210.998C136.815 211.807 137.876 212.211 139.235 212.211C139.886 212.211 140.48 212.132 141.02 211.974C141.559 211.815 142.068 211.581 142.549 211.271L141.925 210.242C141.438 210.523 140.996 210.72 140.598 210.831C140.199 210.937 139.783 210.989 139.35 210.989C138.424 210.989 137.703 210.717 137.188 210.172C136.678 209.621 136.411 208.839 136.388 207.825H142.751ZM141.274 206.647H136.405C136.511 205.839 136.801 205.191 137.275 204.705C137.75 204.213 138.333 203.979 139.024 204.002C139.722 204.002 140.27 204.236 140.668 204.705C141.066 205.168 141.269 205.815 141.274 206.647Z" fill="black" fill-opacity="0.8956"/>
<path d="M55.7031 163H59.0186C60.0303 163 60.846 162.738 61.4658 162.214C62.0902 161.69 62.4023 160.995 62.4023 160.129C62.4023 159.491 62.2087 158.962 61.8213 158.543C61.4385 158.124 60.9258 157.875 60.2832 157.798V157.771C60.7891 157.606 61.1947 157.324 61.5 156.923C61.8099 156.522 61.9648 156.05 61.9648 155.508C61.9648 154.788 61.6937 154.223 61.1514 153.812C60.609 153.402 59.8548 153.197 58.8887 153.197H55.7031V163ZM57.3848 154.53H58.458C59.0368 154.53 59.472 154.637 59.7637 154.852C60.0553 155.066 60.2012 155.389 60.2012 155.822C60.2012 156.292 60.0462 156.656 59.7363 156.916C59.4264 157.176 59.0003 157.306 58.458 157.306H57.3848V154.53ZM57.3848 158.646H58.6494C59.2965 158.646 59.7887 158.771 60.126 159.021C60.4678 159.272 60.6387 159.634 60.6387 160.108C60.6387 160.591 60.4723 160.972 60.1396 161.25C59.8115 161.528 59.3512 161.667 58.7588 161.667H57.3848V158.646ZM67.1328 163.164C68.2539 163.164 69.1426 162.829 69.7988 162.159C70.4551 161.485 70.7832 160.578 70.7832 159.438C70.7832 158.331 70.471 157.454 69.8467 156.807C69.2269 156.155 68.3656 155.829 67.2627 155.829C66.1188 155.834 65.2142 156.164 64.5488 156.82C63.888 157.477 63.5553 158.388 63.5508 159.555C63.5508 160.653 63.8721 161.53 64.5146 162.187C65.1572 162.838 66.0299 163.164 67.1328 163.164ZM67.2012 157.128C67.821 157.128 68.2926 157.328 68.6162 157.729C68.9443 158.131 69.1084 158.714 69.1084 159.479C69.1084 160.254 68.9466 160.847 68.623 161.257C68.2995 161.662 67.8278 161.865 67.208 161.865C66.5791 161.865 66.0915 161.662 65.7451 161.257C65.3988 160.851 65.2256 160.272 65.2256 159.521C65.2256 158.773 65.3988 158.188 65.7451 157.764C66.096 157.34 66.5814 157.128 67.2012 157.128ZM78.7949 163V152.637H77.1543V156.882H77.127C76.9264 156.531 76.6598 156.269 76.3271 156.096C75.9945 155.918 75.5957 155.829 75.1309 155.829C74.1693 155.829 73.3945 156.178 72.8066 156.875C72.2233 157.572 71.9316 158.5 71.9316 159.657C71.9316 160.751 72.196 161.61 72.7246 162.234C73.2578 162.854 73.9619 163.164 74.8369 163.164C75.3519 163.164 75.7985 163.062 76.1768 162.856C76.555 162.647 76.8717 162.335 77.127 161.92H77.1543V163H78.7949ZM77.1748 159.712C77.1748 160.345 77.0085 160.863 76.6758 161.264C76.3431 161.665 75.9102 161.865 75.377 161.865C74.8301 161.865 74.3971 161.667 74.0781 161.271C73.7637 160.869 73.6064 160.313 73.6064 159.603C73.6064 158.832 73.7705 158.229 74.0986 157.791C74.4268 157.349 74.8825 157.128 75.4658 157.128C75.9626 157.128 76.3704 157.301 76.6895 157.647C77.013 157.994 77.1748 158.422 77.1748 158.933V159.712ZM86.9639 156H85.3096L83.6553 160.833C83.6097 160.983 83.5732 161.118 83.5459 161.236C83.5186 161.355 83.4958 161.462 83.4775 161.558H83.4434C83.4115 161.394 83.3818 161.25 83.3545 161.127C83.3271 161.004 83.2998 160.901 83.2725 160.819L81.6729 156H79.8545L82.6436 162.986L82.124 164.224C82.0146 164.479 81.8688 164.67 81.6865 164.798C81.5088 164.93 81.29 164.996 81.0303 164.996C80.9346 164.996 80.8434 164.989 80.7568 164.976C80.6748 164.962 80.5859 164.939 80.4902 164.907L80.2031 166.179C80.3535 166.215 80.5062 166.243 80.6611 166.261C80.8161 166.279 80.9847 166.288 81.167 166.288C81.7686 166.288 82.2858 166.119 82.7188 165.782C83.1517 165.45 83.4935 164.96 83.7441 164.312L86.9639 156ZM91.2773 162.159C91.724 162.478 92.2139 162.727 92.7471 162.904C93.2848 163.077 93.8613 163.164 94.4766 163.164C95.5931 163.164 96.459 162.888 97.0742 162.337C97.6895 161.785 97.9971 161.079 97.9971 160.218C97.9971 159.411 97.7715 158.78 97.3203 158.324C96.8691 157.864 96.1309 157.483 95.1055 157.183C94.4492 156.987 93.9844 156.786 93.7109 156.581C93.4421 156.371 93.3076 156.084 93.3076 155.72C93.3076 155.314 93.4535 155 93.7451 154.776C94.0413 154.553 94.4469 154.441 94.9619 154.441C95.3037 154.441 95.6432 154.498 95.9805 154.612C96.3223 154.726 96.6527 154.897 96.9717 155.125L97.7783 153.847C97.3818 153.587 96.9489 153.386 96.4795 153.245C96.0146 153.104 95.5361 153.033 95.0439 153.033C93.9958 153.033 93.1663 153.302 92.5557 153.84C91.945 154.378 91.6396 155.054 91.6396 155.87C91.6396 156.627 91.8743 157.224 92.3438 157.661C92.8177 158.099 93.5583 158.463 94.5654 158.755C95.2035 158.951 95.6546 159.167 95.9189 159.404C96.1833 159.637 96.3154 159.956 96.3154 160.361C96.3154 160.812 96.1559 161.157 95.8369 161.394C95.5179 161.631 95.0941 161.749 94.5654 161.749C94.137 161.749 93.7178 161.676 93.3076 161.53C92.902 161.38 92.4759 161.147 92.0293 160.833L91.2773 162.159ZM102.871 162.904L102.516 161.735C102.429 161.781 102.326 161.822 102.208 161.858C102.094 161.89 101.973 161.906 101.846 161.906C101.586 161.906 101.395 161.831 101.271 161.681C101.148 161.53 101.087 161.289 101.087 160.956V157.271H102.755V156H101.087V153.901L99.4463 154.387V156H98.2773V157.271H99.4463V161.086C99.4463 161.774 99.6217 162.291 99.9727 162.638C100.328 162.984 100.836 163.157 101.497 163.157C101.752 163.157 101.994 163.134 102.222 163.089C102.45 163.048 102.666 162.986 102.871 162.904ZM108.087 157.381L108.251 155.952C108.16 155.929 108.064 155.911 107.964 155.897C107.864 155.884 107.754 155.877 107.636 155.877C107.198 155.877 106.82 156 106.501 156.246C106.187 156.492 105.947 156.857 105.783 157.34H105.756V156H104.115V163H105.756V159.541C105.756 158.871 105.906 158.331 106.207 157.921C106.512 157.511 106.95 157.306 107.52 157.306C107.624 157.306 107.722 157.312 107.813 157.326C107.905 157.34 107.996 157.358 108.087 157.381ZM112.4 163.164C113.521 163.164 114.41 162.829 115.066 162.159C115.723 161.485 116.051 160.578 116.051 159.438C116.051 158.331 115.739 157.454 115.114 156.807C114.494 156.155 113.633 155.829 112.53 155.829C111.386 155.834 110.482 156.164 109.816 156.82C109.156 157.477 108.823 158.388 108.818 159.555C108.818 160.653 109.14 161.53 109.782 162.187C110.425 162.838 111.298 163.164 112.4 163.164ZM112.469 157.128C113.089 157.128 113.56 157.328 113.884 157.729C114.212 158.131 114.376 158.714 114.376 159.479C114.376 160.254 114.214 160.847 113.891 161.257C113.567 161.662 113.095 161.865 112.476 161.865C111.847 161.865 111.359 161.662 111.013 161.257C110.666 160.851 110.493 160.272 110.493 159.521C110.493 158.773 110.666 158.188 111.013 157.764C111.364 157.34 111.849 157.128 112.469 157.128ZM123.933 163V158.714C123.933 157.766 123.734 157.048 123.338 156.561C122.941 156.073 122.358 155.829 121.588 155.829C121.091 155.829 120.654 155.938 120.275 156.157C119.897 156.371 119.578 156.697 119.318 157.135H119.291V156H117.65V163H119.291V159.008C119.291 158.465 119.441 158.017 119.742 157.661C120.048 157.306 120.435 157.128 120.904 157.128C121.369 157.128 121.718 157.29 121.95 157.613C122.183 157.932 122.299 158.413 122.299 159.056V163H123.933ZM132.272 162.412V156H130.632V156.889H130.604C130.386 156.538 130.108 156.273 129.771 156.096C129.438 155.918 129.046 155.829 128.595 155.829C127.638 155.829 126.865 156.185 126.277 156.896C125.694 157.606 125.402 158.545 125.402 159.712C125.402 160.76 125.664 161.599 126.188 162.228C126.717 162.852 127.424 163.164 128.308 163.164C128.818 163.164 129.265 163.059 129.647 162.85C130.03 162.64 130.349 162.326 130.604 161.906H130.632V162.658C130.632 163.41 130.436 163.991 130.044 164.401C129.652 164.812 129.101 165.017 128.39 165.017C128.03 165.017 127.676 164.969 127.33 164.873C126.988 164.782 126.644 164.636 126.298 164.436L125.744 165.659C126.081 165.846 126.487 165.996 126.961 166.11C127.435 166.229 127.904 166.288 128.369 166.288C129.618 166.288 130.579 165.939 131.254 165.242C131.933 164.545 132.272 163.602 132.272 162.412ZM130.646 159.732C130.646 160.366 130.477 160.881 130.14 161.277C129.807 161.669 129.372 161.865 128.834 161.865C128.287 161.865 127.856 161.672 127.542 161.284C127.232 160.892 127.077 160.343 127.077 159.637C127.077 158.812 127.243 158.188 127.576 157.764C127.909 157.34 128.367 157.128 128.95 157.128C129.442 157.128 129.848 157.306 130.167 157.661C130.486 158.017 130.646 158.443 130.646 158.939V159.732Z" fill="black" fill-opacity="0.8956"/>
<path d="M55.0664 297.604C55.7044 298.06 56.4043 298.414 57.166 298.668C57.9342 298.916 58.7578 299.039 59.6367 299.039C61.2318 299.039 62.4688 298.645 63.3477 297.858C64.2266 297.07 64.666 296.061 64.666 294.83C64.666 293.678 64.3438 292.776 63.6992 292.125C63.0547 291.468 62 290.924 60.5352 290.494C59.5977 290.215 58.9336 289.928 58.543 289.635C58.1589 289.336 57.9668 288.925 57.9668 288.405C57.9668 287.825 58.1751 287.376 58.5918 287.057C59.015 286.738 59.5944 286.578 60.3301 286.578C60.8184 286.578 61.3034 286.66 61.7852 286.823C62.2734 286.985 62.7454 287.229 63.2012 287.555L64.3535 285.729C63.7871 285.358 63.1686 285.071 62.498 284.869C61.834 284.668 61.1504 284.567 60.4473 284.567C58.9499 284.567 57.765 284.951 56.8926 285.719C56.0202 286.487 55.584 287.454 55.584 288.619C55.584 289.7 55.9193 290.553 56.5898 291.178C57.2669 291.803 58.3249 292.324 59.7637 292.741C60.6751 293.02 61.3197 293.33 61.6973 293.668C62.0749 294 62.2637 294.456 62.2637 295.035C62.2637 295.68 62.0358 296.172 61.5801 296.51C61.1243 296.849 60.5189 297.018 59.7637 297.018C59.1517 297.018 58.5527 296.914 57.9668 296.705C57.3874 296.491 56.7786 296.159 56.1406 295.709L55.0664 297.604ZM75.4766 298.805V288.805H73.1426V294.547C73.1426 295.341 72.931 295.979 72.5078 296.461C72.0911 296.943 71.5508 297.184 70.8867 297.184C70.2031 297.184 69.6888 296.966 69.3438 296.53C69.0052 296.087 68.8359 295.426 68.8359 294.547V288.805H66.502V294.811C66.502 296.224 66.7949 297.282 67.3809 297.985C67.9668 298.688 68.849 299.039 70.0273 299.039C70.6914 299.039 71.2806 298.89 71.7949 298.59C72.3092 298.291 72.7422 297.845 73.0938 297.252H73.1426V298.805H75.4766ZM80.7891 297.575C81.1146 298.063 81.5182 298.431 82 298.678C82.4818 298.919 83.0417 299.039 83.6797 299.039C85.0664 299.039 86.1667 298.538 86.9805 297.535C87.7943 296.526 88.2012 295.185 88.2012 293.512C88.2012 291.995 87.8431 290.791 87.127 289.899C86.4173 289.007 85.4212 288.561 84.1387 288.561C83.4095 288.561 82.765 288.717 82.2051 289.03C81.6452 289.342 81.1732 289.811 80.7891 290.436H80.75V284H78.4062V298.805H80.75V297.575H80.7891ZM80.7207 293.375C80.7207 292.516 80.9648 291.81 81.4531 291.256C81.9414 290.696 82.5729 290.416 83.3477 290.416C84.1094 290.416 84.7083 290.693 85.1445 291.246C85.5807 291.793 85.7988 292.552 85.7988 293.522C85.7988 294.681 85.5645 295.582 85.0957 296.227C84.627 296.865 83.9759 297.184 83.1426 297.184C82.4329 297.184 81.8503 296.937 81.3945 296.442C80.9453 295.94 80.7207 295.322 80.7207 294.586V293.375ZM96.0039 298.668L95.4961 296.998C95.3724 297.063 95.2259 297.122 95.0566 297.174C94.8939 297.22 94.7214 297.243 94.5391 297.243C94.168 297.243 93.8945 297.135 93.7188 296.92C93.543 296.705 93.4551 296.36 93.4551 295.885V290.621H95.8379V288.805H93.4551V285.807L91.1113 286.5V288.805H89.4414V290.621H91.1113V296.071C91.1113 297.054 91.362 297.793 91.8633 298.287C92.3711 298.782 93.097 299.03 94.041 299.03C94.4056 299.03 94.7507 298.997 95.0762 298.932C95.4017 298.873 95.7109 298.785 96.0039 298.668ZM98.9727 286.891C99.4023 286.891 99.7572 286.761 100.037 286.5C100.317 286.233 100.457 285.892 100.457 285.475C100.457 285.065 100.317 284.726 100.037 284.459C99.7572 284.192 99.4023 284.059 98.9727 284.059C98.543 284.059 98.1882 284.192 97.9082 284.459C97.6283 284.726 97.4883 285.065 97.4883 285.475C97.4883 285.879 97.6283 286.217 97.9082 286.491C98.1882 286.757 98.543 286.891 98.9727 286.891ZM100.125 298.805V288.805H97.7812V298.805H100.125ZM108.562 298.668L108.055 296.998C107.931 297.063 107.785 297.122 107.615 297.174C107.452 297.22 107.28 297.243 107.098 297.243C106.727 297.243 106.453 297.135 106.277 296.92C106.102 296.705 106.014 296.36 106.014 295.885V290.621H108.396V288.805H106.014V285.807L103.67 286.5V288.805H102V290.621H103.67V296.071C103.67 297.054 103.921 297.793 104.422 298.287C104.93 298.782 105.656 299.03 106.6 299.03C106.964 299.03 107.309 298.997 107.635 298.932C107.96 298.873 108.27 298.785 108.562 298.668ZM112.684 298.805V284H110.34V298.805H112.684ZM124.119 294.42V293.414C124.119 291.865 123.732 290.67 122.957 289.83C122.182 288.984 121.121 288.561 119.773 288.561C118.367 288.561 117.215 289.059 116.316 290.055C115.418 291.045 114.969 292.34 114.969 293.942C114.975 295.55 115.411 296.803 116.277 297.701C117.15 298.593 118.367 299.039 119.93 299.039C120.763 299.039 121.505 298.932 122.156 298.717C122.814 298.496 123.429 298.17 124.002 297.741L122.986 296.276C122.537 296.614 122.094 296.862 121.658 297.018C121.222 297.174 120.747 297.252 120.232 297.252C119.334 297.252 118.634 297.015 118.133 296.539C117.632 296.058 117.361 295.351 117.322 294.42H124.119ZM121.873 292.819H117.322C117.42 292.037 117.69 291.416 118.133 290.953C118.582 290.491 119.122 290.267 119.754 290.28C120.431 290.28 120.952 290.491 121.316 290.914C121.681 291.338 121.867 291.972 121.873 292.819Z" fill="black" fill-opacity="0.8956"/>
<path d="M68.5938 340.03V337.2H53.9922V340.03H59.5977V356.805H62.9609V340.03H68.5938ZM72.8047 340.125C73.4062 340.125 73.903 339.943 74.2949 339.578C74.6868 339.205 74.8828 338.726 74.8828 338.143C74.8828 337.569 74.6868 337.095 74.2949 336.721C73.903 336.347 73.4062 336.16 72.8047 336.16C72.2031 336.16 71.7064 336.347 71.3145 336.721C70.9225 337.095 70.7266 337.569 70.7266 338.143C70.7266 338.708 70.9225 339.182 71.3145 339.565C71.7064 339.938 72.2031 340.125 72.8047 340.125ZM74.418 356.805V342.805H71.1367V356.805H74.418ZM86.2305 356.614L85.5195 354.276C85.3464 354.367 85.1413 354.449 84.9043 354.522C84.6764 354.586 84.4349 354.617 84.1797 354.617C83.6602 354.617 83.2773 354.467 83.0312 354.166C82.7852 353.866 82.6621 353.382 82.6621 352.717V345.348H85.998V342.805H82.6621V338.608L79.3809 339.578V342.805H77.043V345.348H79.3809V352.977C79.3809 354.353 79.7318 355.388 80.4336 356.08C81.1445 356.773 82.1608 357.119 83.4824 357.119C83.9928 357.119 84.4759 357.074 84.9316 356.983C85.3874 356.901 85.8203 356.778 86.2305 356.614ZM92 356.805V336.078H88.7188V356.805H92ZM108.01 350.666V349.258C108.01 347.089 107.467 345.416 106.383 344.241C105.298 343.056 103.812 342.463 101.926 342.463C99.957 342.463 98.3438 343.16 97.0859 344.555C95.8281 345.94 95.1992 347.754 95.1992 349.996C95.2083 352.248 95.819 354.002 97.0312 355.26C98.2526 356.509 99.957 357.133 102.145 357.133C103.311 357.133 104.35 356.983 105.262 356.682C106.182 356.372 107.044 355.916 107.846 355.315L106.424 353.264C105.795 353.738 105.175 354.084 104.564 354.303C103.954 354.522 103.288 354.631 102.568 354.631C101.311 354.631 100.331 354.298 99.6289 353.633C98.9271 352.959 98.5488 351.97 98.4941 350.666H108.01ZM104.865 348.424H98.4941C98.6309 347.33 99.0091 346.46 99.6289 345.813C100.258 345.166 101.014 344.851 101.898 344.869C102.846 344.869 103.576 345.166 104.086 345.758C104.596 346.351 104.856 347.239 104.865 348.424Z" fill="black" fill-opacity="0.8956"/>
<path d="M70.6094 399.633V396.399H53.9375V399.633H60.3438V418.805H64.1875V399.633H70.6094ZM75.1406 399.946C75.849 399.946 76.4219 399.727 76.8594 399.289C77.3073 398.852 77.5312 398.305 77.5312 397.649C77.5312 396.993 77.3073 396.446 76.8594 396.008C76.4219 395.56 75.849 395.336 75.1406 395.336C74.4427 395.336 73.8698 395.56 73.4219 396.008C72.9844 396.446 72.7656 396.993 72.7656 397.649C72.7656 398.284 72.9844 398.826 73.4219 399.274C73.8698 399.722 74.4427 399.946 75.1406 399.946ZM77 418.805V402.805H73.25V418.805H77ZM90.8906 417.727L89.2344 415.555C88.9531 415.857 88.6823 416.06 88.4219 416.164C88.1615 416.258 87.8958 416.305 87.625 416.305C87.1146 416.305 86.7344 416.159 86.4844 415.867C86.2344 415.565 86.1094 415.102 86.1094 414.477V405.711H90.1719V402.805H86.1094V398.524L82.3594 399.18V402.805H79.6875V405.711H82.3594V414.602C82.3594 416.102 82.75 417.237 83.5312 418.008C84.3229 418.779 85.4948 419.164 87.0469 419.164C87.849 419.164 88.5677 419.039 89.2031 418.789C89.849 418.539 90.4115 418.185 90.8906 417.727ZM96.875 418.805V395.117H93.125V418.805H96.875ZM114.984 411.727V410.321C114.984 407.758 114.365 405.8 113.125 404.446C111.896 403.091 110.151 402.414 107.891 402.414C105.693 402.414 103.865 403.206 102.406 404.789C100.948 406.362 100.219 408.42 100.219 410.961C100.219 413.607 100.927 415.638 102.344 417.055C103.771 418.472 105.677 419.18 108.062 419.18C109.615 419.18 110.953 418.867 112.078 418.243C113.214 417.607 114.135 416.706 114.844 415.539L111.984 413.977C111.526 414.737 110.979 415.31 110.344 415.696C109.708 416.081 108.99 416.274 108.188 416.274C107.01 416.274 106.026 415.894 105.234 415.133C104.443 414.373 104.031 413.237 104 411.727H114.984ZM111.391 409.102H103.984C104.13 407.998 104.552 407.076 105.25 406.336C105.948 405.597 106.854 405.227 107.969 405.227C109.021 405.227 109.854 405.565 110.469 406.243C111.083 406.909 111.391 407.862 111.391 409.102ZM138.953 418.805V415.493H130.312V396.399H126.469V418.805H138.953ZM154.109 418.805V408.664C154.109 406.633 153.568 405.086 152.484 404.024C151.411 402.951 149.854 402.414 147.812 402.414C146.198 402.414 144.802 402.763 143.625 403.461C142.458 404.149 141.599 405.024 141.047 406.086L143.812 407.493C144.219 406.753 144.724 406.19 145.328 405.805C145.932 405.409 146.667 405.211 147.531 405.211C148.417 405.211 149.13 405.461 149.672 405.961C150.224 406.451 150.5 407.185 150.5 408.164V408.914L146.078 409.399C144.307 409.597 142.948 410.144 142 411.039C141.062 411.935 140.594 413.117 140.594 414.586C140.594 415.961 141.068 417.071 142.016 417.914C142.964 418.758 144.172 419.18 145.641 419.18C146.641 419.18 147.547 418.982 148.359 418.586C149.172 418.19 149.859 417.607 150.422 416.836H150.484V418.805H154.109ZM150.5 412.305C150.5 413.482 150.141 414.456 149.422 415.227C148.714 415.998 147.786 416.383 146.641 416.383C145.922 416.383 145.333 416.18 144.875 415.774C144.417 415.357 144.188 414.821 144.188 414.164C144.188 413.508 144.385 412.987 144.781 412.602C145.188 412.206 145.823 411.956 146.688 411.852L150.5 411.446V412.305ZM167.312 406.196L168.516 402.993C168.099 402.826 167.708 402.706 167.344 402.633C166.99 402.56 166.604 402.524 166.188 402.524C165.229 402.524 164.385 402.795 163.656 403.336C162.927 403.878 162.375 404.659 162 405.68H161.938V402.805H158.188V418.805H161.938V410.899C161.938 409.378 162.266 408.149 162.922 407.211C163.589 406.263 164.453 405.789 165.516 405.789C165.839 405.789 166.146 405.826 166.438 405.899C166.74 405.972 167.031 406.071 167.312 406.196ZM185.547 417.852V402.805H181.797V404.461H181.734C181.234 403.805 180.583 403.3 179.781 402.946C178.99 402.591 178.125 402.414 177.188 402.414C175.031 402.414 173.224 403.19 171.766 404.743C170.318 406.295 169.594 408.451 169.594 411.211C169.594 413.722 170.224 415.68 171.484 417.086C172.755 418.482 174.422 419.18 176.484 419.18C177.724 419.18 178.76 418.972 179.594 418.555C180.438 418.128 181.151 417.503 181.734 416.68H181.797V418.477C181.797 420.112 181.391 421.341 180.578 422.164C179.776 422.987 178.635 423.399 177.156 423.399C176.125 423.399 175.234 423.19 174.484 422.774C173.734 422.357 173.062 421.737 172.469 420.914L169.75 422.914C170.562 424.019 171.583 424.862 172.812 425.446C174.042 426.029 175.469 426.321 177.094 426.321C179.771 426.321 181.849 425.581 183.328 424.102C184.807 422.633 185.547 420.55 185.547 417.852ZM181.828 411.336C181.828 412.774 181.427 413.935 180.625 414.821C179.823 415.706 178.786 416.149 177.516 416.149C176.224 416.149 175.219 415.696 174.5 414.789C173.781 413.873 173.422 412.617 173.422 411.024C173.422 409.253 173.807 407.883 174.578 406.914C175.359 405.935 176.417 405.446 177.75 405.446C178.948 405.446 179.927 405.847 180.688 406.649C181.448 407.44 181.828 408.399 181.828 409.524V411.336ZM203.484 411.727V410.321C203.484 407.758 202.865 405.8 201.625 404.446C200.396 403.091 198.651 402.414 196.391 402.414C194.193 402.414 192.365 403.206 190.906 404.789C189.448 406.362 188.719 408.42 188.719 410.961C188.719 413.607 189.427 415.638 190.844 417.055C192.271 418.472 194.177 419.18 196.562 419.18C198.115 419.18 199.453 418.867 200.578 418.243C201.714 417.607 202.635 416.706 203.344 415.539L200.484 413.977C200.026 414.737 199.479 415.31 198.844 415.696C198.208 416.081 197.49 416.274 196.688 416.274C195.51 416.274 194.526 415.894 193.734 415.133C192.943 414.373 192.531 413.237 192.5 411.727H203.484ZM199.891 409.102H192.484C192.63 407.998 193.052 407.076 193.75 406.336C194.448 405.597 195.354 405.227 196.469 405.227C197.521 405.227 198.354 405.565 198.969 406.243C199.583 406.909 199.891 407.862 199.891 409.102Z" fill="black" fill-opacity="0.8956"/>
<path d="M57.0117 507.805H71.7539C79.5456 507.805 85.7435 505.625 90.3477 501.264C94.974 496.881 97.2871 490.927 97.2871 483.401C97.2871 475.587 95.1621 469.765 90.9121 465.936C86.6842 462.106 80.3867 460.192 72.0195 460.192H57.0117V507.805ZM65.1797 467.164H71.5215C77.166 467.164 81.4382 468.537 84.3379 471.282C87.2598 474.004 88.7207 478.088 88.7207 483.534C88.7207 489.112 87.1934 493.395 84.1387 496.383C81.084 499.349 76.834 500.832 71.3887 500.832H65.1797V467.164ZM108.377 467.729C109.882 467.729 111.1 467.264 112.029 466.334C112.981 465.405 113.457 464.243 113.457 462.848C113.457 461.453 112.981 460.291 112.029 459.362C111.1 458.41 109.882 457.934 108.377 457.934C106.894 457.934 105.676 458.41 104.725 459.362C103.795 460.291 103.33 461.453 103.33 462.848C103.33 464.198 103.795 465.349 104.725 466.301C105.676 467.253 106.894 467.729 108.377 467.729ZM112.328 507.805V473.805H104.359V507.805H112.328ZM118.537 501.762C119.865 503.931 121.614 505.614 123.783 506.809C125.952 508.004 128.664 508.602 131.918 508.602C135.548 508.602 138.592 507.628 141.049 505.68C143.528 503.732 144.768 501.054 144.768 497.645C144.768 494.723 143.805 492.388 141.879 490.639C139.975 488.868 137.12 487.64 133.312 486.953C130.833 486.511 129.14 485.991 128.232 485.393C127.347 484.795 126.904 483.921 126.904 482.77C126.904 481.575 127.391 480.656 128.365 480.014C129.339 479.372 130.656 479.051 132.316 479.051C133.866 479.051 135.15 479.328 136.168 479.881C137.186 480.412 138.049 481.22 138.758 482.305L143.938 478.819C142.698 476.849 141.038 475.388 138.957 474.436C136.898 473.462 134.652 472.975 132.217 472.975C128.564 472.975 125.62 473.96 123.385 475.93C121.149 477.9 120.031 480.479 120.031 483.666C120.031 486.212 120.895 488.359 122.621 490.108C124.348 491.834 127.402 493.096 131.785 493.893C133.844 494.291 135.349 494.856 136.301 495.586C137.253 496.317 137.729 497.257 137.729 498.409C137.729 499.737 137.208 500.755 136.168 501.463C135.128 502.172 133.733 502.526 131.984 502.526C130.258 502.526 128.73 502.194 127.402 501.53C126.096 500.866 124.945 499.737 123.949 498.143L118.537 501.762ZM159.078 504.285C160.296 505.724 161.757 506.809 163.461 507.539C165.165 508.248 167.102 508.602 169.271 508.602C173.986 508.602 177.749 506.897 180.561 503.489C183.394 500.058 184.811 495.553 184.811 489.975C184.811 484.64 183.549 480.479 181.025 477.491C178.524 474.48 175.016 472.975 170.5 472.975C168.109 472.975 165.94 473.451 163.992 474.403C162.066 475.332 160.428 476.727 159.078 478.586H158.945V473.805H150.977V523.444H158.945V504.285H159.078ZM158.846 489.344C158.846 486.444 159.72 484.065 161.469 482.205C163.217 480.346 165.475 479.416 168.242 479.416C170.876 479.416 172.935 480.324 174.418 482.139C175.901 483.932 176.643 486.599 176.643 490.141C176.643 493.838 175.824 496.77 174.186 498.94C172.57 501.087 170.356 502.16 167.545 502.16C165.021 502.16 162.941 501.33 161.303 499.67C159.665 498.01 158.846 495.94 158.846 493.461V489.344ZM199.918 507.805V457.469H191.949V507.805H199.918ZM235.811 507.805V486.256C235.811 481.94 234.66 478.653 232.357 476.395C230.077 474.115 226.768 472.975 222.43 472.975C218.999 472.975 216.033 473.716 213.531 475.2C211.052 476.66 209.226 478.52 208.053 480.778L213.93 483.766C214.793 482.194 215.867 480.999 217.15 480.18C218.434 479.339 219.995 478.918 221.832 478.918C223.714 478.918 225.23 479.45 226.381 480.512C227.554 481.552 228.141 483.113 228.141 485.194V486.787L218.744 487.817C214.981 488.237 212.092 489.399 210.078 491.303C208.086 493.207 207.09 495.719 207.09 498.84C207.09 501.762 208.097 504.119 210.111 505.912C212.126 507.705 214.693 508.602 217.814 508.602C219.939 508.602 221.865 508.181 223.592 507.34C225.318 506.499 226.779 505.259 227.975 503.621H228.107V507.805H235.811ZM228.141 493.993C228.141 496.494 227.377 498.563 225.85 500.201C224.344 501.84 222.374 502.659 219.939 502.659C218.412 502.659 217.161 502.227 216.188 501.364C215.214 500.478 214.727 499.338 214.727 497.944C214.727 496.549 215.147 495.442 215.988 494.623C216.852 493.782 218.202 493.251 220.039 493.03L228.141 492.166V493.993ZM274.691 473.805H266.523L258.82 495.951C258.599 496.638 258.4 497.246 258.223 497.778C258.046 498.287 257.88 498.929 257.725 499.703H257.559C257.382 498.929 257.227 498.276 257.094 497.744C256.961 497.191 256.784 496.571 256.562 495.885L248.859 473.805H240.16L253.508 508.27L251.084 513.881C250.508 515.231 249.855 516.161 249.125 516.67C248.395 517.179 247.498 517.434 246.436 517.434C245.86 517.434 245.296 517.345 244.742 517.168C244.211 517.013 243.591 516.726 242.883 516.305L239.43 521.883C240.492 522.547 241.61 523.023 242.783 523.311C243.979 523.621 245.251 523.776 246.602 523.776C249.568 523.776 252.036 523.078 254.006 521.684C255.976 520.289 257.548 518.087 258.721 515.076L274.691 473.805Z" fill="black" fill-opacity="0.8956"/>
<path d="M51.5 89.5H420" stroke="black" stroke-opacity="0.2169"/>
<path d="M51.5 136.5H420" stroke="black" stroke-opacity="0.2169"/>
<path d="M51.5 227.5H420" stroke="black" stroke-opacity="0.2169"/>
<path d="M51.5 272.5H420" stroke="black" stroke-opacity="0.2169"/>
<path d="M51.5 182.5H420" stroke="black" stroke-opacity="0.2169"/>
<path d="M51.5 318.305H420" stroke="black" stroke-opacity="0.2169"/>
<path d="M51.5 376.305H420" stroke="black" stroke-opacity="0.2169"/>
<path d="M51.5 439.305H420" stroke="black" stroke-opacity="0.2169"/>
<path d="M56.0469 257V244.396H60.1338C61.3818 244.396 62.3545 244.66 63.0518 245.188C63.749 245.709 64.0977 246.436 64.0977 247.367C64.0977 248.059 63.8984 248.665 63.5 249.187C63.1074 249.702 62.583 250.065 61.9268 250.276V250.312C62.7588 250.411 63.4209 250.73 63.9131 251.27C64.4111 251.809 64.6602 252.488 64.6602 253.309C64.6602 254.428 64.2588 255.324 63.4561 255.998C62.6592 256.666 61.6074 257 60.3008 257H56.0469ZM58.2002 246.11V249.688H59.5801C60.2773 249.688 60.8252 249.521 61.2236 249.187C61.6279 248.847 61.8301 248.375 61.8301 247.771C61.8301 247.215 61.6426 246.799 61.2676 246.523C60.8926 246.248 60.333 246.11 59.5889 246.11H58.2002ZM58.2002 251.401V255.286H59.9756C60.7373 255.286 61.3291 255.107 61.751 254.75C62.1787 254.393 62.3926 253.903 62.3926 253.282C62.3926 252.673 62.1729 252.207 61.7334 251.885C61.2998 251.562 60.6641 251.401 59.8262 251.401H58.2002ZM70.7686 257.211C69.3564 257.211 68.2373 256.792 67.4111 255.954C66.585 255.11 66.1719 253.982 66.1719 252.57C66.1777 251.076 66.6055 249.907 67.4551 249.063C68.3105 248.22 69.4707 247.795 70.9355 247.789C72.3535 247.783 73.4639 248.199 74.2666 249.037C75.0693 249.869 75.4707 250.997 75.4707 252.421C75.4707 253.886 75.0488 255.052 74.2051 255.919C73.3613 256.78 72.2158 257.211 70.7686 257.211ZM70.8652 255.55C71.668 255.55 72.2773 255.286 72.6934 254.759C73.1094 254.231 73.3174 253.47 73.3174 252.474C73.3174 251.489 73.1064 250.739 72.6846 250.224C72.2686 249.708 71.6592 249.45 70.8564 249.45C70.0654 249.45 69.4443 249.723 68.9932 250.268C68.542 250.812 68.3164 251.565 68.3164 252.526C68.3164 253.493 68.5391 254.24 68.9844 254.768C69.4355 255.289 70.0625 255.55 70.8652 255.55ZM83.627 255.611C83.2988 256.145 82.8916 256.546 82.4053 256.815C81.9189 257.079 81.3447 257.211 80.6826 257.211C79.5576 257.211 78.6523 256.812 77.9668 256.016C77.2871 255.213 76.9473 254.111 76.9473 252.711C76.9473 251.223 77.3252 250.03 78.0811 249.134C78.8369 248.237 79.8301 247.789 81.0605 247.789C81.6641 247.789 82.1768 247.903 82.5986 248.132C83.0264 248.354 83.3691 248.691 83.627 249.143H83.6621V243.676H85.7627V257H83.6621V255.611H83.627ZM79.0918 252.632C79.0918 253.546 79.2969 254.261 79.707 254.776C80.1172 255.292 80.6738 255.55 81.377 255.55C82.0625 255.55 82.6191 255.292 83.0469 254.776C83.4746 254.261 83.6885 253.596 83.6885 252.781V251.771C83.6885 251.114 83.4805 250.563 83.0645 250.118C82.6543 249.673 82.1299 249.45 81.4912 249.45C80.7412 249.45 80.1523 249.734 79.7246 250.303C79.3027 250.865 79.0918 251.642 79.0918 252.632ZM96.2656 248L92.1348 258.696C91.8125 259.517 91.3701 260.144 90.8076 260.577C90.251 261.017 89.5859 261.236 88.8125 261.236C88.584 261.236 88.3672 261.222 88.1621 261.192C87.9629 261.169 87.7695 261.134 87.582 261.087L87.9512 259.452C88.0684 259.493 88.1826 259.522 88.2939 259.54C88.4053 259.558 88.5225 259.566 88.6455 259.566C88.9736 259.566 89.252 259.481 89.4805 259.312C89.7148 259.147 89.9023 258.901 90.043 258.573L90.7197 256.982L87.1338 248H89.4717L91.5283 254.205C91.5576 254.311 91.5898 254.442 91.625 254.601C91.666 254.759 91.7041 254.94 91.7393 255.146H91.7832C91.8066 255.022 91.8359 254.885 91.8711 254.732C91.9062 254.58 91.9561 254.41 92.0205 254.223L94.1475 248H96.2656ZM109.81 257H102.787V244.396H104.94V255.181H109.81V257ZM118.326 257H116.296V255.646H116.261C115.956 256.168 115.578 256.561 115.127 256.824C114.676 257.082 114.157 257.211 113.571 257.211C112.757 257.211 112.08 256.971 111.541 256.49C111.002 256.004 110.732 255.342 110.732 254.504C110.732 253.707 111.002 253.051 111.541 252.535C112.08 252.02 112.886 251.686 113.958 251.533L116.287 251.226V251.032C116.287 250.44 116.129 250.01 115.812 249.74C115.496 249.471 115.065 249.336 114.521 249.336C114.093 249.336 113.653 249.412 113.202 249.564C112.751 249.711 112.309 249.942 111.875 250.259L110.97 249.002C111.538 248.58 112.121 248.272 112.719 248.079C113.316 247.886 113.973 247.789 114.688 247.789C115.93 247.789 116.847 248.088 117.438 248.686C118.03 249.283 118.326 250.183 118.326 251.384V257ZM116.305 253.344V252.588L114.397 252.843C113.841 252.919 113.422 253.071 113.141 253.3C112.859 253.528 112.719 253.854 112.719 254.275C112.719 254.703 112.851 255.04 113.114 255.286C113.384 255.526 113.727 255.646 114.143 255.646C114.793 255.646 115.314 255.43 115.707 254.996C116.105 254.562 116.305 254.012 116.305 253.344ZM125.876 249.767C125.765 249.737 125.656 249.717 125.551 249.705C125.451 249.688 125.331 249.679 125.19 249.679C124.458 249.679 123.896 249.942 123.503 250.47C123.116 250.997 122.923 251.691 122.923 252.553V257H120.822V248H122.923V249.731H122.958C123.169 249.11 123.479 248.642 123.89 248.325C124.3 248.003 124.786 247.842 125.349 247.842C125.501 247.842 125.639 247.851 125.762 247.868C125.891 247.886 126.014 247.912 126.131 247.947L125.876 249.767ZM135.746 256.244C135.746 257.773 135.31 258.986 134.437 259.883C133.569 260.785 132.336 261.236 130.736 261.236C130.115 261.236 129.535 261.178 128.996 261.061C128.463 260.943 127.909 260.759 127.335 260.507L127.994 259.013C128.451 259.218 128.896 259.364 129.33 259.452C129.764 259.546 130.241 259.593 130.763 259.593C131.677 259.593 132.386 259.329 132.89 258.802C133.394 258.28 133.646 257.536 133.646 256.569V255.594H133.61C133.282 256.133 132.872 256.537 132.38 256.807C131.888 257.076 131.313 257.211 130.657 257.211C129.521 257.211 128.612 256.81 127.933 256.007C127.259 255.204 126.922 254.129 126.922 252.781C126.922 251.275 127.297 250.068 128.047 249.16C128.803 248.246 129.796 247.789 131.026 247.789C131.606 247.789 132.11 247.903 132.538 248.132C132.972 248.354 133.329 248.694 133.61 249.151H133.646V248H135.746V256.244ZM133.663 252.808V251.779C133.663 251.141 133.458 250.593 133.048 250.136C132.638 249.679 132.116 249.45 131.483 249.45C130.733 249.45 130.142 249.723 129.708 250.268C129.28 250.812 129.066 251.615 129.066 252.676C129.066 253.584 129.266 254.29 129.664 254.794C130.068 255.298 130.622 255.55 131.325 255.55C132.022 255.55 132.585 255.295 133.013 254.785C133.446 254.275 133.663 253.616 133.663 252.808ZM146.038 253.054H139.921C139.956 253.892 140.199 254.527 140.65 254.961C141.102 255.389 141.729 255.603 142.531 255.603C142.865 255.603 143.246 255.535 143.674 255.4C144.107 255.26 144.529 255.04 144.939 254.741L145.889 256.042C145.326 256.452 144.755 256.751 144.175 256.938C143.595 257.12 142.956 257.211 142.259 257.211C140.858 257.211 139.766 256.81 138.98 256.007C138.201 255.198 137.809 254.07 137.803 252.623C137.803 251.182 138.207 250.016 139.016 249.125C139.824 248.234 140.861 247.789 142.127 247.789C143.334 247.789 144.286 248.17 144.983 248.932C145.687 249.688 146.038 250.76 146.038 252.148V253.054ZM144.017 251.621C144.011 250.854 143.844 250.279 143.516 249.898C143.188 249.518 142.716 249.327 142.101 249.327C141.538 249.327 141.055 249.532 140.65 249.942C140.252 250.353 140.009 250.912 139.921 251.621H144.017ZM152.094 256.095L153.034 254.442C153.608 254.8 154.142 255.049 154.634 255.189C155.126 255.33 155.671 255.4 156.269 255.4C156.995 255.4 157.558 255.245 157.956 254.935C158.354 254.624 158.554 254.185 158.554 253.616C158.554 253.089 158.39 252.676 158.062 252.377C157.733 252.072 157.156 251.794 156.33 251.542C155.023 251.167 154.071 250.689 153.474 250.109C152.876 249.529 152.577 248.771 152.577 247.833C152.577 246.784 152.967 245.914 153.746 245.223C154.531 244.531 155.598 244.186 156.945 244.186C157.537 244.186 158.117 244.25 158.686 244.379C159.254 244.508 159.816 244.707 160.373 244.977L159.564 246.69C159.084 246.444 158.621 246.269 158.176 246.163C157.736 246.052 157.294 245.996 156.849 245.996C156.187 245.996 155.668 246.14 155.293 246.427C154.918 246.714 154.73 247.118 154.73 247.64C154.73 248.108 154.9 248.478 155.24 248.747C155.586 249.011 156.184 249.271 157.033 249.529C158.334 249.91 159.277 250.408 159.863 251.023C160.449 251.639 160.742 252.438 160.742 253.423C160.742 254.53 160.347 255.438 159.556 256.147C158.771 256.856 157.643 257.211 156.172 257.211C155.451 257.211 154.742 257.12 154.045 256.938C153.348 256.751 152.697 256.47 152.094 256.095ZM167.185 256.886C166.921 256.997 166.643 257.079 166.35 257.132C166.062 257.185 165.752 257.211 165.418 257.211C164.568 257.211 163.918 256.988 163.467 256.543C163.016 256.098 162.79 255.436 162.79 254.557V249.635H161.287V248H162.79V245.812L164.891 245.188V248H167.035V249.635H164.891V254.205C164.891 254.674 164.979 255.014 165.154 255.225C165.336 255.436 165.588 255.541 165.91 255.541C166.068 255.541 166.221 255.523 166.367 255.488C166.52 255.447 166.654 255.397 166.771 255.339L167.185 256.886ZM173.847 249.767C173.735 249.737 173.627 249.717 173.521 249.705C173.422 249.688 173.302 249.679 173.161 249.679C172.429 249.679 171.866 249.942 171.474 250.47C171.087 250.997 170.894 251.691 170.894 252.553V257H168.793V248H170.894V249.731H170.929C171.14 249.11 171.45 248.642 171.86 248.325C172.271 248.003 172.757 247.842 173.319 247.842C173.472 247.842 173.609 247.851 173.732 247.868C173.861 247.886 173.984 247.912 174.102 247.947L173.847 249.767ZM179.489 257.211C178.077 257.211 176.958 256.792 176.132 255.954C175.306 255.11 174.893 253.982 174.893 252.57C174.898 251.076 175.326 249.907 176.176 249.063C177.031 248.22 178.191 247.795 179.656 247.789C181.074 247.783 182.185 248.199 182.987 249.037C183.79 249.869 184.191 250.997 184.191 252.421C184.191 253.886 183.77 255.052 182.926 255.919C182.082 256.78 180.937 257.211 179.489 257.211ZM179.586 255.55C180.389 255.55 180.998 255.286 181.414 254.759C181.83 254.231 182.038 253.47 182.038 252.474C182.038 251.489 181.827 250.739 181.405 250.224C180.989 249.708 180.38 249.45 179.577 249.45C178.786 249.45 178.165 249.723 177.714 250.268C177.263 250.812 177.037 251.565 177.037 252.526C177.037 253.493 177.26 254.24 177.705 254.768C178.156 255.289 178.783 255.55 179.586 255.55ZM194.325 257H192.225V251.929C192.225 251.103 192.075 250.484 191.776 250.074C191.478 249.658 191.026 249.45 190.423 249.45C189.825 249.45 189.33 249.679 188.938 250.136C188.545 250.593 188.349 251.17 188.349 251.867V257H186.248V248H188.349V249.459H188.384C188.724 248.902 189.137 248.486 189.623 248.211C190.109 247.93 190.672 247.789 191.311 247.789C192.301 247.789 193.051 248.103 193.561 248.729C194.07 249.356 194.325 250.279 194.325 251.498V257ZM205.039 256.244C205.039 257.773 204.603 258.986 203.729 259.883C202.862 260.785 201.629 261.236 200.029 261.236C199.408 261.236 198.828 261.178 198.289 261.061C197.756 260.943 197.202 260.759 196.628 260.507L197.287 259.013C197.744 259.218 198.189 259.364 198.623 259.452C199.057 259.546 199.534 259.593 200.056 259.593C200.97 259.593 201.679 259.329 202.183 258.802C202.687 258.28 202.938 257.536 202.938 256.569V255.594H202.903C202.575 256.133 202.165 256.537 201.673 256.807C201.181 257.076 200.606 257.211 199.95 257.211C198.813 257.211 197.905 256.81 197.226 256.007C196.552 255.204 196.215 254.129 196.215 252.781C196.215 251.275 196.59 250.068 197.34 249.16C198.096 248.246 199.089 247.789 200.319 247.789C200.899 247.789 201.403 247.903 201.831 248.132C202.265 248.354 202.622 248.694 202.903 249.151H202.938V248H205.039V256.244ZM202.956 252.808V251.779C202.956 251.141 202.751 250.593 202.341 250.136C201.931 249.679 201.409 249.45 200.776 249.45C200.026 249.45 199.435 249.723 199.001 250.268C198.573 250.812 198.359 251.615 198.359 252.676C198.359 253.584 198.559 254.29 198.957 254.794C199.361 255.298 199.915 255.55 200.618 255.55C201.315 255.55 201.878 255.295 202.306 254.785C202.739 254.275 202.956 253.616 202.956 252.808Z" fill="black" fill-opacity="0.8956"/>
</g>
<defs>
<clipPath id="clip0_2417_14100">
<rect width="480" height="582" fill="white"/>
</clipPath>
</defs>
</svg>
