<svg width="1920" height="1145" viewBox="0 0 1920 1145" version="1.1" xmlns="http://www.w3.org/2000/svg" xmlns:xlink="http://www.w3.org/1999/xlink">
<g fill="none">
<g clip-path="url(#clip0)">
<rect width="1920" height="1145" fill="#243A5E"/>
<g filter="url(#filter0_d)">
<path d="M 0 5C 0 2.23858 2.23858 0 5 0L 1701.67 0C 1704.43 0 1706.67 2.23858 1706.67 5L 1706.67 861.667C 1706.67 864.428 1704.43 866.667 1701.67 866.667L 5 866.667C 2.23858 866.667 0 864.428 0 861.667L 0 5Z" transform="translate(106.666 186.666)" fill="white"/>
</g>
<mask id="mask0" mask-type="alpha" maskUnits="userSpaceOnUse" x="106" y="186" width="1708" height="868">
<rect width="1706.67" height="866.667" transform="translate(106.666 186.666)" fill="white"/>
</mask>
<g mask="url(#mask0)">
<path fill-rule="evenodd" clip-rule="evenodd" d="M 0 0L 1726.67 0L 1726.67 866.667L 0 866.667L 0 0Z" transform="translate(106.666 186.666)" fill="white"/>
<path fill-rule="evenodd" clip-rule="evenodd" d="M 0 0L 453.333 0L 453.333 866.667L 0 866.667L 0 0Z" transform="translate(106.666 186.666)" fill="#D9D9D9"/>
</g>
<rect width="26.6667" height="26.6667" transform="translate(133.332 333.334)" fill="#B3B3B3"/>
<rect width="240" height="26.6667" transform="translate(173.332 333.334)" fill="#B3B3B3"/>
<rect width="26.6667" height="26.6667" transform="translate(133.332 386.668)" fill="#B3B3B3"/>
<rect width="240" height="26.6667" transform="translate(173.332 386.668)" fill="#B3B3B3"/>
<rect width="26.6667" height="26.6667" transform="translate(133.332 440)" fill="#B3B3B3"/>
<rect width="240" height="26.6667" transform="translate(173.332 440)" fill="#B3B3B3"/>
<rect width="26.6667" height="26.6667" transform="translate(133.332 493.334)" fill="#B3B3B3"/>
<rect width="240" height="26.6667" transform="translate(173.332 493.334)" fill="#B3B3B3"/>
<rect width="26.6667" height="26.6667" transform="translate(133.332 546.668)" fill="#B3B3B3"/>
<rect width="240" height="26.6667" transform="translate(173.332 546.668)" fill="#B3B3B3"/>
<rect width="26.6667" height="26.6667" transform="translate(133.332 600)" fill="#B3B3B3"/>
<rect width="240" height="26.6667" transform="translate(173.332 600)" fill="#B3B3B3"/>
<g opacity="0.75">
<path fill-rule="evenodd" clip-rule="evenodd" d="M 26.6667 2.24823C 26.6667 2.80051 26.219 3.24823 25.6667 3.24823L 1 3.24823C 0.447715 3.24823 0 2.80051 0 2.24823L 0 1C 0 0.447715 0.447715 0 1 0L 25.6667 0C 26.219 0 26.6667 0.447715 26.6667 1L 26.6667 2.24823Z" transform="translate(133.332 264.732)" fill="black"/>
<path fill-rule="evenodd" clip-rule="evenodd" d="M 26.6667 2.24823C 26.6667 2.80051 26.219 3.24823 25.6667 3.24823L 1 3.24823C 0.447715 3.24823 0 2.80051 0 2.24823L 0 1C 0 0.447715 0.447715 0 1 0L 25.6667 0C 26.219 0 26.6667 0.447715 26.6667 1L 26.6667 2.24823Z" transform="translate(133.332 271.227)" fill="black"/>
<path fill-rule="evenodd" clip-rule="evenodd" d="M 26.6667 2.24823C 26.6667 2.80051 26.219 3.24823 25.6667 3.24823L 1 3.24823C 0.447715 3.24823 0 2.80051 0 2.24823L 0 1C 0 0.447715 0.447715 0 1 0L 25.6667 0C 26.219 0 26.6667 0.447715 26.6667 1L 26.6667 2.24823Z" transform="translate(133.332 277.725)" fill="black"/>
</g>
<path fill-rule="evenodd" clip-rule="evenodd" d="M 0 0L 10 0L 10 40L 0 40L 0 0Z" transform="translate(106.666 488.334)" fill="#0078D4"/>
<rect width="108.333" height="13.3333" transform="translate(133.332 215)" fill="#B3B3B3"/>
<rect width="267.944" height="200" transform="translate(613.332 360)" fill="#EAEAEA"/>
<rect width="267.944" height="200" transform="translate(906.795 360)" fill="#EAEAEA"/>
<rect width="267.944" height="200" transform="translate(1200.26 360)" fill="#EAEAEA"/>
<rect width="267.944" height="200" transform="translate(1493.72 360)" fill="#EAEAEA"/>
<rect width="267.944" height="200" transform="translate(613.332 586.666)" fill="#EAEAEA"/>
<rect width="267.944" height="200" transform="translate(906.795 586.666)" fill="#EAEAEA"/>
<rect width="267.944" height="200" transform="translate(1200.26 586.666)" fill="#EAEAEA"/>
<rect width="267.944" height="200" transform="translate(1493.72 586.666)" fill="#EAEAEA"/>
<rect width="267.944" height="200" transform="translate(613.332 813.332)" fill="#EAEAEA"/>
<rect width="267.944" height="200" transform="translate(906.795 813.332)" fill="#EAEAEA"/>
<rect width="267.944" height="200" transform="translate(1200.26 813.332)" fill="#EAEAEA"/>
<rect width="267.944" height="200" transform="translate(1493.72 813.332)" fill="#EAEAEA"/>
<rect width="201.667" height="40" transform="translate(613.332 266.666)" fill="#EAEAEA"/>
<rect width="40" height="40" transform="translate(1693.33 266.666)" fill="#C8C8C8"/>
<rect width="40" height="40" transform="translate(1628.33 266.666)" fill="#C8C8C8"/>
<rect width="40" height="40" transform="translate(1561.67 266.666)" fill="#C8C8C8"/>
<g opacity="0.75">
<path fill-rule="evenodd" clip-rule="evenodd" d="M 2.5 0C 2.85157 0 3.17709 0.0651035 3.47657 0.195312C 3.77605 0.325521 4.03972 0.504556 4.26759 0.732422C 4.49545 0.960288 4.67449 1.22396 4.8047 1.52344C 4.9349 1.82292 5.00001 2.14844 5.00001 2.5C 5.00001 2.85156 4.9349 3.17708 4.8047 3.47656C 4.67449 3.77604 4.49545 4.03971 4.26759 4.26758C 4.03972 4.49544 3.77605 4.67448 3.47657 4.80469C 3.17709 4.9349 2.85157 5 2.5 5C 2.14844 5 1.82292 4.9349 1.52344 4.80469C 1.22396 4.67448 0.960289 4.49544 0.732423 4.26758C 0.504557 4.03971 0.325522 3.77604 0.195313 3.47656C 0.0651036 3.17708 0 2.85156 0 2.5C 0 2.14844 0.0651036 1.82292 0.195313 1.52344C 0.325522 1.22396 0.504557 0.960288 0.732423 0.732422C 0.960289 0.504556 1.22396 0.325521 1.52344 0.195312C 1.82292 0.0651035 2.14844 0 2.5 0Z" transform="translate(1759.33 284.166)" fill="black"/>
<path fill-rule="evenodd" clip-rule="evenodd" d="M 2.5 0C 2.85156 0 3.17708 0.0651035 3.47656 0.195312C 3.77604 0.325521 4.03971 0.504556 4.26757 0.732422C 4.49544 0.960288 4.67447 1.22396 4.80468 1.52344C 4.93489 1.82292 5 2.14844 5 2.5C 5 2.85156 4.93489 3.17708 4.80468 3.47656C 4.67447 3.77604 4.49544 4.03971 4.26757 4.26758C 4.03971 4.49544 3.77604 4.67448 3.47656 4.80469C 3.17708 4.9349 2.85156 5 2.5 5C 2.14843 5 1.82292 4.9349 1.52344 4.80469C 1.22396 4.67448 0.960287 4.49544 0.732421 4.26758C 0.504556 4.03971 0.325521 3.77604 0.195312 3.47656C 0.0651035 3.17708 0 2.85156 0 2.5C 0 2.14844 0.0651035 1.82292 0.195312 1.52344C 0.325521 1.22396 0.504556 0.960288 0.732421 0.732422C 0.960287 0.504556 1.22396 0.325521 1.52344 0.195312C 1.82292 0.0651035 2.14843 0 2.5 0Z" transform="translate(1771 284.166)" fill="black"/>
<path fill-rule="evenodd" clip-rule="evenodd" d="M 2.5 0C 2.85156 0 3.17708 0.0651035 3.47656 0.195312C 3.77604 0.325521 4.03971 0.504556 4.26757 0.732422C 4.49544 0.960288 4.67447 1.22396 4.80468 1.52344C 4.93489 1.82292 5 2.14844 5 2.5C 5 2.85156 4.93489 3.17708 4.80468 3.47656C 4.67447 3.77604 4.49544 4.03971 4.26757 4.26758C 4.03971 4.49544 3.77604 4.67448 3.47656 4.80469C 3.17708 4.9349 2.85156 5 2.5 5C 2.14843 5 1.82292 4.9349 1.52344 4.80469C 1.22396 4.67448 0.960287 4.49544 0.732421 4.26758C 0.504556 4.03971 0.325521 3.77604 0.195312 3.47656C 0.0651035 3.17708 0 2.85156 0 2.5C 0 2.14844 0.0651035 1.82292 0.195312 1.52344C 0.325521 1.22396 0.504556 0.960288 0.732421 0.732422C 0.960287 0.504556 1.22396 0.325521 1.52344 0.195312C 1.82292 0.0651035 2.14843 0 2.5 0Z" transform="translate(1782.67 284.166)" fill="black"/>
</g>
<line y1="-1.5" x2="188.333" y2="-1.5" stroke-width="3" transform="matrix(0 1 -1 0 265 136.666)" stroke="#50E6FF"/>
<line y1="-1.5" x2="270" y2="-1.5" stroke-width="3" transform="matrix(0 1 -1 0 1123.33 136.666)" stroke="#50E6FF"/>
<ellipse cx="9.16667" cy="9.16666" rx="9.16667" ry="9.16666" transform="translate(256.666 325)" fill="#50E6FF"/>
<line y1="-1.5" x2="123.333" y2="-1.5" stroke-width="3" transform="matrix(0 1 -1 0 1648.33 136.666)" stroke="#50E6FF"/>
<ellipse cx="9.16666" cy="9.16667" rx="9.16666" ry="9.16667" transform="translate(1641.67 260)" fill="#50E6FF"/>
<ellipse cx="9.16666" cy="9.16667" rx="9.16666" ry="9.16667" transform="translate(1115 400)" fill="#50E6FF"/>
<path d="M 57.2331 32L 53.4245 32L 43.3903 16.5605C 43.1364 16.1699 42.9264 15.7646 42.7604 15.3447L 42.6725 15.3447C 42.7507 15.7939 42.7897 16.7559 42.7897 18.2305L 42.7897 32L 39.4206 32L 39.4206 10.9941L 43.4782 10.9941L 53.1755 26.0674C 53.5856 26.6924 53.8493 27.1221 53.9665 27.3564L 54.0251 27.3564C 53.9274 26.7998 53.8786 25.8574 53.8786 24.5293L 53.8786 10.9941L 57.2331 10.9941L 57.2331 32ZM 73.5807 32L 70.2848 32L 70.2848 29.6562L 70.2262 29.6562C 69.1911 31.4531 67.6725 32.3516 65.6706 32.3516C 64.196 32.3516 63.0387 31.9512 62.1989 31.1504C 61.3688 30.3496 60.9538 29.29 60.9538 27.9717C 60.9538 25.1396 62.5846 23.4893 65.8464 23.0205L 70.2995 22.3906C 70.2995 20.252 69.2839 19.1826 67.2526 19.1826C 65.4655 19.1826 63.8542 19.7979 62.4186 21.0283L 62.4186 18.0547C 64.0007 17.1172 65.8268 16.6484 67.8971 16.6484C 71.6862 16.6484 73.5807 18.5137 73.5807 22.2441L 73.5807 32ZM 70.2995 24.6318L 67.1501 25.0713C 66.1735 25.1982 65.4362 25.4375 64.9382 25.7891C 64.4499 26.1309 64.2057 26.7363 64.2057 27.6055C 64.2057 28.2402 64.4303 28.7627 64.8796 29.1729C 65.3385 29.5732 65.9489 29.7734 66.7106 29.7734C 67.7458 29.7734 68.6003 29.4121 69.2741 28.6895C 69.9577 27.957 70.2995 27.0391 70.2995 25.9355L 70.2995 24.6318ZM 90.6608 17L 84.86 32L 81.1833 32L 75.6608 17L 79.3522 17L 82.6774 27.4883C 82.9313 28.2598 83.0876 28.9336 83.1462 29.5098L 83.1901 29.5098C 83.278 28.7871 83.4147 28.1328 83.6003 27.5469L 87.0866 17L 90.6608 17ZM 94.6891 13.8506C 94.1325 13.8506 93.654 13.6699 93.2536 13.3086C 92.863 12.9473 92.6676 12.4883 92.6676 11.9316C 92.6676 11.375 92.863 10.9111 93.2536 10.54C 93.654 10.1689 94.1325 9.9834 94.6891 9.9834C 95.2653 9.9834 95.7536 10.1689 96.154 10.54C 96.5544 10.9111 96.7546 11.375 96.7546 11.9316C 96.7546 12.459 96.5544 12.9131 96.154 13.2939C 95.7536 13.665 95.2653 13.8506 94.6891 13.8506ZM 96.3737 32L 92.9753 32L 92.9753 17L 96.3737 17L 96.3737 32ZM 114.479 30.7988C 114.479 36.3066 111.711 39.0605 106.174 39.0605C 104.22 39.0605 102.516 38.7334 101.061 38.0791L 101.061 34.9736C 102.702 35.9111 104.259 36.3799 105.734 36.3799C 109.299 36.3799 111.081 34.627 111.081 31.1211L 111.081 29.4805L 111.022 29.4805C 109.899 31.3945 108.21 32.3516 105.954 32.3516C 104.128 32.3516 102.653 31.6875 101.53 30.3594C 100.417 29.0215 99.86 27.2295 99.86 24.9834C 99.86 22.4346 100.461 20.4082 101.662 18.9043C 102.863 17.4004 104.513 16.6484 106.613 16.6484C 108.595 16.6484 110.065 17.459 111.022 19.0801L 111.081 19.0801L 111.081 17L 114.479 17L 114.479 30.7988ZM 111.11 25.1299L 111.11 23.1816C 111.11 22.127 110.758 21.2285 110.055 20.4863C 109.362 19.7344 108.493 19.3584 107.448 19.3584C 106.159 19.3584 105.148 19.8369 104.416 20.7939C 103.693 21.7412 103.332 23.0693 103.332 24.7783C 103.332 26.2529 103.678 27.4346 104.372 28.3232C 105.075 29.2021 106.003 29.6416 107.155 29.6416C 108.327 29.6416 109.279 29.2217 110.011 28.3818C 110.744 27.5322 111.11 26.4482 111.11 25.1299ZM 130.417 32L 127.121 32L 127.121 29.6562L 127.062 29.6562C 126.027 31.4531 124.508 32.3516 122.507 32.3516C 121.032 32.3516 119.875 31.9512 119.035 31.1504C 118.205 30.3496 117.79 29.29 117.79 27.9717C 117.79 25.1396 119.421 23.4893 122.682 23.0205L 127.135 22.3906C 127.135 20.252 126.12 19.1826 124.089 19.1826C 122.301 19.1826 120.69 19.7979 119.255 21.0283L 119.255 18.0547C 120.837 17.1172 122.663 16.6484 124.733 16.6484C 128.522 16.6484 130.417 18.5137 130.417 22.2441L 130.417 32ZM 127.135 24.6318L 123.986 25.0713C 123.009 25.1982 122.272 25.4375 121.774 25.7891C 121.286 26.1309 121.042 26.7363 121.042 27.6055C 121.042 28.2402 121.266 28.7627 121.715 29.1729C 122.174 29.5732 122.785 29.7734 123.547 29.7734C 124.582 29.7734 125.436 29.4121 126.11 28.6895C 126.794 27.957 127.135 27.0391 127.135 25.9355L 127.135 24.6318ZM 142.487 31.8389C 141.823 32.1709 140.949 32.3369 139.865 32.3369C 136.955 32.3369 135.5 30.9404 135.5 28.1475L 135.5 19.666L 132.995 19.666L 132.995 17L 135.5 17L 135.5 13.5283L 138.898 12.5615L 138.898 17L 142.487 17L 142.487 19.666L 138.898 19.666L 138.898 27.166C 138.898 28.0547 139.059 28.6895 139.382 29.0703C 139.704 29.4512 140.241 29.6416 140.993 29.6416C 141.569 29.6416 142.067 29.4756 142.487 29.1436L 142.487 31.8389ZM 147.131 13.8506C 146.574 13.8506 146.095 13.6699 145.695 13.3086C 145.304 12.9473 145.109 12.4883 145.109 11.9316C 145.109 11.375 145.304 10.9111 145.695 10.54C 146.095 10.1689 146.574 9.9834 147.131 9.9834C 147.707 9.9834 148.195 10.1689 148.595 10.54C 148.996 10.9111 149.196 11.375 149.196 11.9316C 149.196 12.459 148.996 12.9131 148.595 13.2939C 148.195 13.665 147.707 13.8506 147.131 13.8506ZM 148.815 32L 145.417 32L 145.417 17L 148.815 17L 148.815 32ZM 159.919 32.3516C 157.604 32.3516 155.754 31.6533 154.367 30.2568C 152.99 28.8506 152.301 26.9902 152.301 24.6758C 152.301 22.1562 153.019 20.1885 154.455 18.7725C 155.9 17.3564 157.843 16.6484 160.285 16.6484C 162.629 16.6484 164.455 17.3369 165.763 18.7139C 167.072 20.0908 167.726 22 167.726 24.4414C 167.726 26.834 167.018 28.7529 165.602 30.1982C 164.196 31.6338 162.301 32.3516 159.919 32.3516ZM 160.08 19.3584C 158.752 19.3584 157.702 19.8223 156.93 20.75C 156.159 21.6777 155.773 22.957 155.773 24.5879C 155.773 26.1602 156.164 27.4004 156.945 28.3086C 157.726 29.207 158.771 29.6562 160.08 29.6562C 161.418 29.6562 162.443 29.2119 163.156 28.3232C 163.879 27.4346 164.24 26.1699 164.24 24.5293C 164.24 22.8789 163.879 21.6045 163.156 20.7061C 162.443 19.8076 161.418 19.3584 160.08 19.3584ZM 184.557 32L 181.159 32L 181.159 23.5479C 181.159 20.7451 180.168 19.3438 178.185 19.3438C 177.15 19.3438 176.296 19.7344 175.622 20.5156C 174.948 21.2871 174.611 22.2637 174.611 23.4453L 174.611 32L 171.198 32L 171.198 17L 174.611 17L 174.611 19.4902L 174.67 19.4902C 175.793 17.5957 177.414 16.6484 179.533 16.6484C 181.164 16.6484 182.409 17.1807 183.268 18.2451C 184.128 19.2998 184.557 20.8281 184.557 22.8301L 184.557 32Z" transform="translate(156.666 80)" fill="#37E8FD"/>
<path d="M 74.3864 31.1211C 72.8044 31.9414 70.8366 32.3516 68.4831 32.3516C 65.4362 32.3516 62.9948 31.3896 61.1588 29.4658C 59.3229 27.542 58.4049 25.0176 58.4049 21.8926C 58.4049 18.5332 59.4352 15.8184 61.4958 13.748C 63.5661 11.6777 66.1784 10.6426 69.3327 10.6426C 71.3639 10.6426 73.0485 10.9307 74.3864 11.5068L 74.3864 14.9639C 72.9704 14.124 71.4079 13.7041 69.6989 13.7041C 67.4235 13.7041 65.5778 14.4316 64.1618 15.8867C 62.7555 17.3418 62.0524 19.2852 62.0524 21.7168C 62.0524 24.0312 62.7116 25.877 64.0299 27.2539C 65.3483 28.6211 67.0817 29.3047 69.2301 29.3047C 71.2126 29.3047 72.9313 28.8359 74.3864 27.8984L 74.3864 31.1211ZM 84.6403 32.3516C 82.3258 32.3516 80.4753 31.6533 79.0885 30.2568C 77.7116 28.8506 77.0231 26.9902 77.0231 24.6758C 77.0231 22.1562 77.7409 20.1885 79.1764 18.7725C 80.6217 17.3564 82.5651 16.6484 85.0065 16.6484C 87.3503 16.6484 89.1764 17.3369 90.485 18.7139C 91.7936 20.0908 92.4479 22 92.4479 24.4414C 92.4479 26.834 91.7399 28.7529 90.3239 30.1982C 88.9176 31.6338 87.0231 32.3516 84.6403 32.3516ZM 84.8014 19.3584C 83.4733 19.3584 82.4235 19.8223 81.652 20.75C 80.8805 21.6777 80.4948 22.957 80.4948 24.5879C 80.4948 26.1602 80.8854 27.4004 81.6667 28.3086C 82.4479 29.207 83.4928 29.6562 84.8014 29.6562C 86.1393 29.6562 87.1647 29.2119 87.8776 28.3232C 88.6003 27.4346 88.9616 26.1699 88.9616 24.5293C 88.9616 22.8789 88.6003 21.6045 87.8776 20.7061C 87.1647 19.8076 86.1393 19.3584 84.8014 19.3584ZM 109.279 32L 105.881 32L 105.881 23.5479C 105.881 20.7451 104.889 19.3438 102.907 19.3438C 101.872 19.3438 101.017 19.7344 100.343 20.5156C 99.6696 21.2871 99.3327 22.2637 99.3327 23.4453L 99.3327 32L 95.9196 32L 95.9196 17L 99.3327 17L 99.3327 19.4902L 99.3913 19.4902C 100.514 17.5957 102.135 16.6484 104.255 16.6484C 105.885 16.6484 107.131 17.1807 107.99 18.2451C 108.849 19.2998 109.279 20.8281 109.279 22.8301L 109.279 32ZM 121.349 31.8389C 120.685 32.1709 119.811 32.3369 118.727 32.3369C 115.817 32.3369 114.362 30.9404 114.362 28.1475L 114.362 19.666L 111.857 19.666L 111.857 17L 114.362 17L 114.362 13.5283L 117.76 12.5615L 117.76 17L 121.349 17L 121.349 19.666L 117.76 19.666L 117.76 27.166C 117.76 28.0547 117.922 28.6895 118.244 29.0703C 118.566 29.4512 119.103 29.6416 119.855 29.6416C 120.431 29.6416 120.929 29.4756 121.349 29.1436L 121.349 31.8389ZM 136.803 25.4229L 126.579 25.4229C 126.618 26.8096 127.043 27.8789 127.853 28.6309C 128.673 29.3828 129.797 29.7588 131.222 29.7588C 132.824 29.7588 134.294 29.2803 135.632 28.3232L 135.632 31.0625C 134.264 31.9219 132.458 32.3516 130.212 32.3516C 128.005 32.3516 126.271 31.6729 125.011 30.3154C 123.761 28.9482 123.136 27.0293 123.136 24.5586C 123.136 22.2246 123.825 20.3252 125.202 18.8604C 126.589 17.3857 128.307 16.6484 130.358 16.6484C 132.409 16.6484 133.996 17.3076 135.119 18.626C 136.242 19.9443 136.803 21.7754 136.803 24.1191L 136.803 25.4229ZM 133.522 23.0205C 133.512 21.7998 133.224 20.8525 132.658 20.1787C 132.091 19.4951 131.31 19.1533 130.314 19.1533C 129.338 19.1533 128.507 19.5098 127.824 20.2227C 127.15 20.9355 126.735 21.8682 126.579 23.0205L 133.522 23.0205ZM 153.4 32L 150.002 32L 150.002 23.5479C 150.002 20.7451 149.01 19.3438 147.028 19.3438C 145.993 19.3438 145.138 19.7344 144.465 20.5156C 143.791 21.2871 143.454 22.2637 143.454 23.4453L 143.454 32L 140.041 32L 140.041 17L 143.454 17L 143.454 19.4902L 143.512 19.4902C 144.635 17.5957 146.257 16.6484 148.376 16.6484C 150.007 16.6484 151.252 17.1807 152.111 18.2451C 152.97 19.2998 153.4 20.8281 153.4 22.8301L 153.4 32ZM 165.47 31.8389C 164.806 32.1709 163.932 32.3369 162.848 32.3369C 159.938 32.3369 158.483 30.9404 158.483 28.1475L 158.483 19.666L 155.978 19.666L 155.978 17L 158.483 17L 158.483 13.5283L 161.882 12.5615L 161.882 17L 165.47 17L 165.47 19.666L 161.882 19.666L 161.882 27.166C 161.882 28.0547 162.043 28.6895 162.365 29.0703C 162.687 29.4512 163.224 29.6416 163.976 29.6416C 164.552 29.6416 165.05 29.4756 165.47 29.1436L 165.47 31.8389Z" transform="translate(1013.33 83.334)" fill="#37E8FD"/>
<path d="M 58.4196 31.1211C 56.8376 31.9414 54.8698 32.3516 52.5163 32.3516C 49.4694 32.3516 47.028 31.3896 45.1921 29.4658C 43.3561 27.542 42.4382 25.0176 42.4382 21.8926C 42.4382 18.5332 43.4684 15.8184 45.529 13.748C 47.5993 11.6777 50.2116 10.6426 53.3659 10.6426C 55.3971 10.6426 57.0817 10.9307 58.4196 11.5068L 58.4196 14.9639C 57.0036 14.124 55.4411 13.7041 53.7321 13.7041C 51.4567 13.7041 49.611 14.4316 48.195 15.8867C 46.7887 17.3418 46.0856 19.2852 46.0856 21.7168C 46.0856 24.0312 46.7448 25.877 48.0632 27.2539C 49.3815 28.6211 51.1149 29.3047 53.2634 29.3047C 55.2458 29.3047 56.9645 28.8359 58.4196 27.8984L 58.4196 31.1211ZM 68.6735 32.3516C 66.3591 32.3516 64.5085 31.6533 63.1218 30.2568C 61.7448 28.8506 61.0563 26.9902 61.0563 24.6758C 61.0563 22.1562 61.7741 20.1885 63.2096 18.7725C 64.655 17.3564 66.5983 16.6484 69.0397 16.6484C 71.3835 16.6484 73.2096 17.3369 74.5182 18.7139C 75.8268 20.0908 76.4811 22 76.4811 24.4414C 76.4811 26.834 75.7731 28.7529 74.3571 30.1982C 72.9509 31.6338 71.0563 32.3516 68.6735 32.3516ZM 68.8346 19.3584C 67.5065 19.3584 66.4567 19.8223 65.6852 20.75C 64.9137 21.6777 64.528 22.957 64.528 24.5879C 64.528 26.1602 64.9186 27.4004 65.6999 28.3086C 66.4811 29.207 67.5261 29.6562 68.8346 29.6562C 70.1725 29.6562 71.1979 29.2119 71.9108 28.3232C 72.6335 27.4346 72.9948 26.1699 72.9948 24.5293C 72.9948 22.8789 72.6335 21.6045 71.9108 20.7061C 71.1979 19.8076 70.1725 19.3584 68.8346 19.3584ZM 102.38 32L 98.9811 32L 98.9811 23.8262C 98.9811 22.2539 98.7565 21.1162 98.3073 20.4131C 97.8679 19.71 97.1208 19.3584 96.0661 19.3584C 95.1774 19.3584 94.4206 19.8027 93.7956 20.6914C 93.1804 21.5801 92.8727 22.6445 92.8727 23.8848L 92.8727 32L 89.4596 32L 89.4596 23.5479C 89.4596 20.7549 88.4733 19.3584 86.5007 19.3584C 85.5827 19.3584 84.8259 19.7783 84.2302 20.6182C 83.6442 21.458 83.3512 22.5469 83.3512 23.8848L 83.3512 32L 79.9528 32L 79.9528 17L 83.3512 17L 83.3512 19.373L 83.4098 19.373C 84.4938 17.5566 86.071 16.6484 88.1413 16.6484C 89.1764 16.6484 90.0798 16.9365 90.8512 17.5127C 91.6325 18.0791 92.1647 18.8262 92.4479 19.7539C 93.5612 17.6836 95.2214 16.6484 97.4284 16.6484C 100.729 16.6484 102.38 18.6846 102.38 22.7568L 102.38 32ZM 128.952 32L 125.553 32L 125.553 23.8262C 125.553 22.2539 125.329 21.1162 124.88 20.4131C 124.44 19.71 123.693 19.3584 122.638 19.3584C 121.75 19.3584 120.993 19.8027 120.368 20.6914C 119.753 21.5801 119.445 22.6445 119.445 23.8848L 119.445 32L 116.032 32L 116.032 23.5479C 116.032 20.7549 115.046 19.3584 113.073 19.3584C 112.155 19.3584 111.398 19.7783 110.802 20.6182C 110.216 21.458 109.924 22.5469 109.924 23.8848L 109.924 32L 106.525 32L 106.525 17L 109.924 17L 109.924 19.373L 109.982 19.373C 111.066 17.5566 112.643 16.6484 114.714 16.6484C 115.749 16.6484 116.652 16.9365 117.424 17.5127C 118.205 18.0791 118.737 18.8262 119.02 19.7539C 120.133 17.6836 121.794 16.6484 124.001 16.6484C 127.301 16.6484 128.952 18.6846 128.952 22.7568L 128.952 32ZM 144.611 32L 141.315 32L 141.315 29.6562L 141.257 29.6562C 140.221 31.4531 138.703 32.3516 136.701 32.3516C 135.226 32.3516 134.069 31.9512 133.229 31.1504C 132.399 30.3496 131.984 29.29 131.984 27.9717C 131.984 25.1396 133.615 23.4893 136.877 23.0205L 141.33 22.3906C 141.33 20.252 140.314 19.1826 138.283 19.1826C 136.496 19.1826 134.884 19.7979 133.449 21.0283L 133.449 18.0547C 135.031 17.1172 136.857 16.6484 138.927 16.6484C 142.716 16.6484 144.611 18.5137 144.611 22.2441L 144.611 32ZM 141.33 24.6318L 138.18 25.0713C 137.204 25.1982 136.466 25.4375 135.968 25.7891C 135.48 26.1309 135.236 26.7363 135.236 27.6055C 135.236 28.2402 135.461 28.7627 135.91 29.1729C 136.369 29.5732 136.979 29.7734 137.741 29.7734C 138.776 29.7734 139.631 29.4121 140.304 28.6895C 140.988 27.957 141.33 27.0391 141.33 25.9355L 141.33 24.6318ZM 162.131 32L 158.732 32L 158.732 23.5479C 158.732 20.7451 157.741 19.3438 155.758 19.3438C 154.723 19.3438 153.869 19.7344 153.195 20.5156C 152.521 21.2871 152.184 22.2637 152.184 23.4453L 152.184 32L 148.771 32L 148.771 17L 152.184 17L 152.184 19.4902L 152.243 19.4902C 153.366 17.5957 154.987 16.6484 157.106 16.6484C 158.737 16.6484 159.982 17.1807 160.841 18.2451C 161.701 19.2998 162.131 20.8281 162.131 22.8301L 162.131 32ZM 179.928 32L 176.53 32L 176.53 29.4512L 176.471 29.4512C 175.378 31.3848 173.693 32.3516 171.418 32.3516C 169.572 32.3516 168.092 31.6826 166.979 30.3447C 165.876 28.9971 165.324 27.166 165.324 24.8516C 165.324 22.3711 165.934 20.3838 167.155 18.8896C 168.385 17.3955 170.021 16.6484 172.062 16.6484C 174.084 16.6484 175.553 17.459 176.471 19.0801L 176.53 19.0801L 176.53 9.79297L 179.928 9.79297L 179.928 32ZM 176.574 25.1445L 176.574 23.1816C 176.574 22.1172 176.227 21.2139 175.534 20.4717C 174.841 19.7295 173.957 19.3584 172.883 19.3584C 171.613 19.3584 170.612 19.832 169.88 20.7793C 169.157 21.7266 168.796 23.04 168.796 24.7197C 168.796 26.2432 169.142 27.4492 169.836 28.3379C 170.539 29.2168 171.481 29.6562 172.663 29.6562C 173.825 29.6562 174.767 29.2314 175.49 28.3818C 176.213 27.5225 176.574 26.4434 176.574 25.1445Z" transform="translate(1536.67 80)" fill="#37E8FD"/>
<path fill-rule="evenodd" clip-rule="evenodd" d="M 20 3.33333L 0 3.33333L 0 0L 20 0L 20 3.33333Z" transform="translate(1670 211.666)" fill="black"/>
<rect x="1.5" y="1.5" width="17" height="17" stroke-width="3" transform="translate(1723.33 203.334)" stroke="black"/>
<path fill-rule="evenodd" clip-rule="evenodd" d="M 12.9629 10.6055L 21.2129 2.35547L 18.8555 0L 10.6055 8.25L 2.35547 0L 0 2.35742L 8.25 10.6074L 0 18.8555L 2.35742 21.2129L 10.6055 12.9629L 18.8555 21.2129L 21.2129 18.8555L 12.9629 10.6055Z" transform="translate(1776.06 202.729)" fill="black"/>
</g>
</g>
<defs>
<filter id="filter0_d" x="86.666" y="166.666" width="1746.67" height="906.667" filterUnits="userSpaceOnUse" color-interpolation-filters="sRGB">
<feFlood flood-opacity="0" result="BackgroundImageFix"/>
<feColorMatrix in="SourceAlpha" type="matrix" values="0 0 0 0 0 0 0 0 0 0 0 0 0 0 0 0 0 0 255 0"/>
<feOffset/>
<feGaussianBlur stdDeviation="10"/>
<feColorMatrix type="matrix" values="0 0 0 0 0.095 0 0 0 0 0.153793 0 0 0 0 0.25 0 0 0 1 0"/>
<feBlend mode="normal" in2="BackgroundImageFix" result="effect1_dropShadow"/>
<feBlend mode="normal" in="SourceGraphic" in2="effect1_dropShadow" result="shape"/>
</filter>

<clipPath id="clip0">
<rect width="1920" height="1145" fill="white"/>
</clipPath>

</defs>
</svg>

