<svg width="614" height="355" viewBox="0 0 614 355" version="1.1" xmlns="http://www.w3.org/2000/svg" xmlns:xlink="http://www.w3.org/1999/xlink">
<g id="Canvas" fill="none">
<g id="hierarchical-structure" clip-path="url(#clip0)">
<rect width="614" height="355" fill="white"/>
<g id="Vector">
<path d="M 0 36L 0 0L 167 0L 167 36" stroke-width="5" transform="translate(223 179)" stroke="#243A5E"/>
</g>
<g id="Vector 2.1">
<path d="M 0 0L 0 40" stroke-width="5" transform="translate(307 140)" stroke="#243A5E"/>
</g>
<g id="Group">
<g id="Rectangle">
<rect width="104" height="104" transform="translate(275 215) scale(-1 1)" fill="#50E6FF"/>
</g>
<g id="Rectangle_2">
<rect width="104" height="104" transform="translate(442 215) scale(-1 1)" fill="#50E6FF"/>
</g>
<g id="Rectangle_3">
<rect width="104" height="104" transform="translate(359.927 36) scale(-1 1)" fill="#50E6FF"/>
</g>
</g>
<g id="A">
<path d="M 25.3926 39L 19.2051 39L 17.4121 33.3926L 8.44727 33.3926L 6.67188 39L 0.519531 39L 9.69531 13.793L 16.4277 13.793L 25.3926 39ZM 16.1113 29.0332L 13.4043 20.5605C 13.2051 19.9277 13.0645 19.1719 12.9824 18.293L 12.8418 18.293C 12.7832 19.0312 12.6367 19.7637 12.4023 20.4902L 9.66016 29.0332L 16.1113 29.0332Z" transform="translate(294 61)" fill="white"/>
</g>
<g id="A1">
<path d="M 25.5391 39L 19.3516 39L 17.5586 33.3926L 8.59375 33.3926L 6.81836 39L 0.666016 39L 9.8418 13.793L 16.5742 13.793L 25.5391 39ZM 16.2578 29.0332L 13.5508 20.5605C 13.3516 19.9277 13.2109 19.1719 13.1289 18.293L 12.9883 18.293C 12.9297 19.0312 12.7832 19.7637 12.5488 20.4902L 9.80664 29.0332L 16.2578 29.0332ZM 40.4277 13.2305L 40.4277 39L 34.8906 39L 34.8906 19.4883C 34.5859 19.7578 34.2227 20.0156 33.8008 20.2617C 33.3906 20.4961 32.9512 20.7129 32.4824 20.9121C 32.0137 21.0996 31.5273 21.2637 31.0234 21.4043C 30.5195 21.5332 30.0215 21.627 29.5293 21.6855L 29.5293 17.0098C 30.9707 16.5879 32.3301 16.0488 33.6074 15.3926C 34.8848 14.7363 36.0391 14.0156 37.0703 13.2305L 40.4277 13.2305Z" transform="translate(198 239)" fill="white"/>
</g>
<g id="A2">
<path d="M 25.5391 39L 19.3516 39L 17.5586 33.3926L 8.59375 33.3926L 6.81836 39L 0.666016 39L 9.8418 13.793L 16.5742 13.793L 25.5391 39ZM 16.2578 29.0332L 13.5508 20.5605C 13.3516 19.9277 13.2109 19.1719 13.1289 18.293L 12.9883 18.293C 12.9297 19.0312 12.7832 19.7637 12.5488 20.4902L 9.80664 29.0332L 16.2578 29.0332ZM 33.3438 34.3945L 44.0312 34.3945L 44.0312 39L 27.2617 39L 27.2617 37.1016C 27.2617 35.8125 27.4785 34.6582 27.9121 33.6387C 28.3457 32.6074 28.8906 31.6875 29.5469 30.8789C 30.2031 30.0586 30.918 29.3379 31.6914 28.7168C 32.4766 28.084 33.2207 27.5156 33.9238 27.0117C 34.6621 26.4844 35.3066 25.9805 35.8574 25.5C 36.4199 25.0195 36.8887 24.5449 37.2637 24.0762C 37.6504 23.5957 37.9375 23.1152 38.125 22.6348C 38.3125 22.1426 38.4062 21.6211 38.4062 21.0703C 38.4062 19.9922 38.1016 19.1777 37.4922 18.627C 36.8828 18.0762 35.9512 17.8008 34.6973 17.8008C 32.5293 17.8008 30.4551 18.6621 28.4746 20.3848L 28.4746 15.498C 30.666 14.0801 33.1387 13.3711 35.8926 13.3711C 37.1699 13.3711 38.3125 13.541 39.3203 13.8809C 40.3398 14.209 41.2012 14.6836 41.9043 15.3047C 42.6074 15.9258 43.1406 16.6816 43.5039 17.5723C 43.8789 18.4512 44.0664 19.4355 44.0664 20.5254C 44.0664 21.6855 43.8848 22.7168 43.5215 23.6191C 43.1699 24.5215 42.6953 25.3418 42.0977 26.0801C 41.5117 26.8184 40.832 27.498 40.0586 28.1191C 39.2852 28.7285 38.4824 29.3203 37.6504 29.8945C 37.0879 30.293 36.543 30.6914 36.0156 31.0898C 35.5 31.4766 35.043 31.8633 34.6445 32.25C 34.2461 32.625 33.9297 32.9941 33.6953 33.3574C 33.4609 33.7207 33.3438 34.0664 33.3438 34.3945Z" transform="translate(366 239)" fill="white"/>
</g>
</g>
</g>
<defs>

<clipPath id="clip0">
<rect width="614" height="355" fill="white"/>
</clipPath>

</defs>
</svg>

