<svg width="612" height="400" viewBox="0 0 612 400" version="1.1" xmlns="http://www.w3.org/2000/svg" xmlns:xlink="http://www.w3.org/1999/xlink">
<g id="Canvas" fill="none">
<g id="thumbnail-navview" clip-path="url(#clip0)">
<rect width="612" height="400" fill="#243A5E"/>
<g id="Rectangle">
<rect width="482" height="281" transform="translate(67 59)" fill="white"/>
</g>
<g id="Rectangle 2" filter="url(#filter0_d)">
<rect width="190" height="282" transform="translate(66 58)" fill="#50E6FF"/>
</g>
<g id="Rectangle 3">
<rect width="122" height="16" transform="translate(112 120)" fill="white"/>
</g>
<g id="Rectangle 3.1">
<rect width="16" height="16" transform="translate(86 120)" fill="white"/>
</g>
<g id="Rectangle 3.2">
<rect width="122" height="16" transform="translate(112 156)" fill="white"/>
</g>
<g id="Rectangle 3.3">
<rect width="16" height="16" transform="translate(86 156)" fill="white"/>
</g>
<g id="Rectangle 3.4">
<rect width="122" height="16" transform="translate(112 192)" fill="white"/>
</g>
<g id="Rectangle 3.5">
<rect width="16" height="16" transform="translate(86 192)" fill="white"/>
</g>
<g id="Rectangle 3.6">
<rect width="122" height="16" transform="translate(112 228)" fill="white"/>
</g>
<g id="Rectangle 3.7">
<rect width="16" height="16" transform="translate(86 228)" fill="white"/>
</g>
<g id="Rectangle 3.8">
<rect width="122" height="16" transform="translate(112 264)" fill="white"/>
</g>
<g id="Rectangle 3.9">
<rect width="16" height="16" transform="translate(86 264)" fill="white"/>
</g>
<g id="Rectangle 4">
<rect width="20" height="3" transform="translate(86 75)" fill="white"/>
</g>
<g id="Rectangle 4.1">
<rect width="20" height="3" transform="translate(86 81)" fill="white"/>
</g>
<g id="Rectangle 4.2">
<rect width="20" height="3" transform="translate(86 87)" fill="white"/>
</g>
</g>
</g>
<defs>
<filter id="filter0_d" x="51" y="47" width="220" height="312" filterUnits="userSpaceOnUse" color-interpolation-filters="sRGB">
<feFlood flood-opacity="0" result="BackgroundImageFix"/>
<feColorMatrix in="SourceAlpha" type="matrix" values="0 0 0 0 0 0 0 0 0 0 0 0 0 0 0 0 0 0 255 0"/>
<feOffset dy="4"/>
<feGaussianBlur stdDeviation="7.5"/>
<feColorMatrix type="matrix" values="0 0 0 0 0 0 0 0 0 0 0 0 0 0 0 0 0 0 0.25 0"/>
<feBlend mode="normal" in2="BackgroundImageFix" result="effect1_dropShadow"/>
<feBlend mode="normal" in="SourceGraphic" in2="effect1_dropShadow" result="shape"/>
</filter>

<clipPath id="clip0">
<rect width="612" height="400" fill="white"/>
</clipPath>

</defs>
</svg>

