<svg width="937" height="508" viewBox="0 0 937 508" version="1.1" xmlns="http://www.w3.org/2000/svg" xmlns:xlink="http://www.w3.org/1999/xlink">
<g id="Canvas" fill="none">
<g id="icons-concept" clip-path="url(#clip0)">
<rect width="937" height="508" fill="#EAEAEA"/>
<g id="&#238;&#160;&#149;">
<path d="M 96.875 46.5C 98.4896 46.5 100.003 46.8027 101.416 47.4082C 102.829 48.0137 104.06 48.8411 105.109 49.8906C 106.159 50.9401 106.986 52.1712 107.592 53.584C 108.197 54.9967 108.5 56.5104 108.5 58.125L 108.5 93.3633C 108.5 98.4089 107.471 102.849 105.412 106.684C 103.394 110.478 100.689 113.667 97.2988 116.25C 93.9486 118.793 90.1139 120.73 85.7949 122.062C 81.4759 123.354 77.0358 124 72.4746 124C 69.8913 124 67.5905 123.939 65.5723 123.818C 63.5944 123.657 61.6973 123.354 59.8809 122.91C 58.0645 122.466 56.2279 121.82 54.3711 120.973C 52.5547 120.125 50.5365 118.995 48.3164 117.582C 47.8724 117.299 47.1458 116.694 46.1367 115.766C 45.1276 114.837 43.9167 113.707 42.5039 112.375C 41.0911 111.003 39.5371 109.489 37.8418 107.834C 36.1868 106.179 34.4915 104.464 32.7559 102.688C 31.0202 100.911 29.2845 99.1556 27.5488 97.4199C 25.8535 95.6842 24.2793 94.0697 22.8262 92.5762C 21.373 91.0423 20.1016 89.6901 19.0117 88.5195C 17.9219 87.349 17.1146 86.4811 16.5898 85.916C 15.0964 84.2207 14.3496 82.263 14.3496 80.043C 14.3496 78.6706 14.612 77.3789 15.1367 76.168C 15.6615 74.9167 16.3678 73.8268 17.2559 72.8984C 18.1842 71.9297 19.2539 71.1628 20.4648 70.5977C 21.7161 70.0326 23.028 69.75 24.4004 69.75C 26.903 69.75 29.3451 70.1536 31.7266 70.9609C 34.1081 71.7279 36.4492 72.5755 38.75 73.5039L 38.75 51.707C 36.4089 50.5768 34.2897 49.1641 32.3926 47.4688C 30.4954 45.7331 28.8607 43.8158 27.4883 41.7168C 26.1562 39.5775 25.127 37.2767 24.4004 34.8145C 23.6738 32.3522 23.3105 29.8092 23.3105 27.1855C 23.3105 23.4316 24.0169 19.9199 25.4297 16.6504C 26.8828 13.3405 28.8203 10.4746 31.2422 8.05273C 33.7044 5.59049 36.5703 3.65299 39.8398 2.24023C 43.1497 0.787109 46.6816 0.0605469 50.4355 0.0605469C 54.1895 0.0605469 57.7012 0.787109 60.9707 2.24023C 64.2806 3.65299 67.1667 5.59049 69.6289 8.05273C 72.0911 10.4746 74.0286 13.3405 75.4414 16.6504C 76.8945 19.9199 77.6211 23.4316 77.6211 27.1855C 77.6211 29.7285 77.2578 32.2311 76.5312 34.6934C 75.8451 37.1152 74.8359 39.416 73.5039 41.5957L 73.625 41.7168C 74.6745 40.7884 75.8652 40.0618 77.1973 39.5371C 78.5697 39.0124 79.9622 38.75 81.375 38.75C 82.6667 38.75 83.918 38.972 85.1289 39.416C 86.3398 39.8197 87.4297 40.4049 88.3984 41.1719C 89.4076 41.9388 90.2754 42.847 91.002 43.8965C 91.7285 44.946 92.2533 46.0964 92.5762 47.3477C 93.9486 46.7826 95.3815 46.5 96.875 46.5ZM 31.1211 27.1855C 31.1211 30.2129 31.7871 33.099 33.1191 35.8438C 34.4512 38.5482 36.3281 40.8086 38.75 42.625C 38.75 41.0911 38.6895 39.3555 38.5684 37.418C 38.4876 35.4805 38.4674 33.5026 38.5078 31.4844C 38.5482 29.4661 38.7298 27.5085 39.0527 25.6113C 39.3757 23.6738 39.9609 21.9583 40.8086 20.4648C 41.6966 18.9714 42.8874 17.7806 44.3809 16.8926C 45.9147 15.9642 47.9128 15.5 50.375 15.5C 52.6354 15.5 54.4922 15.8835 55.9453 16.6504C 57.4388 17.4173 58.6094 18.4264 59.457 19.6777C 60.3451 20.929 60.9707 22.3822 61.334 24.0371C 61.6973 25.6921 61.9193 27.4076 62 29.1836C 62.1211 30.9596 62.1413 32.7357 62.0605 34.5117C 62.0202 36.2878 62 37.9225 62 39.416C 63.332 38.972 64.6641 38.75 65.9961 38.75C 67.2474 37.0547 68.196 35.2383 68.8418 33.3008C 69.4876 31.3229 69.8105 29.2845 69.8105 27.1855C 69.8105 24.5215 69.2858 22.0189 68.2363 19.6777C 67.2272 17.3366 65.8346 15.2982 64.0586 13.5625C 62.3229 11.7865 60.2845 10.3939 57.9434 9.38477C 55.6022 8.37565 53.0996 7.87109 50.4355 7.87109C 47.7715 7.87109 45.2689 8.37565 42.9277 9.38477C 40.5866 10.3939 38.528 11.7865 36.752 13.5625C 35.0163 15.2982 33.6439 17.3366 32.6348 19.6777C 31.6257 22.0189 31.1211 24.5215 31.1211 27.1855ZM 100.75 58.125C 100.75 57.0755 100.367 56.1673 99.5996 55.4004C 98.8327 54.6335 97.9245 54.25 96.875 54.25C 95.8659 54.25 95.0586 54.5527 94.4531 55.1582C 93.8477 55.7637 93.4036 56.5508 93.1211 57.5195C 92.8385 58.4479 92.6771 59.4974 92.6367 60.668C 92.5964 61.8385 92.5964 63.0091 92.6367 64.1797C 92.6771 65.3099 92.7376 66.3796 92.8184 67.3887C 92.9395 68.3978 93 69.1849 93 69.75L 85.25 69.75L 85.25 50.375C 85.25 49.3255 84.8665 48.4173 84.0996 47.6504C 83.3327 46.8835 82.4245 46.5 81.375 46.5C 80.3255 46.5 79.4173 46.8835 78.6504 47.6504C 77.8835 48.4173 77.5 49.3255 77.5 50.375L 77.5 69.75L 69.75 69.75L 69.75 50.375C 69.75 50.1732 69.7298 50.0117 69.6895 49.8906C 69.6895 49.7292 69.6693 49.5475 69.6289 49.3457C 69.6289 49.3053 69.6087 49.2246 69.5684 49.1035C 69.528 48.9824 69.4876 48.9421 69.4473 48.9824C 69.1647 48.2559 68.7005 47.6706 68.0547 47.2266C 67.4089 46.7422 66.6823 46.5 65.875 46.5C 64.8255 46.5 63.9173 46.8835 63.1504 47.6504C 62.3835 48.4173 62 49.3255 62 50.375L 62 69.75L 54.25 69.75L 54.25 27.125C 54.25 26.0755 53.8665 25.1673 53.0996 24.4004C 52.3327 23.6335 51.4245 23.25 50.375 23.25C 49.3255 23.25 48.4173 23.6335 47.6504 24.4004C 46.8835 25.1673 46.5 26.0755 46.5 27.125L 46.5 85.4316C 45.3698 84.9069 43.8359 84.2005 41.8984 83.3125C 40.0013 82.4245 38.0033 81.5566 35.9043 80.709C 33.8053 79.821 31.7669 79.0742 29.7891 78.4688C 27.8112 77.8229 26.1966 77.5 24.9453 77.5C 23.0885 77.5 22.1602 78.4284 22.1602 80.2852L 22.1602 80.5879C 24.7031 83.252 27.2663 85.8555 29.8496 88.3984C 32.4329 90.9414 35.0163 93.5046 37.5996 96.0879C 39.6986 98.1868 41.5553 100.145 43.1699 101.961C 44.7845 103.777 46.3184 105.432 47.7715 106.926C 49.265 108.419 50.7585 109.751 52.252 110.922C 53.7858 112.092 55.4811 113.081 57.3379 113.889C 59.235 114.656 61.3945 115.241 63.8164 115.645C 66.2786 116.048 69.1647 116.25 72.4746 116.25C 75.9056 116.25 79.3164 115.786 82.707 114.857C 86.0977 113.929 89.125 112.536 91.7891 110.68C 94.4531 108.783 96.6126 106.401 98.2676 103.535C 99.9225 100.669 100.75 97.2786 100.75 93.3633L 100.75 58.125Z" transform="translate(407 139)" fill="black"/>
</g>
<g id="Touch">
<path d="M 22.7793 19.7007L 14.9907 19.7007L 14.9907 42L 8.8208 42L 8.8208 19.7007L 1.07031 19.7007L 1.07031 14.6924L 22.7793 14.6924L 22.7793 19.7007ZM 31.6533 42.4761C 28.4033 42.4761 25.8452 41.5684 23.979 39.7529C 22.1255 37.9248 21.1987 35.4492 21.1987 32.3262C 21.1987 29.1016 22.1636 26.5815 24.0933 24.7661C 26.0229 22.938 28.6318 22.0239 31.9199 22.0239C 35.1572 22.0239 37.6963 22.938 39.5371 24.7661C 41.3779 26.5815 42.2983 28.9873 42.2983 31.9834C 42.2983 35.2207 41.3462 37.7788 39.4419 39.6577C 37.5503 41.5366 34.9541 42.4761 31.6533 42.4761ZM 31.8057 26.6323C 30.3838 26.6323 29.2793 27.1211 28.4922 28.0986C 27.7051 29.0762 27.3115 30.46 27.3115 32.25C 27.3115 35.9951 28.8223 37.8677 31.8438 37.8677C 34.7256 37.8677 36.1665 35.9443 36.1665 32.0977C 36.1665 28.4541 34.7129 26.6323 31.8057 26.6323ZM 64.731 42L 58.7324 42L 58.7324 39.0293L 58.6372 39.0293C 57.1519 41.3271 55.165 42.4761 52.6768 42.4761C 48.1572 42.4761 45.8975 39.7402 45.8975 34.2686L 45.8975 22.5L 51.896 22.5L 51.896 33.7354C 51.896 36.4902 52.9878 37.8677 55.1714 37.8677C 56.2505 37.8677 57.1138 37.4932 57.7612 36.7441C 58.4087 35.9824 58.7324 34.9541 58.7324 33.6592L 58.7324 22.5L 64.731 22.5L 64.731 42ZM 84.5928 41.2954C 83.2344 42.0825 81.2729 42.4761 78.7085 42.4761C 75.7124 42.4761 73.2876 41.5684 71.4341 39.7529C 69.5806 37.9375 68.6538 35.5952 68.6538 32.7261C 68.6538 29.4126 69.644 26.8037 71.6245 24.8994C 73.6177 22.9824 76.2773 22.0239 79.6035 22.0239C 81.9014 22.0239 83.5645 22.3286 84.5928 22.938L 84.5928 28.0415C 83.3359 27.1021 81.9331 26.6323 80.3843 26.6323C 78.6577 26.6323 77.2866 27.1401 76.271 28.1558C 75.2681 29.1587 74.7666 30.5488 74.7666 32.3262C 74.7666 34.0527 75.249 35.4111 76.2139 36.4014C 77.1787 37.3789 78.5054 37.8677 80.1938 37.8677C 81.6919 37.8677 83.1582 37.3979 84.5928 36.4585L 84.5928 41.2954ZM 107.273 42L 101.274 42L 101.274 30.917C 101.274 28.0605 100.233 26.6323 98.1514 26.6323C 97.085 26.6323 96.2217 27.0322 95.5615 27.832C 94.9014 28.6318 94.5713 29.6475 94.5713 30.8789L 94.5713 42L 88.5537 42L 88.5537 13.1309L 94.5713 13.1309L 94.5713 25.3945L 94.6475 25.3945C 96.1201 23.1475 98.1196 22.0239 100.646 22.0239C 105.064 22.0239 107.273 24.6899 107.273 30.022L 107.273 42Z" transform="translate(414 316)" fill="black"/>
</g>
<g id="&#238;&#158;&#190;">
<path d="M 95.7852 64.4824C 97.4401 67.3887 98.6712 70.4362 99.4785 73.625C 100.326 76.7734 100.75 80.0026 100.75 83.3125L 100.75 89.5488L 62 108.984L 23.25 89.5488C 23.25 87.127 23.2702 84.8665 23.3105 82.7676C 23.3913 80.6686 23.5729 78.6302 23.8555 76.6523C 24.1784 74.6341 24.6628 72.6562 25.3086 70.7188C 25.9948 68.7409 26.9635 66.6621 28.2148 64.4824L 15.5 58.125L 15.5 93.666C 16.6706 94.0697 17.7201 94.6348 18.6484 95.3613C 19.6172 96.0879 20.4447 96.9355 21.1309 97.9043C 21.8171 98.873 22.3418 99.9427 22.7051 101.113C 23.0684 102.243 23.25 103.414 23.25 104.625L 23.25 124L 0 124L 0 104.625C 0 103.414 0.181641 102.243 0.544922 101.113C 0.908203 99.9427 1.43294 98.873 2.11914 97.9043C 2.80534 96.9355 3.61263 96.0879 4.54102 95.3613C 5.50977 94.6348 6.57943 94.0697 7.75 93.666L 7.75 54.25L 0 50.375L 62 19.375L 124 50.375L 95.7852 64.4824ZM 15.5 104.625C 15.5 103.576 15.1165 102.667 14.3496 101.9C 13.5827 101.133 12.6745 100.75 11.625 100.75C 10.5755 100.75 9.66732 101.133 8.90039 101.9C 8.13346 102.667 7.75 103.576 7.75 104.625L 7.75 116.25L 15.5 116.25L 15.5 104.625ZM 17.3164 50.375L 62 72.7168L 106.684 50.375L 62 28.0332L 17.3164 50.375ZM 93 84.7656C 93 81.6576 92.6973 78.7715 92.0918 76.1074C 91.4863 73.403 90.4167 70.6784 88.8828 67.9336L 62 81.375L 35.1172 67.9336C 33.7852 70.2747 32.7559 72.7572 32.0293 75.3809C 31.3431 77.9642 31 80.6081 31 83.3125L 31 84.7656L 62 100.266L 93 84.7656Z" transform="translate(143 139)" fill="black"/>
</g>
<g id="Education">
<path d="M 19.5127 42L 3.13574 42L 3.13574 14.6924L 18.8843 14.6924L 18.8843 19.7007L 9.28662 19.7007L 9.28662 25.7754L 18.2178 25.7754L 18.2178 30.7646L 9.28662 30.7646L 9.28662 37.0107L 19.5127 37.0107L 19.5127 42ZM 42.3833 42L 36.3657 42L 36.3657 39.3149L 36.2896 39.3149C 34.9185 41.4224 32.9062 42.4761 30.2529 42.4761C 27.8154 42.4761 25.854 41.6191 24.3687 39.9053C 22.8833 38.1787 22.1406 35.7729 22.1406 32.688C 22.1406 29.4634 22.9595 26.8799 24.5972 24.9375C 26.2349 22.9951 28.3804 22.0239 31.0337 22.0239C 33.5474 22.0239 35.2993 22.9253 36.2896 24.728L 36.3657 24.728L 36.3657 13.1309L 42.3833 13.1309L 42.3833 42ZM 36.48 32.5166L 36.48 31.0503C 36.48 29.7808 36.1118 28.7271 35.3755 27.8892C 34.6392 27.0513 33.6807 26.6323 32.5 26.6323C 31.167 26.6323 30.126 27.1592 29.377 28.2129C 28.6279 29.2539 28.2534 30.6885 28.2534 32.5166C 28.2534 34.2305 28.6152 35.5508 29.3389 36.4775C 30.0625 37.4043 31.0654 37.8677 32.3477 37.8677C 33.5664 37.8677 34.5566 37.3789 35.3184 36.4014C 36.0928 35.4238 36.48 34.1289 36.48 32.5166ZM 65.9775 42L 59.979 42L 59.979 39.0293L 59.8838 39.0293C 58.3984 41.3271 56.4116 42.4761 53.9233 42.4761C 49.4038 42.4761 47.144 39.7402 47.144 34.2686L 47.144 22.5L 53.1426 22.5L 53.1426 33.7354C 53.1426 36.4902 54.2344 37.8677 56.418 37.8677C 57.4971 37.8677 58.3604 37.4932 59.0078 36.7441C 59.6553 35.9824 59.979 34.9541 59.979 33.6592L 59.979 22.5L 65.9775 22.5L 65.9775 42ZM 85.8394 41.2954C 84.481 42.0825 82.5195 42.4761 79.9551 42.4761C 76.959 42.4761 74.5342 41.5684 72.6807 39.7529C 70.8271 37.9375 69.9004 35.5952 69.9004 32.7261C 69.9004 29.4126 70.8906 26.8037 72.8711 24.8994C 74.8643 22.9824 77.5239 22.0239 80.8501 22.0239C 83.1479 22.0239 84.811 22.3286 85.8394 22.938L 85.8394 28.0415C 84.5825 27.1021 83.1797 26.6323 81.6309 26.6323C 79.9043 26.6323 78.5332 27.1401 77.5176 28.1558C 76.5146 29.1587 76.0132 30.5488 76.0132 32.3262C 76.0132 34.0527 76.4956 35.4111 77.4604 36.4014C 78.4253 37.3789 79.752 37.8677 81.4404 37.8677C 82.9385 37.8677 84.4048 37.3979 85.8394 36.4585L 85.8394 41.2954ZM 106.025 42L 100.331 42L 100.331 39.2007L 100.255 39.2007C 98.9473 41.3843 97.0112 42.4761 94.4468 42.4761C 92.5552 42.4761 91.0635 41.9429 89.9717 40.8765C 88.8926 39.7974 88.353 38.3628 88.353 36.5728C 88.353 32.7896 90.5938 30.606 95.0752 30.022L 100.369 29.3174C 100.369 27.1846 99.2139 26.1182 96.9033 26.1182C 94.5801 26.1182 92.3711 26.8101 90.2764 28.1938L 90.2764 23.6616C 91.1143 23.23 92.2568 22.8491 93.7041 22.519C 95.1641 22.189 96.4907 22.0239 97.6841 22.0239C 103.245 22.0239 106.025 24.7979 106.025 30.3457L 106.025 42ZM 100.369 34.0781L 100.369 32.7642L 96.8271 33.2212C 94.8721 33.4751 93.8945 34.3574 93.8945 35.8682C 93.8945 36.5537 94.1294 37.1187 94.5991 37.563C 95.0815 37.9946 95.729 38.2104 96.5415 38.2104C 97.6714 38.2104 98.5918 37.8232 99.3027 37.0488C 100.014 36.2617 100.369 35.2715 100.369 34.0781ZM 122.573 41.7715C 121.685 42.2412 120.345 42.4761 118.555 42.4761C 114.315 42.4761 112.195 40.2734 112.195 35.8682L 112.195 26.937L 109.034 26.937L 109.034 22.5L 112.195 22.5L 112.195 18.2915L 118.193 16.5776L 118.193 22.5L 122.573 22.5L 122.573 26.937L 118.193 26.937L 118.193 34.8208C 118.193 36.8521 119 37.8677 120.612 37.8677C 121.247 37.8677 121.9 37.6836 122.573 37.3154L 122.573 41.7715ZM 129.029 19.415C 128.013 19.415 127.182 19.1167 126.534 18.52C 125.887 17.9106 125.563 17.168 125.563 16.292C 125.563 15.3906 125.887 14.6543 126.534 14.083C 127.182 13.5117 128.013 13.2261 129.029 13.2261C 130.057 13.2261 130.889 13.5117 131.523 14.083C 132.171 14.6543 132.495 15.3906 132.495 16.292C 132.495 17.2061 132.171 17.9551 131.523 18.5391C 130.889 19.123 130.057 19.415 129.029 19.415ZM 132 42L 125.982 42L 125.982 22.5L 132 22.5L 132 42ZM 146.358 42.4761C 143.108 42.4761 140.55 41.5684 138.684 39.7529C 136.83 37.9248 135.903 35.4492 135.903 32.3262C 135.903 29.1016 136.868 26.5815 138.798 24.7661C 140.728 22.938 143.336 22.0239 146.625 22.0239C 149.862 22.0239 152.401 22.938 154.242 24.7661C 156.083 26.5815 157.003 28.9873 157.003 31.9834C 157.003 35.2207 156.051 37.7788 154.146 39.6577C 152.255 41.5366 149.659 42.4761 146.358 42.4761ZM 146.51 26.6323C 145.088 26.6323 143.984 27.1211 143.197 28.0986C 142.41 29.0762 142.016 30.46 142.016 32.25C 142.016 35.9951 143.527 37.8677 146.548 37.8677C 149.43 37.8677 150.871 35.9443 150.871 32.0977C 150.871 28.4541 149.417 26.6323 146.51 26.6323ZM 179.74 42L 173.742 42L 173.742 31.1646C 173.742 28.1431 172.663 26.6323 170.504 26.6323C 169.463 26.6323 168.606 27.0322 167.934 27.832C 167.261 28.6318 166.924 29.6475 166.924 30.8789L 166.924 42L 160.907 42L 160.907 22.5L 166.924 22.5L 166.924 25.585L 167 25.585C 168.435 23.2109 170.523 22.0239 173.266 22.0239C 177.582 22.0239 179.74 24.7026 179.74 30.0601L 179.74 42Z" transform="translate(114 316)" fill="black"/>
</g>
<g id="&#238;&#158;&#135;">
<path d="M 46.5 54.25L 46.5 46.5L 54.25 46.5L 54.25 54.25L 46.5 54.25ZM 69.75 100.75L 69.75 93L 77.5 93L 77.5 100.75L 69.75 100.75ZM 93 54.25L 93 46.5L 100.75 46.5L 100.75 54.25L 93 54.25ZM 69.75 54.25L 69.75 46.5L 77.5 46.5L 77.5 54.25L 69.75 54.25ZM 46.5 69.75L 46.5 62L 54.25 62L 54.25 69.75L 46.5 69.75ZM 23.25 69.75L 23.25 62L 31 62L 31 69.75L 23.25 69.75ZM 93 69.75L 93 62L 100.75 62L 100.75 69.75L 93 69.75ZM 69.75 69.75L 69.75 62L 77.5 62L 77.5 69.75L 69.75 69.75ZM 46.5 85.25L 46.5 77.5L 54.25 77.5L 54.25 85.25L 46.5 85.25ZM 23.25 85.25L 23.25 77.5L 31 77.5L 31 85.25L 23.25 85.25ZM 93 85.25L 93 77.5L 100.75 77.5L 100.75 85.25L 93 85.25ZM 69.75 85.25L 69.75 77.5L 77.5 77.5L 77.5 85.25L 69.75 85.25ZM 46.5 100.75L 46.5 93L 54.25 93L 54.25 100.75L 46.5 100.75ZM 23.25 100.75L 23.25 93L 31 93L 31 100.75L 23.25 100.75ZM 100.75 7.75L 124 7.75L 124 116.25L 0 116.25L 0 7.75L 23.25 7.75L 23.25 0L 31 0L 31 7.75L 93 7.75L 93 0L 100.75 0L 100.75 7.75ZM 23.25 15.5L 7.75 15.5L 7.75 31L 116.25 31L 116.25 15.5L 100.75 15.5L 100.75 23.25L 93 23.25L 93 15.5L 31 15.5L 31 23.25L 23.25 23.25L 23.25 15.5ZM 7.75 108.5L 116.25 108.5L 116.25 38.75L 7.75 38.75L 7.75 108.5Z" transform="translate(671 139)" fill="black"/>
</g>
<g id="Calendar">
<path d="M 22.8047 41.0288C 20.8115 41.9937 18.209 42.4761 14.9971 42.4761C 10.8076 42.4761 7.51318 41.2446 5.11377 38.7817C 2.71436 36.3188 1.51465 33.0371 1.51465 28.9365C 1.51465 24.5693 2.86035 21.0273 5.55176 18.3105C 8.25586 15.5937 11.7598 14.2354 16.0635 14.2354C 18.7295 14.2354 20.9766 14.5718 22.8047 15.2446L 22.8047 21.167C 20.9766 20.0752 18.8945 19.5293 16.5586 19.5293C 13.9941 19.5293 11.9248 20.3354 10.3506 21.9478C 8.77637 23.5601 7.98926 25.7437 7.98926 28.4985C 7.98926 31.1392 8.73193 33.2466 10.2173 34.8208C 11.7026 36.3823 13.7021 37.1631 16.2158 37.1631C 18.6152 37.1631 20.8115 36.5791 22.8047 35.4111L 22.8047 41.0288ZM 43.1997 42L 37.5059 42L 37.5059 39.2007L 37.4297 39.2007C 36.1221 41.3843 34.186 42.4761 31.6216 42.4761C 29.73 42.4761 28.2383 41.9429 27.1465 40.8765C 26.0674 39.7974 25.5278 38.3628 25.5278 36.5728C 25.5278 32.7896 27.7686 30.606 32.25 30.022L 37.5439 29.3174C 37.5439 27.1846 36.3887 26.1182 34.0781 26.1182C 31.7549 26.1182 29.5459 26.8101 27.4512 28.1938L 27.4512 23.6616C 28.2891 23.23 29.4316 22.8491 30.8789 22.519C 32.3389 22.189 33.6655 22.0239 34.8589 22.0239C 40.4194 22.0239 43.1997 24.7979 43.1997 30.3457L 43.1997 42ZM 37.5439 34.0781L 37.5439 32.7642L 34.002 33.2212C 32.0469 33.4751 31.0693 34.3574 31.0693 35.8682C 31.0693 36.5537 31.3042 37.1187 31.7739 37.563C 32.2563 37.9946 32.9038 38.2104 33.7163 38.2104C 34.8462 38.2104 35.7666 37.8232 36.4775 37.0488C 37.1885 36.2617 37.5439 35.2715 37.5439 34.0781ZM 53.978 42L 47.9604 42L 47.9604 13.1309L 53.978 13.1309L 53.978 42ZM 76.563 33.9639L 63.8423 33.9639C 64.0454 36.7949 65.8291 38.2104 69.1934 38.2104C 71.3389 38.2104 73.2241 37.7026 74.8491 36.687L 74.8491 41.0288C 73.0464 41.9937 70.7041 42.4761 67.8223 42.4761C 64.6738 42.4761 62.23 41.6064 60.4907 39.8672C 58.7515 38.1152 57.8818 35.6777 57.8818 32.5547C 57.8818 29.3174 58.8213 26.7529 60.7002 24.8613C 62.5791 22.9697 64.8896 22.0239 67.6318 22.0239C 70.4756 22.0239 72.6719 22.8682 74.2207 24.5566C 75.7822 26.2451 76.563 28.5366 76.563 31.4312L 76.563 33.9639ZM 70.9834 30.2695C 70.9834 27.4766 69.8535 26.0801 67.5938 26.0801C 66.6289 26.0801 65.791 26.48 65.0801 27.2798C 64.3818 28.0796 63.9565 29.0762 63.8042 30.2695L 70.9834 30.2695ZM 98.9766 42L 92.978 42L 92.978 31.1646C 92.978 28.1431 91.8989 26.6323 89.7407 26.6323C 88.6997 26.6323 87.8428 27.0322 87.1699 27.832C 86.4971 28.6318 86.1606 29.6475 86.1606 30.8789L 86.1606 42L 80.1431 42L 80.1431 22.5L 86.1606 22.5L 86.1606 25.585L 86.2368 25.585C 87.6714 23.2109 89.7598 22.0239 92.502 22.0239C 96.8184 22.0239 98.9766 24.7026 98.9766 30.0601L 98.9766 42ZM 122.837 42L 116.82 42L 116.82 39.3149L 116.744 39.3149C 115.373 41.4224 113.36 42.4761 110.707 42.4761C 108.27 42.4761 106.308 41.6191 104.823 39.9053C 103.337 38.1787 102.595 35.7729 102.595 32.688C 102.595 29.4634 103.414 26.8799 105.051 24.9375C 106.689 22.9951 108.834 22.0239 111.488 22.0239C 114.001 22.0239 115.753 22.9253 116.744 24.728L 116.82 24.728L 116.82 13.1309L 122.837 13.1309L 122.837 42ZM 116.934 32.5166L 116.934 31.0503C 116.934 29.7808 116.566 28.7271 115.83 27.8892C 115.093 27.0513 114.135 26.6323 112.954 26.6323C 111.621 26.6323 110.58 27.1592 109.831 28.2129C 109.082 29.2539 108.708 30.6885 108.708 32.5166C 108.708 34.2305 109.069 35.5508 109.793 36.4775C 110.517 37.4043 111.52 37.8677 112.802 37.8677C 114.021 37.8677 115.011 37.3789 115.772 36.4014C 116.547 35.4238 116.934 34.1289 116.934 32.5166ZM 144.127 42L 138.434 42L 138.434 39.2007L 138.357 39.2007C 137.05 41.3843 135.114 42.4761 132.549 42.4761C 130.658 42.4761 129.166 41.9429 128.074 40.8765C 126.995 39.7974 126.456 38.3628 126.456 36.5728C 126.456 32.7896 128.696 30.606 133.178 30.022L 138.472 29.3174C 138.472 27.1846 137.316 26.1182 135.006 26.1182C 132.683 26.1182 130.474 26.8101 128.379 28.1938L 128.379 23.6616C 129.217 23.23 130.359 22.8491 131.807 22.519C 133.267 22.189 134.593 22.0239 135.787 22.0239C 141.347 22.0239 144.127 24.7979 144.127 30.3457L 144.127 42ZM 138.472 34.0781L 138.472 32.7642L 134.93 33.2212C 132.975 33.4751 131.997 34.3574 131.997 35.8682C 131.997 36.5537 132.232 37.1187 132.702 37.563C 133.184 37.9946 133.832 38.2104 134.644 38.2104C 135.774 38.2104 136.694 37.8232 137.405 37.0488C 138.116 36.2617 138.472 35.2715 138.472 34.0781ZM 161.609 27.9272C 160.885 27.5337 160.041 27.3369 159.076 27.3369C 157.769 27.3369 156.747 27.8193 156.01 28.7842C 155.274 29.7363 154.906 31.0376 154.906 32.688L 154.906 42L 148.888 42L 148.888 22.5L 154.906 22.5L 154.906 26.1182L 154.982 26.1182C 155.934 23.4775 157.648 22.1572 160.124 22.1572C 160.758 22.1572 161.253 22.2334 161.609 22.3857L 161.609 27.9272Z" transform="translate(652 316)" fill="black"/>
</g>
</g>
</g>
<defs>

<clipPath id="clip0">
<rect width="937" height="508" fill="white"/>
</clipPath>

</defs>
</svg>

