<svg width="937" height="508" viewBox="0 0 937 508" version="1.1" xmlns="http://www.w3.org/2000/svg" xmlns:xlink="http://www.w3.org/1999/xlink">
<g id="Canvas" fill="none">
<g id="icon-shopping-cart" clip-path="url(#clip0)">
<rect width="937" height="508" fill="#EAEAEA"/>
<g id="&#238;&#158;&#191;">
<path d="M 239.625 195C 243.01 195 246.184 195.635 249.146 196.904C 252.109 198.174 254.69 199.909 256.891 202.109C 259.091 204.31 260.826 206.891 262.096 209.854C 263.365 212.816 264 215.99 264 219.375C 264 222.76 263.365 225.934 262.096 228.896C 260.826 231.859 259.091 234.44 256.891 236.641C 254.69 238.841 252.109 240.576 249.146 241.846C 246.184 243.115 243.01 243.75 239.625 243.75C 236.24 243.75 233.066 243.115 230.104 241.846C 227.141 240.576 224.56 238.841 222.359 236.641C 220.159 234.44 218.424 231.859 217.154 228.896C 215.885 225.934 215.25 222.76 215.25 219.375C 215.25 216.751 215.715 214.043 216.646 211.25L 148.854 211.25C 149.785 214.043 150.25 216.751 150.25 219.375C 150.25 222.76 149.615 225.934 148.346 228.896C 147.076 231.859 145.341 234.44 143.141 236.641C 140.94 238.841 138.359 240.576 135.396 241.846C 132.434 243.115 129.26 243.75 125.875 243.75C 122.49 243.75 119.316 243.115 116.354 241.846C 113.391 240.576 110.81 238.841 108.609 236.641C 106.409 234.44 104.674 231.859 103.404 228.896C 102.135 225.934 101.5 222.76 101.5 219.375C 101.5 214.72 102.727 210.404 105.182 206.426C 107.721 202.448 111.106 199.443 115.338 197.412L 60.4941 32.5L 36.5 32.5L 36.5 16.25L 72.1738 16.25L 82.9648 48.75L 296.5 48.75L 258.668 162.5L 120.924 162.5L 131.715 195L 239.625 195ZM 88.4238 65L 115.465 146.25L 246.861 146.25L 273.902 65L 88.4238 65ZM 134 219.375C 134 217.174 133.196 215.27 131.588 213.662C 129.98 212.054 128.076 211.25 125.875 211.25C 123.674 211.25 121.77 212.054 120.162 213.662C 118.554 215.27 117.75 217.174 117.75 219.375C 117.75 221.576 118.554 223.48 120.162 225.088C 121.77 226.696 123.674 227.5 125.875 227.5C 128.076 227.5 129.98 226.696 131.588 225.088C 133.196 223.48 134 221.576 134 219.375ZM 239.625 227.5C 241.826 227.5 243.73 226.696 245.338 225.088C 246.946 223.48 247.75 221.576 247.75 219.375C 247.75 217.174 246.946 215.27 245.338 213.662C 243.73 212.054 241.826 211.25 239.625 211.25C 237.424 211.25 235.52 212.054 233.912 213.662C 232.304 215.27 231.5 217.174 231.5 219.375C 231.5 221.576 232.304 223.48 233.912 225.088C 235.52 226.696 237.424 227.5 239.625 227.5Z" transform="translate(302 129)" fill="black"/>
</g>
</g>
</g>
<defs>

<clipPath id="clip0">
<rect width="937" height="508" fill="white"/>
</clipPath>

</defs>
</svg>

