<svg width="1152" height="712" viewBox="0 0 1152 712" version="1.1" xmlns="http://www.w3.org/2000/svg" xmlns:xlink="http://www.w3.org/1999/xlink">
<title>segoe-sample</title>
<desc>Created using Figma</desc>
<g id="Canvas" transform="translate(17449 4002)">
<clipPath id="clip-0" clip-rule="evenodd">
<path d="M -17449 -4002L -16297 -4002L -16297 -3290L -17449 -3290L -17449 -4002Z" fill="#FFFFFF"/>
</clipPath>
<g id="segoe-sample" clip-path="url(#clip-0)">
<path d="M -17449 -4002L -16297 -4002L -16297 -3290L -17449 -3290L -17449 -4002Z" fill="#EBEBEB"/>
<g id="Group 34">
<g id="Group 27">
<g id="Group 20">
<g id="Group 16">
<g id="Rectangle 21">
<use xlink:href="#path0_fill" transform="translate(-17449 -4002)" fill="#EBEBEB"/>
</g>
<g id="Segoe UI, Regular">
<use xlink:href="#path1_fill" transform="translate(-17374.9 -3357.91)" fill="#666666"/>
<use xlink:href="#path2_fill" transform="translate(-17374.9 -3357.91)" fill="#666666"/>
<use xlink:href="#path3_fill" transform="translate(-17374.9 -3357.91)" fill="#666666"/>
<use xlink:href="#path4_fill" transform="translate(-17374.9 -3357.91)" fill="#666666"/>
<use xlink:href="#path5_fill" transform="translate(-17374.9 -3357.91)" fill="#666666"/>
<use xlink:href="#path6_fill" transform="translate(-17374.9 -3357.91)" fill="#666666"/>
<use xlink:href="#path7_fill" transform="translate(-17374.9 -3357.91)" fill="#666666"/>
<use xlink:href="#path8_fill" transform="translate(-17374.9 -3357.91)" fill="#666666"/>
<use xlink:href="#path9_fill" transform="translate(-17374.9 -3357.91)" fill="#666666"/>
<use xlink:href="#path10_fill" transform="translate(-17374.9 -3357.91)" fill="#666666"/>
<use xlink:href="#path11_fill" transform="translate(-17374.9 -3357.91)" fill="#666666"/>
<use xlink:href="#path12_fill" transform="translate(-17374.9 -3357.91)" fill="#666666"/>
<use xlink:href="#path13_fill" transform="translate(-17374.9 -3357.91)" fill="#666666"/>
<use xlink:href="#path14_fill" transform="translate(-17374.9 -3357.91)" fill="#666666"/>
<use xlink:href="#path15_fill" transform="translate(-17374.9 -3357.91)" fill="#666666"/>
</g>
<g id="ABCDEFGHIJKLMNOPQ RS">
<use xlink:href="#path16_fill" transform="translate(-17391.1 -3926.33)"/>
<use xlink:href="#path17_fill" transform="translate(-17391.1 -3926.33)"/>
<use xlink:href="#path18_fill" transform="translate(-17391.1 -3926.33)"/>
<use xlink:href="#path19_fill" transform="translate(-17391.1 -3926.33)"/>
<use xlink:href="#path20_fill" transform="translate(-17391.1 -3926.33)"/>
<use xlink:href="#path21_fill" transform="translate(-17391.1 -3926.33)"/>
<use xlink:href="#path22_fill" transform="translate(-17391.1 -3926.33)"/>
<use xlink:href="#path23_fill" transform="translate(-17391.1 -3926.33)"/>
<use xlink:href="#path24_fill" transform="translate(-17391.1 -3926.33)"/>
<use xlink:href="#path25_fill" transform="translate(-17391.1 -3926.33)"/>
<use xlink:href="#path26_fill" transform="translate(-17391.1 -3926.33)"/>
<use xlink:href="#path27_fill" transform="translate(-17391.1 -3926.33)"/>
<use xlink:href="#path28_fill" transform="translate(-17391.1 -3926.33)"/>
<use xlink:href="#path29_fill" transform="translate(-17391.1 -3926.33)"/>
<use xlink:href="#path30_fill" transform="translate(-17391.1 -3926.33)"/>
<use xlink:href="#path31_fill" transform="translate(-17391.1 -3926.33)"/>
<use xlink:href="#path32_fill" transform="translate(-17391.1 -3926.33)"/>
<use xlink:href="#path33_fill" transform="translate(-17391.1 -3926.33)"/>
<use xlink:href="#path34_fill" transform="translate(-17391.1 -3926.33)"/>
<use xlink:href="#path35_fill" transform="translate(-17391.1 -3926.33)"/>
<use xlink:href="#path36_fill" transform="translate(-17391.1 -3926.33)"/>
<use xlink:href="#path37_fill" transform="translate(-17391.1 -3926.33)"/>
<use xlink:href="#path38_fill" transform="translate(-17391.1 -3926.33)"/>
<use xlink:href="#path39_fill" transform="translate(-17391.1 -3926.33)"/>
<use xlink:href="#path40_fill" transform="translate(-17391.1 -3926.33)"/>
<use xlink:href="#path41_fill" transform="translate(-17391.1 -3926.33)"/>
<use xlink:href="#path42_fill" transform="translate(-17391.1 -3926.33)"/>
<use xlink:href="#path43_fill" transform="translate(-17391.1 -3926.33)"/>
<use xlink:href="#path44_fill" transform="translate(-17391.1 -3926.33)"/>
<use xlink:href="#path45_fill" transform="translate(-17391.1 -3926.33)"/>
<use xlink:href="#path46_fill" transform="translate(-17391.1 -3926.33)"/>
<use xlink:href="#path47_fill" transform="translate(-17391.1 -3926.33)"/>
<use xlink:href="#path48_fill" transform="translate(-17391.1 -3926.33)"/>
<use xlink:href="#path49_fill" transform="translate(-17391.1 -3926.33)"/>
<use xlink:href="#path50_fill" transform="translate(-17391.1 -3926.33)"/>
<use xlink:href="#path51_fill" transform="translate(-17391.1 -3926.33)"/>
<use xlink:href="#path52_fill" transform="translate(-17391.1 -3926.33)"/>
<use xlink:href="#path53_fill" transform="translate(-17391.1 -3926.33)"/>
<use xlink:href="#path54_fill" transform="translate(-17391.1 -3926.33)"/>
<use xlink:href="#path55_fill" transform="translate(-17391.1 -3926.33)"/>
<use xlink:href="#path56_fill" transform="translate(-17391.1 -3926.33)"/>
<use xlink:href="#path57_fill" transform="translate(-17391.1 -3926.33)"/>
<use xlink:href="#path58_fill" transform="translate(-17391.1 -3926.33)"/>
<use xlink:href="#path59_fill" transform="translate(-17391.1 -3926.33)"/>
<use xlink:href="#path60_fill" transform="translate(-17391.1 -3926.33)"/>
<use xlink:href="#path61_fill" transform="translate(-17391.1 -3926.33)"/>
<use xlink:href="#path62_fill" transform="translate(-17391.1 -3926.33)"/>
<use xlink:href="#path63_fill" transform="translate(-17391.1 -3926.33)"/>
<use xlink:href="#path64_fill" transform="translate(-17391.1 -3926.33)"/>
<use xlink:href="#path65_fill" transform="translate(-17391.1 -3926.33)"/>
<use xlink:href="#path66_fill" transform="translate(-17391.1 -3926.33)"/>
<use xlink:href="#path67_fill" transform="translate(-17391.1 -3926.33)"/>
<use xlink:href="#path68_fill" transform="translate(-17391.1 -3926.33)"/>
<use xlink:href="#path69_fill" transform="translate(-17391.1 -3926.33)"/>
<use xlink:href="#path70_fill" transform="translate(-17391.1 -3926.33)"/>
<use xlink:href="#path71_fill" transform="translate(-17391.1 -3926.33)"/>
<use xlink:href="#path72_fill" transform="translate(-17391.1 -3926.33)"/>
<use xlink:href="#path73_fill" transform="translate(-17391.1 -3926.33)"/>
<use xlink:href="#path74_fill" transform="translate(-17391.1 -3926.33)"/>
<use xlink:href="#path75_fill" transform="translate(-17391.1 -3926.33)"/>
<use xlink:href="#path76_fill" transform="translate(-17391.1 -3926.33)"/>
<use xlink:href="#path77_fill" transform="translate(-17391.1 -3926.33)"/>
<use xlink:href="#path78_fill" transform="translate(-17391.1 -3926.33)"/>
</g>
</g>
</g>
</g>
</g>
</g>
</g>
<defs>
<path id="path0_fill" d="M 0 0L 1152 0L 1152 712L 0 712L 0 0Z"/>
<path id="path1_fill" d="M 0.00730519 10.6561L 0.00730519 8.8667C 0.168019 9.01277 0.357955 9.14424 0.57711 9.2611C 0.801136 9.37795 1.03734 9.47777 1.28571 9.56055C 1.53409 9.63845 1.78247 9.69932 2.03084 9.74314C 2.27922 9.78696 2.50812 9.80887 2.71753 9.80887C 3.44805 9.80887 3.99107 9.68714 4.34659 9.44369C 4.70698 9.20023 4.88718 8.84722 4.88718 8.38465C 4.88718 8.13632 4.8263 7.92208 4.70455 7.74192C 4.58766 7.5569 4.42208 7.38891 4.20779 7.23797C 3.99351 7.08703 3.74026 6.94339 3.44805 6.80705C 3.16071 6.66585 2.85146 6.51977 2.52029 6.36883C 2.16477 6.17893 1.8336 5.9866 1.52679 5.79184C 1.21997 5.59707 0.95211 5.38283 0.723214 5.14911C 0.499188 4.91052 0.321429 4.64272 0.189935 4.3457C 0.0633117 4.04869 0 3.70054 0 3.30127C 0 2.80949 0.109578 2.38344 0.328734 2.02313C 0.55276 1.65794 0.844968 1.35849 1.20536 1.12477C 1.57062 0.886183 1.98458 0.710894 2.44724 0.598904C 2.9099 0.482044 3.38231 0.423615 3.86445 0.423615C 4.96023 0.423615 5.75893 0.547778 6.26055 0.796104L 6.26055 2.51247C 5.6664 2.08399 4.90179 1.86975 3.96672 1.86975C 3.7086 1.86975 3.45049 1.89409 3.19237 1.94278C 2.93912 1.99148 2.71023 2.07182 2.50568 2.18381C 2.30601 2.2958 2.14286 2.43944 2.01623 2.61473C 1.88961 2.79001 1.8263 3.00182 1.8263 3.25015C 1.8263 3.48387 1.875 3.68594 1.9724 3.85636C 2.06981 4.02677 2.21104 4.18259 2.3961 4.32379C 2.58604 4.465 2.81494 4.60377 3.08279 4.7401C 3.35552 4.87157 3.66964 5.01521 4.02516 5.17102C 4.39042 5.36092 4.73377 5.56055 5.05519 5.76993C 5.38149 5.9793 5.6664 6.21058 5.9099 6.46378C 6.15828 6.71697 6.35308 6.99938 6.49432 7.31101C 6.64042 7.61776 6.71347 7.96834 6.71347 8.36274C 6.71347 8.89348 6.60633 9.34144 6.39205 9.70662C 6.17776 10.0718 5.88799 10.3688 5.52273 10.5977C 5.16234 10.8265 4.74594 10.9921 4.27354 11.0943C 3.80114 11.1966 3.30195 11.2477 2.77597 11.2477C 2.60065 11.2477 2.38393 11.2331 2.12581 11.2039C 1.87256 11.1795 1.61201 11.1406 1.34416 11.087C 1.0763 11.0383 0.823052 10.9775 0.584416 10.9044C 0.345779 10.8314 0.153409 10.7486 0.00730519 10.6561Z"/>
<path id="path2_fill" d="M 14.7857 7.79305L 9.68669 7.79305C 9.70617 8.48447 9.91802 9.01764 10.3222 9.39256C 10.7313 9.76749 11.2914 9.95495 12.0024 9.95495C 12.8011 9.95495 13.5341 9.71636 14.2013 9.23918L 14.2013 10.605C 13.5195 11.0335 12.6185 11.2477 11.4984 11.2477C 10.3977 11.2477 9.53328 10.9093 8.90503 10.2325C 8.28166 9.55081 7.96997 8.59402 7.96997 7.36213C 7.96997 6.19841 8.31331 5.25136 9 4.52099C 9.69156 3.78575 10.5487 3.41813 11.5714 3.41813C 12.5942 3.41813 13.3856 3.7468 13.9456 4.40413C 14.5057 5.06147 14.7857 5.97443 14.7857 7.14302L 14.7857 7.79305ZM 13.1494 6.59524C 13.1445 5.9866 13.0008 5.5143 12.7183 5.17833C 12.4359 4.83749 12.0463 4.66707 11.5495 4.66707C 11.0625 4.66707 10.6485 4.84479 10.3076 5.20024C 9.97159 5.55568 9.76461 6.02069 9.68669 6.59524L 13.1494 6.59524Z"/>
<path id="path3_fill" d="M 23.2086 10.4735C 23.2086 13.2197 21.8279 14.5928 19.0666 14.5928C 18.0925 14.5928 17.2427 14.4297 16.517 14.1035L 16.517 12.5551C 17.3352 13.0225 18.112 13.2562 18.8474 13.2562C 20.625 13.2562 21.5138 12.3822 21.5138 10.6342L 21.5138 9.81618L 21.4846 9.81618C 20.9245 10.7705 20.082 11.2477 18.957 11.2477C 18.0463 11.2477 17.3109 10.9166 16.7508 10.2544C 16.1956 9.58733 15.918 8.69384 15.918 7.57394C 15.918 6.3031 16.2175 5.29275 16.8166 4.5429C 17.4156 3.79306 18.2386 3.41813 19.2857 3.41813C 20.2744 3.41813 21.0073 3.82227 21.4846 4.63055L 21.5138 4.63055L 21.5138 3.59342L 23.2086 3.59342L 23.2086 10.4735ZM 21.5284 7.64698L 21.5284 6.67558C 21.5284 6.14972 21.3531 5.70176 21.0024 5.3317C 20.6567 4.95678 20.2232 4.76932 19.7021 4.76932C 19.0593 4.76932 18.5552 5.00791 18.1899 5.48508C 17.8295 5.95739 17.6494 6.61959 17.6494 7.47169C 17.6494 8.20693 17.8222 8.79609 18.168 9.23918C 18.5187 9.67741 18.9813 9.89652 19.556 9.89652C 20.1404 9.89652 20.6153 9.68714 20.9805 9.2684C 21.3458 8.84478 21.5284 8.30431 21.5284 7.64698Z"/>
<path id="path4_fill" d="M 28.7313 11.2477C 27.5771 11.2477 26.6542 10.8996 25.9627 10.2033C 25.276 9.50212 24.9326 8.57455 24.9326 7.42056C 24.9326 6.16433 25.2906 5.18319 26.0065 4.47717C 26.7273 3.77115 27.6964 3.41813 28.914 3.41813C 30.0828 3.41813 30.9935 3.76141 31.6461 4.44796C 32.2987 5.1345 32.625 6.08642 32.625 7.3037C 32.625 8.49664 32.2719 9.45343 31.5657 10.1741C 30.8644 10.8898 29.9196 11.2477 28.7313 11.2477ZM 28.8117 4.76932C 28.1494 4.76932 27.6258 5.0006 27.2411 5.46317C 26.8563 5.92574 26.664 6.56359 26.664 7.37674C 26.664 8.16067 26.8588 8.77905 27.2484 9.23188C 27.638 9.67984 28.1591 9.90382 28.8117 9.90382C 29.4789 9.90382 29.9903 9.68228 30.3458 9.23918C 30.7062 8.79609 30.8864 8.16554 30.8864 7.34753C 30.8864 6.52464 30.7062 5.88922 30.3458 5.44126C 29.9903 4.9933 29.4789 4.76932 28.8117 4.76932Z"/>
<path id="path5_fill" d="M 40.6899 7.79305L 35.5909 7.79305C 35.6104 8.48447 35.8222 9.01764 36.2265 9.39256C 36.6356 9.76749 37.1956 9.95495 37.9067 9.95495C 38.7054 9.95495 39.4383 9.71636 40.1055 9.23918L 40.1055 10.605C 39.4237 11.0335 38.5227 11.2477 37.4026 11.2477C 36.3019 11.2477 35.4375 10.9093 34.8093 10.2325C 34.1859 9.55081 33.8742 8.59402 33.8742 7.36213C 33.8742 6.19841 34.2175 5.25136 34.9042 4.52099C 35.5958 3.78575 36.4529 3.41813 37.4756 3.41813C 38.4984 3.41813 39.2898 3.7468 39.8498 4.40413C 40.4099 5.06147 40.6899 5.97443 40.6899 7.14302L 40.6899 7.79305ZM 39.0536 6.59524C 39.0487 5.9866 38.905 5.5143 38.6226 5.17833C 38.3401 4.83749 37.9505 4.66707 37.4537 4.66707C 36.9667 4.66707 36.5528 4.84479 36.2119 5.20024C 35.8758 5.55568 35.6688 6.02069 35.5909 6.59524L 39.0536 6.59524Z"/>
<path id="path6_fill" d="M 54.6721 6.83627C 54.6721 9.77722 53.2792 11.2477 50.4935 11.2477C 47.8247 11.2477 46.4903 9.83322 46.4903 7.00425L 46.4903 0.598904L 48.2289 0.598904L 48.2289 6.64637C 48.2289 8.70114 49.0276 9.72853 50.625 9.72853C 52.164 9.72853 52.9334 8.73766 52.9334 6.75593L 52.9334 0.598904L 54.6721 0.598904L 54.6721 6.83627Z"/>
<path id="path7_fill" d="M 58.9164 11.0724L 57.1266 11.0724L 57.1266 0.598904L 58.9164 0.598904L 58.9164 11.0724Z"/>
<path id="path8_fill" d="M 62.8977 9.32683L 61.7654 12.9714L 60.4943 12.9714L 61.2979 9.32683L 62.8977 9.32683Z"/>
<path id="path9_fill" d="M 77.3255 11.0724L 75.2946 11.0724L 73.6218 8.26779C 73.4708 8.00973 73.3222 7.79062 73.1761 7.61046C 73.0349 7.42543 72.8888 7.27449 72.7378 7.15763C 72.5917 7.04077 72.431 6.95556 72.2557 6.902C 72.0804 6.84844 71.8831 6.82166 71.664 6.82166L 70.9627 6.82166L 70.9627 11.0724L 69.2313 11.0724L 69.2313 0.598904L 72.6794 0.598904C 73.1713 0.598904 73.6242 0.657333 74.0381 0.774192C 74.4521 0.891052 74.8125 1.06878 75.1193 1.30736C 75.4261 1.54108 75.6648 1.83566 75.8352 2.19111C 76.0106 2.54169 76.0982 2.95313 76.0982 3.42544C 76.0982 3.79549 76.0422 4.13633 75.9302 4.44796C 75.8231 4.75471 75.6672 5.02982 75.4627 5.27327C 75.263 5.51186 75.0195 5.71636 74.7321 5.88678C 74.4497 6.0572 74.1307 6.18867 73.7752 6.28118L 73.7752 6.3104C 73.9651 6.41752 74.1307 6.53681 74.2719 6.66828C 74.4131 6.79488 74.5471 6.92634 74.6737 7.06268C 74.8003 7.19902 74.9245 7.35483 75.0463 7.53012C 75.1729 7.70054 75.3117 7.90017 75.4627 8.12902L 77.3255 11.0724ZM 70.9627 2.00852L 70.9627 5.41204L 72.4091 5.41204C 72.6769 5.41204 72.9229 5.37066 73.1469 5.28788C 73.3758 5.20511 73.5731 5.08581 73.7386 4.93C 73.9042 4.77419 74.0333 4.58429 74.1258 4.36031C 74.2183 4.13633 74.2646 3.88557 74.2646 3.60803C 74.2646 3.10651 74.1063 2.71454 73.7898 2.43213C 73.4732 2.14972 73.0179 2.00852 72.4237 2.00852L 70.9627 2.00852Z"/>
<path id="path10_fill" d="M 84.3019 7.79305L 79.2029 7.79305C 79.2224 8.48447 79.4343 9.01764 79.8385 9.39256C 80.2476 9.76749 80.8076 9.95495 81.5187 9.95495C 82.3174 9.95495 83.0503 9.71636 83.7175 9.23918L 83.7175 10.605C 83.0357 11.0335 82.1347 11.2477 81.0146 11.2477C 79.914 11.2477 79.0495 10.9093 78.4213 10.2325C 77.7979 9.55081 77.4862 8.59402 77.4862 7.36213C 77.4862 6.19841 77.8295 5.25136 78.5162 4.52099C 79.2078 3.78575 80.0649 3.41813 81.0877 3.41813C 82.1104 3.41813 82.9018 3.7468 83.4619 4.40413C 84.0219 5.06147 84.3019 5.97443 84.3019 7.14302L 84.3019 7.79305ZM 82.6656 6.59524C 82.6607 5.9866 82.517 5.5143 82.2346 5.17833C 81.9521 4.83749 81.5625 4.66707 81.0657 4.66707C 80.5787 4.66707 80.1648 4.84479 79.8239 5.20024C 79.4878 5.55568 79.2808 6.02069 79.2029 6.59524L 82.6656 6.59524Z"/>
<path id="path11_fill" d="M 92.7248 10.4735C 92.7248 13.2197 91.3442 14.5928 88.5828 14.5928C 87.6088 14.5928 86.7589 14.4297 86.0333 14.1035L 86.0333 12.5551C 86.8515 13.0225 87.6282 13.2562 88.3636 13.2562C 90.1412 13.2562 91.03 12.3822 91.03 10.6342L 91.03 9.81618L 91.0008 9.81618C 90.4407 10.7705 89.5982 11.2477 88.4732 11.2477C 87.5625 11.2477 86.8271 10.9166 86.267 10.2544C 85.7119 9.58733 85.4343 8.69384 85.4343 7.57394C 85.4343 6.3031 85.7338 5.29275 86.3328 4.5429C 86.9318 3.79306 87.7549 3.41813 88.8019 3.41813C 89.7906 3.41813 90.5235 3.82227 91.0008 4.63055L 91.03 4.63055L 91.03 3.59342L 92.7248 3.59342L 92.7248 10.4735ZM 91.0446 7.64698L 91.0446 6.67558C 91.0446 6.14972 90.8693 5.70176 90.5187 5.3317C 90.1729 4.95678 89.7394 4.76932 89.2183 4.76932C 88.5755 4.76932 88.0714 5.00791 87.7062 5.48508C 87.3458 5.95739 87.1656 6.61959 87.1656 7.47169C 87.1656 8.20693 87.3385 8.79609 87.6843 9.23918C 88.0349 9.67741 88.4976 9.89652 89.0722 9.89652C 89.6567 9.89652 90.1315 9.68714 90.4968 9.2684C 90.862 8.84478 91.0446 8.30431 91.0446 7.64698Z"/>
<path id="path12_fill" d="M 101.455 11.0724L 99.7597 11.0724L 99.7597 9.88921L 99.7305 9.88921C 99.2386 10.7949 98.474 11.2477 97.4367 11.2477C 95.6688 11.2477 94.7849 10.1862 94.7849 8.06329L 94.7849 3.59342L 96.4797 3.59342L 96.4797 7.888C 96.4797 9.23188 96.9984 9.90382 98.0357 9.90382C 98.5373 9.90382 98.9489 9.71879 99.2703 9.34874C 99.5966 8.97869 99.7597 8.49421 99.7597 7.8953L 99.7597 3.59342L 101.455 3.59342L 101.455 11.0724Z"/>
<path id="path13_fill" d="M 105.37 11.0724L 103.668 11.0724L 103.668 0L 105.37 0L 105.37 11.0724Z"/>
<path id="path14_fill" d="M 113.325 11.0724L 111.682 11.0724L 111.682 9.90382L 111.653 9.90382C 111.136 10.7997 110.379 11.2477 109.381 11.2477C 108.645 11.2477 108.068 11.0481 107.649 10.6488C 107.235 10.2495 107.028 9.72123 107.028 9.0639C 107.028 7.65185 107.842 6.82896 109.468 6.59524L 111.689 6.28118C 111.689 5.21484 111.183 4.68167 110.17 4.68167C 109.278 4.68167 108.475 4.98843 107.759 5.60194L 107.759 4.11929C 108.548 3.65185 109.459 3.41813 110.491 3.41813C 112.381 3.41813 113.325 4.34814 113.325 6.20815L 113.325 11.0724ZM 111.689 7.39865L 110.119 7.61776C 109.631 7.68106 109.264 7.80035 109.015 7.97564C 108.772 8.14606 108.65 8.44795 108.65 8.8813C 108.65 9.1978 108.762 9.4583 108.986 9.6628C 109.215 9.86243 109.519 9.96225 109.899 9.96225C 110.416 9.96225 110.842 9.78209 111.178 9.42178C 111.519 9.05659 111.689 8.59889 111.689 8.04868L 111.689 7.39865Z"/>
<path id="path15_fill" d="M 119.739 5.20754C 119.535 5.04686 119.24 4.96652 118.856 4.96652C 118.354 4.96652 117.935 5.19293 117.599 5.64576C 117.263 6.09859 117.095 6.71454 117.095 7.4936L 117.095 11.0724L 115.4 11.0724L 115.4 3.59342L 117.095 3.59342L 117.095 5.1345L 117.124 5.1345C 117.29 4.60864 117.543 4.19963 117.884 3.90748C 118.23 3.61046 118.614 3.46196 119.038 3.46196C 119.345 3.46196 119.579 3.50821 119.739 3.60073L 119.739 5.20754Z"/>
<path id="path16_fill" d="M 63.3857 72.4118L 54.1461 72.4118L 46.5955 52.4464L 16.3929 52.4464L 9.28929 72.4118L 0 72.4118L 27.3214 1.19196L 35.9649 1.19196L 63.3857 72.4118ZM 43.8633 44.947L 32.6864 14.6016C 32.3221 13.6083 31.9578 12.019 31.5935 9.83371L 31.3948 9.83371C 31.0636 11.8534 30.6828 13.4427 30.2523 14.6016L 19.1747 44.947L 43.8633 44.947Z"/>
<path id="path17_fill" d="M 73.9169 72.4118L 73.9169 1.19196L 94.1844 1.19196C 100.344 1.19196 105.229 2.69847 108.839 5.7115C 112.448 8.72452 114.253 12.6481 114.253 17.4821C 114.253 21.5216 113.16 25.0313 110.975 28.0112C 108.789 30.9911 105.775 33.1101 101.934 34.3683L 101.934 34.567C 106.736 35.1298 110.577 36.9509 113.458 40.0301C 116.34 43.0763 117.78 47.0495 117.78 51.9498C 117.78 58.042 115.594 62.9754 111.223 66.75C 106.852 70.5246 101.338 72.4118 94.6812 72.4118L 73.9169 72.4118ZM 82.2623 8.74107L 82.2623 31.736L 90.8065 31.736C 95.3766 31.736 98.9698 30.6434 101.586 28.4581C 104.202 26.2398 105.51 23.1274 105.51 19.1211C 105.51 12.2011 100.957 8.74107 91.8497 8.74107L 82.2623 8.74107ZM 82.2623 39.2355L 82.2623 64.8627L 93.5883 64.8627C 98.4896 64.8627 102.281 63.7039 104.964 61.3862C 107.68 59.0685 109.037 55.8899 109.037 51.8504C 109.037 43.4405 103.308 39.2355 91.8497 39.2355L 82.2623 39.2355Z"/>
<path id="path18_fill" d="M 180.719 69.4319C 175.453 72.2132 168.896 73.6038 161.047 73.6038C 150.914 73.6038 142.8 70.3425 136.706 63.8198C 130.613 57.2971 127.566 48.7381 127.566 38.1429C 127.566 26.753 130.994 17.5484 137.849 10.529C 144.704 3.50967 153.397 0 163.929 0C 170.684 0 176.281 0.976748 180.719 2.93025L 180.719 11.8203C 175.619 8.97284 169.989 7.54911 163.829 7.54911C 155.649 7.54911 149.009 10.2807 143.909 15.7439C 138.843 21.207 136.309 28.5078 136.309 37.6462C 136.309 46.3211 138.677 53.2411 143.413 58.4063C 148.181 63.5383 154.424 66.1044 162.14 66.1044C 169.294 66.1044 175.486 64.5151 180.719 61.3365L 180.719 69.4319Z"/>
<path id="path19_fill" d="M 195.224 72.4118L 195.224 1.19196L 214.895 1.19196C 239.998 1.19196 252.549 12.764 252.549 35.9079C 252.549 46.9005 249.056 55.7409 242.068 62.4291C 235.113 69.0843 225.791 72.4118 214.101 72.4118L 195.224 72.4118ZM 203.569 8.74107L 203.569 64.8627L 214.2 64.8627C 223.539 64.8627 230.808 62.3629 236.007 57.3633C 241.207 52.3637 243.806 45.2781 243.806 36.1066C 243.806 17.8629 234.103 8.74107 214.697 8.74107L 203.569 8.74107Z"/>
<path id="path20_fill" d="M 304.311 72.4118L 266.558 72.4118L 266.558 1.19196L 302.721 1.19196L 302.721 8.74107L 274.903 8.74107L 274.903 32.4314L 300.635 32.4314L 300.635 39.9308L 274.903 39.9308L 274.903 64.8627L 304.311 64.8627L 304.311 72.4118Z"/>
<path id="path21_fill" d="M 354.185 8.74107L 326.367 8.74107L 326.367 33.375L 352.099 33.375L 352.099 40.8744L 326.367 40.8744L 326.367 72.4118L 318.021 72.4118L 318.021 1.19196L 354.185 1.19196L 354.185 8.74107Z"/>
<path id="path22_fill" d="M 420.949 67.5446C 413.795 71.5841 405.847 73.6038 397.105 73.6038C 386.938 73.6038 378.708 70.3259 372.416 63.7701C 366.157 57.2143 363.027 48.5394 363.027 37.7455C 363.027 26.7199 366.505 17.6808 373.459 10.6283C 380.447 3.54278 389.289 0 399.986 0C 407.735 0 414.243 1.25818 419.508 3.77455L 419.508 13.0123C 413.746 9.37016 406.924 7.54911 399.042 7.54911C 391.061 7.54911 384.52 10.2972 379.42 15.7935C 374.32 21.2898 371.77 28.4085 371.77 37.1496C 371.77 46.1555 374.138 53.2411 378.874 58.4063C 383.609 63.5383 390.034 66.1044 398.148 66.1044C 403.711 66.1044 408.53 64.9952 412.603 62.7768L 412.603 42.8114L 397.005 42.8114L 397.005 35.2623L 420.949 35.2623L 420.949 67.5446Z"/>
<path id="path23_fill" d="M 491.09 72.4118L 482.745 72.4118L 482.745 39.9308L 445.886 39.9308L 445.886 72.4118L 437.54 72.4118L 437.54 1.19196L 445.886 1.19196L 445.886 32.4314L 482.745 32.4314L 482.745 1.19196L 491.09 1.19196L 491.09 72.4118Z"/>
<path id="path24_fill" d="M 518.114 72.4118L 509.768 72.4118L 509.768 1.19196L 518.114 1.19196L 518.114 72.4118Z"/>
<path id="path25_fill" d="M 555.122 46.8839C 555.122 55.327 553.333 61.8994 549.757 66.601C 546.18 71.2695 541.395 73.6038 535.401 73.6038C 532.619 73.6038 530.334 73.2065 528.545 72.4118L 528.545 64.1674C 530.334 65.4587 532.652 66.1044 535.5 66.1044C 543.018 66.1044 546.776 59.7307 546.776 46.9833L 546.776 1.19196L 555.122 1.19196L 555.122 46.8839Z"/>
<path id="path26_fill" d="M 622.829 72.4118L 611.205 72.4118L 583.685 39.8315C 582.658 38.6064 582.029 37.7786 581.797 37.3482L 581.599 37.3482L 581.599 72.4118L 573.253 72.4118L 573.253 1.19196L 581.599 1.19196L 581.599 34.6663L 581.797 34.6663C 582.261 33.9379 582.89 33.1267 583.685 32.2327L 610.311 1.19196L 620.693 1.19196L 590.143 35.3616L 622.829 72.4118Z"/>
<path id="path27_fill" d="M 669.226 72.4118L 632.268 72.4118L 632.268 1.19196L 640.613 1.19196L 640.613 64.8627L 669.226 64.8627L 669.226 72.4118Z"/>
<path id="path28_fill" d="M 752.78 72.4118L 744.484 72.4118L 744.484 24.6339C 744.484 20.8594 744.716 16.2405 745.18 10.7773L 744.981 10.7773C 744.186 13.989 743.474 16.2902 742.845 17.6808L 718.504 72.4118L 714.431 72.4118L 690.139 18.0781C 689.444 16.4888 688.732 14.0552 688.003 10.7773L 687.805 10.7773C 688.069 13.6248 688.202 18.2768 688.202 24.7333L 688.202 72.4118L 680.155 72.4118L 680.155 1.19196L 691.182 1.19196L 713.04 50.8571C 714.729 54.6648 715.821 57.5123 716.318 59.3996L 716.616 59.3996C 718.04 55.4926 719.183 52.5789 720.044 50.6585L 742.348 1.19196L 752.78 1.19196L 752.78 72.4118Z"/>
<path id="path29_fill" d="M 828.982 72.4118L 818.749 72.4118L 782.088 15.6445C 781.161 14.2208 780.399 12.7308 779.803 11.1747L 779.505 11.1747C 779.77 12.6977 779.903 15.9591 779.903 20.9587L 779.903 72.4118L 771.557 72.4118L 771.557 1.19196L 782.386 1.19196L 818.053 57.0653C 819.543 59.383 820.504 60.9723 820.934 61.8331L 821.133 61.8331C 820.802 59.7803 820.636 56.2872 820.636 51.3538L 820.636 1.19196L 828.982 1.19196L 828.982 72.4118Z"/>
<path id="path30_fill" d="M 876.372 73.6038C 866.271 73.6038 858.174 70.2762 852.081 63.6211C 846.02 56.966 842.99 48.3077 842.99 37.6462C 842.99 26.1901 846.087 17.0517 852.28 10.231C 858.472 3.41034 866.901 0 877.564 0C 887.4 0 895.315 3.31101 901.309 9.93304C 907.336 16.5551 910.35 25.2134 910.35 35.9079C 910.35 47.5296 907.27 56.7176 901.11 63.4721C 894.951 70.2266 886.705 73.6038 876.372 73.6038ZM 876.968 7.54911C 869.484 7.54911 863.407 10.2476 858.737 15.6445C 854.068 21.0415 851.733 28.127 851.733 36.9012C 851.733 45.6754 854.002 52.7444 858.539 58.1083C 863.109 63.439 869.053 66.1044 876.372 66.1044C 884.188 66.1044 890.347 63.5549 894.851 58.4559C 899.355 53.357 901.607 46.2217 901.607 37.0502C 901.607 27.6469 899.421 20.3793 895.05 15.2472C 890.679 10.1151 884.651 7.54911 876.968 7.54911Z"/>
<path id="path31_fill" d="M 932.704 45.4933L 932.704 72.4118L 924.358 72.4118L 924.358 1.19196L 943.93 1.19196C 951.547 1.19196 957.442 3.04613 961.615 6.75446C 965.821 10.4628 967.924 15.6942 967.924 22.4487C 967.924 29.2031 965.589 34.7325 960.919 39.0368C 956.283 43.3411 950.007 45.4933 942.093 45.4933L 932.704 45.4933ZM 932.704 8.74107L 932.704 37.9442L 941.447 37.9442C 947.209 37.9442 951.597 36.6363 954.611 34.0206C 957.657 31.3718 959.181 27.647 959.181 22.846C 959.181 13.4427 953.617 8.74107 942.49 8.74107L 932.704 8.74107Z"/>
<path id="path32_fill" d="M 36.9584 181.301C 26.8909 181.301 18.7938 177.974 12.6672 171.319C 6.60682 164.663 3.57662 156.005 3.57662 145.344C 3.57662 133.854 6.67305 124.716 12.8659 117.929C 19.0919 111.108 27.5201 107.697 38.1506 107.697C 47.9532 107.697 55.8682 111.008 61.8955 117.631C 67.9227 124.253 70.9364 132.911 70.9364 143.605C 70.9364 155.227 67.8565 164.415 61.6968 171.17C 60.2396 172.792 58.6831 174.183 57.0273 175.341L 77.0464 189.695L 61.8955 189.695L 48.4831 179.662C 44.9727 180.755 41.1312 181.301 36.9584 181.301ZM 37.5545 115.247C 30.0701 115.247 23.9932 117.945 19.3237 123.342C 14.6542 128.739 12.3195 135.825 12.3195 144.599C 12.3195 153.34 14.588 160.409 19.125 165.806C 23.6951 171.136 29.6396 173.802 36.9584 173.802C 44.774 173.802 50.9338 171.252 55.4377 166.153C 59.9416 161.054 62.1935 153.919 62.1935 144.748C 62.1935 135.311 60.0078 128.044 55.6364 122.945C 51.2649 117.813 45.2377 115.247 37.5545 115.247Z"/>
<path id="path33_fill" d="M 136.011 180.109L 126.076 180.109L 114.154 160.144C 113.061 158.29 112.001 156.717 110.975 155.426C 109.948 154.101 108.888 153.025 107.795 152.197C 106.736 151.37 105.577 150.774 104.318 150.41C 103.093 150.012 101.702 149.814 100.145 149.814L 93.2903 149.814L 93.2903 180.109L 84.9448 180.109L 84.9448 108.889L 106.206 108.889C 109.319 108.889 112.183 109.287 114.8 110.081C 117.449 110.843 119.734 112.018 121.655 113.608C 123.609 115.197 125.132 117.184 126.225 119.567C 127.318 121.918 127.864 124.683 127.864 127.862C 127.864 130.345 127.483 132.629 126.722 134.715C 125.993 136.768 124.933 138.606 123.543 140.228C 122.185 141.851 120.529 143.241 118.575 144.4C 116.654 145.526 114.485 146.403 112.068 147.032L 112.068 147.231C 113.26 147.761 114.286 148.373 115.147 149.069C 116.042 149.731 116.886 150.525 117.681 151.453C 118.476 152.38 119.254 153.439 120.016 154.631C 120.81 155.79 121.688 157.147 122.648 158.704L 136.011 180.109ZM 93.2903 116.439L 93.2903 142.264L 104.616 142.264C 106.703 142.264 108.623 141.95 110.379 141.321C 112.167 140.692 113.707 139.798 114.998 138.639C 116.29 137.447 117.3 136.007 118.029 134.318C 118.757 132.596 119.121 130.676 119.121 128.557C 119.121 124.749 117.88 121.786 115.396 119.667C 112.945 117.515 109.385 116.439 104.716 116.439L 93.2903 116.439Z"/>
<path id="path34_fill" d="M 142.519 177.229L 142.519 167.395C 143.644 168.388 144.986 169.282 146.542 170.077C 148.132 170.872 149.788 171.55 151.51 172.113C 153.265 172.643 155.02 173.057 156.775 173.355C 158.531 173.653 160.153 173.802 161.644 173.802C 166.777 173.802 170.602 172.858 173.119 170.971C 175.669 169.051 176.944 166.302 176.944 162.727C 176.944 160.806 176.513 159.134 175.652 157.71C 174.824 156.287 173.665 154.995 172.175 153.836C 170.684 152.644 168.913 151.519 166.859 150.459C 164.839 149.367 162.654 148.224 160.302 147.032C 157.819 145.774 155.5 144.499 153.348 143.208C 151.195 141.917 149.324 140.493 147.734 138.937C 146.145 137.381 144.886 135.626 143.959 133.672C 143.065 131.686 142.618 129.368 142.618 126.719C 142.618 123.474 143.33 120.66 144.754 118.276C 146.178 115.859 148.049 113.873 150.367 112.316C 152.685 110.76 155.318 109.601 158.266 108.84C 161.246 108.078 164.276 107.697 167.356 107.697C 174.377 107.697 179.494 108.542 182.706 110.23L 182.706 119.617C 178.5 116.703 173.102 115.247 166.512 115.247C 164.69 115.247 162.869 115.445 161.047 115.843C 159.226 116.207 157.603 116.819 156.179 117.68C 154.755 118.541 153.596 119.65 152.702 121.008C 151.808 122.365 151.361 124.021 151.361 125.974C 151.361 127.795 151.692 129.368 152.354 130.692C 153.05 132.017 154.06 133.225 155.384 134.318C 156.709 135.411 158.315 136.47 160.203 137.497C 162.124 138.523 164.326 139.649 166.81 140.874C 169.36 142.132 171.777 143.456 174.062 144.847C 176.347 146.238 178.351 147.777 180.073 149.466C 181.795 151.155 183.153 153.025 184.146 155.078C 185.173 157.131 185.686 159.482 185.686 162.131C 185.686 165.64 184.991 168.62 183.6 171.07C 182.242 173.487 180.388 175.457 178.036 176.98C 175.718 178.503 173.036 179.596 169.989 180.258C 166.942 180.954 163.73 181.301 160.352 181.301C 159.226 181.301 157.835 181.202 156.179 181.003C 154.523 180.838 152.834 180.573 151.112 180.209C 149.39 179.878 147.751 179.464 146.194 178.967C 144.671 178.437 143.446 177.858 142.519 177.229Z"/>
<path id="path35_fill" d="M 242.018 116.439L 221.453 116.439L 221.453 180.109L 213.107 180.109L 213.107 116.439L 192.591 116.439L 192.591 108.889L 242.018 108.889L 242.018 116.439Z"/>
<path id="path36_fill" d="M 305.354 151.304C 305.354 171.302 296.33 181.301 278.281 181.301C 260.994 181.301 252.351 171.683 252.351 152.446L 252.351 108.889L 260.696 108.889L 260.696 151.899C 260.696 166.501 266.856 173.802 279.175 173.802C 291.064 173.802 297.009 166.749 297.009 152.644L 297.009 108.889L 305.354 108.889L 305.354 151.304Z"/>
<path id="path37_fill" d="M 376.142 108.889L 349.764 180.109L 340.574 180.109L 314.743 108.889L 324.032 108.889L 343.753 165.359C 344.382 167.18 344.863 169.282 345.194 171.666L 345.393 171.666C 345.657 169.68 346.204 167.544 347.032 165.259L 367.15 108.889L 376.142 108.889Z"/>
<path id="path38_fill" d="M 470.823 108.889L 450.704 180.109L 440.918 180.109L 426.264 128.06C 425.635 125.842 425.254 123.425 425.121 120.809L 424.923 120.809C 424.724 123.259 424.293 125.643 423.631 127.961L 408.878 180.109L 399.191 180.109L 378.327 108.889L 387.517 108.889L 402.668 163.521C 403.297 165.806 403.695 168.19 403.86 170.673L 404.109 170.673C 404.274 168.918 404.788 166.534 405.649 163.521L 421.396 108.889L 429.393 108.889L 444.495 163.918C 445.025 165.806 445.422 168.024 445.687 170.574L 445.886 170.574C 446.018 168.852 446.465 166.567 447.227 163.72L 461.782 108.889L 470.823 108.889Z"/>
<path id="path39_fill" d="M 530.632 180.109L 520.448 180.109L 504.056 152.843C 503.559 152.015 503.012 150.84 502.416 149.317L 502.218 149.317C 501.886 150.078 501.323 151.254 500.529 152.843L 483.639 180.109L 473.406 180.109L 497.25 144.301L 475.293 108.889L 485.527 108.889L 500.081 133.921C 501.042 135.576 501.886 137.232 502.615 138.887L 502.814 138.887C 503.873 136.702 504.801 134.98 505.595 133.722L 520.746 108.889L 530.334 108.889L 507.93 144.201L 530.632 180.109Z"/>
<path id="path40_fill" d="M 587.758 108.889L 564.262 153.787L 564.262 180.109L 555.917 180.109L 555.917 153.985L 533.016 108.889L 542.504 108.889L 558.45 141.072C 558.649 141.47 559.228 142.927 560.189 145.443L 560.338 145.443C 560.669 144.317 561.298 142.86 562.225 141.072L 578.916 108.889L 587.758 108.889Z"/>
<path id="path41_fill" d="M 644.19 110.876L 602.462 172.56L 643.196 172.56L 643.196 180.109L 589.994 180.109L 589.994 177.775L 631.373 116.439L 593.322 116.439L 593.322 108.889L 644.19 108.889L 644.19 110.876Z"/>
<path id="path42_fill" d="M 43.5653 287.807L 35.4185 287.807L 35.4185 279.86L 35.2198 279.86C 31.6763 285.953 26.4604 288.999 19.5721 288.999C 14.5052 288.999 10.5312 287.658 7.65 284.976C 4.80195 282.294 3.37792 278.735 3.37792 274.298C 3.37792 264.795 8.97467 259.266 20.1682 257.71L 35.4185 255.574C 35.4185 246.932 31.9247 242.611 24.937 242.611C 18.8104 242.611 13.2799 244.697 8.34545 248.869L 8.34545 240.526C 13.3461 237.347 19.1084 235.758 25.6325 235.758C 37.5877 235.758 43.5653 242.082 43.5653 254.73L 43.5653 287.807ZM 35.4185 262.08L 23.1487 263.769C 19.3734 264.299 16.5253 265.242 14.6045 266.6C 12.6838 267.924 11.7234 270.292 11.7234 273.702C 11.7234 276.185 12.601 278.221 14.3562 279.811C 16.1445 281.367 18.5123 282.145 21.4597 282.145C 25.5 282.145 28.8282 280.738 31.4445 277.923C 34.0938 275.076 35.4185 271.484 35.4185 267.146L 35.4185 262.08Z"/>
<path id="path43_fill" d="M 67.2604 280.456L 67.0617 280.456L 67.0617 287.807L 58.9149 287.807L 58.9149 212.514L 67.0617 212.514L 67.0617 245.889L 67.2604 245.889C 71.2675 239.135 77.1292 235.758 84.8455 235.758C 91.3695 235.758 96.4695 238.042 100.145 242.611C 103.855 247.148 105.709 253.24 105.709 260.888C 105.709 269.398 103.639 276.218 99.4997 281.35C 95.3601 286.449 89.6971 288.999 82.5107 288.999C 75.788 288.999 70.7045 286.151 67.2604 280.456ZM 67.0617 259.945L 67.0617 267.047C 67.0617 271.252 68.4195 274.828 71.1351 277.774C 73.8838 280.688 77.361 282.145 81.5669 282.145C 86.5013 282.145 90.3594 280.258 93.1412 276.483C 95.9562 272.709 97.3636 267.461 97.3636 260.739C 97.3636 255.077 96.0555 250.641 93.4393 247.429C 90.8231 244.217 87.2795 242.611 82.8088 242.611C 78.0731 242.611 74.2646 244.267 71.3834 247.578C 68.5023 250.856 67.0617 254.978 67.0617 259.945Z"/>
<path id="path44_fill" d="M 153.397 285.473C 149.49 287.823 144.853 288.999 139.488 288.999C 132.236 288.999 126.374 286.648 121.903 281.946C 117.466 277.212 115.247 271.086 115.247 263.57C 115.247 255.193 117.648 248.472 122.45 243.406C 127.252 238.307 133.66 235.758 141.674 235.758C 146.145 235.758 150.086 236.585 153.497 238.241L 153.497 246.585C 149.721 243.936 145.681 242.611 141.376 242.611C 136.177 242.611 131.905 244.482 128.56 248.224C 125.248 251.932 123.592 256.816 123.592 262.875C 123.592 268.835 125.149 273.536 128.262 276.98C 131.408 280.423 135.614 282.145 140.879 282.145C 145.317 282.145 149.49 280.672 153.397 277.725L 153.397 285.473Z"/>
<path id="path45_fill" d="M 209.133 287.807L 200.986 287.807L 200.986 279.165L 200.788 279.165C 197.012 285.721 191.184 288.999 183.302 288.999C 176.91 288.999 171.794 286.731 167.952 282.195C 164.144 277.625 162.24 271.417 162.24 263.57C 162.24 255.16 164.359 248.422 168.598 243.356C 172.837 238.291 178.483 235.758 185.537 235.758C 192.525 235.758 197.608 238.506 200.788 244.002L 200.986 244.002L 200.986 212.514L 209.133 212.514L 209.133 287.807ZM 200.986 264.812L 200.986 257.312C 200.986 253.207 199.629 249.73 196.913 246.883C 194.197 244.035 190.753 242.611 186.581 242.611C 181.613 242.611 177.705 244.433 174.857 248.075C 172.009 251.717 170.585 256.75 170.585 263.173C 170.585 269.033 171.943 273.669 174.658 277.079C 177.407 280.456 181.083 282.145 185.686 282.145C 190.223 282.145 193.899 280.506 196.714 277.228C 199.562 273.95 200.986 269.811 200.986 264.812Z"/>
<path id="path46_fill" d="M 266.508 264.414L 230.593 264.414C 230.725 270.076 232.249 274.447 235.163 277.526C 238.077 280.605 242.084 282.145 247.184 282.145C 252.914 282.145 258.179 280.258 262.981 276.483L 262.981 284.132C 258.51 287.376 252.599 288.999 245.247 288.999C 238.061 288.999 232.414 286.698 228.308 282.095C 224.201 277.46 222.148 270.954 222.148 262.577C 222.148 254.664 224.383 248.224 228.854 243.257C 233.358 238.258 238.938 235.758 245.595 235.758C 252.251 235.758 257.401 237.91 261.044 242.214C 264.687 246.518 266.508 252.495 266.508 260.143L 266.508 264.414ZM 258.163 257.511C 258.13 252.809 256.987 249.151 254.735 246.535C 252.516 243.919 249.42 242.611 245.446 242.611C 241.604 242.611 238.342 243.986 235.66 246.734C 232.977 249.482 231.321 253.074 230.692 257.511L 258.163 257.511Z"/>
<path id="path47_fill" d="M 304.013 219.666C 302.423 218.772 300.619 218.325 298.598 218.325C 292.902 218.325 290.054 221.918 290.054 229.103L 290.054 236.95L 301.976 236.95L 301.976 243.903L 290.054 243.903L 290.054 287.807L 281.957 287.807L 281.957 243.903L 273.264 243.903L 273.264 236.95L 281.957 236.95L 281.957 228.705C 281.957 223.375 283.497 219.17 286.577 216.09C 289.657 212.978 293.498 211.422 298.102 211.422C 300.585 211.422 302.556 211.72 304.013 212.316L 304.013 219.666Z"/>
<path id="path48_fill" d="M 354.185 283.734C 354.185 302.408 345.243 311.745 327.36 311.745C 321.068 311.745 315.571 310.553 310.868 308.17L 310.868 300.024C 316.597 303.203 322.062 304.792 327.261 304.792C 339.779 304.792 346.038 298.137 346.038 284.827L 346.038 279.264L 345.84 279.264C 341.965 285.754 336.136 288.999 328.354 288.999C 322.029 288.999 316.929 286.747 313.054 282.244C 309.212 277.708 307.292 271.633 307.292 264.017C 307.292 255.375 309.361 248.505 313.501 243.406C 317.674 238.307 323.37 235.758 330.589 235.758C 337.444 235.758 342.528 238.506 345.84 244.002L 346.038 244.002L 346.038 236.95L 354.185 236.95L 354.185 283.734ZM 346.038 264.812L 346.038 257.312C 346.038 253.273 344.664 249.813 341.915 246.932C 339.2 244.052 335.805 242.611 331.732 242.611C 326.698 242.611 322.757 244.449 319.909 248.124C 317.061 251.766 315.637 256.882 315.637 263.471C 315.637 269.133 316.995 273.669 319.71 277.079C 322.459 280.456 326.085 282.145 330.589 282.145C 335.159 282.145 338.868 280.523 341.717 277.278C 344.598 274.033 346.038 269.878 346.038 264.812Z"/>
<path id="path49_fill" d="M 412.901 287.807L 404.755 287.807L 404.755 258.504C 404.755 247.909 400.814 242.611 392.932 242.611C 388.958 242.611 385.613 244.151 382.897 247.23C 380.182 250.276 378.824 254.2 378.824 259.001L 378.824 287.807L 370.677 287.807L 370.677 212.514L 378.824 212.514L 378.824 245.393L 379.023 245.393C 382.931 238.969 388.494 235.758 395.714 235.758C 407.172 235.758 412.901 242.661 412.901 256.468L 412.901 287.807Z"/>
<path id="path50_fill" d="M 432.473 224.037C 431.016 224.037 429.774 223.54 428.748 222.547C 427.721 221.553 427.208 220.295 427.208 218.772C 427.208 217.249 427.721 215.991 428.748 214.998C 429.774 213.971 431.016 213.458 432.473 213.458C 433.964 213.458 435.222 213.971 436.249 214.998C 437.308 215.991 437.838 217.249 437.838 218.772C 437.838 220.229 437.308 221.471 436.249 222.497C 435.222 223.523 433.964 224.037 432.473 224.037ZM 436.447 287.807L 428.301 287.807L 428.301 236.95L 436.447 236.95L 436.447 287.807Z"/>
<path id="path51_fill" d="M 461.086 285.671C 461.086 294.015 459.397 300.438 456.019 304.941C 452.675 309.477 447.873 311.745 441.614 311.745C 439.295 311.745 437.043 311.216 434.858 310.156L 434.858 302.557C 437.308 304.047 439.627 304.792 441.812 304.792C 449.231 304.792 452.94 298.866 452.94 287.012L 452.94 236.95L 461.086 236.95L 461.086 285.671ZM 457.112 224.037C 455.655 224.037 454.413 223.54 453.387 222.547C 452.36 221.553 451.847 220.295 451.847 218.772C 451.847 217.249 452.36 215.991 453.387 214.998C 454.413 213.971 455.655 213.458 457.112 213.458C 458.603 213.458 459.861 213.971 460.888 214.998C 461.947 215.991 462.477 217.249 462.477 218.772C 462.477 220.229 461.947 221.471 460.888 222.497C 459.861 223.523 458.603 224.037 457.112 224.037Z"/>
<path id="path52_fill" d="M 519.803 287.807L 508.377 287.807L 485.924 263.372L 485.725 263.372L 485.725 287.807L 477.579 287.807L 477.579 212.514L 485.725 212.514L 485.725 260.243L 485.924 260.243L 507.284 236.95L 517.965 236.95L 494.369 261.484L 519.803 287.807Z"/>
<path id="path53_fill" d="M 536.295 287.807L 528.148 287.807L 528.148 212.514L 536.295 212.514L 536.295 287.807Z"/>
<path id="path54_fill" d="M 625.015 287.807L 616.868 287.807L 616.868 258.604C 616.868 252.975 615.991 248.902 614.235 246.386C 612.513 243.87 609.599 242.611 605.493 242.611C 602.015 242.611 599.051 244.201 596.601 247.379C 594.183 250.558 592.974 254.366 592.974 258.802L 592.974 287.807L 584.828 287.807L 584.828 257.61C 584.828 247.611 580.969 242.611 573.253 242.611C 569.677 242.611 566.729 244.118 564.411 247.131C 562.093 250.111 560.934 254.001 560.934 258.802L 560.934 287.807L 552.787 287.807L 552.787 236.95L 560.934 236.95L 560.934 244.995L 561.132 244.995C 564.742 238.837 570.008 235.758 576.929 235.758C 580.406 235.758 583.437 236.734 586.02 238.688C 588.603 240.608 590.375 243.141 591.335 246.287C 595.11 239.267 600.74 235.758 608.225 235.758C 619.418 235.758 625.015 242.661 625.015 256.468L 625.015 287.807Z"/>
<path id="path55_fill" d="M 682.638 287.807L 674.492 287.807L 674.492 258.802C 674.492 248.008 670.551 242.611 662.669 242.611C 658.595 242.611 655.218 244.151 652.535 247.23C 649.886 250.276 648.561 254.134 648.561 258.802L 648.561 287.807L 640.414 287.807L 640.414 236.95L 648.561 236.95L 648.561 245.393L 648.76 245.393C 652.601 238.969 658.165 235.758 665.451 235.758C 671.014 235.758 675.27 237.562 678.217 241.171C 681.165 244.747 682.638 249.929 682.638 256.716L 682.638 287.807Z"/>
<path id="path56_fill" d="M 719.299 288.999C 711.781 288.999 705.77 286.631 701.267 281.897C 696.796 277.129 694.56 270.821 694.56 262.974C 694.56 254.432 696.895 247.76 701.565 242.959C 706.234 238.158 712.543 235.758 720.491 235.758C 728.075 235.758 733.986 238.092 738.225 242.76C 742.497 247.429 744.633 253.902 744.633 262.18C 744.633 270.292 742.331 276.798 737.728 281.698C 733.158 286.565 727.015 288.999 719.299 288.999ZM 719.895 242.611C 714.662 242.611 710.523 244.399 707.476 247.975C 704.429 251.518 702.906 256.418 702.906 262.676C 702.906 268.702 704.446 273.454 707.526 276.93C 710.606 280.407 714.729 282.145 719.895 282.145C 725.16 282.145 729.201 280.44 732.016 277.029C 734.864 273.619 736.288 268.768 736.288 262.478C 736.288 256.12 734.864 251.22 732.016 247.777C 729.201 244.333 725.16 242.611 719.895 242.611Z"/>
<path id="path57_fill" d="M 765.993 280.456L 765.795 280.456L 765.795 311.199L 757.648 311.199L 757.648 236.95L 765.795 236.95L 765.795 245.889L 765.993 245.889C 770.001 239.135 775.862 235.758 783.579 235.758C 790.136 235.758 795.252 238.042 798.928 242.611C 802.604 247.148 804.442 253.24 804.442 260.888C 804.442 269.398 802.372 276.218 798.233 281.35C 794.093 286.449 788.43 288.999 781.244 288.999C 774.654 288.999 769.57 286.151 765.993 280.456ZM 765.795 259.945L 765.795 267.047C 765.795 271.252 767.153 274.828 769.868 277.774C 772.617 280.688 776.094 282.145 780.3 282.145C 785.234 282.145 789.093 280.258 791.874 276.483C 794.689 272.709 796.097 267.461 796.097 260.739C 796.097 255.077 794.789 250.641 792.172 247.429C 789.556 244.217 786.013 242.611 781.542 242.611C 776.806 242.611 772.998 244.267 770.117 247.578C 767.235 250.856 765.795 254.978 765.795 259.945Z"/>
<path id="path58_fill" d="M 860.873 311.199L 852.727 311.199L 852.727 279.066L 852.528 279.066C 848.984 285.688 843.189 288.999 835.142 288.999C 828.75 288.999 823.617 286.731 819.742 282.195C 815.901 277.625 813.98 271.417 813.98 263.57C 813.98 255.127 816.099 248.389 820.338 243.356C 824.577 238.291 830.273 235.758 837.427 235.758C 844.381 235.758 849.415 238.506 852.528 244.002L 852.727 244.002L 852.727 236.95L 860.873 236.95L 860.873 311.199ZM 852.727 264.911L 852.727 257.511C 852.727 253.339 851.352 249.813 848.604 246.932C 845.888 244.052 842.427 242.611 838.221 242.611C 833.32 242.611 829.445 244.433 826.597 248.075C 823.749 251.684 822.325 256.783 822.325 263.372C 822.325 269.232 823.7 273.834 826.448 277.178C 829.197 280.489 832.741 282.145 837.079 282.145C 841.848 282.145 845.64 280.523 848.455 277.278C 851.303 274 852.727 269.878 852.727 264.911Z"/>
<path id="path59_fill" d="M 918.497 287.807L 910.35 287.807L 910.35 279.761L 910.151 279.761C 906.773 285.92 901.541 288.999 894.454 288.999C 882.333 288.999 876.273 281.781 876.273 267.345L 876.273 236.95L 884.37 236.95L 884.37 266.053C 884.37 276.781 888.476 282.145 896.689 282.145C 900.663 282.145 903.925 280.688 906.475 277.774C 909.058 274.828 910.35 270.987 910.35 266.252L 910.35 236.95L 918.497 236.95L 918.497 287.807Z"/>
<path id="path60_fill" d="M 961.516 245.194C 960.092 244.101 958.038 243.555 955.356 243.555C 951.879 243.555 948.964 245.194 946.613 248.472C 944.295 251.75 943.136 256.22 943.136 261.882L 943.136 287.807L 934.989 287.807L 934.989 236.95L 943.136 236.95L 943.136 247.429L 943.334 247.429C 944.493 243.853 946.265 241.072 948.65 239.085C 951.034 237.066 953.7 236.056 956.647 236.056C 958.767 236.056 960.39 236.287 961.516 236.751L 961.516 245.194Z"/>
<path id="path61_fill" d="M 967.278 285.969L 967.278 277.228C 971.716 280.506 976.6 282.145 981.932 282.145C 989.085 282.145 992.662 279.761 992.662 274.993C 992.662 273.636 992.347 272.493 991.718 271.566C 991.122 270.606 990.294 269.762 989.234 269.033C 988.208 268.305 986.982 267.659 985.558 267.096C 984.168 266.5 982.661 265.888 981.038 265.259C 978.786 264.365 976.799 263.471 975.077 262.577C 973.388 261.65 971.964 260.623 970.805 259.498C 969.679 258.339 968.818 257.031 968.222 255.574C 967.659 254.117 967.377 252.412 967.377 250.459C 967.377 248.075 967.924 245.972 969.017 244.151C 970.109 242.297 971.567 240.757 973.388 239.532C 975.209 238.274 977.279 237.33 979.597 236.701C 981.949 236.072 984.366 235.758 986.85 235.758C 991.255 235.758 995.195 236.519 998.673 238.042L 998.673 246.287C 994.93 243.837 990.625 242.611 985.757 242.611C 984.234 242.611 982.859 242.794 981.634 243.158C 980.409 243.489 979.349 243.969 978.455 244.598C 977.594 245.227 976.915 245.989 976.418 246.883C 975.955 247.744 975.723 248.704 975.723 249.763C 975.723 251.088 975.955 252.197 976.418 253.091C 976.915 253.985 977.627 254.779 978.554 255.475C 979.481 256.17 980.607 256.799 981.932 257.362C 983.257 257.925 984.764 258.537 986.453 259.2C 988.705 260.061 990.725 260.954 992.513 261.882C 994.301 262.776 995.825 263.802 997.083 264.961C 998.342 266.087 999.302 267.394 999.964 268.884C 1000.66 270.374 1001.01 272.146 1001.01 274.199C 1001.01 276.715 1000.44 278.9 999.318 280.754C 998.226 282.609 996.752 284.148 994.897 285.373C 993.043 286.598 990.907 287.509 988.489 288.105C 986.072 288.701 983.538 288.999 980.889 288.999C 975.656 288.999 971.119 287.989 967.278 285.969Z"/>
<path id="path62_fill" d="M 30.749 395.008C 28.8282 396.067 26.2948 396.597 23.1487 396.597C 14.2403 396.597 9.78604 391.63 9.78604 381.697L 9.78604 351.6L 1.04318 351.6L 1.04318 344.647L 9.78604 344.647L 9.78604 332.231L 17.9328 329.599L 17.9328 344.647L 30.749 344.647L 30.749 351.6L 17.9328 351.6L 17.9328 380.257C 17.9328 383.667 18.5123 386.101 19.6714 387.558C 20.8305 389.015 22.7513 389.743 25.4338 389.743C 27.487 389.743 29.2588 389.18 30.749 388.055L 30.749 395.008Z"/>
<path id="path63_fill" d="M 82.7591 395.504L 74.6123 395.504L 74.6123 387.459L 74.4136 387.459C 71.0357 393.617 65.8032 396.696 58.7162 396.696C 46.5955 396.696 40.5351 389.478 40.5351 375.042L 40.5351 344.647L 48.6321 344.647L 48.6321 373.751C 48.6321 384.479 52.7386 389.842 60.9516 389.842C 64.9256 389.842 68.1877 388.386 70.7377 385.472C 73.3208 382.525 74.6123 378.684 74.6123 373.95L 74.6123 344.647L 82.7591 344.647L 82.7591 395.504Z"/>
<path id="path64_fill" d="M 139.24 344.647L 118.972 395.504L 110.975 395.504L 91.7006 344.647L 100.642 344.647L 113.558 381.598C 114.518 384.313 115.114 386.68 115.346 388.7L 115.545 388.7C 115.876 386.151 116.406 383.85 117.134 381.797L 130.646 344.647L 139.24 344.647Z"/>
<path id="path65_fill" d="M 212.114 344.647L 196.863 395.504L 188.419 395.504L 177.937 359.1C 177.54 357.709 177.275 356.136 177.142 354.382L 176.944 354.382C 176.844 355.573 176.496 357.113 175.9 359L 164.525 395.504L 156.378 395.504L 140.979 344.647L 149.523 344.647L 160.054 382.889C 160.385 384.048 160.617 385.571 160.749 387.459L 161.147 387.459C 161.246 386.002 161.544 384.445 162.041 382.79L 173.764 344.647L 181.216 344.647L 191.747 382.989C 192.078 384.214 192.326 385.737 192.492 387.558L 192.889 387.558C 192.956 386.267 193.237 384.743 193.734 382.989L 204.066 344.647L 212.114 344.647Z"/>
<path id="path66_fill" d="M 258.709 344.647L 241.621 370.374L 258.411 395.504L 248.923 395.504L 238.938 379.015C 238.309 377.989 237.564 376.698 236.703 375.142L 236.504 375.142C 236.339 375.44 235.56 376.731 234.169 379.015L 223.986 395.504L 214.597 395.504L 231.934 370.572L 215.343 344.647L 224.831 344.647L 234.666 362.03C 235.395 363.321 236.107 364.646 236.802 366.003L 237.001 366.003L 249.718 344.647L 258.709 344.647Z"/>
<path id="path67_fill" d="M 308.732 344.647L 285.335 403.649C 281.162 414.178 275.301 419.443 267.75 419.443C 265.631 419.443 263.859 419.228 262.435 418.797L 262.435 411.496C 264.19 412.092 265.796 412.39 267.253 412.39C 271.36 412.39 274.44 409.94 276.493 405.04L 280.566 395.405L 260.696 344.647L 269.737 344.647L 283.497 383.783C 283.663 384.28 284.01 385.571 284.54 387.657L 284.838 387.657C 285.004 386.863 285.335 385.604 285.832 383.883L 300.287 344.647L 308.732 344.647Z"/>
<path id="path68_fill" d="M 352.993 346.981L 322.89 388.551L 352.695 388.551L 352.695 395.504L 310.918 395.504L 310.918 392.971L 341.021 351.6L 313.749 351.6L 313.749 344.647L 352.993 344.647L 352.993 346.981Z"/>
<path id="path69_fill" d="M 34.8721 503.202L 26.7253 503.202L 26.7253 441.667C 26.0961 442.296 25.1688 443.024 23.9435 443.852C 22.7513 444.647 21.3935 445.441 19.8701 446.236C 18.3799 447.03 16.7903 447.775 15.1013 448.471C 13.4455 449.166 11.8227 449.712 10.2331 450.11L 10.2331 441.865C 12.0214 441.369 13.9091 440.706 15.8961 439.879C 17.9162 439.018 19.8867 438.074 21.8075 437.048C 23.7614 435.988 25.5994 434.896 27.3214 433.77C 29.0435 432.611 30.5338 431.485 31.7922 430.393L 34.8721 430.393L 34.8721 503.202Z"/>
<path id="path70_fill" d="M 92.098 450.656C 92.098 448.471 91.7503 446.567 91.0549 444.945C 90.3925 443.322 89.4653 441.981 88.2731 440.922C 87.114 439.829 85.7396 439.018 84.15 438.488C 82.5604 437.958 80.8383 437.693 78.9838 437.693C 77.3942 437.693 75.8377 437.909 74.3143 438.339C 72.7909 438.769 71.3006 439.365 69.8435 440.127C 68.4195 440.889 67.0286 441.799 65.6708 442.859C 64.3461 443.918 63.1042 445.093 61.9451 446.385L 61.9451 437.644C 64.2302 435.425 66.7802 433.737 69.5951 432.578C 72.4432 431.386 75.9039 430.79 79.9773 430.79C 82.8916 430.79 85.5906 431.22 88.0743 432.081C 90.5581 432.909 92.7107 434.134 94.5321 435.756C 96.3536 437.379 97.7776 439.382 98.8042 441.766C 99.864 444.15 100.394 446.881 100.394 449.961C 100.394 452.775 100.063 455.325 99.4003 457.609C 98.7711 459.894 97.7942 462.046 96.4695 464.066C 95.1779 466.085 93.5386 468.022 91.5516 469.876C 89.5646 471.731 87.2299 473.618 84.5474 475.538C 81.2026 477.922 78.4373 479.958 76.2516 481.647C 74.099 483.336 72.3769 484.925 71.0854 486.415C 69.8269 487.872 68.9328 489.345 68.4029 490.835C 67.9062 492.292 67.6578 493.981 67.6578 495.901L 103.126 495.901L 103.126 503.202L 59.1633 503.202L 59.1633 499.676C 59.1633 496.629 59.4945 493.947 60.1568 491.63C 60.8192 489.312 61.912 487.11 63.4354 485.024C 64.9588 482.938 66.9458 480.852 69.3964 478.766C 71.8802 476.681 74.9104 474.33 78.487 471.714C 81.0701 469.86 83.2227 468.088 84.9448 466.4C 86.7 464.711 88.1075 463.023 89.1672 461.334C 90.2269 459.645 90.9721 457.94 91.4026 456.219C 91.8662 454.464 92.098 452.609 92.098 450.656Z"/>
<path id="path71_fill" d="M 155.931 483.038C 155.931 486.249 155.318 489.18 154.093 491.828C 152.901 494.444 151.195 496.696 148.976 498.583C 146.791 500.437 144.158 501.877 141.078 502.904C 137.998 503.93 134.604 504.443 130.894 504.443C 124.106 504.443 118.707 503.152 114.7 500.57L 114.7 491.828C 119.502 495.603 125 497.49 131.193 497.49C 133.676 497.49 135.912 497.176 137.899 496.547C 139.919 495.918 141.641 495.007 143.065 493.815C 144.522 492.623 145.631 491.183 146.393 489.494C 147.188 487.806 147.585 485.902 147.585 483.783C 147.585 474.479 140.962 469.827 127.715 469.827L 121.804 469.827L 121.804 462.923L 127.417 462.923C 139.141 462.923 145.002 458.553 145.002 449.812C 145.002 441.733 140.531 437.693 131.59 437.693C 126.556 437.693 121.837 439.382 117.432 442.759L 117.432 434.862C 121.969 432.147 127.368 430.79 133.627 430.79C 136.607 430.79 139.306 431.204 141.724 432.032C 144.141 432.859 146.211 434.018 147.933 435.508C 149.655 436.998 150.98 438.786 151.907 440.872C 152.868 442.958 153.348 445.259 153.348 447.775C 153.348 457.146 148.612 463.172 139.141 465.854L 139.141 466.052C 141.558 466.317 143.794 466.913 145.847 467.84C 147.9 468.734 149.672 469.91 151.162 471.366C 152.652 472.823 153.811 474.545 154.639 476.532C 155.5 478.485 155.931 480.654 155.931 483.038Z"/>
<path id="path72_fill" d="M 205.656 431.982L 205.656 479.015L 214.796 479.015L 214.796 486.465L 205.656 486.465L 205.656 503.202L 197.608 503.202L 197.608 486.465L 164.127 486.465L 164.127 479.412C 167.24 475.902 170.386 472.161 173.566 468.188C 176.745 464.181 179.775 460.125 182.656 456.02C 185.57 451.914 188.253 447.825 190.704 443.753C 193.187 439.647 195.274 435.723 196.963 431.982L 205.656 431.982ZM 173.317 479.015L 197.608 479.015L 197.608 444.15C 195.125 448.487 192.773 452.361 190.555 455.772C 188.336 459.182 186.216 462.278 184.196 465.059C 182.209 467.84 180.305 470.357 178.483 472.608C 176.662 474.859 174.94 476.995 173.317 479.015Z"/>
<path id="path73_fill" d="M 266.409 481.448C 266.409 484.925 265.813 488.07 264.62 490.885C 263.428 493.699 261.723 496.116 259.504 498.136C 257.318 500.156 254.669 501.712 251.556 502.804C 248.443 503.897 244.982 504.443 241.174 504.443C 234.55 504.443 229.632 503.45 226.42 501.463L 226.42 492.822C 231.255 495.934 236.206 497.49 241.273 497.49C 243.856 497.49 246.174 497.109 248.228 496.348C 250.314 495.586 252.086 494.527 253.543 493.169C 255 491.812 256.109 490.173 256.871 488.253C 257.666 486.332 258.063 484.23 258.063 481.945C 258.063 477.31 256.507 473.684 253.394 471.068C 250.281 468.42 245.76 467.095 239.832 467.095C 238.872 467.095 237.862 467.112 236.802 467.145C 235.743 467.178 234.683 467.228 233.623 467.294C 232.563 467.327 231.52 467.377 230.494 467.443C 229.5 467.509 228.589 467.592 227.761 467.691L 230.195 431.982L 263.13 431.982L 263.13 439.332L 237.249 439.332L 235.809 460.241C 236.869 460.175 237.994 460.125 239.187 460.092C 240.379 460.026 241.439 459.993 242.366 459.993C 246.141 459.993 249.519 460.49 252.5 461.483C 255.48 462.476 257.997 463.9 260.05 465.754C 262.137 467.575 263.71 469.827 264.769 472.509C 265.862 475.157 266.409 478.137 266.409 481.448Z"/>
<path id="path74_fill" d="M 323.883 480.604C 323.883 484.081 323.32 487.276 322.194 490.189C 321.068 493.103 319.512 495.62 317.525 497.739C 315.538 499.858 313.17 501.513 310.421 502.705C 307.672 503.864 304.692 504.443 301.48 504.443C 297.903 504.443 294.691 503.698 291.843 502.208C 289.028 500.719 286.627 498.583 284.64 495.802C 282.686 492.987 281.195 489.56 280.169 485.521C 279.142 481.482 278.629 476.929 278.629 471.863C 278.629 465.671 279.308 460.059 280.666 455.027C 282.056 449.961 284.01 445.64 286.527 442.064C 289.077 438.455 292.141 435.674 295.717 433.72C 299.294 431.767 303.284 430.79 307.689 430.79C 312.59 430.79 316.531 431.469 319.512 432.826L 319.512 440.524C 315.836 438.637 311.961 437.693 307.888 437.693C 304.708 437.693 301.844 438.405 299.294 439.829C 296.744 441.253 294.558 443.272 292.737 445.888C 290.915 448.471 289.508 451.6 288.514 455.275C 287.554 458.95 287.074 463.039 287.074 467.542L 287.272 467.542C 290.551 461.615 295.966 458.652 303.516 458.652C 306.629 458.652 309.428 459.182 311.911 460.241C 314.428 461.301 316.564 462.807 318.319 464.761C 320.108 466.681 321.482 468.982 322.443 471.664C 323.403 474.346 323.883 477.326 323.883 480.604ZM 315.538 481.647C 315.538 479.164 315.223 476.929 314.594 474.942C 313.965 472.956 313.054 471.267 311.862 469.876C 310.703 468.486 309.262 467.426 307.54 466.698C 305.818 465.936 303.864 465.556 301.678 465.556C 299.658 465.556 297.787 465.936 296.065 466.698C 294.343 467.459 292.853 468.502 291.594 469.827C 290.336 471.118 289.342 472.641 288.614 474.396C 287.918 476.118 287.57 477.955 287.57 479.909C 287.57 482.359 287.918 484.66 288.614 486.812C 289.309 488.931 290.286 490.785 291.544 492.375C 292.803 493.964 294.293 495.222 296.015 496.149C 297.77 497.043 299.708 497.49 301.827 497.49C 303.881 497.49 305.752 497.109 307.441 496.348C 309.13 495.553 310.57 494.461 311.762 493.07C 312.955 491.679 313.882 490.024 314.544 488.104C 315.206 486.15 315.538 483.998 315.538 481.647Z"/>
<path id="path75_fill" d="M 378.129 436.7C 377.036 438.587 375.711 440.938 374.155 443.753C 372.631 446.567 371.008 449.729 369.286 453.239C 367.564 456.748 365.809 460.523 364.021 464.562C 362.232 468.602 360.56 472.774 359.004 477.078C 357.447 481.382 356.073 485.753 354.881 490.189C 353.721 494.593 352.877 498.931 352.347 503.202L 343.604 503.202C 344.2 498.964 345.111 494.643 346.336 490.239C 347.595 485.802 349.002 481.465 350.559 477.227C 352.148 472.956 353.821 468.85 355.576 464.91C 357.331 460.97 359.037 457.344 360.693 454.033C 362.348 450.722 363.855 447.809 365.213 445.292C 366.604 442.743 367.713 440.756 368.541 439.332L 332.825 439.332L 332.825 431.982L 378.129 431.982L 378.129 436.7Z"/>
<path id="path76_fill" d="M 387.269 483.336C 387.269 481.448 387.567 479.561 388.163 477.674C 388.759 475.753 389.604 473.966 390.696 472.31C 391.822 470.655 393.197 469.148 394.819 467.79C 396.475 466.433 398.346 465.357 400.433 464.562C 397.353 462.841 394.902 460.639 393.081 457.957C 391.259 455.242 390.349 452.245 390.349 448.967C 390.349 446.352 390.845 443.935 391.839 441.716C 392.866 439.498 394.273 437.578 396.061 435.955C 397.85 434.333 399.969 433.075 402.42 432.181C 404.87 431.253 407.52 430.79 410.368 430.79C 413.249 430.79 415.915 431.253 418.366 432.181C 420.816 433.108 422.936 434.382 424.724 436.005C 426.512 437.627 427.903 439.548 428.897 441.766C 429.89 443.984 430.387 446.385 430.387 448.967C 430.387 452.245 429.476 455.242 427.655 457.957C 425.833 460.639 423.416 462.841 420.402 464.562C 422.456 465.357 424.293 466.433 425.916 467.79C 427.539 469.148 428.897 470.655 429.99 472.31C 431.116 473.966 431.977 475.753 432.573 477.674C 433.169 479.561 433.467 481.448 433.467 483.336C 433.467 486.448 432.904 489.296 431.778 491.878C 430.652 494.461 429.062 496.679 427.009 498.533C 424.989 500.354 422.555 501.778 419.707 502.804C 416.892 503.831 413.779 504.344 410.368 504.344C 406.99 504.344 403.893 503.831 401.079 502.804C 398.264 501.778 395.83 500.354 393.776 498.533C 391.723 496.679 390.117 494.461 388.958 491.878C 387.832 489.296 387.269 486.448 387.269 483.336ZM 396.111 482.64C 396.111 484.859 396.442 486.862 397.105 488.65C 397.8 490.438 398.76 491.961 399.986 493.219C 401.244 494.477 402.751 495.454 404.506 496.149C 406.294 496.812 408.265 497.143 410.418 497.143C 412.504 497.143 414.425 496.795 416.18 496.1C 417.935 495.404 419.442 494.428 420.7 493.169C 421.992 491.911 422.985 490.388 423.681 488.6C 424.409 486.812 424.774 484.826 424.774 482.64C 424.774 480.654 424.426 478.8 423.731 477.078C 423.068 475.323 422.108 473.783 420.849 472.459C 419.591 471.135 418.084 470.092 416.329 469.33C 414.574 468.569 412.603 468.188 410.418 468.188C 408.364 468.188 406.46 468.552 404.705 469.28C 402.983 469.976 401.476 470.969 400.184 472.26C 398.926 473.519 397.932 475.042 397.204 476.83C 396.475 478.584 396.111 480.521 396.111 482.64ZM 398.644 449.613C 398.644 451.302 398.943 452.874 399.539 454.331C 400.168 455.755 401.012 457.013 402.072 458.106C 403.165 459.165 404.423 460.01 405.847 460.639C 407.271 461.235 408.795 461.533 410.418 461.533C 412.04 461.533 413.564 461.218 414.988 460.589C 416.445 459.96 417.703 459.116 418.763 458.056C 419.823 456.963 420.667 455.705 421.296 454.282C 421.926 452.825 422.24 451.269 422.24 449.613C 422.24 447.891 421.926 446.302 421.296 444.845C 420.7 443.388 419.872 442.13 418.813 441.071C 417.753 440.011 416.494 439.183 415.037 438.587C 413.613 437.958 412.073 437.644 410.418 437.644C 408.662 437.644 407.056 437.958 405.599 438.587C 404.175 439.216 402.933 440.077 401.873 441.17C 400.847 442.229 400.052 443.488 399.489 444.945C 398.926 446.401 398.644 447.958 398.644 449.613Z"/>
<path id="path77_fill" d="M 487.514 463.321C 487.514 469.843 486.868 475.654 485.576 480.753C 484.285 485.819 482.397 490.123 479.913 493.666C 477.43 497.176 474.399 499.858 470.823 501.712C 467.246 503.533 463.173 504.443 458.603 504.443C 453.9 504.443 449.76 503.616 446.184 501.96L 446.184 494.163C 450.125 496.381 454.331 497.49 458.801 497.49C 462.014 497.49 464.878 496.828 467.395 495.504C 469.945 494.179 472.098 492.259 473.853 489.742C 475.608 487.193 476.949 484.064 477.877 480.356C 478.804 476.647 479.268 472.393 479.268 467.592L 479.069 467.592C 476.022 473.717 470.723 476.78 463.173 476.78C 460.126 476.78 457.328 476.25 454.778 475.191C 452.228 474.098 450.025 472.575 448.171 470.621C 446.316 468.635 444.876 466.284 443.849 463.569C 442.822 460.854 442.309 457.857 442.309 454.58C 442.309 451.07 442.872 447.858 443.998 444.945C 445.157 442.031 446.747 439.531 448.767 437.445C 450.82 435.326 453.238 433.687 456.019 432.528C 458.834 431.369 461.898 430.79 465.209 430.79C 468.786 430.79 471.949 431.518 474.697 432.975C 477.479 434.399 479.814 436.501 481.702 439.283C 483.589 442.031 485.03 445.425 486.023 449.464C 487.017 453.503 487.514 458.122 487.514 463.321ZM 478.721 456.02C 478.721 453.272 478.357 450.772 477.628 448.52C 476.933 446.269 475.956 444.349 474.697 442.759C 473.439 441.137 471.932 439.895 470.177 439.034C 468.455 438.14 466.567 437.693 464.514 437.693C 462.56 437.693 460.739 438.091 459.05 438.885C 457.361 439.647 455.887 440.74 454.629 442.163C 453.403 443.554 452.426 445.226 451.698 447.179C 451.002 449.1 450.655 451.202 450.655 453.487C 450.655 456.003 450.986 458.255 451.648 460.241C 452.343 462.228 453.32 463.917 454.579 465.307C 455.837 466.665 457.344 467.708 459.099 468.436C 460.888 469.165 462.858 469.529 465.011 469.529C 466.898 469.529 468.67 469.181 470.326 468.486C 472.015 467.757 473.472 466.797 474.697 465.605C 475.956 464.38 476.933 462.956 477.628 461.334C 478.357 459.679 478.721 457.907 478.721 456.02Z"/>
<path id="path78_fill" d="M 543.15 467.294C 543.15 473.254 542.604 478.535 541.511 483.137C 540.451 487.739 538.894 491.63 536.841 494.808C 534.821 497.954 532.321 500.354 529.34 502.01C 526.393 503.632 523.031 504.443 519.256 504.443C 515.68 504.443 512.484 503.665 509.669 502.109C 506.887 500.52 504.536 498.219 502.615 495.206C 500.694 492.193 499.237 488.501 498.243 484.13C 497.25 479.727 496.753 474.694 496.753 469.032C 496.753 462.807 497.267 457.311 498.293 452.543C 499.353 447.775 500.893 443.786 502.913 440.574C 504.933 437.329 507.433 434.896 510.414 433.273C 513.428 431.618 516.872 430.79 520.746 430.79C 535.682 430.79 543.15 442.958 543.15 467.294ZM 534.805 468.088C 534.805 447.825 529.986 437.693 520.349 437.693C 510.182 437.693 505.099 448.007 505.099 468.635C 505.099 487.872 510.083 497.49 520.051 497.49C 529.887 497.49 534.805 487.69 534.805 468.088Z"/>
</defs>
</svg>
