<svg width="1152" height="936" viewBox="0 0 1152 936" version="1.1" xmlns="http://www.w3.org/2000/svg" xmlns:xlink="http://www.w3.org/1999/xlink">
<title>text-block-type-ramp</title>
<desc>Created using Figma</desc>
<g id="Canvas" transform="translate(17449 3136)">
<clipPath id="clip-0" clip-rule="evenodd">
<path d="M -17449 -3136L -16297 -3136L -16297 -2200L -17449 -2200L -17449 -3136Z" fill="#FFFFFF"/>
</clipPath>
<g id="text-block-type-ramp" clip-path="url(#clip-0)">
<path d="M -17449 -3136L -16297 -3136L -16297 -2200L -17449 -2200L -17449 -3136Z" fill="#FFFFFF"/>
<g id="Rectangle 21.11">
<use xlink:href="#path0_fill" transform="translate(-17449 -3135)" fill="#EBEBEB"/>
</g>
<g id="Header">
<use xlink:href="#path1_fill" transform="translate(-17377 -3063.56)"/>
<use xlink:href="#path2_fill" transform="translate(-17377 -3063.56)"/>
<use xlink:href="#path3_fill" transform="translate(-17377 -3063.56)"/>
<use xlink:href="#path4_fill" transform="translate(-17377 -3063.56)"/>
<use xlink:href="#path5_fill" transform="translate(-17377 -3063.56)"/>
<use xlink:href="#path6_fill" transform="translate(-17377 -3063.56)"/>
</g>
<g id="Subheader">
<use xlink:href="#path7_fill" transform="translate(-17382.7 -2890.26)"/>
<use xlink:href="#path8_fill" transform="translate(-17382.7 -2890.26)"/>
<use xlink:href="#path9_fill" transform="translate(-17382.7 -2890.26)"/>
<use xlink:href="#path10_fill" transform="translate(-17382.7 -2890.26)"/>
<use xlink:href="#path11_fill" transform="translate(-17382.7 -2890.26)"/>
<use xlink:href="#path12_fill" transform="translate(-17382.7 -2890.26)"/>
<use xlink:href="#path13_fill" transform="translate(-17382.7 -2890.26)"/>
<use xlink:href="#path14_fill" transform="translate(-17382.7 -2890.26)"/>
<use xlink:href="#path15_fill" transform="translate(-17382.7 -2890.26)"/>
</g>
<g id="Title">
<use xlink:href="#path16_fill" transform="translate(-17381.8 -2743.37)"/>
<use xlink:href="#path17_fill" transform="translate(-17381.8 -2743.37)"/>
<use xlink:href="#path18_fill" transform="translate(-17381.8 -2743.37)"/>
<use xlink:href="#path19_fill" transform="translate(-17381.8 -2743.37)"/>
<use xlink:href="#path20_fill" transform="translate(-17381.8 -2743.37)"/>
</g>
<g id="Subtitle">
<use xlink:href="#path21_fill" transform="translate(-17379.9 -2625.2)"/>
<use xlink:href="#path22_fill" transform="translate(-17379.9 -2625.2)"/>
<use xlink:href="#path23_fill" transform="translate(-17379.9 -2625.2)"/>
<use xlink:href="#path24_fill" transform="translate(-17379.9 -2625.2)"/>
<use xlink:href="#path25_fill" transform="translate(-17379.9 -2625.2)"/>
<use xlink:href="#path26_fill" transform="translate(-17379.9 -2625.2)"/>
<use xlink:href="#path27_fill" transform="translate(-17379.9 -2625.2)"/>
<use xlink:href="#path28_fill" transform="translate(-17379.9 -2625.2)"/>
</g>
<g id="Base">
<use xlink:href="#path29_fill" transform="translate(-17379.6 -2512.19)"/>
<use xlink:href="#path30_fill" transform="translate(-17379.6 -2512.19)"/>
<use xlink:href="#path31_fill" transform="translate(-17379.6 -2512.19)"/>
<use xlink:href="#path32_fill" transform="translate(-17379.6 -2512.19)"/>
</g>
<g id="Body">
<use xlink:href="#path33_fill" transform="translate(-17379.3 -2414.45)"/>
<use xlink:href="#path34_fill" transform="translate(-17379.3 -2414.45)"/>
<use xlink:href="#path35_fill" transform="translate(-17379.3 -2414.45)"/>
<use xlink:href="#path36_fill" transform="translate(-17379.3 -2414.45)"/>
</g>
<g id="Caption">
<use xlink:href="#path37_fill" transform="translate(-17381.9 -2316.92)"/>
<use xlink:href="#path38_fill" transform="translate(-17381.9 -2316.92)"/>
<use xlink:href="#path39_fill" transform="translate(-17381.9 -2316.92)"/>
<use xlink:href="#path40_fill" transform="translate(-17381.9 -2316.92)"/>
<use xlink:href="#path41_fill" transform="translate(-17381.9 -2316.92)"/>
<use xlink:href="#path42_fill" transform="translate(-17381.9 -2316.92)"/>
<use xlink:href="#path43_fill" transform="translate(-17381.9 -2316.92)"/>
</g>
</g>
</g>
<defs>
<path id="path0_fill" d="M 0 0L 1152 0L 1152 965L 0 965L 0 0Z"/>
<path id="path1_fill" d="M 64.3378 105.997L 64.3378 57.8927L 6.92331 57.8927L 6.92331 105.997L 0 105.997L 0 5.73334L 6.92331 5.73334L 6.92331 51.6L 64.3378 51.6L 64.3378 5.73334L 71.1912 5.73334L 71.1912 105.997L 64.3378 105.997Z"/>
<path id="path2_fill" d="M 97.0662 70.4781C 97.0662 80.3133 99.3274 88.0044 103.85 93.5513C 108.419 99.0981 114.666 101.872 122.592 101.872C 130.61 101.872 138.443 98.9117 146.089 92.9919L 146.089 99.8439C 138.676 105.111 130.401 107.745 121.263 107.745C 112.032 107.745 104.572 104.435 98.8845 97.8163C 93.1966 91.1973 90.3527 81.8515 90.3527 69.7789C 90.3527 59.3377 93.3132 50.5512 99.2341 43.4195C 105.202 36.2412 112.941 32.652 122.452 32.652C 131.356 32.652 138.186 35.7751 142.942 42.0212C 147.697 48.2672 150.075 56.7973 150.075 67.6114L 150.075 70.4781L 97.0662 70.4781ZM 143.361 64.6049C 143.082 56.3545 141.1 49.9453 137.417 45.3773C 133.734 40.8092 128.652 38.5252 122.172 38.5252C 115.458 38.5252 109.887 40.7859 105.458 45.3073C 101.076 49.7821 98.3716 56.2147 97.3459 64.6049L 143.361 64.6049Z"/>
<path id="path3_fill" d="M 210.636 105.997L 210.636 91.6635L 210.357 91.6635C 208.072 96.5578 204.739 100.473 200.356 103.41C 196.021 106.3 191.195 107.745 185.88 107.745C 179.074 107.745 173.689 105.834 169.726 102.011C 165.763 98.1892 163.782 93.3648 163.782 87.5382C 163.782 75.0461 172.057 67.4949 188.608 64.8846L 210.636 61.5984C 210.636 46.2163 204.855 38.5252 193.293 38.5252C 185.414 38.5252 177.745 41.6949 170.285 48.0342L 170.285 40.2732C 172.943 38.1756 176.533 36.381 181.055 34.8894C 185.624 33.3978 189.913 32.652 193.923 32.652C 201.289 32.652 206.977 34.9361 210.986 39.5041C 215.042 44.0721 217.07 50.7144 217.07 59.4309L 217.07 105.997L 210.636 105.997ZM 190.916 70.3382C 183.409 71.4103 178.141 73.1583 175.111 75.5821C 172.08 77.9594 170.565 81.8515 170.565 87.2586C 170.565 91.5003 171.964 94.9962 174.761 97.7464C 177.605 100.497 181.545 101.872 186.58 101.872C 193.48 101.872 199.214 99.3312 203.783 94.2504C 208.352 89.1231 210.636 82.5274 210.636 74.4634L 210.636 67.4716L 190.916 70.3382Z"/>
<path id="path4_fill" d="M 289.45 105.997L 289.45 92.9919L 289.171 92.9919C 286.84 97.5133 283.39 101.102 278.821 103.759C 274.252 106.416 269.1 107.745 263.366 107.745C 254.554 107.745 247.351 104.528 241.756 98.096C 236.208 91.6635 233.434 82.7838 233.434 71.4569C 233.434 59.897 236.465 50.5512 242.526 43.4195C 248.633 36.2412 256.535 32.652 266.233 32.652C 276.956 32.652 284.602 37.0569 289.171 45.8667L 289.45 45.8667L 289.45 0L 295.884 0L 295.884 105.997L 289.45 105.997ZM 289.45 62.4374C 289.45 55.7718 287.329 50.1317 283.086 45.5171C 278.891 40.8558 273.226 38.5252 266.093 38.5252C 258.587 38.5252 252.386 41.4152 247.491 47.1951C 242.596 52.9285 240.148 60.8293 240.148 70.8976C 240.148 80.7794 242.339 88.4239 246.722 93.8309C 251.151 99.1914 256.839 101.872 263.785 101.872C 271.944 101.872 278.261 99.3545 282.737 94.3204C 287.212 89.2396 289.45 83.0634 289.45 75.7919L 289.45 62.4374Z"/>
<path id="path5_fill" d="M 320.43 70.4781C 320.43 80.3133 322.692 88.0044 327.214 93.5513C 331.783 99.0981 338.03 101.872 345.956 101.872C 353.975 101.872 361.807 98.9117 369.453 92.9919L 369.453 99.8439C 362.04 105.111 353.765 107.745 344.627 107.745C 335.396 107.745 327.936 104.435 322.249 97.8163C 316.561 91.1973 313.717 81.8515 313.717 69.7789C 313.717 59.3377 316.677 50.5512 322.598 43.4195C 328.566 36.2412 336.305 32.652 345.816 32.652C 354.721 32.652 361.551 35.7751 366.306 42.0212C 371.061 48.2672 373.439 56.7973 373.439 67.6114L 373.439 70.4781L 320.43 70.4781ZM 366.726 64.6049C 366.446 56.3545 364.465 49.9453 360.781 45.3773C 357.098 40.8092 352.017 38.5252 345.536 38.5252C 338.823 38.5252 333.251 40.7859 328.822 45.3073C 324.44 49.7821 321.736 56.2147 320.71 64.6049L 366.726 64.6049Z"/>
<path id="path6_fill" d="M 424.979 41.1122C 422.835 39.574 420.317 38.8049 417.427 38.8049C 411.785 38.8049 407.053 41.7182 403.23 47.5447C 399.407 53.3713 397.496 61.645 397.496 72.3659L 397.496 105.997L 391.202 105.997L 391.202 34.4L 397.496 34.4L 397.496 50.2716L 397.776 50.2716C 399.407 44.8179 401.995 40.5762 405.538 37.5464C 409.081 34.5165 413.184 33.0016 417.846 33.0016C 420.504 33.0016 422.881 33.4212 424.979 34.2602L 424.979 41.1122Z"/>
<path id="path7_fill" d="M 0 75.7098L 0 69.8701C 5.30676 73.2465 10.6824 74.9346 16.127 74.9346C 21.9162 74.9346 26.3098 73.746 29.3078 71.3688C 32.3057 68.9571 33.8047 65.598 33.8047 61.2914C 33.8047 57.5016 32.7882 54.487 30.7551 52.2475C 28.7564 49.9736 24.3973 46.8901 17.6777 42.997C 10.1655 38.6215 5.41014 34.9695 3.41149 32.041C 1.41284 29.0781 0.413514 25.6673 0.413514 21.8086C 0.413514 16.5718 2.44662 12.1274 6.51284 8.47537C 10.5791 4.82338 16.0064 2.99739 22.7949 2.99739C 27.2057 2.99739 31.6166 3.73812 36.0274 5.21958L 36.0274 10.5942C 31.6855 8.6304 27.0507 7.6485 22.123 7.6485C 17.0919 7.6485 13.0946 8.92325 10.1311 11.4728C 7.20203 14.0223 5.7375 17.2608 5.7375 21.1884C 5.7375 24.9782 6.73682 27.9928 8.73547 30.2322C 10.7686 32.4717 15.1277 35.5207 21.8128 39.3794C 28.7392 43.307 33.3395 46.804 35.6139 49.8703C 37.9226 52.9021 39.077 56.3991 39.077 60.3611C 39.077 66.0458 37.0956 70.6797 33.1328 74.2628C 29.2044 77.8459 23.6392 79.6374 16.4372 79.6374C 13.8872 79.6374 10.9409 79.2412 7.59831 78.4488C 4.2902 77.6564 1.75743 76.7434 0 75.7098Z"/>
<path id="path8_fill" d="M 88.8537 78.3455L 88.8537 68.7331L 88.647 68.7331C 84.9598 76.0027 79.274 79.6374 71.5895 79.6374C 59.0807 79.6374 52.8264 71.765 52.8264 56.0201L 52.8264 25.4261L 57.6334 25.4261L 57.6334 54.8315C 57.6334 61.9976 58.8051 67.2 61.1483 70.4386C 63.526 73.6771 67.2476 75.2964 72.3132 75.2964C 77.2409 75.2964 81.2209 73.4876 84.2534 69.8701C 87.3203 66.2526 88.8537 61.4292 88.8537 55.4L 88.8537 25.4261L 93.6091 25.4261L 93.6091 78.3455L 88.8537 78.3455Z"/>
<path id="path9_fill" d="M 115.525 68.9399L 115.319 68.9399L 115.319 78.3455L 110.563 78.3455L 110.563 0L 115.319 0L 115.319 36.3304L 115.525 36.3304C 117.421 32.4372 120.126 29.4398 123.641 27.3382C 127.19 25.2022 131.084 24.1341 135.322 24.1341C 142.042 24.1341 147.28 26.4597 151.036 31.1108C 154.826 35.7275 156.722 42.0151 156.722 49.9736C 156.722 58.828 154.533 65.9942 150.157 71.4721C 145.781 76.9157 140.095 79.6374 133.1 79.6374C 125.174 79.6374 119.316 76.0716 115.525 68.9399ZM 115.319 49.2501L 115.319 55.9167C 115.319 61.2225 116.99 65.7874 120.332 69.6117C 123.675 73.4015 128.069 75.2964 133.513 75.2964C 138.923 75.2964 143.317 72.9881 146.694 68.3714C 150.071 63.7203 151.759 57.6222 151.759 50.077C 151.759 43.4621 150.209 38.208 147.107 34.3149C 144.006 30.4217 139.871 28.4752 134.702 28.4752C 128.534 28.4752 123.761 30.5423 120.384 34.6766C 117.007 38.811 115.319 43.6688 115.319 49.2501Z"/>
<path id="path10_fill" d="M 205.878 78.3455L 205.878 46.6145C 205.878 40.3441 204.741 35.7619 202.467 32.8679C 200.192 29.9394 196.643 28.4752 191.819 28.4752C 187.27 28.4752 183.273 30.2495 179.827 33.7981C 176.381 37.3467 174.658 42.4285 174.658 49.0434L 174.658 78.3455L 169.902 78.3455L 169.902 0L 174.658 0L 174.658 34.935L 174.865 34.935C 179.034 27.7344 185.099 24.1341 193.059 24.1341C 198.779 24.1341 203.139 25.9773 206.136 29.6638C 209.134 33.3502 210.633 38.6387 210.633 45.5293L 210.633 78.3455L 205.878 78.3455Z"/>
<path id="path11_fill" d="M 227.691 52.0925C 227.691 59.362 229.362 65.0467 232.705 69.1466C 236.082 73.2465 240.699 75.2964 246.557 75.2964C 252.484 75.2964 258.274 73.1086 263.925 68.7331L 263.925 73.7977C 258.446 77.6908 252.329 79.6374 245.575 79.6374C 238.752 79.6374 233.239 77.1913 229.035 72.299C 224.831 67.4067 222.729 60.499 222.729 51.5757C 222.729 43.8583 224.917 37.364 229.293 32.0927C 233.704 26.787 239.424 24.1341 246.454 24.1341C 253.036 24.1341 258.084 26.4425 261.599 31.0591C 265.114 35.6758 266.871 41.9806 266.871 49.9736L 266.871 52.0925L 227.691 52.0925ZM 261.909 47.7514C 261.702 41.6533 260.238 36.9161 257.516 33.5397C 254.793 30.1633 251.037 28.4752 246.247 28.4752C 241.285 28.4752 237.167 30.1461 233.894 33.488C 230.654 36.7955 228.656 41.55 227.898 47.7514L 261.909 47.7514Z"/>
<path id="path12_fill" d="M 311.634 78.3455L 311.634 67.7512L 311.427 67.7512C 309.739 71.3688 307.275 74.2628 304.036 76.4333C 300.831 78.5694 297.265 79.6374 293.336 79.6374C 288.305 79.6374 284.325 78.2249 281.396 75.3997C 278.467 72.5746 277.002 69.0088 277.002 64.7022C 277.002 55.4689 283.119 49.8875 295.352 47.9582L 311.634 45.5293C 311.634 34.1599 307.361 28.4752 298.815 28.4752C 292.992 28.4752 287.323 30.8179 281.809 35.5035L 281.809 29.7671C 283.774 28.2168 286.427 26.8903 289.77 25.7878C 293.147 24.6854 296.317 24.1341 299.28 24.1341C 304.725 24.1341 308.929 25.8223 311.893 29.1987C 314.891 32.575 316.39 37.4845 316.39 43.9272L 316.39 78.3455L 311.634 78.3455ZM 297.058 51.9891C 291.51 52.7815 287.616 54.0735 285.376 55.8651C 283.136 57.6222 282.016 60.499 282.016 64.4955C 282.016 67.6307 283.05 70.2146 285.118 72.2473C 287.22 74.28 290.131 75.2964 293.853 75.2964C 298.953 75.2964 303.192 73.4187 306.569 69.6634C 309.946 65.8736 311.634 60.9985 311.634 55.0382L 311.634 49.8703L 297.058 51.9891Z"/>
<path id="path13_fill" d="M 369.888 78.3455L 369.888 68.7331L 369.681 68.7331C 367.958 72.0751 365.408 74.7279 362.031 76.6917C 358.654 78.6555 354.846 79.6374 350.608 79.6374C 344.095 79.6374 338.771 77.2602 334.636 72.5057C 330.535 67.7512 328.485 61.188 328.485 52.816C 328.485 44.2717 330.725 37.364 335.204 32.0927C 339.719 26.787 345.559 24.1341 352.727 24.1341C 360.653 24.1341 366.304 27.3899 369.681 33.9015L 369.888 33.9015L 369.888 0L 374.643 0L 374.643 78.3455L 369.888 78.3455ZM 369.888 46.1494C 369.888 41.2227 368.32 37.0539 365.184 33.6431C 362.083 30.1978 357.896 28.4752 352.624 28.4752C 347.076 28.4752 342.493 30.6112 338.874 34.8834C 335.256 39.121 333.447 44.9608 333.447 52.4026C 333.447 59.7065 335.067 65.3568 338.306 69.3533C 341.579 73.3154 345.783 75.2964 350.918 75.2964C 356.948 75.2964 361.618 73.4359 364.926 69.715C 368.234 65.9597 369.888 61.3947 369.888 56.0201L 369.888 46.1494Z"/>
<path id="path14_fill" d="M 392.786 52.0925C 392.786 59.362 394.457 65.0467 397.8 69.1466C 401.177 73.2465 405.795 75.2964 411.653 75.2964C 417.58 75.2964 423.369 73.1086 429.02 68.7331L 429.02 73.7977C 423.541 77.6908 417.425 79.6374 410.671 79.6374C 403.848 79.6374 398.334 77.1913 394.13 72.299C 389.926 67.4067 387.824 60.499 387.824 51.5757C 387.824 43.8583 390.012 37.364 394.389 32.0927C 398.799 26.787 404.52 24.1341 411.549 24.1341C 418.131 24.1341 423.179 26.4425 426.694 31.0591C 430.209 35.6758 431.967 41.9806 431.967 49.9736L 431.967 52.0925L 392.786 52.0925ZM 427.004 47.7514C 426.798 41.6533 425.333 36.9161 422.611 33.5397C 419.889 30.1633 416.132 28.4752 411.343 28.4752C 406.38 28.4752 402.263 30.1461 398.989 33.488C 395.75 36.7955 393.751 41.55 392.993 47.7514L 427.004 47.7514Z"/>
<path id="path15_fill" d="M 470.061 30.3873C 468.476 29.2503 466.616 28.6819 464.479 28.6819C 460.309 28.6819 456.812 30.8352 453.986 35.1418C 451.16 39.4483 449.748 45.5637 449.748 53.4878L 449.748 78.3455L 445.096 78.3455L 445.096 25.4261L 449.748 25.4261L 449.748 37.1572L 449.954 37.1572C 451.16 33.1263 453.073 29.9911 455.692 27.7517C 458.311 25.5122 461.343 24.3925 464.789 24.3925C 466.753 24.3925 468.511 24.7026 470.061 25.3227L 470.061 30.3873Z"/>
<path id="path16_fill" d="M 19.9216 7.44178L 19.9216 55.3027L 15.0689 55.3027L 15.0689 7.44178L 0 7.44178L 0 2.99131L 35.027 2.99131L 35.027 7.44178L 19.9216 7.44178Z"/>
<path id="path17_fill" d="M 45.1703 8.49969C 44.2703 8.49969 43.4919 8.18353 42.8351 7.55122C 42.1784 6.91891 41.85 6.11637 41.85 5.14359C 41.85 4.19512 42.1784 3.4169 42.8351 2.80891C 43.4919 2.1766 44.2703 1.86045 45.1703 1.86045C 45.6324 1.86045 46.0703 1.94556 46.4838 2.1158C 46.8973 2.26172 47.25 2.48059 47.5419 2.77243C 47.8581 3.06426 48.1013 3.4169 48.2716 3.83033C 48.4662 4.21944 48.5635 4.6572 48.5635 5.14359C 48.5635 5.60566 48.4784 6.04341 48.3081 6.45684C 48.1378 6.87028 47.8946 7.23507 47.5784 7.55122C 47.2622 7.84306 46.8973 8.07409 46.4838 8.24433C 46.0946 8.41457 45.6568 8.49969 45.1703 8.49969ZM 42.8716 55.3027L 42.8716 17.9478L 47.5419 17.9478L 47.5419 55.3027L 42.8716 55.3027Z"/>
<path id="path18_fill" d="M 75.6365 54.8649C 74.0311 55.6675 72.2797 56.0687 70.3824 56.0687C 64.35 56.0687 61.3338 52.591 61.3338 45.6357L 61.3338 22.0335L 54.7662 22.0335L 54.7662 17.9478L 61.3338 17.9478L 61.3338 8.53616L 66.0041 7.00403L 66.0041 17.9478L 75.6365 17.9478L 75.6365 22.0335L 66.0041 22.0335L 66.0041 44.9061C 66.0041 47.4353 66.4176 49.2593 67.2446 50.378C 68.0716 51.4967 69.4703 52.056 71.4405 52.056C 72.9 52.056 74.2986 51.6183 75.6365 50.7428L 75.6365 54.8649Z"/>
<path id="path19_fill" d="M 83.3716 55.3027L 83.3716 0L 88.0419 0L 88.0419 55.3027L 83.3716 55.3027Z"/>
<path id="path20_fill" d="M 102.308 37.4643C 102.332 39.7503 102.636 41.8053 103.22 43.6293C 103.804 45.4533 104.643 46.9975 105.738 48.2622C 106.832 49.5268 108.158 50.4996 109.715 51.1805C 111.296 51.8371 113.072 52.1655 115.042 52.1655C 119.25 52.1655 123.227 50.6941 126.973 47.7514L 126.973 52.3478C 123.397 54.9014 119.068 56.1782 113.984 56.1782C 111.478 56.1782 109.204 55.7404 107.161 54.8649C 105.118 53.9894 103.378 52.7248 101.943 51.0711C 100.508 49.393 99.4014 47.338 98.623 44.9061C 97.8446 42.4741 97.4554 39.7017 97.4554 36.5888C 97.4554 33.792 97.8811 31.202 98.7324 28.8187C 99.5838 26.4354 100.764 24.3804 102.272 22.6537C 103.78 20.9027 105.568 19.5408 107.635 18.568C 109.703 17.5709 111.965 17.0723 114.422 17.0723C 116.83 17.0723 118.958 17.4979 120.807 18.3491C 122.655 19.176 124.2 20.3676 125.441 21.9241C 126.705 23.4805 127.666 25.3775 128.323 27.6149C 128.98 29.8523 129.308 32.3572 129.308 35.1296L 129.308 37.4643L 102.308 37.4643ZM 124.492 33.3786C 124.419 29.4875 123.495 26.4718 121.719 24.3317C 119.943 22.1916 117.474 21.1215 114.312 21.1215C 112.731 21.1215 111.259 21.4012 109.897 21.9606C 108.559 22.5199 107.38 23.3346 106.358 24.4047C 105.336 25.4504 104.485 26.7394 103.804 28.2715C 103.147 29.7793 102.685 31.4817 102.418 33.3786L 124.492 33.3786Z"/>
<path id="path21_fill" d="M 0 44.3224L 0 38.3033C 0.689189 38.9113 1.51014 39.4585 2.46284 39.9449C 3.43581 40.4313 4.44932 40.8467 5.50338 41.1912C 6.5777 41.5155 7.65203 41.7688 8.72635 41.9512C 9.80068 42.1336 10.7939 42.2248 11.7061 42.2248C 14.848 42.2248 17.1892 41.6472 18.7297 40.4921C 20.2905 39.3166 21.0709 37.6345 21.0709 35.4458C 21.0709 34.2703 20.8074 33.2469 20.2804 32.3754C 19.7736 31.504 19.0642 30.7136 18.152 30.0043C 17.2399 29.2747 16.1554 28.5856 14.8986 27.9371C 13.6622 27.2683 12.3243 26.5691 10.8851 25.8395C 9.36487 25.0694 7.94595 24.2892 6.62838 23.4988C 5.31081 22.7084 4.16554 21.8369 3.19257 20.8844C 2.21959 19.9319 1.44932 18.8578 0.881757 17.6621C 0.334459 16.4461 0.0608108 15.0275 0.0608108 13.4062C 0.0608108 11.4201 0.496622 9.69742 1.36824 8.23825C 2.23986 6.75881 3.38514 5.54283 4.80405 4.59032C 6.22297 3.6378 7.83446 2.92848 9.63851 2.46236C 11.4628 1.99623 13.3176 1.76317 15.2027 1.76317C 19.5 1.76317 22.6318 2.27996 24.598 3.31354L 24.598 9.05904C 22.0236 7.2756 18.7196 6.38388 14.6858 6.38388C 13.5709 6.38388 12.4561 6.50548 11.3412 6.74868C 10.2264 6.97161 9.23311 7.34653 8.36149 7.87346C 7.48986 8.40038 6.78041 9.0793 6.23311 9.91022C 5.68581 10.7411 5.41216 11.7545 5.41216 12.9502C 5.41216 14.0648 5.61486 15.0275 6.02027 15.8381C 6.44595 16.6488 7.06419 17.3885 7.875 18.0573C 8.68581 18.7261 9.66892 19.3746 10.8243 20.0028C 12 20.6311 13.348 21.3201 14.8682 22.07C 16.4291 22.8401 17.9088 23.6508 19.3074 24.502C 20.7061 25.3531 21.9324 26.2955 22.9865 27.3291C 24.0405 28.3627 24.8716 29.5077 25.4797 30.7642C 26.1081 32.0208 26.4223 33.4597 26.4223 35.081C 26.4223 37.2292 25.9966 39.0532 25.1453 40.5529C 24.3142 42.0323 23.1791 43.2381 21.7399 44.1704C 20.3209 45.1026 18.6791 45.7714 16.8142 46.1768C 14.9493 46.6024 12.9831 46.8151 10.9155 46.8151C 10.2264 46.8151 9.375 46.7543 8.36149 46.6328C 7.34797 46.5314 6.31419 46.3693 5.26014 46.1464C 4.20608 45.9437 3.2027 45.6904 2.25 45.3864C 1.31757 45.0621 0.567568 44.7075 0 44.3224Z"/>
<path id="path22_fill" d="M 59.625 46.0856L 54.6385 46.0856L 54.6385 41.1609L 54.5169 41.1609C 52.4493 44.9304 49.2466 46.8151 44.9088 46.8151C 37.4899 46.8151 33.7804 42.3971 33.7804 33.561L 33.7804 14.9565L 38.7365 14.9565L 38.7365 32.7706C 38.7365 39.3369 41.25 42.62 46.277 42.62C 48.7095 42.62 50.7061 41.7283 52.2669 39.9449C 53.848 38.1412 54.6385 35.7903 54.6385 32.8922L 54.6385 14.9565L 59.625 14.9565L 59.625 46.0856Z"/>
<path id="path23_fill" d="M 74.8277 41.5864L 74.7061 41.5864L 74.7061 46.0856L 69.7196 46.0856L 69.7196 0L 74.7061 0L 74.7061 20.4284L 74.8277 20.4284C 77.2804 16.2941 80.8682 14.2269 85.5912 14.2269C 89.5845 14.2269 92.7061 15.6253 94.9561 18.4221C 97.2263 21.1985 98.3615 24.9275 98.3615 29.6091C 98.3615 34.8175 97.0946 38.9924 94.5608 42.1336C 92.027 45.2546 88.5608 46.8151 84.1622 46.8151C 80.0473 46.8151 76.9358 45.0722 74.8277 41.5864ZM 74.7061 29.0315L 74.7061 33.3786C 74.7061 35.9524 75.5372 38.1412 77.1993 39.9449C 78.8818 41.7283 81.0101 42.62 83.5845 42.62C 86.6047 42.62 88.9662 41.4648 90.6689 39.1545C 92.3919 36.8441 93.2534 33.6319 93.2534 29.5179C 93.2534 26.0523 92.4527 23.3366 90.8513 21.3708C 89.25 19.405 87.0811 18.4221 84.3446 18.4221C 81.4459 18.4221 79.1149 19.4354 77.3513 21.462C 75.5878 23.4684 74.7061 25.9915 74.7061 29.0315Z"/>
<path id="path24_fill" d="M 120.77 45.7816C 119.595 46.4301 118.044 46.7543 116.118 46.7543C 110.666 46.7543 107.939 43.7144 107.939 37.6345L 107.939 19.2125L 102.588 19.2125L 102.588 14.9565L 107.939 14.9565L 107.939 7.35667L 112.926 5.7455L 112.926 14.9565L 120.77 14.9565L 120.77 19.2125L 112.926 19.2125L 112.926 36.7529C 112.926 38.8404 113.28 40.3299 113.99 41.2216C 114.699 42.1134 115.875 42.5592 117.517 42.5592C 118.774 42.5592 119.858 42.2147 120.77 41.5256L 120.77 45.7816Z"/>
<path id="path25_fill" d="M 129.983 7.05267C 129.091 7.05267 128.331 6.74868 127.703 6.14069C 127.074 5.5327 126.76 4.76258 126.76 3.83033C 126.76 2.89808 127.074 2.12796 127.703 1.51997C 128.331 0.891717 129.091 0.577589 129.983 0.577589C 130.895 0.577589 131.666 0.891717 132.294 1.51997C 132.943 2.12796 133.267 2.89808 133.267 3.83033C 133.267 4.72205 132.943 5.48203 132.294 6.11029C 131.666 6.73854 130.895 7.05267 129.983 7.05267ZM 132.416 46.0856L 127.429 46.0856L 127.429 14.9565L 132.416 14.9565L 132.416 46.0856Z"/>
<path id="path26_fill" d="M 156.953 45.7816C 155.777 46.4301 154.226 46.7543 152.301 46.7543C 146.848 46.7543 144.122 43.7144 144.122 37.6345L 144.122 19.2125L 138.77 19.2125L 138.77 14.9565L 144.122 14.9565L 144.122 7.35667L 149.108 5.7455L 149.108 14.9565L 156.953 14.9565L 156.953 19.2125L 149.108 19.2125L 149.108 36.7529C 149.108 38.8404 149.463 40.3299 150.172 41.2216C 150.882 42.1134 152.057 42.5592 153.699 42.5592C 154.956 42.5592 156.041 42.2147 156.953 41.5256L 156.953 45.7816Z"/>
<path id="path27_fill" d="M 168.598 46.0856L 163.611 46.0856L 163.611 0L 168.598 0L 168.598 46.0856Z"/>
<path id="path28_fill" d="M 203.716 31.7674L 181.733 31.7674C 181.814 35.233 182.747 37.9081 184.53 39.7929C 186.314 41.6776 188.767 42.62 191.889 42.62C 195.395 42.62 198.618 41.4648 201.557 39.1545L 201.557 43.836C 198.821 45.8221 195.203 46.8151 190.703 46.8151C 186.304 46.8151 182.848 45.4066 180.334 42.5896C 177.821 39.7523 176.564 35.77 176.564 30.6426C 176.564 25.799 177.932 21.8572 180.669 18.8173C 183.426 15.757 186.841 14.2269 190.916 14.2269C 194.99 14.2269 198.142 15.5443 200.372 18.1789C 202.601 20.8135 203.716 24.4716 203.716 29.1531L 203.716 31.7674ZM 198.608 27.5419C 198.588 24.6641 197.889 22.4247 196.51 20.8236C 195.152 19.2226 193.257 18.4221 190.824 18.4221C 188.473 18.4221 186.476 19.2631 184.834 20.9452C 183.193 22.6273 182.179 24.8262 181.794 27.5419L 198.608 27.5419Z"/>
<path id="path29_fill" d="M 0 32.6946L 0 0L 10.3758 0C 13.538 0 16.0389 0.691587 17.8784 2.07476C 19.7331 3.45794 20.6605 5.2591 20.6605 7.47826C 20.6605 9.33263 20.136 10.9438 19.087 12.3118C 18.038 13.6798 16.5861 14.6525 14.7314 15.2301L 14.7314 15.3213C 16.9814 15.5797 18.7753 16.4157 20.1132 17.8293C 21.4662 19.2276 22.1427 21.0516 22.1427 23.3012C 22.1427 26.0979 21.0405 28.3627 18.8361 30.0955C 16.6318 31.8282 13.8497 32.6946 10.4899 32.6946L 0 32.6946ZM 5.40456 4.35472L 5.40456 13.657L 8.91638 13.657C 10.8015 13.657 12.2762 13.2162 13.3404 12.3346C 14.4198 11.4378 14.9595 10.1762 14.9595 8.54984C 14.9595 5.7531 13.0895 4.35472 9.34966 4.35472L 5.40456 4.35472ZM 5.40456 18.0117L 5.40456 28.3627L 10.0338 28.3627C 12.0557 28.3627 13.614 27.8991 14.7086 26.9719C 15.8184 26.0295 16.3733 24.7375 16.3733 23.096C 16.3733 19.7064 14.0245 18.0117 9.32686 18.0117L 5.40456 18.0117Z"/>
<path id="path30_fill" d="M 45.5625 32.6946L 40.4316 32.6946L 40.4316 29.0467L 40.3404 29.0467C 38.7289 31.8434 36.3649 33.2418 33.2483 33.2418C 30.9527 33.2418 29.1512 32.6186 27.8438 31.3722C 26.5515 30.1259 25.9054 28.4767 25.9054 26.4247C 25.9054 22.0168 28.4443 19.448 33.522 18.7185L 40.4544 17.7381C 40.4544 14.4093 38.8733 12.745 35.7111 12.745C 32.9291 12.745 30.4206 13.7026 28.1858 15.6177L 28.1858 10.9894C 30.6486 9.53023 33.4916 8.80064 36.7145 8.80064C 42.6132 8.80064 45.5625 11.7038 45.5625 17.5101L 45.5625 32.6946ZM 40.4544 21.2264L 35.5515 21.9104C 34.0312 22.108 32.8834 22.4804 32.1081 23.0276C 31.348 23.5596 30.9679 24.502 30.9679 25.8547C 30.9679 26.8427 31.3176 27.6559 32.0169 28.2943C 32.7314 28.9175 33.6816 29.2291 34.8674 29.2291C 36.4789 29.2291 37.8091 28.6667 38.8581 27.5419C 39.9223 26.4019 40.4544 24.9731 40.4544 23.2556L 40.4544 21.2264Z"/>
<path id="path31_fill" d="M 50.5794 31.965L 50.5794 27.0631C 52.5557 28.5679 54.7373 29.3203 57.1242 29.3203C 60.3167 29.3203 61.913 28.3779 61.913 26.4931C 61.913 25.9611 61.7762 25.5127 61.5025 25.1479C 61.2289 24.7679 60.8564 24.4336 60.3851 24.1448C 59.9291 23.856 59.3818 23.5976 58.7432 23.3696C 58.1199 23.1416 57.4206 22.8832 56.6453 22.5944C 55.6875 22.2144 54.8209 21.8116 54.0456 21.386C 53.2855 20.9604 52.647 20.4816 52.1301 19.9496C 51.6284 19.4024 51.2483 18.7869 50.9899 18.1029C 50.7314 17.4189 50.6022 16.6209 50.6022 15.7089C 50.6022 14.5841 50.8682 13.5962 51.4003 12.745C 51.9324 11.8786 52.647 11.1566 53.5439 10.579C 54.4409 9.98622 55.4595 9.54543 56.5997 9.25663C 57.7399 8.95264 58.9181 8.80064 60.1343 8.80064C 62.2931 8.80064 64.2238 9.12743 65.9265 9.78102L 65.9265 14.4093C 64.2846 13.2846 62.3995 12.7222 60.2711 12.7222C 59.6022 12.7222 58.9941 12.7906 58.4468 12.9274C 57.9147 13.0642 57.4586 13.2542 57.0785 13.4974C 56.6985 13.7406 56.402 14.0369 56.1892 14.3865C 55.9764 14.7209 55.8699 15.0933 55.8699 15.5037C 55.8699 16.0053 55.9764 16.4309 56.1892 16.7805C 56.402 17.1301 56.7137 17.4417 57.1242 17.7153C 57.5498 17.9737 58.0515 18.2169 58.6292 18.4449C 59.2221 18.6577 59.8986 18.8933 60.6588 19.1517C 61.6622 19.562 62.5591 19.98 63.3497 20.4056C 64.1554 20.8312 64.8395 21.3176 65.402 21.8648C 65.9645 22.3968 66.3978 23.02 66.7019 23.7344C 67.0059 24.4336 67.1579 25.2695 67.1579 26.2423C 67.1579 27.4279 66.8843 28.4615 66.337 29.3431C 65.7897 30.2246 65.06 30.9542 64.1478 31.5318C 63.2356 32.1094 62.1791 32.535 60.978 32.8086C 59.7922 33.0974 58.538 33.2418 57.2154 33.2418C 54.6613 33.2418 52.4493 32.8162 50.5794 31.965Z"/>
<path id="path32_fill" d="M 91.9688 22.4576L 76.0515 22.4576C 76.1123 24.616 76.7737 26.2803 78.0355 27.4507C 79.3125 28.6211 81.0608 29.2063 83.2804 29.2063C 85.7737 29.2063 88.0617 28.4615 90.1444 26.9719L 90.1444 31.2354C 88.016 32.573 85.2035 33.2418 81.7069 33.2418C 78.2711 33.2418 75.5726 32.1854 73.6115 30.0727C 71.6655 27.9447 70.6926 24.9579 70.6926 21.1124C 70.6926 17.4797 71.7644 14.5233 73.9079 12.2434C 76.0667 9.94822 78.7424 8.80064 81.935 8.80064C 85.1275 8.80064 87.598 9.82662 89.3463 11.8786C 91.0946 13.9305 91.9688 16.7805 91.9688 20.4284L 91.9688 22.4576ZM 86.8606 18.7185C 86.8454 16.8185 86.397 15.3441 85.5152 14.2953C 84.6334 13.2314 83.4172 12.6994 81.8666 12.6994C 80.3463 12.6994 79.0541 13.2542 77.9899 14.3637C 76.9409 15.4733 76.2948 16.9249 76.0515 18.7185L 86.8606 18.7185Z"/>
<path id="path33_fill" d="M 0 34.5642L 0 1.86957L 9.30405 1.86957C 12.1318 1.86957 14.3742 2.56115 16.0312 3.94433C 17.6883 5.3275 18.5169 7.12867 18.5169 9.34783C 18.5169 11.2022 18.0152 12.8134 17.0118 14.1813C 16.0084 15.5493 14.625 16.5221 12.8615 17.0997L 12.8615 17.1909C 15.0659 17.4493 16.8294 18.2853 18.152 19.6988C 19.4747 21.0972 20.136 22.9212 20.136 25.1707C 20.136 27.9675 19.1326 30.2322 17.1258 31.965C 15.1191 33.6978 12.5878 34.5642 9.53209 34.5642L 0 34.5642ZM 3.83108 5.3351L 3.83108 15.8913L 7.75338 15.8913C 9.85135 15.8913 11.5008 15.3897 12.7019 14.3865C 13.9029 13.3682 14.5034 11.9394 14.5034 10.1002C 14.5034 6.92347 12.413 5.3351 8.23226 5.3351L 3.83108 5.3351ZM 3.83108 19.334L 3.83108 31.0986L 9.03041 31.0986C 11.2804 31.0986 13.0211 30.5666 14.2525 29.5027C 15.4992 28.4387 16.1225 26.9795 16.1225 25.1251C 16.1225 21.2644 13.4924 19.334 8.23226 19.334L 3.83108 19.334Z"/>
<path id="path34_fill" d="M 36.0304 35.1114C 32.5794 35.1114 29.8201 34.0246 27.7525 31.851C 25.7002 29.6623 24.674 26.7667 24.674 23.1644C 24.674 19.2428 25.7458 16.1801 27.8894 13.9761C 30.0329 11.7722 32.9291 10.6702 36.5777 10.6702C 40.0591 10.6702 42.7728 11.7418 44.7188 13.8849C 46.6799 16.0281 47.6605 18.9997 47.6605 22.7996C 47.6605 26.5235 46.6039 29.5103 44.4907 31.7598C 42.3927 33.9942 39.5726 35.1114 36.0304 35.1114ZM 36.3041 13.8165C 33.902 13.8165 32.0017 14.6373 30.603 16.2789C 29.2044 17.9053 28.5051 20.1548 28.5051 23.0276C 28.5051 25.7939 29.212 27.9751 30.6258 29.5711C 32.0397 31.167 33.9324 31.965 36.3041 31.965C 38.7213 31.965 40.576 31.1822 41.8682 29.6167C 43.1757 28.0511 43.8294 25.8243 43.8294 22.9364C 43.8294 20.018 43.1757 17.7685 41.8682 16.1877C 40.576 14.6069 38.7213 13.8165 36.3041 13.8165Z"/>
<path id="path35_fill" d="M 73.5659 34.5642L 69.826 34.5642L 69.826 30.597L 69.7348 30.597C 68.0017 33.6066 65.326 35.1114 61.7078 35.1114C 58.7737 35.1114 56.4248 34.0702 54.6613 31.9878C 52.913 29.8903 52.0389 27.0403 52.0389 23.438C 52.0389 19.5772 53.0118 16.4841 54.9578 14.1585C 56.9037 11.833 59.4958 10.6702 62.734 10.6702C 65.9417 10.6702 68.2753 11.9318 69.7348 14.4549L 69.826 14.4549L 69.826 0L 73.5659 0L 73.5659 34.5642ZM 69.826 24.008L 69.826 20.5652C 69.826 18.6805 69.2027 17.0845 67.9561 15.7773C 66.7095 14.4701 65.1284 13.8165 63.2128 13.8165C 60.9324 13.8165 59.1385 14.6525 57.8311 16.3245C 56.5237 17.9965 55.8699 20.3068 55.8699 23.2556C 55.8699 25.9459 56.4932 28.0739 57.7399 29.6395C 59.0017 31.1898 60.6892 31.965 62.8024 31.965C 64.8851 31.965 66.5726 31.2126 67.8649 29.7079C 69.1723 28.2031 69.826 26.3031 69.826 24.008Z"/>
<path id="path36_fill" d="M 99.7221 11.2174L 88.9814 38.3033C 87.0659 43.1368 84.375 45.5536 80.9088 45.5536C 79.9358 45.5536 79.1225 45.4548 78.4688 45.2572L 78.4688 41.9056C 79.2745 42.1792 80.0118 42.316 80.6807 42.316C 82.5659 42.316 83.9797 41.1912 84.9223 38.9417L 86.7922 34.5186L 77.6706 11.2174L 81.8209 11.2174L 88.1377 29.1835C 88.2137 29.4115 88.3733 30.0043 88.6166 30.9618L 88.7534 30.9618C 88.8294 30.597 88.9814 30.0195 89.2095 29.2291L 95.8454 11.2174L 99.7221 11.2174Z"/>
<path id="path37_fill" d="M 19.5203 26.2104C 17.5865 27.2318 15.1784 27.7425 12.2959 27.7425C 8.57432 27.7425 5.59459 26.5448 3.35676 24.1493C 1.11892 21.7538 0 18.6105 0 14.7194C 0 10.5364 1.25878 7.15603 3.77635 4.57816C 6.29392 2.00028 9.48649 0.711347 13.3541 0.711347C 15.8351 0.711347 17.8905 1.07006 19.5203 1.78749L 19.5203 5.05239C 17.6473 4.00665 15.5797 3.48378 13.3176 3.48378C 10.3135 3.48378 7.875 4.48696 6.00203 6.49332C 4.14122 8.49968 3.21081 11.1809 3.21081 14.537C 3.21081 17.7229 4.08041 20.2643 5.81959 22.1612C 7.57095 24.046 9.86351 24.9883 12.6973 24.9883C 15.3243 24.9883 17.5986 24.4047 19.5203 23.2373L 19.5203 26.2104Z"/>
<path id="path38_fill" d="M 37.8182 27.3048L 34.8264 27.3048L 34.8264 24.3864L 34.7534 24.3864C 33.452 26.6238 31.5365 27.7425 29.0068 27.7425C 27.1459 27.7425 25.6865 27.2501 24.6284 26.2651C 23.5824 25.2802 23.0595 23.973 23.0595 22.3436C 23.0595 18.8537 25.1149 16.8231 29.2257 16.2515L 34.8264 15.4672C 34.8264 12.2935 33.5432 10.7067 30.977 10.7067C 28.727 10.7067 26.6959 11.4728 24.8838 13.0049L 24.8838 9.94062C 26.7203 8.77328 28.8365 8.18961 31.2324 8.18961C 35.623 8.18961 37.8182 10.5121 37.8182 15.1572L 37.8182 27.3048ZM 34.8264 17.8566L 30.3203 18.4768C 28.9338 18.6713 27.8878 19.0179 27.1824 19.5164C 26.477 20.0028 26.1243 20.8723 26.1243 22.1247C 26.1243 23.0367 26.4466 23.7845 27.0912 24.3682C 27.748 24.9397 28.6176 25.2255 29.7 25.2255C 31.1838 25.2255 32.4061 24.7087 33.3669 23.6751C 34.3399 22.6293 34.8264 21.31 34.8264 19.7171L 34.8264 17.8566Z"/>
<path id="path39_fill" d="M 46.5203 24.6053L 46.4473 24.6053L 46.4473 35.8957L 43.4554 35.8957L 43.4554 8.62736L 46.4473 8.62736L 46.4473 11.9105L 46.5203 11.9105C 47.9919 9.42991 50.1446 8.18961 52.9784 8.18961C 55.3865 8.18961 57.2655 9.02864 58.6155 10.7067C 59.9655 12.3726 60.6405 14.61 60.6405 17.4189C 60.6405 20.5439 59.8804 23.0489 58.3601 24.9336C 56.8399 26.8062 54.7601 27.7425 52.1209 27.7425C 49.7007 27.7425 47.8338 26.6968 46.5203 24.6053ZM 46.4473 17.0723L 46.4473 19.6806C 46.4473 21.2249 46.9459 22.5381 47.9432 23.6204C 48.9527 24.6904 50.2297 25.2255 51.7743 25.2255C 53.5865 25.2255 55.0034 24.5324 56.025 23.1461C 57.0588 21.7599 57.5757 19.8326 57.5757 17.3642C 57.5757 15.2848 57.0953 13.6554 56.1345 12.4759C 55.1736 11.2964 53.8723 10.7067 52.2304 10.7067C 50.4912 10.7067 49.0926 11.3147 48.0345 12.5307C 46.9764 13.7345 46.4473 15.2484 46.4473 17.0723Z"/>
<path id="path40_fill" d="M 74.0858 27.1224C 73.3804 27.5115 72.45 27.7061 71.2946 27.7061C 68.023 27.7061 66.3872 25.8821 66.3872 22.2342L 66.3872 11.1809L 63.1764 11.1809L 63.1764 8.62736L 66.3872 8.62736L 66.3872 4.06745L 69.3791 3.10074L 69.3791 8.62736L 74.0858 8.62736L 74.0858 11.1809L 69.3791 11.1809L 69.3791 21.7052C 69.3791 22.9577 69.5919 23.8514 70.0176 24.3864C 70.4432 24.9215 71.1487 25.189 72.1338 25.189C 72.8878 25.189 73.5385 24.9823 74.0858 24.5688L 74.0858 27.1224Z"/>
<path id="path41_fill" d="M 79.6135 3.88505C 79.0784 3.88505 78.6223 3.70265 78.2453 3.33786C 77.8682 2.97307 77.6797 2.51099 77.6797 1.95164C 77.6797 1.39229 77.8682 0.930223 78.2453 0.56543C 78.6223 0.188477 79.0784 0 79.6135 0C 80.1608 0 80.623 0.188477 81 0.56543C 81.3892 0.930223 81.5838 1.39229 81.5838 1.95164C 81.5838 2.48667 81.3892 2.94267 81 3.31962C 80.623 3.69657 80.1608 3.88505 79.6135 3.88505ZM 81.073 27.3048L 78.0811 27.3048L 78.0811 8.62736L 81.073 8.62736L 81.073 27.3048Z"/>
<path id="path42_fill" d="M 94.9378 27.7425C 92.177 27.7425 89.9696 26.8731 88.3155 25.1343C 86.6737 23.3833 85.8527 21.0668 85.8527 18.1849C 85.8527 15.0477 86.7101 12.5975 88.425 10.8344C 90.1399 9.07119 92.4568 8.18961 95.3757 8.18961C 98.1608 8.18961 100.332 9.04688 101.889 10.7614C 103.457 12.4759 104.242 14.8532 104.242 17.8931C 104.242 20.8723 103.397 23.2617 101.706 25.0613C 100.028 26.8488 97.7716 27.7425 94.9378 27.7425ZM 95.1568 10.7067C 93.2351 10.7067 91.7149 11.3633 90.5959 12.6766C 89.477 13.9777 88.9176 15.7773 88.9176 18.0755C 88.9176 20.2886 89.4831 22.0335 90.6142 23.3103C 91.7453 24.5871 93.2595 25.2255 95.1568 25.2255C 97.0905 25.2255 98.5743 24.5992 99.6081 23.3468C 100.654 22.0943 101.177 20.3129 101.177 18.0026C 101.177 15.6679 100.654 13.8682 99.6081 12.6036C 98.5743 11.339 97.0905 10.7067 95.1568 10.7067Z"/>
<path id="path43_fill" d="M 124.528 27.3048L 121.536 27.3048L 121.536 16.6528C 121.536 12.6887 120.089 10.7067 117.195 10.7067C 115.699 10.7067 114.458 11.2721 113.473 12.403C 112.5 13.5217 112.014 14.9383 112.014 16.6528L 112.014 27.3048L 109.022 27.3048L 109.022 8.62736L 112.014 8.62736L 112.014 11.7281L 112.086 11.7281C 113.497 9.36911 115.541 8.18961 118.216 8.18961C 120.259 8.18961 121.822 8.85232 122.905 10.1777C 123.987 11.491 124.528 13.394 124.528 15.8868L 124.528 27.3048Z"/>
</defs>
</svg>
