<svg width="480" height="541" viewBox="0 0 480 541" fill="none" xmlns="http://www.w3.org/2000/svg">
<rect width="480" height="541" fill="#F1F1F1"/>
<path d="M62.4434 73.5547L62.0215 72.7578C61.7676 72.9102 61.4824 73.0312 61.166 73.1211C60.8496 73.2109 60.5234 73.2559 60.1875 73.2559C59.1953 73.2559 58.4297 72.9531 57.8906 72.3477C57.3516 71.7422 57.082 70.9258 57.082 69.8984C57.082 68.8008 57.3711 67.9355 57.9492 67.3027C58.5312 66.666 59.3145 66.3477 60.2988 66.3477C60.6191 66.3477 60.9316 66.3789 61.2363 66.4414C61.5449 66.5039 61.8477 66.6094 62.1445 66.7578L62.5312 65.9375C62.2266 65.7773 61.8887 65.6582 61.5176 65.5801C61.1465 65.498 60.7441 65.457 60.3105 65.457C59.0449 65.457 58.0176 65.8652 57.2285 66.6816C56.4434 67.4941 56.0508 68.5859 56.0508 69.957C56.0508 71.207 56.4023 72.2168 57.1055 72.9863C57.8125 73.7559 58.8008 74.1406 60.0703 74.1406C60.5 74.1406 60.9102 74.0957 61.3008 74.0059C61.6953 73.916 62.0762 73.7656 62.4434 73.5547ZM68.1504 74V70.0977C68.1504 69.3516 67.9668 68.793 67.5996 68.4219C67.2324 68.0469 66.6855 67.8594 65.959 67.8594C65.541 67.8594 65.123 67.9453 64.7051 68.1172C64.291 68.2852 63.9336 68.502 63.6328 68.7676L64.1777 69.3945C64.4668 69.1445 64.7441 68.9609 65.0098 68.8438C65.2754 68.7266 65.5723 68.668 65.9004 68.668C66.291 68.668 66.6035 68.7754 66.8379 68.9902C67.0723 69.2012 67.1895 69.5586 67.1895 70.0625V70.1973L65.4785 70.4258C64.834 70.5195 64.3359 70.7344 63.9844 71.0703C63.6328 71.4062 63.457 71.8301 63.457 72.3418C63.457 72.8848 63.6309 73.3203 63.9785 73.6484C64.3262 73.9766 64.7812 74.1406 65.3438 74.1406C65.7461 74.1406 66.0977 74.0508 66.3984 73.8711C66.7031 73.6914 66.959 73.4219 67.166 73.0625H67.1895V74H68.1504ZM67.1895 71.5625C67.1895 72.082 67.0352 72.5117 66.7266 72.8516C66.4219 73.1914 66.0098 73.3613 65.4902 73.3613C65.1895 73.3613 64.9336 73.2676 64.7227 73.0801C64.5156 72.8887 64.4121 72.6133 64.4121 72.2539C64.4121 71.9102 64.5234 71.6582 64.7461 71.498C64.9688 71.3379 65.3008 71.2266 65.7422 71.1641L67.1895 70.9648V71.5625ZM70.9453 73.1328C71.1562 73.4688 71.4121 73.7207 71.7129 73.8887C72.0137 74.0566 72.3574 74.1406 72.7441 74.1406C73.5918 74.1406 74.2598 73.8398 74.748 73.2383C75.2363 72.6328 75.4805 71.8281 75.4805 70.8242C75.4805 69.9219 75.2637 69.2031 74.8301 68.668C74.3965 68.1289 73.793 67.8594 73.0195 67.8594C72.5664 67.8594 72.166 67.959 71.8184 68.1582C71.4746 68.3574 71.1836 68.6562 70.9453 69.0547H70.9219V68H69.9609V76.7598H70.9219V73.1328H70.9453ZM70.9219 70.7129C70.9219 70.127 71.0918 69.6406 71.4316 69.2539C71.7715 68.8633 72.2207 68.668 72.7793 68.668C73.3066 68.668 73.7246 68.8574 74.0332 69.2363C74.3418 69.6152 74.4961 70.1387 74.4961 70.8066C74.4961 71.5996 74.3301 72.2188 73.998 72.6641C73.6699 73.1094 73.2148 73.332 72.6328 73.332C72.1367 73.332 71.7266 73.1602 71.4023 72.8164C71.082 72.4688 70.9219 72.0469 70.9219 71.5508V70.7129ZM79.875 73.9297L79.6406 73.1973C79.5664 73.2324 79.4746 73.2637 79.3652 73.291C79.2559 73.3184 79.1426 73.332 79.0254 73.332C78.7793 73.332 78.5938 73.2559 78.4688 73.1035C78.3477 72.9512 78.2871 72.7031 78.2871 72.3594V68.8203H79.7988V68H78.2871V66.2246L77.3262 66.5352V68H76.2949V68.8203H77.3262V72.4707C77.3262 73.0176 77.4609 73.4316 77.7305 73.7129C78.0039 73.9902 78.3789 74.1289 78.8555 74.1289C79.0547 74.1289 79.2324 74.1113 79.3887 74.0762C79.5488 74.0449 79.7109 73.9961 79.875 73.9297ZM81.5742 66.5645C81.7695 66.5645 81.9336 66.5 82.0664 66.3711C82.1992 66.2383 82.2656 66.0762 82.2656 65.8848C82.2656 65.6934 82.1992 65.5332 82.0664 65.4043C81.9336 65.2715 81.7695 65.2051 81.5742 65.2051C81.3789 65.2051 81.2148 65.2715 81.082 65.4043C80.9492 65.5332 80.8828 65.6934 80.8828 65.8848C80.8828 66.0762 80.9492 66.2383 81.082 66.3711C81.2148 66.5 81.3789 66.5645 81.5742 66.5645ZM82.043 74V68H81.082V74H82.043ZM86.4961 74.1406C87.4062 74.1406 88.1309 73.8535 88.6699 73.2793C89.2129 72.7051 89.4844 71.9375 89.4844 70.9766C89.4844 70.0039 89.2324 69.2402 88.7285 68.6855C88.2285 68.1309 87.5312 67.8555 86.6367 67.8594C85.6914 67.8633 84.9453 68.1484 84.3984 68.7148C83.8516 69.2812 83.5781 70.0664 83.5781 71.0703C83.5781 71.9961 83.8418 72.7402 84.3691 73.3027C84.9004 73.8613 85.6094 74.1406 86.4961 74.1406ZM86.5664 68.668C87.1836 68.668 87.6602 68.8711 87.9961 69.2773C88.332 69.6797 88.5 70.2578 88.5 71.0117C88.5 71.75 88.332 72.3223 87.9961 72.7285C87.6641 73.1309 87.1875 73.332 86.5664 73.332C85.957 73.332 85.4707 73.127 85.1074 72.7168C84.7441 72.3066 84.5625 71.7461 84.5625 71.0352C84.5625 70.3008 84.7422 69.7227 85.1016 69.3008C85.4609 68.8789 85.9492 68.668 86.5664 68.668ZM96 74V70.332C96 69.5312 95.8262 68.9199 95.4785 68.498C95.1309 68.0723 94.6289 67.8594 93.9727 67.8594C93.543 67.8594 93.1641 67.9551 92.8359 68.1465C92.5078 68.334 92.2305 68.6172 92.0039 68.9961H91.9805V68H91.0195V74H91.9805V70.5781C91.9805 70.0273 92.1367 69.5723 92.4492 69.2129C92.7656 68.8496 93.1641 68.668 93.6445 68.668C94.1094 68.668 94.457 68.8281 94.6875 69.1484C94.9219 69.4648 95.0391 69.9414 95.0391 70.5781V74H96Z" fill="black" fill-opacity="0.8956"/>
<path d="M55.7852 118H58.6426C59.5586 118 60.3174 117.74 60.9189 117.221C61.5205 116.701 61.8213 116.022 61.8213 115.184C61.8213 114.509 61.623 113.962 61.2266 113.543C60.8301 113.119 60.3014 112.868 59.6406 112.791V112.764C60.1693 112.59 60.584 112.299 60.8848 111.889C61.1855 111.479 61.3359 110.995 61.3359 110.439C61.3359 109.751 61.0876 109.207 60.5908 108.806C60.0986 108.4 59.4287 108.197 58.5811 108.197H55.7852V118ZM56.9336 109.236H58.2598C58.8796 109.236 59.3467 109.355 59.6611 109.592C59.9756 109.829 60.1328 110.187 60.1328 110.665C60.1328 111.216 59.9528 111.645 59.5928 111.95C59.2327 112.251 58.7383 112.401 58.1094 112.401H56.9336V109.236ZM56.9336 113.434H58.2529C59.0413 113.434 59.6315 113.579 60.0234 113.871C60.4199 114.158 60.6182 114.591 60.6182 115.17C60.6182 115.726 60.4313 116.163 60.0576 116.482C59.6885 116.801 59.1667 116.961 58.4922 116.961H56.9336V113.434ZM66.5312 118.164C67.5931 118.164 68.4385 117.829 69.0674 117.159C69.7008 116.489 70.0176 115.594 70.0176 114.473C70.0176 113.338 69.7236 112.447 69.1357 111.8C68.5524 111.153 67.7389 110.831 66.6953 110.836C65.5924 110.84 64.722 111.173 64.084 111.834C63.446 112.495 63.127 113.411 63.127 114.582C63.127 115.662 63.4346 116.53 64.0498 117.187C64.6696 117.838 65.4967 118.164 66.5312 118.164ZM66.6133 111.779C67.3333 111.779 67.8893 112.016 68.2812 112.49C68.6732 112.96 68.8691 113.634 68.8691 114.514C68.8691 115.375 68.6732 116.043 68.2812 116.517C67.8939 116.986 67.3379 117.221 66.6133 117.221C65.9023 117.221 65.335 116.981 64.9111 116.503C64.4873 116.024 64.2754 115.37 64.2754 114.541C64.2754 113.684 64.485 113.01 64.9043 112.518C65.3236 112.025 65.8932 111.779 66.6133 111.779ZM77.7832 118V107.637H76.6621V111.971H76.6348C76.416 111.592 76.1312 111.31 75.7803 111.123C75.4339 110.932 75.0192 110.836 74.5361 110.836C73.5654 110.836 72.7884 111.185 72.2051 111.882C71.6217 112.579 71.3301 113.507 71.3301 114.664C71.3301 115.744 71.5921 116.599 72.1162 117.228C72.6449 117.852 73.349 118.164 74.2285 118.164C74.7754 118.164 75.2471 118.052 75.6436 117.829C76.0446 117.601 76.375 117.262 76.6348 116.811H76.6621V118H77.7832ZM76.6621 114.835C76.6621 115.523 76.4684 116.093 76.0811 116.544C75.6937 116.995 75.1855 117.221 74.5566 117.221C73.9232 117.221 73.4173 116.988 73.0391 116.523C72.6654 116.054 72.4785 115.416 72.4785 114.609C72.4785 113.725 72.6745 113.033 73.0664 112.531C73.4583 112.03 73.9961 111.779 74.6797 111.779C75.2493 111.779 75.721 111.975 76.0947 112.367C76.473 112.759 76.6621 113.238 76.6621 113.803V114.835ZM85.624 111H84.4619L82.4727 116.4C82.4362 116.519 82.4066 116.621 82.3838 116.708C82.3656 116.795 82.3496 116.865 82.3359 116.92H82.2949C82.2585 116.779 82.2266 116.662 82.1992 116.571C82.1764 116.48 82.1605 116.419 82.1514 116.387L80.2578 111H79.0137L81.748 117.986L81.1396 119.436C81.0212 119.718 80.8617 119.937 80.6611 120.092C80.4652 120.247 80.2168 120.324 79.916 120.324C79.8477 120.324 79.777 120.317 79.7041 120.304C79.6357 120.295 79.5605 120.276 79.4785 120.249L79.2598 121.206C79.3646 121.233 79.474 121.254 79.5879 121.268C79.7018 121.286 79.8271 121.295 79.9639 121.295C80.4925 121.295 80.9505 121.135 81.3379 120.816C81.7298 120.497 82.0579 120.003 82.3223 119.333L85.624 111Z" fill="black" fill-opacity="0.8956"/>
<path d="M56.1523 212H59.8262C61.0039 212 61.9795 211.666 62.7529 210.998C63.5264 210.33 63.9131 209.457 63.9131 208.379C63.9131 207.512 63.6582 206.809 63.1484 206.27C62.6387 205.725 61.959 205.402 61.1094 205.303V205.268C61.7891 205.045 62.3223 204.67 62.709 204.143C63.0957 203.615 63.2891 202.994 63.2891 202.279C63.2891 201.395 62.9697 200.694 62.3311 200.179C61.6982 199.657 60.8369 199.396 59.7471 199.396H56.1523V212ZM57.6289 200.732H59.334C60.1309 200.732 60.7314 200.885 61.1357 201.189C61.54 201.494 61.7422 201.954 61.7422 202.569C61.7422 203.278 61.5107 203.829 61.0479 204.222C60.585 204.608 59.9492 204.802 59.1406 204.802H57.6289V200.732ZM57.6289 206.129H59.3252C60.3389 206.129 61.0977 206.316 61.6016 206.691C62.1113 207.061 62.3662 207.617 62.3662 208.361C62.3662 209.076 62.126 209.639 61.6455 210.049C61.1709 210.459 60.5 210.664 59.6328 210.664H57.6289V206.129ZM69.9688 212.211C71.334 212.211 72.4209 211.78 73.2295 210.919C74.0439 210.058 74.4512 208.906 74.4512 207.465C74.4512 206.006 74.0732 204.86 73.3174 204.028C72.5674 203.196 71.5215 202.783 70.1797 202.789C68.7617 202.795 67.6426 203.223 66.8223 204.072C66.002 204.922 65.5918 206.1 65.5918 207.605C65.5918 208.994 65.9873 210.11 66.7783 210.954C67.5752 211.792 68.6387 212.211 69.9688 212.211ZM70.0742 204.002C71 204.002 71.7148 204.307 72.2188 204.916C72.7227 205.52 72.9746 206.387 72.9746 207.518C72.9746 208.625 72.7227 209.483 72.2188 210.093C71.7207 210.696 71.0059 210.998 70.0742 210.998C69.1602 210.998 68.4307 210.69 67.8857 210.075C67.3408 209.46 67.0684 208.619 67.0684 207.553C67.0684 206.451 67.3379 205.584 67.877 204.951C68.416 204.318 69.1484 204.002 70.0742 204.002ZM84.4355 212V198.676H82.9941V204.248H82.959C82.6777 203.762 82.3115 203.398 81.8604 203.158C81.415 202.912 80.8818 202.789 80.2607 202.789C79.0127 202.789 78.0137 203.237 77.2637 204.134C76.5137 205.03 76.1387 206.223 76.1387 207.711C76.1387 209.1 76.4756 210.198 77.1494 211.007C77.8291 211.81 78.7344 212.211 79.8652 212.211C80.5684 212.211 81.1748 212.067 81.6846 211.78C82.2002 211.487 82.625 211.051 82.959 210.471H82.9941V212H84.4355ZM82.9941 207.931C82.9941 208.815 82.7451 209.548 82.2471 210.128C81.749 210.708 81.0957 210.998 80.2871 210.998C79.4727 210.998 78.8223 210.699 78.3359 210.102C77.8555 209.498 77.6152 208.678 77.6152 207.641C77.6152 206.504 77.8672 205.613 78.3711 204.969C78.875 204.324 79.5664 204.002 80.4453 204.002C81.1777 204.002 81.7842 204.254 82.2646 204.758C82.751 205.262 82.9941 205.877 82.9941 206.604V207.931ZM94.5166 203H93.0225L90.4648 209.943C90.418 210.096 90.3799 210.228 90.3506 210.339C90.3271 210.45 90.3066 210.541 90.2891 210.611H90.2363C90.1895 210.43 90.1484 210.28 90.1133 210.163C90.084 210.046 90.0635 209.967 90.0518 209.926L87.6172 203H86.0176L89.5332 211.982L88.751 213.846C88.5986 214.209 88.3936 214.49 88.1357 214.689C87.8838 214.889 87.5645 214.988 87.1777 214.988C87.0898 214.988 86.999 214.979 86.9053 214.962C86.8174 214.95 86.7207 214.927 86.6152 214.892L86.334 216.122C86.4688 216.157 86.6094 216.184 86.7559 216.201C86.9023 216.225 87.0635 216.236 87.2393 216.236C87.9189 216.236 88.5078 216.031 89.0059 215.621C89.5098 215.211 89.9316 214.575 90.2715 213.714L94.5166 203ZM107.779 212V210.664H102.717V199.396H101.24V212H107.779ZM115.979 212V206.146C115.979 205.027 115.704 204.189 115.153 203.633C114.603 203.07 113.782 202.789 112.692 202.789C112.065 202.789 111.438 202.918 110.812 203.176C110.19 203.428 109.654 203.753 109.203 204.151L110.021 205.092C110.454 204.717 110.87 204.441 111.269 204.266C111.667 204.09 112.112 204.002 112.604 204.002C113.19 204.002 113.659 204.163 114.011 204.485C114.362 204.802 114.538 205.338 114.538 206.094V206.296L111.972 206.639C111.005 206.779 110.258 207.102 109.73 207.605C109.203 208.109 108.939 208.745 108.939 209.513C108.939 210.327 109.2 210.98 109.722 211.473C110.243 211.965 110.926 212.211 111.77 212.211C112.373 212.211 112.9 212.076 113.352 211.807C113.809 211.537 114.192 211.133 114.503 210.594H114.538V212H115.979ZM114.538 208.344C114.538 209.123 114.307 209.768 113.844 210.277C113.387 210.787 112.769 211.042 111.989 211.042C111.538 211.042 111.154 210.901 110.838 210.62C110.527 210.333 110.372 209.92 110.372 209.381C110.372 208.865 110.539 208.487 110.873 208.247C111.207 208.007 111.705 207.84 112.367 207.746L114.538 207.447V208.344ZM123.239 204.257L123.371 202.947C123.271 202.912 123.157 202.886 123.028 202.868C122.905 202.851 122.753 202.842 122.571 202.842C122.021 202.842 121.534 203.009 121.112 203.343C120.69 203.671 120.377 204.151 120.172 204.784H120.137V203H118.695V212H120.137V207.412C120.137 206.475 120.348 205.695 120.77 205.074C121.191 204.447 121.769 204.134 122.501 204.134C122.636 204.134 122.759 204.146 122.87 204.169C122.987 204.187 123.11 204.216 123.239 204.257ZM132.6 211.517V203H131.158V204.248H131.123C130.83 203.762 130.458 203.398 130.007 203.158C129.562 202.912 129.034 202.789 128.425 202.789C127.188 202.789 126.192 203.255 125.437 204.187C124.681 205.112 124.303 206.313 124.303 207.79C124.303 209.138 124.643 210.213 125.322 211.016C126.008 211.812 126.91 212.211 128.029 212.211C128.721 212.211 129.324 212.067 129.84 211.78C130.355 211.493 130.783 211.062 131.123 210.488H131.158V211.71C131.158 212.817 130.883 213.644 130.332 214.188C129.781 214.733 129.025 215.006 128.064 215.006C127.596 215.006 127.15 214.953 126.729 214.848C126.312 214.748 125.858 214.569 125.366 214.312L124.848 215.472C125.27 215.694 125.759 215.876 126.315 216.017C126.878 216.163 127.467 216.236 128.082 216.236C129.482 216.236 130.584 215.844 131.387 215.059C132.195 214.273 132.6 213.093 132.6 211.517ZM131.158 207.931C131.158 208.827 130.903 209.562 130.394 210.137C129.89 210.711 129.233 210.998 128.425 210.998C127.599 210.998 126.951 210.714 126.482 210.146C126.014 209.577 125.779 208.76 125.779 207.693C125.779 206.451 126.031 205.525 126.535 204.916C127.045 204.307 127.742 204.002 128.627 204.002C129.348 204.002 129.948 204.257 130.429 204.767C130.915 205.276 131.158 205.889 131.158 206.604V207.931ZM142.751 207.825V207.113C142.751 205.76 142.426 204.702 141.775 203.94C141.131 203.173 140.223 202.789 139.051 202.789C137.82 202.789 136.818 203.231 136.045 204.116C135.277 205.001 134.896 206.167 134.902 207.614C134.908 209.062 135.292 210.189 136.054 210.998C136.815 211.807 137.876 212.211 139.235 212.211C139.886 212.211 140.48 212.132 141.02 211.974C141.559 211.815 142.068 211.581 142.549 211.271L141.925 210.242C141.438 210.523 140.996 210.72 140.598 210.831C140.199 210.937 139.783 210.989 139.35 210.989C138.424 210.989 137.703 210.717 137.188 210.172C136.678 209.621 136.411 208.839 136.388 207.825H142.751ZM141.274 206.647H136.405C136.511 205.839 136.801 205.191 137.275 204.705C137.75 204.213 138.333 203.979 139.024 204.002C139.722 204.002 140.27 204.236 140.668 204.705C141.066 205.168 141.269 205.815 141.274 206.647Z" fill="black" fill-opacity="0.8956"/>
<path d="M55.7031 163H59.0186C60.0303 163 60.846 162.738 61.4658 162.214C62.0902 161.69 62.4023 160.995 62.4023 160.129C62.4023 159.491 62.2087 158.962 61.8213 158.543C61.4385 158.124 60.9258 157.875 60.2832 157.798V157.771C60.7891 157.606 61.1947 157.324 61.5 156.923C61.8099 156.522 61.9648 156.05 61.9648 155.508C61.9648 154.788 61.6937 154.223 61.1514 153.812C60.609 153.402 59.8548 153.197 58.8887 153.197H55.7031V163ZM57.3848 154.53H58.458C59.0368 154.53 59.472 154.637 59.7637 154.852C60.0553 155.066 60.2012 155.389 60.2012 155.822C60.2012 156.292 60.0462 156.656 59.7363 156.916C59.4264 157.176 59.0003 157.306 58.458 157.306H57.3848V154.53ZM57.3848 158.646H58.6494C59.2965 158.646 59.7887 158.771 60.126 159.021C60.4678 159.272 60.6387 159.634 60.6387 160.108C60.6387 160.591 60.4723 160.972 60.1396 161.25C59.8115 161.528 59.3512 161.667 58.7588 161.667H57.3848V158.646ZM67.1328 163.164C68.2539 163.164 69.1426 162.829 69.7988 162.159C70.4551 161.485 70.7832 160.578 70.7832 159.438C70.7832 158.331 70.471 157.454 69.8467 156.807C69.2269 156.155 68.3656 155.829 67.2627 155.829C66.1188 155.834 65.2142 156.164 64.5488 156.82C63.888 157.477 63.5553 158.388 63.5508 159.555C63.5508 160.653 63.8721 161.53 64.5146 162.187C65.1572 162.838 66.0299 163.164 67.1328 163.164ZM67.2012 157.128C67.821 157.128 68.2926 157.328 68.6162 157.729C68.9443 158.131 69.1084 158.714 69.1084 159.479C69.1084 160.254 68.9466 160.847 68.623 161.257C68.2995 161.662 67.8278 161.865 67.208 161.865C66.5791 161.865 66.0915 161.662 65.7451 161.257C65.3988 160.851 65.2256 160.272 65.2256 159.521C65.2256 158.773 65.3988 158.188 65.7451 157.764C66.096 157.34 66.5814 157.128 67.2012 157.128ZM78.7949 163V152.637H77.1543V156.882H77.127C76.9264 156.531 76.6598 156.269 76.3271 156.096C75.9945 155.918 75.5957 155.829 75.1309 155.829C74.1693 155.829 73.3945 156.178 72.8066 156.875C72.2233 157.572 71.9316 158.5 71.9316 159.657C71.9316 160.751 72.196 161.61 72.7246 162.234C73.2578 162.854 73.9619 163.164 74.8369 163.164C75.3519 163.164 75.7985 163.062 76.1768 162.856C76.555 162.647 76.8717 162.335 77.127 161.92H77.1543V163H78.7949ZM77.1748 159.712C77.1748 160.345 77.0085 160.863 76.6758 161.264C76.3431 161.665 75.9102 161.865 75.377 161.865C74.8301 161.865 74.3971 161.667 74.0781 161.271C73.7637 160.869 73.6064 160.313 73.6064 159.603C73.6064 158.832 73.7705 158.229 74.0986 157.791C74.4268 157.349 74.8825 157.128 75.4658 157.128C75.9626 157.128 76.3704 157.301 76.6895 157.647C77.013 157.994 77.1748 158.422 77.1748 158.933V159.712ZM86.9639 156H85.3096L83.6553 160.833C83.6097 160.983 83.5732 161.118 83.5459 161.236C83.5186 161.355 83.4958 161.462 83.4775 161.558H83.4434C83.4115 161.394 83.3818 161.25 83.3545 161.127C83.3271 161.004 83.2998 160.901 83.2725 160.819L81.6729 156H79.8545L82.6436 162.986L82.124 164.224C82.0146 164.479 81.8688 164.67 81.6865 164.798C81.5088 164.93 81.29 164.996 81.0303 164.996C80.9346 164.996 80.8434 164.989 80.7568 164.976C80.6748 164.962 80.5859 164.939 80.4902 164.907L80.2031 166.179C80.3535 166.215 80.5062 166.243 80.6611 166.261C80.8161 166.279 80.9847 166.288 81.167 166.288C81.7686 166.288 82.2858 166.119 82.7188 165.782C83.1517 165.45 83.4935 164.96 83.7441 164.312L86.9639 156ZM91.2773 162.159C91.724 162.478 92.2139 162.727 92.7471 162.904C93.2848 163.077 93.8613 163.164 94.4766 163.164C95.5931 163.164 96.459 162.888 97.0742 162.337C97.6895 161.785 97.9971 161.079 97.9971 160.218C97.9971 159.411 97.7715 158.78 97.3203 158.324C96.8691 157.864 96.1309 157.483 95.1055 157.183C94.4492 156.987 93.9844 156.786 93.7109 156.581C93.4421 156.371 93.3076 156.084 93.3076 155.72C93.3076 155.314 93.4535 155 93.7451 154.776C94.0413 154.553 94.4469 154.441 94.9619 154.441C95.3037 154.441 95.6432 154.498 95.9805 154.612C96.3223 154.726 96.6527 154.897 96.9717 155.125L97.7783 153.847C97.3818 153.587 96.9489 153.386 96.4795 153.245C96.0146 153.104 95.5361 153.033 95.0439 153.033C93.9958 153.033 93.1663 153.302 92.5557 153.84C91.945 154.378 91.6396 155.054 91.6396 155.87C91.6396 156.627 91.8743 157.224 92.3438 157.661C92.8177 158.099 93.5583 158.463 94.5654 158.755C95.2035 158.951 95.6546 159.167 95.9189 159.404C96.1833 159.637 96.3154 159.956 96.3154 160.361C96.3154 160.812 96.1559 161.157 95.8369 161.394C95.5179 161.631 95.0941 161.749 94.5654 161.749C94.137 161.749 93.7178 161.676 93.3076 161.53C92.902 161.38 92.4759 161.147 92.0293 160.833L91.2773 162.159ZM102.871 162.904L102.516 161.735C102.429 161.781 102.326 161.822 102.208 161.858C102.094 161.89 101.973 161.906 101.846 161.906C101.586 161.906 101.395 161.831 101.271 161.681C101.148 161.53 101.087 161.289 101.087 160.956V157.271H102.755V156H101.087V153.901L99.4463 154.387V156H98.2773V157.271H99.4463V161.086C99.4463 161.774 99.6217 162.291 99.9727 162.638C100.328 162.984 100.836 163.157 101.497 163.157C101.752 163.157 101.994 163.134 102.222 163.089C102.45 163.048 102.666 162.986 102.871 162.904ZM108.087 157.381L108.251 155.952C108.16 155.929 108.064 155.911 107.964 155.897C107.864 155.884 107.754 155.877 107.636 155.877C107.198 155.877 106.82 156 106.501 156.246C106.187 156.492 105.947 156.857 105.783 157.34H105.756V156H104.115V163H105.756V159.541C105.756 158.871 105.906 158.331 106.207 157.921C106.512 157.511 106.95 157.306 107.52 157.306C107.624 157.306 107.722 157.312 107.813 157.326C107.905 157.34 107.996 157.358 108.087 157.381ZM112.4 163.164C113.521 163.164 114.41 162.829 115.066 162.159C115.723 161.485 116.051 160.578 116.051 159.438C116.051 158.331 115.739 157.454 115.114 156.807C114.494 156.155 113.633 155.829 112.53 155.829C111.386 155.834 110.482 156.164 109.816 156.82C109.156 157.477 108.823 158.388 108.818 159.555C108.818 160.653 109.14 161.53 109.782 162.187C110.425 162.838 111.298 163.164 112.4 163.164ZM112.469 157.128C113.089 157.128 113.56 157.328 113.884 157.729C114.212 158.131 114.376 158.714 114.376 159.479C114.376 160.254 114.214 160.847 113.891 161.257C113.567 161.662 113.095 161.865 112.476 161.865C111.847 161.865 111.359 161.662 111.013 161.257C110.666 160.851 110.493 160.272 110.493 159.521C110.493 158.773 110.666 158.188 111.013 157.764C111.364 157.34 111.849 157.128 112.469 157.128ZM123.933 163V158.714C123.933 157.766 123.734 157.048 123.338 156.561C122.941 156.073 122.358 155.829 121.588 155.829C121.091 155.829 120.654 155.938 120.275 156.157C119.897 156.371 119.578 156.697 119.318 157.135H119.291V156H117.65V163H119.291V159.008C119.291 158.465 119.441 158.017 119.742 157.661C120.048 157.306 120.435 157.128 120.904 157.128C121.369 157.128 121.718 157.29 121.95 157.613C122.183 157.932 122.299 158.413 122.299 159.056V163H123.933ZM132.272 162.412V156H130.632V156.889H130.604C130.386 156.538 130.108 156.273 129.771 156.096C129.438 155.918 129.046 155.829 128.595 155.829C127.638 155.829 126.865 156.185 126.277 156.896C125.694 157.606 125.402 158.545 125.402 159.712C125.402 160.76 125.664 161.599 126.188 162.228C126.717 162.852 127.424 163.164 128.308 163.164C128.818 163.164 129.265 163.059 129.647 162.85C130.03 162.64 130.349 162.326 130.604 161.906H130.632V162.658C130.632 163.41 130.436 163.991 130.044 164.401C129.652 164.812 129.101 165.017 128.39 165.017C128.03 165.017 127.676 164.969 127.33 164.873C126.988 164.782 126.644 164.636 126.298 164.436L125.744 165.659C126.081 165.846 126.487 165.996 126.961 166.11C127.435 166.229 127.904 166.288 128.369 166.288C129.618 166.288 130.579 165.939 131.254 165.242C131.933 164.545 132.272 163.602 132.272 162.412ZM130.646 159.732C130.646 160.366 130.477 160.881 130.14 161.277C129.807 161.669 129.372 161.865 128.834 161.865C128.287 161.865 127.856 161.672 127.542 161.284C127.232 160.892 127.077 160.343 127.077 159.637C127.077 158.812 127.243 158.188 127.576 157.764C127.909 157.34 128.367 157.128 128.95 157.128C129.442 157.128 129.848 157.306 130.167 157.661C130.486 158.017 130.646 158.443 130.646 158.939V159.732Z" fill="black" fill-opacity="0.8956"/>
<path d="M55.0664 256.799C55.7044 257.255 56.4043 257.609 57.166 257.863C57.9342 258.111 58.7578 258.234 59.6367 258.234C61.2318 258.234 62.4688 257.84 63.3477 257.053C64.2266 256.265 64.666 255.256 64.666 254.025C64.666 252.873 64.3438 251.971 63.6992 251.32C63.0547 250.663 62 250.119 60.5352 249.689C59.5977 249.41 58.9336 249.123 58.543 248.83C58.1589 248.531 57.9668 248.12 57.9668 247.6C57.9668 247.02 58.1751 246.571 58.5918 246.252C59.015 245.933 59.5944 245.773 60.3301 245.773C60.8184 245.773 61.3034 245.855 61.7852 246.018C62.2734 246.18 62.7454 246.424 63.2012 246.75L64.3535 244.924C63.7871 244.553 63.1686 244.266 62.498 244.064C61.834 243.863 61.1504 243.762 60.4473 243.762C58.9499 243.762 57.765 244.146 56.8926 244.914C56.0202 245.682 55.584 246.649 55.584 247.814C55.584 248.895 55.9193 249.748 56.5898 250.373C57.2669 250.998 58.3249 251.519 59.7637 251.936C60.6751 252.215 61.3197 252.525 61.6973 252.863C62.0749 253.195 62.2637 253.651 62.2637 254.23C62.2637 254.875 62.0358 255.367 61.5801 255.705C61.1243 256.044 60.5189 256.213 59.7637 256.213C59.1517 256.213 58.5527 256.109 57.9668 255.9C57.3874 255.686 56.7786 255.354 56.1406 254.904L55.0664 256.799ZM75.4766 258V248H73.1426V253.742C73.1426 254.536 72.931 255.174 72.5078 255.656C72.0911 256.138 71.5508 256.379 70.8867 256.379C70.2031 256.379 69.6888 256.161 69.3438 255.725C69.0052 255.282 68.8359 254.621 68.8359 253.742V248H66.502V254.006C66.502 255.419 66.7949 256.477 67.3809 257.18C67.9668 257.883 68.849 258.234 70.0273 258.234C70.6914 258.234 71.2806 258.085 71.7949 257.785C72.3092 257.486 72.7422 257.04 73.0938 256.447H73.1426V258H75.4766ZM80.7891 256.77C81.1146 257.258 81.5182 257.626 82 257.873C82.4818 258.114 83.0417 258.234 83.6797 258.234C85.0664 258.234 86.1667 257.733 86.9805 256.73C87.7943 255.721 88.2012 254.38 88.2012 252.707C88.2012 251.19 87.8431 249.986 87.127 249.094C86.4173 248.202 85.4212 247.756 84.1387 247.756C83.4095 247.756 82.765 247.912 82.2051 248.225C81.6452 248.537 81.1732 249.006 80.7891 249.631H80.75V243.195H78.4062V258H80.75V256.77H80.7891ZM80.7207 252.57C80.7207 251.711 80.9648 251.005 81.4531 250.451C81.9414 249.891 82.5729 249.611 83.3477 249.611C84.1094 249.611 84.7083 249.888 85.1445 250.441C85.5807 250.988 85.7988 251.747 85.7988 252.717C85.7988 253.876 85.5645 254.777 85.0957 255.422C84.627 256.06 83.9759 256.379 83.1426 256.379C82.4329 256.379 81.8503 256.132 81.3945 255.637C80.9453 255.135 80.7207 254.517 80.7207 253.781V252.57ZM96.0039 257.863L95.4961 256.193C95.3724 256.258 95.2259 256.317 95.0566 256.369C94.8939 256.415 94.7214 256.438 94.5391 256.438C94.168 256.438 93.8945 256.33 93.7188 256.115C93.543 255.9 93.4551 255.555 93.4551 255.08V249.816H95.8379V248H93.4551V245.002L91.1113 245.695V248H89.4414V249.816H91.1113V255.266C91.1113 256.249 91.362 256.988 91.8633 257.482C92.3711 257.977 93.097 258.225 94.041 258.225C94.4056 258.225 94.7507 258.192 95.0762 258.127C95.4017 258.068 95.7109 257.98 96.0039 257.863ZM98.9727 246.086C99.4023 246.086 99.7572 245.956 100.037 245.695C100.317 245.428 100.457 245.087 100.457 244.67C100.457 244.26 100.317 243.921 100.037 243.654C99.7572 243.387 99.4023 243.254 98.9727 243.254C98.543 243.254 98.1882 243.387 97.9082 243.654C97.6283 243.921 97.4883 244.26 97.4883 244.67C97.4883 245.074 97.6283 245.412 97.9082 245.686C98.1882 245.952 98.543 246.086 98.9727 246.086ZM100.125 258V248H97.7812V258H100.125ZM108.562 257.863L108.055 256.193C107.931 256.258 107.785 256.317 107.615 256.369C107.452 256.415 107.28 256.438 107.098 256.438C106.727 256.438 106.453 256.33 106.277 256.115C106.102 255.9 106.014 255.555 106.014 255.08V249.816H108.396V248H106.014V245.002L103.67 245.695V248H102V249.816H103.67V255.266C103.67 256.249 103.921 256.988 104.422 257.482C104.93 257.977 105.656 258.225 106.6 258.225C106.964 258.225 107.309 258.192 107.635 258.127C107.96 258.068 108.27 257.98 108.562 257.863ZM112.684 258V243.195H110.34V258H112.684ZM124.119 253.615V252.609C124.119 251.06 123.732 249.865 122.957 249.025C122.182 248.179 121.121 247.756 119.773 247.756C118.367 247.756 117.215 248.254 116.316 249.25C115.418 250.24 114.969 251.535 114.969 253.137C114.975 254.745 115.411 255.998 116.277 256.896C117.15 257.788 118.367 258.234 119.93 258.234C120.763 258.234 121.505 258.127 122.156 257.912C122.814 257.691 123.429 257.365 124.002 256.936L122.986 255.471C122.537 255.809 122.094 256.057 121.658 256.213C121.222 256.369 120.747 256.447 120.232 256.447C119.334 256.447 118.634 256.21 118.133 255.734C117.632 255.253 117.361 254.546 117.322 253.615H124.119ZM121.873 252.014H117.322C117.42 251.232 117.69 250.611 118.133 250.148C118.582 249.686 119.122 249.462 119.754 249.475C120.431 249.475 120.952 249.686 121.316 250.109C121.681 250.533 121.867 251.167 121.873 252.014Z" fill="black" fill-opacity="0.8956"/>
<path d="M68.5938 299.225V296.395H53.9922V299.225H59.5977V316H62.9609V299.225H68.5938ZM72.8047 299.32C73.4062 299.32 73.903 299.138 74.2949 298.773C74.6868 298.4 74.8828 297.921 74.8828 297.338C74.8828 296.764 74.6868 296.29 74.2949 295.916C73.903 295.542 73.4062 295.355 72.8047 295.355C72.2031 295.355 71.7064 295.542 71.3145 295.916C70.9225 296.29 70.7266 296.764 70.7266 297.338C70.7266 297.903 70.9225 298.377 71.3145 298.76C71.7064 299.133 72.2031 299.32 72.8047 299.32ZM74.418 316V302H71.1367V316H74.418ZM86.2305 315.809L85.5195 313.471C85.3464 313.562 85.1413 313.644 84.9043 313.717C84.6764 313.781 84.4349 313.812 84.1797 313.812C83.6602 313.812 83.2773 313.662 83.0312 313.361C82.7852 313.061 82.6621 312.577 82.6621 311.912V304.543H85.998V302H82.6621V297.803L79.3809 298.773V302H77.043V304.543H79.3809V312.172C79.3809 313.548 79.7318 314.583 80.4336 315.275C81.1445 315.968 82.1608 316.314 83.4824 316.314C83.9928 316.314 84.4759 316.269 84.9316 316.178C85.3874 316.096 85.8203 315.973 86.2305 315.809ZM92 316V295.273H88.7188V316H92ZM108.01 309.861V308.453C108.01 306.284 107.467 304.611 106.383 303.436C105.298 302.251 103.812 301.658 101.926 301.658C99.957 301.658 98.3438 302.355 97.0859 303.75C95.8281 305.135 95.1992 306.949 95.1992 309.191C95.2083 311.443 95.819 313.197 97.0312 314.455C98.2526 315.704 99.957 316.328 102.145 316.328C103.311 316.328 104.35 316.178 105.262 315.877C106.182 315.567 107.044 315.111 107.846 314.51L106.424 312.459C105.795 312.933 105.175 313.279 104.564 313.498C103.954 313.717 103.288 313.826 102.568 313.826C101.311 313.826 100.331 313.493 99.6289 312.828C98.9271 312.154 98.5488 311.165 98.4941 309.861H108.01ZM104.865 307.619H98.4941C98.6309 306.525 99.0091 305.655 99.6289 305.008C100.258 304.361 101.014 304.046 101.898 304.064C102.846 304.064 103.576 304.361 104.086 304.953C104.596 305.546 104.856 306.434 104.865 307.619Z" fill="black" fill-opacity="0.8956"/>
<path d="M70.6094 358.828V355.594H53.9375V358.828H60.3438V378H64.1875V358.828H70.6094ZM75.1406 359.141C75.849 359.141 76.4219 358.922 76.8594 358.484C77.3073 358.047 77.5312 357.5 77.5312 356.844C77.5312 356.188 77.3073 355.641 76.8594 355.203C76.4219 354.755 75.849 354.531 75.1406 354.531C74.4427 354.531 73.8698 354.755 73.4219 355.203C72.9844 355.641 72.7656 356.188 72.7656 356.844C72.7656 357.479 72.9844 358.021 73.4219 358.469C73.8698 358.917 74.4427 359.141 75.1406 359.141ZM77 378V362H73.25V378H77ZM90.8906 376.922L89.2344 374.75C88.9531 375.052 88.6823 375.255 88.4219 375.359C88.1615 375.453 87.8958 375.5 87.625 375.5C87.1146 375.5 86.7344 375.354 86.4844 375.062C86.2344 374.76 86.1094 374.297 86.1094 373.672V364.906H90.1719V362H86.1094V357.719L82.3594 358.375V362H79.6875V364.906H82.3594V373.797C82.3594 375.297 82.75 376.432 83.5312 377.203C84.3229 377.974 85.4948 378.359 87.0469 378.359C87.849 378.359 88.5677 378.234 89.2031 377.984C89.849 377.734 90.4115 377.38 90.8906 376.922ZM96.875 378V354.312H93.125V378H96.875ZM114.984 370.922V369.516C114.984 366.953 114.365 364.995 113.125 363.641C111.896 362.286 110.151 361.609 107.891 361.609C105.693 361.609 103.865 362.401 102.406 363.984C100.948 365.557 100.219 367.615 100.219 370.156C100.219 372.802 100.927 374.833 102.344 376.25C103.771 377.667 105.677 378.375 108.062 378.375C109.615 378.375 110.953 378.062 112.078 377.438C113.214 376.802 114.135 375.901 114.844 374.734L111.984 373.172C111.526 373.932 110.979 374.505 110.344 374.891C109.708 375.276 108.99 375.469 108.188 375.469C107.01 375.469 106.026 375.089 105.234 374.328C104.443 373.568 104.031 372.432 104 370.922H114.984ZM111.391 368.297H103.984C104.13 367.193 104.552 366.271 105.25 365.531C105.948 364.792 106.854 364.422 107.969 364.422C109.021 364.422 109.854 364.76 110.469 365.438C111.083 366.104 111.391 367.057 111.391 368.297ZM138.953 378V374.688H130.312V355.594H126.469V378H138.953ZM154.109 378V367.859C154.109 365.828 153.568 364.281 152.484 363.219C151.411 362.146 149.854 361.609 147.812 361.609C146.198 361.609 144.802 361.958 143.625 362.656C142.458 363.344 141.599 364.219 141.047 365.281L143.812 366.688C144.219 365.948 144.724 365.385 145.328 365C145.932 364.604 146.667 364.406 147.531 364.406C148.417 364.406 149.13 364.656 149.672 365.156C150.224 365.646 150.5 366.38 150.5 367.359V368.109L146.078 368.594C144.307 368.792 142.948 369.339 142 370.234C141.062 371.13 140.594 372.312 140.594 373.781C140.594 375.156 141.068 376.266 142.016 377.109C142.964 377.953 144.172 378.375 145.641 378.375C146.641 378.375 147.547 378.177 148.359 377.781C149.172 377.385 149.859 376.802 150.422 376.031H150.484V378H154.109ZM150.5 371.5C150.5 372.677 150.141 373.651 149.422 374.422C148.714 375.193 147.786 375.578 146.641 375.578C145.922 375.578 145.333 375.375 144.875 374.969C144.417 374.552 144.188 374.016 144.188 373.359C144.188 372.703 144.385 372.182 144.781 371.797C145.188 371.401 145.823 371.151 146.688 371.047L150.5 370.641V371.5ZM167.312 365.391L168.516 362.188C168.099 362.021 167.708 361.901 167.344 361.828C166.99 361.755 166.604 361.719 166.188 361.719C165.229 361.719 164.385 361.99 163.656 362.531C162.927 363.073 162.375 363.854 162 364.875H161.938V362H158.188V378H161.938V370.094C161.938 368.573 162.266 367.344 162.922 366.406C163.589 365.458 164.453 364.984 165.516 364.984C165.839 364.984 166.146 365.021 166.438 365.094C166.74 365.167 167.031 365.266 167.312 365.391ZM185.547 377.047V362H181.797V363.656H181.734C181.234 363 180.583 362.495 179.781 362.141C178.99 361.786 178.125 361.609 177.188 361.609C175.031 361.609 173.224 362.385 171.766 363.938C170.318 365.49 169.594 367.646 169.594 370.406C169.594 372.917 170.224 374.875 171.484 376.281C172.755 377.677 174.422 378.375 176.484 378.375C177.724 378.375 178.76 378.167 179.594 377.75C180.438 377.323 181.151 376.698 181.734 375.875H181.797V377.672C181.797 379.307 181.391 380.536 180.578 381.359C179.776 382.182 178.635 382.594 177.156 382.594C176.125 382.594 175.234 382.385 174.484 381.969C173.734 381.552 173.062 380.932 172.469 380.109L169.75 382.109C170.562 383.214 171.583 384.057 172.812 384.641C174.042 385.224 175.469 385.516 177.094 385.516C179.771 385.516 181.849 384.776 183.328 383.297C184.807 381.828 185.547 379.745 185.547 377.047ZM181.828 370.531C181.828 371.969 181.427 373.13 180.625 374.016C179.823 374.901 178.786 375.344 177.516 375.344C176.224 375.344 175.219 374.891 174.5 373.984C173.781 373.068 173.422 371.812 173.422 370.219C173.422 368.448 173.807 367.078 174.578 366.109C175.359 365.13 176.417 364.641 177.75 364.641C178.948 364.641 179.927 365.042 180.688 365.844C181.448 366.635 181.828 367.594 181.828 368.719V370.531ZM203.484 370.922V369.516C203.484 366.953 202.865 364.995 201.625 363.641C200.396 362.286 198.651 361.609 196.391 361.609C194.193 361.609 192.365 362.401 190.906 363.984C189.448 365.557 188.719 367.615 188.719 370.156C188.719 372.802 189.427 374.833 190.844 376.25C192.271 377.667 194.177 378.375 196.562 378.375C198.115 378.375 199.453 378.062 200.578 377.438C201.714 376.802 202.635 375.901 203.344 374.734L200.484 373.172C200.026 373.932 199.479 374.505 198.844 374.891C198.208 375.276 197.49 375.469 196.688 375.469C195.51 375.469 194.526 375.089 193.734 374.328C192.943 373.568 192.531 372.432 192.5 370.922H203.484ZM199.891 368.297H192.484C192.63 367.193 193.052 366.271 193.75 365.531C194.448 364.792 195.354 364.422 196.469 364.422C197.521 364.422 198.354 364.76 198.969 365.438C199.583 366.104 199.891 367.057 199.891 368.297Z" fill="black" fill-opacity="0.8956"/>
<path d="M57.0117 467H71.7539C79.5456 467 85.7435 464.82 90.3477 460.459C94.974 456.076 97.2871 450.122 97.2871 442.596C97.2871 434.782 95.1621 428.96 90.9121 425.131C86.6842 421.301 80.3867 419.387 72.0195 419.387H57.0117V467ZM65.1797 426.359H71.5215C77.166 426.359 81.4382 427.732 84.3379 430.477C87.2598 433.199 88.7207 437.283 88.7207 442.729C88.7207 448.307 87.1934 452.59 84.1387 455.578C81.084 458.544 76.834 460.027 71.3887 460.027H65.1797V426.359ZM108.377 426.924C109.882 426.924 111.1 426.459 112.029 425.529C112.981 424.6 113.457 423.438 113.457 422.043C113.457 420.648 112.981 419.486 112.029 418.557C111.1 417.605 109.882 417.129 108.377 417.129C106.894 417.129 105.676 417.605 104.725 418.557C103.795 419.486 103.33 420.648 103.33 422.043C103.33 423.393 103.795 424.544 104.725 425.496C105.676 426.448 106.894 426.924 108.377 426.924ZM112.328 467V433H104.359V467H112.328ZM118.537 460.957C119.865 463.126 121.614 464.809 123.783 466.004C125.952 467.199 128.664 467.797 131.918 467.797C135.548 467.797 138.592 466.823 141.049 464.875C143.528 462.927 144.768 460.249 144.768 456.84C144.768 453.918 143.805 451.583 141.879 449.834C139.975 448.063 137.12 446.835 133.312 446.148C130.833 445.706 129.14 445.186 128.232 444.588C127.347 443.99 126.904 443.116 126.904 441.965C126.904 440.77 127.391 439.851 128.365 439.209C129.339 438.567 130.656 438.246 132.316 438.246C133.866 438.246 135.15 438.523 136.168 439.076C137.186 439.607 138.049 440.415 138.758 441.5L143.938 438.014C142.698 436.044 141.038 434.583 138.957 433.631C136.898 432.657 134.652 432.17 132.217 432.17C128.564 432.17 125.62 433.155 123.385 435.125C121.149 437.095 120.031 439.674 120.031 442.861C120.031 445.407 120.895 447.554 122.621 449.303C124.348 451.029 127.402 452.291 131.785 453.088C133.844 453.486 135.349 454.051 136.301 454.781C137.253 455.512 137.729 456.452 137.729 457.604C137.729 458.932 137.208 459.95 136.168 460.658C135.128 461.367 133.733 461.721 131.984 461.721C130.258 461.721 128.73 461.389 127.402 460.725C126.096 460.061 124.945 458.932 123.949 457.338L118.537 460.957ZM159.078 463.48C160.296 464.919 161.757 466.004 163.461 466.734C165.165 467.443 167.102 467.797 169.271 467.797C173.986 467.797 177.749 466.092 180.561 462.684C183.394 459.253 184.811 454.748 184.811 449.17C184.811 443.835 183.549 439.674 181.025 436.686C178.524 433.675 175.016 432.17 170.5 432.17C168.109 432.17 165.94 432.646 163.992 433.598C162.066 434.527 160.428 435.922 159.078 437.781H158.945V433H150.977V482.639H158.945V463.48H159.078ZM158.846 448.539C158.846 445.639 159.72 443.26 161.469 441.4C163.217 439.541 165.475 438.611 168.242 438.611C170.876 438.611 172.935 439.519 174.418 441.334C175.901 443.127 176.643 445.794 176.643 449.336C176.643 453.033 175.824 455.965 174.186 458.135C172.57 460.282 170.356 461.355 167.545 461.355C165.021 461.355 162.941 460.525 161.303 458.865C159.665 457.205 158.846 455.135 158.846 452.656V448.539ZM199.918 467V416.664H191.949V467H199.918ZM235.811 467V445.451C235.811 441.135 234.66 437.848 232.357 435.59C230.077 433.31 226.768 432.17 222.43 432.17C218.999 432.17 216.033 432.911 213.531 434.395C211.052 435.855 209.226 437.715 208.053 439.973L213.93 442.961C214.793 441.389 215.867 440.194 217.15 439.375C218.434 438.534 219.995 438.113 221.832 438.113C223.714 438.113 225.23 438.645 226.381 439.707C227.554 440.747 228.141 442.308 228.141 444.389V445.982L218.744 447.012C214.981 447.432 212.092 448.594 210.078 450.498C208.086 452.402 207.09 454.914 207.09 458.035C207.09 460.957 208.097 463.314 210.111 465.107C212.126 466.9 214.693 467.797 217.814 467.797C219.939 467.797 221.865 467.376 223.592 466.535C225.318 465.694 226.779 464.454 227.975 462.816H228.107V467H235.811ZM228.141 453.188C228.141 455.689 227.377 457.758 225.85 459.396C224.344 461.035 222.374 461.854 219.939 461.854C218.412 461.854 217.161 461.422 216.188 460.559C215.214 459.673 214.727 458.533 214.727 457.139C214.727 455.744 215.147 454.637 215.988 453.818C216.852 452.977 218.202 452.446 220.039 452.225L228.141 451.361V453.188ZM274.691 433H266.523L258.82 455.146C258.599 455.833 258.4 456.441 258.223 456.973C258.046 457.482 257.88 458.124 257.725 458.898H257.559C257.382 458.124 257.227 457.471 257.094 456.939C256.961 456.386 256.784 455.766 256.562 455.08L248.859 433H240.16L253.508 467.465L251.084 473.076C250.508 474.426 249.855 475.356 249.125 475.865C248.395 476.374 247.498 476.629 246.436 476.629C245.86 476.629 245.296 476.54 244.742 476.363C244.211 476.208 243.591 475.921 242.883 475.5L239.43 481.078C240.492 481.742 241.61 482.218 242.783 482.506C243.979 482.816 245.251 482.971 246.602 482.971C249.568 482.971 252.036 482.273 254.006 480.879C255.976 479.484 257.548 477.282 258.721 474.271L274.691 433Z" fill="black" fill-opacity="0.8956"/>
<line x1="51.5" y1="89.5" x2="420" y2="89.5" stroke="black" stroke-opacity="0.2169"/>
<line x1="51.5" y1="136.5" x2="420" y2="136.5" stroke="black" stroke-opacity="0.2169"/>
<line x1="51.5" y1="227.5" x2="420" y2="227.5" stroke="black" stroke-opacity="0.2169"/>
<line x1="51.5" y1="182.5" x2="420" y2="182.5" stroke="black" stroke-opacity="0.2169"/>
<line x1="51.5" y1="277.5" x2="420" y2="277.5" stroke="black" stroke-opacity="0.2169"/>
<line x1="51.5" y1="335.5" x2="420" y2="335.5" stroke="black" stroke-opacity="0.2169"/>
<line x1="51.5" y1="398.5" x2="420" y2="398.5" stroke="black" stroke-opacity="0.2169"/>
</svg>
