<svg width="800" height="489" viewBox="0 0 800 489" fill="none" xmlns="http://www.w3.org/2000/svg">
<rect width="800" height="489" fill="black"/>
<path d="M117.285 201.014H103.281V164.744H63.7305V201.014H49.7852V116.99H63.7305V152.322H103.281V116.99H117.285V201.014ZM142.188 130.057C139.609 130.057 137.5 129.236 135.859 127.596C134.258 125.916 133.457 123.904 133.457 121.561C133.457 119.178 134.258 117.166 135.859 115.525C137.5 113.885 139.609 113.064 142.188 113.064C144.805 113.064 146.914 113.885 148.516 115.525C150.156 117.166 150.977 119.178 150.977 121.561C150.977 123.982 150.156 126.014 148.516 127.654C146.914 129.256 144.805 130.057 142.188 130.057ZM148.984 201.014H135.332V141.014H148.984V201.014ZM216.895 174.354H175.469C175.586 180.135 177.148 184.49 180.156 187.42C183.203 190.311 186.934 191.756 191.348 191.756C194.473 191.756 197.246 191.033 199.668 189.588C202.09 188.104 204.141 185.916 205.82 183.025L216.309 188.709C213.574 193.084 210.078 196.463 205.82 198.846C201.602 201.229 196.621 202.42 190.879 202.42C182.051 202.42 174.98 199.764 169.668 194.451C164.355 189.139 161.699 181.502 161.699 171.541C161.699 162.049 164.414 154.354 169.844 148.455C175.312 142.557 182.148 139.607 190.352 139.607C198.789 139.607 205.312 142.127 209.922 147.166C214.57 152.205 216.895 159.51 216.895 169.08V174.354ZM203.711 164.627C203.711 159.939 202.539 156.307 200.195 153.729C197.852 151.15 194.648 149.861 190.586 149.861C186.328 149.861 182.871 151.287 180.215 154.139C177.559 156.951 175.957 160.447 175.41 164.627H203.711ZM263.535 153.26C262.441 152.83 261.309 152.498 260.137 152.264C259.004 151.99 257.793 151.854 256.504 151.854C252.48 151.854 249.219 153.65 246.719 157.244C244.219 160.838 242.969 165.525 242.969 171.307V201.014H229.316V141.014H242.969V151.854H243.203C244.609 148.025 246.68 145.096 249.414 143.064C252.148 140.994 255.312 139.959 258.906 139.959C260.43 139.959 261.836 140.076 263.125 140.311C264.414 140.545 265.801 140.994 267.285 141.658L263.535 153.26ZM321.543 201.014H308.359V193.572H308.125C306.016 196.463 303.438 198.67 300.391 200.193C297.344 201.678 293.945 202.42 290.195 202.42C284.648 202.42 280.098 200.838 276.543 197.674C273.027 194.51 271.27 190.369 271.27 185.252C271.27 179.744 273.027 175.33 276.543 172.01C280.098 168.65 285.176 166.6 291.777 165.857L308.418 163.982V161.111C308.418 157.4 307.383 154.627 305.312 152.791C303.242 150.916 300.527 149.979 297.168 149.979C293.848 149.979 291.055 150.721 288.789 152.205C286.523 153.689 284.648 155.818 283.164 158.592L272.969 153.377C275 149.354 278.203 146.053 282.578 143.475C286.953 140.896 292.148 139.607 298.164 139.607C305.742 139.607 311.523 141.6 315.508 145.584C319.531 149.529 321.543 155.271 321.543 162.811V201.014ZM308.418 176.639V173.357L293.945 174.939C290.625 175.291 288.203 176.209 286.68 177.693C285.156 179.178 284.395 181.17 284.395 183.67C284.395 186.209 285.254 188.279 286.973 189.881C288.73 191.443 290.996 192.225 293.77 192.225C298.145 192.225 301.68 190.76 304.375 187.83C307.07 184.861 308.418 181.131 308.418 176.639ZM371.23 153.26C370.137 152.83 369.004 152.498 367.832 152.264C366.699 151.99 365.488 151.854 364.199 151.854C360.176 151.854 356.914 153.65 354.414 157.244C351.914 160.838 350.664 165.525 350.664 171.307V201.014H337.012V141.014H350.664V151.854H350.898C352.305 148.025 354.375 145.096 357.109 143.064C359.844 140.994 363.008 139.959 366.602 139.959C368.125 139.959 369.531 140.076 370.82 140.311C372.109 140.545 373.496 140.994 374.98 141.658L371.23 153.26ZM432.988 189.822C430.332 194.041 426.895 197.205 422.676 199.314C418.496 201.385 413.867 202.42 408.789 202.42C399.102 202.42 391.543 199.646 386.113 194.1C380.723 188.514 378.027 181.17 378.027 172.068C378.027 162.029 380.898 154.119 386.641 148.338C392.422 142.518 399.922 139.607 409.141 139.607C414.336 139.607 419.023 140.701 423.203 142.889C427.383 145.076 430.547 148.338 432.695 152.674L422.031 158.064C420.156 155.369 418.145 153.475 415.996 152.381C413.887 151.248 411.426 150.682 408.613 150.682C403.77 150.682 399.766 152.479 396.602 156.072C393.477 159.666 391.914 164.686 391.914 171.131C391.914 177.498 393.457 182.42 396.543 185.896C399.668 189.373 403.848 191.111 409.082 191.111C411.738 191.111 414.18 190.564 416.406 189.471C418.672 188.338 420.703 186.443 422.5 183.787L432.988 189.822ZM498.613 201.014H485.02V165.857C485.02 160.818 484.023 157.029 482.031 154.49C480.078 151.951 477.148 150.682 473.242 150.682C468.984 150.682 465.527 152.205 462.871 155.252C460.254 158.299 458.945 162.166 458.945 166.854V201.014H445.293V112.186H458.945V149.1H459.18C461.289 146.092 464.023 143.768 467.383 142.127C470.742 140.447 474.375 139.607 478.281 139.607C484.766 139.607 489.766 141.678 493.281 145.818C496.836 149.92 498.613 155.994 498.613 164.041V201.014ZM568.516 141.014L540.625 212.967C538.555 218.318 535.762 222.361 532.246 225.096C528.77 227.869 524.531 229.256 519.531 229.256C517.109 229.256 514.824 228.982 512.676 228.436C510.566 227.928 508.555 227.107 506.641 225.975L512.559 216.365C513.77 217.068 514.863 217.557 515.84 217.83C516.816 218.143 517.832 218.299 518.887 218.299C520.723 218.299 522.285 217.83 523.574 216.893C524.902 215.994 526.094 214.334 527.148 211.912L531.543 201.717L507.988 141.014H522.871L536.641 180.799C537.07 182.01 537.402 183.084 537.637 184.021C537.871 184.959 538.145 186.111 538.457 187.479H538.75C539.023 186.111 539.297 184.979 539.57 184.08C539.883 183.182 540.234 182.127 540.625 180.916L554.512 141.014H568.516Z" fill="white"/>
<path d="M48.0469 283.57V253.961H51.25V283.57H48.0469ZM73.7305 274.137H59.2969C59.2969 276.611 59.8828 278.421 61.0547 279.566C62.2396 280.699 63.6458 281.266 65.2734 281.266C66.4974 281.266 67.5716 280.986 68.4961 280.426C69.4336 279.853 70.2083 279.007 70.8203 277.887L73.4375 279.215C72.7344 280.647 71.6732 281.812 70.2539 282.711C68.8477 283.596 67.1159 284.039 65.0586 284.039C62.4023 284.039 60.2214 283.16 58.5156 281.402C56.8229 279.645 55.9766 277.06 55.9766 273.648C55.9766 270.615 56.8359 268.102 58.5547 266.109C60.2734 264.104 62.474 263.102 65.1562 263.102C67.8776 263.102 69.987 263.928 71.4844 265.582C72.9818 267.223 73.7305 269.514 73.7305 272.457V274.137ZM70.4492 271.461C70.4492 269.729 69.974 268.368 69.0234 267.379C68.0729 266.376 66.7643 265.875 65.0977 265.875C63.4831 265.875 62.1615 266.409 61.1328 267.477C60.1172 268.544 59.5117 269.872 59.3164 271.461H70.4492ZM88.5938 282.301C88.0078 282.887 87.3633 283.316 86.6602 283.59C85.957 283.863 85.1302 284 84.1797 284C82.6042 284 81.3867 283.564 80.5273 282.691C79.668 281.806 79.2383 280.543 79.2383 278.902V266.305H75.8008V263.57H79.2383V258.844L82.4414 258.277V263.57H87.793V266.305H82.4414V278.629C82.4414 279.579 82.6237 280.27 82.9883 280.699C83.3529 281.129 83.9258 281.344 84.707 281.344C85.0977 281.344 85.4688 281.266 85.8203 281.109C86.1849 280.953 86.5625 280.654 86.9531 280.211L88.5938 282.301ZM91.2891 279.645L94.0234 278.453C94.4661 279.443 95.0781 280.159 95.8594 280.602C96.6536 281.044 97.6237 281.266 98.7695 281.266C99.8633 281.266 100.768 280.992 101.484 280.445C102.214 279.898 102.578 279.111 102.578 278.082C102.578 277.301 102.259 276.63 101.621 276.07C100.996 275.497 100.007 275.061 98.6523 274.762C96.1263 274.202 94.4076 273.434 93.4961 272.457C92.5977 271.48 92.1484 270.328 92.1484 269C92.1484 267.125 92.7995 265.673 94.1016 264.645C95.4167 263.616 96.9857 263.102 98.8086 263.102C100.28 263.102 101.608 263.408 102.793 264.02C103.991 264.632 104.883 265.576 105.469 266.852L102.852 268.062C102.461 267.32 101.94 266.773 101.289 266.422C100.638 266.057 99.7852 265.875 98.7305 265.875C97.7148 265.875 96.862 266.122 96.1719 266.617C95.4818 267.112 95.1367 267.796 95.1367 268.668C95.1367 269.488 95.4167 270.12 95.9766 270.562C96.5365 270.992 97.6497 271.396 99.3164 271.773C101.491 272.255 103.086 272.997 104.102 274C105.117 274.99 105.625 276.285 105.625 277.887C105.625 279.84 104.948 281.357 103.594 282.438C102.253 283.505 100.645 284.039 98.7695 284.039C96.8294 284.039 95.2409 283.642 94.0039 282.848C92.7799 282.04 91.875 280.973 91.2891 279.645ZM130.273 282.301C129.688 282.887 129.043 283.316 128.34 283.59C127.637 283.863 126.81 284 125.859 284C124.284 284 123.066 283.564 122.207 282.691C121.348 281.806 120.918 280.543 120.918 278.902V266.305H117.48V263.57H120.918V258.844L124.121 258.277V263.57H129.473V266.305H124.121V278.629C124.121 279.579 124.303 280.27 124.668 280.699C125.033 281.129 125.605 281.344 126.387 281.344C126.777 281.344 127.148 281.266 127.5 281.109C127.865 280.953 128.242 280.654 128.633 280.211L130.273 282.301ZM150.781 283.57H147.578V271.695C147.578 269.729 147.201 268.271 146.445 267.32C145.703 266.357 144.577 265.875 143.066 265.875C141.374 265.875 140 266.474 138.945 267.672C137.904 268.857 137.383 270.361 137.383 272.184V283.57H134.18V253.961H137.383V266.422H137.461C138.216 265.315 139.141 264.488 140.234 263.941C141.328 263.382 142.591 263.102 144.023 263.102C146.211 263.102 147.884 263.805 149.043 265.211C150.202 266.617 150.781 268.661 150.781 271.344V283.57ZM172.832 274.137H158.398C158.398 276.611 158.984 278.421 160.156 279.566C161.341 280.699 162.747 281.266 164.375 281.266C165.599 281.266 166.673 280.986 167.598 280.426C168.535 279.853 169.31 279.007 169.922 277.887L172.539 279.215C171.836 280.647 170.775 281.812 169.355 282.711C167.949 283.596 166.217 284.039 164.16 284.039C161.504 284.039 159.323 283.16 157.617 281.402C155.924 279.645 155.078 277.06 155.078 273.648C155.078 270.615 155.938 268.102 157.656 266.109C159.375 264.104 161.576 263.102 164.258 263.102C166.979 263.102 169.089 263.928 170.586 265.582C172.083 267.223 172.832 269.514 172.832 272.457V274.137ZM169.551 271.461C169.551 269.729 169.076 268.368 168.125 267.379C167.174 266.376 165.866 265.875 164.199 265.875C162.585 265.875 161.263 266.409 160.234 267.477C159.219 268.544 158.613 269.872 158.418 271.461H169.551ZM196.914 266.578C196.602 266.435 196.263 266.318 195.898 266.227C195.547 266.135 195.15 266.09 194.707 266.09C193.275 266.09 192.109 266.773 191.211 268.141C190.326 269.508 189.883 271.253 189.883 273.375V283.57H186.68V263.57H189.883V267.223H189.961C190.417 265.973 191.113 264.996 192.051 264.293C192.988 263.577 194.036 263.219 195.195 263.219C195.729 263.219 196.211 263.264 196.641 263.355C197.07 263.434 197.559 263.603 198.105 263.863L196.914 266.578ZM217.598 274.137H203.164C203.164 276.611 203.75 278.421 204.922 279.566C206.107 280.699 207.513 281.266 209.141 281.266C210.365 281.266 211.439 280.986 212.363 280.426C213.301 279.853 214.076 279.007 214.688 277.887L217.305 279.215C216.602 280.647 215.54 281.812 214.121 282.711C212.715 283.596 210.983 284.039 208.926 284.039C206.27 284.039 204.089 283.16 202.383 281.402C200.69 279.645 199.844 277.06 199.844 273.648C199.844 270.615 200.703 268.102 202.422 266.109C204.141 264.104 206.341 263.102 209.023 263.102C211.745 263.102 213.854 263.928 215.352 265.582C216.849 267.223 217.598 269.514 217.598 272.457V274.137ZM214.316 271.461C214.316 269.729 213.841 268.368 212.891 267.379C211.94 266.376 210.632 265.875 208.965 265.875C207.35 265.875 206.029 266.409 205 267.477C203.984 268.544 203.379 269.872 203.184 271.461H214.316ZM236.23 283.57H233.027V280.914H232.949C232.272 281.917 231.413 282.691 230.371 283.238C229.342 283.772 228.203 284.039 226.953 284.039C224.961 284.039 223.398 283.505 222.266 282.438C221.146 281.37 220.586 280.035 220.586 278.434C220.586 276.559 221.172 275.107 222.344 274.078C223.516 273.036 225.156 272.392 227.266 272.145L233.027 271.48V270.211C233.027 268.766 232.65 267.685 231.895 266.969C231.152 266.24 230.13 265.875 228.828 265.875C227.591 265.875 226.569 266.155 225.762 266.715C224.954 267.262 224.336 268.03 223.906 269.02L221.113 267.867C221.764 266.357 222.767 265.185 224.121 264.352C225.488 263.518 227.116 263.102 229.004 263.102C231.335 263.102 233.118 263.727 234.355 264.977C235.605 266.214 236.23 267.952 236.23 270.191V283.57ZM233.027 275.445V274.078L227.48 274.703C226.243 274.846 225.332 275.204 224.746 275.777C224.16 276.337 223.867 277.086 223.867 278.023C223.867 279.052 224.206 279.879 224.883 280.504C225.56 281.116 226.445 281.422 227.539 281.422C229.18 281.422 230.501 280.862 231.504 279.742C232.52 278.609 233.027 277.177 233.027 275.445ZM255.977 280.641C255.234 281.747 254.284 282.594 253.125 283.18C251.979 283.753 250.703 284.039 249.297 284.039C246.497 284.039 244.329 283.147 242.793 281.363C241.27 279.566 240.508 277.125 240.508 274.039C240.508 270.654 241.374 267.984 243.105 266.031C244.837 264.078 247.096 263.102 249.883 263.102C251.237 263.102 252.435 263.349 253.477 263.844C254.531 264.339 255.365 265.016 255.977 265.875H256.055V253.961H259.258V283.57H256.055V280.641H255.977ZM243.789 273.883C243.789 276.148 244.31 277.945 245.352 279.273C246.406 280.602 247.858 281.266 249.707 281.266C251.66 281.266 253.203 280.628 254.336 279.352C255.482 278.076 256.055 276.467 256.055 274.527V271.578C256.055 269.99 255.501 268.642 254.395 267.535C253.301 266.428 251.882 265.875 250.137 265.875C248.197 265.875 246.654 266.559 245.508 267.926C244.362 269.293 243.789 271.279 243.789 273.883ZM281.738 274.137H267.305C267.305 276.611 267.891 278.421 269.062 279.566C270.247 280.699 271.654 281.266 273.281 281.266C274.505 281.266 275.579 280.986 276.504 280.426C277.441 279.853 278.216 279.007 278.828 277.887L281.445 279.215C280.742 280.647 279.681 281.812 278.262 282.711C276.855 283.596 275.124 284.039 273.066 284.039C270.41 284.039 268.229 283.16 266.523 281.402C264.831 279.645 263.984 277.06 263.984 273.648C263.984 270.615 264.844 268.102 266.562 266.109C268.281 264.104 270.482 263.102 273.164 263.102C275.885 263.102 277.995 263.928 279.492 265.582C280.99 267.223 281.738 269.514 281.738 272.457V274.137ZM278.457 271.461C278.457 269.729 277.982 268.368 277.031 267.379C276.081 266.376 274.772 265.875 273.105 265.875C271.491 265.875 270.169 266.409 269.141 267.477C268.125 268.544 267.52 269.872 267.324 271.461H278.457ZM296.445 266.578C296.133 266.435 295.794 266.318 295.43 266.227C295.078 266.135 294.681 266.09 294.238 266.09C292.806 266.09 291.641 266.773 290.742 268.141C289.857 269.508 289.414 271.253 289.414 273.375V283.57H286.211V263.57H289.414V267.223H289.492C289.948 265.973 290.645 264.996 291.582 264.293C292.52 263.577 293.568 263.219 294.727 263.219C295.26 263.219 295.742 263.264 296.172 263.355C296.602 263.434 297.09 263.603 297.637 263.863L296.445 266.578ZM326.465 283.57H322.227L313.398 273.961H313.32V283.57H310.117V253.961H313.32V272.73H313.398L321.953 263.57H325.898L316.719 273.219L326.465 283.57ZM346.445 283.57H343.242V271.695C343.242 269.729 342.865 268.271 342.109 267.32C341.367 266.357 340.241 265.875 338.73 265.875C337.038 265.875 335.664 266.474 334.609 267.672C333.568 268.857 333.047 270.354 333.047 272.164V283.57H329.844V263.57H333.047V266.422H333.125C333.88 265.315 334.805 264.488 335.898 263.941C336.992 263.382 338.255 263.102 339.688 263.102C341.875 263.102 343.548 263.811 344.707 265.23C345.866 266.637 346.445 268.674 346.445 271.344V283.57ZM360.684 284.039C357.572 284.039 355.137 283.115 353.379 281.266C351.621 279.404 350.742 276.917 350.742 273.805C350.742 270.589 351.719 268.004 353.672 266.051C355.625 264.085 358.066 263.102 360.996 263.102C363.991 263.102 366.361 264.059 368.105 265.973C369.863 267.874 370.742 270.38 370.742 273.492C370.742 276.5 369.837 279.013 368.027 281.031C366.23 283.036 363.783 284.039 360.684 284.039ZM360.859 281.266C362.878 281.266 364.479 280.595 365.664 279.254C366.862 277.9 367.461 276.018 367.461 273.609C367.461 271.318 366.862 269.462 365.664 268.043C364.479 266.611 362.878 265.895 360.859 265.895C358.841 265.895 357.194 266.617 355.918 268.062C354.655 269.495 354.023 271.37 354.023 273.688C354.023 276.122 354.655 277.997 355.918 279.312C357.194 280.615 358.841 281.266 360.859 281.266ZM400.781 263.57L394.785 283.57H391.465L387.344 269.254C387.24 268.876 387.168 268.629 387.129 268.512C387.103 268.382 387.064 268.167 387.012 267.867H386.934C386.868 268.167 386.81 268.388 386.758 268.531C386.719 268.674 386.647 268.902 386.543 269.215L382.07 283.57H378.789L372.734 263.57H376.094L380.234 278.355C380.299 278.577 380.352 278.785 380.391 278.98C380.43 279.176 380.475 279.417 380.527 279.703H380.645C380.71 279.404 380.768 279.163 380.82 278.98C380.872 278.785 380.938 278.564 381.016 278.316L385.625 263.57H388.633L392.773 278.395C392.826 278.577 392.878 278.779 392.93 279C392.982 279.208 393.04 279.443 393.105 279.703H393.223C393.288 279.443 393.333 279.241 393.359 279.098C393.398 278.941 393.464 278.707 393.555 278.395L397.617 263.57H400.781ZM438.828 263.57L432.832 283.57H429.512L425.391 269.254C425.286 268.876 425.215 268.629 425.176 268.512C425.15 268.382 425.111 268.167 425.059 267.867H424.98C424.915 268.167 424.857 268.388 424.805 268.531C424.766 268.674 424.694 268.902 424.59 269.215L420.117 283.57H416.836L410.781 263.57H414.141L418.281 278.355C418.346 278.577 418.398 278.785 418.438 278.98C418.477 279.176 418.522 279.417 418.574 279.703H418.691C418.757 279.404 418.815 279.163 418.867 278.98C418.919 278.785 418.984 278.564 419.062 278.316L423.672 263.57H426.68L430.82 278.395C430.872 278.577 430.924 278.779 430.977 279C431.029 279.208 431.087 279.443 431.152 279.703H431.27C431.335 279.443 431.38 279.241 431.406 279.098C431.445 278.941 431.51 278.707 431.602 278.395L435.664 263.57H438.828ZM458.789 283.57H455.586V271.695C455.586 269.729 455.208 268.271 454.453 267.32C453.711 266.357 452.585 265.875 451.074 265.875C449.382 265.875 448.008 266.474 446.953 267.672C445.911 268.857 445.391 270.361 445.391 272.184V283.57H442.188V253.961H445.391V266.422H445.469C446.224 265.315 447.148 264.488 448.242 263.941C449.336 263.382 450.599 263.102 452.031 263.102C454.219 263.102 455.892 263.805 457.051 265.211C458.21 266.617 458.789 268.661 458.789 271.344V283.57ZM480.84 274.137H466.406C466.406 276.611 466.992 278.421 468.164 279.566C469.349 280.699 470.755 281.266 472.383 281.266C473.607 281.266 474.681 280.986 475.605 280.426C476.543 279.853 477.318 279.007 477.93 277.887L480.547 279.215C479.844 280.647 478.783 281.812 477.363 282.711C475.957 283.596 474.225 284.039 472.168 284.039C469.512 284.039 467.331 283.16 465.625 281.402C463.932 279.645 463.086 277.06 463.086 273.648C463.086 270.615 463.945 268.102 465.664 266.109C467.383 264.104 469.583 263.102 472.266 263.102C474.987 263.102 477.096 263.928 478.594 265.582C480.091 267.223 480.84 269.514 480.84 272.457V274.137ZM477.559 271.461C477.559 269.729 477.083 268.368 476.133 267.379C475.182 266.376 473.874 265.875 472.207 265.875C470.592 265.875 469.271 266.409 468.242 267.477C467.227 268.544 466.621 269.872 466.426 271.461H477.559ZM495.547 266.578C495.234 266.435 494.896 266.318 494.531 266.227C494.18 266.135 493.783 266.09 493.34 266.09C491.908 266.09 490.742 266.773 489.844 268.141C488.958 269.508 488.516 271.253 488.516 273.375V283.57H485.312V263.57H488.516V267.223H488.594C489.049 265.973 489.746 264.996 490.684 264.293C491.621 263.577 492.669 263.219 493.828 263.219C494.362 263.219 494.844 263.264 495.273 263.355C495.703 263.434 496.191 263.603 496.738 263.863L495.547 266.578ZM516.23 274.137H501.797C501.797 276.611 502.383 278.421 503.555 279.566C504.74 280.699 506.146 281.266 507.773 281.266C508.997 281.266 510.072 280.986 510.996 280.426C511.934 279.853 512.708 279.007 513.32 277.887L515.938 279.215C515.234 280.647 514.173 281.812 512.754 282.711C511.348 283.596 509.616 284.039 507.559 284.039C504.902 284.039 502.721 283.16 501.016 281.402C499.323 279.645 498.477 277.06 498.477 273.648C498.477 270.615 499.336 268.102 501.055 266.109C502.773 264.104 504.974 263.102 507.656 263.102C510.378 263.102 512.487 263.928 513.984 265.582C515.482 267.223 516.23 269.514 516.23 272.457V274.137ZM512.949 271.461C512.949 269.729 512.474 268.368 511.523 267.379C510.573 266.376 509.264 265.875 507.598 265.875C505.983 265.875 504.661 266.409 503.633 267.477C502.617 268.544 502.012 269.872 501.816 271.461H512.949ZM540.469 282.301C539.883 282.887 539.238 283.316 538.535 283.59C537.832 283.863 537.005 284 536.055 284C534.479 284 533.262 283.564 532.402 282.691C531.543 281.806 531.113 280.543 531.113 278.902V266.305H527.676V263.57H531.113V258.844L534.316 258.277V263.57H539.668V266.305H534.316V278.629C534.316 279.579 534.499 280.27 534.863 280.699C535.228 281.129 535.801 281.344 536.582 281.344C536.973 281.344 537.344 281.266 537.695 281.109C538.06 280.953 538.438 280.654 538.828 280.211L540.469 282.301ZM552.949 284.039C549.837 284.039 547.402 283.115 545.645 281.266C543.887 279.404 543.008 276.917 543.008 273.805C543.008 270.589 543.984 268.004 545.938 266.051C547.891 264.085 550.332 263.102 553.262 263.102C556.257 263.102 558.626 264.059 560.371 265.973C562.129 267.874 563.008 270.38 563.008 273.492C563.008 276.5 562.103 279.013 560.293 281.031C558.496 283.036 556.048 284.039 552.949 284.039ZM553.125 281.266C555.143 281.266 556.745 280.595 557.93 279.254C559.128 277.9 559.727 276.018 559.727 273.609C559.727 271.318 559.128 269.462 557.93 268.043C556.745 266.611 555.143 265.895 553.125 265.895C551.107 265.895 549.46 266.617 548.184 268.062C546.921 269.495 546.289 271.37 546.289 273.688C546.289 276.122 546.921 277.997 548.184 279.312C549.46 280.615 551.107 281.266 553.125 281.266ZM577.109 283.57V253.961H580.312V283.57H577.109ZM594.98 284.039C591.868 284.039 589.434 283.115 587.676 281.266C585.918 279.404 585.039 276.917 585.039 273.805C585.039 270.589 586.016 268.004 587.969 266.051C589.922 264.085 592.363 263.102 595.293 263.102C598.288 263.102 600.658 264.059 602.402 265.973C604.16 267.874 605.039 270.38 605.039 273.492C605.039 276.5 604.134 279.013 602.324 281.031C600.527 283.036 598.079 284.039 594.98 284.039ZM595.156 281.266C597.174 281.266 598.776 280.595 599.961 279.254C601.159 277.9 601.758 276.018 601.758 273.609C601.758 271.318 601.159 269.462 599.961 268.043C598.776 266.611 597.174 265.895 595.156 265.895C593.138 265.895 591.491 266.617 590.215 268.062C588.952 269.495 588.32 271.37 588.32 273.688C588.32 276.122 588.952 277.997 590.215 279.312C591.491 280.615 593.138 281.266 595.156 281.266ZM618.34 284.039C615.228 284.039 612.793 283.115 611.035 281.266C609.277 279.404 608.398 276.917 608.398 273.805C608.398 270.589 609.375 268.004 611.328 266.051C613.281 264.085 615.723 263.102 618.652 263.102C621.647 263.102 624.017 264.059 625.762 265.973C627.52 267.874 628.398 270.38 628.398 273.492C628.398 276.5 627.493 279.013 625.684 281.031C623.887 283.036 621.439 284.039 618.34 284.039ZM618.516 281.266C620.534 281.266 622.135 280.595 623.32 279.254C624.518 277.9 625.117 276.018 625.117 273.609C625.117 271.318 624.518 269.462 623.32 268.043C622.135 266.611 620.534 265.895 618.516 265.895C616.497 265.895 614.85 266.617 613.574 268.062C612.311 269.495 611.68 271.37 611.68 273.688C611.68 276.122 612.311 277.997 613.574 279.312C614.85 280.615 616.497 281.266 618.516 281.266ZM649.473 283.57H645.234L636.406 273.961H636.328V283.57H633.125V253.961H636.328V272.73H636.406L644.961 263.57H648.906L639.727 273.219L649.473 283.57ZM671.895 256.852C671.608 256.682 671.289 256.539 670.938 256.422C670.599 256.305 670.195 256.246 669.727 256.246C668.724 256.246 667.956 256.552 667.422 257.164C666.888 257.763 666.621 258.655 666.621 259.84V263.57H671.309V266.305H666.621V283.57H663.438V266.305H660.02V263.57H663.438V259.684C663.438 257.887 664.01 256.415 665.156 255.27C666.302 254.111 667.845 253.531 669.785 253.531C670.397 253.531 671.009 253.609 671.621 253.766C672.246 253.909 672.832 254.137 673.379 254.449L671.895 256.852ZM676.426 259.059C675.736 259.059 675.176 258.831 674.746 258.375C674.316 257.906 674.102 257.359 674.102 256.734C674.102 256.109 674.316 255.569 674.746 255.113C675.176 254.645 675.736 254.41 676.426 254.41C677.116 254.41 677.676 254.645 678.105 255.113C678.535 255.569 678.75 256.109 678.75 256.734C678.75 257.359 678.535 257.906 678.105 258.375C677.676 258.831 677.116 259.059 676.426 259.059ZM677.988 283.57H674.785V263.57H677.988V283.57ZM694.258 266.578C693.945 266.435 693.607 266.318 693.242 266.227C692.891 266.135 692.493 266.09 692.051 266.09C690.618 266.09 689.453 266.773 688.555 268.141C687.669 269.508 687.227 271.253 687.227 273.375V283.57H684.023V263.57H687.227V267.223H687.305C687.76 265.973 688.457 264.996 689.395 264.293C690.332 263.577 691.38 263.219 692.539 263.219C693.073 263.219 693.555 263.264 693.984 263.355C694.414 263.434 694.902 263.603 695.449 263.863L694.258 266.578ZM697.344 279.645L700.078 278.453C700.521 279.443 701.133 280.159 701.914 280.602C702.708 281.044 703.678 281.266 704.824 281.266C705.918 281.266 706.823 280.992 707.539 280.445C708.268 279.898 708.633 279.111 708.633 278.082C708.633 277.301 708.314 276.63 707.676 276.07C707.051 275.497 706.061 275.061 704.707 274.762C702.181 274.202 700.462 273.434 699.551 272.457C698.652 271.48 698.203 270.328 698.203 269C698.203 267.125 698.854 265.673 700.156 264.645C701.471 263.616 703.04 263.102 704.863 263.102C706.335 263.102 707.663 263.408 708.848 264.02C710.046 264.632 710.938 265.576 711.523 266.852L708.906 268.062C708.516 267.32 707.995 266.773 707.344 266.422C706.693 266.057 705.84 265.875 704.785 265.875C703.77 265.875 702.917 266.122 702.227 266.617C701.536 267.112 701.191 267.796 701.191 268.668C701.191 269.488 701.471 270.12 702.031 270.562C702.591 270.992 703.704 271.396 705.371 271.773C707.546 272.255 709.141 272.997 710.156 274C711.172 274.99 711.68 276.285 711.68 277.887C711.68 279.84 711.003 281.357 709.648 282.438C708.307 283.505 706.699 284.039 704.824 284.039C702.884 284.039 701.296 283.642 700.059 282.848C698.835 282.04 697.93 280.973 697.344 279.645ZM726.953 282.301C726.367 282.887 725.723 283.316 725.02 283.59C724.316 283.863 723.49 284 722.539 284C720.964 284 719.746 283.564 718.887 282.691C718.027 281.806 717.598 280.543 717.598 278.902V266.305H714.16V263.57H717.598V258.844L720.801 258.277V263.57H726.152V266.305H720.801V278.629C720.801 279.579 720.983 280.27 721.348 280.699C721.712 281.129 722.285 281.344 723.066 281.344C723.457 281.344 723.828 281.266 724.18 281.109C724.544 280.953 724.922 280.654 725.312 280.211L726.953 282.301Z" fill="white"/>
<path d="M56.7339 412.697H54.9834V408.142H50.0396V412.697H48.2964V402.194H50.0396V406.611H54.9834V402.194H56.7339V412.697ZM60.0005 403.747C59.688 403.747 59.4292 403.647 59.2241 403.447C59.019 403.247 58.9165 403 58.9165 402.707C58.9165 402.404 59.019 402.155 59.2241 401.96C59.4292 401.765 59.688 401.667 60.0005 401.667C60.3179 401.667 60.5791 401.765 60.7842 401.96C60.9893 402.155 61.0918 402.404 61.0918 402.707C61.0918 403.005 60.9893 403.254 60.7842 403.454C60.5791 403.649 60.3179 403.747 60.0005 403.747ZM60.8428 412.697H59.1362V405.197H60.8428V412.697ZM69.4121 409.394H64.2925C64.3218 410.102 64.5269 410.642 64.9077 411.013C65.2886 411.379 65.8208 411.562 66.5044 411.562C66.7827 411.562 67.1001 411.506 67.4565 411.394C67.813 411.281 68.1646 411.101 68.5112 410.852L69.2803 411.914C68.8164 412.25 68.3452 412.495 67.8667 412.646C67.3882 412.797 66.8608 412.873 66.2847 412.873C65.1177 412.873 64.2095 412.539 63.5601 411.87C62.9106 411.196 62.5835 410.256 62.5786 409.05C62.5786 407.849 62.9131 406.877 63.582 406.135C64.2559 405.393 65.1177 405.021 66.1675 405.021C67.1733 405.021 67.9644 405.339 68.5405 405.974C69.1216 406.604 69.4121 407.497 69.4121 408.654V409.394ZM67.7642 408.215C67.7642 407.57 67.6226 407.087 67.3394 406.765C67.061 406.438 66.6655 406.274 66.1528 406.274C65.6694 406.274 65.2568 406.45 64.915 406.801C64.5781 407.148 64.3706 407.619 64.2925 408.215H67.7642ZM75.2056 406.625C75.1128 406.601 75.0225 406.584 74.9346 406.574C74.8516 406.56 74.7539 406.552 74.6416 406.552C74.0312 406.552 73.5625 406.777 73.2354 407.226C72.9082 407.675 72.7446 408.261 72.7446 408.984V412.697H71.0381V405.197H72.7446V406.64H72.7739C72.9497 406.123 73.2085 405.732 73.5503 405.468C73.8921 405.2 74.2949 405.065 74.7588 405.065C74.8906 405.065 75.0078 405.073 75.1104 405.087C75.2178 405.102 75.3203 405.124 75.418 405.153L75.2056 406.625ZM82.3101 412.697H80.6621V411.569H80.6328C80.3789 412.004 80.064 412.331 79.688 412.551C79.312 412.766 78.8799 412.873 78.3916 412.873C77.7129 412.873 77.1489 412.673 76.6997 412.272C76.2505 411.867 76.0259 411.315 76.0259 410.617C76.0259 409.953 76.2505 409.409 76.6997 408.984C77.1489 408.554 77.8154 408.276 78.6992 408.149L80.6694 407.885V407.731C80.6694 407.224 80.5376 406.855 80.2739 406.625C80.0103 406.396 79.6538 406.281 79.2046 406.281C78.8481 406.281 78.4844 406.345 78.1133 406.472C77.7471 406.599 77.3906 406.796 77.0439 407.065L76.3042 406.047C76.7632 405.695 77.2368 405.437 77.7251 405.271C78.2134 405.104 78.7505 405.021 79.3364 405.021C80.3423 405.021 81.0894 405.271 81.5776 405.769C82.0659 406.262 82.3101 407.004 82.3101 407.995V412.697ZM80.6694 409.65V409.013L79.0654 409.226C78.5918 409.294 78.2354 409.423 77.9961 409.614C77.7617 409.799 77.6445 410.073 77.6445 410.434C77.6445 410.8 77.7568 411.086 77.9814 411.291C78.2061 411.496 78.4941 411.599 78.8457 411.599C79.3975 411.599 79.8394 411.416 80.1714 411.049C80.5034 410.678 80.6694 410.212 80.6694 409.65ZM88.5942 406.625C88.5015 406.601 88.4111 406.584 88.3232 406.574C88.2402 406.56 88.1426 406.552 88.0303 406.552C87.4199 406.552 86.9512 406.777 86.624 407.226C86.2969 407.675 86.1333 408.261 86.1333 408.984V412.697H84.4268V405.197H86.1333V406.64H86.1626C86.3384 406.123 86.5972 405.732 86.939 405.468C87.2808 405.2 87.6836 405.065 88.1475 405.065C88.2793 405.065 88.3965 405.073 88.499 405.087C88.6064 405.102 88.709 405.124 88.8066 405.153L88.5942 406.625ZM95.457 412.236C95.0859 412.46 94.7173 412.622 94.3511 412.719C93.9849 412.822 93.5869 412.873 93.1572 412.873C92.0049 412.873 91.082 412.536 90.3887 411.862C89.7002 411.188 89.356 410.273 89.356 409.116C89.356 407.871 89.7124 406.877 90.4253 406.135C91.1431 405.393 92.1099 405.021 93.3257 405.021C93.7505 405.021 94.1362 405.068 94.4829 405.161C94.8345 405.249 95.1909 405.395 95.5522 405.6L94.8857 406.787C94.6318 406.645 94.3828 406.542 94.1387 406.479C93.8945 406.411 93.6284 406.376 93.3403 406.376C92.6226 406.376 92.0684 406.613 91.6777 407.087C91.2871 407.561 91.0918 408.188 91.0918 408.969C91.0918 409.79 91.3018 410.419 91.7217 410.859C92.1465 411.298 92.6787 411.518 93.3184 411.518C93.5137 411.518 93.7383 411.484 93.9922 411.416C94.2461 411.342 94.5024 411.228 94.7612 411.071L95.457 412.236ZM103.565 412.697H101.866V408.405C101.866 407.727 101.741 407.219 101.492 406.882C101.243 406.545 100.867 406.376 100.364 406.376C99.8613 406.376 99.4414 406.569 99.1045 406.955C98.7725 407.341 98.6064 407.834 98.6064 408.435V412.697H96.8999V401.594H98.6064V406.384H98.6357C98.9189 405.925 99.2607 405.583 99.6611 405.358C100.062 405.134 100.516 405.021 101.023 405.021C101.873 405.021 102.508 405.278 102.928 405.791C103.353 406.298 103.565 407.062 103.565 408.083V412.697ZM112.127 405.197L108.677 414.111C108.409 414.799 108.042 415.324 107.579 415.686C107.12 416.047 106.57 416.228 105.931 416.228C105.745 416.228 105.569 416.215 105.403 416.191C105.242 416.171 105.083 416.142 104.927 416.103L105.228 414.777C105.33 414.812 105.425 414.836 105.513 414.851C105.601 414.865 105.696 414.873 105.799 414.873C106.077 414.873 106.314 414.802 106.509 414.66C106.705 414.519 106.861 414.309 106.978 414.03L107.549 412.683L104.568 405.197H106.458L108.201 410.419C108.226 410.502 108.252 410.61 108.282 410.742C108.311 410.869 108.343 411.018 108.377 411.188H108.414C108.433 411.091 108.458 410.981 108.487 410.859C108.516 410.732 108.555 410.59 108.604 410.434L110.413 405.197H112.127ZM123.011 412.236C122.64 412.46 122.271 412.622 121.905 412.719C121.539 412.822 121.141 412.873 120.711 412.873C119.559 412.873 118.636 412.536 117.942 411.862C117.254 411.188 116.91 410.273 116.91 409.116C116.91 407.871 117.266 406.877 117.979 406.135C118.697 405.393 119.664 405.021 120.879 405.021C121.304 405.021 121.69 405.068 122.037 405.161C122.388 405.249 122.745 405.395 123.106 405.6L122.439 406.787C122.186 406.645 121.937 406.542 121.692 406.479C121.448 406.411 121.182 406.376 120.894 406.376C120.176 406.376 119.622 406.613 119.231 407.087C118.841 407.561 118.646 408.188 118.646 408.969C118.646 409.79 118.855 410.419 119.275 410.859C119.7 411.298 120.232 411.518 120.872 411.518C121.067 411.518 121.292 411.484 121.546 411.416C121.8 411.342 122.056 411.228 122.315 411.071L123.011 412.236ZM130.181 412.697H128.533V411.569H128.504C128.25 412.004 127.935 412.331 127.559 412.551C127.183 412.766 126.751 412.873 126.263 412.873C125.584 412.873 125.02 412.673 124.571 412.272C124.122 411.867 123.897 411.315 123.897 410.617C123.897 409.953 124.122 409.409 124.571 408.984C125.02 408.554 125.687 408.276 126.57 408.149L128.541 407.885V407.731C128.541 407.224 128.409 406.855 128.145 406.625C127.881 406.396 127.525 406.281 127.076 406.281C126.719 406.281 126.355 406.345 125.984 406.472C125.618 406.599 125.262 406.796 124.915 407.065L124.175 406.047C124.634 405.695 125.108 405.437 125.596 405.271C126.084 405.104 126.622 405.021 127.208 405.021C128.213 405.021 128.96 405.271 129.449 405.769C129.937 406.262 130.181 407.004 130.181 407.995V412.697ZM128.541 409.65V409.013L126.937 409.226C126.463 409.294 126.106 409.423 125.867 409.614C125.633 409.799 125.516 410.073 125.516 410.434C125.516 410.8 125.628 411.086 125.853 411.291C126.077 411.496 126.365 411.599 126.717 411.599C127.269 411.599 127.71 411.416 128.042 411.049C128.375 410.678 128.541 410.212 128.541 409.65ZM138.978 412.697H137.278V408.471C137.278 407.773 137.151 407.25 136.897 406.904C136.644 406.552 136.263 406.376 135.755 406.376C135.247 406.376 134.827 406.569 134.495 406.955C134.163 407.341 133.997 407.829 133.997 408.42V412.697H132.291V405.197H133.997V406.413H134.026C134.305 405.949 134.646 405.603 135.052 405.373C135.457 405.139 135.928 405.021 136.465 405.021C137.286 405.021 137.908 405.283 138.333 405.805C138.763 406.328 138.978 407.097 138.978 408.112V412.697ZM146.917 411.774H146.888V412.697H145.181V401.594H146.888V406.428H146.917C147.205 405.959 147.559 405.607 147.979 405.373C148.399 405.139 148.885 405.021 149.437 405.021C150.403 405.021 151.153 405.356 151.685 406.025C152.222 406.689 152.491 407.59 152.491 408.728C152.491 409.982 152.183 410.988 151.568 411.745C150.958 412.497 150.132 412.873 149.092 412.873C148.614 412.873 148.191 412.783 147.825 412.602C147.464 412.417 147.161 412.141 146.917 411.774ZM146.866 408.625V409.541C146.866 410.102 147.039 410.573 147.386 410.954C147.732 411.33 148.174 411.518 148.711 411.518C149.351 411.518 149.849 411.274 150.206 410.786C150.562 410.297 150.74 409.614 150.74 408.735C150.74 407.993 150.574 407.414 150.242 406.999C149.91 406.584 149.454 406.376 148.873 406.376C148.277 406.376 147.793 406.589 147.422 407.014C147.051 407.434 146.866 407.971 146.866 408.625ZM160.569 409.394H155.45C155.479 410.102 155.684 410.642 156.065 411.013C156.446 411.379 156.978 411.562 157.662 411.562C157.94 411.562 158.257 411.506 158.614 411.394C158.97 411.281 159.322 411.101 159.668 410.852L160.438 411.914C159.974 412.25 159.502 412.495 159.024 412.646C158.545 412.797 158.018 412.873 157.442 412.873C156.275 412.873 155.367 412.539 154.717 411.87C154.068 411.196 153.741 410.256 153.736 409.05C153.736 407.849 154.07 406.877 154.739 406.135C155.413 405.393 156.275 405.021 157.325 405.021C158.331 405.021 159.122 405.339 159.698 405.974C160.279 406.604 160.569 407.497 160.569 408.654V409.394ZM158.921 408.215C158.921 407.57 158.78 407.087 158.497 406.765C158.218 406.438 157.823 406.274 157.31 406.274C156.827 406.274 156.414 406.45 156.072 406.801C155.735 407.148 155.528 407.619 155.45 408.215H158.921ZM171.937 412.236C171.565 412.46 171.197 412.622 170.831 412.719C170.464 412.822 170.066 412.873 169.637 412.873C168.484 412.873 167.562 412.536 166.868 411.862C166.18 411.188 165.835 410.273 165.835 409.116C165.835 407.871 166.192 406.877 166.905 406.135C167.623 405.393 168.589 405.021 169.805 405.021C170.23 405.021 170.616 405.068 170.962 405.161C171.314 405.249 171.67 405.395 172.032 405.6L171.365 406.787C171.111 406.645 170.862 406.542 170.618 406.479C170.374 406.411 170.108 406.376 169.82 406.376C169.102 406.376 168.548 406.613 168.157 407.087C167.767 407.561 167.571 408.188 167.571 408.969C167.571 409.79 167.781 410.419 168.201 410.859C168.626 411.298 169.158 411.518 169.798 411.518C169.993 411.518 170.218 411.484 170.472 411.416C170.726 411.342 170.982 411.228 171.241 411.071L171.937 412.236ZM177.554 406.625C177.461 406.601 177.371 406.584 177.283 406.574C177.2 406.56 177.103 406.552 176.99 406.552C176.38 406.552 175.911 406.777 175.584 407.226C175.257 407.675 175.093 408.261 175.093 408.984V412.697H173.387V405.197H175.093V406.64H175.123C175.298 406.123 175.557 405.732 175.899 405.468C176.241 405.2 176.644 405.065 177.107 405.065C177.239 405.065 177.356 405.073 177.459 405.087C177.566 405.102 177.669 405.124 177.767 405.153L177.554 406.625ZM185.149 409.394H180.03C180.059 410.102 180.264 410.642 180.645 411.013C181.026 411.379 181.558 411.562 182.242 411.562C182.52 411.562 182.837 411.506 183.194 411.394C183.55 411.281 183.902 411.101 184.249 410.852L185.018 411.914C184.554 412.25 184.083 412.495 183.604 412.646C183.125 412.797 182.598 412.873 182.022 412.873C180.855 412.873 179.947 412.539 179.297 411.87C178.648 411.196 178.321 410.256 178.316 409.05C178.316 407.849 178.65 406.877 179.319 406.135C179.993 405.393 180.855 405.021 181.905 405.021C182.911 405.021 183.702 405.339 184.278 405.974C184.859 406.604 185.149 407.497 185.149 408.654V409.394ZM183.501 408.215C183.501 407.57 183.36 407.087 183.077 406.765C182.798 406.438 182.403 406.274 181.89 406.274C181.407 406.274 180.994 406.45 180.652 406.801C180.315 407.148 180.108 407.619 180.03 408.215H183.501ZM192.496 412.697H190.848V411.569H190.818C190.564 412.004 190.25 412.331 189.874 412.551C189.498 412.766 189.065 412.873 188.577 412.873C187.898 412.873 187.334 412.673 186.885 412.272C186.436 411.867 186.211 411.315 186.211 410.617C186.211 409.953 186.436 409.409 186.885 408.984C187.334 408.554 188.001 408.276 188.885 408.149L190.855 407.885V407.731C190.855 407.224 190.723 406.855 190.459 406.625C190.196 406.396 189.839 406.281 189.39 406.281C189.034 406.281 188.67 406.345 188.299 406.472C187.933 406.599 187.576 406.796 187.229 407.065L186.49 406.047C186.949 405.695 187.422 405.437 187.911 405.271C188.399 405.104 188.936 405.021 189.522 405.021C190.528 405.021 191.275 405.271 191.763 405.769C192.251 406.262 192.496 407.004 192.496 407.995V412.697ZM190.855 409.65V409.013L189.251 409.226C188.777 409.294 188.421 409.423 188.182 409.614C187.947 409.799 187.83 410.073 187.83 410.434C187.83 410.8 187.942 411.086 188.167 411.291C188.392 411.496 188.68 411.599 189.031 411.599C189.583 411.599 190.025 411.416 190.357 411.049C190.689 410.678 190.855 410.212 190.855 409.65ZM198.692 412.595C198.472 412.688 198.243 412.756 198.003 412.8C197.764 412.844 197.508 412.866 197.234 412.866C196.541 412.866 196.006 412.683 195.63 412.316C195.259 411.945 195.074 411.394 195.074 410.661V406.53H193.814V405.197H195.074V403.374L196.773 402.861V405.197H198.567V406.53H196.773V410.522C196.773 410.888 196.839 411.152 196.971 411.313C197.107 411.474 197.317 411.555 197.601 411.555C197.737 411.555 197.867 411.54 197.989 411.511C198.116 411.477 198.228 411.435 198.326 411.386L198.692 412.595ZM206.287 409.394H201.167C201.197 410.102 201.402 410.642 201.783 411.013C202.164 411.379 202.696 411.562 203.379 411.562C203.658 411.562 203.975 411.506 204.332 411.394C204.688 411.281 205.04 411.101 205.386 410.852L206.155 411.914C205.691 412.25 205.22 412.495 204.742 412.646C204.263 412.797 203.736 412.873 203.16 412.873C201.993 412.873 201.084 412.539 200.435 411.87C199.786 411.196 199.458 410.256 199.454 409.05C199.454 407.849 199.788 406.877 200.457 406.135C201.131 405.393 201.993 405.021 203.042 405.021C204.048 405.021 204.839 405.339 205.416 405.974C205.997 406.604 206.287 407.497 206.287 408.654V409.394ZM204.639 408.215C204.639 407.57 204.498 407.087 204.214 406.765C203.936 406.438 203.541 406.274 203.028 406.274C202.544 406.274 202.132 406.45 201.79 406.801C201.453 407.148 201.246 407.619 201.167 408.215H204.639ZM212.996 411.533C212.728 411.982 212.388 412.319 211.978 412.543C211.568 412.763 211.087 412.873 210.535 412.873C209.598 412.873 208.843 412.541 208.272 411.877C207.706 411.208 207.422 410.29 207.422 409.123C207.422 407.883 207.735 406.889 208.36 406.142C208.99 405.395 209.82 405.021 210.85 405.021C211.353 405.021 211.783 405.117 212.139 405.307C212.496 405.493 212.781 405.776 212.996 406.157H213.025V401.594H214.732V412.697H213.025V411.533H212.996ZM209.158 409.057C209.158 409.829 209.332 410.432 209.678 410.866C210.025 411.301 210.496 411.518 211.092 411.518C211.673 411.518 212.144 411.301 212.505 410.866C212.867 410.432 213.047 409.873 213.047 409.189V408.332C213.047 407.775 212.874 407.312 212.527 406.94C212.181 406.564 211.736 406.376 211.194 406.376C210.56 406.376 210.062 406.616 209.7 407.094C209.339 407.568 209.158 408.222 209.158 409.057ZM222.811 411.774H222.781V412.697H221.075V401.594H222.781V406.428H222.811C223.099 405.959 223.453 405.607 223.873 405.373C224.292 405.139 224.778 405.021 225.33 405.021C226.297 405.021 227.046 405.356 227.579 406.025C228.116 406.689 228.384 407.59 228.384 408.728C228.384 409.982 228.077 410.988 227.461 411.745C226.851 412.497 226.026 412.873 224.986 412.873C224.507 412.873 224.085 412.783 223.719 412.602C223.357 412.417 223.055 412.141 222.811 411.774ZM222.759 408.625V409.541C222.759 410.102 222.933 410.573 223.279 410.954C223.626 411.33 224.068 411.518 224.605 411.518C225.245 411.518 225.743 411.274 226.099 410.786C226.456 410.297 226.634 409.614 226.634 408.735C226.634 407.993 226.468 407.414 226.136 406.999C225.804 406.584 225.347 406.376 224.766 406.376C224.17 406.376 223.687 406.589 223.316 407.014C222.945 407.434 222.759 407.971 222.759 408.625ZM236.609 405.197L233.16 414.111C232.891 414.799 232.525 415.324 232.061 415.686C231.602 416.047 231.053 416.228 230.413 416.228C230.228 416.228 230.052 416.215 229.886 416.191C229.725 416.171 229.566 416.142 229.41 416.103L229.71 414.777C229.812 414.812 229.908 414.836 229.996 414.851C230.083 414.865 230.179 414.873 230.281 414.873C230.56 414.873 230.796 414.802 230.992 414.66C231.187 414.519 231.343 414.309 231.46 414.03L232.032 412.683L229.051 405.197H230.94L232.684 410.419C232.708 410.502 232.735 410.61 232.764 410.742C232.793 410.869 232.825 411.018 232.859 411.188H232.896C232.916 411.091 232.94 410.981 232.969 410.859C232.999 410.732 233.038 410.59 233.086 410.434L234.896 405.197H236.609ZM248.423 412.697H246.717V411.533H246.688C246.424 411.977 246.099 412.312 245.713 412.536C245.328 412.761 244.883 412.873 244.38 412.873C243.501 412.873 242.84 412.609 242.396 412.082C241.956 411.55 241.736 410.756 241.736 409.702V405.197H243.428V409.504C243.428 410.173 243.558 410.676 243.816 411.013C244.08 411.35 244.473 411.518 244.996 411.518C245.503 411.518 245.916 411.335 246.233 410.969C246.556 410.603 246.717 410.114 246.717 409.504V405.197H248.423V412.697ZM249.91 412.097L250.65 410.896C250.943 411.101 251.253 411.267 251.58 411.394C251.912 411.516 252.271 411.577 252.657 411.577C253.077 411.577 253.401 411.501 253.631 411.35C253.865 411.193 253.982 410.961 253.982 410.654C253.982 410.41 253.885 410.207 253.689 410.046C253.499 409.88 253.172 409.743 252.708 409.636C251.771 409.416 251.111 409.125 250.73 408.764C250.354 408.403 250.167 407.927 250.167 407.336C250.167 406.657 250.43 406.103 250.958 405.673C251.485 405.239 252.176 405.021 253.03 405.021C253.455 405.021 253.86 405.078 254.246 405.19C254.632 405.297 255.008 405.471 255.374 405.71L254.686 406.882C254.363 406.677 254.068 406.53 253.799 406.442C253.531 406.354 253.255 406.311 252.972 406.311C252.571 406.311 252.259 406.386 252.034 406.538C251.814 406.684 251.705 406.889 251.705 407.153C251.705 407.431 251.817 407.639 252.042 407.775C252.271 407.907 252.654 408.037 253.191 408.164C254.002 408.359 254.595 408.642 254.971 409.013C255.347 409.379 255.535 409.87 255.535 410.485C255.535 411.213 255.269 411.794 254.737 412.229C254.209 412.658 253.494 412.873 252.591 412.873C252.103 412.873 251.634 412.81 251.185 412.683C250.74 412.551 250.315 412.355 249.91 412.097ZM257.974 403.747C257.662 403.747 257.403 403.647 257.198 403.447C256.993 403.247 256.89 403 256.89 402.707C256.89 402.404 256.993 402.155 257.198 401.96C257.403 401.765 257.662 401.667 257.974 401.667C258.292 401.667 258.553 401.765 258.758 401.96C258.963 402.155 259.065 402.404 259.065 402.707C259.065 403.005 258.963 403.254 258.758 403.454C258.553 403.649 258.292 403.747 257.974 403.747ZM258.816 412.697H257.11V405.197H258.816V412.697ZM267.723 412.697H266.023V408.471C266.023 407.773 265.896 407.25 265.643 406.904C265.389 406.552 265.008 406.376 264.5 406.376C263.992 406.376 263.572 406.569 263.24 406.955C262.908 407.341 262.742 407.829 262.742 408.42V412.697H261.036V405.197H262.742V406.413H262.771C263.05 405.949 263.392 405.603 263.797 405.373C264.202 405.139 264.673 405.021 265.21 405.021C266.031 405.021 266.653 405.283 267.078 405.805C267.508 406.328 267.723 407.097 267.723 408.112V412.697ZM276.629 412.089C276.629 413.369 276.268 414.377 275.545 415.114C274.827 415.856 273.809 416.228 272.491 416.228C271.968 416.228 271.485 416.179 271.041 416.081C270.596 415.988 270.135 415.834 269.656 415.62L270.198 414.404C270.584 414.575 270.958 414.699 271.319 414.777C271.68 414.855 272.076 414.895 272.505 414.895C273.272 414.895 273.865 414.672 274.285 414.228C274.71 413.789 274.922 413.161 274.922 412.346V411.518H274.893C274.62 411.972 274.275 412.312 273.86 412.536C273.45 412.761 272.972 412.873 272.425 412.873C271.478 412.873 270.721 412.539 270.154 411.87C269.593 411.201 269.312 410.305 269.312 409.182C269.312 407.932 269.625 406.926 270.25 406.164C270.879 405.402 271.707 405.021 272.732 405.021C273.216 405.021 273.638 405.117 274 405.307C274.361 405.498 274.659 405.783 274.893 406.164H274.922V405.197H276.629V412.089ZM274.937 409.211V408.339C274.937 407.797 274.764 407.336 274.417 406.955C274.07 406.569 273.631 406.376 273.099 406.376C272.459 406.376 271.956 406.606 271.59 407.065C271.229 407.524 271.048 408.2 271.048 409.094C271.048 409.865 271.216 410.463 271.553 410.888C271.895 411.308 272.366 411.518 272.967 411.518C273.553 411.518 274.026 411.306 274.388 410.881C274.754 410.451 274.937 409.895 274.937 409.211ZM282.239 412.097L282.979 410.896C283.272 411.101 283.582 411.267 283.909 411.394C284.241 411.516 284.6 411.577 284.986 411.577C285.406 411.577 285.73 411.501 285.96 411.35C286.194 411.193 286.312 410.961 286.312 410.654C286.312 410.41 286.214 410.207 286.019 410.046C285.828 409.88 285.501 409.743 285.037 409.636C284.1 409.416 283.44 409.125 283.06 408.764C282.684 408.403 282.496 407.927 282.496 407.336C282.496 406.657 282.759 406.103 283.287 405.673C283.814 405.239 284.505 405.021 285.359 405.021C285.784 405.021 286.189 405.078 286.575 405.19C286.961 405.297 287.337 405.471 287.703 405.71L287.015 406.882C286.692 406.677 286.397 406.53 286.128 406.442C285.86 406.354 285.584 406.311 285.301 406.311C284.9 406.311 284.588 406.386 284.363 406.538C284.144 406.684 284.034 406.889 284.034 407.153C284.034 407.431 284.146 407.639 284.371 407.775C284.6 407.907 284.983 408.037 285.521 408.164C286.331 408.359 286.924 408.642 287.3 409.013C287.676 409.379 287.864 409.87 287.864 410.485C287.864 411.213 287.598 411.794 287.066 412.229C286.539 412.658 285.823 412.873 284.92 412.873C284.432 412.873 283.963 412.81 283.514 412.683C283.069 412.551 282.645 412.355 282.239 412.097ZM290.303 403.747C289.991 403.747 289.732 403.647 289.527 403.447C289.322 403.247 289.219 403 289.219 402.707C289.219 402.404 289.322 402.155 289.527 401.96C289.732 401.765 289.991 401.667 290.303 401.667C290.621 401.667 290.882 401.765 291.087 401.96C291.292 402.155 291.395 402.404 291.395 402.707C291.395 403.005 291.292 403.254 291.087 403.454C290.882 403.649 290.621 403.747 290.303 403.747ZM291.146 412.697H289.439V405.197H291.146V412.697ZM298.902 405.9L294.859 411.364H298.895V412.697H292.471V412.06L296.609 406.53H292.874V405.197H298.902V405.9ZM306.688 409.394H301.568C301.597 410.102 301.802 410.642 302.183 411.013C302.564 411.379 303.096 411.562 303.78 411.562C304.058 411.562 304.375 411.506 304.732 411.394C305.088 411.281 305.44 411.101 305.787 410.852L306.556 411.914C306.092 412.25 305.621 412.495 305.142 412.646C304.664 412.797 304.136 412.873 303.56 412.873C302.393 412.873 301.485 412.539 300.835 411.87C300.186 411.196 299.859 410.256 299.854 409.05C299.854 407.849 300.188 406.877 300.857 406.135C301.531 405.393 302.393 405.021 303.443 405.021C304.449 405.021 305.24 405.339 305.816 405.974C306.397 406.604 306.688 407.497 306.688 408.654V409.394ZM305.04 408.215C305.04 407.57 304.898 407.087 304.615 406.765C304.336 406.438 303.941 406.274 303.428 406.274C302.945 406.274 302.532 406.45 302.19 406.801C301.854 407.148 301.646 407.619 301.568 408.215H305.04ZM309.888 410.947L308.768 414.594H307.486L308.292 410.947H309.888ZM326.141 405.197L323.936 412.697H322.156L320.801 407.761C320.762 407.619 320.735 407.487 320.721 407.365C320.706 407.238 320.694 407.102 320.684 406.955H320.647C320.638 407.111 320.621 407.25 320.596 407.373C320.572 407.49 320.54 407.614 320.501 407.746L319.043 412.697H317.3L315.096 405.197H316.854L318.172 410.5C318.196 410.598 318.218 410.71 318.238 410.837C318.257 410.959 318.272 411.096 318.282 411.247H318.333C318.343 411.11 318.357 410.979 318.377 410.852C318.401 410.725 318.431 410.6 318.465 410.478L319.996 405.197H321.592L322.962 410.507C322.981 410.585 322.999 410.688 323.013 410.815C323.033 410.937 323.052 411.086 323.072 411.262H323.123C323.133 411.145 323.147 411.022 323.167 410.896C323.187 410.769 323.213 410.639 323.248 410.507L324.522 405.197H326.141ZM333.685 409.394H328.565C328.594 410.102 328.799 410.642 329.18 411.013C329.561 411.379 330.093 411.562 330.777 411.562C331.055 411.562 331.373 411.506 331.729 411.394C332.085 411.281 332.437 411.101 332.784 410.852L333.553 411.914C333.089 412.25 332.618 412.495 332.139 412.646C331.661 412.797 331.133 412.873 330.557 412.873C329.39 412.873 328.482 412.539 327.833 411.87C327.183 411.196 326.856 410.256 326.851 409.05C326.851 407.849 327.186 406.877 327.854 406.135C328.528 405.393 329.39 405.021 330.44 405.021C331.446 405.021 332.237 405.339 332.813 405.974C333.394 406.604 333.685 407.497 333.685 408.654V409.394ZM332.037 408.215C332.037 407.57 331.895 407.087 331.612 406.765C331.333 406.438 330.938 406.274 330.425 406.274C329.942 406.274 329.529 406.45 329.188 406.801C328.851 407.148 328.643 407.619 328.565 408.215H332.037ZM336.167 403.747C335.855 403.747 335.596 403.647 335.391 403.447C335.186 403.247 335.083 403 335.083 402.707C335.083 402.404 335.186 402.155 335.391 401.96C335.596 401.765 335.855 401.667 336.167 401.667C336.485 401.667 336.746 401.765 336.951 401.96C337.156 402.155 337.259 402.404 337.259 402.707C337.259 403.005 337.156 403.254 336.951 403.454C336.746 403.649 336.485 403.747 336.167 403.747ZM337.01 412.697H335.303V405.197H337.01V412.697ZM346.062 412.089C346.062 413.369 345.701 414.377 344.979 415.114C344.261 415.856 343.243 416.228 341.924 416.228C341.402 416.228 340.918 416.179 340.474 416.081C340.03 415.988 339.568 415.834 339.09 415.62L339.632 414.404C340.018 414.575 340.391 414.699 340.752 414.777C341.114 414.855 341.509 414.895 341.939 414.895C342.706 414.895 343.299 414.672 343.719 414.228C344.144 413.789 344.356 413.161 344.356 412.346V411.518H344.327C344.053 411.972 343.709 412.312 343.294 412.536C342.884 412.761 342.405 412.873 341.858 412.873C340.911 412.873 340.154 412.539 339.588 411.87C339.026 411.201 338.746 410.305 338.746 409.182C338.746 407.932 339.058 406.926 339.683 406.164C340.313 405.402 341.141 405.021 342.166 405.021C342.649 405.021 343.072 405.117 343.433 405.307C343.794 405.498 344.092 405.783 344.327 406.164H344.356V405.197H346.062V412.089ZM344.371 409.211V408.339C344.371 407.797 344.197 407.336 343.851 406.955C343.504 406.569 343.064 406.376 342.532 406.376C341.893 406.376 341.39 406.606 341.023 407.065C340.662 407.524 340.481 408.2 340.481 409.094C340.481 409.865 340.65 410.463 340.987 410.888C341.329 411.308 341.8 411.518 342.4 411.518C342.986 411.518 343.46 411.306 343.821 410.881C344.188 410.451 344.371 409.895 344.371 409.211ZM354.932 412.697H353.233V408.405C353.233 407.727 353.108 407.219 352.859 406.882C352.61 406.545 352.234 406.376 351.731 406.376C351.229 406.376 350.809 406.569 350.472 406.955C350.14 407.341 349.974 407.834 349.974 408.435V412.697H348.267V401.594H349.974V406.384H350.003C350.286 405.925 350.628 405.583 351.028 405.358C351.429 405.134 351.883 405.021 352.391 405.021C353.24 405.021 353.875 405.278 354.295 405.791C354.72 406.298 354.932 407.062 354.932 408.083V412.697ZM361.084 412.595C360.865 412.688 360.635 412.756 360.396 412.8C360.157 412.844 359.9 412.866 359.627 412.866C358.934 412.866 358.399 412.683 358.023 412.316C357.652 411.945 357.466 411.394 357.466 410.661V406.53H356.207V405.197H357.466V403.374L359.166 402.861V405.197H360.96V406.53H359.166V410.522C359.166 410.888 359.231 411.152 359.363 411.313C359.5 411.474 359.71 411.555 359.993 411.555C360.13 411.555 360.259 411.54 360.381 411.511C360.508 411.477 360.621 411.435 360.718 411.386L361.084 412.595ZM364 410.947L362.879 414.594H361.597L362.403 410.947H364ZM375.784 412.236C375.413 412.46 375.044 412.622 374.678 412.719C374.312 412.822 373.914 412.873 373.484 412.873C372.332 412.873 371.409 412.536 370.716 411.862C370.027 411.188 369.683 410.273 369.683 409.116C369.683 407.871 370.04 406.877 370.752 406.135C371.47 405.393 372.437 405.021 373.653 405.021C374.078 405.021 374.463 405.068 374.81 405.161C375.162 405.249 375.518 405.395 375.879 405.6L375.213 406.787C374.959 406.645 374.71 406.542 374.466 406.479C374.222 406.411 373.956 406.376 373.667 406.376C372.95 406.376 372.396 406.613 372.005 407.087C371.614 407.561 371.419 408.188 371.419 408.969C371.419 409.79 371.629 410.419 372.049 410.859C372.474 411.298 373.006 411.518 373.646 411.518C373.841 411.518 374.065 411.484 374.319 411.416C374.573 411.342 374.83 411.228 375.088 411.071L375.784 412.236ZM380.56 412.873C379.388 412.873 378.458 412.524 377.769 411.826C377.085 411.123 376.744 410.183 376.744 409.006C376.749 407.761 377.105 406.787 377.813 406.083C378.521 405.375 379.485 405.021 380.706 405.021C381.883 405.017 382.801 405.363 383.46 406.062C384.124 406.755 384.456 407.695 384.456 408.881C384.456 410.102 384.104 411.074 383.401 411.796C382.703 412.514 381.756 412.873 380.56 412.873ZM380.64 411.518C381.319 411.518 381.834 411.296 382.186 410.852C382.542 410.407 382.72 409.765 382.72 408.925C382.72 408.095 382.542 407.463 382.186 407.028C381.829 406.594 381.312 406.376 380.633 406.376C379.964 406.376 379.437 406.606 379.051 407.065C378.67 407.524 378.479 408.159 378.479 408.969C378.479 409.785 378.67 410.415 379.051 410.859C379.432 411.298 379.961 411.518 380.64 411.518ZM386.192 412.697V401.594H387.898V412.697H386.192ZM393.45 412.873C392.278 412.873 391.348 412.524 390.66 411.826C389.976 411.123 389.634 410.183 389.634 409.006C389.639 407.761 389.996 406.787 390.704 406.083C391.412 405.375 392.376 405.021 393.597 405.021C394.773 405.017 395.691 405.363 396.351 406.062C397.015 406.755 397.347 407.695 397.347 408.881C397.347 410.102 396.995 411.074 396.292 411.796C395.594 412.514 394.646 412.873 393.45 412.873ZM393.531 411.518C394.209 411.518 394.725 411.296 395.076 410.852C395.433 410.407 395.611 409.765 395.611 408.925C395.611 408.095 395.433 407.463 395.076 407.028C394.72 406.594 394.202 406.376 393.523 406.376C392.854 406.376 392.327 406.606 391.941 407.065C391.561 407.524 391.37 408.159 391.37 408.969C391.37 409.785 391.561 410.415 391.941 410.859C392.322 411.298 392.852 411.518 393.531 411.518ZM403.257 406.625C403.165 406.601 403.074 406.584 402.986 406.574C402.903 406.56 402.806 406.552 402.693 406.552C402.083 406.552 401.614 406.777 401.287 407.226C400.96 407.675 400.796 408.261 400.796 408.984V412.697H399.09V405.197H400.796V406.64H400.826C401.001 406.123 401.26 405.732 401.602 405.468C401.944 405.2 402.347 405.065 402.811 405.065C402.942 405.065 403.06 405.073 403.162 405.087C403.27 405.102 403.372 405.124 403.47 405.153L403.257 406.625ZM414.493 412.697H412.845V411.569H412.815C412.562 412.004 412.247 412.331 411.871 412.551C411.495 412.766 411.062 412.873 410.574 412.873C409.896 412.873 409.332 412.673 408.882 412.272C408.433 411.867 408.208 411.315 408.208 410.617C408.208 409.953 408.433 409.409 408.882 408.984C409.332 408.554 409.998 408.276 410.882 408.149L412.852 407.885V407.731C412.852 407.224 412.72 406.855 412.457 406.625C412.193 406.396 411.836 406.281 411.387 406.281C411.031 406.281 410.667 406.345 410.296 406.472C409.93 406.599 409.573 406.796 409.227 407.065L408.487 406.047C408.946 405.695 409.419 405.437 409.908 405.271C410.396 405.104 410.933 405.021 411.519 405.021C412.525 405.021 413.272 405.271 413.76 405.769C414.249 406.262 414.493 407.004 414.493 407.995V412.697ZM412.852 409.65V409.013L411.248 409.226C410.774 409.294 410.418 409.423 410.179 409.614C409.944 409.799 409.827 410.073 409.827 410.434C409.827 410.8 409.939 411.086 410.164 411.291C410.389 411.496 410.677 411.599 411.028 411.599C411.58 411.599 412.022 411.416 412.354 411.049C412.686 410.678 412.852 410.212 412.852 409.65ZM423.289 412.697H421.59V408.471C421.59 407.773 421.463 407.25 421.209 406.904C420.955 406.552 420.574 406.376 420.066 406.376C419.559 406.376 419.139 406.569 418.807 406.955C418.475 407.341 418.309 407.829 418.309 408.42V412.697H416.602V405.197H418.309V406.413H418.338C418.616 405.949 418.958 405.603 419.363 405.373C419.769 405.139 420.24 405.021 420.777 405.021C421.597 405.021 422.22 405.283 422.645 405.805C423.074 406.328 423.289 407.097 423.289 408.112V412.697ZM430.452 411.533C430.184 411.982 429.844 412.319 429.434 412.543C429.024 412.763 428.543 412.873 427.991 412.873C427.054 412.873 426.299 412.541 425.728 411.877C425.162 411.208 424.878 410.29 424.878 409.123C424.878 407.883 425.191 406.889 425.816 406.142C426.446 405.395 427.276 405.021 428.306 405.021C428.809 405.021 429.239 405.117 429.595 405.307C429.952 405.493 430.237 405.776 430.452 406.157H430.481V401.594H432.188V412.697H430.481V411.533H430.452ZM426.614 409.057C426.614 409.829 426.788 410.432 427.134 410.866C427.481 411.301 427.952 411.518 428.548 411.518C429.129 411.518 429.6 411.301 429.961 410.866C430.323 410.432 430.503 409.873 430.503 409.189V408.332C430.503 407.775 430.33 407.312 429.983 406.94C429.637 406.564 429.192 406.376 428.65 406.376C428.016 406.376 427.518 406.616 427.156 407.094C426.795 407.568 426.614 408.222 426.614 409.057ZM437.806 412.097L438.545 410.896C438.838 411.101 439.148 411.267 439.476 411.394C439.808 411.516 440.167 411.577 440.552 411.577C440.972 411.577 441.297 411.501 441.526 411.35C441.761 411.193 441.878 410.961 441.878 410.654C441.878 410.41 441.78 410.207 441.585 410.046C441.395 409.88 441.067 409.743 440.604 409.636C439.666 409.416 439.007 409.125 438.626 408.764C438.25 408.403 438.062 407.927 438.062 407.336C438.062 406.657 438.326 406.103 438.853 405.673C439.38 405.239 440.071 405.021 440.926 405.021C441.351 405.021 441.756 405.078 442.142 405.19C442.527 405.297 442.903 405.471 443.27 405.71L442.581 406.882C442.259 406.677 441.963 406.53 441.695 406.442C441.426 406.354 441.15 406.311 440.867 406.311C440.467 406.311 440.154 406.386 439.93 406.538C439.71 406.684 439.6 406.889 439.6 407.153C439.6 407.431 439.712 407.639 439.937 407.775C440.167 407.907 440.55 408.037 441.087 408.164C441.897 408.359 442.491 408.642 442.867 409.013C443.243 409.379 443.431 409.87 443.431 410.485C443.431 411.213 443.165 411.794 442.632 412.229C442.105 412.658 441.39 412.873 440.486 412.873C439.998 412.873 439.529 412.81 439.08 412.683C438.636 412.551 438.211 412.355 437.806 412.097ZM446.741 411.708H446.712V416.147H445.005V405.197H446.712V406.428H446.741C447.029 405.959 447.383 405.607 447.803 405.373C448.223 405.139 448.704 405.021 449.246 405.021C450.213 405.021 450.965 405.356 451.502 406.025C452.044 406.694 452.315 407.595 452.315 408.728C452.315 409.982 452.007 410.988 451.392 411.745C450.777 412.497 449.947 412.873 448.902 412.873C448.433 412.873 448.018 412.778 447.657 412.587C447.295 412.392 446.99 412.099 446.741 411.708ZM446.69 408.662V409.504C446.69 410.08 446.863 410.561 447.21 410.947C447.557 411.328 447.999 411.518 448.536 411.518C449.175 411.518 449.673 411.274 450.03 410.786C450.386 410.297 450.564 409.614 450.564 408.735C450.564 407.978 450.401 407.397 450.074 406.992C449.747 406.582 449.288 406.376 448.697 406.376C448.096 406.376 447.61 406.591 447.239 407.021C446.873 407.446 446.69 407.993 446.69 408.662ZM459.595 412.697H457.947V411.569H457.918C457.664 412.004 457.349 412.331 456.973 412.551C456.597 412.766 456.165 412.873 455.677 412.873C454.998 412.873 454.434 412.673 453.985 412.272C453.536 411.867 453.311 411.315 453.311 410.617C453.311 409.953 453.536 409.409 453.985 408.984C454.434 408.554 455.101 408.276 455.984 408.149L457.955 407.885V407.731C457.955 407.224 457.823 406.855 457.559 406.625C457.295 406.396 456.939 406.281 456.49 406.281C456.133 406.281 455.77 406.345 455.398 406.472C455.032 406.599 454.676 406.796 454.329 407.065L453.589 406.047C454.048 405.695 454.522 405.437 455.01 405.271C455.499 405.104 456.036 405.021 456.622 405.021C457.627 405.021 458.375 405.271 458.863 405.769C459.351 406.262 459.595 407.004 459.595 407.995V412.697ZM457.955 409.65V409.013L456.351 409.226C455.877 409.294 455.521 409.423 455.281 409.614C455.047 409.799 454.93 410.073 454.93 410.434C454.93 410.8 455.042 411.086 455.267 411.291C455.491 411.496 455.779 411.599 456.131 411.599C456.683 411.599 457.125 411.416 457.457 411.049C457.789 410.678 457.955 410.212 457.955 409.65ZM467.322 412.236C466.951 412.46 466.583 412.622 466.216 412.719C465.85 412.822 465.452 412.873 465.022 412.873C463.87 412.873 462.947 412.536 462.254 411.862C461.565 411.188 461.221 410.273 461.221 409.116C461.221 407.871 461.578 406.877 462.291 406.135C463.008 405.393 463.975 405.021 465.191 405.021C465.616 405.021 466.001 405.068 466.348 405.161C466.7 405.249 467.056 405.395 467.417 405.6L466.751 406.787C466.497 406.645 466.248 406.542 466.004 406.479C465.76 406.411 465.494 406.376 465.206 406.376C464.488 406.376 463.934 406.613 463.543 407.087C463.152 407.561 462.957 408.188 462.957 408.969C462.957 409.79 463.167 410.419 463.587 410.859C464.012 411.298 464.544 411.518 465.184 411.518C465.379 411.518 465.604 411.484 465.857 411.416C466.111 411.342 466.368 411.228 466.626 411.071L467.322 412.236ZM469.629 403.747C469.317 403.747 469.058 403.647 468.853 403.447C468.648 403.247 468.545 403 468.545 402.707C468.545 402.404 468.648 402.155 468.853 401.96C469.058 401.765 469.317 401.667 469.629 401.667C469.947 401.667 470.208 401.765 470.413 401.96C470.618 402.155 470.721 402.404 470.721 402.707C470.721 403.005 470.618 403.254 470.413 403.454C470.208 403.649 469.947 403.747 469.629 403.747ZM470.472 412.697H468.765V405.197H470.472V412.697ZM479.378 412.697H477.679V408.471C477.679 407.773 477.552 407.25 477.298 406.904C477.044 406.552 476.663 406.376 476.155 406.376C475.647 406.376 475.228 406.569 474.896 406.955C474.563 407.341 474.397 407.829 474.397 408.42V412.697H472.691V405.197H474.397V406.413H474.427C474.705 405.949 475.047 405.603 475.452 405.373C475.857 405.139 476.329 405.021 476.866 405.021C477.686 405.021 478.309 405.283 478.733 405.805C479.163 406.328 479.378 407.097 479.378 408.112V412.697ZM488.284 412.089C488.284 413.369 487.923 414.377 487.2 415.114C486.482 415.856 485.464 416.228 484.146 416.228C483.624 416.228 483.14 416.179 482.696 416.081C482.251 415.988 481.79 415.834 481.312 415.62L481.854 414.404C482.239 414.575 482.613 414.699 482.974 414.777C483.335 414.855 483.731 414.895 484.161 414.895C484.927 414.895 485.521 414.672 485.94 414.228C486.365 413.789 486.578 413.161 486.578 412.346V411.518H486.548C486.275 411.972 485.931 412.312 485.516 412.536C485.105 412.761 484.627 412.873 484.08 412.873C483.133 412.873 482.376 412.539 481.81 411.87C481.248 411.201 480.967 410.305 480.967 409.182C480.967 407.932 481.28 406.926 481.905 406.164C482.535 405.402 483.362 405.021 484.388 405.021C484.871 405.021 485.293 405.117 485.655 405.307C486.016 405.498 486.314 405.783 486.548 406.164H486.578V405.197H488.284V412.089ZM486.592 409.211V408.339C486.592 407.797 486.419 407.336 486.072 406.955C485.726 406.569 485.286 406.376 484.754 406.376C484.114 406.376 483.611 406.606 483.245 407.065C482.884 407.524 482.703 408.2 482.703 409.094C482.703 409.865 482.872 410.463 483.208 410.888C483.55 411.308 484.021 411.518 484.622 411.518C485.208 411.518 485.682 411.306 486.043 410.881C486.409 410.451 486.592 409.895 486.592 409.211Z" fill="white"/>
<path d="M52.02 42.9766H49.0098V52H47.2593V42.9766H44.2563V41.4971H52.02V42.9766ZM59.1172 44.5L55.6675 53.4136C55.3989 54.1021 55.0327 54.627 54.5688 54.9883C54.1099 55.3496 53.5605 55.5303 52.9209 55.5303C52.7354 55.5303 52.5596 55.5181 52.3936 55.4937C52.2324 55.4741 52.0737 55.4448 51.9175 55.4058L52.2178 54.0801C52.3203 54.1143 52.4155 54.1387 52.5034 54.1533C52.5913 54.168 52.6865 54.1753 52.7891 54.1753C53.0674 54.1753 53.3042 54.1045 53.4995 53.9629C53.6948 53.8213 53.8511 53.6113 53.9683 53.333L54.5396 51.9854L51.5586 44.5H53.4482L55.1914 49.7222C55.2158 49.8052 55.2427 49.9126 55.272 50.0444C55.3013 50.1714 55.333 50.3203 55.3672 50.4912H55.4038C55.4233 50.3936 55.4478 50.2837 55.4771 50.1616C55.5063 50.0347 55.5454 49.8931 55.5942 49.7368L57.4033 44.5H59.1172ZM61.9883 51.0112H61.959V55.4497H60.2524V44.5H61.959V45.7305H61.9883C62.2764 45.2617 62.6304 44.9102 63.0503 44.6758C63.4702 44.4414 63.9512 44.3242 64.4932 44.3242C65.46 44.3242 66.2119 44.6587 66.749 45.3276C67.291 45.9966 67.562 46.8975 67.562 48.0303C67.562 49.2852 67.2544 50.291 66.6392 51.0479C66.0239 51.7998 65.1938 52.1758 64.1489 52.1758C63.6802 52.1758 63.2651 52.0806 62.9038 51.8901C62.5425 51.6948 62.2373 51.4019 61.9883 51.0112ZM61.937 47.9644V48.8066C61.937 49.3828 62.1104 49.8638 62.457 50.2495C62.8037 50.6304 63.2456 50.8208 63.7827 50.8208C64.4224 50.8208 64.9204 50.5767 65.2769 50.0884C65.6333 49.6001 65.8115 48.9165 65.8115 48.0376C65.8115 47.2808 65.6479 46.6997 65.3208 46.2944C64.9937 45.8843 64.5347 45.6792 63.9438 45.6792C63.3433 45.6792 62.8574 45.894 62.4863 46.3237C62.1201 46.7485 61.937 47.2954 61.937 47.9644ZM75.6406 48.6968H70.521C70.5503 49.4048 70.7554 49.9443 71.1362 50.3154C71.5171 50.6816 72.0493 50.8647 72.7329 50.8647C73.0112 50.8647 73.3286 50.8086 73.6851 50.6963C74.0415 50.584 74.3931 50.4033 74.7397 50.1543L75.5088 51.2163C75.0449 51.5532 74.5737 51.7974 74.0952 51.9487C73.6167 52.1001 73.0894 52.1758 72.5132 52.1758C71.3462 52.1758 70.438 51.8413 69.7886 51.1724C69.1392 50.4985 68.812 49.5586 68.8071 48.3525C68.8071 47.1514 69.1416 46.1797 69.8105 45.4375C70.4844 44.6953 71.3462 44.3242 72.396 44.3242C73.4019 44.3242 74.1929 44.6416 74.769 45.2764C75.3501 45.9062 75.6406 46.7998 75.6406 47.957V48.6968ZM73.9927 47.5176C73.9927 46.873 73.8511 46.3896 73.5679 46.0674C73.2896 45.7402 72.894 45.5767 72.3813 45.5767C71.8979 45.5767 71.4854 45.7524 71.1436 46.104C70.8066 46.4507 70.5991 46.9219 70.521 47.5176H73.9927ZM90.0181 52H88.2676V47.4443H83.3237V52H81.5806V41.4971H83.3237V45.9136H88.2676V41.4971H90.0181V52ZM93.2847 43.0498C92.9722 43.0498 92.7134 42.9497 92.5083 42.7495C92.3032 42.5493 92.2007 42.3027 92.2007 42.0098C92.2007 41.707 92.3032 41.458 92.5083 41.2627C92.7134 41.0674 92.9722 40.9697 93.2847 40.9697C93.6021 40.9697 93.8633 41.0674 94.0684 41.2627C94.2734 41.458 94.376 41.707 94.376 42.0098C94.376 42.3076 94.2734 42.5566 94.0684 42.7568C93.8633 42.9521 93.6021 43.0498 93.2847 43.0498ZM94.127 52H92.4204V44.5H94.127V52ZM102.696 48.6968H97.5767C97.606 49.4048 97.811 49.9443 98.1919 50.3154C98.5728 50.6816 99.105 50.8647 99.7886 50.8647C100.067 50.8647 100.384 50.8086 100.741 50.6963C101.097 50.584 101.449 50.4033 101.795 50.1543L102.564 51.2163C102.101 51.5532 101.629 51.7974 101.151 51.9487C100.672 52.1001 100.145 52.1758 99.5688 52.1758C98.4019 52.1758 97.4937 51.8413 96.8442 51.1724C96.1948 50.4985 95.8677 49.5586 95.8628 48.3525C95.8628 47.1514 96.1973 46.1797 96.8662 45.4375C97.54 44.6953 98.4019 44.3242 99.4517 44.3242C100.458 44.3242 101.249 44.6416 101.825 45.2764C102.406 45.9062 102.696 46.7998 102.696 47.957V48.6968ZM101.048 47.5176C101.048 46.873 100.907 46.3896 100.624 46.0674C100.345 45.7402 99.9497 45.5767 99.437 45.5767C98.9536 45.5767 98.541 45.7524 98.1992 46.104C97.8623 46.4507 97.6548 46.9219 97.5767 47.5176H101.048ZM108.49 45.9282C108.397 45.9038 108.307 45.8867 108.219 45.877C108.136 45.8623 108.038 45.855 107.926 45.855C107.315 45.855 106.847 46.0796 106.52 46.5288C106.192 46.978 106.029 47.564 106.029 48.2866V52H104.322V44.5H106.029V45.9429H106.058C106.234 45.4253 106.493 45.0347 106.834 44.771C107.176 44.5024 107.579 44.3682 108.043 44.3682C108.175 44.3682 108.292 44.3755 108.395 44.3901C108.502 44.4048 108.604 44.4268 108.702 44.4561L108.49 45.9282ZM115.594 52H113.946V50.8721H113.917C113.663 51.3066 113.348 51.6338 112.972 51.8535C112.596 52.0684 112.164 52.1758 111.676 52.1758C110.997 52.1758 110.433 51.9756 109.984 51.5752C109.535 51.1699 109.31 50.6182 109.31 49.9199C109.31 49.2559 109.535 48.7114 109.984 48.2866C110.433 47.8569 111.1 47.5786 111.983 47.4517L113.954 47.188V47.0342C113.954 46.5264 113.822 46.1577 113.558 45.9282C113.294 45.6987 112.938 45.584 112.489 45.584C112.132 45.584 111.769 45.6475 111.397 45.7744C111.031 45.9014 110.675 46.0991 110.328 46.3677L109.588 45.3496C110.047 44.998 110.521 44.7393 111.009 44.5732C111.498 44.4072 112.035 44.3242 112.621 44.3242C113.626 44.3242 114.374 44.5732 114.862 45.0713C115.35 45.5645 115.594 46.3066 115.594 47.2979V52ZM113.954 48.9531V48.3159L112.35 48.5283C111.876 48.5967 111.52 48.7261 111.28 48.9165C111.046 49.1021 110.929 49.3755 110.929 49.7368C110.929 50.103 111.041 50.3887 111.266 50.5938C111.49 50.7988 111.778 50.9014 112.13 50.9014C112.682 50.9014 113.124 50.7183 113.456 50.3521C113.788 49.981 113.954 49.5146 113.954 48.9531ZM121.878 45.9282C121.786 45.9038 121.695 45.8867 121.607 45.877C121.524 45.8623 121.427 45.855 121.314 45.855C120.704 45.855 120.235 46.0796 119.908 46.5288C119.581 46.978 119.417 47.564 119.417 48.2866V52H117.711V44.5H119.417V45.9429H119.447C119.623 45.4253 119.881 45.0347 120.223 44.771C120.565 44.5024 120.968 44.3682 121.432 44.3682C121.563 44.3682 121.681 44.3755 121.783 44.3901C121.891 44.4048 121.993 44.4268 122.091 44.4561L121.878 45.9282ZM128.741 51.5386C128.37 51.7632 128.001 51.9243 127.635 52.022C127.269 52.1245 126.871 52.1758 126.441 52.1758C125.289 52.1758 124.366 51.8389 123.673 51.165C122.984 50.4912 122.64 49.5757 122.64 48.4185C122.64 47.1733 122.997 46.1797 123.709 45.4375C124.427 44.6953 125.394 44.3242 126.61 44.3242C127.035 44.3242 127.42 44.3706 127.767 44.4634C128.119 44.5513 128.475 44.6978 128.836 44.9028L128.17 46.0894C127.916 45.9478 127.667 45.8452 127.423 45.7817C127.179 45.7134 126.913 45.6792 126.625 45.6792C125.907 45.6792 125.353 45.916 124.962 46.3896C124.571 46.8633 124.376 47.4907 124.376 48.272C124.376 49.0923 124.586 49.7222 125.006 50.1616C125.431 50.6011 125.963 50.8208 126.603 50.8208C126.798 50.8208 127.022 50.7866 127.276 50.7183C127.53 50.645 127.787 50.5303 128.045 50.374L128.741 51.5386ZM136.849 52H135.15V47.708C135.15 47.0293 135.025 46.5215 134.776 46.1846C134.527 45.8477 134.151 45.6792 133.648 45.6792C133.146 45.6792 132.726 45.8721 132.389 46.2578C132.057 46.6436 131.891 47.1367 131.891 47.7373V52H130.184V40.8965H131.891V45.6865H131.92C132.203 45.2275 132.545 44.8857 132.945 44.6611C133.346 44.4365 133.8 44.3242 134.308 44.3242C135.157 44.3242 135.792 44.5806 136.212 45.0933C136.637 45.6011 136.849 46.3652 136.849 47.3857V52ZM145.411 44.5L141.961 53.4136C141.693 54.1021 141.327 54.627 140.863 54.9883C140.404 55.3496 139.854 55.5303 139.215 55.5303C139.029 55.5303 138.854 55.5181 138.688 55.4937C138.526 55.4741 138.368 55.4448 138.211 55.4058L138.512 54.0801C138.614 54.1143 138.709 54.1387 138.797 54.1533C138.885 54.168 138.98 54.1753 139.083 54.1753C139.361 54.1753 139.598 54.1045 139.793 53.9629C139.989 53.8213 140.145 53.6113 140.262 53.333L140.833 51.9854L137.853 44.5H139.742L141.485 49.7222C141.51 49.8052 141.537 49.9126 141.566 50.0444C141.595 50.1714 141.627 50.3203 141.661 50.4912H141.698C141.717 50.3936 141.742 50.2837 141.771 50.1616C141.8 50.0347 141.839 49.8931 141.888 49.7368L143.697 44.5H145.411Z" fill="white"/>
</svg>
