<svg width="1152" height="631" viewBox="0 0 1152 631" version="1.1" xmlns="http://www.w3.org/2000/svg" xmlns:xlink="http://www.w3.org/1999/xlink">
<title>type-hierarchy</title>
<desc>Created using Figma</desc>
<g id="Canvas" transform="translate(17449 2083)">
<clipPath id="clip-0" clip-rule="evenodd">
<path d="M -17449 -2083L -16297 -2083L -16297 -1452L -17449 -1452L -17449 -2083Z" fill="#FFFFFF"/>
</clipPath>
<g id="type-hierarchy" clip-path="url(#clip-0)">
<path d="M -17449 -2083L -16297 -2083L -16297 -1452L -17449 -1452L -17449 -2083Z" fill="#5C318F"/>
<g id="Header">
<use xlink:href="#path0_fill" transform="translate(-17374.3 -2015.44)" fill="#CF90FF"/>
<use xlink:href="#path1_fill" transform="translate(-17374.3 -2015.44)" fill="#CF90FF"/>
<use xlink:href="#path2_fill" transform="translate(-17374.3 -2015.44)" fill="#CF90FF"/>
<use xlink:href="#path3_fill" transform="translate(-17374.3 -2015.44)" fill="#CF90FF"/>
<use xlink:href="#path4_fill" transform="translate(-17374.3 -2015.44)" fill="#CF90FF"/>
<use xlink:href="#path5_fill" transform="translate(-17374.3 -2015.44)" fill="#CF90FF"/>
<use xlink:href="#path6_fill" transform="translate(-17374.3 -2015.44)" fill="#CF90FF"/>
<use xlink:href="#path7_fill" transform="translate(-17374.3 -2015.44)" fill="#CF90FF"/>
<use xlink:href="#path8_fill" transform="translate(-17374.3 -2015.44)" fill="#CF90FF"/>
</g>
<g id="Header">
<use xlink:href="#path9_fill" transform="translate(-17379.7 -1776.08)" fill="#CF90FF"/>
<use xlink:href="#path10_fill" transform="translate(-17379.7 -1776.08)" fill="#CF90FF"/>
<use xlink:href="#path11_fill" transform="translate(-17379.7 -1776.08)" fill="#CF90FF"/>
<use xlink:href="#path12_fill" transform="translate(-17379.7 -1776.08)" fill="#CF90FF"/>
<use xlink:href="#path13_fill" transform="translate(-17379.7 -1776.08)" fill="#CF90FF"/>
<use xlink:href="#path14_fill" transform="translate(-17379.7 -1776.08)" fill="#CF90FF"/>
<use xlink:href="#path15_fill" transform="translate(-17379.7 -1776.08)" fill="#CF90FF"/>
<use xlink:href="#path16_fill" transform="translate(-17379.7 -1776.08)" fill="#CF90FF"/>
<use xlink:href="#path17_fill" transform="translate(-17379.7 -1776.08)" fill="#CF90FF"/>
<use xlink:href="#path18_fill" transform="translate(-17379.7 -1776.08)" fill="#CF90FF"/>
<use xlink:href="#path19_fill" transform="translate(-17379.7 -1776.08)" fill="#CF90FF"/>
<use xlink:href="#path20_fill" transform="translate(-17379.7 -1776.08)" fill="#CF90FF"/>
<use xlink:href="#path21_fill" transform="translate(-17379.7 -1776.08)" fill="#CF90FF"/>
<use xlink:href="#path22_fill" transform="translate(-17379.7 -1776.08)" fill="#CF90FF"/>
<use xlink:href="#path23_fill" transform="translate(-17379.7 -1776.08)" fill="#CF90FF"/>
<use xlink:href="#path24_fill" transform="translate(-17379.7 -1776.08)" fill="#CF90FF"/>
<use xlink:href="#path25_fill" transform="translate(-17379.7 -1776.08)" fill="#CF90FF"/>
</g>
<g id="Header">
<use xlink:href="#path26_fill" transform="translate(-17387.6 -1610.61)" fill="#CF90FF"/>
<use xlink:href="#path27_fill" transform="translate(-17387.6 -1610.61)" fill="#CF90FF"/>
<use xlink:href="#path28_fill" transform="translate(-17387.6 -1610.61)" fill="#CF90FF"/>
<use xlink:href="#path29_fill" transform="translate(-17387.6 -1610.61)" fill="#CF90FF"/>
<use xlink:href="#path30_fill" transform="translate(-17387.6 -1610.61)" fill="#CF90FF"/>
<use xlink:href="#path31_fill" transform="translate(-17387.6 -1610.61)" fill="#CF90FF"/>
<use xlink:href="#path32_fill" transform="translate(-17387.6 -1610.61)" fill="#CF90FF"/>
<use xlink:href="#path33_fill" transform="translate(-17387.6 -1610.61)" fill="#CF90FF"/>
<use xlink:href="#path34_fill" transform="translate(-17387.6 -1610.61)" fill="#CF90FF"/>
<use xlink:href="#path35_fill" transform="translate(-17387.6 -1610.61)" fill="#CF90FF"/>
<use xlink:href="#path36_fill" transform="translate(-17387.6 -1610.61)" fill="#CF90FF"/>
<use xlink:href="#path37_fill" transform="translate(-17387.6 -1610.61)" fill="#CF90FF"/>
<use xlink:href="#path38_fill" transform="translate(-17387.6 -1610.61)" fill="#CF90FF"/>
<use xlink:href="#path39_fill" transform="translate(-17387.6 -1610.61)" fill="#CF90FF"/>
<use xlink:href="#path40_fill" transform="translate(-17387.6 -1610.61)" fill="#CF90FF"/>
<use xlink:href="#path41_fill" transform="translate(-17387.6 -1610.61)" fill="#CF90FF"/>
<use xlink:href="#path42_fill" transform="translate(-17387.6 -1610.61)" fill="#CF90FF"/>
</g>
</g>
</g>
<defs>
<path id="path0_fill" d="M 92.6244 152.198L 92.6244 83.1268L 9.96719 83.1268L 9.96719 152.198L 0 152.198L 0 8.23236L 9.96719 8.23236L 9.96719 74.0913L 92.6244 74.0913L 92.6244 8.23236L 102.491 8.23236L 102.491 152.198L 92.6244 152.198Z"/>
<path id="path1_fill" d="M 142.058 23.4924C 140.044 23.4924 138.265 22.7561 136.722 21.2837C 135.178 19.8112 134.406 17.9372 134.406 15.6616C 134.406 13.4529 135.178 11.6792 136.722 10.3407C 138.332 8.93513 140.111 8.23236 142.058 8.23236C 144.138 8.23236 145.95 8.90166 147.494 10.2403C 149.105 11.5789 149.911 13.386 149.911 15.6616C 149.911 17.8033 149.139 19.6439 147.595 21.1833C 146.051 22.7227 144.205 23.4924 142.058 23.4924ZM 137.527 152.198L 137.527 49.3942L 146.789 49.3942L 146.789 152.198L 137.527 152.198Z"/>
<path id="path2_fill" d="M 182.027 101.198C 182.027 115.32 185.282 126.363 191.793 134.328C 198.37 142.293 207.364 146.275 218.775 146.275C 230.319 146.275 241.595 142.025 252.603 133.525L 252.603 143.364C 241.931 150.927 230.017 154.708 216.862 154.708C 203.572 154.708 192.833 149.956 184.645 140.452C 176.456 130.948 172.362 117.529 172.362 100.194C 172.362 85.2016 176.624 72.5853 185.148 62.3451C 193.739 52.0379 204.881 46.8843 218.573 46.8843C 231.393 46.8843 241.226 51.3686 248.072 60.3372C 254.918 69.3058 258.341 81.5539 258.341 97.0816L 258.341 101.198L 182.027 101.198ZM 248.676 92.7647C 248.274 80.9181 245.421 71.7153 240.119 65.1561C 234.816 58.597 227.5 55.3175 218.171 55.3175C 208.505 55.3175 200.485 58.5636 194.108 65.0557C 187.799 71.481 183.906 80.7173 182.43 92.7647L 248.676 92.7647Z"/>
<path id="path3_fill" d="M 332.542 59.0321C 329.454 56.8234 325.83 55.719 321.668 55.719C 313.547 55.719 306.734 59.9021 301.23 68.2684C 295.727 76.6346 292.975 88.5146 292.975 103.908L 292.975 152.198L 283.914 152.198L 283.914 49.3942L 292.975 49.3942L 292.975 72.1838L 293.378 72.1838C 295.727 64.353 299.452 58.2624 304.553 53.9119C 309.654 49.5615 315.56 47.3863 322.272 47.3863C 326.098 47.3863 329.521 47.9887 332.542 49.1934L 332.542 59.0321Z"/>
<path id="path4_fill" d="M 413.588 152.198L 413.588 131.617L 413.185 131.617C 409.896 138.645 405.097 144.267 398.788 148.484C 392.546 152.633 385.599 154.708 377.948 154.708C 368.148 154.708 360.396 151.964 354.691 146.476C 348.986 140.988 346.133 134.06 346.133 125.694C 346.133 107.757 358.047 96.9143 381.874 93.1662L 413.588 88.4477C 413.588 66.3609 405.265 55.3175 388.62 55.3175C 377.276 55.3175 366.235 59.8687 355.496 68.9711L 355.496 57.8273C 359.322 54.8155 364.49 52.2387 371.001 50.0969C 377.578 47.9552 383.753 46.8843 389.526 46.8843C 400.13 46.8843 408.319 50.1639 414.091 56.723C 419.931 63.2821 422.85 72.8196 422.85 85.3355L 422.85 152.198L 413.588 152.198ZM 385.197 100.997C 374.39 102.536 366.806 105.046 362.443 108.527C 358.08 111.94 355.899 117.529 355.899 125.293C 355.899 131.383 357.913 136.403 361.94 140.352C 366.034 144.301 371.706 146.275 378.954 146.275C 388.888 146.275 397.144 142.627 403.721 135.332C 410.299 127.97 413.588 118.499 413.588 106.92L 413.588 96.8809L 385.197 100.997Z"/>
<path id="path5_fill" d="M 502.487 59.0321C 499.4 56.8234 495.775 55.719 491.614 55.719C 483.492 55.719 476.68 59.9021 471.176 68.2684C 465.672 76.6346 462.92 88.5146 462.92 103.908L 462.92 152.198L 453.859 152.198L 453.859 49.3942L 462.92 49.3942L 462.92 72.1838L 463.323 72.1838C 465.672 64.353 469.397 58.2624 474.498 53.9119C 479.6 49.5615 485.506 47.3863 492.218 47.3863C 496.044 47.3863 499.467 47.9887 502.487 49.1934L 502.487 59.0321Z"/>
<path id="path6_fill" d="M 584.44 147.681C 576.788 152.366 567.66 154.708 557.055 154.708C 543.027 154.708 531.717 149.923 523.126 140.352C 514.535 130.714 510.239 118.131 510.239 102.603C 510.239 86.2725 515.072 72.92 524.737 62.5459C 534.402 52.1048 546.819 46.8843 561.988 46.8843C 569.841 46.8843 577.459 48.4906 584.842 51.7033L 584.842 62.1443C 577.459 57.5931 569.371 55.3175 560.579 55.3175C 548.497 55.3175 538.698 59.6679 531.181 68.3688C 523.663 77.0027 519.905 88.2134 519.905 102.001C 519.905 115.32 523.328 126.029 530.174 134.127C 537.087 142.226 546.182 146.275 557.458 146.275C 567.794 146.275 576.788 143.531 584.44 138.043L 584.44 147.681Z"/>
<path id="path7_fill" d="M 679.38 152.198L 679.38 90.556C 679.38 78.3748 677.165 69.4731 672.735 63.851C 668.305 58.162 661.392 55.3175 651.995 55.3175C 643.135 55.3175 635.349 58.7643 628.637 65.6581C 621.926 72.5519 618.57 82.424 618.57 95.2745L 618.57 152.198L 609.307 152.198L 609.307 0L 618.57 0L 618.57 67.8668L 618.972 67.8668C 627.094 53.8785 638.907 46.8843 654.411 46.8843C 665.553 46.8843 674.044 50.465 679.883 57.6265C 685.722 64.788 688.642 75.0617 688.642 88.4477L 688.642 152.198L 679.38 152.198Z"/>
<path id="path8_fill" d="M 744.821 173.181C 741.062 182.417 736.901 189.277 732.336 193.762C 727.772 198.246 721.899 200.488 714.718 200.488C 711.697 200.488 709.013 200.02 706.663 199.083L 706.663 189.846C 709.08 190.783 711.899 191.252 715.12 191.252C 723.376 191.252 729.887 185.563 734.652 174.185L 744.217 151.395L 705.153 49.3942L 715.523 49.3942L 746.633 133.123C 747.304 134.93 747.774 136.302 748.042 137.24C 748.311 138.511 748.613 139.649 748.948 140.653L 749.351 140.653L 751.767 133.726L 784.991 49.3942L 795.059 49.3942L 744.821 173.181Z"/>
<path id="path9_fill" d="M 0 79.4078L 0 0L 4.83257 0L 4.83257 79.4078L 0 79.4078Z"/>
<path id="path10_fill" d="M 23.2174 52.7989C 23.2174 60.167 24.9158 65.9287 28.3126 70.0842C 31.7444 74.2397 36.4369 76.3174 42.3901 76.3174C 48.4133 76.3174 54.2964 74.1 60.0395 69.6652L 60.0395 74.7984C 54.4715 78.7443 48.2557 80.7173 41.3921 80.7173C 34.4584 80.7173 28.8554 78.238 24.5831 73.2794C 20.3108 68.3207 18.1747 61.3193 18.1747 52.2751C 18.1747 44.453 20.3984 37.8706 24.8457 32.5279C 29.3281 27.1502 35.1412 24.4614 42.285 24.4614C 48.9736 24.4614 54.1038 26.801 57.6757 31.4803C 61.2476 36.1595 63.0336 42.5499 63.0336 50.6513L 63.0336 52.7989L 23.2174 52.7989ZM 57.9909 48.399C 57.7808 42.2181 56.2925 37.4167 53.526 33.9945C 50.7595 30.5724 46.9425 28.8613 42.0749 28.8613C 37.0322 28.8613 32.8475 30.5549 29.5207 33.9421C 26.229 37.2944 24.1979 42.1134 23.4275 48.399L 57.9909 48.399Z"/>
<path id="path11_fill" d="M 97.6495 78.6745C 95.1282 79.8618 92.7644 80.4554 90.5583 80.4554C 82.609 80.4554 78.6344 75.7063 78.6344 66.2081L 78.6344 30.1708L 68.9693 30.1708L 68.9693 25.7709L 78.6344 25.7709L 78.6344 11.8378C 79.4048 11.5585 80.2102 11.2791 81.0507 10.9998C 81.8911 10.7553 82.6966 10.4934 83.467 10.2141L 83.467 25.7709L 97.6495 25.7709L 97.6495 30.1708L 83.467 30.1708L 83.467 65.5795C 83.467 69.281 84.0448 71.9699 85.2004 73.646C 86.391 75.2873 88.3871 76.1079 91.1886 76.1079C 93.1847 76.1079 95.3383 75.4619 97.6495 74.1698L 97.6495 78.6745Z"/>
<path id="path12_fill" d="M 105.529 77.0507L 105.529 71.2366C 107.35 72.808 109.556 74.0476 112.147 74.9555C 114.739 75.8634 116.98 76.3174 118.871 76.3174C 127.31 76.3174 131.53 72.8778 131.53 65.9986C 131.53 63.624 130.602 61.5987 128.746 59.9225C 126.89 58.2464 123.879 56.5178 119.711 54.7369C 114.564 52.502 110.939 50.1973 108.838 47.8228C 106.772 45.4133 105.739 42.4975 105.739 39.0753C 105.739 34.7104 107.402 31.1835 110.729 28.4946C 114.091 25.8058 118.223 24.4614 123.126 24.4614C 127.748 24.4614 131.705 25.4042 134.997 27.2899L 134.997 32.7374C 131.005 30.1533 126.873 28.8613 122.6 28.8613C 119.063 28.8613 116.209 29.7867 114.038 31.6374C 111.867 33.4532 110.782 35.8278 110.782 38.7611C 110.782 41.3102 111.464 43.388 112.83 44.9943C 114.196 46.5657 117.207 48.3815 121.865 50.4418C 127.468 52.956 131.32 55.2956 133.421 57.4607C 135.522 59.5908 136.573 62.4367 136.573 65.9986C 136.573 70.2588 134.962 73.7857 131.74 76.5793C 128.553 79.338 124.141 80.7173 118.503 80.7173C 113.32 80.7173 108.996 79.4951 105.529 77.0507Z"/>
<path id="path13_fill" d="M 200.92 78.6745C 198.398 79.8618 196.034 80.4554 193.828 80.4554C 185.879 80.4554 181.904 75.7063 181.904 66.2081L 181.904 30.1708L 172.239 30.1708L 172.239 25.7709L 181.904 25.7709L 181.904 11.8378C 182.675 11.5585 183.48 11.2791 184.321 10.9998C 185.161 10.7553 185.967 10.4934 186.737 10.2141L 186.737 25.7709L 200.92 25.7709L 200.92 30.1708L 186.737 30.1708L 186.737 65.5795C 186.737 69.281 187.315 71.9699 188.47 73.646C 189.661 75.2873 191.657 76.1079 194.459 76.1079C 196.455 76.1079 198.608 75.4619 200.92 74.1698L 200.92 78.6745Z"/>
<path id="path14_fill" d="M 248.142 79.4078L 248.142 47.2466C 248.142 40.8912 246.987 36.2468 244.675 33.3136C 242.364 30.3454 238.757 28.8613 233.855 28.8613C 229.232 28.8613 225.17 30.6597 221.668 34.2564C 218.166 37.8532 216.415 43.0038 216.415 49.7085L 216.415 79.4078L 211.583 79.4078L 211.583 0L 216.415 0L 216.415 35.4088L 216.625 35.4088C 220.863 28.1105 227.026 24.4614 235.115 24.4614C 240.928 24.4614 245.358 26.3296 248.405 30.066C 251.451 33.8024 252.975 39.1626 252.975 46.1466L 252.975 79.4078L 248.142 79.4078Z"/>
<path id="path15_fill" d="M 270.309 52.7989C 270.309 60.167 272.007 65.9287 275.404 70.0842C 278.836 74.2397 283.529 76.3174 289.482 76.3174C 295.505 76.3174 301.388 74.1 307.131 69.6652L 307.131 74.7984C 301.563 78.7443 295.347 80.7173 288.484 80.7173C 281.55 80.7173 275.947 78.238 271.675 73.2794C 267.402 68.3207 265.266 61.3193 265.266 52.2751C 265.266 44.453 267.49 37.8706 271.937 32.5279C 276.42 27.1502 282.233 24.4614 289.377 24.4614C 296.065 24.4614 301.195 26.801 304.767 31.4803C 308.339 36.1595 310.125 42.5499 310.125 50.6513L 310.125 52.7989L 270.309 52.7989ZM 305.083 48.399C 304.872 42.2181 303.384 37.4167 300.618 33.9945C 297.851 30.5724 294.034 28.8613 289.167 28.8613C 284.124 28.8613 279.939 30.5549 276.612 33.9421C 273.321 37.2944 271.29 42.1134 270.519 48.399L 305.083 48.399Z"/>
<path id="path16_fill" d="M 378.359 30.7993C 376.748 29.647 374.857 29.0708 372.686 29.0708C 368.449 29.0708 364.894 31.2533 362.023 35.6183C 359.151 39.9833 357.716 46.1815 357.716 54.2131L 357.716 79.4078L 352.988 79.4078L 352.988 25.7709L 357.716 25.7709L 357.716 37.6611L 357.926 37.6611C 359.151 33.5755 361.095 30.3978 363.756 28.128C 366.418 25.8582 369.499 24.7233 373.001 24.7233C 374.997 24.7233 376.783 25.0376 378.359 25.6661L 378.359 30.7993Z"/>
<path id="path17_fill" d="M 387.446 52.7989C 387.446 60.167 389.145 65.9287 392.542 70.0842C 395.973 74.2397 400.666 76.3174 406.619 76.3174C 412.642 76.3174 418.526 74.1 424.269 69.6652L 424.269 74.7984C 418.701 78.7443 412.485 80.7173 405.621 80.7173C 398.687 80.7173 393.084 78.238 388.812 73.2794C 384.54 68.3207 382.404 61.3193 382.404 52.2751C 382.404 44.453 384.627 37.8706 389.075 32.5279C 393.557 27.1502 399.37 24.4614 406.514 24.4614C 413.203 24.4614 418.333 26.801 421.905 31.4803C 425.477 36.1595 427.263 42.5499 427.263 50.6513L 427.263 52.7989L 387.446 52.7989ZM 422.22 48.399C 422.01 42.2181 420.522 37.4167 417.755 33.9945C 414.989 30.5724 411.172 28.8613 406.304 28.8613C 401.261 28.8613 397.077 30.5549 393.75 33.9421C 390.458 37.2944 388.427 42.1134 387.657 48.399L 422.22 48.399Z"/>
<path id="path18_fill" d="M 472.752 79.4078L 472.752 68.67L 472.542 68.67C 470.826 72.3365 468.322 75.2698 465.03 77.4698C 461.774 79.6348 458.149 80.7173 454.157 80.7173C 449.044 80.7173 445 79.2856 442.023 76.4222C 439.046 73.5587 437.558 69.9445 437.558 65.5795C 437.558 56.221 443.774 50.564 456.206 48.6085L 472.752 46.1466C 472.752 34.6231 468.41 28.8613 459.725 28.8613C 453.807 28.8613 448.046 31.2358 442.443 35.9849L 442.443 30.1708C 444.439 28.5994 447.136 27.255 450.533 26.1375C 453.964 25.0201 457.186 24.4614 460.198 24.4614C 465.731 24.4614 470.003 26.1725 473.015 29.5946C 476.061 33.0168 477.584 37.9928 477.584 44.5229L 477.584 79.4078L 472.752 79.4078ZM 457.939 52.6941C 452.301 53.4973 448.344 54.8068 446.068 56.6226C 443.791 58.4035 442.653 61.3193 442.653 65.37C 442.653 68.5477 443.704 71.1667 445.805 73.227C 447.941 75.2873 450.9 76.3174 454.682 76.3174C 459.865 76.3174 464.172 74.4143 467.604 70.608C 471.036 66.7668 472.752 61.8257 472.752 55.7845L 472.752 50.5465L 457.939 52.6941Z"/>
<path id="path19_fill" d="M 531.951 79.4078L 531.951 69.6652L 531.741 69.6652C 529.99 73.0524 527.398 75.7412 523.967 77.7317C 520.535 79.7221 516.665 80.7173 512.358 80.7173C 505.739 80.7173 500.329 78.3078 496.127 73.4889C 491.96 68.67 489.876 62.0177 489.876 53.5322C 489.876 44.872 492.152 37.8706 496.705 32.5279C 501.292 27.1502 507.228 24.4614 514.512 24.4614C 522.566 24.4614 528.309 27.7613 531.741 34.3612L 531.951 34.3612L 531.951 0L 536.784 0L 536.784 79.4078L 531.951 79.4078ZM 531.951 46.7752C 531.951 41.7816 530.358 37.5563 527.171 34.0993C 524.019 30.6073 519.764 28.8613 514.407 28.8613C 508.769 28.8613 504.111 31.0263 500.434 35.3564C 496.757 39.6515 494.919 45.5704 494.919 53.1131C 494.919 60.5162 496.565 66.243 499.856 70.2937C 503.183 74.3095 507.455 76.3174 512.673 76.3174C 518.801 76.3174 523.546 74.4317 526.908 70.6604C 530.27 66.8541 531.951 62.2272 531.951 56.7797L 531.951 46.7752Z"/>
<path id="path20_fill" d="M 555.221 52.7989C 555.221 60.167 556.919 65.9287 560.316 70.0842C 563.748 74.2397 568.44 76.3174 574.394 76.3174C 580.417 76.3174 586.3 74.1 592.043 69.6652L 592.043 74.7984C 586.475 78.7443 580.259 80.7173 573.396 80.7173C 566.462 80.7173 560.859 78.238 556.587 73.2794C 552.314 68.3207 550.178 61.3193 550.178 52.2751C 550.178 44.453 552.402 37.8706 556.849 32.5279C 561.332 27.1502 567.145 24.4614 574.289 24.4614C 580.977 24.4614 586.107 26.801 589.679 31.4803C 593.251 36.1595 595.037 42.5499 595.037 50.6513L 595.037 52.7989L 555.221 52.7989ZM 589.994 48.399C 589.784 42.2181 588.296 37.4167 585.529 33.9945C 582.763 30.5724 578.946 28.8613 574.078 28.8613C 569.036 28.8613 564.851 30.5549 561.524 33.9421C 558.232 37.2944 556.201 42.1134 555.431 48.399L 589.994 48.399Z"/>
<path id="path21_fill" d="M 633.75 30.7993C 632.139 29.647 630.248 29.0708 628.077 29.0708C 623.84 29.0708 620.286 31.2533 617.414 35.6183C 614.542 39.9833 613.107 46.1815 613.107 54.2131L 613.107 79.4078L 608.379 79.4078L 608.379 25.7709L 613.107 25.7709L 613.107 37.6611L 613.317 37.6611C 614.542 33.5755 616.486 30.3978 619.147 28.128C 621.809 25.8582 624.89 24.7233 628.392 24.7233C 630.388 24.7233 632.174 25.0376 633.75 25.6661L 633.75 30.7993Z"/>
<path id="path22_fill" d="M 704.19 79.4078L 678.452 52.9036L 678.241 52.9036L 678.241 79.4078L 673.409 79.4078L 673.409 0L 678.241 0L 678.241 51.1751L 678.452 51.1751L 702.877 25.7709L 709.128 25.7709L 683.599 51.7513L 711.176 79.4078L 704.19 79.4078Z"/>
<path id="path23_fill" d="M 757.769 79.4078L 757.769 48.1894C 757.769 35.304 753.111 28.8613 743.796 28.8613C 738.614 28.8613 734.359 30.7644 731.032 34.5707C 727.705 38.342 726.042 43.0213 726.042 48.6085L 726.042 79.4078L 721.209 79.4078L 721.209 25.7709L 726.042 25.7709L 726.042 35.5135L 726.252 35.5135C 730.174 28.1454 736.302 24.4614 744.637 24.4614C 750.45 24.4614 754.897 26.3994 757.979 30.2755C 761.061 34.1167 762.601 39.6166 762.601 46.7752L 762.601 79.4078L 757.769 79.4078Z"/>
<path id="path24_fill" d="M 800.369 80.7173C 792.525 80.7173 786.309 78.1507 781.722 73.0175C 777.169 67.8493 774.893 61.1447 774.893 52.9036C 774.893 43.9991 777.274 37.0325 782.037 32.0041C 786.834 26.9756 793.138 24.4614 800.947 24.4614C 808.616 24.4614 814.674 26.9581 819.121 31.9517C 823.569 36.9452 825.793 43.8594 825.793 52.6941C 825.793 61.04 823.516 67.797 818.964 72.9651C 814.446 78.1332 808.248 80.7173 800.369 80.7173ZM 800.737 28.8613C 794.398 28.8613 789.338 30.9914 785.556 35.2516C 781.809 39.5118 779.936 45.4308 779.936 53.0084C 779.936 60.0273 781.774 65.6668 785.451 69.9271C 789.128 74.1873 794.153 76.3174 800.527 76.3174C 807.005 76.3174 811.995 74.2222 815.497 70.0318C 818.999 65.8414 820.75 60.0273 820.75 52.5893C 820.75 44.9419 818.999 39.0753 815.497 34.9897C 812.03 30.9041 807.11 28.8613 800.737 28.8613Z"/>
<path id="path25_fill" d="M 884.781 79.4078L 880.264 79.4078L 868.55 38.9706C 868.235 37.8532 867.955 36.3516 867.71 34.4659L 867.447 34.4659C 867.377 35.2691 867.027 36.7357 866.397 38.8658L 853.265 79.4078L 848.747 79.4078L 832.516 25.7709L 837.874 25.7709L 850.376 68.5652C 850.691 69.6826 850.936 71.1842 851.111 73.0699L 851.531 73.0699C 851.601 72.0572 851.934 70.5556 852.529 68.5652L 866.187 25.7709L 869.496 25.7709L 881.682 68.5652C 881.962 69.5779 882.208 71.0794 882.418 73.0699L 882.838 73.0699C 882.838 72.0572 883.136 70.5556 883.731 68.5652L 896.495 25.7709L 901.485 25.7709L 884.781 79.4078Z"/>
<path id="path26_fill" d="M 47.0125 16.827L 36.9337 50.3501L 31.3526 50.3501L 24.4255 26.3536C 24.1629 25.437 23.9878 24.4003 23.9002 23.2435L 23.7689 23.2435C 23.7033 24.0292 23.4734 25.0441 23.0795 26.2881L 15.5614 50.3501L 10.1773 50.3501L 0 16.827L 5.64676 16.827L 12.6067 42.0348C 12.8256 42.7987 12.9788 43.8026 13.0663 45.0466L 13.329 45.0466C 13.3946 44.0864 13.5916 43.0606 13.9199 41.9693L 21.6678 16.827L 26.5923 16.827L 33.5522 42.1003C 33.7711 42.9078 33.9353 43.9118 34.0447 45.1121L 34.3073 45.1121C 34.3511 44.261 34.5372 43.257 34.8655 42.1003L 41.6941 16.827L 47.0125 16.827Z"/>
<path id="path27_fill" d="M 81.1557 50.3501L 75.7716 50.3501L 75.7716 31.035C 75.7716 24.0511 73.1671 20.5591 67.9581 20.5591C 65.3317 20.5591 63.1211 21.5739 61.3264 23.6037C 59.5317 25.6116 58.6344 28.1978 58.6344 31.3624L 58.6344 50.3501L 53.2502 50.3501L 53.2502 0.720223L 58.6344 0.720223L 58.6344 22.3924L 58.7657 22.3924C 61.3483 18.1583 65.0253 16.0413 69.7966 16.0413C 77.3693 16.0413 81.1557 20.5918 81.1557 29.6928L 81.1557 50.3501Z"/>
<path id="path28_fill" d="M 118.352 34.9308L 94.616 34.9308C 94.7036 38.6629 95.7104 41.5437 97.6364 43.5735C 99.5624 45.6032 102.211 46.618 105.581 46.618C 109.368 46.618 112.848 45.374 116.021 42.886L 116.021 47.9275C 113.066 50.0664 109.16 51.1358 104.301 51.1358C 99.5515 51.1358 95.8198 49.619 93.1059 46.5853C 90.3919 43.5298 89.0349 39.2412 89.0349 33.7195C 89.0349 28.5034 90.5123 24.2584 93.467 20.9847C 96.4436 17.6891 100.131 16.0413 104.531 16.0413C 108.93 16.0413 112.333 17.4599 114.741 20.2972C 117.148 23.1344 118.352 27.0738 118.352 32.1154L 118.352 34.9308ZM 112.837 30.3803C 112.815 27.2812 112.06 24.8695 110.571 23.1453C 109.105 21.4212 107.059 20.5591 104.432 20.5591C 101.893 20.5591 99.7375 21.4648 97.9647 23.2763C 96.1919 25.0878 95.0975 27.4558 94.6817 30.3803L 112.837 30.3803Z"/>
<path id="path29_fill" d="M 144.058 22.2614C 143.117 21.5412 141.76 21.1811 139.987 21.1811C 137.689 21.1811 135.763 22.2614 134.209 24.4221C 132.677 26.5828 131.911 29.5291 131.911 33.2612L 131.911 50.3501L 126.527 50.3501L 126.527 16.827L 131.911 16.827L 131.911 23.7346L 132.042 23.7346C 132.808 21.3775 133.979 19.5442 135.555 18.2347C 137.131 16.9034 138.893 16.2377 140.841 16.2377C 142.241 16.2377 143.314 16.3905 144.058 16.6961L 144.058 22.2614Z"/>
<path id="path30_fill" d="M 176.921 34.9308L 153.185 34.9308C 153.272 38.6629 154.279 41.5437 156.205 43.5735C 158.131 45.6032 160.779 46.618 164.15 46.618C 167.936 46.618 171.416 45.374 174.59 42.886L 174.59 47.9275C 171.635 50.0664 167.728 51.1358 162.87 51.1358C 158.12 51.1358 154.389 49.619 151.675 46.5853C 148.961 43.5298 147.604 39.2412 147.604 33.7195C 147.604 28.5034 149.081 24.2584 152.036 20.9847C 155.012 17.6891 158.7 16.0413 163.099 16.0413C 167.499 16.0413 170.902 17.4599 173.31 20.2972C 175.717 23.1344 176.921 27.0738 176.921 32.1154L 176.921 34.9308ZM 171.405 30.3803C 171.383 27.2812 170.628 24.8695 169.14 23.1453C 167.674 21.4212 165.627 20.5591 163.001 20.5591C 160.462 20.5591 158.306 21.4648 156.533 23.2763C 154.761 25.0878 153.666 27.4558 153.25 30.3803L 171.405 30.3803Z"/>
<path id="path31_fill" d="M 219.14 50.0227C 217.871 50.7211 216.196 51.0703 214.117 51.0703C 208.23 51.0703 205.286 47.7966 205.286 41.2491L 205.286 21.4103L 199.508 21.4103L 199.508 16.827L 205.286 16.827L 205.286 8.64267L 210.67 6.90759L 210.67 16.827L 219.14 16.827L 219.14 21.4103L 210.67 21.4103L 210.67 40.2997C 210.67 42.5477 211.053 44.1518 211.819 45.1121C 212.585 46.0724 213.855 46.5526 215.627 46.5526C 216.984 46.5526 218.155 46.1815 219.14 45.4395L 219.14 50.0227Z"/>
<path id="path32_fill" d="M 240.381 51.1358C 235.413 51.1358 231.44 49.5753 228.464 46.4544C 225.509 43.3116 224.032 39.1539 224.032 33.9814C 224.032 28.3506 225.575 23.9529 228.661 20.7882C 231.747 17.6236 235.916 16.0413 241.169 16.0413C 246.181 16.0413 250.088 17.58 252.889 20.6573C 255.713 23.7346 257.124 28.0014 257.124 33.4576C 257.124 38.8047 255.603 43.0933 252.561 46.3234C 249.541 49.5317 245.481 51.1358 240.381 51.1358ZM 240.775 20.5591C 237.317 20.5591 234.581 21.7376 232.568 24.0947C 230.554 26.43 229.547 29.6601 229.547 33.785C 229.547 37.7571 230.565 40.889 232.6 43.1806C 234.636 45.4722 237.361 46.618 240.775 46.618C 244.255 46.618 246.925 45.4941 248.786 43.2461C 250.668 40.9981 251.609 37.8008 251.609 33.654C 251.609 29.4637 250.668 26.2336 248.786 23.9638C 246.925 21.694 244.255 20.5591 240.775 20.5591Z"/>
<path id="path33_fill" d="M 289.561 50.3501L 284.176 50.3501L 284.176 0.720223L 289.561 0.720223L 289.561 50.3501Z"/>
<path id="path34_fill" d="M 314.511 51.1358C 309.543 51.1358 305.571 49.5753 302.594 46.4544C 299.639 43.3116 298.162 39.1539 298.162 33.9814C 298.162 28.3506 299.705 23.9529 302.791 20.7882C 305.877 17.6236 310.046 16.0413 315.299 16.0413C 320.311 16.0413 324.218 17.58 327.02 20.6573C 329.843 23.7346 331.255 28.0014 331.255 33.4576C 331.255 38.8047 329.733 43.0933 326.691 46.3234C 323.671 49.5317 319.611 51.1358 314.511 51.1358ZM 314.905 20.5591C 311.447 20.5591 308.711 21.7376 306.698 24.0947C 304.684 26.43 303.677 29.6601 303.677 33.785C 303.677 37.7571 304.695 40.889 306.731 43.1806C 308.766 45.4722 311.491 46.618 314.905 46.618C 318.385 46.618 321.055 45.4941 322.916 43.2461C 324.798 40.9981 325.739 37.8008 325.739 33.654C 325.739 29.4637 324.798 26.2336 322.916 23.9638C 321.055 21.694 318.385 20.5591 314.905 20.5591Z"/>
<path id="path35_fill" d="M 353.907 51.1358C 348.939 51.1358 344.967 49.5753 341.99 46.4544C 339.035 43.3116 337.558 39.1539 337.558 33.9814C 337.558 28.3506 339.101 23.9529 342.187 20.7882C 345.273 17.6236 349.442 16.0413 354.695 16.0413C 359.707 16.0413 363.614 17.58 366.416 20.6573C 369.239 23.7346 370.651 28.0014 370.651 33.4576C 370.651 38.8047 369.129 43.0933 366.087 46.3234C 363.067 49.5317 359.007 51.1358 353.907 51.1358ZM 354.301 20.5591C 350.843 20.5591 348.107 21.7376 346.094 24.0947C 344.08 26.43 343.073 29.6601 343.073 33.785C 343.073 37.7571 344.091 40.889 346.127 43.1806C 348.162 45.4722 350.887 46.618 354.301 46.618C 357.781 46.618 360.451 45.4941 362.312 43.2461C 364.194 40.9981 365.135 37.8008 365.135 33.654C 365.135 29.4637 364.194 26.2336 362.312 23.9638C 360.451 21.694 357.781 20.5591 354.301 20.5591Z"/>
<path id="path36_fill" d="M 407.158 50.3501L 399.607 50.3501L 384.767 34.2433L 384.636 34.2433L 384.636 50.3501L 379.252 50.3501L 379.252 0.720223L 384.636 0.720223L 384.636 32.1809L 384.767 32.1809L 398.884 16.827L 405.943 16.827L 390.349 32.9993L 407.158 50.3501Z"/>
<path id="path37_fill" d="M 447.735 5.43441C 446.685 4.84513 445.492 4.5505 444.157 4.5505C 440.392 4.5505 438.51 6.9185 438.51 11.6545L 438.51 16.827L 446.389 16.827L 446.389 21.4103L 438.51 21.4103L 438.51 50.3501L 433.159 50.3501L 433.159 21.4103L 427.414 21.4103L 427.414 16.827L 433.159 16.827L 433.159 11.3926C 433.159 7.8788 434.177 5.10703 436.212 3.07731C 438.248 1.02577 440.786 0 443.829 0C 445.47 0 446.772 0.196424 447.735 0.589273L 447.735 5.43441Z"/>
<path id="path38_fill" d="M 454.958 8.3153C 453.995 8.3153 453.174 7.98792 452.496 7.33318C 451.817 6.67843 451.478 5.84908 451.478 4.84513C 451.478 3.84119 451.817 3.01184 452.496 2.35709C 453.174 1.68052 453.995 1.34223 454.958 1.34223C 455.943 1.34223 456.775 1.68052 457.453 2.35709C 458.153 3.01184 458.504 3.84119 458.504 4.84513C 458.504 5.80543 458.153 6.62387 457.453 7.30044C 456.775 7.97701 455.943 8.3153 454.958 8.3153ZM 457.584 50.3501L 452.2 50.3501L 452.2 16.827L 457.584 16.827L 457.584 50.3501Z"/>
<path id="path39_fill" d="M 486.015 22.2614C 485.074 21.5412 483.717 21.1811 481.944 21.1811C 479.646 21.1811 477.72 22.2614 476.166 24.4221C 474.634 26.5828 473.868 29.5291 473.868 33.2612L 473.868 50.3501L 468.484 50.3501L 468.484 16.827L 473.868 16.827L 473.868 23.7346L 473.999 23.7346C 474.765 21.3775 475.936 19.5442 477.512 18.2347C 479.088 16.9034 480.85 16.2377 482.798 16.2377C 484.199 16.2377 485.271 16.3905 486.015 16.6961L 486.015 22.2614Z"/>
<path id="path40_fill" d="M 489.823 49.1388L 489.823 43.377C 492.756 45.5377 495.985 46.618 499.508 46.618C 504.236 46.618 506.6 45.0466 506.6 41.9039C 506.6 41.009 506.392 40.2561 505.976 39.645C 505.582 39.0121 505.035 38.4555 504.334 37.9754C 503.656 37.4952 502.846 37.0696 501.905 36.6986C 500.986 36.3058 499.99 35.902 498.917 35.4873C 497.429 34.8981 496.116 34.3088 494.978 33.7195C 493.862 33.1084 492.92 32.4318 492.154 31.6898C 491.41 30.9259 490.841 30.0638 490.447 29.1035C 490.075 28.1432 489.889 27.0193 489.889 25.7316C 489.889 24.1602 490.25 22.7743 490.973 21.5739C 491.695 20.3517 492.658 19.3369 493.862 18.5294C 495.065 17.7 496.433 17.078 497.965 16.6633C 499.519 16.2487 501.117 16.0413 502.758 16.0413C 505.669 16.0413 508.274 16.5433 510.572 17.5472L 510.572 22.9816C 508.099 21.3666 505.254 20.5591 502.036 20.5591C 501.029 20.5591 500.121 20.6791 499.311 20.9192C 498.502 21.1374 497.801 21.4539 497.21 21.8686C 496.641 22.2833 496.192 22.7852 495.864 23.3745C 495.558 23.9419 495.405 24.5749 495.405 25.2733C 495.405 26.1463 495.558 26.8774 495.864 27.4667C 496.192 28.0559 496.663 28.5797 497.276 29.0381C 497.889 29.4964 498.633 29.9111 499.508 30.2821C 500.384 30.6531 501.38 31.0569 502.496 31.4934C 503.984 32.0608 505.319 32.6501 506.501 33.2612C 507.683 33.8505 508.69 34.527 509.521 35.2909C 510.353 36.033 510.988 36.895 511.426 37.8772C 511.885 38.8593 512.115 40.0269 512.115 41.3801C 512.115 43.0388 511.743 44.4792 510.999 45.7014C 510.277 46.9236 509.303 47.9384 508.077 48.746C 506.851 49.5535 505.44 50.1537 503.842 50.5465C 502.244 50.9394 500.57 51.1358 498.819 51.1358C 495.361 51.1358 492.362 50.4701 489.823 49.1388Z"/>
<path id="path41_fill" d="M 536.015 50.0227C 534.746 50.7211 533.072 51.0703 530.992 51.0703C 525.105 51.0703 522.161 47.7966 522.161 41.2491L 522.161 21.4103L 516.383 21.4103L 516.383 16.827L 522.161 16.827L 522.161 8.64267L 527.545 6.90759L 527.545 16.827L 536.015 16.827L 536.015 21.4103L 527.545 21.4103L 527.545 40.2997C 527.545 42.5477 527.928 44.1518 528.694 45.1121C 529.46 46.0724 530.73 46.5526 532.502 46.5526C 533.859 46.5526 535.03 46.1815 536.015 45.4395L 536.015 50.0227Z"/>
<path id="path42_fill" d="M 545.076 51.0703C 544.07 51.0703 543.205 50.7102 542.483 49.99C 541.782 49.2698 541.432 48.4077 541.432 47.4037C 541.432 46.3998 541.782 45.5377 542.483 44.8175C 543.205 44.0754 544.07 43.7044 545.076 43.7044C 546.105 43.7044 546.98 44.0754 547.703 44.8175C 548.425 45.5377 548.786 46.3998 548.786 47.4037C 548.786 48.4077 548.425 49.2698 547.703 49.99C 546.98 50.7102 546.105 51.0703 545.076 51.0703Z"/>
</defs>
</svg>
