<svg width="48" height="48" viewBox="0 0 48 48" fill="none" xmlns="http://www.w3.org/2000/svg">
<g clip-path="url(#clip0_1_56)">
<path d="M0 7.8C0 3.49217 3.49217 0 7.8 0H35.4C39.7078 0 43.2 3.49217 43.2 7.8V21.3802C42.7819 20.4686 41.9578 19.7266 40.8283 19.4801C40.4223 19.3915 40.0121 19.3238 39.6 19.2773V13.2H3.6V35.4C3.6 37.7196 5.4804 39.6 7.8 39.6H21.4222L20.9765 40.0457C20.082 40.9402 19.5254 42.0444 19.3063 43.2H7.8C3.49217 43.2 0 39.7078 0 35.4V7.8ZM31.1847 21.439L27.0727 17.3273C26.3698 16.6243 25.2303 16.6243 24.5273 17.3273C23.8243 18.0302 23.8243 19.1698 24.5273 19.8727L28.5871 23.9326C28.9008 23.5274 29.2435 23.1374 29.6155 22.7654C30.109 22.272 30.6343 21.8299 31.1847 21.439ZM3.6 9.6H39.6V7.8C39.6 5.4804 37.7196 3.6 35.4 3.6H7.8C5.4804 3.6 3.6 5.4804 3.6 7.8V9.6ZM18.6727 19.8727C19.3757 19.1698 19.3757 18.0302 18.6727 17.3273C17.9698 16.6243 16.8302 16.6243 16.1272 17.3273L8.92721 24.5273C8.22428 25.2302 8.22428 26.3698 8.92721 27.0727L16.1272 34.2727C16.8302 34.9757 17.9698 34.9757 18.6727 34.2727C19.3757 33.5698 19.3757 32.4302 18.6727 31.7273L12.7456 25.8L18.6727 19.8727ZM40.3171 21.8254C41.1639 22.0099 41.3734 23.0424 40.7607 23.6551L36.1908 28.2245C34.7592 29.6558 34.7592 31.9769 36.1908 33.4085C37.6222 34.8398 39.943 34.8398 41.3743 33.4085L45.9447 28.8386C46.5574 28.2259 47.5901 28.4354 47.7747 29.2822C48.4603 32.4254 47.5812 35.8416 45.1368 38.2855C42.2364 41.1859 37.9666 41.8824 34.4081 40.3754L27.8578 46.9265C26.4262 48.3578 24.1051 48.3578 22.6738 46.9265C21.2422 45.4951 21.2422 43.1743 22.6738 41.743L29.2234 35.1924C27.7152 31.6342 28.4115 27.3636 31.3126 24.4627C33.7567 22.0188 37.1734 21.1397 40.3171 21.8254Z" fill="url(#paint0_linear_1_56)"/>
</g>
<defs>
<linearGradient id="paint0_linear_1_56" x1="3" y1="-3.5" x2="45.5" y2="53.5" gradientUnits="userSpaceOnUse">
<stop stop-color="#2BA3FF"/>
<stop offset="1" stop-color="#006CBE"/>
</linearGradient>
<clipPath id="clip0_1_56">
<rect width="48" height="48" fill="white"/>
</clipPath>
</defs>
</svg>
