<svg width="48" height="48" viewBox="0 0 48 48" fill="none" xmlns="http://www.w3.org/2000/svg">
<g clip-path="url(#clip0_1_46)">
<path d="M10.2797 6C7.27405 6 4.8375 8.41766 4.8375 11.4V29.4C4.8375 32.3822 7.27405 34.8 10.2797 34.8H38.0953C41.1009 34.8 43.5375 32.3822 43.5375 29.4V11.4C43.5375 8.41766 41.1009 6 38.0953 6H10.2797ZM8.46563 11.4C8.46563 10.4059 9.27782 9.6 10.2797 9.6H38.0953C39.0972 9.6 39.9094 10.4059 39.9094 11.4V29.4C39.9094 30.3941 39.0972 31.2 38.0953 31.2H10.2797C9.27782 31.2 8.46563 30.3941 8.46563 29.4V11.4ZM1.81406 38.4C0.812192 38.4 0 39.2059 0 40.2C0 41.1941 0.812192 42 1.81406 42H46.5609C47.5628 42 48.375 41.1941 48.375 40.2C48.375 39.2059 47.5628 38.4 46.5609 38.4H1.81406Z" fill="url(#paint0_linear_1_46)"/>
</g>
<defs>
<linearGradient id="paint0_linear_1_46" x1="3.02344" y1="3.375" x2="31.2433" y2="54.233" gradientUnits="userSpaceOnUse">
<stop stop-color="#2BA3FF"/>
<stop offset="1" stop-color="#006CBE"/>
</linearGradient>
<clipPath id="clip0_1_46">
<rect width="48" height="48" fill="white"/>
</clipPath>
</defs>
</svg>
