<svg width="48" height="48" viewBox="0 0 48 48" fill="none" xmlns="http://www.w3.org/2000/svg">
<g clip-path="url(#clip0_1_65)">
<path d="M7.8 0C3.49217 0 0 3.49217 0 7.8V35.4C0 39.7078 3.49217 43.2 7.8 43.2H14.4227C14.4077 43.002 14.4 42.8018 14.4 42.6V39.6H7.8C5.4804 39.6 3.6 37.7196 3.6 35.4V13.2H39.6V14.4H42.6C42.8018 14.4 43.002 14.4077 43.2 14.4227V7.8C43.2 3.49217 39.7078 0 35.4 0H7.8ZM39.6 9.6H3.6V7.8C3.6 5.4804 5.4804 3.6 7.8 3.6H35.4C37.7196 3.6 39.6 5.4804 39.6 7.8V9.6ZM22.2 30H30V22.2C30 19.2178 32.4178 16.8 35.4 16.8H42.6C45.5822 16.8 48 19.2178 48 22.2V40.2C48 44.5078 44.5078 48 40.2 48H22.2C19.2178 48 16.8 45.5822 16.8 42.6V35.4C16.8 32.4178 19.2178 30 22.2 30ZM33.6 22.2V30H44.4V22.2C44.4 21.2059 43.5941 20.4 42.6 20.4H35.4C34.4059 20.4 33.6 21.2059 33.6 22.2ZM30 44.4V33.6H22.2C21.2059 33.6 20.4 34.4059 20.4 35.4V42.6C20.4 43.5941 21.2059 44.4 22.2 44.4H30ZM33.6 33.6V44.4H40.2C42.5196 44.4 44.4 42.5196 44.4 40.2V33.6H33.6Z" fill="url(#paint0_linear_1_65)"/>
</g>
<defs>
<linearGradient id="paint0_linear_1_65" x1="3" y1="-3.5" x2="45.5" y2="53.5" gradientUnits="userSpaceOnUse">
<stop stop-color="#2BA3FF"/>
<stop offset="1" stop-color="#006CBE"/>
</linearGradient>
<clipPath id="clip0_1_65">
<rect width="48" height="48" fill="white"/>
</clipPath>
</defs>
</svg>
