<svg width="48" height="48" viewBox="0 0 48 48" fill="none" xmlns="http://www.w3.org/2000/svg">
<path d="M17.913 9.6C16.9045 9.6 16.087 10.4059 16.087 11.4C16.087 12.3941 16.9045 13.2 17.913 13.2H31.3043C32.3128 13.2 33.1304 12.3941 33.1304 11.4C33.1304 10.4059 32.3128 9.6 31.3043 9.6H17.913ZM16.087 37.8C16.087 36.8059 16.9045 36 17.913 36H31.3043C32.3128 36 33.1304 36.8059 33.1304 37.8C33.1304 38.7941 32.3128 39.6 31.3043 39.6H17.913C16.9045 39.6 16.087 38.7941 16.087 37.8ZM17.913 28.8C16.9045 28.8 16.087 29.6059 16.087 30.6C16.087 31.5941 16.9045 32.4 17.913 32.4H31.3043C32.3128 32.4 33.1304 31.5941 33.1304 30.6C33.1304 29.6059 32.3128 28.8 31.3043 28.8H17.913ZM10 7.2C10 3.22356 13.2703 0 17.3043 0H31.913C35.9472 0 39.2174 3.22356 39.2174 7.2V40.8C39.2174 44.7766 35.9472 48 31.913 48H17.3043C13.2703 48 10 44.7766 10 40.8V7.2ZM17.3043 3.6C15.2873 3.6 13.6522 5.21177 13.6522 7.2V40.8C13.6522 42.7882 15.2873 44.4 17.3043 44.4H31.913C33.93 44.4 35.5652 42.7882 35.5652 40.8V7.2C35.5652 5.21177 33.93 3.6 31.913 3.6H17.3043Z" fill="url(#paint0_linear_1_38)"/>
<defs>
<linearGradient id="paint0_linear_1_38" x1="11.8261" y1="-3.5" x2="55.2731" y2="31.9687" gradientUnits="userSpaceOnUse">
<stop stop-color="#2BA3FF"/>
<stop offset="1" stop-color="#006CBE"/>
</linearGradient>
</defs>
</svg>
