<svg width="48" height="48" viewBox="0 0 48 48" fill="none" xmlns="http://www.w3.org/2000/svg">
<g clip-path="url(#clip0_11_2)">
<path fill-rule="evenodd" clip-rule="evenodd" d="M42 0C45.3137 0 48 2.68629 48 6V42C48 45.3137 45.3137 48 42 48H6C2.68629 48 0 45.3137 0 42V6C0 2.68629 2.68629 0 6 0H42ZM6 3C4.34315 3 3 4.34315 3 6V42C3 43.6569 4.34315 45 6 45H42C43.6569 45 45 43.6569 45 42V6C45 4.34315 43.6569 3 42 3H6Z" fill="url(#paint0_linear_11_2)"/>
<path d="M12 14C12 12.8954 12.8954 12 14 12H23V23H12V14Z" fill="url(#paint1_linear_11_2)"/>
<path d="M25 12H34C35.1046 12 36 12.8954 36 14V23H25V12Z" fill="url(#paint2_linear_11_2)"/>
<path d="M25 25H36V34C36 35.1046 35.1046 36 34 36H25V25Z" fill="url(#paint3_linear_11_2)"/>
<path d="M12 25H23V36H14C12.8954 36 12 35.1046 12 34V25Z" fill="url(#paint4_linear_11_2)"/>
</g>
<defs>
<linearGradient id="paint0_linear_11_2" x1="3" y1="-3.5" x2="45.5" y2="53.5" gradientUnits="userSpaceOnUse">
<stop stop-color="#2BA3FF"/>
<stop offset="1" stop-color="#006CBE"/>
</linearGradient>
<linearGradient id="paint1_linear_11_2" x1="3" y1="-3.5" x2="45.5" y2="53.5" gradientUnits="userSpaceOnUse">
<stop stop-color="#2BA3FF"/>
<stop offset="1" stop-color="#006CBE"/>
</linearGradient>
<linearGradient id="paint2_linear_11_2" x1="3" y1="-3.5" x2="45.5" y2="53.5" gradientUnits="userSpaceOnUse">
<stop stop-color="#2BA3FF"/>
<stop offset="1" stop-color="#006CBE"/>
</linearGradient>
<linearGradient id="paint3_linear_11_2" x1="3" y1="-3.5" x2="45.5" y2="53.5" gradientUnits="userSpaceOnUse">
<stop stop-color="#2BA3FF"/>
<stop offset="1" stop-color="#006CBE"/>
</linearGradient>
<linearGradient id="paint4_linear_11_2" x1="3" y1="-3.5" x2="45.5" y2="53.5" gradientUnits="userSpaceOnUse">
<stop stop-color="#2BA3FF"/>
<stop offset="1" stop-color="#006CBE"/>
</linearGradient>
<clipPath id="clip0_11_2">
<rect width="48" height="48" fill="white"/>
</clipPath>
</defs>
</svg>
