<svg width="48" height="48" viewBox="0 0 48 48" fill="none" xmlns="http://www.w3.org/2000/svg">
<g clip-path="url(#clip0_1_34)">
<path d="M40.8 5.99679C40.8 9.30872 38.1137 11.9936 34.8 11.9936C34.379 11.9936 33.9679 11.9502 33.5714 11.8677L30.5002 16.9467C32.406 18.7002 33.6 21.2145 33.6 24.0076C33.6 24.0543 33.5998 24.1006 33.599 24.1472L36.7104 24.7728C37.7222 22.8895 39.7116 21.6089 42 21.6089C45.3137 21.6089 48 24.2937 48 27.6056C48 30.9175 45.3137 33.6024 42 33.6024C38.9242 33.6024 36.3888 31.2891 36.0408 28.3082L32.8752 27.6718C32.0477 29.6717 30.5633 31.3311 28.6906 32.3812L29.8788 36.0076C29.9191 36.0067 29.9594 36.0064 30 36.0064C33.3137 36.0064 36 38.6913 36 42.0032C36 45.3151 33.3137 48 30 48C26.6863 48 24 45.3151 24 42.0032C24 40.0113 24.9715 38.2463 26.467 37.1556L25.2751 33.5187C24.858 33.5739 24.4322 33.6024 24 33.6024C20.8296 33.6024 18.0183 32.0665 16.2701 29.6985L11.9629 31.7324C11.9874 31.9526 12 32.1764 12 32.4031C12 35.715 9.3137 38.3999 6 38.3999C2.6863 38.3999 0 35.715 0 32.4031C0 29.0912 2.6863 26.4063 6 26.4063C7.79446 26.4063 9.40493 27.1938 10.5044 28.4416L14.7147 26.4535C14.5094 25.6728 14.4 24.8529 14.4 24.0076C14.4 21.6866 15.2246 19.5582 16.5969 17.8987L14.2167 15.1896C13.5309 15.4622 12.783 15.6121 12 15.6121C8.6863 15.6121 6 12.9273 6 9.61535C6 6.30342 8.6863 3.61856 12 3.61856C15.3137 3.61856 18 6.30342 18 9.61535C18 10.8349 17.6358 11.9693 17.0101 12.9161L19.369 15.6009C20.7422 14.8437 22.3207 14.4128 24 14.4128C25.213 14.4128 26.3734 14.6376 27.4418 15.0479L30.4303 10.1062C29.4194 9.03284 28.8 7.58711 28.8 5.99679C28.8 2.68486 31.4863 0 34.8 0C38.1137 0 40.8 2.68486 40.8 5.99679ZM37.2 5.99679C37.2 4.672 36.1255 3.59807 34.8 3.59807C33.4745 3.59807 32.4 4.672 32.4 5.99679C32.4 7.32155 33.4745 8.3955 34.8 8.3955C36.1255 8.3955 37.2 7.32155 37.2 5.99679ZM12 12.0141C13.3255 12.0141 14.4 10.9401 14.4 9.61535C14.4 8.29058 13.3255 7.21663 12 7.21663C10.6745 7.21663 9.6 8.29058 9.6 9.61535C9.6 10.9401 10.6745 12.0141 12 12.0141ZM24 30.0044C27.3137 30.0044 30 27.3195 30 24.0076C30 20.6957 27.3137 18.0109 24 18.0109C20.6863 18.0109 18 20.6957 18 24.0076C18 27.3195 20.6863 30.0044 24 30.0044ZM8.4 32.4031C8.4 31.0783 7.32547 30.0044 6 30.0044C4.67453 30.0044 3.6 31.0783 3.6 32.4031C3.6 33.7279 4.67453 34.8018 6 34.8018C7.32547 34.8018 8.4 33.7279 8.4 32.4031ZM32.4 42.0032C32.4 40.6784 31.3255 39.6045 30 39.6045C28.6745 39.6045 27.6 40.6784 27.6 42.0032C27.6 43.328 28.6745 44.4019 30 44.4019C31.3255 44.4019 32.4 43.328 32.4 42.0032ZM42 30.0044C43.3255 30.0044 44.4 28.9305 44.4 27.6056C44.4 26.2808 43.3255 25.2069 42 25.2069C40.6745 25.2069 39.6 26.2808 39.6 27.6056C39.6 28.9305 40.6745 30.0044 42 30.0044Z" fill="url(#paint0_linear_1_34)"/>
</g>
<defs>
<linearGradient id="paint0_linear_1_34" x1="3" y1="-3.5" x2="45.5" y2="53.5" gradientUnits="userSpaceOnUse">
<stop stop-color="#2BA3FF"/>
<stop offset="1" stop-color="#006CBE"/>
</linearGradient>
<clipPath id="clip0_1_34">
<rect width="48" height="48" fill="white"/>
</clipPath>
</defs>
</svg>
