<svg width="48" height="48" viewBox="0 0 48 48" fill="none" xmlns="http://www.w3.org/2000/svg">
<g clip-path="url(#clip0_1_84)">
<path d="M31.8 0C32.7113 0 33.4644 0.67716 33.5837 1.55575L33.6 1.8L33.6012 7.38029C37.1273 8.09657 39.9046 10.8742 40.62 14.4004L46.2 14.4C47.1941 14.4 48 15.2059 48 16.2C48 17.1113 47.3227 17.8644 46.4443 17.9836L46.2 18H40.8V22.2H46.2C47.1113 22.2 47.8644 22.8773 47.9837 23.7557L48 24C48 24.9113 47.3227 25.6644 46.4443 25.7837L46.2 25.8H40.8V30H46.2C47.1113 30 47.8644 30.6773 47.9837 31.5557L48 31.8C48 32.7113 47.3227 33.4644 46.4443 33.5837L46.2 33.6L40.6195 33.6019C39.9031 37.127 37.1266 39.9036 33.6012 40.6198L33.6 46.2C33.6 47.1941 32.7941 48 31.8 48C30.8887 48 30.1356 47.3227 30.0163 46.4443L30 46.2V40.7976H25.7976L25.8 46.2C25.8 47.1113 25.1227 47.8644 24.2443 47.9837L24 48C23.0887 48 22.3356 47.3227 22.2163 46.4443L22.2 46.2L22.1976 40.7976H18V46.2C18 47.1113 17.3228 47.8644 16.4442 47.9837L16.2 48C15.2887 48 14.5356 47.3227 14.4164 46.4443L14.4 46.2L14.4011 40.6202C10.8741 39.9048 8.0959 37.1268 7.38002 33.6H1.8C0.805896 33.6 0 32.7941 0 31.8C0 30.8887 0.67716 30.1356 1.55575 30.0163L1.8 30L7.2 29.9976V25.7976L1.8 25.8C0.88872 25.8 0.135624 25.1227 0.01644 24.2443L0 24C0 23.0887 0.67716 22.3356 1.55575 22.2163L1.8 22.2L7.2 22.1976V17.9976L1.8 18C0.88872 18 0.135624 17.3228 0.01644 16.4442L0 16.2C0 15.2887 0.67716 14.5356 1.55575 14.4164L1.8 14.4L7.3805 14.3977C8.09714 10.872 10.8749 8.09513 14.4011 7.37981L14.4 1.8C14.4 0.805896 15.2059 0 16.2 0C17.1113 0 17.8644 0.67716 17.9836 1.55575L18 1.8V7.1976H22.1976L22.2 1.8C22.2 0.88872 22.8773 0.135624 23.7557 0.01644L24 0C24.9113 0 25.6644 0.67716 25.7837 1.55575L25.8 1.8L25.7976 7.1976H30V1.8C30 0.971568 30.5597 0.273864 31.3214 0.0642958L31.5557 0.01644L31.8 0ZM31.8 10.8H16.2C13.2177 10.8 10.8 13.2177 10.8 16.2V31.8C10.8 34.7822 13.2177 37.2 16.2 37.2H31.8C34.7822 37.2 37.2 34.7822 37.2 31.8V16.2C37.2 13.2177 34.7822 10.8 31.8 10.8ZM24.0118 16.8118C27.9883 16.8118 31.2118 20.0354 31.2118 24.0118C31.2118 27.9883 27.9883 31.2118 24.0118 31.2118C20.0354 31.2118 16.8118 27.9883 16.8118 24.0118C16.8118 20.0354 20.0354 16.8118 24.0118 16.8118ZM24.0118 20.4118C22.0236 20.4118 20.4118 22.0236 20.4118 24.0118C20.4118 26.0002 22.0236 27.6118 24.0118 27.6118C26.0002 27.6118 27.6118 26.0002 27.6118 24.0118C27.6118 22.0236 26.0002 20.4118 24.0118 20.4118Z" fill="url(#paint0_linear_1_84)"/>
</g>
<defs>
<linearGradient id="paint0_linear_1_84" x1="3" y1="-3.5" x2="45.5" y2="53.5" gradientUnits="userSpaceOnUse">
<stop stop-color="#2BA3FF"/>
<stop offset="1" stop-color="#006CBE"/>
</linearGradient>
<clipPath id="clip0_1_84">
<rect width="48" height="48" fill="white"/>
</clipPath>
</defs>
</svg>
