<svg width="48" height="48" viewBox="0 0 48 48" fill="none" xmlns="http://www.w3.org/2000/svg">
<g clip-path="url(#clip0_1_35)">
<path d="M16.9922 6.89062C16.9922 5.95312 17.1797 5.07031 17.5547 4.24219C17.9297 3.41406 18.4453 2.67969 19.1016 2.03906C19.7578 1.39844 20.5 0.90625 21.3281 0.5625C22.1562 0.21875 23.0469 0.03125 24 0C24.9531 0 25.8516 0.1875 26.6953 0.5625C27.5391 0.9375 28.2812 1.4375 28.9219 2.0625C29.5625 2.6875 30.0703 3.42969 30.4453 4.28906C30.8203 5.14844 31.0078 6.05469 31.0078 7.00781C31.0078 7.97656 30.8281 8.88281 30.4688 9.72656C30.1094 10.5703 29.6094 11.3047 28.9688 11.9297C28.3281 12.5547 27.5859 13.0547 26.7422 13.4297C25.8984 13.8047 24.9844 13.9922 24 13.9922C23.0625 13.9922 22.1719 13.8125 21.3281 13.4531C20.4844 13.0938 19.7422 12.6094 19.1016 12C18.4609 11.3906 17.9531 10.6641 17.5781 9.82031C17.2031 8.97656 17.0078 8.09375 16.9922 7.17188V6.89062ZM3 9V8.88281C3 8.07031 3.16406 7.3125 3.49219 6.60938C3.82031 5.90625 4.25781 5.28125 4.80469 4.73438C5.35156 4.1875 5.98438 3.76563 6.70312 3.46875C7.42187 3.17187 8.1875 3.01563 9 3C9.8125 3 10.5859 3.15625 11.3203 3.46875C12.0547 3.78125 12.6875 4.21094 13.2188 4.75781C13.75 5.30469 14.1797 5.94531 14.5078 6.67969C14.8359 7.41406 15 8.1875 15 9C15 9.82812 14.8437 10.6016 14.5312 11.3203C14.2188 12.0391 13.7891 12.6719 13.2422 13.2188C12.6953 13.7656 12.0547 14.1953 11.3203 14.5078C10.5859 14.8203 9.8125 14.9844 9 15C8.17188 15 7.39844 14.8437 6.67969 14.5312C5.96094 14.2188 5.32813 13.7891 4.78125 13.2422C4.23437 12.6953 3.80469 12.0625 3.49219 11.3438C3.17969 10.625 3.01563 9.84375 3 9ZM28.0078 7.00781C28.0078 6.46094 27.9063 5.94531 27.7031 5.46094C27.5 4.97656 27.2109 4.55469 26.8359 4.19531C26.4609 3.83594 26.0312 3.54687 25.5469 3.32812C25.0625 3.10938 24.5469 3 24 3C23.4531 3 22.9375 3.10156 22.4531 3.30469C21.9688 3.50781 21.5469 3.79688 21.1875 4.17188C20.8281 4.54688 20.5391 4.97656 20.3203 5.46094C20.1016 5.94531 19.9922 6.46094 19.9922 7.00781C19.9922 7.55469 20.0937 8.07031 20.2969 8.55469C20.5 9.03906 20.7891 9.46094 21.1641 9.82031C21.5391 10.1797 21.9688 10.4609 22.4531 10.6641C22.9375 10.8672 23.4531 10.9766 24 10.9922C24.5469 10.9922 25.0625 10.8906 25.5469 10.6875C26.0312 10.4844 26.4531 10.1953 26.8125 9.82031C27.1719 9.44531 27.4609 9.02344 27.6797 8.55469C27.8984 8.08594 28.0078 7.57031 28.0078 7.00781ZM33 9V8.88281C33 8.07031 33.1641 7.3125 33.4922 6.60938C33.8203 5.90625 34.2578 5.28125 34.8047 4.73438C35.3516 4.1875 35.9844 3.76563 36.7031 3.46875C37.4219 3.17187 38.1875 3.01563 39 3C39.8125 3 40.5859 3.15625 41.3203 3.46875C42.0547 3.78125 42.6875 4.21094 43.2188 4.75781C43.75 5.30469 44.1797 5.94531 44.5078 6.67969C44.8359 7.41406 45 8.1875 45 9C45 9.82812 44.8437 10.6016 44.5312 11.3203C44.2188 12.0391 43.7891 12.6719 43.2422 13.2188C42.6953 13.7656 42.0547 14.1953 41.3203 14.5078C40.5859 14.8203 39.8125 14.9844 39 15C38.1719 15 37.3984 14.8437 36.6797 14.5312C35.9609 14.2188 35.3281 13.7891 34.7812 13.2422C34.2344 12.6953 33.8047 12.0625 33.4922 11.3438C33.1797 10.625 33.0156 9.84375 33 9ZM12 9C12 8.59375 11.9219 8.21094 11.7656 7.85156C11.6094 7.49219 11.3984 7.17188 11.1328 6.89062C10.8672 6.60938 10.5469 6.39062 10.1719 6.23438C9.79688 6.07813 9.40625 6 9 6C8.57812 6 8.1875 6.07813 7.82812 6.23438C7.46875 6.39062 7.15625 6.60156 6.89062 6.86719C6.625 7.13281 6.40625 7.45312 6.23438 7.82812C6.0625 8.20312 5.98437 8.59375 6 9C6 9.42188 6.07813 9.8125 6.23438 10.1719C6.39062 10.5312 6.60156 10.8516 6.86719 11.1328C7.13281 11.4141 7.44531 11.625 7.80469 11.7656C8.16406 11.9062 8.5625 11.9844 9 12C9.42188 12 9.8125 11.9219 10.1719 11.7656C10.5312 11.6094 10.8438 11.3984 11.1094 11.1328C11.375 10.8672 11.5937 10.5469 11.7656 10.1719C11.9375 9.79688 12.0156 9.40625 12 9ZM42 9C42 8.59375 41.9219 8.21094 41.7656 7.85156C41.6094 7.49219 41.3984 7.17188 41.1328 6.89062C40.8672 6.60938 40.5469 6.39062 40.1719 6.23438C39.7969 6.07813 39.4063 6 39 6C38.5781 6 38.1875 6.07813 37.8281 6.23438C37.4688 6.39062 37.1562 6.60156 36.8906 6.86719C36.625 7.13281 36.4063 7.45312 36.2344 7.82812C36.0625 8.20312 35.9844 8.59375 36 9C36 9.42188 36.0781 9.8125 36.2344 10.1719C36.3906 10.5312 36.6016 10.8516 36.8672 11.1328C37.1328 11.4141 37.4453 11.625 37.8047 11.7656C38.1641 11.9062 38.5625 11.9844 39 12C39.4219 12 39.8125 11.9219 40.1719 11.7656C40.5312 11.6094 40.8438 11.3984 41.1094 11.1328C41.375 10.8672 41.5937 10.5469 41.7656 10.1719C41.9375 9.79688 42.0156 9.40625 42 9ZM0 27.4219C0 26.1875 0.242188 25 0.726562 23.8594C1.21094 22.7187 1.875 21.7188 2.71875 20.8594C3.5625 20 4.53906 19.3047 5.64844 18.7734C6.75781 18.2422 7.94531 17.9844 9.21094 18C10.6641 18 12.0469 18.2969 13.3594 18.8906C14.6719 19.4844 15.7812 20.375 16.6875 21.5625C17.6094 20.4375 18.6953 19.5625 19.9453 18.9375C21.1953 18.3125 22.5469 18 24 18C25.4688 18 26.8203 18.3125 28.0547 18.9375C29.2891 19.5625 30.375 20.4375 31.3125 21.5625C32.2188 20.3906 33.3203 19.5078 34.6172 18.9141C35.9141 18.3203 37.3047 18.0156 38.7891 18C40.0391 18 41.2188 18.2578 42.3281 18.7734C43.4375 19.2891 44.4141 19.9766 45.2578 20.8359C46.1016 21.6953 46.7656 22.7031 47.25 23.8594C47.7344 25.0156 47.9844 26.2031 48 27.4219C48 28.8906 47.7578 30.2031 47.2734 31.3594C46.7891 32.5156 46.0234 33.6094 44.9766 34.6406L32.25 47.6016C32.0156 47.8672 31.7031 48 31.3125 48C31.1406 48 30.9688 47.9688 30.7969 47.9062C30.625 47.8437 30.4766 47.7422 30.3516 47.6016L24 41.1094L17.6484 47.6016C17.3828 47.8672 17.0625 48 16.6875 48C16.2969 48 15.9844 47.8672 15.75 47.6016L3.02344 34.6172C1.99219 33.5703 1.23437 32.4766 0.75 31.3359C0.265625 30.1953 0.015625 28.8906 0 27.4219ZM16.6875 44.2734L21.8906 38.9766L17.6484 34.6172C16.6641 33.6172 15.9141 32.5547 15.3984 31.4297C14.8828 30.3047 14.625 29.0234 14.625 27.5859C14.625 27.0391 14.6641 26.5 14.7422 25.9688C14.8203 25.4375 14.9531 24.9219 15.1406 24.4219C14.7344 23.9062 14.3359 23.4375 13.9453 23.0156C13.5547 22.5938 13.125 22.2344 12.6562 21.9375C12.1875 21.6406 11.6875 21.4141 11.1562 21.2578C10.625 21.1016 10 21.0156 9.28125 21C8.42187 21 7.60938 21.1719 6.84375 21.5156C6.07812 21.8594 5.41406 22.3359 4.85156 22.9453C4.28906 23.5547 3.83594 24.25 3.49219 25.0312C3.14844 25.8125 2.98437 26.625 3 27.4688C3 28.5156 3.17187 29.4219 3.51562 30.1875C3.85938 30.9531 4.39844 31.7187 5.13281 32.4844L16.6875 44.2734ZM24 36.8203L28.2656 32.4844C28.9844 31.75 29.5156 30.9922 29.8594 30.2109C30.2031 29.4297 30.3828 28.5156 30.3984 27.4688C30.3984 26.5938 30.2344 25.7656 29.9062 24.9844C29.5781 24.2031 29.1172 23.5156 28.5234 22.9219C27.9297 22.3281 27.25 21.8594 26.4844 21.5156C25.7187 21.1719 24.8906 21 24 21C23.125 21 22.3047 21.1719 21.5391 21.5156C20.7734 21.8594 20.0938 22.3281 19.5 22.9219C18.9062 23.5156 18.4531 24.2031 18.1406 24.9844C17.8281 25.7656 17.6563 26.5938 17.625 27.4688C17.625 28.5 17.7969 29.4141 18.1406 30.2109C18.4844 31.0078 19.0156 31.7656 19.7344 32.4844L24 36.8203ZM31.3125 44.2734L42.8672 32.4844C43.5859 31.7344 44.1172 30.9766 44.4609 30.2109C44.8047 29.4453 44.9844 28.5312 45 27.4688C45 26.625 44.8359 25.8125 44.5078 25.0312C44.1797 24.25 43.7344 23.5625 43.1719 22.9688C42.6094 22.375 41.9375 21.8984 41.1562 21.5391C40.375 21.1797 39.5625 21 38.7188 21C38.0156 21 37.3906 21.0781 36.8438 21.2344C36.2969 21.3906 35.7969 21.625 35.3438 21.9375C34.8906 22.25 34.4687 22.6094 34.0781 23.0156C33.6875 23.4219 33.2812 23.8906 32.8594 24.4219C33.2187 25.4531 33.3984 26.5078 33.3984 27.5859C33.3984 29.0078 33.1406 30.2812 32.625 31.4062C32.1094 32.5312 31.3516 33.6016 30.3516 34.6172L26.1094 38.9766L31.3125 44.2734Z" fill="url(#paint0_linear_1_35)"/>
</g>
<defs>
<linearGradient id="paint0_linear_1_35" x1="3" y1="-3.5" x2="45.5" y2="53.5" gradientUnits="userSpaceOnUse">
<stop stop-color="#2BA3FF"/>
<stop offset="1" stop-color="#006CBE"/>
</linearGradient>
<clipPath id="clip0_1_35">
<rect width="48" height="48" fill="white"/>
</clipPath>
</defs>
</svg>
