<?xml version="1.0" standalone="no"?>
<!DOCTYPE svg PUBLIC "-//W3C//DTD SVG 20010904//EN"
 "http://www.w3.org/TR/2001/REC-SVG-20010904/DTD/svg10.dtd">
<svg version="1.0" xmlns="http://www.w3.org/2000/svg"
 width="768.000000pt" height="768.000000pt" viewBox="0 0 768.000000 768.000000"
 preserveAspectRatio="xMidYMid meet">

<g transform="translate(0.000000,768.000000) scale(0.100000,-0.100000)"
fill="#000000" stroke="none">
<path d="M0 5860 l0 -1820 1820 0 1820 0 0 1820 0 1820 -1820 0 -1820 0 0
-1820z"/>
<path d="M4040 5860 l0 -1820 1820 0 1820 0 0 1820 0 1820 -1820 0 -1820 0 0
-1820z"/>
<path d="M0 1820 l0 -1820 1820 0 1820 0 0 1820 0 1820 -1820 0 -1820 0 0
-1820z"/>
<path d="M4040 1820 l0 -1820 1820 0 1820 0 0 1820 0 1820 -1820 0 -1820 0 0
-1820z"/>
</g>
</svg>
