<svg width="1920" height="867" viewBox="0 0 1920 867" version="1.1" xmlns="http://www.w3.org/2000/svg" xmlns:xlink="http://www.w3.org/1999/xlink">
<g fill="none">
<g clip-path="url(#clip0)">
<rect width="1920" height="866.667" fill="#243A5E"/>
<g filter="url(#filter0_dd)">
<path fill-rule="evenodd" clip-rule="evenodd" d="M 0 0L 2040 0L 2040 1067.81L 0 1067.81L 0 0Z" transform="translate(-546.667 175)" fill="white"/>
</g>
<rect width="1976.25" height="812.813" transform="translate(-514.792 398.125)" fill="#F4F4F4"/>
<path fill-rule="evenodd" clip-rule="evenodd" d="M 2.49023 0C 2.84043 0 3.16467 0.0648492 3.46298 0.19455C 3.76129 0.32425 4.02393 0.502585 4.25091 0.729561C 4.47788 0.956537 4.65622 1.21918 4.78592 1.51749C 4.91562 1.8158 4.98047 2.14004 4.98047 2.49023C 4.98047 2.84043 4.91562 3.16467 4.78592 3.46298C 4.65622 3.76129 4.47788 4.02393 4.25091 4.25091C 4.02393 4.47788 3.76129 4.65622 3.46298 4.78592C 3.16467 4.91562 2.84043 4.98047 2.49023 4.98047C 2.14004 4.98047 1.8158 4.91562 1.51749 4.78592C 1.21918 4.65622 0.956536 4.47788 0.729561 4.25091C 0.502585 4.02393 0.32425 3.76129 0.19455 3.46298C 0.0648492 3.16467 0 2.84043 0 2.49023C 0 2.14004 0.0648492 1.8158 0.19455 1.51749C 0.32425 1.21918 0.502585 0.956537 0.729561 0.729561C 0.956536 0.502585 1.21918 0.32425 1.51749 0.19455C 1.8158 0.0648492 2.14004 0 2.49023 0ZM 17.4316 0C 17.7818 0 18.1061 0.0648492 18.4044 0.19455C 18.7027 0.32425 18.9653 0.502585 19.1923 0.729561C 19.4193 0.956537 19.5976 1.21918 19.7273 1.51749C 19.857 1.8158 19.9219 2.14004 19.9219 2.49023C 19.9219 2.84043 19.857 3.16467 19.7273 3.46298C 19.5976 3.76129 19.4193 4.02393 19.1923 4.25091C 18.9653 4.47788 18.7027 4.65622 18.4044 4.78592C 18.1061 4.91562 17.7818 4.98047 17.4316 4.98047C 17.0814 4.98047 16.7572 4.91562 16.4589 4.78592C 16.1606 4.65622 15.8979 4.47788 15.671 4.25091C 15.444 4.02393 15.2657 3.76129 15.136 3.46298C 15.0063 3.16467 14.9414 2.84043 14.9414 2.49023C 14.9414 2.14004 15.0063 1.8158 15.136 1.51749C 15.2657 1.21918 15.444 0.956537 15.671 0.729561C 15.8979 0.502585 16.1606 0.32425 16.4589 0.19455C 16.7572 0.0648492 17.0814 0 17.4316 0ZM 32.373 0C 32.7232 0 33.0475 0.0648492 33.3458 0.19455C 33.6441 0.32425 33.9067 0.502585 34.1337 0.729561C 34.3607 0.956537 34.539 1.21918 34.6687 1.51749C 34.7984 1.8158 34.8633 2.14004 34.8633 2.49023C 34.8633 2.84043 34.7984 3.16467 34.6687 3.46298C 34.539 3.76129 34.3607 4.02393 34.1337 4.25091C 33.9067 4.47788 33.6441 4.65622 33.3458 4.78592C 33.0475 4.91562 32.7232 4.98047 32.373 4.98047C 32.0229 4.98047 31.6986 4.91562 31.4003 4.78592C 31.102 4.65622 30.8393 4.47788 30.6124 4.25091C 30.3854 4.02393 30.2071 3.76129 30.0774 3.46298C 29.9477 3.16467 29.8828 2.84043 29.8828 2.49023C 29.8828 2.14004 29.9477 1.8158 30.0774 1.51749C 30.2071 1.21918 30.3854 0.956537 30.6124 0.729561C 30.8393 0.502585 31.102 0.32425 31.4003 0.19455C 31.6986 0.0648492 32.0229 0 32.373 0Z" transform="translate(1410.48 300.01)" fill="#243A5E"/>
<path d="M 0 14.8047L 0 0.800781L 3.86719 0.800781C 8.80208 0.800781 11.2695 3.07617 11.2695 7.62695C 11.2695 9.78841 10.5827 11.5267 9.20898 12.8418C 7.8418 14.1504 6.00911 14.8047 3.71094 14.8047L 0 14.8047ZM 1.64062 2.28516L 1.64062 13.3203L 3.73047 13.3203C 5.56641 13.3203 6.99544 12.8288 8.01758 11.8457C 9.03971 10.8626 9.55078 9.4694 9.55078 7.66602C 9.55078 4.07878 7.64323 2.28516 3.82812 2.28516L 1.64062 2.28516Z" transform="translate(1291.97 293.424)" fill="#243A5E"/>
<path d="M 21.8457 10.2051L 14.7852 10.2051C 14.8112 11.3184 15.1107 12.1777 15.6836 12.7832C 16.2565 13.3887 17.0443 13.6914 18.0469 13.6914C 19.1732 13.6914 20.2083 13.3203 21.1523 12.5781L 21.1523 14.082C 20.2734 14.7201 19.1113 15.0391 17.666 15.0391C 16.2533 15.0391 15.1432 14.5866 14.3359 13.6816C 13.5286 12.7702 13.125 11.4909 13.125 9.84375C 13.125 8.28776 13.5645 7.02148 14.4434 6.04492C 15.3288 5.06185 16.4258 4.57031 17.7344 4.57031C 19.043 4.57031 20.0553 4.99349 20.7715 5.83984C 21.4876 6.6862 21.8457 7.86133 21.8457 9.36524L 21.8457 10.2051ZM 20.2051 8.84766C 20.1986 7.92318 19.974 7.20378 19.5312 6.68945C 19.095 6.17513 18.4863 5.91797 17.7051 5.91797C 16.9499 5.91797 16.3086 6.18815 15.7812 6.72852C 15.2539 7.26888 14.9284 7.97526 14.8047 8.84766L 20.2051 8.84766Z" transform="translate(1291.97 293.424)" fill="#243A5E"/>
<path d="M 25.8789 14.8047L 24.2773 14.8047L 24.2773 0L 25.8789 0L 25.8789 14.8047Z" transform="translate(1291.97 293.424)" fill="#243A5E"/>
<path d="M 37.1582 10.2051L 30.0977 10.2051C 30.1237 11.3184 30.4232 12.1777 30.9961 12.7832C 31.569 13.3887 32.3568 13.6914 33.3594 13.6914C 34.4857 13.6914 35.5208 13.3203 36.4648 12.5781L 36.4648 14.082C 35.5859 14.7201 34.4238 15.0391 32.9785 15.0391C 31.5657 15.0391 30.4557 14.5866 29.6484 13.6816C 28.8411 12.7702 28.4375 11.4909 28.4375 9.84375C 28.4375 8.28776 28.8769 7.02148 29.7559 6.04492C 30.6413 5.06185 31.7383 4.57031 33.0469 4.57031C 34.3555 4.57031 35.3678 4.99349 36.084 5.83984C 36.8001 6.6862 37.1582 7.86133 37.1582 9.36524L 37.1582 10.2051ZM 35.5176 8.84766C 35.5111 7.92318 35.2864 7.20378 34.8437 6.68945C 34.4075 6.17513 33.7988 5.91797 33.0176 5.91797C 32.2624 5.91797 31.6211 6.18815 31.0937 6.72852C 30.5664 7.26888 30.2409 7.97526 30.1172 8.84766L 35.5176 8.84766Z" transform="translate(1291.97 293.424)" fill="#243A5E"/>
<path d="M 44.2285 14.707C 43.8509 14.9154 43.3529 15.0195 42.7344 15.0195C 40.9831 15.0195 40.1074 14.043 40.1074 12.0898L 40.1074 6.17188L 38.3887 6.17188L 38.3887 4.80469L 40.1074 4.80469L 40.1074 2.36328L 41.709 1.8457L 41.709 4.80469L 44.2285 4.80469L 44.2285 6.17188L 41.709 6.17188L 41.709 11.8066C 41.709 12.4772 41.8229 12.9557 42.0508 13.2422C 42.2786 13.5286 42.6562 13.6719 43.1836 13.6719C 43.5872 13.6719 43.9355 13.5612 44.2285 13.3398L 44.2285 14.707Z" transform="translate(1291.97 293.424)" fill="#243A5E"/>
<path d="M 54.4043 10.2051L 47.3437 10.2051C 47.3698 11.3184 47.6693 12.1777 48.2422 12.7832C 48.8151 13.3887 49.6029 13.6914 50.6055 13.6914C 51.7318 13.6914 52.7669 13.3203 53.7109 12.5781L 53.7109 14.082C 52.832 14.7201 51.6699 15.0391 50.2246 15.0391C 48.8118 15.0391 47.7018 14.5866 46.8945 13.6816C 46.0872 12.7702 45.6836 11.4909 45.6836 9.84375C 45.6836 8.28776 46.123 7.02148 47.0019 6.04492C 47.8874 5.06185 48.9844 4.57031 50.293 4.57031C 51.6016 4.57031 52.6139 4.99349 53.3301 5.83984C 54.0462 6.6862 54.4043 7.86133 54.4043 9.36524L 54.4043 10.2051ZM 52.7637 8.84766C 52.7571 7.92318 52.5325 7.20378 52.0898 6.68945C 51.6536 6.17513 51.0449 5.91797 50.2637 5.91797C 49.5085 5.91797 48.8672 6.18815 48.3398 6.72852C 47.8125 7.26888 47.487 7.97526 47.3633 8.84766L 52.7637 8.84766Z" transform="translate(1291.97 293.424)" fill="#243A5E"/>
<path fill-rule="evenodd" clip-rule="evenodd" d="M 32.373 7.4707L 29.8828 7.4707L 29.8828 36.1084C 29.8828 36.6272 29.7855 37.1136 29.591 37.5675C 29.3964 38.0215 29.1306 38.4171 28.7933 38.7543C 28.4561 39.0915 28.0605 39.3574 27.6066 39.5519C 27.1526 39.7465 26.6663 39.8438 26.1475 39.8438L 6.22559 39.8438C 5.70678 39.8438 5.22042 39.7465 4.76646 39.5519C 4.31251 39.3574 3.91693 39.0915 3.57971 38.7543C 3.24249 38.4171 2.97661 38.0215 2.78206 37.5675C 2.58751 37.1136 2.49023 36.6272 2.49023 36.1084L 2.49023 7.4707L 0 7.4707L 0 4.98047L 9.96094 4.98047L 9.96094 2.49023C 9.96094 2.14004 10.0258 1.8158 10.1555 1.51749C 10.2852 1.21918 10.4635 0.956536 10.6905 0.729561C 10.9175 0.502585 11.1801 0.32425 11.4784 0.19455C 11.7767 0.0648492 12.101 0 12.4512 0L 19.9219 0C 20.2721 0 20.5963 0.0648492 20.8946 0.19455C 21.1929 0.32425 21.4556 0.502585 21.6825 0.729561C 21.9095 0.956536 22.0879 1.21918 22.2176 1.51749C 22.3473 1.8158 22.4121 2.14004 22.4121 2.49023L 22.4121 4.98047L 32.373 4.98047L 32.373 7.4707ZM 12.4512 4.98047L 19.9219 4.98047L 19.9219 2.49023L 12.4512 2.49023L 12.4512 4.98047ZM 27.3926 7.4707L 4.98047 7.4707L 4.98047 36.1084C 4.98047 36.4456 5.10368 36.7374 5.35011 36.9839C 5.59654 37.2303 5.88836 37.3535 6.22559 37.3535L 26.1475 37.3535C 26.4847 37.3535 26.7765 37.2303 27.0229 36.9839C 27.2694 36.7374 27.3926 36.4456 27.3926 36.1084L 27.3926 7.4707ZM 12.4512 32.373L 9.96094 32.373L 9.96094 12.4512L 12.4512 12.4512L 12.4512 32.373ZM 17.4316 32.373L 14.9414 32.373L 14.9414 12.4512L 17.4316 12.4512L 17.4316 32.373ZM 22.4121 32.373L 19.9219 32.373L 19.9219 12.4512L 22.4121 12.4512L 22.4121 32.373Z" transform="translate(1236.84 282.578)" fill="#243A5E"/>
<path d="M 7.42187 14.8047L 0 14.8047L 0 0.800781L 7.10937 0.800781L 7.10937 2.28516L 1.64062 2.28516L 1.64062 6.94336L 6.69922 6.94336L 6.69922 8.41797L 1.64062 8.41797L 1.64062 13.3203L 7.42187 13.3203L 7.42187 14.8047Z" transform="translate(1148.53 293.424)" fill="#243A5E"/>
<path d="M 18.4375 14.8047L 16.8359 14.8047L 16.8359 13.1055L 16.7969 13.1055C 16.0547 14.3945 14.9089 15.0391 13.3594 15.0391C 12.1029 15.0391 11.097 14.5931 10.3418 13.7012C 9.5931 12.8027 9.21875 11.582 9.21875 10.0391C 9.21875 8.38542 9.63541 7.06055 10.4687 6.06445C 11.3021 5.06836 12.4121 4.57031 13.7988 4.57031C 15.1725 4.57031 16.1719 5.11068 16.7969 6.19141L 16.8359 6.19141L 16.8359 0L 18.4375 0L 18.4375 14.8047ZM 16.8359 10.2832L 16.8359 8.80859C 16.8359 8.0013 16.569 7.31771 16.0352 6.75781C 15.5013 6.19792 14.8242 5.91797 14.0039 5.91797C 13.0273 5.91797 12.2591 6.27604 11.6992 6.99219C 11.1393 7.70833 10.8594 8.69792 10.8594 9.96094C 10.8594 11.1133 11.1263 12.0247 11.6602 12.6953C 12.2005 13.3594 12.9232 13.6914 13.8281 13.6914C 14.72 13.6914 15.4427 13.3691 15.9961 12.7246C 16.556 12.0801 16.8359 11.2663 16.8359 10.2832Z" transform="translate(1148.53 293.424)" fill="#243A5E"/>
<path d="M 22.5 2.26563C 22.2135 2.26563 21.9694 2.16797 21.7676 1.97266C 21.5658 1.77734 21.4648 1.52995 21.4648 1.23047C 21.4648 0.93099 21.5658 0.683594 21.7676 0.488281C 21.9694 0.286458 22.2135 0.185547 22.5 0.185547C 22.793 0.185547 23.0404 0.286458 23.2422 0.488281C 23.4505 0.683594 23.5547 0.93099 23.5547 1.23047C 23.5547 1.51693 23.4505 1.76107 23.2422 1.96289C 23.0404 2.16471 22.793 2.26563 22.5 2.26563ZM 23.2812 14.8047L 21.6797 14.8047L 21.6797 4.80469L 23.2812 4.80469L 23.2812 14.8047Z" transform="translate(1148.53 293.424)" fill="#243A5E"/>
<path d="M 31.1621 14.707C 30.7845 14.9154 30.2865 15.0195 29.668 15.0195C 27.9167 15.0195 27.041 14.043 27.041 12.0898L 27.041 6.17188L 25.3223 6.17188L 25.3223 4.80469L 27.041 4.80469L 27.041 2.36328L 28.6426 1.8457L 28.6426 4.80469L 31.1621 4.80469L 31.1621 6.17188L 28.6426 6.17188L 28.6426 11.8066C 28.6426 12.4772 28.7565 12.9557 28.9844 13.2422C 29.2122 13.5286 29.5898 13.6719 30.1172 13.6719C 30.5208 13.6719 30.8691 13.5612 31.1621 13.3398L 31.1621 14.707Z" transform="translate(1148.53 293.424)" fill="#243A5E"/>
<path fill-rule="evenodd" clip-rule="evenodd" d="M 39.8438 6.51741C 39.8438 7.37343 39.6816 8.2035 39.3574 9.00764C 39.0331 9.81179 38.5597 10.5251 37.9372 11.1477L 12.315 36.7699L 0 39.8438L 3.07388 27.5288L 28.6961 1.90659C 29.3186 1.28402 30.032 0.810625 30.8361 0.486374C 31.6402 0.162123 32.4703 0 33.3263 0C 34.2213 0 35.0643 0.17185 35.8555 0.515556C 36.6467 0.859262 37.3373 1.32618 37.9274 1.91631C 38.5176 2.50645 38.9845 3.19709 39.3282 3.98827C 39.6719 4.77944 39.8438 5.62248 39.8438 6.51741ZM 6.3418 27.7818C 7.71662 28.2357 8.90012 28.9588 9.89233 29.951C 10.8845 30.9432 11.6076 32.1267 12.0616 33.5015L 33.0924 12.4513L 27.3921 6.75098L 6.3418 27.7818ZM 3.42383 36.4197L 9.82451 34.8244C 9.69481 34.2278 9.48405 33.6636 9.19222 33.1318C 8.9004 32.6001 8.54697 32.1267 8.13193 31.7116C 7.71689 31.2966 7.24349 30.9432 6.71172 30.6513C 6.17994 30.3595 5.61576 30.1487 5.01913 30.019L 3.42383 36.4197ZM 34.8634 10.6808C 35.1876 10.3565 35.4989 10.0517 35.7972 9.76639C 36.0955 9.48105 36.3614 9.1795 36.5949 8.86173C 36.8283 8.54397 37.0132 8.20026 37.1493 7.83062C 37.2855 7.46097 37.3536 7.02973 37.3536 6.53686C 37.3536 5.97915 37.2466 5.45712 37.0326 4.97074C 36.8186 4.48436 36.5268 4.05636 36.1571 3.68671C 35.7875 3.31707 35.3595 3.02525 34.8731 2.81124C 34.3867 2.59724 33.8647 2.49023 33.307 2.49023C 32.8141 2.49023 32.3829 2.55833 32.0132 2.69451C 31.6436 2.8307 31.2999 3.01552 30.9821 3.24898C 30.6644 3.48244 30.3628 3.74832 30.0775 4.04663C 29.7921 4.34494 29.4873 4.65622 29.1631 4.98047L 34.8634 10.6808Z" transform="translate(1090.91 282.578)" fill="#243A5E"/>
<path d="M 0 14.2383L 0 12.3047C 0.221354 12.5 0.485026 12.6758 0.791016 12.832C 1.10352 12.9883 1.42904 13.1217 1.76758 13.2324C 2.11263 13.3366 2.45768 13.418 2.80273 13.4766C 3.14779 13.5352 3.4668 13.5645 3.75977 13.5645C 4.76888 13.5645 5.52083 13.3789 6.01562 13.0078C 6.51693 12.6302 6.76758 12.0898 6.76758 11.3867C 6.76758 11.0091 6.68294 10.6803 6.51367 10.4004C 6.35091 10.1204 6.12305 9.86654 5.83008 9.63867C 5.53711 9.4043 5.1888 9.18294 4.78516 8.97461C 4.38802 8.75977 3.95833 8.53516 3.49609 8.30078C 3.00781 8.05339 2.55208 7.80273 2.12891 7.54883C 1.70573 7.29492 1.33789 7.01497 1.02539 6.70898C 0.712891 6.403 0.465495 6.05794 0.283203 5.67383C 0.107422 5.2832 0.0195312 4.82747 0.0195312 4.30664C 0.0195312 3.66862 0.159505 3.11523 0.439453 2.64648C 0.719401 2.17122 1.08724 1.7806 1.54297 1.47461C 1.9987 1.16862 2.51628 0.940755 3.0957 0.791016C 3.68164 0.641276 4.27734 0.566406 4.88281 0.566406C 6.26302 0.566406 7.26888 0.732422 7.90039 1.06445L 7.90039 2.91016C 7.07357 2.33724 6.01237 2.05078 4.7168 2.05078C 4.35872 2.05078 4.00065 2.08984 3.64258 2.16797C 3.28451 2.23958 2.96549 2.36003 2.68555 2.5293C 2.4056 2.69857 2.17773 2.91667 2.00195 3.18359C 1.82617 3.45052 1.73828 3.77604 1.73828 4.16016C 1.73828 4.51823 1.80339 4.82747 1.93359 5.08789C 2.07031 5.34831 2.26888 5.58594 2.5293 5.80078C 2.78971 6.01563 3.10547 6.22396 3.47656 6.42578C 3.85417 6.6276 4.28711 6.84896 4.77539 7.08984C 5.27669 7.33724 5.75195 7.59766 6.20117 7.87109C 6.65039 8.14453 7.04427 8.44727 7.38281 8.7793C 7.72135 9.11133 7.98828 9.47917 8.18359 9.88281C 8.38542 10.2865 8.48633 10.7487 8.48633 11.2695C 8.48633 11.9596 8.34961 12.5456 8.07617 13.0273C 7.80924 13.5026 7.44466 13.89 6.98242 14.1895C 6.52669 14.4889 5.99935 14.7038 5.40039 14.834C 4.80143 14.9707 4.16992 15.0391 3.50586 15.0391C 3.28451 15.0391 3.01107 15.0195 2.68555 14.9805C 2.36003 14.9479 2.02799 14.8958 1.68945 14.8242C 1.35091 14.7591 1.02865 14.6777 0.722656 14.5801C 0.423177 14.4759 0.182292 14.362 0 14.2383Z" transform="translate(984.515 293.424)" fill="#243A5E"/>
<path d="M 19.3652 14.8047L 17.7637 14.8047L 17.7637 9.04297C 17.7637 6.95964 16.9889 5.91797 15.4395 5.91797C 14.6582 5.91797 14.0007 6.2207 13.4668 6.82617C 12.9329 7.42513 12.666 8.19662 12.666 9.14063L 12.666 14.8047L 11.0645 14.8047L 11.0645 0L 12.666 0L 12.666 6.46484L 12.7051 6.46484C 13.4733 5.20182 14.5671 4.57031 15.9863 4.57031C 18.2389 4.57031 19.3652 5.92773 19.3652 8.64258L 19.3652 14.8047Z" transform="translate(984.515 293.424)" fill="#243A5E"/>
<path d="M 29.5508 14.8047L 27.9492 14.8047L 27.9492 13.2422L 27.9102 13.2422C 27.2135 14.4401 26.1882 15.0391 24.834 15.0391C 23.8379 15.0391 23.0566 14.7754 22.4902 14.248C 21.9303 13.7207 21.6504 13.0208 21.6504 12.1484C 21.6504 10.2799 22.7507 9.19271 24.9512 8.88672L 27.9492 8.4668C 27.9492 6.76758 27.2624 5.91797 25.8887 5.91797C 24.6842 5.91797 23.597 6.32813 22.627 7.14844L 22.627 5.50781C 23.61 4.88281 24.7428 4.57031 26.0254 4.57031C 28.3757 4.57031 29.5508 5.8138 29.5508 8.30078L 29.5508 14.8047ZM 27.9492 9.74609L 25.5371 10.0781C 24.7949 10.1823 24.235 10.3678 23.8574 10.6348C 23.4798 10.8952 23.291 11.3607 23.291 12.0313C 23.291 12.5195 23.4635 12.9199 23.8086 13.2324C 24.1602 13.5384 24.6257 13.6914 25.2051 13.6914C 25.9993 13.6914 26.6536 13.4147 27.168 12.8613C 27.6888 12.3014 27.9492 11.5951 27.9492 10.7422L 27.9492 9.74609Z" transform="translate(984.515 293.424)" fill="#243A5E"/>
<path d="M 37.7832 6.42578C 37.5033 6.21094 37.0996 6.10352 36.5723 6.10352C 35.8887 6.10352 35.3158 6.42578 34.8535 7.07031C 34.3978 7.71484 34.1699 8.59375 34.1699 9.70703L 34.1699 14.8047L 32.5684 14.8047L 32.5684 4.80469L 34.1699 4.80469L 34.1699 6.86523L 34.209 6.86523C 34.4368 6.16211 34.7852 5.61523 35.2539 5.22461C 35.7227 4.82747 36.2467 4.62891 36.8262 4.62891C 37.2428 4.62891 37.5618 4.67448 37.7832 4.76563L 37.7832 6.42578Z" transform="translate(984.515 293.424)" fill="#243A5E"/>
<path d="M 47.5586 10.2051L 40.498 10.2051C 40.5241 11.3184 40.8236 12.1777 41.3965 12.7832C 41.9694 13.3887 42.7572 13.6914 43.7598 13.6914C 44.8861 13.6914 45.9212 13.3203 46.8652 12.5781L 46.8652 14.082C 45.9863 14.7201 44.8242 15.0391 43.3789 15.0391C 41.9661 15.0391 40.8561 14.5866 40.0488 13.6816C 39.2415 12.7702 38.8379 11.4909 38.8379 9.84375C 38.8379 8.28776 39.2773 7.02148 40.1562 6.04492C 41.0417 5.06185 42.1387 4.57031 43.4473 4.57031C 44.7559 4.57031 45.7682 4.99349 46.4844 5.83984C 47.2005 6.6862 47.5586 7.86133 47.5586 9.36524L 47.5586 10.2051ZM 45.918 8.84766C 45.9115 7.92318 45.6868 7.20378 45.2441 6.68945C 44.8079 6.17513 44.1992 5.91797 43.418 5.91797C 42.6628 5.91797 42.0215 6.18815 41.4941 6.72852C 40.9668 7.26888 40.6413 7.97526 40.5176 8.84766L 45.918 8.84766Z" transform="translate(984.515 293.424)" fill="#243A5E"/>
<path fill-rule="evenodd" clip-rule="evenodd" d="M 36.9839 25.8945C 37.4249 26.1799 37.8237 26.5139 38.1804 26.8965C 38.537 27.2791 38.8386 27.6974 39.085 28.1513C 39.3314 28.6053 39.5195 29.0852 39.6492 29.591C 39.7789 30.0968 39.8438 30.6091 39.8438 31.1279C 39.8438 31.984 39.6784 32.7881 39.3476 33.5403C 39.0169 34.2926 38.5695 34.9508 38.0053 35.515C 37.4411 36.0792 36.7828 36.5267 36.0306 36.8574C 35.2783 37.1881 34.4742 37.3535 33.6182 37.3535C 32.4249 37.3535 31.3225 37.0358 30.3108 36.4002C 28.8193 37.5286 27.1818 38.3846 25.3984 38.9683C 23.6151 39.5519 21.7896 39.8438 19.9219 39.8438C 18.0542 39.8438 16.2287 39.5519 14.4453 38.9683C 12.6619 38.3846 11.0245 37.5286 9.53293 36.4002C 8.52127 37.0358 7.41883 37.3535 6.22559 37.3535C 5.36956 37.3535 4.56543 37.1881 3.81317 36.8574C 3.06091 36.5267 2.40269 36.0792 1.83849 35.515C 1.2743 34.9508 0.826837 34.2926 0.496101 33.5403C 0.165365 32.7881 0 31.984 0 31.1279C 0 30.6091 0.0648492 30.0968 0.19455 29.591C 0.32425 29.0852 0.512313 28.6053 0.758743 28.1513C 1.00517 27.6974 1.30672 27.2791 1.6634 26.8965C 2.02007 26.5139 2.4189 26.1799 2.85988 25.8945C 2.73018 25.3109 2.63615 24.7305 2.57778 24.1533C 2.51942 23.5762 2.49023 22.9958 2.49023 22.4121C 2.49023 20.6222 2.75936 18.8875 3.29762 17.2079C 3.83587 15.5283 4.59461 13.9719 5.57384 12.5387C 6.55308 11.1055 7.7301 9.83773 9.10492 8.73528C 10.4797 7.63282 12.0102 6.76384 13.6963 6.12831C 13.7093 5.28526 13.8811 4.49086 14.2118 3.74508C 14.5426 2.9993 14.99 2.35081 15.5542 1.79958C 16.1184 1.24836 16.7767 0.810625 17.5289 0.486374C 18.2812 0.162123 19.0788 0 19.9219 0C 20.7649 0 21.5626 0.162123 22.3148 0.486374C 23.0671 0.810625 23.7253 1.24836 24.2895 1.79958C 24.8537 2.35081 25.3012 2.9993 25.6319 3.74508C 25.9626 4.49086 26.1345 5.28526 26.1475 6.12831C 27.8336 6.76384 29.364 7.63282 30.7388 8.73528C 32.1137 9.83773 33.2907 11.1055 34.2699 12.5387C 35.2491 13.9719 36.0079 15.5283 36.5461 17.2079C 37.0844 18.8875 37.3535 20.6222 37.3535 22.4121C 37.3535 22.9958 37.3243 23.5762 37.266 24.1533C 37.2076 24.7305 37.1136 25.3109 36.9839 25.8945ZM 19.9209 2.49023C 19.4021 2.49023 18.9157 2.58751 18.4618 2.78206C 18.0078 2.97661 17.6122 3.24249 17.275 3.57971C 16.9378 3.91693 16.6719 4.31251 16.4774 4.76646C 16.2828 5.22042 16.1855 5.70678 16.1855 6.22559C 16.1855 6.74439 16.2828 7.23076 16.4774 7.68471C 16.6719 8.13866 16.9378 8.53424 17.275 8.87146C 17.6122 9.20868 18.0078 9.47456 18.4618 9.66911C 18.9157 9.86366 19.4021 9.96094 19.9209 9.96094C 20.4397 9.96094 20.9261 9.86366 21.38 9.66911C 21.834 9.47456 22.2296 9.20868 22.5668 8.87146C 22.904 8.53424 23.1699 8.13866 23.3644 7.68471C 23.559 7.23076 23.6562 6.74439 23.6562 6.22559C 23.6562 5.70678 23.559 5.22042 23.3644 4.76646C 23.1699 4.31251 22.904 3.91693 22.5668 3.57971C 22.2296 3.24249 21.834 2.97661 21.38 2.78206C 20.9261 2.58751 20.4397 2.49023 19.9209 2.49023ZM 2.49023 31.1279C 2.49023 31.6467 2.58751 32.1331 2.78206 32.5871C 2.97661 33.041 3.24249 33.4366 3.57971 33.7738C 3.91693 34.111 4.31251 34.3769 4.76646 34.5715C 5.22042 34.766 5.70678 34.8633 6.22559 34.8633C 6.74439 34.8633 7.23076 34.766 7.68471 34.5715C 8.13866 34.3769 8.53424 34.111 8.87146 33.7738C 9.20868 33.4366 9.47456 33.041 9.66911 32.5871C 9.86366 32.1331 9.96094 31.6467 9.96094 31.1279C 9.96094 30.6091 9.86366 30.1228 9.66911 29.6688C 9.47456 29.2149 9.20868 28.8193 8.87146 28.4821C 8.53424 28.1448 8.13866 27.879 7.68471 27.6844C 7.23076 27.4899 6.74439 27.3926 6.22559 27.3926C 5.70678 27.3926 5.22042 27.4899 4.76646 27.6844C 4.31251 27.879 3.91693 28.1448 3.57971 28.4821C 3.24249 28.8193 2.97661 29.2149 2.78206 29.6688C 2.58751 30.1228 2.49023 30.6091 2.49023 31.1279ZM 19.9219 37.3541C 21.4523 37.3541 22.9471 37.1239 24.4062 36.6635C 25.8654 36.203 27.224 35.5318 28.4821 34.6499C 28.1319 34.1311 27.8627 33.5701 27.6747 32.967C 27.4866 32.3639 27.3926 31.7511 27.3926 31.1285C 27.3926 30.2725 27.5579 29.4684 27.8887 28.7161C 28.2194 27.9638 28.6669 27.3056 29.2311 26.7414C 29.7953 26.1772 30.4535 25.7298 31.2057 25.399C 31.958 25.0683 32.7621 24.9029 33.6182 24.9029C 33.7868 24.9029 33.9554 24.9094 34.124 24.9224C 34.2926 24.9354 34.4612 24.9548 34.6298 24.9808C 34.7855 24.1247 34.8633 23.2687 34.8633 22.4127C 34.8633 20.8952 34.646 19.4329 34.2115 18.0256C 33.777 16.6184 33.161 15.3149 32.3633 14.1152C 31.5657 12.9154 30.5994 11.8454 29.4645 10.9051C 28.3297 9.96477 27.0619 9.20279 25.6611 8.61914C 25.4276 9.18982 25.1131 9.71186 24.7175 10.1853C 24.3219 10.6587 23.8712 11.064 23.3654 11.4012C 22.8596 11.7384 22.3148 11.9978 21.7312 12.1794C 21.1475 12.361 20.5444 12.4518 19.9219 12.4518C 19.2993 12.4518 18.6962 12.361 18.1126 12.1794C 17.5289 11.9978 16.9842 11.7384 16.4783 11.4012C 15.9725 11.064 15.5218 10.6587 15.1262 10.1853C 14.7306 9.71186 14.4161 9.18982 14.1827 8.61914C 12.7819 9.20279 11.5141 9.96477 10.3792 10.9051C 9.24434 11.8454 8.27809 12.9154 7.48043 14.1152C 6.68277 15.3149 6.06671 16.6184 5.63221 18.0256C 5.19771 19.4329 4.98047 20.8952 4.98047 22.4127C 4.98047 23.2687 5.05829 24.1247 5.21393 24.9808C 6.14777 24.8251 7.05242 24.877 7.92789 25.1364C 8.80337 25.3958 9.57508 25.8141 10.243 26.3912C 10.911 26.9684 11.446 27.6655 11.8481 28.4827C 12.2501 29.2998 12.4512 30.1817 12.4512 31.1285C 12.4512 31.7511 12.3571 32.3639 12.1691 32.967C 11.981 33.5701 11.7119 34.1311 11.3617 34.6499C 12.6198 35.5318 13.9784 36.203 15.4375 36.6635C 16.8966 37.1239 18.3914 37.3541 19.9219 37.3541ZM 33.6182 34.8633C 34.137 34.8633 34.6233 34.766 35.0773 34.5715C 35.5312 34.3769 35.9268 34.111 36.264 33.7738C 36.6013 33.4366 36.8671 33.041 37.0617 32.5871C 37.2562 32.1331 37.3535 31.6467 37.3535 31.1279C 37.3535 30.6091 37.2562 30.1228 37.0617 29.6688C 36.8671 29.2149 36.6013 28.8193 36.264 28.4821C 35.9268 28.1448 35.5312 27.879 35.0773 27.6844C 34.6233 27.4899 34.137 27.3926 33.6182 27.3926C 33.0994 27.3926 32.613 27.4899 32.159 27.6844C 31.7051 27.879 31.3095 28.1448 30.9723 28.4821C 30.6351 28.8193 30.3692 29.2149 30.1746 29.6688C 29.9801 30.1228 29.8828 30.6091 29.8828 31.1279C 29.8828 31.6467 29.9801 32.1331 30.1746 32.5871C 30.3692 33.041 30.6351 33.4366 30.9723 33.7738C 31.3095 34.111 31.7051 34.3769 32.159 34.5715C 32.613 34.766 33.0994 34.8633 33.6182 34.8633Z" transform="translate(927.552 282.578)" fill="#243A5E"/>
<rect x="1.5" y="1.5" width="477" height="92" stroke-width="3" transform="translate(892.999 255)" stroke="#50E6FF"/>
<rect x="1.5" y="1.5" width="82" height="92" stroke-width="3" transform="translate(1385 255)" stroke="#50E6FF"/>
<path d="M 52.4007 24.3828L 52.4007 32L 48.929 32L 48.929 10.9941L 55.3011 10.9941C 57.7132 10.9941 59.5833 11.5557 60.9115 12.6787C 62.2396 13.8018 62.9037 15.3838 62.9037 17.4248C 62.9037 19.4658 62.2103 21.1357 60.8236 22.4346C 59.4369 23.7334 57.5619 24.3828 55.1986 24.3828L 52.4007 24.3828ZM 52.4007 13.8652L 52.4007 21.541L 54.6566 21.541C 56.1507 21.541 57.2884 21.1943 58.0697 20.501C 58.8509 19.8076 59.2415 18.8311 59.2415 17.5713C 59.2415 15.1006 57.806 13.8652 54.9349 13.8652L 52.4007 13.8652ZM 74.7982 20.2373C 74.388 19.915 73.7972 19.7539 73.0257 19.7539C 72.0199 19.7539 71.18 20.208 70.5062 21.1162C 69.8324 22.0244 69.4955 23.2598 69.4955 24.8223L 69.4955 32L 66.097 32L 66.097 17L 69.4955 17L 69.4955 20.0908L 69.554 20.0908C 69.8861 19.0361 70.3939 18.2158 71.0775 17.6299C 71.7708 17.0342 72.5423 16.7363 73.3919 16.7363C 74.0072 16.7363 74.4759 16.8291 74.7982 17.0146L 74.7982 20.2373ZM 78.9144 13.8506C 78.3578 13.8506 77.8792 13.6699 77.4789 13.3086C 77.0882 12.9473 76.8929 12.4883 76.8929 11.9316C 76.8929 11.375 77.0882 10.9111 77.4789 10.54C 77.8792 10.1689 78.3578 9.9834 78.9144 9.9834C 79.4906 9.9834 79.9789 10.1689 80.3792 10.54C 80.7796 10.9111 80.9798 11.375 80.9798 11.9316C 80.9798 12.459 80.7796 12.9131 80.3792 13.2939C 79.9789 13.665 79.4906 13.8506 78.9144 13.8506ZM 80.599 32L 77.2005 32L 77.2005 17L 80.599 17L 80.599 32ZM 107.479 32L 104.08 32L 104.08 23.8262C 104.08 22.2539 103.856 21.1162 103.407 20.4131C 102.967 19.71 102.22 19.3584 101.165 19.3584C 100.277 19.3584 99.5199 19.8027 98.8949 20.6914C 98.2796 21.5801 97.972 22.6445 97.972 23.8848L 97.972 32L 94.5589 32L 94.5589 23.5479C 94.5589 20.7549 93.5726 19.3584 91.5999 19.3584C 90.682 19.3584 89.9251 19.7783 89.3294 20.6182C 88.7435 21.458 88.4505 22.5469 88.4505 23.8848L 88.4505 32L 85.0521 32L 85.0521 17L 88.4505 17L 88.4505 19.373L 88.5091 19.373C 89.5931 17.5566 91.1703 16.6484 93.2406 16.6484C 94.2757 16.6484 95.179 16.9365 95.9505 17.5127C 96.7318 18.0791 97.264 18.8262 97.5472 19.7539C 98.6605 17.6836 100.321 16.6484 102.528 16.6484C 105.828 16.6484 107.479 18.6846 107.479 22.7568L 107.479 32ZM 123.138 32L 119.842 32L 119.842 29.6562L 119.784 29.6562C 118.748 31.4531 117.23 32.3516 115.228 32.3516C 113.753 32.3516 112.596 31.9512 111.756 31.1504C 110.926 30.3496 110.511 29.29 110.511 27.9717C 110.511 25.1396 112.142 23.4893 115.404 23.0205L 119.857 22.3906C 119.857 20.252 118.841 19.1826 116.81 19.1826C 115.023 19.1826 113.411 19.7979 111.976 21.0283L 111.976 18.0547C 113.558 17.1172 115.384 16.6484 117.454 16.6484C 121.243 16.6484 123.138 18.5137 123.138 22.2441L 123.138 32ZM 119.857 24.6318L 116.707 25.0713C 115.731 25.1982 114.993 25.4375 114.495 25.7891C 114.007 26.1309 113.763 26.7363 113.763 27.6055C 113.763 28.2402 113.988 28.7627 114.437 29.1729C 114.896 29.5732 115.506 29.7734 116.268 29.7734C 117.303 29.7734 118.158 29.4121 118.831 28.6895C 119.515 27.957 119.857 27.0391 119.857 25.9355L 119.857 24.6318ZM 135.999 20.2373C 135.589 19.915 134.998 19.7539 134.227 19.7539C 133.221 19.7539 132.381 20.208 131.707 21.1162C 131.034 22.0244 130.697 23.2598 130.697 24.8223L 130.697 32L 127.298 32L 127.298 17L 130.697 17L 130.697 20.0908L 130.755 20.0908C 131.087 19.0361 131.595 18.2158 132.279 17.6299C 132.972 17.0342 133.743 16.7363 134.593 16.7363C 135.208 16.7363 135.677 16.8291 135.999 17.0146L 135.999 20.2373ZM 152.596 17L 145.828 34.4023C 144.422 37.5078 142.45 39.0605 139.91 39.0605C 139.198 39.0605 138.602 38.9971 138.123 38.8701L 138.123 36.043C 138.66 36.2188 139.149 36.3066 139.588 36.3066C 140.858 36.3066 141.805 35.6816 142.43 34.4316L 143.441 31.9707L 137.479 17L 141.243 17L 144.818 27.8984C 144.857 28.0352 144.945 28.3965 145.081 28.9824L 145.155 28.9824C 145.203 28.7578 145.291 28.4062 145.418 27.9277L 149.168 17L 152.596 17ZM 173.866 31.3115C 172.664 32.0049 171.243 32.3516 169.603 32.3516C 167.376 32.3516 165.579 31.6582 164.212 30.2715C 162.845 28.875 162.161 27.0684 162.161 24.8516C 162.161 22.3809 162.894 20.3984 164.359 18.9043C 165.833 17.4004 167.801 16.6484 170.262 16.6484C 171.629 16.6484 172.835 16.8877 173.88 17.3662L 173.88 20.5303C 172.835 19.749 171.722 19.3584 170.54 19.3584C 169.105 19.3584 167.928 19.8467 167.01 20.8232C 166.092 21.79 165.633 23.0596 165.633 24.6318C 165.633 26.1846 166.063 27.4102 166.922 28.3086C 167.791 29.207 168.953 29.6562 170.409 29.6562C 171.629 29.6562 172.782 29.2217 173.866 28.3525L 173.866 31.3115ZM 183.9 32.3516C 181.585 32.3516 179.735 31.6533 178.348 30.2568C 176.971 28.8506 176.283 26.9902 176.283 24.6758C 176.283 22.1562 177 20.1885 178.436 18.7725C 179.881 17.3564 181.825 16.6484 184.266 16.6484C 186.61 16.6484 188.436 17.3369 189.744 18.7139C 191.053 20.0908 191.707 22 191.707 24.4414C 191.707 26.834 190.999 28.7529 189.583 30.1982C 188.177 31.6338 186.283 32.3516 183.9 32.3516ZM 184.061 19.3584C 182.733 19.3584 181.683 19.8223 180.911 20.75C 180.14 21.6777 179.754 22.957 179.754 24.5879C 179.754 26.1602 180.145 27.4004 180.926 28.3086C 181.707 29.207 182.752 29.6562 184.061 29.6562C 185.399 29.6562 186.424 29.2119 187.137 28.3232C 187.86 27.4346 188.221 26.1699 188.221 24.5293C 188.221 22.8789 187.86 21.6045 187.137 20.7061C 186.424 19.8076 185.399 19.3584 184.061 19.3584ZM 217.606 32L 214.207 32L 214.207 23.8262C 214.207 22.2539 213.983 21.1162 213.534 20.4131C 213.094 19.71 212.347 19.3584 211.292 19.3584C 210.404 19.3584 209.647 19.8027 209.022 20.6914C 208.407 21.5801 208.099 22.6445 208.099 23.8848L 208.099 32L 204.686 32L 204.686 23.5479C 204.686 20.7549 203.7 19.3584 201.727 19.3584C 200.809 19.3584 200.052 19.7783 199.456 20.6182C 198.87 21.458 198.577 22.5469 198.577 23.8848L 198.577 32L 195.179 32L 195.179 17L 198.577 17L 198.577 19.373L 198.636 19.373C 199.72 17.5566 201.297 16.6484 203.368 16.6484C 204.403 16.6484 205.306 16.9365 206.077 17.5127C 206.859 18.0791 207.391 18.8262 207.674 19.7539C 208.787 17.6836 210.448 16.6484 212.655 16.6484C 215.955 16.6484 217.606 18.6846 217.606 22.7568L 217.606 32ZM 244.178 32L 240.78 32L 240.78 23.8262C 240.78 22.2539 240.555 21.1162 240.106 20.4131C 239.666 19.71 238.919 19.3584 237.865 19.3584C 236.976 19.3584 236.219 19.8027 235.594 20.6914C 234.979 21.5801 234.671 22.6445 234.671 23.8848L 234.671 32L 231.258 32L 231.258 23.5479C 231.258 20.7549 230.272 19.3584 228.299 19.3584C 227.381 19.3584 226.624 19.7783 226.029 20.6182C 225.443 21.458 225.15 22.5469 225.15 23.8848L 225.15 32L 221.751 32L 221.751 17L 225.15 17L 225.15 19.373L 225.208 19.373C 226.292 17.5566 227.869 16.6484 229.94 16.6484C 230.975 16.6484 231.878 16.9365 232.65 17.5127C 233.431 18.0791 233.963 18.8262 234.246 19.7539C 235.36 17.6836 237.02 16.6484 239.227 16.6484C 242.528 16.6484 244.178 18.6846 244.178 22.7568L 244.178 32ZM 259.837 32L 256.541 32L 256.541 29.6562L 256.483 29.6562C 255.448 31.4531 253.929 32.3516 251.927 32.3516C 250.452 32.3516 249.295 31.9512 248.455 31.1504C 247.625 30.3496 247.21 29.29 247.21 27.9717C 247.21 25.1396 248.841 23.4893 252.103 23.0205L 256.556 22.3906C 256.556 20.252 255.54 19.1826 253.509 19.1826C 251.722 19.1826 250.111 19.7979 248.675 21.0283L 248.675 18.0547C 250.257 17.1172 252.083 16.6484 254.154 16.6484C 257.943 16.6484 259.837 18.5137 259.837 22.2441L 259.837 32ZM 256.556 24.6318L 253.407 25.0713C 252.43 25.1982 251.693 25.4375 251.195 25.7891C 250.706 26.1309 250.462 26.7363 250.462 27.6055C 250.462 28.2402 250.687 28.7627 251.136 29.1729C 251.595 29.5732 252.205 29.7734 252.967 29.7734C 254.002 29.7734 254.857 29.4121 255.531 28.6895C 256.214 27.957 256.556 27.0391 256.556 25.9355L 256.556 24.6318ZM 277.357 32L 273.958 32L 273.958 23.5479C 273.958 20.7451 272.967 19.3438 270.985 19.3438C 269.95 19.3438 269.095 19.7344 268.421 20.5156C 267.747 21.2871 267.41 22.2637 267.41 23.4453L 267.41 32L 263.997 32L 263.997 17L 267.41 17L 267.41 19.4902L 267.469 19.4902C 268.592 17.5957 270.213 16.6484 272.332 16.6484C 273.963 16.6484 275.208 17.1807 276.068 18.2451C 276.927 19.2998 277.357 20.8281 277.357 22.8301L 277.357 32ZM 295.155 32L 291.756 32L 291.756 29.4512L 291.698 29.4512C 290.604 31.3848 288.919 32.3516 286.644 32.3516C 284.798 32.3516 283.319 31.6826 282.205 30.3447C 281.102 28.9971 280.55 27.166 280.55 24.8516C 280.55 22.3711 281.16 20.3838 282.381 18.8896C 283.612 17.3955 285.247 16.6484 287.288 16.6484C 289.31 16.6484 290.78 17.459 291.698 19.0801L 291.756 19.0801L 291.756 9.79297L 295.155 9.79297L 295.155 32ZM 291.8 25.1445L 291.8 23.1816C 291.8 22.1172 291.453 21.2139 290.76 20.4717C 290.067 19.7295 289.183 19.3584 288.109 19.3584C 286.839 19.3584 285.838 19.832 285.106 20.7793C 284.383 21.7266 284.022 23.04 284.022 24.7197C 284.022 26.2432 284.368 27.4492 285.062 28.3379C 285.765 29.2168 286.707 29.6562 287.889 29.6562C 289.051 29.6562 289.993 29.2314 290.716 28.3818C 291.439 27.5225 291.8 26.4434 291.8 25.1445ZM 298.656 31.5312L 298.656 28.3818C 299.925 29.3486 301.327 29.832 302.86 29.832C 304.91 29.832 305.936 29.2266 305.936 28.0156C 305.936 27.6738 305.848 27.3857 305.672 27.1514C 305.496 26.9072 305.257 26.6924 304.954 26.5068C 304.661 26.3213 304.31 26.1553 303.9 26.0088C 303.499 25.8623 303.05 25.6963 302.552 25.5107C 301.937 25.2666 301.38 25.0078 300.882 24.7344C 300.394 24.4609 299.984 24.1533 299.652 23.8115C 299.329 23.46 299.085 23.0645 298.919 22.625C 298.753 22.1855 298.67 21.6729 298.67 21.0869C 298.67 20.3643 298.841 19.7295 299.183 19.1826C 299.525 18.626 299.984 18.1621 300.56 17.791C 301.136 17.4102 301.79 17.127 302.523 16.9414C 303.255 16.7461 304.012 16.6484 304.793 16.6484C 306.18 16.6484 307.42 16.8584 308.514 17.2783L 308.514 20.252C 307.459 19.5293 306.248 19.168 304.881 19.168C 304.452 19.168 304.061 19.2119 303.709 19.2998C 303.368 19.3877 303.075 19.5098 302.83 19.666C 302.586 19.8223 302.396 20.0127 302.259 20.2373C 302.122 20.4521 302.054 20.6914 302.054 20.9551C 302.054 21.2773 302.122 21.5508 302.259 21.7754C 302.396 22 302.596 22.2002 302.86 22.376C 303.133 22.542 303.455 22.6982 303.827 22.8447C 304.207 22.9814 304.642 23.1328 305.13 23.2988C 305.775 23.5625 306.351 23.8311 306.859 24.1045C 307.376 24.3779 307.816 24.6904 308.177 25.042C 308.538 25.3838 308.817 25.7842 309.012 26.2432C 309.207 26.6924 309.305 27.2295 309.305 27.8545C 309.305 28.6162 309.129 29.2803 308.778 29.8467C 308.426 30.4131 307.957 30.8818 307.371 31.2529C 306.785 31.624 306.107 31.8975 305.335 32.0732C 304.574 32.2588 303.768 32.3516 302.918 32.3516C 301.278 32.3516 299.857 32.0781 298.656 31.5312Z" transform="translate(955 68.3335)" fill="#50E6FF"/>
<path d="M 11.25 32.3516C 8.22266 32.3516 5.7959 31.3701 3.96973 29.4072C 2.15332 27.4443 1.24512 24.8906 1.24512 21.7461C 1.24512 18.3672 2.17285 15.6719 4.02832 13.6602C 5.88379 11.6484 8.40332 10.6426 11.5869 10.6426C 14.5361 10.6426 16.9092 11.6191 18.7061 13.5723C 20.5127 15.5254 21.416 18.0791 21.416 21.2334C 21.416 24.6611 20.4932 27.3711 18.6475 29.3633C 16.8018 31.3555 14.3359 32.3516 11.25 32.3516ZM 11.4111 13.7041C 9.4873 13.7041 7.91992 14.4219 6.70898 15.8574C 5.50781 17.293 4.90723 19.1826 4.90723 21.5264C 4.90723 23.8604 5.49316 25.7402 6.66504 27.166C 7.83691 28.5918 9.37012 29.3047 11.2646 29.3047C 13.2764 29.3047 14.8633 28.626 16.0254 27.2686C 17.1875 25.9111 17.7686 24.0117 17.7686 21.5703C 17.7686 19.0605 17.2021 17.1221 16.0693 15.7549C 14.9463 14.3877 13.3936 13.7041 11.4111 13.7041ZM 37.8076 17L 32.0068 32L 28.3301 32L 22.8076 17L 26.499 17L 29.8242 27.4883C 30.0781 28.2598 30.2344 28.9336 30.293 29.5098L 30.3369 29.5098C 30.4248 28.7871 30.5615 28.1328 30.7471 27.5469L 34.2334 17L 37.8076 17ZM 52.5879 25.4229L 42.3633 25.4229C 42.4023 26.8096 42.8271 27.8789 43.6377 28.6309C 44.458 29.3828 45.5811 29.7588 47.0068 29.7588C 48.6084 29.7588 50.0781 29.2803 51.416 28.3232L 51.416 31.0625C 50.0488 31.9219 48.2422 32.3516 45.9961 32.3516C 43.7891 32.3516 42.0557 31.6729 40.7959 30.3154C 39.5459 28.9482 38.9209 27.0293 38.9209 24.5586C 38.9209 22.2246 39.6094 20.3252 40.9863 18.8604C 42.373 17.3857 44.0918 16.6484 46.1426 16.6484C 48.1934 16.6484 49.7803 17.3076 50.9033 18.626C 52.0264 19.9443 52.5879 21.7754 52.5879 24.1191L 52.5879 25.4229ZM 49.3066 23.0205C 49.2969 21.7998 49.0088 20.8525 48.4424 20.1787C 47.876 19.4951 47.0947 19.1533 46.0986 19.1533C 45.1221 19.1533 44.292 19.5098 43.6084 20.2227C 42.9346 20.9355 42.5195 21.8682 42.3633 23.0205L 49.3066 23.0205ZM 64.5264 20.2373C 64.1162 19.915 63.5254 19.7539 62.7539 19.7539C 61.748 19.7539 60.9082 20.208 60.2344 21.1162C 59.5605 22.0244 59.2236 23.2598 59.2236 24.8223L 59.2236 32L 55.8252 32L 55.8252 17L 59.2236 17L 59.2236 20.0908L 59.2822 20.0908C 59.6143 19.0361 60.1221 18.2158 60.8057 17.6299C 61.499 17.0342 62.2705 16.7363 63.1201 16.7363C 63.7354 16.7363 64.2041 16.8291 64.5264 17.0146L 64.5264 20.2373ZM 76.0547 12.5615C 75.5957 12.2979 75.0732 12.166 74.4873 12.166C 72.8369 12.166 72.0117 13.0986 72.0117 14.9639L 72.0117 17L 75.498 17L 75.498 19.666L 72.0264 19.666L 72.0264 32L 68.6279 32L 68.6279 19.666L 66.0645 19.666L 66.0645 17L 68.6279 17L 68.6279 14.5684C 68.6279 12.9863 69.1455 11.7412 70.1807 10.833C 71.2158 9.91504 72.5098 9.45605 74.0625 9.45605C 74.9023 9.45605 75.5664 9.54883 76.0547 9.73438L 76.0547 12.5615ZM 81.3281 32L 77.915 32L 77.915 9.79297L 81.3281 9.79297L 81.3281 32ZM 92.417 32.3516C 90.1025 32.3516 88.252 31.6533 86.8652 30.2568C 85.4883 28.8506 84.7998 26.9902 84.7998 24.6758C 84.7998 22.1562 85.5176 20.1885 86.9531 18.7725C 88.3984 17.3564 90.3418 16.6484 92.7832 16.6484C 95.127 16.6484 96.9531 17.3369 98.2617 18.7139C 99.5703 20.0908 100.225 22 100.225 24.4414C 100.225 26.834 99.5166 28.7529 98.1006 30.1982C 96.6943 31.6338 94.7998 32.3516 92.417 32.3516ZM 92.5781 19.3584C 91.25 19.3584 90.2002 19.8223 89.4287 20.75C 88.6572 21.6777 88.2715 22.957 88.2715 24.5879C 88.2715 26.1602 88.6621 27.4004 89.4434 28.3086C 90.2246 29.207 91.2695 29.6562 92.5781 29.6562C 93.916 29.6562 94.9414 29.2119 95.6543 28.3232C 96.377 27.4346 96.7383 26.1699 96.7383 24.5293C 96.7383 22.8789 96.377 21.6045 95.6543 20.7061C 94.9414 19.8076 93.916 19.3584 92.5781 19.3584ZM 123.867 17L 119.443 32L 115.884 32L 113.159 21.834C 113.052 21.4434 112.983 21.0039 112.954 20.5156L 112.896 20.5156C 112.876 20.8477 112.788 21.2773 112.632 21.8047L 109.673 32L 106.187 32L 101.777 17L 105.293 17L 108.018 27.8105C 108.105 28.1328 108.164 28.5625 108.193 29.0996L 108.296 29.0996C 108.325 28.6895 108.403 28.25 108.53 27.7812L 111.562 17L 114.756 17L 117.451 27.8545C 117.539 28.1963 117.603 28.626 117.642 29.1436L 117.744 29.1436C 117.764 28.7822 117.837 28.3525 117.964 27.8545L 120.63 17L 123.867 17ZM 157.09 32L 153.691 32L 153.691 23.8262C 153.691 22.2539 153.467 21.1162 153.018 20.4131C 152.578 19.71 151.831 19.3584 150.776 19.3584C 149.888 19.3584 149.131 19.8027 148.506 20.6914C 147.891 21.5801 147.583 22.6445 147.583 23.8848L 147.583 32L 144.17 32L 144.17 23.5479C 144.17 20.7549 143.184 19.3584 141.211 19.3584C 140.293 19.3584 139.536 19.7783 138.94 20.6182C 138.354 21.458 138.062 22.5469 138.062 23.8848L 138.062 32L 134.663 32L 134.663 17L 138.062 17L 138.062 19.373L 138.12 19.373C 139.204 17.5566 140.781 16.6484 142.852 16.6484C 143.887 16.6484 144.79 16.9365 145.562 17.5127C 146.343 18.0791 146.875 18.8262 147.158 19.7539C 148.271 17.6836 149.932 16.6484 152.139 16.6484C 155.439 16.6484 157.09 18.6846 157.09 22.7568L 157.09 32ZM 173.936 25.4229L 163.711 25.4229C 163.75 26.8096 164.175 27.8789 164.985 28.6309C 165.806 29.3828 166.929 29.7588 168.354 29.7588C 169.956 29.7588 171.426 29.2803 172.764 28.3232L 172.764 31.0625C 171.396 31.9219 169.59 32.3516 167.344 32.3516C 165.137 32.3516 163.403 31.6729 162.144 30.3154C 160.894 28.9482 160.269 27.0293 160.269 24.5586C 160.269 22.2246 160.957 20.3252 162.334 18.8604C 163.721 17.3857 165.439 16.6484 167.49 16.6484C 169.541 16.6484 171.128 17.3076 172.251 18.626C 173.374 19.9443 173.936 21.7754 173.936 24.1191L 173.936 25.4229ZM 170.654 23.0205C 170.645 21.7998 170.356 20.8525 169.79 20.1787C 169.224 19.4951 168.442 19.1533 167.446 19.1533C 166.47 19.1533 165.64 19.5098 164.956 20.2227C 164.282 20.9355 163.867 21.8682 163.711 23.0205L 170.654 23.0205ZM 190.532 32L 187.134 32L 187.134 23.5479C 187.134 20.7451 186.143 19.3438 184.16 19.3438C 183.125 19.3438 182.271 19.7344 181.597 20.5156C 180.923 21.2871 180.586 22.2637 180.586 23.4453L 180.586 32L 177.173 32L 177.173 17L 180.586 17L 180.586 19.4902L 180.645 19.4902C 181.768 17.5957 183.389 16.6484 185.508 16.6484C 187.139 16.6484 188.384 17.1807 189.243 18.2451C 190.103 19.2998 190.532 20.8281 190.532 22.8301L 190.532 32ZM 207.773 32L 204.375 32L 204.375 29.627L 204.316 29.627C 203.33 31.4434 201.797 32.3516 199.717 32.3516C 196.172 32.3516 194.399 30.2227 194.399 25.9648L 194.399 17L 197.798 17L 197.798 25.6133C 197.798 28.3086 198.838 29.6562 200.918 29.6562C 201.924 29.6562 202.749 29.2852 203.394 28.543C 204.048 27.8008 204.375 26.8291 204.375 25.6279L 204.375 17L 207.773 17L 207.773 32Z" transform="translate(1586.67 275)" fill="#50E6FF"/>
<line y1="-1.5" x2="136.667" y2="-1.5" stroke-width="3" transform="matrix(0 1 -1 0 1135 121.667)" stroke="#50E6FF"/>
<line y1="-1.5" x2="106.667" y2="-1.5" stroke-width="3" transform="translate(1467.5 300.833)" stroke="#50E6FF"/>
<g opacity="0.75">
<path fill-rule="evenodd" clip-rule="evenodd" d="M 25.35 4.225L 0 4.225L 0 0L 25.35 0L 25.35 4.225Z" transform="translate(1313.33 205.563)" fill="black"/>
<rect x="1.5" y="1.5" width="22.35" height="22.35" stroke-width="3" transform="translate(1380.93 195)" stroke="black"/>
<path fill-rule="evenodd" clip-rule="evenodd" d="M 16.4316 13.4448L 26.8887 2.98779L 23.9014 0L 13.4443 10.457L 2.9873 0.000488281L 0 2.98779L 10.457 13.4443L 0.000976562 23.9004L 2.98828 26.8877L 13.4443 16.4321L 23.9004 26.8882L 26.8877 23.9009L 16.4316 13.4448Z" transform="translate(1447.76 194.231)" fill="black"/>
</g>
</g>
</g>
<defs>
<filter id="filter0_dd" x="-566.667" y="155" width="2080" height="1107.81" filterUnits="userSpaceOnUse" color-interpolation-filters="sRGB">
<feFlood flood-opacity="0" result="BackgroundImageFix"/>
<feColorMatrix in="SourceAlpha" type="matrix" values="0 0 0 0 0 0 0 0 0 0 0 0 0 0 0 0 0 0 255 0"/>
<feOffset dx="5" dy="5"/>
<feGaussianBlur stdDeviation="7.5"/>
<feColorMatrix type="matrix" values="0 0 0 0 0 0 0 0 0 0.350796 0 0 0 0 0.63 0 0 0 1 0"/>
<feBlend mode="normal" in2="BackgroundImageFix" result="effect1_dropShadow"/>
<feColorMatrix in="SourceAlpha" type="matrix" values="0 0 0 0 0 0 0 0 0 0 0 0 0 0 0 0 0 0 255 0"/>
<feOffset/>
<feGaussianBlur stdDeviation="10"/>
<feColorMatrix type="matrix" values="0 0 0 0 0.095 0 0 0 0 0.153793 0 0 0 0 0.25 0 0 0 1 0"/>
<feBlend mode="normal" in2="effect1_dropShadow" result="effect2_dropShadow"/>
<feBlend mode="normal" in="SourceGraphic" in2="effect2_dropShadow" result="shape"/>
</filter>

<clipPath id="clip0">
<rect width="1920" height="866.667" fill="white"/>
</clipPath>

</defs>
</svg>

