<svg width="1920" height="919" viewBox="0 0 1920 919" version="1.1" xmlns="http://www.w3.org/2000/svg" xmlns:xlink="http://www.w3.org/1999/xlink">
<g fill="none">
<g clip-path="url(#clip0)">
<rect width="1920" height="918.333" fill="#243A5E"/>
<path d="M 22.5 290C 39.0234 290 54.9609 287.891 70.3125 283.672C 85.6641 279.336 99.9609 273.242 113.203 265.391C 126.562 257.539 138.691 248.164 149.59 237.266C 160.605 226.25 170.039 214.121 177.891 200.879C 185.742 187.52 191.777 173.164 195.996 157.812C 200.332 142.461 202.5 126.523 202.5 110C 202.5 94.4141 200.508 79.1211 196.523 64.1211C 192.539 49.1211 186.738 34.8828 179.121 21.4062C 194.121 23.2813 208.477 26.8555 222.188 32.1289C 235.898 37.4023 248.613 44.1406 260.332 52.3438C 272.051 60.5469 282.656 70.0391 292.148 80.8203C 301.641 91.4844 309.727 103.145 316.406 115.801C 323.203 128.34 328.418 141.758 332.051 156.055C 335.684 170.234 337.5 184.883 337.5 200C 337.5 216.523 335.332 232.461 330.996 247.812C 326.777 263.164 320.742 277.52 312.891 290.879C 305.039 304.121 295.605 316.25 284.59 327.266C 273.691 338.164 261.562 347.539 248.203 355.391C 234.961 363.242 220.664 369.336 205.312 373.672C 189.961 377.891 174.023 380 157.5 380C 141.328 380 125.566 377.891 110.215 373.672C 94.8633 369.453 80.3906 363.418 66.7969 355.566C 53.3203 347.598 40.957 337.988 29.707 326.738C 18.457 315.371 8.84766 302.656 0.878906 288.594C 4.51172 289.062 8.08594 289.414 11.6016 289.648C 15.2344 289.883 18.8672 290 22.5 290ZM 157.5 357.5C 172.031 357.5 185.977 355.625 199.336 351.875C 212.812 348.125 225.352 342.852 236.953 336.055C 248.672 329.141 259.277 320.938 268.77 311.445C 278.379 301.836 286.582 291.23 293.379 279.629C 300.293 267.91 305.625 255.371 309.375 242.012C 313.125 228.535 315 214.531 315 200C 315 184.062 312.656 168.652 307.969 153.77C 303.281 138.77 296.66 124.941 288.105 112.285C 279.668 99.5117 269.414 88.1445 257.344 78.1836C 245.273 68.2227 231.855 60.2539 217.09 54.2773C 222.363 72.4414 225 91.0156 225 110C 225 127.109 222.949 143.691 218.848 159.746C 214.746 175.684 208.887 190.801 201.27 205.098C 193.652 219.277 184.453 232.461 173.672 244.648C 162.891 256.719 150.879 267.383 137.637 276.641C 124.395 285.781 110.039 293.34 94.5703 299.316C 79.2188 305.176 63.0469 309.102 46.0547 311.094C 61.0547 326.094 78.0469 337.578 97.0312 345.547C 116.133 353.516 136.289 357.5 157.5 357.5ZM 876.748 166.25C 886.644 166.25 895.921 168.105 904.58 171.816C 913.363 175.527 920.97 180.599 927.402 187.031C 933.958 193.34 939.092 200.824 942.803 209.482C 946.637 218.141 948.555 227.48 948.555 237.5C 948.555 247.396 946.699 256.673 942.988 265.332C 939.277 273.867 934.144 281.413 927.588 287.969C 921.156 294.401 913.61 299.473 904.951 303.184C 896.292 306.895 887.077 308.75 877.305 308.75L 663.555 308.75C 650.443 308.75 638.073 306.276 626.445 301.328C 614.941 296.38 604.86 289.639 596.201 281.104C 587.666 272.445 580.924 262.363 575.977 250.859C 571.029 239.232 568.555 226.862 568.555 213.75C 568.555 200.638 571.029 188.33 575.977 176.826C 580.924 165.199 587.666 155.117 596.201 146.582C 604.86 137.923 614.941 131.12 626.445 126.172C 638.073 121.224 650.443 118.75 663.555 118.75C 669.245 118.75 674.997 119.307 680.811 120.42C 685.758 112.751 691.449 105.885 697.881 99.8242C 704.437 93.6393 711.549 88.444 719.219 84.2383C 726.888 80.0326 735.052 76.8164 743.711 74.5898C 752.37 72.3633 761.276 71.25 770.43 71.25C 784.16 71.25 797.087 73.6621 809.209 78.4863C 821.455 83.3105 832.279 89.9902 841.68 98.5254C 851.081 106.937 858.812 116.956 864.873 128.584C 871.058 140.212 875.016 152.767 876.748 166.25ZM 877.305 285C 883.861 285 889.984 283.763 895.674 281.289C 901.488 278.815 906.559 275.413 910.889 271.084C 915.218 266.755 918.62 261.745 921.094 256.055C 923.568 250.241 924.805 244.056 924.805 237.5C 924.805 230.944 923.568 224.821 921.094 219.131C 918.62 213.317 915.218 208.245 910.889 203.916C 906.559 199.587 901.488 196.185 895.674 193.711C 889.984 191.237 883.861 190 877.305 190L 853.555 190L 853.555 178.125C 853.555 166.621 851.39 155.859 847.061 145.84C 842.731 135.697 836.794 126.852 829.248 119.307C 821.702 111.761 812.858 105.824 802.715 101.494C 792.695 97.1647 781.934 95 770.43 95C 761.771 95 753.421 96.2988 745.381 98.8965C 737.34 101.494 729.919 105.143 723.115 109.844C 716.436 114.544 710.498 120.234 705.303 126.914C 700.107 133.47 695.964 140.83 692.871 148.994C 683.594 144.665 673.822 142.5 663.555 142.5C 653.659 142.5 644.382 144.355 635.723 148.066C 627.188 151.777 619.642 156.911 613.086 163.467C 606.654 169.899 601.582 177.445 597.871 186.104C 594.16 194.762 592.305 203.978 592.305 213.75C 592.305 223.646 594.16 232.923 597.871 241.582C 601.582 250.117 606.654 257.663 613.086 264.219C 619.642 270.651 627.188 275.723 635.723 279.434C 644.382 283.145 653.659 285 663.555 285L 877.305 285ZM 1335.23 95C 1346.74 95 1357.5 97.1647 1367.52 101.494C 1377.66 105.824 1386.51 111.761 1394.05 119.307C 1401.6 126.852 1407.54 135.697 1411.87 145.84C 1416.19 155.859 1418.36 166.621 1418.36 178.125C 1418.36 189.629 1416.19 200.452 1411.87 210.596C 1407.54 220.615 1401.6 229.398 1394.05 236.943C 1386.51 244.489 1377.66 250.426 1367.52 254.756C 1357.5 259.085 1346.74 261.25 1335.23 261.25C 1323.73 261.25 1312.91 259.085 1302.76 254.756C 1292.74 250.426 1283.96 244.489 1276.42 236.943C 1268.87 229.398 1262.93 220.615 1258.6 210.596C 1254.27 200.452 1252.11 189.629 1252.11 178.125C 1252.11 166.621 1254.27 155.859 1258.6 145.84C 1262.93 135.697 1268.87 126.852 1276.42 119.307C 1283.96 111.761 1292.74 105.824 1302.76 101.494C 1312.91 97.1647 1323.73 95 1335.23 95ZM 1335.23 237.5C 1343.4 237.5 1351.07 235.954 1358.24 232.861C 1365.42 229.769 1371.66 225.563 1376.98 220.244C 1382.43 214.801 1386.69 208.493 1389.79 201.318C 1393 194.02 1394.61 186.289 1394.61 178.125C 1394.61 169.961 1393 162.292 1389.79 155.117C 1386.69 147.943 1382.43 141.696 1376.98 136.377C 1371.66 130.934 1365.42 126.667 1358.24 123.574C 1351.07 120.358 1343.4 118.75 1335.23 118.75C 1327.07 118.75 1319.34 120.358 1312.04 123.574C 1304.87 126.667 1298.56 130.934 1293.12 136.377C 1287.8 141.696 1283.59 147.943 1280.5 155.117C 1277.41 162.292 1275.86 169.961 1275.86 178.125C 1275.86 186.289 1277.41 194.02 1280.5 201.318C 1283.59 208.493 1287.8 214.801 1293.12 220.244C 1298.56 225.563 1304.87 229.769 1312.04 232.861C 1319.34 235.954 1327.07 237.5 1335.23 237.5ZM 1347.11 71.25L 1323.36 71.25L 1323.36 0L 1347.11 0L 1347.11 71.25ZM 1323.36 285L 1347.11 285L 1347.11 356.25L 1323.36 356.25L 1323.36 285ZM 1513.36 166.25L 1513.36 190L 1442.11 190L 1442.11 166.25L 1513.36 166.25ZM 1228.36 190L 1157.11 190L 1157.11 166.25L 1228.36 166.25L 1228.36 190ZM 1251.18 110.957L 1200.9 60.4883L 1217.6 43.7891L 1268.07 94.0723L 1251.18 110.957ZM 1419.29 245.293L 1469.57 295.762L 1452.87 312.461L 1402.4 262.178L 1419.29 245.293ZM 1419.29 110.957L 1402.4 94.0723L 1452.87 43.7891L 1469.57 60.4883L 1419.29 110.957ZM 1251.18 245.293L 1268.07 262.178L 1217.6 312.461L 1200.9 295.762L 1251.18 245.293Z" transform="translate(181 279)" fill="#50E6FF"/>
</g>
</g>
<defs>

<clipPath id="clip0">
<rect width="1920" height="918.333" fill="white"/>
</clipPath>

</defs>
</svg>

