<svg width="937" height="508" viewBox="0 0 937 508" version="1.1" xmlns="http://www.w3.org/2000/svg" xmlns:xlink="http://www.w3.org/1999/xlink">
<g id="Canvas" fill="none">
<g id="icons-standard" clip-path="url(#clip0)">
<rect width="937" height="508" fill="#EAEAEA"/>
<g id="Cut">
<path d="M 22.6992 41.0288C 20.7061 41.9937 18.1035 42.4761 14.8916 42.4761C 10.7021 42.4761 7.40771 41.2446 5.0083 38.7817C 2.60889 36.3188 1.40918 33.0371 1.40918 28.9365C 1.40918 24.5693 2.75488 21.0273 5.44629 18.3105C 8.15039 15.5937 11.6543 14.2354 15.958 14.2354C 18.624 14.2354 20.8711 14.5718 22.6992 15.2446L 22.6992 21.167C 20.8711 20.0752 18.7891 19.5293 16.4531 19.5293C 13.8887 19.5293 11.8193 20.3354 10.2451 21.9478C 8.6709 23.5601 7.88379 25.7437 7.88379 28.4985C 7.88379 31.1392 8.62646 33.2466 10.1118 34.8208C 11.5972 36.3823 13.5967 37.1631 16.1104 37.1631C 18.5098 37.1631 20.7061 36.5791 22.6992 35.4111L 22.6992 41.0288ZM 45.3984 42L 39.3999 42L 39.3999 39.0293L 39.3047 39.0293C 37.8193 41.3271 35.8325 42.4761 33.3442 42.4761C 28.8247 42.4761 26.5649 39.7402 26.5649 34.2686L 26.5649 22.5L 32.5635 22.5L 32.5635 33.7354C 32.5635 36.4902 33.6553 37.8677 35.8389 37.8677C 36.918 37.8677 37.7812 37.4932 38.4287 36.7441C 39.0762 35.9824 39.3999 34.9541 39.3999 33.6592L 39.3999 22.5L 45.3984 22.5L 45.3984 42ZM 62.2705 41.7715C 61.3818 42.2412 60.0425 42.4761 58.2524 42.4761C 54.0122 42.4761 51.8921 40.2734 51.8921 35.8682L 51.8921 26.937L 48.731 26.937L 48.731 22.5L 51.8921 22.5L 51.8921 18.2915L 57.8906 16.5776L 57.8906 22.5L 62.2705 22.5L 62.2705 26.937L 57.8906 26.937L 57.8906 34.8208C 57.8906 36.8521 58.6968 37.8677 60.3091 37.8677C 60.9438 37.8677 61.5977 37.6836 62.2705 37.3154L 62.2705 41.7715Z" transform="translate(80 316)" fill="black"/>
</g>
<g id="Copy">
<path d="M 22.6992 41.0288C 20.7061 41.9937 18.1035 42.4761 14.8916 42.4761C 10.7021 42.4761 7.40771 41.2446 5.0083 38.7817C 2.60889 36.3188 1.40918 33.0371 1.40918 28.9365C 1.40918 24.5693 2.75488 21.0273 5.44629 18.3105C 8.15039 15.5937 11.6543 14.2354 15.958 14.2354C 18.624 14.2354 20.8711 14.5718 22.6992 15.2446L 22.6992 21.167C 20.8711 20.0752 18.7891 19.5293 16.4531 19.5293C 13.8887 19.5293 11.8193 20.3354 10.2451 21.9478C 8.6709 23.5601 7.88379 25.7437 7.88379 28.4985C 7.88379 31.1392 8.62646 33.2466 10.1118 34.8208C 11.5972 36.3823 13.5967 37.1631 16.1104 37.1631C 18.5098 37.1631 20.7061 36.5791 22.6992 35.4111L 22.6992 41.0288ZM 36.1626 42.4761C 32.9126 42.4761 30.3545 41.5684 28.4883 39.7529C 26.6348 37.9248 25.708 35.4492 25.708 32.3262C 25.708 29.1016 26.6729 26.5815 28.6025 24.7661C 30.5322 22.938 33.1411 22.0239 36.4292 22.0239C 39.6665 22.0239 42.2056 22.938 44.0464 24.7661C 45.8872 26.5815 46.8076 28.9873 46.8076 31.9834C 46.8076 35.2207 45.8555 37.7788 43.9512 39.6577C 42.0596 41.5366 39.4634 42.4761 36.1626 42.4761ZM 36.3149 26.6323C 34.8931 26.6323 33.7886 27.1211 33.0015 28.0986C 32.2144 29.0762 31.8208 30.46 31.8208 32.25C 31.8208 35.9951 33.3315 37.8677 36.353 37.8677C 39.2349 37.8677 40.6758 35.9443 40.6758 32.0977C 40.6758 28.4541 39.2222 26.6323 36.3149 26.6323ZM 56.8052 39.7339L 56.729 39.7339L 56.729 50.9692L 50.7114 50.9692L 50.7114 22.5L 56.729 22.5L 56.729 25.4326L 56.8052 25.4326C 58.2905 23.1602 60.3789 22.0239 63.0703 22.0239C 65.5967 22.0239 67.5454 22.8936 68.9165 24.6328C 70.3003 26.3594 70.9922 28.7144 70.9922 31.6978C 70.9922 34.9478 70.186 37.5566 68.5737 39.5244C 66.9741 41.4922 64.8413 42.4761 62.1753 42.4761C 59.8267 42.4761 58.0366 41.562 56.8052 39.7339ZM 56.6338 31.7358L 56.6338 33.2974C 56.6338 34.6431 56.9893 35.7412 57.7002 36.5918C 58.4111 37.4424 59.3442 37.8677 60.4995 37.8677C 61.8706 37.8677 62.9307 37.3408 63.6797 36.2871C 64.4414 35.2207 64.8223 33.7163 64.8223 31.7739C 64.8223 28.3462 63.4893 26.6323 60.8232 26.6323C 59.5918 26.6323 58.5825 27.1021 57.7954 28.0415C 57.021 28.9683 56.6338 30.1997 56.6338 31.7358ZM 93.4629 22.5L 85.541 43.5615C 83.6367 48.627 80.7676 51.1597 76.9336 51.1597C 75.4736 51.1597 74.2739 50.9946 73.3345 50.6646L 73.3345 45.8657C 74.1343 46.3354 75.0039 46.5703 75.9434 46.5703C 77.4922 46.5703 78.5713 45.8403 79.1807 44.3804L 80.209 41.9619L 72.2871 22.5L 78.9521 22.5L 82.5894 34.3638C 82.8179 35.1001 82.9956 35.9697 83.1226 36.9727L 83.1987 36.9727C 83.313 36.2363 83.5225 35.3794 83.8271 34.4019L 87.5024 22.5L 93.4629 22.5Z" transform="translate(288 316)" fill="black"/>
</g>
<g id="Paste">
<path d="M 9.27393 32.5928L 9.27393 42L 3.12305 42L 3.12305 14.6924L 12.7588 14.6924C 19.6396 14.6924 23.0801 17.5933 23.0801 23.395C 23.0801 26.1372 22.0898 28.3589 20.1094 30.0601C 18.1416 31.7485 15.5073 32.5928 12.2065 32.5928L 9.27393 32.5928ZM 9.27393 19.415L 9.27393 27.9272L 11.6924 27.9272C 14.9678 27.9272 16.6055 26.4927 16.6055 23.6235C 16.6055 20.8179 14.9678 19.415 11.6924 19.415L 9.27393 19.415ZM 41.7231 42L 36.0293 42L 36.0293 39.2007L 35.9531 39.2007C 34.6455 41.3843 32.7095 42.4761 30.145 42.4761C 28.2534 42.4761 26.7617 41.9429 25.6699 40.8765C 24.5908 39.7974 24.0513 38.3628 24.0513 36.5728C 24.0513 32.7896 26.292 30.606 30.7734 30.022L 36.0674 29.3174C 36.0674 27.1846 34.9121 26.1182 32.6016 26.1182C 30.2783 26.1182 28.0693 26.8101 25.9746 28.1938L 25.9746 23.6616C 26.8125 23.23 27.9551 22.8491 29.4023 22.519C 30.8623 22.189 32.189 22.0239 33.3823 22.0239C 38.9429 22.0239 41.7231 24.7979 41.7231 30.3457L 41.7231 42ZM 36.0674 34.0781L 36.0674 32.7642L 32.5254 33.2212C 30.5703 33.4751 29.5928 34.3574 29.5928 35.8682C 29.5928 36.5537 29.8276 37.1187 30.2974 37.563C 30.7798 37.9946 31.4272 38.2104 32.2397 38.2104C 33.3696 38.2104 34.29 37.8232 35.001 37.0488C 35.7119 36.2617 36.0674 35.2715 36.0674 34.0781ZM 45.208 41.4858L 45.208 36.6108C 46.1982 37.2075 47.1821 37.6519 48.1597 37.9438C 49.1499 38.2358 50.083 38.3818 50.959 38.3818C 52.0254 38.3818 52.8633 38.2358 53.4727 37.9438C 54.0947 37.6519 54.4058 37.2075 54.4058 36.6108C 54.4058 36.23 54.2661 35.9126 53.9868 35.6587C 53.7075 35.4048 53.3457 35.1826 52.9014 34.9922C 52.4697 34.8018 51.9937 34.6304 51.4731 34.478C 50.9526 34.3257 50.4512 34.1543 49.9688 33.9639C 49.1943 33.6719 48.5088 33.3608 47.9121 33.0308C 47.3281 32.688 46.833 32.2944 46.4268 31.8501C 46.0332 31.4058 45.7285 30.8916 45.5127 30.3076C 45.3096 29.7236 45.208 29.0317 45.208 28.2319C 45.208 27.1401 45.4429 26.2007 45.9126 25.4136C 46.395 24.6265 47.0298 23.9854 47.8169 23.4902C 48.6167 22.9824 49.5244 22.6143 50.54 22.3857C 51.5684 22.1445 52.6348 22.0239 53.7393 22.0239C 54.6025 22.0239 55.4785 22.0938 56.3672 22.2334C 57.2559 22.3604 58.1318 22.5508 58.9951 22.8047L 58.9951 27.4512C 58.2334 27.0068 57.4146 26.6768 56.5386 26.4609C 55.6753 26.2324 54.8247 26.1182 53.9868 26.1182C 53.5933 26.1182 53.2188 26.1562 52.8633 26.2324C 52.5205 26.2959 52.2158 26.3975 51.9492 26.5371C 51.6826 26.6641 51.4731 26.8354 51.3208 27.0513C 51.1685 27.2544 51.0923 27.4893 51.0923 27.7559C 51.0923 28.1113 51.2065 28.416 51.4351 28.6699C 51.6636 28.9238 51.9619 29.146 52.3301 29.3364C 52.6982 29.5142 53.1045 29.6792 53.5488 29.8315C 54.0059 29.9712 54.4565 30.1172 54.9009 30.2695C 55.7007 30.5488 56.4243 30.8535 57.0718 31.1836C 57.7192 31.5137 58.2715 31.9009 58.7285 32.3452C 59.1982 32.7896 59.5537 33.3101 59.7949 33.9067C 60.0488 34.5034 60.1758 35.2144 60.1758 36.0396C 60.1758 37.1948 59.9219 38.1851 59.4141 39.0103C 58.9189 39.8228 58.2524 40.4893 57.4146 41.0098C 56.5894 41.5176 55.6309 41.8857 54.5391 42.1143C 53.46 42.3555 52.3364 42.4761 51.1685 42.4761C 49.0229 42.4761 47.0361 42.146 45.208 41.4858ZM 75.4482 41.7715C 74.5596 42.2412 73.2202 42.4761 71.4302 42.4761C 67.1899 42.4761 65.0698 40.2734 65.0698 35.8682L 65.0698 26.937L 61.9087 26.937L 61.9087 22.5L 65.0698 22.5L 65.0698 18.2915L 71.0684 16.5776L 71.0684 22.5L 75.4482 22.5L 75.4482 26.937L 71.0684 26.937L 71.0684 34.8208C 71.0684 36.8521 71.8745 37.8677 73.4868 37.8677C 74.1216 37.8677 74.7754 37.6836 75.4482 37.3154L 75.4482 41.7715ZM 96.2241 33.9639L 83.5034 33.9639C 83.7065 36.7949 85.4902 38.2104 88.8545 38.2104C 91 38.2104 92.8853 37.7026 94.5103 36.687L 94.5103 41.0288C 92.7075 41.9937 90.3652 42.4761 87.4834 42.4761C 84.335 42.4761 81.8911 41.6064 80.1519 39.8672C 78.4126 38.1152 77.543 35.6777 77.543 32.5547C 77.543 29.3174 78.4824 26.7529 80.3613 24.8613C 82.2402 22.9697 84.5508 22.0239 87.293 22.0239C 90.1367 22.0239 92.333 22.8682 93.8818 24.5566C 95.4434 26.2451 96.2241 28.5366 96.2241 31.4312L 96.2241 33.9639ZM 90.6445 30.2695C 90.6445 27.4766 89.5146 26.0801 87.2549 26.0801C 86.29 26.0801 85.4521 26.48 84.7412 27.2798C 84.043 28.0796 83.6177 29.0762 83.4653 30.2695L 90.6445 30.2695Z" transform="translate(527 316)" fill="black"/>
</g>
<g id="Save">
<path d="M 1.86621 40.9526L 1.86621 34.8589C 2.9707 35.7856 4.17041 36.4839 5.46533 36.9536C 6.76025 37.4106 8.06787 37.6392 9.38818 37.6392C 10.1626 37.6392 10.8354 37.5693 11.4067 37.4297C 11.9907 37.29 12.4731 37.0996 12.854 36.8584C 13.2476 36.6045 13.5396 36.3125 13.73 35.9824C 13.9204 35.6396 14.0156 35.2715 14.0156 34.8779C 14.0156 34.3447 13.8633 33.8687 13.5586 33.4497C 13.2539 33.0308 12.835 32.6436 12.3018 32.2881C 11.7812 31.9326 11.1592 31.5898 10.4355 31.2598C 9.71191 30.9297 8.93115 30.5933 8.09326 30.2505C 5.96045 29.3618 4.36719 28.2764 3.31348 26.9941C 2.27246 25.7119 1.75195 24.1631 1.75195 22.3477C 1.75195 20.9258 2.0376 19.707 2.60889 18.6914C 3.18018 17.6631 3.95459 16.8188 4.93213 16.1587C 5.92236 15.4985 7.06494 15.0161 8.35986 14.7114C 9.65479 14.394 11.0259 14.2354 12.4731 14.2354C 13.895 14.2354 15.1519 14.3242 16.2437 14.502C 17.3481 14.667 18.3638 14.9272 19.2905 15.2827L 19.2905 20.9766C 18.8335 20.6592 18.332 20.3799 17.7861 20.1387C 17.2529 19.8975 16.7007 19.7007 16.1294 19.5483C 15.5581 19.3833 14.9868 19.2627 14.4155 19.1865C 13.8569 19.1104 13.3237 19.0723 12.8159 19.0723C 12.1177 19.0723 11.4829 19.1421 10.9116 19.2817C 10.3403 19.4087 9.85791 19.5928 9.46436 19.834C 9.0708 20.0752 8.76611 20.3672 8.55029 20.71C 8.33447 21.04 8.22656 21.4146 8.22656 21.8335C 8.22656 22.2905 8.34717 22.7031 8.58838 23.0713C 8.82959 23.4268 9.17236 23.7695 9.6167 24.0996C 10.061 24.417 10.6006 24.7344 11.2354 25.0518C 11.8701 25.3564 12.5874 25.6738 13.3872 26.0039C 14.479 26.4609 15.4565 26.9497 16.3198 27.4702C 17.1958 27.978 17.9448 28.5557 18.5669 29.2031C 19.189 29.8506 19.665 30.5933 19.9951 31.4312C 20.3252 32.2563 20.4902 33.2212 20.4902 34.3257C 20.4902 35.8491 20.1982 37.1313 19.6143 38.1724C 19.043 39.2007 18.2622 40.0386 17.272 40.686C 16.2817 41.3208 15.1265 41.7778 13.8062 42.0571C 12.4985 42.3364 11.1147 42.4761 9.65479 42.4761C 8.15674 42.4761 6.72852 42.3491 5.37012 42.0952C 4.02441 41.8413 2.85645 41.4604 1.86621 40.9526ZM 40.6187 42L 34.9248 42L 34.9248 39.2007L 34.8486 39.2007C 33.541 41.3843 31.605 42.4761 29.0405 42.4761C 27.1489 42.4761 25.6572 41.9429 24.5654 40.8765C 23.4863 39.7974 22.9468 38.3628 22.9468 36.5728C 22.9468 32.7896 25.1875 30.606 29.6689 30.022L 34.9629 29.3174C 34.9629 27.1846 33.8076 26.1182 31.4971 26.1182C 29.1738 26.1182 26.9648 26.8101 24.8701 28.1938L 24.8701 23.6616C 25.708 23.23 26.8506 22.8491 28.2979 22.519C 29.7578 22.189 31.0845 22.0239 32.2778 22.0239C 37.8384 22.0239 40.6187 24.7979 40.6187 30.3457L 40.6187 42ZM 34.9629 34.0781L 34.9629 32.7642L 31.4209 33.2212C 29.4658 33.4751 28.4883 34.3574 28.4883 35.8682C 28.4883 36.5537 28.7231 37.1187 29.1929 37.563C 29.6753 37.9946 30.3228 38.2104 31.1353 38.2104C 32.2651 38.2104 33.1855 37.8232 33.8965 37.0488C 34.6074 36.2617 34.9629 35.2715 34.9629 34.0781ZM 63.9463 22.5L 56.6909 42L 49.8354 42L 42.9229 22.5L 49.3594 22.5L 52.749 34.5161C 53.1299 35.8745 53.3521 37.0298 53.4155 37.9819L 53.4917 37.9819C 53.5806 37.0806 53.8154 35.9634 54.1963 34.6304L 57.6621 22.5L 63.9463 22.5ZM 83.6558 33.9639L 70.9351 33.9639C 71.1382 36.7949 72.9219 38.2104 76.2861 38.2104C 78.4316 38.2104 80.3169 37.7026 81.9419 36.687L 81.9419 41.0288C 80.1392 41.9937 77.7969 42.4761 74.915 42.4761C 71.7666 42.4761 69.3228 41.6064 67.5835 39.8672C 65.8442 38.1152 64.9746 35.6777 64.9746 32.5547C 64.9746 29.3174 65.9141 26.7529 67.793 24.8613C 69.6719 22.9697 71.9824 22.0239 74.7246 22.0239C 77.5684 22.0239 79.7646 22.8682 81.3135 24.5566C 82.875 26.2451 83.6558 28.5366 83.6558 31.4312L 83.6558 33.9639ZM 78.0762 30.2695C 78.0762 27.4766 76.9463 26.0801 74.6865 26.0801C 73.7217 26.0801 72.8838 26.48 72.1729 27.2798C 71.4746 28.0796 71.0493 29.0762 70.897 30.2695L 78.0762 30.2695Z" transform="translate(769 316)" fill="black"/>
</g>
<g id="&#238;&#163;&#134;">
<path d="M 85.7344 93C 87.793 93.0807 89.7305 93.5449 91.5469 94.3926C 93.4036 95.1999 94.998 96.3099 96.3301 97.7227C 97.7025 99.1354 98.7721 100.77 99.5391 102.627C 100.346 104.484 100.75 106.441 100.75 108.5C 100.75 110.639 100.326 112.658 99.4785 114.555C 98.6712 116.411 97.5612 118.046 96.1484 119.459C 94.776 120.831 93.1413 121.941 91.2441 122.789C 89.347 123.596 87.349 124 85.25 124C 83.1107 124 81.0924 123.596 79.1953 122.789C 77.3385 121.941 75.7038 120.831 74.291 119.459C 72.9186 118.046 71.8086 116.411 70.9609 114.555C 70.1536 112.658 69.75 110.639 69.75 108.5C 69.75 105.634 70.4766 102.97 71.9297 100.508C 73.4232 98.0456 75.4414 96.1484 77.9844 94.8164L 61.8789 62.666L 45.834 94.6953C 47.1257 95.3815 48.276 96.209 49.2852 97.1777C 50.3346 98.1465 51.2227 99.2363 51.9492 100.447C 52.6758 101.658 53.2409 102.95 53.6445 104.322C 54.0482 105.654 54.25 107.047 54.25 108.5C 54.25 110.639 53.8262 112.658 52.9785 114.555C 52.1712 116.411 51.0612 118.046 49.6484 119.459C 48.276 120.831 46.6413 121.941 44.7441 122.789C 42.847 123.596 40.849 124 38.75 124C 36.6107 124 34.5924 123.596 32.6953 122.789C 30.8385 121.941 29.2038 120.831 27.791 119.459C 26.4186 118.046 25.3086 116.411 24.4609 114.555C 23.6536 112.658 23.25 110.639 23.25 108.5C 23.25 106.441 23.6335 104.504 24.4004 102.688C 25.1673 100.831 26.2168 99.2161 27.5488 97.8438C 28.8809 96.431 30.4349 95.3008 32.2109 94.4531C 34.0273 93.6055 35.9648 93.1211 38.0234 93L 57.5195 53.8867L 36.9941 12.8359L 40.5059 2.24023L 61.8789 45.1074L 83.252 2.24023L 86.7637 12.8359L 66.2383 53.8867L 85.7344 93ZM 38.75 116.25C 39.8398 116.25 40.849 116.048 41.7773 115.645C 42.7057 115.241 43.513 114.696 44.1992 114.01C 44.9258 113.283 45.4909 112.456 45.8945 111.527C 46.2982 110.599 46.5 109.59 46.5 108.5C 46.5 107.41 46.2982 106.401 45.8945 105.473C 45.4909 104.544 44.9258 103.737 44.1992 103.051C 43.513 102.324 42.7057 101.759 41.7773 101.355C 40.849 100.952 39.8398 100.75 38.75 100.75C 37.6602 100.75 36.651 100.952 35.7227 101.355C 34.7943 101.759 33.9668 102.324 33.2402 103.051C 32.554 103.737 32.0091 104.544 31.6055 105.473C 31.2018 106.401 31 107.41 31 108.5C 31 109.59 31.2018 110.599 31.6055 111.527C 32.0091 112.456 32.554 113.283 33.2402 114.01C 33.9668 114.696 34.7943 115.241 35.7227 115.645C 36.651 116.048 37.6602 116.25 38.75 116.25ZM 85.25 116.25C 86.3398 116.25 87.349 116.048 88.2773 115.645C 89.2057 115.241 90.013 114.696 90.6992 114.01C 91.4258 113.283 91.9909 112.456 92.3945 111.527C 92.7982 110.599 93 109.59 93 108.5C 93 107.41 92.7982 106.401 92.3945 105.473C 91.9909 104.544 91.4258 103.737 90.6992 103.051C 90.013 102.324 89.2057 101.759 88.2773 101.355C 87.349 100.952 86.3398 100.75 85.25 100.75C 84.1602 100.75 83.151 100.952 82.2227 101.355C 81.2943 101.759 80.4668 102.324 79.7402 103.051C 79.054 103.737 78.5091 104.544 78.1055 105.473C 77.7018 106.401 77.5 107.41 77.5 108.5C 77.5 109.59 77.7018 110.599 78.1055 111.527C 78.5091 112.456 79.054 113.283 79.7402 114.01C 80.4668 114.696 81.2943 115.241 82.2227 115.645C 83.151 116.048 84.1602 116.25 85.25 116.25Z" transform="translate(59 139)" fill="black"/>
</g>
<g id="&#238;&#168;&#181;">
<path d="M 108.5 23.25C 109.59 23.25 110.599 23.4518 111.527 23.8555C 112.456 24.2591 113.263 24.8242 113.949 25.5508C 114.676 26.237 115.241 27.0443 115.645 27.9727C 116.048 28.901 116.25 29.9102 116.25 31L 116.25 116.25L 33.2402 116.25L 23.25 106.199L 23.25 93L 17.7402 93L 7.75 82.9492L 7.75 15.5C 7.75 14.4102 7.95182 13.401 8.35547 12.4727C 8.75911 11.5443 9.30404 10.737 9.99023 10.0508C 10.7168 9.32422 11.5443 8.75911 12.4727 8.35547C 13.401 7.95182 14.4102 7.75 15.5 7.75L 85.25 7.75C 86.3398 7.75 87.349 7.95182 88.2773 8.35547C 89.2057 8.75911 90.013 9.32422 90.6992 10.0508C 91.4258 10.737 91.9909 11.5443 92.3945 12.4727C 92.7982 13.401 93 14.4102 93 15.5L 93 23.25L 108.5 23.25ZM 46.5 62L 93 62L 93 31L 46.5 31L 46.5 62ZM 23.25 85.25L 23.25 31C 23.25 29.9102 23.4518 28.901 23.8555 27.9727C 24.2591 27.0443 24.804 26.237 25.4902 25.5508C 26.2168 24.8242 27.0443 24.2591 27.9727 23.8555C 28.901 23.4518 29.9102 23.25 31 23.25L 85.25 23.25L 85.25 15.5L 15.5 15.5L 15.5 79.7402L 21.0098 85.25L 23.25 85.25ZM 85.25 85.25L 46.5 85.25L 46.5 108.5L 54.25 108.5L 54.25 93L 62 93L 62 108.5L 85.25 108.5L 85.25 85.25ZM 108.5 31L 100.75 31L 100.75 69.75L 38.75 69.75L 38.75 31L 31 31L 31 102.99L 36.5098 108.5L 38.75 108.5L 38.75 77.5L 93 77.5L 93 108.5L 108.5 108.5L 108.5 31Z" transform="translate(285 139)" fill="black"/>
</g>
<g id="&#238;&#157;&#191;">
<path d="M 116.25 46.5L 116.25 124L 54.25 124L 54.25 116.25L 7.75 116.25L 7.75 15.5L 38.75 15.5C 38.75 13.401 39.1536 11.403 39.9609 9.50586C 40.8086 7.60872 41.9186 5.97396 43.291 4.60156C 44.7038 3.1888 46.3385 2.07878 48.1953 1.27148C 50.0924 0.423828 52.1107 0 54.25 0C 56.349 0 58.347 0.423828 60.2441 1.27148C 62.1413 2.07878 63.776 3.1888 65.1484 4.60156C 66.5612 5.97396 67.6712 7.60872 68.4785 9.50586C 69.3262 11.403 69.75 13.401 69.75 15.5L 100.75 15.5L 100.75 46.5L 116.25 46.5ZM 31 23.25L 31 31L 77.5 31L 77.5 23.25L 62 23.25C 62 22.2409 62.0202 21.1712 62.0605 20.041C 62.1009 18.8704 62.0807 17.7201 62 16.5898C 61.9193 15.4193 61.7376 14.3092 61.4551 13.2598C 61.2129 12.1699 60.8092 11.2214 60.2441 10.4141C 59.679 9.60677 58.9121 8.96094 57.9434 8.47656C 56.9746 7.99219 55.7435 7.75 54.25 7.75C 51.9896 7.75 50.3145 8.27474 49.2246 9.32422C 48.1751 10.3737 47.4284 11.6855 46.9844 13.2598C 46.5807 14.7936 46.3991 16.4688 46.4395 18.2852C 46.4798 20.1016 46.5 21.7565 46.5 23.25L 31 23.25ZM 54.25 108.5L 54.25 46.5L 93 46.5L 93 23.25L 85.25 23.25L 85.25 38.75L 23.25 38.75L 23.25 23.25L 15.5 23.25L 15.5 108.5L 54.25 108.5ZM 108.5 54.25L 62 54.25L 62 116.25L 108.5 116.25L 108.5 54.25Z" transform="translate(511 139)" fill="black"/>
</g>
<g id="&#238;&#157;&#142;">
<path d="M 108.5 7.75C 109.59 7.75 110.599 7.95182 111.527 8.35547C 112.456 8.75911 113.263 9.32422 113.949 10.0508C 114.676 10.737 115.241 11.5443 115.645 12.4727C 116.048 13.401 116.25 14.4102 116.25 15.5L 116.25 116.25L 21.6152 116.25L 7.75 102.324L 7.75 15.5C 7.75 14.4102 7.95182 13.401 8.35547 12.4727C 8.75911 11.5443 9.30404 10.737 9.99023 10.0508C 10.7168 9.32422 11.5443 8.75911 12.4727 8.35547C 13.401 7.95182 14.4102 7.75 15.5 7.75L 108.5 7.75ZM 31 54.25L 93 54.25L 93 15.5L 31 15.5L 31 54.25ZM 77.5 85.25L 38.75 85.25L 38.75 108.5L 46.5 108.5L 46.5 93L 54.25 93L 54.25 108.5L 77.5 108.5L 77.5 85.25ZM 108.5 15.5L 100.75 15.5L 100.75 62L 23.25 62L 23.25 15.5L 15.5 15.5L 15.5 99.1152L 24.8242 108.5L 31 108.5L 31 77.5L 85.25 77.5L 85.25 108.5L 108.5 108.5L 108.5 15.5Z" transform="translate(737 139)" fill="black"/>
</g>
</g>
</g>
<defs>

<clipPath id="clip0">
<rect width="937" height="508" fill="white"/>
</clipPath>

</defs>
</svg>

