<svg xmlns="http://www.w3.org/2000/svg" viewBox="0 0 1152 505"><defs><style>.cls-1{isolation:isolate;}.cls-2{fill:#eaeaea;}.cls-3{fill:#cf90ff;}.cls-4{fill:#3b2e58;}.cls-5{fill:#fff;}.cls-6{mix-blend-mode:soft-light;}</style></defs><title>scaling-chart</title><g class="cls-1"><g id="Layer_1" data-name="Layer 1"><g id="Rectangle_24" data-name="Rectangle 24"><path id="path0_fill" data-name="path0 fill" class="cls-2" d="M0,0H1152V505H0Z"/></g><g id="Rectangle_23" data-name="Rectangle 23"><path id="path1_fill" data-name="path1 fill" class="cls-3" d="M202,181.07l58.13-15.16V282.15L202,267Z"/></g><g id="Rectangle_23.1" data-name="Rectangle 23.1"><path id="path2_fill" data-name="path2 fill" class="cls-3" d="M315.7,164.26,477.46,123V325.11L315.7,283.8Z"/></g><g id="Rectangle_23.2" data-name="Rectangle 23.2"><path id="path3_fill" data-name="path3 fill" class="cls-3" d="M538.6,138.34,766.08,80V365.54L538.6,307.19Z"/></g><g id="Rectangle_23.3" data-name="Rectangle 23.3"><path id="path4_fill" data-name="path4 fill" class="cls-3" d="M826.34,105,1152.4,21.87V428.72L826.34,345.58Z"/></g><g id="Phone"><path id="path5_fill" data-name="path5 fill" class="cls-4" d="M200.53,446.09v3.8H198.8V439.41H202a4.23,4.23,0,0,1,2.8.84,2.94,2.94,0,0,1,1,2.37,3.28,3.28,0,0,1-1,2.5,4,4,0,0,1-2.8,1Zm0-5.25v3.83h1.13a2.47,2.47,0,0,0,1.7-.52,1.83,1.83,0,0,0,.58-1.46c0-1.23-.71-1.85-2.14-1.85Z"/><path id="path6_fill" data-name="path6 fill" class="cls-4" d="M214,449.89h-1.69V445.8c0-1.48-.5-2.22-1.49-2.22a1.54,1.54,0,0,0-1.25.64,2.55,2.55,0,0,0-.52,1.64v4h-1.7V438.81h1.7v4.84h0a2.68,2.68,0,0,1,2.43-1.42c1.66,0,2.49,1,2.49,3Z"/><path id="path7_fill" data-name="path7 fill" class="cls-4" d="M219.39,450.06a3.74,3.74,0,0,1-2.77-1,3.8,3.8,0,0,1-1-2.79,3.68,3.68,0,0,1,4-4,3.6,3.6,0,0,1,2.73,1,4,4,0,0,1,1,2.86,3.91,3.91,0,0,1-1.06,2.87A3.79,3.79,0,0,1,219.39,450.06Zm.08-6.48a1.9,1.9,0,0,0-1.57.7,2.87,2.87,0,0,0-.58,1.91,2.78,2.78,0,0,0,.58,1.86,2,2,0,0,0,1.57.67,1.83,1.83,0,0,0,1.53-.67,2.92,2.92,0,0,0,.54-1.89,3,3,0,0,0-.54-1.9A1.84,1.84,0,0,0,219.47,443.58Z"/><path id="path8_fill" data-name="path8 fill" class="cls-4" d="M231.67,449.89H230v-4.22c0-1.4-.49-2.09-1.48-2.09a1.6,1.6,0,0,0-1.28.58,2.11,2.11,0,0,0-.51,1.46v4.27H225v-7.48h1.7v1.24h0a2.66,2.66,0,0,1,2.43-1.42,2.26,2.26,0,0,1,1.86.8,3.52,3.52,0,0,1,.64,2.28Z"/><path id="path9_fill" data-name="path9 fill" class="cls-4" d="M240.08,446.61H235a2.16,2.16,0,0,0,.64,1.6,2.42,2.42,0,0,0,1.68.56,3.69,3.69,0,0,0,2.2-.72v1.37a5,5,0,0,1-2.7.64,3.39,3.39,0,0,1-2.6-1,4.13,4.13,0,0,1-.93-2.87,4,4,0,0,1,1-2.85,3.4,3.4,0,0,1,2.57-1.1,2.94,2.94,0,0,1,2.37,1,4.1,4.1,0,0,1,.84,2.74Zm-1.63-1.2A2.23,2.23,0,0,0,238,444a1.46,1.46,0,0,0-1.17-.51,1.7,1.7,0,0,0-1.25.53,2.51,2.51,0,0,0-.62,1.4Z"/></g><g id="Tablet"><path id="path10_fill" data-name="path10 fill" class="cls-4" d="M370.05,440.89h-3v9H365.3v-9h-3v-1.48h7.75Z"/><path id="path11_fill" data-name="path11 fill" class="cls-4" d="M375.69,449.89h-1.64v-1.17h0a2.49,2.49,0,0,1-2.27,1.34,2.38,2.38,0,0,1-1.73-.6,2.09,2.09,0,0,1-.63-1.58c0-1.41.82-2.24,2.44-2.47l2.22-.31c0-1.07-.5-1.6-1.51-1.6a3.59,3.59,0,0,0-2.42.92v-1.49a5.34,5.34,0,0,1,2.74-.7c1.89,0,2.83.93,2.83,2.79Zm-1.64-3.68-1.57.22a2.41,2.41,0,0,0-1.1.36,1.21,1.21,0,0,0,0,1.69,1.36,1.36,0,0,0,.92.3,1.66,1.66,0,0,0,1.27-.54,2,2,0,0,0,.51-1.38Z"/><path id="path12_fill" data-name="path12 fill" class="cls-4" d="M379.49,448.81h0v1.08h-1.69V438.81h1.69v4.91h0a2.79,2.79,0,0,1,2.54-1.49,2.69,2.69,0,0,1,2.22,1,4.2,4.2,0,0,1,.8,2.69,4.71,4.71,0,0,1-.9,3,3,3,0,0,1-2.45,1.12A2.42,2.42,0,0,1,379.49,448.81Zm0-3v.93a2,2,0,0,0,.51,1.39,1.85,1.85,0,0,0,2.81-.16,3.43,3.43,0,0,0,.54-2.06,2.71,2.71,0,0,0-.5-1.72,1.64,1.64,0,0,0-1.36-.63,1.84,1.84,0,0,0-1.46.65A2.38,2.38,0,0,0,379.45,445.83Z"/><path id="path13_fill" data-name="path13 fill" class="cls-4" d="M388.48,449.89h-1.7V438.81h1.7Z"/><path id="path14_fill" data-name="path14 fill" class="cls-4" d="M397,446.61h-5.1a2.16,2.16,0,0,0,.64,1.6,2.42,2.42,0,0,0,1.68.56,3.69,3.69,0,0,0,2.2-.72v1.37a5.06,5.06,0,0,1-2.71.64,3.38,3.38,0,0,1-2.59-1,4.13,4.13,0,0,1-.94-2.87,4,4,0,0,1,1-2.85,3.42,3.42,0,0,1,2.58-1.1,2.94,2.94,0,0,1,2.37,1A4.1,4.1,0,0,1,397,446Zm-1.64-1.2A2.17,2.17,0,0,0,395,444a1.43,1.43,0,0,0-1.17-.51,1.68,1.68,0,0,0-1.24.53,2.51,2.51,0,0,0-.62,1.4Z"/><path id="path15_fill" data-name="path15 fill" class="cls-4" d="M402.59,449.81a3,3,0,0,1-1.31.24c-1.45,0-2.18-.69-2.18-2.08v-4.23h-1.24v-1.33h1.24v-1.73l1.7-.49v2.22h1.79v1.33H400.8v3.74a1.49,1.49,0,0,0,.24.95,1,1,0,0,0,.8.28,1.15,1.15,0,0,0,.75-.25Z"/></g><g id="PC_Laptop" data-name="PC/Laptop"><path id="path16_fill" data-name="path16 fill" class="cls-4" d="M610.43,446.09v3.8H608.7V439.41h3.18a4.19,4.19,0,0,1,2.79.84,2.91,2.91,0,0,1,1,2.37,3.28,3.28,0,0,1-1,2.5,4,4,0,0,1-2.8,1Zm0-5.25v3.83h1.13a2.47,2.47,0,0,0,1.7-.52,1.83,1.83,0,0,0,.58-1.46c0-1.23-.71-1.85-2.15-1.85Z"/><path id="path17_fill" data-name="path17 fill" class="cls-4" d="M624.76,449.45a6.35,6.35,0,0,1-3,.61,4.81,4.81,0,0,1-3.65-1.44,5.2,5.2,0,0,1-1.37-3.77,5.48,5.48,0,0,1,1.54-4.06,5.26,5.26,0,0,1,3.91-1.55,6.37,6.37,0,0,1,2.52.43v1.72a4.51,4.51,0,0,0-2.34-.63,3.68,3.68,0,0,0-2.76,1.09,4,4,0,0,0-1,2.91,3.82,3.82,0,0,0,1,2.76,3.44,3.44,0,0,0,2.59,1,4.66,4.66,0,0,0,2.58-.7Z"/><path id="path18_fill" data-name="path18 fill" class="cls-4" d="M631.78,439.41l-5.06,12.21h-1.54l5-12.21Z"/><path id="path19_fill" data-name="path19 fill" class="cls-4" d="M638.74,449.89h-5.8V439.41h1.74v9h4.06Z"/><path id="path20_fill" data-name="path20 fill" class="cls-4" d="M645.81,449.89h-1.64v-1.17h0a2.5,2.5,0,0,1-2.28,1.34,2.41,2.41,0,0,1-1.73-.6,2.1,2.1,0,0,1-.62-1.58c0-1.41.82-2.24,2.44-2.47l2.22-.31c0-1.07-.5-1.6-1.52-1.6a3.59,3.59,0,0,0-2.41.92v-1.49a5.34,5.34,0,0,1,2.74-.7c1.88,0,2.83.93,2.83,2.79Zm-1.64-3.68-1.57.22a2.53,2.53,0,0,0-1.1.36,1.18,1.18,0,0,0,0,1.69,1.33,1.33,0,0,0,.91.3,1.66,1.66,0,0,0,1.28-.54,2,2,0,0,0,.51-1.38Z"/><path id="path21_fill" data-name="path21 fill" class="cls-4" d="M649.61,448.78h0v4.55h-1.7V442.41h1.7v1.31h0a2.79,2.79,0,0,1,2.54-1.49,2.69,2.69,0,0,1,2.22,1,4.22,4.22,0,0,1,.8,2.69,4.66,4.66,0,0,1-.9,3,3,3,0,0,1-2.46,1.12A2.44,2.44,0,0,1,649.61,448.78Zm-.05-2.95v.93a2,2,0,0,0,.52,1.39,1.85,1.85,0,0,0,2.81-.16,3.42,3.42,0,0,0,.54-2.05,2.66,2.66,0,0,0-.51-1.73,1.62,1.62,0,0,0-1.35-.63,1.84,1.84,0,0,0-1.46.65A2.39,2.39,0,0,0,649.56,445.83Z"/><path id="path22_fill" data-name="path22 fill" class="cls-4" d="M660.84,449.81a3,3,0,0,1-1.3.24c-1.46,0-2.18-.69-2.18-2.08v-4.23h-1.25v-1.33h1.25v-1.73l1.69-.49v2.22h1.79v1.33h-1.79v3.74a1.42,1.42,0,0,0,.25.95,1,1,0,0,0,.8.28,1.12,1.12,0,0,0,.74-.25Z"/><path id="path23_fill" data-name="path23 fill" class="cls-4" d="M665.53,450.06a3.73,3.73,0,0,1-2.76-1,3.8,3.8,0,0,1-1-2.79,3.94,3.94,0,0,1,1.08-2.94,4,4,0,0,1,2.91-1.06,3.6,3.6,0,0,1,2.73,1,4,4,0,0,1,1,2.86,4,4,0,0,1-1.06,2.87A3.82,3.82,0,0,1,665.53,450.06Zm.08-6.48a1.93,1.93,0,0,0-1.57.7,2.92,2.92,0,0,0-.57,1.91,2.78,2.78,0,0,0,.58,1.86,2,2,0,0,0,1.56.67,1.85,1.85,0,0,0,1.54-.67,2.92,2.92,0,0,0,.54-1.89,3,3,0,0,0-.54-1.9A1.86,1.86,0,0,0,665.61,443.58Z"/><path id="path24_fill" data-name="path24 fill" class="cls-4" d="M672.88,448.78h0v4.55h-1.69V442.41h1.69v1.31h0a2.79,2.79,0,0,1,2.54-1.49,2.73,2.73,0,0,1,2.23,1,4.22,4.22,0,0,1,.79,2.69,4.66,4.66,0,0,1-.9,3,3,3,0,0,1-2.45,1.12A2.45,2.45,0,0,1,672.88,448.78Zm0-2.95v.93a2,2,0,0,0,.52,1.39,1.84,1.84,0,0,0,2.8-.16,3.42,3.42,0,0,0,.54-2.05,2.66,2.66,0,0,0-.5-1.73,1.62,1.62,0,0,0-1.35-.63,1.83,1.83,0,0,0-1.46.65A2.34,2.34,0,0,0,672.84,445.83Z"/></g><g id="Surface_Hub" data-name="Surface Hub"><path id="path25_fill" data-name="path25 fill" class="cls-4" d="M944.81,449.47v-1.79a2.39,2.39,0,0,0,.57.39,4.09,4.09,0,0,0,.71.3,6.17,6.17,0,0,0,.74.19,4.39,4.39,0,0,0,.69.06,3,3,0,0,0,1.63-.36,1.21,1.21,0,0,0,.54-1.06,1.12,1.12,0,0,0-.18-.64,1.86,1.86,0,0,0-.5-.51,5.88,5.88,0,0,0-.76-.43l-.93-.44c-.35-.19-.69-.38-1-.57a4.44,4.44,0,0,1-.81-.65,2.86,2.86,0,0,1-.53-.8,2.61,2.61,0,0,1-.19-1,2.39,2.39,0,0,1,.33-1.28,2.7,2.7,0,0,1,.88-.9,3.84,3.84,0,0,1,1.24-.53,6.07,6.07,0,0,1,1.42-.17,5.68,5.68,0,0,1,2.39.37v1.72a3.81,3.81,0,0,0-2.29-.65,4.13,4.13,0,0,0-.78.08,2.38,2.38,0,0,0-.68.24,1.36,1.36,0,0,0-.49.43,1,1,0,0,0-.19.63,1.28,1.28,0,0,0,.14.61,1.57,1.57,0,0,0,.43.47,4.7,4.7,0,0,0,.68.41c.28.14.59.28,1,.43s.7.39,1,.6a4.53,4.53,0,0,1,.85.7,3,3,0,0,1,.59.84,2.88,2.88,0,0,1-.11,2.4,2.47,2.47,0,0,1-.87.89,3.68,3.68,0,0,1-1.25.5,7.17,7.17,0,0,1-1.49.15,5.48,5.48,0,0,1-.65,0l-.79-.12a7.5,7.5,0,0,1-.75-.18A2.71,2.71,0,0,1,944.81,449.47Z"/><path id="path26_fill" data-name="path26 fill" class="cls-4" d="M959.78,449.89h-1.7V448.7h0a2.42,2.42,0,0,1-2.29,1.36c-1.77,0-2.65-1.06-2.65-3.18v-4.47h1.69v4.29c0,1.35.52,2,1.56,2a1.56,1.56,0,0,0,1.23-.56,2.09,2.09,0,0,0,.49-1.45v-4.3h1.7Z"/><path id="path27_fill" data-name="path27 fill" class="cls-4" d="M966.33,444a1.42,1.42,0,0,0-.88-.24,1.51,1.51,0,0,0-1.26.68,3,3,0,0,0-.51,1.85v3.58H962v-7.48h1.69V444h0a2.62,2.62,0,0,1,.76-1.23,1.72,1.72,0,0,1,1.16-.44,1.48,1.48,0,0,1,.7.13Z"/><path id="path28_fill" data-name="path28 fill" class="cls-4" d="M972.08,440.19a1.55,1.55,0,0,0-.78-.19c-.83,0-1.24.46-1.24,1.39v1h1.74v1.33h-1.73v6.15h-1.7v-6.15H967.1v-1.33h1.27v-1.22a2.36,2.36,0,0,1,.78-1.86,2.79,2.79,0,0,1,1.93-.68,3,3,0,0,1,1,.13Z"/><path id="path29_fill" data-name="path29 fill" class="cls-4" d="M978.75,449.89H977.1v-1.17h0a2.5,2.5,0,0,1-2.28,1.34,2.41,2.41,0,0,1-1.73-.6,2.12,2.12,0,0,1-.62-1.58c0-1.41.81-2.24,2.44-2.47l2.22-.32c0-1.06-.5-1.59-1.52-1.59a3.59,3.59,0,0,0-2.41.92v-1.49a5.33,5.33,0,0,1,2.73-.7c1.89,0,2.84.93,2.84,2.79Zm-1.64-3.68-1.57.22a2.37,2.37,0,0,0-1.1.36,1.18,1.18,0,0,0,0,1.69,1.33,1.33,0,0,0,.91.3,1.68,1.68,0,0,0,1.28-.54,2,2,0,0,0,.51-1.38Z"/><path id="path30_fill" data-name="path30 fill" class="cls-4" d="M986.18,449.54a4.15,4.15,0,0,1-2.13.52,3.59,3.59,0,0,1-2.69-1,3.68,3.68,0,0,1-1-2.7,4,4,0,0,1,1.1-3,3.92,3.92,0,0,1,2.94-1.13,4.25,4.25,0,0,1,1.8.36v1.58a2.72,2.72,0,0,0-1.66-.59,2.33,2.33,0,0,0-1.76.73,2.66,2.66,0,0,0-.69,1.9,2.59,2.59,0,0,0,.64,1.84,2.36,2.36,0,0,0,1.74.67,2.74,2.74,0,0,0,1.73-.65Z"/><path id="path31_fill" data-name="path31 fill" class="cls-4" d="M994.2,446.61h-5.1a2.16,2.16,0,0,0,.64,1.6,2.38,2.38,0,0,0,1.68.56,3.66,3.66,0,0,0,2.19-.72v1.37a5,5,0,0,1-2.7.64,3.38,3.38,0,0,1-2.59-1,4.09,4.09,0,0,1-.94-2.87,4,4,0,0,1,1-2.85,3.4,3.4,0,0,1,2.57-1.1,3,3,0,0,1,2.38,1,4.1,4.1,0,0,1,.84,2.74Zm-1.64-1.2a2.17,2.17,0,0,0-.43-1.42,1.43,1.43,0,0,0-1.17-.51,1.68,1.68,0,0,0-1.24.53,2.45,2.45,0,0,0-.62,1.4Z"/><path id="path32_fill" data-name="path32 fill" class="cls-4" d="M1008.54,449.89h-1.75v-4.55h-4.93v4.55h-1.74V439.41h1.74v4.41h4.93v-4.41h1.75Z"/><path id="path33_fill" data-name="path33 fill" class="cls-4" d="M1017.46,449.89h-1.7V448.7h0a2.42,2.42,0,0,1-2.29,1.36c-1.77,0-2.65-1.06-2.65-3.18v-4.47h1.69v4.29c0,1.35.52,2,1.56,2a1.56,1.56,0,0,0,1.23-.56,2.09,2.09,0,0,0,.49-1.45v-4.3h1.7Z"/><path id="path34_fill" data-name="path34 fill" class="cls-4" d="M1021.4,448.81h0v1.08h-1.7V438.81h1.7v4.91h0a2.78,2.78,0,0,1,2.54-1.49,2.67,2.67,0,0,1,2.21,1,4.15,4.15,0,0,1,.8,2.69,4.71,4.71,0,0,1-.89,3,3,3,0,0,1-2.46,1.12A2.41,2.41,0,0,1,1021.4,448.81Zm0-3v.93a2,2,0,0,0,.52,1.39,1.72,1.72,0,0,0,1.33.57,1.75,1.75,0,0,0,1.48-.73,3.43,3.43,0,0,0,.54-2.06,2.65,2.65,0,0,0-.51-1.72,1.62,1.62,0,0,0-1.35-.63,1.84,1.84,0,0,0-1.46.65A2.34,2.34,0,0,0,1021.35,445.83Z"/></g><g id="Group_35" data-name="Group 35"><g id="Ellipse_2" data-name="Ellipse 2"><path id="path35_fill" data-name="path35 fill" class="cls-5" d="M115.24,226.79a29.92,29.92,0,1,1-29.92-29.91A29.92,29.92,0,0,1,115.24,226.79Z"/></g><g id="Ellipse_3" data-name="Ellipse 3"><path id="path36_fill" data-name="path36 fill" class="cls-4" d="M113.37,227.69c0,5.78-2.82,10.47-6.29,10.47s-6.28-4.69-6.28-10.47,2.81-10.47,6.28-10.47S113.37,221.91,113.37,227.69Z"/></g></g><g id="Vector" class="cls-6"><path id="path37_fill" data-name="path37 fill" class="cls-5" d="M112.2,226.85l1039.79-60v109.8Z"/></g><g id="Vector-2" data-name="Vector" class="cls-6"><path id="path37_fill-2" data-name="path37 fill" class="cls-5" d="M110.88,226.85l1039.79-60v109.8Z"/></g><rect class="cls-3" x="396.58" y="160.09" width="80.88" height="123.71"/><rect class="cls-3" x="230.41" y="190.09" width="29.46" height="64.59"/><rect class="cls-3" x="652.27" y="160.09" width="113.67" height="123.71"/><rect class="cls-3" x="988.9" y="160.09" width="163.1" height="123.71"/><path class="cls-4" d="M951.6,237.24l-12.43-1v-2.7a18.77,18.77,0,0,1,.25-3.09,19.23,19.23,0,0,1,.67-2.69,17.09,17.09,0,0,1,1-2.39c.38-.75.79-1.47,1.23-2.18s.89-1.39,1.35-2.06.92-1.34,1.37-2,.81-1.29,1.16-1.92a12.91,12.91,0,0,0,.91-2,12,12,0,0,0,.59-2.14,13.45,13.45,0,0,0,.22-2.45,11.51,11.51,0,0,0-.25-2.51,5.92,5.92,0,0,0-.69-1.75,2.89,2.89,0,0,0-1-1,2.32,2.32,0,0,0-1.3-.28,4.14,4.14,0,0,0-2.43,1.16,11.4,11.4,0,0,0-2.32,3.13v-5.43a12.86,12.86,0,0,1,1.18-1.5,7.42,7.42,0,0,1,1.24-1.1,5.39,5.39,0,0,1,1.36-.72,6.37,6.37,0,0,1,1.55-.33,4.47,4.47,0,0,1,2.45.44,5,5,0,0,1,1.93,1.75,9.75,9.75,0,0,1,1.25,3.08,19.34,19.34,0,0,1,.44,4.34,24.55,24.55,0,0,1-.31,4,19.29,19.29,0,0,1-.89,3.33,17.93,17.93,0,0,1-1.37,2.9c-.53.91-1.12,1.84-1.76,2.79-.54.78-1.08,1.53-1.61,2.26s-1,1.43-1.42,2.11a12.32,12.32,0,0,0-1,2.07,5.81,5.81,0,0,0-.38,2.09v.12l9.07.55Z"/><path class="cls-4" d="M968.33,199v25.61l3.65.09v5.42l-3.65-.17v8.71l-3.74-.31v-8.58l-10.16-.48v-5.08q1.32-2.55,2.74-5.59t2.76-6.3c.9-2.17,1.74-4.37,2.52-6.58s1.45-4.37,2-6.42Zm-3.74,25.52V208.1q-1.77,5.39-3.47,9.33T958,224.32Z"/><path class="cls-4" d="M990.54,235.91h-.08v18.79l-4.59-.63V209.7l4.59-.16V215h.08c1.6-4.15,4-6.31,7.2-6.43,2.79-.1,5,1.26,6.62,4.11s2.45,6.81,2.45,11.75q0,8.22-2.76,13c-1.82,3.11-4.26,4.52-7.29,4.27C994,241.4,992,239.48,990.54,235.91Zm-.12-12.21v3.84a11.2,11.2,0,0,0,1.44,5.81,4.66,4.66,0,0,0,3.75,2.61c1.81.12,3.25-.83,4.3-2.86s1.6-5,1.6-8.74a15.49,15.49,0,0,0-1.49-7.44,4.33,4.33,0,0,0-3.95-2.61,4.75,4.75,0,0,0-4.13,2.74A13.22,13.22,0,0,0,990.42,223.7Z"/><path class="cls-4" d="M1033.2,208.06l-9,18,8.9,18-7.15-.59-4.59-11.08c-.29-.67-.62-1.51-1-2.54h-.1c-.06.2-.41,1-1,2.44l-4.47,10.25-6.29-.53,8.23-16-7.82-17.07,6.37-.22,4.33,11c.33.83.65,1.68,1,2.56h.07l5.85-14Z"/><path class="cls-4" d="M619.27,233.87l-7.8-.65v-1.7a11.72,11.72,0,0,1,.15-1.93,13.63,13.63,0,0,1,.42-1.7,11.89,11.89,0,0,1,.62-1.49,15.2,15.2,0,0,1,.78-1.37c.27-.45.55-.88.84-1.3s.58-.84.86-1.26.51-.81.73-1.21a7.58,7.58,0,0,0,.57-1.23,7.85,7.85,0,0,0,.38-1.35,9.09,9.09,0,0,0,.13-1.53,6.69,6.69,0,0,0-.16-1.58,3.37,3.37,0,0,0-.43-1.1,1.8,1.8,0,0,0-.65-.64,1.44,1.44,0,0,0-.82-.18,2.59,2.59,0,0,0-1.52.73,7,7,0,0,0-1.46,2v-3.41a7.51,7.51,0,0,1,.74-.94,5.6,5.6,0,0,1,.78-.7,3.65,3.65,0,0,1,.85-.45,3.88,3.88,0,0,1,1-.2,2.85,2.85,0,0,1,1.54.27A3.06,3.06,0,0,1,618,212a6,6,0,0,1,.79,1.93,12.33,12.33,0,0,1,.28,2.73,14.84,14.84,0,0,1-.2,2.53,12.5,12.5,0,0,1-.55,2.09,12.16,12.16,0,0,1-.86,1.82c-.34.58-.71,1.16-1.11,1.75s-.68,1-1,1.42-.63.9-.89,1.33a6.8,6.8,0,0,0-.64,1.3,3.74,3.74,0,0,0-.24,1.31v.08l5.7.34Z"/><path class="cls-4" d="M629.77,209.84v16.08l2.3.05v3.4l-2.3-.1v5.47l-2.34-.2v-5.38l-6.39-.3v-3.19c.56-1.07,1.13-2.24,1.72-3.51s1.18-2.6,1.74-4,1.09-2.74,1.58-4.13.91-2.75,1.25-4Zm-2.34,16V215.57c-.75,2.25-1.47,4.2-2.19,5.85s-1.35,3.08-2,4.34Z"/><path class="cls-4" d="M643.72,233h-.05v11.79l-2.88-.39V216.57l2.88-.1v3.42h.05c1-2.61,2.51-4,4.52-4a4.41,4.41,0,0,1,4.16,2.58,15.06,15.06,0,0,1,1.54,7.38A16.19,16.19,0,0,1,652.2,234c-1.14,2-2.67,2.84-4.57,2.68C645.91,236.48,644.62,235.28,643.72,233Zm-.08-7.66v2.4a7,7,0,0,0,.91,3.66,3,3,0,0,0,2.35,1.64,2.81,2.81,0,0,0,2.71-1.8,12.28,12.28,0,0,0,1-5.49,9.61,9.61,0,0,0-.94-4.67,2.71,2.71,0,0,0-2.48-1.64,3,3,0,0,0-2.59,1.72A8.31,8.31,0,0,0,643.64,225.37Z"/><path class="cls-4" d="M670.5,215.54l-5.65,11.28,5.58,11.29-4.48-.37-2.89-7c-.18-.41-.39-.95-.63-1.59h-.06c0,.12-.26.63-.65,1.53l-2.81,6.44-3.95-.33,5.17-10-4.91-10.72,4-.14,2.72,6.92c.21.52.41,1.06.61,1.61h.05l3.67-8.77Z"/><path class="cls-4" d="M367.59,230l-4.26-.35v-.93a5.79,5.79,0,0,1,.09-1,5.27,5.27,0,0,1,.23-.93,5.4,5.4,0,0,1,.33-.82c.14-.25.28-.5.43-.74s.3-.48.46-.71l.47-.69c.14-.22.28-.44.4-.66a5.11,5.11,0,0,0,.31-.67,4.22,4.22,0,0,0,.2-.74,4.28,4.28,0,0,0,.07-.83,3.65,3.65,0,0,0-.08-.86,2,2,0,0,0-.24-.61,1.17,1.17,0,0,0-.35-.35.87.87,0,0,0-.45-.09,1.36,1.36,0,0,0-.83.4,3.86,3.86,0,0,0-.8,1.07v-1.86a4.72,4.72,0,0,1,.41-.52,2.42,2.42,0,0,1,.42-.37,1.9,1.9,0,0,1,1-.36,1.47,1.47,0,0,1,.84.15,1.57,1.57,0,0,1,.66.6,3.29,3.29,0,0,1,.43,1,6.64,6.64,0,0,1,.15,1.49,8.21,8.21,0,0,1-.11,1.38,6.33,6.33,0,0,1-.3,1.14,6.55,6.55,0,0,1-.47,1c-.18.31-.38.63-.6.95s-.37.53-.56.78-.34.49-.48.72a4.23,4.23,0,0,0-.35.71,2,2,0,0,0-.13.72v0l3.11.19Z"/><path class="cls-4" d="M373.33,216.89v8.78l1.25,0v1.86l-1.25-.06v3l-1.29-.11v-2.94l-3.48-.16v-1.74c.3-.59.62-1.23.94-1.92s.64-1.42.95-2.16.59-1.5.86-2.26.5-1.49.68-2.2ZM372,225.64V220c-.4,1.23-.8,2.3-1.19,3.2s-.74,1.68-1.07,2.37Z"/><path class="cls-4" d="M380.94,229.56h0V236l-1.57-.21V220.57l1.57,0v1.86h0c.55-1.42,1.37-2.16,2.47-2.2a2.42,2.42,0,0,1,2.27,1.4,8.22,8.22,0,0,1,.84,4,8.89,8.89,0,0,1-.95,4.45,2.52,2.52,0,0,1-2.5,1.46C382.14,231.44,381.43,230.78,380.94,229.56Zm0-4.19v1.32a3.84,3.84,0,0,0,.49,2,1.64,1.64,0,0,0,1.29.9,1.51,1.51,0,0,0,1.47-1,6.53,6.53,0,0,0,.55-3,5.28,5.28,0,0,0-.51-2.55,1.49,1.49,0,0,0-1.36-.9,1.63,1.63,0,0,0-1.41.94A4.52,4.52,0,0,0,380.9,225.37Z"/><path class="cls-4" d="M395.56,220l-3.09,6.16,3,6.16-2.44-.2-1.58-3.8c-.1-.23-.21-.52-.34-.87h0q0,.1-.36.84l-1.53,3.51-2.16-.18,2.83-5.48-2.68-5.85,2.18-.08,1.48,3.78c.12.29.23.58.34.88h0l2-4.79Z"/><path class="cls-4" d="M222.75,229.82l-2.78-.24V229a4.86,4.86,0,0,1,.05-.69,5.26,5.26,0,0,1,.15-.6c.07-.19.14-.37.22-.54s.18-.33.28-.48.2-.32.3-.46.21-.3.31-.46.18-.28.26-.42a4.28,4.28,0,0,0,.2-.44,2.42,2.42,0,0,0,.13-.48,3.12,3.12,0,0,0,0-.55,3,3,0,0,0,0-.56,1.17,1.17,0,0,0-.16-.39.56.56,0,0,0-.23-.23.59.59,0,0,0-.29-.07,1,1,0,0,0-.54.26,2.42,2.42,0,0,0-.52.71v-1.22a1.81,1.81,0,0,1,.26-.33,1.62,1.62,0,0,1,.28-.25,1.08,1.08,0,0,1,.3-.16,1.28,1.28,0,0,1,.35-.08,1,1,0,0,1,1,.49,2.21,2.21,0,0,1,.28.69,4.67,4.67,0,0,1,.1,1,5.88,5.88,0,0,1-.07.9,5.11,5.11,0,0,1-.2.75,4.85,4.85,0,0,1-.31.65c-.12.2-.25.41-.39.62l-.36.51a5.62,5.62,0,0,0-.32.47,3.29,3.29,0,0,0-.23.46,1.55,1.55,0,0,0-.08.47v0l2,.12Z"/><path class="cls-4" d="M226.49,221.25V227l.82,0v1.22l-.82,0v1.95l-.84-.07v-1.92l-2.27-.11V226.9c.2-.39.4-.8.61-1.26s.42-.92.62-1.4.39-1,.56-1.48.33-1,.45-1.43Zm-.84,5.71V223.3c-.26.8-.52,1.5-.77,2.08s-.49,1.1-.7,1.55Z"/><path class="cls-4" d="M231.46,229.52h0v4.2l-1-.14v-9.93l1,0v1.22h0c.36-.93.89-1.42,1.61-1.44a1.56,1.56,0,0,1,1.48.92,5.37,5.37,0,0,1,.55,2.62,5.76,5.76,0,0,1-.62,2.9,1.65,1.65,0,0,1-1.63,1C232.24,230.75,231.78,230.32,231.46,229.52Zm0-2.73v.86a2.58,2.58,0,0,0,.32,1.3,1.06,1.06,0,0,0,.84.58,1,1,0,0,0,1-.64,4.46,4.46,0,0,0,.35-2,3.49,3.49,0,0,0-.33-1.66,1,1,0,0,0-.89-.58,1.05,1.05,0,0,0-.92.61A2.93,2.93,0,0,0,231.43,226.79Z"/><path class="cls-4" d="M241,223.29l-2,4,2,4-1.6-.13-1-2.48c-.06-.15-.14-.34-.22-.57h0s-.09.23-.23.54l-1,2.3-1.41-.12,1.84-3.58-1.75-3.81,1.43,0,1,2.46.21.58h0l1.31-3.13Z"/></g></g></svg>