<svg width="800" height="489" viewBox="0 0 800 489" fill="none" xmlns="http://www.w3.org/2000/svg">
<rect width="800" height="489" fill="#F1F1F1"/>
<path d="M117.285 201.014H103.281V164.744H63.7305V201.014H49.7852V116.99H63.7305V152.322H103.281V116.99H117.285V201.014ZM142.188 130.057C139.609 130.057 137.5 129.236 135.859 127.596C134.258 125.916 133.457 123.904 133.457 121.561C133.457 119.178 134.258 117.166 135.859 115.525C137.5 113.885 139.609 113.064 142.188 113.064C144.805 113.064 146.914 113.885 148.516 115.525C150.156 117.166 150.977 119.178 150.977 121.561C150.977 123.982 150.156 126.014 148.516 127.654C146.914 129.256 144.805 130.057 142.188 130.057ZM148.984 201.014H135.332V141.014H148.984V201.014ZM216.895 174.354H175.469C175.586 180.135 177.148 184.49 180.156 187.42C183.203 190.311 186.934 191.756 191.348 191.756C194.473 191.756 197.246 191.033 199.668 189.588C202.09 188.104 204.141 185.916 205.82 183.025L216.309 188.709C213.574 193.084 210.078 196.463 205.82 198.846C201.602 201.229 196.621 202.42 190.879 202.42C182.051 202.42 174.98 199.764 169.668 194.451C164.355 189.139 161.699 181.502 161.699 171.541C161.699 162.049 164.414 154.354 169.844 148.455C175.312 142.557 182.148 139.607 190.352 139.607C198.789 139.607 205.312 142.127 209.922 147.166C214.57 152.205 216.895 159.51 216.895 169.08V174.354ZM203.711 164.627C203.711 159.939 202.539 156.307 200.195 153.729C197.852 151.15 194.648 149.861 190.586 149.861C186.328 149.861 182.871 151.287 180.215 154.139C177.559 156.951 175.957 160.447 175.41 164.627H203.711ZM263.535 153.26C262.441 152.83 261.309 152.498 260.137 152.264C259.004 151.99 257.793 151.854 256.504 151.854C252.48 151.854 249.219 153.65 246.719 157.244C244.219 160.838 242.969 165.525 242.969 171.307V201.014H229.316V141.014H242.969V151.854H243.203C244.609 148.025 246.68 145.096 249.414 143.064C252.148 140.994 255.312 139.959 258.906 139.959C260.43 139.959 261.836 140.076 263.125 140.311C264.414 140.545 265.801 140.994 267.285 141.658L263.535 153.26ZM321.543 201.014H308.359V193.572H308.125C306.016 196.463 303.438 198.67 300.391 200.193C297.344 201.678 293.945 202.42 290.195 202.42C284.648 202.42 280.098 200.838 276.543 197.674C273.027 194.51 271.27 190.369 271.27 185.252C271.27 179.744 273.027 175.33 276.543 172.01C280.098 168.65 285.176 166.6 291.777 165.857L308.418 163.982V161.111C308.418 157.4 307.383 154.627 305.312 152.791C303.242 150.916 300.527 149.979 297.168 149.979C293.848 149.979 291.055 150.721 288.789 152.205C286.523 153.689 284.648 155.818 283.164 158.592L272.969 153.377C275 149.354 278.203 146.053 282.578 143.475C286.953 140.896 292.148 139.607 298.164 139.607C305.742 139.607 311.523 141.6 315.508 145.584C319.531 149.529 321.543 155.271 321.543 162.811V201.014ZM308.418 176.639V173.357L293.945 174.939C290.625 175.291 288.203 176.209 286.68 177.693C285.156 179.178 284.395 181.17 284.395 183.67C284.395 186.209 285.254 188.279 286.973 189.881C288.73 191.443 290.996 192.225 293.77 192.225C298.145 192.225 301.68 190.76 304.375 187.83C307.07 184.861 308.418 181.131 308.418 176.639ZM371.23 153.26C370.137 152.83 369.004 152.498 367.832 152.264C366.699 151.99 365.488 151.854 364.199 151.854C360.176 151.854 356.914 153.65 354.414 157.244C351.914 160.838 350.664 165.525 350.664 171.307V201.014H337.012V141.014H350.664V151.854H350.898C352.305 148.025 354.375 145.096 357.109 143.064C359.844 140.994 363.008 139.959 366.602 139.959C368.125 139.959 369.531 140.076 370.82 140.311C372.109 140.545 373.496 140.994 374.98 141.658L371.23 153.26ZM432.988 189.822C430.332 194.041 426.895 197.205 422.676 199.314C418.496 201.385 413.867 202.42 408.789 202.42C399.102 202.42 391.543 199.646 386.113 194.1C380.723 188.514 378.027 181.17 378.027 172.068C378.027 162.029 380.898 154.119 386.641 148.338C392.422 142.518 399.922 139.607 409.141 139.607C414.336 139.607 419.023 140.701 423.203 142.889C427.383 145.076 430.547 148.338 432.695 152.674L422.031 158.064C420.156 155.369 418.145 153.475 415.996 152.381C413.887 151.248 411.426 150.682 408.613 150.682C403.77 150.682 399.766 152.479 396.602 156.072C393.477 159.666 391.914 164.686 391.914 171.131C391.914 177.498 393.457 182.42 396.543 185.896C399.668 189.373 403.848 191.111 409.082 191.111C411.738 191.111 414.18 190.564 416.406 189.471C418.672 188.338 420.703 186.443 422.5 183.787L432.988 189.822ZM498.613 201.014H485.02V165.857C485.02 160.818 484.023 157.029 482.031 154.49C480.078 151.951 477.148 150.682 473.242 150.682C468.984 150.682 465.527 152.205 462.871 155.252C460.254 158.299 458.945 162.166 458.945 166.854V201.014H445.293V112.186H458.945V149.1H459.18C461.289 146.092 464.023 143.768 467.383 142.127C470.742 140.447 474.375 139.607 478.281 139.607C484.766 139.607 489.766 141.678 493.281 145.818C496.836 149.92 498.613 155.994 498.613 164.041V201.014ZM568.516 141.014L540.625 212.967C538.555 218.318 535.762 222.361 532.246 225.096C528.77 227.869 524.531 229.256 519.531 229.256C517.109 229.256 514.824 228.982 512.676 228.436C510.566 227.928 508.555 227.107 506.641 225.975L512.559 216.365C513.77 217.068 514.863 217.557 515.84 217.83C516.816 218.143 517.832 218.299 518.887 218.299C520.723 218.299 522.285 217.83 523.574 216.893C524.902 215.994 526.094 214.334 527.148 211.912L531.543 201.717L507.988 141.014H522.871L536.641 180.799C537.07 182.01 537.402 183.084 537.637 184.021C537.871 184.959 538.145 186.111 538.457 187.479H538.75C539.023 186.111 539.297 184.979 539.57 184.08C539.883 183.182 540.234 182.127 540.625 180.916L554.512 141.014H568.516Z" fill="black" fill-opacity="0.8956"/>
<path d="M48.0469 283.57V253.961H51.25V283.57H48.0469ZM73.7305 274.137H59.2969C59.2969 276.611 59.8828 278.421 61.0547 279.566C62.2396 280.699 63.6458 281.266 65.2734 281.266C66.4974 281.266 67.5716 280.986 68.4961 280.426C69.4336 279.853 70.2083 279.007 70.8203 277.887L73.4375 279.215C72.7344 280.647 71.6732 281.812 70.2539 282.711C68.8477 283.596 67.1159 284.039 65.0586 284.039C62.4023 284.039 60.2214 283.16 58.5156 281.402C56.8229 279.645 55.9766 277.06 55.9766 273.648C55.9766 270.615 56.8359 268.102 58.5547 266.109C60.2734 264.104 62.474 263.102 65.1562 263.102C67.8776 263.102 69.987 263.928 71.4844 265.582C72.9818 267.223 73.7305 269.514 73.7305 272.457V274.137ZM70.4492 271.461C70.4492 269.729 69.974 268.368 69.0234 267.379C68.0729 266.376 66.7643 265.875 65.0977 265.875C63.4831 265.875 62.1615 266.409 61.1328 267.477C60.1172 268.544 59.5117 269.872 59.3164 271.461H70.4492ZM88.5938 282.301C88.0078 282.887 87.3633 283.316 86.6602 283.59C85.957 283.863 85.1302 284 84.1797 284C82.6042 284 81.3867 283.564 80.5273 282.691C79.668 281.806 79.2383 280.543 79.2383 278.902V266.305H75.8008V263.57H79.2383V258.844L82.4414 258.277V263.57H87.793V266.305H82.4414V278.629C82.4414 279.579 82.6237 280.27 82.9883 280.699C83.3529 281.129 83.9258 281.344 84.707 281.344C85.0977 281.344 85.4688 281.266 85.8203 281.109C86.1849 280.953 86.5625 280.654 86.9531 280.211L88.5938 282.301ZM91.2891 279.645L94.0234 278.453C94.4661 279.443 95.0781 280.159 95.8594 280.602C96.6536 281.044 97.6237 281.266 98.7695 281.266C99.8633 281.266 100.768 280.992 101.484 280.445C102.214 279.898 102.578 279.111 102.578 278.082C102.578 277.301 102.259 276.63 101.621 276.07C100.996 275.497 100.007 275.061 98.6523 274.762C96.1263 274.202 94.4076 273.434 93.4961 272.457C92.5977 271.48 92.1484 270.328 92.1484 269C92.1484 267.125 92.7995 265.673 94.1016 264.645C95.4167 263.616 96.9857 263.102 98.8086 263.102C100.28 263.102 101.608 263.408 102.793 264.02C103.991 264.632 104.883 265.576 105.469 266.852L102.852 268.062C102.461 267.32 101.94 266.773 101.289 266.422C100.638 266.057 99.7852 265.875 98.7305 265.875C97.7148 265.875 96.862 266.122 96.1719 266.617C95.4818 267.112 95.1367 267.796 95.1367 268.668C95.1367 269.488 95.4167 270.12 95.9766 270.562C96.5365 270.992 97.6497 271.396 99.3164 271.773C101.491 272.255 103.086 272.997 104.102 274C105.117 274.99 105.625 276.285 105.625 277.887C105.625 279.84 104.948 281.357 103.594 282.438C102.253 283.505 100.645 284.039 98.7695 284.039C96.8294 284.039 95.2409 283.642 94.0039 282.848C92.7799 282.04 91.875 280.973 91.2891 279.645ZM130.273 282.301C129.688 282.887 129.043 283.316 128.34 283.59C127.637 283.863 126.81 284 125.859 284C124.284 284 123.066 283.564 122.207 282.691C121.348 281.806 120.918 280.543 120.918 278.902V266.305H117.48V263.57H120.918V258.844L124.121 258.277V263.57H129.473V266.305H124.121V278.629C124.121 279.579 124.303 280.27 124.668 280.699C125.033 281.129 125.605 281.344 126.387 281.344C126.777 281.344 127.148 281.266 127.5 281.109C127.865 280.953 128.242 280.654 128.633 280.211L130.273 282.301ZM150.781 283.57H147.578V271.695C147.578 269.729 147.201 268.271 146.445 267.32C145.703 266.357 144.577 265.875 143.066 265.875C141.374 265.875 140 266.474 138.945 267.672C137.904 268.857 137.383 270.361 137.383 272.184V283.57H134.18V253.961H137.383V266.422H137.461C138.216 265.315 139.141 264.488 140.234 263.941C141.328 263.382 142.591 263.102 144.023 263.102C146.211 263.102 147.884 263.805 149.043 265.211C150.202 266.617 150.781 268.661 150.781 271.344V283.57ZM172.832 274.137H158.398C158.398 276.611 158.984 278.421 160.156 279.566C161.341 280.699 162.747 281.266 164.375 281.266C165.599 281.266 166.673 280.986 167.598 280.426C168.535 279.853 169.31 279.007 169.922 277.887L172.539 279.215C171.836 280.647 170.775 281.812 169.355 282.711C167.949 283.596 166.217 284.039 164.16 284.039C161.504 284.039 159.323 283.16 157.617 281.402C155.924 279.645 155.078 277.06 155.078 273.648C155.078 270.615 155.938 268.102 157.656 266.109C159.375 264.104 161.576 263.102 164.258 263.102C166.979 263.102 169.089 263.928 170.586 265.582C172.083 267.223 172.832 269.514 172.832 272.457V274.137ZM169.551 271.461C169.551 269.729 169.076 268.368 168.125 267.379C167.174 266.376 165.866 265.875 164.199 265.875C162.585 265.875 161.263 266.409 160.234 267.477C159.219 268.544 158.613 269.872 158.418 271.461H169.551ZM196.914 266.578C196.602 266.435 196.263 266.318 195.898 266.227C195.547 266.135 195.15 266.09 194.707 266.09C193.275 266.09 192.109 266.773 191.211 268.141C190.326 269.508 189.883 271.253 189.883 273.375V283.57H186.68V263.57H189.883V267.223H189.961C190.417 265.973 191.113 264.996 192.051 264.293C192.988 263.577 194.036 263.219 195.195 263.219C195.729 263.219 196.211 263.264 196.641 263.355C197.07 263.434 197.559 263.603 198.105 263.863L196.914 266.578ZM217.598 274.137H203.164C203.164 276.611 203.75 278.421 204.922 279.566C206.107 280.699 207.513 281.266 209.141 281.266C210.365 281.266 211.439 280.986 212.363 280.426C213.301 279.853 214.076 279.007 214.688 277.887L217.305 279.215C216.602 280.647 215.54 281.812 214.121 282.711C212.715 283.596 210.983 284.039 208.926 284.039C206.27 284.039 204.089 283.16 202.383 281.402C200.69 279.645 199.844 277.06 199.844 273.648C199.844 270.615 200.703 268.102 202.422 266.109C204.141 264.104 206.341 263.102 209.023 263.102C211.745 263.102 213.854 263.928 215.352 265.582C216.849 267.223 217.598 269.514 217.598 272.457V274.137ZM214.316 271.461C214.316 269.729 213.841 268.368 212.891 267.379C211.94 266.376 210.632 265.875 208.965 265.875C207.35 265.875 206.029 266.409 205 267.477C203.984 268.544 203.379 269.872 203.184 271.461H214.316ZM236.23 283.57H233.027V280.914H232.949C232.272 281.917 231.413 282.691 230.371 283.238C229.342 283.772 228.203 284.039 226.953 284.039C224.961 284.039 223.398 283.505 222.266 282.438C221.146 281.37 220.586 280.035 220.586 278.434C220.586 276.559 221.172 275.107 222.344 274.078C223.516 273.036 225.156 272.392 227.266 272.145L233.027 271.48V270.211C233.027 268.766 232.65 267.685 231.895 266.969C231.152 266.24 230.13 265.875 228.828 265.875C227.591 265.875 226.569 266.155 225.762 266.715C224.954 267.262 224.336 268.03 223.906 269.02L221.113 267.867C221.764 266.357 222.767 265.185 224.121 264.352C225.488 263.518 227.116 263.102 229.004 263.102C231.335 263.102 233.118 263.727 234.355 264.977C235.605 266.214 236.23 267.952 236.23 270.191V283.57ZM233.027 275.445V274.078L227.48 274.703C226.243 274.846 225.332 275.204 224.746 275.777C224.16 276.337 223.867 277.086 223.867 278.023C223.867 279.052 224.206 279.879 224.883 280.504C225.56 281.116 226.445 281.422 227.539 281.422C229.18 281.422 230.501 280.862 231.504 279.742C232.52 278.609 233.027 277.177 233.027 275.445ZM255.977 280.641C255.234 281.747 254.284 282.594 253.125 283.18C251.979 283.753 250.703 284.039 249.297 284.039C246.497 284.039 244.329 283.147 242.793 281.363C241.27 279.566 240.508 277.125 240.508 274.039C240.508 270.654 241.374 267.984 243.105 266.031C244.837 264.078 247.096 263.102 249.883 263.102C251.237 263.102 252.435 263.349 253.477 263.844C254.531 264.339 255.365 265.016 255.977 265.875H256.055V253.961H259.258V283.57H256.055V280.641H255.977ZM243.789 273.883C243.789 276.148 244.31 277.945 245.352 279.273C246.406 280.602 247.858 281.266 249.707 281.266C251.66 281.266 253.203 280.628 254.336 279.352C255.482 278.076 256.055 276.467 256.055 274.527V271.578C256.055 269.99 255.501 268.642 254.395 267.535C253.301 266.428 251.882 265.875 250.137 265.875C248.197 265.875 246.654 266.559 245.508 267.926C244.362 269.293 243.789 271.279 243.789 273.883ZM281.738 274.137H267.305C267.305 276.611 267.891 278.421 269.062 279.566C270.247 280.699 271.654 281.266 273.281 281.266C274.505 281.266 275.579 280.986 276.504 280.426C277.441 279.853 278.216 279.007 278.828 277.887L281.445 279.215C280.742 280.647 279.681 281.812 278.262 282.711C276.855 283.596 275.124 284.039 273.066 284.039C270.41 284.039 268.229 283.16 266.523 281.402C264.831 279.645 263.984 277.06 263.984 273.648C263.984 270.615 264.844 268.102 266.562 266.109C268.281 264.104 270.482 263.102 273.164 263.102C275.885 263.102 277.995 263.928 279.492 265.582C280.99 267.223 281.738 269.514 281.738 272.457V274.137ZM278.457 271.461C278.457 269.729 277.982 268.368 277.031 267.379C276.081 266.376 274.772 265.875 273.105 265.875C271.491 265.875 270.169 266.409 269.141 267.477C268.125 268.544 267.52 269.872 267.324 271.461H278.457ZM296.445 266.578C296.133 266.435 295.794 266.318 295.43 266.227C295.078 266.135 294.681 266.09 294.238 266.09C292.806 266.09 291.641 266.773 290.742 268.141C289.857 269.508 289.414 271.253 289.414 273.375V283.57H286.211V263.57H289.414V267.223H289.492C289.948 265.973 290.645 264.996 291.582 264.293C292.52 263.577 293.568 263.219 294.727 263.219C295.26 263.219 295.742 263.264 296.172 263.355C296.602 263.434 297.09 263.603 297.637 263.863L296.445 266.578ZM326.465 283.57H322.227L313.398 273.961H313.32V283.57H310.117V253.961H313.32V272.73H313.398L321.953 263.57H325.898L316.719 273.219L326.465 283.57ZM346.445 283.57H343.242V271.695C343.242 269.729 342.865 268.271 342.109 267.32C341.367 266.357 340.241 265.875 338.73 265.875C337.038 265.875 335.664 266.474 334.609 267.672C333.568 268.857 333.047 270.354 333.047 272.164V283.57H329.844V263.57H333.047V266.422H333.125C333.88 265.315 334.805 264.488 335.898 263.941C336.992 263.382 338.255 263.102 339.688 263.102C341.875 263.102 343.548 263.811 344.707 265.23C345.866 266.637 346.445 268.674 346.445 271.344V283.57ZM360.684 284.039C357.572 284.039 355.137 283.115 353.379 281.266C351.621 279.404 350.742 276.917 350.742 273.805C350.742 270.589 351.719 268.004 353.672 266.051C355.625 264.085 358.066 263.102 360.996 263.102C363.991 263.102 366.361 264.059 368.105 265.973C369.863 267.874 370.742 270.38 370.742 273.492C370.742 276.5 369.837 279.013 368.027 281.031C366.23 283.036 363.783 284.039 360.684 284.039ZM360.859 281.266C362.878 281.266 364.479 280.595 365.664 279.254C366.862 277.9 367.461 276.018 367.461 273.609C367.461 271.318 366.862 269.462 365.664 268.043C364.479 266.611 362.878 265.895 360.859 265.895C358.841 265.895 357.194 266.617 355.918 268.062C354.655 269.495 354.023 271.37 354.023 273.688C354.023 276.122 354.655 277.997 355.918 279.312C357.194 280.615 358.841 281.266 360.859 281.266ZM400.781 263.57L394.785 283.57H391.465L387.344 269.254C387.24 268.876 387.168 268.629 387.129 268.512C387.103 268.382 387.064 268.167 387.012 267.867H386.934C386.868 268.167 386.81 268.388 386.758 268.531C386.719 268.674 386.647 268.902 386.543 269.215L382.07 283.57H378.789L372.734 263.57H376.094L380.234 278.355C380.299 278.577 380.352 278.785 380.391 278.98C380.43 279.176 380.475 279.417 380.527 279.703H380.645C380.71 279.404 380.768 279.163 380.82 278.98C380.872 278.785 380.938 278.564 381.016 278.316L385.625 263.57H388.633L392.773 278.395C392.826 278.577 392.878 278.779 392.93 279C392.982 279.208 393.04 279.443 393.105 279.703H393.223C393.288 279.443 393.333 279.241 393.359 279.098C393.398 278.941 393.464 278.707 393.555 278.395L397.617 263.57H400.781ZM438.828 263.57L432.832 283.57H429.512L425.391 269.254C425.286 268.876 425.215 268.629 425.176 268.512C425.15 268.382 425.111 268.167 425.059 267.867H424.98C424.915 268.167 424.857 268.388 424.805 268.531C424.766 268.674 424.694 268.902 424.59 269.215L420.117 283.57H416.836L410.781 263.57H414.141L418.281 278.355C418.346 278.577 418.398 278.785 418.438 278.98C418.477 279.176 418.522 279.417 418.574 279.703H418.691C418.757 279.404 418.815 279.163 418.867 278.98C418.919 278.785 418.984 278.564 419.062 278.316L423.672 263.57H426.68L430.82 278.395C430.872 278.577 430.924 278.779 430.977 279C431.029 279.208 431.087 279.443 431.152 279.703H431.27C431.335 279.443 431.38 279.241 431.406 279.098C431.445 278.941 431.51 278.707 431.602 278.395L435.664 263.57H438.828ZM458.789 283.57H455.586V271.695C455.586 269.729 455.208 268.271 454.453 267.32C453.711 266.357 452.585 265.875 451.074 265.875C449.382 265.875 448.008 266.474 446.953 267.672C445.911 268.857 445.391 270.361 445.391 272.184V283.57H442.188V253.961H445.391V266.422H445.469C446.224 265.315 447.148 264.488 448.242 263.941C449.336 263.382 450.599 263.102 452.031 263.102C454.219 263.102 455.892 263.805 457.051 265.211C458.21 266.617 458.789 268.661 458.789 271.344V283.57ZM480.84 274.137H466.406C466.406 276.611 466.992 278.421 468.164 279.566C469.349 280.699 470.755 281.266 472.383 281.266C473.607 281.266 474.681 280.986 475.605 280.426C476.543 279.853 477.318 279.007 477.93 277.887L480.547 279.215C479.844 280.647 478.783 281.812 477.363 282.711C475.957 283.596 474.225 284.039 472.168 284.039C469.512 284.039 467.331 283.16 465.625 281.402C463.932 279.645 463.086 277.06 463.086 273.648C463.086 270.615 463.945 268.102 465.664 266.109C467.383 264.104 469.583 263.102 472.266 263.102C474.987 263.102 477.096 263.928 478.594 265.582C480.091 267.223 480.84 269.514 480.84 272.457V274.137ZM477.559 271.461C477.559 269.729 477.083 268.368 476.133 267.379C475.182 266.376 473.874 265.875 472.207 265.875C470.592 265.875 469.271 266.409 468.242 267.477C467.227 268.544 466.621 269.872 466.426 271.461H477.559ZM495.547 266.578C495.234 266.435 494.896 266.318 494.531 266.227C494.18 266.135 493.783 266.09 493.34 266.09C491.908 266.09 490.742 266.773 489.844 268.141C488.958 269.508 488.516 271.253 488.516 273.375V283.57H485.312V263.57H488.516V267.223H488.594C489.049 265.973 489.746 264.996 490.684 264.293C491.621 263.577 492.669 263.219 493.828 263.219C494.362 263.219 494.844 263.264 495.273 263.355C495.703 263.434 496.191 263.603 496.738 263.863L495.547 266.578ZM516.23 274.137H501.797C501.797 276.611 502.383 278.421 503.555 279.566C504.74 280.699 506.146 281.266 507.773 281.266C508.997 281.266 510.072 280.986 510.996 280.426C511.934 279.853 512.708 279.007 513.32 277.887L515.938 279.215C515.234 280.647 514.173 281.812 512.754 282.711C511.348 283.596 509.616 284.039 507.559 284.039C504.902 284.039 502.721 283.16 501.016 281.402C499.323 279.645 498.477 277.06 498.477 273.648C498.477 270.615 499.336 268.102 501.055 266.109C502.773 264.104 504.974 263.102 507.656 263.102C510.378 263.102 512.487 263.928 513.984 265.582C515.482 267.223 516.23 269.514 516.23 272.457V274.137ZM512.949 271.461C512.949 269.729 512.474 268.368 511.523 267.379C510.573 266.376 509.264 265.875 507.598 265.875C505.983 265.875 504.661 266.409 503.633 267.477C502.617 268.544 502.012 269.872 501.816 271.461H512.949ZM540.469 282.301C539.883 282.887 539.238 283.316 538.535 283.59C537.832 283.863 537.005 284 536.055 284C534.479 284 533.262 283.564 532.402 282.691C531.543 281.806 531.113 280.543 531.113 278.902V266.305H527.676V263.57H531.113V258.844L534.316 258.277V263.57H539.668V266.305H534.316V278.629C534.316 279.579 534.499 280.27 534.863 280.699C535.228 281.129 535.801 281.344 536.582 281.344C536.973 281.344 537.344 281.266 537.695 281.109C538.06 280.953 538.438 280.654 538.828 280.211L540.469 282.301ZM552.949 284.039C549.837 284.039 547.402 283.115 545.645 281.266C543.887 279.404 543.008 276.917 543.008 273.805C543.008 270.589 543.984 268.004 545.938 266.051C547.891 264.085 550.332 263.102 553.262 263.102C556.257 263.102 558.626 264.059 560.371 265.973C562.129 267.874 563.008 270.38 563.008 273.492C563.008 276.5 562.103 279.013 560.293 281.031C558.496 283.036 556.048 284.039 552.949 284.039ZM553.125 281.266C555.143 281.266 556.745 280.595 557.93 279.254C559.128 277.9 559.727 276.018 559.727 273.609C559.727 271.318 559.128 269.462 557.93 268.043C556.745 266.611 555.143 265.895 553.125 265.895C551.107 265.895 549.46 266.617 548.184 268.062C546.921 269.495 546.289 271.37 546.289 273.688C546.289 276.122 546.921 277.997 548.184 279.312C549.46 280.615 551.107 281.266 553.125 281.266ZM577.109 283.57V253.961H580.312V283.57H577.109ZM594.98 284.039C591.868 284.039 589.434 283.115 587.676 281.266C585.918 279.404 585.039 276.917 585.039 273.805C585.039 270.589 586.016 268.004 587.969 266.051C589.922 264.085 592.363 263.102 595.293 263.102C598.288 263.102 600.658 264.059 602.402 265.973C604.16 267.874 605.039 270.38 605.039 273.492C605.039 276.5 604.134 279.013 602.324 281.031C600.527 283.036 598.079 284.039 594.98 284.039ZM595.156 281.266C597.174 281.266 598.776 280.595 599.961 279.254C601.159 277.9 601.758 276.018 601.758 273.609C601.758 271.318 601.159 269.462 599.961 268.043C598.776 266.611 597.174 265.895 595.156 265.895C593.138 265.895 591.491 266.617 590.215 268.062C588.952 269.495 588.32 271.37 588.32 273.688C588.32 276.122 588.952 277.997 590.215 279.312C591.491 280.615 593.138 281.266 595.156 281.266ZM618.34 284.039C615.228 284.039 612.793 283.115 611.035 281.266C609.277 279.404 608.398 276.917 608.398 273.805C608.398 270.589 609.375 268.004 611.328 266.051C613.281 264.085 615.723 263.102 618.652 263.102C621.647 263.102 624.017 264.059 625.762 265.973C627.52 267.874 628.398 270.38 628.398 273.492C628.398 276.5 627.493 279.013 625.684 281.031C623.887 283.036 621.439 284.039 618.34 284.039ZM618.516 281.266C620.534 281.266 622.135 280.595 623.32 279.254C624.518 277.9 625.117 276.018 625.117 273.609C625.117 271.318 624.518 269.462 623.32 268.043C622.135 266.611 620.534 265.895 618.516 265.895C616.497 265.895 614.85 266.617 613.574 268.062C612.311 269.495 611.68 271.37 611.68 273.688C611.68 276.122 612.311 277.997 613.574 279.312C614.85 280.615 616.497 281.266 618.516 281.266ZM649.473 283.57H645.234L636.406 273.961H636.328V283.57H633.125V253.961H636.328V272.73H636.406L644.961 263.57H648.906L639.727 273.219L649.473 283.57ZM671.895 256.852C671.608 256.682 671.289 256.539 670.938 256.422C670.599 256.305 670.195 256.246 669.727 256.246C668.724 256.246 667.956 256.552 667.422 257.164C666.888 257.763 666.621 258.655 666.621 259.84V263.57H671.309V266.305H666.621V283.57H663.438V266.305H660.02V263.57H663.438V259.684C663.438 257.887 664.01 256.415 665.156 255.27C666.302 254.111 667.845 253.531 669.785 253.531C670.397 253.531 671.009 253.609 671.621 253.766C672.246 253.909 672.832 254.137 673.379 254.449L671.895 256.852ZM676.426 259.059C675.736 259.059 675.176 258.831 674.746 258.375C674.316 257.906 674.102 257.359 674.102 256.734C674.102 256.109 674.316 255.569 674.746 255.113C675.176 254.645 675.736 254.41 676.426 254.41C677.116 254.41 677.676 254.645 678.105 255.113C678.535 255.569 678.75 256.109 678.75 256.734C678.75 257.359 678.535 257.906 678.105 258.375C677.676 258.831 677.116 259.059 676.426 259.059ZM677.988 283.57H674.785V263.57H677.988V283.57ZM694.258 266.578C693.945 266.435 693.607 266.318 693.242 266.227C692.891 266.135 692.493 266.09 692.051 266.09C690.618 266.09 689.453 266.773 688.555 268.141C687.669 269.508 687.227 271.253 687.227 273.375V283.57H684.023V263.57H687.227V267.223H687.305C687.76 265.973 688.457 264.996 689.395 264.293C690.332 263.577 691.38 263.219 692.539 263.219C693.073 263.219 693.555 263.264 693.984 263.355C694.414 263.434 694.902 263.603 695.449 263.863L694.258 266.578ZM697.344 279.645L700.078 278.453C700.521 279.443 701.133 280.159 701.914 280.602C702.708 281.044 703.678 281.266 704.824 281.266C705.918 281.266 706.823 280.992 707.539 280.445C708.268 279.898 708.633 279.111 708.633 278.082C708.633 277.301 708.314 276.63 707.676 276.07C707.051 275.497 706.061 275.061 704.707 274.762C702.181 274.202 700.462 273.434 699.551 272.457C698.652 271.48 698.203 270.328 698.203 269C698.203 267.125 698.854 265.673 700.156 264.645C701.471 263.616 703.04 263.102 704.863 263.102C706.335 263.102 707.663 263.408 708.848 264.02C710.046 264.632 710.938 265.576 711.523 266.852L708.906 268.062C708.516 267.32 707.995 266.773 707.344 266.422C706.693 266.057 705.84 265.875 704.785 265.875C703.77 265.875 702.917 266.122 702.227 266.617C701.536 267.112 701.191 267.796 701.191 268.668C701.191 269.488 701.471 270.12 702.031 270.562C702.591 270.992 703.704 271.396 705.371 271.773C707.546 272.255 709.141 272.997 710.156 274C711.172 274.99 711.68 276.285 711.68 277.887C711.68 279.84 711.003 281.357 709.648 282.438C708.307 283.505 706.699 284.039 704.824 284.039C702.884 284.039 701.296 283.642 700.059 282.848C698.835 282.04 697.93 280.973 697.344 279.645ZM726.953 282.301C726.367 282.887 725.723 283.316 725.02 283.59C724.316 283.863 723.49 284 722.539 284C720.964 284 719.746 283.564 718.887 282.691C718.027 281.806 717.598 280.543 717.598 278.902V266.305H714.16V263.57H717.598V258.844L720.801 258.277V263.57H726.152V266.305H720.801V278.629C720.801 279.579 720.983 280.27 721.348 280.699C721.712 281.129 722.285 281.344 723.066 281.344C723.457 281.344 723.828 281.266 724.18 281.109C724.544 280.953 724.922 280.654 725.312 280.211L726.953 282.301Z" fill="black" fill-opacity="0.8956"/>
<path d="M56.4409 412.697H55.1006V407.951H49.7686V412.697H48.4355V402.194H49.7686V406.765H55.1006V402.194H56.4409V412.697ZM59.8027 403.388C59.5439 403.388 59.3291 403.303 59.1582 403.132C58.9873 402.961 58.9019 402.753 58.9019 402.509C58.9019 402.255 58.9873 402.045 59.1582 401.879C59.3291 401.708 59.5439 401.623 59.8027 401.623C60.0615 401.623 60.2764 401.708 60.4473 401.879C60.623 402.045 60.7109 402.255 60.7109 402.509C60.7109 402.753 60.623 402.961 60.4473 403.132C60.2764 403.303 60.0615 403.388 59.8027 403.388ZM60.4399 412.697H59.1362V405.014H60.4399V412.697ZM69.2949 409.152H63.8896C63.9141 410.002 64.1411 410.656 64.5708 411.115C65.0005 411.569 65.6035 411.796 66.3799 411.796C66.7168 411.796 67.061 411.745 67.4126 411.643C67.769 411.535 68.1255 411.362 68.4819 411.123L69.0752 412.031C68.6309 412.324 68.1841 412.539 67.7349 412.675C67.2856 412.812 66.7925 412.88 66.2554 412.88C65.0933 412.88 64.1875 412.536 63.5381 411.848C62.8887 411.154 62.5615 410.188 62.5566 408.947C62.5518 407.712 62.8789 406.718 63.5381 405.966C64.2021 405.209 65.0615 404.831 66.1162 404.831C67.1221 404.831 67.9033 405.158 68.46 405.812C69.0166 406.462 69.2949 407.368 69.2949 408.53V409.152ZM67.9839 408.127C67.979 407.419 67.8081 406.87 67.4712 406.479C67.1392 406.088 66.6802 405.893 66.0942 405.893C65.5181 405.893 65.0298 406.096 64.6294 406.501C64.2339 406.901 63.9922 407.443 63.9043 408.127H67.9839ZM75.0957 406.127C74.998 406.098 74.9077 406.076 74.8247 406.062C74.7417 406.047 74.6416 406.04 74.5244 406.04C73.9043 406.04 73.416 406.303 73.0596 406.831C72.7031 407.353 72.5249 408.015 72.5249 408.815V412.697H71.2212V405.014H72.5249V406.538H72.5542C72.73 405.996 72.9961 405.585 73.3525 405.307C73.7139 405.024 74.1313 404.882 74.605 404.882C74.7563 404.882 74.8857 404.89 74.9932 404.904C75.1055 404.919 75.208 404.941 75.3008 404.97L75.0957 406.127ZM82.2734 412.697H80.9771V411.489H80.9478C80.6841 411.948 80.3569 412.294 79.9663 412.529C79.5757 412.763 79.1216 412.88 78.604 412.88C77.8813 412.88 77.2979 412.67 76.8535 412.25C76.4092 411.831 76.187 411.276 76.187 410.588C76.187 409.919 76.4116 409.37 76.8608 408.94C77.3101 408.51 77.957 408.234 78.8018 408.112L80.9844 407.819V407.644C80.9844 407.023 80.8354 406.577 80.5376 406.303C80.2446 406.03 79.8491 405.893 79.3511 405.893C78.9556 405.893 78.5698 405.969 78.1938 406.12C77.8179 406.271 77.4614 406.499 77.1245 406.801L76.4141 406.01C76.8486 405.61 77.3125 405.314 77.8057 405.124C78.3037 404.929 78.8481 404.831 79.439 404.831C80.3765 404.831 81.082 405.073 81.5557 405.556C82.0342 406.04 82.2734 406.765 82.2734 407.731V412.697ZM80.9844 409.562V408.823L79.1533 409.072C78.5918 409.15 78.1719 409.292 77.8936 409.497C77.6152 409.702 77.4761 410.024 77.4761 410.463C77.4761 410.898 77.6055 411.235 77.8643 411.474C78.1279 411.713 78.4551 411.833 78.8457 411.833C79.4902 411.833 80.0078 411.621 80.3984 411.196C80.7891 410.766 80.9844 410.222 80.9844 409.562ZM88.5723 406.127C88.4746 406.098 88.3843 406.076 88.3013 406.062C88.2183 406.047 88.1182 406.04 88.001 406.04C87.3809 406.04 86.8926 406.303 86.5361 406.831C86.1797 407.353 86.0015 408.015 86.0015 408.815V412.697H84.6978V405.014H86.0015V406.538H86.0308C86.2065 405.996 86.4727 405.585 86.8291 405.307C87.1904 405.024 87.6079 404.882 88.0815 404.882C88.2329 404.882 88.3623 404.89 88.4697 404.904C88.582 404.919 88.6846 404.941 88.7773 404.97L88.5723 406.127ZM95.7207 412.214C95.3545 412.448 94.9883 412.617 94.6221 412.719C94.2559 412.827 93.8628 412.88 93.4429 412.88C92.3442 412.88 91.4482 412.543 90.7549 411.87C90.0615 411.191 89.7148 410.244 89.7148 409.028C89.7148 407.768 90.0664 406.755 90.7695 405.988C91.4775 405.217 92.4443 404.831 93.6699 404.831C94.0654 404.831 94.4414 404.88 94.7979 404.978C95.1543 405.07 95.5132 405.222 95.8745 405.432L95.3252 406.384C95.0469 406.218 94.7734 406.101 94.5049 406.032C94.2363 405.959 93.9482 405.922 93.6406 405.922C92.8057 405.922 92.1636 406.201 91.7144 406.757C91.27 407.309 91.0479 408.02 91.0479 408.889C91.0479 409.826 91.2798 410.544 91.7437 411.042C92.2124 411.54 92.8154 411.789 93.5527 411.789C93.8018 411.789 94.0581 411.752 94.3218 411.679C94.5903 411.601 94.8662 411.472 95.1494 411.291L95.7207 412.214ZM103.946 412.697H102.642V408.266C102.642 407.48 102.496 406.892 102.203 406.501C101.91 406.11 101.473 405.915 100.892 405.915C100.301 405.915 99.8052 406.142 99.4048 406.596C99.0044 407.045 98.8042 407.629 98.8042 408.347V412.697H97.5005V401.594H98.8042V406.281H98.8335C99.1265 405.798 99.4829 405.437 99.9028 405.197C100.323 404.953 100.804 404.831 101.346 404.831C102.21 404.831 102.859 405.092 103.294 405.615C103.729 406.137 103.946 406.921 103.946 407.966V412.697ZM112.544 405.014L108.963 414.074C108.68 414.797 108.318 415.339 107.879 415.7C107.439 416.062 106.919 416.242 106.319 416.242C106.158 416.242 106.006 416.232 105.865 416.213C105.728 416.193 105.599 416.167 105.477 416.132L105.726 415.041C105.823 415.075 105.914 415.1 105.997 415.114C106.084 415.129 106.172 415.136 106.26 415.136C106.583 415.136 106.854 415.051 107.073 414.88C107.293 414.709 107.471 414.467 107.608 414.155L108.23 412.683L105.22 405.014H106.663L108.699 410.837C108.714 410.886 108.733 410.964 108.758 411.071C108.787 411.174 108.821 411.303 108.86 411.459H108.904C108.919 411.391 108.938 411.308 108.963 411.21C108.992 411.108 109.026 410.988 109.065 410.852L111.204 405.014H112.544ZM123.567 412.214C123.201 412.448 122.835 412.617 122.469 412.719C122.103 412.827 121.709 412.88 121.29 412.88C120.191 412.88 119.295 412.543 118.602 411.87C117.908 411.191 117.562 410.244 117.562 409.028C117.562 407.768 117.913 406.755 118.616 405.988C119.324 405.217 120.291 404.831 121.517 404.831C121.912 404.831 122.288 404.88 122.645 404.978C123.001 405.07 123.36 405.222 123.721 405.432L123.172 406.384C122.894 406.218 122.62 406.101 122.352 406.032C122.083 405.959 121.795 405.922 121.487 405.922C120.652 405.922 120.01 406.201 119.561 406.757C119.117 407.309 118.895 408.02 118.895 408.889C118.895 409.826 119.126 410.544 119.59 411.042C120.059 411.54 120.662 411.789 121.399 411.789C121.648 411.789 121.905 411.752 122.168 411.679C122.437 411.601 122.713 411.472 122.996 411.291L123.567 412.214ZM130.877 412.697H129.581V411.489H129.551C129.288 411.948 128.96 412.294 128.57 412.529C128.179 412.763 127.725 412.88 127.208 412.88C126.485 412.88 125.901 412.67 125.457 412.25C125.013 411.831 124.791 411.276 124.791 410.588C124.791 409.919 125.015 409.37 125.464 408.94C125.914 408.51 126.561 408.234 127.405 408.112L129.588 407.819V407.644C129.588 407.023 129.439 406.577 129.141 406.303C128.848 406.03 128.453 405.893 127.955 405.893C127.559 405.893 127.173 405.969 126.797 406.12C126.421 406.271 126.065 406.499 125.728 406.801L125.018 406.01C125.452 405.61 125.916 405.314 126.409 405.124C126.907 404.929 127.452 404.831 128.042 404.831C128.98 404.831 129.686 405.073 130.159 405.556C130.638 406.04 130.877 406.765 130.877 407.731V412.697ZM129.588 409.562V408.823L127.757 409.072C127.195 409.15 126.775 409.292 126.497 409.497C126.219 409.702 126.08 410.024 126.08 410.463C126.08 410.898 126.209 411.235 126.468 411.474C126.731 411.713 127.059 411.833 127.449 411.833C128.094 411.833 128.611 411.621 129.002 411.196C129.393 410.766 129.588 410.222 129.588 409.562ZM139.747 412.697H138.443V408.317C138.443 407.517 138.296 406.916 138.003 406.516C137.71 406.115 137.273 405.915 136.692 405.915C136.087 405.915 135.586 406.142 135.191 406.596C134.8 407.045 134.605 407.617 134.605 408.31V412.697H133.301V405.014H134.605V406.289H134.634C134.922 405.8 135.276 405.437 135.696 405.197C136.116 404.953 136.602 404.831 137.154 404.831C137.994 404.831 138.636 405.102 139.08 405.644C139.524 406.186 139.747 406.97 139.747 407.995V412.697ZM147.569 411.687H147.54V412.697H146.236V401.594H147.54V406.354H147.569C147.872 405.847 148.245 405.466 148.689 405.212C149.134 404.958 149.646 404.831 150.228 404.831C151.209 404.831 151.978 405.175 152.535 405.864C153.091 406.547 153.37 407.468 153.37 408.625C153.37 409.914 153.055 410.947 152.425 411.723C151.8 412.495 150.948 412.88 149.869 412.88C149.361 412.88 148.914 412.783 148.528 412.587C148.147 412.387 147.828 412.087 147.569 411.687ZM147.532 408.493V409.533C147.532 410.168 147.735 410.705 148.14 411.145C148.545 411.579 149.063 411.796 149.693 411.796C150.42 411.796 150.992 411.516 151.407 410.954C151.822 410.393 152.029 409.611 152.029 408.61C152.029 407.771 151.836 407.111 151.451 406.633C151.065 406.154 150.54 405.915 149.876 405.915C149.168 405.915 148.599 406.162 148.169 406.655C147.745 407.143 147.532 407.756 147.532 408.493ZM161.624 409.152H156.219C156.243 410.002 156.47 410.656 156.9 411.115C157.33 411.569 157.933 411.796 158.709 411.796C159.046 411.796 159.39 411.745 159.742 411.643C160.098 411.535 160.455 411.362 160.811 411.123L161.404 412.031C160.96 412.324 160.513 412.539 160.064 412.675C159.615 412.812 159.122 412.88 158.584 412.88C157.422 412.88 156.517 412.536 155.867 411.848C155.218 411.154 154.891 410.188 154.886 408.947C154.881 407.712 155.208 406.718 155.867 405.966C156.531 405.209 157.391 404.831 158.445 404.831C159.451 404.831 160.232 405.158 160.789 405.812C161.346 406.462 161.624 407.368 161.624 408.53V409.152ZM160.313 408.127C160.308 407.419 160.137 406.87 159.8 406.479C159.468 406.088 159.009 405.893 158.423 405.893C157.847 405.893 157.359 406.096 156.958 406.501C156.563 406.901 156.321 407.443 156.233 408.127H160.313ZM173.167 412.214C172.801 412.448 172.435 412.617 172.068 412.719C171.702 412.827 171.309 412.88 170.889 412.88C169.791 412.88 168.895 412.543 168.201 411.87C167.508 411.191 167.161 410.244 167.161 409.028C167.161 407.768 167.513 406.755 168.216 405.988C168.924 405.217 169.891 404.831 171.116 404.831C171.512 404.831 171.888 404.88 172.244 404.978C172.601 405.07 172.959 405.222 173.321 405.432L172.771 406.384C172.493 406.218 172.22 406.101 171.951 406.032C171.683 405.959 171.395 405.922 171.087 405.922C170.252 405.922 169.61 406.201 169.161 406.757C168.716 407.309 168.494 408.02 168.494 408.889C168.494 409.826 168.726 410.544 169.19 411.042C169.659 411.54 170.262 411.789 170.999 411.789C171.248 411.789 171.504 411.752 171.768 411.679C172.037 411.601 172.312 411.472 172.596 411.291L173.167 412.214ZM178.821 406.127C178.724 406.098 178.633 406.076 178.55 406.062C178.467 406.047 178.367 406.04 178.25 406.04C177.63 406.04 177.142 406.303 176.785 406.831C176.429 407.353 176.25 408.015 176.25 408.815V412.697H174.947V405.014H176.25V406.538H176.28C176.456 405.996 176.722 405.585 177.078 405.307C177.439 405.024 177.857 404.882 178.331 404.882C178.482 404.882 178.611 404.89 178.719 404.904C178.831 404.919 178.934 404.941 179.026 404.97L178.821 406.127ZM186.702 409.152H181.297C181.321 410.002 181.548 410.656 181.978 411.115C182.408 411.569 183.011 411.796 183.787 411.796C184.124 411.796 184.468 411.745 184.82 411.643C185.176 411.535 185.533 411.362 185.889 411.123L186.482 412.031C186.038 412.324 185.591 412.539 185.142 412.675C184.693 412.812 184.2 412.88 183.663 412.88C182.5 412.88 181.595 412.536 180.945 411.848C180.296 411.154 179.969 410.188 179.964 408.947C179.959 407.712 180.286 406.718 180.945 405.966C181.609 405.209 182.469 404.831 183.523 404.831C184.529 404.831 185.311 405.158 185.867 405.812C186.424 406.462 186.702 407.368 186.702 408.53V409.152ZM185.391 408.127C185.386 407.419 185.215 406.87 184.878 406.479C184.546 406.088 184.087 405.893 183.501 405.893C182.925 405.893 182.437 406.096 182.037 406.501C181.641 406.901 181.399 407.443 181.312 408.127H185.391ZM194.158 412.697H192.862V411.489H192.833C192.569 411.948 192.242 412.294 191.851 412.529C191.46 412.763 191.006 412.88 190.489 412.88C189.766 412.88 189.183 412.67 188.738 412.25C188.294 411.831 188.072 411.276 188.072 410.588C188.072 409.919 188.296 409.37 188.746 408.94C189.195 408.51 189.842 408.234 190.687 408.112L192.869 407.819V407.644C192.869 407.023 192.72 406.577 192.422 406.303C192.129 406.03 191.734 405.893 191.236 405.893C190.84 405.893 190.455 405.969 190.079 406.12C189.703 406.271 189.346 406.499 189.009 406.801L188.299 406.01C188.733 405.61 189.197 405.314 189.69 405.124C190.188 404.929 190.733 404.831 191.324 404.831C192.261 404.831 192.967 405.073 193.44 405.556C193.919 406.04 194.158 406.765 194.158 407.731V412.697ZM192.869 409.562V408.823L191.038 409.072C190.477 409.15 190.057 409.292 189.778 409.497C189.5 409.702 189.361 410.024 189.361 410.463C189.361 410.898 189.49 411.235 189.749 411.474C190.013 411.713 190.34 411.833 190.73 411.833C191.375 411.833 191.893 411.621 192.283 411.196C192.674 410.766 192.869 410.222 192.869 409.562ZM200.347 412.602C200.137 412.69 199.927 412.753 199.717 412.792C199.512 412.836 199.28 412.858 199.021 412.858C198.392 412.858 197.898 412.678 197.542 412.316C197.19 411.955 197.015 411.42 197.015 410.712V406.098H195.704V405.014H197.015V403.256L198.326 402.839V405.014H200.245V406.098H198.326V410.573C198.326 411.008 198.404 411.32 198.56 411.511C198.716 411.701 198.951 411.796 199.263 411.796C199.41 411.796 199.551 411.779 199.688 411.745C199.825 411.711 199.942 411.669 200.04 411.621L200.347 412.602ZM208.221 409.152H202.815C202.84 410.002 203.067 410.656 203.497 411.115C203.926 411.569 204.529 411.796 205.306 411.796C205.643 411.796 205.987 411.745 206.338 411.643C206.695 411.535 207.051 411.362 207.408 411.123L208.001 412.031C207.557 412.324 207.11 412.539 206.661 412.675C206.211 412.812 205.718 412.88 205.181 412.88C204.019 412.88 203.113 412.536 202.464 411.848C201.814 411.154 201.487 410.188 201.482 408.947C201.478 407.712 201.805 406.718 202.464 405.966C203.128 405.209 203.987 404.831 205.042 404.831C206.048 404.831 206.829 405.158 207.386 405.812C207.942 406.462 208.221 407.368 208.221 408.53V409.152ZM206.91 408.127C206.905 407.419 206.734 406.87 206.397 406.479C206.065 406.088 205.606 405.893 205.02 405.893C204.444 405.893 203.956 406.096 203.555 406.501C203.16 406.901 202.918 407.443 202.83 408.127H206.91ZM215.45 411.408C215.167 411.896 214.805 412.265 214.366 412.514C213.931 412.758 213.418 412.88 212.828 412.88C211.861 412.88 211.087 412.536 210.506 411.848C209.93 411.159 209.642 410.222 209.642 409.035C209.642 407.761 209.961 406.743 210.601 405.981C211.241 405.214 212.093 404.831 213.157 404.831C213.685 404.831 214.139 404.934 214.52 405.139C214.9 405.344 215.21 405.654 215.45 406.069H215.479V401.594H216.783V412.697H215.479V411.408H215.45ZM210.975 408.969C210.975 409.848 211.177 410.539 211.583 411.042C211.988 411.545 212.53 411.796 213.208 411.796C213.892 411.796 214.441 411.552 214.856 411.064C215.271 410.576 215.479 409.958 215.479 409.211V408.112C215.479 407.497 215.276 406.977 214.871 406.552C214.471 406.127 213.963 405.915 213.348 405.915C212.61 405.915 212.029 406.186 211.604 406.728C211.185 407.27 210.975 408.017 210.975 408.969ZM224.766 411.687H224.737V412.697H223.433V401.594H224.737V406.354H224.766C225.069 405.847 225.442 405.466 225.887 405.212C226.331 404.958 226.844 404.831 227.425 404.831C228.406 404.831 229.175 405.175 229.732 405.864C230.289 406.547 230.567 407.468 230.567 408.625C230.567 409.914 230.252 410.947 229.622 411.723C228.997 412.495 228.145 412.88 227.066 412.88C226.558 412.88 226.111 412.783 225.726 412.587C225.345 412.387 225.025 412.087 224.766 411.687ZM224.729 408.493V409.533C224.729 410.168 224.932 410.705 225.337 411.145C225.743 411.579 226.26 411.796 226.89 411.796C227.618 411.796 228.189 411.516 228.604 410.954C229.019 410.393 229.227 409.611 229.227 408.61C229.227 407.771 229.034 407.111 228.648 406.633C228.262 406.154 227.737 405.915 227.073 405.915C226.365 405.915 225.796 406.162 225.367 406.655C224.942 407.143 224.729 407.756 224.729 408.493ZM238.814 405.014L235.232 414.074C234.949 414.797 234.588 415.339 234.148 415.7C233.709 416.062 233.189 416.242 232.588 416.242C232.427 416.242 232.276 416.232 232.134 416.213C231.998 416.193 231.868 416.167 231.746 416.132L231.995 415.041C232.093 415.075 232.183 415.1 232.266 415.114C232.354 415.129 232.442 415.136 232.53 415.136C232.852 415.136 233.123 415.051 233.343 414.88C233.562 414.709 233.741 414.467 233.877 414.155L234.5 412.683L231.49 405.014H232.933L234.969 410.837C234.983 410.886 235.003 410.964 235.027 411.071C235.057 411.174 235.091 411.303 235.13 411.459H235.174C235.188 411.391 235.208 411.308 235.232 411.21C235.262 411.108 235.296 410.988 235.335 410.852L237.474 405.014H238.814ZM250.628 412.697H249.324V411.474H249.295C249.036 411.943 248.707 412.294 248.306 412.529C247.911 412.763 247.447 412.88 246.915 412.88C246.001 412.88 245.315 412.607 244.856 412.06C244.402 411.513 244.175 410.695 244.175 409.606V405.014H245.479V409.409C245.479 410.205 245.63 410.803 245.933 411.203C246.236 411.599 246.692 411.796 247.303 411.796C247.894 411.796 248.377 411.579 248.753 411.145C249.134 410.71 249.324 410.139 249.324 409.431V405.014H250.628V412.697ZM252.474 412.126L253.082 411.145C253.404 411.359 253.724 411.523 254.041 411.635C254.358 411.748 254.708 411.804 255.088 411.804C255.601 411.804 255.992 411.711 256.26 411.525C256.529 411.335 256.663 411.052 256.663 410.676C256.663 410.363 256.543 410.104 256.304 409.899C256.07 409.689 255.699 409.519 255.191 409.387C254.239 409.147 253.584 408.842 253.228 408.471C252.872 408.095 252.693 407.629 252.693 407.072C252.693 406.428 252.938 405.893 253.426 405.468C253.919 405.043 254.59 404.831 255.44 404.831C255.85 404.831 256.238 404.885 256.604 404.992C256.976 405.095 257.349 405.268 257.725 405.512L257.161 406.479C256.819 406.264 256.512 406.115 256.238 406.032C255.965 405.944 255.687 405.9 255.403 405.9C254.92 405.9 254.549 405.991 254.29 406.171C254.031 406.352 253.902 406.613 253.902 406.955C253.902 407.287 254.029 407.541 254.283 407.717C254.537 407.888 254.959 408.049 255.55 408.2C256.336 408.41 256.922 408.703 257.308 409.079C257.698 409.45 257.894 409.946 257.894 410.566C257.894 411.274 257.637 411.838 257.125 412.258C256.617 412.673 255.923 412.88 255.044 412.88C254.566 412.88 254.109 412.817 253.675 412.69C253.245 412.558 252.845 412.37 252.474 412.126ZM260.472 403.388C260.213 403.388 259.998 403.303 259.827 403.132C259.656 402.961 259.571 402.753 259.571 402.509C259.571 402.255 259.656 402.045 259.827 401.879C259.998 401.708 260.213 401.623 260.472 401.623C260.73 401.623 260.945 401.708 261.116 401.879C261.292 402.045 261.38 402.255 261.38 402.509C261.38 402.753 261.292 402.961 261.116 403.132C260.945 403.303 260.73 403.388 260.472 403.388ZM261.109 412.697H259.805V405.014H261.109V412.697ZM270.176 412.697H268.873V408.317C268.873 407.517 268.726 406.916 268.433 406.516C268.14 406.115 267.703 405.915 267.122 405.915C266.517 405.915 266.016 406.142 265.621 406.596C265.23 407.045 265.035 407.617 265.035 408.31V412.697H263.731V405.014H265.035V406.289H265.064C265.352 405.8 265.706 405.437 266.126 405.197C266.546 404.953 267.032 404.831 267.583 404.831C268.423 404.831 269.065 405.102 269.51 405.644C269.954 406.186 270.176 406.97 270.176 407.995V412.697ZM279.185 412.141C279.185 413.493 278.836 414.511 278.138 415.195C277.444 415.883 276.478 416.228 275.237 416.228C274.705 416.228 274.212 416.174 273.758 416.066C273.304 415.964 272.845 415.803 272.381 415.583L272.85 414.594C273.25 414.785 273.638 414.921 274.014 415.004C274.39 415.092 274.795 415.136 275.23 415.136C276.06 415.136 276.709 414.899 277.178 414.426C277.647 413.952 277.881 413.247 277.881 412.309V411.416H277.852C277.564 411.904 277.2 412.27 276.761 412.514C276.321 412.758 275.811 412.88 275.23 412.88C274.273 412.88 273.501 412.539 272.916 411.855C272.334 411.167 272.044 410.246 272.044 409.094C272.044 407.829 272.364 406.804 273.003 406.018C273.648 405.227 274.5 404.831 275.56 404.831C276.077 404.831 276.526 404.934 276.907 405.139C277.288 405.344 277.603 405.654 277.852 406.069H277.881V405.014H279.185V412.141ZM277.881 409.218V408.112C277.881 407.507 277.679 406.989 277.273 406.56C276.873 406.13 276.37 405.915 275.765 405.915C275.022 405.915 274.439 406.174 274.014 406.691C273.589 407.209 273.377 407.983 273.377 409.013C273.377 409.902 273.575 410.588 273.97 411.071C274.366 411.555 274.908 411.796 275.596 411.796C276.275 411.796 276.824 411.555 277.244 411.071C277.669 410.588 277.881 409.97 277.881 409.218ZM285.154 412.126L285.762 411.145C286.084 411.359 286.404 411.523 286.722 411.635C287.039 411.748 287.388 411.804 287.769 411.804C288.282 411.804 288.672 411.711 288.941 411.525C289.209 411.335 289.344 411.052 289.344 410.676C289.344 410.363 289.224 410.104 288.985 409.899C288.75 409.689 288.379 409.519 287.872 409.387C286.919 409.147 286.265 408.842 285.909 408.471C285.552 408.095 285.374 407.629 285.374 407.072C285.374 406.428 285.618 405.893 286.106 405.468C286.6 405.043 287.271 404.831 288.121 404.831C288.531 404.831 288.919 404.885 289.285 404.992C289.656 405.095 290.03 405.268 290.406 405.512L289.842 406.479C289.5 406.264 289.192 406.115 288.919 406.032C288.646 405.944 288.367 405.9 288.084 405.9C287.601 405.9 287.229 405.991 286.971 406.171C286.712 406.352 286.583 406.613 286.583 406.955C286.583 407.287 286.709 407.541 286.963 407.717C287.217 407.888 287.64 408.049 288.23 408.2C289.017 408.41 289.603 408.703 289.988 409.079C290.379 409.45 290.574 409.946 290.574 410.566C290.574 411.274 290.318 411.838 289.805 412.258C289.297 412.673 288.604 412.88 287.725 412.88C287.247 412.88 286.79 412.817 286.355 412.69C285.926 412.558 285.525 412.37 285.154 412.126ZM293.152 403.388C292.894 403.388 292.679 403.303 292.508 403.132C292.337 402.961 292.251 402.753 292.251 402.509C292.251 402.255 292.337 402.045 292.508 401.879C292.679 401.708 292.894 401.623 293.152 401.623C293.411 401.623 293.626 401.708 293.797 401.879C293.973 402.045 294.061 402.255 294.061 402.509C294.061 402.753 293.973 402.961 293.797 403.132C293.626 403.303 293.411 403.388 293.152 403.388ZM293.79 412.697H292.486V405.014H293.79V412.697ZM301.846 405.432L297.349 411.606H301.802V412.697H295.452V412.272L299.971 406.105H295.877V405.014H301.846V405.432ZM309.764 409.152H304.358C304.383 410.002 304.61 410.656 305.04 411.115C305.469 411.569 306.072 411.796 306.849 411.796C307.186 411.796 307.53 411.745 307.881 411.643C308.238 411.535 308.594 411.362 308.951 411.123L309.544 412.031C309.1 412.324 308.653 412.539 308.204 412.675C307.754 412.812 307.261 412.88 306.724 412.88C305.562 412.88 304.656 412.536 304.007 411.848C303.357 411.154 303.03 410.188 303.025 408.947C303.021 407.712 303.348 406.718 304.007 405.966C304.671 405.209 305.53 404.831 306.585 404.831C307.591 404.831 308.372 405.158 308.929 405.812C309.485 406.462 309.764 407.368 309.764 408.53V409.152ZM308.453 408.127C308.448 407.419 308.277 406.87 307.94 406.479C307.608 406.088 307.149 405.893 306.563 405.893C305.987 405.893 305.499 406.096 305.098 406.501C304.703 406.901 304.461 407.443 304.373 408.127H308.453ZM312.884 411.013L311.727 414.624H310.782L311.631 411.013H312.884ZM329.07 405.014L326.771 412.697H325.416L323.863 407.255C323.824 407.119 323.797 406.999 323.782 406.896C323.768 406.789 323.755 406.669 323.746 406.538H323.716C323.707 406.665 323.687 406.779 323.658 406.882C323.633 406.984 323.599 407.106 323.555 407.248L321.878 412.697H320.567L318.252 405.014H319.615L321.175 410.742C321.199 410.83 321.219 410.932 321.233 411.049C321.253 411.167 321.268 411.298 321.277 411.445H321.336C321.346 411.333 321.36 411.215 321.38 411.093C321.404 410.971 321.436 410.849 321.475 410.727L323.211 405.014H324.405L325.965 410.756C325.989 410.844 326.011 410.947 326.031 411.064C326.05 411.181 326.067 411.313 326.082 411.459H326.141C326.146 411.357 326.158 411.247 326.177 411.13C326.202 411.013 326.231 410.888 326.265 410.756L327.789 405.014H329.07ZM336.819 409.152H331.414C331.438 410.002 331.666 410.656 332.095 411.115C332.525 411.569 333.128 411.796 333.904 411.796C334.241 411.796 334.585 411.745 334.937 411.643C335.293 411.535 335.65 411.362 336.006 411.123L336.6 412.031C336.155 412.324 335.708 412.539 335.259 412.675C334.81 412.812 334.317 412.88 333.78 412.88C332.618 412.88 331.712 412.536 331.062 411.848C330.413 411.154 330.086 410.188 330.081 408.947C330.076 407.712 330.403 406.718 331.062 405.966C331.727 405.209 332.586 404.831 333.641 404.831C334.646 404.831 335.428 405.158 335.984 405.812C336.541 406.462 336.819 407.368 336.819 408.53V409.152ZM335.508 408.127C335.503 407.419 335.333 406.87 334.996 406.479C334.664 406.088 334.205 405.893 333.619 405.893C333.042 405.893 332.554 406.096 332.154 406.501C331.758 406.901 331.517 407.443 331.429 408.127H335.508ZM339.412 403.388C339.153 403.388 338.938 403.303 338.768 403.132C338.597 402.961 338.511 402.753 338.511 402.509C338.511 402.255 338.597 402.045 338.768 401.879C338.938 401.708 339.153 401.623 339.412 401.623C339.671 401.623 339.886 401.708 340.057 401.879C340.232 402.045 340.32 402.255 340.32 402.509C340.32 402.753 340.232 402.961 340.057 403.132C339.886 403.303 339.671 403.388 339.412 403.388ZM340.049 412.697H338.746V405.014H340.049V412.697ZM349.307 412.141C349.307 413.493 348.958 414.511 348.26 415.195C347.566 415.883 346.6 416.228 345.359 416.228C344.827 416.228 344.334 416.174 343.88 416.066C343.426 415.964 342.967 415.803 342.503 415.583L342.972 414.594C343.372 414.785 343.76 414.921 344.136 415.004C344.512 415.092 344.917 415.136 345.352 415.136C346.182 415.136 346.832 414.899 347.3 414.426C347.769 413.952 348.003 413.247 348.003 412.309V411.416H347.974C347.686 411.904 347.322 412.27 346.883 412.514C346.443 412.758 345.933 412.88 345.352 412.88C344.395 412.88 343.624 412.539 343.038 411.855C342.457 411.167 342.166 410.246 342.166 409.094C342.166 407.829 342.486 406.804 343.125 406.018C343.77 405.227 344.622 404.831 345.682 404.831C346.199 404.831 346.648 404.934 347.029 405.139C347.41 405.344 347.725 405.654 347.974 406.069H348.003V405.014H349.307V412.141ZM348.003 409.218V408.112C348.003 407.507 347.801 406.989 347.396 406.56C346.995 406.13 346.492 405.915 345.887 405.915C345.145 405.915 344.561 406.174 344.136 406.691C343.711 407.209 343.499 407.983 343.499 409.013C343.499 409.902 343.697 410.588 344.092 411.071C344.488 411.555 345.03 411.796 345.718 411.796C346.397 411.796 346.946 411.555 347.366 411.071C347.791 410.588 348.003 409.97 348.003 409.218ZM358.287 412.697H356.983V408.266C356.983 407.48 356.836 406.892 356.543 406.501C356.25 406.11 355.813 405.915 355.232 405.915C354.642 405.915 354.146 406.142 353.746 406.596C353.345 407.045 353.145 407.629 353.145 408.347V412.697H351.841V401.594H353.145V406.281H353.174C353.467 405.798 353.824 405.437 354.244 405.197C354.664 404.953 355.145 404.831 355.687 404.831C356.551 404.831 357.2 405.092 357.635 405.615C358.069 406.137 358.287 406.921 358.287 407.966V412.697ZM364.424 412.602C364.214 412.69 364.004 412.753 363.794 412.792C363.589 412.836 363.357 412.858 363.099 412.858C362.469 412.858 361.976 412.678 361.619 412.316C361.268 411.955 361.092 411.42 361.092 410.712V406.098H359.781V405.014H361.092V403.256L362.403 402.839V405.014H364.322V406.098H362.403V410.573C362.403 411.008 362.481 411.32 362.637 411.511C362.793 411.701 363.028 411.796 363.34 411.796C363.487 411.796 363.628 411.779 363.765 411.745C363.902 411.711 364.019 411.669 364.117 411.621L364.424 412.602ZM367.259 411.013L366.102 414.624H365.157L366.006 411.013H367.259ZM379.153 412.214C378.787 412.448 378.421 412.617 378.055 412.719C377.688 412.827 377.295 412.88 376.875 412.88C375.777 412.88 374.881 412.543 374.188 411.87C373.494 411.191 373.147 410.244 373.147 409.028C373.147 407.768 373.499 406.755 374.202 405.988C374.91 405.217 375.877 404.831 377.103 404.831C377.498 404.831 377.874 404.88 378.23 404.978C378.587 405.07 378.946 405.222 379.307 405.432L378.758 406.384C378.479 406.218 378.206 406.101 377.938 406.032C377.669 405.959 377.381 405.922 377.073 405.922C376.238 405.922 375.596 406.201 375.147 406.757C374.703 407.309 374.48 408.02 374.48 408.889C374.48 409.826 374.712 410.544 375.176 411.042C375.645 411.54 376.248 411.789 376.985 411.789C377.234 411.789 377.491 411.752 377.754 411.679C378.023 411.601 378.299 411.472 378.582 411.291L379.153 412.214ZM384.192 412.88C383.045 412.88 382.129 412.521 381.446 411.804C380.767 411.081 380.428 410.124 380.428 408.933C380.428 407.648 380.779 406.645 381.482 405.922C382.186 405.2 383.145 404.836 384.361 404.831C385.513 404.826 386.414 405.18 387.063 405.893C387.718 406.601 388.045 407.575 388.045 408.815C388.045 410.051 387.696 411.037 386.998 411.774C386.299 412.512 385.364 412.88 384.192 412.88ZM384.28 411.796C385.062 411.796 385.66 411.542 386.075 411.035C386.495 410.522 386.705 409.797 386.705 408.859C386.705 407.912 386.495 407.185 386.075 406.677C385.655 406.169 385.057 405.915 384.28 405.915C383.504 405.915 382.889 406.181 382.435 406.713C381.985 407.241 381.761 407.968 381.761 408.896C381.761 409.799 381.988 410.51 382.442 411.027C382.896 411.54 383.509 411.796 384.28 411.796ZM390.074 412.697V401.594H391.377V412.697H390.074ZM397.171 412.88C396.023 412.88 395.108 412.521 394.424 411.804C393.746 411.081 393.406 410.124 393.406 408.933C393.406 407.648 393.758 406.645 394.461 405.922C395.164 405.2 396.124 404.836 397.339 404.831C398.492 404.826 399.393 405.18 400.042 405.893C400.696 406.601 401.023 407.575 401.023 408.815C401.023 410.051 400.674 411.037 399.976 411.774C399.278 412.512 398.343 412.88 397.171 412.88ZM397.259 411.796C398.04 411.796 398.638 411.542 399.053 411.035C399.473 410.522 399.683 409.797 399.683 408.859C399.683 407.912 399.473 407.185 399.053 406.677C398.633 406.169 398.035 405.915 397.259 405.915C396.482 405.915 395.867 406.181 395.413 406.713C394.964 407.241 394.739 407.968 394.739 408.896C394.739 409.799 394.966 410.51 395.42 411.027C395.875 411.54 396.487 411.796 397.259 411.796ZM406.927 406.127C406.829 406.098 406.739 406.076 406.656 406.062C406.573 406.047 406.473 406.04 406.355 406.04C405.735 406.04 405.247 406.303 404.891 406.831C404.534 407.353 404.356 408.015 404.356 408.815V412.697H403.052V405.014H404.356V406.538H404.385C404.561 405.996 404.827 405.585 405.184 405.307C405.545 405.024 405.962 404.882 406.436 404.882C406.587 404.882 406.717 404.89 406.824 404.904C406.937 404.919 407.039 404.941 407.132 404.97L406.927 406.127ZM418.221 412.697H416.924V411.489H416.895C416.631 411.948 416.304 412.294 415.914 412.529C415.523 412.763 415.069 412.88 414.551 412.88C413.829 412.88 413.245 412.67 412.801 412.25C412.356 411.831 412.134 411.276 412.134 410.588C412.134 409.919 412.359 409.37 412.808 408.94C413.257 408.51 413.904 408.234 414.749 408.112L416.932 407.819V407.644C416.932 407.023 416.783 406.577 416.485 406.303C416.192 406.03 415.796 405.893 415.298 405.893C414.903 405.893 414.517 405.969 414.141 406.12C413.765 406.271 413.409 406.499 413.072 406.801L412.361 406.01C412.796 405.61 413.26 405.314 413.753 405.124C414.251 404.929 414.795 404.831 415.386 404.831C416.324 404.831 417.029 405.073 417.503 405.556C417.981 406.04 418.221 406.765 418.221 407.731V412.697ZM416.932 409.562V408.823L415.101 409.072C414.539 409.15 414.119 409.292 413.841 409.497C413.562 409.702 413.423 410.024 413.423 410.463C413.423 410.898 413.553 411.235 413.812 411.474C414.075 411.713 414.402 411.833 414.793 411.833C415.438 411.833 415.955 411.621 416.346 411.196C416.736 410.766 416.932 410.222 416.932 409.562ZM427.09 412.697H425.787V408.317C425.787 407.517 425.64 406.916 425.347 406.516C425.054 406.115 424.617 405.915 424.036 405.915C423.431 405.915 422.93 406.142 422.535 406.596C422.144 407.045 421.949 407.617 421.949 408.31V412.697H420.645V405.014H421.949V406.289H421.978C422.266 405.8 422.62 405.437 423.04 405.197C423.46 404.953 423.946 404.831 424.498 404.831C425.337 404.831 425.979 405.102 426.424 405.644C426.868 406.186 427.09 406.97 427.09 407.995V412.697ZM434.766 411.408C434.483 411.896 434.122 412.265 433.682 412.514C433.248 412.758 432.735 412.88 432.144 412.88C431.177 412.88 430.403 412.536 429.822 411.848C429.246 411.159 428.958 410.222 428.958 409.035C428.958 407.761 429.278 406.743 429.917 405.981C430.557 405.214 431.409 404.831 432.474 404.831C433.001 404.831 433.455 404.934 433.836 405.139C434.217 405.344 434.527 405.654 434.766 406.069H434.795V401.594H436.099V412.697H434.795V411.408H434.766ZM430.291 408.969C430.291 409.848 430.494 410.539 430.899 411.042C431.304 411.545 431.846 411.796 432.525 411.796C433.208 411.796 433.758 411.552 434.173 411.064C434.588 410.576 434.795 409.958 434.795 409.211V408.112C434.795 407.497 434.593 406.977 434.188 406.552C433.787 406.127 433.279 405.915 432.664 405.915C431.927 405.915 431.346 406.186 430.921 406.728C430.501 407.27 430.291 408.017 430.291 408.969ZM442.068 412.126L442.676 411.145C442.999 411.359 443.318 411.523 443.636 411.635C443.953 411.748 444.302 411.804 444.683 411.804C445.196 411.804 445.586 411.711 445.855 411.525C446.124 411.335 446.258 411.052 446.258 410.676C446.258 410.363 446.138 410.104 445.899 409.899C445.665 409.689 445.293 409.519 444.786 409.387C443.833 409.147 443.179 408.842 442.823 408.471C442.466 408.095 442.288 407.629 442.288 407.072C442.288 406.428 442.532 405.893 443.021 405.468C443.514 405.043 444.185 404.831 445.035 404.831C445.445 404.831 445.833 404.885 446.199 404.992C446.57 405.095 446.944 405.268 447.32 405.512L446.756 406.479C446.414 406.264 446.106 406.115 445.833 406.032C445.56 405.944 445.281 405.9 444.998 405.9C444.515 405.9 444.144 405.991 443.885 406.171C443.626 406.352 443.497 406.613 443.497 406.955C443.497 407.287 443.624 407.541 443.877 407.717C444.131 407.888 444.554 408.049 445.145 408.2C445.931 408.41 446.517 408.703 446.902 409.079C447.293 409.45 447.488 409.946 447.488 410.566C447.488 411.274 447.232 411.838 446.719 412.258C446.211 412.673 445.518 412.88 444.639 412.88C444.161 412.88 443.704 412.817 443.27 412.69C442.84 412.558 442.439 412.37 442.068 412.126ZM450.733 411.591H450.704V416.147H449.4V405.014H450.704V406.354H450.733C451.036 405.847 451.409 405.466 451.854 405.212C452.298 404.958 452.808 404.831 453.384 404.831C454.375 404.831 455.147 405.175 455.699 405.864C456.255 406.552 456.534 407.473 456.534 408.625C456.534 409.914 456.219 410.947 455.589 411.723C454.964 412.495 454.112 412.88 453.033 412.88C452.535 412.88 452.093 412.773 451.707 412.558C451.326 412.343 451.001 412.021 450.733 411.591ZM450.696 408.5V409.526C450.696 410.161 450.899 410.698 451.304 411.137C451.709 411.577 452.227 411.796 452.857 411.796C453.584 411.796 454.156 411.516 454.571 410.954C454.986 410.393 455.193 409.611 455.193 408.61C455.193 407.766 455 407.106 454.615 406.633C454.229 406.154 453.704 405.915 453.04 405.915C452.332 405.915 451.763 406.162 451.333 406.655C450.909 407.143 450.696 407.758 450.696 408.5ZM464.085 412.697H462.789V411.489H462.759C462.496 411.948 462.168 412.294 461.778 412.529C461.387 412.763 460.933 412.88 460.416 412.88C459.693 412.88 459.109 412.67 458.665 412.25C458.221 411.831 457.999 411.276 457.999 410.588C457.999 409.919 458.223 409.37 458.672 408.94C459.122 408.51 459.769 408.234 460.613 408.112L462.796 407.819V407.644C462.796 407.023 462.647 406.577 462.349 406.303C462.056 406.03 461.661 405.893 461.163 405.893C460.767 405.893 460.381 405.969 460.005 406.12C459.629 406.271 459.273 406.499 458.936 406.801L458.226 406.01C458.66 405.61 459.124 405.314 459.617 405.124C460.115 404.929 460.66 404.831 461.25 404.831C462.188 404.831 462.894 405.073 463.367 405.556C463.846 406.04 464.085 406.765 464.085 407.731V412.697ZM462.796 409.562V408.823L460.965 409.072C460.403 409.15 459.983 409.292 459.705 409.497C459.427 409.702 459.288 410.024 459.288 410.463C459.288 410.898 459.417 411.235 459.676 411.474C459.939 411.713 460.267 411.833 460.657 411.833C461.302 411.833 461.819 411.621 462.21 411.196C462.601 410.766 462.796 410.222 462.796 409.562ZM472.01 412.214C471.644 412.448 471.277 412.617 470.911 412.719C470.545 412.827 470.152 412.88 469.732 412.88C468.633 412.88 467.737 412.543 467.044 411.87C466.351 411.191 466.004 410.244 466.004 409.028C466.004 407.768 466.355 406.755 467.059 405.988C467.767 405.217 468.733 404.831 469.959 404.831C470.354 404.831 470.73 404.88 471.087 404.978C471.443 405.07 471.802 405.222 472.164 405.432L471.614 406.384C471.336 406.218 471.062 406.101 470.794 406.032C470.525 405.959 470.237 405.922 469.93 405.922C469.095 405.922 468.453 406.201 468.003 406.757C467.559 407.309 467.337 408.02 467.337 408.889C467.337 409.826 467.569 410.544 468.033 411.042C468.501 411.54 469.104 411.789 469.842 411.789C470.091 411.789 470.347 411.752 470.611 411.679C470.879 411.601 471.155 411.472 471.438 411.291L472.01 412.214ZM474.456 403.388C474.197 403.388 473.982 403.303 473.812 403.132C473.641 402.961 473.555 402.753 473.555 402.509C473.555 402.255 473.641 402.045 473.812 401.879C473.982 401.708 474.197 401.623 474.456 401.623C474.715 401.623 474.93 401.708 475.101 401.879C475.276 402.045 475.364 402.255 475.364 402.509C475.364 402.753 475.276 402.961 475.101 403.132C474.93 403.303 474.715 403.388 474.456 403.388ZM475.093 412.697H473.79V405.014H475.093V412.697ZM484.161 412.697H482.857V408.317C482.857 407.517 482.71 406.916 482.417 406.516C482.125 406.115 481.688 405.915 481.106 405.915C480.501 405.915 480 406.142 479.605 406.596C479.214 407.045 479.019 407.617 479.019 408.31V412.697H477.715V405.014H479.019V406.289H479.048C479.336 405.8 479.69 405.437 480.11 405.197C480.53 404.953 481.016 404.831 481.568 404.831C482.408 404.831 483.05 405.102 483.494 405.644C483.938 406.186 484.161 406.97 484.161 407.995V412.697ZM493.169 412.141C493.169 413.493 492.82 414.511 492.122 415.195C491.429 415.883 490.462 416.228 489.222 416.228C488.689 416.228 488.196 416.174 487.742 416.066C487.288 415.964 486.829 415.803 486.365 415.583L486.834 414.594C487.234 414.785 487.623 414.921 487.999 415.004C488.375 415.092 488.78 415.136 489.214 415.136C490.044 415.136 490.694 414.899 491.163 414.426C491.631 413.952 491.866 413.247 491.866 412.309V411.416H491.836C491.548 411.904 491.185 412.27 490.745 412.514C490.306 412.758 489.795 412.88 489.214 412.88C488.257 412.88 487.486 412.539 486.9 411.855C486.319 411.167 486.028 410.246 486.028 409.094C486.028 407.829 486.348 406.804 486.988 406.018C487.632 405.227 488.484 404.831 489.544 404.831C490.062 404.831 490.511 404.934 490.892 405.139C491.272 405.344 491.587 405.654 491.836 406.069H491.866V405.014H493.169V412.141ZM491.866 409.218V408.112C491.866 407.507 491.663 406.989 491.258 406.56C490.857 406.13 490.354 405.915 489.749 405.915C489.007 405.915 488.423 406.174 487.999 406.691C487.574 407.209 487.361 407.983 487.361 409.013C487.361 409.902 487.559 410.588 487.955 411.071C488.35 411.555 488.892 411.796 489.581 411.796C490.259 411.796 490.809 411.555 491.229 411.071C491.653 410.588 491.866 409.97 491.866 409.218Z" fill="black" fill-opacity="0.8956"/>
<path d="M51.5732 42.6104H48.541V52H47.3105V42.6104H44.2856V41.4971H51.5732V42.6104ZM58.2163 44.5L54.6787 53.4282C54.4004 54.1313 54.0513 54.6562 53.6313 55.0029C53.2114 55.3545 52.7183 55.5303 52.1519 55.5303C52.0054 55.5303 51.8711 55.5205 51.749 55.501C51.627 55.4863 51.5098 55.4644 51.3975 55.4351L51.6318 54.4097C51.7197 54.439 51.8003 54.4585 51.8735 54.4683C51.9517 54.4829 52.0273 54.4902 52.1006 54.4902C52.4229 54.4902 52.689 54.4072 52.8989 54.2412C53.1138 54.0752 53.2847 53.8408 53.4116 53.5381L54.0635 51.9854L51.1338 44.5H52.4668L54.4956 50.2715C54.5054 50.3057 54.5225 50.3716 54.5469 50.4692C54.5762 50.5669 54.6104 50.6914 54.6494 50.8428H54.6934C54.708 50.7842 54.7251 50.7085 54.7446 50.6157C54.769 50.5229 54.8008 50.4131 54.8398 50.2861L56.9712 44.5H58.2163ZM60.7432 50.916H60.7139V55.4497H59.5127V44.5H60.7139V45.8184H60.7432C61.041 45.3203 61.4048 44.9468 61.8345 44.6978C62.269 44.4487 62.7695 44.3242 63.3359 44.3242C64.3027 44.3242 65.0571 44.6611 65.5991 45.335C66.1411 46.0039 66.4121 46.9023 66.4121 48.0303C66.4121 49.2852 66.1069 50.291 65.4966 51.0479C64.8862 51.7998 64.0513 52.1758 62.9917 52.1758C62.5083 52.1758 62.0786 52.0708 61.7026 51.8608C61.3267 51.6509 61.0068 51.3359 60.7432 50.916ZM60.7139 47.8911V48.9385C60.7139 49.5586 60.9141 50.0859 61.3145 50.5205C61.7197 50.9502 62.2324 51.165 62.8525 51.165C63.5801 51.165 64.1489 50.8867 64.5591 50.3301C64.9741 49.7734 65.1816 48.9995 65.1816 48.0083C65.1816 47.1733 64.9888 46.519 64.603 46.0454C64.2173 45.5718 63.6948 45.335 63.0356 45.335C62.3374 45.335 61.7759 45.5791 61.3511 46.0674C60.9263 46.5508 60.7139 47.1587 60.7139 47.8911ZM74.3589 48.521H69.0562C69.0757 49.3657 69.2979 50.0176 69.7227 50.4766C70.1523 50.9307 70.7529 51.1577 71.5244 51.1577C71.8613 51.1577 72.1982 51.1089 72.5352 51.0112C72.877 50.9087 73.2139 50.7476 73.5459 50.5278L74.1025 51.3848C73.6777 51.6582 73.2529 51.8584 72.8281 51.9854C72.4033 52.1123 71.937 52.1758 71.4292 52.1758C70.2964 52.1758 69.4126 51.8389 68.7778 51.165C68.1431 50.4912 67.8232 49.5513 67.8184 48.3452C67.8135 47.1392 68.1309 46.1675 68.7705 45.4302C69.415 44.6929 70.25 44.3242 71.2754 44.3242C72.252 44.3242 73.0088 44.644 73.5459 45.2837C74.0879 45.9185 74.3589 46.7998 74.3589 47.9277V48.521ZM73.1284 47.5396C73.1235 46.8462 72.9551 46.3066 72.623 45.9209C72.291 45.5303 71.8345 45.335 71.2534 45.335C70.6821 45.335 70.1963 45.5352 69.7959 45.9355C69.4004 46.3311 69.1587 46.8657 69.0708 47.5396H73.1284ZM88.3555 52H87.125V47.21H81.6904V52H80.46V41.4971H81.6904V46.104H87.125V41.4971H88.3555V52ZM91.5635 42.7056C91.3193 42.7056 91.1143 42.625 90.9482 42.4639C90.7822 42.2979 90.6992 42.0952 90.6992 41.856C90.6992 41.6167 90.7822 41.4165 90.9482 41.2554C91.1143 41.0894 91.3193 41.0063 91.5635 41.0063C91.8076 41.0063 92.0127 41.0894 92.1787 41.2554C92.3447 41.4165 92.4277 41.6167 92.4277 41.856C92.4277 42.0952 92.3447 42.2979 92.1787 42.4639C92.0127 42.625 91.8076 42.7056 91.5635 42.7056ZM92.1494 52H90.9482V44.5H92.1494V52ZM100.609 48.521H95.3062C95.3257 49.3657 95.5479 50.0176 95.9727 50.4766C96.4023 50.9307 97.0029 51.1577 97.7744 51.1577C98.1113 51.1577 98.4482 51.1089 98.7852 51.0112C99.127 50.9087 99.4639 50.7476 99.7959 50.5278L100.353 51.3848C99.9277 51.6582 99.5029 51.8584 99.0781 51.9854C98.6533 52.1123 98.187 52.1758 97.6792 52.1758C96.5464 52.1758 95.6626 51.8389 95.0278 51.165C94.3931 50.4912 94.0732 49.5513 94.0684 48.3452C94.0635 47.1392 94.3809 46.1675 95.0205 45.4302C95.665 44.6929 96.5 44.3242 97.5254 44.3242C98.502 44.3242 99.2588 44.644 99.7959 45.2837C100.338 45.9185 100.609 46.7998 100.609 47.9277V48.521ZM99.3784 47.5396C99.3735 46.8462 99.2051 46.3066 98.873 45.9209C98.541 45.5303 98.0845 45.335 97.5034 45.335C96.9321 45.335 96.4463 45.5352 96.0459 45.9355C95.6504 46.3311 95.4087 46.8657 95.3208 47.5396H99.3784ZM106.131 45.5254C106.039 45.4961 105.956 45.4766 105.882 45.4668C105.809 45.4521 105.716 45.4448 105.604 45.4448C104.994 45.4448 104.513 45.7061 104.161 46.2285C103.81 46.7461 103.634 47.3955 103.634 48.1768V52H102.433V44.5H103.634V45.9868H103.663C103.834 45.4595 104.095 45.0591 104.447 44.7856C104.798 44.5073 105.204 44.3682 105.663 44.3682C105.814 44.3682 105.941 44.3755 106.043 44.3901C106.151 44.4048 106.246 44.4268 106.329 44.4561L106.131 45.5254ZM112.958 52H111.756V50.8281H111.727C111.468 51.2773 111.148 51.6143 110.768 51.8389C110.392 52.0635 109.952 52.1758 109.449 52.1758C108.746 52.1758 108.177 51.9707 107.743 51.5605C107.308 51.1504 107.091 50.606 107.091 49.9272C107.091 49.2876 107.311 48.7578 107.75 48.3379C108.189 47.918 108.812 47.6494 109.618 47.5322L111.756 47.2466V47.0781C111.756 46.4482 111.61 46.0015 111.317 45.7378C111.024 45.4692 110.633 45.335 110.145 45.335C109.754 45.335 109.378 45.4082 109.017 45.5547C108.656 45.7012 108.316 45.9258 107.999 46.2285L107.296 45.5034C107.716 45.0981 108.163 44.8003 108.636 44.6099C109.11 44.4194 109.637 44.3242 110.218 44.3242C111.126 44.3242 111.81 44.5586 112.269 45.0273C112.728 45.4912 112.958 46.1895 112.958 47.1221V52ZM111.756 48.9531V48.2061L109.947 48.4551C109.396 48.5332 108.98 48.6724 108.702 48.8726C108.424 49.0728 108.285 49.3877 108.285 49.8174C108.285 50.2666 108.414 50.6108 108.673 50.8501C108.937 51.0845 109.256 51.2017 109.632 51.2017C110.282 51.2017 110.797 50.9893 111.178 50.5645C111.563 50.1396 111.756 49.6025 111.756 48.9531ZM118.978 45.5254C118.885 45.4961 118.802 45.4766 118.729 45.4668C118.656 45.4521 118.563 45.4448 118.451 45.4448C117.84 45.4448 117.359 45.7061 117.008 46.2285C116.656 46.7461 116.48 47.3955 116.48 48.1768V52H115.279V44.5H116.48V45.9868H116.51C116.681 45.4595 116.942 45.0591 117.293 44.7856C117.645 44.5073 118.05 44.3682 118.509 44.3682C118.661 44.3682 118.788 44.3755 118.89 44.3901C118.998 44.4048 119.093 44.4268 119.176 44.4561L118.978 45.5254ZM125.768 51.5532C125.421 51.7681 125.074 51.9243 124.728 52.022C124.381 52.1245 124.002 52.1758 123.592 52.1758C122.538 52.1758 121.671 51.8486 120.992 51.1943C120.318 50.54 119.981 49.6123 119.981 48.4111C119.981 47.1904 120.321 46.2041 121 45.4521C121.683 44.7002 122.621 44.3242 123.812 44.3242C124.198 44.3242 124.564 44.3706 124.911 44.4634C125.262 44.5562 125.616 44.7075 125.973 44.9175L125.467 45.7964C125.189 45.6401 124.916 45.5254 124.647 45.4521C124.378 45.3789 124.085 45.3423 123.768 45.3423C122.943 45.3423 122.311 45.6182 121.871 46.1699C121.432 46.7217 121.212 47.4224 121.212 48.272C121.212 49.2095 121.441 49.9248 121.9 50.418C122.364 50.9111 122.962 51.1577 123.695 51.1577C123.934 51.1577 124.183 51.1211 124.442 51.0479C124.706 50.9697 124.969 50.8501 125.233 50.689L125.768 51.5532ZM133.648 52H132.447V47.6787C132.447 46.8975 132.301 46.3115 132.008 45.9209C131.72 45.5303 131.285 45.335 130.704 45.335C130.118 45.335 129.625 45.562 129.225 46.0161C128.824 46.4653 128.624 47.0439 128.624 47.752V52H127.423V40.8965H128.624V45.7451H128.653C128.941 45.2715 129.291 44.9175 129.701 44.6831C130.111 44.4438 130.582 44.3242 131.114 44.3242C131.959 44.3242 132.591 44.5781 133.011 45.0859C133.436 45.5938 133.648 46.3579 133.648 47.3784V52ZM141.888 44.5L138.351 53.4282C138.072 54.1313 137.723 54.6562 137.303 55.0029C136.883 55.3545 136.39 55.5303 135.824 55.5303C135.677 55.5303 135.543 55.5205 135.421 55.501C135.299 55.4863 135.182 55.4644 135.069 55.4351L135.304 54.4097C135.392 54.439 135.472 54.4585 135.545 54.4683C135.624 54.4829 135.699 54.4902 135.772 54.4902C136.095 54.4902 136.361 54.4072 136.571 54.2412C136.786 54.0752 136.957 53.8408 137.083 53.5381L137.735 51.9854L134.806 44.5H136.139L138.167 50.2715C138.177 50.3057 138.194 50.3716 138.219 50.4692C138.248 50.5669 138.282 50.6914 138.321 50.8428H138.365C138.38 50.7842 138.397 50.7085 138.417 50.6157C138.441 50.5229 138.473 50.4131 138.512 50.2861L140.643 44.5H141.888Z" fill="black"/>
</svg>
