<svg width="1152" height="576" viewBox="0 0 1152 576" version="1.1" xmlns="http://www.w3.org/2000/svg" xmlns:xlink="http://www.w3.org/1999/xlink">
<title>dimensions</title>
<desc>Created using Figma</desc>
<g id="Canvas" transform="translate(1127 11118)">
<g id="dimensions">
<path d="M -1127 -11118L 25 -11118L 25 -10542L -1127 -10542L -1127 -11118Z" fill="#243A5E"/>
<g id="Rectangle">
<use xlink:href="#path0_fill" transform="translate(-855 -10964)" fill="#FFFFFF"/>
</g>
<g id="These articles help">
<use xlink:href="#path1_fill" transform="translate(-604 -10855)" fill="#212121"/>
</g>
<g id="These articles help">
<use xlink:href="#path2_fill" transform="translate(-607 -10674)" fill="#37E8FD"/>
</g>
<g id="These articles help">
<use xlink:href="#path3_fill" transform="translate(-232 -10852)" fill="#37E8FD"/>
</g>
<g id="Line">
<use xlink:href="#path4_stroke" transform="matrix(6.12323e-17 -1 1 6.12323e-17 -254 -10715)" fill="#37E8FD"/>
</g>
<g id="Line">
<use xlink:href="#path5_stroke" transform="matrix(-1 1.22465e-16 -1.22465e-16 -1 -279 -10695)" fill="#37E8FD"/>
</g>
<g id="Line 2.1">
<use xlink:href="#path6_stroke" transform="matrix(6.12323e-17 1 -1 6.12323e-17 -279 -10702)" fill="#37E8FD"/>
</g>
<g id="Line 2.4">
<use xlink:href="#path6_stroke" transform="matrix(6.12323e-17 1 -1 6.12323e-17 -855 -10702)" fill="#37E8FD"/>
</g>
<g id="Line 2.2">
<use xlink:href="#path6_stroke" transform="matrix(1 -2.67189e-24 2.67189e-24 1 -263 -10963)" fill="#37E8FD"/>
</g>
<g id="Line 2.3">
<use xlink:href="#path6_stroke" transform="matrix(1 -2.67189e-24 2.67189e-24 1 -263 -10715)" fill="#37E8FD"/>
</g>
</g>
</g>
<defs>
<path id="path0_fill" d="M 0 0L 576 0L 576 249L 0 249L 0 0Z"/>
<path id="path1_fill" d="M 29.4424 20.5312C 28.5987 20.9688 27.5492 21.1875 26.294 21.1875C 24.669 21.1875 23.3669 20.6745 22.3877 19.6484C 21.4086 18.6224 20.919 17.276 20.919 15.6094C 20.919 13.8177 21.4685 12.3698 22.5674 11.2656C 23.6716 10.1615 25.0648 9.60938 26.7471 9.60938C 27.8305 9.60938 28.7289 9.76302 29.4424 10.0703L 29.4424 11.9141C 28.6872 11.4661 27.8539 11.2422 26.9424 11.2422C 25.7289 11.2422 24.7445 11.6302 23.9893 12.4062C 23.2393 13.1823 22.8643 14.2188 22.8643 15.5156C 22.8643 16.75 23.2159 17.7344 23.919 18.4688C 24.6221 19.1979 25.5466 19.5625 26.6924 19.5625C 27.7497 19.5625 28.6664 19.3125 29.4424 18.8125L 29.4424 20.5312ZM 34.9112 21.1875C 33.6768 21.1875 32.6898 20.8151 31.9502 20.0703C 31.2159 19.3203 30.8487 18.3281 30.8487 17.0938C 30.8487 15.75 31.2315 14.7005 31.9971 13.9453C 32.768 13.1901 33.8044 12.8125 35.1065 12.8125C 36.3565 12.8125 37.3305 13.1797 38.0284 13.9141C 38.7263 14.6484 39.0752 15.6667 39.0752 16.9688C 39.0752 18.2448 38.6976 19.2682 37.9424 20.0391C 37.1924 20.8047 36.182 21.1875 34.9112 21.1875ZM 34.9971 14.2578C 34.2888 14.2578 33.7289 14.5052 33.3174 15C 32.906 15.4948 32.7002 16.1771 32.7002 17.0469C 32.7002 17.8854 32.9086 18.5469 33.3252 19.0312C 33.7419 19.5104 34.2992 19.75 34.9971 19.75C 35.7107 19.75 36.2575 19.513 36.6377 19.0391C 37.0232 18.5651 37.2159 17.8906 37.2159 17.0156C 37.2159 16.1354 37.0232 15.4557 36.6377 14.9766C 36.2575 14.4974 35.7107 14.2578 34.9971 14.2578ZM 48.0518 21L 46.2393 21L 46.2393 16.4922C 46.2393 14.9974 45.7107 14.25 44.6534 14.25C 44.1013 14.25 43.6456 14.4583 43.2862 14.875C 42.9268 15.2865 42.7471 15.8073 42.7471 16.4375L 42.7471 21L 40.9268 21L 40.9268 13L 42.7471 13L 42.7471 14.3281L 42.7784 14.3281C 43.3773 13.3177 44.2419 12.8125 45.3721 12.8125C 46.2419 12.8125 46.906 13.0964 47.3643 13.6641C 47.8226 14.2266 48.0518 15.0417 48.0518 16.1094L 48.0518 21ZM 54.4893 20.9141C 54.1351 21.0911 53.669 21.1797 53.0909 21.1797C 51.5388 21.1797 50.7627 20.4349 50.7627 18.9453L 50.7627 14.4219L 49.4268 14.4219L 49.4268 13L 50.7627 13L 50.7627 11.1484L 52.5752 10.6328L 52.5752 13L 54.4893 13L 54.4893 14.4219L 52.5752 14.4219L 52.5752 18.4219C 52.5752 18.8958 52.6612 19.2344 52.8331 19.4375C 53.0049 19.6406 53.2914 19.7422 53.6924 19.7422C 53.9997 19.7422 54.2653 19.6536 54.4893 19.4766L 54.4893 20.9141ZM 62.7315 17.4922L 57.2784 17.4922C 57.2992 18.2318 57.5258 18.8021 57.9581 19.2031C 58.3956 19.6042 58.9945 19.8047 59.7549 19.8047C 60.6091 19.8047 61.393 19.5495 62.1065 19.0391L 62.1065 20.5C 61.3773 20.9583 60.4138 21.1875 59.2159 21.1875C 58.0388 21.1875 57.1143 20.8255 56.4424 20.1016C 55.7758 19.3724 55.4424 18.349 55.4424 17.0312C 55.4424 15.7865 55.8096 14.7734 56.544 13.9922C 57.2836 13.2057 58.2002 12.8125 59.294 12.8125C 60.3877 12.8125 61.2341 13.1641 61.8331 13.8672C 62.432 14.5703 62.7315 15.5469 62.7315 16.7969L 62.7315 17.4922ZM 60.9815 16.2109C 60.9763 15.5599 60.8226 15.0547 60.5206 14.6953C 60.2185 14.3307 59.8018 14.1484 59.2706 14.1484C 58.7497 14.1484 58.307 14.3385 57.9424 14.7188C 57.5831 15.099 57.3617 15.5964 57.2784 16.2109L 60.9815 16.2109ZM 71.5831 21L 69.7706 21L 69.7706 16.4922C 69.7706 14.9974 69.2419 14.25 68.1846 14.25C 67.6325 14.25 67.1768 14.4583 66.8174 14.875C 66.4581 15.2865 66.2784 15.8073 66.2784 16.4375L 66.2784 21L 64.4581 21L 64.4581 13L 66.2784 13L 66.2784 14.3281L 66.3096 14.3281C 66.9086 13.3177 67.7732 12.8125 68.9034 12.8125C 69.7732 12.8125 70.4372 13.0964 70.8956 13.6641C 71.3539 14.2266 71.5831 15.0417 71.5831 16.1094L 71.5831 21ZM 78.0206 20.9141C 77.6664 21.0911 77.2002 21.1797 76.6221 21.1797C 75.07 21.1797 74.294 20.4349 74.294 18.9453L 74.294 14.4219L 72.9581 14.4219L 72.9581 13L 74.294 13L 74.294 11.1484L 76.1065 10.6328L 76.1065 13L 78.0206 13L 78.0206 14.4219L 76.1065 14.4219L 76.1065 18.4219C 76.1065 18.8958 76.1924 19.2344 76.3643 19.4375C 76.5362 19.6406 76.8226 19.7422 77.2237 19.7422C 77.531 19.7422 77.7966 19.6536 78.0206 19.4766L 78.0206 20.9141Z"/>
<path id="path2_fill" d="M 33.0938 7.79688L 30.0234 19L 27.9219 19L 25.7891 11.1641C 25.7005 10.8307 25.6458 10.4661 25.625 10.0703L 25.5938 10.0703C 25.5677 10.4401 25.5052 10.7995 25.4062 11.1484L 23.2656 19L 21.1172 19L 17.9844 7.79688L 20.0234 7.79688L 22.0547 16C 22.138 16.3438 22.1901 16.7031 22.2109 17.0781L 22.25 17.0781C 22.2708 16.8125 22.3438 16.4531 22.4688 16L 24.7656 7.79688L 26.6797 7.79688L 28.8047 16.0625C 28.8776 16.3438 28.9323 16.6771 28.9688 17.0625L 29 17.0625C 29.0156 16.8021 29.0755 16.4583 29.1797 16.0312L 31.1719 7.79688L 33.0938 7.79688ZM 35.3594 9.32031C 35.0625 9.32031 34.8073 9.22396 34.5938 9.03125C 34.3854 8.83854 34.2812 8.59375 34.2812 8.29688C 34.2812 8 34.3854 7.7526 34.5938 7.55469C 34.8073 7.35677 35.0625 7.25781 35.3594 7.25781C 35.6667 7.25781 35.9271 7.35677 36.1406 7.55469C 36.3542 7.7526 36.4609 8 36.4609 8.29688C 36.4609 8.57812 36.3542 8.82031 36.1406 9.02344C 35.9271 9.22135 35.6667 9.32031 35.3594 9.32031ZM 36.2578 19L 34.4453 19L 34.4453 11L 36.2578 11L 36.2578 19ZM 45.9062 19L 44.0938 19L 44.0938 17.6406L 44.0625 17.6406C 43.4792 18.6719 42.5807 19.1875 41.3672 19.1875C 40.3828 19.1875 39.5938 18.8307 39 18.1172C 38.4115 17.3984 38.1172 16.4219 38.1172 15.1875C 38.1172 13.8646 38.4427 12.8047 39.0938 12.0078C 39.75 11.2109 40.6224 10.8125 41.7109 10.8125C 42.7891 10.8125 43.5729 11.2448 44.0625 12.1094L 44.0938 12.1094L 44.0938 7.15625L 45.9062 7.15625L 45.9062 19ZM 44.1172 15.3438L 44.1172 14.2969C 44.1172 13.7292 43.9323 13.2474 43.5625 12.8516C 43.1927 12.4557 42.7214 12.2578 42.1484 12.2578C 41.4714 12.2578 40.9375 12.5104 40.5469 13.0156C 40.1615 13.5208 39.9688 14.2214 39.9688 15.1172C 39.9688 15.9297 40.1536 16.5729 40.5234 17.0469C 40.8984 17.5156 41.401 17.75 42.0312 17.75C 42.651 17.75 43.1536 17.5234 43.5391 17.0703C 43.9245 16.612 44.1172 16.0365 44.1172 15.3438ZM 52.4922 18.9141C 52.138 19.0911 51.6719 19.1797 51.0938 19.1797C 49.5417 19.1797 48.7656 18.4349 48.7656 16.9453L 48.7656 12.4219L 47.4297 12.4219L 47.4297 11L 48.7656 11L 48.7656 9.14844L 50.5781 8.63281L 50.5781 11L 52.4922 11L 52.4922 12.4219L 50.5781 12.4219L 50.5781 16.4219C 50.5781 16.8958 50.6641 17.2344 50.8359 17.4375C 51.0078 17.6406 51.2943 17.7422 51.6953 17.7422C 52.0026 17.7422 52.2682 17.6536 52.4922 17.4766L 52.4922 18.9141ZM 61.1641 19L 59.3516 19L 59.3516 14.625C 59.3516 13.0417 58.8229 12.25 57.7656 12.25C 57.2344 12.25 56.7865 12.4792 56.4219 12.9375C 56.0573 13.3958 55.875 13.9818 55.875 14.6953L 55.875 19L 54.0547 19L 54.0547 7.15625L 55.875 7.15625L 55.875 12.3281L 55.9062 12.3281C 56.5104 11.3177 57.375 10.8125 58.5 10.8125C 60.276 10.8125 61.1641 11.8984 61.1641 14.0703L 61.1641 19Z"/>
<path id="path3_fill" d="M 10.3828 19L 8.51562 19L 8.51562 14.1406L 3.24219 14.1406L 3.24219 19L 1.38281 19L 1.38281 7.79688L 3.24219 7.79688L 3.24219 12.5078L 8.51562 12.5078L 8.51562 7.79688L 10.3828 7.79688L 10.3828 19ZM 19.7188 15.4922L 14.2656 15.4922C 14.2865 16.2318 14.513 16.8021 14.9453 17.2031C 15.3828 17.6042 15.9818 17.8047 16.7422 17.8047C 17.5964 17.8047 18.3802 17.5495 19.0938 17.0391L 19.0938 18.5C 18.3646 18.9583 17.401 19.1875 16.2031 19.1875C 15.026 19.1875 14.1016 18.8255 13.4297 18.1016C 12.763 17.3724 12.4297 16.349 12.4297 15.0312C 12.4297 13.7865 12.7969 12.7734 13.5312 11.9922C 14.2708 11.2057 15.1875 10.8125 16.2812 10.8125C 17.375 10.8125 18.2214 11.1641 18.8203 11.8672C 19.4193 12.5703 19.7188 13.5469 19.7188 14.7969L 19.7188 15.4922ZM 17.9688 14.2109C 17.9635 13.5599 17.8099 13.0547 17.5078 12.6953C 17.2057 12.3307 16.7891 12.1484 16.2578 12.1484C 15.737 12.1484 15.2943 12.3385 14.9297 12.7188C 14.5703 13.099 14.349 13.5964 14.2656 14.2109L 17.9688 14.2109ZM 22.3594 9.32031C 22.0625 9.32031 21.8073 9.22396 21.5938 9.03125C 21.3854 8.83854 21.2812 8.59375 21.2812 8.29688C 21.2812 8 21.3854 7.7526 21.5938 7.55469C 21.8073 7.35677 22.0625 7.25781 22.3594 7.25781C 22.6667 7.25781 22.9271 7.35677 23.1406 7.55469C 23.3542 7.7526 23.4609 8 23.4609 8.29688C 23.4609 8.57812 23.3542 8.82031 23.1406 9.02344C 22.9271 9.22135 22.6667 9.32031 22.3594 9.32031ZM 23.2578 19L 21.4453 19L 21.4453 11L 23.2578 11L 23.2578 19ZM 32.9141 18.3594C 32.9141 21.2969 31.4375 22.7656 28.4844 22.7656C 27.4427 22.7656 26.5339 22.5911 25.7578 22.2422L 25.7578 20.5859C 26.6328 21.0859 27.4635 21.3359 28.25 21.3359C 30.151 21.3359 31.1016 20.401 31.1016 18.5312L 31.1016 17.6562L 31.0703 17.6562C 30.4714 18.6771 29.5703 19.1875 28.3672 19.1875C 27.3932 19.1875 26.6068 18.8333 26.0078 18.125C 25.4141 17.4115 25.1172 16.4557 25.1172 15.2578C 25.1172 13.8984 25.4375 12.8177 26.0781 12.0156C 26.7188 11.2135 27.599 10.8125 28.7188 10.8125C 29.776 10.8125 30.5599 11.2448 31.0703 12.1094L 31.1016 12.1094L 31.1016 11L 32.9141 11L 32.9141 18.3594ZM 31.1172 15.3359L 31.1172 14.2969C 31.1172 13.7344 30.9297 13.2552 30.5547 12.8594C 30.1849 12.4583 29.7214 12.2578 29.1641 12.2578C 28.4766 12.2578 27.9375 12.513 27.5469 13.0234C 27.1615 13.5286 26.9688 14.237 26.9688 15.1484C 26.9688 15.9349 27.1536 16.5651 27.5234 17.0391C 27.8984 17.5078 28.3932 17.7422 29.0078 17.7422C 29.6328 17.7422 30.1406 17.5182 30.5312 17.0703C 30.9219 16.6172 31.1172 16.0391 31.1172 15.3359ZM 42.3828 19L 40.5703 19L 40.5703 14.625C 40.5703 13.0417 40.0417 12.25 38.9844 12.25C 38.4531 12.25 38.0052 12.4792 37.6406 12.9375C 37.276 13.3958 37.0938 13.9818 37.0938 14.6953L 37.0938 19L 35.2734 19L 35.2734 7.15625L 37.0938 7.15625L 37.0938 12.3281L 37.125 12.3281C 37.7292 11.3177 38.5938 10.8125 39.7188 10.8125C 41.4948 10.8125 42.3828 11.8984 42.3828 14.0703L 42.3828 19ZM 48.8047 18.9141C 48.4505 19.0911 47.9844 19.1797 47.4062 19.1797C 45.8542 19.1797 45.0781 18.4349 45.0781 16.9453L 45.0781 12.4219L 43.7422 12.4219L 43.7422 11L 45.0781 11L 45.0781 9.14844L 46.8906 8.63281L 46.8906 11L 48.8047 11L 48.8047 12.4219L 46.8906 12.4219L 46.8906 16.4219C 46.8906 16.8958 46.9766 17.2344 47.1484 17.4375C 47.3203 17.6406 47.6068 17.7422 48.0078 17.7422C 48.3151 17.7422 48.5807 17.6536 48.8047 17.4766L 48.8047 18.9141Z"/>
<path id="path4_stroke" d="M 0 0L 248 0L 248 -2L 0 -2L 0 0Z"/>
<path id="path5_stroke" d="M 0 0L 576 0L 576 -2L 0 -2L 0 0Z"/>
<path id="path6_stroke" d="M 0 0L 16 0L 16 -2L 0 -2L 0 0Z"/>
</defs>
</svg>
