<svg width="1920" height="974" viewBox="0 0 1920 974" version="1.1" xmlns="http://www.w3.org/2000/svg" xmlns:xlink="http://www.w3.org/1999/xlink">
<g id="Canvas" fill="none">
<g id="xaml-layout-margins-padding">
<rect width="1920" height="973.333" fill="#F2F2F2"/>
<g id="Rectangle">
<rect width="1426.67" height="706.667" transform="translate(240 133.334)" fill="#243A5E"/>
</g>
<g id="Rectangle_2">
<rect width="1320" height="600" transform="translate(293.334 186.666)" fill="#F4F4F4"/>
</g>
<g id="Rectangle 2">
<rect width="786.667" height="133.333" transform="translate(560 0)" fill="#A7F3FF"/>
</g>
<g id="Rectangle 2.2">
<rect width="786.667" height="133.333" transform="translate(560 186.666)" fill="#DCFAFF"/>
</g>
<g id="Rectangle 2.1">
<rect width="786.667" height="133.333" transform="translate(560 840)" fill="#A7F3FF"/>
</g>
<g id="Rectangle_3">
<rect width="786.667" height="333.333" transform="translate(560 320)" fill="white"/>
</g>
<g id="These articles help">
<path d="M 134.616 36L 131.159 36L 131.159 22.4062C 131.159 21.293 131.227 19.9307 131.364 18.3193L 131.305 18.3193C 131.09 19.2373 130.9 19.8965 130.734 20.2969L 124.465 36L 122.062 36L 115.778 20.4141C 115.602 19.9551 115.417 19.2568 115.221 18.3193L 115.163 18.3193C 115.241 19.1592 115.28 20.5312 115.28 22.4355L 115.28 36L 112.057 36L 112.057 14.9941L 116.965 14.9941L 122.487 28.9834C 122.907 30.0576 123.18 30.8584 123.307 31.3857L 123.381 31.3857C 123.742 30.2822 124.035 29.4619 124.259 28.9248L 129.884 14.9941L 134.616 14.9941L 134.616 36ZM 150.934 36L 147.638 36L 147.638 33.6562L 147.58 33.6562C 146.545 35.4531 145.026 36.3516 143.024 36.3516C 141.549 36.3516 140.392 35.9512 139.552 35.1504C 138.722 34.3496 138.307 33.29 138.307 31.9717C 138.307 29.1396 139.938 27.4893 143.2 27.0205L 147.653 26.3906C 147.653 24.252 146.637 23.1826 144.606 23.1826C 142.819 23.1826 141.208 23.7979 139.772 25.0283L 139.772 22.0547C 141.354 21.1172 143.18 20.6484 145.251 20.6484C 149.04 20.6484 150.934 22.5137 150.934 26.2441L 150.934 36ZM 147.653 28.6318L 144.504 29.0713C 143.527 29.1982 142.79 29.4375 142.292 29.7891C 141.803 30.1309 141.559 30.7363 141.559 31.6055C 141.559 32.2402 141.784 32.7627 142.233 33.1729C 142.692 33.5732 143.302 33.7734 144.064 33.7734C 145.099 33.7734 145.954 33.4121 146.628 32.6895C 147.311 31.957 147.653 31.0391 147.653 29.9355L 147.653 28.6318ZM 163.796 24.2373C 163.385 23.915 162.795 23.7539 162.023 23.7539C 161.017 23.7539 160.177 24.208 159.504 25.1162C 158.83 26.0244 158.493 27.2598 158.493 28.8223L 158.493 36L 155.094 36L 155.094 21L 158.493 21L 158.493 24.0908L 158.551 24.0908C 158.883 23.0361 159.391 22.2158 160.075 21.6299C 160.768 21.0342 161.54 20.7363 162.389 20.7363C 163.005 20.7363 163.473 20.8291 163.796 21.0146L 163.796 24.2373ZM 179.587 34.7988C 179.587 40.3066 176.818 43.0605 171.281 43.0605C 169.328 43.0605 167.624 42.7334 166.169 42.0791L 166.169 38.9736C 167.809 39.9111 169.367 40.3799 170.841 40.3799C 174.406 40.3799 176.188 38.627 176.188 35.1211L 176.188 33.4805L 176.13 33.4805C 175.007 35.3945 173.317 36.3516 171.061 36.3516C 169.235 36.3516 167.76 35.6875 166.637 34.3594C 165.524 33.0215 164.967 31.2295 164.967 28.9834C 164.967 26.4346 165.568 24.4082 166.769 22.9043C 167.97 21.4004 169.621 20.6484 171.72 20.6484C 173.703 20.6484 175.173 21.459 176.13 23.0801L 176.188 23.0801L 176.188 21L 179.587 21L 179.587 34.7988ZM 176.217 29.1299L 176.217 27.1816C 176.217 26.127 175.866 25.2285 175.163 24.4863C 174.469 23.7344 173.6 23.3584 172.555 23.3584C 171.266 23.3584 170.256 23.8369 169.523 24.7939C 168.8 25.7412 168.439 27.0693 168.439 28.7783C 168.439 30.2529 168.786 31.4346 169.479 32.3232C 170.182 33.2021 171.11 33.6416 172.262 33.6416C 173.434 33.6416 174.386 33.2217 175.119 32.3818C 175.851 31.5322 176.217 30.4482 176.217 29.1299ZM 185.724 17.8506C 185.168 17.8506 184.689 17.6699 184.289 17.3086C 183.898 16.9473 183.703 16.4883 183.703 15.9316C 183.703 15.375 183.898 14.9111 184.289 14.54C 184.689 14.1689 185.168 13.9834 185.724 13.9834C 186.3 13.9834 186.789 14.1689 187.189 14.54C 187.59 14.9111 187.79 15.375 187.79 15.9316C 187.79 16.459 187.59 16.9131 187.189 17.2939C 186.789 17.665 186.3 17.8506 185.724 17.8506ZM 187.409 36L 184.01 36L 184.01 21L 187.409 21L 187.409 36ZM 205.221 36L 201.823 36L 201.823 27.5479C 201.823 24.7451 200.832 23.3438 198.849 23.3438C 197.814 23.3438 196.96 23.7344 196.286 24.5156C 195.612 25.2871 195.275 26.2637 195.275 27.4453L 195.275 36L 191.862 36L 191.862 21L 195.275 21L 195.275 23.4902L 195.334 23.4902C 196.457 21.5957 198.078 20.6484 200.197 20.6484C 201.828 20.6484 203.073 21.1807 203.932 22.2451C 204.792 23.2998 205.221 24.8281 205.221 26.8301L 205.221 36ZM 217.277 29.0566L 209.279 29.0566L 209.279 26.5518L 217.277 26.5518L 217.277 29.0566ZM 235.309 17.9531L 229.274 17.9531L 229.274 36L 225.788 36L 225.788 17.9531L 219.767 17.9531L 219.767 14.9941L 235.309 14.9941L 235.309 17.9531ZM 241.725 36.3516C 239.411 36.3516 237.56 35.6533 236.173 34.2568C 234.797 32.8506 234.108 30.9902 234.108 28.6758C 234.108 26.1562 234.826 24.1885 236.261 22.7725C 237.707 21.3564 239.65 20.6484 242.091 20.6484C 244.435 20.6484 246.261 21.3369 247.57 22.7139C 248.879 24.0908 249.533 26 249.533 28.4414C 249.533 30.834 248.825 32.7529 247.409 34.1982C 246.003 35.6338 244.108 36.3516 241.725 36.3516ZM 241.886 23.3584C 240.558 23.3584 239.508 23.8223 238.737 24.75C 237.965 25.6777 237.58 26.957 237.58 28.5879C 237.58 30.1602 237.97 31.4004 238.752 32.3086C 239.533 33.207 240.578 33.6562 241.886 33.6562C 243.224 33.6562 244.25 33.2119 244.963 32.3232C 245.685 31.4346 246.047 30.1699 246.047 28.5293C 246.047 26.8789 245.685 25.6045 244.963 24.7061C 244.25 23.8076 243.224 23.3584 241.886 23.3584ZM 256.462 33.7881L 256.403 33.7881L 256.403 42.8994L 253.005 42.8994L 253.005 21L 256.403 21L 256.403 23.6367L 256.462 23.6367C 257.624 21.6445 259.323 20.6484 261.559 20.6484C 263.464 20.6484 264.948 21.3174 266.012 22.6553C 267.077 23.9932 267.609 25.79 267.609 28.0459C 267.609 30.5459 267.008 32.5479 265.807 34.0518C 264.606 35.5557 262.965 36.3076 260.885 36.3076C 258.971 36.3076 257.497 35.4678 256.462 33.7881ZM 256.374 27.8701L 256.374 29.7305C 256.374 30.8242 256.72 31.752 257.414 32.5137C 258.117 33.2754 259.006 33.6562 260.08 33.6562C 261.34 33.6562 262.326 33.168 263.039 32.1914C 263.761 31.2051 264.123 29.833 264.123 28.0752C 264.123 26.6006 263.786 25.4482 263.112 24.6182C 262.448 23.7783 261.545 23.3584 260.402 23.3584C 259.191 23.3584 258.215 23.7881 257.472 24.6475C 256.74 25.5068 256.374 26.5811 256.374 27.8701Z" transform="translate(765 43.334)" fill="#151937"/>
</g>
<g id="These articles help_2">
<path d="M 108.395 36L 104.938 36L 104.938 22.4062C 104.938 21.293 105.007 19.9307 105.143 18.3193L 105.085 18.3193C 104.87 19.2373 104.679 19.8965 104.513 20.2969L 98.2438 36L 95.8415 36L 89.5573 20.4141C 89.3815 19.9551 89.196 19.2568 89.0006 18.3193L 88.942 18.3193C 89.0202 19.1592 89.0592 20.5312 89.0592 22.4355L 89.0592 36L 85.8366 36L 85.8366 14.9941L 90.7438 14.9941L 96.2663 28.9834C 96.6862 30.0576 96.9596 30.8584 97.0866 31.3857L 97.1598 31.3857C 97.5211 30.2822 97.8141 29.4619 98.0387 28.9248L 103.664 14.9941L 108.395 14.9941L 108.395 36ZM 124.714 36L 121.418 36L 121.418 33.6562L 121.359 33.6562C 120.324 35.4531 118.805 36.3516 116.803 36.3516C 115.329 36.3516 114.172 35.9512 113.332 35.1504C 112.502 34.3496 112.087 33.29 112.087 31.9717C 112.087 29.1396 113.717 27.4893 116.979 27.0205L 121.432 26.3906C 121.432 24.252 120.417 23.1826 118.385 23.1826C 116.598 23.1826 114.987 23.7979 113.551 25.0283L 113.551 22.0547C 115.133 21.1172 116.96 20.6484 119.03 20.6484C 122.819 20.6484 124.714 22.5137 124.714 26.2441L 124.714 36ZM 121.432 28.6318L 118.283 29.0713C 117.306 29.1982 116.569 29.4375 116.071 29.7891C 115.583 30.1309 115.339 30.7363 115.339 31.6055C 115.339 32.2402 115.563 32.7627 116.012 33.1729C 116.471 33.5732 117.082 33.7734 117.843 33.7734C 118.879 33.7734 119.733 33.4121 120.407 32.6895C 121.09 31.957 121.432 31.0391 121.432 29.9355L 121.432 28.6318ZM 137.575 24.2373C 137.165 23.915 136.574 23.7539 135.802 23.7539C 134.797 23.7539 133.957 24.208 133.283 25.1162C 132.609 26.0244 132.272 27.2598 132.272 28.8223L 132.272 36L 128.874 36L 128.874 21L 132.272 21L 132.272 24.0908L 132.331 24.0908C 132.663 23.0361 133.171 22.2158 133.854 21.6299C 134.548 21.0342 135.319 20.7363 136.169 20.7363C 136.784 20.7363 137.253 20.8291 137.575 21.0146L 137.575 24.2373ZM 153.366 34.7988C 153.366 40.3066 150.597 43.0605 145.06 43.0605C 143.107 43.0605 141.403 42.7334 139.948 42.0791L 139.948 38.9736C 141.589 39.9111 143.146 40.3799 144.621 40.3799C 148.185 40.3799 149.967 38.627 149.967 35.1211L 149.967 33.4805L 149.909 33.4805C 148.786 35.3945 147.096 36.3516 144.84 36.3516C 143.014 36.3516 141.54 35.6875 140.417 34.3594C 139.303 33.0215 138.747 31.2295 138.747 28.9834C 138.747 26.4346 139.347 24.4082 140.548 22.9043C 141.75 21.4004 143.4 20.6484 145.5 20.6484C 147.482 20.6484 148.952 21.459 149.909 23.0801L 149.967 23.0801L 149.967 21L 153.366 21L 153.366 34.7988ZM 149.997 29.1299L 149.997 27.1816C 149.997 26.127 149.645 25.2285 148.942 24.4863C 148.249 23.7344 147.38 23.3584 146.335 23.3584C 145.046 23.3584 144.035 23.8369 143.302 24.7939C 142.58 25.7412 142.218 27.0693 142.218 28.7783C 142.218 30.2529 142.565 31.4346 143.258 32.3232C 143.962 33.2021 144.889 33.6416 146.042 33.6416C 147.214 33.6416 148.166 33.2217 148.898 32.3818C 149.631 31.5322 149.997 30.4482 149.997 29.1299ZM 159.504 17.8506C 158.947 17.8506 158.468 17.6699 158.068 17.3086C 157.677 16.9473 157.482 16.4883 157.482 15.9316C 157.482 15.375 157.677 14.9111 158.068 14.54C 158.468 14.1689 158.947 13.9834 159.504 13.9834C 160.08 13.9834 160.568 14.1689 160.968 14.54C 161.369 14.9111 161.569 15.375 161.569 15.9316C 161.569 16.459 161.369 16.9131 160.968 17.2939C 160.568 17.665 160.08 17.8506 159.504 17.8506ZM 161.188 36L 157.79 36L 157.79 21L 161.188 21L 161.188 36ZM 179.001 36L 175.602 36L 175.602 27.5479C 175.602 24.7451 174.611 23.3438 172.629 23.3438C 171.593 23.3438 170.739 23.7344 170.065 24.5156C 169.391 25.2871 169.054 26.2637 169.054 27.4453L 169.054 36L 165.641 36L 165.641 21L 169.054 21L 169.054 23.4902L 169.113 23.4902C 170.236 21.5957 171.857 20.6484 173.976 20.6484C 175.607 20.6484 176.852 21.1807 177.712 22.2451C 178.571 23.2998 179.001 24.8281 179.001 26.8301L 179.001 36ZM 191.056 29.0566L 183.058 29.0566L 183.058 26.5518L 191.056 26.5518L 191.056 29.0566ZM 195.612 36L 195.612 14.9941L 202.277 14.9941C 204.308 14.9941 205.915 15.4385 207.096 16.3271C 208.288 17.2158 208.883 18.373 208.883 19.7988C 208.883 20.9902 208.547 22.0254 207.873 22.9043C 207.199 23.7832 206.266 24.4082 205.075 24.7793L 205.075 24.8379C 206.52 25.0039 207.673 25.541 208.532 26.4492C 209.401 27.3477 209.836 28.5195 209.836 29.9648C 209.836 31.7617 209.128 33.2168 207.712 34.3301C 206.296 35.4434 204.508 36 202.35 36L 195.612 36ZM 199.084 17.792L 199.084 23.7686L 201.34 23.7686C 202.55 23.7686 203.498 23.4854 204.181 22.9189C 204.875 22.3428 205.221 21.5322 205.221 20.4873C 205.221 18.6904 204.02 17.792 201.618 17.792L 199.084 17.792ZM 199.084 26.5664L 199.084 33.2168L 202.057 33.2168C 203.356 33.2168 204.357 32.9189 205.06 32.3232C 205.773 31.7178 206.13 30.8877 206.13 29.833C 206.13 27.6553 204.621 26.5664 201.603 26.5664L 199.084 26.5664ZM 220.016 36.3516C 217.702 36.3516 215.851 35.6533 214.465 34.2568C 213.088 32.8506 212.399 30.9902 212.399 28.6758C 212.399 26.1562 213.117 24.1885 214.552 22.7725C 215.998 21.3564 217.941 20.6484 220.382 20.6484C 222.726 20.6484 224.552 21.3369 225.861 22.7139C 227.17 24.0908 227.824 26 227.824 28.4414C 227.824 30.834 227.116 32.7529 225.7 34.1982C 224.294 35.6338 222.399 36.3516 220.016 36.3516ZM 220.177 23.3584C 218.849 23.3584 217.799 23.8223 217.028 24.75C 216.257 25.6777 215.871 26.957 215.871 28.5879C 215.871 30.1602 216.261 31.4004 217.043 32.3086C 217.824 33.207 218.869 33.6562 220.177 33.6562C 221.515 33.6562 222.541 33.2119 223.254 32.3232C 223.976 31.4346 224.338 30.1699 224.338 28.5293C 224.338 26.8789 223.976 25.6045 223.254 24.7061C 222.541 23.8076 221.515 23.3584 220.177 23.3584ZM 239.206 35.8389C 238.542 36.1709 237.668 36.3369 236.584 36.3369C 233.673 36.3369 232.218 34.9404 232.218 32.1475L 232.218 23.666L 229.714 23.666L 229.714 21L 232.218 21L 232.218 17.5283L 235.617 16.5615L 235.617 21L 239.206 21L 239.206 23.666L 235.617 23.666L 235.617 31.166C 235.617 32.0547 235.778 32.6895 236.1 33.0703C 236.423 33.4512 236.96 33.6416 237.712 33.6416C 238.288 33.6416 238.786 33.4756 239.206 33.1436L 239.206 35.8389ZM 250.046 35.8389C 249.382 36.1709 248.507 36.3369 247.423 36.3369C 244.513 36.3369 243.058 34.9404 243.058 32.1475L 243.058 23.666L 240.553 23.666L 240.553 21L 243.058 21L 243.058 17.5283L 246.457 16.5615L 246.457 21L 250.046 21L 250.046 23.666L 246.457 23.666L 246.457 31.166C 246.457 32.0547 246.618 32.6895 246.94 33.0703C 247.262 33.4512 247.799 33.6416 248.551 33.6416C 249.128 33.6416 249.626 33.4756 250.046 33.1436L 250.046 35.8389ZM 259.45 36.3516C 257.135 36.3516 255.285 35.6533 253.898 34.2568C 252.521 32.8506 251.833 30.9902 251.833 28.6758C 251.833 26.1562 252.55 24.1885 253.986 22.7725C 255.431 21.3564 257.375 20.6484 259.816 20.6484C 262.16 20.6484 263.986 21.3369 265.295 22.7139C 266.603 24.0908 267.257 26 267.257 28.4414C 267.257 30.834 266.549 32.7529 265.133 34.1982C 263.727 35.6338 261.833 36.3516 259.45 36.3516ZM 259.611 23.3584C 258.283 23.3584 257.233 23.8223 256.462 24.75C 255.69 25.6777 255.304 26.957 255.304 28.5879C 255.304 30.1602 255.695 31.4004 256.476 32.3086C 257.257 33.207 258.302 33.6562 259.611 33.6562C 260.949 33.6562 261.974 33.2119 262.687 32.3232C 263.41 31.4346 263.771 30.1699 263.771 28.5293C 263.771 26.8789 263.41 25.6045 262.687 24.7061C 261.974 23.8076 260.949 23.3584 259.611 23.3584ZM 293.156 36L 289.757 36L 289.757 27.8262C 289.757 26.2539 289.533 25.1162 289.084 24.4131C 288.644 23.71 287.897 23.3584 286.842 23.3584C 285.954 23.3584 285.197 23.8027 284.572 24.6914C 283.957 25.5801 283.649 26.6445 283.649 27.8848L 283.649 36L 280.236 36L 280.236 27.5479C 280.236 24.7549 279.25 23.3584 277.277 23.3584C 276.359 23.3584 275.602 23.7783 275.007 24.6182C 274.421 25.458 274.128 26.5469 274.128 27.8848L 274.128 36L 270.729 36L 270.729 21L 274.128 21L 274.128 23.373L 274.186 23.373C 275.27 21.5566 276.847 20.6484 278.918 20.6484C 279.953 20.6484 280.856 20.9365 281.628 21.5127C 282.409 22.0791 282.941 22.8262 283.224 23.7539C 284.338 21.6836 285.998 20.6484 288.205 20.6484C 291.506 20.6484 293.156 22.6846 293.156 26.7568L 293.156 36Z" transform="translate(765 883.334)" fill="#151937"/>
</g>
<g id="These articles help_3">
<path d="M 32.3798 35L 32.3798 13.9941L 39.0448 13.9941C 41.0761 13.9941 42.6825 14.4385 43.8642 15.3271C 45.0556 16.2158 45.6513 17.373 45.6513 18.7988C 45.6513 19.9902 45.3144 21.0254 44.6405 21.9043C 43.9667 22.7832 43.0341 23.4082 41.8427 23.7793L 41.8427 23.8379C 43.288 24.0039 44.4403 24.541 45.2997 25.4492C 46.1688 26.3477 46.6034 27.5195 46.6034 28.9648C 46.6034 30.7617 45.8954 32.2168 44.4794 33.3301C 43.0634 34.4434 41.2763 35 39.1181 35L 32.3798 35ZM 35.8515 16.792L 35.8515 22.7686L 38.1073 22.7686C 39.3183 22.7686 40.2655 22.4854 40.9491 21.9189C 41.6425 21.3428 41.9892 20.5322 41.9892 19.4873C 41.9892 17.6904 40.788 16.792 38.3856 16.792L 35.8515 16.792ZM 35.8515 25.5664L 35.8515 32.2168L 38.8251 32.2168C 40.1239 32.2168 41.1249 31.9189 41.828 31.3232C 42.5409 30.7178 42.8974 29.8877 42.8974 28.833C 42.8974 26.6553 41.3886 25.5664 38.371 25.5664L 35.8515 25.5664ZM 56.7841 35.3516C 54.4696 35.3516 52.619 34.6533 51.2323 33.2568C 49.8554 31.8506 49.1669 29.9902 49.1669 27.6758C 49.1669 25.1562 49.8847 23.1885 51.3202 21.7725C 52.7655 20.3564 54.7089 19.6484 57.1503 19.6484C 59.494 19.6484 61.3202 20.3369 62.6288 21.7139C 63.9374 23.0908 64.5917 25 64.5917 27.4414C 64.5917 29.834 63.8837 31.7529 62.4677 33.1982C 61.0614 34.6338 59.1669 35.3516 56.7841 35.3516ZM 56.9452 22.3584C 55.6171 22.3584 54.5673 22.8223 53.7958 23.75C 53.0243 24.6777 52.6386 25.957 52.6386 27.5879C 52.6386 29.1602 53.0292 30.4004 53.8104 31.3086C 54.5917 32.207 55.6366 32.6562 56.9452 32.6562C 58.2831 32.6562 59.3085 32.2119 60.0214 31.3232C 60.744 30.4346 61.1054 29.1699 61.1054 27.5293C 61.1054 25.8789 60.744 24.6045 60.0214 23.7061C 59.3085 22.8076 58.2831 22.3584 56.9452 22.3584ZM 76.7645 23.2373C 76.3544 22.915 75.7636 22.7539 74.9921 22.7539C 73.9862 22.7539 73.1464 23.208 72.4726 24.1162C 71.7987 25.0244 71.4618 26.2598 71.4618 27.8223L 71.4618 35L 68.0634 35L 68.0634 20L 71.4618 20L 71.4618 23.0908L 71.5204 23.0908C 71.8524 22.0361 72.3603 21.2158 73.0438 20.6299C 73.7372 20.0342 74.5087 19.7363 75.3583 19.7363C 75.9735 19.7363 76.4423 19.8291 76.7645 20.0146L 76.7645 23.2373ZM 92.5409 35L 89.1425 35L 89.1425 32.4512L 89.0839 32.4512C 87.9901 34.3848 86.3056 35.3516 84.0302 35.3516C 82.1845 35.3516 80.705 34.6826 79.5917 33.3447C 78.4882 31.9971 77.9364 30.166 77.9364 27.8516C 77.9364 25.3711 78.5468 23.3838 79.7675 21.8896C 80.9979 20.3955 82.6337 19.6484 84.6747 19.6484C 86.6962 19.6484 88.1659 20.459 89.0839 22.0801L 89.1425 22.0801L 89.1425 12.793L 92.5409 12.793L 92.5409 35ZM 89.1864 28.1445L 89.1864 26.1816C 89.1864 25.1172 88.8397 24.2139 88.1464 23.4717C 87.453 22.7295 86.5692 22.3584 85.495 22.3584C 84.2255 22.3584 83.2245 22.832 82.4921 23.7793C 81.7694 24.7266 81.4081 26.04 81.4081 27.7197C 81.4081 29.2432 81.7548 30.4492 82.4481 31.3379C 83.1513 32.2168 84.0937 32.6562 85.2753 32.6562C 86.4374 32.6562 87.3798 32.2314 88.1024 31.3818C 88.8251 30.5225 89.1864 29.4434 89.1864 28.1445ZM 109.68 28.4229L 99.455 28.4229C 99.494 29.8096 99.9188 30.8789 100.729 31.6309C 101.55 32.3828 102.673 32.7588 104.099 32.7588C 105.7 32.7588 107.17 32.2803 108.508 31.3232L 108.508 34.0625C 107.141 34.9219 105.334 35.3516 103.088 35.3516C 100.881 35.3516 99.1474 34.6729 97.8876 33.3154C 96.6376 31.9482 96.0126 30.0293 96.0126 27.5586C 96.0126 25.2246 96.7011 23.3252 98.078 21.8604C 99.4647 20.3857 101.183 19.6484 103.234 19.6484C 105.285 19.6484 106.872 20.3076 107.995 21.626C 109.118 22.9443 109.68 24.7754 109.68 27.1191L 109.68 28.4229ZM 106.398 26.0205C 106.389 24.7998 106.1 23.8525 105.534 23.1787C 104.968 22.4951 104.186 22.1533 103.19 22.1533C 102.214 22.1533 101.384 22.5098 100.7 23.2227C 100.026 23.9355 99.6112 24.8682 99.455 26.0205L 106.398 26.0205ZM 121.618 23.2373C 121.208 22.915 120.617 22.7539 119.846 22.7539C 118.84 22.7539 118 23.208 117.326 24.1162C 116.652 25.0244 116.315 26.2598 116.315 27.8223L 116.315 35L 112.917 35L 112.917 20L 116.315 20L 116.315 23.0908L 116.374 23.0908C 116.706 22.0361 117.214 21.2158 117.897 20.6299C 118.591 20.0342 119.362 19.7363 120.212 19.7363C 120.827 19.7363 121.296 19.8291 121.618 20.0146L 121.618 23.2373Z" transform="translate(881.588 135)" fill="white"/>
</g>
<g id="These articles help_4">
<path d="M 81.7432 27.3828L 81.7432 35L 78.2715 35L 78.2715 13.9941L 84.6436 13.9941C 87.0557 13.9941 88.9258 14.5557 90.2539 15.6787C 91.582 16.8018 92.2461 18.3838 92.2461 20.4248C 92.2461 22.4658 91.5527 24.1357 90.166 25.4346C 88.7793 26.7334 86.9043 27.3828 84.541 27.3828L 81.7432 27.3828ZM 81.7432 16.8652L 81.7432 24.541L 83.999 24.541C 85.4932 24.541 86.6309 24.1943 87.4121 23.501C 88.1934 22.8076 88.584 21.8311 88.584 20.5713C 88.584 18.1006 87.1484 16.8652 84.2773 16.8652L 81.7432 16.8652ZM 106.074 35L 102.778 35L 102.778 32.6562L 102.72 32.6562C 101.685 34.4531 100.166 35.3516 98.1641 35.3516C 96.6895 35.3516 95.5322 34.9512 94.6924 34.1504C 93.8623 33.3496 93.4473 32.29 93.4473 30.9717C 93.4473 28.1396 95.0781 26.4893 98.3398 26.0205L 102.793 25.3906C 102.793 23.252 101.777 22.1826 99.7461 22.1826C 97.959 22.1826 96.3477 22.7979 94.9121 24.0283L 94.9121 21.0547C 96.4941 20.1172 98.3203 19.6484 100.391 19.6484C 104.18 19.6484 106.074 21.5137 106.074 25.2441L 106.074 35ZM 102.793 27.6318L 99.6436 28.0713C 98.667 28.1982 97.9297 28.4375 97.4316 28.7891C 96.9434 29.1309 96.6992 29.7363 96.6992 30.6055C 96.6992 31.2402 96.9238 31.7627 97.373 32.1729C 97.832 32.5732 98.4424 32.7734 99.2041 32.7734C 100.239 32.7734 101.094 32.4121 101.768 31.6895C 102.451 30.957 102.793 30.0391 102.793 28.9355L 102.793 27.6318ZM 123.872 35L 120.474 35L 120.474 32.4512L 120.415 32.4512C 119.321 34.3848 117.637 35.3516 115.361 35.3516C 113.516 35.3516 112.036 34.6826 110.923 33.3447C 109.819 31.9971 109.268 30.166 109.268 27.8516C 109.268 25.3711 109.878 23.3838 111.099 21.8896C 112.329 20.3955 113.965 19.6484 116.006 19.6484C 118.027 19.6484 119.497 20.459 120.415 22.0801L 120.474 22.0801L 120.474 12.793L 123.872 12.793L 123.872 35ZM 120.518 28.1445L 120.518 26.1816C 120.518 25.1172 120.171 24.2139 119.478 23.4717C 118.784 22.7295 117.9 22.3584 116.826 22.3584C 115.557 22.3584 114.556 22.832 113.823 23.7793C 113.101 24.7266 112.739 26.04 112.739 27.7197C 112.739 29.2432 113.086 30.4492 113.779 31.3379C 114.482 32.2168 115.425 32.6562 116.606 32.6562C 117.769 32.6562 118.711 32.2314 119.434 31.3818C 120.156 30.5225 120.518 29.4434 120.518 28.1445ZM 141.948 35L 138.55 35L 138.55 32.4512L 138.491 32.4512C 137.397 34.3848 135.713 35.3516 133.438 35.3516C 131.592 35.3516 130.112 34.6826 128.999 33.3447C 127.896 31.9971 127.344 30.166 127.344 27.8516C 127.344 25.3711 127.954 23.3838 129.175 21.8896C 130.405 20.3955 132.041 19.6484 134.082 19.6484C 136.104 19.6484 137.573 20.459 138.491 22.0801L 138.55 22.0801L 138.55 12.793L 141.948 12.793L 141.948 35ZM 138.594 28.1445L 138.594 26.1816C 138.594 25.1172 138.247 24.2139 137.554 23.4717C 136.86 22.7295 135.977 22.3584 134.902 22.3584C 133.633 22.3584 132.632 22.832 131.899 23.7793C 131.177 24.7266 130.815 26.04 130.815 27.7197C 130.815 29.2432 131.162 30.4492 131.855 31.3379C 132.559 32.2168 133.501 32.6562 134.683 32.6562C 135.845 32.6562 136.787 32.2314 137.51 31.3818C 138.232 30.5225 138.594 29.4434 138.594 28.1445ZM 148.101 16.8506C 147.544 16.8506 147.065 16.6699 146.665 16.3086C 146.274 15.9473 146.079 15.4883 146.079 14.9316C 146.079 14.375 146.274 13.9111 146.665 13.54C 147.065 13.1689 147.544 12.9834 148.101 12.9834C 148.677 12.9834 149.165 13.1689 149.565 13.54C 149.966 13.9111 150.166 14.375 150.166 14.9316C 150.166 15.459 149.966 15.9131 149.565 16.2939C 149.165 16.665 148.677 16.8506 148.101 16.8506ZM 149.785 35L 146.387 35L 146.387 20L 149.785 20L 149.785 35ZM 167.598 35L 164.199 35L 164.199 26.5479C 164.199 23.7451 163.208 22.3438 161.226 22.3438C 160.19 22.3438 159.336 22.7344 158.662 23.5156C 157.988 24.2871 157.651 25.2637 157.651 26.4453L 157.651 35L 154.238 35L 154.238 20L 157.651 20L 157.651 22.4902L 157.71 22.4902C 158.833 20.5957 160.454 19.6484 162.573 19.6484C 164.204 19.6484 165.449 20.1807 166.309 21.2451C 167.168 22.2998 167.598 23.8281 167.598 25.8301L 167.598 35ZM 185.41 33.7988C 185.41 39.3066 182.642 42.0605 177.104 42.0605C 175.151 42.0605 173.447 41.7334 171.992 41.0791L 171.992 37.9736C 173.633 38.9111 175.19 39.3799 176.665 39.3799C 180.229 39.3799 182.012 37.627 182.012 34.1211L 182.012 32.4805L 181.953 32.4805C 180.83 34.3945 179.141 35.3516 176.885 35.3516C 175.059 35.3516 173.584 34.6875 172.461 33.3594C 171.348 32.0215 170.791 30.2295 170.791 27.9834C 170.791 25.4346 171.392 23.4082 172.593 21.9043C 173.794 20.4004 175.444 19.6484 177.544 19.6484C 179.526 19.6484 180.996 20.459 181.953 22.0801L 182.012 22.0801L 182.012 20L 185.41 20L 185.41 33.7988ZM 182.041 28.1299L 182.041 26.1816C 182.041 25.127 181.689 24.2285 180.986 23.4863C 180.293 22.7344 179.424 22.3584 178.379 22.3584C 177.09 22.3584 176.079 22.8369 175.347 23.7939C 174.624 24.7412 174.263 26.0693 174.263 27.7783C 174.263 29.2529 174.609 30.4346 175.303 31.3232C 176.006 32.2021 176.934 32.6416 178.086 32.6416C 179.258 32.6416 180.21 32.2217 180.942 31.3818C 181.675 30.5322 182.041 29.4482 182.041 28.1299ZM 197.729 28.0566L 189.731 28.0566L 189.731 25.5518L 197.729 25.5518L 197.729 28.0566ZM 215.762 16.9531L 209.727 16.9531L 209.727 35L 206.24 35L 206.24 16.9531L 200.22 16.9531L 200.22 13.9941L 215.762 13.9941L 215.762 16.9531ZM 222.178 35.3516C 219.863 35.3516 218.013 34.6533 216.626 33.2568C 215.249 31.8506 214.561 29.9902 214.561 27.6758C 214.561 25.1562 215.278 23.1885 216.714 21.7725C 218.159 20.3564 220.103 19.6484 222.544 19.6484C 224.888 19.6484 226.714 20.3369 228.022 21.7139C 229.331 23.0908 229.985 25 229.985 27.4414C 229.985 29.834 229.277 31.7529 227.861 33.1982C 226.455 34.6338 224.561 35.3516 222.178 35.3516ZM 222.339 22.3584C 221.011 22.3584 219.961 22.8223 219.189 23.75C 218.418 24.6777 218.032 25.957 218.032 27.5879C 218.032 29.1602 218.423 30.4004 219.204 31.3086C 219.985 32.207 221.03 32.6562 222.339 32.6562C 223.677 32.6562 224.702 32.2119 225.415 31.3232C 226.138 30.4346 226.499 29.1699 226.499 27.5293C 226.499 25.8789 226.138 24.6045 225.415 23.7061C 224.702 22.8076 223.677 22.3584 222.339 22.3584ZM 236.914 32.7881L 236.855 32.7881L 236.855 41.8994L 233.457 41.8994L 233.457 20L 236.855 20L 236.855 22.6367L 236.914 22.6367C 238.076 20.6445 239.775 19.6484 242.012 19.6484C 243.916 19.6484 245.4 20.3174 246.465 21.6553C 247.529 22.9932 248.062 24.79 248.062 27.0459C 248.062 29.5459 247.461 31.5479 246.26 33.0518C 245.059 34.5557 243.418 35.3076 241.338 35.3076C 239.424 35.3076 237.949 34.4678 236.914 32.7881ZM 236.826 26.8701L 236.826 28.7305C 236.826 29.8242 237.173 30.752 237.866 31.5137C 238.569 32.2754 239.458 32.6562 240.532 32.6562C 241.792 32.6562 242.778 32.168 243.491 31.1914C 244.214 30.2051 244.575 28.833 244.575 27.0752C 244.575 25.6006 244.238 24.4482 243.564 23.6182C 242.9 22.7783 241.997 22.3584 240.854 22.3584C 239.644 22.3584 238.667 22.7881 237.925 23.6475C 237.192 24.5068 236.826 25.5811 236.826 26.8701Z" transform="translate(791.666 223.334)" fill="#151937"/>
</g>
<g id="Rectangle 2.3">
<rect width="786.667" height="133.333" transform="translate(560 653.334)" fill="#DCFAFF"/>
</g>
<g id="These articles help_5">
<path d="M 135.522 27.3828L 135.522 35L 132.051 35L 132.051 13.9941L 138.423 13.9941C 140.835 13.9941 142.705 14.5557 144.033 15.6787C 145.361 16.8018 146.025 18.3838 146.025 20.4248C 146.025 22.4658 145.332 24.1357 143.945 25.4346C 142.559 26.7334 140.684 27.3828 138.32 27.3828L 135.522 27.3828ZM 135.522 16.8652L 135.522 24.541L 137.778 24.541C 139.272 24.541 140.41 24.1943 141.191 23.501C 141.973 22.8076 142.363 21.8311 142.363 20.5713C 142.363 18.1006 140.928 16.8652 138.057 16.8652L 135.522 16.8652ZM 159.854 35L 156.558 35L 156.558 32.6562L 156.499 32.6562C 155.464 34.4531 153.945 35.3516 151.943 35.3516C 150.469 35.3516 149.312 34.9512 148.472 34.1504C 147.642 33.3496 147.227 32.29 147.227 30.9717C 147.227 28.1396 148.857 26.4893 152.119 26.0205L 156.572 25.3906C 156.572 23.252 155.557 22.1826 153.525 22.1826C 151.738 22.1826 150.127 22.7979 148.691 24.0283L 148.691 21.0547C 150.273 20.1172 152.1 19.6484 154.17 19.6484C 157.959 19.6484 159.854 21.5137 159.854 25.2441L 159.854 35ZM 156.572 27.6318L 153.423 28.0713C 152.446 28.1982 151.709 28.4375 151.211 28.7891C 150.723 29.1309 150.479 29.7363 150.479 30.6055C 150.479 31.2402 150.703 31.7627 151.152 32.1729C 151.611 32.5732 152.222 32.7734 152.983 32.7734C 154.019 32.7734 154.873 32.4121 155.547 31.6895C 156.23 30.957 156.572 30.0391 156.572 28.9355L 156.572 27.6318ZM 177.651 35L 174.253 35L 174.253 32.4512L 174.194 32.4512C 173.101 34.3848 171.416 35.3516 169.141 35.3516C 167.295 35.3516 165.815 34.6826 164.702 33.3447C 163.599 31.9971 163.047 30.166 163.047 27.8516C 163.047 25.3711 163.657 23.3838 164.878 21.8896C 166.108 20.3955 167.744 19.6484 169.785 19.6484C 171.807 19.6484 173.276 20.459 174.194 22.0801L 174.253 22.0801L 174.253 12.793L 177.651 12.793L 177.651 35ZM 174.297 28.1445L 174.297 26.1816C 174.297 25.1172 173.95 24.2139 173.257 23.4717C 172.563 22.7295 171.68 22.3584 170.605 22.3584C 169.336 22.3584 168.335 22.832 167.603 23.7793C 166.88 24.7266 166.519 26.04 166.519 27.7197C 166.519 29.2432 166.865 30.4492 167.559 31.3379C 168.262 32.2168 169.204 32.6562 170.386 32.6562C 171.548 32.6562 172.49 32.2314 173.213 31.3818C 173.936 30.5225 174.297 29.4434 174.297 28.1445ZM 195.728 35L 192.329 35L 192.329 32.4512L 192.271 32.4512C 191.177 34.3848 189.492 35.3516 187.217 35.3516C 185.371 35.3516 183.892 34.6826 182.778 33.3447C 181.675 31.9971 181.123 30.166 181.123 27.8516C 181.123 25.3711 181.733 23.3838 182.954 21.8896C 184.185 20.3955 185.82 19.6484 187.861 19.6484C 189.883 19.6484 191.353 20.459 192.271 22.0801L 192.329 22.0801L 192.329 12.793L 195.728 12.793L 195.728 35ZM 192.373 28.1445L 192.373 26.1816C 192.373 25.1172 192.026 24.2139 191.333 23.4717C 190.64 22.7295 189.756 22.3584 188.682 22.3584C 187.412 22.3584 186.411 22.832 185.679 23.7793C 184.956 24.7266 184.595 26.04 184.595 27.7197C 184.595 29.2432 184.941 30.4492 185.635 31.3379C 186.338 32.2168 187.28 32.6562 188.462 32.6562C 189.624 32.6562 190.566 32.2314 191.289 31.3818C 192.012 30.5225 192.373 29.4434 192.373 28.1445ZM 201.88 16.8506C 201.323 16.8506 200.845 16.6699 200.444 16.3086C 200.054 15.9473 199.858 15.4883 199.858 14.9316C 199.858 14.375 200.054 13.9111 200.444 13.54C 200.845 13.1689 201.323 12.9834 201.88 12.9834C 202.456 12.9834 202.944 13.1689 203.345 13.54C 203.745 13.9111 203.945 14.375 203.945 14.9316C 203.945 15.459 203.745 15.9131 203.345 16.2939C 202.944 16.665 202.456 16.8506 201.88 16.8506ZM 203.564 35L 200.166 35L 200.166 20L 203.564 20L 203.564 35ZM 221.377 35L 217.979 35L 217.979 26.5479C 217.979 23.7451 216.987 22.3438 215.005 22.3438C 213.97 22.3438 213.115 22.7344 212.441 23.5156C 211.768 24.2871 211.431 25.2637 211.431 26.4453L 211.431 35L 208.018 35L 208.018 20L 211.431 20L 211.431 22.4902L 211.489 22.4902C 212.612 20.5957 214.233 19.6484 216.353 19.6484C 217.983 19.6484 219.229 20.1807 220.088 21.2451C 220.947 22.2998 221.377 23.8281 221.377 25.8301L 221.377 35ZM 239.189 33.7988C 239.189 39.3066 236.421 42.0605 230.884 42.0605C 228.931 42.0605 227.227 41.7334 225.771 41.0791L 225.771 37.9736C 227.412 38.9111 228.97 39.3799 230.444 39.3799C 234.009 39.3799 235.791 37.627 235.791 34.1211L 235.791 32.4805L 235.732 32.4805C 234.609 34.3945 232.92 35.3516 230.664 35.3516C 228.838 35.3516 227.363 34.6875 226.24 33.3594C 225.127 32.0215 224.57 30.2295 224.57 27.9834C 224.57 25.4346 225.171 23.4082 226.372 21.9043C 227.573 20.4004 229.224 19.6484 231.323 19.6484C 233.306 19.6484 234.775 20.459 235.732 22.0801L 235.791 22.0801L 235.791 20L 239.189 20L 239.189 33.7988ZM 235.82 28.1299L 235.82 26.1816C 235.82 25.127 235.469 24.2285 234.766 23.4863C 234.072 22.7344 233.203 22.3584 232.158 22.3584C 230.869 22.3584 229.858 22.8369 229.126 23.7939C 228.403 24.7412 228.042 26.0693 228.042 27.7783C 228.042 29.2529 228.389 30.4346 229.082 31.3232C 229.785 32.2021 230.713 32.6416 231.865 32.6416C 233.037 32.6416 233.989 32.2217 234.722 31.3818C 235.454 30.5322 235.82 29.4482 235.82 28.1299ZM 251.509 28.0566L 243.511 28.0566L 243.511 25.5518L 251.509 25.5518L 251.509 28.0566ZM 256.064 35L 256.064 13.9941L 262.729 13.9941C 264.761 13.9941 266.367 14.4385 267.549 15.3271C 268.74 16.2158 269.336 17.373 269.336 18.7988C 269.336 19.9902 268.999 21.0254 268.325 21.9043C 267.651 22.7832 266.719 23.4082 265.527 23.7793L 265.527 23.8379C 266.973 24.0039 268.125 24.541 268.984 25.4492C 269.854 26.3477 270.288 27.5195 270.288 28.9648C 270.288 30.7617 269.58 32.2168 268.164 33.3301C 266.748 34.4434 264.961 35 262.803 35L 256.064 35ZM 259.536 16.792L 259.536 22.7686L 261.792 22.7686C 263.003 22.7686 263.95 22.4854 264.634 21.9189C 265.327 21.3428 265.674 20.5322 265.674 19.4873C 265.674 17.6904 264.473 16.792 262.07 16.792L 259.536 16.792ZM 259.536 25.5664L 259.536 32.2168L 262.51 32.2168C 263.809 32.2168 264.81 31.9189 265.513 31.3232C 266.226 30.7178 266.582 29.8877 266.582 28.833C 266.582 26.6553 265.073 25.5664 262.056 25.5664L 259.536 25.5664ZM 280.469 35.3516C 278.154 35.3516 276.304 34.6533 274.917 33.2568C 273.54 31.8506 272.852 29.9902 272.852 27.6758C 272.852 25.1562 273.569 23.1885 275.005 21.7725C 276.45 20.3564 278.394 19.6484 280.835 19.6484C 283.179 19.6484 285.005 20.3369 286.313 21.7139C 287.622 23.0908 288.276 25 288.276 27.4414C 288.276 29.834 287.568 31.7529 286.152 33.1982C 284.746 34.6338 282.852 35.3516 280.469 35.3516ZM 280.63 22.3584C 279.302 22.3584 278.252 22.8223 277.48 23.75C 276.709 24.6777 276.323 25.957 276.323 27.5879C 276.323 29.1602 276.714 30.4004 277.495 31.3086C 278.276 32.207 279.321 32.6562 280.63 32.6562C 281.968 32.6562 282.993 32.2119 283.706 31.3232C 284.429 30.4346 284.79 29.1699 284.79 27.5293C 284.79 25.8789 284.429 24.6045 283.706 23.7061C 282.993 22.8076 281.968 22.3584 280.63 22.3584ZM 299.658 34.8389C 298.994 35.1709 298.12 35.3369 297.036 35.3369C 294.126 35.3369 292.671 33.9404 292.671 31.1475L 292.671 22.666L 290.166 22.666L 290.166 20L 292.671 20L 292.671 16.5283L 296.069 15.5615L 296.069 20L 299.658 20L 299.658 22.666L 296.069 22.666L 296.069 30.166C 296.069 31.0547 296.23 31.6895 296.553 32.0703C 296.875 32.4512 297.412 32.6416 298.164 32.6416C 298.74 32.6416 299.238 32.4756 299.658 32.1436L 299.658 34.8389ZM 310.498 34.8389C 309.834 35.1709 308.96 35.3369 307.876 35.3369C 304.966 35.3369 303.511 33.9404 303.511 31.1475L 303.511 22.666L 301.006 22.666L 301.006 20L 303.511 20L 303.511 16.5283L 306.909 15.5615L 306.909 20L 310.498 20L 310.498 22.666L 306.909 22.666L 306.909 30.166C 306.909 31.0547 307.07 31.6895 307.393 32.0703C 307.715 32.4512 308.252 32.6416 309.004 32.6416C 309.58 32.6416 310.078 32.4756 310.498 32.1436L 310.498 34.8389ZM 319.902 35.3516C 317.588 35.3516 315.737 34.6533 314.351 33.2568C 312.974 31.8506 312.285 29.9902 312.285 27.6758C 312.285 25.1562 313.003 23.1885 314.438 21.7725C 315.884 20.3564 317.827 19.6484 320.269 19.6484C 322.612 19.6484 324.438 20.3369 325.747 21.7139C 327.056 23.0908 327.71 25 327.71 27.4414C 327.71 29.834 327.002 31.7529 325.586 33.1982C 324.18 34.6338 322.285 35.3516 319.902 35.3516ZM 320.063 22.3584C 318.735 22.3584 317.686 22.8223 316.914 23.75C 316.143 24.6777 315.757 25.957 315.757 27.5879C 315.757 29.1602 316.147 30.4004 316.929 31.3086C 317.71 32.207 318.755 32.6562 320.063 32.6562C 321.401 32.6562 322.427 32.2119 323.14 31.3232C 323.862 30.4346 324.224 29.1699 324.224 27.5293C 324.224 25.8789 323.862 24.6045 323.14 23.7061C 322.427 22.8076 321.401 22.3584 320.063 22.3584ZM 353.608 35L 350.21 35L 350.21 26.8262C 350.21 25.2539 349.985 24.1162 349.536 23.4131C 349.097 22.71 348.35 22.3584 347.295 22.3584C 346.406 22.3584 345.649 22.8027 345.024 23.6914C 344.409 24.5801 344.102 25.6445 344.102 26.8848L 344.102 35L 340.688 35L 340.688 26.5479C 340.688 23.7549 339.702 22.3584 337.729 22.3584C 336.812 22.3584 336.055 22.7783 335.459 23.6182C 334.873 24.458 334.58 25.5469 334.58 26.8848L 334.58 35L 331.182 35L 331.182 20L 334.58 20L 334.58 22.373L 334.639 22.373C 335.723 20.5566 337.3 19.6484 339.37 19.6484C 340.405 19.6484 341.309 19.9365 342.08 20.5127C 342.861 21.0791 343.394 21.8262 343.677 22.7539C 344.79 20.6836 346.45 19.6484 348.657 19.6484C 351.958 19.6484 353.608 21.6846 353.608 25.7568L 353.608 35Z" transform="translate(711.666 696.666)" fill="#151937"/>
</g>
<g id="These articles help_6">
<path d="M 27.2577 31.1211C 25.6756 31.9414 23.7079 32.3516 21.3543 32.3516C 18.3075 32.3516 15.8661 31.3896 14.0301 29.4658C 12.1942 27.542 11.2762 25.0176 11.2762 21.8926C 11.2762 18.5332 12.3065 15.8184 14.367 13.748C 16.4373 11.6777 19.0497 10.6426 22.2039 10.6426C 24.2352 10.6426 25.9198 10.9307 27.2577 11.5068L 27.2577 14.9639C 25.8416 14.124 24.2791 13.7041 22.5702 13.7041C 20.2948 13.7041 18.4491 14.4316 17.0331 15.8867C 15.6268 17.3418 14.9237 19.2852 14.9237 21.7168C 14.9237 24.0312 15.5829 25.877 16.9012 27.2539C 18.2196 28.6211 19.953 29.3047 22.1014 29.3047C 24.0838 29.3047 25.8026 28.8359 27.2577 27.8984L 27.2577 31.1211ZM 37.5116 32.3516C 35.1971 32.3516 33.3465 31.6533 31.9598 30.2568C 30.5829 28.8506 29.8944 26.9902 29.8944 24.6758C 29.8944 22.1562 30.6122 20.1885 32.0477 18.7725C 33.493 17.3564 35.4364 16.6484 37.8778 16.6484C 40.2215 16.6484 42.0477 17.3369 43.3563 18.7139C 44.6649 20.0908 45.3192 22 45.3192 24.4414C 45.3192 26.834 44.6112 28.7529 43.1952 30.1982C 41.7889 31.6338 39.8944 32.3516 37.5116 32.3516ZM 37.6727 19.3584C 36.3446 19.3584 35.2948 19.8223 34.5233 20.75C 33.7518 21.6777 33.3661 22.957 33.3661 24.5879C 33.3661 26.1602 33.7567 27.4004 34.5379 28.3086C 35.3192 29.207 36.3641 29.6562 37.6727 29.6562C 39.0106 29.6562 40.036 29.2119 40.7489 28.3232C 41.4715 27.4346 41.8329 26.1699 41.8329 24.5293C 41.8329 22.8789 41.4715 21.6045 40.7489 20.7061C 40.036 19.8076 39.0106 19.3584 37.6727 19.3584ZM 62.1502 32L 58.7518 32L 58.7518 23.5479C 58.7518 20.7451 57.7606 19.3438 55.7782 19.3438C 54.743 19.3438 53.8885 19.7344 53.2147 20.5156C 52.5409 21.2871 52.2039 22.2637 52.2039 23.4453L 52.2039 32L 48.7909 32L 48.7909 17L 52.2039 17L 52.2039 19.4902L 52.2625 19.4902C 53.3856 17.5957 55.0067 16.6484 57.1258 16.6484C 58.7567 16.6484 60.0018 17.1807 60.8612 18.2451C 61.7206 19.2998 62.1502 20.8281 62.1502 22.8301L 62.1502 32ZM 74.2206 31.8389C 73.5565 32.1709 72.6825 32.3369 71.5985 32.3369C 68.6883 32.3369 67.2332 30.9404 67.2332 28.1475L 67.2332 19.666L 64.7284 19.666L 64.7284 17L 67.2332 17L 67.2332 13.5283L 70.6317 12.5615L 70.6317 17L 74.2206 17L 74.2206 19.666L 70.6317 19.666L 70.6317 27.166C 70.6317 28.0547 70.7928 28.6895 71.1151 29.0703C 71.4373 29.4512 71.9745 29.6416 72.7264 29.6416C 73.3026 29.6416 73.8006 29.4756 74.2206 29.1436L 74.2206 31.8389ZM 89.6747 25.4229L 79.45 25.4229C 79.4891 26.8096 79.9139 27.8789 80.7245 28.6309C 81.5448 29.3828 82.6678 29.7588 84.0936 29.7588C 85.6952 29.7588 87.1649 29.2803 88.5028 28.3232L 88.5028 31.0625C 87.1356 31.9219 85.3289 32.3516 83.0829 32.3516C 80.8758 32.3516 79.1424 31.6729 77.8827 30.3154C 76.6327 28.9482 76.0077 27.0293 76.0077 24.5586C 76.0077 22.2246 76.6961 20.3252 78.0731 18.8604C 79.4598 17.3857 81.1786 16.6484 83.2293 16.6484C 85.2801 16.6484 86.867 17.3076 87.9901 18.626C 89.1131 19.9443 89.6747 21.7754 89.6747 24.1191L 89.6747 25.4229ZM 86.3934 23.0205C 86.3836 21.7998 86.0956 20.8525 85.5291 20.1787C 84.9627 19.4951 84.1815 19.1533 83.1854 19.1533C 82.2088 19.1533 81.3788 19.5098 80.6952 20.2227C 80.0213 20.9355 79.6063 21.8682 79.45 23.0205L 86.3934 23.0205ZM 106.271 32L 102.873 32L 102.873 23.5479C 102.873 20.7451 101.882 19.3438 99.8993 19.3438C 98.8641 19.3438 98.0096 19.7344 97.3358 20.5156C 96.662 21.2871 96.325 22.2637 96.325 23.4453L 96.325 32L 92.912 32L 92.912 17L 96.325 17L 96.325 19.4902L 96.3836 19.4902C 97.5067 17.5957 99.1278 16.6484 101.247 16.6484C 102.878 16.6484 104.123 17.1807 104.982 18.2451C 105.842 19.2998 106.271 20.8281 106.271 22.8301L 106.271 32ZM 118.342 31.8389C 117.678 32.1709 116.804 32.3369 115.72 32.3369C 112.809 32.3369 111.354 30.9404 111.354 28.1475L 111.354 19.666L 108.849 19.666L 108.849 17L 111.354 17L 111.354 13.5283L 114.753 12.5615L 114.753 17L 118.342 17L 118.342 19.666L 114.753 19.666L 114.753 27.166C 114.753 28.0547 114.914 28.6895 115.236 29.0703C 115.558 29.4512 116.096 29.6416 116.848 29.6416C 117.424 29.6416 117.922 29.4756 118.342 29.1436L 118.342 31.8389Z" transform="translate(888.334 466.666)" fill="#161F46"/>
</g>
<g id="Rectangle 3">
<rect width="266.667" height="333.333" transform="translate(1346.67 320)" fill="#DCFAFF"/>
</g>
<g id="Rectangle 3.1">
<rect width="266.667" height="333.333" transform="translate(293.334 320)" fill="#DCFAFF"/>
</g>
<g id="These articles help_7">
<path d="M 6.06445 27.3828L 6.06445 35L 2.59277 35L 2.59277 13.9941L 8.96484 13.9941C 11.377 13.9941 13.2471 14.5557 14.5752 15.6787C 15.9033 16.8018 16.5674 18.3838 16.5674 20.4248C 16.5674 22.4658 15.874 24.1357 14.4873 25.4346C 13.1006 26.7334 11.2256 27.3828 8.8623 27.3828L 6.06445 27.3828ZM 6.06445 16.8652L 6.06445 24.541L 8.32031 24.541C 9.81445 24.541 10.9521 24.1943 11.7334 23.501C 12.5146 22.8076 12.9053 21.8311 12.9053 20.5713C 12.9053 18.1006 11.4697 16.8652 8.59863 16.8652L 6.06445 16.8652ZM 30.3955 35L 27.0996 35L 27.0996 32.6562L 27.041 32.6562C 26.0059 34.4531 24.4873 35.3516 22.4854 35.3516C 21.0107 35.3516 19.8535 34.9512 19.0137 34.1504C 18.1836 33.3496 17.7686 32.29 17.7686 30.9717C 17.7686 28.1396 19.3994 26.4893 22.6611 26.0205L 27.1143 25.3906C 27.1143 23.252 26.0986 22.1826 24.0674 22.1826C 22.2803 22.1826 20.6689 22.7979 19.2334 24.0283L 19.2334 21.0547C 20.8154 20.1172 22.6416 19.6484 24.7119 19.6484C 28.501 19.6484 30.3955 21.5137 30.3955 25.2441L 30.3955 35ZM 27.1143 27.6318L 23.9648 28.0713C 22.9883 28.1982 22.251 28.4375 21.7529 28.7891C 21.2646 29.1309 21.0205 29.7363 21.0205 30.6055C 21.0205 31.2402 21.2451 31.7627 21.6943 32.1729C 22.1533 32.5732 22.7637 32.7734 23.5254 32.7734C 24.5605 32.7734 25.415 32.4121 26.0889 31.6895C 26.7725 30.957 27.1143 30.0391 27.1143 28.9355L 27.1143 27.6318ZM 48.1934 35L 44.7949 35L 44.7949 32.4512L 44.7363 32.4512C 43.6426 34.3848 41.958 35.3516 39.6826 35.3516C 37.8369 35.3516 36.3574 34.6826 35.2441 33.3447C 34.1406 31.9971 33.5889 30.166 33.5889 27.8516C 33.5889 25.3711 34.1992 23.3838 35.4199 21.8896C 36.6504 20.3955 38.2861 19.6484 40.3271 19.6484C 42.3486 19.6484 43.8184 20.459 44.7363 22.0801L 44.7949 22.0801L 44.7949 12.793L 48.1934 12.793L 48.1934 35ZM 44.8389 28.1445L 44.8389 26.1816C 44.8389 25.1172 44.4922 24.2139 43.7988 23.4717C 43.1055 22.7295 42.2217 22.3584 41.1475 22.3584C 39.8779 22.3584 38.877 22.832 38.1445 23.7793C 37.4219 24.7266 37.0605 26.04 37.0605 27.7197C 37.0605 29.2432 37.4072 30.4492 38.1006 31.3379C 38.8037 32.2168 39.7461 32.6562 40.9277 32.6562C 42.0898 32.6562 43.0322 32.2314 43.7549 31.3818C 44.4775 30.5225 44.8389 29.4434 44.8389 28.1445ZM 66.2695 35L 62.8711 35L 62.8711 32.4512L 62.8125 32.4512C 61.7188 34.3848 60.0342 35.3516 57.7588 35.3516C 55.9131 35.3516 54.4336 34.6826 53.3203 33.3447C 52.2168 31.9971 51.665 30.166 51.665 27.8516C 51.665 25.3711 52.2754 23.3838 53.4961 21.8896C 54.7266 20.3955 56.3623 19.6484 58.4033 19.6484C 60.4248 19.6484 61.8945 20.459 62.8125 22.0801L 62.8711 22.0801L 62.8711 12.793L 66.2695 12.793L 66.2695 35ZM 62.915 28.1445L 62.915 26.1816C 62.915 25.1172 62.5684 24.2139 61.875 23.4717C 61.1816 22.7295 60.2979 22.3584 59.2236 22.3584C 57.9541 22.3584 56.9531 22.832 56.2207 23.7793C 55.498 24.7266 55.1367 26.04 55.1367 27.7197C 55.1367 29.2432 55.4834 30.4492 56.1768 31.3379C 56.8799 32.2168 57.8223 32.6562 59.0039 32.6562C 60.166 32.6562 61.1084 32.2314 61.8311 31.3818C 62.5537 30.5225 62.915 29.4434 62.915 28.1445ZM 72.4219 16.8506C 71.8652 16.8506 71.3867 16.6699 70.9863 16.3086C 70.5957 15.9473 70.4004 15.4883 70.4004 14.9316C 70.4004 14.375 70.5957 13.9111 70.9863 13.54C 71.3867 13.1689 71.8652 12.9834 72.4219 12.9834C 72.998 12.9834 73.4863 13.1689 73.8867 13.54C 74.2871 13.9111 74.4873 14.375 74.4873 14.9316C 74.4873 15.459 74.2871 15.9131 73.8867 16.2939C 73.4863 16.665 72.998 16.8506 72.4219 16.8506ZM 74.1064 35L 70.708 35L 70.708 20L 74.1064 20L 74.1064 35ZM 91.9189 35L 88.5205 35L 88.5205 26.5479C 88.5205 23.7451 87.5293 22.3438 85.5469 22.3438C 84.5117 22.3438 83.6572 22.7344 82.9834 23.5156C 82.3096 24.2871 81.9727 25.2637 81.9727 26.4453L 81.9727 35L 78.5596 35L 78.5596 20L 81.9727 20L 81.9727 22.4902L 82.0312 22.4902C 83.1543 20.5957 84.7754 19.6484 86.8945 19.6484C 88.5254 19.6484 89.7705 20.1807 90.6299 21.2451C 91.4893 22.2998 91.9189 23.8281 91.9189 25.8301L 91.9189 35ZM 109.731 33.7988C 109.731 39.3066 106.963 42.0605 101.426 42.0605C 99.4727 42.0605 97.7686 41.7334 96.3135 41.0791L 96.3135 37.9736C 97.9541 38.9111 99.5117 39.3799 100.986 39.3799C 104.551 39.3799 106.333 37.627 106.333 34.1211L 106.333 32.4805L 106.274 32.4805C 105.151 34.3945 103.462 35.3516 101.206 35.3516C 99.3799 35.3516 97.9053 34.6875 96.7822 33.3594C 95.6689 32.0215 95.1123 30.2295 95.1123 27.9834C 95.1123 25.4346 95.7129 23.4082 96.9141 21.9043C 98.1152 20.4004 99.7656 19.6484 101.865 19.6484C 103.848 19.6484 105.317 20.459 106.274 22.0801L 106.333 22.0801L 106.333 20L 109.731 20L 109.731 33.7988ZM 106.362 28.1299L 106.362 26.1816C 106.362 25.127 106.011 24.2285 105.308 23.4863C 104.614 22.7344 103.745 22.3584 102.7 22.3584C 101.411 22.3584 100.4 22.8369 99.668 23.7939C 98.9453 24.7412 98.584 26.0693 98.584 27.7783C 98.584 29.2529 98.9307 30.4346 99.624 31.3232C 100.327 32.2021 101.255 32.6416 102.407 32.6416C 103.579 32.6416 104.531 32.2217 105.264 31.3818C 105.996 30.5322 106.362 29.4482 106.362 28.1299ZM 122.051 28.0566L 114.053 28.0566L 114.053 25.5518L 122.051 25.5518L 122.051 28.0566ZM 138.237 35L 126.606 35L 126.606 13.9941L 130.093 13.9941L 130.093 32.0557L 138.237 32.0557L 138.237 35ZM 153.604 28.4229L 143.379 28.4229C 143.418 29.8096 143.843 30.8789 144.653 31.6309C 145.474 32.3828 146.597 32.7588 148.022 32.7588C 149.624 32.7588 151.094 32.2803 152.432 31.3232L 152.432 34.0625C 151.064 34.9219 149.258 35.3516 147.012 35.3516C 144.805 35.3516 143.071 34.6729 141.812 33.3154C 140.562 31.9482 139.937 30.0293 139.937 27.5586C 139.937 25.2246 140.625 23.3252 142.002 21.8604C 143.389 20.3857 145.107 19.6484 147.158 19.6484C 149.209 19.6484 150.796 20.3076 151.919 21.626C 153.042 22.9443 153.604 24.7754 153.604 27.1191L 153.604 28.4229ZM 150.322 26.0205C 150.312 24.7998 150.024 23.8525 149.458 23.1787C 148.892 22.4951 148.11 22.1533 147.114 22.1533C 146.138 22.1533 145.308 22.5098 144.624 23.2227C 143.95 23.9355 143.535 24.8682 143.379 26.0205L 150.322 26.0205ZM 165.322 15.5615C 164.863 15.2979 164.341 15.166 163.755 15.166C 162.104 15.166 161.279 16.0986 161.279 17.9639L 161.279 20L 164.766 20L 164.766 22.666L 161.294 22.666L 161.294 35L 157.896 35L 157.896 22.666L 155.332 22.666L 155.332 20L 157.896 20L 157.896 17.5684C 157.896 15.9863 158.413 14.7412 159.448 13.833C 160.483 12.915 161.777 12.4561 163.33 12.4561C 164.17 12.4561 164.834 12.5488 165.322 12.7344L 165.322 15.5615ZM 175.649 34.8389C 174.985 35.1709 174.111 35.3369 173.027 35.3369C 170.117 35.3369 168.662 33.9404 168.662 31.1475L 168.662 22.666L 166.157 22.666L 166.157 20L 168.662 20L 168.662 16.5283L 172.061 15.5615L 172.061 20L 175.649 20L 175.649 22.666L 172.061 22.666L 172.061 30.166C 172.061 31.0547 172.222 31.6895 172.544 32.0703C 172.866 32.4512 173.403 32.6416 174.155 32.6416C 174.731 32.6416 175.229 32.4756 175.649 32.1436L 175.649 34.8389Z" transform="translate(336.666 463.334)" fill="#151937"/>
</g>
<g id="These articles help_8">
<path d="M 6.06445 27.3828L 6.06445 35L 2.59277 35L 2.59277 13.9941L 8.96484 13.9941C 11.377 13.9941 13.2471 14.5557 14.5752 15.6787C 15.9033 16.8018 16.5674 18.3838 16.5674 20.4248C 16.5674 22.4658 15.874 24.1357 14.4873 25.4346C 13.1006 26.7334 11.2256 27.3828 8.8623 27.3828L 6.06445 27.3828ZM 6.06445 16.8652L 6.06445 24.541L 8.32031 24.541C 9.81445 24.541 10.9521 24.1943 11.7334 23.501C 12.5146 22.8076 12.9053 21.8311 12.9053 20.5713C 12.9053 18.1006 11.4697 16.8652 8.59863 16.8652L 6.06445 16.8652ZM 30.3955 35L 27.0996 35L 27.0996 32.6562L 27.041 32.6562C 26.0059 34.4531 24.4873 35.3516 22.4854 35.3516C 21.0107 35.3516 19.8535 34.9512 19.0137 34.1504C 18.1836 33.3496 17.7686 32.29 17.7686 30.9717C 17.7686 28.1396 19.3994 26.4893 22.6611 26.0205L 27.1143 25.3906C 27.1143 23.252 26.0986 22.1826 24.0674 22.1826C 22.2803 22.1826 20.6689 22.7979 19.2334 24.0283L 19.2334 21.0547C 20.8154 20.1172 22.6416 19.6484 24.7119 19.6484C 28.501 19.6484 30.3955 21.5137 30.3955 25.2441L 30.3955 35ZM 27.1143 27.6318L 23.9648 28.0713C 22.9883 28.1982 22.251 28.4375 21.7529 28.7891C 21.2646 29.1309 21.0205 29.7363 21.0205 30.6055C 21.0205 31.2402 21.2451 31.7627 21.6943 32.1729C 22.1533 32.5732 22.7637 32.7734 23.5254 32.7734C 24.5605 32.7734 25.415 32.4121 26.0889 31.6895C 26.7725 30.957 27.1143 30.0391 27.1143 28.9355L 27.1143 27.6318ZM 48.1934 35L 44.7949 35L 44.7949 32.4512L 44.7363 32.4512C 43.6426 34.3848 41.958 35.3516 39.6826 35.3516C 37.8369 35.3516 36.3574 34.6826 35.2441 33.3447C 34.1406 31.9971 33.5889 30.166 33.5889 27.8516C 33.5889 25.3711 34.1992 23.3838 35.4199 21.8896C 36.6504 20.3955 38.2861 19.6484 40.3271 19.6484C 42.3486 19.6484 43.8184 20.459 44.7363 22.0801L 44.7949 22.0801L 44.7949 12.793L 48.1934 12.793L 48.1934 35ZM 44.8389 28.1445L 44.8389 26.1816C 44.8389 25.1172 44.4922 24.2139 43.7988 23.4717C 43.1055 22.7295 42.2217 22.3584 41.1475 22.3584C 39.8779 22.3584 38.877 22.832 38.1445 23.7793C 37.4219 24.7266 37.0605 26.04 37.0605 27.7197C 37.0605 29.2432 37.4072 30.4492 38.1006 31.3379C 38.8037 32.2168 39.7461 32.6562 40.9277 32.6562C 42.0898 32.6562 43.0322 32.2314 43.7549 31.3818C 44.4775 30.5225 44.8389 29.4434 44.8389 28.1445ZM 66.2695 35L 62.8711 35L 62.8711 32.4512L 62.8125 32.4512C 61.7188 34.3848 60.0342 35.3516 57.7588 35.3516C 55.9131 35.3516 54.4336 34.6826 53.3203 33.3447C 52.2168 31.9971 51.665 30.166 51.665 27.8516C 51.665 25.3711 52.2754 23.3838 53.4961 21.8896C 54.7266 20.3955 56.3623 19.6484 58.4033 19.6484C 60.4248 19.6484 61.8945 20.459 62.8125 22.0801L 62.8711 22.0801L 62.8711 12.793L 66.2695 12.793L 66.2695 35ZM 62.915 28.1445L 62.915 26.1816C 62.915 25.1172 62.5684 24.2139 61.875 23.4717C 61.1816 22.7295 60.2979 22.3584 59.2236 22.3584C 57.9541 22.3584 56.9531 22.832 56.2207 23.7793C 55.498 24.7266 55.1367 26.04 55.1367 27.7197C 55.1367 29.2432 55.4834 30.4492 56.1768 31.3379C 56.8799 32.2168 57.8223 32.6562 59.0039 32.6562C 60.166 32.6562 61.1084 32.2314 61.8311 31.3818C 62.5537 30.5225 62.915 29.4434 62.915 28.1445ZM 72.4219 16.8506C 71.8652 16.8506 71.3867 16.6699 70.9863 16.3086C 70.5957 15.9473 70.4004 15.4883 70.4004 14.9316C 70.4004 14.375 70.5957 13.9111 70.9863 13.54C 71.3867 13.1689 71.8652 12.9834 72.4219 12.9834C 72.998 12.9834 73.4863 13.1689 73.8867 13.54C 74.2871 13.9111 74.4873 14.375 74.4873 14.9316C 74.4873 15.459 74.2871 15.9131 73.8867 16.2939C 73.4863 16.665 72.998 16.8506 72.4219 16.8506ZM 74.1064 35L 70.708 35L 70.708 20L 74.1064 20L 74.1064 35ZM 91.9189 35L 88.5205 35L 88.5205 26.5479C 88.5205 23.7451 87.5293 22.3438 85.5469 22.3438C 84.5117 22.3438 83.6572 22.7344 82.9834 23.5156C 82.3096 24.2871 81.9727 25.2637 81.9727 26.4453L 81.9727 35L 78.5596 35L 78.5596 20L 81.9727 20L 81.9727 22.4902L 82.0312 22.4902C 83.1543 20.5957 84.7754 19.6484 86.8945 19.6484C 88.5254 19.6484 89.7705 20.1807 90.6299 21.2451C 91.4893 22.2998 91.9189 23.8281 91.9189 25.8301L 91.9189 35ZM 109.731 33.7988C 109.731 39.3066 106.963 42.0605 101.426 42.0605C 99.4727 42.0605 97.7686 41.7334 96.3135 41.0791L 96.3135 37.9736C 97.9541 38.9111 99.5117 39.3799 100.986 39.3799C 104.551 39.3799 106.333 37.627 106.333 34.1211L 106.333 32.4805L 106.274 32.4805C 105.151 34.3945 103.462 35.3516 101.206 35.3516C 99.3799 35.3516 97.9053 34.6875 96.7822 33.3594C 95.6689 32.0215 95.1123 30.2295 95.1123 27.9834C 95.1123 25.4346 95.7129 23.4082 96.9141 21.9043C 98.1152 20.4004 99.7656 19.6484 101.865 19.6484C 103.848 19.6484 105.317 20.459 106.274 22.0801L 106.333 22.0801L 106.333 20L 109.731 20L 109.731 33.7988ZM 106.362 28.1299L 106.362 26.1816C 106.362 25.127 106.011 24.2285 105.308 23.4863C 104.614 22.7344 103.745 22.3584 102.7 22.3584C 101.411 22.3584 100.4 22.8369 99.668 23.7939C 98.9453 24.7412 98.584 26.0693 98.584 27.7783C 98.584 29.2529 98.9307 30.4346 99.624 31.3232C 100.327 32.2021 101.255 32.6416 102.407 32.6416C 103.579 32.6416 104.531 32.2217 105.264 31.3818C 105.996 30.5322 106.362 29.4482 106.362 28.1299ZM 122.051 28.0566L 114.053 28.0566L 114.053 25.5518L 122.051 25.5518L 122.051 28.0566ZM 142.837 35L 138.765 35L 135.41 29.375C 135.107 28.8574 134.81 28.418 134.517 28.0566C 134.233 27.6855 133.94 27.3828 133.638 27.1484C 133.345 26.9141 133.022 26.7432 132.671 26.6357C 132.319 26.5283 131.924 26.4746 131.484 26.4746L 130.078 26.4746L 130.078 35L 126.606 35L 126.606 13.9941L 133.521 13.9941C 134.507 13.9941 135.415 14.1113 136.245 14.3457C 137.075 14.5801 137.798 14.9365 138.413 15.415C 139.028 15.8838 139.507 16.4746 139.849 17.1875C 140.2 17.8906 140.376 18.7158 140.376 19.6631C 140.376 20.4053 140.264 21.0889 140.039 21.7139C 139.824 22.3291 139.512 22.8809 139.102 23.3691C 138.701 23.8477 138.213 24.2578 137.637 24.5996C 137.07 24.9414 136.431 25.2051 135.718 25.3906L 135.718 25.4492C 136.099 25.6641 136.431 25.9033 136.714 26.167C 136.997 26.4209 137.266 26.6846 137.52 26.958C 137.773 27.2314 138.022 27.5439 138.267 27.8955C 138.521 28.2373 138.799 28.6377 139.102 29.0967L 142.837 35ZM 130.078 16.8213L 130.078 23.6475L 132.979 23.6475C 133.516 23.6475 134.009 23.5645 134.458 23.3984C 134.917 23.2324 135.312 22.9932 135.645 22.6807C 135.977 22.3682 136.235 21.9873 136.421 21.5381C 136.606 21.0889 136.699 20.5859 136.699 20.0293C 136.699 19.0234 136.382 18.2373 135.747 17.6709C 135.112 17.1045 134.199 16.8213 133.008 16.8213L 130.078 16.8213ZM 146.631 16.8506C 146.074 16.8506 145.596 16.6699 145.195 16.3086C 144.805 15.9473 144.609 15.4883 144.609 14.9316C 144.609 14.375 144.805 13.9111 145.195 13.54C 145.596 13.1689 146.074 12.9834 146.631 12.9834C 147.207 12.9834 147.695 13.1689 148.096 13.54C 148.496 13.9111 148.696 14.375 148.696 14.9316C 148.696 15.459 148.496 15.9131 148.096 16.2939C 147.695 16.665 147.207 16.8506 146.631 16.8506ZM 148.315 35L 144.917 35L 144.917 20L 148.315 20L 148.315 35ZM 166.421 33.7988C 166.421 39.3066 163.652 42.0605 158.115 42.0605C 156.162 42.0605 154.458 41.7334 153.003 41.0791L 153.003 37.9736C 154.644 38.9111 156.201 39.3799 157.676 39.3799C 161.24 39.3799 163.022 37.627 163.022 34.1211L 163.022 32.4805L 162.964 32.4805C 161.841 34.3945 160.151 35.3516 157.896 35.3516C 156.069 35.3516 154.595 34.6875 153.472 33.3594C 152.358 32.0215 151.802 30.2295 151.802 27.9834C 151.802 25.4346 152.402 23.4082 153.604 21.9043C 154.805 20.4004 156.455 19.6484 158.555 19.6484C 160.537 19.6484 162.007 20.459 162.964 22.0801L 163.022 22.0801L 163.022 20L 166.421 20L 166.421 33.7988ZM 163.052 28.1299L 163.052 26.1816C 163.052 25.127 162.7 24.2285 161.997 23.4863C 161.304 22.7344 160.435 22.3584 159.39 22.3584C 158.101 22.3584 157.09 22.8369 156.357 23.7939C 155.635 24.7412 155.273 26.0693 155.273 27.7783C 155.273 29.2529 155.62 30.4346 156.313 31.3232C 157.017 32.2021 157.944 32.6416 159.097 32.6416C 160.269 32.6416 161.221 32.2217 161.953 31.3818C 162.686 30.5322 163.052 29.4482 163.052 28.1299ZM 184.175 35L 180.776 35L 180.776 26.7969C 180.776 23.8281 179.785 22.3438 177.803 22.3438C 176.807 22.3438 175.967 22.7734 175.283 23.6328C 174.6 24.4922 174.258 25.5908 174.258 26.9287L 174.258 35L 170.845 35L 170.845 12.793L 174.258 12.793L 174.258 22.4902L 174.316 22.4902C 175.449 20.5957 177.07 19.6484 179.18 19.6484C 182.51 19.6484 184.175 21.6846 184.175 25.7568L 184.175 35ZM 196.216 34.8389C 195.552 35.1709 194.678 35.3369 193.594 35.3369C 190.684 35.3369 189.229 33.9404 189.229 31.1475L 189.229 22.666L 186.724 22.666L 186.724 20L 189.229 20L 189.229 16.5283L 192.627 15.5615L 192.627 20L 196.216 20L 196.216 22.666L 192.627 22.666L 192.627 30.166C 192.627 31.0547 192.788 31.6895 193.11 32.0703C 193.433 32.4512 193.97 32.6416 194.722 32.6416C 195.298 32.6416 195.796 32.4756 196.216 32.1436L 196.216 34.8389Z" transform="translate(1395 463.334)" fill="#151937"/>
</g>
<g id="Rectangle 3.2">
<rect width="253.333" height="333.333" transform="translate(1666.67 320)" fill="#A7F3FF"/>
</g>
<g id="These articles help_9">
<path d="M 25.1514 35L 21.6943 35L 21.6943 21.4062C 21.6943 20.293 21.7627 18.9307 21.8994 17.3193L 21.8408 17.3193C 21.626 18.2373 21.4355 18.8965 21.2695 19.2969L 15 35L 12.5977 35L 6.31348 19.4141C 6.1377 18.9551 5.95215 18.2568 5.75684 17.3193L 5.69824 17.3193C 5.77637 18.1592 5.81543 19.5312 5.81543 21.4355L 5.81543 35L 2.59277 35L 2.59277 13.9941L 7.5 13.9941L 13.0225 27.9834C 13.4424 29.0576 13.7158 29.8584 13.8428 30.3857L 13.916 30.3857C 14.2773 29.2822 14.5703 28.4619 14.7949 27.9248L 20.4199 13.9941L 25.1514 13.9941L 25.1514 35ZM 41.4697 35L 38.1738 35L 38.1738 32.6562L 38.1152 32.6562C 37.0801 34.4531 35.5615 35.3516 33.5596 35.3516C 32.085 35.3516 30.9277 34.9512 30.0879 34.1504C 29.2578 33.3496 28.8428 32.29 28.8428 30.9717C 28.8428 28.1396 30.4736 26.4893 33.7354 26.0205L 38.1885 25.3906C 38.1885 23.252 37.1729 22.1826 35.1416 22.1826C 33.3545 22.1826 31.7432 22.7979 30.3076 24.0283L 30.3076 21.0547C 31.8896 20.1172 33.7158 19.6484 35.7861 19.6484C 39.5752 19.6484 41.4697 21.5137 41.4697 25.2441L 41.4697 35ZM 38.1885 27.6318L 35.0391 28.0713C 34.0625 28.1982 33.3252 28.4375 32.8271 28.7891C 32.3389 29.1309 32.0947 29.7363 32.0947 30.6055C 32.0947 31.2402 32.3193 31.7627 32.7686 32.1729C 33.2275 32.5732 33.8379 32.7734 34.5996 32.7734C 35.6348 32.7734 36.4893 32.4121 37.1631 31.6895C 37.8467 30.957 38.1885 30.0391 38.1885 28.9355L 38.1885 27.6318ZM 54.3311 23.2373C 53.9209 22.915 53.3301 22.7539 52.5586 22.7539C 51.5527 22.7539 50.7129 23.208 50.0391 24.1162C 49.3652 25.0244 49.0283 26.2598 49.0283 27.8223L 49.0283 35L 45.6299 35L 45.6299 20L 49.0283 20L 49.0283 23.0908L 49.0869 23.0908C 49.4189 22.0361 49.9268 21.2158 50.6104 20.6299C 51.3037 20.0342 52.0752 19.7363 52.9248 19.7363C 53.54 19.7363 54.0088 19.8291 54.3311 20.0146L 54.3311 23.2373ZM 70.1221 33.7988C 70.1221 39.3066 67.3535 42.0605 61.8164 42.0605C 59.8633 42.0605 58.1592 41.7334 56.7041 41.0791L 56.7041 37.9736C 58.3447 38.9111 59.9023 39.3799 61.377 39.3799C 64.9414 39.3799 66.7236 37.627 66.7236 34.1211L 66.7236 32.4805L 66.665 32.4805C 65.542 34.3945 63.8525 35.3516 61.5967 35.3516C 59.7705 35.3516 58.2959 34.6875 57.1729 33.3594C 56.0596 32.0215 55.5029 30.2295 55.5029 27.9834C 55.5029 25.4346 56.1035 23.4082 57.3047 21.9043C 58.5059 20.4004 60.1562 19.6484 62.2559 19.6484C 64.2383 19.6484 65.708 20.459 66.665 22.0801L 66.7236 22.0801L 66.7236 20L 70.1221 20L 70.1221 33.7988ZM 66.7529 28.1299L 66.7529 26.1816C 66.7529 25.127 66.4014 24.2285 65.6982 23.4863C 65.0049 22.7344 64.1357 22.3584 63.0908 22.3584C 61.8018 22.3584 60.791 22.8369 60.0586 23.7939C 59.3359 24.7412 58.9746 26.0693 58.9746 27.7783C 58.9746 29.2529 59.3213 30.4346 60.0146 31.3232C 60.7178 32.2021 61.6455 32.6416 62.7979 32.6416C 63.9697 32.6416 64.9219 32.2217 65.6543 31.3818C 66.3867 30.5322 66.7529 29.4482 66.7529 28.1299ZM 76.2598 16.8506C 75.7031 16.8506 75.2246 16.6699 74.8242 16.3086C 74.4336 15.9473 74.2383 15.4883 74.2383 14.9316C 74.2383 14.375 74.4336 13.9111 74.8242 13.54C 75.2246 13.1689 75.7031 12.9834 76.2598 12.9834C 76.8359 12.9834 77.3242 13.1689 77.7246 13.54C 78.125 13.9111 78.3252 14.375 78.3252 14.9316C 78.3252 15.459 78.125 15.9131 77.7246 16.2939C 77.3242 16.665 76.8359 16.8506 76.2598 16.8506ZM 77.9443 35L 74.5459 35L 74.5459 20L 77.9443 20L 77.9443 35ZM 95.7568 35L 92.3584 35L 92.3584 26.5479C 92.3584 23.7451 91.3672 22.3438 89.3848 22.3438C 88.3496 22.3438 87.4951 22.7344 86.8213 23.5156C 86.1475 24.2871 85.8105 25.2637 85.8105 26.4453L 85.8105 35L 82.3975 35L 82.3975 20L 85.8105 20L 85.8105 22.4902L 85.8691 22.4902C 86.9922 20.5957 88.6133 19.6484 90.7324 19.6484C 92.3633 19.6484 93.6084 20.1807 94.4678 21.2451C 95.3271 22.2998 95.7568 23.8281 95.7568 25.8301L 95.7568 35ZM 107.812 28.0566L 99.8145 28.0566L 99.8145 25.5518L 107.812 25.5518L 107.812 28.0566ZM 128.599 35L 124.526 35L 121.172 29.375C 120.869 28.8574 120.571 28.418 120.278 28.0566C 119.995 27.6855 119.702 27.3828 119.399 27.1484C 119.106 26.9141 118.784 26.7432 118.433 26.6357C 118.081 26.5283 117.686 26.4746 117.246 26.4746L 115.84 26.4746L 115.84 35L 112.368 35L 112.368 13.9941L 119.282 13.9941C 120.269 13.9941 121.177 14.1113 122.007 14.3457C 122.837 14.5801 123.56 14.9365 124.175 15.415C 124.79 15.8838 125.269 16.4746 125.61 17.1875C 125.962 17.8906 126.138 18.7158 126.138 19.6631C 126.138 20.4053 126.025 21.0889 125.801 21.7139C 125.586 22.3291 125.273 22.8809 124.863 23.3691C 124.463 23.8477 123.975 24.2578 123.398 24.5996C 122.832 24.9414 122.192 25.2051 121.479 25.3906L 121.479 25.4492C 121.86 25.6641 122.192 25.9033 122.476 26.167C 122.759 26.4209 123.027 26.6846 123.281 26.958C 123.535 27.2314 123.784 27.5439 124.028 27.8955C 124.282 28.2373 124.561 28.6377 124.863 29.0967L 128.599 35ZM 115.84 16.8213L 115.84 23.6475L 118.74 23.6475C 119.277 23.6475 119.771 23.5645 120.22 23.3984C 120.679 23.2324 121.074 22.9932 121.406 22.6807C 121.738 22.3682 121.997 21.9873 122.183 21.5381C 122.368 21.0889 122.461 20.5859 122.461 20.0293C 122.461 19.0234 122.144 18.2373 121.509 17.6709C 120.874 17.1045 119.961 16.8213 118.77 16.8213L 115.84 16.8213ZM 132.393 16.8506C 131.836 16.8506 131.357 16.6699 130.957 16.3086C 130.566 15.9473 130.371 15.4883 130.371 14.9316C 130.371 14.375 130.566 13.9111 130.957 13.54C 131.357 13.1689 131.836 12.9834 132.393 12.9834C 132.969 12.9834 133.457 13.1689 133.857 13.54C 134.258 13.9111 134.458 14.375 134.458 14.9316C 134.458 15.459 134.258 15.9131 133.857 16.2939C 133.457 16.665 132.969 16.8506 132.393 16.8506ZM 134.077 35L 130.679 35L 130.679 20L 134.077 20L 134.077 35ZM 152.183 33.7988C 152.183 39.3066 149.414 42.0605 143.877 42.0605C 141.924 42.0605 140.22 41.7334 138.765 41.0791L 138.765 37.9736C 140.405 38.9111 141.963 39.3799 143.438 39.3799C 147.002 39.3799 148.784 37.627 148.784 34.1211L 148.784 32.4805L 148.726 32.4805C 147.603 34.3945 145.913 35.3516 143.657 35.3516C 141.831 35.3516 140.356 34.6875 139.233 33.3594C 138.12 32.0215 137.563 30.2295 137.563 27.9834C 137.563 25.4346 138.164 23.4082 139.365 21.9043C 140.566 20.4004 142.217 19.6484 144.316 19.6484C 146.299 19.6484 147.769 20.459 148.726 22.0801L 148.784 22.0801L 148.784 20L 152.183 20L 152.183 33.7988ZM 148.813 28.1299L 148.813 26.1816C 148.813 25.127 148.462 24.2285 147.759 23.4863C 147.065 22.7344 146.196 22.3584 145.151 22.3584C 143.862 22.3584 142.852 22.8369 142.119 23.7939C 141.396 24.7412 141.035 26.0693 141.035 27.7783C 141.035 29.2529 141.382 30.4346 142.075 31.3232C 142.778 32.2021 143.706 32.6416 144.858 32.6416C 146.03 32.6416 146.982 32.2217 147.715 31.3818C 148.447 30.5322 148.813 29.4482 148.813 28.1299ZM 169.937 35L 166.538 35L 166.538 26.7969C 166.538 23.8281 165.547 22.3438 163.564 22.3438C 162.568 22.3438 161.729 22.7734 161.045 23.6328C 160.361 24.4922 160.02 25.5908 160.02 26.9287L 160.02 35L 156.606 35L 156.606 12.793L 160.02 12.793L 160.02 22.4902L 160.078 22.4902C 161.211 20.5957 162.832 19.6484 164.941 19.6484C 168.271 19.6484 169.937 21.6846 169.937 25.7568L 169.937 35ZM 181.978 34.8389C 181.313 35.1709 180.439 35.3369 179.355 35.3369C 176.445 35.3369 174.99 33.9404 174.99 31.1475L 174.99 22.666L 172.485 22.666L 172.485 20L 174.99 20L 174.99 16.5283L 178.389 15.5615L 178.389 20L 181.978 20L 181.978 22.666L 178.389 22.666L 178.389 30.166C 178.389 31.0547 178.55 31.6895 178.872 32.0703C 179.194 32.4512 179.731 32.6416 180.483 32.6416C 181.06 32.6416 181.558 32.4756 181.978 32.1436L 181.978 34.8389Z" transform="translate(1700 463.334)" fill="#151937"/>
</g>
<g id="Rectangle 3.3">
<rect width="240" height="333.333" transform="translate(0 320)" fill="#A7F3FF"/>
</g>
<g id="These articles help_10">
<path d="M 46.3558 35L 42.8988 35L 42.8988 21.4062C 42.8988 20.293 42.9671 18.9307 43.1038 17.3193L 43.0452 17.3193C 42.8304 18.2373 42.64 18.8965 42.474 19.2969L 36.2044 35L 33.8021 35L 27.5179 19.4141C 27.3421 18.9551 27.1566 18.2568 26.9613 17.3193L 26.9027 17.3193C 26.9808 18.1592 27.0199 19.5312 27.0199 21.4355L 27.0199 35L 23.7972 35L 23.7972 13.9941L 28.7044 13.9941L 34.2269 27.9834C 34.6468 29.0576 34.9202 29.8584 35.0472 30.3857L 35.1204 30.3857C 35.4818 29.2822 35.7747 28.4619 35.9993 27.9248L 41.6243 13.9941L 46.3558 13.9941L 46.3558 35ZM 62.6741 35L 59.3783 35L 59.3783 32.6562L 59.3197 32.6562C 58.2845 34.4531 56.7659 35.3516 54.764 35.3516C 53.2894 35.3516 52.1322 34.9512 51.2923 34.1504C 50.4622 33.3496 50.0472 32.29 50.0472 30.9717C 50.0472 28.1396 51.6781 26.4893 54.9398 26.0205L 59.3929 25.3906C 59.3929 23.252 58.3773 22.1826 56.346 22.1826C 54.5589 22.1826 52.9476 22.7979 51.512 24.0283L 51.512 21.0547C 53.0941 20.1172 54.9202 19.6484 56.9906 19.6484C 60.7796 19.6484 62.6741 21.5137 62.6741 25.2441L 62.6741 35ZM 59.3929 27.6318L 56.2435 28.0713C 55.2669 28.1982 54.5296 28.4375 54.0316 28.7891C 53.5433 29.1309 53.2991 29.7363 53.2991 30.6055C 53.2991 31.2402 53.5238 31.7627 53.973 32.1729C 54.432 32.5732 55.0423 32.7734 55.804 32.7734C 56.8392 32.7734 57.6937 32.4121 58.3675 31.6895C 59.0511 30.957 59.3929 30.0391 59.3929 28.9355L 59.3929 27.6318ZM 75.5355 23.2373C 75.1253 22.915 74.5345 22.7539 73.763 22.7539C 72.7572 22.7539 71.9173 23.208 71.2435 24.1162C 70.5697 25.0244 70.2327 26.2598 70.2327 27.8223L 70.2327 35L 66.8343 35L 66.8343 20L 70.2327 20L 70.2327 23.0908L 70.2913 23.0908C 70.6234 22.0361 71.1312 21.2158 71.8148 20.6299C 72.5081 20.0342 73.2796 19.7363 74.1292 19.7363C 74.7445 19.7363 75.2132 19.8291 75.5355 20.0146L 75.5355 23.2373ZM 91.3265 33.7988C 91.3265 39.3066 88.5579 42.0605 83.0208 42.0605C 81.0677 42.0605 79.3636 41.7334 77.9085 41.0791L 77.9085 37.9736C 79.5491 38.9111 81.1068 39.3799 82.5814 39.3799C 86.1458 39.3799 87.9281 37.627 87.9281 34.1211L 87.9281 32.4805L 87.8695 32.4805C 86.7464 34.3945 85.057 35.3516 82.8011 35.3516C 80.9749 35.3516 79.5003 34.6875 78.3773 33.3594C 77.264 32.0215 76.7074 30.2295 76.7074 27.9834C 76.7074 25.4346 77.3079 23.4082 78.5091 21.9043C 79.7103 20.4004 81.3607 19.6484 83.4603 19.6484C 85.4427 19.6484 86.9124 20.459 87.8695 22.0801L 87.9281 22.0801L 87.9281 20L 91.3265 20L 91.3265 33.7988ZM 87.9574 28.1299L 87.9574 26.1816C 87.9574 25.127 87.6058 24.2285 86.9027 23.4863C 86.2093 22.7344 85.3402 22.3584 84.2952 22.3584C 83.0062 22.3584 81.9954 22.8369 81.263 23.7939C 80.5404 24.7412 80.179 26.0693 80.179 27.7783C 80.179 29.2529 80.5257 30.4346 81.2191 31.3232C 81.9222 32.2021 82.8499 32.6416 84.0023 32.6416C 85.1741 32.6416 86.1263 32.2217 86.8587 31.3818C 87.5911 30.5322 87.9574 29.4482 87.9574 28.1299ZM 97.4642 16.8506C 96.9075 16.8506 96.429 16.6699 96.0286 16.3086C 95.638 15.9473 95.4427 15.4883 95.4427 14.9316C 95.4427 14.375 95.638 13.9111 96.0286 13.54C 96.429 13.1689 96.9075 12.9834 97.4642 12.9834C 98.0404 12.9834 98.5286 13.1689 98.929 13.54C 99.3294 13.9111 99.5296 14.375 99.5296 14.9316C 99.5296 15.459 99.3294 15.9131 98.929 16.2939C 98.5286 16.665 98.0404 16.8506 97.4642 16.8506ZM 99.1488 35L 95.7503 35L 95.7503 20L 99.1488 20L 99.1488 35ZM 116.961 35L 113.563 35L 113.563 26.5479C 113.563 23.7451 112.572 22.3438 110.589 22.3438C 109.554 22.3438 108.7 22.7344 108.026 23.5156C 107.352 24.2871 107.015 25.2637 107.015 26.4453L 107.015 35L 103.602 35L 103.602 20L 107.015 20L 107.015 22.4902L 107.074 22.4902C 108.197 20.5957 109.818 19.6484 111.937 19.6484C 113.568 19.6484 114.813 20.1807 115.672 21.2451C 116.532 22.2998 116.961 23.8281 116.961 25.8301L 116.961 35ZM 129.017 28.0566L 121.019 28.0566L 121.019 25.5518L 129.017 25.5518L 129.017 28.0566ZM 145.203 35L 133.573 35L 133.573 13.9941L 137.059 13.9941L 137.059 32.0557L 145.203 32.0557L 145.203 35ZM 160.57 28.4229L 150.345 28.4229C 150.384 29.8096 150.809 30.8789 151.619 31.6309C 152.44 32.3828 153.563 32.7588 154.989 32.7588C 156.59 32.7588 158.06 32.2803 159.398 31.3232L 159.398 34.0625C 158.031 34.9219 156.224 35.3516 153.978 35.3516C 151.771 35.3516 150.037 34.6729 148.778 33.3154C 147.528 31.9482 146.903 30.0293 146.903 27.5586C 146.903 25.2246 147.591 23.3252 148.968 21.8604C 150.355 20.3857 152.074 19.6484 154.124 19.6484C 156.175 19.6484 157.762 20.3076 158.885 21.626C 160.008 22.9443 160.57 24.7754 160.57 27.1191L 160.57 28.4229ZM 157.288 26.0205C 157.279 24.7998 156.991 23.8525 156.424 23.1787C 155.858 22.4951 155.076 22.1533 154.08 22.1533C 153.104 22.1533 152.274 22.5098 151.59 23.2227C 150.916 23.9355 150.501 24.8682 150.345 26.0205L 157.288 26.0205ZM 172.288 15.5615C 171.829 15.2979 171.307 15.166 170.721 15.166C 169.071 15.166 168.245 16.0986 168.245 17.9639L 168.245 20L 171.732 20L 171.732 22.666L 168.26 22.666L 168.26 35L 164.862 35L 164.862 22.666L 162.298 22.666L 162.298 20L 164.862 20L 164.862 17.5684C 164.862 15.9863 165.379 14.7412 166.414 13.833C 167.45 12.915 168.743 12.4561 170.296 12.4561C 171.136 12.4561 171.8 12.5488 172.288 12.7344L 172.288 15.5615ZM 182.616 34.8389C 181.951 35.1709 181.077 35.3369 179.993 35.3369C 177.083 35.3369 175.628 33.9404 175.628 31.1475L 175.628 22.666L 173.123 22.666L 173.123 20L 175.628 20L 175.628 16.5283L 179.027 15.5615L 179.027 20L 182.616 20L 182.616 22.666L 179.027 22.666L 179.027 30.166C 179.027 31.0547 179.188 31.6895 179.51 32.0703C 179.832 32.4512 180.369 32.6416 181.121 32.6416C 181.698 32.6416 182.196 32.4756 182.616 32.1436L 182.616 34.8389Z" transform="translate(16.666 463.334)" fill="#151937"/>
</g>
</g>
</g>
</svg>

