<svg width="614" height="211" viewBox="0 0 614 211" version="1.1" xmlns="http://www.w3.org/2000/svg" xmlns:xlink="http://www.w3.org/1999/xlink">
<g id="Canvas" fill="none">
<g id="flat-lateral-structure" clip-path="url(#clip0)">
<rect width="614" height="211" fill="white"/>
<g id="Vector">
<path d="M 0 46L 0 0L 264 0L 264 46" stroke-width="5" transform="translate(175 29)" stroke="#243A5E"/>
</g>
<g id="Vector 2">
<path d="M 0 0L 0 40" stroke-width="5" transform="translate(307 29)" stroke="#243A5E"/>
</g>
<g id="Group">
<g id="Rectangle">
<rect width="104" height="104" transform="translate(359.927 69) scale(-1 1)" fill="#50E6FF"/>
</g>
<g id="Rectangle_2">
<rect width="104" height="104" transform="translate(493 69) scale(-1 1)" fill="#50E6FF"/>
</g>
<g id="Rectangle_3">
<rect width="104" height="104" transform="translate(226.854 69) scale(-1 1)" fill="#50E6FF"/>
</g>
</g>
<g id="A">
<path d="M 25.3926 39L 19.2051 39L 17.4121 33.3926L 8.44727 33.3926L 6.67188 39L 0.519531 39L 9.69531 13.793L 16.4277 13.793L 25.3926 39ZM 16.1113 29.0332L 13.4043 20.5605C 13.2051 19.9277 13.0645 19.1719 12.9824 18.293L 12.8418 18.293C 12.7832 19.0312 12.6367 19.7637 12.4023 20.4902L 9.66016 29.0332L 16.1113 29.0332Z" transform="translate(162 95)" fill="white"/>
</g>
<g id="B">
<path d="M 3.33398 39L 3.33398 13.793L 12.5098 13.793C 15.3223 13.793 17.4844 14.3086 18.9961 15.3398C 20.5078 16.3711 21.2637 17.8242 21.2637 19.6992C 21.2637 21.0586 20.8008 22.248 19.875 23.2676C 18.9609 24.2871 17.7891 24.9961 16.3594 25.3945L 16.3594 25.4648C 18.1523 25.6875 19.582 26.3496 20.6484 27.4512C 21.7266 28.5527 22.2656 29.8945 22.2656 31.4766C 22.2656 33.7852 21.4395 35.6191 19.7871 36.9785C 18.1348 38.3262 15.8789 39 13.0195 39L 3.33398 39ZM 9.01172 17.9766L 9.01172 23.9531L 11.5078 23.9531C 12.6797 23.9531 13.5996 23.6719 14.2676 23.1094C 14.9473 22.5352 15.2871 21.75 15.2871 20.7539C 15.2871 18.9023 13.9043 17.9766 11.1387 17.9766L 9.01172 17.9766ZM 9.01172 28.1719L 9.01172 34.8164L 12.0879 34.8164C 13.4004 34.8164 14.4258 34.5117 15.1641 33.9023C 15.9141 33.293 16.2891 32.4609 16.2891 31.4062C 16.2891 30.3984 15.9199 29.6074 15.1816 29.0332C 14.4551 28.459 13.4355 28.1719 12.123 28.1719L 9.01172 28.1719Z" transform="translate(295 95)" fill="white"/>
</g>
<g id="C">
<path d="M 21.2207 38.1035C 19.3809 38.9941 16.9785 39.4395 14.0137 39.4395C 10.1465 39.4395 7.10547 38.3027 4.89062 36.0293C 2.67578 33.7559 1.56836 30.7266 1.56836 26.9414C 1.56836 22.9102 2.81055 19.6406 5.29492 17.1328C 7.79102 14.625 11.0254 13.3711 14.998 13.3711C 17.459 13.3711 19.5332 13.6816 21.2207 14.3027L 21.2207 19.7695C 19.5332 18.7617 17.6113 18.2578 15.4551 18.2578C 13.0879 18.2578 11.1777 19.002 9.72461 20.4902C 8.27148 21.9785 7.54492 23.9941 7.54492 26.5371C 7.54492 28.9746 8.23047 30.9199 9.60156 32.373C 10.9727 33.8145 12.8184 34.5352 15.1387 34.5352C 17.3535 34.5352 19.3809 33.9961 21.2207 32.918L 21.2207 38.1035Z" transform="translate(430 95)" fill="white"/>
</g>
</g>
</g>
<defs>

<clipPath id="clip0">
<rect width="614" height="211" fill="white"/>
</clipPath>

</defs>
</svg>

