<svg width="612" height="400" viewBox="0 0 612 400" version="1.1" xmlns="http://www.w3.org/2000/svg" xmlns:xlink="http://www.w3.org/1999/xlink">
<g id="Canvas" fill="none">
<g id="thumbnail-master-detail" clip-path="url(#clip0)">
<rect width="612" height="400" fill="#243A5E"/>
<g id="Rectangle">
<rect width="482" height="281" transform="translate(67 59)" fill="white"/>
</g>
<g id="Rectangle 2">
<rect width="146" height="281" transform="translate(66 59)" fill="#EAEAEA"/>
</g>
<g id="Rectangle 3">
<rect width="10" height="30" transform="translate(66 114)" fill="#50E6FF"/>
</g>
<g id="Group 3">
<g id="Group 2">
<g id="Rectangle 3.8">
<rect width="80" height="16" transform="translate(112 228)" fill="#C8C8C8"/>
</g>
<g id="Rectangle 3.9">
<rect width="16" height="16" transform="translate(86 228)" fill="#C8C8C8"/>
</g>
</g>
<g id="Group">
<g id="Rectangle 3.10">
<rect width="80" height="16" transform="translate(112 264)" fill="#C8C8C8"/>
</g>
<g id="Rectangle 3.11">
<rect width="16" height="16" transform="translate(86 264)" fill="#C8C8C8"/>
</g>
<g id="Rectangle 3.12">
<rect width="80" height="16" transform="translate(112 300)" fill="#C8C8C8"/>
</g>
<g id="Rectangle 3.13">
<rect width="16" height="16" transform="translate(86 300)" fill="#C8C8C8"/>
</g>
</g>
</g>
<g id="Group 3_2">
<g id="Group_2">
<g id="Rectangle 3.12_2">
<rect width="80" height="16" transform="translate(112 192)" fill="#C8C8C8"/>
</g>
<g id="Rectangle 3.13_2">
<rect width="16" height="16" transform="translate(86 192)" fill="#C8C8C8"/>
</g>
</g>
</g>
<g id="Group 3_3">
<g id="Group_3">
<g id="Rectangle 3.14">
<rect width="80" height="16" transform="translate(112 156)" fill="#C8C8C8"/>
</g>
<g id="Rectangle 3.15">
<rect width="16" height="16" transform="translate(86 156)" fill="#C8C8C8"/>
</g>
</g>
</g>
<g id="Group_4">
<g id="Group_5">
<g id="Rectangle 3.16">
<rect width="80" height="16" transform="translate(112 120)" fill="#C8C8C8"/>
</g>
<g id="Rectangle 3.17">
<rect width="16" height="16" transform="translate(86 120)" fill="#C8C8C8"/>
</g>
</g>
</g>
<g id="Group 2_2">
<g id="Rectangle 3.20">
<rect width="80" height="16" transform="translate(112 84)" fill="#C8C8C8"/>
</g>
<g id="Rectangle 3.21">
<rect width="16" height="16" transform="translate(86 84)" fill="#C8C8C8"/>
</g>
</g>
<g id="Rectangle 4">
<rect width="297" height="241" transform="translate(232 79)" fill="#50E6FF"/>
</g>
</g>
</g>
<defs>

<clipPath id="clip0">
<rect width="612" height="400" fill="white"/>
</clipPath>

</defs>
</svg>

