<svg width="1920" height="1080" viewBox="0 0 1920 1080" version="1.1" xmlns="http://www.w3.org/2000/svg" xmlns:xlink="http://www.w3.org/1999/xlink">
<title>fpo-video</title>
<desc>Created using Figma</desc>
<g id="Canvas" transform="translate(1870 5563)">
<clipPath id="clip-0" clip-rule="evenodd">
<path d="M -1870 -5563L 50 -5563L 50 -4483L -1870 -4483L -1870 -5563Z" fill="#FFFFFF"/>
</clipPath>
<g id="fpo-video" clip-path="url(#clip-0)">
<path d="M -1870 -5563L 50 -5563L 50 -4483L -1870 -4483L -1870 -5563Z" fill="#243A5E"/>
<g id="Rectangle 25.1">
<use xlink:href="#path0_fill" transform="translate(-1011.33 -5108)" fill="#000000" fill-opacity="0.75"/>
<mask id="mask0_outline_ins">
<use xlink:href="#path0_fill" fill="white" transform="translate(-1011.33 -5108)"/>
</mask>
<g mask="url(#mask0_outline_ins)">
<use xlink:href="#path1_stroke_2x" transform="translate(-1011.33 -5108)"/>
</g>
</g>
<g id="Rectangle 22 Copy 2.1">
<use xlink:href="#path2_fill" transform="matrix(0.707046 -0.707167 0.707046 0.707167 -999.391 -5013.99)" fill="#FFFFFF"/>
</g>
</g>
</g>
<defs>
<path id="path0_fill" d="M 0 10C 0 4.47716 4.47715 0 10 0L 179.261 0C 184.784 0 189.261 4.47715 189.261 10L 189.261 179.293C 189.261 184.816 184.784 189.293 179.261 189.293L 10 189.293C 4.47715 189.293 0 184.816 0 179.293L 0 10Z"/>
<path id="path1_stroke_2x" d="M 10 2L 179.261 2L 179.261 -2L 10 -2L 10 2ZM 187.261 10L 187.261 179.293L 191.261 179.293L 191.261 10L 187.261 10ZM 179.261 187.293L 10 187.293L 10 191.293L 179.261 191.293L 179.261 187.293ZM 2 179.293L 2 10L -2 10L -2 179.293L 2 179.293ZM 10 187.293C 5.58172 187.293 2 183.711 2 179.293L -2 179.293C -2 185.92 3.37258 191.293 10 191.293L 10 187.293ZM 187.261 179.293C 187.261 183.711 183.679 187.293 179.261 187.293L 179.261 191.293C 185.888 191.293 191.261 185.92 191.261 179.293L 187.261 179.293ZM 179.261 2C 183.679 2 187.261 5.58172 187.261 10L 191.261 10C 191.261 3.37258 185.888 -2 179.261 -2L 179.261 2ZM 10 -2C 3.37258 -2 -2 3.37259 -2 10L 2 10C 2 5.58172 5.58172 2 10 2L 10 -2Z"/>
<path id="path2_fill" fill-rule="evenodd" d="M 67.3193 0L 99.1758 98.5682L 0 67.3193L 67.3193 0Z"/>
</defs>
</svg>
