<svg width="600" height="336" viewBox="0 0 600 336" version="1.1" xmlns="http://www.w3.org/2000/svg" xmlns:xlink="http://www.w3.org/1999/xlink">
<title>inputs-interactions</title>
<desc>Created using Figma</desc>
<g id="Canvas" transform="translate(1870 3164)">
<clipPath id="clip-0" clip-rule="evenodd">
<path d="M -1870 -3164L -1270 -3164L -1270 -2828L -1870 -2828L -1870 -3164Z" fill="#FFFFFF"/>
</clipPath>
<g id="inputs-interactions" clip-path="url(#clip-0)">
<path d="M -1870 -3164L -1270 -3164L -1270 -2828L -1870 -2828L -1870 -3164Z" fill="#FFFFFF"/>
<g id="Group 5">
<g id="Rectangle">
<use xlink:href="#path0_fill" transform="translate(-1870 -3164)" fill="#EAEAEA"/>
<use xlink:href="#path0_fill" transform="translate(-1870 -3164)" fill="url(#paint1_linear)" fill-opacity="0.8"/>
</g>
<g id="Group 4">
<g id="Ellipse">
<use xlink:href="#path1_fill" transform="translate(-1699 -3124)" fill="#243A5E"/>
<use xlink:href="#path1_fill" transform="translate(-1699 -3124)" fill="url(#paint3_linear)" fill-opacity="0.5" style="mix-blend-mode:overlay"/>
</g>
<g id="Ellipse">
<use xlink:href="#path2_fill" transform="translate(-1641.78 -3066.75)" fill="#0078D4"/>
<use xlink:href="#path2_fill" transform="translate(-1641.78 -3066.75)" fill="url(#paint5_linear)" style="mix-blend-mode:soft-light"/>
</g>
</g>
<g id="Mask Group">
<mask id="mask0_alpha" mask-type="alpha">
<g id="Group 4.1">
<g id="Ellipse">
<use xlink:href="#path1_fill" transform="translate(-1696.87 -3124)" fill="#243A5E"/>
<use xlink:href="#path1_fill" transform="translate(-1696.87 -3124)" fill="url(#paint7_linear)" fill-opacity="0.5"/>
</g>
</g>
</mask>
<g id="Vector 2.1" mask="url(#mask0_alpha)" filter="url(#filter0_f)">
<use xlink:href="#path3_fill" transform="translate(-1696.87 -2986.4)" fill="#01126E" fill-opacity="0.3" style="mix-blend-mode:difference"/>
</g>
</g>
<g id="Vector">
<use xlink:href="#path4_fill" transform="translate(-1696.87 -2991.73)" fill="#50E6FF"/>
<use xlink:href="#path4_fill" transform="translate(-1696.87 -2991.73)" fill="url(#paint10_linear)" style="mix-blend-mode:screen"/>
<use xlink:href="#path4_fill" transform="translate(-1696.87 -2991.73)" fill="url(#paint11_linear)" style="mix-blend-mode:multiply"/>
</g>
</g>
</g>
</g>
<defs>
<filter id="filter0_f" filterUnits="userSpaceOnUse" x="-1707" y="-2997" width="149" height="140" color-interpolation-filters="sRGB">
<feFlood flood-opacity="0" result="BackgroundImageFix"/>
<feBlend mode="normal" in="SourceGraphic" in2="BackgroundImageFix" result="shape"/>
<feGaussianBlur stdDeviation="5" result="effect1_foregroundBlur"/>
</filter>
<linearGradient id="paint1_linear" x1="0" y1="0" x2="1" y2="0" gradientUnits="userSpaceOnUse" gradientTransform="matrix(-150 390 -696.429 -267.857 772.214 115.929)">
<stop offset="0" stop-color="#FFFFFF"/>
<stop offset="1" stop-color="#FFFFFF" stop-opacity="0"/>
</linearGradient>
<linearGradient id="paint3_linear" x1="0" y1="0" x2="1" y2="0" gradientUnits="userSpaceOnUse" gradientTransform="matrix(9.32973e-14 -150.4 150.322 2.4166e-12 52.7727 128)">
<stop offset="0" stop-color="#243A5E"/>
<stop offset="1" stop-color="#FFFFFF" stop-opacity="0"/>
</linearGradient>
<linearGradient id="paint5_linear" x1="0" y1="0" x2="1" y2="0" gradientUnits="userSpaceOnUse" gradientTransform="matrix(8.66003e-15 141.502 -141.429 8.66451e-15 141.429 -8.66451e-15)">
<stop offset="0" stop-color="#FFFFFF"/>
<stop offset="1" stop-color="#FFFFFF" stop-opacity="0"/>
</linearGradient>
<linearGradient id="paint7_linear" x1="0" y1="0" x2="1" y2="0" gradientUnits="userSpaceOnUse" gradientTransform="matrix(9.32973e-14 -150.4 150.322 2.4166e-12 52.7727 128)">
<stop offset="0" stop-color="#243A5E"/>
<stop offset="1" stop-color="#FFFFFF" stop-opacity="0"/>
</linearGradient>
<linearGradient id="paint10_linear" x1="0" y1="0" x2="1" y2="0" gradientUnits="userSpaceOnUse" gradientTransform="matrix(110.876 -42.6667 87.495 227.605 19.1533 -113.802)">
<stop offset="0" stop-color="#1FDFFF"/>
<stop offset="0.358402" stop-color="#50E6FF"/>
<stop offset="0.490335" stop-color="#D4F9FF"/>
<stop offset="0.914948" stop-color="#C7F7FF" stop-opacity="0"/>
</linearGradient>
<linearGradient id="paint11_linear" x1="0" y1="0" x2="1" y2="0" gradientUnits="userSpaceOnUse" gradientTransform="matrix(51.1736 49.0667 -100.619 105.048 157.987 -63.1908)">
<stop offset="0" stop-color="#0078D4"/>
<stop offset="1" stop-color="#FFFFFF" stop-opacity="0"/>
</linearGradient>
<path id="path0_fill" d="M 0 0L 600 0L 600 336L 0 336L 0 0Z"/>
<path id="path1_fill" d="M 255.868 128C 255.868 198.692 198.59 256 127.934 256C 57.278 256 0 198.692 0 128C 0 57.3076 57.278 0 127.934 0C 198.59 0 255.868 57.3076 255.868 128Z"/>
<path id="path2_fill" d="M 141.429 70.7511C 141.429 109.826 109.769 141.502 70.7145 141.502C 31.66 141.502 0 109.826 0 70.7511C 0 31.6763 31.66 0 70.7145 0C 109.769 0 141.429 31.6763 141.429 70.7511Z"/>
<path id="path3_fill" d="M 0 0L 127.934 0L 127.934 118.4L 0 118.4L 0 0Z"/>
<path id="path4_fill" d="M 253.736 123.733L 126.868 0L 0 123.733L 253.736 123.733Z"/>
</defs>
</svg>
