<svg width="4310" height="1080" viewBox="0 0 4310 1080" version="1.1" xmlns="http://www.w3.org/2000/svg" xmlns:xlink="http://www.w3.org/1999/xlink">
<title>size-classes</title>
<desc>Created using Figma</desc>
<g id="Canvas" transform="translate(8174 6031)">
<clipPath id="clip-0" clip-rule="evenodd">
<path d="M -8174 -6031L -3864 -6031L -3864 -4951L -8174 -4951L -8174 -6031Z" fill="#FFFFFF"/>
</clipPath>
<g id="size-classes" clip-path="url(#clip-0)">
<path d="M -8174 -6031L -3864 -6031L -3864 -4951L -8174 -4951L -8174 -6031Z" fill="#243A5E"/>
<g id="Group">
<g id="Rectangle 15">
<use xlink:href="#path0_fill" transform="translate(-7894 -5186)" fill="#1B2D4A"/>
</g>
<g id="Rectangle 8.2">
<use xlink:href="#path1_fill" transform="translate(-7292.36 -5181.71)" fill="#CAD6ED"/>
</g>
<g id="Rectangle 7.8">
<use xlink:href="#path2_fill" transform="translate(-7435.4 -5149.57)" fill="#EAEAEA"/>
</g>
<g id="Rectangle 5.40" filter="url(#filter0_d)">
<use xlink:href="#path3_fill" transform="translate(-7635.65 -5721)" fill="#F8F8F8"/>
</g>
<g id="Rectangle 5.41" filter="url(#filter1_i)">
<use xlink:href="#path4_fill" transform="translate(-7614.2 -5703.14)" fill="#50E6FF"/>
<use xlink:href="#path4_fill" transform="translate(-7614.2 -5703.14)" fill="url(#paint5_linear)"/>
</g>
<g id="Rectangle 5.34" filter="url(#filter2_d)">
<use xlink:href="#path5_fill" transform="translate(-7695 -5378)" fill="#FFFFFF"/>
</g>
<g id="Rectangle 5.35">
<use xlink:href="#path6_fill" transform="translate(-7682.28 -5363.71)" fill="#50E6FF"/>
<use xlink:href="#path6_fill" transform="translate(-7682.28 -5363.71)" fill="url(#paint8_linear)"/>
</g>
<g id="Rectangle 5.32">
<use xlink:href="#path7_fill" transform="translate(-7828 -5321)" fill="#FFFFFF"/>
<mask id="mask0_outline_ins">
<use xlink:href="#path7_fill" fill="white" transform="translate(-7828 -5321)"/>
</mask>
<g mask="url(#mask0_outline_ins)">
<use xlink:href="#path8_stroke_2x" transform="translate(-7828 -5321)" fill="#334E7A"/>
</g>
</g>
<g id="Rectangle 5.33">
<use xlink:href="#path9_fill" transform="translate(-7813.7 -5306.72)" fill="#50E6FF"/>
<use xlink:href="#path9_fill" transform="translate(-7813.7 -5306.72)" fill="#50E6FF"/>
<use xlink:href="#path9_fill" transform="translate(-7813.7 -5306.72)" fill="url(#paint13_linear)" fill-opacity="0.5"/>
</g>
<g id="Vector">
<use xlink:href="#path10_fill" transform="translate(-6680 -5182)" fill="#1B2D4A"/>
</g>
<g id="Rectangle 7.9">
<use xlink:href="#path11_fill" transform="translate(-6991.98 -5149.57)" fill="#545454"/>
</g>
<g id="Rectangle 9.2" filter="url(#filter3_dd)">
<use xlink:href="#path12_fill" transform="translate(-7006.29 -5235.29)" fill="#FFFFFF"/>
</g>
<g id="Rectangle 13">
<use xlink:href="#path13_fill" transform="translate(-7007 -5196)" fill="#243A5E"/>
</g>
<g id="Rectangle 14">
<use xlink:href="#path14_fill" transform="translate(-6839 -5235)" fill="#F4F4F4"/>
</g>
<g id="Rectangle 16">
<use xlink:href="#path15_fill" transform="translate(-7553 -5378.5)" fill="#C8C8C8"/>
</g>
<g id="Rectangle 16.1">
<use xlink:href="#path16_fill" transform="translate(-7715 -5321)" fill="#C8C8C8"/>
</g>
<g id="Rectangle 12.6">
<use xlink:href="#path17_fill" transform="translate(-7996 -5186.57)" fill="#E0E0E0"/>
<mask id="mask1_outline_ins">
<use xlink:href="#path17_fill" fill="white" transform="translate(-7996 -5186.57)"/>
</mask>
<g mask="url(#mask1_outline_ins)">
<use xlink:href="#path18_stroke_2x" transform="translate(-7996 -5186.57)" fill="#243A5E"/>
</g>
</g>
<g id="Rectangle 12.7">
<use xlink:href="#path17_fill" transform="translate(-7885.15 -5186.57)" fill="#E0E0E0"/>
<mask id="mask2_outline_ins">
<use xlink:href="#path17_fill" fill="white" transform="translate(-7885.15 -5186.57)"/>
</mask>
<g mask="url(#mask2_outline_ins)">
<use xlink:href="#path18_stroke_2x" transform="translate(-7885.15 -5186.57)" fill="#243A5E"/>
</g>
</g>
<g id="Rectangle 10.3" filter="url(#filter4_d)">
<use xlink:href="#path19_fill" transform="translate(-7967.39 -5208)" fill="#FFFFFF"/>
</g>
<g id="Rectangle 11.2">
<use xlink:href="#path20_fill" transform="translate(-7953.09 -5193.71)" fill="#50E6FF"/>
<use xlink:href="#path20_fill" transform="translate(-7953.09 -5193.71)" fill="#50E6FF"/>
<use xlink:href="#path20_fill" transform="translate(-7953.09 -5193.71)" fill="url(#paint28_linear)"/>
</g>
</g>
<g id="Group 2">
<g id="Vector">
<use xlink:href="#path21_fill" transform="translate(-5672 -5292)" fill="url(#paint29_linear)"/>
</g>
<g id="Vector">
<use xlink:href="#path21_fill" transform="translate(-6061 -5267)" fill="#1A2A45"/>
</g>
<g id="Rectangle 5.50">
<use xlink:href="#path22_fill" transform="matrix(5.938e-17 -1 1 6.31424e-17 -6134 -5144)" fill="#FFFFFF"/>
<mask id="mask3_outline_ins">
<use xlink:href="#path22_fill" fill="white" transform="matrix(5.938e-17 -1 1 6.31424e-17 -6134 -5144)"/>
</mask>
<g mask="url(#mask3_outline_ins)">
<use xlink:href="#path23_stroke_2x" transform="matrix(5.938e-17 -1 1 6.31424e-17 -6134 -5144)" fill="#F8F8F8"/>
</g>
</g>
<g id="Rectangle 5.51">
<use xlink:href="#path24_fill" transform="matrix(5.69869e-17 -1 1 6.57941e-17 -6119.75 -5159.27)" fill="#50E6FF"/>
<use xlink:href="#path24_fill" transform="matrix(5.69869e-17 -1 1 6.57941e-17 -6119.75 -5159.27)" fill="#50E6FF"/>
<use xlink:href="#path24_fill" transform="matrix(5.69869e-17 -1 1 6.57941e-17 -6119.75 -5159.27)" fill="url(#paint35_linear)"/>
</g>
<g id="Group" filter="url(#filter5_dd)">
<g id="Rectangle 5.48">
<use xlink:href="#path25_fill" transform="translate(-6434 -5399)" fill="#FFFFFF"/>
<mask id="mask4_outline_ins">
<use xlink:href="#path25_fill" fill="white" transform="translate(-6434 -5399)"/>
</mask>
<g mask="url(#mask4_outline_ins)">
<use xlink:href="#path26_stroke_2x" transform="translate(-6434 -5399)" fill="#F8F8F8"/>
</g>
</g>
<g id="Rectangle 5.49">
<use xlink:href="#path27_fill" transform="translate(-6419.79 -5384.75)" fill="#50E6FF"/>
<use xlink:href="#path27_fill" transform="translate(-6419.79 -5384.75)" fill="#50E6FF"/>
<use xlink:href="#path27_fill" transform="translate(-6419.79 -5384.75)" fill="url(#paint40_linear)"/>
</g>
<g id="Rectangle 16.2">
<use xlink:href="#path28_fill" transform="translate(-6065 -5400)" fill="#C8C8C8"/>
</g>
</g>
<g id="Rectangle 16.4">
<use xlink:href="#path29_fill" transform="translate(-5849 -5541)" fill="#C8C8C8"/>
</g>
<g id="Rectangle 5.46" filter="url(#filter6_d)">
<use xlink:href="#path30_fill" transform="translate(-5873 -5476)" fill="#FFFFFF"/>
<mask id="mask5_outline_ins">
<use xlink:href="#path30_fill" fill="white" transform="translate(-5873 -5476)"/>
</mask>
<g mask="url(#mask5_outline_ins)">
<use xlink:href="#path31_stroke_2x" transform="translate(-5873 -5476)" fill="#F8F8F8"/>
</g>
</g>
<g id="Rectangle 5.47">
<use xlink:href="#path32_fill" transform="translate(-5858.53 -5461.75)" fill="#50E6FF"/>
<use xlink:href="#path32_fill" transform="translate(-5858.53 -5461.75)" fill="#50E6FF"/>
<use xlink:href="#path32_fill" transform="translate(-5858.53 -5461.75)" fill="url(#paint47_linear)"/>
</g>
<g id="Rectangle 16.3">
<use xlink:href="#path29_fill" transform="translate(-5674 -5476)" fill="#C8C8C8"/>
</g>
</g>
<g id="Group">
<g id="Rectangle 5.42">
<use xlink:href="#path33_fill" transform="translate(-5136.32 -5744)" fill="#FFFFFF"/>
</g>
<g id="Rectangle 5.43" filter="url(#filter7_i)">
<use xlink:href="#path34_fill" transform="translate(-5107.79 -5715.47)" fill="#50E6FF"/>
<use xlink:href="#path34_fill" transform="translate(-5107.79 -5715.47)" fill="#50E6FF"/>
<use xlink:href="#path34_fill" transform="translate(-5107.79 -5715.47)" fill="url(#paint52_linear)"/>
</g>
<g id="Rectangle 6.3" filter="url(#filter8_d)">
<use xlink:href="#path35_fill" transform="translate(-5201.05 -5223.29)" fill="#F4F4F4"/>
<use xlink:href="#path35_fill" transform="translate(-5201.05 -5223.29)" fill="url(#paint54_linear)" fill-opacity="0.6"/>
</g>
<g id="Rectangle 7.10">
<use xlink:href="#path36_fill" transform="translate(-5315.16 -5151.96)" fill="#EAEAEA"/>
</g>
<g id="Rectangle 5.46" filter="url(#filter9_d)">
<use xlink:href="#path37_fill" transform="translate(-5415 -5590.63)" fill="#FFFFFF"/>
</g>
<g id="Rectangle 5.47" filter="url(#filter10_i)">
<use xlink:href="#path38_fill" transform="translate(-5397.17 -5572.8)" fill="#50E6FF"/>
<use xlink:href="#path38_fill" transform="translate(-5397.17 -5572.8)" fill="url(#paint58_linear)"/>
</g>
<g id="Vector">
<use xlink:href="#path39_fill" transform="translate(-4109 -5427)" fill="url(#paint59_linear)"/>
</g>
<g id="Rectangle 16.5">
<use xlink:href="#path40_fill" transform="translate(-4110 -5744)" fill="#C8C8C8"/>
</g>
<g id="Rectangle 16.6">
<use xlink:href="#path41_fill" transform="translate(-4845 -5592)" fill="#C8C8C8"/>
</g>
</g>
<g id="Small">
<use xlink:href="#path42_fill" transform="translate(-7396 -5903)" fill="#FFFFFF"/>
</g>
<g id="Medium">
<use xlink:href="#path43_fill" transform="translate(-6179 -5903)" fill="#FFFFFF"/>
</g>
<g id="Large">
<use xlink:href="#path44_fill" transform="translate(-4848 -5903)" fill="#FFFFFF"/>
</g>
</g>
</g>
<defs>
<filter id="filter0_d" filterUnits="userSpaceOnUse" x="-7651" y="-5730" width="832" height="573" color-interpolation-filters="sRGB">
<feFlood flood-opacity="0" result="BackgroundImageFix"/>
<feColorMatrix in="SourceAlpha" type="matrix" values="0 0 0 0 0 0 0 0 0 0 0 0 0 0 0 0 0 0 255 0"/>
<feOffset dx="0" dy="6"/>
<feGaussianBlur stdDeviation="7.5"/>
<feColorMatrix type="matrix" values="0 0 0 0 0 0 0 0 0 0 0 0 0 0 0 0 0 0 0.25 0"/>
<feBlend mode="normal" in2="BackgroundImageFix" result="effect1_dropShadow"/>
<feBlend mode="normal" in="SourceGraphic" in2="effect1_dropShadow" result="shape"/>
</filter>
<filter id="filter1_i" filterUnits="userSpaceOnUse" x="-7615" y="-5704" width="759" height="509" color-interpolation-filters="sRGB">
<feFlood flood-opacity="0" result="BackgroundImageFix"/>
<feBlend mode="normal" in="SourceGraphic" in2="BackgroundImageFix" result="shape"/>
<feColorMatrix in="SourceAlpha" type="matrix" values="0 0 0 0 0 0 0 0 0 0 0 0 0 0 0 0 0 0 255 0" result="hardAlpha"/>
<feOffset dx="0" dy="4"/>
<feGaussianBlur stdDeviation="2"/>
<feComposite in2="hardAlpha" operator="arithmetic" k2="-1" k3="1"/>
<feColorMatrix type="matrix" values="0 0 0 0 0 0 0 0 0 0 0 0 0 0 0 0 0 0 0.25 0"/>
<feBlend mode="normal" in2="shape" result="effect1_innerShadow"/>
</filter>
<filter id="filter2_d" filterUnits="userSpaceOnUse" x="-7701" y="-5384" width="164" height="278" color-interpolation-filters="sRGB">
<feFlood flood-opacity="0" result="BackgroundImageFix"/>
<feColorMatrix in="SourceAlpha" type="matrix" values="0 0 0 0 0 0 0 0 0 0 0 0 0 0 0 0 0 0 255 0"/>
<feOffset dx="4" dy="4"/>
<feGaussianBlur stdDeviation="5"/>
<feColorMatrix type="matrix" values="0 0 0 0 0 0 0 0 0 0 0 0 0 0 0 0 0 0 0.25 0"/>
<feBlend mode="normal" in2="BackgroundImageFix" result="effect1_dropShadow"/>
<feBlend mode="normal" in="SourceGraphic" in2="effect1_dropShadow" result="shape"/>
</filter>
<filter id="filter3_dd" filterUnits="userSpaceOnUse" x="-7022" y="-5246" width="369" height="114" color-interpolation-filters="sRGB">
<feFlood flood-opacity="0" result="BackgroundImageFix"/>
<feColorMatrix in="SourceAlpha" type="matrix" values="0 0 0 0 0 0 0 0 0 0 0 0 0 0 0 0 0 0 255 0"/>
<feOffset dx="-5" dy="0"/>
<feGaussianBlur stdDeviation="5"/>
<feColorMatrix type="matrix" values="0 0 0 0 0 0 0 0 0 0 0 0 0 0 0 0 0 0 0.1 0"/>
<feBlend mode="normal" in2="BackgroundImageFix" result="effect1_dropShadow"/>
<feColorMatrix in="SourceAlpha" type="matrix" values="0 0 0 0 0 0 0 0 0 0 0 0 0 0 0 0 0 0 255 0"/>
<feOffset dx="0" dy="4"/>
<feGaussianBlur stdDeviation="5"/>
<feColorMatrix type="matrix" values="0 0 0 0 0 0 0 0 0 0 0 0 0 0 0 0 0 0 0.25 0"/>
<feBlend mode="normal" in2="effect1_dropShadow" result="effect2_dropShadow"/>
<feBlend mode="normal" in="SourceGraphic" in2="effect2_dropShadow" result="shape"/>
</filter>
<filter id="filter4_d" filterUnits="userSpaceOnUse" x="-7988" y="-5224" width="127" height="126" color-interpolation-filters="sRGB">
<feFlood flood-opacity="0" result="BackgroundImageFix"/>
<feColorMatrix in="SourceAlpha" type="matrix" values="0 0 0 0 0 0 0 0 0 0 0 0 0 0 0 0 0 0 255 0"/>
<feOffset dx="0" dy="4"/>
<feGaussianBlur stdDeviation="10"/>
<feColorMatrix type="matrix" values="0 0 0 0 0 0 0 0 0 0 0 0 0 0 0 0 0 0 0.25 0"/>
<feBlend mode="normal" in2="BackgroundImageFix" result="effect1_dropShadow"/>
<feBlend mode="normal" in="SourceGraphic" in2="effect1_dropShadow" result="shape"/>
</filter>
<filter id="filter5_dd" filterUnits="userSpaceOnUse" x="-6439" y="-5406" width="408" height="307" color-interpolation-filters="sRGB">
<feFlood flood-opacity="0" result="BackgroundImageFix"/>
<feColorMatrix in="SourceAlpha" type="matrix" values="0 0 0 0 0 0 0 0 0 0 0 0 0 0 0 0 0 0 255 0"/>
<feOffset dx="20" dy="4"/>
<feGaussianBlur stdDeviation="5"/>
<feColorMatrix type="matrix" values="0 0 0 0 0.141176 0 0 0 0 0.227451 0 0 0 0 0.368627 0 0 0 0.2 0"/>
<feBlend mode="normal" in2="BackgroundImageFix" result="effect1_dropShadow"/>
<feColorMatrix in="SourceAlpha" type="matrix" values="0 0 0 0 0 0 0 0 0 0 0 0 0 0 0 0 0 0 255 0"/>
<feOffset dx="5" dy="4"/>
<feGaussianBlur stdDeviation="5"/>
<feColorMatrix type="matrix" values="0 0 0 0 0 0 0 0 0 0 0 0 0 0 0 0 0 0 0.25 0"/>
<feBlend mode="normal" in2="effect1_dropShadow" result="effect2_dropShadow"/>
<feBlend mode="normal" in="SourceGraphic" in2="effect2_dropShadow" result="shape"/>
</filter>
<filter id="filter6_d" filterUnits="userSpaceOnUse" x="-5886" y="-5482" width="219" height="362" color-interpolation-filters="sRGB">
<feFlood flood-opacity="0" result="BackgroundImageFix"/>
<feColorMatrix in="SourceAlpha" type="matrix" values="0 0 0 0 0 0 0 0 0 0 0 0 0 0 0 0 0 0 255 0"/>
<feOffset dx="-3" dy="4"/>
<feGaussianBlur stdDeviation="5"/>
<feColorMatrix type="matrix" values="0 0 0 0 0 0 0 0 0 0 0 0 0 0 0 0 0 0 0.15 0"/>
<feBlend mode="normal" in2="BackgroundImageFix" result="effect1_dropShadow"/>
<feBlend mode="normal" in="SourceGraphic" in2="effect1_dropShadow" result="shape"/>
</filter>
<filter id="filter7_i" filterUnits="userSpaceOnUse" x="-5108" y="-5716" width="971" height="547" color-interpolation-filters="sRGB">
<feFlood flood-opacity="0" result="BackgroundImageFix"/>
<feBlend mode="normal" in="SourceGraphic" in2="BackgroundImageFix" result="shape"/>
<feColorMatrix in="SourceAlpha" type="matrix" values="0 0 0 0 0 0 0 0 0 0 0 0 0 0 0 0 0 0 255 0" result="hardAlpha"/>
<feOffset dx="0" dy="4"/>
<feGaussianBlur stdDeviation="5"/>
<feComposite in2="hardAlpha" operator="arithmetic" k2="-1" k3="1"/>
<feColorMatrix type="matrix" values="0 0 0 0 0 0 0 0 0 0 0 0 0 0 0 0 0 0 0.25 0"/>
<feBlend mode="normal" in2="shape" result="effect1_innerShadow"/>
</filter>
<filter id="filter8_d" filterUnits="userSpaceOnUse" x="-5217" y="-5235" width="178" height="106" color-interpolation-filters="sRGB">
<feFlood flood-opacity="0" result="BackgroundImageFix"/>
<feColorMatrix in="SourceAlpha" type="matrix" values="0 0 0 0 0 0 0 0 0 0 0 0 0 0 0 0 0 0 255 0"/>
<feOffset dx="0" dy="4"/>
<feGaussianBlur stdDeviation="7.5"/>
<feColorMatrix type="matrix" values="0 0 0 0 0 0 0 0 0 0 0 0 0 0 0 0 0 0 0.4 0"/>
<feBlend mode="normal" in2="BackgroundImageFix" result="effect1_dropShadow"/>
<feBlend mode="normal" in="SourceGraphic" in2="effect1_dropShadow" result="shape"/>
</filter>
<filter id="filter9_d" filterUnits="userSpaceOnUse" x="-5436" y="-5612" width="621" height="422" color-interpolation-filters="sRGB">
<feFlood flood-opacity="0" result="BackgroundImageFix"/>
<feColorMatrix in="SourceAlpha" type="matrix" values="0 0 0 0 0 0 0 0 0 0 0 0 0 0 0 0 0 0 255 0"/>
<feOffset dx="4" dy="4"/>
<feGaussianBlur stdDeviation="12.5"/>
<feColorMatrix type="matrix" values="0 0 0 0 0 0 0 0 0 0 0 0 0 0 0 0 0 0 0.25 0"/>
<feBlend mode="normal" in2="BackgroundImageFix" result="effect1_dropShadow"/>
<feBlend mode="normal" in="SourceGraphic" in2="effect1_dropShadow" result="shape"/>
</filter>
<filter id="filter10_i" filterUnits="userSpaceOnUse" x="-5398" y="-5573" width="536" height="340" color-interpolation-filters="sRGB">
<feFlood flood-opacity="0" result="BackgroundImageFix"/>
<feBlend mode="normal" in="SourceGraphic" in2="BackgroundImageFix" result="shape"/>
<feColorMatrix in="SourceAlpha" type="matrix" values="0 0 0 0 0 0 0 0 0 0 0 0 0 0 0 0 0 0 255 0" result="hardAlpha"/>
<feOffset dx="0" dy="4"/>
<feGaussianBlur stdDeviation="5"/>
<feComposite in2="hardAlpha" operator="arithmetic" k2="-1" k3="1"/>
<feColorMatrix type="matrix" values="0 0 0 0 0 0 0 0 0 0 0 0 0 0 0 0 0 0 0.25 0"/>
<feBlend mode="normal" in2="shape" result="effect1_innerShadow"/>
</filter>
<linearGradient id="paint5_linear" x1="0" y1="0" x2="1" y2="0" gradientUnits="userSpaceOnUse" gradientTransform="matrix(733 503 -757.237 1103.49 378.814 -551.6)">
<stop offset="0" stop-color="#9CF1FF"/>
<stop offset="0.328109" stop-color="#75EBFF" stop-opacity="0.729282"/>
<stop offset="0.599733" stop-color="#F0FDFF" stop-opacity="0.453039"/>
<stop offset="1" stop-color="#00DBFF" stop-opacity="0"/>
</linearGradient>
<linearGradient id="paint8_linear" x1="0" y1="0" x2="1" y2="0" gradientUnits="userSpaceOnUse" gradientTransform="matrix(59 287 -277.991 521.524 139.28 -319.047)">
<stop offset="0" stop-color="#9CF1FF"/>
<stop offset="0.328109" stop-color="#75EBFF" stop-opacity="0.729282"/>
<stop offset="0.599733" stop-color="#F0FDFF" stop-opacity="0.453039"/>
<stop offset="1" stop-color="#00DBFF" stop-opacity="0"/>
</linearGradient>
<linearGradient id="paint13_linear" x1="0" y1="0" x2="1" y2="0" gradientUnits="userSpaceOnUse" gradientTransform="matrix(17.5661 158.82 -171.916 270.77 111.653 -122.669)">
<stop offset="0" stop-color="#9CF1FF"/>
<stop offset="0.328109" stop-color="#75EBFF" stop-opacity="0.729282"/>
<stop offset="0.599733" stop-color="#F0FDFF" stop-opacity="0.453039"/>
<stop offset="1" stop-color="#00DBFF" stop-opacity="0"/>
</linearGradient>
<linearGradient id="paint28_linear" x1="0" y1="0" x2="1" y2="0" gradientUnits="userSpaceOnUse" gradientTransform="matrix(11.7521 57.4648 -118.611 79.1249 76.3943 -39.8486)">
<stop offset="0" stop-color="#9CF1FF"/>
<stop offset="0.328109" stop-color="#75EBFF" stop-opacity="0.729282"/>
<stop offset="0.718232" stop-color="#F0FDFF" stop-opacity="0.453039"/>
<stop offset="1" stop-color="#00DBFF" stop-opacity="0"/>
</linearGradient>
<linearGradient id="paint29_linear" x1="0" y1="0" x2="1" y2="0" gradientUnits="userSpaceOnUse" gradientTransform="matrix(156 -168 127.595 118.481 -99.7975 76.7595)">
<stop offset="0" stop-color="#1B2D4A"/>
<stop offset="1" stop-color="#1B2D4A" stop-opacity="0"/>
</linearGradient>
<linearGradient id="paint35_linear" x1="0" y1="0" x2="1" y2="0" gradientUnits="userSpaceOnUse" gradientTransform="matrix(264 -284 454.899 383.246 -8.71825 220.129)">
<stop offset="0" stop-color="#9CF1FF"/>
<stop offset="0.328109" stop-color="#75EBFF" stop-opacity="0.729282"/>
<stop offset="0.599733" stop-color="#F0FDFF" stop-opacity="0.453039"/>
<stop offset="1" stop-color="#00DBFF" stop-opacity="0"/>
</linearGradient>
<linearGradient id="paint40_linear" x1="0" y1="0" x2="1" y2="0" gradientUnits="userSpaceOnUse" gradientTransform="matrix(329.762 256.209 -340.666 562.074 170.421 -280.964)">
<stop offset="0" stop-color="#9CF1FF"/>
<stop offset="0.328109" stop-color="#75EBFF" stop-opacity="0.729282"/>
<stop offset="0.599733" stop-color="#F0FDFF" stop-opacity="0.453039"/>
<stop offset="1" stop-color="#00DBFF" stop-opacity="0"/>
</linearGradient>
<linearGradient id="paint47_linear" x1="0" y1="0" x2="1" y2="0" gradientUnits="userSpaceOnUse" gradientTransform="matrix(49.8931 415.485 -477.079 688.116 353.072 -446.309)">
<stop offset="0" stop-color="#9CF1FF"/>
<stop offset="0.328109" stop-color="#75EBFF" stop-opacity="0.729282"/>
<stop offset="0.599733" stop-color="#F0FDFF" stop-opacity="0.453039"/>
<stop offset="1" stop-color="#00DBFF" stop-opacity="0"/>
</linearGradient>
<linearGradient id="paint52_linear" x1="0" y1="0" x2="1" y2="0" gradientUnits="userSpaceOnUse" gradientTransform="matrix(937.802 541.483 -968.811 1187.91 484.655 -593.801)">
<stop offset="0" stop-color="#9CF1FF"/>
<stop offset="0.328109" stop-color="#75EBFF" stop-opacity="0.729282"/>
<stop offset="0.599733" stop-color="#F0FDFF" stop-opacity="0.453039"/>
<stop offset="1" stop-color="#00DBFF" stop-opacity="0"/>
</linearGradient>
<linearGradient id="paint54_linear" x1="0" y1="0" x2="1" y2="0" gradientUnits="userSpaceOnUse" gradientTransform="matrix(-0.0510769 -90 175.686 -0.0997054 -14.7429 65.3389)">
<stop offset="0" stop-color="#F4F4F4"/>
<stop offset="1" stop-color="#C8C8C8"/>
</linearGradient>
<linearGradient id="paint58_linear" x1="0" y1="0" x2="1" y2="0" gradientUnits="userSpaceOnUse" gradientTransform="matrix(517.17 334.864 -534.271 734.63 267.273 -367.219)">
<stop offset="0" stop-color="#9CF1FF"/>
<stop offset="0.328109" stop-color="#75EBFF" stop-opacity="0.729282"/>
<stop offset="0.599733" stop-color="#F0FDFF" stop-opacity="0.453039"/>
<stop offset="1" stop-color="#00DBFF" stop-opacity="0"/>
</linearGradient>
<linearGradient id="paint59_linear" x1="0" y1="0" x2="1" y2="0" gradientUnits="userSpaceOnUse" gradientTransform="matrix(145 -331 251.392 110.127 -161.696 207.937)">
<stop offset="0" stop-color="#1B2D4A"/>
<stop offset="1" stop-color="#1B2D4A" stop-opacity="0"/>
</linearGradient>
<path id="path0_fill" d="M 0 0L 1059 0L 1059 65L 0 65L 0 0Z"/>
<path id="path1_fill" d="M 0 0L 114.43 0L 114.43 35.7142L 0 35.7142L 0 0Z"/>
<path id="path2_fill" d="M 0 0L 400.504 0L 400.504 28.5714L 0 28.5714L 0 0Z"/>
<path id="path3_fill" d="M 0 0L 801.008 0L 801.008 542.857L 0 542.857L 0 0Z"/>
<path id="path4_fill" d="M 0 0L 758.096 0L 758.096 503.571L 0 503.571L 0 0Z"/>
<path id="path5_fill" d="M 0 0L 143.037 0L 143.037 257.143L 0 257.143L 0 0Z"/>
<path id="path6_fill" d="M 0 0L 117.608 0L 117.608 228.571L 0 228.571L 0 0Z"/>
<path id="path7_fill" d="M 0 0L 114.43 0L 114.43 200L 0 200L 0 0Z"/>
<path id="path8_stroke_2x" d="M 0 0L 0 -1L -1 -1L -1 0L 0 0ZM 114.43 0L 115.43 0L 115.43 -1L 114.43 -1L 114.43 0ZM 114.43 200L 114.43 201L 115.43 201L 115.43 200L 114.43 200ZM 0 200L -1 200L -1 201L 0 201L 0 200ZM 0 1L 114.43 1L 114.43 -1L 0 -1L 0 1ZM 113.43 0L 113.43 200L 115.43 200L 115.43 0L 113.43 0ZM 114.43 199L 0 199L 0 201L 114.43 201L 114.43 199ZM 1 200L 1 0L -1 0L -1 200L 1 200Z"/>
<path id="path9_fill" d="M 0 0L 85.8222 0L 85.8222 171.428L 0 171.428L 0 0Z"/>
<path id="path10_fill" d="M 67.9475 1.75926L 1.65079 58.585C 1.00212 59.141 0 58.6801 0 57.8258L 0 1C 0 0.447715 0.447715 0 1 0L 67.2967 0C 68.2252 0 68.6524 1.15506 67.9475 1.75926Z"/>
<path id="path11_fill" d="M 0 0L 314.682 0L 314.682 28.57L 0 28.57L 0 0Z"/>
<path id="path12_fill" d="M 0 0L 343.289 0L 343.289 89.2856L 0 89.2856L 0 0Z"/>
<path id="path13_fill" d="M 0 0L 168 0L 168 10L 0 10L 0 0Z"/>
<path id="path14_fill" d="M 0 0L 176 0L 176 89L 0 89L 0 0Z"/>
<path id="path15_fill" d="M 0 0L 3 4.5L 3 257.5L 0 257.5L 0 0Z"/>
<path id="path16_fill" d="M 0 0L 3 4.5L 3 199.5L 0 199.5L 0 0Z"/>
<path id="path17_fill" d="M 0 0L 32.1833 0L 32.1833 49.9999L 0 49.9999L 0 0Z"/>
<path id="path18_stroke_2x" d="M 0 0L 0 -1L -1 -1L -1 0L 0 0ZM 32.1833 0L 33.1833 0L 33.1833 -1L 32.1833 -1L 32.1833 0ZM 32.1833 49.9999L 32.1833 50.9999L 33.1833 50.9999L 33.1833 49.9999L 32.1833 49.9999ZM 0 49.9999L -1 49.9999L -1 50.9999L 0 50.9999L 0 49.9999ZM 0 1L 32.1833 1L 32.1833 -1L 0 -1L 0 1ZM 31.1833 0L 31.1833 49.9999L 33.1833 49.9999L 33.1833 0L 31.1833 0ZM 32.1833 48.9999L 0 48.9999L 0 50.9999L 32.1833 50.9999L 32.1833 48.9999ZM 1 49.9999L 1 0L -1 0L -1 49.9999L 1 49.9999Z"/>
<path id="path19_fill" d="M 0 0L 85.8222 0L 85.8222 85.7142L 0 85.7142L 0 0Z"/>
<path id="path20_fill" d="M 0 0L 57.2148 0L 57.2148 57.1428L 0 57.1428L 0 0Z"/>
<path id="path21_fill" d="M 118.781 1.60483L 1.79636 155.635C 1.21696 156.398 0 155.988 0 155.03L 0 1C 0 0.447715 0.447715 0 1 0L 117.985 0C 118.812 0 119.281 0.946375 118.781 1.60483Z"/>
<path id="path22_fill" d="M 0 0L 397 0L 397 285L 0 285L 0 0Z"/>
<path id="path23_stroke_2x" d="M 0 0L 0 -1L -1 -1L -1 0L 0 0ZM 397 0L 398 0L 398 -1L 397 -1L 397 0ZM 397 285L 397 286L 398 286L 398 285L 397 285ZM 0 285L -1 285L -1 286L 0 286L 0 285ZM 0 1L 397 1L 397 -1L 0 -1L 0 1ZM 396 0L 396 285L 398 285L 398 0L 396 0ZM 397 284L 0 284L 0 286L 397 286L 397 284ZM 1 285L 1 0L -1 0L -1 285L 1 285Z"/>
<path id="path24_fill" d="M 0 0L 366.462 0L 366.462 256.5L 0 256.5L 0 0Z"/>
<path id="path25_fill" d="M 0 0L 369.474 0L 369.474 284.999L 0 284.999L 0 0Z"/>
<path id="path26_stroke_2x" d="M 0 0L 0 -1L -1 -1L -1 0L 0 0ZM 369.474 0L 370.474 0L 370.474 -1L 369.474 -1L 369.474 0ZM 369.474 284.999L 369.474 285.999L 370.474 285.999L 370.474 284.999L 369.474 284.999ZM 0 284.999L -1 284.999L -1 285.999L 0 285.999L 0 284.999ZM 0 1L 369.474 1L 369.474 -1L 0 -1L 0 1ZM 368.474 0L 368.474 284.999L 370.474 284.999L 370.474 0L 368.474 0ZM 369.474 283.999L 0 283.999L 0 285.999L 369.474 285.999L 369.474 283.999ZM 1 284.999L 1 0L -1 0L -1 284.999L 1 284.999Z"/>
<path id="path27_fill" d="M 0 0L 341.053 0L 341.053 256.499L 0 256.499L 0 0Z"/>
<path id="path28_fill" d="M 0 0L 4 4.99806L 4 286L 0 286L 0 0Z"/>
<path id="path29_fill" d="M 0 0L 4 4.99806L 4 342L 0 342L 0 0Z"/>
<path id="path30_fill" d="M 0 0L 198.947 0L 198.947 341.999L 0 341.999L 0 0Z"/>
<path id="path31_stroke_2x" d="M 0 0L 0 -1L -1 -1L -1 0L 0 0ZM 198.947 0L 199.947 0L 199.947 -1L 198.947 -1L 198.947 0ZM 198.947 341.999L 198.947 342.999L 199.947 342.999L 199.947 341.999L 198.947 341.999ZM 0 341.999L -1 341.999L -1 342.999L 0 342.999L 0 341.999ZM 0 1L 198.947 1L 198.947 -1L 0 -1L 0 1ZM 197.947 0L 197.947 341.999L 199.947 341.999L 199.947 0L 197.947 0ZM 198.947 340.999L 0 340.999L 0 342.999L 198.947 342.999L 198.947 340.999ZM 1 341.999L 1 0L -1 0L -1 341.999L 1 341.999Z"/>
<path id="path32_fill" d="M 0 0L 170.01 0L 170.01 313.499L 0 313.499L 0 0Z"/>
<path id="path33_fill" d="M 0 0L 1026.96 0L 1026.96 599.16L 0 599.16L 0 0Z"/>
<path id="path34_fill" d="M 0 0L 969.911 0L 969.911 542.097L 0 542.097L 0 0Z"/>
<path id="path35_fill" d="M 12.1833 0L 134.016 0L 146.2 74.895L 0 74.895L 12.1833 0Z"/>
<path id="path36_fill" d="M 0 0L 374.414 0L 374.414 17.8322L 0 17.8322L 0 0Z"/>
<path id="path37_fill" d="M 0 0L 570.536 0L 570.536 370.909L 0 370.909L 0 0Z"/>
<path id="path38_fill" d="M 0 0L 534.877 0L 534.877 335.244L 0 335.244L 0 0Z"/>
<path id="path39_fill" d="M 156.183 1.48251L 1.87589 281.595C 1.37708 282.5 0 282.146 0 281.112L 0 1C 0 0.447715 0.447715 0 1 0L 155.307 0C 156.068 0 156.55 0.816043 156.183 1.48251Z"/>
<path id="path40_fill" d="M 0 0L 6 4.99806L 6 591L 0 600L 0 0Z"/>
<path id="path41_fill" d="M 0 0L 4 4.99806L 4 363L 0 372L 0 0Z"/>
<path id="path42_fill" d="M 3.0625 67.2812L 3.0625 57.2812C 4.875 58.8021 6.84375 59.9479 8.96875 60.7188C 11.0938 61.4688 13.2396 61.8438 15.4062 61.8438C 16.6771 61.8438 17.7812 61.7292 18.7188 61.5C 19.6771 61.2708 20.4688 60.9583 21.0938 60.5625C 21.7396 60.1458 22.2188 59.6667 22.5312 59.125C 22.8438 58.5625 23 57.9583 23 57.3125C 23 56.4375 22.75 55.6562 22.25 54.9688C 21.75 54.2812 21.0625 53.6458 20.1875 53.0625C 19.3333 52.4792 18.3125 51.9167 17.125 51.375C 15.9375 50.8333 14.6562 50.2812 13.2812 49.7188C 9.78125 48.2604 7.16667 46.4792 5.4375 44.375C 3.72917 42.2708 2.875 39.7292 2.875 36.75C 2.875 34.4167 3.34375 32.4167 4.28125 30.75C 5.21875 29.0625 6.48958 27.6771 8.09375 26.5938C 9.71875 25.5104 11.5938 24.7188 13.7188 24.2188C 15.8438 23.6979 18.0938 23.4375 20.4688 23.4375C 22.8021 23.4375 24.8646 23.5833 26.6562 23.875C 28.4688 24.1458 30.1354 24.5729 31.6562 25.1562L 31.6562 34.5C 30.9062 33.9792 30.0833 33.5208 29.1875 33.125C 28.3125 32.7292 27.4062 32.4062 26.4688 32.1562C 25.5312 31.8854 24.5938 31.6875 23.6562 31.5625C 22.7396 31.4375 21.8646 31.375 21.0312 31.375C 19.8854 31.375 18.8438 31.4896 17.9062 31.7188C 16.9688 31.9271 16.1771 32.2292 15.5312 32.625C 14.8854 33.0208 14.3854 33.5 14.0312 34.0625C 13.6771 34.6042 13.5 35.2188 13.5 35.9062C 13.5 36.6562 13.6979 37.3333 14.0938 37.9375C 14.4896 38.5208 15.0521 39.0833 15.7812 39.625C 16.5104 40.1458 17.3958 40.6667 18.4375 41.1875C 19.4792 41.6875 20.6562 42.2083 21.9688 42.75C 23.7604 43.5 25.3646 44.3021 26.7812 45.1562C 28.2188 45.9896 29.4479 46.9375 30.4688 48C 31.4896 49.0625 32.2708 50.2812 32.8125 51.6562C 33.3542 53.0104 33.625 54.5938 33.625 56.4062C 33.625 58.9062 33.1458 61.0104 32.1875 62.7188C 31.25 64.4062 29.9688 65.7812 28.3438 66.8438C 26.7188 67.8854 24.8229 68.6354 22.6562 69.0938C 20.5104 69.5521 18.2396 69.7812 15.8438 69.7812C 13.3854 69.7812 11.0417 69.5729 8.8125 69.1562C 6.60417 68.7396 4.6875 68.1146 3.0625 67.2812ZM 90.8438 69L 81 69L 81 50.75C 81 46.1042 79.2917 43.7812 75.875 43.7812C 74.25 43.7812 72.9271 44.4792 71.9062 45.875C 70.8854 47.2708 70.375 49.0104 70.375 51.0938L 70.375 69L 60.5 69L 60.5 50.5625C 60.5 46.0417 58.8229 43.7812 55.4688 43.7812C 53.7812 43.7812 52.4271 44.4479 51.4062 45.7812C 50.4062 47.1146 49.9062 48.9271 49.9062 51.2188L 49.9062 69L 40.0312 69L 40.0312 37L 49.9062 37L 49.9062 42L 50.0312 42C 51.0521 40.2917 52.4792 38.9062 54.3125 37.8438C 56.1667 36.7604 58.1875 36.2188 60.375 36.2188C 64.8958 36.2188 67.9896 38.2083 69.6562 42.1875C 72.0938 38.2083 75.6771 36.2188 80.4062 36.2188C 87.3646 36.2188 90.8438 40.5104 90.8438 49.0938L 90.8438 69ZM 125.281 69L 115.938 69L 115.938 64.4062L 115.812 64.4062C 113.667 67.9896 110.49 69.7812 106.281 69.7812C 103.177 69.7812 100.729 68.9062 98.9375 67.1562C 97.1667 65.3854 96.2812 63.0312 96.2812 60.0938C 96.2812 53.8854 99.9583 50.3021 107.312 49.3438L 116 48.1875C 116 44.6875 114.104 42.9375 110.312 42.9375C 106.5 42.9375 102.875 44.0729 99.4375 46.3438L 99.4375 38.9062C 100.812 38.1979 102.688 37.5729 105.062 37.0312C 107.458 36.4896 109.635 36.2188 111.594 36.2188C 120.719 36.2188 125.281 40.7708 125.281 49.875L 125.281 69ZM 116 56L 116 53.8438L 110.188 54.5938C 106.979 55.0104 105.375 56.4583 105.375 58.9375C 105.375 60.0625 105.76 60.9896 106.531 61.7188C 107.323 62.4271 108.385 62.7812 109.719 62.7812C 111.573 62.7812 113.083 62.1458 114.25 60.875C 115.417 59.5833 116 57.9583 116 56ZM 142.969 69L 133.094 69L 133.094 21.625L 142.969 21.625L 142.969 69ZM 161.156 69L 151.281 69L 151.281 21.625L 161.156 21.625L 161.156 69Z"/>
<path id="path43_fill" d="M 56.6562 69L 46.6875 69L 46.6875 42.1875C 46.6875 39.2917 46.8125 36.0938 47.0625 32.5938L 46.8125 32.5938C 46.2917 35.3438 45.8229 37.3229 45.4062 38.5312L 34.9062 69L 26.6562 69L 15.9688 38.8438C 15.6771 38.0312 15.2083 35.9479 14.5625 32.5938L 14.2812 32.5938C 14.5521 37.0104 14.6875 40.8854 14.6875 44.2188L 14.6875 69L 5.59375 69L 5.59375 24.1875L 20.375 24.1875L 29.5312 50.75C 30.2604 52.875 30.7917 55.0104 31.125 57.1562L 31.3125 57.1562C 31.875 54.6771 32.4688 52.5208 33.0938 50.6875L 42.25 24.1875L 56.6562 24.1875L 56.6562 69ZM 94.625 55.8125L 73.75 55.8125C 74.0833 60.4583 77.0104 62.7812 82.5312 62.7812C 86.0521 62.7812 89.1458 61.9479 91.8125 60.2812L 91.8125 67.4062C 88.8542 68.9896 85.0104 69.7812 80.2812 69.7812C 75.1146 69.7812 71.1042 68.3542 68.25 65.5C 65.3958 62.625 63.9688 58.625 63.9688 53.5C 63.9688 48.1875 65.5104 43.9792 68.5938 40.875C 71.6771 37.7708 75.4688 36.2188 79.9688 36.2188C 84.6354 36.2188 88.2396 37.6042 90.7812 40.375C 93.3438 43.1458 94.625 46.9062 94.625 51.6562L 94.625 55.8125ZM 85.4688 49.75C 85.4688 45.1667 83.6146 42.875 79.9062 42.875C 78.3229 42.875 76.9479 43.5312 75.7812 44.8438C 74.6354 46.1562 73.9375 47.7917 73.6875 49.75L 85.4688 49.75ZM 131.812 69L 121.938 69L 121.938 64.5938L 121.812 64.5938C 119.562 68.0521 116.26 69.7812 111.906 69.7812C 107.906 69.7812 104.688 68.375 102.25 65.5625C 99.8125 62.7292 98.5938 58.7812 98.5938 53.7188C 98.5938 48.4271 99.9375 44.1875 102.625 41C 105.312 37.8125 108.833 36.2188 113.188 36.2188C 117.312 36.2188 120.188 37.6979 121.812 40.6562L 121.938 40.6562L 121.938 21.625L 131.812 21.625L 131.812 69ZM 122.125 53.4375L 122.125 51.0312C 122.125 48.9479 121.521 47.2188 120.312 45.8438C 119.104 44.4688 117.531 43.7812 115.594 43.7812C 113.406 43.7812 111.698 44.6458 110.469 46.375C 109.24 48.0833 108.625 50.4375 108.625 53.4375C 108.625 56.25 109.219 58.4167 110.406 59.9375C 111.594 61.4583 113.24 62.2188 115.344 62.2188C 117.344 62.2188 118.969 61.4167 120.219 59.8125C 121.49 58.2083 122.125 56.0833 122.125 53.4375ZM 145.125 31.9375C 143.458 31.9375 142.094 31.4479 141.031 30.4688C 139.969 29.4688 139.438 28.25 139.438 26.8125C 139.438 25.3333 139.969 24.125 141.031 23.1875C 142.094 22.25 143.458 21.7812 145.125 21.7812C 146.812 21.7812 148.177 22.25 149.219 23.1875C 150.281 24.125 150.812 25.3333 150.812 26.8125C 150.812 28.3125 150.281 29.5417 149.219 30.5C 148.177 31.4583 146.812 31.9375 145.125 31.9375ZM 150 69L 140.125 69L 140.125 37L 150 37L 150 69ZM 188.719 69L 178.875 69L 178.875 64.125L 178.719 64.125C 176.281 67.8958 173.021 69.7812 168.938 69.7812C 161.521 69.7812 157.812 65.2917 157.812 56.3125L 157.812 37L 167.656 37L 167.656 55.4375C 167.656 59.9583 169.448 62.2188 173.031 62.2188C 174.802 62.2188 176.219 61.6042 177.281 60.375C 178.344 59.125 178.875 57.4375 178.875 55.3125L 178.875 37L 188.719 37L 188.719 69ZM 247.875 69L 238.031 69L 238.031 50.75C 238.031 46.1042 236.323 43.7812 232.906 43.7812C 231.281 43.7812 229.958 44.4792 228.938 45.875C 227.917 47.2708 227.406 49.0104 227.406 51.0938L 227.406 69L 217.531 69L 217.531 50.5625C 217.531 46.0417 215.854 43.7812 212.5 43.7812C 210.812 43.7812 209.458 44.4479 208.438 45.7812C 207.438 47.1146 206.938 48.9271 206.938 51.2188L 206.938 69L 197.062 69L 197.062 37L 206.938 37L 206.938 42L 207.062 42C 208.083 40.2917 209.51 38.9062 211.344 37.8438C 213.198 36.7604 215.219 36.2188 217.406 36.2188C 221.927 36.2188 225.021 38.2083 226.688 42.1875C 229.125 38.2083 232.708 36.2188 237.438 36.2188C 244.396 36.2188 247.875 40.5104 247.875 49.0938L 247.875 69Z"/>
<path id="path44_fill" d="M 31.9688 69L 5.28125 69L 5.28125 24.1875L 15.375 24.1875L 15.375 60.8125L 31.9688 60.8125L 31.9688 69ZM 63.6875 69L 54.3438 69L 54.3438 64.4062L 54.2188 64.4062C 52.0729 67.9896 48.8958 69.7812 44.6875 69.7812C 41.5833 69.7812 39.1354 68.9062 37.3438 67.1562C 35.5729 65.3854 34.6875 63.0312 34.6875 60.0938C 34.6875 53.8854 38.3646 50.3021 45.7188 49.3438L 54.4062 48.1875C 54.4062 44.6875 52.5104 42.9375 48.7188 42.9375C 44.9062 42.9375 41.2812 44.0729 37.8438 46.3438L 37.8438 38.9062C 39.2188 38.1979 41.0938 37.5729 43.4688 37.0312C 45.8646 36.4896 48.0417 36.2188 50 36.2188C 59.125 36.2188 63.6875 40.7708 63.6875 49.875L 63.6875 69ZM 54.4062 56L 54.4062 53.8438L 48.5938 54.5938C 45.3854 55.0104 43.7812 56.4583 43.7812 58.9375C 43.7812 60.0625 44.1667 60.9896 44.9375 61.7188C 45.7292 62.4271 46.7917 62.7812 48.125 62.7812C 49.9792 62.7812 51.4896 62.1458 52.6562 60.875C 53.8229 59.5833 54.4062 57.9583 54.4062 56ZM 92.375 45.9062C 91.1875 45.2604 89.8021 44.9375 88.2188 44.9375C 86.0729 44.9375 84.3958 45.7292 83.1875 47.3125C 81.9792 48.875 81.375 51.0104 81.375 53.7188L 81.375 69L 71.5 69L 71.5 37L 81.375 37L 81.375 42.9375L 81.5 42.9375C 83.0625 38.6042 85.875 36.4375 89.9375 36.4375C 90.9792 36.4375 91.7917 36.5625 92.375 36.8125L 92.375 45.9062ZM 128.125 65.3438C 128.125 71.2812 126.406 75.875 122.969 79.125C 119.531 82.3958 114.552 84.0312 108.031 84.0312C 103.719 84.0312 100.302 83.4167 97.7812 82.1875L 97.7812 73.875C 101.073 75.7917 104.396 76.75 107.75 76.75C 111.083 76.75 113.667 75.8646 115.5 74.0938C 117.333 72.3438 118.25 69.9583 118.25 66.9375L 118.25 64.4062L 118.125 64.4062C 115.875 67.9896 112.552 69.7812 108.156 69.7812C 104.073 69.7812 100.833 68.3438 98.4375 65.4688C 96.0417 62.5938 94.8438 58.7396 94.8438 53.9062C 94.8438 48.4896 96.1771 44.1875 98.8438 41C 101.51 37.8125 105.021 36.2188 109.375 36.2188C 113.271 36.2188 116.188 37.7188 118.125 40.7188L 118.25 40.7188L 118.25 37L 128.125 37L 128.125 65.3438ZM 118.375 53.625L 118.375 51.0938C 118.375 49.0729 117.771 47.3542 116.562 45.9375C 115.375 44.5 113.823 43.7812 111.906 43.7812C 109.719 43.7812 108 44.6354 106.75 46.3438C 105.5 48.0521 104.875 50.4583 104.875 53.5625C 104.875 56.2292 105.469 58.3438 106.656 59.9062C 107.844 61.4479 109.469 62.2188 111.531 62.2188C 113.573 62.2188 115.219 61.4375 116.469 59.875C 117.74 58.2917 118.375 56.2083 118.375 53.625ZM 165.125 55.8125L 144.25 55.8125C 144.583 60.4583 147.51 62.7812 153.031 62.7812C 156.552 62.7812 159.646 61.9479 162.312 60.2812L 162.312 67.4062C 159.354 68.9896 155.51 69.7812 150.781 69.7812C 145.615 69.7812 141.604 68.3542 138.75 65.5C 135.896 62.625 134.469 58.625 134.469 53.5C 134.469 48.1875 136.01 43.9792 139.094 40.875C 142.177 37.7708 145.969 36.2188 150.469 36.2188C 155.135 36.2188 158.74 37.6042 161.281 40.375C 163.844 43.1458 165.125 46.9062 165.125 51.6562L 165.125 55.8125ZM 155.969 49.75C 155.969 45.1667 154.115 42.875 150.406 42.875C 148.823 42.875 147.448 43.5312 146.281 44.8438C 145.135 46.1562 144.438 47.7917 144.188 49.75L 155.969 49.75Z"/>
</defs>
</svg>
