<svg width="602" height="336" viewBox="0 0 602 336" version="1.1" xmlns="http://www.w3.org/2000/svg" xmlns:xlink="http://www.w3.org/1999/xlink">
<title>thumbnail-size-classes</title>
<desc>Created using Figma</desc>
<g id="Canvas" transform="translate(1872 4332)">
<clipPath id="clip-0" clip-rule="evenodd">
<path d="M -1872 -4332L -1270 -4332L -1270 -3996L -1872 -3996L -1872 -4332Z" fill="#FFFFFF"/>
</clipPath>
<g id="thumbnail-size-classes" clip-path="url(#clip-0)">
<path d="M -1872 -4332L -1270 -4332L -1270 -3996L -1872 -3996L -1872 -4332Z" fill="#FFFFFF"/>
<g id="Rectangle">
<use xlink:href="#path0_fill" transform="translate(-1870 -4332)" fill="#243A5E"/>
</g>
<g id="Group">
<g id="Rectangle 15">
<use xlink:href="#path1_fill" transform="translate(-1802.49 -4064.48)" fill="#1B2D4A"/>
</g>
<g id="Rectangle 8.2">
<use xlink:href="#path2_fill" transform="translate(-1557.67 -4062.74)" fill="#CAD6ED"/>
</g>
<g id="Rectangle 7.8">
<use xlink:href="#path3_fill" transform="translate(-1615.88 -4049.67)" fill="#EAEAEA"/>
</g>
<g id="Rectangle 5.40" filter="url(#filter0_d)">
<use xlink:href="#path4_fill" transform="translate(-1697.36 -4282)" fill="#F8F8F8"/>
</g>
<g id="Rectangle 5.41" filter="url(#filter1_i)">
<use xlink:href="#path5_fill" transform="translate(-1688.63 -4274.74)" fill="#50E6FF"/>
<use xlink:href="#path5_fill" transform="translate(-1688.63 -4274.74)" fill="url(#paint6_linear)"/>
</g>
<g id="Rectangle 5.34" filter="url(#filter2_d)">
<use xlink:href="#path6_fill" transform="translate(-1721.52 -4142.55)" fill="#FFFFFF"/>
</g>
<g id="Rectangle 5.35">
<use xlink:href="#path7_fill" transform="translate(-1716.34 -4136.74)" fill="#50E6FF"/>
<use xlink:href="#path7_fill" transform="translate(-1716.34 -4136.74)" fill="url(#paint9_linear)"/>
</g>
<g id="Rectangle 5.32">
<use xlink:href="#path8_fill" transform="translate(-1775.64 -4119.37)" fill="#FFFFFF"/>
<mask id="mask0_outline_ins">
<use xlink:href="#path8_fill" fill="white" transform="translate(-1775.64 -4119.37)"/>
</mask>
<g mask="url(#mask0_outline_ins)">
<use xlink:href="#path9_stroke_2x" transform="translate(-1775.64 -4119.37)" fill="#334E7A"/>
</g>
</g>
<g id="Rectangle 5.33">
<use xlink:href="#path10_fill" transform="translate(-1769.82 -4113.56)" fill="#50E6FF"/>
<use xlink:href="#path10_fill" transform="translate(-1769.82 -4113.56)" fill="#50E6FF"/>
<use xlink:href="#path10_fill" transform="translate(-1769.82 -4113.56)" fill="url(#paint14_linear)" fill-opacity="0.5"/>
</g>
<g id="Vector">
<use xlink:href="#path11_fill" transform="translate(-1308.48 -4062.86)" fill="#1B2D4A"/>
</g>
<g id="Rectangle 7.9">
<use xlink:href="#path12_fill" transform="translate(-1435.44 -4049.67)" fill="#545454"/>
</g>
<g id="Rectangle 9.2" filter="url(#filter3_dd)">
<use xlink:href="#path13_fill" transform="translate(-1441.26 -4084.52)" fill="#FFFFFF"/>
</g>
<g id="Rectangle 13">
<use xlink:href="#path14_fill" transform="translate(-1441.55 -4068.55)" fill="#243A5E"/>
</g>
<g id="Rectangle 14">
<use xlink:href="#path15_fill" transform="translate(-1373.19 -4084.41)" fill="#F4F4F4"/>
</g>
<g id="Rectangle 16">
<use xlink:href="#path16_fill" transform="translate(-1663.73 -4142.75)" fill="#C8C8C8"/>
</g>
<g id="Rectangle 16.1">
<use xlink:href="#path17_fill" transform="translate(-1729.65 -4119.37)" fill="#C8C8C8"/>
</g>
<g id="Rectangle 12.6">
<use xlink:href="#path18_fill" transform="translate(-1844 -4064.72)" fill="#E0E0E0"/>
<mask id="mask1_outline_ins">
<use xlink:href="#path18_fill" fill="white" transform="translate(-1844 -4064.72)"/>
</mask>
<g mask="url(#mask1_outline_ins)">
<use xlink:href="#path19_stroke_2x" transform="translate(-1844 -4064.72)" fill="#243A5E"/>
</g>
</g>
<g id="Rectangle 12.7">
<use xlink:href="#path18_fill" transform="translate(-1798.89 -4064.72)" fill="#E0E0E0"/>
<mask id="mask2_outline_ins">
<use xlink:href="#path18_fill" fill="white" transform="translate(-1798.89 -4064.72)"/>
</mask>
<g mask="url(#mask2_outline_ins)">
<use xlink:href="#path19_stroke_2x" transform="translate(-1798.89 -4064.72)" fill="#243A5E"/>
</g>
</g>
<g id="Rectangle 10.3" filter="url(#filter4_d)">
<use xlink:href="#path20_fill" transform="translate(-1832.36 -4073.43)" fill="#FFFFFF"/>
</g>
<g id="Rectangle 11.2">
<use xlink:href="#path21_fill" transform="translate(-1826.54 -4067.62)" fill="#50E6FF"/>
<use xlink:href="#path21_fill" transform="translate(-1826.54 -4067.62)" fill="#50E6FF"/>
<use xlink:href="#path21_fill" transform="translate(-1826.54 -4067.62)" fill="url(#paint29_linear)"/>
</g>
</g>
</g>
</g>
<defs>
<filter id="filter0_d" filterUnits="userSpaceOnUse" x="-1713" y="-4291" width="357" height="251" color-interpolation-filters="sRGB">
<feFlood flood-opacity="0" result="BackgroundImageFix"/>
<feColorMatrix in="SourceAlpha" type="matrix" values="0 0 0 0 0 0 0 0 0 0 0 0 0 0 0 0 0 0 255 0"/>
<feOffset dx="0" dy="6"/>
<feGaussianBlur stdDeviation="7.5"/>
<feColorMatrix type="matrix" values="0 0 0 0 0 0 0 0 0 0 0 0 0 0 0 0 0 0 0.25 0"/>
<feBlend mode="normal" in2="BackgroundImageFix" result="effect1_dropShadow"/>
<feBlend mode="normal" in="SourceGraphic" in2="effect1_dropShadow" result="shape"/>
</filter>
<filter id="filter1_i" filterUnits="userSpaceOnUse" x="-1689" y="-4275" width="309" height="209" color-interpolation-filters="sRGB">
<feFlood flood-opacity="0" result="BackgroundImageFix"/>
<feBlend mode="normal" in="SourceGraphic" in2="BackgroundImageFix" result="shape"/>
<feColorMatrix in="SourceAlpha" type="matrix" values="0 0 0 0 0 0 0 0 0 0 0 0 0 0 0 0 0 0 255 0" result="hardAlpha"/>
<feOffset dx="0" dy="4"/>
<feGaussianBlur stdDeviation="2"/>
<feComposite in2="hardAlpha" operator="arithmetic" k2="-1" k3="1"/>
<feColorMatrix type="matrix" values="0 0 0 0 0 0 0 0 0 0 0 0 0 0 0 0 0 0 0.25 0"/>
<feBlend mode="normal" in2="shape" result="effect1_innerShadow"/>
</filter>
<filter id="filter2_d" filterUnits="userSpaceOnUse" x="-1728" y="-4149" width="79" height="126" color-interpolation-filters="sRGB">
<feFlood flood-opacity="0" result="BackgroundImageFix"/>
<feColorMatrix in="SourceAlpha" type="matrix" values="0 0 0 0 0 0 0 0 0 0 0 0 0 0 0 0 0 0 255 0"/>
<feOffset dx="4" dy="4"/>
<feGaussianBlur stdDeviation="5"/>
<feColorMatrix type="matrix" values="0 0 0 0 0 0 0 0 0 0 0 0 0 0 0 0 0 0 0.25 0"/>
<feBlend mode="normal" in2="BackgroundImageFix" result="effect1_dropShadow"/>
<feBlend mode="normal" in="SourceGraphic" in2="effect1_dropShadow" result="shape"/>
</filter>
<filter id="filter3_dd" filterUnits="userSpaceOnUse" x="-1457" y="-4095" width="166" height="61" color-interpolation-filters="sRGB">
<feFlood flood-opacity="0" result="BackgroundImageFix"/>
<feColorMatrix in="SourceAlpha" type="matrix" values="0 0 0 0 0 0 0 0 0 0 0 0 0 0 0 0 0 0 255 0"/>
<feOffset dx="-5" dy="0"/>
<feGaussianBlur stdDeviation="5"/>
<feColorMatrix type="matrix" values="0 0 0 0 0 0 0 0 0 0 0 0 0 0 0 0 0 0 0.1 0"/>
<feBlend mode="normal" in2="BackgroundImageFix" result="effect1_dropShadow"/>
<feColorMatrix in="SourceAlpha" type="matrix" values="0 0 0 0 0 0 0 0 0 0 0 0 0 0 0 0 0 0 255 0"/>
<feOffset dx="0" dy="4"/>
<feGaussianBlur stdDeviation="5"/>
<feColorMatrix type="matrix" values="0 0 0 0 0 0 0 0 0 0 0 0 0 0 0 0 0 0 0.25 0"/>
<feBlend mode="normal" in2="effect1_dropShadow" result="effect2_dropShadow"/>
<feBlend mode="normal" in="SourceGraphic" in2="effect2_dropShadow" result="shape"/>
</filter>
<filter id="filter4_d" filterUnits="userSpaceOnUse" x="-1853" y="-4090" width="76" height="76" color-interpolation-filters="sRGB">
<feFlood flood-opacity="0" result="BackgroundImageFix"/>
<feColorMatrix in="SourceAlpha" type="matrix" values="0 0 0 0 0 0 0 0 0 0 0 0 0 0 0 0 0 0 255 0"/>
<feOffset dx="0" dy="4"/>
<feGaussianBlur stdDeviation="10"/>
<feColorMatrix type="matrix" values="0 0 0 0 0 0 0 0 0 0 0 0 0 0 0 0 0 0 0.25 0"/>
<feBlend mode="normal" in2="BackgroundImageFix" result="effect1_dropShadow"/>
<feBlend mode="normal" in="SourceGraphic" in2="effect1_dropShadow" result="shape"/>
</filter>
<linearGradient id="paint6_linear" x1="0" y1="0" x2="1" y2="0" gradientUnits="userSpaceOnUse" gradientTransform="matrix(298.277 204.505 -308.14 448.646 154.149 -224.264)">
<stop offset="0" stop-color="#9CF1FF"/>
<stop offset="0.328109" stop-color="#75EBFF" stop-opacity="0.729282"/>
<stop offset="0.599733" stop-color="#F0FDFF" stop-opacity="0.453039"/>
<stop offset="1" stop-color="#00DBFF" stop-opacity="0"/>
</linearGradient>
<linearGradient id="paint9_linear" x1="0" y1="0" x2="1" y2="0" gradientUnits="userSpaceOnUse" gradientTransform="matrix(24.0087 116.686 -113.122 212.036 56.6766 -129.715)">
<stop offset="0" stop-color="#9CF1FF"/>
<stop offset="0.328109" stop-color="#75EBFF" stop-opacity="0.729282"/>
<stop offset="0.599733" stop-color="#F0FDFF" stop-opacity="0.453039"/>
<stop offset="1" stop-color="#00DBFF" stop-opacity="0"/>
</linearGradient>
<linearGradient id="paint14_linear" x1="0" y1="0" x2="1" y2="0" gradientUnits="userSpaceOnUse" gradientTransform="matrix(7.14812 64.5716 -69.9572 110.087 45.4347 -49.8736)">
<stop offset="0" stop-color="#9CF1FF"/>
<stop offset="0.328109" stop-color="#75EBFF" stop-opacity="0.729282"/>
<stop offset="0.599733" stop-color="#F0FDFF" stop-opacity="0.453039"/>
<stop offset="1" stop-color="#00DBFF" stop-opacity="0"/>
</linearGradient>
<linearGradient id="paint29_linear" x1="0" y1="0" x2="1" y2="0" gradientUnits="userSpaceOnUse" gradientTransform="matrix(4.78224 23.3635 -48.2659 32.1698 31.0869 -16.2012)">
<stop offset="0" stop-color="#9CF1FF"/>
<stop offset="0.328109" stop-color="#75EBFF" stop-opacity="0.729282"/>
<stop offset="0.718232" stop-color="#F0FDFF" stop-opacity="0.453039"/>
<stop offset="1" stop-color="#00DBFF" stop-opacity="0"/>
</linearGradient>
<path id="path0_fill" d="M 0 0L 600 0L 600 336L 0 336L 0 0Z"/>
<path id="path1_fill" d="M 0 0L 430.935 0L 430.935 26.4271L 0 26.4271L 0 0Z"/>
<path id="path2_fill" d="M 0 0L 46.5645 0L 46.5645 14.5203L 0 14.5203L 0 0Z"/>
<path id="path3_fill" d="M 0 0L 162.976 0L 162.976 11.6163L 0 11.6163L 0 0Z"/>
<path id="path4_fill" d="M 0 0L 325.951 0L 325.951 220.709L 0 220.709L 0 0Z"/>
<path id="path5_fill" d="M 0 0L 308.489 0L 308.489 204.737L 0 204.737L 0 0Z"/>
<path id="path6_fill" d="M 0 0L 58.2056 0L 58.2056 104.547L 0 104.547L 0 0Z"/>
<path id="path7_fill" d="M 0 0L 47.8579 0L 47.8579 92.9303L 0 92.9303L 0 0Z"/>
<path id="path8_fill" d="M 0 0L 46.5644 0L 46.5644 81.314L 0 81.314L 0 0Z"/>
<path id="path9_stroke_2x" d="M 0 0L 0 -1L -1 -1L -1 0L 0 0ZM 46.5644 0L 47.5644 0L 47.5644 -1L 46.5644 -1L 46.5644 0ZM 46.5644 81.314L 46.5644 82.314L 47.5644 82.314L 47.5644 81.314L 46.5644 81.314ZM 0 81.314L -1 81.314L -1 82.314L 0 82.314L 0 81.314ZM 0 1L 46.5644 1L 46.5644 -1L 0 -1L 0 1ZM 45.5644 0L 45.5644 81.314L 47.5644 81.314L 47.5644 0L 45.5644 0ZM 46.5644 80.314L 0 80.314L 0 82.314L 46.5644 82.314L 46.5644 80.314ZM 1 81.314L 1 0L -1 0L -1 81.314L 1 81.314Z"/>
<path id="path10_fill" d="M 0 0L 34.9233 0L 34.9233 69.6977L 0 69.6977L 0 0Z"/>
<path id="path11_fill" d="M 26.4303 1.75954L 1.65046 22.9808C 1.0017 23.5364 0 23.0754 0 22.2212L 0 1C 0 0.447715 0.447715 0 1 0L 25.7798 0C 26.7084 0 27.1356 1.1555 26.4303 1.75954Z"/>
<path id="path12_fill" d="M 0 0L 128.052 0L 128.052 11.6157L 0 11.6157L 0 0Z"/>
<path id="path13_fill" d="M 0 0L 139.693 0L 139.693 36.3009L 0 36.3009L 0 0Z"/>
<path id="path14_fill" d="M 0 0L 68.3636 0L 68.3636 4.0657L 0 4.0657L 0 0Z"/>
<path id="path15_fill" d="M 0 0L 71.619 0L 71.619 36.1848L 0 36.1848L 0 0Z"/>
<path id="path16_fill" d="M 0 0L 1.22078 1.82957L 1.22078 104.692L 0 104.692L 0 0Z"/>
<path id="path17_fill" d="M 0 0L 1.22078 1.82957L 1.22078 81.1108L 0 81.1108L 0 0Z"/>
<path id="path18_fill" d="M 0 0L 13.0963 0L 13.0963 20.3285L 0 20.3285L 0 0Z"/>
<path id="path19_stroke_2x" d="M 0 0L 0 -1L -1 -1L -1 0L 0 0ZM 13.0963 0L 14.0963 0L 14.0963 -1L 13.0963 -1L 13.0963 0ZM 13.0963 20.3285L 13.0963 21.3285L 14.0963 21.3285L 14.0963 20.3285L 13.0963 20.3285ZM 0 20.3285L -1 20.3285L -1 21.3285L 0 21.3285L 0 20.3285ZM 0 1L 13.0963 1L 13.0963 -1L 0 -1L 0 1ZM 12.0963 0L 12.0963 20.3285L 14.0963 20.3285L 14.0963 0L 12.0963 0ZM 13.0963 19.3285L 0 19.3285L 0 21.3285L 13.0963 21.3285L 13.0963 19.3285ZM 1 20.3285L 1 0L -1 0L -1 20.3285L 1 20.3285Z"/>
<path id="path20_fill" d="M 0 0L 34.9233 0L 34.9233 34.8488L 0 34.8488L 0 0Z"/>
<path id="path21_fill" d="M 0 0L 23.2822 0L 23.2822 23.2326L 0 23.2326L 0 0Z"/>
</defs>
</svg>
