<svg width="48" height="46" viewBox="0 0 48 46" fill="none" xmlns="http://www.w3.org/2000/svg">
<path d="M22.8 18.1579V26.6316H14.4V18.1579H22.8ZM22.8 37.5263V29.0526H14.4V37.5263H22.8ZM33.6 18.1579V26.6316H25.2V18.1579H33.6ZM33.6 37.5263V29.0526H25.2V37.5263H33.6ZM14.4 9.68421V4.23684C14.4 1.89689 16.2804 0 18.6 0H29.4C31.7196 0 33.6 1.89689 33.6 4.23684V9.68421H46.2C47.1941 9.68421 48 10.4972 48 11.5V39.3421C48 43.0192 45.0451 46 41.4 46H6.6C2.95493 46 0 43.0192 0 39.3421V11.5C0 10.4972 0.805896 9.68421 1.8 9.68421H14.4ZM18 4.23684V9.68421H30V4.23684C30 3.90257 29.7314 3.63158 29.4 3.63158H18.6C18.2686 3.63158 18 3.90257 18 4.23684ZM3.6 39.3421C3.6 41.0136 4.94314 42.3684 6.6 42.3684H41.4C43.057 42.3684 44.4 41.0136 44.4 39.3421V13.3158H3.6V39.3421Z" fill="url(#paint0_linear_581_2166)"/>
<defs>
<linearGradient id="paint0_linear_581_2166" x1="7.27343" y1="1.23619e-06" x2="36.7101" y2="47.1464" gradientUnits="userSpaceOnUse">
<stop stop-color="#4DD2FF"/>
<stop offset="0.75" stop-color="#0078D4"/>
</linearGradient>
</defs>
</svg>
