<svg width="48" height="48" viewBox="0 0 48 48" fill="none" xmlns="http://www.w3.org/2000/svg">
<path d="M47.9986 5.18084C47.9986 5.68622 47.9126 6.19925 47.7407 6.71994C47.5687 7.24063 47.3264 7.71538 47.0138 8.14418L43.0041 13.8641C39.8152 18.4278 36.3995 22.7618 32.7572 26.8661C29.1149 30.9704 25.1991 34.8985 21.0097 38.6505C20.994 39.7532 20.7986 40.7716 20.4234 41.7058C20.0483 42.64 19.4386 43.4899 18.5945 44.2556C17.8754 44.8988 17.0703 45.4501 16.1793 45.9096C15.2883 46.369 14.3582 46.7595 13.389 47.0811C12.4198 47.4027 11.4349 47.6325 10.4345 47.7703C9.43402 47.9081 8.4492 47.9847 7.48 48C7.07356 48 6.58115 47.9847 6.00276 47.9541C5.42437 47.9234 4.83034 47.8622 4.22069 47.7703C3.61103 47.6784 3.02483 47.5789 2.46207 47.4717C1.89931 47.3645 1.43034 47.2419 1.05517 47.1041C0.726897 46.9816 0.468966 46.8055 0.281379 46.5758C0.0937931 46.346 0 46.0551 0 45.7028C0 45.2587 0.17977 44.8835 0.53931 44.5772C1.14897 44.0872 1.77425 43.5971 2.41517 43.107C3.05609 42.617 3.65012 42.081 4.19724 41.499C4.68184 41.009 5.01011 40.4653 5.18207 39.868C5.35402 39.2708 5.4869 38.6352 5.58069 37.9614C5.59632 37.8389 5.60414 37.7393 5.60414 37.6628V37.456C5.58851 37.456 5.58069 37.4484 5.58069 37.433V37.2952C5.58069 37.234 5.60414 37.1114 5.65103 36.9277C5.76046 36.1007 5.98713 35.3197 6.33103 34.5846C6.67494 33.8495 7.15172 33.1909 7.76138 32.609C8.30851 32.073 8.92598 31.6365 9.61379 31.2996C10.3016 30.9627 11.0363 30.71 11.8179 30.5415C15.3039 25.9472 19.04 21.6132 23.0262 17.5396C27.0124 13.466 31.2566 9.59906 35.7586 5.93891L40.3545 2.24047C40.8234 1.85761 41.3315 1.55898 41.8786 1.34457C42.4257 1.13017 43.012 1.01531 43.6372 1C44.2156 1 44.7706 1.1072 45.3021 1.3216C45.8336 1.53601 46.2947 1.83464 46.6855 2.2175C47.0763 2.60036 47.3968 3.04448 47.6469 3.54985C47.897 4.05523 48.0143 4.59889 47.9986 5.18084ZM44.9972 5.20381C44.9972 4.85158 44.8566 4.55295 44.5752 4.30792C44.2938 4.06289 43.9812 3.94037 43.6372 3.94037C43.3715 3.94037 43.1292 3.99397 42.9103 4.10117C42.6915 4.20837 42.4805 4.3462 42.2772 4.51466L37.6579 8.2131C33.4998 11.5363 29.5761 15.0663 25.8869 18.803C22.1977 22.5398 18.7274 26.4985 15.4759 30.6794C16.6326 31.0163 17.6331 31.5753 18.4772 32.3563C19.3214 33.1373 19.9623 34.0792 20.4 35.1818C24.1986 31.7208 27.7706 28.0836 31.1159 24.2703C34.4611 20.457 37.6032 16.437 40.5421 12.2102L44.5048 6.5132C44.6299 6.32942 44.7393 6.12268 44.8331 5.89296C44.9269 5.66325 44.9816 5.43353 44.9972 5.20381ZM18.0083 38.6046C18.0083 38.1145 17.9614 37.6245 17.8676 37.1344C17.7738 36.6443 17.6097 36.1773 17.3752 35.7331C17.1407 35.289 16.8593 34.8908 16.531 34.5386C16.2028 34.1864 15.7651 33.9107 15.2179 33.7116C15.0147 33.6351 14.7568 33.5508 14.4441 33.4589C14.1315 33.3671 13.8579 33.3135 13.6234 33.2981C12.9669 33.2981 12.2947 33.4207 11.6069 33.6657C10.9191 33.9107 10.3329 34.2553 9.84828 34.6994C9.33241 35.1895 9.00414 35.7178 8.86345 36.2845C8.72276 36.8511 8.62897 37.4713 8.58207 38.1452C8.5508 38.6352 8.47264 39.1406 8.34759 39.6613C8.22253 40.182 8.07402 40.672 7.90207 41.1315C7.73012 41.5603 7.55034 41.9431 7.36276 42.2801C7.17517 42.617 6.94851 42.9233 6.68276 43.1989C6.41701 43.4746 6.14345 43.7502 5.86207 44.0259C5.58069 44.3016 5.26023 44.5772 4.90069 44.8529C5.32276 44.9141 5.74483 44.9601 6.1669 44.9907C6.58897 45.0213 7.02667 45.0443 7.48 45.0596C8.13655 45.0596 8.84782 45.0137 9.61379 44.9218C10.3798 44.8299 11.1614 44.6691 11.9586 44.4394C12.7559 44.2097 13.5062 43.9417 14.2097 43.6354C14.9131 43.3291 15.5618 42.9233 16.1559 42.4179C16.7499 41.9125 17.1954 41.3535 17.4924 40.741C17.7894 40.1284 17.9614 39.4163 18.0083 38.6046Z" fill="url(#paint0_linear_581_2126)"/>
<defs>
<linearGradient id="paint0_linear_581_2126" x1="7.27343" y1="1" x2="37.6297" y2="48.5847" gradientUnits="userSpaceOnUse">
<stop stop-color="#4DD2FF"/>
<stop offset="0.75" stop-color="#0078D4"/>
</linearGradient>
</defs>
</svg>
