<svg width="48" height="44" viewBox="0 0 48 44" fill="none" xmlns="http://www.w3.org/2000/svg">
<path d="M32.7117 0H15.2892C12.9507 0 10.7898 1.24758 9.62058 3.27278L0.941208 18.306C0.324616 19.374 0 20.5854 0 21.8185H24.0004C24.0004 21.6802 24.0368 21.5707 24.106 21.4509L35.9845 0.876931C35.0057 0.311896 33.8809 0 32.7117 0Z" fill="url(#paint0_linear_587_1992)"/>
<path d="M32.7117 43.6369H15.2892C12.9507 43.6369 10.7898 42.3893 9.62061 40.3641L0.941209 25.3309C0.329024 24.2705 0.00460371 23.0424 0 21.8184H24.0004C24.0004 21.9222 24.0277 22.0505 24.0796 22.1404L35.9842 42.76C35.0057 43.3251 33.8809 43.6369 32.7117 43.6369Z" fill="url(#paint1_linear_587_1992)"/>
<path d="M47.0591 25.3311L38.3797 40.3643C37.7952 41.3769 36.9626 42.195 35.9838 42.7601L24.0792 22.1405C24.0273 22.0506 24 21.9487 24 21.8449C24 21.7066 24.0364 21.5706 24.1056 21.4508L35.9841 0.876953C36.9626 1.44199 37.7952 2.26018 38.3797 3.27278L47.0591 18.3059C47.6757 19.3739 48.0004 20.5853 48.0004 21.8185C48.0004 23.0517 47.6757 24.2633 47.0591 25.3311Z" fill="url(#paint2_linear_587_1992)"/>
<path d="M47.0591 25.3311L38.3797 40.3643C37.7952 41.3769 36.9626 42.195 35.9838 42.7601L24.0792 22.1405C24.0273 22.0506 24 21.9487 24 21.8449C24 21.7066 24.0364 21.5706 24.1056 21.4508L35.9841 0.876953C36.9626 1.44199 37.7952 2.26018 38.3797 3.27278L47.0591 18.3059C47.6757 19.3739 48.0004 20.5853 48.0004 21.8185C48.0004 23.0517 47.6757 24.2633 47.0591 25.3311Z" fill="url(#paint3_linear_587_1992)"/>
<path d="M47.0591 25.3311L38.3797 40.3643C37.7952 41.3769 36.9626 42.195 35.9838 42.7601L24.0792 22.1405C24.0273 22.0506 24 21.9487 24 21.8449C24 21.7066 24.0364 21.5706 24.1056 21.4508L35.9841 0.876953C36.9626 1.44199 37.7952 2.26018 38.3797 3.27278L47.0591 18.3059C47.6757 19.3739 48.0004 20.5853 48.0004 21.8185C48.0004 23.0517 47.6757 24.2633 47.0591 25.3311Z" fill="url(#paint4_linear_587_1992)"/>
<path d="M47.0591 25.3311L38.3797 40.3643C37.7952 41.3769 36.9626 42.195 35.9838 42.7601L24.0792 22.1405C24.0273 22.0506 24 21.9487 24 21.8449C24 21.7066 24.0364 21.5706 24.1056 21.4508L35.9841 0.876953C36.9626 1.44199 37.7952 2.26018 38.3797 3.27278L47.0591 18.3059C47.6757 19.3739 48.0004 20.5853 48.0004 21.8185C48.0004 23.0517 47.6757 24.2633 47.0591 25.3311Z" fill="url(#paint5_linear_587_1992)"/>
<path d="M24.0166 6.54492L19.6078 14.1814L15.3399 21.5781C15.2978 21.651 15.2756 21.7354 15.2756 21.8197L15.2763 21.8443H6.7385L6.73828 21.8179C6.73828 21.5386 6.81017 21.2594 6.95394 21.0078C7.70262 19.698 9.27089 16.9782 10.8856 14.1814H10.8804L14.6595 7.63585C15.0492 6.96078 15.7695 6.54492 16.549 6.54492H24.0166Z" fill="#D9D9D9"/>
<path d="M24.0166 6.54492L19.6078 14.1814L15.3399 21.5781C15.2978 21.651 15.2756 21.7354 15.2756 21.8197L15.2763 21.8443H6.7385L6.73828 21.8179C6.73828 21.5386 6.81017 21.2594 6.95394 21.0078C7.70262 19.698 9.27089 16.9782 10.8856 14.1814H10.8804L14.6595 7.63585C15.0492 6.96078 15.7695 6.54492 16.549 6.54492H24.0166Z" fill="url(#paint6_linear_587_1992)"/>
<path d="M24.0166 6.54492L19.6078 14.1814L15.3399 21.5781C15.2978 21.651 15.2756 21.7354 15.2756 21.8197L15.2763 21.8443H6.7385L6.73828 21.8179C6.73828 21.5386 6.81017 21.2594 6.95394 21.0078C7.70262 19.698 9.27089 16.9782 10.8856 14.1814H10.8804L14.6595 7.63585C15.0492 6.96078 15.7695 6.54492 16.549 6.54492H24.0166Z" fill="url(#paint7_linear_587_1992)"/>
<path d="M19.5994 29.4699H19.6027L15.3399 22.0584C15.3022 21.9929 15.2805 21.9198 15.2763 21.845L15.2756 21.8203H6.73828C6.73861 22.0989 6.81048 22.3776 6.95394 22.6285C7.70395 23.9406 9.27641 26.6677 10.8941 29.4695H10.8889L14.6594 36.0002C15.0492 36.6753 15.7695 37.0911 16.549 37.0911H24.0186L19.5994 29.4699Z" fill="#D9D9D9"/>
<path d="M19.5994 29.4699H19.6027L15.3399 22.0584C15.3022 21.9929 15.2805 21.9198 15.2763 21.845L15.2756 21.8203H6.73828C6.73861 22.0989 6.81048 22.3776 6.95394 22.6285C7.70395 23.9406 9.27641 26.6677 10.8941 29.4695H10.8889L14.6594 36.0002C15.0492 36.6753 15.7695 37.0911 16.549 37.0911H24.0186L19.5994 29.4699Z" fill="url(#paint8_linear_587_1992)"/>
<path d="M28.3047 14.1814L32.7219 21.8334L28.3132 29.4692L28.5493 29.8799L32.7109 37.0909L40.7166 23.2307L41.0618 22.6263C41.2049 22.3754 41.2765 22.0967 41.2765 21.8181C41.2765 21.5395 41.2049 21.2611 41.0618 21.01L40.7133 20.3999L37.1309 14.197H37.1283L32.7109 6.54492L28.3047 14.1814Z" fill="#D9D9D9"/>
<path d="M28.3047 14.1814L32.7219 21.8334L28.3132 29.4692L28.5493 29.8799L32.7109 37.0909L40.7166 23.2307L41.0618 22.6263C41.2049 22.3754 41.2765 22.0967 41.2765 21.8181C41.2765 21.5395 41.2049 21.2611 41.0618 21.01L40.7133 20.3999L37.1309 14.197H37.1283L32.7109 6.54492L28.3047 14.1814Z" fill="url(#paint9_linear_587_1992)"/>
<defs>
<linearGradient id="paint0_linear_587_1992" x1="13.0911" y1="1.09093" x2="3.73817" y2="15.9191" gradientUnits="userSpaceOnUse">
<stop stop-color="#3BD5FF"/>
<stop offset="1" stop-color="#0FAFFF"/>
</linearGradient>
<linearGradient id="paint1_linear_587_1992" x1="13.0911" y1="21.8184" x2="11.4181" y2="43.8553" gradientUnits="userSpaceOnUse">
<stop stop-color="#0FAFFF"/>
<stop offset="1" stop-color="#0078D4"/>
</linearGradient>
<linearGradient id="paint2_linear_587_1992" x1="24" y1="0.876953" x2="60.1352" y2="21.5835" gradientUnits="userSpaceOnUse">
<stop stop-color="#0FAFFF"/>
<stop offset="1" stop-color="#0078D4"/>
</linearGradient>
<linearGradient id="paint3_linear_587_1992" x1="24" y1="0.876953" x2="60.1352" y2="21.5835" gradientUnits="userSpaceOnUse">
<stop stop-color="#3BD5FF"/>
<stop offset="1" stop-color="#0FAFFF"/>
</linearGradient>
<linearGradient id="paint4_linear_587_1992" x1="24" y1="0.876953" x2="60.1352" y2="21.5835" gradientUnits="userSpaceOnUse">
<stop stop-color="#0FAFFF"/>
<stop offset="1" stop-color="#0078D4"/>
</linearGradient>
<linearGradient id="paint5_linear_587_1992" x1="26.0001" y1="0.876953" x2="60.4856" y2="18.9914" gradientUnits="userSpaceOnUse">
<stop stop-color="#0078D4"/>
<stop offset="1" stop-color="#004695"/>
</linearGradient>
<linearGradient id="paint6_linear_587_1992" x1="15.3775" y1="6.54492" x2="18.6649" y2="21.102" gradientUnits="userSpaceOnUse">
<stop offset="0.173594" stop-color="#E6F9FE"/>
<stop offset="1" stop-color="#9DEAFF"/>
</linearGradient>
<linearGradient id="paint7_linear_587_1992" x1="6.73828" y1="6.54492" x2="21.9251" y2="23.6963" gradientUnits="userSpaceOnUse">
<stop stop-color="#FEFEFE"/>
<stop offset="1" stop-color="#E6F9FE"/>
</linearGradient>
<linearGradient id="paint8_linear_587_1992" x1="6.73828" y1="23.7201" x2="19.6813" y2="40.4472" gradientUnits="userSpaceOnUse">
<stop stop-color="#E6F9FE"/>
<stop offset="1" stop-color="#9DEAFF"/>
</linearGradient>
<linearGradient id="paint9_linear_587_1992" x1="28.3047" y1="6.54492" x2="50.2845" y2="15.879" gradientUnits="userSpaceOnUse">
<stop stop-color="#9DEAFF"/>
<stop offset="1" stop-color="#3BD5FF"/>
</linearGradient>
</defs>
</svg>
