<svg width="48" height="44" viewBox="0 0 48 44" fill="none" xmlns="http://www.w3.org/2000/svg">
<path d="M32.7111 0H15.289C12.9505 0 10.7897 1.24756 9.62042 3.27273L0.941193 18.3057C0.324611 19.3737 0 20.585 0 21.8182H24C24 21.6799 24.0364 21.5703 24.1056 21.4505L35.9839 0.876917C35.0051 0.311891 33.8804 0 32.7111 0Z" fill="url(#paint0_linear_587_1968)"/>
<path d="M32.7111 0H15.289C12.9505 0 10.7897 1.24756 9.62042 3.27273L0.941193 18.3057C0.324611 19.3737 0 20.585 0 21.8182H24C24 21.6799 24.0364 21.5703 24.1056 21.4505L35.9839 0.876917C35.0051 0.311891 33.8804 0 32.7111 0Z" fill="url(#paint1_linear_587_1968)"/>
<path d="M32.7111 0H15.289C12.9505 0 10.7897 1.24756 9.62042 3.27273L0.941193 18.3057C0.324611 19.3737 0 20.585 0 21.8182H24C24 21.6799 24.0364 21.5703 24.1056 21.4505L35.9839 0.876917C35.0051 0.311891 33.8804 0 32.7111 0Z" fill="url(#paint2_linear_587_1968)"/>
<path d="M32.7111 0H15.289C12.9505 0 10.7897 1.24756 9.62042 3.27273L0.941193 18.3057C0.324611 19.3737 0 20.585 0 21.8182H24C24 21.6799 24.0364 21.5703 24.1056 21.4505L35.9839 0.876917C35.0051 0.311891 33.8804 0 32.7111 0Z" fill="url(#paint3_linear_587_1968)"/>
<path d="M32.7111 43.6365H15.289C12.9505 43.6365 10.7897 42.389 9.62044 40.3638L0.941193 25.3309C0.329018 24.2705 0.00460364 23.0424 0 21.8184H24C24 21.9222 24.0273 22.0505 24.0792 22.1404L35.9836 42.7597C35.0051 43.3248 33.8804 43.6365 32.7111 43.6365Z" fill="url(#paint4_linear_587_1968)"/>
<path d="M32.7111 43.6365H15.289C12.9505 43.6365 10.7897 42.389 9.62044 40.3638L0.941193 25.3309C0.329018 24.2705 0.00460364 23.0424 0 21.8184H24C24 21.9222 24.0273 22.0505 24.0792 22.1404L35.9836 42.7597C35.0051 43.3248 33.8804 43.6365 32.7111 43.6365Z" fill="url(#paint5_linear_587_1968)"/>
<path d="M32.7111 43.6365H15.289C12.9505 43.6365 10.7897 42.389 9.62044 40.3638L0.941193 25.3309C0.329018 24.2705 0.00460364 23.0424 0 21.8184H24C24 21.9222 24.0273 22.0505 24.0792 22.1404L35.9836 42.7597C35.0051 43.3248 33.8804 43.6365 32.7111 43.6365Z" fill="url(#paint6_linear_587_1968)"/>
<path d="M47.0588 25.3306L38.3795 40.3636C37.795 41.3762 36.9624 42.1944 35.9836 42.7594L24.0792 22.1402C24.0273 22.0503 24 21.9484 24 21.8445C24 21.7062 24.0364 21.5703 24.1056 21.4505L35.9839 0.876953C36.9624 1.44198 37.795 2.26016 38.3795 3.27274L47.0588 18.3056C47.6753 19.3736 48 20.585 48 21.8181C48 23.0513 47.6753 24.2629 47.0588 25.3306Z" fill="url(#paint7_linear_587_1968)"/>
<path d="M47.0588 25.3306L38.3795 40.3636C37.795 41.3762 36.9624 42.1944 35.9836 42.7594L24.0792 22.1402C24.0273 22.0503 24 21.9484 24 21.8445C24 21.7062 24.0364 21.5703 24.1056 21.4505L35.9839 0.876953C36.9624 1.44198 37.795 2.26016 38.3795 3.27274L47.0588 18.3056C47.6753 19.3736 48 20.585 48 21.8181C48 23.0513 47.6753 24.2629 47.0588 25.3306Z" fill="url(#paint8_linear_587_1968)"/>
<path d="M47.0588 25.3306L38.3795 40.3636C37.795 41.3762 36.9624 42.1944 35.9836 42.7594L24.0792 22.1402C24.0273 22.0503 24 21.9484 24 21.8445C24 21.7062 24.0364 21.5703 24.1056 21.4505L35.9839 0.876953C36.9624 1.44198 37.795 2.26016 38.3795 3.27274L47.0588 18.3056C47.6753 19.3736 48 20.585 48 21.8181C48 23.0513 47.6753 24.2629 47.0588 25.3306Z" fill="url(#paint9_linear_587_1968)"/>
<path d="M28.3136 29.4692L24.082 22.1398L23.8945 21.8178L28.3068 14.1816L32.7239 21.8335L28.3136 29.4692Z" fill="url(#paint10_linear_587_1968)"/>
<path d="M37.1222 29.4549L33.3416 36.0003C33.1468 36.3378 32.8692 36.6106 32.543 36.7989L28.5486 29.8803L28.3125 29.4697L32.7228 21.834L37.1222 29.4549Z" fill="url(#paint11_linear_587_1968)"/>
<path d="M33.3434 7.6365C33.1483 7.29897 32.871 7.02625 32.5446 6.83789L28.3047 14.182L32.7218 21.8337L37.1308 14.1976L33.3434 7.6365Z" fill="url(#paint12_linear_587_1968)"/>
<path d="M32.5403 6.83722C32.2141 6.64889 31.8393 6.54492 31.4494 6.54492H25.274C24.4944 6.54492 23.7742 6.96078 23.3845 7.63583L19.6055 14.1813H26.1799H28.3002L32.5403 6.83722Z" fill="url(#paint13_linear_587_1968)"/>
<path d="M16.5474 6.54492C15.7679 6.54492 15.0477 6.96078 14.6579 7.63583L10.8789 14.1813H19.6062L23.3852 7.63583C23.7749 6.96078 24.4951 6.54492 25.2747 6.54492H16.5474Z" fill="url(#paint14_linear_587_1968)"/>
<path d="M24.0007 21.8444C24.0007 21.7061 24.0371 21.5702 24.1063 21.4504L28.3028 14.1816H26.1825H19.6081L15.3377 21.5782C15.2956 21.6511 15.2734 21.7355 15.2734 21.8198L15.2742 21.8444H24.0007Z" fill="url(#paint15_linear_587_1968)"/>
<path d="M31.4492 37.0913C31.8391 37.0913 32.214 36.9874 32.5402 36.7991L28.5459 29.8806L28.3087 29.4697H19.5977L23.3844 36.0003C23.774 36.6754 24.4943 37.0913 25.2738 37.0913H31.4492Z" fill="url(#paint16_linear_587_1968)"/>
<path d="M24.0007 21.8184C24.0007 21.9222 24.028 22.0505 24.0799 22.1404L28.3113 29.4696H19.6004L15.3377 22.0581C15.3 21.9929 15.2783 21.9198 15.2742 21.8448L15.2734 21.8203L24.0007 21.8184Z" fill="url(#paint17_linear_587_1968)"/>
<path d="M14.6572 36.0003C15.0469 36.6754 15.7672 37.0913 16.5467 37.0913H25.274C24.4944 37.0913 23.7742 36.6754 23.3845 36.0003L19.5978 29.4697H10.8867L14.6572 36.0003Z" fill="url(#paint18_linear_587_1968)"/>
<path d="M40.7123 20.3997L37.1319 14.1973L32.7227 21.8334L37.1223 29.4545L40.7155 23.2304C40.8443 23.0054 40.9601 22.8027 41.0607 22.626C41.2038 22.3751 41.2754 22.0965 41.2754 21.8179C41.2754 21.5393 41.2038 21.2609 41.0607 21.0097C40.9592 20.8315 40.8423 20.627 40.7123 20.3997Z" fill="url(#paint19_linear_587_1968)"/>
<path d="M6.7385 21.8444H15.2762L15.2755 21.8198C15.2755 21.7355 15.2976 21.6511 15.3397 21.5782L19.6101 14.1816H10.8856C9.27085 16.9784 7.7026 19.6982 6.95393 21.0079C6.81017 21.2595 6.73828 21.5387 6.73828 21.818C6.73828 21.8267 6.73835 21.8357 6.7385 21.8444Z" fill="url(#paint20_linear_587_1968)"/>
<path d="M10.8942 29.4698H19.6024L15.3397 22.0583C15.302 21.9929 15.2803 21.9198 15.2762 21.845L15.2755 21.8203H6.73828C6.73861 22.0989 6.81048 22.3775 6.95393 22.6285C7.70395 23.9406 9.27648 26.6677 10.8942 29.4698Z" fill="url(#paint21_linear_587_1968)"/>
<defs>
<linearGradient id="paint0_linear_587_1968" x1="0" y1="0" x2="19.3459" y2="31.9063" gradientUnits="userSpaceOnUse">
<stop stop-color="#9DEAFF"/>
<stop offset="1" stop-color="#3BD5FF"/>
</linearGradient>
<linearGradient id="paint1_linear_587_1968" x1="0" y1="0" x2="19.3459" y2="31.9063" gradientUnits="userSpaceOnUse">
<stop stop-color="#3BD5FF"/>
<stop offset="1" stop-color="#0FAFFF"/>
</linearGradient>
<linearGradient id="paint2_linear_587_1968" x1="0" y1="0" x2="19.3459" y2="31.9063" gradientUnits="userSpaceOnUse">
<stop stop-color="#9DEAFF"/>
<stop offset="1" stop-color="#3BD5FF"/>
</linearGradient>
<linearGradient id="paint3_linear_587_1968" x1="0" y1="0" x2="19.3459" y2="31.9063" gradientUnits="userSpaceOnUse">
<stop stop-color="#3BD5FF"/>
<stop offset="1" stop-color="#0FAFFF"/>
</linearGradient>
<linearGradient id="paint4_linear_587_1968" x1="0" y1="21.8184" x2="19.3459" y2="53.7246" gradientUnits="userSpaceOnUse">
<stop stop-color="#0078D4"/>
<stop offset="1" stop-color="#004695"/>
</linearGradient>
<linearGradient id="paint5_linear_587_1968" x1="0" y1="21.8184" x2="19.3459" y2="53.7246" gradientUnits="userSpaceOnUse">
<stop stop-color="#0FAFFF"/>
<stop offset="1" stop-color="#0078D4"/>
</linearGradient>
<linearGradient id="paint6_linear_587_1968" x1="0" y1="21.8184" x2="19.3459" y2="53.7246" gradientUnits="userSpaceOnUse">
<stop stop-color="#0078D4"/>
<stop offset="1" stop-color="#004695"/>
</linearGradient>
<linearGradient id="paint7_linear_587_1968" x1="24" y1="0.876953" x2="60.1346" y2="21.5831" gradientUnits="userSpaceOnUse">
<stop stop-color="#0FAFFF"/>
<stop offset="1" stop-color="#0078D4"/>
</linearGradient>
<linearGradient id="paint8_linear_587_1968" x1="24" y1="0.876953" x2="60.1346" y2="21.5831" gradientUnits="userSpaceOnUse">
<stop stop-color="#3BD5FF"/>
<stop offset="1" stop-color="#0FAFFF"/>
</linearGradient>
<linearGradient id="paint9_linear_587_1968" x1="24" y1="0.876953" x2="60.1346" y2="21.5831" gradientUnits="userSpaceOnUse">
<stop stop-color="#0FAFFF"/>
<stop offset="1" stop-color="#0078D4"/>
</linearGradient>
<linearGradient id="paint10_linear_587_1968" x1="28.3092" y1="14.1816" x2="34.5263" y2="26.2722" gradientUnits="userSpaceOnUse">
<stop stop-color="#9DEAFF"/>
<stop offset="1" stop-color="#3BD5FF"/>
</linearGradient>
<linearGradient id="paint11_linear_587_1968" x1="32.7174" y1="21.834" x2="38.7353" y2="33.7629" gradientUnits="userSpaceOnUse">
<stop stop-color="#9DEAFF"/>
<stop offset="1" stop-color="#3BD5FF"/>
</linearGradient>
<linearGradient id="paint12_linear_587_1968" x1="32.7176" y1="6.83789" x2="38.7488" y2="18.7905" gradientUnits="userSpaceOnUse">
<stop stop-color="#9DEAFF"/>
<stop offset="1" stop-color="#3BD5FF"/>
</linearGradient>
<linearGradient id="paint13_linear_587_1968" x1="26.073" y1="6.54492" x2="27.3718" y2="13.9535" gradientUnits="userSpaceOnUse">
<stop stop-color="#CEF4FF"/>
<stop offset="1" stop-color="#9DEAFF"/>
</linearGradient>
<linearGradient id="paint14_linear_587_1968" x1="18.0768" y1="6.54492" x2="19.2507" y2="13.9964" gradientUnits="userSpaceOnUse">
<stop stop-color="#CEF4FF"/>
<stop offset="1" stop-color="#9DEAFF"/>
</linearGradient>
<linearGradient id="paint15_linear_587_1968" x1="21.7881" y1="14.1816" x2="23.087" y2="21.6175" gradientUnits="userSpaceOnUse">
<stop stop-color="#CEF4FF"/>
<stop offset="1" stop-color="#9DEAFF"/>
</linearGradient>
<linearGradient id="paint16_linear_587_1968" x1="19.5977" y1="29.4697" x2="26.2626" y2="40.7879" gradientUnits="userSpaceOnUse">
<stop stop-color="#3BD5FF"/>
<stop offset="1" stop-color="#0FAFFF"/>
</linearGradient>
<linearGradient id="paint17_linear_587_1968" x1="15.2734" y1="21.8184" x2="21.9533" y2="33.2009" gradientUnits="userSpaceOnUse">
<stop stop-color="#3BD5FF"/>
<stop offset="1" stop-color="#0FAFFF"/>
</linearGradient>
<linearGradient id="paint18_linear_587_1968" x1="10.8867" y1="29.4697" x2="17.1921" y2="41.3726" gradientUnits="userSpaceOnUse">
<stop stop-color="#3BD5FF"/>
<stop offset="1" stop-color="#0FAFFF"/>
</linearGradient>
<linearGradient id="paint19_linear_587_1968" x1="36.999" y1="14.1973" x2="43.3108" y2="26.1104" gradientUnits="userSpaceOnUse">
<stop stop-color="#9DEAFF"/>
<stop offset="1" stop-color="#3BD5FF"/>
</linearGradient>
<linearGradient id="paint20_linear_587_1968" x1="13.1742" y1="14.1816" x2="14.4879" y2="21.6123" gradientUnits="userSpaceOnUse">
<stop stop-color="#CEF4FF"/>
<stop offset="1" stop-color="#9DEAFF"/>
</linearGradient>
<linearGradient id="paint21_linear_587_1968" x1="6.73828" y1="21.8203" x2="13.4591" y2="33.1228" gradientUnits="userSpaceOnUse">
<stop stop-color="#3BD5FF"/>
<stop offset="1" stop-color="#0FAFFF"/>
</linearGradient>
</defs>
</svg>
