<svg width="48" height="48" viewBox="0 0 48 48" fill="none" xmlns="http://www.w3.org/2000/svg">
<path d="M8.66667 0C3.88019 0 0 3.88019 0 8.66667V39.3333C0 44.1197 3.88019 48 8.66667 48H39.3333C44.1197 48 48 44.1197 48 39.3333V8.66667C48 3.88019 44.1197 0 39.3333 0H8.66667ZM4 8.66667C4 6.08933 6.08933 4 8.66667 4H39.3333C41.9107 4 44 6.08933 44 8.66667V39.3333C44 41.9107 41.9107 44 39.3333 44H8.66667C6.08933 44 4 41.9107 4 39.3333V8.66667ZM20.0808 16.7475C20.8619 15.9665 20.8619 14.7002 20.0808 13.9191C19.2997 13.1381 18.0335 13.1381 17.2525 13.9191L8.58579 22.5859C7.80475 23.3669 7.80475 24.6331 8.58579 25.4141L17.2525 34.0808C18.0335 34.8619 19.2997 34.8619 20.0808 34.0808C20.8619 33.2997 20.8619 32.0336 20.0808 31.2525L12.8284 24L20.0808 16.7475ZM30.7475 13.9191C29.9664 13.1381 28.7003 13.1381 27.9192 13.9191C27.1381 14.7002 27.1381 15.9665 27.9192 16.7475L35.1715 24L27.9192 31.2525C27.1381 32.0336 27.1381 33.2997 27.9192 34.0808C28.7003 34.8619 29.9664 34.8619 30.7475 34.0808L39.4141 25.4141C40.1952 24.6331 40.1952 23.3669 39.4141 22.5859L30.7475 13.9191Z" fill="url(#paint0_linear_581_2155)"/>
<defs>
<linearGradient id="paint0_linear_581_2155" x1="7.27343" y1="1.28994e-06" x2="38.5462" y2="48" gradientUnits="userSpaceOnUse">
<stop stop-color="#4DD2FF"/>
<stop offset="0.75" stop-color="#0078D4"/>
</linearGradient>
</defs>
</svg>
