<svg width="48" height="47" viewBox="0 0 48 47" fill="none" xmlns="http://www.w3.org/2000/svg">
<path d="M20.6186 0.661288C22.7873 -0.220429 25.2127 -0.220429 27.3814 0.661288L45.378 7.97877C46.963 8.62322 48 10.1673 48 11.8826V35.1176C48 36.8329 46.963 38.3768 45.378 39.0214L27.3814 46.3387C25.2127 47.2204 22.7873 47.2204 20.6186 46.3387L2.62205 39.0214C1.03706 38.3768 0 36.8329 0 35.1176V11.8826C0 10.1673 1.03706 8.62322 2.62205 7.97877L20.6186 0.661288ZM26.0287 4.00741C24.7277 3.47838 23.2723 3.47838 21.9713 4.00741L17.3783 5.87488L35.4427 12.9207L41.8488 10.4399L26.0287 4.00741ZM30.4586 14.8508L12.5153 7.85218L6.2167 10.4132L24.0031 17.3506L30.4586 14.8508ZM3.6 35.1176C3.6 35.3626 3.74815 35.5831 3.97457 35.6753L21.9713 42.9926C22.0471 43.0237 22.1239 43.0528 22.2007 43.08V20.5217L3.6 13.2667V35.1176ZM26.0287 42.9926L44.0254 35.6753C44.2519 35.5831 44.4 35.3626 44.4 35.1176V13.3224L25.8007 20.5248V43.0795C25.8773 43.0523 25.9534 43.0234 26.0287 42.9926Z" fill="url(#paint0_linear_581_2161)"/>
<defs>
<linearGradient id="paint0_linear_581_2161" x1="7.27343" y1="1.26306e-06" x2="37.6297" y2="47.5847" gradientUnits="userSpaceOnUse">
<stop stop-color="#4DD2FF"/>
<stop offset="0.75" stop-color="#0078D4"/>
</linearGradient>
</defs>
</svg>
