<svg width="56" height="58" viewBox="0 0 56 58" fill="none" xmlns="http://www.w3.org/2000/svg">
<path d="M27.6586 19.2002C26.8665 19.2002 26.0883 19.4087 25.4023 19.8048L4.73595 31.7369C4.07024 32.1212 3.66016 32.8315 3.66016 33.6002C3.66016 34.3689 4.07024 35.0792 4.73595 35.4636L25.4023 47.3957C26.0883 47.7917 26.8665 48.0002 27.6586 48.0002C28.4507 48.0002 29.2289 47.7917 29.9149 47.3957L50.5859 35.4609C51.2507 35.0771 51.6602 34.3678 51.6602 33.6002C51.6602 32.8326 51.2507 32.1233 50.5859 31.7395L29.9149 19.8048C29.2289 19.4087 28.4507 19.2002 27.6586 19.2002Z" fill="url(#paint0_linear_587_2142)"/>
<path d="M27.6586 9.59961C26.8665 9.59961 26.0883 9.80812 25.4023 10.2042L4.73595 22.1363C4.07024 22.5206 3.66016 23.2309 3.66016 23.9996C3.66016 24.7683 4.07024 25.4786 4.73595 25.863L25.4023 37.7951C26.0883 38.1911 26.8665 38.3997 27.6586 38.3997C28.4507 38.3997 29.2289 38.1911 29.9149 37.7951L50.5859 25.8604C51.2507 25.4765 51.6602 24.7672 51.6602 23.9996C51.6602 23.232 51.2507 22.5227 50.5859 22.1389L29.9149 10.2042C29.2289 9.80812 28.4507 9.59961 27.6586 9.59961Z" fill="url(#paint1_linear_587_2142)"/>
<path d="M27.6586 0C26.8665 3.46251e-08 26.0883 0.208514 25.4023 0.604581L4.73595 12.5367C4.07024 12.921 3.66016 13.6313 3.66016 14.4C3.66016 15.1687 4.07024 15.879 4.73595 16.2634L25.4023 28.1955C26.0883 28.5915 26.8665 28.8 27.6586 28.8C28.4507 28.8 29.2289 28.5915 29.9149 28.1955L50.5859 16.2607C51.2507 15.8769 51.6602 15.1676 51.6602 14.4C51.6602 13.6324 51.2507 12.9231 50.5859 12.5393L29.9149 0.604583C29.2289 0.208514 28.4507 -3.46251e-08 27.6586 0Z" fill="url(#paint2_linear_587_2142)"/>
<g filter="url(#filter0_d_587_2142)">
<path d="M27.0317 6.8635L26.2842 5.22783C26.2201 5.10554 26.1133 4.99853 25.9638 4.9221C25.8143 4.84566 25.6221 4.7998 25.4512 4.7998C25.2804 4.7998 25.0882 4.84566 24.9387 4.9221C24.7892 4.99853 24.661 5.10554 24.6183 5.22783L23.8708 6.8635C23.6359 7.35268 23.2515 7.81128 22.7602 8.17815C22.2477 8.54503 21.6283 8.83548 20.9449 9.00363L18.6597 9.53867C18.4888 9.58453 18.3393 9.66096 18.2325 9.76797C18.1258 9.87497 18.0617 10.0126 18.0617 10.1348C18.0617 10.2571 18.1258 10.3947 18.2325 10.5017C18.3393 10.6087 18.4888 10.7005 18.6597 10.731L20.9449 11.2661C21.5429 11.4036 22.0768 11.6329 22.5467 11.9234C22.6321 11.9845 22.7175 12.0304 22.803 12.0915C23.2301 12.3973 23.5718 12.7641 23.8067 13.1616C23.8495 13.238 23.8922 13.3298 23.9349 13.4215L24.6824 15.0571C24.7465 15.1642 24.8319 15.2712 24.96 15.3476C24.96 15.3476 24.9814 15.3629 25.0027 15.3782C25.1522 15.4546 25.3445 15.5005 25.5153 15.5005C25.6862 15.5005 25.8784 15.4546 26.0279 15.3782C26.1774 15.3017 26.3055 15.1947 26.3482 15.0724L27.0957 13.4368C27.3307 12.9323 27.7151 12.489 28.2277 12.1221C28.7402 11.7552 29.3809 11.4648 30.0644 11.3119L32.3496 10.7769C32.5204 10.731 32.6699 10.6546 32.7767 10.5476C32.8835 10.4406 32.9476 10.303 32.9476 10.1807C32.9476 10.0584 32.8835 9.92083 32.7767 9.81383C32.6699 9.70682 32.5204 9.6151 32.3496 9.58453H32.3069L30.0217 9.04949C29.3169 8.88134 28.6975 8.60618 28.185 8.2393C27.6724 7.87242 27.2666 7.41382 27.053 6.92465L27.0317 6.8635ZM35.126 16.968L36.7705 17.3501H36.8132C36.9414 17.3807 37.0481 17.4419 37.1336 17.5183C37.219 17.5947 37.2617 17.6865 37.2617 17.7782C37.2617 17.8699 37.219 17.9616 37.1336 18.038C37.0481 18.1145 36.9414 18.1756 36.8132 18.2062L35.1687 18.5884C34.6775 18.7107 34.229 18.9094 33.8446 19.1693C33.4815 19.4291 33.2039 19.7502 33.033 20.117L32.4991 21.2788C32.4564 21.3705 32.3709 21.447 32.2642 21.5081C32.1574 21.5693 32.0292 21.5998 31.9011 21.5998C31.7729 21.5998 31.6448 21.5693 31.538 21.5081C31.4312 21.447 31.3458 21.3705 31.3031 21.2788L30.7692 20.117C30.5983 19.7654 30.3207 19.4291 29.9576 19.1693C29.5945 18.9094 29.1247 18.6954 28.6334 18.5884L26.989 18.2062C26.8608 18.1756 26.754 18.1145 26.6686 18.038C26.5832 17.9616 26.5405 17.8699 26.5405 17.7782C26.5405 17.6865 26.5832 17.5947 26.6686 17.5183C26.754 17.4419 26.8608 17.3807 26.989 17.3501L28.6334 16.968C29.1247 16.8457 29.5732 16.647 29.9362 16.3871C30.2993 16.1272 30.5769 15.8062 30.7264 15.4546L31.2604 14.2928C31.3031 14.2011 31.3885 14.1247 31.4953 14.0635C31.6021 14.0024 31.7302 13.9718 31.8584 13.9718C31.9865 13.9718 32.1147 14.0024 32.2214 14.0635C32.3282 14.1247 32.4137 14.2011 32.4564 14.2928L32.9903 15.4546C33.1612 15.8062 33.4388 16.1272 33.8019 16.4024C34.1649 16.6622 34.6134 16.861 35.126 16.9833V16.968Z" fill="black"/>
<path d="M27.0317 6.8635L26.2842 5.22783C26.2201 5.10554 26.1133 4.99853 25.9638 4.9221C25.8143 4.84566 25.6221 4.7998 25.4512 4.7998C25.2804 4.7998 25.0882 4.84566 24.9387 4.9221C24.7892 4.99853 24.661 5.10554 24.6183 5.22783L23.8708 6.8635C23.6359 7.35268 23.2515 7.81128 22.7602 8.17815C22.2477 8.54503 21.6283 8.83548 20.9449 9.00363L18.6597 9.53867C18.4888 9.58453 18.3393 9.66096 18.2325 9.76797C18.1258 9.87497 18.0617 10.0126 18.0617 10.1348C18.0617 10.2571 18.1258 10.3947 18.2325 10.5017C18.3393 10.6087 18.4888 10.7005 18.6597 10.731L20.9449 11.2661C21.5429 11.4036 22.0768 11.6329 22.5467 11.9234C22.6321 11.9845 22.7175 12.0304 22.803 12.0915C23.2301 12.3973 23.5718 12.7641 23.8067 13.1616C23.8495 13.238 23.8922 13.3298 23.9349 13.4215L24.6824 15.0571C24.7465 15.1642 24.8319 15.2712 24.96 15.3476C24.96 15.3476 24.9814 15.3629 25.0027 15.3782C25.1522 15.4546 25.3445 15.5005 25.5153 15.5005C25.6862 15.5005 25.8784 15.4546 26.0279 15.3782C26.1774 15.3017 26.3055 15.1947 26.3482 15.0724L27.0957 13.4368C27.3307 12.9323 27.7151 12.489 28.2277 12.1221C28.7402 11.7552 29.3809 11.4648 30.0644 11.3119L32.3496 10.7769C32.5204 10.731 32.6699 10.6546 32.7767 10.5476C32.8835 10.4406 32.9476 10.303 32.9476 10.1807C32.9476 10.0584 32.8835 9.92083 32.7767 9.81383C32.6699 9.70682 32.5204 9.6151 32.3496 9.58453H32.3069L30.0217 9.04949C29.3169 8.88134 28.6975 8.60618 28.185 8.2393C27.6724 7.87242 27.2666 7.41382 27.053 6.92465L27.0317 6.8635ZM35.126 16.968L36.7705 17.3501H36.8132C36.9414 17.3807 37.0481 17.4419 37.1336 17.5183C37.219 17.5947 37.2617 17.6865 37.2617 17.7782C37.2617 17.8699 37.219 17.9616 37.1336 18.038C37.0481 18.1145 36.9414 18.1756 36.8132 18.2062L35.1687 18.5884C34.6775 18.7107 34.229 18.9094 33.8446 19.1693C33.4815 19.4291 33.2039 19.7502 33.033 20.117L32.4991 21.2788C32.4564 21.3705 32.3709 21.447 32.2642 21.5081C32.1574 21.5693 32.0292 21.5998 31.9011 21.5998C31.7729 21.5998 31.6448 21.5693 31.538 21.5081C31.4312 21.447 31.3458 21.3705 31.3031 21.2788L30.7692 20.117C30.5983 19.7654 30.3207 19.4291 29.9576 19.1693C29.5945 18.9094 29.1247 18.6954 28.6334 18.5884L26.989 18.2062C26.8608 18.1756 26.754 18.1145 26.6686 18.038C26.5832 17.9616 26.5405 17.8699 26.5405 17.7782C26.5405 17.6865 26.5832 17.5947 26.6686 17.5183C26.754 17.4419 26.8608 17.3807 26.989 17.3501L28.6334 16.968C29.1247 16.8457 29.5732 16.647 29.9362 16.3871C30.2993 16.1272 30.5769 15.8062 30.7264 15.4546L31.2604 14.2928C31.3031 14.2011 31.3885 14.1247 31.4953 14.0635C31.6021 14.0024 31.7302 13.9718 31.8584 13.9718C31.9865 13.9718 32.1147 14.0024 32.2214 14.0635C32.3282 14.1247 32.4137 14.2011 32.4564 14.2928L32.9903 15.4546C33.1612 15.8062 33.4388 16.1272 33.8019 16.4024C34.1649 16.6622 34.6134 16.861 35.126 16.9833V16.968Z" fill="url(#paint3_linear_587_2142)"/>
</g>
<defs>
<filter id="filter0_d_587_2142" x="0.00127792" y="4.7998" width="55.3217" height="52.9222" filterUnits="userSpaceOnUse" color-interpolation-filters="sRGB">
<feFlood flood-opacity="0" result="BackgroundImageFix"/>
<feColorMatrix in="SourceAlpha" type="matrix" values="0 0 0 0 0 0 0 0 0 0 0 0 0 0 0 0 0 0 127 0" result="hardAlpha"/>
<feOffset dy="18.0612"/>
<feGaussianBlur stdDeviation="9.03061"/>
<feComposite in2="hardAlpha" operator="out"/>
<feColorMatrix type="matrix" values="0 0 0 0 0 0 0 0 0 0 0 0 0 0 0 0 0 0 0.25 0"/>
<feBlend mode="normal" in2="BackgroundImageFix" result="effect1_dropShadow_587_2142"/>
<feBlend mode="normal" in="SourceGraphic" in2="effect1_dropShadow_587_2142" result="shape"/>
</filter>
<linearGradient id="paint0_linear_587_2142" x1="3.66016" y1="19.2002" x2="29.072" y2="61.5532" gradientUnits="userSpaceOnUse">
<stop stop-color="#004695"/>
<stop offset="1" stop-color="#0078D4"/>
</linearGradient>
<linearGradient id="paint1_linear_587_2142" x1="3.66016" y1="9.59961" x2="29.072" y2="51.9526" gradientUnits="userSpaceOnUse">
<stop stop-color="#0078D4"/>
<stop offset="1" stop-color="#0FAFFF"/>
</linearGradient>
<linearGradient id="paint2_linear_587_2142" x1="3.66016" y1="0" x2="29.072" y2="42.353" gradientUnits="userSpaceOnUse">
<stop stop-color="#3BD5FF"/>
<stop offset="1" stop-color="#0FAFFF"/>
</linearGradient>
<linearGradient id="paint3_linear_587_2142" x1="35.859" y1="4.93617" x2="29.4245" y2="23.5015" gradientUnits="userSpaceOnUse">
<stop stop-color="white"/>
<stop offset="1" stop-color="#DFFAFF"/>
</linearGradient>
</defs>
</svg>
