<?xml version="1.0" encoding="UTF-8" standalone="no"?>
<!DOCTYPE svg PUBLIC "-//W3C//DTD SVG 1.1//EN" "http://www.w3.org/Graphics/SVG/1.1/DTD/svg11.dtd">
<!-- Generated by Microsoft Visio, SVG Export file-write-call-sequence.svg Page-1 -->
<svg xmlns="http://www.w3.org/2000/svg" xmlns:xlink="http://www.w3.org/1999/xlink" xmlns:ev="http://www.w3.org/2001/xml-events"
		xmlns:v="http://schemas.microsoft.com/visio/2003/SVGExtensions/" width="13.2152in" height="9.40521in"
		viewBox="0 0 951.496 677.175" xml:space="preserve" color-interpolation-filters="sRGB" class="st15">
	<v:documentProperties v:langID="1033" v:viewMarkup="false">
		<v:userDefs>
			<v:ud v:nameU="msvNoAutoConnect" v:val="VT0(1):26"/>
		</v:userDefs>
	</v:documentProperties>

	<style type="text/css">
	<![CDATA[
		.st1 {visibility:visible}
		.st2 {fill:#000000;fill-opacity:0.4;filter:url(#filter_2.6666667461395);stroke:#000000;stroke-linecap:round;stroke-linejoin:round;stroke-opacity:0.4}
		.st3 {fill:#ffffff;stroke:#000000;stroke-linecap:round;stroke-linejoin:round;stroke-width:0.75}
		.st4 {fill:none;filter:url(#filter_2.6666667461395);stroke:#000000;stroke-dasharray:5.25,3.75;stroke-linecap:round;stroke-linejoin:round;stroke-opacity:0.4}
		.st5 {stroke:#000000;stroke-dasharray:5.25,3.75;stroke-linecap:round;stroke-linejoin:round;stroke-width:0.75}
		.st6 {fill:#000000;font-family:Segoe UI;font-size:1.00001em;font-weight:bold}
		.st7 {marker-end:url(#mrkr4-216);stroke:#000000;stroke-linecap:round;stroke-linejoin:round;stroke-width:1}
		.st8 {fill:#000000;fill-opacity:1;stroke:#000000;stroke-opacity:1;stroke-width:0.23584905660377}
		.st9 {fill:#ffffff;stroke:none;stroke-linecap:butt;stroke-width:7.2}
		.st10 {fill:#000000;font-family:Segoe UI;font-size:1.00001em}
		.st11 {marker-end:url(#mrkr4-224);stroke:#000000;stroke-linecap:round;stroke-linejoin:round;stroke-opacity:0.35;stroke-width:1}
		.st12 {fill:#000000;fill-opacity:0.35;stroke:#000000;stroke-opacity:0.35;stroke-width:0.23584905660377}
		.st13 {fill:#ffffff;stroke:none;stroke-linecap:butt}
		.st14 {font-size:1em}
		.st15 {fill:none;fill-rule:evenodd;font-size:12px;overflow:visible;stroke-linecap:square;stroke-miterlimit:3}
	]]>
	</style>

	<defs id="Markers">
		<g id="lend4">
			<path d="M 2 1 L 0 0 L 2 -1 L 2 1 " style="stroke:none"/>
		</g>
		<marker id="mrkr4-216" class="st8" v:arrowType="4" v:arrowSize="3" v:setback="8.48" refX="-8.48" orient="auto"
				markerUnits="strokeWidth" overflow="visible">
			<use xlink:href="#lend4" transform="scale(-4.24,-4.24) "/>
		</marker>
		<marker id="mrkr4-224" class="st12" v:arrowType="4" v:arrowSize="3" v:setback="8.48" refX="-8.48" orient="auto"
				markerUnits="strokeWidth" overflow="visible">
			<use xlink:href="#lend4" transform="scale(-4.24,-4.24) "/>
		</marker>
	</defs>
	<defs id="Filters">
		<filter id="filter_2.6666667461395">
			<feGaussianBlur stdDeviation="2.6666667461395"/>
		</filter>
	</defs>
	<g v:mID="0" v:index="1" v:groupContext="foregroundPage">
		<title>Page-1</title>
		<v:pageProperties v:drawingScale="1" v:pageScale="1" v:drawingUnits="19" v:shadowOffsetX="9" v:shadowOffsetY="-9"/>
		<v:layer v:name="Connector" v:index="0"/>
		<g id="group1-1" transform="translate(20.2537,-630)" v:mID="1" v:groupContext="group">
			<v:userDefs>
				<v:ud v:nameU="visVersion" v:prompt="" v:val="VT0(15):26"/>
				<v:ud v:nameU="ShowActor" v:prompt="" v:val="VT0(0):5"/>
				<v:ud v:nameU="ShowDestruction" v:prompt="" v:val="VT0(0):5"/>
			</v:userDefs>
			<title>Object lifeline</title>
			<desc>App</desc>
			<g id="shape2-2" v:mID="2" v:groupContext="shape">
				<title>Sheet.2</title>
				<g id="shadow2-3" v:groupContext="shadow" v:shadowOffsetX="2.12132" v:shadowOffsetY="-2.12132" v:shadowType="1"
						transform="matrix(1,0,0,1,2.12132,2.12132)" class="st1">
					<rect x="0" y="651.975" width="54" height="25.2" class="st2"/>
				</g>
				<rect x="0" y="651.975" width="54" height="25.2" class="st3"/>
			</g>
			<g id="shape3-7" v:mID="3" v:groupContext="shape" transform="translate(18,-28.8)">
				<title>Sheet.3</title>
				<g id="shadow3-8" v:groupContext="shadow" v:shadowOffsetX="2.12132" v:shadowOffsetY="-2.12132" v:shadowType="1"
						transform="matrix(1,0,0,1,2.12132,2.12132)" class="st1">
					<path d="M9 677.17 a0 0 0 1 1 0 0 a0 0 0 1 1 0 0 Z" class="st2"/>
				</g>
				<path d="M9 677.17 a0 0 0 1 1 0 0 a0 0 0 1 1 0 0 Z" class="st3"/>
			</g>
			<g id="shape4-12" v:mID="4" v:groupContext="shape" transform="translate(18,612)">
				<title>Sheet.4</title>
				<g id="shadow4-13" v:groupContext="shadow" v:shadowOffsetX="2.12132" v:shadowOffsetY="-2.12132" v:shadowType="1"
						transform="matrix(1,0,0,1,2.12132,2.12132)" class="st1"/>
			</g>
			<g id="shape5-17" v:mID="5" v:groupContext="shape" transform="translate(704.175,677.175) rotate(90)">
				<title>Sheet.5</title>
				<g id="shadow5-18" v:groupContext="shadow" v:shadowOffsetX="2.12132" v:shadowOffsetY="-2.12132" v:shadowType="1"
						transform="matrix(1,0,0,1,2.12132,-2.12132)" class="st1">
					<path d="M0 677.17 L594 677.17" class="st4"/>
				</g>
				<path d="M0 677.17 L594 677.17" class="st5"/>
			</g>
			<g id="shape1-25" v:mID="1" v:groupContext="groupContent">
				<v:textBlock v:margins="rect(4,4,4,4)"/>
				<v:textRect cx="27" cy="664.575" width="54" height="25.2"/>
				<g id="shadow1-26" v:groupContext="shadow" v:shadowOffsetX="2.12132" v:shadowOffsetY="-2.12132" v:shadowType="1"
						transform="matrix(1,0,0,1,2.12132,2.12132)" class="st1">
					<rect x="0" y="651.975" width="54" height="25.2" class="st2"/>
				</g>
				<rect x="0" y="651.975" width="54" height="25.2" class="st3"/>
				<text x="15.34" y="668.18" class="st6" v:langID="1033"><v:paragraph v:horizAlign="1"/><v:tabList/>App</text>			</g>
		</g>
		<g id="group6-31" transform="translate(211.5,-630)" v:mID="6" v:groupContext="group">
			<v:userDefs>
				<v:ud v:nameU="visVersion" v:prompt="" v:val="VT0(15):26"/>
				<v:ud v:nameU="ShowActor" v:prompt="" v:val="VT0(0):5"/>
				<v:ud v:nameU="ShowDestruction" v:prompt="" v:val="VT0(0):5"/>
			</v:userDefs>
			<title>Object lifeline.6</title>
			<desc>FileIO</desc>
			<g id="shape7-32" v:mID="7" v:groupContext="shape">
				<title>Sheet.7</title>
				<g id="shadow7-33" v:groupContext="shadow" v:shadowOffsetX="2.12132" v:shadowOffsetY="-2.12132" v:shadowType="1"
						transform="matrix(1,0,0,1,2.12132,2.12132)" class="st1">
					<rect x="0" y="651.975" width="54" height="25.2" class="st2"/>
				</g>
				<rect x="0" y="651.975" width="54" height="25.2" class="st3"/>
			</g>
			<g id="shape8-37" v:mID="8" v:groupContext="shape" transform="translate(18,-28.8)">
				<title>Sheet.8</title>
				<g id="shadow8-38" v:groupContext="shadow" v:shadowOffsetX="2.12132" v:shadowOffsetY="-2.12132" v:shadowType="1"
						transform="matrix(1,0,0,1,2.12132,2.12132)" class="st1">
					<path d="M9 677.17 a0 0 0 1 1 0 0 a0 0 0 1 1 0 0 Z" class="st2"/>
				</g>
				<path d="M9 677.17 a0 0 0 1 1 0 0 a0 0 0 1 1 0 0 Z" class="st3"/>
			</g>
			<g id="shape9-42" v:mID="9" v:groupContext="shape" transform="translate(18,607.5)">
				<title>Sheet.9</title>
				<g id="shadow9-43" v:groupContext="shadow" v:shadowOffsetX="2.12132" v:shadowOffsetY="-2.12132" v:shadowType="1"
						transform="matrix(1,0,0,1,2.12132,2.12132)" class="st1"/>
			</g>
			<g id="shape10-47" v:mID="10" v:groupContext="shape" transform="translate(704.175,677.175) rotate(90)">
				<title>Sheet.10</title>
				<g id="shadow10-48" v:groupContext="shadow" v:shadowOffsetX="2.12132" v:shadowOffsetY="-2.12132" v:shadowType="1"
						transform="matrix(1,0,0,1,2.12132,-2.12132)" class="st1">
					<path d="M0 677.17 L589.5 677.17" class="st4"/>
				</g>
				<path d="M0 677.17 L589.5 677.17" class="st5"/>
			</g>
			<g id="shape6-55" v:mID="6" v:groupContext="groupContent">
				<v:textBlock v:margins="rect(4,4,4,4)"/>
				<v:textRect cx="27" cy="664.575" width="54" height="25.2"/>
				<g id="shadow6-56" v:groupContext="shadow" v:shadowOffsetX="2.12132" v:shadowOffsetY="-2.12132" v:shadowType="1"
						transform="matrix(1,0,0,1,2.12132,2.12132)" class="st1">
					<rect x="0" y="651.975" width="54" height="25.2" class="st2"/>
				</g>
				<rect x="0" y="651.975" width="54" height="25.2" class="st3"/>
				<text x="10.77" y="668.18" class="st6" v:langID="1033"><v:paragraph v:horizAlign="1"/><v:tabList/>FileIO</text>			</g>
		</g>
		<g id="group11-61" transform="translate(387,-630)" v:mID="11" v:groupContext="group">
			<v:userDefs>
				<v:ud v:nameU="visVersion" v:prompt="" v:val="VT0(15):26"/>
				<v:ud v:nameU="ShowActor" v:prompt="" v:val="VT0(0):5"/>
				<v:ud v:nameU="ShowDestruction" v:prompt="" v:val="VT0(0):5"/>
			</v:userDefs>
			<title>Object lifeline.11</title>
			<desc>StorageFile</desc>
			<g id="shape12-62" v:mID="12" v:groupContext="shape" transform="translate(9,0)">
				<title>Sheet.12</title>
				<g id="shadow12-63" v:groupContext="shadow" v:shadowOffsetX="2.12132" v:shadowOffsetY="-2.12132" v:shadowType="1"
						transform="matrix(1,0,0,1,2.12132,2.12132)" class="st1">
					<rect x="0" y="651.975" width="54" height="25.2" class="st2"/>
				</g>
				<rect x="0" y="651.975" width="54" height="25.2" class="st3"/>
			</g>
			<g id="shape13-67" v:mID="13" v:groupContext="shape" transform="translate(27,-28.8)">
				<title>Sheet.13</title>
				<g id="shadow13-68" v:groupContext="shadow" v:shadowOffsetX="2.12132" v:shadowOffsetY="-2.12132" v:shadowType="1"
						transform="matrix(1,0,0,1,2.12132,2.12132)" class="st1">
					<path d="M9 677.17 a0 0 0 1 1 0 0 a0 0 0 1 1 0 0 Z" class="st2"/>
				</g>
				<path d="M9 677.17 a0 0 0 1 1 0 0 a0 0 0 1 1 0 0 Z" class="st3"/>
			</g>
			<g id="shape14-72" v:mID="14" v:groupContext="shape" transform="translate(24,612)">
				<title>Sheet.14</title>
				<g id="shadow14-73" v:groupContext="shadow" v:shadowOffsetX="2.12132" v:shadowOffsetY="-2.12132" v:shadowType="1"
						transform="matrix(1,0,0,1,2.12132,2.12132)" class="st1"/>
			</g>
			<g id="shape15-77" v:mID="15" v:groupContext="shape" transform="translate(713.175,677.175) rotate(90)">
				<title>Sheet.15</title>
				<g id="shadow15-78" v:groupContext="shadow" v:shadowOffsetX="2.12132" v:shadowOffsetY="-2.12132" v:shadowType="1"
						transform="matrix(1,0,0,1,2.12132,-2.12132)" class="st1">
					<path d="M0 677.17 L594 677.17" class="st4"/>
				</g>
				<path d="M0 677.17 L594 677.17" class="st5"/>
			</g>
			<g id="shape11-85" v:mID="11" v:groupContext="groupContent">
				<v:textBlock v:margins="rect(4,4,4,4)"/>
				<v:textRect cx="36" cy="664.575" width="72.01" height="25.2"/>
				<g id="shadow11-86" v:groupContext="shadow" v:shadowOffsetX="2.12132" v:shadowOffsetY="-2.12132" v:shadowType="1"
						transform="matrix(1,0,0,1,2.12132,2.12132)" class="st1">
					<rect x="0" y="651.975" width="72" height="25.2" class="st2"/>
				</g>
				<rect x="0" y="651.975" width="72" height="25.2" class="st3"/>
				<text x="4.28" y="668.18" class="st6" v:langID="1033"><v:paragraph v:horizAlign="1"/><v:tabList/>StorageFile</text>			</g>
		</g>
		<g id="group16-91" transform="translate(477,-630)" v:mID="16" v:groupContext="group">
			<v:userDefs>
				<v:ud v:nameU="visVersion" v:prompt="" v:val="VT0(15):26"/>
				<v:ud v:nameU="ShowActor" v:prompt="" v:val="VT0(0):5"/>
				<v:ud v:nameU="ShowDestruction" v:prompt="" v:val="VT0(0):5"/>
			</v:userDefs>
			<title>Object lifeline.16</title>
			<desc>StorageStreamTransaction</desc>
			<g id="shape17-92" v:mID="17" v:groupContext="shape" transform="translate(54,0)">
				<title>Sheet.17</title>
				<g id="shadow17-93" v:groupContext="shadow" v:shadowOffsetX="2.12132" v:shadowOffsetY="-2.12132" v:shadowType="1"
						transform="matrix(1,0,0,1,2.12132,2.12132)" class="st1">
					<rect x="0" y="651.975" width="54" height="25.2" class="st2"/>
				</g>
				<rect x="0" y="651.975" width="54" height="25.2" class="st3"/>
			</g>
			<g id="shape18-97" v:mID="18" v:groupContext="shape" transform="translate(72,-28.8)">
				<title>Sheet.18</title>
				<g id="shadow18-98" v:groupContext="shadow" v:shadowOffsetX="2.12132" v:shadowOffsetY="-2.12132" v:shadowType="1"
						transform="matrix(1,0,0,1,2.12132,2.12132)" class="st1">
					<path d="M9 677.17 a0 0 0 1 1 0 0 a0 0 0 1 1 0 0 Z" class="st2"/>
				</g>
				<path d="M9 677.17 a0 0 0 1 1 0 0 a0 0 0 1 1 0 0 Z" class="st3"/>
			</g>
			<g id="shape19-102" v:mID="19" v:groupContext="shape" transform="translate(54,612)">
				<title>Sheet.19</title>
				<g id="shadow19-103" v:groupContext="shadow" v:shadowOffsetX="2.12132" v:shadowOffsetY="-2.12132" v:shadowType="1"
						transform="matrix(1,0,0,1,2.12132,2.12132)" class="st1"/>
			</g>
			<g id="shape20-107" v:mID="20" v:groupContext="shape" transform="translate(758.175,677.175) rotate(90)">
				<title>Sheet.20</title>
				<g id="shadow20-108" v:groupContext="shadow" v:shadowOffsetX="2.12132" v:shadowOffsetY="-2.12132" v:shadowType="1"
						transform="matrix(1,0,0,1,2.12132,-2.12132)" class="st1">
					<path d="M0 677.17 L594 677.17" class="st4"/>
				</g>
				<path d="M0 677.17 L594 677.17" class="st5"/>
			</g>
			<g id="shape16-115" v:mID="16" v:groupContext="groupContent">
				<v:textBlock v:margins="rect(4,4,4,4)"/>
				<v:textRect cx="81" cy="664.575" width="162" height="25.2"/>
				<g id="shadow16-116" v:groupContext="shadow" v:shadowOffsetX="2.12132" v:shadowOffsetY="-2.12132" v:shadowType="1"
						transform="matrix(1,0,0,1,2.12132,2.12132)" class="st1">
					<rect x="0" y="651.975" width="162" height="25.2" class="st2"/>
				</g>
				<rect x="0" y="651.975" width="162" height="25.2" class="st3"/>
				<text x="6.15" y="668.18" class="st6" v:langID="1033"><v:paragraph v:horizAlign="1"/><v:tabList/>StorageStreamTransaction</text>			</g>
		</g>
		<g id="group21-121" transform="translate(702,-630)" v:mID="21" v:groupContext="group">
			<v:userDefs>
				<v:ud v:nameU="visVersion" v:prompt="" v:val="VT0(15):26"/>
				<v:ud v:nameU="ShowActor" v:prompt="" v:val="VT0(0):5"/>
				<v:ud v:nameU="ShowDestruction" v:prompt="" v:val="VT0(0):5"/>
			</v:userDefs>
			<title>Object lifeline.21</title>
			<desc>Stream</desc>
			<g id="shape22-122" v:mID="22" v:groupContext="shape">
				<title>Sheet.22</title>
				<g id="shadow22-123" v:groupContext="shadow" v:shadowOffsetX="2.12132" v:shadowOffsetY="-2.12132" v:shadowType="1"
						transform="matrix(1,0,0,1,2.12132,2.12132)" class="st1">
					<rect x="0" y="651.975" width="54" height="25.2" class="st2"/>
				</g>
				<rect x="0" y="651.975" width="54" height="25.2" class="st3"/>
			</g>
			<g id="shape23-127" v:mID="23" v:groupContext="shape" transform="translate(18,-28.8)">
				<title>Sheet.23</title>
				<g id="shadow23-128" v:groupContext="shadow" v:shadowOffsetX="2.12132" v:shadowOffsetY="-2.12132" v:shadowType="1"
						transform="matrix(1,0,0,1,2.12132,2.12132)" class="st1">
					<path d="M9 677.17 a0 0 0 1 1 0 0 a0 0 0 1 1 0 0 Z" class="st2"/>
				</g>
				<path d="M9 677.17 a0 0 0 1 1 0 0 a0 0 0 1 1 0 0 Z" class="st3"/>
			</g>
			<g id="shape24-132" v:mID="24" v:groupContext="shape" transform="translate(18,612)">
				<title>Sheet.24</title>
				<g id="shadow24-133" v:groupContext="shadow" v:shadowOffsetX="2.12132" v:shadowOffsetY="-2.12132" v:shadowType="1"
						transform="matrix(1,0,0,1,2.12132,2.12132)" class="st1"/>
			</g>
			<g id="shape25-137" v:mID="25" v:groupContext="shape" transform="translate(704.175,677.175) rotate(90)">
				<title>Sheet.25</title>
				<g id="shadow25-138" v:groupContext="shadow" v:shadowOffsetX="2.12132" v:shadowOffsetY="-2.12132" v:shadowType="1"
						transform="matrix(1,0,0,1,2.12132,-2.12132)" class="st1">
					<path d="M0 677.17 L594 677.17" class="st4"/>
				</g>
				<path d="M0 677.17 L594 677.17" class="st5"/>
			</g>
			<g id="shape21-145" v:mID="21" v:groupContext="groupContent">
				<v:textBlock v:margins="rect(4,4,4,4)"/>
				<v:textRect cx="27" cy="664.575" width="54" height="25.2"/>
				<g id="shadow21-146" v:groupContext="shadow" v:shadowOffsetX="2.12132" v:shadowOffsetY="-2.12132" v:shadowType="1"
						transform="matrix(1,0,0,1,2.12132,2.12132)" class="st1">
					<rect x="0" y="651.975" width="54" height="25.2" class="st2"/>
				</g>
				<rect x="0" y="651.975" width="54" height="25.2" class="st3"/>
				<text x="6.94" y="668.18" class="st6" v:langID="1033"><v:paragraph v:horizAlign="1"/><v:tabList/>Stream</text>			</g>
		</g>
		<g id="group26-151" transform="translate(774,-630)" v:mID="26" v:groupContext="group">
			<v:userDefs>
				<v:ud v:nameU="visVersion" v:prompt="" v:val="VT0(15):26"/>
				<v:ud v:nameU="ShowActor" v:prompt="" v:val="VT0(0):5"/>
				<v:ud v:nameU="ShowDestruction" v:prompt="" v:val="VT0(0):5"/>
			</v:userDefs>
			<title>Object lifeline.26</title>
			<desc>file.txt</desc>
			<g id="shape27-152" v:mID="27" v:groupContext="shape">
				<title>Sheet.27</title>
				<g id="shadow27-153" v:groupContext="shadow" v:shadowOffsetX="2.12132" v:shadowOffsetY="-2.12132" v:shadowType="1"
						transform="matrix(1,0,0,1,2.12132,2.12132)" class="st1">
					<rect x="0" y="651.975" width="54" height="25.2" class="st2"/>
				</g>
				<rect x="0" y="651.975" width="54" height="25.2" class="st3"/>
			</g>
			<g id="shape28-157" v:mID="28" v:groupContext="shape" transform="translate(18,-28.8)">
				<title>Sheet.28</title>
				<g id="shadow28-158" v:groupContext="shadow" v:shadowOffsetX="2.12132" v:shadowOffsetY="-2.12132" v:shadowType="1"
						transform="matrix(1,0,0,1,2.12132,2.12132)" class="st1">
					<path d="M9 677.17 a0 0 0 1 1 0 0 a0 0 0 1 1 0 0 Z" class="st2"/>
				</g>
				<path d="M9 677.17 a0 0 0 1 1 0 0 a0 0 0 1 1 0 0 Z" class="st3"/>
			</g>
			<g id="shape29-162" v:mID="29" v:groupContext="shape" transform="translate(18,612)">
				<title>Sheet.29</title>
				<g id="shadow29-163" v:groupContext="shadow" v:shadowOffsetX="2.12132" v:shadowOffsetY="-2.12132" v:shadowType="1"
						transform="matrix(1,0,0,1,2.12132,2.12132)" class="st1"/>
			</g>
			<g id="shape30-167" v:mID="30" v:groupContext="shape" transform="translate(704.175,677.175) rotate(90)">
				<title>Sheet.30</title>
				<g id="shadow30-168" v:groupContext="shadow" v:shadowOffsetX="2.12132" v:shadowOffsetY="-2.12132" v:shadowType="1"
						transform="matrix(1,0,0,1,2.12132,-2.12132)" class="st1">
					<path d="M0 677.17 L594 677.17" class="st4"/>
				</g>
				<path d="M0 677.17 L594 677.17" class="st5"/>
			</g>
			<g id="shape26-175" v:mID="26" v:groupContext="groupContent">
				<v:textBlock v:margins="rect(4,4,4,4)"/>
				<v:textRect cx="27" cy="664.575" width="54.01" height="25.2"/>
				<g id="shadow26-176" v:groupContext="shadow" v:shadowOffsetX="2.12132" v:shadowOffsetY="-2.12132" v:shadowType="1"
						transform="matrix(1,0,0,1,2.12132,2.12132)" class="st1">
					<rect x="0" y="651.975" width="54" height="25.2" class="st2"/>
				</g>
				<rect x="0" y="651.975" width="54" height="25.2" class="st3"/>
				<text x="8.43" y="668.18" class="st6" v:langID="1033"><v:paragraph v:horizAlign="1"/><v:tabList/>file.txt</text>			</g>
		</g>
		<g id="group31-181" transform="translate(846,-630)" v:mID="31" v:groupContext="group">
			<v:userDefs>
				<v:ud v:nameU="visVersion" v:prompt="" v:val="VT0(15):26"/>
				<v:ud v:nameU="ShowActor" v:prompt="" v:val="VT0(0):5"/>
				<v:ud v:nameU="ShowDestruction" v:prompt="" v:val="VT0(0):5"/>
			</v:userDefs>
			<title>Object lifeline.31</title>
			<desc>file.txt~TMP</desc>
			<g id="shape32-182" v:mID="32" v:groupContext="shape" transform="translate(13.5,0)">
				<title>Sheet.32</title>
				<g id="shadow32-183" v:groupContext="shadow" v:shadowOffsetX="2.12132" v:shadowOffsetY="-2.12132" v:shadowType="1"
						transform="matrix(1,0,0,1,2.12132,2.12132)" class="st1">
					<rect x="0" y="651.975" width="54" height="25.2" class="st2"/>
				</g>
				<rect x="0" y="651.975" width="54" height="25.2" class="st3"/>
			</g>
			<g id="shape33-187" v:mID="33" v:groupContext="shape" transform="translate(31.5,-28.8)">
				<title>Sheet.33</title>
				<g id="shadow33-188" v:groupContext="shadow" v:shadowOffsetX="2.12132" v:shadowOffsetY="-2.12132" v:shadowType="1"
						transform="matrix(1,0,0,1,2.12132,2.12132)" class="st1">
					<path d="M9 677.17 a0 0 0 1 1 0 0 a0 0 0 1 1 0 0 Z" class="st2"/>
				</g>
				<path d="M9 677.17 a0 0 0 1 1 0 0 a0 0 0 1 1 0 0 Z" class="st3"/>
			</g>
			<g id="shape34-192" v:mID="34" v:groupContext="shape" transform="translate(27,612)">
				<title>Sheet.34</title>
				<g id="shadow34-193" v:groupContext="shadow" v:shadowOffsetX="2.12132" v:shadowOffsetY="-2.12132" v:shadowType="1"
						transform="matrix(1,0,0,1,2.12132,2.12132)" class="st1"/>
			</g>
			<g id="shape35-197" v:mID="35" v:groupContext="shape" transform="translate(717.675,677.175) rotate(90)">
				<title>Sheet.35</title>
				<g id="shadow35-198" v:groupContext="shadow" v:shadowOffsetX="2.12132" v:shadowOffsetY="-2.12132" v:shadowType="1"
						transform="matrix(1,0,0,1,2.12132,-2.12132)" class="st1">
					<path d="M0 677.17 L594 677.17" class="st4"/>
				</g>
				<path d="M0 677.17 L594 677.17" class="st5"/>
			</g>
			<g id="shape31-205" v:mID="31" v:groupContext="groupContent">
				<v:textBlock v:margins="rect(4,4,4,4)"/>
				<v:textRect cx="40.5" cy="664.575" width="81" height="25.2"/>
				<g id="shadow31-206" v:groupContext="shadow" v:shadowOffsetX="2.12132" v:shadowOffsetY="-2.12132" v:shadowType="1"
						transform="matrix(1,0,0,1,2.12132,2.12132)" class="st1">
					<rect x="0" y="651.975" width="81" height="25.2" class="st2"/>
				</g>
				<rect x="0" y="651.975" width="81" height="25.2" class="st3"/>
				<text x="4.75" y="668.18" class="st6" v:langID="1033"><v:paragraph v:horizAlign="1"/><v:tabList/>file.txt~TMP</text>			</g>
		</g>
		<g id="shape36-211" v:mID="36" v:groupContext="shape" v:layerMember="0" transform="translate(47.2537,-603)">
			<title>Message</title>
			<desc>1. WriteTextAsync(file.txt, text)</desc>
			<v:userDefs>
				<v:ud v:nameU="IsReturn" v:prompt="" v:val="VT0(0):5"/>
				<v:ud v:nameU="IsAsync" v:prompt="" v:val="VT0(0):26"/>
				<v:ud v:nameU="IsSelfMessage" v:prompt="" v:val="VT0(0):5"/>
				<v:ud v:nameU="visVersion" v:prompt="" v:val="VT0(15):26"/>
			</v:userDefs>
			<v:textBlock v:margins="rect(4,4,4,4)"/>
			<v:textRect cx="95.6232" cy="668.175" width="173.81" height="22.4037"/>
			<path d="M0 668.17 L182.77 668.17" class="st7"/>
			<rect v:rectContext="textBkgnd" x="14.3656" y="660.975" width="162.515" height="14.4001" class="st9"/>
			<text x="17.65" y="671.78" class="st10" v:langID="1033"><v:paragraph v:horizAlign="1"/><v:tabList/>1. WriteTextAsync(file.txt, text)</text>		</g>
		<g id="shape37-219" v:mID="37" v:groupContext="shape" v:layerMember="0" transform="translate(238.5,-585)">
			<title>Message.46</title>
			<desc>2. IAsyncOperation</desc>
			<v:userDefs>
				<v:ud v:nameU="IsReturn" v:prompt="" v:val="VT0(0):5"/>
				<v:ud v:nameU="IsAsync" v:prompt="" v:val="VT0(0):26"/>
				<v:ud v:nameU="IsSelfMessage" v:prompt="" v:val="VT0(0):5"/>
				<v:ud v:nameU="visVersion" v:prompt="" v:val="VT0(15):26"/>
			</v:userDefs>
			<v:textBlock v:margins="rect(4,4,4,4)"/>
			<v:textRect cx="-95.6232" cy="668.175" width="117.84" height="22.4037"/>
			<path d="M0 668.17 L-182.77 668.17" class="st11"/>
			<rect v:rectContext="textBkgnd" x="-148.897" y="660.975" width="106.548" height="14.4001" class="st13"/>
			<text x="-142.32" y="671.78" class="st10" v:langID="1033"><v:paragraph v:horizAlign="1"/><v:tabList/>2. IAsyncOperation</text>		</g>
		<g id="shape38-227" v:mID="38" v:groupContext="shape" v:layerMember="0" transform="translate(238.5,-567)">
			<title>Message.38</title>
			<desc>3. OpenTransactedWriteAsync</desc>
			<v:userDefs>
				<v:ud v:nameU="IsReturn" v:prompt="" v:val="VT0(0):5"/>
				<v:ud v:nameU="IsAsync" v:prompt="" v:val="VT0(0):26"/>
				<v:ud v:nameU="IsSelfMessage" v:prompt="" v:val="VT0(0):5"/>
				<v:ud v:nameU="visVersion" v:prompt="" v:val="VT0(15):26"/>
			</v:userDefs>
			<v:textBlock v:margins="rect(4,4,4,4)"/>
			<v:textRect cx="92.25" cy="668.175" width="173.21" height="22.4037"/>
			<path d="M0 668.17 L176.02 668.17" class="st7"/>
			<rect v:rectContext="textBkgnd" x="11.2905" y="660.975" width="161.919" height="14.4001" class="st9"/>
			<text x="14.58" y="671.78" class="st10" v:langID="1033"><v:paragraph v:horizAlign="1"/><v:tabList/>3. OpenTransactedWriteAsync</text>		</g>
		<g id="shape39-234" v:mID="39" v:groupContext="shape" v:layerMember="0" transform="translate(423,-549)">
			<title>Message.39</title>
			<desc>4. Create</desc>
			<v:userDefs>
				<v:ud v:nameU="IsReturn" v:prompt="" v:val="VT0(0):5"/>
				<v:ud v:nameU="IsAsync" v:prompt="" v:val="VT0(0):26"/>
				<v:ud v:nameU="IsSelfMessage" v:prompt="" v:val="VT0(0):5"/>
				<v:ud v:nameU="visVersion" v:prompt="" v:val="VT0(15):26"/>
			</v:userDefs>
			<v:textBlock v:margins="rect(4,4,4,4)"/>
			<v:textRect cx="67.5" cy="668.175" width="61.26" height="22.4037"/>
			<path d="M0 668.17 L126.52 668.17" class="st7"/>
			<rect v:rectContext="textBkgnd" x="42.5156" y="660.975" width="49.9688" height="14.4001" class="st13"/>
			<text x="45.8" y="671.78" class="st10" v:langID="1033"><v:paragraph v:horizAlign="1"/><v:tabList/>4. Create</text>		</g>
		<g id="shape40-241" v:mID="40" v:groupContext="shape" v:layerMember="0" transform="translate(558,-549)">
			<title>Message.40</title>
			<desc>5. Open exclusive</desc>
			<v:userDefs>
				<v:ud v:nameU="IsReturn" v:prompt="" v:val="VT0(0):5"/>
				<v:ud v:nameU="IsAsync" v:prompt="" v:val="VT0(0):26"/>
				<v:ud v:nameU="IsSelfMessage" v:prompt="" v:val="VT0(0):5"/>
				<v:ud v:nameU="visVersion" v:prompt="" v:val="VT0(15):26"/>
			</v:userDefs>
			<v:textBlock v:margins="rect(4,4,4,4)"/>
			<v:textRect cx="121.5" cy="686.175" width="106.44" height="22.4037"/>
			<path d="M0 686.17 L234.52 686.18" class="st7"/>
			<rect v:rectContext="textBkgnd" x="73.9275" y="678.975" width="95.1449" height="14.4001" class="st13"/>
			<text x="77.21" y="689.78" class="st10" v:langID="1033"><v:paragraph v:horizAlign="1"/><v:tabList/>5. Open exclusive</text>		</g>
		<g id="shape41-248" v:mID="41" v:groupContext="shape" v:layerMember="0" transform="translate(801,-513)">
			<title>Message.41</title>
			<desc>6. File handle</desc>
			<v:userDefs>
				<v:ud v:nameU="IsReturn" v:prompt="" v:val="VT0(0):5"/>
				<v:ud v:nameU="IsAsync" v:prompt="" v:val="VT0(0):26"/>
				<v:ud v:nameU="IsSelfMessage" v:prompt="" v:val="VT0(0):5"/>
				<v:ud v:nameU="visVersion" v:prompt="" v:val="VT0(15):26"/>
			</v:userDefs>
			<v:textBlock v:margins="rect(4,4,4,4)"/>
			<v:textRect cx="-121.5" cy="668.175" width="84.11" height="22.4037"/>
			<path d="M0 668.18 L-234.52 668.17" class="st11"/>
			<rect v:rectContext="textBkgnd" x="-157.907" y="660.975" width="72.8146" height="14.4001" class="st9"/>
			<text x="-154.62" y="671.78" class="st10" v:langID="1033"><v:paragraph v:horizAlign="1"/><v:tabList/>6. File handle</text>		</g>
		<g id="shape42-255" v:mID="42" v:groupContext="shape" v:layerMember="0" transform="translate(558,-495)">
			<title>Message.42</title>
			<desc>7. Create</desc>
			<v:userDefs>
				<v:ud v:nameU="IsReturn" v:prompt="" v:val="VT0(0):5"/>
				<v:ud v:nameU="IsAsync" v:prompt="" v:val="VT0(0):26"/>
				<v:ud v:nameU="IsSelfMessage" v:prompt="" v:val="VT0(0):5"/>
				<v:ud v:nameU="visVersion" v:prompt="" v:val="VT0(15):26"/>
			</v:userDefs>
			<v:textBlock v:margins="rect(4,4,4,4)"/>
			<v:textRect cx="164.25" cy="686.175" width="61.26" height="22.4037"/>
			<path d="M0 686.17 L320.02 686.18" class="st7"/>
			<rect v:rectContext="textBkgnd" x="139.266" y="678.975" width="49.9688" height="14.4001" class="st9"/>
			<text x="142.55" y="689.78" class="st10" v:langID="1033"><v:paragraph v:horizAlign="1"/><v:tabList/>7. Create</text>		</g>
		<g id="shape43-262" v:mID="43" v:groupContext="shape" v:layerMember="0" transform="translate(886.5,-459)">
			<title>Message.43</title>
			<desc>8. Temp file handle</desc>
			<v:userDefs>
				<v:ud v:nameU="IsReturn" v:prompt="" v:val="VT0(0):5"/>
				<v:ud v:nameU="IsAsync" v:prompt="" v:val="VT0(0):26"/>
				<v:ud v:nameU="IsSelfMessage" v:prompt="" v:val="VT0(0):5"/>
				<v:ud v:nameU="visVersion" v:prompt="" v:val="VT0(15):26"/>
			</v:userDefs>
			<v:textBlock v:margins="rect(4,4,4,4)"/>
			<v:textRect cx="-164.25" cy="668.175" width="115.25" height="22.4037"/>
			<path d="M0 668.18 L-320.02 668.17" class="st11"/>
			<rect v:rectContext="textBkgnd" x="-216.226" y="660.975" width="103.952" height="14.4001" class="st13"/>
			<text x="-212.94" y="671.78" class="st10" v:langID="1033"><v:paragraph v:horizAlign="1"/><v:tabList/>8. Temp file handle</text>		</g>
		<g id="shape44-269" v:mID="44" v:groupContext="shape" v:layerMember="0" transform="translate(558,-441)">
			<title>Message.44</title>
			<desc>9. CreateFrom(file.txt~TMP)</desc>
			<v:userDefs>
				<v:ud v:nameU="IsReturn" v:prompt="" v:val="VT0(0):5"/>
				<v:ud v:nameU="IsAsync" v:prompt="" v:val="VT0(0):26"/>
				<v:ud v:nameU="IsSelfMessage" v:prompt="" v:val="VT0(0):5"/>
				<v:ud v:nameU="visVersion" v:prompt="" v:val="VT0(15):26"/>
			</v:userDefs>
			<v:textBlock v:margins="rect(4,4,4,4)"/>
			<v:textRect cx="85.5" cy="686.175" width="159.98" height="22.4037"/>
			<path d="M0 686.17 L162.52 686.18" class="st7"/>
			<rect v:rectContext="textBkgnd" x="11.1563" y="678.975" width="148.687" height="14.4001" class="st9"/>
			<text x="14.44" y="689.78" class="st10" v:langID="1033"><v:paragraph v:horizAlign="1"/><v:tabList/>9. CreateFrom(file.txt~TMP)</text>		</g>
		<g id="shape45-276" v:mID="45" v:groupContext="shape" v:layerMember="0" transform="translate(558,-405)">
			<title>Message.45</title>
			<desc>10.</desc>
			<v:userDefs>
				<v:ud v:nameU="IsReturn" v:prompt="" v:val="VT0(0):5"/>
				<v:ud v:nameU="IsAsync" v:prompt="" v:val="VT0(0):26"/>
				<v:ud v:nameU="IsSelfMessage" v:prompt="" v:val="VT0(0):5"/>
				<v:ud v:nameU="visVersion" v:prompt="" v:val="VT0(15):26"/>
			</v:userDefs>
			<v:textBlock v:margins="rect(4,4,4,4)"/>
			<v:textRect cx="-67.5" cy="668.175" width="60.01" height="22.4037"/>
			<path d="M0 668.17 L-126.52 668.17" class="st11"/>
			<rect v:rectContext="textBkgnd" x="-78.5566" y="660.975" width="22.1133" height="14.4001" class="st9"/>
			<text x="-71.98" y="671.78" class="st10" v:langID="1033"><v:paragraph v:horizAlign="1"/><v:tabList/>10.</text>		</g>
		<g id="shape46-283" v:mID="46" v:groupContext="shape" v:layerMember="0" transform="translate(423,-387)">
			<title>Message.46</title>
			<desc>11. StorageStreamTransaction</desc>
			<v:userDefs>
				<v:ud v:nameU="IsReturn" v:prompt="" v:val="VT0(0):5"/>
				<v:ud v:nameU="IsAsync" v:prompt="" v:val="VT0(0):26"/>
				<v:ud v:nameU="IsSelfMessage" v:prompt="" v:val="VT0(0):5"/>
				<v:ud v:nameU="visVersion" v:prompt="" v:val="VT0(15):26"/>
			</v:userDefs>
			<v:textBlock v:margins="rect(4,4,4,4)"/>
			<v:textRect cx="-92.25" cy="668.175" width="176.01" height="22.4037"/>
			<path d="M0 668.17 L-176.02 668.17" class="st11"/>
			<rect v:rectContext="textBkgnd" x="-174.607" y="660.975" width="164.714" height="14.4001" class="st9"/>
			<text x="-168.03" y="671.78" class="st10" v:langID="1033"><v:paragraph v:horizAlign="1"/><v:tabList/>11. StorageStreamTransaction</text>		</g>
		<g id="shape47-290" v:mID="47" v:groupContext="shape" v:layerMember="0" transform="translate(238.5,-351)">
			<title>Message.47</title>
			<desc>12. Stream</desc>
			<v:userDefs>
				<v:ud v:nameU="IsReturn" v:prompt="" v:val="VT0(0):5"/>
				<v:ud v:nameU="IsAsync" v:prompt="" v:val="VT0(0):26"/>
				<v:ud v:nameU="IsSelfMessage" v:prompt="" v:val="VT0(0):5"/>
				<v:ud v:nameU="visVersion" v:prompt="" v:val="VT0(15):26"/>
			</v:userDefs>
			<v:textBlock v:margins="rect(4,4,4,4)"/>
			<v:textRect cx="159.75" cy="668.175" width="70.74" height="22.4037"/>
			<path d="M0 668.17 L311.02 668.17" class="st7"/>
			<rect v:rectContext="textBkgnd" x="130.028" y="660.975" width="59.4435" height="14.4001" class="st13"/>
			<text x="133.32" y="671.78" class="st10" v:langID="1033"><v:paragraph v:horizAlign="1"/><v:tabList/>12. Stream</text>		</g>
		<g id="shape48-297" v:mID="48" v:groupContext="shape" v:layerMember="0" transform="translate(558,-333)">
			<title>Message.48</title>
			<desc>13. Stream</desc>
			<v:userDefs>
				<v:ud v:nameU="IsReturn" v:prompt="" v:val="VT0(0):5"/>
				<v:ud v:nameU="IsAsync" v:prompt="" v:val="VT0(0):26"/>
				<v:ud v:nameU="IsSelfMessage" v:prompt="" v:val="VT0(0):5"/>
				<v:ud v:nameU="visVersion" v:prompt="" v:val="VT0(15):26"/>
			</v:userDefs>
			<v:textBlock v:margins="rect(4,4,4,4)"/>
			<v:textRect cx="-159.75" cy="668.175" width="74.03" height="22.4037"/>
			<path d="M0 668.17 L-311.02 668.17" class="st11"/>
			<rect v:rectContext="textBkgnd" x="-191.115" y="660.975" width="62.7306" height="14.4001" class="st13"/>
			<text x="-184.54" y="671.78" class="st10" v:langID="1033"><v:paragraph v:horizAlign="1"/><v:tabList/>13. Stream</text>		</g>
		<g id="shape49-304" v:mID="49" v:groupContext="shape" v:layerMember="0" transform="translate(238.5,-315)">
			<title>Message.49</title>
			<desc>14. WriteText</desc>
			<v:userDefs>
				<v:ud v:nameU="IsReturn" v:prompt="" v:val="VT0(0):5"/>
				<v:ud v:nameU="IsAsync" v:prompt="" v:val="VT0(0):26"/>
				<v:ud v:nameU="IsSelfMessage" v:prompt="" v:val="VT0(0):5"/>
				<v:ud v:nameU="visVersion" v:prompt="" v:val="VT0(15):26"/>
			</v:userDefs>
			<v:textBlock v:margins="rect(4,4,4,4)"/>
			<v:textRect cx="245.25" cy="686.175" width="84.17" height="22.4037"/>
			<path d="M0 686.17 L482.02 686.18" class="st7"/>
			<rect v:rectContext="textBkgnd" x="208.811" y="678.975" width="72.8786" height="14.4001" class="st9"/>
			<text x="212.1" y="689.78" class="st10" v:langID="1033"><v:paragraph v:horizAlign="1"/><v:tabList/>14. WriteText</text>		</g>
		<g id="shape50-311" v:mID="50" v:groupContext="shape" v:layerMember="0" transform="translate(238.5,-261)">
			<title>Message.50</title>
			<desc>15. CommitAsync</desc>
			<v:userDefs>
				<v:ud v:nameU="IsReturn" v:prompt="" v:val="VT0(0):5"/>
				<v:ud v:nameU="IsAsync" v:prompt="" v:val="VT0(0):26"/>
				<v:ud v:nameU="IsSelfMessage" v:prompt="" v:val="VT0(0):5"/>
				<v:ud v:nameU="visVersion" v:prompt="" v:val="VT0(15):26"/>
			</v:userDefs>
			<v:textBlock v:margins="rect(4,4,4,4)"/>
			<v:textRect cx="159.75" cy="668.175" width="106.49" height="22.4037"/>
			<path d="M0 668.17 L311.02 668.17" class="st7"/>
			<rect v:rectContext="textBkgnd" x="112.154" y="660.975" width="95.1916" height="14.4001" class="st9"/>
			<text x="115.44" y="671.78" class="st10" v:langID="1033"><v:paragraph v:horizAlign="1"/><v:tabList/>15. CommitAsync</text>		</g>
		<g id="shape51-318" v:mID="51" v:groupContext="shape" v:layerMember="0" transform="translate(558,-243)">
			<title>Message.51</title>
			<desc>16. Flush</desc>
			<v:userDefs>
				<v:ud v:nameU="IsReturn" v:prompt="" v:val="VT0(0):5"/>
				<v:ud v:nameU="IsAsync" v:prompt="" v:val="VT0(0):26"/>
				<v:ud v:nameU="IsSelfMessage" v:prompt="" v:val="VT0(0):5"/>
				<v:ud v:nameU="visVersion" v:prompt="" v:val="VT0(15):26"/>
			</v:userDefs>
			<v:textBlock v:margins="rect(4,4,4,4)"/>
			<v:textRect cx="85.5" cy="686.175" width="60.85" height="22.4037"/>
			<path d="M0 686.17 L162.52 686.18" class="st7"/>
			<rect v:rectContext="textBkgnd" x="60.7234" y="678.975" width="49.553" height="14.4001" class="st9"/>
			<text x="64.01" y="689.78" class="st10" v:langID="1033"><v:paragraph v:horizAlign="1"/><v:tabList/>16. Flush</text>		</g>
		<g id="shape53-325" v:mID="53" v:groupContext="shape" v:layerMember="0" transform="translate(558,-207)">
			<title>Message.53</title>
			<desc>17. Close</desc>
			<v:userDefs>
				<v:ud v:nameU="IsReturn" v:prompt="" v:val="VT0(0):5"/>
				<v:ud v:nameU="IsAsync" v:prompt="" v:val="VT0(0):26"/>
				<v:ud v:nameU="IsSelfMessage" v:prompt="" v:val="VT0(0):5"/>
				<v:ud v:nameU="visVersion" v:prompt="" v:val="VT0(15):26"/>
			</v:userDefs>
			<v:textBlock v:margins="rect(4,4,4,4)"/>
			<v:textRect cx="85.5" cy="686.175" width="62.14" height="22.4037"/>
			<path d="M0 686.17 L162.52 686.18" class="st7"/>
			<rect v:rectContext="textBkgnd" x="60.0761" y="678.975" width="50.8477" height="14.4001" class="st9"/>
			<text x="63.36" y="689.78" class="st10" v:langID="1033"><v:paragraph v:horizAlign="1"/><v:tabList/>17. Close</text>		</g>
		<g id="shape54-332" v:mID="54" v:groupContext="shape" v:layerMember="0" transform="translate(558,-171)">
			<title>Message.54</title>
			<desc>18. Close (releases lock)</desc>
			<v:userDefs>
				<v:ud v:nameU="IsReturn" v:prompt="" v:val="VT0(0):5"/>
				<v:ud v:nameU="IsAsync" v:prompt="" v:val="VT0(0):26"/>
				<v:ud v:nameU="IsSelfMessage" v:prompt="" v:val="VT0(0):5"/>
				<v:ud v:nameU="visVersion" v:prompt="" v:val="VT0(15):26"/>
			</v:userDefs>
			<v:textBlock v:margins="rect(4,4,4,4)"/>
			<v:textRect cx="121.5" cy="686.175" width="139.6" height="22.4037"/>
			<path d="M0 686.17 L234.52 686.18" class="st7"/>
			<rect v:rectContext="textBkgnd" x="57.3486" y="678.975" width="128.303" height="14.4001" class="st9"/>
			<text x="60.64" y="689.78" class="st10" v:langID="1033"><v:paragraph v:horizAlign="1"/><v:tabList/>18. Close (releases lock)</text>		</g>
		<g id="shape55-339" v:mID="55" v:groupContext="shape" v:layerMember="0" transform="translate(558,-135)">
			<title>Message.55</title>
			<desc>19. Replace file.txt</desc>
			<v:userDefs>
				<v:ud v:nameU="IsReturn" v:prompt="" v:val="VT0(0):5"/>
				<v:ud v:nameU="IsAsync" v:prompt="" v:val="VT0(0):26"/>
				<v:ud v:nameU="IsSelfMessage" v:prompt="" v:val="VT0(0):5"/>
				<v:ud v:nameU="visVersion" v:prompt="" v:val="VT0(15):26"/>
			</v:userDefs>
			<v:textBlock v:margins="rect(4,4,4,4)"/>
			<v:textRect cx="164.25" cy="686.175" width="110.12" height="22.4037"/>
			<path d="M0 686.17 L320.02 686.18" class="st7"/>
			<rect v:rectContext="textBkgnd" x="114.838" y="678.975" width="98.8242" height="14.4001" class="st9"/>
			<text x="118.12" y="689.78" class="st10" v:langID="1033"><v:paragraph v:horizAlign="1"/><v:tabList/>19. Replace file.txt</text>		</g>
		<g id="shape56-346" v:mID="56" v:groupContext="shape" v:layerMember="0" transform="translate(886.5,-99)">
			<title>Message.56</title>
			<desc>20.</desc>
			<v:userDefs>
				<v:ud v:nameU="IsReturn" v:prompt="" v:val="VT0(0):5"/>
				<v:ud v:nameU="IsAsync" v:prompt="" v:val="VT0(0):26"/>
				<v:ud v:nameU="IsSelfMessage" v:prompt="" v:val="VT0(0):5"/>
				<v:ud v:nameU="visVersion" v:prompt="" v:val="VT0(15):26"/>
			</v:userDefs>
			<v:textBlock v:margins="rect(4,4,4,4)"/>
			<v:textRect cx="-42.75" cy="668.175" width="60.01" height="22.4037"/>
			<path d="M0 668.17 L-77.02 668.17" class="st11"/>
			<rect v:rectContext="textBkgnd" x="-53.8065" y="660.975" width="22.1133" height="14.4001" class="st9"/>
			<text x="-47.23" y="671.78" class="st10" v:langID="1033"><v:paragraph v:horizAlign="1"/><v:tabList/>20.</text>		</g>
		<g id="shape57-353" v:mID="57" v:groupContext="shape" v:layerMember="0" transform="translate(886.5,-81)">
			<title>Message.57</title>
			<desc>21.</desc>
			<v:userDefs>
				<v:ud v:nameU="IsReturn" v:prompt="" v:val="VT0(0):5"/>
				<v:ud v:nameU="IsAsync" v:prompt="" v:val="VT0(0):26"/>
				<v:ud v:nameU="IsSelfMessage" v:prompt="" v:val="VT0(0):5"/>
				<v:ud v:nameU="visVersion" v:prompt="" v:val="VT0(15):26"/>
			</v:userDefs>
			<v:textBlock v:margins="rect(4,4,4,4)"/>
			<v:textRect cx="-164.25" cy="668.175" width="60.01" height="22.4037"/>
			<path d="M0 668.18 L-320.02 668.17" class="st11"/>
			<rect v:rectContext="textBkgnd" x="-175.307" y="660.975" width="22.1133" height="14.4001" class="st9"/>
			<text x="-168.73" y="671.78" class="st10" v:langID="1033"><v:paragraph v:horizAlign="1"/><v:tabList/>21.</text>		</g>
		<g id="shape58-360" v:mID="58" v:groupContext="shape" v:layerMember="0" transform="translate(558,-63)">
			<title>Message.58</title>
			<desc>22.</desc>
			<v:userDefs>
				<v:ud v:nameU="IsReturn" v:prompt="" v:val="VT0(0):5"/>
				<v:ud v:nameU="IsAsync" v:prompt="" v:val="VT0(0):26"/>
				<v:ud v:nameU="IsSelfMessage" v:prompt="" v:val="VT0(0):5"/>
				<v:ud v:nameU="visVersion" v:prompt="" v:val="VT0(15):26"/>
			</v:userDefs>
			<v:textBlock v:margins="rect(4,4,4,4)"/>
			<v:textRect cx="-159.75" cy="668.175" width="60.01" height="22.4037"/>
			<path d="M0 668.17 L-311.02 668.17" class="st11"/>
			<rect v:rectContext="textBkgnd" x="-170.807" y="660.975" width="22.1133" height="14.4001" class="st9"/>
			<text x="-164.23" y="671.78" class="st10" v:langID="1033"><v:paragraph v:horizAlign="1"/><v:tabList/>22.</text>		</g>
		<g id="shape59-367" v:mID="59" v:groupContext="shape" v:layerMember="0" transform="translate(238.5,-45)">
			<title>Message.59</title>
			<desc>23. Complete IAsyncOperation (with result)</desc>
			<v:userDefs>
				<v:ud v:nameU="IsReturn" v:prompt="" v:val="VT0(0):5"/>
				<v:ud v:nameU="IsAsync" v:prompt="" v:val="VT0(0):26"/>
				<v:ud v:nameU="IsSelfMessage" v:prompt="" v:val="VT0(0):5"/>
				<v:ud v:nameU="visVersion" v:prompt="" v:val="VT0(15):26"/>
			</v:userDefs>
			<v:textBlock v:margins="rect(4,4,4,4)"/>
			<v:textRect cx="-95.6232" cy="668.175" width="178.97" height="36.8038"/>
			<path d="M0 668.17 L-182.77 668.17" class="st11"/>
			<rect v:rectContext="textBkgnd" x="-179.462" y="653.775" width="167.679" height="28.8001" class="st9"/>
			<text x="-172.89" y="664.58" class="st10" v:langID="1033"><v:paragraph v:horizAlign="1"/><v:tabList/>23. Complete IAsyncOperation<v:newlineChar/><tspan
						x="-126.76" dy="1.2em" class="st14">(with result)</tspan></text>		</g>
	</g>
</svg>
