<svg width="614" height="355" viewBox="0 0 614 355" version="1.1" xmlns="http://www.w3.org/2000/svg" xmlns:xlink="http://www.w3.org/1999/xlink">
<g id="Canvas" fill="none">
<g id="combining-structures" clip-path="url(#clip0)">
<rect width="614" height="355" fill="white"/>
<g id="Vector">
<path d="M 0 46L 0 0L 264 0L 264 46" stroke-width="5" transform="translate(175 29)" stroke="#243A5E"/>
</g>
<g id="Vector_2">
<path d="M 0 36L 0 0L 167 0L 167 36" stroke-width="5" transform="translate(91 212)" stroke="#243A5E"/>
</g>
<g id="Vector 2">
<path d="M 0 0L 0 40" stroke-width="5" transform="translate(307 29)" stroke="#243A5E"/>
</g>
<g id="Vector 2.1">
<path d="M 0 0L 0 40" stroke-width="5" transform="translate(175 173)" stroke="#243A5E"/>
</g>
<g id="Vector 2.2">
<path d="M 0 0L 0 40" stroke-width="5" transform="translate(175 213)" stroke="#243A5E"/>
</g>
<g id="Group">
<g id="Rectangle">
<rect width="64" height="64" transform="translate(123 248) scale(-1 1)" fill="#50E6FF"/>
</g>
<g id="Rectangle_2">
<rect width="64" height="64" transform="translate(207 248) scale(-1 1)" fill="#50E6FF"/>
</g>
<g id="Rectangle_3">
<rect width="64" height="64" transform="translate(291 248) scale(-1 1)" fill="#50E6FF"/>
</g>
<g id="Vector_3">
<path d="M 0 36L 0 0L 167 0L 167 36" stroke-width="5" transform="translate(355 212)" stroke="#243A5E"/>
</g>
<g id="Vector 2.1_2">
<path d="M 0 0L 0 40" stroke-width="5" transform="translate(439 173)" stroke="#243A5E"/>
</g>
<g id="Vector 2.2_2">
<path d="M 0 0L 0 40" stroke-width="5" transform="translate(439 213)" stroke="#243A5E"/>
</g>
<g id="Rectangle_4">
<rect width="64" height="64" transform="translate(387 248) scale(-1 1)" fill="#50E6FF"/>
</g>
<g id="Rectangle_5">
<rect width="64" height="64" transform="translate(471 248) scale(-1 1)" fill="#50E6FF"/>
</g>
<g id="Rectangle_6">
<rect width="64" height="64" transform="translate(555 248) scale(-1 1)" fill="#50E6FF"/>
</g>
<g id="Rectangle_7">
<rect width="104" height="104" transform="translate(359.927 69) scale(-1 1)" fill="#50E6FF"/>
</g>
<g id="Rectangle_8">
<rect width="104" height="104" transform="translate(493 69) scale(-1 1)" fill="#50E6FF"/>
</g>
<g id="Rectangle_9">
<rect width="104" height="104" transform="translate(226.854 69) scale(-1 1)" fill="#50E6FF"/>
</g>
</g>
<g id="A">
<path d="M 25.3926 39L 19.2051 39L 17.4121 33.3926L 8.44727 33.3926L 6.67188 39L 0.519531 39L 9.69531 13.793L 16.4277 13.793L 25.3926 39ZM 16.1113 29.0332L 13.4043 20.5605C 13.2051 19.9277 13.0645 19.1719 12.9824 18.293L 12.8418 18.293C 12.7832 19.0312 12.6367 19.7637 12.4023 20.4902L 9.66016 29.0332L 16.1113 29.0332Z" transform="translate(162 95)" fill="white"/>
</g>
<g id="A1">
<path d="M 14.1328 22L 10.6953 22L 9.69922 18.8848L 4.71875 18.8848L 3.73242 22L 0.314453 22L 5.41211 7.99609L 9.15234 7.99609L 14.1328 22ZM 8.97656 16.4629L 7.47266 11.7559C 7.36198 11.4043 7.28385 10.9844 7.23828 10.4961L 7.16016 10.4961C 7.1276 10.9062 7.04622 11.3132 6.91602 11.7168L 5.39258 16.4629L 8.97656 16.4629ZM 22.4043 7.68359L 22.4043 22L 19.3281 22L 19.3281 11.1602C 19.1589 11.3099 18.957 11.4531 18.7227 11.5898C 18.4948 11.7201 18.2507 11.8405 17.9902 11.9512C 17.7298 12.0553 17.4596 12.1465 17.1797 12.2246C 16.8997 12.2962 16.623 12.3483 16.3496 12.3809L 16.3496 9.7832C 17.1504 9.54883 17.9056 9.24935 18.6152 8.88477C 19.3249 8.52018 19.9661 8.11979 20.5391 7.68359L 22.4043 7.68359Z" transform="translate(78 265)" fill="white"/>
</g>
<g id="A2">
<path d="M 14.1328 22L 10.6953 22L 9.69922 18.8848L 4.71875 18.8848L 3.73242 22L 0.314453 22L 5.41211 7.99609L 9.15234 7.99609L 14.1328 22ZM 8.97656 16.4629L 7.47266 11.7559C 7.36198 11.4043 7.28385 10.9844 7.23828 10.4961L 7.16016 10.4961C 7.1276 10.9062 7.04622 11.3132 6.91602 11.7168L 5.39258 16.4629L 8.97656 16.4629ZM 18.4688 19.4414L 24.4062 19.4414L 24.4062 22L 15.0898 22L 15.0898 20.9453C 15.0898 20.2292 15.2103 19.5879 15.4512 19.0215C 15.6921 18.4486 15.9948 17.9375 16.3594 17.4883C 16.724 17.0326 17.1211 16.6322 17.5508 16.2871C 17.987 15.9355 18.4004 15.6198 18.791 15.3398C 19.2012 15.0469 19.5592 14.7669 19.8652 14.5C 20.1777 14.2331 20.4382 13.9694 20.6465 13.709C 20.8613 13.4421 21.0208 13.1751 21.125 12.9082C 21.2292 12.6348 21.2812 12.3451 21.2812 12.0391C 21.2812 11.4401 21.112 10.9876 20.7734 10.6816C 20.4349 10.3757 19.9173 10.2227 19.2207 10.2227C 18.0163 10.2227 16.8639 10.7012 15.7637 11.6582L 15.7637 8.94336C 16.9811 8.1556 18.3548 7.76172 19.8848 7.76172C 20.5944 7.76172 21.2292 7.85612 21.7891 8.04492C 22.3555 8.22721 22.834 8.49089 23.2246 8.83594C 23.6152 9.18099 23.9115 9.60091 24.1133 10.0957C 24.3216 10.584 24.4258 11.1309 24.4258 11.7363C 24.4258 12.3809 24.3249 12.9538 24.123 13.4551C 23.9277 13.9564 23.6641 14.4121 23.332 14.8223C 23.0065 15.2324 22.6289 15.61 22.1992 15.9551C 21.7695 16.2936 21.3236 16.6224 20.8613 16.9414C 20.5488 17.1628 20.2461 17.3841 19.9531 17.6055C 19.6667 17.8203 19.4128 18.0352 19.1914 18.25C 18.9701 18.4583 18.7943 18.6634 18.6641 18.8652C 18.5339 19.0671 18.4688 19.2591 18.4688 19.4414Z" transform="translate(161 265)" fill="white"/>
</g>
<g id="A3">
<path d="M 14.1328 22L 10.6953 22L 9.69922 18.8848L 4.71875 18.8848L 3.73242 22L 0.314453 22L 5.41211 7.99609L 9.15234 7.99609L 14.1328 22ZM 8.97656 16.4629L 7.47266 11.7559C 7.36198 11.4043 7.28385 10.9844 7.23828 10.4961L 7.16016 10.4961C 7.1276 10.9062 7.04622 11.3132 6.91602 11.7168L 5.39258 16.4629L 8.97656 16.4629ZM 15.4219 21.541L 15.4219 18.8555C 16.3594 19.5391 17.4531 19.8809 18.7031 19.8809C 19.4909 19.8809 20.1029 19.7116 20.5391 19.373C 20.9818 19.0345 21.2031 18.5625 21.2031 17.957C 21.2031 17.332 20.9297 16.8503 20.3828 16.5117C 19.8424 16.1732 19.097 16.0039 18.1465 16.0039L 16.8477 16.0039L 16.8477 13.6406L 18.0488 13.6406C 19.8717 13.6406 20.7832 13.0352 20.7832 11.8242C 20.7832 10.6849 20.0833 10.1152 18.6836 10.1152C 17.7461 10.1152 16.8346 10.418 15.9492 11.0234L 15.9492 8.50391C 16.9323 8.00911 18.0781 7.76172 19.3867 7.76172C 20.819 7.76172 21.9323 8.08398 22.7266 8.72852C 23.5273 9.37305 23.9277 10.2096 23.9277 11.2383C 23.9277 13.0677 23 14.2135 21.1445 14.6758L 21.1445 14.7246C 22.1341 14.8483 22.9154 15.2096 23.4883 15.8086C 24.0612 16.401 24.3477 17.1302 24.3477 17.9961C 24.3477 19.3047 23.8691 20.3398 22.9121 21.1016C 21.9551 21.8633 20.6335 22.2441 18.9473 22.2441C 17.502 22.2441 16.3268 22.0098 15.4219 21.541Z" transform="translate(245 265)" fill="white"/>
</g>
<g id="C1">
<path d="M 11.6484 21.502C 10.6263 21.9967 9.29167 22.2441 7.64453 22.2441C 5.49609 22.2441 3.80664 21.6126 2.57617 20.3496C 1.3457 19.0866 0.730469 17.4036 0.730469 15.3008C 0.730469 13.0612 1.42057 11.2448 2.80078 9.85156C 4.1875 8.45833 5.98438 7.76172 8.19141 7.76172C 9.55859 7.76172 10.7109 7.93424 11.6484 8.2793L 11.6484 11.3164C 10.7109 10.7565 9.64323 10.4766 8.44531 10.4766C 7.13021 10.4766 6.06901 10.89 5.26172 11.7168C 4.45443 12.5436 4.05078 13.6634 4.05078 15.0762C 4.05078 16.4303 4.43164 17.5111 5.19336 18.3184C 5.95508 19.1191 6.98047 19.5195 8.26953 19.5195C 9.5 19.5195 10.6263 19.2201 11.6484 18.6211L 11.6484 21.502ZM 20.6133 7.68359L 20.6133 22L 17.5371 22L 17.5371 11.1602C 17.3678 11.3099 17.166 11.4531 16.9316 11.5898C 16.7038 11.7201 16.4596 11.8405 16.1992 11.9512C 15.9388 12.0553 15.6686 12.1465 15.3887 12.2246C 15.1087 12.2962 14.832 12.3483 14.5586 12.3809L 14.5586 9.7832C 15.3594 9.54883 16.1146 9.24935 16.8242 8.88477C 17.5339 8.52018 18.1751 8.11979 18.748 7.68359L 20.6133 7.68359Z" transform="translate(343 265)" fill="white"/>
</g>
<g id="C2">
<path d="M 11.6484 21.502C 10.6263 21.9967 9.29167 22.2441 7.64453 22.2441C 5.49609 22.2441 3.80664 21.6126 2.57617 20.3496C 1.3457 19.0866 0.730469 17.4036 0.730469 15.3008C 0.730469 13.0612 1.42057 11.2448 2.80078 9.85156C 4.1875 8.45833 5.98438 7.76172 8.19141 7.76172C 9.55859 7.76172 10.7109 7.93424 11.6484 8.2793L 11.6484 11.3164C 10.7109 10.7565 9.64323 10.4766 8.44531 10.4766C 7.13021 10.4766 6.06901 10.89 5.26172 11.7168C 4.45443 12.5436 4.05078 13.6634 4.05078 15.0762C 4.05078 16.4303 4.43164 17.5111 5.19336 18.3184C 5.95508 19.1191 6.98047 19.5195 8.26953 19.5195C 9.5 19.5195 10.6263 19.2201 11.6484 18.6211L 11.6484 21.502ZM 16.6777 19.4414L 22.6152 19.4414L 22.6152 22L 13.2988 22L 13.2988 20.9453C 13.2988 20.2292 13.4193 19.5879 13.6602 19.0215C 13.901 18.4486 14.2038 17.9375 14.5684 17.4883C 14.9329 17.0326 15.3301 16.6322 15.7598 16.2871C 16.196 15.9355 16.6094 15.6198 17 15.3398C 17.4102 15.0469 17.7682 14.7669 18.0742 14.5C 18.3867 14.2331 18.6471 13.9694 18.8555 13.709C 19.0703 13.4421 19.2298 13.1751 19.334 12.9082C 19.4382 12.6348 19.4902 12.3451 19.4902 12.0391C 19.4902 11.4401 19.321 10.9876 18.9824 10.6816C 18.6439 10.3757 18.1263 10.2227 17.4297 10.2227C 16.2253 10.2227 15.0729 10.7012 13.9727 11.6582L 13.9727 8.94336C 15.1901 8.1556 16.5638 7.76172 18.0938 7.76172C 18.8034 7.76172 19.4382 7.85612 19.998 8.04492C 20.5645 8.22721 21.043 8.49089 21.4336 8.83594C 21.8242 9.18099 22.1204 9.60091 22.3223 10.0957C 22.5306 10.584 22.6348 11.1309 22.6348 11.7363C 22.6348 12.3809 22.5339 12.9538 22.332 13.4551C 22.1367 13.9564 21.873 14.4121 21.541 14.8223C 21.2155 15.2324 20.8379 15.61 20.4082 15.9551C 19.9785 16.2936 19.5326 16.6224 19.0703 16.9414C 18.7578 17.1628 18.4551 17.3841 18.1621 17.6055C 17.8757 17.8203 17.6217 18.0352 17.4004 18.25C 17.179 18.4583 17.0033 18.6634 16.873 18.8652C 16.7428 19.0671 16.6777 19.2591 16.6777 19.4414Z" transform="translate(426 265)" fill="white"/>
</g>
<g id="C3">
<path d="M 11.6484 21.502C 10.6263 21.9967 9.29167 22.2441 7.64453 22.2441C 5.49609 22.2441 3.80664 21.6126 2.57617 20.3496C 1.3457 19.0866 0.730469 17.4036 0.730469 15.3008C 0.730469 13.0612 1.42057 11.2448 2.80078 9.85156C 4.1875 8.45833 5.98438 7.76172 8.19141 7.76172C 9.55859 7.76172 10.7109 7.93424 11.6484 8.2793L 11.6484 11.3164C 10.7109 10.7565 9.64323 10.4766 8.44531 10.4766C 7.13021 10.4766 6.06901 10.89 5.26172 11.7168C 4.45443 12.5436 4.05078 13.6634 4.05078 15.0762C 4.05078 16.4303 4.43164 17.5111 5.19336 18.3184C 5.95508 19.1191 6.98047 19.5195 8.26953 19.5195C 9.5 19.5195 10.6263 19.2201 11.6484 18.6211L 11.6484 21.502ZM 13.6309 21.541L 13.6309 18.8555C 14.5684 19.5391 15.6621 19.8809 16.9121 19.8809C 17.6999 19.8809 18.3118 19.7116 18.748 19.373C 19.1908 19.0345 19.4121 18.5625 19.4121 17.957C 19.4121 17.332 19.1387 16.8503 18.5918 16.5117C 18.0514 16.1732 17.306 16.0039 16.3555 16.0039L 15.0566 16.0039L 15.0566 13.6406L 16.2578 13.6406C 18.0807 13.6406 18.9922 13.0352 18.9922 11.8242C 18.9922 10.6849 18.2923 10.1152 16.8926 10.1152C 15.9551 10.1152 15.0436 10.418 14.1582 11.0234L 14.1582 8.50391C 15.1413 8.00911 16.2871 7.76172 17.5957 7.76172C 19.028 7.76172 20.1413 8.08398 20.9355 8.72852C 21.7363 9.37305 22.1367 10.2096 22.1367 11.2383C 22.1367 13.0677 21.209 14.2135 19.3535 14.6758L 19.3535 14.7246C 20.3431 14.8483 21.1243 15.2096 21.6973 15.8086C 22.2702 16.401 22.5566 17.1302 22.5566 17.9961C 22.5566 19.3047 22.0781 20.3398 21.1211 21.1016C 20.1641 21.8633 18.8424 22.2441 17.1562 22.2441C 15.7109 22.2441 14.5358 22.0098 13.6309 21.541Z" transform="translate(510 265)" fill="white"/>
</g>
<g id="B">
<path d="M 3.33398 39L 3.33398 13.793L 12.5098 13.793C 15.3223 13.793 17.4844 14.3086 18.9961 15.3398C 20.5078 16.3711 21.2637 17.8242 21.2637 19.6992C 21.2637 21.0586 20.8008 22.248 19.875 23.2676C 18.9609 24.2871 17.7891 24.9961 16.3594 25.3945L 16.3594 25.4648C 18.1523 25.6875 19.582 26.3496 20.6484 27.4512C 21.7266 28.5527 22.2656 29.8945 22.2656 31.4766C 22.2656 33.7852 21.4395 35.6191 19.7871 36.9785C 18.1348 38.3262 15.8789 39 13.0195 39L 3.33398 39ZM 9.01172 17.9766L 9.01172 23.9531L 11.5078 23.9531C 12.6797 23.9531 13.5996 23.6719 14.2676 23.1094C 14.9473 22.5352 15.2871 21.75 15.2871 20.7539C 15.2871 18.9023 13.9043 17.9766 11.1387 17.9766L 9.01172 17.9766ZM 9.01172 28.1719L 9.01172 34.8164L 12.0879 34.8164C 13.4004 34.8164 14.4258 34.5117 15.1641 33.9023C 15.9141 33.293 16.2891 32.4609 16.2891 31.4062C 16.2891 30.3984 15.9199 29.6074 15.1816 29.0332C 14.4551 28.459 13.4355 28.1719 12.123 28.1719L 9.01172 28.1719Z" transform="translate(295 95)" fill="white"/>
</g>
<g id="C">
<path d="M 21.2207 38.1035C 19.3809 38.9941 16.9785 39.4395 14.0137 39.4395C 10.1465 39.4395 7.10547 38.3027 4.89062 36.0293C 2.67578 33.7559 1.56836 30.7266 1.56836 26.9414C 1.56836 22.9102 2.81055 19.6406 5.29492 17.1328C 7.79102 14.625 11.0254 13.3711 14.998 13.3711C 17.459 13.3711 19.5332 13.6816 21.2207 14.3027L 21.2207 19.7695C 19.5332 18.7617 17.6113 18.2578 15.4551 18.2578C 13.0879 18.2578 11.1777 19.002 9.72461 20.4902C 8.27148 21.9785 7.54492 23.9941 7.54492 26.5371C 7.54492 28.9746 8.23047 30.9199 9.60156 32.373C 10.9727 33.8145 12.8184 34.5352 15.1387 34.5352C 17.3535 34.5352 19.3809 33.9961 21.2207 32.918L 21.2207 38.1035Z" transform="translate(430 95)" fill="white"/>
</g>
</g>
</g>
<defs>

<clipPath id="clip0">
<rect width="614" height="355" fill="white"/>
</clipPath>

</defs>
</svg>

