<svg width="1920" height="1145" viewBox="0 0 1920 1145" version="1.1" xmlns="http://www.w3.org/2000/svg" xmlns:xlink="http://www.w3.org/1999/xlink">
<g fill="none">
<g clip-path="url(#clip0)">
<rect width="1920" height="1145" fill="#243A5E"/>
<g filter="url(#filter0_d)">
<path d="M 0 5C 0 2.23858 2.23858 0 5 0L 1701.67 0C 1704.43 0 1706.67 2.23858 1706.67 5L 1706.67 861.667C 1706.67 864.428 1704.43 866.667 1701.67 866.667L 5 866.667C 2.23858 866.667 0 864.428 0 861.667L 0 5Z" transform="translate(106.667 186.667)" fill="white"/>
</g>
<mask id="mask0" mask-type="alpha" maskUnits="userSpaceOnUse" x="106" y="186" width="1708" height="868">
<rect width="1706.67" height="866.667" transform="translate(106.667 186.667)" fill="white"/>
</mask>
<g mask="url(#mask0)">
<path fill-rule="evenodd" clip-rule="evenodd" d="M 0 0L 1726.67 0L 1726.67 866.667L 0 866.667L 0 0Z" transform="translate(106.667 186.667)" fill="white"/>
<path fill-rule="evenodd" clip-rule="evenodd" d="M 0 0L 453.333 0L 453.333 866.667L 0 866.667L 0 0Z" transform="translate(106.667 186.667)" fill="#D9D9D9"/>
</g>
<rect width="26.6667" height="26.6667" transform="translate(133.334 333.333)" fill="#B3B3B3"/>
<rect width="240" height="26.6667" transform="translate(173.334 333.333)" fill="#B3B3B3"/>
<rect width="26.6667" height="26.6667" transform="translate(133.334 386.667)" fill="#B3B3B3"/>
<rect width="240" height="26.6667" transform="translate(173.334 386.667)" fill="#B3B3B3"/>
<rect width="26.6667" height="26.6667" transform="translate(133.334 440)" fill="#B3B3B3"/>
<rect width="240" height="26.6667" transform="translate(173.334 440)" fill="#B3B3B3"/>
<rect width="26.6667" height="26.6667" transform="translate(133.334 493.333)" fill="#B3B3B3"/>
<rect width="240" height="26.6667" transform="translate(173.334 493.333)" fill="#B3B3B3"/>
<rect width="26.6667" height="26.6667" transform="translate(133.334 546.667)" fill="#B3B3B3"/>
<rect width="240" height="26.6667" transform="translate(173.334 546.667)" fill="#B3B3B3"/>
<rect width="26.6667" height="26.6667" transform="translate(133.334 600)" fill="#B3B3B3"/>
<rect width="240" height="26.6667" transform="translate(173.334 600)" fill="#B3B3B3"/>
<g opacity="0.75">
<path fill-rule="evenodd" clip-rule="evenodd" d="M 26.6667 2.24823C 26.6667 2.80051 26.219 3.24823 25.6667 3.24823L 1 3.24823C 0.447715 3.24823 0 2.80051 0 2.24823L 0 1C 0 0.447715 0.447715 0 1 0L 25.6667 0C 26.219 0 26.6667 0.447715 26.6667 1L 26.6667 2.24823Z" transform="translate(133.334 264.731)" fill="black"/>
<path fill-rule="evenodd" clip-rule="evenodd" d="M 26.6667 2.24823C 26.6667 2.80051 26.219 3.24823 25.6667 3.24823L 1 3.24823C 0.447715 3.24823 0 2.80051 0 2.24823L 0 1C 0 0.447715 0.447715 0 1 0L 25.6667 0C 26.219 0 26.6667 0.447715 26.6667 1L 26.6667 2.24823Z" transform="translate(133.334 271.227)" fill="black"/>
<path fill-rule="evenodd" clip-rule="evenodd" d="M 26.6667 2.24823C 26.6667 2.80051 26.219 3.24823 25.6667 3.24823L 1 3.24823C 0.447715 3.24823 0 2.80051 0 2.24823L 0 1C 0 0.447715 0.447715 0 1 0L 25.6667 0C 26.219 0 26.6667 0.447715 26.6667 1L 26.6667 2.24823Z" transform="translate(133.334 277.724)" fill="black"/>
</g>
<path fill-rule="evenodd" clip-rule="evenodd" d="M 0 0L 10 0L 10 40L 0 40L 0 0Z" transform="translate(106.667 488.333)" fill="#0078D4"/>
<rect width="108.333" height="13.3333" transform="translate(133.334 215)" fill="#B3B3B3"/>
<rect width="267.944" height="200" transform="translate(613.334 360)" fill="#EAEAEA"/>
<rect width="267.944" height="200" transform="translate(906.797 360)" fill="#EAEAEA"/>
<rect width="267.944" height="200" transform="translate(1200.26 360)" fill="#EAEAEA"/>
<rect width="267.944" height="200" transform="translate(1493.72 360)" fill="#EAEAEA"/>
<rect width="267.944" height="200" transform="translate(613.334 586.667)" fill="#EAEAEA"/>
<rect width="267.944" height="200" transform="translate(906.797 586.667)" fill="#EAEAEA"/>
<rect width="267.944" height="200" transform="translate(1200.26 586.667)" fill="#EAEAEA"/>
<rect width="267.944" height="200" transform="translate(1493.72 586.667)" fill="#EAEAEA"/>
<rect width="267.944" height="200" transform="translate(613.334 813.333)" fill="#EAEAEA"/>
<rect width="267.944" height="200" transform="translate(906.797 813.333)" fill="#EAEAEA"/>
<rect width="267.944" height="200" transform="translate(1200.26 813.333)" fill="#EAEAEA"/>
<rect width="267.944" height="200" transform="translate(1493.72 813.333)" fill="#EAEAEA"/>
<rect width="201.667" height="40" transform="translate(613.334 266.667)" fill="#EAEAEA"/>
<rect width="40" height="40" transform="translate(1693.33 266.667)" fill="#C8C8C8"/>
<rect width="40" height="40" transform="translate(1628.33 266.667)" fill="#C8C8C8"/>
<rect width="40" height="40" transform="translate(1561.67 266.667)" fill="#C8C8C8"/>
<g opacity="0.75">
<path fill-rule="evenodd" clip-rule="evenodd" d="M 2.5 0C 2.85157 0 3.17709 0.0651035 3.47657 0.195312C 3.77605 0.325521 4.03972 0.504556 4.26759 0.732422C 4.49545 0.960288 4.67449 1.22396 4.8047 1.52344C 4.9349 1.82292 5.00001 2.14844 5.00001 2.5C 5.00001 2.85156 4.9349 3.17708 4.8047 3.47656C 4.67449 3.77604 4.49545 4.03971 4.26759 4.26758C 4.03972 4.49544 3.77605 4.67448 3.47657 4.80469C 3.17709 4.9349 2.85157 5 2.5 5C 2.14844 5 1.82292 4.9349 1.52344 4.80469C 1.22396 4.67448 0.960289 4.49544 0.732423 4.26758C 0.504557 4.03971 0.325522 3.77604 0.195313 3.47656C 0.0651036 3.17708 0 2.85156 0 2.5C 0 2.14844 0.0651036 1.82292 0.195313 1.52344C 0.325522 1.22396 0.504557 0.960288 0.732423 0.732422C 0.960289 0.504556 1.22396 0.325521 1.52344 0.195312C 1.82292 0.0651035 2.14844 0 2.5 0Z" transform="translate(1759.33 284.167)" fill="black"/>
<path fill-rule="evenodd" clip-rule="evenodd" d="M 2.5 0C 2.85156 0 3.17708 0.0651035 3.47656 0.195312C 3.77604 0.325521 4.03971 0.504556 4.26757 0.732422C 4.49544 0.960288 4.67447 1.22396 4.80468 1.52344C 4.93489 1.82292 5 2.14844 5 2.5C 5 2.85156 4.93489 3.17708 4.80468 3.47656C 4.67447 3.77604 4.49544 4.03971 4.26757 4.26758C 4.03971 4.49544 3.77604 4.67448 3.47656 4.80469C 3.17708 4.9349 2.85156 5 2.5 5C 2.14843 5 1.82292 4.9349 1.52344 4.80469C 1.22396 4.67448 0.960287 4.49544 0.732421 4.26758C 0.504556 4.03971 0.325521 3.77604 0.195312 3.47656C 0.0651035 3.17708 0 2.85156 0 2.5C 0 2.14844 0.0651035 1.82292 0.195312 1.52344C 0.325521 1.22396 0.504556 0.960288 0.732421 0.732422C 0.960287 0.504556 1.22396 0.325521 1.52344 0.195312C 1.82292 0.0651035 2.14843 0 2.5 0Z" transform="translate(1771 284.167)" fill="black"/>
<path fill-rule="evenodd" clip-rule="evenodd" d="M 2.5 0C 2.85156 0 3.17708 0.0651035 3.47656 0.195312C 3.77604 0.325521 4.03971 0.504556 4.26757 0.732422C 4.49544 0.960288 4.67447 1.22396 4.80468 1.52344C 4.93489 1.82292 5 2.14844 5 2.5C 5 2.85156 4.93489 3.17708 4.80468 3.47656C 4.67447 3.77604 4.49544 4.03971 4.26757 4.26758C 4.03971 4.49544 3.77604 4.67448 3.47656 4.80469C 3.17708 4.9349 2.85156 5 2.5 5C 2.14843 5 1.82292 4.9349 1.52344 4.80469C 1.22396 4.67448 0.960287 4.49544 0.732421 4.26758C 0.504556 4.03971 0.325521 3.77604 0.195312 3.47656C 0.0651035 3.17708 0 2.85156 0 2.5C 0 2.14844 0.0651035 1.82292 0.195312 1.52344C 0.325521 1.22396 0.504556 0.960288 0.732421 0.732422C 0.960287 0.504556 1.22396 0.325521 1.52344 0.195312C 1.82292 0.0651035 2.14843 0 2.5 0Z" transform="translate(1782.67 284.167)" fill="black"/>
</g>
<line y1="-1.5" x2="188.333" y2="-1.5" stroke-width="3" transform="matrix(0 1 -1 0 265 136.667)" stroke="#50E6FF"/>
<line y1="-1.5" x2="270" y2="-1.5" stroke-width="3" transform="matrix(0 1 -1 0 1123.33 136.667)" stroke="#50E6FF"/>
<ellipse cx="9.16667" cy="9.16666" rx="9.16667" ry="9.16666" transform="translate(256.667 325)" fill="#50E6FF"/>
<line y1="-1.5" x2="123.333" y2="-1.5" stroke-width="3" transform="matrix(0 1 -1 0 1648.33 136.667)" stroke="#50E6FF"/>
<ellipse cx="9.16666" cy="9.16667" rx="9.16666" ry="9.16667" transform="translate(1641.67 260)" fill="#50E6FF"/>
<ellipse cx="9.16666" cy="9.16667" rx="9.16666" ry="9.16667" transform="translate(1115 400)" fill="#50E6FF"/>
<path d="M 52.5078 32L 48.6992 32L 38.665 16.5605C 38.4111 16.1699 38.2012 15.7646 38.0352 15.3447L 37.9473 15.3447C 38.0254 15.7939 38.0645 16.7559 38.0645 18.2305L 38.0645 32L 34.6953 32L 34.6953 10.9941L 38.7529 10.9941L 48.4502 26.0674C 48.8604 26.6924 49.124 27.1221 49.2412 27.3564L 49.2998 27.3564C 49.2021 26.7998 49.1533 25.8574 49.1533 24.5293L 49.1533 10.9941L 52.5078 10.9941L 52.5078 32ZM 68.8555 32L 65.5596 32L 65.5596 29.6562L 65.501 29.6562C 64.4658 31.4531 62.9473 32.3516 60.9453 32.3516C 59.4707 32.3516 58.3135 31.9512 57.4736 31.1504C 56.6436 30.3496 56.2285 29.29 56.2285 27.9717C 56.2285 25.1396 57.8594 23.4893 61.1211 23.0205L 65.5742 22.3906C 65.5742 20.252 64.5586 19.1826 62.5273 19.1826C 60.7402 19.1826 59.1289 19.7979 57.6934 21.0283L 57.6934 18.0547C 59.2754 17.1172 61.1016 16.6484 63.1719 16.6484C 66.9609 16.6484 68.8555 18.5137 68.8555 22.2441L 68.8555 32ZM 65.5742 24.6318L 62.4248 25.0713C 61.4482 25.1982 60.7109 25.4375 60.2129 25.7891C 59.7246 26.1309 59.4805 26.7363 59.4805 27.6055C 59.4805 28.2402 59.7051 28.7627 60.1543 29.1729C 60.6133 29.5732 61.2236 29.7734 61.9854 29.7734C 63.0205 29.7734 63.875 29.4121 64.5488 28.6895C 65.2324 27.957 65.5742 27.0391 65.5742 25.9355L 65.5742 24.6318ZM 85.9355 17L 80.1348 32L 76.458 32L 70.9355 17L 74.627 17L 77.9521 27.4883C 78.2061 28.2598 78.3623 28.9336 78.4209 29.5098L 78.4648 29.5098C 78.5527 28.7871 78.6895 28.1328 78.875 27.5469L 82.3613 17L 85.9355 17ZM 89.9639 13.8506C 89.4072 13.8506 88.9287 13.6699 88.5283 13.3086C 88.1377 12.9473 87.9424 12.4883 87.9424 11.9316C 87.9424 11.375 88.1377 10.9111 88.5283 10.54C 88.9287 10.1689 89.4072 9.9834 89.9639 9.9834C 90.54 9.9834 91.0283 10.1689 91.4287 10.54C 91.8291 10.9111 92.0293 11.375 92.0293 11.9316C 92.0293 12.459 91.8291 12.9131 91.4287 13.2939C 91.0283 13.665 90.54 13.8506 89.9639 13.8506ZM 91.6484 32L 88.25 32L 88.25 17L 91.6484 17L 91.6484 32ZM 109.754 30.7988C 109.754 36.3066 106.985 39.0605 101.448 39.0605C 99.4951 39.0605 97.791 38.7334 96.3359 38.0791L 96.3359 34.9736C 97.9766 35.9111 99.5342 36.3799 101.009 36.3799C 104.573 36.3799 106.355 34.627 106.355 31.1211L 106.355 29.4805L 106.297 29.4805C 105.174 31.3945 103.484 32.3516 101.229 32.3516C 99.4023 32.3516 97.9277 31.6875 96.8047 30.3594C 95.6914 29.0215 95.1348 27.2295 95.1348 24.9834C 95.1348 22.4346 95.7354 20.4082 96.9365 18.9043C 98.1377 17.4004 99.7881 16.6484 101.888 16.6484C 103.87 16.6484 105.34 17.459 106.297 19.0801L 106.355 19.0801L 106.355 17L 109.754 17L 109.754 30.7988ZM 106.385 25.1299L 106.385 23.1816C 106.385 22.127 106.033 21.2285 105.33 20.4863C 104.637 19.7344 103.768 19.3584 102.723 19.3584C 101.434 19.3584 100.423 19.8369 99.6904 20.7939C 98.9678 21.7412 98.6064 23.0693 98.6064 24.7783C 98.6064 26.2529 98.9531 27.4346 99.6465 28.3232C 100.35 29.2021 101.277 29.6416 102.43 29.6416C 103.602 29.6416 104.554 29.2217 105.286 28.3818C 106.019 27.5322 106.385 26.4482 106.385 25.1299ZM 125.691 32L 122.396 32L 122.396 29.6562L 122.337 29.6562C 121.302 31.4531 119.783 32.3516 117.781 32.3516C 116.307 32.3516 115.149 31.9512 114.31 31.1504C 113.479 30.3496 113.064 29.29 113.064 27.9717C 113.064 25.1396 114.695 23.4893 117.957 23.0205L 122.41 22.3906C 122.41 20.252 121.395 19.1826 119.363 19.1826C 117.576 19.1826 115.965 19.7979 114.529 21.0283L 114.529 18.0547C 116.111 17.1172 117.938 16.6484 120.008 16.6484C 123.797 16.6484 125.691 18.5137 125.691 22.2441L 125.691 32ZM 122.41 24.6318L 119.261 25.0713C 118.284 25.1982 117.547 25.4375 117.049 25.7891C 116.561 26.1309 116.316 26.7363 116.316 27.6055C 116.316 28.2402 116.541 28.7627 116.99 29.1729C 117.449 29.5732 118.06 29.7734 118.821 29.7734C 119.856 29.7734 120.711 29.4121 121.385 28.6895C 122.068 27.957 122.41 27.0391 122.41 25.9355L 122.41 24.6318ZM 137.762 31.8389C 137.098 32.1709 136.224 32.3369 135.14 32.3369C 132.229 32.3369 130.774 30.9404 130.774 28.1475L 130.774 19.666L 128.27 19.666L 128.27 17L 130.774 17L 130.774 13.5283L 134.173 12.5615L 134.173 17L 137.762 17L 137.762 19.666L 134.173 19.666L 134.173 27.166C 134.173 28.0547 134.334 28.6895 134.656 29.0703C 134.979 29.4512 135.516 29.6416 136.268 29.6416C 136.844 29.6416 137.342 29.4756 137.762 29.1436L 137.762 31.8389ZM 142.405 13.8506C 141.849 13.8506 141.37 13.6699 140.97 13.3086C 140.579 12.9473 140.384 12.4883 140.384 11.9316C 140.384 11.375 140.579 10.9111 140.97 10.54C 141.37 10.1689 141.849 9.9834 142.405 9.9834C 142.981 9.9834 143.47 10.1689 143.87 10.54C 144.271 10.9111 144.471 11.375 144.471 11.9316C 144.471 12.459 144.271 12.9131 143.87 13.2939C 143.47 13.665 142.981 13.8506 142.405 13.8506ZM 144.09 32L 140.691 32L 140.691 17L 144.09 17L 144.09 32ZM 155.193 32.3516C 152.879 32.3516 151.028 31.6533 149.642 30.2568C 148.265 28.8506 147.576 26.9902 147.576 24.6758C 147.576 22.1562 148.294 20.1885 149.729 18.7725C 151.175 17.3564 153.118 16.6484 155.56 16.6484C 157.903 16.6484 159.729 17.3369 161.038 18.7139C 162.347 20.0908 163.001 22 163.001 24.4414C 163.001 26.834 162.293 28.7529 160.877 30.1982C 159.471 31.6338 157.576 32.3516 155.193 32.3516ZM 155.354 19.3584C 154.026 19.3584 152.977 19.8223 152.205 20.75C 151.434 21.6777 151.048 22.957 151.048 24.5879C 151.048 26.1602 151.438 27.4004 152.22 28.3086C 153.001 29.207 154.046 29.6562 155.354 29.6562C 156.692 29.6562 157.718 29.2119 158.431 28.3232C 159.153 27.4346 159.515 26.1699 159.515 24.5293C 159.515 22.8789 159.153 21.6045 158.431 20.7061C 157.718 19.8076 156.692 19.3584 155.354 19.3584ZM 179.832 32L 176.434 32L 176.434 23.5479C 176.434 20.7451 175.442 19.3438 173.46 19.3438C 172.425 19.3438 171.57 19.7344 170.896 20.5156C 170.223 21.2871 169.886 22.2637 169.886 23.4453L 169.886 32L 166.473 32L 166.473 17L 169.886 17L 169.886 19.4902L 169.944 19.4902C 171.067 17.5957 172.688 16.6484 174.808 16.6484C 176.438 16.6484 177.684 17.1807 178.543 18.2451C 179.402 19.2998 179.832 20.8281 179.832 22.8301L 179.832 32ZM 195.711 29.7881L 195.652 29.7881L 195.652 38.8994L 192.254 38.8994L 192.254 17L 195.652 17L 195.652 19.6367L 195.711 19.6367C 196.873 17.6445 198.572 16.6484 200.809 16.6484C 202.713 16.6484 204.197 17.3174 205.262 18.6553C 206.326 19.9932 206.858 21.79 206.858 24.0459C 206.858 26.5459 206.258 28.5479 205.057 30.0518C 203.855 31.5557 202.215 32.3076 200.135 32.3076C 198.221 32.3076 196.746 31.4678 195.711 29.7881ZM 195.623 23.8701L 195.623 25.7305C 195.623 26.8242 195.97 27.752 196.663 28.5137C 197.366 29.2754 198.255 29.6562 199.329 29.6562C 200.589 29.6562 201.575 29.168 202.288 28.1914C 203.011 27.2051 203.372 25.833 203.372 24.0752C 203.372 22.6006 203.035 21.4482 202.361 20.6182C 201.697 19.7783 200.794 19.3584 199.651 19.3584C 198.44 19.3584 197.464 19.7881 196.722 20.6475C 195.989 21.5068 195.623 22.5811 195.623 23.8701ZM 221.492 32L 218.196 32L 218.196 29.6562L 218.138 29.6562C 217.103 31.4531 215.584 32.3516 213.582 32.3516C 212.107 32.3516 210.95 31.9512 210.11 31.1504C 209.28 30.3496 208.865 29.29 208.865 27.9717C 208.865 25.1396 210.496 23.4893 213.758 23.0205L 218.211 22.3906C 218.211 20.252 217.195 19.1826 215.164 19.1826C 213.377 19.1826 211.766 19.7979 210.33 21.0283L 210.33 18.0547C 211.912 17.1172 213.738 16.6484 215.809 16.6484C 219.598 16.6484 221.492 18.5137 221.492 22.2441L 221.492 32ZM 218.211 24.6318L 215.062 25.0713C 214.085 25.1982 213.348 25.4375 212.85 25.7891C 212.361 26.1309 212.117 26.7363 212.117 27.6055C 212.117 28.2402 212.342 28.7627 212.791 29.1729C 213.25 29.5732 213.86 29.7734 214.622 29.7734C 215.657 29.7734 216.512 29.4121 217.186 28.6895C 217.869 27.957 218.211 27.0391 218.211 25.9355L 218.211 24.6318ZM 239.012 32L 235.613 32L 235.613 23.5479C 235.613 20.7451 234.622 19.3438 232.64 19.3438C 231.604 19.3438 230.75 19.7344 230.076 20.5156C 229.402 21.2871 229.065 22.2637 229.065 23.4453L 229.065 32L 225.652 32L 225.652 17L 229.065 17L 229.065 19.4902L 229.124 19.4902C 230.247 17.5957 231.868 16.6484 233.987 16.6484C 235.618 16.6484 236.863 17.1807 237.723 18.2451C 238.582 19.2998 239.012 20.8281 239.012 22.8301L 239.012 32ZM 255.872 25.4229L 245.647 25.4229C 245.687 26.8096 246.111 27.8789 246.922 28.6309C 247.742 29.3828 248.865 29.7588 250.291 29.7588C 251.893 29.7588 253.362 29.2803 254.7 28.3232L 254.7 31.0625C 253.333 31.9219 251.526 32.3516 249.28 32.3516C 247.073 32.3516 245.34 31.6729 244.08 30.3154C 242.83 28.9482 242.205 27.0293 242.205 24.5586C 242.205 22.2246 242.894 20.3252 244.271 18.8604C 245.657 17.3857 247.376 16.6484 249.427 16.6484C 251.478 16.6484 253.064 17.3076 254.188 18.626C 255.311 19.9443 255.872 21.7754 255.872 24.1191L 255.872 25.4229ZM 252.591 23.0205C 252.581 21.7998 252.293 20.8525 251.727 20.1787C 251.16 19.4951 250.379 19.1533 249.383 19.1533C 248.406 19.1533 247.576 19.5098 246.893 20.2227C 246.219 20.9355 245.804 21.8682 245.647 23.0205L 252.591 23.0205Z" transform="translate(124 80)" fill="#37E8FD"/>
<path d="M 52.2471 31.1211C 50.665 31.9414 48.6973 32.3516 46.3438 32.3516C 43.2969 32.3516 40.8555 31.3896 39.0195 29.4658C 37.1836 27.542 36.2656 25.0176 36.2656 21.8926C 36.2656 18.5332 37.2959 15.8184 39.3564 13.748C 41.4268 11.6777 44.0391 10.6426 47.1934 10.6426C 49.2246 10.6426 50.9092 10.9307 52.2471 11.5068L 52.2471 14.9639C 50.8311 14.124 49.2686 13.7041 47.5596 13.7041C 45.2842 13.7041 43.4385 14.4316 42.0225 15.8867C 40.6162 17.3418 39.9131 19.2852 39.9131 21.7168C 39.9131 24.0312 40.5723 25.877 41.8906 27.2539C 43.209 28.6211 44.9424 29.3047 47.0908 29.3047C 49.0732 29.3047 50.792 28.8359 52.2471 27.8984L 52.2471 31.1211ZM 62.501 32.3516C 60.1865 32.3516 58.3359 31.6533 56.9492 30.2568C 55.5723 28.8506 54.8838 26.9902 54.8838 24.6758C 54.8838 22.1562 55.6016 20.1885 57.0371 18.7725C 58.4824 17.3564 60.4258 16.6484 62.8672 16.6484C 65.2109 16.6484 67.0371 17.3369 68.3457 18.7139C 69.6543 20.0908 70.3086 22 70.3086 24.4414C 70.3086 26.834 69.6006 28.7529 68.1846 30.1982C 66.7783 31.6338 64.8838 32.3516 62.501 32.3516ZM 62.6621 19.3584C 61.334 19.3584 60.2842 19.8223 59.5127 20.75C 58.7412 21.6777 58.3555 22.957 58.3555 24.5879C 58.3555 26.1602 58.7461 27.4004 59.5273 28.3086C 60.3086 29.207 61.3535 29.6562 62.6621 29.6562C 64 29.6562 65.0254 29.2119 65.7383 28.3232C 66.4609 27.4346 66.8223 26.1699 66.8223 24.5293C 66.8223 22.8789 66.4609 21.6045 65.7383 20.7061C 65.0254 19.8076 64 19.3584 62.6621 19.3584ZM 87.1396 32L 83.7412 32L 83.7412 23.5479C 83.7412 20.7451 82.75 19.3438 80.7676 19.3438C 79.7324 19.3438 78.8779 19.7344 78.2041 20.5156C 77.5303 21.2871 77.1934 22.2637 77.1934 23.4453L 77.1934 32L 73.7803 32L 73.7803 17L 77.1934 17L 77.1934 19.4902L 77.252 19.4902C 78.375 17.5957 79.9961 16.6484 82.1152 16.6484C 83.7461 16.6484 84.9912 17.1807 85.8506 18.2451C 86.71 19.2998 87.1396 20.8281 87.1396 22.8301L 87.1396 32ZM 99.21 31.8389C 98.5459 32.1709 97.6719 32.3369 96.5879 32.3369C 93.6777 32.3369 92.2227 30.9404 92.2227 28.1475L 92.2227 19.666L 89.7178 19.666L 89.7178 17L 92.2227 17L 92.2227 13.5283L 95.6211 12.5615L 95.6211 17L 99.21 17L 99.21 19.666L 95.6211 19.666L 95.6211 27.166C 95.6211 28.0547 95.7822 28.6895 96.1045 29.0703C 96.4268 29.4512 96.9639 29.6416 97.7158 29.6416C 98.292 29.6416 98.79 29.4756 99.21 29.1436L 99.21 31.8389ZM 114.664 25.4229L 104.439 25.4229C 104.479 26.8096 104.903 27.8789 105.714 28.6309C 106.534 29.3828 107.657 29.7588 109.083 29.7588C 110.685 29.7588 112.154 29.2803 113.492 28.3232L 113.492 31.0625C 112.125 31.9219 110.318 32.3516 108.072 32.3516C 105.865 32.3516 104.132 31.6729 102.872 30.3154C 101.622 28.9482 100.997 27.0293 100.997 24.5586C 100.997 22.2246 101.686 20.3252 103.062 18.8604C 104.449 17.3857 106.168 16.6484 108.219 16.6484C 110.27 16.6484 111.856 17.3076 112.979 18.626C 114.103 19.9443 114.664 21.7754 114.664 24.1191L 114.664 25.4229ZM 111.383 23.0205C 111.373 21.7998 111.085 20.8525 110.519 20.1787C 109.952 19.4951 109.171 19.1533 108.175 19.1533C 107.198 19.1533 106.368 19.5098 105.685 20.2227C 105.011 20.9355 104.596 21.8682 104.439 23.0205L 111.383 23.0205ZM 131.261 32L 127.862 32L 127.862 23.5479C 127.862 20.7451 126.871 19.3438 124.889 19.3438C 123.854 19.3438 122.999 19.7344 122.325 20.5156C 121.651 21.2871 121.314 22.2637 121.314 23.4453L 121.314 32L 117.901 32L 117.901 17L 121.314 17L 121.314 19.4902L 121.373 19.4902C 122.496 17.5957 124.117 16.6484 126.236 16.6484C 127.867 16.6484 129.112 17.1807 129.972 18.2451C 130.831 19.2998 131.261 20.8281 131.261 22.8301L 131.261 32ZM 143.331 31.8389C 142.667 32.1709 141.793 32.3369 140.709 32.3369C 137.799 32.3369 136.344 30.9404 136.344 28.1475L 136.344 19.666L 133.839 19.666L 133.839 17L 136.344 17L 136.344 13.5283L 139.742 12.5615L 139.742 17L 143.331 17L 143.331 19.666L 139.742 19.666L 139.742 27.166C 139.742 28.0547 139.903 28.6895 140.226 29.0703C 140.548 29.4512 141.085 29.6416 141.837 29.6416C 142.413 29.6416 142.911 29.4756 143.331 29.1436L 143.331 31.8389ZM 161.979 36.7754L 159.107 36.7754C 156.021 33.3184 154.479 29.0557 154.479 23.9873C 154.479 18.8994 156.021 14.5684 159.107 10.9941L 161.993 10.9941C 158.966 14.7051 157.452 19.0264 157.452 23.958C 157.452 28.8506 158.961 33.123 161.979 36.7754ZM 175.997 32L 172.701 32L 172.701 29.6562L 172.643 29.6562C 171.607 31.4531 170.089 32.3516 168.087 32.3516C 166.612 32.3516 165.455 31.9512 164.615 31.1504C 163.785 30.3496 163.37 29.29 163.37 27.9717C 163.37 25.1396 165.001 23.4893 168.263 23.0205L 172.716 22.3906C 172.716 20.252 171.7 19.1826 169.669 19.1826C 167.882 19.1826 166.271 19.7979 164.835 21.0283L 164.835 18.0547C 166.417 17.1172 168.243 16.6484 170.313 16.6484C 174.103 16.6484 175.997 18.5137 175.997 22.2441L 175.997 32ZM 172.716 24.6318L 169.566 25.0713C 168.59 25.1982 167.853 25.4375 167.354 25.7891C 166.866 26.1309 166.622 26.7363 166.622 27.6055C 166.622 28.2402 166.847 28.7627 167.296 29.1729C 167.755 29.5732 168.365 29.7734 169.127 29.7734C 170.162 29.7734 171.017 29.4121 171.69 28.6895C 172.374 27.957 172.716 27.0391 172.716 25.9355L 172.716 24.6318ZM 183.614 29.7881L 183.556 29.7881L 183.556 38.8994L 180.157 38.8994L 180.157 17L 183.556 17L 183.556 19.6367L 183.614 19.6367C 184.776 17.6445 186.476 16.6484 188.712 16.6484C 190.616 16.6484 192.101 17.3174 193.165 18.6553C 194.229 19.9932 194.762 21.79 194.762 24.0459C 194.762 26.5459 194.161 28.5479 192.96 30.0518C 191.759 31.5557 190.118 32.3076 188.038 32.3076C 186.124 32.3076 184.649 31.4678 183.614 29.7881ZM 183.526 23.8701L 183.526 25.7305C 183.526 26.8242 183.873 27.752 184.566 28.5137C 185.27 29.2754 186.158 29.6562 187.232 29.6562C 188.492 29.6562 189.479 29.168 190.191 28.1914C 190.914 27.2051 191.275 25.833 191.275 24.0752C 191.275 22.6006 190.938 21.4482 190.265 20.6182C 189.601 19.7783 188.697 19.3584 187.555 19.3584C 186.344 19.3584 185.367 19.7881 184.625 20.6475C 183.893 21.5068 183.526 22.5811 183.526 23.8701ZM 201.69 29.7881L 201.632 29.7881L 201.632 38.8994L 198.233 38.8994L 198.233 17L 201.632 17L 201.632 19.6367L 201.69 19.6367C 202.853 17.6445 204.552 16.6484 206.788 16.6484C 208.692 16.6484 210.177 17.3174 211.241 18.6553C 212.306 19.9932 212.838 21.79 212.838 24.0459C 212.838 26.5459 212.237 28.5479 211.036 30.0518C 209.835 31.5557 208.194 32.3076 206.114 32.3076C 204.2 32.3076 202.726 31.4678 201.69 29.7881ZM 201.603 23.8701L 201.603 25.7305C 201.603 26.8242 201.949 27.752 202.643 28.5137C 203.346 29.2754 204.234 29.6562 205.309 29.6562C 206.568 29.6562 207.555 29.168 208.268 28.1914C 208.99 27.2051 209.352 25.833 209.352 24.0752C 209.352 22.6006 209.015 21.4482 208.341 20.6182C 207.677 19.7783 206.773 19.3584 205.631 19.3584C 204.42 19.3584 203.443 19.7881 202.701 20.6475C 201.969 21.5068 201.603 22.5811 201.603 23.8701ZM 235.309 31.3115C 234.107 32.0049 232.687 32.3516 231.046 32.3516C 228.819 32.3516 227.022 31.6582 225.655 30.2715C 224.288 28.875 223.604 27.0684 223.604 24.8516C 223.604 22.3809 224.337 20.3984 225.802 18.9043C 227.276 17.4004 229.244 16.6484 231.705 16.6484C 233.072 16.6484 234.278 16.8877 235.323 17.3662L 235.323 20.5303C 234.278 19.749 233.165 19.3584 231.983 19.3584C 230.548 19.3584 229.371 19.8467 228.453 20.8232C 227.535 21.79 227.076 23.0596 227.076 24.6318C 227.076 26.1846 227.506 27.4102 228.365 28.3086C 229.234 29.207 230.396 29.6562 231.852 29.6562C 233.072 29.6562 234.225 29.2217 235.309 28.3525L 235.309 31.3115ZM 250.206 32L 246.91 32L 246.91 29.6562L 246.852 29.6562C 245.816 31.4531 244.298 32.3516 242.296 32.3516C 240.821 32.3516 239.664 31.9512 238.824 31.1504C 237.994 30.3496 237.579 29.29 237.579 27.9717C 237.579 25.1396 239.21 23.4893 242.472 23.0205L 246.925 22.3906C 246.925 20.252 245.909 19.1826 243.878 19.1826C 242.091 19.1826 240.479 19.7979 239.044 21.0283L 239.044 18.0547C 240.626 17.1172 242.452 16.6484 244.522 16.6484C 248.312 16.6484 250.206 18.5137 250.206 22.2441L 250.206 32ZM 246.925 24.6318L 243.775 25.0713C 242.799 25.1982 242.062 25.4375 241.563 25.7891C 241.075 26.1309 240.831 26.7363 240.831 27.6055C 240.831 28.2402 241.056 28.7627 241.505 29.1729C 241.964 29.5732 242.574 29.7734 243.336 29.7734C 244.371 29.7734 245.226 29.4121 245.899 28.6895C 246.583 27.957 246.925 27.0391 246.925 25.9355L 246.925 24.6318ZM 267.726 32L 264.327 32L 264.327 23.5479C 264.327 20.7451 263.336 19.3438 261.354 19.3438C 260.318 19.3438 259.464 19.7344 258.79 20.5156C 258.116 21.2871 257.779 22.2637 257.779 23.4453L 257.779 32L 254.366 32L 254.366 17L 257.779 17L 257.779 19.4902L 257.838 19.4902C 258.961 17.5957 260.582 16.6484 262.701 16.6484C 264.332 16.6484 265.577 17.1807 266.437 18.2451C 267.296 19.2998 267.726 20.8281 267.726 22.8301L 267.726 32ZM 284.806 17L 279.005 32L 275.328 32L 269.806 17L 273.497 17L 276.822 27.4883C 277.076 28.2598 277.232 28.9336 277.291 29.5098L 277.335 29.5098C 277.423 28.7871 277.56 28.1328 277.745 27.5469L 281.231 17L 284.806 17ZM 298.136 32L 294.84 32L 294.84 29.6562L 294.781 29.6562C 293.746 31.4531 292.228 32.3516 290.226 32.3516C 288.751 32.3516 287.594 31.9512 286.754 31.1504C 285.924 30.3496 285.509 29.29 285.509 27.9717C 285.509 25.1396 287.14 23.4893 290.401 23.0205L 294.854 22.3906C 294.854 20.252 293.839 19.1826 291.808 19.1826C 290.021 19.1826 288.409 19.7979 286.974 21.0283L 286.974 18.0547C 288.556 17.1172 290.382 16.6484 292.452 16.6484C 296.241 16.6484 298.136 18.5137 298.136 22.2441L 298.136 32ZM 294.854 24.6318L 291.705 25.0713C 290.729 25.1982 289.991 25.4375 289.493 25.7891C 289.005 26.1309 288.761 26.7363 288.761 27.6055C 288.761 28.2402 288.985 28.7627 289.435 29.1729C 289.894 29.5732 290.504 29.7734 291.266 29.7734C 292.301 29.7734 293.155 29.4121 293.829 28.6895C 294.513 27.957 294.854 27.0391 294.854 25.9355L 294.854 24.6318ZM 301.358 31.5312L 301.358 28.3818C 302.628 29.3486 304.029 29.832 305.562 29.832C 307.613 29.832 308.639 29.2266 308.639 28.0156C 308.639 27.6738 308.551 27.3857 308.375 27.1514C 308.199 26.9072 307.96 26.6924 307.657 26.5068C 307.364 26.3213 307.013 26.1553 306.603 26.0088C 306.202 25.8623 305.753 25.6963 305.255 25.5107C 304.64 25.2666 304.083 25.0078 303.585 24.7344C 303.097 24.4609 302.687 24.1533 302.354 23.8115C 302.032 23.46 301.788 23.0645 301.622 22.625C 301.456 22.1855 301.373 21.6729 301.373 21.0869C 301.373 20.3643 301.544 19.7295 301.886 19.1826C 302.228 18.626 302.687 18.1621 303.263 17.791C 303.839 17.4102 304.493 17.127 305.226 16.9414C 305.958 16.7461 306.715 16.6484 307.496 16.6484C 308.883 16.6484 310.123 16.8584 311.217 17.2783L 311.217 20.252C 310.162 19.5293 308.951 19.168 307.584 19.168C 307.154 19.168 306.764 19.2119 306.412 19.2998C 306.07 19.3877 305.777 19.5098 305.533 19.666C 305.289 19.8223 305.099 20.0127 304.962 20.2373C 304.825 20.4521 304.757 20.6914 304.757 20.9551C 304.757 21.2773 304.825 21.5508 304.962 21.7754C 305.099 22 305.299 22.2002 305.562 22.376C 305.836 22.542 306.158 22.6982 306.529 22.8447C 306.91 22.9814 307.345 23.1328 307.833 23.2988C 308.478 23.5625 309.054 23.8311 309.562 24.1045C 310.079 24.3779 310.519 24.6904 310.88 25.042C 311.241 25.3838 311.52 25.7842 311.715 26.2432C 311.91 26.6924 312.008 27.2295 312.008 27.8545C 312.008 28.6162 311.832 29.2803 311.48 29.8467C 311.129 30.4131 310.66 30.8818 310.074 31.2529C 309.488 31.624 308.81 31.8975 308.038 32.0732C 307.276 32.2588 306.471 32.3516 305.621 32.3516C 303.98 32.3516 302.56 32.0781 301.358 31.5312ZM 316.212 36.7754L 313.341 36.7754C 316.368 33.123 317.882 28.8506 317.882 23.958C 317.882 19.0264 316.363 14.7051 313.326 10.9941L 316.227 10.9941C 319.322 14.5684 320.87 18.8994 320.87 23.9873C 320.87 29.0557 319.317 33.3184 316.212 36.7754Z" transform="translate(946 83)" fill="#37E8FD"/>
<path d="M 32.0378 31.1211C 30.4557 31.9414 28.488 32.3516 26.1345 32.3516C 23.0876 32.3516 20.6462 31.3896 18.8102 29.4658C 16.9743 27.542 16.0563 25.0176 16.0563 21.8926C 16.0563 18.5332 17.0866 15.8184 19.1471 13.748C 21.2175 11.6777 23.8298 10.6426 26.9841 10.6426C 29.0153 10.6426 30.6999 10.9307 32.0378 11.5068L 32.0378 14.9639C 30.6218 14.124 29.0593 13.7041 27.3503 13.7041C 25.0749 13.7041 23.2292 14.4316 21.8132 15.8867C 20.4069 17.3418 19.7038 19.2852 19.7038 21.7168C 19.7038 24.0312 20.363 25.877 21.6813 27.2539C 22.9997 28.6211 24.7331 29.3047 26.8815 29.3047C 28.8639 29.3047 30.5827 28.8359 32.0378 27.8984L 32.0378 31.1211ZM 42.2917 32.3516C 39.9772 32.3516 38.1266 31.6533 36.7399 30.2568C 35.363 28.8506 34.6745 26.9902 34.6745 24.6758C 34.6745 22.1562 35.3923 20.1885 36.8278 18.7725C 38.2731 17.3564 40.2165 16.6484 42.6579 16.6484C 45.0016 16.6484 46.8278 17.3369 48.1364 18.7139C 49.445 20.0908 50.0993 22 50.0993 24.4414C 50.0993 26.834 49.3913 28.7529 47.9753 30.1982C 46.569 31.6338 44.6745 32.3516 42.2917 32.3516ZM 42.4528 19.3584C 41.1247 19.3584 40.0749 19.8223 39.3034 20.75C 38.5319 21.6777 38.1462 22.957 38.1462 24.5879C 38.1462 26.1602 38.5368 27.4004 39.318 28.3086C 40.0993 29.207 41.1442 29.6562 42.4528 29.6562C 43.7907 29.6562 44.8161 29.2119 45.529 28.3232C 46.2516 27.4346 46.613 26.1699 46.613 24.5293C 46.613 22.8789 46.2516 21.6045 45.529 20.7061C 44.8161 19.8076 43.7907 19.3584 42.4528 19.3584ZM 75.9977 32L 72.5993 32L 72.5993 23.8262C 72.5993 22.2539 72.3747 21.1162 71.9255 20.4131C 71.486 19.71 70.7389 19.3584 69.6843 19.3584C 68.7956 19.3584 68.0387 19.8027 67.4137 20.6914C 66.7985 21.5801 66.4909 22.6445 66.4909 23.8848L 66.4909 32L 63.0778 32L 63.0778 23.5479C 63.0778 20.7549 62.0915 19.3584 60.1188 19.3584C 59.2009 19.3584 58.444 19.7783 57.8483 20.6182C 57.2624 21.458 56.9694 22.5469 56.9694 23.8848L 56.9694 32L 53.571 32L 53.571 17L 56.9694 17L 56.9694 19.373L 57.028 19.373C 58.112 17.5566 59.6891 16.6484 61.7595 16.6484C 62.7946 16.6484 63.6979 16.9365 64.4694 17.5127C 65.2507 18.0791 65.7829 18.8262 66.0661 19.7539C 67.1794 17.6836 68.8395 16.6484 71.0466 16.6484C 74.3473 16.6484 75.9977 18.6846 75.9977 22.7568L 75.9977 32ZM 102.57 32L 99.1716 32L 99.1716 23.8262C 99.1716 22.2539 98.947 21.1162 98.4977 20.4131C 98.0583 19.71 97.3112 19.3584 96.2565 19.3584C 95.3679 19.3584 94.611 19.8027 93.986 20.6914C 93.3708 21.5801 93.0632 22.6445 93.0632 23.8848L 93.0632 32L 89.6501 32L 89.6501 23.5479C 89.6501 20.7549 88.6637 19.3584 86.6911 19.3584C 85.7731 19.3584 85.0163 19.7783 84.4206 20.6182C 83.8346 21.458 83.5417 22.5469 83.5417 23.8848L 83.5417 32L 80.1432 32L 80.1432 17L 83.5417 17L 83.5417 19.373L 83.6003 19.373C 84.6843 17.5566 86.2614 16.6484 88.3317 16.6484C 89.3669 16.6484 90.2702 16.9365 91.0417 17.5127C 91.8229 18.0791 92.3552 18.8262 92.6384 19.7539C 93.7516 17.6836 95.4118 16.6484 97.6188 16.6484C 100.92 16.6484 102.57 18.6846 102.57 22.7568L 102.57 32ZM 118.229 32L 114.933 32L 114.933 29.6562L 114.875 29.6562C 113.84 31.4531 112.321 32.3516 110.319 32.3516C 108.844 32.3516 107.687 31.9512 106.847 31.1504C 106.017 30.3496 105.602 29.29 105.602 27.9717C 105.602 25.1396 107.233 23.4893 110.495 23.0205L 114.948 22.3906C 114.948 20.252 113.932 19.1826 111.901 19.1826C 110.114 19.1826 108.503 19.7979 107.067 21.0283L 107.067 18.0547C 108.649 17.1172 110.475 16.6484 112.546 16.6484C 116.335 16.6484 118.229 18.5137 118.229 22.2441L 118.229 32ZM 114.948 24.6318L 111.799 25.0713C 110.822 25.1982 110.085 25.4375 109.587 25.7891C 109.098 26.1309 108.854 26.7363 108.854 27.6055C 108.854 28.2402 109.079 28.7627 109.528 29.1729C 109.987 29.5732 110.597 29.7734 111.359 29.7734C 112.394 29.7734 113.249 29.4121 113.923 28.6895C 114.606 27.957 114.948 27.0391 114.948 25.9355L 114.948 24.6318ZM 135.749 32L 132.35 32L 132.35 23.5479C 132.35 20.7451 131.359 19.3438 129.377 19.3438C 128.341 19.3438 127.487 19.7344 126.813 20.5156C 126.139 21.2871 125.802 22.2637 125.802 23.4453L 125.802 32L 122.389 32L 122.389 17L 125.802 17L 125.802 19.4902L 125.861 19.4902C 126.984 17.5957 128.605 16.6484 130.724 16.6484C 132.355 16.6484 133.6 17.1807 134.46 18.2451C 135.319 19.2998 135.749 20.8281 135.749 22.8301L 135.749 32ZM 153.547 32L 150.148 32L 150.148 29.4512L 150.09 29.4512C 148.996 31.3848 147.311 32.3516 145.036 32.3516C 143.19 32.3516 141.711 31.6826 140.597 30.3447C 139.494 28.9971 138.942 27.166 138.942 24.8516C 138.942 22.3711 139.552 20.3838 140.773 18.8896C 142.004 17.3955 143.639 16.6484 145.68 16.6484C 147.702 16.6484 149.172 17.459 150.09 19.0801L 150.148 19.0801L 150.148 9.79297L 153.547 9.79297L 153.547 32ZM 150.192 25.1445L 150.192 23.1816C 150.192 22.1172 149.845 21.2139 149.152 20.4717C 148.459 19.7295 147.575 19.3584 146.501 19.3584C 145.231 19.3584 144.23 19.832 143.498 20.7793C 142.775 21.7266 142.414 23.04 142.414 24.7197C 142.414 26.2432 142.76 27.4492 143.454 28.3379C 144.157 29.2168 145.099 29.6562 146.281 29.6562C 147.443 29.6562 148.385 29.2314 149.108 28.3818C 149.831 27.5225 150.192 26.4434 150.192 25.1445ZM 169.704 29.832L 169.645 29.832L 169.645 32L 166.247 32L 166.247 9.79297L 169.645 9.79297L 169.645 19.6367L 169.704 19.6367C 170.866 17.6445 172.565 16.6484 174.801 16.6484C 176.696 16.6484 178.175 17.3223 179.24 18.6699C 180.314 20.0078 180.851 21.8047 180.851 24.0605C 180.851 26.5703 180.251 28.582 179.049 30.0957C 177.848 31.5996 176.208 32.3516 174.128 32.3516C 172.174 32.3516 170.7 31.5117 169.704 29.832ZM 169.616 23.8701L 169.616 25.7305C 169.616 26.8242 169.963 27.752 170.656 28.5137C 171.359 29.2754 172.248 29.6562 173.322 29.6562C 174.582 29.6562 175.568 29.168 176.281 28.1914C 177.004 27.2051 177.365 25.833 177.365 24.0752C 177.365 22.6006 177.028 21.4482 176.354 20.6182C 175.69 19.7783 174.787 19.3584 173.644 19.3584C 172.433 19.3584 171.457 19.7881 170.715 20.6475C 169.982 21.5068 169.616 22.5811 169.616 23.8701ZM 195.485 32L 192.189 32L 192.189 29.6562L 192.131 29.6562C 191.095 31.4531 189.577 32.3516 187.575 32.3516C 186.1 32.3516 184.943 31.9512 184.103 31.1504C 183.273 30.3496 182.858 29.29 182.858 27.9717C 182.858 25.1396 184.489 23.4893 187.751 23.0205L 192.204 22.3906C 192.204 20.252 191.188 19.1826 189.157 19.1826C 187.37 19.1826 185.758 19.7979 184.323 21.0283L 184.323 18.0547C 185.905 17.1172 187.731 16.6484 189.801 16.6484C 193.591 16.6484 195.485 18.5137 195.485 22.2441L 195.485 32ZM 192.204 24.6318L 189.054 25.0713C 188.078 25.1982 187.341 25.4375 186.842 25.7891C 186.354 26.1309 186.11 26.7363 186.11 27.6055C 186.11 28.2402 186.335 28.7627 186.784 29.1729C 187.243 29.5732 187.853 29.7734 188.615 29.7734C 189.65 29.7734 190.505 29.4121 191.178 28.6895C 191.862 27.957 192.204 27.0391 192.204 25.9355L 192.204 24.6318ZM 208.346 20.2373C 207.936 19.915 207.345 19.7539 206.574 19.7539C 205.568 19.7539 204.728 20.208 204.054 21.1162C 203.381 22.0244 203.044 23.2598 203.044 24.8223L 203.044 32L 199.645 32L 199.645 17L 203.044 17L 203.044 20.0908L 203.102 20.0908C 203.434 19.0361 203.942 18.2158 204.626 17.6299C 205.319 17.0342 206.091 16.7363 206.94 16.7363C 207.555 16.7363 208.024 16.8291 208.346 17.0146L 208.346 20.2373Z" transform="translate(1536.67 80)" fill="#37E8FD"/>
<path fill-rule="evenodd" clip-rule="evenodd" d="M 20 3.33333L 0 3.33333L 0 0L 20 0L 20 3.33333Z" transform="translate(1670 211.667)" fill="black"/>
<rect x="1.5" y="1.5" width="17" height="17" stroke-width="3" transform="translate(1723.33 203.333)" stroke="black"/>
<path fill-rule="evenodd" clip-rule="evenodd" d="M 10.6074 8.25L 2.35742 0L 0 2.35645L 8.25 10.6064L 0.000976562 18.8564L 2.3584 21.2139L 10.6074 12.9639L 18.8564 21.2129L 21.2139 18.8555L 12.9648 10.6064L 21.2139 2.35742L 18.8574 0L 10.6074 8.25Z" transform="translate(1776.06 202.728)" fill="black"/>
</g>
</g>
<defs>
<filter id="filter0_d" x="86.667" y="166.667" width="1746.67" height="906.667" filterUnits="userSpaceOnUse" color-interpolation-filters="sRGB">
<feFlood flood-opacity="0" result="BackgroundImageFix"/>
<feColorMatrix in="SourceAlpha" type="matrix" values="0 0 0 0 0 0 0 0 0 0 0 0 0 0 0 0 0 0 255 0"/>
<feOffset/>
<feGaussianBlur stdDeviation="10"/>
<feColorMatrix type="matrix" values="0 0 0 0 0.095 0 0 0 0 0.153793 0 0 0 0 0.25 0 0 0 1 0"/>
<feBlend mode="normal" in2="BackgroundImageFix" result="effect1_dropShadow"/>
<feBlend mode="normal" in="SourceGraphic" in2="effect1_dropShadow" result="shape"/>
</filter>

<clipPath id="clip0">
<rect width="1920" height="1145" fill="white"/>
</clipPath>

</defs>
</svg>

