<svg width="612" height="400" viewBox="0 0 612 400" version="1.1" xmlns="http://www.w3.org/2000/svg" xmlns:xlink="http://www.w3.org/1999/xlink">
<g id="Canvas" fill="none">
<g id="thumbnail-hub" clip-path="url(#clip0)">
<rect width="612" height="400" fill="#243A5E"/>
<g id="Rectangle">
<rect width="482" height="281" transform="translate(67 59)" fill="white"/>
</g>
<g id="Rectangle 3.12">
<rect width="80" height="16" transform="translate(87 79)" fill="#C8C8C8"/>
</g>
<g id="Rectangle 3.13">
<rect width="80" height="16" transform="translate(87 259)" fill="#C8C8C8"/>
</g>
<g id="Rectangle 4">
<rect width="166" height="123" transform="translate(87 106)" fill="#50E6FF"/>
</g>
<g id="Rectangle 4.1">
<rect width="79" height="123" transform="translate(260 106)" fill="#C4C4C4"/>
</g>
<g id="Rectangle 4.2">
<rect width="57.9148" height="58.4603" transform="translate(345 106)" fill="#C4C4C4"/>
</g>
<g id="Rectangle 4.3">
<rect width="57.9148" height="58.4603" transform="translate(345 170.54)" fill="#C4C4C4"/>
</g>
<g id="Rectangle 4.4">
<rect width="57.9148" height="58.4603" transform="translate(410 106)" fill="#C4C4C4"/>
</g>
<g id="Rectangle 4.5">
<rect width="57.9148" height="58.4603" transform="translate(410 170.54)" fill="#C4C4C4"/>
</g>
<g id="Rectangle 4.6">
<rect width="57.9148" height="58.4603" transform="translate(474.085 106)" fill="#C4C4C4"/>
</g>
<g id="Rectangle 4.7">
<rect width="57.9148" height="58.4603" transform="translate(474.085 170.54)" fill="#C4C4C4"/>
</g>
<g id="Rectangle 4.8">
<rect width="57.8688" height="54" transform="translate(87 286)" fill="#C4C4C4"/>
</g>
<g id="Rectangle 4.10">
<rect width="57.8688" height="54" transform="translate(152.022 286)" fill="#C4C4C4"/>
</g>
<g id="Rectangle 4.12">
<rect width="57.8688" height="54" transform="translate(216.044 286)" fill="#C4C4C4"/>
</g>
<g id="Rectangle 4.13">
<rect width="57.8688" height="54" transform="translate(281.065 286)" fill="#C4C4C4"/>
</g>
<g id="Rectangle 4.14">
<rect width="57.8688" height="54" transform="translate(345.088 286)" fill="#C4C4C4"/>
</g>
<g id="Rectangle 4.15">
<rect width="57.8688" height="54" transform="translate(410.109 286)" fill="#C4C4C4"/>
</g>
<g id="Rectangle 4.16">
<rect width="57.8688" height="54" transform="translate(474.131 286)" fill="#C4C4C4"/>
</g>
</g>
</g>
<defs>

<clipPath id="clip0">
<rect width="612" height="400" fill="white"/>
</clipPath>

</defs>
</svg>

