<svg width="941" height="529" viewBox="0 0 941 529" version="1.1" xmlns="http://www.w3.org/2000/svg" xmlns:xlink="http://www.w3.org/1999/xlink">
<g id="Canvas" fill="none">
<g id="collection-pages" clip-path="url(#clip0)">
<rect width="941" height="529" fill="#243A5E"/>
<g id="Group 2">
<g id="Group">
<g id="Rectangle">
<rect width="184" height="103" transform="translate(73 112)" fill="#F4F4F4"/>
</g>
<g id="Rectangle_2">
<rect width="120" height="67.234" transform="translate(311 281)" fill="#F4F4F4"/>
</g>
<g id="Rectangle_3">
<rect width="120" height="67.234" transform="translate(451 281)" fill="#F4F4F4"/>
</g>
<g id="Rectangle_4">
<rect width="120" height="67.234" transform="translate(381 393)" fill="#F4F4F4"/>
</g>
<g id="Rectangle_5">
<rect width="120" height="67.234" transform="translate(521 393)" fill="#F4F4F4"/>
</g>
<g id="Rectangle_6">
<rect width="120" height="67.234" transform="translate(171 281)" fill="#F4F4F4"/>
</g>
<g id="Rectangle_7">
<rect width="184" height="103" transform="translate(277 112)" fill="#F4F4F4"/>
</g>
<g id="Rectangle_8">
<rect width="184" height="103" transform="translate(481 112)" fill="#F4F4F4"/>
</g>
<g id="Rectangle_9">
<rect width="184" height="103" transform="translate(685 112)" fill="#F4F4F4"/>
</g>
<g id="Vector">
<path d="M 613 45L 613 0L 0 0L 0 45" stroke-width="4" transform="translate(165 68)" stroke="#50E6FF"/>
</g>
<g id="Vector 2">
<path d="M 0 42L 0 0" stroke-width="4" transform="translate(371 70)" stroke="#50E6FF"/>
</g>
<g id="Vector 2.2">
<path d="M 0 42L 0 0" stroke-width="4" transform="translate(371 215)" stroke="#50E6FF"/>
</g>
<g id="Vector 2.1">
<path d="M 0 42L 0 0" stroke-width="4" transform="translate(573 70)" stroke="#50E6FF"/>
</g>
<g id="Vector 3">
<path d="M 0 24L 0 0L 278 0L 278 24" stroke-width="4" transform="translate(233 258)" stroke="#50E6FF"/>
</g>
<g id="Vector 3.1">
<path d="M 0 24L 0 0L 140 0L 140 24" stroke-width="4" transform="translate(441 369)" stroke="#50E6FF"/>
</g>
<g id="Vector 4">
<path d="M 0 0L 0 22" stroke-width="4" transform="translate(371 260)" stroke="#50E6FF"/>
</g>
<g id="Vector 4.1">
<path d="M 0 0L 0 22" stroke-width="4" transform="translate(511 348)" stroke="#50E6FF"/>
</g>
</g>
<g id="PAGE 1">
<path d="M 4.35938 16.9219L 4.35938 22L 2.04492 22L 2.04492 7.99609L 6.29297 7.99609C 7.90104 7.99609 9.14779 8.37044 10.0332 9.11914C 10.9186 9.86784 11.3613 10.9225 11.3613 12.2832C 11.3613 13.6439 10.8991 14.7572 9.97461 15.623C 9.05013 16.4889 7.80013 16.9219 6.22461 16.9219L 4.35938 16.9219ZM 4.35938 9.91016L 4.35938 15.0273L 5.86328 15.0273C 6.85938 15.0273 7.61784 14.7962 8.13867 14.334C 8.65951 13.8717 8.91992 13.2207 8.91992 12.3809C 8.91992 10.7337 7.96289 9.91016 6.04883 9.91016L 4.35938 9.91016ZM 23.8613 22L 21.3125 22L 20.0527 18.4355L 14.5449 18.4355L 13.334 22L 10.7949 22L 16.0391 7.99609L 18.6562 7.99609L 23.8613 22ZM 19.4375 16.541L 17.4941 10.9551C 17.4355 10.7728 17.3737 10.4798 17.3086 10.0762L 17.2695 10.0762C 17.2109 10.4473 17.1458 10.7402 17.0742 10.9551L 15.1504 16.541L 19.4375 16.541ZM 36.4883 21.043C 35.0299 21.8372 33.4056 22.2344 31.6152 22.2344C 29.5449 22.2344 27.8685 21.5898 26.5859 20.3008C 25.3034 19.0117 24.6621 17.306 24.6621 15.1836C 24.6621 13.0156 25.362 11.2383 26.7617 9.85156C 28.168 8.45833 29.9518 7.76172 32.1133 7.76172C 33.6693 7.76172 34.9779 7.98958 36.0391 8.44531L 36.0391 10.8379C 34.9648 10.1217 33.6855 9.76367 32.2012 9.76367C 30.7103 9.76367 29.4863 10.2552 28.5293 11.2383C 27.5788 12.2214 27.1035 13.4941 27.1035 15.0566C 27.1035 16.6647 27.5137 17.931 28.334 18.8555C 29.1543 19.7734 30.2676 20.2324 31.6738 20.2324C 32.6374 20.2324 33.4707 20.0469 34.1738 19.6758L 34.1738 16.3457L 31.2246 16.3457L 31.2246 14.3926L 36.4883 14.3926L 36.4883 21.043ZM 47.3672 22L 39.5059 22L 39.5059 7.99609L 47.0547 7.99609L 47.0547 9.96875L 41.8301 9.96875L 41.8301 13.9336L 46.6445 13.9336L 46.6445 15.8965L 41.8301 15.8965L 41.8301 20.0371L 47.3672 20.0371L 47.3672 22ZM 59.6426 7.68359L 59.6426 22L 57.377 22L 57.377 10.457C 56.9668 10.75 56.5241 11.0007 56.0488 11.209C 55.5801 11.4108 55.043 11.5898 54.4375 11.7461L 54.4375 9.8125C 54.8151 9.6888 55.1797 9.55859 55.5312 9.42188C 55.8828 9.28516 56.2279 9.13216 56.5664 8.96289C 56.9115 8.79362 57.2565 8.60482 57.6016 8.39648C 57.9531 8.18815 58.3145 7.95052 58.6855 7.68359L 59.6426 7.68359Z" transform="translate(134 147)" fill="#243A5E"/>
</g>
<g id="2A">
<path d="M 9.9707 22L 1.18164 22L 1.18164 20.916C 1.18164 20.4733 1.24349 20.0599 1.36719 19.6758C 1.49089 19.2852 1.6569 18.9206 1.86523 18.582C 2.07357 18.237 2.31771 17.9147 2.59766 17.6152C 2.8776 17.3092 3.17708 17.0163 3.49609 16.7363C 3.8151 16.4499 4.14062 16.1764 4.47266 15.916C 4.80469 15.6491 5.13021 15.3822 5.44922 15.1152C 5.7487 14.8613 6.02214 14.6139 6.26953 14.373C 6.51693 14.1257 6.72852 13.8717 6.9043 13.6113C 7.08008 13.3509 7.2168 13.0775 7.31445 12.791C 7.41211 12.498 7.46094 12.1823 7.46094 11.8438C 7.46094 11.4727 7.40234 11.1504 7.28516 10.877C 7.17448 10.597 7.01497 10.3659 6.80664 10.1836C 6.60482 9.99479 6.36393 9.85482 6.08398 9.76367C 5.80404 9.66602 5.49805 9.61719 5.16602 9.61719C 4.5931 9.61719 4.01042 9.75065 3.41797 10.0176C 2.82552 10.2845 2.25586 10.6849 1.70898 11.2188L 1.70898 9.04102C 1.99544 8.82617 2.28516 8.64062 2.57812 8.48438C 2.87109 8.32161 3.17383 8.18815 3.48633 8.08398C 3.79883 7.97331 4.1276 7.89193 4.47266 7.83984C 4.81771 7.78776 5.18555 7.76172 5.57617 7.76172C 6.20768 7.76172 6.7806 7.84635 7.29492 8.01562C 7.80924 8.17839 8.2487 8.42253 8.61328 8.74805C 8.97786 9.06706 9.25781 9.46745 9.45312 9.94922C 9.65495 10.431 9.75586 10.9844 9.75586 11.6094C 9.75586 12.1758 9.68424 12.6868 9.54102 13.1426C 9.4043 13.5918 9.20573 14.0117 8.94531 14.4023C 8.69141 14.793 8.38216 15.1641 8.01758 15.5156C 7.65299 15.8672 7.24609 16.2285 6.79688 16.5996C 6.41927 16.9056 6.04167 17.2051 5.66406 17.498C 5.29297 17.7845 4.95768 18.0677 4.6582 18.3477C 4.35872 18.6211 4.11458 18.8978 3.92578 19.1777C 3.74349 19.4512 3.65234 19.7279 3.65234 20.0078L 3.65234 20.0566L 9.9707 20.0566L 9.9707 22ZM 24.5703 22L 22.0215 22L 20.7617 18.4355L 15.2539 18.4355L 14.043 22L 11.5039 22L 16.748 7.99609L 19.3652 7.99609L 24.5703 22ZM 20.1465 16.541L 18.2031 10.9551C 18.1445 10.7728 18.0827 10.4798 18.0176 10.0762L 17.9785 10.0762C 17.9199 10.4473 17.8548 10.7402 17.7832 10.9551L 15.8594 16.541L 20.1465 16.541Z" transform="translate(221 297)" fill="#243A5E"/>
</g>
<g id="2B">
<path d="M 10.1445 22L 1.35547 22L 1.35547 20.916C 1.35547 20.4733 1.41732 20.0599 1.54102 19.6758C 1.66471 19.2852 1.83073 18.9206 2.03906 18.582C 2.2474 18.237 2.49154 17.9147 2.77148 17.6152C 3.05143 17.3092 3.35091 17.0163 3.66992 16.7363C 3.98893 16.4499 4.31445 16.1764 4.64648 15.916C 4.97852 15.6491 5.30404 15.3822 5.62305 15.1152C 5.92253 14.8613 6.19596 14.6139 6.44336 14.373C 6.69076 14.1257 6.90234 13.8717 7.07812 13.6113C 7.25391 13.3509 7.39062 13.0775 7.48828 12.791C 7.58594 12.498 7.63477 12.1823 7.63477 11.8438C 7.63477 11.4727 7.57617 11.1504 7.45898 10.877C 7.34831 10.597 7.1888 10.3659 6.98047 10.1836C 6.77865 9.99479 6.53776 9.85482 6.25781 9.76367C 5.97786 9.66602 5.67188 9.61719 5.33984 9.61719C 4.76693 9.61719 4.18424 9.75065 3.5918 10.0176C 2.99935 10.2845 2.42969 10.6849 1.88281 11.2188L 1.88281 9.04102C 2.16927 8.82617 2.45898 8.64062 2.75195 8.48438C 3.04492 8.32161 3.34766 8.18815 3.66016 8.08398C 3.97266 7.97331 4.30143 7.89193 4.64648 7.83984C 4.99154 7.78776 5.35938 7.76172 5.75 7.76172C 6.38151 7.76172 6.95443 7.84635 7.46875 8.01562C 7.98307 8.17839 8.42253 8.42253 8.78711 8.74805C 9.15169 9.06706 9.43164 9.46745 9.62695 9.94922C 9.82878 10.431 9.92969 10.9844 9.92969 11.6094C 9.92969 12.1758 9.85807 12.6868 9.71484 13.1426C 9.57812 13.5918 9.37956 14.0117 9.11914 14.4023C 8.86523 14.793 8.55599 15.1641 8.19141 15.5156C 7.82682 15.8672 7.41992 16.2285 6.9707 16.5996C 6.5931 16.9056 6.21549 17.2051 5.83789 17.498C 5.4668 17.7845 5.13151 18.0677 4.83203 18.3477C 4.53255 18.6211 4.28841 18.8978 4.09961 19.1777C 3.91732 19.4512 3.82617 19.7279 3.82617 20.0078L 3.82617 20.0566L 10.1445 20.0566L 10.1445 22ZM 13.2402 22L 13.2402 7.99609L 17.6836 7.99609C 19.0378 7.99609 20.1087 8.29232 20.8965 8.88477C 21.6908 9.47721 22.0879 10.2487 22.0879 11.1992C 22.0879 11.9935 21.8633 12.6836 21.4141 13.2695C 20.9648 13.8555 20.3431 14.2721 19.5488 14.5195L 19.5488 14.5586C 20.5124 14.6693 21.2806 15.0273 21.8535 15.6328C 22.4329 16.2318 22.7227 17.013 22.7227 17.9766C 22.7227 19.1745 22.2507 20.1445 21.3066 20.8867C 20.3626 21.6289 19.1712 22 17.7324 22L 13.2402 22ZM 15.5547 9.86133L 15.5547 13.8457L 17.0586 13.8457C 17.8659 13.8457 18.4974 13.6569 18.9531 13.2793C 19.4154 12.8952 19.6465 12.3548 19.6465 11.6582C 19.6465 10.4603 18.8457 9.86133 17.2441 9.86133L 15.5547 9.86133ZM 15.5547 15.7109L 15.5547 20.1445L 17.5371 20.1445C 18.403 20.1445 19.0703 19.946 19.5391 19.5488C 20.0143 19.1452 20.252 18.5918 20.252 17.8887C 20.252 16.4368 19.2461 15.7109 17.2344 15.7109L 15.5547 15.7109Z" transform="translate(359 297)" fill="#243A5E"/>
</g>
<g id="2C">
<path d="M 9.97852 22L 1.18945 22L 1.18945 20.916C 1.18945 20.4733 1.2513 20.0599 1.375 19.6758C 1.4987 19.2852 1.66471 18.9206 1.87305 18.582C 2.08138 18.237 2.32552 17.9147 2.60547 17.6152C 2.88542 17.3092 3.1849 17.0163 3.50391 16.7363C 3.82292 16.4499 4.14844 16.1764 4.48047 15.916C 4.8125 15.6491 5.13802 15.3822 5.45703 15.1152C 5.75651 14.8613 6.02995 14.6139 6.27734 14.373C 6.52474 14.1257 6.73633 13.8717 6.91211 13.6113C 7.08789 13.3509 7.22461 13.0775 7.32227 12.791C 7.41992 12.498 7.46875 12.1823 7.46875 11.8438C 7.46875 11.4727 7.41016 11.1504 7.29297 10.877C 7.18229 10.597 7.02279 10.3659 6.81445 10.1836C 6.61263 9.99479 6.37174 9.85482 6.0918 9.76367C 5.81185 9.66602 5.50586 9.61719 5.17383 9.61719C 4.60091 9.61719 4.01823 9.75065 3.42578 10.0176C 2.83333 10.2845 2.26367 10.6849 1.7168 11.2188L 1.7168 9.04102C 2.00326 8.82617 2.29297 8.64062 2.58594 8.48438C 2.87891 8.32161 3.18164 8.18815 3.49414 8.08398C 3.80664 7.97331 4.13542 7.89193 4.48047 7.83984C 4.82552 7.78776 5.19336 7.76172 5.58398 7.76172C 6.21549 7.76172 6.78841 7.84635 7.30273 8.01562C 7.81706 8.17839 8.25651 8.42253 8.62109 8.74805C 8.98568 9.06706 9.26562 9.46745 9.46094 9.94922C 9.66276 10.431 9.76367 10.9844 9.76367 11.6094C 9.76367 12.1758 9.69206 12.6868 9.54883 13.1426C 9.41211 13.5918 9.21354 14.0117 8.95312 14.4023C 8.69922 14.793 8.38997 15.1641 8.02539 15.5156C 7.66081 15.8672 7.25391 16.2285 6.80469 16.5996C 6.42708 16.9056 6.04948 17.2051 5.67188 17.498C 5.30078 17.7845 4.96549 18.0677 4.66602 18.3477C 4.36654 18.6211 4.1224 18.8978 3.93359 19.1777C 3.7513 19.4512 3.66016 19.7279 3.66016 20.0078L 3.66016 20.0566L 9.97852 20.0566L 9.97852 22ZM 22.8398 21.4141C 21.7852 21.9609 20.4733 22.2344 18.9043 22.2344C 16.873 22.2344 15.2454 21.5931 14.0215 20.3105C 12.7975 19.028 12.1855 17.3451 12.1855 15.2617C 12.1855 13.0221 12.8724 11.2122 14.2461 9.83203C 15.6263 8.45182 17.3678 7.76172 19.4707 7.76172C 20.8249 7.76172 21.9479 7.95378 22.8398 8.33789L 22.8398 10.6426C 21.8958 10.0827 20.8542 9.80273 19.7148 9.80273C 18.1979 9.80273 16.9674 10.2878 16.0234 11.2578C 15.0859 12.2279 14.6172 13.5234 14.6172 15.1445C 14.6172 16.6875 15.0566 17.918 15.9355 18.8359C 16.8145 19.7474 17.9701 20.2031 19.4023 20.2031C 20.724 20.2031 21.8698 19.8906 22.8398 19.2656L 22.8398 21.4141Z" transform="translate(499 297)" fill="#243A5E"/>
</g>
<g id="2C1">
<path d="M 9.95508 22L 1.16602 22L 1.16602 20.916C 1.16602 20.4733 1.22786 20.0599 1.35156 19.6758C 1.47526 19.2852 1.64128 18.9206 1.84961 18.582C 2.05794 18.237 2.30208 17.9147 2.58203 17.6152C 2.86198 17.3092 3.16146 17.0163 3.48047 16.7363C 3.79948 16.4499 4.125 16.1764 4.45703 15.916C 4.78906 15.6491 5.11458 15.3822 5.43359 15.1152C 5.73307 14.8613 6.00651 14.6139 6.25391 14.373C 6.5013 14.1257 6.71289 13.8717 6.88867 13.6113C 7.06445 13.3509 7.20117 13.0775 7.29883 12.791C 7.39648 12.498 7.44531 12.1823 7.44531 11.8438C 7.44531 11.4727 7.38672 11.1504 7.26953 10.877C 7.15885 10.597 6.99935 10.3659 6.79102 10.1836C 6.58919 9.99479 6.34831 9.85482 6.06836 9.76367C 5.78841 9.66602 5.48242 9.61719 5.15039 9.61719C 4.57747 9.61719 3.99479 9.75065 3.40234 10.0176C 2.8099 10.2845 2.24023 10.6849 1.69336 11.2188L 1.69336 9.04102C 1.97982 8.82617 2.26953 8.64062 2.5625 8.48438C 2.85547 8.32161 3.1582 8.18815 3.4707 8.08398C 3.7832 7.97331 4.11198 7.89193 4.45703 7.83984C 4.80208 7.78776 5.16992 7.76172 5.56055 7.76172C 6.19206 7.76172 6.76497 7.84635 7.2793 8.01562C 7.79362 8.17839 8.23307 8.42253 8.59766 8.74805C 8.96224 9.06706 9.24219 9.46745 9.4375 9.94922C 9.63932 10.431 9.74023 10.9844 9.74023 11.6094C 9.74023 12.1758 9.66862 12.6868 9.52539 13.1426C 9.38867 13.5918 9.1901 14.0117 8.92969 14.4023C 8.67578 14.793 8.36654 15.1641 8.00195 15.5156C 7.63737 15.8672 7.23047 16.2285 6.78125 16.5996C 6.40365 16.9056 6.02604 17.2051 5.64844 17.498C 5.27734 17.7845 4.94206 18.0677 4.64258 18.3477C 4.3431 18.6211 4.09896 18.8978 3.91016 19.1777C 3.72786 19.4512 3.63672 19.7279 3.63672 20.0078L 3.63672 20.0566L 9.95508 20.0566L 9.95508 22ZM 22.8164 21.4141C 21.7617 21.9609 20.4499 22.2344 18.8809 22.2344C 16.8496 22.2344 15.222 21.5931 13.998 20.3105C 12.7741 19.028 12.1621 17.3451 12.1621 15.2617C 12.1621 13.0221 12.849 11.2122 14.2227 9.83203C 15.6029 8.45182 17.3444 7.76172 19.4473 7.76172C 20.8014 7.76172 21.9245 7.95378 22.8164 8.33789L 22.8164 10.6426C 21.8724 10.0827 20.8307 9.80273 19.6914 9.80273C 18.1745 9.80273 16.944 10.2878 16 11.2578C 15.0625 12.2279 14.5938 13.5234 14.5938 15.1445C 14.5938 16.6875 15.0332 17.918 15.9121 18.8359C 16.791 19.7474 17.9466 20.2031 19.3789 20.2031C 20.7005 20.2031 21.8464 19.8906 22.8164 19.2656L 22.8164 21.4141ZM 29.75 7.68359L 29.75 22L 27.4844 22L 27.4844 10.457C 27.0742 10.75 26.6315 11.0007 26.1562 11.209C 25.6875 11.4108 25.1504 11.5898 24.5449 11.7461L 24.5449 9.8125C 24.9225 9.6888 25.2871 9.55859 25.6387 9.42188C 25.9902 9.28516 26.3353 9.13216 26.6738 8.96289C 27.0189 8.79362 27.3639 8.60482 27.709 8.39648C 28.0605 8.18815 28.4219 7.95052 28.793 7.68359L 29.75 7.68359Z" transform="translate(425 412)" fill="#243A5E"/>
</g>
<g id="2C2">
<path d="M 9.92188 22L 1.13281 22L 1.13281 20.916C 1.13281 20.4733 1.19466 20.0599 1.31836 19.6758C 1.44206 19.2852 1.60807 18.9206 1.81641 18.582C 2.02474 18.237 2.26888 17.9147 2.54883 17.6152C 2.82878 17.3092 3.12826 17.0163 3.44727 16.7363C 3.76628 16.4499 4.0918 16.1764 4.42383 15.916C 4.75586 15.6491 5.08138 15.3822 5.40039 15.1152C 5.69987 14.8613 5.97331 14.6139 6.2207 14.373C 6.4681 14.1257 6.67969 13.8717 6.85547 13.6113C 7.03125 13.3509 7.16797 13.0775 7.26562 12.791C 7.36328 12.498 7.41211 12.1823 7.41211 11.8438C 7.41211 11.4727 7.35352 11.1504 7.23633 10.877C 7.12565 10.597 6.96615 10.3659 6.75781 10.1836C 6.55599 9.99479 6.3151 9.85482 6.03516 9.76367C 5.75521 9.66602 5.44922 9.61719 5.11719 9.61719C 4.54427 9.61719 3.96159 9.75065 3.36914 10.0176C 2.77669 10.2845 2.20703 10.6849 1.66016 11.2188L 1.66016 9.04102C 1.94661 8.82617 2.23633 8.64062 2.5293 8.48438C 2.82227 8.32161 3.125 8.18815 3.4375 8.08398C 3.75 7.97331 4.07878 7.89193 4.42383 7.83984C 4.76888 7.78776 5.13672 7.76172 5.52734 7.76172C 6.15885 7.76172 6.73177 7.84635 7.24609 8.01562C 7.76042 8.17839 8.19987 8.42253 8.56445 8.74805C 8.92904 9.06706 9.20898 9.46745 9.4043 9.94922C 9.60612 10.431 9.70703 10.9844 9.70703 11.6094C 9.70703 12.1758 9.63542 12.6868 9.49219 13.1426C 9.35547 13.5918 9.1569 14.0117 8.89648 14.4023C 8.64258 14.793 8.33333 15.1641 7.96875 15.5156C 7.60417 15.8672 7.19727 16.2285 6.74805 16.5996C 6.37044 16.9056 5.99284 17.2051 5.61523 17.498C 5.24414 17.7845 4.90885 18.0677 4.60938 18.3477C 4.3099 18.6211 4.06576 18.8978 3.87695 19.1777C 3.69466 19.4512 3.60352 19.7279 3.60352 20.0078L 3.60352 20.0566L 9.92188 20.0566L 9.92188 22ZM 22.7832 21.4141C 21.7285 21.9609 20.4167 22.2344 18.8477 22.2344C 16.8164 22.2344 15.1888 21.5931 13.9648 20.3105C 12.7409 19.028 12.1289 17.3451 12.1289 15.2617C 12.1289 13.0221 12.8158 11.2122 14.1895 9.83203C 15.5697 8.45182 17.3112 7.76172 19.4141 7.76172C 20.7682 7.76172 21.8913 7.95378 22.7832 8.33789L 22.7832 10.6426C 21.8392 10.0827 20.7975 9.80273 19.6582 9.80273C 18.1413 9.80273 16.9108 10.2878 15.9668 11.2578C 15.0293 12.2279 14.5605 13.5234 14.5605 15.1445C 14.5605 16.6875 15 17.918 15.8789 18.8359C 16.7578 19.7474 17.9134 20.2031 19.3457 20.2031C 20.6673 20.2031 21.8132 19.8906 22.7832 19.2656L 22.7832 21.4141ZM 33.457 22L 24.668 22L 24.668 20.916C 24.668 20.4733 24.7298 20.0599 24.8535 19.6758C 24.9772 19.2852 25.1432 18.9206 25.3516 18.582C 25.5599 18.237 25.804 17.9147 26.084 17.6152C 26.3639 17.3092 26.6634 17.0163 26.9824 16.7363C 27.3014 16.4499 27.627 16.1764 27.959 15.916C 28.291 15.6491 28.6165 15.3822 28.9355 15.1152C 29.235 14.8613 29.5085 14.6139 29.7559 14.373C 30.0033 14.1257 30.2148 13.8717 30.3906 13.6113C 30.5664 13.3509 30.7031 13.0775 30.8008 12.791C 30.8984 12.498 30.9473 12.1823 30.9473 11.8438C 30.9473 11.4727 30.8887 11.1504 30.7715 10.877C 30.6608 10.597 30.5013 10.3659 30.293 10.1836C 30.0911 9.99479 29.8503 9.85482 29.5703 9.76367C 29.2904 9.66602 28.9844 9.61719 28.6523 9.61719C 28.0794 9.61719 27.4967 9.75065 26.9043 10.0176C 26.3118 10.2845 25.7422 10.6849 25.1953 11.2188L 25.1953 9.04102C 25.4818 8.82617 25.7715 8.64062 26.0645 8.48438C 26.3574 8.32161 26.6602 8.18815 26.9727 8.08398C 27.2852 7.97331 27.6139 7.89193 27.959 7.83984C 28.304 7.78776 28.6719 7.76172 29.0625 7.76172C 29.694 7.76172 30.2669 7.84635 30.7812 8.01562C 31.2956 8.17839 31.735 8.42253 32.0996 8.74805C 32.4642 9.06706 32.7441 9.46745 32.9395 9.94922C 33.1413 10.431 33.2422 10.9844 33.2422 11.6094C 33.2422 12.1758 33.1706 12.6868 33.0273 13.1426C 32.8906 13.5918 32.6921 14.0117 32.4316 14.4023C 32.1777 14.793 31.8685 15.1641 31.5039 15.5156C 31.1393 15.8672 30.7324 16.2285 30.2832 16.5996C 29.9056 16.9056 29.528 17.2051 29.1504 17.498C 28.7793 17.7845 28.444 18.0677 28.1445 18.3477C 27.8451 18.6211 27.6009 18.8978 27.4121 19.1777C 27.2298 19.4512 27.1387 19.7279 27.1387 20.0078L 27.1387 20.0566L 33.457 20.0566L 33.457 22Z" transform="translate(564 412)" fill="#243A5E"/>
</g>
<g id="PAGE 2">
<path d="M 4.32617 16.9219L 4.32617 22L 2.01172 22L 2.01172 7.99609L 6.25977 7.99609C 7.86784 7.99609 9.11458 8.37044 10 9.11914C 10.8854 9.86784 11.3281 10.9225 11.3281 12.2832C 11.3281 13.6439 10.8659 14.7572 9.94141 15.623C 9.01693 16.4889 7.76693 16.9219 6.19141 16.9219L 4.32617 16.9219ZM 4.32617 9.91016L 4.32617 15.0273L 5.83008 15.0273C 6.82617 15.0273 7.58464 14.7962 8.10547 14.334C 8.6263 13.8717 8.88672 13.2207 8.88672 12.3809C 8.88672 10.7337 7.92969 9.91016 6.01562 9.91016L 4.32617 9.91016ZM 23.8281 22L 21.2793 22L 20.0195 18.4355L 14.5117 18.4355L 13.3008 22L 10.7617 22L 16.0059 7.99609L 18.623 7.99609L 23.8281 22ZM 19.4043 16.541L 17.4609 10.9551C 17.4023 10.7728 17.3405 10.4798 17.2754 10.0762L 17.2363 10.0762C 17.1777 10.4473 17.1126 10.7402 17.041 10.9551L 15.1172 16.541L 19.4043 16.541ZM 36.4551 21.043C 34.9967 21.8372 33.3724 22.2344 31.582 22.2344C 29.5117 22.2344 27.8353 21.5898 26.5527 20.3008C 25.2702 19.0117 24.6289 17.306 24.6289 15.1836C 24.6289 13.0156 25.3288 11.2383 26.7285 9.85156C 28.1348 8.45833 29.9186 7.76172 32.0801 7.76172C 33.6361 7.76172 34.9447 7.98958 36.0059 8.44531L 36.0059 10.8379C 34.9316 10.1217 33.6523 9.76367 32.168 9.76367C 30.6771 9.76367 29.4531 10.2552 28.4961 11.2383C 27.5456 12.2214 27.0703 13.4941 27.0703 15.0566C 27.0703 16.6647 27.4805 17.931 28.3008 18.8555C 29.1211 19.7734 30.2344 20.2324 31.6406 20.2324C 32.6042 20.2324 33.4375 20.0469 34.1406 19.6758L 34.1406 16.3457L 31.1914 16.3457L 31.1914 14.3926L 36.4551 14.3926L 36.4551 21.043ZM 47.334 22L 39.4727 22L 39.4727 7.99609L 47.0215 7.99609L 47.0215 9.96875L 41.7969 9.96875L 41.7969 13.9336L 46.6113 13.9336L 46.6113 15.8965L 41.7969 15.8965L 41.7969 20.0371L 47.334 20.0371L 47.334 22ZM 63.3496 22L 54.5605 22L 54.5605 20.916C 54.5605 20.4733 54.6224 20.0599 54.7461 19.6758C 54.8698 19.2852 55.0358 18.9206 55.2441 18.582C 55.4525 18.237 55.6966 17.9147 55.9766 17.6152C 56.2565 17.3092 56.556 17.0163 56.875 16.7363C 57.194 16.4499 57.5195 16.1764 57.8516 15.916C 58.1836 15.6491 58.5091 15.3822 58.8281 15.1152C 59.1276 14.8613 59.401 14.6139 59.6484 14.373C 59.8958 14.1257 60.1074 13.8717 60.2832 13.6113C 60.459 13.3509 60.5957 13.0775 60.6934 12.791C 60.791 12.498 60.8398 12.1823 60.8398 11.8438C 60.8398 11.4727 60.7812 11.1504 60.6641 10.877C 60.5534 10.597 60.3939 10.3659 60.1855 10.1836C 59.9837 9.99479 59.7428 9.85482 59.4629 9.76367C 59.1829 9.66602 58.877 9.61719 58.5449 9.61719C 57.972 9.61719 57.3893 9.75065 56.7969 10.0176C 56.2044 10.2845 55.6348 10.6849 55.0879 11.2188L 55.0879 9.04102C 55.3743 8.82617 55.6641 8.64062 55.957 8.48438C 56.25 8.32161 56.5527 8.18815 56.8652 8.08398C 57.1777 7.97331 57.5065 7.89193 57.8516 7.83984C 58.1966 7.78776 58.5645 7.76172 58.9551 7.76172C 59.5866 7.76172 60.1595 7.84635 60.6738 8.01562C 61.1882 8.17839 61.6276 8.42253 61.9922 8.74805C 62.3568 9.06706 62.6367 9.46745 62.832 9.94922C 63.0339 10.431 63.1348 10.9844 63.1348 11.6094C 63.1348 12.1758 63.0632 12.6868 62.9199 13.1426C 62.7832 13.5918 62.5846 14.0117 62.3242 14.4023C 62.0703 14.793 61.7611 15.1641 61.3965 15.5156C 61.0319 15.8672 60.625 16.2285 60.1758 16.5996C 59.7982 16.9056 59.4206 17.2051 59.043 17.498C 58.6719 17.7845 58.3366 18.0677 58.0371 18.3477C 57.7376 18.6211 57.4935 18.8978 57.3047 19.1777C 57.1224 19.4512 57.0312 19.7279 57.0312 20.0078L 57.0312 20.0566L 63.3496 20.0566L 63.3496 22Z" transform="translate(339 147)" fill="#243A5E"/>
</g>
<g id="PAGE 3">
<path d="M 4.32617 16.9219L 4.32617 22L 2.01172 22L 2.01172 7.99609L 6.25977 7.99609C 7.86784 7.99609 9.11458 8.37044 10 9.11914C 10.8854 9.86784 11.3281 10.9225 11.3281 12.2832C 11.3281 13.6439 10.8659 14.7572 9.94141 15.623C 9.01693 16.4889 7.76693 16.9219 6.19141 16.9219L 4.32617 16.9219ZM 4.32617 9.91016L 4.32617 15.0273L 5.83008 15.0273C 6.82617 15.0273 7.58464 14.7962 8.10547 14.334C 8.6263 13.8717 8.88672 13.2207 8.88672 12.3809C 8.88672 10.7337 7.92969 9.91016 6.01562 9.91016L 4.32617 9.91016ZM 23.8281 22L 21.2793 22L 20.0195 18.4355L 14.5117 18.4355L 13.3008 22L 10.7617 22L 16.0059 7.99609L 18.623 7.99609L 23.8281 22ZM 19.4043 16.541L 17.4609 10.9551C 17.4023 10.7728 17.3405 10.4798 17.2754 10.0762L 17.2363 10.0762C 17.1777 10.4473 17.1126 10.7402 17.041 10.9551L 15.1172 16.541L 19.4043 16.541ZM 36.4551 21.043C 34.9967 21.8372 33.3724 22.2344 31.582 22.2344C 29.5117 22.2344 27.8353 21.5898 26.5527 20.3008C 25.2702 19.0117 24.6289 17.306 24.6289 15.1836C 24.6289 13.0156 25.3288 11.2383 26.7285 9.85156C 28.1348 8.45833 29.9186 7.76172 32.0801 7.76172C 33.6361 7.76172 34.9447 7.98958 36.0059 8.44531L 36.0059 10.8379C 34.9316 10.1217 33.6523 9.76367 32.168 9.76367C 30.6771 9.76367 29.4531 10.2552 28.4961 11.2383C 27.5456 12.2214 27.0703 13.4941 27.0703 15.0566C 27.0703 16.6647 27.4805 17.931 28.3008 18.8555C 29.1211 19.7734 30.2344 20.2324 31.6406 20.2324C 32.6042 20.2324 33.4375 20.0469 34.1406 19.6758L 34.1406 16.3457L 31.1914 16.3457L 31.1914 14.3926L 36.4551 14.3926L 36.4551 21.043ZM 47.334 22L 39.4727 22L 39.4727 7.99609L 47.0215 7.99609L 47.0215 9.96875L 41.7969 9.96875L 41.7969 13.9336L 46.6113 13.9336L 46.6113 15.8965L 41.7969 15.8965L 41.7969 20.0371L 47.334 20.0371L 47.334 22ZM 54.8047 21.4824L 54.8047 19.3535C 55.7161 20.0762 56.7448 20.4375 57.8906 20.4375C 58.8216 20.4375 59.5638 20.2259 60.1172 19.8027C 60.6771 19.3796 60.957 18.8066 60.957 18.084C 60.957 16.4954 59.7428 15.7012 57.3145 15.7012L 56.2305 15.7012L 56.2305 13.8848L 57.2656 13.8848C 59.4206 13.8848 60.498 13.1361 60.498 11.6387C 60.498 10.2585 59.6582 9.56836 57.9785 9.56836C 57.041 9.56836 56.1589 9.90365 55.332 10.5742L 55.332 8.5625C 56.2826 8.02865 57.4056 7.76172 58.7012 7.76172C 59.9447 7.76172 60.9408 8.07422 61.6895 8.69922C 62.4382 9.32422 62.8125 10.125 62.8125 11.1016C 62.8125 12.944 61.875 14.1289 60 14.6562L 60 14.6953C 61.0091 14.793 61.8066 15.1478 62.3926 15.7598C 62.9785 16.3652 63.2715 17.1237 63.2715 18.0352C 63.2715 19.2917 62.7995 20.3073 61.8555 21.082C 60.9115 21.8503 59.668 22.2344 58.125 22.2344C 56.7383 22.2344 55.6315 21.9837 54.8047 21.4824Z" transform="translate(540 147)" fill="#243A5E"/>
</g>
<g id="PAGE 4">
<path d="M 4.12109 16.9219L 4.12109 22L 1.80664 22L 1.80664 7.99609L 6.05469 7.99609C 7.66276 7.99609 8.90951 8.37044 9.79492 9.11914C 10.6803 9.86784 11.123 10.9225 11.123 12.2832C 11.123 13.6439 10.6608 14.7572 9.73633 15.623C 8.81185 16.4889 7.56185 16.9219 5.98633 16.9219L 4.12109 16.9219ZM 4.12109 9.91016L 4.12109 15.0273L 5.625 15.0273C 6.62109 15.0273 7.37956 14.7962 7.90039 14.334C 8.42122 13.8717 8.68164 13.2207 8.68164 12.3809C 8.68164 10.7337 7.72461 9.91016 5.81055 9.91016L 4.12109 9.91016ZM 23.623 22L 21.0742 22L 19.8145 18.4355L 14.3066 18.4355L 13.0957 22L 10.5566 22L 15.8008 7.99609L 18.418 7.99609L 23.623 22ZM 19.1992 16.541L 17.2559 10.9551C 17.1973 10.7728 17.1354 10.4798 17.0703 10.0762L 17.0312 10.0762C 16.9727 10.4473 16.9076 10.7402 16.8359 10.9551L 14.9121 16.541L 19.1992 16.541ZM 36.25 21.043C 34.7917 21.8372 33.1673 22.2344 31.377 22.2344C 29.3066 22.2344 27.6302 21.5898 26.3477 20.3008C 25.0651 19.0117 24.4238 17.306 24.4238 15.1836C 24.4238 13.0156 25.1237 11.2383 26.5234 9.85156C 27.9297 8.45833 29.7135 7.76172 31.875 7.76172C 33.431 7.76172 34.7396 7.98958 35.8008 8.44531L 35.8008 10.8379C 34.7266 10.1217 33.4473 9.76367 31.9629 9.76367C 30.472 9.76367 29.248 10.2552 28.291 11.2383C 27.3405 12.2214 26.8652 13.4941 26.8652 15.0566C 26.8652 16.6647 27.2754 17.931 28.0957 18.8555C 28.916 19.7734 30.0293 20.2324 31.4355 20.2324C 32.3991 20.2324 33.2324 20.0469 33.9355 19.6758L 33.9355 16.3457L 30.9863 16.3457L 30.9863 14.3926L 36.25 14.3926L 36.25 21.043ZM 47.1289 22L 39.2676 22L 39.2676 7.99609L 46.8164 7.99609L 46.8164 9.96875L 41.5918 9.96875L 41.5918 13.9336L 46.4062 13.9336L 46.4062 15.8965L 41.5918 15.8965L 41.5918 20.0371L 47.1289 20.0371L 47.1289 22ZM 62.4414 7.99609L 62.4414 17.0391L 64.5215 17.0391L 64.5215 18.9238L 62.4414 18.9238L 62.4414 22L 60.2441 22L 60.2441 18.9238L 53.9062 18.9238L 53.9062 17.0195C 54.4792 16.375 55.0651 15.6784 55.6641 14.9297C 56.2695 14.1745 56.849 13.4062 57.4023 12.625C 57.9622 11.8372 58.4798 11.0495 58.9551 10.2617C 59.4303 9.47396 59.8307 8.71875 60.1562 7.99609L 62.4414 7.99609ZM 60.2441 17.0391L 60.2441 11.1602C 59.5345 12.4362 58.8314 13.5495 58.1348 14.5C 57.4447 15.4505 56.7969 16.2969 56.1914 17.0391L 60.2441 17.0391Z" transform="translate(745 147)" fill="#243A5E"/>
</g>
</g>
</g>
</g>
<defs>

<clipPath id="clip0">
<rect width="941" height="529" fill="white"/>
</clipPath>

</defs>
</svg>

