<svg id="Layer_1" data-name="Layer 1" xmlns="http://www.w3.org/2000/svg" viewBox="0 0 941 529"><defs><style>.cls-1{fill:#243a5e;}.cls-2{fill:none;stroke:#6bcde6;stroke-linecap:square;stroke-miterlimit:8;stroke-width:3px;}</style></defs><title>inputs</title><rect class="cls-1" width="941" height="529"/><path class="cls-2" d="M784.56,355.39a11.86,11.86,0,0,0-12,12.05,12.13,12.13,0,0,0,12,12.36,12.39,12.39,0,0,0,12.35-12.36A12.13,12.13,0,0,0,784.56,355.39Zm0-17.31c-17,0-30.85,13-30.85,29.36s13.89,29.35,30.85,29.35,30.86-13,30.86-29.35S801.53,338.08,784.56,338.08ZM732.11,366.2c4.32-5.56,22.84-28.12,52.45-28.12,33.94,0,53.38,29.36,53.38,29.36s-19.44,29.35-53.38,29.35c-28.07,0-46.28-20.08-51.52-27.19a16.71,16.71,0,0,1-1.85-2.16A8.79,8.79,0,0,0,732.11,366.2Z"/><path class="cls-2" d="M581.91,171.36h2.54m-17.81,0h2.18m-17.46,0h2.18m35.64-15.88h2.55m-17.46,0h2.18m-17.45,0h2.18m-17.45,0h2.54m-17.82,0H531m66.18,15.88h10.91m-79.64,0h9.82m58.91,15.87h10.91m-56.73,0h33.09m-56,0h9.82m60-45.78H519a4.85,4.85,0,0,0-4.73,4.8v53.17a4.85,4.85,0,0,0,4.73,4.8h97.82a4.85,4.85,0,0,0,4.72-4.8V163.23m-7.27-46.89v15.88m-16,9.6V127.05a10.64,10.64,0,0,1,10.55-10.71h10.54a11,11,0,0,1,10.91,10.71v20.68a16.26,16.26,0,0,1-16,16.24h0a16.26,16.26,0,0,1-16-16.24Z"/><ellipse class="cls-2" cx="572.05" cy="325.69" rx="18.13" ry="9.39"/><ellipse class="cls-2" cx="571.96" cy="330.39" rx="9.07" ry="4.7"/><path class="cls-2" d="M572.05,417.72c-11.15,0-11.93-12.25-11.93-12.25s-2.1-13.62-2.23-43.78c-.13-26.61-11.47-22.63-11.47-22.63s-11.73,4-4.91-6.83c0,0,3.45-6,12.27-9.31"/><path class="cls-2" d="M572,417.72c11.15,0,11.94-12.25,11.94-12.25s2.09-13.62,2.23-43.78c.12-26.61,11.46-22.63,11.46-22.63s11.74,4,4.91-6.83c0,0-3.28-5.7-11.65-9.07"/><circle class="cls-2" cx="571.96" cy="361.2" r="11.23"/><path class="cls-2" d="M414.28,402.16l-19.64-38S392.1,355.27,375,342l-17.74-15.21s-3.64-5.7-9.82-3.32,2.38,14.73,2.38,14.73l20.91,27.56.47,19"/><path class="cls-2" d="M383.07,412.3s-24.71-13.78-28-17.11-16.16-4.75-12.83-14.26c0,0,0-8.08,15.21,0l20,7.13"/><path class="cls-2" d="M357.29,379.75a19.77,19.77,0,0,1,8.2-17.25"/><path class="cls-2" d="M147.58,159.22v18c0,9.4,7.89,17,17.62,17h30.69c9.72,0,17.61-7.62,17.61-17v-18m-13.19,17.13V116.62a5.26,5.26,0,0,0-5.35-5.17H166.12a5.27,5.27,0,0,0-5.35,5.17v59.73a5.27,5.27,0,0,0,5.35,5.17H195A5.26,5.26,0,0,0,200.31,176.35ZM197,207h-33m16.48-12.71V207"/><path class="cls-2" d="M362.09,142.21a18.75,18.75,0,1,0-13.85,0m13.28-17.43a6.34,6.34,0,0,0-12.67,0v51.64A2.23,2.23,0,0,1,345,178l-6.89-6.84a6.73,6.73,0,0,0-9.55,9.49L352,204a30.88,30.88,0,0,0,22.21,9.49,25.35,25.35,0,0,0,25.39-25.35V163.83a6.34,6.34,0,0,0-4.83-6.15l-33.27-8.31Zm0,24.57v7.14"/><path class="cls-2" d="M806,203.68h2.1c9.45,0,17.07-8.09,16.81-17.79h0c-.27-9.44-7.88-17.25-17.34-17h-8.4m-49.38-17.52H747.9a8.81,8.81,0,0,0-8.41,8.89h0a8.76,8.76,0,0,0,8.67,8.36l10.77-.27M796,187a8.37,8.37,0,0,0-.78-2.43l-29.42-61.46a2.24,2.24,0,0,0-2.63-1.08l-10,5.12a2.13,2.13,0,0,0-.79,2.7l29.95,62.54a10,10,0,0,0,1.05,1.35,9.72,9.72,0,0,0,1,.8c2.62,1.35,9.45,4.32,10.24,4.05h.53c.52-.54,1.05-6.19,1.05-9.44A16.93,16.93,0,0,0,796,187Zm-33.62-64.43L760,117.42a2.56,2.56,0,0,0-3.68-1.08l-3.67,1.89a3,3,0,0,0-1.58,3.77l2.36,4.86M788.61,150l-10-21.3a3,3,0,0,0-1.31-1.35,2,2,0,0,0-1.58.27l-6.3,3.24m28.36,73.32-2.89-5.66"/><path class="cls-2" d="M184.49,349.73a3.7,3.7,0,0,0-3.57-4,3.6,3.6,0,0,0-3.57,3.62,3.55,3.55,0,0,0,3.21,3.61A3.9,3.9,0,0,0,184.49,349.73Zm35.71-11.58c1.43-6.87-3.22-9-13.57-11.21-10.71-1.81-12.86,5.43-12.86,5.43H167.71s-1.79-7.24-12.5-5.43c-10.72,2.17-15,4.34-13.93,11.21,0,0-31.07,46.66-13.93,65.1,5.72,5.07,7.15,5.07,9.65,5.07s7.14-9.77,13.57-14.83a29.14,29.14,0,0,1,17.49-7.23h25.36a29.25,29.25,0,0,1,17.85,7.23c6.43,5.06,10.71,14.83,13.21,14.83s4.29,0,9.64-5.07C251.26,384.81,220.2,338.15,220.2,338.15Z"/></svg>