<svg width="613" height="359" viewBox="0 0 613 359" version="1.1" xmlns="http://www.w3.org/2000/svg" xmlns:xlink="http://www.w3.org/1999/xlink">
<g id="Canvas" fill="none">
<g id="thumbnail-commandbar2" clip-path="url(#clip0)">
<rect width="613" height="359" fill="#243A5E"/>
<g id="Group 2">
<g id="Group">
<g id="BG">
<g id="app-bg" filter="url(#filter0_dd)">
<path fill-rule="evenodd" clip-rule="evenodd" d="M 0 0L 573 0L 573 362L 0 362L 0 0Z" transform="translate(40 -134)" fill="white"/>
</g>
</g>
</g>
<g id="Navigation / Command bar / Label on right">
</g>
</g>
<g id="Rectangle">
<rect width="49.3921" height="49.5942" transform="translate(580.838 150.96)" fill="#C8C8C8"/>
</g>
<g id="Rectangle_2">
<rect width="49.3921" height="49.5942" transform="translate(506.75 150.96)" fill="#C8C8C8"/>
</g>
<g id="Rectangle_3">
<rect width="49.3921" height="49.5942" transform="translate(432.661 150.96)" fill="#C8C8C8"/>
</g>
<g id="Rectangle_4">
<rect width="556" height="366" transform="translate(70 -251)" fill="#F4F4F4"/>
</g>
<g id="Line">
<line y1="-1.5" x2="50" y2="-1.5" stroke-width="3" transform="matrix(0 1 -1 0 405 151)" stroke="#C8C8C8"/>
</g>
<g id="Rectangle 2">
<rect x="2" y="2" width="317" height="46" stroke-width="4" transform="translate(57 151)" stroke="#50E6FF"/>
</g>
<g id="Rectangle 3">
<rect width="130" height="16" transform="translate(74 167)" fill="#666666"/>
</g>
<g id="Line 2">
<line y1="-1.5" x2="77" y2="-1.5" stroke-width="3" transform="matrix(0 1 -1 0 206 198)" stroke="#50E6FF"/>
</g>
<g id="Command bar content area">
<path d="M 16.0918 29.1797C 14.6152 29.9453 12.7786 30.3281 10.582 30.3281C 7.73828 30.3281 5.45964 29.4303 3.74609 27.6348C 2.03255 25.8392 1.17578 23.4831 1.17578 20.5664C 1.17578 17.431 2.13737 14.8971 4.06055 12.9648C 5.99284 11.0326 8.43099 10.0664 11.375 10.0664C 13.2708 10.0664 14.8431 10.3353 16.0918 10.873L 16.0918 14.0996C 14.7702 13.3158 13.3118 12.9238 11.7168 12.9238C 9.5931 12.9238 7.87044 13.6029 6.54883 14.9609C 5.23633 16.319 4.58008 18.1328 4.58008 20.4023C 4.58008 22.5625 5.19531 24.2852 6.42578 25.5703C 7.65625 26.8464 9.27409 27.4844 11.2793 27.4844C 13.1296 27.4844 14.7337 27.0469 16.0918 26.1719L 16.0918 29.1797ZM 25.6621 30.3281C 23.502 30.3281 21.7747 29.6764 20.4805 28.373C 19.1953 27.0605 18.5527 25.3242 18.5527 23.1641C 18.5527 20.8125 19.2227 18.9759 20.5625 17.6543C 21.9115 16.3327 23.7253 15.6719 26.0039 15.6719C 28.1914 15.6719 29.8958 16.3145 31.1172 17.5996C 32.3385 18.8848 32.9492 20.6667 32.9492 22.9453C 32.9492 25.1784 32.2884 26.9694 30.9668 28.3184C 29.6543 29.6582 27.8861 30.3281 25.6621 30.3281ZM 25.8125 18.2012C 24.5729 18.2012 23.5931 18.6341 22.873 19.5C 22.153 20.3659 21.793 21.5599 21.793 23.082C 21.793 24.5495 22.1576 25.707 22.8867 26.5547C 23.6159 27.3932 24.5911 27.8125 25.8125 27.8125C 27.0612 27.8125 28.0182 27.3978 28.6836 26.5684C 29.3581 25.7389 29.6953 24.5586 29.6953 23.0273C 29.6953 21.487 29.3581 20.2975 28.6836 19.459C 28.0182 18.6204 27.0612 18.2012 25.8125 18.2012ZM 57.1211 30L 53.9492 30L 53.9492 22.3711C 53.9492 20.9036 53.7396 19.8418 53.3203 19.1855C 52.9102 18.5293 52.2129 18.2012 51.2285 18.2012C 50.3991 18.2012 49.6927 18.6159 49.1094 19.4453C 48.5352 20.2747 48.248 21.2682 48.248 22.4258L 48.248 30L 45.0625 30L 45.0625 22.1113C 45.0625 19.5046 44.1419 18.2012 42.3008 18.2012C 41.444 18.2012 40.7376 18.5931 40.1816 19.377C 39.6348 20.1608 39.3613 21.1771 39.3613 22.4258L 39.3613 30L 36.1895 30L 36.1895 16L 39.3613 16L 39.3613 18.2148L 39.416 18.2148C 40.4277 16.5195 41.8997 15.6719 43.832 15.6719C 44.7982 15.6719 45.6413 15.9408 46.3613 16.4785C 47.0905 17.0072 47.5872 17.7044 47.8516 18.5703C 48.8906 16.638 50.4401 15.6719 52.5 15.6719C 55.5807 15.6719 57.1211 17.5723 57.1211 21.373L 57.1211 30ZM 81.9219 30L 78.75 30L 78.75 22.3711C 78.75 20.9036 78.5404 19.8418 78.1211 19.1855C 77.7109 18.5293 77.0137 18.2012 76.0293 18.2012C 75.1999 18.2012 74.4935 18.6159 73.9102 19.4453C 73.3359 20.2747 73.0488 21.2682 73.0488 22.4258L 73.0488 30L 69.8633 30L 69.8633 22.1113C 69.8633 19.5046 68.9427 18.2012 67.1016 18.2012C 66.2448 18.2012 65.5384 18.5931 64.9824 19.377C 64.4355 20.1608 64.1621 21.1771 64.1621 22.4258L 64.1621 30L 60.9902 30L 60.9902 16L 64.1621 16L 64.1621 18.2148L 64.2168 18.2148C 65.2285 16.5195 66.7005 15.6719 68.6328 15.6719C 69.599 15.6719 70.4421 15.9408 71.1621 16.4785C 71.8913 17.0072 72.388 17.7044 72.6523 18.5703C 73.6914 16.638 75.2409 15.6719 77.3008 15.6719C 80.3815 15.6719 81.9219 17.5723 81.9219 21.373L 81.9219 30ZM 96.5371 30L 93.4609 30L 93.4609 27.8125L 93.4062 27.8125C 92.4401 29.4896 91.0228 30.3281 89.1543 30.3281C 87.778 30.3281 86.6979 29.9544 85.9141 29.207C 85.1393 28.4596 84.752 27.4707 84.752 26.2402C 84.752 23.597 86.2741 22.0566 89.3184 21.6191L 93.4746 21.0312C 93.4746 19.0352 92.5267 18.0371 90.6309 18.0371C 88.9629 18.0371 87.459 18.6113 86.1191 19.7598L 86.1191 16.9844C 87.5957 16.1094 89.3001 15.6719 91.2324 15.6719C 94.7689 15.6719 96.5371 17.4128 96.5371 20.8945L 96.5371 30ZM 93.4746 23.123L 90.5352 23.5332C 89.6237 23.6517 88.9355 23.875 88.4707 24.2031C 88.015 24.5221 87.7871 25.0872 87.7871 25.8984C 87.7871 26.4909 87.9967 26.9785 88.416 27.3613C 88.8444 27.735 89.4141 27.9219 90.125 27.9219C 91.0911 27.9219 91.8887 27.5846 92.5176 26.9102C 93.1556 26.2266 93.4746 25.3698 93.4746 24.3398L 93.4746 23.123ZM 112.889 30L 109.717 30L 109.717 22.1113C 109.717 19.4954 108.792 18.1875 106.941 18.1875C 105.975 18.1875 105.178 18.5521 104.549 19.2812C 103.92 20.0013 103.605 20.9128 103.605 22.0156L 103.605 30L 100.42 30L 100.42 16L 103.605 16L 103.605 18.3242L 103.66 18.3242C 104.708 16.556 106.221 15.6719 108.199 15.6719C 109.721 15.6719 110.883 16.1686 111.686 17.1621C 112.488 18.1465 112.889 19.5729 112.889 21.4414L 112.889 30ZM 129.5 30L 126.328 30L 126.328 27.6211L 126.273 27.6211C 125.253 29.4258 123.68 30.3281 121.557 30.3281C 119.834 30.3281 118.453 29.7038 117.414 28.4551C 116.384 27.1973 115.869 25.4883 115.869 23.3281C 115.869 21.013 116.439 19.1582 117.578 17.7637C 118.727 16.3691 120.253 15.6719 122.158 15.6719C 124.045 15.6719 125.417 16.4284 126.273 17.9414L 126.328 17.9414L 126.328 9.27344L 129.5 9.27344L 129.5 30ZM 126.369 23.6016L 126.369 21.7695C 126.369 20.776 126.046 19.9329 125.398 19.2402C 124.751 18.5475 123.926 18.2012 122.924 18.2012C 121.739 18.2012 120.805 18.6432 120.121 19.5273C 119.447 20.4115 119.109 21.6374 119.109 23.2051C 119.109 24.627 119.433 25.7526 120.08 26.582C 120.736 27.4023 121.616 27.8125 122.719 27.8125C 123.803 27.8125 124.683 27.416 125.357 26.623C 126.032 25.821 126.369 24.8138 126.369 23.6016ZM 144.58 27.9766L 144.525 27.9766L 144.525 30L 141.354 30L 141.354 9.27344L 144.525 9.27344L 144.525 18.4609L 144.58 18.4609C 145.665 16.6016 147.251 15.6719 149.338 15.6719C 151.106 15.6719 152.487 16.3008 153.48 17.5586C 154.483 18.8073 154.984 20.4844 154.984 22.5898C 154.984 24.9323 154.424 26.8099 153.303 28.2227C 152.182 29.6263 150.65 30.3281 148.709 30.3281C 146.886 30.3281 145.51 29.5443 144.58 27.9766ZM 144.498 22.4121L 144.498 24.1484C 144.498 25.1693 144.822 26.0352 145.469 26.7461C 146.125 27.457 146.954 27.8125 147.957 27.8125C 149.133 27.8125 150.053 27.3568 150.719 26.4453C 151.393 25.5247 151.73 24.2441 151.73 22.6035C 151.73 21.2272 151.416 20.1517 150.787 19.377C 150.167 18.5931 149.324 18.2012 148.258 18.2012C 147.128 18.2012 146.216 18.6022 145.523 19.4043C 144.84 20.2064 144.498 21.209 144.498 22.4121ZM 168.643 30L 165.566 30L 165.566 27.8125L 165.512 27.8125C 164.546 29.4896 163.128 30.3281 161.26 30.3281C 159.883 30.3281 158.803 29.9544 158.02 29.207C 157.245 28.4596 156.857 27.4707 156.857 26.2402C 156.857 23.597 158.38 22.0566 161.424 21.6191L 165.58 21.0312C 165.58 19.0352 164.632 18.0371 162.736 18.0371C 161.068 18.0371 159.564 18.6113 158.225 19.7598L 158.225 16.9844C 159.701 16.1094 161.406 15.6719 163.338 15.6719C 166.874 15.6719 168.643 17.4128 168.643 20.8945L 168.643 30ZM 165.58 23.123L 162.641 23.5332C 161.729 23.6517 161.041 23.875 160.576 24.2031C 160.12 24.5221 159.893 25.0872 159.893 25.8984C 159.893 26.4909 160.102 26.9785 160.521 27.3613C 160.95 27.735 161.52 27.9219 162.23 27.9219C 163.197 27.9219 163.994 27.5846 164.623 26.9102C 165.261 26.2266 165.58 25.3698 165.58 24.3398L 165.58 23.123ZM 180.646 19.0215C 180.264 18.7207 179.712 18.5703 178.992 18.5703C 178.053 18.5703 177.27 18.9941 176.641 19.8418C 176.012 20.6895 175.697 21.8424 175.697 23.3008L 175.697 30L 172.525 30L 172.525 16L 175.697 16L 175.697 18.8848L 175.752 18.8848C 176.062 17.9004 176.536 17.1348 177.174 16.5879C 177.821 16.0319 178.541 15.7539 179.334 15.7539C 179.908 15.7539 180.346 15.8405 180.646 16.0137L 180.646 19.0215ZM 200.621 29.3574C 199.5 30.0046 198.174 30.3281 196.643 30.3281C 194.564 30.3281 192.887 29.681 191.611 28.3867C 190.335 27.0833 189.697 25.3971 189.697 23.3281C 189.697 21.0221 190.381 19.1719 191.748 17.7773C 193.124 16.3737 194.961 15.6719 197.258 15.6719C 198.534 15.6719 199.66 15.8952 200.635 16.3418L 200.635 19.2949C 199.66 18.5658 198.62 18.2012 197.518 18.2012C 196.178 18.2012 195.079 18.6569 194.223 19.5684C 193.366 20.4707 192.938 21.6556 192.938 23.123C 192.938 24.5723 193.339 25.7161 194.141 26.5547C 194.952 27.3932 196.036 27.8125 197.395 27.8125C 198.534 27.8125 199.609 27.4069 200.621 26.5957L 200.621 29.3574ZM 209.986 30.3281C 207.826 30.3281 206.099 29.6764 204.805 28.373C 203.52 27.0605 202.877 25.3242 202.877 23.1641C 202.877 20.8125 203.547 18.9759 204.887 17.6543C 206.236 16.3327 208.049 15.6719 210.328 15.6719C 212.516 15.6719 214.22 16.3145 215.441 17.5996C 216.663 18.8848 217.273 20.6667 217.273 22.9453C 217.273 25.1784 216.613 26.9694 215.291 28.3184C 213.979 29.6582 212.21 30.3281 209.986 30.3281ZM 210.137 18.2012C 208.897 18.2012 207.917 18.6341 207.197 19.5C 206.477 20.3659 206.117 21.5599 206.117 23.082C 206.117 24.5495 206.482 25.707 207.211 26.5547C 207.94 27.3932 208.915 27.8125 210.137 27.8125C 211.385 27.8125 212.342 27.3978 213.008 26.5684C 213.682 25.7389 214.02 24.5586 214.02 23.0273C 214.02 21.487 213.682 20.2975 213.008 19.459C 212.342 18.6204 211.385 18.2012 210.137 18.2012ZM 232.982 30L 229.811 30L 229.811 22.1113C 229.811 19.4954 228.885 18.1875 227.035 18.1875C 226.069 18.1875 225.271 18.5521 224.643 19.2812C 224.014 20.0013 223.699 20.9128 223.699 22.0156L 223.699 30L 220.514 30L 220.514 16L 223.699 16L 223.699 18.3242L 223.754 18.3242C 224.802 16.556 226.315 15.6719 228.293 15.6719C 229.815 15.6719 230.977 16.1686 231.779 17.1621C 232.581 18.1465 232.982 19.5729 232.982 21.4414L 232.982 30ZM 244.248 29.8496C 243.628 30.1595 242.812 30.3145 241.801 30.3145C 239.085 30.3145 237.727 29.0111 237.727 26.4043L 237.727 18.4883L 235.389 18.4883L 235.389 16L 237.727 16L 237.727 12.7598L 240.898 11.8574L 240.898 16L 244.248 16L 244.248 18.4883L 240.898 18.4883L 240.898 25.4883C 240.898 26.3177 241.049 26.9102 241.35 27.2656C 241.65 27.6211 242.152 27.7988 242.854 27.7988C 243.391 27.7988 243.856 27.6439 244.248 27.334L 244.248 29.8496ZM 258.672 23.8613L 249.129 23.8613C 249.165 25.1556 249.562 26.1536 250.318 26.8555C 251.084 27.5573 252.132 27.9082 253.463 27.9082C 254.958 27.9082 256.329 27.4616 257.578 26.5684L 257.578 29.125C 256.302 29.9271 254.616 30.3281 252.52 30.3281C 250.46 30.3281 248.842 29.6947 247.666 28.4277C 246.499 27.1517 245.916 25.3607 245.916 23.0547C 245.916 20.8763 246.559 19.1035 247.844 17.7363C 249.138 16.36 250.742 15.6719 252.656 15.6719C 254.57 15.6719 256.051 16.2871 257.1 17.5176C 258.148 18.748 258.672 20.457 258.672 22.6445L 258.672 23.8613ZM 255.609 21.6191C 255.6 20.4798 255.331 19.5957 254.803 18.9668C 254.274 18.3288 253.545 18.0098 252.615 18.0098C 251.704 18.0098 250.929 18.3424 250.291 19.0078C 249.662 19.6732 249.275 20.5436 249.129 21.6191L 255.609 21.6191ZM 274.162 30L 270.99 30L 270.99 22.1113C 270.99 19.4954 270.065 18.1875 268.215 18.1875C 267.249 18.1875 266.451 18.5521 265.822 19.2812C 265.193 20.0013 264.879 20.9128 264.879 22.0156L 264.879 30L 261.693 30L 261.693 16L 264.879 16L 264.879 18.3242L 264.934 18.3242C 265.982 16.556 267.495 15.6719 269.473 15.6719C 270.995 15.6719 272.157 16.1686 272.959 17.1621C 273.761 18.1465 274.162 19.5729 274.162 21.4414L 274.162 30ZM 285.428 29.8496C 284.808 30.1595 283.992 30.3145 282.98 30.3145C 280.264 30.3145 278.906 29.0111 278.906 26.4043L 278.906 18.4883L 276.568 18.4883L 276.568 16L 278.906 16L 278.906 12.7598L 282.078 11.8574L 282.078 16L 285.428 16L 285.428 18.4883L 282.078 18.4883L 282.078 25.4883C 282.078 26.3177 282.229 26.9102 282.529 27.2656C 282.83 27.6211 283.331 27.7988 284.033 27.7988C 284.571 27.7988 285.036 27.6439 285.428 27.334L 285.428 29.8496ZM 306.619 30L 303.543 30L 303.543 27.8125L 303.488 27.8125C 302.522 29.4896 301.105 30.3281 299.236 30.3281C 297.86 30.3281 296.78 29.9544 295.996 29.207C 295.221 28.4596 294.834 27.4707 294.834 26.2402C 294.834 23.597 296.356 22.0566 299.4 21.6191L 303.557 21.0312C 303.557 19.0352 302.609 18.0371 300.713 18.0371C 299.045 18.0371 297.541 18.6113 296.201 19.7598L 296.201 16.9844C 297.678 16.1094 299.382 15.6719 301.314 15.6719C 304.851 15.6719 306.619 17.4128 306.619 20.8945L 306.619 30ZM 303.557 23.123L 300.617 23.5332C 299.706 23.6517 299.018 23.875 298.553 24.2031C 298.097 24.5221 297.869 25.0872 297.869 25.8984C 297.869 26.4909 298.079 26.9785 298.498 27.3613C 298.926 27.735 299.496 27.9219 300.207 27.9219C 301.173 27.9219 301.971 27.5846 302.6 26.9102C 303.238 26.2266 303.557 25.3698 303.557 24.3398L 303.557 23.123ZM 318.623 19.0215C 318.24 18.7207 317.689 18.5703 316.969 18.5703C 316.03 18.5703 315.246 18.9941 314.617 19.8418C 313.988 20.6895 313.674 21.8424 313.674 23.3008L 313.674 30L 310.502 30L 310.502 16L 313.674 16L 313.674 18.8848L 313.729 18.8848C 314.038 17.9004 314.512 17.1348 315.15 16.5879C 315.798 16.0319 316.518 15.7539 317.311 15.7539C 317.885 15.7539 318.322 15.8405 318.623 16.0137L 318.623 19.0215ZM 332.473 23.8613L 322.93 23.8613C 322.966 25.1556 323.363 26.1536 324.119 26.8555C 324.885 27.5573 325.933 27.9082 327.264 27.9082C 328.758 27.9082 330.13 27.4616 331.379 26.5684L 331.379 29.125C 330.103 29.9271 328.417 30.3281 326.32 30.3281C 324.26 30.3281 322.643 29.6947 321.467 28.4277C 320.3 27.1517 319.717 25.3607 319.717 23.0547C 319.717 20.8763 320.359 19.1035 321.645 17.7363C 322.939 16.36 324.543 15.6719 326.457 15.6719C 328.371 15.6719 329.852 16.2871 330.9 17.5176C 331.949 18.748 332.473 20.457 332.473 22.6445L 332.473 23.8613ZM 329.41 21.6191C 329.401 20.4798 329.132 19.5957 328.604 18.9668C 328.075 18.3288 327.346 18.0098 326.416 18.0098C 325.505 18.0098 324.73 18.3424 324.092 19.0078C 323.463 19.6732 323.076 20.5436 322.93 21.6191L 329.41 21.6191ZM 346.24 30L 343.164 30L 343.164 27.8125L 343.109 27.8125C 342.143 29.4896 340.726 30.3281 338.857 30.3281C 337.481 30.3281 336.401 29.9544 335.617 29.207C 334.842 28.4596 334.455 27.4707 334.455 26.2402C 334.455 23.597 335.977 22.0566 339.021 21.6191L 343.178 21.0312C 343.178 19.0352 342.23 18.0371 340.334 18.0371C 338.666 18.0371 337.162 18.6113 335.822 19.7598L 335.822 16.9844C 337.299 16.1094 339.003 15.6719 340.936 15.6719C 344.472 15.6719 346.24 17.4128 346.24 20.8945L 346.24 30ZM 343.178 23.123L 340.238 23.5332C 339.327 23.6517 338.639 23.875 338.174 24.2031C 337.718 24.5221 337.49 25.0872 337.49 25.8984C 337.49 26.4909 337.7 26.9785 338.119 27.3613C 338.548 27.735 339.117 27.9219 339.828 27.9219C 340.794 27.9219 341.592 27.5846 342.221 26.9102C 342.859 26.2266 343.178 25.3698 343.178 24.3398L 343.178 23.123Z" transform="translate(197 283)" fill="#50E6FF"/>
</g>
</g>
</g>
<defs>
<filter id="filter0_dd" x="20" y="-154" width="613" height="402" filterUnits="userSpaceOnUse" color-interpolation-filters="sRGB">
<feFlood flood-opacity="0" result="BackgroundImageFix"/>
<feColorMatrix in="SourceAlpha" type="matrix" values="0 0 0 0 0 0 0 0 0 0 0 0 0 0 0 0 0 0 255 0"/>
<feOffset dx="5" dy="5"/>
<feGaussianBlur stdDeviation="7.5"/>
<feColorMatrix type="matrix" values="0 0 0 0 0 0 0 0 0 0.350796 0 0 0 0 0.63 0 0 0 1 0"/>
<feBlend mode="normal" in2="BackgroundImageFix" result="effect1_dropShadow"/>
<feColorMatrix in="SourceAlpha" type="matrix" values="0 0 0 0 0 0 0 0 0 0 0 0 0 0 0 0 0 0 255 0"/>
<feOffset/>
<feGaussianBlur stdDeviation="10"/>
<feColorMatrix type="matrix" values="0 0 0 0 0.095 0 0 0 0 0.153793 0 0 0 0 0.25 0 0 0 1 0"/>
<feBlend mode="normal" in2="effect1_dropShadow" result="effect2_dropShadow"/>
<feBlend mode="normal" in="SourceGraphic" in2="effect2_dropShadow" result="shape"/>
</filter>

<clipPath id="clip0">
<rect width="613" height="359" fill="white"/>
</clipPath>

</defs>
</svg>

