<svg width="612" height="615" viewBox="0 0 612 615" version="1.1" xmlns="http://www.w3.org/2000/svg" xmlns:xlink="http://www.w3.org/1999/xlink">
<g id="Canvas" fill="none">
<g id="thumbnail-canvas" clip-path="url(#clip0)">
<rect width="612" height="615" fill="#243A5E"/>
<g id="Rectangle 2">
<rect width="539" height="84" transform="translate(38 35)" fill="#EAEAEA"/>
</g>
<g id="Rectangle 2.2">
<rect width="539" height="84" transform="translate(38 483)" fill="#EAEAEA"/>
</g>
<g id="Rectangle 2.1">
<rect width="539" height="364" transform="translate(38 119)" fill="#50E6FF"/>
</g>
<g id="Content">
<path d="M 16.0918 29.1797C 14.6152 29.9453 12.7786 30.3281 10.582 30.3281C 7.73828 30.3281 5.45964 29.4303 3.74609 27.6348C 2.03255 25.8392 1.17578 23.4831 1.17578 20.5664C 1.17578 17.431 2.13737 14.8971 4.06055 12.9648C 5.99284 11.0326 8.43099 10.0664 11.375 10.0664C 13.2708 10.0664 14.8431 10.3353 16.0918 10.873L 16.0918 14.0996C 14.7702 13.3158 13.3118 12.9238 11.7168 12.9238C 9.5931 12.9238 7.87044 13.6029 6.54883 14.9609C 5.23633 16.319 4.58008 18.1328 4.58008 20.4023C 4.58008 22.5625 5.19531 24.2852 6.42578 25.5703C 7.65625 26.8464 9.27409 27.4844 11.2793 27.4844C 13.1296 27.4844 14.7337 27.0469 16.0918 26.1719L 16.0918 29.1797ZM 25.6621 30.3281C 23.502 30.3281 21.7747 29.6764 20.4805 28.373C 19.1953 27.0605 18.5527 25.3242 18.5527 23.1641C 18.5527 20.8125 19.2227 18.9759 20.5625 17.6543C 21.9115 16.3327 23.7253 15.6719 26.0039 15.6719C 28.1914 15.6719 29.8958 16.3145 31.1172 17.5996C 32.3385 18.8848 32.9492 20.6667 32.9492 22.9453C 32.9492 25.1784 32.2884 26.9694 30.9668 28.3184C 29.6543 29.6582 27.8861 30.3281 25.6621 30.3281ZM 25.8125 18.2012C 24.5729 18.2012 23.5931 18.6341 22.873 19.5C 22.153 20.3659 21.793 21.5599 21.793 23.082C 21.793 24.5495 22.1576 25.707 22.8867 26.5547C 23.6159 27.3932 24.5911 27.8125 25.8125 27.8125C 27.0612 27.8125 28.0182 27.3978 28.6836 26.5684C 29.3581 25.7389 29.6953 24.5586 29.6953 23.0273C 29.6953 21.487 29.3581 20.2975 28.6836 19.459C 28.0182 18.6204 27.0612 18.2012 25.8125 18.2012ZM 48.6582 30L 45.4863 30L 45.4863 22.1113C 45.4863 19.4954 44.5612 18.1875 42.7109 18.1875C 41.7448 18.1875 40.9473 18.5521 40.3184 19.2812C 39.6895 20.0013 39.375 20.9128 39.375 22.0156L 39.375 30L 36.1895 30L 36.1895 16L 39.375 16L 39.375 18.3242L 39.4297 18.3242C 40.4779 16.556 41.9909 15.6719 43.9688 15.6719C 45.4909 15.6719 46.653 16.1686 47.4551 17.1621C 48.2572 18.1465 48.6582 19.5729 48.6582 21.4414L 48.6582 30ZM 59.9238 29.8496C 59.304 30.1595 58.4883 30.3145 57.4766 30.3145C 54.7604 30.3145 53.4023 29.0111 53.4023 26.4043L 53.4023 18.4883L 51.0645 18.4883L 51.0645 16L 53.4023 16L 53.4023 12.7598L 56.5742 11.8574L 56.5742 16L 59.9238 16L 59.9238 18.4883L 56.5742 18.4883L 56.5742 25.4883C 56.5742 26.3177 56.7246 26.9102 57.0254 27.2656C 57.3262 27.6211 57.8275 27.7988 58.5293 27.7988C 59.0671 27.7988 59.5319 27.6439 59.9238 27.334L 59.9238 29.8496ZM 74.3477 23.8613L 64.8047 23.8613C 64.8411 25.1556 65.2376 26.1536 65.9941 26.8555C 66.7598 27.5573 67.8079 27.9082 69.1387 27.9082C 70.6335 27.9082 72.0052 27.4616 73.2539 26.5684L 73.2539 29.125C 71.9779 29.9271 70.2917 30.3281 68.1953 30.3281C 66.1354 30.3281 64.5176 29.6947 63.3418 28.4277C 62.1751 27.1517 61.5918 25.3607 61.5918 23.0547C 61.5918 20.8763 62.2344 19.1035 63.5195 17.7363C 64.8138 16.36 66.418 15.6719 68.332 15.6719C 70.2461 15.6719 71.7272 16.2871 72.7754 17.5176C 73.8236 18.748 74.3477 20.457 74.3477 22.6445L 74.3477 23.8613ZM 71.2852 21.6191C 71.276 20.4798 71.0072 19.5957 70.4785 18.9668C 69.9499 18.3288 69.2207 18.0098 68.291 18.0098C 67.3796 18.0098 66.6048 18.3424 65.9668 19.0078C 65.3379 19.6732 64.9505 20.5436 64.8047 21.6191L 71.2852 21.6191ZM 89.8379 30L 86.666 30L 86.666 22.1113C 86.666 19.4954 85.7409 18.1875 83.8906 18.1875C 82.9245 18.1875 82.127 18.5521 81.498 19.2812C 80.8691 20.0013 80.5547 20.9128 80.5547 22.0156L 80.5547 30L 77.3691 30L 77.3691 16L 80.5547 16L 80.5547 18.3242L 80.6094 18.3242C 81.6576 16.556 83.1706 15.6719 85.1484 15.6719C 86.6706 15.6719 87.8327 16.1686 88.6348 17.1621C 89.4368 18.1465 89.8379 19.5729 89.8379 21.4414L 89.8379 30ZM 101.104 29.8496C 100.484 30.1595 99.668 30.3145 98.6562 30.3145C 95.9401 30.3145 94.582 29.0111 94.582 26.4043L 94.582 18.4883L 92.2441 18.4883L 92.2441 16L 94.582 16L 94.582 12.7598L 97.7539 11.8574L 97.7539 16L 101.104 16L 101.104 18.4883L 97.7539 18.4883L 97.7539 25.4883C 97.7539 26.3177 97.9043 26.9102 98.2051 27.2656C 98.5059 27.6211 99.0072 27.7988 99.709 27.7988C 100.247 27.7988 100.712 27.6439 101.104 27.334L 101.104 29.8496Z" transform="translate(59 285)" fill="#243A5E"/>
</g>
<g id="Top level nav">
<path d="M 14.998 13.1562L 9.36523 13.1562L 9.36523 30L 6.11133 30L 6.11133 13.1562L 0.492188 13.1562L 0.492188 10.3945L 14.998 10.3945L 14.998 13.1562ZM 20.9863 30.3281C 18.8262 30.3281 17.099 29.6764 15.8047 28.373C 14.5195 27.0605 13.877 25.3242 13.877 23.1641C 13.877 20.8125 14.5469 18.9759 15.8867 17.6543C 17.2357 16.3327 19.0495 15.6719 21.3281 15.6719C 23.5156 15.6719 25.2201 16.3145 26.4414 17.5996C 27.6628 18.8848 28.2734 20.6667 28.2734 22.9453C 28.2734 25.1784 27.6126 26.9694 26.291 28.3184C 24.9785 29.6582 23.2103 30.3281 20.9863 30.3281ZM 21.1367 18.2012C 19.8971 18.2012 18.9173 18.6341 18.1973 19.5C 17.4772 20.3659 17.1172 21.5599 17.1172 23.082C 17.1172 24.5495 17.4818 25.707 18.2109 26.5547C 18.9401 27.3932 19.9154 27.8125 21.1367 27.8125C 22.3854 27.8125 23.3424 27.3978 24.0078 26.5684C 24.6823 25.7389 25.0195 24.5586 25.0195 23.0273C 25.0195 21.487 24.6823 20.2975 24.0078 19.459C 23.3424 18.6204 22.3854 18.2012 21.1367 18.2012ZM 34.7402 27.9355L 34.6855 27.9355L 34.6855 36.4395L 31.5137 36.4395L 31.5137 16L 34.6855 16L 34.6855 18.4609L 34.7402 18.4609C 35.8249 16.6016 37.4108 15.6719 39.498 15.6719C 41.2754 15.6719 42.6608 16.2962 43.6543 17.5449C 44.6478 18.7936 45.1445 20.4707 45.1445 22.5762C 45.1445 24.9095 44.584 26.778 43.4629 28.1816C 42.3418 29.5853 40.8105 30.2871 38.8691 30.2871C 37.0827 30.2871 35.7064 29.5033 34.7402 27.9355ZM 34.6582 22.4121L 34.6582 24.1484C 34.6582 25.1693 34.9818 26.0352 35.6289 26.7461C 36.2852 27.457 37.1146 27.8125 38.1172 27.8125C 39.293 27.8125 40.2135 27.3568 40.8789 26.4453C 41.5534 25.5247 41.8906 24.2441 41.8906 22.6035C 41.8906 21.2272 41.5762 20.1517 40.9473 19.377C 40.3275 18.5931 39.4844 18.2012 38.418 18.2012C 37.2878 18.2012 36.3763 18.6022 35.6836 19.4043C 35 20.2064 34.6582 21.209 34.6582 22.4121ZM 59.2812 30L 56.0957 30L 56.0957 9.27344L 59.2812 9.27344L 59.2812 30ZM 75.2773 23.8613L 65.7344 23.8613C 65.7708 25.1556 66.1673 26.1536 66.9238 26.8555C 67.6895 27.5573 68.7376 27.9082 70.0684 27.9082C 71.5632 27.9082 72.9349 27.4616 74.1836 26.5684L 74.1836 29.125C 72.9076 29.9271 71.2214 30.3281 69.125 30.3281C 67.0651 30.3281 65.4473 29.6947 64.2715 28.4277C 63.1048 27.1517 62.5215 25.3607 62.5215 23.0547C 62.5215 20.8763 63.1641 19.1035 64.4492 17.7363C 65.7435 16.36 67.3477 15.6719 69.2617 15.6719C 71.1758 15.6719 72.6569 16.2871 73.7051 17.5176C 74.7533 18.748 75.2773 20.457 75.2773 22.6445L 75.2773 23.8613ZM 72.2148 21.6191C 72.2057 20.4798 71.9368 19.5957 71.4082 18.9668C 70.8796 18.3288 70.1504 18.0098 69.2207 18.0098C 68.3092 18.0098 67.5345 18.3424 66.8965 19.0078C 66.2676 19.6732 65.8802 20.5436 65.7344 21.6191L 72.2148 21.6191ZM 90.3574 16L 84.9434 30L 81.5117 30L 76.3574 16L 79.8027 16L 82.9062 25.7891C 83.1432 26.5091 83.2891 27.138 83.3438 27.6758L 83.3848 27.6758C 83.4668 27.0013 83.5944 26.3906 83.7676 25.8438L 87.0215 16L 90.3574 16ZM 104.152 23.8613L 94.6094 23.8613C 94.6458 25.1556 95.0423 26.1536 95.7988 26.8555C 96.5645 27.5573 97.6126 27.9082 98.9434 27.9082C 100.438 27.9082 101.81 27.4616 103.059 26.5684L 103.059 29.125C 101.783 29.9271 100.096 30.3281 98 30.3281C 95.9401 30.3281 94.3223 29.6947 93.1465 28.4277C 91.9798 27.1517 91.3965 25.3607 91.3965 23.0547C 91.3965 20.8763 92.0391 19.1035 93.3242 17.7363C 94.6185 16.36 96.2227 15.6719 98.1367 15.6719C 100.051 15.6719 101.532 16.2871 102.58 17.5176C 103.628 18.748 104.152 20.457 104.152 22.6445L 104.152 23.8613ZM 101.09 21.6191C 101.081 20.4798 100.812 19.5957 100.283 18.9668C 99.7546 18.3288 99.0254 18.0098 98.0957 18.0098C 97.1842 18.0098 96.4095 18.3424 95.7715 19.0078C 95.1426 19.6732 94.7552 20.5436 94.6094 21.6191L 101.09 21.6191ZM 110.359 30L 107.174 30L 107.174 9.27344L 110.359 9.27344L 110.359 30ZM 134.682 30L 131.51 30L 131.51 22.1113C 131.51 19.4954 130.585 18.1875 128.734 18.1875C 127.768 18.1875 126.971 18.5521 126.342 19.2812C 125.713 20.0013 125.398 20.9128 125.398 22.0156L 125.398 30L 122.213 30L 122.213 16L 125.398 16L 125.398 18.3242L 125.453 18.3242C 126.501 16.556 128.014 15.6719 129.992 15.6719C 131.514 15.6719 132.676 16.1686 133.479 17.1621C 134.281 18.1465 134.682 19.5729 134.682 21.4414L 134.682 30ZM 149.311 30L 146.234 30L 146.234 27.8125L 146.18 27.8125C 145.214 29.4896 143.796 30.3281 141.928 30.3281C 140.551 30.3281 139.471 29.9544 138.688 29.207C 137.913 28.4596 137.525 27.4707 137.525 26.2402C 137.525 23.597 139.048 22.0566 142.092 21.6191L 146.248 21.0312C 146.248 19.0352 145.3 18.0371 143.404 18.0371C 141.736 18.0371 140.232 18.6113 138.893 19.7598L 138.893 16.9844C 140.369 16.1094 142.074 15.6719 144.006 15.6719C 147.542 15.6719 149.311 17.4128 149.311 20.8945L 149.311 30ZM 146.248 23.123L 143.309 23.5332C 142.397 23.6517 141.709 23.875 141.244 24.2031C 140.788 24.5221 140.561 25.0872 140.561 25.8984C 140.561 26.4909 140.77 26.9785 141.189 27.3613C 141.618 27.735 142.188 27.9219 142.898 27.9219C 143.865 27.9219 144.662 27.5846 145.291 26.9102C 145.929 26.2266 146.248 25.3698 146.248 24.3398L 146.248 23.123ZM 165.252 16L 159.838 30L 156.406 30L 151.252 16L 154.697 16L 157.801 25.7891C 158.038 26.5091 158.184 27.138 158.238 27.6758L 158.279 27.6758C 158.361 27.0013 158.489 26.3906 158.662 25.8438L 161.916 16L 165.252 16Z" transform="translate(59 52)" fill="#243A5E"/>
</g>
<g id="Commands">
<path d="M 16.0918 29.1797C 14.6152 29.9453 12.7786 30.3281 10.582 30.3281C 7.73828 30.3281 5.45964 29.4303 3.74609 27.6348C 2.03255 25.8392 1.17578 23.4831 1.17578 20.5664C 1.17578 17.431 2.13737 14.8971 4.06055 12.9648C 5.99284 11.0326 8.43099 10.0664 11.375 10.0664C 13.2708 10.0664 14.8431 10.3353 16.0918 10.873L 16.0918 14.0996C 14.7702 13.3158 13.3118 12.9238 11.7168 12.9238C 9.5931 12.9238 7.87044 13.6029 6.54883 14.9609C 5.23633 16.319 4.58008 18.1328 4.58008 20.4023C 4.58008 22.5625 5.19531 24.2852 6.42578 25.5703C 7.65625 26.8464 9.27409 27.4844 11.2793 27.4844C 13.1296 27.4844 14.7337 27.0469 16.0918 26.1719L 16.0918 29.1797ZM 25.6621 30.3281C 23.502 30.3281 21.7747 29.6764 20.4805 28.373C 19.1953 27.0605 18.5527 25.3242 18.5527 23.1641C 18.5527 20.8125 19.2227 18.9759 20.5625 17.6543C 21.9115 16.3327 23.7253 15.6719 26.0039 15.6719C 28.1914 15.6719 29.8958 16.3145 31.1172 17.5996C 32.3385 18.8848 32.9492 20.6667 32.9492 22.9453C 32.9492 25.1784 32.2884 26.9694 30.9668 28.3184C 29.6543 29.6582 27.8861 30.3281 25.6621 30.3281ZM 25.8125 18.2012C 24.5729 18.2012 23.5931 18.6341 22.873 19.5C 22.153 20.3659 21.793 21.5599 21.793 23.082C 21.793 24.5495 22.1576 25.707 22.8867 26.5547C 23.6159 27.3932 24.5911 27.8125 25.8125 27.8125C 27.0612 27.8125 28.0182 27.3978 28.6836 26.5684C 29.3581 25.7389 29.6953 24.5586 29.6953 23.0273C 29.6953 21.487 29.3581 20.2975 28.6836 19.459C 28.0182 18.6204 27.0612 18.2012 25.8125 18.2012ZM 57.1211 30L 53.9492 30L 53.9492 22.3711C 53.9492 20.9036 53.7396 19.8418 53.3203 19.1855C 52.9102 18.5293 52.2129 18.2012 51.2285 18.2012C 50.3991 18.2012 49.6927 18.6159 49.1094 19.4453C 48.5352 20.2747 48.248 21.2682 48.248 22.4258L 48.248 30L 45.0625 30L 45.0625 22.1113C 45.0625 19.5046 44.1419 18.2012 42.3008 18.2012C 41.444 18.2012 40.7376 18.5931 40.1816 19.377C 39.6348 20.1608 39.3613 21.1771 39.3613 22.4258L 39.3613 30L 36.1895 30L 36.1895 16L 39.3613 16L 39.3613 18.2148L 39.416 18.2148C 40.4277 16.5195 41.8997 15.6719 43.832 15.6719C 44.7982 15.6719 45.6413 15.9408 46.3613 16.4785C 47.0905 17.0072 47.5872 17.7044 47.8516 18.5703C 48.8906 16.638 50.4401 15.6719 52.5 15.6719C 55.5807 15.6719 57.1211 17.5723 57.1211 21.373L 57.1211 30ZM 81.9219 30L 78.75 30L 78.75 22.3711C 78.75 20.9036 78.5404 19.8418 78.1211 19.1855C 77.7109 18.5293 77.0137 18.2012 76.0293 18.2012C 75.1999 18.2012 74.4935 18.6159 73.9102 19.4453C 73.3359 20.2747 73.0488 21.2682 73.0488 22.4258L 73.0488 30L 69.8633 30L 69.8633 22.1113C 69.8633 19.5046 68.9427 18.2012 67.1016 18.2012C 66.2448 18.2012 65.5384 18.5931 64.9824 19.377C 64.4355 20.1608 64.1621 21.1771 64.1621 22.4258L 64.1621 30L 60.9902 30L 60.9902 16L 64.1621 16L 64.1621 18.2148L 64.2168 18.2148C 65.2285 16.5195 66.7005 15.6719 68.6328 15.6719C 69.599 15.6719 70.4421 15.9408 71.1621 16.4785C 71.8913 17.0072 72.388 17.7044 72.6523 18.5703C 73.6914 16.638 75.2409 15.6719 77.3008 15.6719C 80.3815 15.6719 81.9219 17.5723 81.9219 21.373L 81.9219 30ZM 96.5371 30L 93.4609 30L 93.4609 27.8125L 93.4062 27.8125C 92.4401 29.4896 91.0228 30.3281 89.1543 30.3281C 87.778 30.3281 86.6979 29.9544 85.9141 29.207C 85.1393 28.4596 84.752 27.4707 84.752 26.2402C 84.752 23.597 86.2741 22.0566 89.3184 21.6191L 93.4746 21.0312C 93.4746 19.0352 92.5267 18.0371 90.6309 18.0371C 88.9629 18.0371 87.459 18.6113 86.1191 19.7598L 86.1191 16.9844C 87.5957 16.1094 89.3001 15.6719 91.2324 15.6719C 94.7689 15.6719 96.5371 17.4128 96.5371 20.8945L 96.5371 30ZM 93.4746 23.123L 90.5352 23.5332C 89.6237 23.6517 88.9355 23.875 88.4707 24.2031C 88.015 24.5221 87.7871 25.0872 87.7871 25.8984C 87.7871 26.4909 87.9967 26.9785 88.416 27.3613C 88.8444 27.735 89.4141 27.9219 90.125 27.9219C 91.0911 27.9219 91.8887 27.5846 92.5176 26.9102C 93.1556 26.2266 93.4746 25.3698 93.4746 24.3398L 93.4746 23.123ZM 112.889 30L 109.717 30L 109.717 22.1113C 109.717 19.4954 108.792 18.1875 106.941 18.1875C 105.975 18.1875 105.178 18.5521 104.549 19.2812C 103.92 20.0013 103.605 20.9128 103.605 22.0156L 103.605 30L 100.42 30L 100.42 16L 103.605 16L 103.605 18.3242L 103.66 18.3242C 104.708 16.556 106.221 15.6719 108.199 15.6719C 109.721 15.6719 110.883 16.1686 111.686 17.1621C 112.488 18.1465 112.889 19.5729 112.889 21.4414L 112.889 30ZM 129.5 30L 126.328 30L 126.328 27.6211L 126.273 27.6211C 125.253 29.4258 123.68 30.3281 121.557 30.3281C 119.834 30.3281 118.453 29.7038 117.414 28.4551C 116.384 27.1973 115.869 25.4883 115.869 23.3281C 115.869 21.013 116.439 19.1582 117.578 17.7637C 118.727 16.3691 120.253 15.6719 122.158 15.6719C 124.045 15.6719 125.417 16.4284 126.273 17.9414L 126.328 17.9414L 126.328 9.27344L 129.5 9.27344L 129.5 30ZM 126.369 23.6016L 126.369 21.7695C 126.369 20.776 126.046 19.9329 125.398 19.2402C 124.751 18.5475 123.926 18.2012 122.924 18.2012C 121.739 18.2012 120.805 18.6432 120.121 19.5273C 119.447 20.4115 119.109 21.6374 119.109 23.2051C 119.109 24.627 119.433 25.7526 120.08 26.582C 120.736 27.4023 121.616 27.8125 122.719 27.8125C 123.803 27.8125 124.683 27.416 125.357 26.623C 126.032 25.821 126.369 24.8138 126.369 23.6016ZM 132.768 29.5625L 132.768 26.623C 133.952 27.5254 135.26 27.9766 136.691 27.9766C 138.605 27.9766 139.562 27.4115 139.562 26.2812C 139.562 25.9622 139.48 25.6934 139.316 25.4746C 139.152 25.2467 138.929 25.0462 138.646 24.873C 138.373 24.6999 138.045 24.5449 137.662 24.4082C 137.288 24.2715 136.869 24.1165 136.404 23.9434C 135.83 23.7155 135.311 23.474 134.846 23.2188C 134.39 22.9635 134.007 22.6764 133.697 22.3574C 133.396 22.0293 133.169 21.6602 133.014 21.25C 132.859 20.8398 132.781 20.3613 132.781 19.8145C 132.781 19.14 132.941 18.5475 133.26 18.0371C 133.579 17.5176 134.007 17.0846 134.545 16.7383C 135.083 16.3828 135.693 16.1185 136.377 15.9453C 137.061 15.763 137.767 15.6719 138.496 15.6719C 139.79 15.6719 140.948 15.8678 141.969 16.2598L 141.969 19.0352C 140.984 18.3607 139.854 18.0234 138.578 18.0234C 138.177 18.0234 137.812 18.0645 137.484 18.1465C 137.165 18.2285 136.892 18.3424 136.664 18.4883C 136.436 18.6341 136.258 18.8118 136.131 19.0215C 136.003 19.222 135.939 19.4453 135.939 19.6914C 135.939 19.9922 136.003 20.2474 136.131 20.457C 136.258 20.6667 136.445 20.8535 136.691 21.0176C 136.947 21.1725 137.247 21.3184 137.594 21.4551C 137.949 21.5827 138.355 21.724 138.811 21.8789C 139.412 22.125 139.95 22.3757 140.424 22.6309C 140.907 22.8861 141.317 23.1777 141.654 23.5059C 141.992 23.8249 142.251 24.1986 142.434 24.627C 142.616 25.0462 142.707 25.5475 142.707 26.1309C 142.707 26.8418 142.543 27.4616 142.215 27.9902C 141.887 28.5189 141.449 28.9564 140.902 29.3027C 140.355 29.6491 139.722 29.9043 139.002 30.0684C 138.291 30.2415 137.539 30.3281 136.746 30.3281C 135.215 30.3281 133.889 30.0729 132.768 29.5625Z" transform="translate(59 500)" fill="#243A5E"/>
</g>
<g id="titlebar-controls" opacity="0.75">
<g id="minimize">
<g id="minimize_2">
<path fill-rule="evenodd" clip-rule="evenodd" d="M 16.9631 2.82826L 0 2.82826L 0 0L 16.9631 0L 16.9631 2.82826Z" transform="translate(456.346 57.8557)" fill="black"/>
</g>
</g>
<g id="expand">
<g id="expand_2">
<rect x="1.25" y="1.25" width="14.4631" height="14.4696" stroke-width="2.5" transform="translate(501.582 50.7849)" stroke="black"/>
</g>
</g>
<g id="close">
<g id="Union">
<path fill-rule="evenodd" clip-rule="evenodd" d="M 10.9951 8.99927L 17.9922 1.99976L 15.9932 0L 8.99609 6.99951L 1.99951 0L 0 2L 6.99707 8.99951L 0 15.999L 1.99902 17.999L 8.99609 10.9993L 15.9932 17.999L 17.9922 15.999L 10.9951 8.99927Z" transform="translate(546.301 50.2705)" fill="black"/>
</g>
</g>
</g>
</g>
</g>
<defs>

<clipPath id="clip0">
<rect width="612" height="615" fill="white"/>
</clipPath>

</defs>
</svg>

