<svg width="940" height="320" viewBox="0 0 940 320" fill="none" xmlns="http://www.w3.org/2000/svg">
<rect width="940" height="320" rx="8" fill="#F9F9F9"/>
<rect x="350.75" y="157.75" width="238.5" height="46.5" rx="5.25" fill="white" fill-opacity="0.7" stroke="url(#paint0_linear)" stroke-width="1.5"/>
<path d="M378.603 175.354H374.357V188.5H372.635V175.354H368.4V173.796H378.603V175.354ZM387.103 183.629H379.679C379.707 184.812 380.018 185.725 380.612 186.367C381.214 187.003 382.055 187.321 383.135 187.321C383.606 187.321 384.078 187.252 384.55 187.116C385.028 186.972 385.5 186.747 385.965 186.439L386.744 187.639C386.149 188.021 385.555 188.302 384.96 188.479C384.365 188.657 383.712 188.746 383.001 188.746C381.416 188.746 380.178 188.274 379.29 187.331C378.401 186.388 377.953 185.072 377.946 183.383C377.939 181.695 378.384 180.334 379.279 179.302C380.182 178.27 381.351 177.754 382.786 177.754C384.153 177.754 385.213 178.202 385.965 179.097C386.724 179.986 387.103 181.22 387.103 182.799V183.629ZM385.38 182.255C385.374 181.285 385.138 180.529 384.673 179.989C384.208 179.442 383.569 179.169 382.755 179.169C381.956 179.169 381.275 179.449 380.715 180.01C380.161 180.563 379.823 181.312 379.7 182.255H385.38ZM397.326 178L393.799 183.312L397.265 188.5H395.306L393.245 185.096C393.177 184.986 393.105 184.867 393.03 184.737C392.955 184.607 392.873 184.46 392.784 184.296H392.743C392.722 184.323 392.671 184.405 392.589 184.542C392.514 184.679 392.404 184.863 392.261 185.096L390.159 188.5H388.221L391.799 183.353L388.375 178H390.333L392.363 181.589C392.438 181.726 392.51 181.862 392.579 181.999C392.654 182.136 392.729 182.272 392.804 182.409H392.845C392.927 182.272 393.009 182.136 393.091 181.999C393.173 181.862 393.255 181.726 393.337 181.589L395.47 178H397.326ZM404.299 188.377C404.012 188.493 403.728 188.579 403.448 188.633C403.174 188.695 402.863 188.726 402.515 188.726C401.681 188.726 401.024 188.483 400.546 187.998C400.074 187.505 399.838 186.781 399.838 185.824V179.436H398.034V178H399.838V175.437L401.52 174.893V178H404.166V179.436H401.52V185.629C401.52 186.23 401.626 186.665 401.838 186.931C402.057 187.198 402.381 187.331 402.812 187.331C403.017 187.331 403.215 187.307 403.407 187.259C403.598 187.211 403.759 187.157 403.889 187.095L404.299 188.377Z" fill="black" fill-opacity="0.6063"/>
<path d="M362.981 139H361.259V132.294H353.65V139H351.928V124.296H353.65V130.746H361.259V124.296H362.981V139ZM375.05 134.129H367.626C367.654 135.312 367.965 136.225 368.56 136.867C369.161 137.503 370.002 137.821 371.082 137.821C371.554 137.821 372.025 137.752 372.497 137.616C372.976 137.472 373.447 137.247 373.912 136.939L374.691 138.139C374.097 138.521 373.502 138.802 372.907 138.979C372.312 139.157 371.66 139.246 370.949 139.246C369.363 139.246 368.125 138.774 367.237 137.831C366.348 136.888 365.9 135.572 365.894 133.883C365.887 132.195 366.331 130.834 367.227 129.802C368.129 128.77 369.298 128.254 370.733 128.254C372.101 128.254 373.16 128.702 373.912 129.597C374.671 130.486 375.05 131.72 375.05 133.299V134.129ZM373.328 132.755C373.321 131.785 373.085 131.029 372.62 130.489C372.155 129.942 371.516 129.669 370.703 129.669C369.903 129.669 369.223 129.949 368.662 130.51C368.108 131.063 367.77 131.812 367.647 132.755H373.328ZM385.038 139H383.356V137.359H383.315C382.953 137.988 382.505 138.46 381.972 138.774C381.445 139.089 380.83 139.246 380.126 139.246C379.142 139.246 378.345 138.959 377.737 138.385C377.128 137.811 376.824 137.048 376.824 136.098C376.824 135.203 377.132 134.461 377.747 133.873C378.362 133.285 379.234 132.909 380.362 132.745L383.356 132.345V132.109C383.356 131.228 383.151 130.602 382.741 130.233C382.331 129.857 381.784 129.669 381.1 129.669C380.553 129.669 380.027 129.771 379.521 129.977C379.015 130.182 378.54 130.496 378.096 130.92L377.111 129.905C377.699 129.337 378.325 128.92 378.988 128.654C379.651 128.387 380.389 128.254 381.203 128.254C382.474 128.254 383.431 128.582 384.074 129.238C384.716 129.888 385.038 130.865 385.038 132.171V139ZM383.356 134.734V133.688L380.823 134.037C380.051 134.146 379.47 134.341 379.08 134.622C378.69 134.902 378.496 135.343 378.496 135.944C378.496 136.573 378.677 137.055 379.039 137.39C379.408 137.718 379.856 137.882 380.382 137.882C381.292 137.882 382.013 137.585 382.546 136.99C383.086 136.396 383.356 135.644 383.356 134.734ZM395.527 137.216C395.138 137.893 394.642 138.402 394.041 138.744C393.446 139.079 392.738 139.246 391.918 139.246C390.599 139.246 389.542 138.778 388.75 137.841C387.963 136.898 387.57 135.616 387.57 133.996C387.57 132.26 388.008 130.869 388.883 129.823C389.758 128.777 390.923 128.254 392.379 128.254C393.104 128.254 393.726 128.397 394.246 128.685C394.772 128.965 395.199 129.389 395.527 129.956H395.568V123.455H397.25V139H395.568V137.216H395.527ZM389.293 133.914C389.293 135.124 389.573 136.081 390.134 136.785C390.701 137.482 391.46 137.831 392.41 137.831C393.354 137.831 394.116 137.493 394.697 136.816C395.278 136.139 395.568 135.285 395.568 134.252V132.704C395.568 131.856 395.285 131.139 394.717 130.551C394.157 129.963 393.449 129.669 392.595 129.669C391.569 129.669 390.763 130.045 390.175 130.797C389.587 131.549 389.293 132.588 389.293 133.914ZM409.093 134.129H401.669C401.697 135.312 402.008 136.225 402.603 136.867C403.204 137.503 404.045 137.821 405.125 137.821C405.597 137.821 406.068 137.752 406.54 137.616C407.019 137.472 407.49 137.247 407.955 136.939L408.734 138.139C408.14 138.521 407.545 138.802 406.95 138.979C406.355 139.157 405.703 139.246 404.992 139.246C403.406 139.246 402.168 138.774 401.28 137.831C400.391 136.888 399.943 135.572 399.937 133.883C399.93 132.195 400.374 130.834 401.27 129.802C402.172 128.77 403.341 128.254 404.776 128.254C406.144 128.254 407.203 128.702 407.955 129.597C408.714 130.486 409.093 131.72 409.093 133.299V134.129ZM407.371 132.755C407.364 131.785 407.128 131.029 406.663 130.489C406.198 129.942 405.559 129.669 404.746 129.669C403.946 129.669 403.266 129.949 402.705 130.51C402.151 131.063 401.813 131.812 401.69 132.755H407.371ZM416.825 129.936C416.695 129.895 416.579 129.867 416.476 129.854C416.374 129.833 416.244 129.823 416.086 129.823C415.232 129.823 414.559 130.188 414.066 130.92C413.574 131.645 413.328 132.554 413.328 133.647V139H411.646V128.5H413.328V130.582H413.369C413.608 129.843 413.974 129.283 414.466 128.9C414.958 128.51 415.526 128.315 416.168 128.315C416.38 128.315 416.558 128.326 416.702 128.346C416.852 128.367 416.985 128.397 417.102 128.438L416.825 129.936Z" fill="black" fill-opacity="0.8956"/>
<g clip-path="url(#clip0)">
<rect x="312.5" y="156.5" width="11" height="315" transform="rotate(-90 312.5 156.5)" fill="#D45C00" fill-opacity="0.1" stroke="#D45C00"/>
</g>
<defs>
<linearGradient id="paint0_linear" x1="470" y1="158.5" x2="470" y2="203.5" gradientUnits="userSpaceOnUse">
<stop offset="0.999878" stop-opacity="0.0578"/>
<stop offset="1" stop-opacity="0.4458"/>
</linearGradient>
<clipPath id="clip0">
<rect width="12" height="264" fill="white" transform="translate(338 157) rotate(-90)"/>
</clipPath>
</defs>
</svg>
