<svg width="940" height="640" viewBox="0 0 940 640" fill="none" xmlns="http://www.w3.org/2000/svg">
<rect width="940" height="640" rx="8" fill="#F9F9F9"/>
<rect x="229" y="139" width="482" height="362" rx="81" stroke="#D45C00" stroke-width="2"/>
<rect x="289" y="79" width="362" height="482" rx="81" stroke="#D45C00" stroke-width="2"/>
<rect x="259" y="109" width="422" height="422" rx="81" stroke="#D45C00" stroke-width="2"/>
<path d="M365 125H575C582.956 125 590.587 128.161 596.213 133.787C601.839 139.413 605 147.044 605 155V185H335V155C335 147.044 338.161 139.413 343.787 133.787C349.413 128.161 357.044 125 365 125Z" stroke="#212121" stroke-width="30" stroke-miterlimit="10"/>
<path d="M335 425H275C267.044 425 259.413 421.839 253.787 416.213C248.161 410.587 245 402.956 245 395V245C245 229.087 251.322 213.826 262.574 202.574C273.827 191.321 289.087 185 305 185H635C650.913 185 666.173 191.321 677.426 202.574C688.678 213.826 695 229.087 695 245V395C695 402.956 691.839 410.587 686.213 416.213C680.587 421.839 672.956 425 665 425H605" stroke="#212121" stroke-width="30" stroke-miterlimit="10"/>
<path d="M575 335H365C348.431 335 335 348.431 335 365V485C335 501.569 348.431 515 365 515H575C591.569 515 605 501.569 605 485V365C605 348.431 591.569 335 575 335Z" stroke="#212121" stroke-width="30" stroke-miterlimit="10"/>
</svg>
