<svg width="940" height="285" viewBox="0 0 940 285" fill="none" xmlns="http://www.w3.org/2000/svg">
<rect width="305.333" height="285" rx="8" fill="#F9F9F9"/>
<path d="M207 201.5H99C95.4196 201.5 91.9857 200.078 89.454 197.546C86.9222 195.014 85.5 191.58 85.5 188V98C85.5 94.4196 86.9222 90.9857 89.454 88.454C91.9857 85.9222 95.4196 84.5 99 84.5H132.75C134.846 84.5 136.913 84.9882 138.788 85.9255C140.662 86.8628 142.293 88.2231 143.55 89.8998L153 102.5H207C210.58 102.5 214.014 103.922 216.546 106.454C219.078 108.986 220.5 112.42 220.5 116V188C220.5 191.58 219.078 195.014 216.546 197.546C214.014 200.078 210.58 201.5 207 201.5Z" stroke="#212121" stroke-width="9" stroke-miterlimit="10"/>
<path d="M85.5 111.5H135.412C138.077 111.5 140.683 110.711 142.901 109.233L153 102.5" stroke="#212121" stroke-width="9" stroke-miterlimit="10"/>
<rect x="317.333" width="305.333" height="285" rx="8" fill="#F9F9F9"/>
<path d="M524 201.5H416C412.42 201.5 408.986 200.078 406.454 197.546C403.922 195.014 402.5 191.58 402.5 188V98C402.5 94.4196 403.922 90.9857 406.454 88.454C408.986 85.9222 412.42 84.5 416 84.5H449.75C451.846 84.5 453.913 84.9882 455.788 85.9255C457.662 86.8628 459.293 88.2231 460.55 89.8998L470 102.5H524C527.58 102.5 531.014 103.922 533.546 106.454C536.078 108.986 537.5 112.42 537.5 116V188C537.5 191.58 536.078 195.014 533.546 197.546C531.014 200.078 527.58 201.5 524 201.5Z" fill="#F5E7C4"/>
<rect x="634.667" width="305.333" height="285" rx="8" fill="#F9F9F9"/>
<path d="M841 201.5H733C729.42 201.5 725.986 200.078 723.454 197.546C720.922 195.014 719.5 191.58 719.5 188V98C719.5 94.4196 720.922 90.9857 723.454 88.454C725.986 85.9222 729.42 84.5 733 84.5H766.75C768.846 84.5 770.913 84.9882 772.788 85.9255C774.662 86.8628 776.293 88.2231 777.55 89.8998L787 102.5H841C844.58 102.5 848.014 103.922 850.546 106.454C853.078 108.986 854.5 112.42 854.5 116V188C854.5 191.58 853.078 195.014 850.546 197.546C848.014 200.078 844.58 201.5 841 201.5Z" fill="#F5E7C4"/>
<path d="M841 201.5H733C729.42 201.5 725.986 200.078 723.454 197.546C720.922 195.014 719.5 191.58 719.5 188V98C719.5 94.4196 720.922 90.9857 723.454 88.454C725.986 85.9222 729.42 84.5 733 84.5H766.75C768.846 84.5 770.913 84.9882 772.788 85.9255C774.662 86.8628 776.293 88.2231 777.55 89.8998L787 102.5H841C844.58 102.5 848.014 103.922 850.546 106.454C853.078 108.986 854.5 112.42 854.5 116V188C854.5 191.58 853.078 195.014 850.546 197.546C848.014 200.078 844.58 201.5 841 201.5Z" stroke="#212121" stroke-width="9" stroke-miterlimit="10"/>
<path d="M719.5 111.5H769.412C772.077 111.5 774.683 110.711 776.901 109.233L787 102.5" stroke="#212121" stroke-width="9" stroke-miterlimit="10"/>
<g clip-path="url(#clip0)">
<rect x="314" y="119" width="48" height="6" rx="3" transform="rotate(90 314 119)" fill="#212121"/>
<rect x="287" y="140" width="48" height="6" rx="3" fill="#212121"/>
</g>
<rect x="605" y="132" width="48" height="6" rx="3" fill="#212121"/>
<rect x="605" y="148" width="48" height="6" rx="3" fill="#212121"/>
<defs>
<clipPath id="clip0">
<rect width="48" height="48" fill="white" transform="translate(287 119)"/>
</clipPath>
</defs>
</svg>
