<svg width="301" height="68" viewBox="0 0 301 68" fill="none" xmlns="http://www.w3.org/2000/svg">
<rect x="0.5" width="300" height="68" rx="8" fill="#F9F9F9"/>
<path d="M25.71 39V29.1973H28.8545C29.8161 29.1973 30.5635 29.4023 31.0967 29.8125C31.6344 30.2181 31.9033 30.7809 31.9033 31.501C31.9033 32.0433 31.7484 32.5173 31.4385 32.9229C31.1331 33.3239 30.7253 33.6064 30.2148 33.7705V33.7979C30.862 33.8753 31.3792 34.1237 31.7666 34.543C32.154 34.9622 32.3477 35.4932 32.3477 36.1357C32.3477 37.0016 32.0378 37.6966 31.418 38.2207C30.7982 38.7402 29.9847 39 28.9775 39H25.71ZM27.3369 30.5029V33.3193H28.4238C28.9707 33.3193 29.4014 33.1872 29.7158 32.9229C30.0348 32.6585 30.1943 32.2871 30.1943 31.8086C30.1943 31.3711 30.0462 31.0452 29.75 30.8311C29.4583 30.6123 29.0208 30.5029 28.4375 30.5029H27.3369ZM27.3369 34.625V37.6943H28.7314C29.333 37.6943 29.8001 37.5531 30.1328 37.2705C30.4701 36.988 30.6387 36.6029 30.6387 36.1152C30.6387 35.6276 30.4655 35.2585 30.1191 35.0078C29.7728 34.7526 29.2692 34.625 28.6084 34.625H27.3369ZM37.1055 39.1641C36.0117 39.1641 35.1436 38.8382 34.501 38.1865C33.863 37.5303 33.5439 36.653 33.5439 35.5547C33.5485 34.3926 33.8812 33.4834 34.542 32.8271C35.2028 32.1663 36.1029 31.8359 37.2422 31.8359C38.3405 31.8314 39.1973 32.1549 39.8125 32.8066C40.4323 33.4538 40.7422 34.3311 40.7422 35.4385C40.7422 36.5778 40.4141 37.4847 39.7578 38.1592C39.1061 38.8291 38.222 39.1641 37.1055 39.1641ZM37.1807 37.8994C37.8141 37.8994 38.2949 37.6921 38.623 37.2773C38.9557 36.8626 39.1221 36.2633 39.1221 35.4795C39.1221 34.7048 38.9557 34.1146 38.623 33.709C38.2904 33.3034 37.8073 33.1006 37.1738 33.1006C36.5495 33.1006 36.0573 33.3148 35.6973 33.7432C35.3418 34.1715 35.1641 34.764 35.1641 35.5205C35.1641 36.2816 35.3418 36.8695 35.6973 37.2842C36.0527 37.6943 36.5472 37.8994 37.1807 37.8994ZM47.1133 37.9131C46.8626 38.3324 46.5459 38.6468 46.1631 38.8564C45.7803 39.0615 45.3314 39.1641 44.8164 39.1641C43.9414 39.1641 43.2373 38.8542 42.7041 38.2344C42.1755 37.61 41.9111 36.7533 41.9111 35.6641C41.9111 34.5065 42.2028 33.5791 42.7861 32.8818C43.374 32.1846 44.1488 31.8359 45.1104 31.8359C45.5798 31.8359 45.9808 31.9248 46.3135 32.1025C46.6462 32.2757 46.9128 32.54 47.1133 32.8955H47.1406V28.6367H48.7334V39H47.1406V37.9131H47.1133ZM43.5312 35.6025C43.5312 36.3226 43.693 36.8854 44.0166 37.291C44.3402 37.6966 44.7799 37.8994 45.3359 37.8994C45.8783 37.8994 46.318 37.6966 46.6553 37.291C46.9925 36.8854 47.1611 36.3636 47.1611 35.7256V34.9258C47.1611 34.4062 46.9993 33.9733 46.6758 33.627C46.3522 33.276 45.9375 33.1006 45.4316 33.1006C44.8392 33.1006 44.3743 33.3239 44.0371 33.7705C43.6999 34.2126 43.5312 34.8232 43.5312 35.6025ZM56.8613 32L53.6416 40.3193C53.391 40.9619 53.0492 41.4518 52.6162 41.7891C52.1878 42.1263 51.6751 42.2949 51.0781 42.2949C50.9049 42.2949 50.7409 42.2835 50.5859 42.2607C50.4355 42.2425 50.2874 42.2152 50.1416 42.1787L50.4219 40.9414C50.5176 40.9733 50.6064 40.9961 50.6885 41.0098C50.7705 41.0234 50.8594 41.0303 50.9551 41.0303C51.2148 41.0303 51.4359 40.9642 51.6182 40.832C51.8005 40.6999 51.9463 40.5039 52.0557 40.2441L52.5889 38.9863L49.8066 32H51.5703L53.1973 36.874C53.2201 36.9515 53.2451 37.0518 53.2725 37.1748C53.2998 37.2933 53.3294 37.4323 53.3613 37.5918H53.3955C53.4137 37.5007 53.4365 37.3981 53.4639 37.2842C53.4912 37.1657 53.5277 37.0335 53.5732 36.8877L55.2617 32H56.8613ZM61.127 38.2959L61.8516 37.0449C62.2936 37.3184 62.7061 37.512 63.0889 37.626C63.4717 37.7354 63.9001 37.79 64.374 37.79C64.9391 37.79 65.3835 37.6693 65.707 37.4277C66.0352 37.1816 66.1992 36.8307 66.1992 36.375C66.1992 35.9603 66.0625 35.6344 65.7891 35.3975C65.5202 35.1559 65.0622 34.9349 64.415 34.7344C63.417 34.4382 62.6833 34.0713 62.2139 33.6338C61.7445 33.1963 61.5098 32.6038 61.5098 31.8564C61.5098 31.0452 61.8128 30.373 62.4189 29.8398C63.0251 29.3021 63.8477 29.0332 64.8867 29.0332C65.3424 29.0332 65.7913 29.0833 66.2334 29.1836C66.6755 29.2839 67.113 29.4388 67.5459 29.6484L66.9375 30.9473C66.5592 30.7513 66.1969 30.6123 65.8506 30.5303C65.5088 30.4482 65.1602 30.4072 64.8047 30.4072C64.2852 30.4072 63.875 30.5212 63.5742 30.749C63.278 30.9769 63.1299 31.2982 63.1299 31.7129C63.1299 32.082 63.2666 32.3737 63.54 32.5879C63.8135 32.7975 64.2829 33.0049 64.9482 33.21C65.9691 33.5153 66.7028 33.8958 67.1494 34.3516C67.6006 34.8073 67.8262 35.4339 67.8262 36.2314C67.8262 37.0882 67.5208 37.7923 66.9102 38.3438C66.2995 38.8906 65.429 39.1641 64.2988 39.1641C63.7337 39.1641 63.1823 39.0934 62.6445 38.9521C62.1068 38.8063 61.6009 38.5876 61.127 38.2959ZM72.8096 38.9043C72.6045 38.9909 72.3903 39.0547 72.167 39.0957C71.9437 39.1367 71.7044 39.1572 71.4492 39.1572C70.8021 39.1572 70.3031 38.9863 69.9521 38.6445C69.6058 38.2982 69.4326 37.7832 69.4326 37.0996V33.2441H68.2568V32H69.4326V30.2979L71.0186 29.8193V32H72.6934V33.2441H71.0186V36.9697C71.0186 37.3115 71.0801 37.5576 71.2031 37.708C71.3307 37.8584 71.5267 37.9336 71.791 37.9336C71.9186 37.9336 72.0394 37.9199 72.1533 37.8926C72.2718 37.8607 72.3766 37.8219 72.4678 37.7764L72.8096 38.9043ZM77.9502 33.333C77.8636 33.3102 77.7793 33.2943 77.6973 33.2852C77.6198 33.2715 77.5286 33.2646 77.4238 33.2646C76.8542 33.2646 76.4167 33.4743 76.1113 33.8936C75.806 34.3128 75.6533 34.8597 75.6533 35.5342V39H74.0605V32H75.6533V33.3467H75.6807C75.8447 32.8636 76.0863 32.499 76.4053 32.2529C76.7243 32.0023 77.1003 31.877 77.5332 31.877C77.6562 31.877 77.7656 31.8838 77.8613 31.8975C77.9616 31.9111 78.0573 31.9316 78.1484 31.959L77.9502 33.333ZM82.2227 39.1641C81.1289 39.1641 80.2607 38.8382 79.6182 38.1865C78.9801 37.5303 78.6611 36.653 78.6611 35.5547C78.6657 34.3926 78.9984 33.4834 79.6592 32.8271C80.32 32.1663 81.2201 31.8359 82.3594 31.8359C83.4577 31.8314 84.3145 32.1549 84.9297 32.8066C85.5495 33.4538 85.8594 34.3311 85.8594 35.4385C85.8594 36.5778 85.5312 37.4847 84.875 38.1592C84.2233 38.8291 83.3392 39.1641 82.2227 39.1641ZM82.2979 37.8994C82.9313 37.8994 83.4121 37.6921 83.7402 37.2773C84.0729 36.8626 84.2393 36.2633 84.2393 35.4795C84.2393 34.7048 84.0729 34.1146 83.7402 33.709C83.4076 33.3034 82.9245 33.1006 82.291 33.1006C81.6667 33.1006 81.1745 33.3148 80.8145 33.7432C80.459 34.1715 80.2812 34.764 80.2812 35.5205C80.2812 36.2816 80.459 36.8695 80.8145 37.2842C81.1699 37.6943 81.6644 37.8994 82.2979 37.8994ZM93.7207 39H92.1348V35.0557C92.1348 34.404 92.0163 33.9163 91.7793 33.5928C91.5423 33.2646 91.1868 33.1006 90.7129 33.1006C90.2389 33.1006 89.847 33.2806 89.5371 33.6406C89.2272 34.0007 89.0723 34.4564 89.0723 35.0078V39H87.4795V32H89.0723V33.1348H89.0996C89.3594 32.7018 89.6784 32.3783 90.0566 32.1641C90.4349 31.9453 90.8747 31.8359 91.376 31.8359C92.1416 31.8359 92.7227 32.0798 93.1191 32.5674C93.5202 33.055 93.7207 33.7728 93.7207 34.7207V39ZM102.033 38.4326C102.033 39.6266 101.696 40.5677 101.021 41.2559C100.352 41.9486 99.4014 42.2949 98.1709 42.2949C97.6833 42.2949 97.2321 42.2493 96.8174 42.1582C96.4027 42.0716 95.972 41.9281 95.5254 41.7275L96.0312 40.5928C96.3913 40.7523 96.7399 40.8685 97.0771 40.9414C97.4144 41.0143 97.7835 41.0508 98.1846 41.0508C98.9001 41.0508 99.4538 40.8434 99.8457 40.4287C100.242 40.0186 100.44 39.4329 100.44 38.6719V37.8994H100.413C100.158 38.3232 99.8366 38.64 99.4492 38.8496C99.0664 39.0592 98.6198 39.1641 98.1094 39.1641C97.2253 39.1641 96.5189 38.8519 95.9902 38.2275C95.4661 37.6032 95.2041 36.7669 95.2041 35.7188C95.2041 34.5521 95.4958 33.6133 96.0791 32.9023C96.667 32.1914 97.4395 31.8359 98.3965 31.8359C98.8477 31.8359 99.2419 31.9248 99.5791 32.1025C99.9163 32.2803 100.194 32.5469 100.413 32.9023H100.44V32H102.033V38.4326ZM100.454 35.7461V34.9326C100.454 34.4268 100.292 33.9961 99.9688 33.6406C99.6452 33.2806 99.235 33.1006 98.7383 33.1006C98.1413 33.1006 97.6719 33.3148 97.3301 33.7432C96.9928 34.1715 96.8242 34.8027 96.8242 35.6367C96.8242 36.3568 96.9814 36.915 97.2959 37.3115C97.6149 37.7035 98.0547 37.8994 98.6152 37.8994C99.1621 37.8994 99.6042 37.7012 99.9414 37.3047C100.283 36.9036 100.454 36.3841 100.454 35.7461Z" fill="black" fill-opacity="0.8956"/>
</svg>
