<svg width="301" height="84" viewBox="0 0 301 84" fill="none" xmlns="http://www.w3.org/2000/svg">
<rect x="0.5" width="300" height="84" rx="8" fill="#F9F9F9"/>
<path d="M39.498 35.1562H33.8652V52H30.6113V35.1562H24.9922V32.3945H39.498V35.1562ZM43.6133 35.0605C43.0938 35.0605 42.6471 34.8919 42.2734 34.5547C41.9089 34.2174 41.7266 33.7891 41.7266 33.2695C41.7266 32.75 41.9089 32.3171 42.2734 31.9707C42.6471 31.6243 43.0938 31.4512 43.6133 31.4512C44.151 31.4512 44.6068 31.6243 44.9805 31.9707C45.3542 32.3171 45.541 32.75 45.541 33.2695C45.541 33.7617 45.3542 34.1855 44.9805 34.541C44.6068 34.8874 44.151 35.0605 43.6133 35.0605ZM45.1855 52H42.0137V38H45.1855V52ZM56.7246 51.8496C56.1048 52.1595 55.2891 52.3145 54.2773 52.3145C51.5612 52.3145 50.2031 51.0111 50.2031 48.4043V40.4883H47.8652V38H50.2031V34.7598L53.375 33.8574V38H56.7246V40.4883H53.375V47.4883C53.375 48.3177 53.5254 48.9102 53.8262 49.2656C54.127 49.6211 54.6283 49.7988 55.3301 49.7988C55.8678 49.7988 56.3327 49.6439 56.7246 49.334V51.8496ZM62.6445 52H59.459V31.2734H62.6445V52ZM78.6406 45.8613H69.0977C69.1341 47.1556 69.5306 48.1536 70.2871 48.8555C71.0527 49.5573 72.1009 49.9082 73.4316 49.9082C74.9264 49.9082 76.2982 49.4616 77.5469 48.5684V51.125C76.2708 51.9271 74.5846 52.3281 72.4883 52.3281C70.4284 52.3281 68.8105 51.6947 67.6348 50.4277C66.4681 49.1517 65.8848 47.3607 65.8848 45.0547C65.8848 42.8763 66.5273 41.1035 67.8125 39.7363C69.1068 38.36 70.7109 37.6719 72.625 37.6719C74.5391 37.6719 76.0202 38.2871 77.0684 39.5176C78.1165 40.748 78.6406 42.457 78.6406 44.6445V45.8613ZM75.5781 43.6191C75.569 42.4798 75.3001 41.5957 74.7715 40.9668C74.2428 40.3288 73.5137 40.0098 72.584 40.0098C71.6725 40.0098 70.8978 40.3424 70.2598 41.0078C69.6309 41.6732 69.2435 42.5436 69.0977 43.6191H75.5781Z" fill="black" fill-opacity="0.8956"/>
</svg>
