<svg width="440" height="208" viewBox="0 0 440 208" fill="none" xmlns="http://www.w3.org/2000/svg">
<rect width="440" height="208" rx="8" fill="#F9F9F9"/>
<path d="M84.8438 122.828L97.5938 116.172C99.0312 119.078 100.906 121.219 103.219 122.594C105.562 123.969 108.125 124.656 110.906 124.656C114.312 124.656 116.844 124.016 118.5 122.734C120.156 121.422 120.984 119.625 120.984 117.344C120.984 115 120.078 113.156 118.266 111.812C116.484 110.469 113.656 109.438 109.781 108.719C102.344 107.281 96.875 104.984 93.375 101.828C89.9062 98.6406 88.1719 94.25 88.1719 88.6562C88.1719 82.2812 90.4219 77.1875 94.9219 73.375C99.4219 69.5625 105.359 67.6562 112.734 67.6562C117.766 67.6562 122.172 68.6719 125.953 70.7031C129.734 72.7344 132.703 75.6406 134.859 79.4219L122.391 85.8438C121.141 83.7188 119.719 82.1875 118.125 81.25C116.531 80.2812 114.469 79.7969 111.938 79.7969C109 79.7969 106.734 80.4375 105.141 81.7188C103.578 83 102.797 84.6094 102.797 86.5469C102.797 88.5156 103.578 90.1094 105.141 91.3281C106.703 92.5156 109.625 93.4844 113.906 94.2344C121.031 95.5156 126.406 97.8906 130.031 101.359C133.688 104.797 135.516 109.469 135.516 115.375C135.516 122.062 133.375 127.375 129.094 131.312C124.812 135.219 118.703 137.172 110.766 137.172C105.016 137.172 99.8281 135.922 95.2031 133.422C90.6094 130.891 87.1562 127.359 84.8438 122.828ZM187.359 116.219H156.047C156.266 119.312 157.328 121.781 159.234 123.625C161.172 125.438 163.703 126.344 166.828 126.344C168.734 126.344 170.469 125.875 172.031 124.938C173.625 124 175.047 122.594 176.297 120.719L187.172 126.906C184.422 130.469 181.344 133.078 177.938 134.734C174.531 136.359 170.75 137.172 166.594 137.172C158.656 137.172 152.469 135.031 148.031 130.75C143.594 126.438 141.375 120.438 141.375 112.75C141.375 104.781 143.688 98.4688 148.312 93.8125C152.938 89.1562 158.625 86.8281 165.375 86.8281C172.375 86.8281 177.781 88.9062 181.594 93.0625C185.438 97.2188 187.359 103.469 187.359 111.812V116.219ZM173.625 106.844C173.625 103.562 172.922 101.109 171.516 99.4844C170.141 97.8281 168.281 97 165.938 97C163.125 97 160.844 97.9375 159.094 99.8125C157.375 101.688 156.328 104.031 155.953 106.844H173.625ZM244.266 132.016C244.266 140.266 241.828 146.75 236.953 151.469C232.109 156.188 225.328 158.547 216.609 158.547C211.203 158.547 206.672 157.625 203.016 155.781C199.391 153.969 196.391 151.453 194.016 148.234L204.281 140.781C205.781 142.938 207.484 144.609 209.391 145.797C211.328 147.016 213.812 147.625 216.844 147.625C220.719 147.625 223.781 146.469 226.031 144.156C228.312 141.875 229.453 138.609 229.453 134.359V130.609H229.266C227.547 132.797 225.406 134.438 222.844 135.531C220.312 136.625 217.344 137.172 213.938 137.172C208.188 137.172 203.359 135.109 199.453 130.984C195.547 126.828 193.594 120.953 193.594 113.359C193.594 104.891 195.875 98.3594 200.438 93.7656C205 89.1406 210.391 86.8281 216.609 86.8281C219.016 86.8281 221.359 87.2969 223.641 88.2344C225.922 89.1719 227.797 90.5781 229.266 92.4531H229.453V88H244.266V132.016ZM229.641 112.938V109.141C229.641 106.172 228.688 103.641 226.781 101.547C224.875 99.4219 222.422 98.3594 219.422 98.3594C216.047 98.3594 213.406 99.625 211.5 102.156C209.594 104.688 208.641 108.172 208.641 112.609C208.641 116.703 209.531 119.906 211.312 122.219C213.094 124.5 215.688 125.641 219.094 125.641C222 125.641 224.484 124.516 226.547 122.266C228.609 120.016 229.641 116.906 229.641 112.938ZM276.846 137.172C269.064 137.172 262.783 134.922 258.002 130.422C253.252 125.922 250.893 119.844 250.924 112.188C250.955 104.562 253.346 98.4375 258.096 93.8125C262.877 89.1562 269.346 86.8281 277.502 86.8281C285.533 86.8281 291.83 89.1406 296.393 93.7656C300.955 98.3906 303.236 104.25 303.236 111.344C303.236 119.031 300.768 125.266 295.83 130.047C290.893 134.797 284.564 137.172 276.846 137.172ZM277.314 125.641C280.939 125.641 283.643 124.328 285.424 121.703C287.236 119.078 288.143 115.719 288.143 111.625C288.143 107.531 287.236 104.297 285.424 101.922C283.611 99.5469 280.877 98.3594 277.221 98.3594C273.658 98.3594 270.893 99.6406 268.924 102.203C266.955 104.734 265.971 108 265.971 112C265.971 116 266.908 119.281 268.783 121.844C270.689 124.375 273.533 125.641 277.314 125.641ZM355.033 116.219H323.721C323.939 119.312 325.002 121.781 326.908 123.625C328.846 125.438 331.377 126.344 334.502 126.344C336.408 126.344 338.143 125.875 339.705 124.938C341.299 124 342.721 122.594 343.971 120.719L354.846 126.906C352.096 130.469 349.018 133.078 345.611 134.734C342.205 136.359 338.424 137.172 334.268 137.172C326.33 137.172 320.143 135.031 315.705 130.75C311.268 126.438 309.049 120.438 309.049 112.75C309.049 104.781 311.361 98.4688 315.986 93.8125C320.611 89.1562 326.299 86.8281 333.049 86.8281C340.049 86.8281 345.455 88.9062 349.268 93.0625C353.111 97.2188 355.033 103.469 355.033 111.812V116.219ZM341.299 106.844C341.299 103.562 340.596 101.109 339.189 99.4844C337.814 97.8281 335.955 97 333.611 97C330.799 97 328.518 97.9375 326.768 99.8125C325.049 101.688 324.002 104.031 323.627 106.844H341.299Z" fill="black" fill-opacity="0.8956"/>
</svg>
