<svg width="440" height="208" viewBox="0 0 440 208" fill="none" xmlns="http://www.w3.org/2000/svg">
<rect width="440" height="208" rx="8" fill="#F9F9F9"/>
<path d="M89.5938 123.297L99.2969 118.422C100.703 121.453 102.609 123.719 105.016 125.219C107.453 126.719 110.297 127.469 113.547 127.469C117.422 127.469 120.406 126.625 122.5 124.938C124.625 123.25 125.688 120.891 125.688 117.859C125.688 114.922 124.641 112.578 122.547 110.828C120.453 109.078 117.234 107.688 112.891 106.656C105.828 105 100.719 102.656 97.5625 99.625C94.4062 96.5625 92.8281 92.4531 92.8281 87.2969C92.8281 81.1406 94.9688 76.3438 99.25 72.9062C103.562 69.4375 108.875 67.7031 115.188 67.7031C119.938 67.7031 124.125 68.75 127.75 70.8438C131.375 72.9062 134.281 75.9844 136.469 80.0781L127.047 84.6719C125.609 82.0156 123.906 80.1094 121.938 78.9531C119.969 77.7969 117.578 77.2188 114.766 77.2188C111.266 77.2188 108.547 78.0156 106.609 79.6094C104.672 81.1719 103.703 83.2656 103.703 85.8906C103.703 88.5156 104.594 90.5781 106.375 92.0781C108.156 93.5781 111.359 94.8594 115.984 95.9219C123.109 97.5156 128.312 99.9688 131.594 103.281C134.906 106.594 136.562 111.047 136.562 116.641C136.562 122.609 134.578 127.516 130.609 131.359C126.641 135.203 120.984 137.125 113.641 137.125C107.984 137.125 103.047 135.922 98.8281 133.516C94.6406 131.109 91.5625 127.703 89.5938 123.297ZM188.078 114.672H154.938C155.031 119.297 156.281 122.781 158.688 125.125C161.125 127.438 164.109 128.594 167.641 128.594C170.141 128.594 172.359 128.016 174.297 126.859C176.234 125.672 177.875 123.922 179.219 121.609L187.609 126.156C185.422 129.656 182.625 132.359 179.219 134.266C175.844 136.172 171.859 137.125 167.266 137.125C160.203 137.125 154.547 135 150.297 130.75C146.047 126.5 143.922 120.391 143.922 112.422C143.922 104.828 146.094 98.6719 150.438 93.9531C154.812 89.2344 160.281 86.875 166.844 86.875C173.594 86.875 178.812 88.8906 182.5 92.9219C186.219 96.9531 188.078 102.797 188.078 110.453V114.672ZM177.531 106.891C177.531 103.141 176.594 100.234 174.719 98.1719C172.844 96.1094 170.281 95.0781 167.031 95.0781C163.625 95.0781 160.859 96.2188 158.734 98.5C156.609 100.75 155.328 103.547 154.891 106.891H177.531ZM242.5 133.234C242.5 141.328 240.297 147.578 235.891 151.984C231.516 156.391 225.438 158.594 217.656 158.594C212.688 158.594 208.359 157.703 204.672 155.922C200.984 154.172 197.891 151.656 195.391 148.375L203.312 142.469C205.125 145 207.172 146.891 209.453 148.141C211.766 149.391 214.547 150.016 217.797 150.016C222.141 150.016 225.516 148.766 227.922 146.266C230.359 143.766 231.578 140.047 231.578 135.109V129.578H231.391C229.641 132.047 227.5 133.922 224.969 135.203C222.469 136.484 219.359 137.125 215.641 137.125C209.391 137.125 204.375 135.031 200.594 130.844C196.812 126.625 194.922 120.75 194.922 113.219C194.922 104.969 197.078 98.5156 201.391 93.8594C205.734 89.2031 211.172 86.875 217.703 86.875C220.547 86.875 223.172 87.4062 225.578 88.4688C227.984 89.5312 229.922 91.0625 231.391 93.0625H231.578V88H242.5V133.234ZM231.672 113.688V108.109C231.672 104.672 230.516 101.75 228.203 99.3438C225.891 96.9375 222.906 95.7344 219.25 95.7344C215.188 95.7344 211.969 97.2031 209.594 100.141C207.219 103.078 206.031 107.266 206.031 112.703C206.031 117.547 207.125 121.359 209.312 124.141C211.531 126.891 214.594 128.266 218.5 128.266C222.406 128.266 225.578 126.922 228.016 124.234C230.453 121.547 231.672 118.031 231.672 113.688ZM274.495 137.125C266.901 137.125 260.87 134.891 256.401 130.422C251.932 125.953 249.698 119.938 249.698 112.375C249.729 104.719 252.104 98.5625 256.823 93.9062C261.542 89.2188 267.667 86.875 275.198 86.875C282.761 86.875 288.729 89.1719 293.104 93.7656C297.479 98.3594 299.667 104.297 299.667 111.578C299.667 119.016 297.354 125.141 292.729 129.953C288.136 134.734 282.057 137.125 274.495 137.125ZM274.917 128.266C279.229 128.266 282.573 126.797 284.948 123.859C287.323 120.891 288.511 116.891 288.511 111.859C288.511 107.016 287.307 103.125 284.901 100.188C282.526 97.2188 279.198 95.7344 274.917 95.7344C270.636 95.7344 267.214 97.2656 264.651 100.328C262.089 103.359 260.807 107.297 260.807 112.141C260.807 117.172 262.073 121.125 264.604 124C267.136 126.844 270.573 128.266 274.917 128.266ZM350.854 114.672H317.714C317.807 119.297 319.057 122.781 321.464 125.125C323.901 127.438 326.886 128.594 330.417 128.594C332.917 128.594 335.136 128.016 337.073 126.859C339.011 125.672 340.651 123.922 341.995 121.609L350.386 126.156C348.198 129.656 345.401 132.359 341.995 134.266C338.62 136.172 334.636 137.125 330.042 137.125C322.979 137.125 317.323 135 313.073 130.75C308.823 126.5 306.698 120.391 306.698 112.422C306.698 104.828 308.87 98.6719 313.214 93.9531C317.589 89.2344 323.057 86.875 329.62 86.875C336.37 86.875 341.589 88.8906 345.276 92.9219C348.995 96.9531 350.854 102.797 350.854 110.453V114.672ZM340.307 106.891C340.307 103.141 339.37 100.234 337.495 98.1719C335.62 96.1094 333.057 95.0781 329.807 95.0781C326.401 95.0781 323.636 96.2188 321.511 98.5C319.386 100.75 318.104 103.547 317.667 106.891H340.307Z" fill="black" fill-opacity="0.8956"/>
</svg>
