<svg width="940" height="640" viewBox="0 0 940 640" fill="none" xmlns="http://www.w3.org/2000/svg">
<rect width="940" height="640" rx="8" fill="#F9F9F9"/>
<g clip-path="url(#clip0)">
<g opacity="0.4">
<path d="M646.775 533.283C647.051 533.283 647.275 533.059 647.275 532.783V265.282C647.275 209.291 633.475 167.151 605.765 138.959C578.053 110.764 536.537 96.6984 481.311 96.6984C450.31 96.6984 420.031 102.102 390.427 112.859L390.427 112.859C360.828 123.638 334.869 138.189 312.557 156.539C312.349 156.71 312.314 157.016 312.478 157.23L354.371 211.78C354.454 211.887 354.576 211.957 354.711 211.972C354.845 211.987 354.981 211.948 355.085 211.862C373.121 197.054 391.989 185.577 411.735 177.424C431.47 169.277 452.184 165.215 473.881 165.215C500.753 165.215 521.633 172.427 536.614 186.79C551.559 201.117 559.085 222.56 559.085 251.165V260.39L440.429 277.034C391.142 283.705 354.19 298.904 329.592 322.612C304.985 346.329 292.698 377.84 292.698 417.02C292.698 455.484 304.915 486.183 329.406 509.038C353.867 531.887 386.353 543.302 426.763 543.302C455.528 543.302 480.926 536.86 502.894 523.939C524.788 511.061 543.036 492.047 557.644 466.869H558.342V532.783C558.342 533.059 558.566 533.283 558.842 533.283H646.775ZM465.417 334.78L465.417 334.78L559.085 321.868V358.396C559.085 391.698 549.103 419.207 529.162 441.01C509.25 462.783 483.767 473.683 452.743 473.683C430.571 473.683 413.016 467.647 400.021 455.624L400.02 455.624C387.001 443.602 380.505 427.803 380.505 408.128C380.505 384.982 387.467 368.014 401.284 357.135C415.156 346.214 436.503 338.729 465.417 334.78Z" stroke="#D45C00" stroke-linecap="round" stroke-linejoin="round"/>
<path d="M639.37 533.284C639.646 533.284 639.87 533.06 639.87 532.784V277.17C639.87 223.432 626.67 183.019 600.206 156.048L600.206 156.048C573.715 129.074 533.683 115.633 480.185 115.633C449.952 115.633 420.583 120.844 392.081 131.242L392.08 131.242C363.585 141.661 338.801 155.541 317.734 172.885C317.526 173.057 317.491 173.363 317.656 173.577L358.878 226.976C358.961 227.083 359.082 227.152 359.215 227.167C359.349 227.183 359.483 227.145 359.588 227.06C377.1 212.969 395.06 201.993 413.444 194.103C431.808 186.222 451.585 182.28 472.803 182.28C498.192 182.28 517.948 188.942 532.187 202.182C546.405 215.428 553.549 235.787 553.549 263.413V271.511L442.68 287.029L442.68 287.029C395.144 293.7 359.415 308.467 335.561 331.311L335.561 331.311C311.7 354.187 299.793 384.115 299.793 421.095C299.793 458.551 311.626 488.198 335.377 509.951C359.093 531.718 390.091 542.559 428.274 542.559C455.289 542.559 479.319 536.525 500.302 524.493C521.215 512.501 538.602 494.516 552.468 470.585H553.166V532.784C553.166 533.06 553.39 533.284 553.666 533.284H639.37ZM405.193 365.092L405.193 365.091C418.203 354.769 438.137 347.621 465.059 343.672C465.06 343.672 465.061 343.672 465.063 343.672L553.525 331.884V366.569C553.525 397.883 544.166 423.714 525.448 444.15L525.448 444.15C506.76 464.579 482.644 474.786 453.103 474.786C432.661 474.786 416.352 469.063 404.096 457.663C391.845 446.266 385.706 431.138 385.706 412.203C385.706 391.027 392.234 375.35 405.193 365.092Z" stroke="#D45C00" stroke-linecap="round" stroke-linejoin="round"/>
<path d="M628.775 533.284C629.051 533.284 629.275 533.06 629.275 532.784V293.828C629.275 244.018 616.817 206.481 591.839 181.237L591.483 181.588L591.838 181.237C566.858 156.014 529.175 143.436 478.889 143.436C447.908 143.436 418.841 149.272 391.694 160.924C364.563 172.57 342.193 187.32 324.573 205.181C324.382 205.374 324.381 205.685 324.57 205.88L369.818 252.592C370.009 252.789 370.323 252.796 370.522 252.607C385.324 238.546 400.811 227.697 416.958 220.053C433.083 212.419 451.486 208.596 472.202 208.596C494.378 208.596 512.058 214.396 525.295 225.922C538.496 237.44 545.159 255.682 545.159 280.838V290.416L444.314 303.351L444.308 303.351C400.22 309.568 366.77 323.497 344.044 345.237C321.313 366.981 309.953 394.774 309.953 428.525C309.953 463.517 321.31 491.247 344.056 511.657L344.056 511.658C366.809 532.027 395.549 542.2 430.285 542.2C454.854 542.2 476.701 536.862 495.837 526.174L495.838 526.174C514.88 515.525 530.972 499.601 544.093 478.374H544.8V532.784C544.8 533.06 545.024 533.284 545.3 533.284H628.775ZM410.398 378.461L410.398 378.461C421.8 369.125 439.071 362.841 462.273 359.635C462.274 359.635 462.276 359.635 462.277 359.635L545.183 349.328V378.433C545.183 406.775 536.735 430.211 519.885 448.777L519.885 448.778C503.045 467.357 480.873 476.631 453.293 476.631C435.59 476.631 421.194 471.464 410.037 461.185C398.916 450.893 393.326 436.942 393.326 419.25C393.326 401.317 399.035 387.741 410.398 378.461Z" stroke="#D45C00" stroke-linecap="round" stroke-linejoin="round"/>
<path d="M629.66 532.782C629.66 533.058 629.436 533.282 629.16 533.282H629.136H545.685C545.409 533.282 545.185 533.058 545.185 532.782V482.447H544.463C531.1 501.934 514.817 516.779 495.637 526.921C476.385 537.101 454.734 542.198 430.67 542.198C395.696 542.198 366.859 532.027 344.248 511.655C321.627 491.273 310.314 464.289 310.314 430.777C310.314 396.287 321.6 368.252 344.239 346.744C366.847 325.242 399.748 311.937 442.833 306.728L629.66 532.782ZM629.66 532.782C629.66 532.729 629.652 532.677 629.636 532.629V291.981C629.636 243.436 617.055 206.499 591.839 181.257L591.838 181.257C566.597 156.038 529.301 143.458 479.993 143.458C445.556 143.458 414.608 150.471 387.207 164.484C359.826 178.488 338.43 196.273 323.038 217.871C322.878 218.095 322.929 218.405 323.152 218.566L378.059 258.28C378.277 258.438 378.581 258.395 378.746 258.182C390.839 242.648 404.452 230.518 419.608 221.758C434.737 213.014 452.766 208.643 473.714 208.643C495.382 208.643 512.748 214.535 525.866 226.323C538.955 238.084 545.545 256.092 545.545 280.501V294.151L442.833 306.728L629.66 532.782ZM410.588 461.541L410.588 461.541C399.562 451.51 394.046 438.039 394.046 421.094C394.046 404.381 399.255 391.345 409.652 381.942C420.065 372.525 436.197 366.435 458.174 363.709L545.545 353.397V378.432C545.545 406.774 537.096 430.209 520.27 448.776C503.431 467.354 481.116 476.63 453.295 476.63C435.83 476.63 421.601 471.581 410.588 461.541Z" stroke="#D45C00" stroke-linecap="round" stroke-linejoin="round"/>
<path d="M545.351 532.784C545.351 533.06 545.575 533.284 545.851 533.284H629.326H629.35C629.626 533.284 629.85 533.06 629.85 532.784V290.856C629.85 243.026 617.147 206.473 591.667 181.233L591.315 181.588L591.667 181.233C566.189 156.018 529.376 143.436 481.31 143.436C443.13 143.436 410.157 151.625 382.362 168C354.585 184.364 334.237 205.33 321.319 230.904C321.259 231.022 321.249 231.16 321.291 231.286C321.332 231.412 321.423 231.517 321.542 231.576L386.035 263.86C386.277 263.982 386.572 263.888 386.7 263.649C396.062 246.167 407.872 232.741 422.147 223.399C436.405 214.068 453.991 209.387 474.935 209.387C496.119 209.387 513.175 215.301 526.175 227.066C539.147 238.806 545.687 256.458 545.687 280.119V297.863L440.775 309.677C398.908 314.382 366.702 327.353 344.214 348.59C321.716 369.837 310.48 397.993 310.48 432.983C310.48 465.517 321.724 491.877 344.224 512.017C366.715 532.15 395.577 542.2 430.812 542.2C454.632 542.2 476.231 537.416 495.599 527.864L495.599 527.863C514.92 518.323 531.253 504.435 544.619 486.164H545.351V532.784ZM454.64 368.169L454.641 368.169L545.735 358.211V378.433C545.735 406.775 537.239 430.209 520.246 448.776L520.245 448.776C503.286 467.356 481.041 476.631 453.461 476.631C435.994 476.631 421.838 471.654 410.945 461.734L410.945 461.734C400.034 451.818 394.596 438.919 394.596 422.965C394.596 407.255 399.376 394.763 408.92 385.479C418.464 376.195 433.674 370.393 454.64 368.169Z" stroke="#D45C00" stroke-linecap="round" stroke-linejoin="round"/>
</g>
<path d="M632.132 532.783H547.914V473.799H546.428C533.079 496.305 516.614 513.322 497.081 524.826C477.549 536.331 455.02 542.083 429.544 542.083C393.93 542.083 364.547 531.633 341.42 510.733C318.292 489.834 306.74 461.456 306.74 425.577C306.74 390.704 318.292 362.255 341.42 340.229C364.547 318.227 398.867 303.99 444.379 297.567L548.274 283.09V275.301C548.274 249.08 541.395 229.787 527.686 217.419C513.954 205.052 495.356 198.869 471.845 198.869C450.826 198.869 431.701 202.703 414.517 210.373C397.333 218.043 380.437 228.444 363.876 241.531L323.061 190.336C342.834 174.014 366.464 160.664 393.93 150.263C421.395 139.885 449.58 134.684 478.531 134.684C530.227 134.684 568.741 147.554 594.097 173.271C619.454 198.988 632.132 237.456 632.132 288.651V532.783ZM548.274 374.718V340.948L464.415 352.452C439.418 356.167 420.748 362.902 408.382 372.681C396.015 382.459 389.832 396.864 389.832 415.918C389.832 434.972 395.703 449.808 407.447 460.45C419.191 471.091 434.337 476.412 452.887 476.412C481.335 476.412 504.319 466.753 521.887 447.459C539.454 428.165 548.274 403.91 548.274 374.718Z" stroke="black" stroke-width="2" stroke-linecap="round" stroke-linejoin="round"/>
</g>
<defs>
<clipPath id="clip0">
<rect width="355.973" height="448" fill="white" transform="translate(292 96)"/>
</clipPath>
</defs>
</svg>
