<svg width="440" height="208" viewBox="0 0 440 208" fill="none" xmlns="http://www.w3.org/2000/svg">
<rect width="440" height="208" rx="8" fill="#F9F9F9"/>
<path d="M84.2031 123.719L91.4219 120.297C92.7969 123.391 94.7344 125.75 97.2344 127.375C99.7344 129 102.797 129.812 106.422 129.812C110.672 129.812 114.047 128.812 116.547 126.812C119.047 124.781 120.297 121.938 120.297 118.281C120.297 114.844 119.109 112.094 116.734 110.031C114.391 107.938 110.875 106.25 106.188 104.969C99.4062 103.125 94.5625 100.734 91.6562 97.7969C88.7812 94.8281 87.3438 90.9688 87.3438 86.2188C87.3438 80.2188 89.4062 75.6406 93.5312 72.4844C97.6562 69.3281 102.438 67.75 107.875 67.75C112.438 67.75 116.453 68.8125 119.922 70.9375C123.422 73.0312 126.281 76.2656 128.5 80.6406L121.562 83.6875C120 80.5938 118.062 78.3906 115.75 77.0781C113.469 75.7344 110.812 75.0625 107.781 75.0625C103.844 75.0625 100.75 75.9844 98.5 77.8281C96.2812 79.6406 95.1719 82.1406 95.1719 85.3281C95.1719 88.5156 96.1406 90.9844 98.0781 92.7344C100.047 94.4844 103.484 96 108.391 97.2812C115.547 99.1562 120.625 101.703 123.625 104.922C126.625 108.109 128.125 112.359 128.125 117.672C128.125 123.078 126.266 127.672 122.547 131.453C118.859 135.234 113.594 137.125 106.75 137.125C101.125 137.125 96.3906 135.969 92.5469 133.656C88.7031 131.312 85.9219 128 84.2031 123.719ZM179.266 113.359H144.625C144.625 119.297 146.031 123.641 148.844 126.391C151.688 129.109 155.062 130.469 158.969 130.469C161.906 130.469 164.484 129.797 166.703 128.453C168.953 127.078 170.812 125.047 172.281 122.359L178.562 125.547C176.875 128.984 174.328 131.781 170.922 133.938C167.547 136.062 163.391 137.125 158.453 137.125C152.078 137.125 146.844 135.016 142.75 130.797C138.688 126.578 136.656 120.375 136.656 112.188C136.656 104.906 138.719 98.875 142.844 94.0938C146.969 89.2812 152.25 86.875 158.688 86.875C165.219 86.875 170.281 88.8594 173.875 92.8281C177.469 96.7656 179.266 102.266 179.266 109.328V113.359ZM171.391 106.938C171.391 102.781 170.25 99.5156 167.969 97.1406C165.688 94.7344 162.547 93.5312 158.547 93.5312C154.672 93.5312 151.5 94.8125 149.031 97.375C146.594 99.9375 145.141 103.125 144.672 106.938H171.391ZM231.719 134.266C231.719 142.234 229.719 148.281 225.719 152.406C221.719 156.531 216.203 158.594 209.172 158.594C204.609 158.594 200.453 157.75 196.703 156.062C192.953 154.375 189.781 151.844 187.188 148.469L193.234 143.875C195.297 146.688 197.625 148.734 200.219 150.016C202.844 151.328 205.859 151.984 209.266 151.984C213.984 151.984 217.625 150.656 220.188 148C222.75 145.344 224.031 141.25 224.031 135.719V128.688H223.844C222.062 131.438 219.922 133.531 217.422 134.969C214.953 136.406 211.719 137.125 207.719 137.125C201.062 137.125 195.891 134.984 192.203 130.703C188.547 126.422 186.719 120.562 186.719 113.125C186.719 105.031 188.781 98.6406 192.906 93.9531C197.062 89.2344 202.516 86.875 209.266 86.875C212.484 86.875 215.344 87.4688 217.844 88.6562C220.344 89.8438 222.344 91.4688 223.844 93.5312H224.031V88H231.719V134.266ZM224.031 114.297V107.219C224.031 103.406 222.703 100.172 220.047 97.5156C217.391 94.8594 213.984 93.5312 209.828 93.5312C205.172 93.5312 201.469 95.1875 198.719 98.5C195.969 101.781 194.594 106.531 194.594 112.75C194.594 118.219 195.859 122.547 198.391 125.734C200.953 128.891 204.391 130.469 208.703 130.469C213.453 130.469 217.188 128.938 219.906 125.875C222.656 122.812 224.031 118.953 224.031 114.297ZM264.042 137.125C256.573 137.125 250.729 134.906 246.511 130.469C242.292 126 240.182 120.031 240.182 112.562C240.182 104.844 242.526 98.6406 247.214 93.9531C251.901 89.2344 257.761 86.875 264.792 86.875C271.979 86.875 277.667 89.1719 281.854 93.7656C286.073 98.3281 288.182 104.344 288.182 111.812C288.182 119.031 286.011 125.062 281.667 129.906C277.354 134.719 271.479 137.125 264.042 137.125ZM264.464 130.469C269.307 130.469 273.151 128.859 275.995 125.641C278.87 122.391 280.307 117.875 280.307 112.094C280.307 106.594 278.87 102.141 275.995 98.7344C273.151 95.2969 269.307 93.5781 264.464 93.5781C259.62 93.5781 255.667 95.3125 252.604 98.7812C249.573 102.219 248.057 106.719 248.057 112.281C248.057 118.125 249.573 122.625 252.604 125.781C255.667 128.906 259.62 130.469 264.464 130.469ZM338.854 113.359H304.214C304.214 119.297 305.62 123.641 308.432 126.391C311.276 129.109 314.651 130.469 318.557 130.469C321.495 130.469 324.073 129.797 326.292 128.453C328.542 127.078 330.401 125.047 331.87 122.359L338.151 125.547C336.464 128.984 333.917 131.781 330.511 133.938C327.136 136.062 322.979 137.125 318.042 137.125C311.667 137.125 306.432 135.016 302.339 130.797C298.276 126.578 296.245 120.375 296.245 112.188C296.245 104.906 298.307 98.875 302.432 94.0938C306.557 89.2812 311.839 86.875 318.276 86.875C324.807 86.875 329.87 88.8594 333.464 92.8281C337.057 96.7656 338.854 102.266 338.854 109.328V113.359ZM330.979 106.938C330.979 102.781 329.839 99.5156 327.557 97.1406C325.276 94.7344 322.136 93.5312 318.136 93.5312C314.261 93.5312 311.089 94.8125 308.62 97.375C306.182 99.9375 304.729 103.125 304.261 106.938H330.979Z" fill="black" fill-opacity="0.8956"/>
</svg>
