<svg width="301" height="72" viewBox="0 0 301 72" fill="none" xmlns="http://www.w3.org/2000/svg">
<rect x="0.5" width="300" height="72" rx="8" fill="#F9F9F9"/>
<path d="M26.1523 42V29.3965H29.7471C30.8369 29.3965 31.6982 29.6572 32.3311 30.1787C32.9697 30.6943 33.2891 31.3945 33.2891 32.2793C33.2891 32.9941 33.0957 33.6152 32.709 34.1426C32.3223 34.6699 31.7891 35.0449 31.1094 35.2676V35.3027C31.959 35.4023 32.6387 35.7246 33.1484 36.2695C33.6582 36.8086 33.9131 37.5117 33.9131 38.3789C33.9131 39.457 33.5264 40.3301 32.7529 40.998C31.9795 41.666 31.0039 42 29.8262 42H26.1523ZM27.6289 30.7324V34.8018H29.1406C29.9492 34.8018 30.585 34.6084 31.0479 34.2217C31.5107 33.8291 31.7422 33.2783 31.7422 32.5693C31.7422 31.9541 31.54 31.4941 31.1357 31.1895C30.7314 30.8848 30.1309 30.7324 29.334 30.7324H27.6289ZM27.6289 36.1289V40.6641H29.6328C30.5 40.6641 31.1709 40.459 31.6455 40.0488C32.126 39.6387 32.3662 39.0762 32.3662 38.3613C32.3662 37.6172 32.1113 37.0605 31.6016 36.6914C31.0977 36.3164 30.3389 36.1289 29.3252 36.1289H27.6289ZM40.0391 42.2109C38.709 42.2109 37.6455 41.792 36.8486 40.9541C36.0576 40.1104 35.6621 38.9941 35.6621 37.6055C35.6621 36.0996 36.0723 34.9219 36.8926 34.0723C37.7129 33.2227 38.832 32.7949 40.25 32.7891C41.5918 32.7832 42.6377 33.1963 43.3877 34.0283C44.1436 34.8604 44.5215 36.0059 44.5215 37.4648C44.5215 38.9062 44.1143 40.0576 43.2998 40.9189C42.4912 41.7803 41.4043 42.2109 40.0391 42.2109ZM40.1445 40.998C41.0762 40.998 41.791 40.6963 42.2891 40.0928C42.793 39.4834 43.0449 38.625 43.0449 37.5176C43.0449 36.3867 42.793 35.5195 42.2891 34.916C41.7852 34.3066 41.0703 34.002 40.1445 34.002C39.2188 34.002 38.4863 34.3184 37.9473 34.9512C37.4082 35.584 37.1387 36.4512 37.1387 37.5527C37.1387 38.6191 37.4111 39.46 37.9561 40.0752C38.501 40.6904 39.2305 40.998 40.1445 40.998ZM53.0293 40.4707C52.6953 41.0508 52.2705 41.4873 51.7549 41.7803C51.2451 42.0674 50.6387 42.2109 49.9355 42.2109C48.8047 42.2109 47.8994 41.8096 47.2197 41.0068C46.5459 40.1982 46.209 39.0996 46.209 37.7109C46.209 36.2227 46.584 35.0303 47.334 34.1338C48.084 33.2373 49.083 32.7891 50.3311 32.7891C50.9521 32.7891 51.4854 32.9121 51.9307 33.1582C52.3818 33.3984 52.748 33.7617 53.0293 34.248H53.0645V28.6758H54.5059V42H53.0645V40.4707H53.0293ZM47.6855 37.6406C47.6855 38.6777 47.9258 39.498 48.4062 40.1016C48.8926 40.6992 49.543 40.998 50.3574 40.998C51.166 40.998 51.8193 40.708 52.3174 40.1279C52.8154 39.5479 53.0645 38.8154 53.0645 37.9307V36.6035C53.0645 35.877 52.8213 35.2617 52.335 34.7578C51.8545 34.2539 51.248 34.002 50.5156 34.002C49.6367 34.002 48.9453 34.3242 48.4414 34.9688C47.9375 35.6133 47.6855 36.5039 47.6855 37.6406ZM64.5869 33L60.3418 43.7139C60.0078 44.5576 59.5889 45.1875 59.085 45.6035C58.5811 46.0254 57.9893 46.2363 57.3096 46.2363C57.1338 46.2363 56.9727 46.2246 56.8262 46.2012C56.6797 46.1836 56.5391 46.1572 56.4043 46.1221L56.6855 44.8916C56.791 44.9268 56.8877 44.9502 56.9756 44.9619C57.0693 44.9795 57.1602 44.9883 57.248 44.9883C57.6348 44.9883 57.9541 44.8887 58.2061 44.6895C58.4639 44.4902 58.6689 44.209 58.8213 43.8457L59.6035 41.9824L56.0879 33H57.6875L60.1221 39.9258C60.1338 39.9668 60.1543 40.0459 60.1836 40.1631C60.2188 40.2803 60.2598 40.4297 60.3066 40.6113H60.3594C60.377 40.541 60.3975 40.4502 60.4209 40.3389C60.4502 40.2275 60.4883 40.0957 60.5352 39.9434L63.0928 33H64.5869ZM77.8145 42H71.2754V29.3965H72.752V40.6641H77.8145V42ZM85.9268 42H84.4854V40.5938H84.4502C84.1396 41.1328 83.7559 41.5371 83.2988 41.8066C82.8477 42.0762 82.3203 42.2109 81.7168 42.2109C80.873 42.2109 80.1904 41.9648 79.6689 41.4727C79.1475 40.9805 78.8867 40.3271 78.8867 39.5127C78.8867 38.7451 79.1504 38.1094 79.6777 37.6055C80.2051 37.1016 80.9521 36.7793 81.9189 36.6387L84.4854 36.2959V36.0938C84.4854 35.3379 84.3096 34.8018 83.958 34.4854C83.6064 34.1631 83.1377 34.002 82.5518 34.002C82.083 34.002 81.6318 34.0898 81.1982 34.2656C80.7646 34.4414 80.3574 34.7109 79.9766 35.0742L79.1328 34.2041C79.6367 33.7178 80.1729 33.3604 80.7412 33.1318C81.3096 32.9033 81.9424 32.7891 82.6396 32.7891C83.7295 32.7891 84.5498 33.0703 85.1006 33.6328C85.6514 34.1895 85.9268 35.0273 85.9268 36.1465V42ZM84.4854 38.3438V37.4473L82.3145 37.7461C81.6523 37.8398 81.1543 38.0068 80.8203 38.2471C80.4863 38.4873 80.3193 38.8652 80.3193 39.3809C80.3193 39.9199 80.4746 40.333 80.7852 40.6201C81.1016 40.9014 81.4854 41.042 81.9365 41.042C82.7158 41.042 83.334 40.7871 83.791 40.2773C84.2539 39.7676 84.4854 39.123 84.4854 38.3438ZM93.1514 34.2305C93.04 34.1953 92.9404 34.1719 92.8525 34.1602C92.7646 34.1426 92.6533 34.1338 92.5186 34.1338C91.7861 34.1338 91.209 34.4473 90.7871 35.0742C90.3652 35.6953 90.1543 36.4746 90.1543 37.4121V42H88.7129V33H90.1543V34.7842H90.1895C90.3945 34.1514 90.708 33.6709 91.1299 33.3428C91.5518 33.0088 92.0381 32.8418 92.5889 32.8418C92.7705 32.8418 92.9229 32.8506 93.0459 32.8682C93.1748 32.8857 93.2891 32.9121 93.3887 32.9473L93.1514 34.2305ZM102.652 41.5166C102.652 43.0928 102.248 44.2734 101.439 45.0586C100.637 45.8438 99.5352 46.2363 98.1348 46.2363C97.5195 46.2363 96.9453 46.1777 96.4121 46.0605C95.8848 45.9434 95.3398 45.7529 94.7773 45.4893L95.3047 44.3818C95.7734 44.5986 96.2305 44.7568 96.6758 44.8564C97.127 44.9561 97.6074 45.0059 98.1172 45.0059C99.0781 45.0059 99.834 44.7334 100.385 44.1885C100.936 43.6436 101.211 42.8174 101.211 41.71V40.4883H101.176C100.836 41.0625 100.408 41.4932 99.8926 41.7803C99.377 42.0674 98.7734 42.2109 98.082 42.2109C96.9629 42.2109 96.0605 41.8125 95.375 41.0156C94.6953 40.2129 94.3555 39.1377 94.3555 37.79C94.3555 36.3135 94.7305 35.1123 95.4805 34.1865C96.2363 33.2549 97.2354 32.7891 98.4775 32.7891C99.0869 32.7891 99.6143 32.9121 100.06 33.1582C100.511 33.3984 100.883 33.7617 101.176 34.248H101.211V33H102.652V41.5166ZM101.211 37.9307V36.6035C101.211 35.8887 100.968 35.2764 100.481 34.7666C100.001 34.2568 99.4004 34.002 98.6797 34.002C97.7949 34.002 97.0977 34.3066 96.5879 34.916C96.084 35.5254 95.832 36.4512 95.832 37.6934C95.832 38.7598 96.0664 39.5771 96.5352 40.1455C97.0039 40.7139 97.6514 40.998 98.4775 40.998C99.2861 40.998 99.9424 40.7109 100.446 40.1367C100.956 39.5625 101.211 38.8271 101.211 37.9307ZM112.804 37.8252H106.44C106.464 38.8389 106.73 39.6211 107.24 40.1719C107.756 40.7168 108.477 40.9893 109.402 40.9893C109.807 40.9893 110.211 40.9307 110.615 40.8135C111.025 40.6904 111.43 40.4971 111.828 40.2334L112.496 41.2617C111.986 41.5898 111.477 41.8301 110.967 41.9824C110.457 42.1348 109.897 42.2109 109.288 42.2109C107.929 42.2109 106.868 41.8066 106.106 40.998C105.345 40.1895 104.961 39.0615 104.955 37.6143C104.949 36.167 105.33 35.001 106.098 34.1162C106.871 33.2314 107.873 32.7891 109.104 32.7891C110.275 32.7891 111.184 33.1729 111.828 33.9404C112.479 34.7021 112.804 35.7598 112.804 37.1133V37.8252ZM111.327 36.6475C111.321 35.8154 111.119 35.168 110.721 34.7051C110.322 34.2363 109.774 34.002 109.077 34.002C108.392 34.002 107.809 34.2422 107.328 34.7227C106.854 35.1973 106.563 35.8389 106.458 36.6475H111.327Z" fill="black" fill-opacity="0.8956"/>
</svg>
