<svg width="440" height="208" viewBox="0 0 440 208" fill="none" xmlns="http://www.w3.org/2000/svg">
<rect width="440" height="208" rx="8" fill="#F9F9F9"/>
<path d="M98.4062 125.172L103.094 122.5C105 126 107.25 128.5 109.844 130C112.469 131.5 115.578 132.25 119.172 132.25C123.641 132.25 127.266 131.078 130.047 128.734C132.859 126.391 134.266 123.031 134.266 118.656C134.266 114.906 133.141 111.891 130.891 109.609C128.641 107.297 125.047 105.406 120.109 103.938C113.891 102.094 109.297 99.6875 106.328 96.7188C103.391 93.7188 101.922 89.9219 101.922 85.3281C101.922 79.9844 103.703 75.7031 107.266 72.4844C110.828 69.2656 115.344 67.6562 120.812 67.6562C125.25 67.6562 129.016 68.6719 132.109 70.7031C135.203 72.7344 137.547 75.2344 139.141 78.2031L134.5 80.6875C133.312 78.2812 131.516 76.3281 129.109 74.8281C126.703 73.2969 123.922 72.5312 120.766 72.5312C116.828 72.5312 113.562 73.625 110.969 75.8125C108.406 78 107.125 80.9688 107.125 84.7188C107.125 88.1562 108.25 91 110.5 93.25C112.75 95.4688 116.438 97.3594 121.562 98.9219C127.906 100.859 132.484 103.344 135.297 106.375C138.141 109.375 139.562 113.281 139.562 118.094C139.562 123.75 137.703 128.344 133.984 131.875C130.297 135.406 125.375 137.172 119.219 137.172C114.5 137.172 110.406 136.141 106.938 134.078C103.469 132.016 100.625 129.047 98.4062 125.172ZM189.625 112.234H153.625C153.625 118.859 155.156 123.922 158.219 127.422C161.281 130.891 165.391 132.625 170.547 132.625C173.734 132.625 176.547 131.891 178.984 130.422C181.422 128.953 183.406 126.875 184.938 124.188L189.156 126.438C187.188 129.938 184.609 132.609 181.422 134.453C178.234 136.266 174.578 137.172 170.453 137.172C163.703 137.172 158.359 134.984 154.422 130.609C150.484 126.203 148.516 119.938 148.516 111.812C148.516 104.625 150.516 98.6719 154.516 93.9531C158.516 89.2031 163.781 86.8281 170.312 86.8281C176.406 86.8281 181.141 88.7969 184.516 92.7344C187.922 96.6719 189.625 102.406 189.625 109.938V112.234ZM184.516 107.781C184.484 102.25 183.156 98.1406 180.531 95.4531C177.906 92.7344 174.453 91.375 170.172 91.375C165.609 91.375 161.891 92.8125 159.016 95.6875C156.172 98.5625 154.422 102.594 153.766 107.781H184.516ZM239.781 135.625C239.781 143.375 237.969 149.125 234.344 152.875C230.75 156.656 225.5 158.547 218.594 158.547C214.375 158.547 210.578 157.688 207.203 155.969C203.828 154.281 200.859 151.859 198.297 148.703L202.328 145.656C204.578 148.562 207 150.672 209.594 151.984C212.188 153.328 215.25 154 218.781 154C223.812 154 227.75 152.562 230.594 149.688C233.469 146.812 234.906 142.125 234.906 135.625V128.219H234.719C232.844 131.188 230.469 133.422 227.594 134.922C224.75 136.422 221.469 137.172 217.75 137.172C211.562 137.172 206.562 134.969 202.75 130.562C198.969 126.156 197.078 120.281 197.078 112.938C197.078 104.812 199.188 98.4375 203.406 93.8125C207.625 89.1562 212.938 86.8281 219.344 86.8281C222.938 86.8281 226.031 87.5156 228.625 88.8906C231.25 90.2344 233.281 92.1406 234.719 94.6094H234.906V88H239.781V135.625ZM234.906 115.656V106.562C234.906 102.438 233.469 98.875 230.594 95.875C227.75 92.875 224.031 91.375 219.438 91.375C214.312 91.375 210.141 93.25 206.922 97C203.734 100.75 202.141 105.922 202.141 112.516C202.141 118.922 203.641 123.875 206.641 127.375C209.641 130.875 213.453 132.625 218.078 132.625C223.234 132.625 227.328 130.984 230.359 127.703C233.391 124.422 234.906 120.406 234.906 115.656ZM271.167 137.172C264.167 137.172 258.542 134.906 254.292 130.375C250.042 125.812 247.917 119.797 247.917 112.328C247.917 104.734 250.182 98.5938 254.714 93.9062C259.276 89.1875 264.901 86.8281 271.589 86.8281C278.464 86.8281 283.979 89.1875 288.136 93.9062C292.323 98.5938 294.417 104.641 294.417 112.047C294.417 119.422 292.292 125.453 288.042 130.141C283.792 134.828 278.167 137.172 271.167 137.172ZM271.354 132.625C276.854 132.625 281.214 130.75 284.432 127C287.682 123.219 289.307 118.219 289.307 112C289.307 105.875 287.698 100.922 284.479 97.1406C281.261 93.3281 276.932 91.4219 271.495 91.4219C266.057 91.4219 261.604 93.3906 258.136 97.3281C254.698 101.234 252.979 106.25 252.979 112.375C252.979 118.531 254.651 123.453 257.995 127.141C261.37 130.797 265.823 132.625 271.354 132.625ZM343.12 112.234H307.12C307.12 118.859 308.651 123.922 311.714 127.422C314.776 130.891 318.886 132.625 324.042 132.625C327.229 132.625 330.042 131.891 332.479 130.422C334.917 128.953 336.901 126.875 338.432 124.188L342.651 126.438C340.682 129.938 338.104 132.609 334.917 134.453C331.729 136.266 328.073 137.172 323.948 137.172C317.198 137.172 311.854 134.984 307.917 130.609C303.979 126.203 302.011 119.938 302.011 111.812C302.011 104.625 304.011 98.6719 308.011 93.9531C312.011 89.2031 317.276 86.8281 323.807 86.8281C329.901 86.8281 334.636 88.7969 338.011 92.7344C341.417 96.6719 343.12 102.406 343.12 109.938V112.234ZM338.011 107.781C337.979 102.25 336.651 98.1406 334.026 95.4531C331.401 92.7344 327.948 91.375 323.667 91.375C319.104 91.375 315.386 92.8125 312.511 95.6875C309.667 98.5625 307.917 102.594 307.261 107.781H338.011Z" fill="black" fill-opacity="0.8956"/>
</svg>
