<svg width="301" height="64" viewBox="0 0 301 64" fill="none" xmlns="http://www.w3.org/2000/svg">
<rect x="0.5" width="300" height="64" rx="8" fill="#F9F9F9"/>
<path d="M31.3203 35.6484C30.6992 35.9766 29.9258 36.1406 29 36.1406C27.8047 36.1406 26.8477 35.7559 26.1289 34.9863C25.4102 34.2168 25.0508 33.207 25.0508 31.957C25.0508 30.6133 25.4551 29.5273 26.2637 28.6992C27.0723 27.8711 28.0977 27.457 29.3398 27.457C30.1367 27.457 30.7969 27.5723 31.3203 27.8027V28.8516C30.7188 28.5156 30.0547 28.3477 29.3281 28.3477C28.3633 28.3477 27.5801 28.6699 26.9785 29.3145C26.3809 29.959 26.082 30.8203 26.082 31.8984C26.082 32.9219 26.3613 33.7383 26.9199 34.3477C27.4824 34.9531 28.2188 35.2559 29.1289 35.2559C29.9727 35.2559 30.7031 35.0684 31.3203 34.6934V35.6484ZM37.1973 36H36.2363V35.0625H36.2129C35.7949 35.7812 35.1797 36.1406 34.3672 36.1406C33.7695 36.1406 33.3008 35.9824 32.9609 35.666C32.625 35.3496 32.457 34.9297 32.457 34.4062C32.457 33.2852 33.1172 32.6328 34.4375 32.4492L36.2363 32.1973C36.2363 31.1777 35.8242 30.668 35 30.668C34.2773 30.668 33.625 30.9141 33.043 31.4062V30.4219C33.6328 30.0469 34.3125 29.8594 35.082 29.8594C36.4922 29.8594 37.1973 30.6055 37.1973 32.0977V36ZM36.2363 32.9648L34.7891 33.1641C34.3438 33.2266 34.0078 33.3379 33.7812 33.498C33.5547 33.6543 33.4414 33.9336 33.4414 34.3359C33.4414 34.6289 33.5449 34.8691 33.752 35.0566C33.9629 35.2402 34.2422 35.332 34.5898 35.332C35.0664 35.332 35.459 35.166 35.7676 34.834C36.0801 34.498 36.2363 34.0742 36.2363 33.5625V32.9648ZM39.9922 35.1328H39.9688V38.7598H39.0078V30H39.9688V31.0547H39.9922C40.4648 30.2578 41.1562 29.8594 42.0664 29.8594C42.8398 29.8594 43.4434 30.1289 43.877 30.668C44.3105 31.2031 44.5273 31.9219 44.5273 32.8242C44.5273 33.8281 44.2832 34.6328 43.7949 35.2383C43.3066 35.8398 42.6387 36.1406 41.791 36.1406C41.0137 36.1406 40.4141 35.8047 39.9922 35.1328ZM39.9688 32.7129V33.5508C39.9688 34.0469 40.1289 34.4688 40.4492 34.8164C40.7734 35.1602 41.1836 35.332 41.6797 35.332C42.2617 35.332 42.7168 35.1094 43.0449 34.6641C43.377 34.2188 43.543 33.5996 43.543 32.8066C43.543 32.1387 43.3887 31.6152 43.0801 31.2363C42.7715 30.8574 42.3535 30.668 41.8262 30.668C41.2676 30.668 40.8184 30.8633 40.4785 31.2539C40.1387 31.6406 39.9688 32.127 39.9688 32.7129ZM48.8457 35.9414C48.6191 36.0664 48.3203 36.1289 47.9492 36.1289C46.8984 36.1289 46.373 35.543 46.373 34.3711V30.8203H45.3418V30H46.373V28.5352L47.334 28.2246V30H48.8457V30.8203H47.334V34.2012C47.334 34.6035 47.4023 34.8906 47.5391 35.0625C47.6758 35.2344 47.9023 35.3203 48.2188 35.3203C48.4609 35.3203 48.6699 35.2539 48.8457 35.1211V35.9414ZM50.6211 28.4766C50.4492 28.4766 50.3027 28.418 50.1816 28.3008C50.0605 28.1836 50 28.0352 50 27.8555C50 27.6758 50.0605 27.5273 50.1816 27.4102C50.3027 27.2891 50.4492 27.2285 50.6211 27.2285C50.7969 27.2285 50.9453 27.2891 51.0664 27.4102C51.1914 27.5273 51.2539 27.6758 51.2539 27.8555C51.2539 28.0273 51.1914 28.1738 51.0664 28.2949C50.9453 28.416 50.7969 28.4766 50.6211 28.4766ZM51.0898 36H50.1289V30H51.0898V36ZM55.543 36.1406C54.6562 36.1406 53.9473 35.8613 53.416 35.3027C52.8887 34.7402 52.625 33.9961 52.625 33.0703C52.625 32.0625 52.9004 31.2754 53.4512 30.709C54.002 30.1426 54.7461 29.8594 55.6836 29.8594C56.5781 29.8594 57.2754 30.1348 57.7754 30.6855C58.2793 31.2363 58.5312 32 58.5312 32.9766C58.5312 33.9336 58.2598 34.7012 57.7168 35.2793C57.1777 35.8535 56.4531 36.1406 55.543 36.1406ZM55.6133 30.668C54.9961 30.668 54.5078 30.8789 54.1484 31.3008C53.7891 31.7188 53.6094 32.2969 53.6094 33.0352C53.6094 33.7461 53.791 34.3066 54.1543 34.7168C54.5176 35.127 55.0039 35.332 55.6133 35.332C56.2344 35.332 56.7109 35.1309 57.043 34.7285C57.3789 34.3262 57.5469 33.7539 57.5469 33.0117C57.5469 32.2617 57.3789 31.6836 57.043 31.2773C56.7109 30.8711 56.2344 30.668 55.6133 30.668ZM65.0469 36H64.0859V32.5781C64.0859 31.3047 63.6211 30.668 62.6914 30.668C62.2109 30.668 61.8125 30.8496 61.4961 31.2129C61.1836 31.5723 61.0273 32.0273 61.0273 32.5781V36H60.0664V30H61.0273V30.9961H61.0508C61.5039 30.2383 62.1602 29.8594 63.0195 29.8594C63.6758 29.8594 64.1777 30.0723 64.5254 30.498C64.873 30.9199 65.0469 31.5312 65.0469 32.332V36Z" fill="black" fill-opacity="0.8956"/>
</svg>
