<svg width="301" height="76" viewBox="0 0 301 76" fill="none" xmlns="http://www.w3.org/2000/svg">
<rect x="0.5" width="300" height="76" rx="8" fill="#F9F9F9"/>
<path d="M25.584 44.4434V42.0508C25.7988 42.2461 26.0527 42.4219 26.3457 42.5781C26.6452 42.7344 26.9609 42.8678 27.293 42.9785C27.625 43.0827 27.957 43.1641 28.2891 43.2227C28.6211 43.2812 28.9271 43.3105 29.207 43.3105C30.1836 43.3105 30.9095 43.1478 31.3848 42.8223C31.8665 42.4967 32.1074 42.0247 32.1074 41.4062C32.1074 41.0742 32.026 40.7878 31.8633 40.5469C31.707 40.2995 31.4857 40.0749 31.1992 39.873C30.9128 39.6712 30.5742 39.4792 30.1836 39.2969C29.7995 39.1081 29.3861 38.9128 28.9434 38.7109C28.4681 38.457 28.0254 38.1999 27.6152 37.9395C27.2051 37.679 26.847 37.3926 26.541 37.0801C26.2415 36.7611 26.0039 36.403 25.8281 36.0059C25.6589 35.6087 25.5742 35.1432 25.5742 34.6094C25.5742 33.9518 25.7207 33.3822 26.0137 32.9004C26.3132 32.4121 26.7038 32.0117 27.1855 31.6992C27.6738 31.3802 28.2272 31.1458 28.8457 30.9961C29.4642 30.8398 30.0957 30.7617 30.7402 30.7617C32.2051 30.7617 33.2728 30.9277 33.9434 31.2598V33.5547C33.1491 32.9818 32.127 32.6953 30.877 32.6953C30.5319 32.6953 30.1868 32.7279 29.8418 32.793C29.5033 32.8581 29.1973 32.9655 28.9238 33.1152C28.6569 33.265 28.4388 33.457 28.2695 33.6914C28.1003 33.9258 28.0156 34.209 28.0156 34.541C28.0156 34.8535 28.0807 35.1237 28.2109 35.3516C28.3411 35.5794 28.5299 35.7878 28.7773 35.9766C29.0312 36.1654 29.3372 36.3509 29.6953 36.5332C30.0599 36.709 30.4798 36.901 30.9551 37.1094C31.4434 37.3633 31.9023 37.6302 32.332 37.9102C32.7682 38.1901 33.1491 38.4993 33.4746 38.8379C33.8066 39.1764 34.0671 39.554 34.2559 39.9707C34.4512 40.3809 34.5488 40.8496 34.5488 41.377C34.5488 42.0866 34.4056 42.6855 34.1191 43.1738C33.8327 43.6621 33.4453 44.0592 32.957 44.3652C32.4753 44.6712 31.9186 44.8926 31.2871 45.0293C30.6556 45.166 29.9883 45.2344 29.2852 45.2344C29.0508 45.2344 28.7611 45.2148 28.416 45.1758C28.0775 45.1432 27.7292 45.0911 27.3711 45.0195C27.013 44.9544 26.6745 44.873 26.3555 44.7754C26.0365 44.6777 25.7793 44.5671 25.584 44.4434ZM45.5938 45H43.3281V43.418H43.2891C42.6315 44.6289 41.6094 45.2344 40.2227 45.2344C37.8594 45.2344 36.6777 43.8151 36.6777 40.9766V35H38.9434V40.7422C38.9434 42.5391 39.6367 43.4375 41.0234 43.4375C41.694 43.4375 42.2441 43.1901 42.6738 42.6953C43.11 42.2005 43.3281 41.5527 43.3281 40.752V35H45.5938V45ZM50.8574 43.5547H50.8184V45H48.5527V30.1953H50.8184V36.7578H50.8574C51.6322 35.4297 52.765 34.7656 54.2559 34.7656C55.5189 34.7656 56.5052 35.2148 57.2148 36.1133C57.931 37.0052 58.2891 38.2031 58.2891 39.707C58.2891 41.3802 57.8887 42.7214 57.0879 43.7305C56.2871 44.7331 55.1934 45.2344 53.8066 45.2344C52.5046 45.2344 51.5215 44.6745 50.8574 43.5547ZM50.7988 39.5801V40.8203C50.7988 41.5495 51.0299 42.168 51.4922 42.6758C51.9609 43.1836 52.5534 43.4375 53.2695 43.4375C54.1094 43.4375 54.7669 43.112 55.2422 42.4609C55.724 41.8034 55.9648 40.8887 55.9648 39.7168C55.9648 38.7337 55.7402 37.9655 55.291 37.4121C54.8483 36.8522 54.2461 36.5723 53.4844 36.5723C52.6771 36.5723 52.026 36.8587 51.5312 37.4316C51.043 38.0046 50.7988 38.7207 50.7988 39.5801ZM65.877 44.8926C65.4342 45.1139 64.8516 45.2246 64.1289 45.2246C62.1888 45.2246 61.2188 44.2936 61.2188 42.4316V36.7773H59.5488V35H61.2188V32.6855L63.4844 32.041V35H65.877V36.7773H63.4844V41.7773C63.4844 42.3698 63.5918 42.793 63.8066 43.0469C64.0215 43.3008 64.3796 43.4277 64.8809 43.4277C65.265 43.4277 65.597 43.3171 65.877 43.0957V44.8926ZM68.9727 32.9004C68.6016 32.9004 68.2826 32.7799 68.0156 32.5391C67.7552 32.2982 67.625 31.9922 67.625 31.6211C67.625 31.25 67.7552 30.9408 68.0156 30.6934C68.2826 30.446 68.6016 30.3223 68.9727 30.3223C69.3568 30.3223 69.6823 30.446 69.9492 30.6934C70.2161 30.9408 70.3496 31.25 70.3496 31.6211C70.3496 31.9727 70.2161 32.2754 69.9492 32.5293C69.6823 32.7767 69.3568 32.9004 68.9727 32.9004ZM70.0957 45H67.8301V35H70.0957V45ZM78.3379 44.8926C77.8952 45.1139 77.3125 45.2246 76.5898 45.2246C74.6497 45.2246 73.6797 44.2936 73.6797 42.4316V36.7773H72.0098V35H73.6797V32.6855L75.9453 32.041V35H78.3379V36.7773H75.9453V41.7773C75.9453 42.3698 76.0527 42.793 76.2676 43.0469C76.4824 43.3008 76.8405 43.4277 77.3418 43.4277C77.7259 43.4277 78.0579 43.3171 78.3379 43.0957V44.8926ZM82.5664 45H80.291V30.1953H82.5664V45ZM93.9922 40.6152H87.1758C87.2018 41.5397 87.485 42.2526 88.0254 42.7539C88.5723 43.2552 89.321 43.5059 90.2715 43.5059C91.3392 43.5059 92.319 43.1868 93.2109 42.5488V44.375C92.2995 44.9479 91.0951 45.2344 89.5977 45.2344C88.1263 45.2344 86.9707 44.7819 86.1309 43.877C85.2975 42.9655 84.8809 41.6862 84.8809 40.0391C84.8809 38.4831 85.3398 37.2168 86.2578 36.2402C87.1823 35.2572 88.3281 34.7656 89.6953 34.7656C91.0625 34.7656 92.1204 35.2051 92.8691 36.084C93.6178 36.9629 93.9922 38.1836 93.9922 39.7461V40.6152ZM91.8047 39.0137C91.7982 38.1999 91.6061 37.5684 91.2285 37.1191C90.8509 36.6634 90.3301 36.4355 89.666 36.4355C89.015 36.4355 88.4616 36.6732 88.0059 37.1484C87.5566 37.6237 87.2799 38.2454 87.1758 39.0137H91.8047Z" fill="black" fill-opacity="0.8956"/>
</svg>
