<svg width="301" height="100" viewBox="0 0 301 100" fill="none" xmlns="http://www.w3.org/2000/svg">
<rect x="0.5" width="300" height="100" rx="8" fill="#F9F9F9"/>
<path d="M45.3008 39.9375H37.4688V64H32.8203V39.9375H25.0078V35.9922H45.3008V39.9375ZM51.2188 40.3477C50.3594 40.3477 49.6562 40.0742 49.1094 39.5273C48.5755 38.9674 48.3086 38.2969 48.3086 37.5156C48.3086 36.7214 48.5755 36.0508 49.1094 35.5039C49.6562 34.957 50.3594 34.6836 51.2188 34.6836C52.0911 34.6836 52.7943 34.957 53.3281 35.5039C53.875 36.0508 54.1484 36.7214 54.1484 37.5156C54.1484 38.3229 53.875 39 53.3281 39.5469C52.7943 40.0807 52.0911 40.3477 51.2188 40.3477ZM53.4844 64H48.9336V44H53.4844V64ZM70.7695 62.6523C70.1706 63.2253 69.474 63.668 68.6797 63.9805C67.8854 64.293 66.9935 64.4492 66.0039 64.4492C64.1029 64.4492 62.6641 63.974 61.6875 63.0234C60.724 62.0599 60.2422 60.6536 60.2422 58.8047V47.5547H56.8828V44H60.2422V39.0977L64.7734 38.2969V44H69.8711V47.5547H64.7734V58.6484C64.7734 59.4427 64.9297 60.0286 65.2422 60.4062C65.5677 60.7839 66.056 60.9727 66.707 60.9727C67.0456 60.9727 67.3776 60.9076 67.7031 60.7773C68.0286 60.6471 68.3737 60.3932 68.7383 60.0156L70.7695 62.6523ZM74.2852 64V34.3906H78.8359V64H74.2852ZM101.473 55.1133H87.6641C87.7031 57.0404 88.224 58.4922 89.2266 59.4688C90.2422 60.4323 91.4857 60.9141 92.957 60.9141C93.9987 60.9141 94.9232 60.6732 95.7305 60.1914C96.5378 59.6966 97.2214 58.9674 97.7812 58.0039L101.277 59.8984C100.366 61.3568 99.2005 62.4831 97.7812 63.2773C96.375 64.0716 94.7148 64.4688 92.8008 64.4688C89.8581 64.4688 87.5013 63.5833 85.7305 61.8125C83.9596 60.0417 83.0742 57.4961 83.0742 54.1758C83.0742 51.0117 83.9792 48.4466 85.7891 46.4805C87.612 44.5143 89.8906 43.5312 92.625 43.5312C95.4375 43.5312 97.612 44.3711 99.1484 46.0508C100.698 47.7305 101.473 50.1654 101.473 53.3555V55.1133ZM97.0781 51.8711C97.0781 50.3086 96.6875 49.0977 95.9062 48.2383C95.125 47.3789 94.0573 46.9492 92.7031 46.9492C91.2839 46.9492 90.1315 47.4245 89.2461 48.375C88.3607 49.3125 87.8268 50.4779 87.6445 51.8711H97.0781ZM131.004 64H115.496V35.9922H120.145V59.9766H131.004V64ZM149.441 64H145.047V61.5195H144.969C144.266 62.4831 143.406 63.2188 142.391 63.7266C141.375 64.2214 140.242 64.4688 138.992 64.4688C137.143 64.4688 135.626 63.9414 134.441 62.8867C133.27 61.832 132.684 60.4518 132.684 58.7461C132.684 56.9102 133.27 55.4388 134.441 54.332C135.626 53.2122 137.319 52.5286 139.52 52.2812L145.066 51.6562V50.6992C145.066 49.4622 144.721 48.5378 144.031 47.9258C143.341 47.3008 142.436 46.9883 141.316 46.9883C140.21 46.9883 139.279 47.2357 138.523 47.7305C137.768 48.2253 137.143 48.9349 136.648 49.8594L133.25 48.1211C133.927 46.7799 134.995 45.6797 136.453 44.8203C137.911 43.9609 139.643 43.5312 141.648 43.5312C144.174 43.5312 146.102 44.1953 147.43 45.5234C148.771 46.8385 149.441 48.7526 149.441 51.2656V64ZM145.066 55.875V54.7812L140.242 55.3086C139.135 55.4258 138.328 55.7318 137.82 56.2266C137.312 56.7214 137.059 57.3854 137.059 58.2188C137.059 59.0651 137.345 59.7552 137.918 60.2891C138.504 60.8099 139.259 61.0703 140.184 61.0703C141.642 61.0703 142.82 60.582 143.719 59.6055C144.617 58.6159 145.066 57.3724 145.066 55.875ZM166.004 48.082C165.639 47.9388 165.262 47.8281 164.871 47.75C164.493 47.6589 164.09 47.6133 163.66 47.6133C162.319 47.6133 161.232 48.2122 160.398 49.4102C159.565 50.6081 159.148 52.1706 159.148 54.0977V64H154.598V44H159.148V47.6133H159.227C159.695 46.3372 160.385 45.3607 161.297 44.6836C162.208 43.9935 163.263 43.6484 164.461 43.6484C164.969 43.6484 165.438 43.6875 165.867 43.7656C166.297 43.8438 166.759 43.9935 167.254 44.2148L166.004 48.082ZM188.094 62.8477C188.094 66.2201 187.176 68.8242 185.34 70.6602C183.517 72.4961 180.984 73.4141 177.742 73.4141C175.672 73.4141 173.868 73.043 172.332 72.3008C170.796 71.5716 169.507 70.5234 168.465 69.1562L171.766 66.6953C172.521 67.75 173.374 68.5378 174.324 69.0586C175.288 69.5794 176.447 69.8398 177.801 69.8398C179.611 69.8398 181.017 69.319 182.02 68.2773C183.035 67.2357 183.543 65.6862 183.543 63.6289V61.3242H183.465C182.736 62.3529 181.844 63.1341 180.789 63.668C179.747 64.2018 178.452 64.4688 176.902 64.4688C174.298 64.4688 172.208 63.5964 170.633 61.8516C169.057 60.0938 168.27 57.6458 168.27 54.5078C168.27 51.0703 169.168 48.3815 170.965 46.4414C172.775 44.5013 175.04 43.5312 177.762 43.5312C178.947 43.5312 180.04 43.7526 181.043 44.1953C182.046 44.638 182.853 45.276 183.465 46.1094H183.543V44H188.094V62.8477ZM183.582 54.7031V52.3789C183.582 50.9466 183.1 49.7292 182.137 48.7266C181.173 47.724 179.93 47.2227 178.406 47.2227C176.714 47.2227 175.372 47.8346 174.383 49.0586C173.393 50.2826 172.898 52.0273 172.898 54.293C172.898 56.3112 173.354 57.8997 174.266 59.0586C175.19 60.2044 176.466 60.7773 178.094 60.7773C179.721 60.7773 181.043 60.2174 182.059 59.0977C183.074 57.9779 183.582 56.513 183.582 54.7031ZM210.691 55.1133H196.883C196.922 57.0404 197.443 58.4922 198.445 59.4688C199.461 60.4323 200.704 60.9141 202.176 60.9141C203.217 60.9141 204.142 60.6732 204.949 60.1914C205.757 59.6966 206.44 58.9674 207 58.0039L210.496 59.8984C209.585 61.3568 208.419 62.4831 207 63.2773C205.594 64.0716 203.934 64.4688 202.02 64.4688C199.077 64.4688 196.72 63.5833 194.949 61.8125C193.178 60.0417 192.293 57.4961 192.293 54.1758C192.293 51.0117 193.198 48.4466 195.008 46.4805C196.831 44.5143 199.109 43.5312 201.844 43.5312C204.656 43.5312 206.831 44.3711 208.367 46.0508C209.917 47.7305 210.691 50.1654 210.691 53.3555V55.1133ZM206.297 51.8711C206.297 50.3086 205.906 49.0977 205.125 48.2383C204.344 47.3789 203.276 46.9492 201.922 46.9492C200.503 46.9492 199.35 47.4245 198.465 48.375C197.579 49.3125 197.046 50.4779 196.863 51.8711H206.297Z" fill="black" fill-opacity="0.8956"/>
</svg>
