<svg width="940" height="640" viewBox="0 0 940 640" fill="none" xmlns="http://www.w3.org/2000/svg">
<g clip-path="url(#clip0)">
<rect width="940" height="640" rx="8" fill="#F9F9F9"/>
<line x1="960" y1="206.5" x2="-24" y2="206.5" stroke="#B7B7B7"/>
<rect x="379" y="248" width="20" height="168" fill="#D45C00" fill-opacity="0.1"/>
<path d="M379 249L379 416" stroke="#D45C00" stroke-width="2" stroke-linecap="round"/>
<path d="M399 249L399 416" stroke="#D45C00" stroke-width="2" stroke-linecap="round"/>
<rect x="-258" y="263" width="1436" height="140" fill="#D45C00" fill-opacity="0.1"/>
<line x1="103.5" y1="-28" x2="103.5" y2="668" stroke="#B7B7B7"/>
<line x1="838.5" y1="-28" x2="838.5" y2="668" stroke="#B7B7B7"/>
<path d="M103.726 367.18L124.781 357.199C128.791 366.223 134.442 373.104 141.734 377.844C149.026 382.583 157.958 384.953 168.531 384.953C180.927 384.953 190.77 382.036 198.062 376.203C205.354 370.279 208.999 361.984 208.999 351.32C208.999 341.294 205.536 333.273 198.609 327.258C191.773 321.151 181.519 316.229 167.847 312.492C148.068 307.115 133.941 300.142 125.464 291.574C117.079 282.915 112.886 271.659 112.886 257.805C112.886 240.305 118.902 226.952 130.933 217.746C142.964 208.54 156.91 203.938 172.769 203.938C186.076 203.938 197.789 207.036 207.906 213.234C218.114 219.341 226.454 228.775 232.925 241.535L212.691 250.422C208.134 241.398 202.483 234.973 195.738 231.145C189.084 227.225 181.337 225.266 172.496 225.266C161.011 225.266 151.988 227.954 145.425 233.332C138.954 238.618 135.718 245.91 135.718 255.207C135.718 264.504 138.544 271.704 144.195 276.809C149.937 281.913 159.963 286.333 174.273 290.07C195.145 295.539 209.957 302.967 218.707 312.355C227.457 321.652 231.832 334.048 231.832 349.543C231.832 365.311 226.408 378.71 215.562 389.738C204.807 400.767 189.449 406.281 169.488 406.281C153.082 406.281 139.273 402.909 128.062 396.164C116.851 389.328 108.739 379.667 103.726 367.18ZM378.192 336.965H277.157C277.157 354.283 281.258 366.952 289.461 374.973C297.755 382.902 307.599 386.867 318.992 386.867C327.56 386.867 335.08 384.908 341.551 380.988C348.114 376.978 353.537 371.053 357.821 363.215L376.141 372.512C371.219 382.538 363.791 390.695 353.856 396.984C344.012 403.182 331.89 406.281 317.489 406.281C298.895 406.281 283.628 400.129 271.688 387.824C259.839 375.52 253.914 357.427 253.914 333.547C253.914 312.31 259.93 294.719 271.961 280.773C283.992 266.737 299.396 259.719 318.172 259.719C337.222 259.719 351.987 265.507 362.469 277.082C372.951 288.566 378.192 304.608 378.192 325.207V336.965ZM355.223 318.234C355.223 306.112 351.896 296.587 345.242 289.66C338.589 282.642 329.429 279.133 317.762 279.133C306.46 279.133 297.209 282.87 290.008 290.344C282.899 297.818 278.66 307.115 277.293 318.234H355.223ZM531.18 397.941C531.18 421.184 525.347 438.82 513.68 450.852C502.013 462.883 485.926 468.898 465.418 468.898C452.111 468.898 439.989 466.438 429.051 461.516C418.114 456.594 408.862 449.211 401.297 439.367L418.934 425.969C424.949 434.172 431.74 440.142 439.305 443.879C446.961 447.707 455.757 449.621 465.692 449.621C479.455 449.621 490.073 445.747 497.547 438C505.021 430.253 508.758 418.312 508.758 402.18V381.672H508.211C503.016 389.693 496.772 395.799 489.481 399.992C482.28 404.185 472.847 406.281 461.18 406.281C441.766 406.281 426.681 400.038 415.926 387.551C405.262 375.064 399.93 357.974 399.93 336.281C399.93 312.674 405.946 294.035 417.977 280.363C430.099 266.6 446.004 259.719 465.692 259.719C475.08 259.719 483.42 261.451 490.711 264.914C498.003 268.378 503.836 273.117 508.211 279.133H508.758V263H531.18V397.941ZM508.758 339.699V319.055C508.758 307.935 504.884 298.501 497.137 290.754C489.39 283.007 479.455 279.133 467.332 279.133C453.752 279.133 442.951 283.964 434.93 293.625C426.909 303.195 422.899 317.049 422.899 335.188C422.899 351.138 426.59 363.762 433.973 373.059C441.447 382.264 451.473 386.867 464.051 386.867C477.905 386.867 488.797 382.401 496.727 373.469C504.748 364.536 508.758 353.28 508.758 339.699ZM622.656 406.281C600.872 406.281 583.828 399.81 571.523 386.867C559.218 373.833 553.066 356.424 553.066 334.641C553.066 312.128 559.902 294.035 573.574 280.363C587.246 266.6 604.335 259.719 624.843 259.719C645.807 259.719 662.395 266.418 674.609 279.816C686.914 293.124 693.066 310.669 693.066 332.453C693.066 353.508 686.731 371.099 674.062 385.227C661.484 399.263 644.348 406.281 622.656 406.281ZM623.886 386.867C638.014 386.867 649.225 382.173 657.519 372.785C665.904 363.306 670.097 350.135 670.097 333.273C670.097 317.232 665.904 304.243 657.519 294.309C649.225 284.283 638.014 279.27 623.886 279.27C609.759 279.27 598.229 284.328 589.296 294.445C580.455 304.471 576.035 317.596 576.035 333.82C576.035 350.865 580.455 363.99 589.296 373.195C598.229 382.31 609.759 386.867 623.886 386.867ZM838.059 336.965H737.024C737.024 354.283 741.125 366.952 749.328 374.973C757.623 382.902 767.466 386.867 778.86 386.867C787.427 386.867 794.947 384.908 801.418 380.988C807.981 376.978 813.404 371.053 817.688 363.215L836.008 372.512C831.086 382.538 823.658 390.695 813.723 396.984C803.879 403.182 791.757 406.281 777.356 406.281C758.762 406.281 743.495 400.129 731.555 387.824C719.706 375.52 713.781 357.427 713.781 333.547C713.781 312.31 719.797 294.719 731.828 280.773C743.86 266.737 759.263 259.719 778.039 259.719C797.089 259.719 811.854 265.507 822.336 277.082C832.818 288.566 838.059 304.608 838.059 325.207V336.965ZM815.09 318.234C815.09 306.112 811.763 296.587 805.11 289.66C798.456 282.642 789.296 279.133 777.629 279.133C766.327 279.133 757.076 282.87 749.875 290.344C742.766 297.818 738.528 307.115 737.16 318.234H815.09Z" fill="black"/>
<rect x="-258" y="262" width="1436" height="1" fill="black" fill-opacity="0.3"/>
<rect x="-258" y="403" width="1436" height="1" fill="black" fill-opacity="0.3"/>
<line x1="960" y1="469.5" x2="-24" y2="469.5" stroke="#B7B7B7"/>
<line x1="960" y1="167.5" x2="-24" y2="167.5" stroke="#B7B7B7"/>
<circle cx="118.938" cy="371.823" r="41" stroke="#D45C00" stroke-width="2"/>
<circle cx="821" cy="380" r="41" stroke="#D45C00" stroke-width="2"/>
</g>
<defs>
<clipPath id="clip0">
<rect width="940" height="640" rx="8" fill="white"/>
</clipPath>
</defs>
</svg>
