<svg width="1920" height="919" viewBox="0 0 1920 919" fill="none" xmlns="http://www.w3.org/2000/svg">
<g clip-path="url(#clip0)">
<rect width="1920" height="919" fill="black"/>
<path d="M267.977 920L554.793 149.785H698.738L983.406 920H845.906L779.305 737.383H468.855L404.939 920H267.977ZM503.23 628.887H744.393L639.119 323.271C636.255 315.394 633.748 308.411 631.6 302.324C629.809 295.879 627.661 288.001 625.154 278.691H622.469C619.604 287.285 617.277 294.805 615.486 301.25C613.696 307.695 611.368 315.036 608.504 323.271L503.23 628.887Z" fill="white"/>
<path d="M1607.22 918.351H1476.8V819.768H1474.59C1452.94 857.23 1425.89 885.478 1393.43 904.582C1360.98 923.687 1323.44 933.222 1280.89 933.222C1221.1 933.222 1173.11 916.323 1136.99 882.56C1100.84 848.798 1082.78 803.438 1082.78 746.515C1082.78 688.525 1100.94 641.955 1137.27 606.912C1173.6 571.869 1228.24 549.349 1301.26 539.459L1477.9 514.662V500.324C1477.9 457.739 1466.7 425.684 1444.34 404.231C1421.94 382.743 1390.77 371.999 1350.78 371.999C1318.5 371.999 1287.68 378.047 1258.32 390.179C1228.95 402.31 1200.9 419.387 1174.1 441.409L1111.96 360.436C1144.99 333.256 1183.41 311.696 1227.25 295.722C1271.08 279.784 1315.9 271.779 1361.8 271.779C1443.59 271.779 1504.95 292.627 1545.87 334.288C1586.78 375.948 1607.22 438.278 1607.22 521.279V918.351V918.351ZM1477.9 659.494V604.422L1338.12 623.704C1295.18 629.574 1263.36 640.71 1242.64 657.04C1221.91 673.369 1211.53 698.807 1211.53 733.316C1211.53 762.702 1221.24 786.361 1240.72 804.363C1260.16 822.365 1286.4 831.366 1319.42 831.366C1365.64 831.366 1403.64 815.107 1433.32 782.625C1463.04 750.108 1477.9 709.088 1477.9 659.494Z" stroke="white" stroke-width="1.5" stroke-linecap="round" stroke-linejoin="round"/>
<path d="M1596.24 918.35H1469.12V825.282H1466.91C1446.37 860.894 1420.59 887.612 1389.6 905.401C1358.6 923.189 1323.09 932.119 1283.13 932.119C1226.64 932.119 1180.86 916.074 1145.84 883.912C1110.79 851.786 1093.3 807.991 1093.3 752.563C1093.3 697.846 1110.9 653.624 1146.13 619.826C1181.35 586.064 1234.18 564.184 1304.6 554.294L1469.69 531.169V518.504C1469.69 477.377 1459.06 446.923 1437.76 427.072C1416.47 407.255 1386.97 397.329 1349.18 397.329C1317.61 397.329 1288.18 403.2 1260.84 414.94C1233.5 426.68 1206.81 443.01 1180.79 463.965L1119.64 384.7C1150.82 359.013 1187.5 338.45 1229.7 323.01C1271.9 307.605 1315.37 299.885 1360.13 299.885C1439.36 299.885 1498.52 319.808 1537.62 359.654C1576.69 399.5 1596.24 459.268 1596.24 538.925V918.35ZM1469.65 671.626V619.293L1337.59 636.903C1297.6 642.773 1267.88 653.411 1248.43 668.851C1228.99 684.256 1219.25 707.772 1219.25 739.364C1219.25 767.647 1228.42 790.31 1246.76 807.387C1265.11 824.464 1289.49 833.002 1319.96 833.002C1363.97 833.002 1399.94 817.775 1427.81 787.286C1455.72 756.797 1469.65 718.267 1469.65 671.626Z" stroke="white" stroke-width="1.5" stroke-linecap="round" stroke-linejoin="round"/>
<path d="M1585.5 918.351H1460.59V830.797H1458.38C1438.58 864.203 1414.16 889.463 1385.19 906.54C1356.22 923.617 1322.8 932.155 1285.01 932.155C1232.19 932.155 1188.61 916.643 1154.3 885.621C1120 854.598 1102.86 812.475 1102.86 759.216C1102.86 707.452 1120 665.223 1154.3 632.528C1188.61 599.868 1239.51 578.736 1307.02 569.201L1461.12 547.713V536.15C1461.12 497.23 1450.92 468.59 1430.58 450.233C1410.21 431.875 1382.63 422.696 1347.76 422.696C1316.58 422.696 1288.21 428.389 1262.72 439.773C1237.24 451.158 1212.17 466.598 1187.61 486.023L1127.07 410.031C1156.4 385.803 1191.45 365.987 1232.19 350.547C1272.93 335.142 1314.73 327.422 1357.67 327.422C1434.35 327.422 1491.48 346.527 1529.09 384.7C1566.7 422.874 1585.5 479.975 1585.5 555.967V918.351ZM1461.12 683.723V633.595L1336.74 650.672C1299.66 656.186 1271.97 666.183 1253.62 680.699C1235.28 695.214 1226.11 716.596 1226.11 744.879C1226.11 773.163 1234.82 795.185 1252.24 810.981C1269.66 826.777 1292.12 834.675 1319.64 834.675C1361.83 834.675 1395.92 820.337 1421.98 791.698C1448.04 763.059 1461.12 727.055 1461.12 683.723Z" stroke="white" stroke-width="1.5" stroke-linecap="round" stroke-linejoin="round"/>
<path d="M1580.52 918.351H1456.71V836.845H1454.51C1435.06 868.437 1411.21 892.095 1382.98 907.891C1354.72 923.687 1322.44 931.585 1286.11 931.585C1234.75 931.585 1192.3 916.537 1158.71 886.439C1125.15 856.305 1108.37 815.356 1108.37 763.592C1108.37 713.678 1125.15 672.623 1158.71 640.497C1192.27 608.371 1241.71 587.737 1307.02 578.522L1457.24 559.24V544.369C1457.24 506.906 1447.32 479.583 1427.52 462.293C1407.72 445.038 1381.31 436.393 1348.29 436.393C1317.47 436.393 1290.06 442.085 1266.03 453.47C1242 464.855 1218.96 481.006 1196.96 501.925L1129.84 432.586C1155.9 406.153 1188.99 384.309 1229.16 367.054C1269.33 349.799 1312.35 341.154 1358.21 341.154C1432.68 341.154 1488.35 359.796 1525.21 397.045C1562.08 434.33 1580.52 489.829 1580.52 563.651V918.351V918.351ZM1457.28 689.237V645.193L1333.46 660.598C1298.98 665.365 1273.21 674.722 1256.15 688.703C1239.08 702.649 1230.55 723.035 1230.55 749.824C1230.55 776.258 1238.9 797.177 1255.58 812.617C1272.28 828.022 1293.83 835.742 1320.24 835.742C1361.33 835.742 1394.43 821.902 1419.56 794.153C1444.69 766.438 1457.28 731.466 1457.28 689.237Z" stroke="white" stroke-width="1.5" stroke-linecap="round" stroke-linejoin="round"/>
<path d="M1581.1 918.349H1457.28V842.89H1455.08C1435.28 871.885 1411.14 893.943 1382.7 908.992C1354.26 924.041 1322.27 931.583 1286.68 931.583C1234.96 931.583 1192.37 916.534 1158.99 886.436C1125.61 856.338 1108.91 816.492 1108.91 766.934C1108.91 715.917 1125.58 674.506 1158.99 642.736C1192.37 610.966 1241 591.256 1304.81 583.536L1457.81 564.787V543.868C1457.81 507.509 1448 480.542 1428.38 462.895C1408.76 445.249 1382.81 436.462 1350.53 436.462C1319.35 436.462 1292.48 442.972 1269.9 456.029C1247.33 469.086 1227.07 487.159 1209.08 510.284L1127.64 451.333C1150.39 419.385 1182.03 393.058 1222.55 372.317C1263.08 351.576 1308.87 341.188 1359.84 341.188C1432.86 341.188 1487.96 359.83 1525.21 397.079C1562.43 434.363 1581.06 488.973 1581.06 560.909V918.349H1581.1ZM1457.81 689.235V651.239L1327.39 666.643C1294.72 670.699 1270.62 679.771 1255.01 693.895C1239.4 708.019 1231.62 727.586 1231.62 752.561C1231.62 777.892 1239.87 798.099 1256.4 813.148C1272.89 828.197 1294.18 835.739 1320.24 835.739C1361.69 835.739 1395 821.9 1420.13 794.15C1445.23 766.436 1457.81 731.464 1457.81 689.235Z" stroke="white" stroke-width="1.5" stroke-linecap="round" stroke-linejoin="round"/>
<path d="M1581.34 918.351H1457.53V848.407H1455.32C1435.52 875.588 1411.31 896.222 1382.66 910.382C1354.05 924.506 1322.12 931.585 1286.89 931.585C1234.78 931.585 1192.16 916.714 1158.96 886.972C1125.75 857.23 1109.15 818.309 1109.15 770.21C1109.15 718.445 1125.75 676.856 1158.96 645.478C1192.16 614.099 1239.76 594.887 1301.75 587.914L1458.02 570.304V543.301C1458.02 508.045 1448.28 481.611 1428.84 464.001C1409.39 446.39 1383.91 437.567 1352.34 437.567C1321.16 437.567 1294.93 444.54 1273.63 458.486C1252.34 472.432 1234.74 492.462 1220.81 518.504L1125.15 470.582C1144.24 432.764 1174.31 401.741 1215.41 377.514C1256.5 353.286 1305.27 341.154 1361.79 341.154C1432.96 341.154 1487.35 359.796 1524.96 397.045C1562.57 434.33 1581.38 488.371 1581.38 559.24V918.351H1581.34ZM1458.1 689.237V658.392L1322.16 673.263C1290.98 676.572 1268.23 685.217 1253.91 699.163C1239.58 713.109 1232.43 731.858 1232.43 755.338C1232.43 779.21 1240.57 798.564 1256.93 813.435C1273.24 828.306 1294.43 835.742 1320.49 835.742C1361.58 835.742 1394.78 821.902 1420.09 794.153C1445.44 766.438 1458.1 731.466 1458.1 689.237Z" stroke="white" stroke-width="1.5" stroke-linecap="round" stroke-linejoin="round"/>
</g>
<defs>
<clipPath id="clip0">
<rect width="1920" height="919" fill="white"/>
</clipPath>
</defs>
</svg>
