<svg width="1922" height="919" viewBox="0 0 1922 919" version="1.1" xmlns="http://www.w3.org/2000/svg" xmlns:xlink="http://www.w3.org/1999/xlink">
<g fill="none">
<g clip-path="url(#clip0)">
<rect width="1922" height="919" fill="#274B47"/>
<path d="M 0 0L 433.609 0L 433.609 435.788L 0 435.788L 0 0Z" transform="translate(260 240)" fill="#107C10"/>
<path d="M 0 0L 433.609 0L 433.609 435.788L 0 435.788L 0 0Z" transform="translate(740.621 240)" fill="#107C10"/>
<path d="M 0 0L 433.609 0L 433.609 435.788L 0 435.788L 0 0Z" transform="translate(740.621 240)" fill="url(#paint0_radial)" style="mix-blend-mode:overlay"/>
<path d="M 0 0L 433.609 0L 433.609 435.788L 0 435.788L 0 0Z" transform="translate(740.621 240)" fill="url(#paint1_radial)" fill-opacity="0.3" style="mix-blend-mode:overlay"/>
<rect width="433.333" height="435" transform="translate(1221.67 240)" fill="#107C10"/>
<rect width="433.333" height="435" transform="translate(1221.67 240)" fill="url(#paint2_linear)" style="mix-blend-mode:overlay"/>
<line y1="-1.5" x2="436" y2="-1.5" transform="matrix(0 1 -1 0 1222 240)" stroke-width="3" stroke="white" stroke-opacity="0.3" style="mix-blend-mode:overlay"/>
<line y1="-1.5" x2="436" y2="-1.5" transform="matrix(0 1 -1 0 1171 240)" stroke-width="3" stroke="url(#paint3_linear)" style="mix-blend-mode:overlay"/>
<g filter="url(#filter0_d)">
<path fill-rule="evenodd" clip-rule="evenodd" d="M 108.922 194.192L 68.0106 116.096L 119.981 107.523L 119.981 107.188C 120.745 107.483 121.593 107.483 122.356 107.188C 123.077 106.906 123.695 106.417 124.131 105.784C 124.567 105.151 124.8 104.403 124.8 103.638C 124.8 102.873 124.567 102.125 124.131 101.492C 123.695 100.859 123.077 100.37 122.356 100.088L 122.356 100.088L 7.4234 2.23442C 7.2115 1.77543 6.90956 1.36244 6.53502 1.01932C 6.16049 0.676206 5.72077 0.409756 5.24131 0.235378C 4.76185 0.0609992 4.25215 -0.0178413 3.74164 0.00338531C 3.23113 0.0246119 2.72995 0.145503 2.26704 0.359065C 1.32317 0.795161 0.593068 1.58304 0.236925 2.54989C -0.119219 3.51673 -0.0723231 4.58357 0.367329 5.51632L 1.99565 154.541C 1.5923 155.506 1.5923 156.59 1.99565 157.555C 2.20756 158.014 2.5095 158.427 2.88403 158.77C 3.25857 159.113 3.69828 159.38 4.17773 159.554C 4.65719 159.728 5.1669 159.807 5.67741 159.786C 6.18792 159.765 6.6891 159.644 7.15201 159.43C 7.88389 159.097 8.48123 158.531 8.84818 157.823L 8.84818 157.823L 49.0135 124.334L 83.4797 205.511C 83.6916 205.97 83.9935 206.383 84.3681 206.726C 84.7426 207.069 85.1823 207.335 85.6617 207.51C 86.1412 207.684 86.6509 207.763 87.1614 207.742C 87.6719 207.721 88.1731 207.6 88.636 207.386L 106.344 199.215C 106.861 199.072 107.342 198.825 107.757 198.489C 108.171 198.153 108.511 197.736 108.753 197.263C 108.996 196.791 109.136 196.274 109.165 195.745C 109.194 195.216 109.111 194.687 108.922 194.192L 108.922 194.192Z" transform="translate(1065.4 519.255)" fill="white"/>
<path fill-rule="evenodd" clip-rule="evenodd" d="M 108.922 194.192L 68.0106 116.096L 119.981 107.523L 119.981 107.188C 120.745 107.483 121.593 107.483 122.356 107.188C 123.077 106.906 123.695 106.417 124.131 105.784C 124.567 105.151 124.8 104.403 124.8 103.638C 124.8 102.873 124.567 102.125 124.131 101.492C 123.695 100.859 123.077 100.37 122.356 100.088L 122.356 100.088L 7.4234 2.23442C 7.2115 1.77543 6.90956 1.36244 6.53502 1.01932C 6.16049 0.676206 5.72077 0.409756 5.24131 0.235378C 4.76185 0.0609992 4.25215 -0.0178413 3.74164 0.00338531C 3.23113 0.0246119 2.72995 0.145503 2.26704 0.359065C 1.32317 0.795161 0.593068 1.58304 0.236925 2.54989C -0.119219 3.51673 -0.0723231 4.58357 0.367329 5.51632L 1.99565 154.541C 1.5923 155.506 1.5923 156.59 1.99565 157.555C 2.20756 158.014 2.5095 158.427 2.88403 158.77C 3.25857 159.113 3.69828 159.38 4.17773 159.554C 4.65719 159.728 5.1669 159.807 5.67741 159.786C 6.18792 159.765 6.6891 159.644 7.15201 159.43C 7.88389 159.097 8.48123 158.531 8.84818 157.823L 8.84818 157.823L 49.0135 124.334L 83.4797 205.511C 83.6916 205.97 83.9935 206.383 84.3681 206.726C 84.7426 207.069 85.1823 207.335 85.6617 207.51C 86.1412 207.684 86.6509 207.763 87.1614 207.742C 87.6719 207.721 88.1731 207.6 88.636 207.386L 106.344 199.215C 106.861 199.072 107.342 198.825 107.757 198.489C 108.171 198.153 108.511 197.736 108.753 197.263C 108.996 196.791 109.136 196.274 109.165 195.745C 109.194 195.216 109.111 194.687 108.922 194.192L 108.922 194.192Z" transform="translate(1065.4 519.255)" fill="url(#paint4_linear)"/>
</g>
<path d="M 108.922 194.192L 68.0106 116.096L 119.981 107.523L 119.981 107.188C 120.745 107.483 121.593 107.483 122.356 107.188C 123.077 106.906 123.695 106.417 124.131 105.784C 124.567 105.151 124.8 104.403 124.8 103.638C 124.8 102.873 124.567 102.125 124.131 101.492C 123.695 100.859 123.077 100.37 122.356 100.088L 122.356 100.088L 7.4234 2.23442C 7.2115 1.77543 6.90956 1.36244 6.53502 1.01932C 6.16049 0.676206 5.72077 0.409756 5.24131 0.235378C 4.76185 0.0609992 4.25215 -0.0178413 3.74164 0.00338531C 3.23113 0.0246119 2.72995 0.145503 2.26704 0.359065C 1.32317 0.795161 0.593068 1.58304 0.236925 2.54989C -0.119219 3.51673 -0.0723231 4.58357 0.367329 5.51632L 1.99565 154.541C 1.5923 155.506 1.5923 156.59 1.99565 157.555C 2.20756 158.014 2.5095 158.427 2.88403 158.77C 3.25857 159.113 3.69828 159.38 4.17773 159.554C 4.65719 159.728 5.1669 159.807 5.67741 159.786C 6.18792 159.765 6.6891 159.644 7.15201 159.43C 7.88389 159.097 8.48123 158.531 8.84818 157.823L 8.84818 157.823L 49.0135 124.334L 83.4797 205.511C 83.6916 205.97 83.9935 206.383 84.3681 206.726C 84.7426 207.069 85.1823 207.335 85.6617 207.51C 86.1412 207.684 86.6509 207.763 87.1614 207.742C 87.6719 207.721 88.1731 207.6 88.636 207.386L 106.344 199.215C 106.861 199.072 107.342 198.825 107.757 198.489C 108.171 198.153 108.511 197.736 108.753 197.263C 108.996 196.791 109.136 196.274 109.165 195.745C 109.194 195.216 109.111 194.687 108.922 194.192L 108.922 194.192Z" transform="translate(1065.4 519.255)" stroke-width="3" stroke-miterlimit="10" stroke="url(#paint5_linear)"/>
<ellipse cx="128" cy="127.843" rx="128" ry="127.843" transform="translate(947 401)" fill="url(#paint6_radial)" fill-opacity="0.2" style="mix-blend-mode:overlay"/>
</g>
</g>
<defs>
<filter id="filter0_d" x="1025.4" y="483.255" width="204.8" height="287.745" filterUnits="userSpaceOnUse" color-interpolation-filters="sRGB">
<feFlood flood-opacity="0" result="BackgroundImageFix"/>
<feColorMatrix in="SourceAlpha" type="matrix" values="0 0 0 0 0 0 0 0 0 0 0 0 0 0 0 0 0 0 255 0"/>
<feOffset dy="4"/>
<feGaussianBlur stdDeviation="20"/>
<feColorMatrix type="matrix" values="0 0 0 0 0.211838 0 0 0 0 0.290908 0 0 0 0 0.351528 0 0 0 1 0"/>
<feBlend mode="normal" in2="BackgroundImageFix" result="effect1_dropShadow"/>
<feBlend mode="normal" in="SourceGraphic" in2="effect1_dropShadow" result="shape"/>
</filter>
<radialGradient id="paint0_radial" cx="0.5" cy="0.5" r="0.5" gradientUnits="userSpaceOnUse" gradientTransform="matrix(-592 480 -477.6 -589.04 873.179 316.52)">
<stop stop-color="white"/>
<stop offset="1" stop-color="white" stop-opacity="0"/>
</radialGradient>
<radialGradient id="paint1_radial" cx="0.5" cy="0.5" r="0.5" gradientUnits="userSpaceOnUse" gradientTransform="matrix(-360 264 -262.68 -358.2 649.719 309.1)">
<stop stop-color="white"/>
<stop offset="1" stop-color="white" stop-opacity="0"/>
</radialGradient>
<linearGradient id="paint2_linear" x2="1" gradientUnits="userSpaceOnUse" gradientTransform="matrix(880 -144 143.448 876.629 -594.39 -100.314)">
<stop stop-color="white"/>
<stop offset="1" stop-color="#107C10"/>
</linearGradient>
<linearGradient id="paint3_linear" x2="1" gradientUnits="userSpaceOnUse" gradientTransform="matrix(-218 0 2.8951e-08 -63656 218 31828)">
<stop stop-color="white"/>
<stop offset="1" stop-color="white" stop-opacity="0"/>
</linearGradient>
<linearGradient id="paint4_linear" x2="1" gradientUnits="userSpaceOnUse" gradientTransform="matrix(-1.60001 335.588 -201.6 -0.958828 163.2 0.479414)">
<stop stop-color="white"/>
<stop offset="1" stop-color="#D5D5D5" stop-opacity="0.41"/>
</linearGradient>
<linearGradient id="paint5_linear" x2="1" gradientUnits="userSpaceOnUse" gradientTransform="matrix(1.28719e-06 -156.608 94.08 7.60952e-07 13.76 156.608)">
<stop stop-color="#333333"/>
<stop offset="1" stop-color="#C8C8C8"/>
</linearGradient>
<radialGradient id="paint6_radial" cx="0.5" cy="0.5" r="0.5" gradientUnits="userSpaceOnUse" gradientTransform="matrix(0 255.686 -256 0 256 0)">
<stop stop-color="white"/>
<stop offset="1" stop-color="white" stop-opacity="0"/>
</radialGradient>
<clipPath id="clip0">
<rect width="1922" height="919" fill="white"/>
</clipPath>
</defs>
</svg>
