<svg width="1920" height="919" viewBox="0 0 1920 919" version="1.1" xmlns="http://www.w3.org/2000/svg" xmlns:xlink="http://www.w3.org/1999/xlink">
<g fill="none">
<g clip-path="url(#clip0)">
<rect width="1920" height="918.333" fill="#243A5E"/>
<rect width="1920" height="918" fill="#243A5E"/>
<g opacity="0.2">
<line y1="-0.5" x2="918" y2="-0.5" transform="matrix(0 1 -1 0 32 0)" stroke="#50E6FF"/>
<line y1="-0.5" x2="918" y2="-0.5" transform="matrix(0 1 -1 0 64 0)" stroke="#50E6FF"/>
<line y1="-0.5" x2="918" y2="-0.5" transform="matrix(0 1 -1 0 96 0)" stroke="#50E6FF"/>
<line y1="-0.5" x2="918" y2="-0.5" transform="matrix(0 1 -1 0 128 0)" stroke="#50E6FF"/>
<line y1="-0.5" x2="918" y2="-0.5" transform="matrix(0 1 -1 0 160 0)" stroke="#50E6FF"/>
<line y1="-0.5" x2="918" y2="-0.5" transform="matrix(0 1 -1 0 192 0)" stroke="#50E6FF"/>
<line y1="-0.5" x2="918" y2="-0.5" transform="matrix(0 1 -1 0 224 0)" stroke="#50E6FF"/>
<line y1="-0.5" x2="918" y2="-0.5" transform="matrix(0 1 -1 0 256 0)" stroke="#50E6FF"/>
<line y1="-0.5" x2="918" y2="-0.5" transform="matrix(0 1 -1 0 288 0)" stroke="#50E6FF"/>
<line y1="-0.5" x2="918" y2="-0.5" transform="matrix(0 1 -1 0 320 0)" stroke="#50E6FF"/>
<line y1="-0.5" x2="918" y2="-0.5" transform="matrix(0 1 -1 0 352 0)" stroke="#50E6FF"/>
<line y1="-0.5" x2="918" y2="-0.5" transform="matrix(0 1 -1 0 384 0)" stroke="#50E6FF"/>
<line y1="-0.5" x2="918" y2="-0.5" transform="matrix(0 1 -1 0 416 0)" stroke="#50E6FF"/>
<line y1="-0.5" x2="918" y2="-0.5" transform="matrix(0 1 -1 0 448 0)" stroke="#50E6FF"/>
<line y1="-0.5" x2="918" y2="-0.5" transform="matrix(0 1 -1 0 480 0)" stroke="#50E6FF"/>
<line y1="-0.5" x2="918" y2="-0.5" transform="matrix(0 1 -1 0 512 0)" stroke="#50E6FF"/>
<line y1="-0.5" x2="918" y2="-0.5" transform="matrix(0 1 -1 0 544 0)" stroke="#50E6FF"/>
<line y1="-0.5" x2="918" y2="-0.5" transform="matrix(0 1 -1 0 576 0)" stroke="#50E6FF"/>
<line y1="-0.5" x2="918" y2="-0.5" transform="matrix(0 1 -1 0 608 0)" stroke="#50E6FF"/>
<line y1="-0.5" x2="918" y2="-0.5" transform="matrix(0 1 -1 0 640 0)" stroke="#50E6FF"/>
<line y1="-0.5" x2="918" y2="-0.5" transform="matrix(0 1 -1 0 672 0)" stroke="#50E6FF"/>
<line y1="-0.5" x2="918" y2="-0.5" transform="matrix(0 1 -1 0 704 0)" stroke="#50E6FF"/>
<line y1="-0.5" x2="918" y2="-0.5" transform="matrix(0 1 -1 0 736 0)" stroke="#50E6FF"/>
<line y1="-0.5" x2="918" y2="-0.5" transform="matrix(0 1 -1 0 768 0)" stroke="#50E6FF"/>
<line y1="-0.5" x2="918" y2="-0.5" transform="matrix(0 1 -1 0 800 0)" stroke="#50E6FF"/>
<line y1="-0.5" x2="918" y2="-0.5" transform="matrix(0 1 -1 0 832 0)" stroke="#50E6FF"/>
<line y1="-0.5" x2="918" y2="-0.5" transform="matrix(0 1 -1 0 864 0)" stroke="#50E6FF"/>
<line y1="-0.5" x2="918" y2="-0.5" transform="matrix(0 1 -1 0 896 0)" stroke="#50E6FF"/>
<line y1="-0.5" x2="918" y2="-0.5" transform="matrix(0 1 -1 0 928 0)" stroke="#50E6FF"/>
<line y1="-0.5" x2="918" y2="-0.5" transform="matrix(0 1 -1 0 960 0)" stroke="#50E6FF"/>
<line y1="-0.5" x2="918" y2="-0.5" transform="matrix(0 1 -1 0 992 0)" stroke="#50E6FF"/>
<line y1="-0.5" x2="918" y2="-0.5" transform="matrix(0 1 -1 0 1024 0)" stroke="#50E6FF"/>
<line y1="-0.5" x2="918" y2="-0.5" transform="matrix(0 1 -1 0 1056 0)" stroke="#50E6FF"/>
<line y1="-0.5" x2="918" y2="-0.5" transform="matrix(0 1 -1 0 1088 0)" stroke="#50E6FF"/>
<line y1="-0.5" x2="918" y2="-0.5" transform="matrix(0 1 -1 0 1120 0)" stroke="#50E6FF"/>
<line y1="-0.5" x2="918" y2="-0.5" transform="matrix(0 1 -1 0 1152 0)" stroke="#50E6FF"/>
<line y1="-0.5" x2="918" y2="-0.5" transform="matrix(0 1 -1 0 1184 0)" stroke="#50E6FF"/>
<line y1="-0.5" x2="918" y2="-0.5" transform="matrix(0 1 -1 0 1216 0)" stroke="#50E6FF"/>
<line y1="-0.5" x2="918" y2="-0.5" transform="matrix(0 1 -1 0 1248 0)" stroke="#50E6FF"/>
<line y1="-0.5" x2="918" y2="-0.5" transform="matrix(0 1 -1 0 1280 0)" stroke="#50E6FF"/>
<line y1="-0.5" x2="918" y2="-0.5" transform="matrix(0 1 -1 0 1312 0)" stroke="#50E6FF"/>
<line y1="-0.5" x2="918" y2="-0.5" transform="matrix(0 1 -1 0 1344 0)" stroke="#50E6FF"/>
<line y1="-0.5" x2="918" y2="-0.5" transform="matrix(0 1 -1 0 1376 0)" stroke="#50E6FF"/>
<line y1="-0.5" x2="918" y2="-0.5" transform="matrix(0 1 -1 0 1408 0)" stroke="#50E6FF"/>
<line y1="-0.5" x2="918" y2="-0.5" transform="matrix(0 1 -1 0 1440 0)" stroke="#50E6FF"/>
<line y1="-0.5" x2="918" y2="-0.5" transform="matrix(0 1 -1 0 1472 0)" stroke="#50E6FF"/>
<line y1="-0.5" x2="918" y2="-0.5" transform="matrix(0 1 -1 0 1504 0)" stroke="#50E6FF"/>
<line y1="-0.5" x2="918" y2="-0.5" transform="matrix(0 1 -1 0 1536 0)" stroke="#50E6FF"/>
<line y1="-0.5" x2="918" y2="-0.5" transform="matrix(0 1 -1 0 1568 0)" stroke="#50E6FF"/>
<line y1="-0.5" x2="918" y2="-0.5" transform="matrix(0 1 -1 0 1600 0)" stroke="#50E6FF"/>
<line y1="-0.5" x2="918" y2="-0.5" transform="matrix(0 1 -1 0 1632 0)" stroke="#50E6FF"/>
<line y1="-0.5" x2="918" y2="-0.5" transform="matrix(0 1 -1 0 1664 0)" stroke="#50E6FF"/>
<line y1="-0.5" x2="918" y2="-0.5" transform="matrix(0 1 -1 0 1696 0)" stroke="#50E6FF"/>
<line y1="-0.5" x2="918" y2="-0.5" transform="matrix(0 1 -1 0 1728 0)" stroke="#50E6FF"/>
<line y1="-0.5" x2="918" y2="-0.5" transform="matrix(0 1 -1 0 1760 0)" stroke="#50E6FF"/>
<line y1="-0.5" x2="918" y2="-0.5" transform="matrix(0 1 -1 0 1792 0)" stroke="#50E6FF"/>
<line y1="-0.5" x2="918" y2="-0.5" transform="matrix(0 1 -1 0 1824 0)" stroke="#50E6FF"/>
<line y1="-0.5" x2="918" y2="-0.5" transform="matrix(0 1 -1 0 1856 0)" stroke="#50E6FF"/>
<line y1="-0.5" x2="918" y2="-0.5" transform="matrix(0 1 -1 0 1888 0)" stroke="#50E6FF"/>
<line y1="-0.5" x2="1920" y2="-0.5" transform="translate(1920 33) scale(-1)" stroke="#50E6FF"/>
<line y1="-0.5" x2="1920" y2="-0.5" transform="translate(1920 64) scale(-1)" stroke="#50E6FF"/>
<line y1="-0.5" x2="1920" y2="-0.5" transform="translate(1920 95) scale(-1)" stroke="#50E6FF"/>
<line y1="-0.5" x2="1920" y2="-0.5" transform="translate(1920 128) scale(-1)" stroke="#50E6FF"/>
<line y1="-0.5" x2="1920" y2="-0.5" transform="translate(1920 161) scale(-1)" stroke="#50E6FF"/>
<line y1="-0.5" x2="1920" y2="-0.5" transform="translate(1920 194) scale(-1)" stroke="#50E6FF"/>
<line y1="-0.5" x2="1920" y2="-0.5" transform="translate(1920 224) scale(-1)" stroke="#50E6FF"/>
<line y1="-0.5" x2="1920" y2="-0.5" transform="translate(1920 256) scale(-1)" stroke="#50E6FF"/>
<line y1="-0.5" x2="1920" y2="-0.5" transform="translate(1920 288) scale(-1)" stroke="#50E6FF"/>
<line y1="-0.5" x2="1920" y2="-0.5" transform="translate(1920 321) scale(-1)" stroke="#50E6FF"/>
<line y1="-0.5" x2="1920" y2="-0.5" transform="translate(1920 353) scale(-1)" stroke="#50E6FF"/>
<line y1="-0.5" x2="1920" y2="-0.5" transform="translate(1920 385) scale(-1)" stroke="#50E6FF"/>
<line y1="-0.5" x2="1920" y2="-0.5" transform="translate(1920 417) scale(-1)" stroke="#50E6FF"/>
<line y1="-0.5" x2="1920" y2="-0.5" transform="translate(1920 449) scale(-1)" stroke="#50E6FF"/>
<line y1="-0.5" x2="1920" y2="-0.5" transform="translate(1920 481) scale(-1)" stroke="#50E6FF"/>
<line y1="-0.5" x2="1920" y2="-0.5" transform="translate(1920 512) scale(-1)" stroke="#50E6FF"/>
<line y1="-0.5" x2="1920" y2="-0.5" transform="translate(1920 545) scale(-1)" stroke="#50E6FF"/>
<line y1="-0.5" x2="1920" y2="-0.5" transform="translate(1920 578) scale(-1)" stroke="#50E6FF"/>
<line y1="-0.5" x2="1920" y2="-0.5" transform="translate(1920 610) scale(-1)" stroke="#50E6FF"/>
<line y1="-0.5" x2="1920" y2="-0.5" transform="translate(1920 642) scale(-1)" stroke="#50E6FF"/>
<line y1="-0.5" x2="1920" y2="-0.5" transform="translate(1920 674) scale(-1)" stroke="#50E6FF"/>
<line y1="-0.5" x2="1920" y2="-0.5" transform="translate(1920 706) scale(-1)" stroke="#50E6FF"/>
<line y1="-0.5" x2="1920" y2="-0.5" transform="translate(1920 738) scale(-1)" stroke="#50E6FF"/>
<line y1="-0.5" x2="1920" y2="-0.5" transform="translate(1920 770) scale(-1)" stroke="#50E6FF"/>
<line y1="-0.5" x2="1920" y2="-0.5" transform="translate(1920 802) scale(-1)" stroke="#50E6FF"/>
<line y1="-0.5" x2="1920" y2="-0.5" transform="translate(1920 834) scale(-1)" stroke="#50E6FF"/>
<line y1="-0.5" x2="1920" y2="-0.5" transform="translate(1920 866) scale(-1)" stroke="#50E6FF"/>
<line y1="-0.5" x2="1920" y2="-0.5" transform="translate(1920 898) scale(-1)" stroke="#50E6FF"/>
</g>
<path d="M 413.628 223.125C 426.909 223.125 439.36 225.615 450.981 230.596C 462.769 235.576 472.979 242.383 481.611 251.016C 490.41 259.482 497.3 269.526 502.28 281.147C 507.427 292.769 510 305.303 510 318.75C 510 332.031 507.51 344.482 502.529 356.104C 497.549 367.559 490.659 377.686 481.86 386.484C 473.228 395.117 463.101 401.924 451.479 406.904C 439.858 411.885 427.49 414.375 414.375 414.375L 127.5 414.375C 109.902 414.375 93.3008 411.055 77.6953 404.414C 62.2559 397.773 48.7256 388.726 37.1045 377.271C 25.6494 365.649 16.6016 352.119 9.96094 336.68C 3.32031 321.074 0 304.473 0 286.875C 0 269.277 3.32031 252.759 9.96094 237.319C 16.6016 221.714 25.6494 208.184 37.1045 196.729C 48.7256 185.107 62.2559 175.977 77.6953 169.336C 93.3008 162.695 109.902 159.375 127.5 159.375C 135.137 159.375 142.856 160.122 150.659 161.616C 157.3 151.323 164.937 142.109 173.569 133.975C 182.368 125.674 191.914 118.701 202.207 113.057C 212.5 107.412 223.457 103.096 235.078 100.107C 246.699 97.1191 258.652 95.625 270.938 95.625C 289.365 95.625 306.714 98.8623 322.983 105.337C 339.419 111.812 353.945 120.776 366.562 132.231C 379.18 143.521 389.556 156.968 397.69 172.573C 405.991 188.179 411.304 205.029 413.628 223.125ZM 414.375 382.5C 423.174 382.5 431.392 380.84 439.028 377.52C 446.831 374.199 453.638 369.634 459.448 363.823C 465.259 358.013 469.824 351.289 473.145 343.652C 476.465 335.85 478.125 327.549 478.125 318.75C 478.125 309.951 476.465 301.733 473.145 294.097C 469.824 286.294 465.259 279.487 459.448 273.677C 453.638 267.866 446.831 263.301 439.028 259.98C 431.392 256.66 423.174 255 414.375 255L 382.5 255L 382.5 239.062C 382.5 223.623 379.595 209.18 373.784 195.732C 367.974 182.119 360.005 170.249 349.878 160.122C 339.751 149.995 327.881 142.026 314.268 136.216C 300.82 130.405 286.377 127.5 270.938 127.5C 259.316 127.5 248.11 129.243 237.319 132.729C 226.528 136.216 216.567 141.113 207.437 147.422C 198.472 153.73 190.503 161.367 183.53 170.332C 176.558 179.131 170.996 189.009 166.846 199.966C 154.395 194.155 141.279 191.25 127.5 191.25C 114.219 191.25 101.768 193.74 90.1465 198.721C 78.6914 203.701 68.5645 210.591 59.7656 219.39C 51.1328 228.022 44.3262 238.149 39.3457 249.771C 34.3652 261.392 31.875 273.76 31.875 286.875C 31.875 300.156 34.3652 312.607 39.3457 324.229C 44.3262 335.684 51.1328 345.811 59.7656 354.609C 68.5645 363.242 78.6914 370.049 90.1465 375.029C 101.768 380.01 114.219 382.5 127.5 382.5L 414.375 382.5Z" transform="translate(674 195)" fill="#50E6FF"/>
<line y1="-1.5" x2="192" y2="-1.5" transform="matrix(0 -1 1 0 928 192)" stroke-width="3" stroke-dasharray="5 5" stroke="#50E6FF"/>
<line y1="-1.5" x2="682" y2="-1.5" transform="translate(682 448) scale(-1)" stroke-width="3" stroke-dasharray="5 5" stroke="#50E6FF"/>
<path d="M 413.628 223.125C 426.909 223.125 439.36 225.615 450.981 230.596C 462.769 235.576 472.979 242.383 481.611 251.016C 490.41 259.482 497.3 269.526 502.28 281.147C 507.427 292.769 510 305.303 510 318.75C 510 332.031 507.51 344.482 502.529 356.104C 497.549 367.559 490.659 377.686 481.86 386.484C 473.228 395.117 463.101 401.924 451.479 406.904C 439.858 411.885 427.49 414.375 414.375 414.375L 127.5 414.375C 109.902 414.375 93.3008 411.055 77.6953 404.414C 62.2559 397.773 48.7256 388.726 37.1045 377.271C 25.6494 365.649 16.6016 352.119 9.96094 336.68C 3.32031 321.074 0 304.473 0 286.875C 0 269.277 3.32031 252.759 9.96094 237.319C 16.6016 221.714 25.6494 208.184 37.1045 196.729C 48.7256 185.107 62.2559 175.977 77.6953 169.336C 93.3008 162.695 109.902 159.375 127.5 159.375C 135.137 159.375 142.856 160.122 150.659 161.616C 157.3 151.323 164.937 142.109 173.569 133.975C 182.368 125.674 191.914 118.701 202.207 113.057C 212.5 107.412 223.457 103.096 235.078 100.107C 246.699 97.1191 258.652 95.625 270.938 95.625C 289.365 95.625 306.714 98.8623 322.983 105.337C 339.419 111.812 353.945 120.776 366.562 132.231C 379.18 143.521 389.556 156.968 397.69 172.573C 405.991 188.179 411.304 205.029 413.628 223.125ZM 414.375 382.5C 423.174 382.5 431.392 380.84 439.028 377.52C 446.831 374.199 453.638 369.634 459.448 363.823C 465.259 358.013 469.824 351.289 473.145 343.652C 476.465 335.85 478.125 327.549 478.125 318.75C 478.125 309.951 476.465 301.733 473.145 294.097C 469.824 286.294 465.259 279.487 459.448 273.677C 453.638 267.866 446.831 263.301 439.028 259.98C 431.392 256.66 423.174 255 414.375 255L 382.5 255L 382.5 239.062C 382.5 223.623 379.595 209.18 373.784 195.732C 367.974 182.119 360.005 170.249 349.878 160.122C 339.751 149.995 327.881 142.026 314.268 136.216C 300.82 130.405 286.377 127.5 270.938 127.5C 259.316 127.5 248.11 129.243 237.319 132.729C 226.528 136.216 216.567 141.113 207.437 147.422C 198.472 153.73 190.503 161.367 183.53 170.332C 176.558 179.131 170.996 189.009 166.846 199.966C 154.395 194.155 141.279 191.25 127.5 191.25C 114.219 191.25 101.768 193.74 90.1465 198.721C 78.6914 203.701 68.5645 210.591 59.7656 219.39C 51.1328 228.022 44.3262 238.149 39.3457 249.771C 34.3652 261.392 31.875 273.76 31.875 286.875C 31.875 300.156 34.3652 312.607 39.3457 324.229C 44.3262 335.684 51.1328 345.811 59.7656 354.609C 68.5645 363.242 78.6914 370.049 90.1465 375.029C 101.768 380.01 114.219 382.5 127.5 382.5L 414.375 382.5Z" transform="translate(1456 195)" fill="#50E6FF"/>
<path d="M 413.628 223.125C 426.909 223.125 439.36 225.615 450.981 230.596C 462.769 235.576 472.979 242.383 481.611 251.016C 490.41 259.482 497.3 269.526 502.28 281.147C 507.427 292.769 510 305.303 510 318.75C 510 332.031 507.51 344.482 502.529 356.104C 497.549 367.559 490.659 377.686 481.86 386.484C 473.228 395.117 463.101 401.924 451.479 406.904C 439.858 411.885 427.49 414.375 414.375 414.375L 127.5 414.375C 109.902 414.375 93.3008 411.055 77.6953 404.414C 62.2559 397.773 48.7256 388.726 37.1045 377.271C 25.6494 365.649 16.6016 352.119 9.96094 336.68C 3.32031 321.074 0 304.473 0 286.875C 0 269.277 3.32031 252.759 9.96094 237.319C 16.6016 221.714 25.6494 208.184 37.1045 196.729C 48.7256 185.107 62.2559 175.977 77.6953 169.336C 93.3008 162.695 109.902 159.375 127.5 159.375C 135.137 159.375 142.856 160.122 150.659 161.616C 157.3 151.323 164.937 142.109 173.569 133.975C 182.368 125.674 191.914 118.701 202.207 113.057C 212.5 107.412 223.457 103.096 235.078 100.107C 246.699 97.1191 258.652 95.625 270.938 95.625C 289.365 95.625 306.714 98.8623 322.983 105.337C 339.419 111.812 353.945 120.776 366.562 132.231C 379.18 143.521 389.556 156.968 397.69 172.573C 405.991 188.179 411.304 205.029 413.628 223.125ZM 414.375 382.5C 423.174 382.5 431.392 380.84 439.028 377.52C 446.831 374.199 453.638 369.634 459.448 363.823C 465.259 358.013 469.824 351.289 473.145 343.652C 476.465 335.85 478.125 327.549 478.125 318.75C 478.125 309.951 476.465 301.733 473.145 294.097C 469.824 286.294 465.259 279.487 459.448 273.677C 453.638 267.866 446.831 263.301 439.028 259.98C 431.392 256.66 423.174 255 414.375 255L 382.5 255L 382.5 239.062C 382.5 223.623 379.595 209.18 373.784 195.732C 367.974 182.119 360.005 170.249 349.878 160.122C 339.751 149.995 327.881 142.026 314.268 136.216C 300.82 130.405 286.377 127.5 270.938 127.5C 259.316 127.5 248.11 129.243 237.319 132.729C 226.528 136.216 216.567 141.113 207.437 147.422C 198.472 153.73 190.503 161.367 183.53 170.332C 176.558 179.131 170.996 189.009 166.846 199.966C 154.395 194.155 141.279 191.25 127.5 191.25C 114.219 191.25 101.768 193.74 90.1465 198.721C 78.6914 203.701 68.5645 210.591 59.7656 219.39C 51.1328 228.022 44.3262 238.149 39.3457 249.771C 34.3652 261.392 31.875 273.76 31.875 286.875C 31.875 300.156 34.3652 312.607 39.3457 324.229C 44.3262 335.684 51.1328 345.811 59.7656 354.609C 68.5645 363.242 78.6914 370.049 90.1465 375.029C 101.768 380.01 114.219 382.5 127.5 382.5L 414.375 382.5Z" transform="translate(-110 195)" fill="#50E6FF"/>
<rect x="1.5" y="1.5" width="507" height="509" transform="translate(674 192)" stroke-width="3" stroke="#50E6FF"/>
<rect width="15" height="15" transform="translate(1177 186)" fill="white"/>
<rect width="15" height="15" transform="translate(1177 696)" fill="white"/>
<rect width="15" height="15" transform="translate(667 696)" fill="white"/>
<rect width="15" height="15" transform="translate(667 187)" fill="white"/>
</g>
</g>
<defs>
<clipPath id="clip0">
<rect width="1920" height="918.333" fill="white"/>
</clipPath>
</defs>
</svg>
