<svg width="560" height="40" viewBox="0 0 560 40" version="1.1" xmlns="http://www.w3.org/2000/svg" xmlns:xlink="http://www.w3.org/1999/xlink">
<title>do</title>
<desc>Created using Figma</desc>
<g id="Canvas" transform="translate(-1289 -50)">
<clipPath id="clip-0" clip-rule="evenodd">
<path d="M 1289 50L 1849 50L 1849 90L 1289 90L 1289 50Z" fill="#FFFFFF"/>
</clipPath>
<g id="do" clip-path="url(#clip-0)">
<path d="M 1289 50L 1849 50L 1849 90L 1289 90L 1289 50Z" fill="#FFFFFF"/>
<g id="Rectangle">
<use xlink:href="#path0_fill" transform="translate(1289 50)" fill="#107C10"/>
</g>
<g id="Do">
<use xlink:href="#path1_fill" transform="translate(1328 57)" fill="#FFFFFF"/>
</g>
<g id="do-icon">
<g id="Group 34.4">
<g id="Union">
<use xlink:href="#path2_fill" transform="translate(1301.03 62)" fill="#69E66E"/>
</g>
</g>
</g>
</g>
</g>
<defs>
<path id="path0_fill" d="M 0 0L 560 0L 560 40L 0 40L 0 0Z"/>
<path id="path1_fill" d="M 1.28125 17L 1.28125 5.79688L 5.25 5.79688C 9.22917 5.79688 11.2188 7.61719 11.2188 11.2578C 11.2188 13.0026 10.6745 14.3958 9.58594 15.4375C 8.5026 16.4792 7.05729 17 5.25 17L 1.28125 17ZM 3.80469 7.85156L 3.80469 14.9531L 5.05469 14.9531C 6.14844 14.9531 7.00521 14.625 7.625 13.9688C 8.25 13.3125 8.5625 12.4193 8.5625 11.2891C 8.5625 10.2214 8.2526 9.38281 7.63281 8.77344C 7.01823 8.15885 6.15365 7.85156 5.03906 7.85156L 3.80469 7.85156ZM 16.6484 17.1953C 15.3151 17.1953 14.2656 16.8229 13.5 16.0781C 12.7396 15.3281 12.3594 14.3125 12.3594 13.0312C 12.3594 11.7083 12.7552 10.6745 13.5469 9.92969C 14.3385 9.17969 15.4089 8.80469 16.7578 8.80469C 18.0859 8.80469 19.1276 9.17969 19.8828 9.92969C 20.638 10.6745 21.0156 11.6615 21.0156 12.8906C 21.0156 14.2188 20.625 15.2682 19.8438 16.0391C 19.0677 16.8099 18.0026 17.1953 16.6484 17.1953ZM 16.7109 10.6953C 16.1276 10.6953 15.6745 10.8958 15.3516 11.2969C 15.0286 11.6979 14.8672 12.2656 14.8672 13C 14.8672 14.5365 15.487 15.3047 16.7266 15.3047C 17.9089 15.3047 18.5 14.5156 18.5 12.9375C 18.5 11.4427 17.9036 10.6953 16.7109 10.6953Z"/>
<path id="path2_fill" fill-rule="evenodd" d="M 6.53857 13.9837L 18.2687 1.90689L 16.4165 0L 6.53943 10.1692L 1.85205 5.34317L 0 7.25003L 4.68652 12.0769L 6.14758 13.5794L 6.53857 13.9837Z"/>
</defs>
</svg>
