<svg width="940" height="68" viewBox="0 0 940 68" version="1.1" xmlns="http://www.w3.org/2000/svg" xmlns:xlink="http://www.w3.org/1999/xlink">
<g id="Canvas" fill="none">
<g id="dont">
<rect width="940" height="67.1358" fill="#D83B01"/>
<g id="icon-don&#39;t">
<g id="icon-don&#39;t_2">
<g id="close">
</g>
</g>
</g>
<g id="Union">
<path fill-rule="evenodd" clip-rule="evenodd" d="M 12.2275 9.3877L 3.1084 0L 0 3.20068L 9.11914 12.5879L 0 21.9756L 3.10938 25.1763L 12.2275 15.7891L 20.8428 24.6577L 23.9521 21.457L 15.3369 12.5884L 23.9521 3.71875L 20.8428 0.518555L 12.2275 9.3877Z" transform="translate(21.8213 20.1406)" fill="#FF6E6E"/>
</g>
<g id="Don&#226;&#128;&#153;t">
<path d="M 2.16211 29L 2.16211 10.0947L 8.85938 10.0947C 15.5742 10.0947 18.9316 13.1665 18.9316 19.3101C 18.9316 22.2544 18.0132 24.6055 16.1763 26.3633C 14.3481 28.1211 11.9092 29 8.85938 29L 2.16211 29ZM 6.42041 13.562L 6.42041 25.5459L 8.52979 25.5459C 10.3755 25.5459 11.8213 24.9922 12.8672 23.8848C 13.9219 22.7773 14.4492 21.27 14.4492 19.3628C 14.4492 17.561 13.9263 16.146 12.8804 15.1177C 11.8433 14.0806 10.3843 13.562 8.50342 13.562L 6.42041 13.562ZM 28.0942 29.3296C 25.8442 29.3296 24.0732 28.7012 22.7812 27.4443C 21.498 26.1787 20.8564 24.4648 20.8564 22.3027C 20.8564 20.0703 21.5244 18.3257 22.8604 17.0688C 24.1963 15.8032 26.0024 15.1704 28.2788 15.1704C 30.52 15.1704 32.2778 15.8032 33.5522 17.0688C 34.8267 18.3257 35.4639 19.9912 35.4639 22.0654C 35.4639 24.3066 34.8047 26.0776 33.4863 27.3784C 32.1768 28.6792 30.3794 29.3296 28.0942 29.3296ZM 28.1997 18.3608C 27.2153 18.3608 26.4507 18.6992 25.9058 19.376C 25.3608 20.0527 25.0884 21.0107 25.0884 22.25C 25.0884 24.8428 26.1343 26.1392 28.2261 26.1392C 30.2212 26.1392 31.2188 24.8076 31.2188 22.1445C 31.2188 19.6221 30.2124 18.3608 28.1997 18.3608ZM 51.2051 29L 47.0522 29L 47.0522 21.4985C 47.0522 19.4067 46.3052 18.3608 44.811 18.3608C 44.0903 18.3608 43.4971 18.6377 43.0312 19.1914C 42.5654 19.7451 42.3325 20.4482 42.3325 21.3008L 42.3325 29L 38.1665 29L 38.1665 15.5L 42.3325 15.5L 42.3325 17.6357L 42.3853 17.6357C 43.3784 15.9922 44.8242 15.1704 46.7227 15.1704C 49.7109 15.1704 51.2051 17.0249 51.2051 20.7339L 51.2051 29ZM 59.3525 9.64648L 56.8081 15.5L 54.2505 15.5L 55.7534 9.64648L 59.3525 9.64648ZM 70.5059 28.8418C 69.8906 29.167 68.9634 29.3296 67.7241 29.3296C 64.7886 29.3296 63.3208 27.8047 63.3208 24.7549L 63.3208 18.5718L 61.1323 18.5718L 61.1323 15.5L 63.3208 15.5L 63.3208 12.5864L 67.4736 11.3999L 67.4736 15.5L 70.5059 15.5L 70.5059 18.5718L 67.4736 18.5718L 67.4736 24.0298C 67.4736 25.436 68.0317 26.1392 69.1479 26.1392C 69.5874 26.1392 70.04 26.0117 70.5059 25.7568L 70.5059 28.8418Z" transform="translate(59 14)" fill="white"/>
</g>
</g>
</g>
</svg>

