<svg width="940" height="320" viewBox="0 0 940 320" fill="none" xmlns="http://www.w3.org/2000/svg">
<rect width="940" height="320" rx="8" fill="#F9F9F9"/>
<rect x="411.75" y="145.75" width="58.5" height="28.5" rx="14.25" fill="#005FB8" stroke="#005FB8" stroke-width="1.5"/>
<rect x="446.25" y="150.25" width="19.5" height="19.5" rx="9.75" fill="white" stroke="url(#paint0_linear)" stroke-width="1.5"/>
<path d="M496.854 167.746C494.77 167.746 493.098 167.059 491.84 165.685C490.589 164.311 489.964 162.523 489.964 160.322C489.964 157.957 490.603 156.07 491.881 154.662C493.16 153.254 494.899 152.55 497.101 152.55C499.131 152.55 500.765 153.233 502.002 154.601C503.246 155.968 503.868 157.755 503.868 159.963C503.868 162.363 503.232 164.26 501.961 165.654C500.689 167.049 498.987 167.746 496.854 167.746ZM496.854 166.198C498.468 166.198 499.739 165.671 500.669 164.619C501.599 163.566 502.063 162.093 502.063 160.199C502.063 158.258 501.612 156.757 500.71 155.698C499.808 154.638 498.563 154.108 496.978 154.108C495.433 154.108 494.178 154.666 493.214 155.78C492.25 156.894 491.769 158.357 491.769 160.168C491.769 161.98 492.237 163.439 493.173 164.547C494.117 165.647 495.344 166.198 496.854 166.198ZM515.25 167.5H513.568V161.512C513.568 160.397 513.363 159.563 512.953 159.01C512.55 158.449 511.941 158.169 511.128 158.169C510.287 158.169 509.59 158.487 509.036 159.123C508.489 159.751 508.216 160.548 508.216 161.512V167.5H506.534V157H508.216V158.743H508.257C508.653 158.08 509.139 157.584 509.713 157.256C510.287 156.921 510.95 156.754 511.702 156.754C512.851 156.754 513.729 157.126 514.337 157.872C514.946 158.61 515.25 159.68 515.25 161.081V167.5Z" fill="black" fill-opacity="0.8956"/>
<g clip-path="url(#clip0)">
<rect x="471.5" y="107.5" width="17" height="105" fill="#D45C00" fill-opacity="0.1" stroke="#D45C00"/>
</g>
<defs>
<linearGradient id="paint0_linear" x1="456" y1="151" x2="456" y2="169" gradientUnits="userSpaceOnUse">
<stop offset="0.500208" stop-opacity="0.0578"/>
<stop offset="0.954545" stop-opacity="0.1622"/>
</linearGradient>
<clipPath id="clip0">
<rect width="18" height="54" fill="white" transform="translate(471 133)"/>
</clipPath>
</defs>
</svg>
