<svg width="612" height="360" viewBox="0 0 612 360" version="1.1" xmlns="http://www.w3.org/2000/svg" xmlns:xlink="http://www.w3.org/1999/xlink">
<g id="Canvas" fill="none">
<g id="thumbnail-autosuggest" clip-path="url(#clip0)">
<rect width="612" height="360" fill="#243A5E"/>
<g id="Rectangle" filter="url(#filter0_d)">
<rect width="440" height="124" transform="translate(86 155)" fill="white" fill-opacity="0.8"/>
<rect width="440" height="124" transform="translate(86 155)" fill="url(#paint0_linear)" style="mix-blend-mode:overlay"/>
</g>
<g id="Rectangle 3">
<rect width="440" height="54" transform="translate(86 81)" fill="white" fill-opacity="0.8"/>
<rect x="2" y="2" width="436" height="50" stroke-width="4" transform="translate(86 81)" stroke="#50E6FF"/>
</g>
<g id="Union">
<path fill-rule="evenodd" clip-rule="evenodd" d="M 8.99951 7L 2 0L 0 2L 6.99951 9L 0 16L 2 18L 8.99951 11L 15.9985 17.9995L 17.9985 15.9995L 10.9995 9L 17.998 2.00049L 15.9985 0.000488281L 8.99951 7Z" transform="translate(489 99)" fill="#243A5E"/>
</g>
<g id="Rectangle 2.6">
<rect width="68" height="16" transform="translate(116 100)" fill="#A6A6A6"/>
</g>
<g id="Rectangle 2.5">
<rect width="292" height="16" transform="translate(116 185)" fill="#50E6FF"/>
</g>
<g id="Rectangle 2.7">
<rect width="292" height="16" transform="translate(116 233)" fill="#50E6FF"/>
</g>
<g id="Line">
<line y1="-1.5" x2="33" y2="-1.5" stroke-width="3" transform="matrix(0 1 -1 0 184 91)" stroke="#50E6FF"/>
</g>
</g>
</g>
<defs>
<filter id="filter0_d" x="76" y="155" width="460" height="144" filterUnits="userSpaceOnUse" color-interpolation-filters="sRGB">
<feFlood flood-opacity="0" result="BackgroundImageFix"/>
<feColorMatrix in="SourceAlpha" type="matrix" values="0 0 0 0 0 0 0 0 0 0 0 0 0 0 0 0 0 0 255 0"/>
<feOffset dy="10"/>
<feGaussianBlur stdDeviation="5"/>
<feColorMatrix type="matrix" values="0 0 0 0 0 0 0 0 0 0 0 0 0 0 0 0 0 0 0.2 0"/>
<feBlend mode="normal" in2="BackgroundImageFix" result="effect1_dropShadow"/>
<feBlend mode="normal" in="SourceGraphic" in2="effect1_dropShadow" result="shape"/>
</filter>

<linearGradient id="paint0_linear" x2="1" gradientUnits="userSpaceOnUse" gradientTransform="matrix(-29 137 -486.129 -102.903 463.065 51.4516)">
<stop stop-color="white"/>
<stop offset="1" stop-color="white" stop-opacity="0"/>
</linearGradient>

<clipPath id="clip0">
<rect width="612" height="360" fill="white"/>
</clipPath>

</defs>
</svg>

