<svg width="1268" height="228" viewBox="0 0 1268 228" version="1.1" xmlns="http://www.w3.org/2000/svg" xmlns:xlink="http://www.w3.org/1999/xlink">
<g id="Canvas" fill="none">
<g id="create-icon-command-bar" clip-path="url(#clip0)">
<rect width="1268" height="228" fill="#EAEAEA"/>
<g id="&#238;&#156;&#146;">
<path d="M 39.375 50.3125C 40.3857 50.3125 41.3216 50.4997 42.1826 50.874C 43.0436 51.2484 43.7923 51.7725 44.4287 52.4463C 45.1025 53.0827 45.6266 53.8314 46.001 54.6924C 46.3753 55.5534 46.5625 56.4893 46.5625 57.5C 46.5625 58.5107 46.3753 59.4466 46.001 60.3076C 45.6266 61.1686 45.1025 61.936 44.4287 62.6099C 43.7923 63.2463 43.0436 63.7516 42.1826 64.126C 41.3216 64.5003 40.3857 64.6875 39.375 64.6875C 38.3643 64.6875 37.4284 64.5003 36.5674 64.126C 35.7064 63.7516 34.939 63.2463 34.2651 62.6099C 33.6287 61.936 33.1234 61.1686 32.749 60.3076C 32.3747 59.4466 32.1875 58.5107 32.1875 57.5C 32.1875 56.4893 32.3747 55.5534 32.749 54.6924C 33.1234 53.8314 33.6287 53.0827 34.2651 52.4463C 34.939 51.7725 35.7064 51.2484 36.5674 50.874C 37.4284 50.4997 38.3643 50.3125 39.375 50.3125ZM 82.5 50.3125C 83.5107 50.3125 84.4466 50.4997 85.3076 50.874C 86.1686 51.2484 86.9173 51.7725 87.5537 52.4463C 88.2275 53.0827 88.7516 53.8314 89.126 54.6924C 89.5003 55.5534 89.6875 56.4893 89.6875 57.5C 89.6875 58.5107 89.5003 59.4466 89.126 60.3076C 88.7516 61.1686 88.2275 61.936 87.5537 62.6099C 86.9173 63.2463 86.1686 63.7516 85.3076 64.126C 84.4466 64.5003 83.5107 64.6875 82.5 64.6875C 81.4893 64.6875 80.5534 64.5003 79.6924 64.126C 78.8314 63.7516 78.064 63.2463 77.3901 62.6099C 76.7537 61.936 76.2484 61.1686 75.874 60.3076C 75.4997 59.4466 75.3125 58.5107 75.3125 57.5C 75.3125 56.4893 75.4997 55.5534 75.874 54.6924C 76.2484 53.8314 76.7537 53.0827 77.3901 52.4463C 78.064 51.7725 78.8314 51.2484 79.6924 50.874C 80.5534 50.4997 81.4893 50.3125 82.5 50.3125ZM 125.625 50.3125C 126.636 50.3125 127.572 50.4997 128.433 50.874C 129.294 51.2484 130.042 51.7725 130.679 52.4463C 131.353 53.0827 131.877 53.8314 132.251 54.6924C 132.625 55.5534 132.812 56.4893 132.812 57.5C 132.812 58.5107 132.625 59.4466 132.251 60.3076C 131.877 61.1686 131.353 61.936 130.679 62.6099C 130.042 63.2463 129.294 63.7516 128.433 64.126C 127.572 64.5003 126.636 64.6875 125.625 64.6875C 124.614 64.6875 123.678 64.5003 122.817 64.126C 121.956 63.7516 121.189 63.2463 120.515 62.6099C 119.879 61.936 119.373 61.1686 118.999 60.3076C 118.625 59.4466 118.438 58.5107 118.438 57.5C 118.438 56.4893 118.625 55.5534 118.999 54.6924C 119.373 53.8314 119.879 53.0827 120.515 52.4463C 121.189 51.7725 121.956 51.2484 122.817 50.874C 123.678 50.4997 124.614 50.3125 125.625 50.3125Z" transform="translate(1065 50)" fill="black"/>
</g>
<g id="&#238;&#130;&#130;">
<path d="M 140 43.125L 104.512 70.415L 118.438 115L 82.5 87.373L 46.5625 115L 60.4883 70.415L 25 43.125L 69.0234 43.125L 82.5 0L 95.9766 43.125L 140 43.125Z" transform="translate(49 50)" fill="black"/>
</g>
<g id="&#238;&#181;&#163;">
<path d="M 118.438 0L 125.625 0L 125.625 28.75L 82.5 115L 39.375 28.75L 39.375 0L 46.5625 0L 46.5625 24.7632L 64.5312 15.7227L 82.5 24.7632L 100.469 15.7227L 118.438 24.7632L 118.438 0ZM 82.5 32.7368L 64.5312 23.8086L 48.8647 31.6138L 65.3735 64.6875L 99.6265 64.6875L 116.135 31.6138L 100.469 23.8086L 82.5 32.7368ZM 68.9673 71.875L 82.5 98.9404L 96.0327 71.875L 68.9673 71.875Z" transform="translate(571 55)" fill="black"/>
</g>
<g id="&#238;&#156;&#139;">
<path d="M 32.1875 7.1875L 132.812 7.1875L 132.812 107.812L 60.9375 107.812L 32.1875 79.0625L 32.1875 7.1875ZM 42.3511 79.0625L 60.9375 97.6489L 60.9375 79.0625L 42.3511 79.0625ZM 125.625 100.625L 125.625 14.375L 39.375 14.375L 39.375 71.875L 68.125 71.875L 68.125 100.625L 125.625 100.625Z" transform="translate(310 55)" fill="black"/>
</g>
<g id="&#238;&#185;&#150;">
<path d="M 136.406 100.625C 137.38 100.625 138.222 100.981 138.933 101.692C 139.644 102.366 140 103.208 140 104.219C 140 105.117 139.682 105.941 139.045 106.689C 137.922 108 136.631 109.179 135.171 110.227C 133.711 111.238 132.157 112.099 130.51 112.81C 128.863 113.521 127.16 114.064 125.4 114.438C 123.641 114.813 121.919 115 120.234 115C 116.528 115 113.103 114.289 109.958 112.866C 106.814 111.406 103.969 109.347 101.423 106.689C 99.589 104.78 97.5488 103.302 95.3027 102.253C 93.0566 101.168 90.5859 100.625 87.8906 100.625C 85.2702 100.625 82.7995 101.168 80.4785 102.253C 78.195 103.302 76.1548 104.78 74.3579 106.689C 74.3579 106.689 74.1707 106.858 73.7964 107.195C 73.4595 107.532 73.029 107.962 72.5049 108.486C 72.0182 108.973 71.4754 109.516 70.8765 110.115C 70.2775 110.714 69.6973 111.275 69.1357 111.799C 68.6117 112.323 68.1437 112.791 67.7319 113.203C 67.3576 113.615 67.133 113.858 67.0581 113.933C 66.3468 114.644 65.5046 115 64.5312 115C 63.5579 115 62.7157 114.644 62.0044 113.933C 61.2931 113.222 60.9375 112.38 60.9375 111.406C 60.9375 110.433 61.2931 109.591 62.0044 108.879C 64.0259 106.858 65.9351 104.911 67.7319 103.04C 69.5288 101.168 71.4006 99.5207 73.3472 98.0981C 75.2938 96.6756 77.4276 95.5526 79.7485 94.729C 82.0695 93.868 84.7835 93.4375 87.8906 93.4375C 91.5967 93.4375 95.022 94.1675 98.1665 95.6274C 101.311 97.05 104.156 99.0902 106.702 101.748C 108.536 103.657 110.576 105.155 112.822 106.24C 115.068 107.288 117.539 107.812 120.234 107.812C 123.079 107.812 125.55 107.288 127.646 106.24C 129.743 105.155 131.783 103.657 133.767 101.748C 134.179 101.374 134.572 101.093 134.946 100.906C 135.358 100.719 135.845 100.625 136.406 100.625ZM 94.3481 16.2842C 94.8722 16.5837 95.3027 17.0142 95.6396 17.5757C 95.9766 18.1372 96.145 18.7362 96.145 19.3726C 96.145 19.672 96.1076 19.9528 96.0327 20.2148C 95.9578 20.4769 95.8643 20.7389 95.752 21.001L 56.0522 100.457C 55.7153 101.168 55.1912 101.692 54.48 102.029L 44.7656 106.914C 43.5677 107.513 42.2762 107.812 40.8911 107.812C 40.7039 107.812 40.5168 107.812 40.3296 107.812C 40.1799 107.812 40.0114 107.794 39.8242 107.756L 37.1851 113.035C 36.8856 113.634 36.4364 114.12 35.8374 114.495C 35.2759 114.832 34.6582 115 33.9844 115C 33.0111 115 32.1688 114.644 31.4575 113.933C 30.7463 113.222 30.3906 112.38 30.3906 111.406C 30.3906 110.957 30.5216 110.396 30.7837 109.722C 31.0457 109.048 31.3452 108.355 31.6821 107.644C 32.0565 106.895 32.4308 106.203 32.8052 105.566C 33.1795 104.93 33.4603 104.406 33.6475 103.994C 32.6742 102.497 32.1875 100.868 32.1875 99.1089L 32.1875 89.8438C 32.1875 89.2448 32.3185 88.702 32.5806 88.2153L 64.9243 23.5278L 61.2744 21.731L 47.9663 48.3472C 47.6668 48.9461 47.2176 49.4328 46.6187 49.8071C 46.0571 50.144 45.4395 50.3125 44.7656 50.3125C 43.7923 50.3125 42.95 49.9569 42.2388 49.2456C 41.5275 48.5343 41.1719 47.6921 41.1719 46.7188C 41.1719 46.2321 41.3029 45.6893 41.5649 45.0903L 54.9854 18.2495C 55.5843 17.0516 56.3892 16.1157 57.3999 15.4419C 58.4106 14.7306 59.5898 14.375 60.9375 14.375C 62.2477 14.375 63.4831 14.6932 64.6436 15.3296C 65.8415 15.966 67.002 16.5649 68.125 17.1265L 72.1118 9.15283C 72.4113 8.51644 72.8418 8.02979 73.4033 7.69287C 74.0023 7.35596 74.6387 7.1875 75.3125 7.1875C 75.7992 7.1875 76.2109 7.26237 76.5479 7.41211C 76.9971 6.51367 77.4276 5.63395 77.8394 4.77295C 78.2886 3.87451 78.7752 3.06966 79.2993 2.3584C 79.8608 1.64714 80.5347 1.08561 81.3208 0.673828C 82.1069 0.224609 83.099 0 84.2969 0C 85.4948 0 86.6366 0.280762 87.7222 0.842285L 93.0005 3.48145C 94.1984 4.0804 95.1343 4.88525 95.8081 5.896C 96.5194 6.8693 96.875 8.0485 96.875 9.43359C 96.875 10.7064 96.5755 11.9043 95.9766 13.0273C 95.415 14.113 94.8722 15.1986 94.3481 16.2842ZM 83.0054 10.6128L 87.8906 13.0273L 89.519 9.77051L 84.6338 7.35596L 83.0054 10.6128ZM 87.7222 21.001L 76.9409 15.6104L 39.375 90.686L 39.375 99.1089C 39.375 99.5207 39.5247 99.8763 39.8242 100.176C 40.1237 100.475 40.4793 100.625 40.8911 100.625C 41.0409 100.625 41.3403 100.531 41.7896 100.344C 42.2762 100.157 42.819 99.9137 43.418 99.6143C 44.0544 99.3148 44.7095 98.9966 45.3833 98.6597C 46.0946 98.2853 46.7684 97.9297 47.4048 97.5928C 48.0412 97.2559 48.6027 96.9564 49.0894 96.6943C 49.576 96.4323 49.9316 96.2451 50.1562 96.1328L 87.7222 21.001Z" transform="translate(832 50)" fill="black"/>
</g>
</g>
</g>
<defs>

<clipPath id="clip0">
<rect width="1268" height="228" fill="white"/>
</clipPath>

</defs>
</svg>

