<svg width="614" height="310" viewBox="0 0 614 310" version="1.1" xmlns="http://www.w3.org/2000/svg" xmlns:xlink="http://www.w3.org/1999/xlink">
<g id="Canvas" fill="none">
<g id="icon-text-step-2" clip-path="url(#clip0)">
<rect width="614" height="310" fill="#EAEAEA"/>
<g id="&#238;&#157;&#168;">
<path d="M 40 7.5L 115 60L 40 112.5L 40 7.5ZM 47.5 21.9141L 47.5 98.0859L 101.934 60L 47.5 21.9141Z" transform="translate(237 42)" fill="black"/>
</g>
<g id="Play the movie">
<path d="M 12.7461 58.9453L 12.7461 78L 6.83984 78L 6.83984 27.5859L 20.6914 27.5859C 26.082 27.5859 30.2539 28.8984 33.207 31.5234C 36.1836 34.1484 37.6719 37.8516 37.6719 42.6328C 37.6719 47.4141 36.0195 51.3281 32.7148 54.375C 29.4336 57.4219 24.9922 58.9453 19.3906 58.9453L 12.7461 58.9453ZM 12.7461 32.9297L 12.7461 53.6016L 18.9336 53.6016C 23.0117 53.6016 26.1172 52.6758 28.25 50.8242C 30.4062 48.9492 31.4844 46.3125 31.4844 42.9141C 31.4844 36.2578 27.5469 32.9297 19.6719 32.9297L 12.7461 32.9297ZM 52.1914 78L 46.4258 78L 46.4258 24.7031L 52.1914 24.7031L 52.1914 78ZM 89.6328 78L 83.8672 78L 83.8672 72.375L 83.7266 72.375C 81.2188 76.6875 77.5273 78.8438 72.6523 78.8438C 69.0664 78.8438 66.2539 77.8945 64.2148 75.9961C 62.1992 74.0977 61.1914 71.5781 61.1914 68.4375C 61.1914 61.7109 65.1523 57.7969 73.0742 56.6953L 83.8672 55.1836C 83.8672 49.0664 81.3945 46.0078 76.4492 46.0078C 72.1133 46.0078 68.1992 47.4844 64.707 50.4375L 64.707 44.5312C 68.2461 42.2812 72.3242 41.1562 76.9414 41.1562C 85.4023 41.1562 89.6328 45.6328 89.6328 54.5859L 89.6328 78ZM 83.8672 59.7891L 75.1836 60.9844C 72.5117 61.3594 70.4961 62.0273 69.1367 62.9883C 67.7773 63.9258 67.0977 65.6016 67.0977 68.0156C 67.0977 69.7734 67.7188 71.2148 68.9609 72.3398C 70.2266 73.4414 71.9023 73.9922 73.9883 73.9922C 76.8477 73.9922 79.2031 72.9961 81.0547 71.0039C 82.9297 68.9883 83.8672 66.4453 83.8672 63.375L 83.8672 59.7891ZM 129.148 42L 112.59 83.7656C 109.637 91.2188 105.488 94.9453 100.145 94.9453C 98.6445 94.9453 97.3906 94.793 96.3828 94.4883L 96.3828 89.3203C 97.625 89.7422 98.7617 89.9531 99.793 89.9531C 102.699 89.9531 104.879 88.2188 106.332 84.75L 109.215 77.9297L 95.1523 42L 101.551 42L 111.289 69.7031C 111.406 70.0547 111.652 70.9688 112.027 72.4453L 112.238 72.4453C 112.355 71.8828 112.59 70.9922 112.941 69.7734L 123.172 42L 129.148 42ZM 171.828 77.6484C 170.469 78.3984 168.676 78.7734 166.449 78.7734C 160.145 78.7734 156.992 75.2578 156.992 68.2266L 156.992 46.9219L 150.805 46.9219L 150.805 42L 156.992 42L 156.992 33.2109L 162.758 31.3477L 162.758 42L 171.828 42L 171.828 46.9219L 162.758 46.9219L 162.758 67.207C 162.758 69.6211 163.168 71.3438 163.988 72.375C 164.809 73.4062 166.168 73.9219 168.066 73.9219C 169.52 73.9219 170.773 73.5234 171.828 72.7266L 171.828 77.6484ZM 209.41 78L 203.645 78L 203.645 57.2578C 203.645 49.7578 200.855 46.0078 195.277 46.0078C 192.465 46.0078 190.098 47.0977 188.176 49.2773C 186.254 51.4336 185.293 54.2109 185.293 57.6094L 185.293 78L 179.527 78L 179.527 24.7031L 185.293 24.7031L 185.293 47.9766L 185.434 47.9766C 188.199 43.4297 192.137 41.1562 197.246 41.1562C 205.355 41.1562 209.41 46.043 209.41 55.8164L 209.41 78ZM 249.242 61.4414L 223.824 61.4414C 223.918 65.4492 224.996 68.543 227.059 70.7227C 229.121 72.9023 231.957 73.9922 235.566 73.9922C 239.621 73.9922 243.348 72.6562 246.746 69.9844L 246.746 75.3984C 243.582 77.6953 239.398 78.8438 234.195 78.8438C 229.109 78.8438 225.113 77.2148 222.207 73.957C 219.301 70.6758 217.848 66.0703 217.848 60.1406C 217.848 54.5391 219.43 49.9805 222.594 46.4648C 225.781 42.9258 229.73 41.1562 234.441 41.1562C 239.152 41.1562 242.797 42.6797 245.375 45.7266C 247.953 48.7734 249.242 53.0039 249.242 58.418L 249.242 61.4414ZM 243.336 56.5547C 243.312 53.2266 242.504 50.6367 240.91 48.7852C 239.34 46.9336 237.148 46.0078 234.336 46.0078C 231.617 46.0078 229.309 46.9805 227.41 48.9258C 225.512 50.8711 224.34 53.4141 223.895 56.5547L 243.336 56.5547ZM 328.871 78L 323.105 78L 323.105 57.3281C 323.105 53.3438 322.484 50.4609 321.242 48.6797C 320.023 46.8984 317.961 46.0078 315.055 46.0078C 312.594 46.0078 310.496 47.1328 308.762 49.3828C 307.051 51.6328 306.195 54.3281 306.195 57.4688L 306.195 78L 300.43 78L 300.43 56.625C 300.43 49.5469 297.699 46.0078 292.238 46.0078C 289.707 46.0078 287.621 47.0742 285.98 49.207C 284.34 51.3164 283.52 54.0703 283.52 57.4688L 283.52 78L 277.754 78L 277.754 42L 283.52 42L 283.52 47.6953L 283.66 47.6953C 286.215 43.3359 289.941 41.1562 294.84 41.1562C 297.301 41.1562 299.445 41.8477 301.273 43.2305C 303.102 44.5898 304.355 46.3828 305.035 48.6094C 307.707 43.6406 311.691 41.1562 316.988 41.1562C 324.91 41.1562 328.871 46.043 328.871 55.8164L 328.871 78ZM 354.816 78.8438C 349.496 78.8438 345.242 77.168 342.055 73.8164C 338.891 70.4414 337.309 65.9766 337.309 60.4219C 337.309 54.375 338.961 49.6523 342.266 46.2539C 345.57 42.8555 350.035 41.1562 355.66 41.1562C 361.027 41.1562 365.211 42.8086 368.211 46.1133C 371.234 49.418 372.746 54 372.746 59.8594C 372.746 65.6016 371.117 70.207 367.859 73.6758C 364.625 77.1211 360.277 78.8438 354.816 78.8438ZM 355.238 46.0078C 351.535 46.0078 348.605 47.2734 346.449 49.8047C 344.293 52.3125 343.215 55.7812 343.215 60.2109C 343.215 64.4766 344.305 67.8398 346.484 70.3008C 348.664 72.7617 351.582 73.9922 355.238 73.9922C 358.965 73.9922 361.824 72.7852 363.816 70.3711C 365.832 67.957 366.84 64.5234 366.84 60.0703C 366.84 55.5703 365.832 52.1016 363.816 49.6641C 361.824 47.2266 358.965 46.0078 355.238 46.0078ZM 410.258 42L 395.914 78L 390.254 78L 376.613 42L 382.941 42L 392.082 68.1562C 392.762 70.0781 393.184 71.7539 393.348 73.1836L 393.488 73.1836C 393.723 71.3789 394.098 69.75 394.613 68.2969L 404.176 42L 410.258 42ZM 419.434 32.8594C 418.402 32.8594 417.523 32.5078 416.797 31.8047C 416.07 31.1016 415.707 30.2109 415.707 29.1328C 415.707 28.0547 416.07 27.1641 416.797 26.4609C 417.523 25.7344 418.402 25.3711 419.434 25.3711C 420.488 25.3711 421.379 25.7344 422.105 26.4609C 422.855 27.1641 423.23 28.0547 423.23 29.1328C 423.23 30.1641 422.855 31.043 422.105 31.7695C 421.379 32.4961 420.488 32.8594 419.434 32.8594ZM 422.246 78L 416.48 78L 416.48 42L 422.246 42L 422.246 78ZM 462.852 61.4414L 437.434 61.4414C 437.527 65.4492 438.605 68.543 440.668 70.7227C 442.73 72.9023 445.566 73.9922 449.176 73.9922C 453.23 73.9922 456.957 72.6562 460.355 69.9844L 460.355 75.3984C 457.191 77.6953 453.008 78.8438 447.805 78.8438C 442.719 78.8438 438.723 77.2148 435.816 73.957C 432.91 70.6758 431.457 66.0703 431.457 60.1406C 431.457 54.5391 433.039 49.9805 436.203 46.4648C 439.391 42.9258 443.34 41.1562 448.051 41.1562C 452.762 41.1562 456.406 42.6797 458.984 45.7266C 461.562 48.7734 462.852 53.0039 462.852 58.418L 462.852 61.4414ZM 456.945 56.5547C 456.922 53.2266 456.113 50.6367 454.52 48.7852C 452.949 46.9336 450.758 46.0078 447.945 46.0078C 445.227 46.0078 442.918 46.9805 441.02 48.9258C 439.121 50.8711 437.949 53.4141 437.504 56.5547L 456.945 56.5547Z" transform="translate(74 158)" fill="black"/>
</g>
</g>
</g>
<defs>

<clipPath id="clip0">
<rect width="614" height="310" fill="white"/>
</clipPath>

</defs>
</svg>

