<svg width="941" height="529" viewBox="0 0 941 529" version="1.1" xmlns="http://www.w3.org/2000/svg" xmlns:xlink="http://www.w3.org/1999/xlink">
<g id="Canvas" fill="none">
<g id="frame" clip-path="url(#clip0)">
<rect width="941" height="529" fill="#243A5E"/>
<g id="Group">
<g id="Rectangle">
<rect width="680" height="381" transform="translate(131 74)" fill="#F4F4F4"/>
</g>
<g id="Rectangle 2">
<rect width="680" height="17" transform="translate(131 73)" fill="#C8C8C8"/>
</g>
<g id="Rectangle 2.1">
<rect width="680" height="38" transform="translate(131 417)" fill="#C8C8C8"/>
</g>
<g id="FRAME">
<path d="M 11.2617 11.5625L 4.98047 11.5625L 4.98047 16.6133L 10.7695 16.6133L 10.7695 18.9688L 4.98047 18.9688L 4.98047 26L 2.19141 26L 2.19141 9.19531L 11.2617 9.19531L 11.2617 11.5625ZM 27.2461 26L 23.9883 26L 21.3047 21.5C 21.0625 21.0859 20.8242 20.7344 20.5898 20.4453C 20.3633 20.1484 20.1289 19.9062 19.8867 19.7188C 19.6523 19.5312 19.3945 19.3945 19.1133 19.3086C 18.832 19.2227 18.5156 19.1797 18.1641 19.1797L 17.0391 19.1797L 17.0391 26L 14.2617 26L 14.2617 9.19531L 19.793 9.19531C 20.582 9.19531 21.3086 9.28906 21.9727 9.47656C 22.6367 9.66406 23.2148 9.94922 23.707 10.332C 24.1992 10.707 24.582 11.1797 24.8555 11.75C 25.1367 12.3125 25.2773 12.9727 25.2773 13.7305C 25.2773 14.3242 25.1875 14.8711 25.0078 15.3711C 24.8359 15.8633 24.5859 16.3047 24.2578 16.6953C 23.9375 17.0781 23.5469 17.4062 23.0859 17.6797C 22.6328 17.9531 22.1211 18.1641 21.5508 18.3125L 21.5508 18.3594C 21.8555 18.5312 22.1211 18.7227 22.3477 18.9336C 22.5742 19.1367 22.7891 19.3477 22.9922 19.5664C 23.1953 19.7852 23.3945 20.0352 23.5898 20.3164C 23.793 20.5898 24.0156 20.9102 24.2578 21.2773L 27.2461 26ZM 17.0391 11.457L 17.0391 16.918L 19.3594 16.918C 19.7891 16.918 20.1836 16.8516 20.543 16.7188C 20.9102 16.5859 21.2266 16.3945 21.4922 16.1445C 21.7578 15.8945 21.9648 15.5898 22.1133 15.2305C 22.2617 14.8711 22.3359 14.4688 22.3359 14.0234C 22.3359 13.2188 22.082 12.5898 21.5742 12.1367C 21.0664 11.6836 20.3359 11.457 19.3828 11.457L 17.0391 11.457ZM 43.0195 26L 39.9609 26L 38.4492 21.7227L 31.8398 21.7227L 30.3867 26L 27.3398 26L 33.6328 9.19531L 36.7734 9.19531L 43.0195 26ZM 37.7109 19.4492L 35.3789 12.7461C 35.3086 12.5273 35.2344 12.1758 35.1562 11.6914L 35.1094 11.6914C 35.0391 12.1367 34.9609 12.4883 34.875 12.7461L 32.5664 19.4492L 37.7109 19.4492ZM 63.3867 26L 60.6211 26L 60.6211 15.125C 60.6211 14.2344 60.6758 13.1445 60.7852 11.8555L 60.7383 11.8555C 60.5664 12.5898 60.4141 13.1172 60.2812 13.4375L 55.2656 26L 53.3438 26L 48.3164 13.5312C 48.1758 13.1641 48.0273 12.6055 47.8711 11.8555L 47.8242 11.8555C 47.8867 12.5273 47.918 13.625 47.918 15.1484L 47.918 26L 45.3398 26L 45.3398 9.19531L 49.2656 9.19531L 53.6836 20.3867C 54.0195 21.2461 54.2383 21.8867 54.3398 22.3086L 54.3984 22.3086C 54.6875 21.4258 54.9219 20.7695 55.1016 20.3398L 59.6016 9.19531L 63.3867 9.19531L 63.3867 26ZM 76.9688 26L 67.5352 26L 67.5352 9.19531L 76.5938 9.19531L 76.5938 11.5625L 70.3242 11.5625L 70.3242 16.3203L 76.1016 16.3203L 76.1016 18.6758L 70.3242 18.6758L 70.3242 23.6445L 76.9688 23.6445L 76.9688 26Z" transform="translate(432 240)" fill="#243A5E"/>
</g>
</g>
</g>
</g>
<defs>

<clipPath id="clip0">
<rect width="941" height="529" fill="white"/>
</clipPath>

</defs>
</svg>

