<svg width="941" height="529" viewBox="0 0 941 529" version="1.1" xmlns="http://www.w3.org/2000/svg" xmlns:xlink="http://www.w3.org/1999/xlink">
<g id="Canvas" fill="none">
<g id="shell" clip-path="url(#clip0)">
<rect width="941" height="529" fill="#243A5E"/>
<g id="Group 2">
<g id="Rectangle 36">
<rect width="992" height="40" transform="translate(0 488.682)" fill="#0062AD"/>
</g>
<g id="Rectangle 35.1">
<rect width="471" height="369" transform="translate(0 120)" fill="#00508E"/>
</g>
<g id="Rectangle 31.18">
<rect width="167.239" height="170.833" transform="translate(168.946 195.167)" fill="#0078D7"/>
</g>
<g id="Rectangle 31.19">
<rect width="81.9131" height="83.7083" transform="translate(339.598 195.167)" fill="#0078D7"/>
</g>
<g id="Rectangle 31.20">
<rect width="81.9131" height="83.7083" transform="translate(339.598 282.292)" fill="#0078D7"/>
</g>
<g id="Rectangle 31.21">
<rect width="39.25" height="41" transform="translate(211.609 369.417)" fill="#0078D7"/>
</g>
<g id="Rectangle 31.22">
<rect width="39.25" height="41" transform="translate(168.946 369.417)" fill="#0078D7"/>
</g>
<g id="Rectangle 31.23">
<rect width="34.1304" height="34.1666" transform="translate(49.489 191.75)" fill="#0078D7"/>
</g>
<g id="Rectangle 31.24">
<rect width="34.1304" height="34.1667" transform="translate(49.489 229.333)" fill="#0078D7"/>
</g>
<g id="Rectangle 31.25">
<rect width="34.1304" height="34.1667" transform="translate(49.489 266.916)" fill="#0078D7"/>
</g>
<g id="Rectangle 31.26">
<rect width="34.1304" height="34.1667" transform="translate(49.489 304.5)" fill="#0078D7"/>
</g>
<g id="Rectangle 31.27">
<rect width="34.1304" height="34.1667" transform="translate(49.489 342.083)" fill="#0078D7"/>
</g>
<g id="Rectangle 31.28">
<rect width="34.1304" height="34.1667" transform="translate(49.489 379.667)" fill="#0078D7"/>
</g>
<g id="Rectangle 31.29">
<rect width="34.1304" height="34.1666" transform="translate(49.489 417.25)" fill="#0078D7"/>
</g>
<g id="Rectangle 31.30">
<rect width="34.1304" height="34.1667" transform="translate(49.489 454.833)" fill="#0078D7"/>
</g>
<g id="Rectangle 31.31">
<rect width="39.25" height="41" transform="translate(211.609 413.833)" fill="#0078D7"/>
</g>
<g id="Rectangle 31.32">
<rect width="39.25" height="41" transform="translate(168.946 413.833)" fill="#0078D7"/>
</g>
<g id="Rectangle 31.33">
<rect width="167.239" height="30.75" transform="translate(168.946 458.25)" fill="#0078D7"/>
</g>
<g id="Rectangle 31.34">
<rect width="81.9131" height="30.75" transform="translate(339.598 458.25)" fill="#0078D7"/>
</g>
<g id="Rectangle 31.35">
<rect width="167.239" height="85.4166" transform="translate(254.272 369.417)" fill="#0078D7"/>
</g>
</g>
<g id="windows-logo-11">
<g id="UI - Blue">
<g id="Vector">
<path d="M -7.85048e-08 8.05617L 9.27881 8.05617L 9.27881 -1.06573e-07L -7.85048e-08 1.27878L -7.85048e-08 8.05617Z" transform="translate(20.7212 499)" fill="white"/>
</g>
<g id="Vector_2">
<path d="M 7.06007 6.68596L 7.06007 9.68848e-09L 7.85048e-08 0.974005L 7.85048e-08 6.68596L 7.06007 6.68596Z" transform="translate(13 500.37)" fill="white"/>
</g>
<g id="Vector_3">
<path d="M -7.85048e-08 1.9377e-07L -7.85048e-08 6.79771L 9.27881 8.07649L 9.27881 1.9377e-07L -7.85048e-08 1.9377e-07Z" transform="translate(20.7212 507.923)" fill="white"/>
</g>
<g id="Vector_4">
<path d="M 7.06007 1.9377e-07L 7.85048e-08 1.9377e-07L 7.85048e-08 5.73355L 7.06007 6.70628L 7.06007 1.9377e-07Z" transform="translate(13 507.923)" fill="white"/>
</g>
</g>
</g>
</g>
</g>
<defs>

<clipPath id="clip0">
<rect width="941" height="529" fill="white"/>
</clipPath>

</defs>
</svg>

