<svg width="1152" height="198" viewBox="0 0 1152 198" version="1.1" xmlns="http://www.w3.org/2000/svg" xmlns:xlink="http://www.w3.org/1999/xlink">
<title>color-principle-4</title>
<desc>Created using Figma</desc>
<g id="Canvas" transform="translate(-3347 7364)">
<clipPath id="clip-0" clip-rule="evenodd">
<path d="M 3347 -7364L 4499 -7364L 4499 -7166L 3347 -7166L 3347 -7364Z" fill="#FFFFFF"/>
</clipPath>
<g id="color-principle-4" clip-path="url(#clip-0)">
<path d="M 3347 -7364L 4499 -7364L 4499 -7166L 3347 -7166L 3347 -7364Z" fill="#F2741A"/>
<g id="Color principles">
<use xlink:href="#path0_fill" transform="translate(3409 -7310)" fill="#FFFFFF"/>
</g>
</g>
</g>
<defs>
<path id="path0_fill" d="M 25.0469 24.9453L 9.73438 24.9453L 9.73438 38.5078L 23.8984 38.5078L 23.8984 42.6367L 9.73438 42.6367L 9.73438 60L 5.14062 60L 5.14062 20.7891L 25.0469 20.7891L 25.0469 24.9453ZM 37.0781 45.1797L 37.0781 60L 32.4844 60L 32.4844 20.7891L 43.2578 20.7891C 47.4505 20.7891 50.6953 21.8099 52.9922 23.8516C 55.3073 25.8932 56.4648 28.7734 56.4648 32.4922C 56.4648 36.2109 55.1797 39.2552 52.6094 41.625C 50.0573 43.9948 46.6029 45.1797 42.2461 45.1797L 37.0781 45.1797ZM 37.0781 24.9453L 37.0781 41.0234L 41.8906 41.0234C 45.0625 41.0234 47.4779 40.3034 49.1367 38.8633C 50.8138 37.4049 51.6523 35.3542 51.6523 32.7109C 51.6523 27.5339 48.5898 24.9453 42.4648 24.9453L 37.0781 24.9453ZM 79.6797 60.6562C 74.1198 60.6562 69.6628 58.8242 66.3086 55.1602C 62.9727 51.4961 61.3047 46.7292 61.3047 40.8594C 61.3047 34.5521 63.0091 29.5208 66.418 25.7656C 69.8268 22.0104 74.4661 20.1328 80.3359 20.1328C 85.75 20.1328 90.1068 21.9557 93.4062 25.6016C 96.724 29.2474 98.3828 34.0143 98.3828 39.9023C 98.3828 46.3008 96.6875 51.3594 93.2969 55.0781C 89.9062 58.7969 85.3672 60.6562 79.6797 60.6562ZM 80.0078 24.2891C 75.888 24.2891 72.543 25.7747 69.9727 28.7461C 67.4023 31.7174 66.1172 35.6185 66.1172 40.4492C 66.1172 45.2799 67.3659 49.1719 69.8633 52.125C 72.3789 55.0599 75.651 56.5273 79.6797 56.5273C 83.9818 56.5273 87.3724 55.1237 89.8516 52.3164C 92.3307 49.5091 93.5703 45.5807 93.5703 40.5312C 93.5703 35.3542 92.3672 31.3529 89.9609 28.5273C 87.5547 25.7018 84.237 24.2891 80.0078 24.2891Z"/>
</defs>
</svg>
