<svg width="1152" height="255" viewBox="0 0 1152 255" version="1.1" xmlns="http://www.w3.org/2000/svg" xmlns:xlink="http://www.w3.org/1999/xlink">
<title>color-theme-button</title>
<desc>Created using Figma</desc>
<g id="Canvas" transform="translate(19456 -6362)">
<clipPath id="clip-0" clip-rule="evenodd">
<path d="M -19456 6362L -18304 6362L -18304 6617L -19456 6617L -19456 6362Z" fill="#FFFFFF"/>
</clipPath>
<g id="color-theme-button" clip-path="url(#clip-0)">
<path d="M -19456 6362L -18304 6362L -18304 6617L -19456 6617L -19456 6362Z" fill="#EBEBEB"/>
<g id="Rectangle 30">
<use xlink:href="#path0_fill" transform="translate(-18676.1 6467.1)" fill="#174276"/>
</g>
<g id="Rectangle 30.2">
<use xlink:href="#path0_fill" transform="translate(-19019.9 6465.61)" fill="#ADD8FF"/>
</g>
<g id="Rectangle 30.3">
<use xlink:href="#path0_fill" transform="translate(-19363.7 6467.1)" fill="#3379D9"/>
</g>
<g id="You can customize yo">
<use xlink:href="#path1_fill" transform="translate(-19019.9 6471.5)" fill="#FFFFFF"/>
</g>
<g id="You can customize yo">
<use xlink:href="#path1_fill" transform="translate(-19363.7 6473)" fill="#FFFFFF"/>
</g>
<g id="You can customize yo">
<use xlink:href="#path1_fill" transform="translate(-18674.9 6475.35)" fill="#FFFFFF"/>
</g>
<g id="Group 37">
<g id="Hover state +3">
<use xlink:href="#path2_fill" transform="translate(-18941 6418)"/>
<use xlink:href="#path3_fill" transform="translate(-18941 6418)" fill="#0078D4"/>
</g>
</g>
<g id="Rest state A">
<use xlink:href="#path4_fill" transform="translate(-19281 6418)"/>
<use xlink:href="#path5_fill" transform="translate(-19281 6418)" fill="#0078D4"/>
</g>
<g id="Group 35">
<g id="Pressed state -2">
<use xlink:href="#path6_fill" transform="translate(-18597 6417)"/>
<use xlink:href="#path7_fill" transform="translate(-18597 6417)" fill="#0078D4"/>
</g>
</g>
</g>
</g>
<defs>
<path id="path0_fill" d="M 0 0L 279.17 0L 279.17 89.6466L 0 89.6466L 0 0Z"/>
<path id="path1_fill" d="M 106.151 47L 106.151 30.1953L 110.933 30.1953C 112.386 30.1953 113.538 30.5508 114.39 31.2617C 115.241 31.9727 115.667 32.8984 115.667 34.0391C 115.667 34.9922 115.409 35.8203 114.893 36.5234C 114.378 37.2266 113.667 37.7266 112.761 38.0234L 112.761 38.0703C 113.893 38.2031 114.8 38.6328 115.479 39.3594C 116.159 40.0781 116.499 41.0156 116.499 42.1719C 116.499 43.6094 115.983 44.7734 114.952 45.6641C 113.921 46.5547 112.62 47 111.05 47L 106.151 47ZM 108.12 31.9766L 108.12 37.4023L 110.136 37.4023C 111.214 37.4023 112.061 37.1445 112.679 36.6289C 113.296 36.1055 113.604 35.3711 113.604 34.4258C 113.604 32.793 112.53 31.9766 110.382 31.9766L 108.12 31.9766ZM 108.12 39.1719L 108.12 45.2188L 110.792 45.2188C 111.948 45.2188 112.843 44.9453 113.475 44.3984C 114.116 43.8516 114.436 43.1016 114.436 42.1484C 114.436 40.1641 113.085 39.1719 110.382 39.1719L 108.12 39.1719ZM 129.354 47L 127.433 47L 127.433 45.1016L 127.386 45.1016C 126.589 46.5547 125.354 47.2812 123.683 47.2812C 120.823 47.2812 119.393 45.5781 119.393 42.1719L 119.393 35L 121.304 35L 121.304 41.8672C 121.304 44.3984 122.272 45.6641 124.21 45.6641C 125.147 45.6641 125.917 45.3203 126.518 44.6328C 127.128 43.9375 127.433 43.0312 127.433 41.9141L 127.433 35L 129.354 35L 129.354 47ZM 138.811 46.8828C 138.358 47.1328 137.761 47.2578 137.018 47.2578C 134.917 47.2578 133.866 46.0859 133.866 43.7422L 133.866 36.6406L 131.804 36.6406L 131.804 35L 133.866 35L 133.866 32.0703L 135.788 31.4492L 135.788 35L 138.811 35L 138.811 36.6406L 135.788 36.6406L 135.788 43.4023C 135.788 44.207 135.925 44.7812 136.198 45.125C 136.472 45.4688 136.925 45.6406 137.558 45.6406C 138.042 45.6406 138.46 45.5078 138.811 45.2422L 138.811 46.8828ZM 146.944 46.8828C 146.491 47.1328 145.893 47.2578 145.151 47.2578C 143.05 47.2578 141.999 46.0859 141.999 43.7422L 141.999 36.6406L 139.936 36.6406L 139.936 35L 141.999 35L 141.999 32.0703L 143.921 31.4492L 143.921 35L 146.944 35L 146.944 36.6406L 143.921 36.6406L 143.921 43.4023C 143.921 44.207 144.058 44.7812 144.331 45.125C 144.604 45.4688 145.058 45.6406 145.69 45.6406C 146.175 45.6406 146.593 45.5078 146.944 45.2422L 146.944 46.8828ZM 154.526 47.2812C 152.753 47.2812 151.335 46.7227 150.272 45.6055C 149.218 44.4805 148.69 42.9922 148.69 41.1406C 148.69 39.125 149.241 37.5508 150.343 36.418C 151.444 35.2852 152.933 34.7188 154.808 34.7188C 156.597 34.7188 157.991 35.2695 158.991 36.3711C 159.999 37.4727 160.503 39 160.503 40.9531C 160.503 42.8672 159.96 44.4023 158.874 45.5586C 157.796 46.707 156.347 47.2812 154.526 47.2812ZM 154.667 36.3359C 153.433 36.3359 152.456 36.7578 151.737 37.6016C 151.018 38.4375 150.659 39.5938 150.659 41.0703C 150.659 42.4922 151.022 43.6133 151.749 44.4336C 152.475 45.2539 153.448 45.6641 154.667 45.6641C 155.909 45.6641 156.862 45.2617 157.526 44.457C 158.198 43.6523 158.534 42.5078 158.534 41.0234C 158.534 39.5234 158.198 38.3672 157.526 37.5547C 156.862 36.7422 155.909 36.3359 154.667 36.3359ZM 173.534 47L 171.612 47L 171.612 40.1562C 171.612 37.6094 170.683 36.3359 168.823 36.3359C 167.862 36.3359 167.065 36.6992 166.433 37.4258C 165.808 38.1445 165.495 39.0547 165.495 40.1562L 165.495 47L 163.573 47L 163.573 35L 165.495 35L 165.495 36.9922L 165.542 36.9922C 166.448 35.4766 167.761 34.7188 169.479 34.7188C 170.792 34.7188 171.796 35.1445 172.491 35.9961C 173.186 36.8398 173.534 38.0625 173.534 39.6641L 173.534 47Z"/>
<path id="path2_fill" d="M 20.3135 15L 18.0986 15L 18.0986 11.0078L 14.0381 11.0078L 14.0381 15L 11.8301 15L 11.8301 5.19727L 14.0381 5.19727L 14.0381 9.10742L 18.0986 9.10742L 18.0986 5.19727L 20.3135 5.19727L 20.3135 15ZM 25.6865 15.1709C 24.5199 15.1709 23.6016 14.8451 22.9316 14.1934C 22.2663 13.5371 21.9336 12.6484 21.9336 11.5273C 21.9336 10.3698 22.2799 9.46517 22.9727 8.81348C 23.6654 8.15723 24.6019 7.8291 25.7822 7.8291C 26.9443 7.8291 27.8558 8.15723 28.5166 8.81348C 29.1774 9.46517 29.5078 10.3288 29.5078 11.4043C 29.5078 12.5664 29.166 13.4847 28.4824 14.1592C 27.8034 14.8337 26.8714 15.1709 25.6865 15.1709ZM 25.7412 9.4834C 25.2308 9.4834 24.8343 9.65885 24.5518 10.0098C 24.2692 10.3607 24.1279 10.8574 24.1279 11.5C 24.1279 12.8444 24.6702 13.5166 25.7549 13.5166C 26.7894 13.5166 27.3066 12.8262 27.3066 11.4453C 27.3066 10.1374 26.7848 9.4834 25.7412 9.4834ZM 37.5742 8L 34.9697 15L 32.5088 15L 30.0273 8L 32.3379 8L 33.5547 12.3135C 33.6914 12.8011 33.7712 13.2158 33.7939 13.5576L 33.8213 13.5576C 33.8532 13.234 33.9375 12.833 34.0742 12.3545L 35.3184 8L 37.5742 8ZM 44.6494 12.1152L 40.083 12.1152C 40.1559 13.1315 40.7962 13.6396 42.0039 13.6396C 42.7741 13.6396 43.4508 13.4574 44.0342 13.0928L 44.0342 14.6514C 43.387 14.9977 42.5462 15.1709 41.5117 15.1709C 40.3815 15.1709 39.5042 14.8587 38.8799 14.2344C 38.2555 13.6055 37.9434 12.7305 37.9434 11.6094C 37.9434 10.4473 38.2806 9.52669 38.9551 8.84766C 39.6296 8.16862 40.459 7.8291 41.4434 7.8291C 42.4642 7.8291 43.2526 8.13216 43.8086 8.73828C 44.3691 9.3444 44.6494 10.167 44.6494 11.2061L 44.6494 12.1152ZM 42.6465 10.7891C 42.6465 9.78646 42.2409 9.28516 41.4297 9.28516C 41.0833 9.28516 40.7826 9.42871 40.5273 9.71582C 40.2767 10.0029 40.124 10.3607 40.0693 10.7891L 42.6465 10.7891ZM 50.501 9.94824C 50.2412 9.80697 49.9382 9.73633 49.5918 9.73633C 49.1224 9.73633 48.7555 9.90951 48.4912 10.2559C 48.2269 10.5977 48.0947 11.0648 48.0947 11.6572L 48.0947 15L 45.9346 15L 45.9346 8L 48.0947 8L 48.0947 9.29883L 48.1221 9.29883C 48.4639 8.35091 49.0791 7.87695 49.9678 7.87695C 50.1956 7.87695 50.3734 7.9043 50.501 7.95898L 50.501 9.94824ZM 54.9238 14.8154L 54.9238 13.0654C 55.2793 13.2796 55.6325 13.4391 55.9834 13.5439C 56.3389 13.6488 56.6738 13.7012 56.9883 13.7012C 57.3711 13.7012 57.6719 13.6488 57.8906 13.5439C 58.1139 13.4391 58.2256 13.2796 58.2256 13.0654C 58.2256 12.9287 58.1755 12.8148 58.0752 12.7236C 57.9749 12.6325 57.8451 12.5527 57.6855 12.4844C 57.5306 12.416 57.3597 12.3545 57.1729 12.2998C 56.986 12.2451 56.806 12.1836 56.6328 12.1152C 56.3548 12.0104 56.1087 11.8988 55.8945 11.7803C 55.6849 11.6572 55.5072 11.516 55.3613 11.3564C 55.2201 11.1969 55.1107 11.0124 55.0332 10.8027C 54.9603 10.5931 54.9238 10.3447 54.9238 10.0576C 54.9238 9.66569 55.0081 9.32845 55.1768 9.0459C 55.3499 8.76335 55.5778 8.5332 55.8604 8.35547C 56.1475 8.17318 56.4733 8.04102 56.8379 7.95898C 57.207 7.8724 57.5898 7.8291 57.9863 7.8291C 58.2962 7.8291 58.6107 7.85417 58.9297 7.9043C 59.2487 7.94987 59.5632 8.01823 59.873 8.10938L 59.873 9.77734C 59.5996 9.61784 59.3057 9.49935 58.9912 9.42188C 58.6813 9.33984 58.376 9.29883 58.0752 9.29883C 57.9339 9.29883 57.7995 9.3125 57.6719 9.33984C 57.5488 9.36263 57.4395 9.39909 57.3438 9.44922C 57.248 9.49479 57.1729 9.55632 57.1182 9.63379C 57.0635 9.70671 57.0361 9.79102 57.0361 9.88672C 57.0361 10.0143 57.0771 10.1237 57.1592 10.2148C 57.2412 10.306 57.3483 10.3857 57.4805 10.4541C 57.6126 10.5179 57.7585 10.5771 57.918 10.6318C 58.082 10.682 58.2438 10.7344 58.4033 10.7891C 58.6904 10.8893 58.9502 10.9987 59.1826 11.1172C 59.415 11.2357 59.6133 11.3747 59.7773 11.5342C 59.946 11.6937 60.0736 11.8805 60.1602 12.0947C 60.2513 12.3089 60.2969 12.5641 60.2969 12.8604C 60.2969 13.2751 60.2057 13.6305 60.0234 13.9268C 59.8457 14.2184 59.6064 14.4577 59.3057 14.6445C 59.0094 14.8268 58.6654 14.959 58.2734 15.041C 57.8861 15.1276 57.4827 15.1709 57.0635 15.1709C 56.2933 15.1709 55.5801 15.0524 54.9238 14.8154ZM 65.7793 14.918C 65.4603 15.0866 64.9795 15.1709 64.3369 15.1709C 62.8148 15.1709 62.0537 14.3802 62.0537 12.7988L 62.0537 9.59277L 60.9189 9.59277L 60.9189 8L 62.0537 8L 62.0537 6.48926L 64.207 5.87402L 64.207 8L 65.7793 8L 65.7793 9.59277L 64.207 9.59277L 64.207 12.4229C 64.207 13.152 64.4964 13.5166 65.0752 13.5166C 65.3031 13.5166 65.5378 13.4505 65.7793 13.3184L 65.7793 14.918ZM 72.8271 15L 70.7832 15L 70.7832 13.9951L 70.7559 13.9951C 70.2865 14.779 69.5915 15.1709 68.6709 15.1709C 67.9919 15.1709 67.4564 14.9795 67.0645 14.5967C 66.6771 14.2093 66.4834 13.6943 66.4834 13.0518C 66.4834 11.6937 67.2878 10.9098 68.8965 10.7002L 70.7969 10.4473C 70.7969 9.68164 70.3822 9.29883 69.5527 9.29883C 68.7188 9.29883 67.9258 9.5472 67.1738 10.0439L 67.1738 8.41699C 67.4746 8.26204 67.8848 8.12533 68.4043 8.00684C 68.9284 7.88835 69.4046 7.8291 69.833 7.8291C 71.8291 7.8291 72.8271 8.82487 72.8271 10.8164L 72.8271 15ZM 70.7969 12.1562L 70.7969 11.6846L 69.5254 11.8486C 68.8236 11.9398 68.4727 12.2565 68.4727 12.7988C 68.4727 13.0449 68.557 13.2477 68.7256 13.4072C 68.8988 13.5622 69.1312 13.6396 69.4229 13.6396C 69.8285 13.6396 70.1589 13.5007 70.4141 13.2227C 70.6693 12.9401 70.7969 12.5846 70.7969 12.1562ZM 78.7676 14.918C 78.4486 15.0866 77.9678 15.1709 77.3252 15.1709C 75.8031 15.1709 75.042 14.3802 75.042 12.7988L 75.042 9.59277L 73.9072 9.59277L 73.9072 8L 75.042 8L 75.042 6.48926L 77.1953 5.87402L 77.1953 8L 78.7676 8L 78.7676 9.59277L 77.1953 9.59277L 77.1953 12.4229C 77.1953 13.152 77.4847 13.5166 78.0635 13.5166C 78.2913 13.5166 78.526 13.4505 78.7676 13.3184L 78.7676 14.918ZM 86.2256 12.1152L 81.6592 12.1152C 81.7321 13.1315 82.3724 13.6396 83.5801 13.6396C 84.3503 13.6396 85.027 13.4574 85.6104 13.0928L 85.6104 14.6514C 84.9632 14.9977 84.1224 15.1709 83.0879 15.1709C 81.9577 15.1709 81.0804 14.8587 80.4561 14.2344C 79.8317 13.6055 79.5195 12.7305 79.5195 11.6094C 79.5195 10.4473 79.8568 9.52669 80.5312 8.84766C 81.2057 8.16862 82.0352 7.8291 83.0195 7.8291C 84.0404 7.8291 84.8288 8.13216 85.3848 8.73828C 85.9453 9.3444 86.2256 10.167 86.2256 11.2061L 86.2256 12.1152ZM 84.2227 10.7891C 84.2227 9.78646 83.8171 9.28516 83.0059 9.28516C 82.6595 9.28516 82.3587 9.42871 82.1035 9.71582C 81.8529 10.0029 81.7002 10.3607 81.6455 10.7891L 84.2227 10.7891Z"/>
<path id="path3_fill" d="M 102.625 11.6846L 99.9932 11.6846L 99.9932 14.3164L 98.6123 14.3164L 98.6123 11.6846L 95.9668 11.6846L 95.9668 10.2969L 98.6123 10.2969L 98.6123 7.65137L 99.9932 7.65137L 99.9932 10.2969L 102.625 10.2969L 102.625 11.6846ZM 105.038 14.6787L 105.038 12.7988C 105.694 13.2773 106.46 13.5166 107.335 13.5166C 107.886 13.5166 108.315 13.3981 108.62 13.1611C 108.93 12.9242 109.085 12.5938 109.085 12.1699C 109.085 11.7324 108.894 11.3952 108.511 11.1582C 108.132 10.9212 107.611 10.8027 106.945 10.8027L 106.036 10.8027L 106.036 9.14844L 106.877 9.14844C 108.153 9.14844 108.791 8.72461 108.791 7.87695C 108.791 7.07943 108.301 6.68066 107.321 6.68066C 106.665 6.68066 106.027 6.89258 105.407 7.31641L 105.407 5.55273C 106.095 5.20638 106.897 5.0332 107.813 5.0332C 108.816 5.0332 109.595 5.25879 110.151 5.70996C 110.712 6.16113 110.992 6.74674 110.992 7.4668C 110.992 8.7474 110.343 9.54948 109.044 9.87305L 109.044 9.90723C 109.737 9.99382 110.284 10.2467 110.685 10.666C 111.086 11.0807 111.286 11.5911 111.286 12.1973C 111.286 13.1133 110.951 13.8379 110.281 14.3711C 109.611 14.9043 108.686 15.1709 107.506 15.1709C 106.494 15.1709 105.672 15.0068 105.038 14.6787Z"/>
<path id="path4_fill" d="M 26.0615 15L 23.5254 15L 22.001 12.4775C 21.887 12.2861 21.7777 12.1152 21.6729 11.9648C 21.568 11.8145 21.4609 11.6868 21.3516 11.582C 21.2467 11.4727 21.1351 11.3906 21.0166 11.3359C 20.9027 11.2767 20.7773 11.2471 20.6406 11.2471L 20.0459 11.2471L 20.0459 15L 17.8379 15L 17.8379 5.19727L 21.3379 5.19727C 23.7168 5.19727 24.9062 6.08594 24.9062 7.86328C 24.9062 8.20508 24.8538 8.52181 24.749 8.81348C 24.6442 9.10059 24.4961 9.36035 24.3047 9.59277C 24.1133 9.8252 23.8809 10.0257 23.6074 10.1943C 23.3385 10.363 23.0378 10.4951 22.7051 10.5908L 22.7051 10.6182C 22.8509 10.6637 22.9922 10.7389 23.1289 10.8438C 23.2656 10.944 23.3978 11.0625 23.5254 11.1992C 23.653 11.3359 23.7738 11.484 23.8877 11.6436C 24.0062 11.7985 24.1133 11.9512 24.209 12.1016L 26.0615 15ZM 20.0459 6.85156L 20.0459 9.5791L 21.0029 9.5791C 21.4769 9.5791 21.8574 9.44238 22.1445 9.16895C 22.4362 8.89095 22.582 8.54688 22.582 8.13672C 22.582 7.27995 22.0693 6.85156 21.0439 6.85156L 20.0459 6.85156ZM 32.7061 12.1152L 28.1396 12.1152C 28.2126 13.1315 28.8529 13.6396 30.0605 13.6396C 30.8307 13.6396 31.5075 13.4574 32.0908 13.0928L 32.0908 14.6514C 31.4437 14.9977 30.6029 15.1709 29.5684 15.1709C 28.4382 15.1709 27.5609 14.8587 26.9365 14.2344C 26.3122 13.6055 26 12.7305 26 11.6094C 26 10.4473 26.3372 9.52669 27.0117 8.84766C 27.6862 8.16862 28.5156 7.8291 29.5 7.8291C 30.5208 7.8291 31.3092 8.13216 31.8652 8.73828C 32.4258 9.3444 32.7061 10.167 32.7061 11.2061L 32.7061 12.1152ZM 30.7031 10.7891C 30.7031 9.78646 30.2975 9.28516 29.4863 9.28516C 29.14 9.28516 28.8392 9.42871 28.584 9.71582C 28.3333 10.0029 28.1807 10.3607 28.126 10.7891L 30.7031 10.7891ZM 33.5332 14.8154L 33.5332 13.0654C 33.8887 13.2796 34.2419 13.4391 34.5928 13.5439C 34.9482 13.6488 35.2832 13.7012 35.5977 13.7012C 35.9805 13.7012 36.2812 13.6488 36.5 13.5439C 36.7233 13.4391 36.835 13.2796 36.835 13.0654C 36.835 12.9287 36.7848 12.8148 36.6846 12.7236C 36.5843 12.6325 36.4544 12.5527 36.2949 12.4844C 36.14 12.416 35.9691 12.3545 35.7822 12.2998C 35.5954 12.2451 35.4154 12.1836 35.2422 12.1152C 34.9642 12.0104 34.7181 11.8988 34.5039 11.7803C 34.2943 11.6572 34.1165 11.516 33.9707 11.3564C 33.8294 11.1969 33.7201 11.0124 33.6426 10.8027C 33.5697 10.5931 33.5332 10.3447 33.5332 10.0576C 33.5332 9.66569 33.6175 9.32845 33.7861 9.0459C 33.9593 8.76335 34.1872 8.5332 34.4697 8.35547C 34.7568 8.17318 35.0827 8.04102 35.4473 7.95898C 35.8164 7.8724 36.1992 7.8291 36.5957 7.8291C 36.9056 7.8291 37.2201 7.85417 37.5391 7.9043C 37.8581 7.94987 38.1725 8.01823 38.4824 8.10938L 38.4824 9.77734C 38.209 9.61784 37.915 9.49935 37.6006 9.42188C 37.2907 9.33984 36.9854 9.29883 36.6846 9.29883C 36.5433 9.29883 36.4089 9.3125 36.2812 9.33984C 36.1582 9.36263 36.0488 9.39909 35.9531 9.44922C 35.8574 9.49479 35.7822 9.55632 35.7275 9.63379C 35.6729 9.70671 35.6455 9.79102 35.6455 9.88672C 35.6455 10.0143 35.6865 10.1237 35.7686 10.2148C 35.8506 10.306 35.9577 10.3857 36.0898 10.4541C 36.222 10.5179 36.3678 10.5771 36.5273 10.6318C 36.6914 10.682 36.8532 10.7344 37.0127 10.7891C 37.2998 10.8893 37.5596 10.9987 37.792 11.1172C 38.0244 11.2357 38.2227 11.3747 38.3867 11.5342C 38.5553 11.6937 38.6829 11.8805 38.7695 12.0947C 38.8607 12.3089 38.9062 12.5641 38.9062 12.8604C 38.9062 13.2751 38.8151 13.6305 38.6328 13.9268C 38.4551 14.2184 38.2158 14.4577 37.915 14.6445C 37.6188 14.8268 37.2747 14.959 36.8828 15.041C 36.4954 15.1276 36.0921 15.1709 35.6729 15.1709C 34.9027 15.1709 34.1895 15.0524 33.5332 14.8154ZM 44.3887 14.918C 44.0697 15.0866 43.5889 15.1709 42.9463 15.1709C 41.4242 15.1709 40.6631 14.3802 40.6631 12.7988L 40.6631 9.59277L 39.5283 9.59277L 39.5283 8L 40.6631 8L 40.6631 6.48926L 42.8164 5.87402L 42.8164 8L 44.3887 8L 44.3887 9.59277L 42.8164 9.59277L 42.8164 12.4229C 42.8164 13.152 43.1058 13.5166 43.6846 13.5166C 43.9124 13.5166 44.1471 13.4505 44.3887 13.3184L 44.3887 14.918ZM 49.0234 14.8154L 49.0234 13.0654C 49.3789 13.2796 49.7321 13.4391 50.083 13.5439C 50.4385 13.6488 50.7734 13.7012 51.0879 13.7012C 51.4707 13.7012 51.7715 13.6488 51.9902 13.5439C 52.2135 13.4391 52.3252 13.2796 52.3252 13.0654C 52.3252 12.9287 52.2751 12.8148 52.1748 12.7236C 52.0745 12.6325 51.9447 12.5527 51.7852 12.4844C 51.6302 12.416 51.4593 12.3545 51.2725 12.2998C 51.0856 12.2451 50.9056 12.1836 50.7324 12.1152C 50.4544 12.0104 50.2083 11.8988 49.9941 11.7803C 49.7845 11.6572 49.6068 11.516 49.4609 11.3564C 49.3197 11.1969 49.2103 11.0124 49.1328 10.8027C 49.0599 10.5931 49.0234 10.3447 49.0234 10.0576C 49.0234 9.66569 49.1077 9.32845 49.2764 9.0459C 49.4495 8.76335 49.6774 8.5332 49.96 8.35547C 50.2471 8.17318 50.5729 8.04102 50.9375 7.95898C 51.3066 7.8724 51.6895 7.8291 52.0859 7.8291C 52.3958 7.8291 52.7103 7.85417 53.0293 7.9043C 53.3483 7.94987 53.6628 8.01823 53.9727 8.10938L 53.9727 9.77734C 53.6992 9.61784 53.4053 9.49935 53.0908 9.42188C 52.7809 9.33984 52.4756 9.29883 52.1748 9.29883C 52.0335 9.29883 51.8991 9.3125 51.7715 9.33984C 51.6484 9.36263 51.5391 9.39909 51.4434 9.44922C 51.3477 9.49479 51.2725 9.55632 51.2178 9.63379C 51.1631 9.70671 51.1357 9.79102 51.1357 9.88672C 51.1357 10.0143 51.1768 10.1237 51.2588 10.2148C 51.3408 10.306 51.4479 10.3857 51.5801 10.4541C 51.7122 10.5179 51.8581 10.5771 52.0176 10.6318C 52.1816 10.682 52.3434 10.7344 52.5029 10.7891C 52.79 10.8893 53.0498 10.9987 53.2822 11.1172C 53.5146 11.2357 53.7129 11.3747 53.877 11.5342C 54.0456 11.6937 54.1732 11.8805 54.2598 12.0947C 54.3509 12.3089 54.3965 12.5641 54.3965 12.8604C 54.3965 13.2751 54.3053 13.6305 54.123 13.9268C 53.9453 14.2184 53.7061 14.4577 53.4053 14.6445C 53.109 14.8268 52.765 14.959 52.373 15.041C 51.9857 15.1276 51.5824 15.1709 51.1631 15.1709C 50.3929 15.1709 49.6797 15.0524 49.0234 14.8154ZM 59.8789 14.918C 59.5599 15.0866 59.0791 15.1709 58.4365 15.1709C 56.9144 15.1709 56.1533 14.3802 56.1533 12.7988L 56.1533 9.59277L 55.0186 9.59277L 55.0186 8L 56.1533 8L 56.1533 6.48926L 58.3066 5.87402L 58.3066 8L 59.8789 8L 59.8789 9.59277L 58.3066 9.59277L 58.3066 12.4229C 58.3066 13.152 58.596 13.5166 59.1748 13.5166C 59.4027 13.5166 59.6374 13.4505 59.8789 13.3184L 59.8789 14.918ZM 66.9268 15L 64.8828 15L 64.8828 13.9951L 64.8555 13.9951C 64.3861 14.779 63.6911 15.1709 62.7705 15.1709C 62.0915 15.1709 61.556 14.9795 61.1641 14.5967C 60.7767 14.2093 60.583 13.6943 60.583 13.0518C 60.583 11.6937 61.3874 10.9098 62.9961 10.7002L 64.8965 10.4473C 64.8965 9.68164 64.4818 9.29883 63.6523 9.29883C 62.8184 9.29883 62.0254 9.5472 61.2734 10.0439L 61.2734 8.41699C 61.5742 8.26204 61.9844 8.12533 62.5039 8.00684C 63.028 7.88835 63.5042 7.8291 63.9326 7.8291C 65.9287 7.8291 66.9268 8.82487 66.9268 10.8164L 66.9268 15ZM 64.8965 12.1562L 64.8965 11.6846L 63.625 11.8486C 62.9232 11.9398 62.5723 12.2565 62.5723 12.7988C 62.5723 13.0449 62.6566 13.2477 62.8252 13.4072C 62.9984 13.5622 63.2308 13.6396 63.5225 13.6396C 63.9281 13.6396 64.2585 13.5007 64.5137 13.2227C 64.7689 12.9401 64.8965 12.5846 64.8965 12.1562ZM 72.8672 14.918C 72.5482 15.0866 72.0674 15.1709 71.4248 15.1709C 69.9027 15.1709 69.1416 14.3802 69.1416 12.7988L 69.1416 9.59277L 68.0068 9.59277L 68.0068 8L 69.1416 8L 69.1416 6.48926L 71.2949 5.87402L 71.2949 8L 72.8672 8L 72.8672 9.59277L 71.2949 9.59277L 71.2949 12.4229C 71.2949 13.152 71.5843 13.5166 72.1631 13.5166C 72.391 13.5166 72.6257 13.4505 72.8672 13.3184L 72.8672 14.918ZM 80.3252 12.1152L 75.7588 12.1152C 75.8317 13.1315 76.472 13.6396 77.6797 13.6396C 78.4499 13.6396 79.1266 13.4574 79.71 13.0928L 79.71 14.6514C 79.0628 14.9977 78.222 15.1709 77.1875 15.1709C 76.0573 15.1709 75.18 14.8587 74.5557 14.2344C 73.9313 13.6055 73.6191 12.7305 73.6191 11.6094C 73.6191 10.4473 73.9564 9.52669 74.6309 8.84766C 75.3053 8.16862 76.1348 7.8291 77.1191 7.8291C 78.14 7.8291 78.9284 8.13216 79.4844 8.73828C 80.0449 9.3444 80.3252 10.167 80.3252 11.2061L 80.3252 12.1152ZM 78.3223 10.7891C 78.3223 9.78646 77.9167 9.28516 77.1055 9.28516C 76.7591 9.28516 76.4583 9.42871 76.2031 9.71582C 75.9525 10.0029 75.7998 10.3607 75.7451 10.7891L 78.3223 10.7891Z"/>
<path id="path5_fill" d="M 98.1807 15L 95.7744 15L 95.0771 12.8193L 91.5908 12.8193L 90.9004 15L 88.5078 15L 92.0762 5.19727L 94.6943 5.19727L 98.1807 15ZM 94.5713 11.124L 93.5186 7.8291C 93.4411 7.58301 93.3864 7.28906 93.3545 6.94727L 93.2998 6.94727C 93.277 7.23438 93.2201 7.51921 93.1289 7.80176L 92.0625 11.124L 94.5713 11.124Z"/>
<path id="path6_fill" d="M 9.46875 11.623L 9.46875 15L 7.26074 15L 7.26074 5.19727L 10.7197 5.19727C 13.1898 5.19727 14.4248 6.23861 14.4248 8.32129C 14.4248 9.30566 14.0693 10.1032 13.3584 10.7139C 12.652 11.32 11.7064 11.623 10.5215 11.623L 9.46875 11.623ZM 9.46875 6.89258L 9.46875 9.94824L 10.3369 9.94824C 11.5127 9.94824 12.1006 9.43327 12.1006 8.40332C 12.1006 7.39616 11.5127 6.89258 10.3369 6.89258L 9.46875 6.89258ZM 20.2148 9.94824C 19.9551 9.80697 19.652 9.73633 19.3057 9.73633C 18.8363 9.73633 18.4694 9.90951 18.2051 10.2559C 17.9408 10.5977 17.8086 11.0648 17.8086 11.6572L 17.8086 15L 15.6484 15L 15.6484 8L 17.8086 8L 17.8086 9.29883L 17.8359 9.29883C 18.1777 8.35091 18.793 7.87695 19.6816 7.87695C 19.9095 7.87695 20.0872 7.9043 20.2148 7.95898L 20.2148 9.94824ZM 27.4609 12.1152L 22.8945 12.1152C 22.9674 13.1315 23.6077 13.6396 24.8154 13.6396C 25.5856 13.6396 26.2624 13.4574 26.8457 13.0928L 26.8457 14.6514C 26.1986 14.9977 25.3577 15.1709 24.3232 15.1709C 23.193 15.1709 22.3158 14.8587 21.6914 14.2344C 21.0671 13.6055 20.7549 12.7305 20.7549 11.6094C 20.7549 10.4473 21.0921 9.52669 21.7666 8.84766C 22.4411 8.16862 23.2705 7.8291 24.2549 7.8291C 25.2757 7.8291 26.0641 8.13216 26.6201 8.73828C 27.1807 9.3444 27.4609 10.167 27.4609 11.2061L 27.4609 12.1152ZM 25.458 10.7891C 25.458 9.78646 25.0524 9.28516 24.2412 9.28516C 23.8949 9.28516 23.5941 9.42871 23.3389 9.71582C 23.0882 10.0029 22.9355 10.3607 22.8809 10.7891L 25.458 10.7891ZM 28.2881 14.8154L 28.2881 13.0654C 28.6436 13.2796 28.9967 13.4391 29.3477 13.5439C 29.7031 13.6488 30.0381 13.7012 30.3525 13.7012C 30.7354 13.7012 31.0361 13.6488 31.2549 13.5439C 31.4782 13.4391 31.5898 13.2796 31.5898 13.0654C 31.5898 12.9287 31.5397 12.8148 31.4395 12.7236C 31.3392 12.6325 31.2093 12.5527 31.0498 12.4844C 30.8949 12.416 30.724 12.3545 30.5371 12.2998C 30.3503 12.2451 30.1702 12.1836 29.9971 12.1152C 29.7191 12.0104 29.473 11.8988 29.2588 11.7803C 29.0492 11.6572 28.8714 11.516 28.7256 11.3564C 28.5843 11.1969 28.4749 11.0124 28.3975 10.8027C 28.3245 10.5931 28.2881 10.3447 28.2881 10.0576C 28.2881 9.66569 28.3724 9.32845 28.541 9.0459C 28.7142 8.76335 28.9421 8.5332 29.2246 8.35547C 29.5117 8.17318 29.8376 8.04102 30.2021 7.95898C 30.5713 7.8724 30.9541 7.8291 31.3506 7.8291C 31.6605 7.8291 31.9749 7.85417 32.2939 7.9043C 32.613 7.94987 32.9274 8.01823 33.2373 8.10938L 33.2373 9.77734C 32.9639 9.61784 32.6699 9.49935 32.3555 9.42188C 32.0456 9.33984 31.7402 9.29883 31.4395 9.29883C 31.2982 9.29883 31.1637 9.3125 31.0361 9.33984C 30.9131 9.36263 30.8037 9.39909 30.708 9.44922C 30.6123 9.49479 30.5371 9.55632 30.4824 9.63379C 30.4277 9.70671 30.4004 9.79102 30.4004 9.88672C 30.4004 10.0143 30.4414 10.1237 30.5234 10.2148C 30.6055 10.306 30.7126 10.3857 30.8447 10.4541C 30.9769 10.5179 31.1227 10.5771 31.2822 10.6318C 31.4463 10.682 31.6081 10.7344 31.7676 10.7891C 32.0547 10.8893 32.3145 10.9987 32.5469 11.1172C 32.7793 11.2357 32.9775 11.3747 33.1416 11.5342C 33.3102 11.6937 33.4378 11.8805 33.5244 12.0947C 33.6156 12.3089 33.6611 12.5641 33.6611 12.8604C 33.6611 13.2751 33.57 13.6305 33.3877 13.9268C 33.21 14.2184 32.9707 14.4577 32.6699 14.6445C 32.3737 14.8268 32.0296 14.959 31.6377 15.041C 31.2503 15.1276 30.847 15.1709 30.4277 15.1709C 29.6576 15.1709 28.9443 15.0524 28.2881 14.8154ZM 34.4541 14.8154L 34.4541 13.0654C 34.8096 13.2796 35.1628 13.4391 35.5137 13.5439C 35.8691 13.6488 36.2041 13.7012 36.5186 13.7012C 36.9014 13.7012 37.2021 13.6488 37.4209 13.5439C 37.6442 13.4391 37.7559 13.2796 37.7559 13.0654C 37.7559 12.9287 37.7057 12.8148 37.6055 12.7236C 37.5052 12.6325 37.3753 12.5527 37.2158 12.4844C 37.0609 12.416 36.89 12.3545 36.7031 12.2998C 36.5163 12.2451 36.3363 12.1836 36.1631 12.1152C 35.8851 12.0104 35.639 11.8988 35.4248 11.7803C 35.2152 11.6572 35.0374 11.516 34.8916 11.3564C 34.7503 11.1969 34.641 11.0124 34.5635 10.8027C 34.4906 10.5931 34.4541 10.3447 34.4541 10.0576C 34.4541 9.66569 34.5384 9.32845 34.707 9.0459C 34.8802 8.76335 35.1081 8.5332 35.3906 8.35547C 35.6777 8.17318 36.0036 8.04102 36.3682 7.95898C 36.7373 7.8724 37.1201 7.8291 37.5166 7.8291C 37.8265 7.8291 38.141 7.85417 38.46 7.9043C 38.779 7.94987 39.0934 8.01823 39.4033 8.10938L 39.4033 9.77734C 39.1299 9.61784 38.8359 9.49935 38.5215 9.42188C 38.2116 9.33984 37.9062 9.29883 37.6055 9.29883C 37.4642 9.29883 37.3298 9.3125 37.2021 9.33984C 37.0791 9.36263 36.9697 9.39909 36.874 9.44922C 36.7783 9.49479 36.7031 9.55632 36.6484 9.63379C 36.5938 9.70671 36.5664 9.79102 36.5664 9.88672C 36.5664 10.0143 36.6074 10.1237 36.6895 10.2148C 36.7715 10.306 36.8786 10.3857 37.0107 10.4541C 37.1429 10.5179 37.2887 10.5771 37.4482 10.6318C 37.6123 10.682 37.7741 10.7344 37.9336 10.7891C 38.2207 10.8893 38.4805 10.9987 38.7129 11.1172C 38.9453 11.2357 39.1436 11.3747 39.3076 11.5342C 39.4762 11.6937 39.6038 11.8805 39.6904 12.0947C 39.7816 12.3089 39.8271 12.5641 39.8271 12.8604C 39.8271 13.2751 39.736 13.6305 39.5537 13.9268C 39.376 14.2184 39.1367 14.4577 38.8359 14.6445C 38.5397 14.8268 38.1956 14.959 37.8037 15.041C 37.4163 15.1276 37.013 15.1709 36.5938 15.1709C 35.8236 15.1709 35.1104 15.0524 34.4541 14.8154ZM 47.3672 12.1152L 42.8008 12.1152C 42.8737 13.1315 43.514 13.6396 44.7217 13.6396C 45.4919 13.6396 46.1686 13.4574 46.752 13.0928L 46.752 14.6514C 46.1048 14.9977 45.264 15.1709 44.2295 15.1709C 43.0993 15.1709 42.222 14.8587 41.5977 14.2344C 40.9733 13.6055 40.6611 12.7305 40.6611 11.6094C 40.6611 10.4473 40.9984 9.52669 41.6729 8.84766C 42.3473 8.16862 43.1768 7.8291 44.1611 7.8291C 45.182 7.8291 45.9704 8.13216 46.5264 8.73828C 47.0869 9.3444 47.3672 10.167 47.3672 11.2061L 47.3672 12.1152ZM 45.3643 10.7891C 45.3643 9.78646 44.9587 9.28516 44.1475 9.28516C 43.8011 9.28516 43.5003 9.42871 43.2451 9.71582C 42.9945 10.0029 42.8418 10.3607 42.7871 10.7891L 45.3643 10.7891ZM 55.502 15L 53.3418 15L 53.3418 14.0361L 53.3145 14.0361C 52.8223 14.7926 52.0999 15.1709 51.1475 15.1709C 50.2725 15.1709 49.5684 14.8633 49.0352 14.248C 48.502 13.6283 48.2354 12.7646 48.2354 11.6572C 48.2354 10.4997 48.5293 9.57227 49.1172 8.875C 49.7051 8.17773 50.4753 7.8291 51.4277 7.8291C 52.3301 7.8291 52.959 8.15267 53.3145 8.7998L 53.3418 8.7998L 53.3418 4.63672L 55.502 4.63672L 55.502 15ZM 53.3828 11.5957L 53.3828 11.0693C 53.3828 10.6136 53.2507 10.2354 52.9863 9.93457C 52.722 9.63379 52.3779 9.4834 51.9541 9.4834C 51.4756 9.4834 51.1019 9.67253 50.833 10.0508C 50.5641 10.4245 50.4297 10.9395 50.4297 11.5957C 50.4297 12.2109 50.5596 12.6849 50.8193 13.0176C 51.0791 13.3503 51.4391 13.5166 51.8994 13.5166C 52.3369 13.5166 52.6924 13.3411 52.9658 12.9902C 53.2438 12.6393 53.3828 12.1745 53.3828 11.5957ZM 60.7314 14.8154L 60.7314 13.0654C 61.0869 13.2796 61.4401 13.4391 61.791 13.5439C 62.1465 13.6488 62.4814 13.7012 62.7959 13.7012C 63.1787 13.7012 63.4795 13.6488 63.6982 13.5439C 63.9215 13.4391 64.0332 13.2796 64.0332 13.0654C 64.0332 12.9287 63.9831 12.8148 63.8828 12.7236C 63.7826 12.6325 63.6527 12.5527 63.4932 12.4844C 63.3382 12.416 63.1673 12.3545 62.9805 12.2998C 62.7936 12.2451 62.6136 12.1836 62.4404 12.1152C 62.1624 12.0104 61.9163 11.8988 61.7021 11.7803C 61.4925 11.6572 61.3148 11.516 61.1689 11.3564C 61.0277 11.1969 60.9183 11.0124 60.8408 10.8027C 60.7679 10.5931 60.7314 10.3447 60.7314 10.0576C 60.7314 9.66569 60.8158 9.32845 60.9844 9.0459C 61.1576 8.76335 61.3854 8.5332 61.668 8.35547C 61.9551 8.17318 62.2809 8.04102 62.6455 7.95898C 63.0146 7.8724 63.3975 7.8291 63.7939 7.8291C 64.1038 7.8291 64.4183 7.85417 64.7373 7.9043C 65.0563 7.94987 65.3708 8.01823 65.6807 8.10938L 65.6807 9.77734C 65.4072 9.61784 65.1133 9.49935 64.7988 9.42188C 64.4889 9.33984 64.1836 9.29883 63.8828 9.29883C 63.7415 9.29883 63.6071 9.3125 63.4795 9.33984C 63.3564 9.36263 63.2471 9.39909 63.1514 9.44922C 63.0557 9.49479 62.9805 9.55632 62.9258 9.63379C 62.8711 9.70671 62.8438 9.79102 62.8438 9.88672C 62.8438 10.0143 62.8848 10.1237 62.9668 10.2148C 63.0488 10.306 63.1559 10.3857 63.2881 10.4541C 63.4202 10.5179 63.5661 10.5771 63.7256 10.6318C 63.8896 10.682 64.0514 10.7344 64.2109 10.7891C 64.498 10.8893 64.7578 10.9987 64.9902 11.1172C 65.2227 11.2357 65.4209 11.3747 65.585 11.5342C 65.7536 11.6937 65.8812 11.8805 65.9678 12.0947C 66.0589 12.3089 66.1045 12.5641 66.1045 12.8604C 66.1045 13.2751 66.0133 13.6305 65.8311 13.9268C 65.6533 14.2184 65.4141 14.4577 65.1133 14.6445C 64.8171 14.8268 64.473 14.959 64.0811 15.041C 63.6937 15.1276 63.2904 15.1709 62.8711 15.1709C 62.1009 15.1709 61.3877 15.0524 60.7314 14.8154ZM 71.5869 14.918C 71.2679 15.0866 70.7871 15.1709 70.1445 15.1709C 68.6224 15.1709 67.8613 14.3802 67.8613 12.7988L 67.8613 9.59277L 66.7266 9.59277L 66.7266 8L 67.8613 8L 67.8613 6.48926L 70.0146 5.87402L 70.0146 8L 71.5869 8L 71.5869 9.59277L 70.0146 9.59277L 70.0146 12.4229C 70.0146 13.152 70.304 13.5166 70.8828 13.5166C 71.1107 13.5166 71.3454 13.4505 71.5869 13.3184L 71.5869 14.918ZM 78.6348 15L 76.5908 15L 76.5908 13.9951L 76.5635 13.9951C 76.0941 14.779 75.3991 15.1709 74.4785 15.1709C 73.7995 15.1709 73.264 14.9795 72.8721 14.5967C 72.4847 14.2093 72.291 13.6943 72.291 13.0518C 72.291 11.6937 73.0954 10.9098 74.7041 10.7002L 76.6045 10.4473C 76.6045 9.68164 76.1898 9.29883 75.3604 9.29883C 74.5264 9.29883 73.7334 9.5472 72.9814 10.0439L 72.9814 8.41699C 73.2822 8.26204 73.6924 8.12533 74.2119 8.00684C 74.736 7.88835 75.2122 7.8291 75.6406 7.8291C 77.6367 7.8291 78.6348 8.82487 78.6348 10.8164L 78.6348 15ZM 76.6045 12.1562L 76.6045 11.6846L 75.333 11.8486C 74.6312 11.9398 74.2803 12.2565 74.2803 12.7988C 74.2803 13.0449 74.3646 13.2477 74.5332 13.4072C 74.7064 13.5622 74.9388 13.6396 75.2305 13.6396C 75.6361 13.6396 75.9665 13.5007 76.2217 13.2227C 76.4769 12.9401 76.6045 12.5846 76.6045 12.1562ZM 84.5752 14.918C 84.2562 15.0866 83.7754 15.1709 83.1328 15.1709C 81.6107 15.1709 80.8496 14.3802 80.8496 12.7988L 80.8496 9.59277L 79.7148 9.59277L 79.7148 8L 80.8496 8L 80.8496 6.48926L 83.0029 5.87402L 83.0029 8L 84.5752 8L 84.5752 9.59277L 83.0029 9.59277L 83.0029 12.4229C 83.0029 13.152 83.2923 13.5166 83.8711 13.5166C 84.099 13.5166 84.3337 13.4505 84.5752 13.3184L 84.5752 14.918ZM 92.0332 12.1152L 87.4668 12.1152C 87.5397 13.1315 88.18 13.6396 89.3877 13.6396C 90.1579 13.6396 90.8346 13.4574 91.418 13.0928L 91.418 14.6514C 90.7708 14.9977 89.93 15.1709 88.8955 15.1709C 87.7653 15.1709 86.888 14.8587 86.2637 14.2344C 85.6393 13.6055 85.3271 12.7305 85.3271 11.6094C 85.3271 10.4473 85.6644 9.52669 86.3389 8.84766C 87.0133 8.16862 87.8428 7.8291 88.8271 7.8291C 89.848 7.8291 90.6364 8.13216 91.1924 8.73828C 91.7529 9.3444 92.0332 10.167 92.0332 11.2061L 92.0332 12.1152ZM 90.0303 10.7891C 90.0303 9.78646 89.6247 9.28516 88.8135 9.28516C 88.4671 9.28516 88.1663 9.42871 87.9111 9.71582C 87.6605 10.0029 87.5078 10.3607 87.4531 10.7891L 90.0303 10.7891Z"/>
<path id="path7_fill" d="M 104.864 12.0195L 101.125 12.0195L 101.125 10.5088L 104.864 10.5088L 104.864 12.0195ZM 108.74 13.209L 112.896 13.209L 112.896 15L 106.375 15L 106.375 14.2617C 106.375 13.7604 106.459 13.3115 106.628 12.915C 106.797 12.514 107.008 12.1562 107.264 11.8418C 107.519 11.5228 107.797 11.2425 108.098 11.001C 108.403 10.7549 108.692 10.5339 108.966 10.3379C 109.253 10.1328 109.504 9.93685 109.718 9.75C 109.937 9.56315 110.119 9.37858 110.265 9.19629C 110.415 9.00944 110.527 8.82259 110.6 8.63574C 110.673 8.44434 110.709 8.24154 110.709 8.02734C 110.709 7.60807 110.59 7.29134 110.354 7.07715C 110.117 6.86296 109.754 6.75586 109.267 6.75586C 108.424 6.75586 107.617 7.09082 106.847 7.76074L 106.847 5.86035C 107.699 5.30892 108.66 5.0332 109.731 5.0332C 110.228 5.0332 110.673 5.09928 111.064 5.23145C 111.461 5.35905 111.796 5.54362 112.069 5.78516C 112.343 6.02669 112.55 6.32064 112.691 6.66699C 112.837 7.00879 112.91 7.3916 112.91 7.81543C 112.91 8.2666 112.84 8.66764 112.698 9.01855C 112.562 9.36947 112.377 9.68848 112.145 9.97559C 111.917 10.2627 111.652 10.527 111.352 10.7686C 111.051 11.0055 110.739 11.2357 110.415 11.459C 110.196 11.6139 109.984 11.7689 109.779 11.9238C 109.579 12.0742 109.401 12.2246 109.246 12.375C 109.091 12.5208 108.968 12.6644 108.877 12.8057C 108.786 12.9469 108.74 13.0814 108.74 13.209Z"/>
</defs>
</svg>
