<svg width="1152" height="648" viewBox="0 0 1152 648" version="1.1" xmlns="http://www.w3.org/2000/svg" xmlns:xlink="http://www.w3.org/1999/xlink">
<title>color-header</title>
<desc>Created using Figma</desc>
<g id="Canvas" transform="translate(-907 7632)">
<clipPath id="clip-0" clip-rule="evenodd">
<path d="M 907 -7632L 2059 -7632L 2059 -6984L 907 -6984L 907 -7632Z" fill="#FFFFFF"/>
</clipPath>
<g id="color-header" clip-path="url(#clip-0)">
<path d="M 907 -7632L 2059 -7632L 2059 -6984L 907 -6984L 907 -7632Z" fill="#8664B7"/>
<g id="Color principles">
<use xlink:href="#path0_fill" transform="translate(948 -7372)" fill="#FFFFFF"/>
</g>
</g>
</g>
<defs>
<path id="path0_fill" d="M 25.0703 24.9453L 9.75781 24.9453L 9.75781 38.5078L 23.9219 38.5078L 23.9219 42.6367L 9.75781 42.6367L 9.75781 60L 5.16406 60L 5.16406 20.7891L 25.0703 20.7891L 25.0703 24.9453ZM 37.1016 45.1797L 37.1016 60L 32.5078 60L 32.5078 20.7891L 43.2812 20.7891C 47.474 20.7891 50.7188 21.8099 53.0156 23.8516C 55.3307 25.8932 56.4883 28.7734 56.4883 32.4922C 56.4883 36.2109 55.2031 39.2552 52.6328 41.625C 50.0807 43.9948 46.6263 45.1797 42.2695 45.1797L 37.1016 45.1797ZM 37.1016 24.9453L 37.1016 41.0234L 41.9141 41.0234C 45.0859 41.0234 47.5013 40.3034 49.1602 38.8633C 50.8372 37.4049 51.6758 35.3542 51.6758 32.7109C 51.6758 27.5339 48.6133 24.9453 42.4883 24.9453L 37.1016 24.9453ZM 79.7031 60.6562C 74.1432 60.6562 69.6862 58.8242 66.332 55.1602C 62.9961 51.4961 61.3281 46.7292 61.3281 40.8594C 61.3281 34.5521 63.0326 29.5208 66.4414 25.7656C 69.8503 22.0104 74.4896 20.1328 80.3594 20.1328C 85.7734 20.1328 90.1302 21.9557 93.4297 25.6016C 96.7474 29.2474 98.4062 34.0143 98.4062 39.9023C 98.4062 46.3008 96.7109 51.3594 93.3203 55.0781C 89.9297 58.7969 85.3906 60.6562 79.7031 60.6562ZM 80.0312 24.2891C 75.9115 24.2891 72.5664 25.7747 69.9961 28.7461C 67.4258 31.7174 66.1406 35.6185 66.1406 40.4492C 66.1406 45.2799 67.3893 49.1719 69.8867 52.125C 72.4023 55.0599 75.6745 56.5273 79.7031 56.5273C 84.0052 56.5273 87.3958 55.1237 89.875 52.3164C 92.3542 49.5091 93.5938 45.5807 93.5938 40.5312C 93.5938 35.3542 92.3906 31.3529 89.9844 28.5273C 87.5781 25.7018 84.2604 24.2891 80.0312 24.2891Z"/>
</defs>
</svg>
