<svg width="1152" height="199" viewBox="0 0 1152 199" version="1.1" xmlns="http://www.w3.org/2000/svg" xmlns:xlink="http://www.w3.org/1999/xlink">
<title>usability-lighting</title>
<desc>Created using Figma</desc>
<g id="Canvas" transform="translate(-10683 7615)">
<clipPath id="clip-0" clip-rule="evenodd">
<path d="M 10683 -7615L 11835 -7615L 11835 -7416L 10683 -7416L 10683 -7615Z" fill="#FFFFFF"/>
</clipPath>
<g id="usability-lighting" clip-path="url(#clip-0)">
<path d="M 10683 -7615L 11835 -7615L 11835 -7416L 10683 -7416L 10683 -7615Z" fill="#FFFFFF"/>
<g id="Group 28">
<g id="Group 14.1">
<g id="Rectangle 15 Copy 2">
<use xlink:href="#path0_fill" transform="translate(11255.3 -7615)" fill="#FFFFFF"/>
<use xlink:href="#path0_fill" transform="translate(11255.3 -7615)" fill="url(#paint1_linear)"/>
</g>
</g>
<g id="Rectangle 15 Copy 7.2">
<use xlink:href="#path1_fill" transform="translate(10683 -7615)" fill="url(#paint2_linear)"/>
</g>
<g id="Group 21.1" filter="url(#filter0_d)">
<g id="Rectangle 45">
<use xlink:href="#path2_fill" transform="translate(11194.5 -7574.9)"/>
</g>
<g id="Rectangle 45.1">
<use xlink:href="#path2_fill" transform="translate(11258.3 -7574.9)" fill="#FFFFFF"/>
</g>
</g>
</g>
</g>
</g>
<defs>
<filter id="filter0_d" filterUnits="userSpaceOnUse" x="11189" y="-7580" width="145" height="144" color-interpolation-filters="sRGB">
<feFlood flood-opacity="0" result="BackgroundImageFix"/>
<feColorMatrix in="SourceAlpha" type="matrix" values="0 0 0 0 0 0 0 0 0 0 0 0 0 0 0 0 0 0 255 0"/>
<feOffset dx="3" dy="3"/>
<feGaussianBlur stdDeviation="4"/>
<feColorMatrix type="matrix" values="0 0 0 0 0.39 0 0 0 0 0.34837 0 0 0 0 0.3237 0 0 0 0.5 0"/>
<feBlend mode="normal" in2="BackgroundImageFix" result="effect1_dropShadow"/>
<feBlend mode="normal" in="SourceGraphic" in2="effect1_dropShadow" result="shape"/>
</filter>
<linearGradient id="paint1_linear" x1="0" y1="0" x2="1" y2="0" gradientUnits="userSpaceOnUse" gradientTransform="matrix(7.20259e-14 -199 579.707 3.49591e-12 -280.813 199)">
<stop offset="0" stop-color="#F5D76E"/>
<stop offset="1" stop-color="#E89900"/>
</linearGradient>
<linearGradient id="paint2_linear" x1="0" y1="0" x2="1" y2="0" gradientUnits="userSpaceOnUse" gradientTransform="matrix(3.52244e-14 199 -575.259 1.21852e-14 575.259 -1.21852e-14)">
<stop offset="0" stop-color="#092642"/>
<stop offset="1" stop-color="#2276C7"/>
</linearGradient>
<path id="path0_fill" fill-rule="evenodd" d="M 0 0L 579.707 0L 579.707 199L 0 199L 0 0Z"/>
<path id="path1_fill" fill-rule="evenodd" d="M 0 0L 575.259 0L 575.259 199L 0 199L 0 0Z"/>
<path id="path2_fill" d="M 0 0L 63.7529 0L 63.7529 127.716L 0 127.716L 0 0Z"/>
</defs>
</svg>
