<svg width="1152" height="199" viewBox="0 0 1152 199" version="1.1" xmlns="http://www.w3.org/2000/svg" xmlns:xlink="http://www.w3.org/1999/xlink">
<title>usability-colorblindness</title>
<desc>Created using Figma</desc>
<g id="Canvas" transform="translate(-10683 7318)">
<clipPath id="clip-0" clip-rule="evenodd">
<path d="M 10683 -7318L 11835 -7318L 11835 -7119L 10683 -7119L 10683 -7318Z" fill="#FFFFFF"/>
</clipPath>
<g id="usability-colorblindness" clip-path="url(#clip-0)">
<path d="M 10683 -7318L 11835 -7318L 11835 -7119L 10683 -7119L 10683 -7318Z" fill="#FFFFFF"/>
<g id="Group 17">
<g id="Rectangle 15 Copy 3.1">
<use xlink:href="#path0_fill" transform="translate(10683 -7318)" fill="#147C10"/>
</g>
<g id="Group 16">
<g id="Vector">
<use xlink:href="#path1_fill" transform="translate(11180.3 -7285.33)" fill="#EF6850"/>
</g>
<g id="Vector">
<use xlink:href="#path2_fill" transform="translate(11185.6 -7285.33)" fill="#FFFFFF"/>
</g>
</g>
</g>
</g>
</g>
<defs>
<path id="path0_fill" fill-rule="evenodd" d="M 0 0L 1155 0L 1155 199L 0 199L 0 0Z"/>
<path id="path1_fill" d="M 118.702 37.2163C 123.129 39.4804 127.556 42.3105 131.43 45.7067C 137.517 50.2349 143.051 54.7631 147.479 59.8573C 149.139 61.5554 153.012 66.0837 153.566 66.0837C 154.673 67.2157 154.673 68.9137 153.566 70.0457C 153.012 70.6118 149.139 74.574 147.479 76.2721C 142.498 80.8003 136.964 85.8945 131.43 90.4227C 114.275 102.875 95.4598 110.8 77.1979 110.8C 68.8971 110.8 60.0428 109.102 51.742 106.271L 62.2563 95.5169C 66.6835 97.781 71.664 99.4792 77.1979 99.4792C 93.7997 99.4792 107.634 85.3285 107.634 68.3477C 107.634 62.6875 105.974 57.5932 103.761 53.0649L 118.702 37.2163ZM 102.654 29.8578C 94.3531 27.0277 86.0522 25.3297 77.1979 25.3297C 58.3827 25.3297 40.1209 33.2541 22.9658 45.7067C 16.8785 50.2349 11.3444 54.7631 6.91731 59.8573C 5.25714 61.5554 1.38354 66.0837 0.830153 66.0837C -0.276628 67.2157 -0.276628 68.9137 0.830153 70.0457C 1.38354 70.6118 5.25714 74.574 6.91731 76.2721C 11.8978 80.8003 17.4319 85.8945 22.9658 90.4227C 27.3929 93.2529 31.2666 96.083 35.6937 98.9131L 50.6353 83.6303C 48.4217 79.1021 46.7615 74.008 46.7615 68.3477C 46.7615 51.3669 60.5962 37.2163 77.1979 37.2163C 82.7318 37.2163 87.7124 38.9142 92.1396 41.1784L 102.654 29.8578ZM 138.624 0.424554L 5.81063 136.271C 4.70385 137.403 4.70385 139.101 5.81063 140.233C 6.91741 141.365 8.57748 141.365 9.68426 140.233L 142.498 4.38664C 143.605 3.25458 143.605 1.55661 142.498 0.424554C 141.945 -0.141472 139.731 -0.141472 138.624 0.424554Z"/>
<path id="path2_fill" d="M 133.644 0.42452L 0.830085 136.271C -0.276695 137.403 -0.276695 139.101 0.830085 140.233C 1.93687 141.365 3.59693 141.365 4.70372 140.233L 137.517 4.3866C 138.624 3.25455 138.624 1.55657 137.517 0.42452C 136.964 -0.141507 134.751 -0.141507 133.644 0.42452Z"/>
</defs>
</svg>
