<svg width="560" height="40" viewBox="0 0 560 40" version="1.1" xmlns="http://www.w3.org/2000/svg" xmlns:xlink="http://www.w3.org/1999/xlink">
<title>dont</title>
<desc>Created using Figma</desc>
<g id="Canvas" transform="translate(-1289 1782)">
<clipPath id="clip-0" clip-rule="evenodd">
<path d="M 1289 -1782L 1849 -1782L 1849 -1742L 1289 -1742L 1289 -1782Z" fill="#FFFFFF"/>
</clipPath>
<g id="dont" clip-path="url(#clip-0)">
<path d="M 1289 -1782L 1849 -1782L 1849 -1742L 1289 -1742L 1289 -1782Z" fill="#FFFFFF"/>
<g id="Component">
<g id="Rectangle">
<use xlink:href="#path0_fill" transform="translate(1289 -1782)" fill="#D83230"/>
</g>
<g id="Don&#226;&#128;&#153;t">
<use xlink:href="#path1_fill" transform="translate(1325 -1774)" fill="#FFFFFF"/>
</g>
<g id="icon-don&#39;t">
<g id="close">
<g id="Line 3 (Stroke)">
<use xlink:href="#path2_fill" transform="matrix(0.69673 -0.717333 0.69673 0.717333 1302 -1756.91)" fill="#FF6E6E"/>
</g>
<g id="Line 3.1 (Stroke)">
<use xlink:href="#path2_fill" transform="matrix(-0.69673 -0.717333 0.69673 -0.717333 1314.42 -1755.31)" fill="#FF6E6E"/>
</g>
</g>
</g>
</g>
</g>
</g>
<defs>
<path id="path0_fill" d="M 0 0L 560 0L 560 40L 0 40L 0 0Z"/>
<path id="path1_fill" d="M 1.28125 17L 1.28125 5.79688L 5.25 5.79688C 9.22917 5.79688 11.2188 7.61719 11.2188 11.2578C 11.2188 13.0026 10.6745 14.3958 9.58594 15.4375C 8.5026 16.4792 7.05729 17 5.25 17L 1.28125 17ZM 3.80469 7.85156L 3.80469 14.9531L 5.05469 14.9531C 6.14844 14.9531 7.00521 14.625 7.625 13.9688C 8.25 13.3125 8.5625 12.4193 8.5625 11.2891C 8.5625 10.2214 8.2526 9.38281 7.63281 8.77344C 7.01823 8.15885 6.15365 7.85156 5.03906 7.85156L 3.80469 7.85156ZM 16.6484 17.1953C 15.3151 17.1953 14.2656 16.8229 13.5 16.0781C 12.7396 15.3281 12.3594 14.3125 12.3594 13.0312C 12.3594 11.7083 12.7552 10.6745 13.5469 9.92969C 14.3385 9.17969 15.4089 8.80469 16.7578 8.80469C 18.0859 8.80469 19.1276 9.17969 19.8828 9.92969C 20.638 10.6745 21.0156 11.6615 21.0156 12.8906C 21.0156 14.2188 20.625 15.2682 19.8438 16.0391C 19.0677 16.8099 18.0026 17.1953 16.6484 17.1953ZM 16.7109 10.6953C 16.1276 10.6953 15.6745 10.8958 15.3516 11.2969C 15.0286 11.6979 14.8672 12.2656 14.8672 13C 14.8672 14.5365 15.487 15.3047 16.7266 15.3047C 17.9089 15.3047 18.5 14.5156 18.5 12.9375C 18.5 11.4427 17.9036 10.6953 16.7109 10.6953ZM 30.3438 17L 27.8828 17L 27.8828 12.5547C 27.8828 11.3151 27.4401 10.6953 26.5547 10.6953C 26.1276 10.6953 25.776 10.8594 25.5 11.1875C 25.224 11.5156 25.0859 11.9323 25.0859 12.4375L 25.0859 17L 22.6172 17L 22.6172 9L 25.0859 9L 25.0859 10.2656L 25.1172 10.2656C 25.7057 9.29167 26.5625 8.80469 27.6875 8.80469C 29.4583 8.80469 30.3438 9.90365 30.3438 12.1016L 30.3438 17ZM 35.1719 5.53125L 33.6641 9L 32.1484 9L 33.0391 5.53125L 35.1719 5.53125ZM 41.7812 16.9062C 41.4167 17.099 40.8672 17.1953 40.1328 17.1953C 38.3932 17.1953 37.5234 16.2917 37.5234 14.4844L 37.5234 10.8203L 36.2266 10.8203L 36.2266 9L 37.5234 9L 37.5234 7.27344L 39.9844 6.57031L 39.9844 9L 41.7812 9L 41.7812 10.8203L 39.9844 10.8203L 39.9844 14.0547C 39.9844 14.888 40.3151 15.3047 40.9766 15.3047C 41.237 15.3047 41.5052 15.2292 41.7812 15.0781L 41.7812 16.9062Z"/>
<path id="path2_fill" fill-rule="evenodd" d="M 17.8221 2.65828L 0 2.65828L 0 0L 17.8221 0L 17.8221 2.65828Z"/>
</defs>
</svg>
