<svg width="1920" height="919" viewBox="0 0 1920 919" version="1.1" xmlns="http://www.w3.org/2000/svg" xmlns:xlink="http://www.w3.org/1999/xlink">
<g fill="none">
<g clip-path="url(#clip0)">
<rect width="1920" height="918.333" fill="#3A2E56"/>
<path d="M 691.283 777.836L 590.516 777.836L 508.169 559.782L 178.78 559.782L 101.309 777.836L 0 777.836L 297.967 0L 392.233 0L 691.283 777.836ZM 478.372 477.876L 356.477 146.454C 352.504 135.606 348.531 118.248 344.558 94.3818L 342.391 94.3818C 338.779 116.44 334.626 133.798 329.931 146.454L 209.119 477.876L 478.372 477.876Z" transform="translate(1024.72 142.163)" fill="#5C318F"/>
<path d="M 691.283 777.836L 590.516 777.836L 508.169 559.782L 178.78 559.782L 101.309 777.836L 0 777.836L 297.967 0L 392.233 0L 691.283 777.836ZM 478.372 477.876L 356.477 146.454C 352.504 135.606 348.531 118.248 344.558 94.3818L 342.391 94.3818C 338.779 116.44 334.626 133.798 329.931 146.454L 209.119 477.876L 478.372 477.876Z" transform="translate(1024.72 142.163)" fill="url(#paint0_linear)" fill-opacity="0.5" style="mix-blend-mode:overlay"/>
<path d="M 0 0L 462.561 0L 462.561 920L 0 920L 0 0Z" transform="translate(919.035 0)" fill="#3A2E56"/>
<path d="M 691.283 777.836L 590.516 777.836L 508.169 559.782L 178.78 559.782L 101.309 777.836L 0 777.836L 297.967 0L 392.233 0L 691.283 777.836ZM 478.372 477.876L 356.477 146.454C 352.504 135.606 348.531 118.248 344.558 94.3818L 342.391 94.3818C 338.779 116.44 334.626 133.798 329.931 146.454L 209.119 477.876L 478.372 477.876Z" transform="translate(574.658 142.163)" fill="#CF90FF"/>
<path d="M 691.283 777.836L 590.516 777.836L 508.169 559.782L 178.78 559.782L 101.309 777.836L 0 777.836L 297.967 0L 392.233 0L 691.283 777.836ZM 478.372 477.876L 356.477 146.454C 352.504 135.606 348.531 118.248 344.558 94.3818L 342.391 94.3818C 338.779 116.44 334.626 133.798 329.931 146.454L 209.119 477.876L 478.372 477.876Z" transform="translate(574.658 142.163)" fill="url(#paint1_linear)" fill-opacity="0.5" style="mix-blend-mode:overlay"/>
<path d="M 0 0L 315.666 0L 315.666 920L 0 920L 0 0Z" transform="translate(603.371 0)" fill="#3A2E56"/>
<path d="M 724.872 777.836L 583.473 777.836L 513.586 579.851L 208.035 579.851L 140.857 777.836L 0 777.836L 290.924 0L 436.115 0L 724.872 777.836ZM 479.456 474.621L 371.646 164.354C 368.395 154.229 364.964 137.957 361.352 115.536L 359.185 115.536C 355.935 136.148 352.323 152.421 348.35 164.354L 241.624 474.621L 479.456 474.621Z" transform="translate(0 142.163)" fill="#FFFFFE"/>
</g>
</g>
<defs>
<linearGradient id="paint0_linear" x2="1" gradientUnits="userSpaceOnUse" gradientTransform="matrix(0 777.836 -691.283 0 691.283 0)">
<stop stop-color="white"/>
<stop offset="1" stop-color="white" stop-opacity="0"/>
</linearGradient>
<linearGradient id="paint1_linear" x2="1" gradientUnits="userSpaceOnUse" gradientTransform="matrix(32.7003 546.837 -485.988 29.0616 588.635 -14.5308)">
<stop stop-color="white" stop-opacity="0.45"/>
<stop offset="0.856525" stop-color="white" stop-opacity="0"/>
</linearGradient>
<clipPath id="clip0">
<rect width="1920" height="918.333" fill="white"/>
</clipPath>
</defs>
</svg>
