<svg width="380" height="285" viewBox="0 0 380 285" fill="none" xmlns="http://www.w3.org/2000/svg">
<path d="M188.544 52H142C137.226 52 132.648 53.8963 129.272 57.272C125.896 60.6476 124 65.2261 124 70V214C124 218.774 125.896 223.352 129.272 226.728C132.648 230.104 137.226 232 142 232H238C242.774 232 247.352 230.104 250.728 226.728C254.104 223.352 256 218.774 256 214V119.455C256 114.682 254.104 110.104 250.728 106.729L201.272 57.2712C197.896 53.8959 193.318 52.0001 188.544 52V52Z" stroke="#212121" stroke-width="12" stroke-miterlimit="10"/>
<path d="M196 52V94C196 98.7739 197.896 103.352 201.272 106.728C204.648 110.104 209.226 112 214 112H256" stroke="#212121" stroke-width="12" stroke-miterlimit="10"/>
</svg>
