<svg width="380" height="285" viewBox="0 0 380 285" fill="none" xmlns="http://www.w3.org/2000/svg">
<path fill-rule="evenodd" clip-rule="evenodd" d="M130 70C130 63.3726 135.373 58 142 58H188.544C191.727 58 194.779 59.2643 197.029 61.5147L246.485 110.971C248.736 113.221 250 116.273 250 119.456V214C250 220.627 244.627 226 238 226H202.749C199.32 230.463 195.358 234.495 190.958 238H238C251.255 238 262 227.255 262 214V119.456C262 113.091 259.471 106.986 254.971 102.485L205.515 53.0294C201.014 48.5286 194.909 46 188.544 46H142C128.745 46 118 56.7452 118 70V121.845C121.817 120 125.831 118.495 130 117.371V70Z" fill="#212121"/>
<path d="M196 52V94C196 103.941 204.059 112 214 112H256" stroke="#212121" stroke-width="12"/>
<path fill-rule="evenodd" clip-rule="evenodd" d="M94 184C94 154.177 118.177 130 148 130C177.823 130 202 154.177 202 184C202 213.823 177.823 238 148 238C118.177 238 94 213.823 94 184ZM176.773 188.773C174.137 191.409 169.863 191.409 167.227 188.773L154 175.546L154 208C154 211.314 151.314 214 148 214C144.686 214 142 211.314 142 208L142 175.546L128.773 188.773C126.137 191.409 121.863 191.409 119.227 188.773C116.591 186.137 116.591 181.863 119.227 179.227L143.227 155.227C145.863 152.591 150.137 152.591 152.773 155.227L176.773 179.227C179.409 181.863 179.409 186.137 176.773 188.773Z" fill="#212121"/>
</svg>
