<svg width="940" height="640" viewBox="0 0 940 640" fill="none" xmlns="http://www.w3.org/2000/svg">
<rect width="940" height="640" rx="8" fill="#F9F9F9"/>
<path d="M251 125H260.24C268.383 125 276.306 127.65 282.809 132.551C289.313 137.452 294.043 144.337 296.287 152.165L356.555 362.402C359.247 371.793 364.923 380.054 372.725 385.934C380.526 391.815 390.031 394.997 399.801 395H551.842C561.621 395 571.135 391.815 578.942 385.926C586.749 380.037 592.425 371.766 595.112 362.363L640.324 204.122C640.962 201.889 641.075 199.539 640.65 197.256C640.226 194.973 639.276 192.821 637.878 190.967C636.48 189.114 634.67 187.609 632.592 186.574C630.514 185.538 628.223 185 625.901 185H311" stroke="#212121" stroke-width="20" stroke-miterlimit="10" stroke-linecap="round"/>
<path d="M401 515C417.569 515 431 501.569 431 485C431 468.431 417.569 455 401 455C384.431 455 371 468.431 371 485C371 501.569 384.431 515 401 515Z" stroke="#212121" stroke-width="20" stroke-miterlimit="10" stroke-linecap="round"/>
<path d="M551 515C567.569 515 581 501.569 581 485C581 468.431 567.569 455 551 455C534.431 455 521 468.431 521 485C521 501.569 534.431 515 551 515Z" stroke="#212121" stroke-width="20" stroke-miterlimit="10" stroke-linecap="round"/>
</svg>
